%TF.GenerationSoftware,KiCad,Pcbnew,6.0.11-2627ca5db0~126~ubuntu22.04.1*%
%TF.CreationDate,2023-09-21T15:21:08+02:00*%
%TF.ProjectId,CC1101_868MHz_UFL_RF_Modul_FUEL4EP,43433131-3031-45f3-9836-384d487a5f55,1.4*%
%TF.SameCoordinates,Original*%
%TF.FileFunction,Copper,L1,Top*%
%TF.FilePolarity,Positive*%
%FSLAX46Y46*%
G04 Gerber Fmt 4.6, Leading zero omitted, Abs format (unit mm)*
G04 Created by KiCad (PCBNEW 6.0.11-2627ca5db0~126~ubuntu22.04.1) date 2023-09-21 15:21:08*
%MOMM*%
%LPD*%
G01*
G04 APERTURE LIST*
G04 Aperture macros list*
%AMRoundRect*
0 Rectangle with rounded corners*
0 $1 Rounding radius*
0 $2 $3 $4 $5 $6 $7 $8 $9 X,Y pos of 4 corners*
0 Add a 4 corners polygon primitive as box body*
4,1,4,$2,$3,$4,$5,$6,$7,$8,$9,$2,$3,0*
0 Add four circle primitives for the rounded corners*
1,1,$1+$1,$2,$3*
1,1,$1+$1,$4,$5*
1,1,$1+$1,$6,$7*
1,1,$1+$1,$8,$9*
0 Add four rect primitives between the rounded corners*
20,1,$1+$1,$2,$3,$4,$5,0*
20,1,$1+$1,$4,$5,$6,$7,0*
20,1,$1+$1,$6,$7,$8,$9,0*
20,1,$1+$1,$8,$9,$2,$3,0*%
G04 Aperture macros list end*
%TA.AperFunction,SMDPad,CuDef*%
%ADD10RoundRect,0.147500X-0.147500X-0.172500X0.147500X-0.172500X0.147500X0.172500X-0.147500X0.172500X0*%
%TD*%
%TA.AperFunction,SMDPad,CuDef*%
%ADD11RoundRect,0.140000X0.140000X0.170000X-0.140000X0.170000X-0.140000X-0.170000X0.140000X-0.170000X0*%
%TD*%
%TA.AperFunction,SMDPad,CuDef*%
%ADD12RoundRect,0.147500X0.147500X0.172500X-0.147500X0.172500X-0.147500X-0.172500X0.147500X-0.172500X0*%
%TD*%
%TA.AperFunction,SMDPad,CuDef*%
%ADD13RoundRect,0.140000X-0.140000X-0.170000X0.140000X-0.170000X0.140000X0.170000X-0.140000X0.170000X0*%
%TD*%
%TA.AperFunction,CastellatedPad*%
%ADD14RoundRect,0.250000X-0.600000X-0.250000X0.600000X-0.250000X0.600000X0.250000X-0.600000X0.250000X0*%
%TD*%
%TA.AperFunction,SMDPad,CuDef*%
%ADD15RoundRect,0.147500X-0.172500X0.147500X-0.172500X-0.147500X0.172500X-0.147500X0.172500X0.147500X0*%
%TD*%
%TA.AperFunction,SMDPad,CuDef*%
%ADD16RoundRect,0.140000X0.170000X-0.140000X0.170000X0.140000X-0.170000X0.140000X-0.170000X-0.140000X0*%
%TD*%
%TA.AperFunction,CastellatedPad*%
%ADD17R,1.800000X1.500000*%
%TD*%
%TA.AperFunction,SMDPad,CuDef*%
%ADD18R,1.000000X1.000000*%
%TD*%
%TA.AperFunction,SMDPad,CuDef*%
%ADD19R,2.200000X1.050000*%
%TD*%
%TA.AperFunction,SMDPad,CuDef*%
%ADD20RoundRect,0.140000X-0.170000X0.140000X-0.170000X-0.140000X0.170000X-0.140000X0.170000X0.140000X0*%
%TD*%
%TA.AperFunction,SMDPad,CuDef*%
%ADD21RoundRect,0.135000X0.135000X0.185000X-0.135000X0.185000X-0.135000X-0.185000X0.135000X-0.185000X0*%
%TD*%
%TA.AperFunction,SMDPad,CuDef*%
%ADD22R,1.400000X1.200000*%
%TD*%
%TA.AperFunction,SMDPad,CuDef*%
%ADD23RoundRect,0.225000X-0.250000X0.225000X-0.250000X-0.225000X0.250000X-0.225000X0.250000X0.225000X0*%
%TD*%
%TA.AperFunction,CastellatedPad*%
%ADD24R,1.700000X1.000000*%
%TD*%
%TA.AperFunction,SMDPad,CuDef*%
%ADD25RoundRect,0.062500X-0.425000X-0.062500X0.425000X-0.062500X0.425000X0.062500X-0.425000X0.062500X0*%
%TD*%
%TA.AperFunction,SMDPad,CuDef*%
%ADD26RoundRect,0.062500X-0.062500X-0.425000X0.062500X-0.425000X0.062500X0.425000X-0.062500X0.425000X0*%
%TD*%
%TA.AperFunction,ComponentPad*%
%ADD27C,0.500000*%
%TD*%
%TA.AperFunction,SMDPad,CuDef*%
%ADD28R,2.400000X2.400000*%
%TD*%
%TA.AperFunction,ViaPad*%
%ADD29C,0.600000*%
%TD*%
%TA.AperFunction,Conductor*%
%ADD30C,0.250000*%
%TD*%
%TA.AperFunction,Conductor*%
%ADD31C,0.600000*%
%TD*%
%TA.AperFunction,Conductor*%
%ADD32C,0.200000*%
%TD*%
%TA.AperFunction,Conductor*%
%ADD33C,0.500000*%
%TD*%
G04 APERTURE END LIST*
D10*
%TO.P,L1,1,1*%
%TO.N,Net-(L1-Pad1)*%
X11794000Y8892800D03*
%TO.P,L1,2,2*%
%TO.N,Net-(C1-Pad1)*%
X12764000Y8892800D03*
%TD*%
D11*
%TO.P,C14,1*%
%TO.N,VDDA*%
X8478400Y11836400D03*
%TO.P,C14,2*%
%TO.N,GND*%
X7518400Y11836400D03*
%TD*%
D12*
%TO.P,L7,1,1*%
%TO.N,Net-(C7-Pad1)*%
X18366600Y4876800D03*
%TO.P,L7,2,2*%
%TO.N,Net-(C6-Pad1)*%
X17396600Y4876800D03*
%TD*%
D10*
%TO.P,L3,1,1*%
%TO.N,Net-(C2-Pad1)*%
X14501000Y6858000D03*
%TO.P,L3,2,2*%
%TO.N,Net-(C3-Pad2)*%
X15471000Y6858000D03*
%TD*%
%TO.P,L2,1,1*%
%TO.N,Net-(L2-Pad1)*%
X11794000Y7902800D03*
%TO.P,L2,2,2*%
%TO.N,Net-(C2-Pad1)*%
X12764000Y7902800D03*
%TD*%
D11*
%TO.P,C5,1*%
%TO.N,GND*%
X17704200Y7925200D03*
%TO.P,C5,2*%
%TO.N,Net-(C5-Pad2)*%
X16744200Y7925200D03*
%TD*%
D13*
%TO.P,C3,1*%
%TO.N,GND*%
X14506000Y5842000D03*
%TO.P,C3,2*%
%TO.N,Net-(C3-Pad2)*%
X15466000Y5842000D03*
%TD*%
D14*
%TO.P,JC5,1,Pin_1*%
%TO.N,/MOSI*%
X950000Y5810000D03*
%TD*%
D15*
%TO.P,L6,1,1*%
%TO.N,Net-(C5-Pad2)*%
X16408400Y6987400D03*
%TO.P,L6,2,2*%
%TO.N,Net-(C6-Pad2)*%
X16408400Y6017400D03*
%TD*%
D16*
%TO.P,C2,1*%
%TO.N,Net-(C2-Pad1)*%
X13729000Y7904800D03*
%TO.P,C2,2*%
%TO.N,Net-(C1-Pad1)*%
X13729000Y8864800D03*
%TD*%
D17*
%TO.P,JA1,1,Pin_1*%
%TO.N,Net-(C6-Pad1)*%
X18000000Y3550000D03*
%TD*%
D14*
%TO.P,JC8,1,Pin_1*%
%TO.N,GND*%
X950000Y2000000D03*
%TD*%
D16*
%TO.P,C7,1*%
%TO.N,Net-(C7-Pad1)*%
X18338800Y5819200D03*
%TO.P,C7,2*%
%TO.N,Net-(C6-Pad2)*%
X18338800Y6779200D03*
%TD*%
D18*
%TO.P,JA3,1,In*%
%TO.N,Net-(C6-Pad1)*%
X15928000Y2667000D03*
%TO.P,JA3,2,Ext*%
%TO.N,GND*%
X12928000Y2667000D03*
D19*
X14428000Y1192000D03*
X14428000Y4142000D03*
%TD*%
D20*
%TO.P,C16,1*%
%TO.N,Net-(C16-Pad1)*%
X4013200Y6372800D03*
%TO.P,C16,2*%
%TO.N,GND*%
X4013200Y5412800D03*
%TD*%
D21*
%TO.P,R1,1*%
%TO.N,GND*%
X10365200Y11836400D03*
%TO.P,R1,2*%
%TO.N,Net-(R1-Pad2)*%
X9345200Y11836400D03*
%TD*%
D16*
%TO.P,C15,1*%
%TO.N,VDDA*%
X11684000Y5616000D03*
%TO.P,C15,2*%
%TO.N,GND*%
X11684000Y6576000D03*
%TD*%
%TO.P,C17,1*%
%TO.N,VDDA*%
X12700000Y5616000D03*
%TO.P,C17,2*%
%TO.N,GND*%
X12700000Y6576000D03*
%TD*%
D17*
%TO.P,JA2,1,Pin_1*%
%TO.N,GND*%
X18000000Y1270000D03*
%TD*%
D10*
%TO.P,L4,1,1*%
%TO.N,Net-(C1-Pad1)*%
X14695600Y8966600D03*
%TO.P,L4,2,2*%
%TO.N,Net-(C4-Pad2)*%
X15665600Y8966600D03*
%TD*%
D22*
%TO.P,Y1,1,1*%
%TO.N,Net-(C8-Pad2)*%
X6723200Y1690000D03*
%TO.P,Y1,2,2*%
%TO.N,GND*%
X8923200Y1690000D03*
%TO.P,Y1,3,3*%
%TO.N,Net-(C9-Pad2)*%
X8923200Y3390000D03*
%TO.P,Y1,4,4*%
%TO.N,GND*%
X6723200Y3390000D03*
%TD*%
D23*
%TO.P,C13,1*%
%TO.N,VDDA*%
X5207000Y7506000D03*
%TO.P,C13,2*%
%TO.N,GND*%
X5207000Y5956000D03*
%TD*%
D13*
%TO.P,C10,1*%
%TO.N,VDDA*%
X5393000Y11811000D03*
%TO.P,C10,2*%
%TO.N,GND*%
X6353000Y11811000D03*
%TD*%
%TO.P,C4,1*%
%TO.N,Net-(C2-Pad1)*%
X14680600Y7899800D03*
%TO.P,C4,2*%
%TO.N,Net-(C4-Pad2)*%
X15640600Y7899800D03*
%TD*%
D14*
%TO.P,JC6,1,Pin_1*%
%TO.N,/MISO{slash}GDO1*%
X950000Y4540000D03*
%TD*%
D10*
%TO.P,FB1,1*%
%TO.N,/VDD*%
X1340000Y12275000D03*
%TO.P,FB1,2*%
%TO.N,VDDA*%
X2310000Y12275000D03*
%TD*%
D11*
%TO.P,C12,1*%
%TO.N,VDDA*%
X12214800Y11811000D03*
%TO.P,C12,2*%
%TO.N,GND*%
X11254800Y11811000D03*
%TD*%
D14*
%TO.P,JC3,1,Pin_1*%
%TO.N,/~{CS}*%
X950000Y8350000D03*
%TD*%
%TO.P,JC2,1,Pin_1*%
%TO.N,/GDO0*%
X950000Y9620000D03*
%TD*%
D24*
%TO.P,JC1,1,Pin_1*%
%TO.N,/VDD*%
X950000Y10890000D03*
%TD*%
D10*
%TO.P,L5,1,1*%
%TO.N,Net-(C4-Pad2)*%
X16759200Y8941200D03*
%TO.P,L5,2,2*%
%TO.N,Net-(C5-Pad2)*%
X17729200Y8941200D03*
%TD*%
D13*
%TO.P,C11,1*%
%TO.N,VDDA*%
X11645000Y10125000D03*
%TO.P,C11,2*%
%TO.N,GND*%
X12605000Y10125000D03*
%TD*%
%TO.P,C8,1*%
%TO.N,GND*%
X6936800Y4724400D03*
%TO.P,C8,2*%
%TO.N,Net-(C8-Pad2)*%
X7896800Y4724400D03*
%TD*%
%TO.P,C1,1*%
%TO.N,Net-(C1-Pad1)*%
X14680600Y9982600D03*
%TO.P,C1,2*%
%TO.N,GND*%
X15640600Y9982600D03*
%TD*%
D16*
%TO.P,C6,1*%
%TO.N,Net-(C6-Pad1)*%
X17373600Y5819200D03*
%TO.P,C6,2*%
%TO.N,Net-(C6-Pad2)*%
X17373600Y6779200D03*
%TD*%
D11*
%TO.P,C9,1*%
%TO.N,GND*%
X9878000Y4724400D03*
%TO.P,C9,2*%
%TO.N,Net-(C9-Pad2)*%
X8918000Y4724400D03*
%TD*%
D14*
%TO.P,JC4,1,Pin_1*%
%TO.N,/SCK*%
X950000Y7080000D03*
%TD*%
D25*
%TO.P,U1,1,SCLK*%
%TO.N,/SCK*%
X6691500Y9702800D03*
%TO.P,U1,2,SO/GDO1*%
%TO.N,/MISO{slash}GDO1*%
X6691500Y9202800D03*
%TO.P,U1,3,GDO2*%
%TO.N,/GDO2*%
X6691500Y8702800D03*
%TO.P,U1,4,DVDD*%
%TO.N,VDDA*%
X6691500Y8202800D03*
%TO.P,U1,5,DCOUPL*%
%TO.N,Net-(C16-Pad1)*%
X6691500Y7702800D03*
D26*
%TO.P,U1,6,GDO0*%
%TO.N,/GDO0*%
X7579000Y6815300D03*
%TO.P,U1,7,~{CS}*%
%TO.N,/~{CS}*%
X8079000Y6815300D03*
%TO.P,U1,8,XOSC_Q1*%
%TO.N,Net-(C8-Pad2)*%
X8579000Y6815300D03*
%TO.P,U1,9,AVDD1*%
%TO.N,VDDA*%
X9079000Y6815300D03*
%TO.P,U1,10,XOSC_Q2*%
%TO.N,Net-(C9-Pad2)*%
X9579000Y6815300D03*
D25*
%TO.P,U1,11,AVDD2*%
%TO.N,VDDA*%
X10466500Y7702800D03*
%TO.P,U1,12,RF_P*%
%TO.N,Net-(L2-Pad1)*%
X10466500Y8202800D03*
%TO.P,U1,13,RF_N*%
%TO.N,Net-(L1-Pad1)*%
X10466500Y8702800D03*
%TO.P,U1,14,AVDD3*%
%TO.N,VDDA*%
X10466500Y9202800D03*
%TO.P,U1,15,AVDD4*%
X10466500Y9702800D03*
D26*
%TO.P,U1,16,GND1*%
%TO.N,GND*%
X9579000Y10590300D03*
%TO.P,U1,17,RBIAS*%
%TO.N,Net-(R1-Pad2)*%
X9079000Y10590300D03*
%TO.P,U1,18,DGUARD*%
%TO.N,VDDA*%
X8579000Y10590300D03*
%TO.P,U1,19,GND2*%
%TO.N,GND*%
X8079000Y10590300D03*
%TO.P,U1,20,SI*%
%TO.N,/MOSI*%
X7579000Y10590300D03*
D27*
%TO.P,U1,21,GND3*%
%TO.N,GND*%
X9529000Y9652800D03*
D28*
X8579000Y8702800D03*
D27*
X8579000Y7752800D03*
X9529000Y8702800D03*
X8579000Y9652800D03*
X9529000Y7752800D03*
X8579000Y8702800D03*
X7629000Y9652800D03*
X7629000Y7752800D03*
X7629000Y8702800D03*
%TD*%
D14*
%TO.P,JC7,1,Pin_1*%
%TO.N,/GDO2*%
X950000Y3270000D03*
%TD*%
D29*
%TO.N,GND*%
X3302000Y1524000D03*
X3302000Y508000D03*
X2286000Y1524000D03*
X2286000Y508000D03*
X762000Y508000D03*
X11938000Y2692400D03*
X500000Y12050000D03*
X14859000Y12192000D03*
X3302000Y2540000D03*
X4318000Y1524000D03*
X6604000Y508000D03*
X8890000Y508000D03*
X18288000Y11176000D03*
X5334000Y1524000D03*
X6985000Y11303000D03*
X10414000Y3048000D03*
X18542000Y8890000D03*
X10226239Y7051239D03*
X11176000Y3556000D03*
X16205200Y4927600D03*
X5854208Y4498645D03*
X17526000Y11176000D03*
X4318000Y508000D03*
X13462000Y6985000D03*
X12192000Y7112000D03*
X2286000Y2540000D03*
X16357600Y10058400D03*
X16002000Y12192000D03*
X5334000Y2540000D03*
X9780000Y10794000D03*
X11023600Y660400D03*
X10668000Y4699000D03*
X16764000Y11176000D03*
X10160000Y508000D03*
X4318000Y3556000D03*
X5334000Y3556000D03*
X18440400Y7924800D03*
X12192000Y3556000D03*
X11836400Y660400D03*
X13335000Y10175000D03*
X12446000Y1676400D03*
X3556000Y3302000D03*
X4318000Y2540000D03*
X14808200Y11226800D03*
X15748000Y10820400D03*
X13817600Y5384800D03*
X17526000Y10160000D03*
X16764000Y12192000D03*
X5334000Y508000D03*
X2304199Y5700000D03*
X13030200Y12014200D03*
X18288000Y10160000D03*
X11734800Y4470400D03*
X12700000Y762000D03*
X11176000Y2540000D03*
X13792200Y11099800D03*
X7874000Y508000D03*
X6223000Y10922000D03*
X6858000Y7061200D03*
X18288000Y12192000D03*
X4346102Y4561781D03*
X13868400Y12039600D03*
X10414000Y2032000D03*
X11480800Y1574800D03*
X13462000Y6096000D03*
X16256000Y1574800D03*
X16205200Y4064000D03*
X17526000Y12192000D03*
X16205200Y762000D03*
X1524000Y762000D03*
X2375000Y10775000D03*
X4592391Y11199563D03*
X10375000Y3875000D03*
X12928600Y11074400D03*
X12801600Y4521200D03*
X10414000Y1270000D03*
%TO.N,/GDO0*%
X7041833Y5538480D03*
%TO.N,/MOSI*%
X2261967Y7852614D03*
%TO.N,/~{CS}*%
X7877108Y5586478D03*
%TO.N,VDDA*%
X5505452Y8312053D03*
X3403600Y11328400D03*
X9127372Y5974477D03*
X10784500Y6222630D03*
%TD*%
D30*
%TO.N,GND*%
X8079000Y9799247D02*
X8225447Y9652800D01*
X8079000Y10590300D02*
X8079000Y9799247D01*
X9579000Y10590300D02*
X9579000Y9702800D01*
D31*
X10390600Y11811000D02*
X10365200Y11836400D01*
D30*
X8079000Y11268191D02*
X7518400Y11828791D01*
X8079000Y10590300D02*
X8079000Y11268191D01*
D31*
X10365200Y11836400D02*
X10365200Y11379200D01*
D30*
X9579000Y10593000D02*
X9780000Y10794000D01*
D31*
X11254800Y11811000D02*
X10390600Y11811000D01*
X10365200Y11379200D02*
X9780000Y10794000D01*
D30*
%TO.N,Net-(C1-Pad1)*%
X13729000Y8864800D02*
X14593800Y8864800D01*
X12764000Y8892800D02*
X13701000Y8892800D01*
X14695600Y8966600D02*
X14695600Y9967600D01*
%TO.N,Net-(C2-Pad1)*%
X14680600Y7899800D02*
X14680600Y6746400D01*
X13729000Y7904800D02*
X14675600Y7904800D01*
X12764000Y7902800D02*
X13727000Y7902800D01*
%TO.N,Net-(C3-Pad2)*%
X15665600Y6731400D02*
X15665600Y5638800D01*
%TO.N,Net-(C4-Pad2)*%
X15773800Y8950400D02*
X16750000Y8950400D01*
X15640600Y7899800D02*
X15640600Y8941600D01*
%TO.N,Net-(C5-Pad2)*%
X16408400Y7518400D02*
X16408400Y6835000D01*
X16744200Y7854200D02*
X16408400Y7518400D01*
X17729200Y8922984D02*
X16744200Y7937984D01*
%TO.N,Net-(C6-Pad1)*%
X17396600Y4876800D02*
X17396600Y3883400D01*
X16811000Y3550000D02*
X15928000Y2667000D01*
X17730000Y3550000D02*
X16811000Y3550000D01*
X17373600Y5819200D02*
X17373600Y4899800D01*
%TO.N,Net-(C6-Pad2)*%
X17373600Y6779200D02*
X16961800Y6367400D01*
X16961800Y6367400D02*
X16758400Y6367400D01*
X18338800Y6779200D02*
X17373600Y6779200D01*
X16758400Y6367400D02*
X16408400Y6017400D01*
%TO.N,Net-(C7-Pad1)*%
X18338800Y5819200D02*
X18338800Y4904600D01*
D32*
%TO.N,Net-(C8-Pad2)*%
X8527872Y5378272D02*
X8527872Y6764172D01*
X7988459Y4848800D02*
X8219659Y5080000D01*
X7896800Y4826000D02*
X7896800Y2663600D01*
X8219659Y5080000D02*
X8229600Y5080000D01*
X7896800Y2663600D02*
X6923200Y1690000D01*
X8527872Y6764172D02*
X8579000Y6815300D01*
X8229600Y5080000D02*
X8527872Y5378272D01*
D30*
%TO.N,/SCK*%
X6269262Y9702800D02*
X6136507Y9835555D01*
X4874397Y9835555D02*
X4741642Y9702800D01*
X6691500Y9702800D02*
X6269262Y9702800D01*
X2884998Y7559978D02*
X2405020Y7080000D01*
X4741642Y9702800D02*
X3453020Y9702800D01*
X2924500Y9174280D02*
X2924500Y7849297D01*
X2924500Y7849297D02*
X2884998Y7809795D01*
X3453020Y9702800D02*
X2924500Y9174280D01*
X2884998Y7809795D02*
X2884998Y7559978D01*
X6136507Y9835555D02*
X4874397Y9835555D01*
X2405020Y7080000D02*
X1400000Y7080000D01*
%TO.N,/GDO0*%
X7579000Y6258200D02*
X7114757Y5793957D01*
X7579000Y6815300D02*
X7579000Y6258200D01*
X7114757Y5793957D02*
X7114757Y5634373D01*
%TO.N,/MOSI*%
X4688208Y10285056D02*
X4563152Y10160000D01*
X7273756Y10285056D02*
X4688208Y10285056D01*
X2261967Y9147437D02*
X2261967Y7852614D01*
X7579000Y10590300D02*
X7273756Y10285056D01*
X3274530Y10160000D02*
X2261967Y9147437D01*
X4563152Y10160000D02*
X3274530Y10160000D01*
%TO.N,/GDO2*%
X3784000Y7187600D02*
X3784000Y7437417D01*
X2254000Y3270000D02*
X3388700Y4404700D01*
X1400000Y3270000D02*
X2254000Y3270000D01*
X6641001Y8753299D02*
X6691500Y8702800D01*
X3388700Y4404700D02*
X3378200Y4415200D01*
X5764129Y8936553D02*
X5947383Y8753299D01*
X4109499Y8720308D02*
X4142490Y8753299D01*
X4109499Y7762916D02*
X4109499Y8720308D01*
X5947383Y8753299D02*
X6641001Y8753299D01*
X5246775Y8936553D02*
X5764129Y8936553D01*
X4142490Y8753299D02*
X5063521Y8753299D01*
X3784000Y7437417D02*
X4109499Y7762916D01*
X3378200Y6781800D02*
X3784000Y7187600D01*
X5063521Y8753299D02*
X5246775Y8936553D01*
X3378200Y4415200D02*
X3378200Y6781800D01*
%TO.N,Net-(C9-Pad2)*%
X9751872Y6642428D02*
X9751872Y5668295D01*
D32*
X8923200Y3390000D02*
X8923200Y4479200D01*
D30*
X9579000Y6815300D02*
X9751872Y6642428D01*
X9751872Y5668295D02*
X8918000Y4834423D01*
%TO.N,Net-(L1-Pad1)*%
X10466500Y8702800D02*
X11604000Y8702800D01*
X11604000Y8702800D02*
X11794000Y8892800D01*
%TO.N,Net-(L2-Pad1)*%
X11494000Y8202800D02*
X11794000Y7902800D01*
X10466500Y8202800D02*
X11494000Y8202800D01*
%TO.N,Net-(R1-Pad2)*%
X9079000Y11570200D02*
X9345200Y11836400D01*
X9079000Y10590300D02*
X9079000Y11570200D01*
%TO.N,/~{CS}*%
X8079000Y5787163D02*
X7927343Y5635506D01*
X8079000Y6815300D02*
X8079000Y5787163D01*
%TO.N,VDDA*%
X11645000Y10125000D02*
X11645000Y9745000D01*
D33*
X3683000Y11938000D02*
X3838200Y12093200D01*
X11629686Y11041500D02*
X11087454Y11041500D01*
D30*
X11645000Y9745000D02*
X11102800Y9202800D01*
D33*
X12214800Y11995386D02*
X11603786Y12606400D01*
D31*
X2310000Y12275000D02*
X3015800Y12275000D01*
D33*
X3683000Y11607800D02*
X3683000Y11938000D01*
D31*
X5211200Y12275000D02*
X5393000Y12093200D01*
D33*
X5978614Y12581000D02*
X3321800Y12581000D01*
X11684000Y5321000D02*
X12700000Y5321000D01*
X8478400Y12466200D02*
X8618600Y12606400D01*
X12214800Y11811000D02*
X12214800Y11626614D01*
X11090000Y5321000D02*
X11684000Y5321000D01*
D30*
X11670000Y11150000D02*
X11670000Y10150000D01*
D33*
X10823000Y5588000D02*
X11090000Y5321000D01*
D31*
X2310000Y12275000D02*
X2457000Y12275000D01*
D33*
X11603786Y12606400D02*
X8618600Y12606400D01*
X8478400Y11836400D02*
X8478400Y12466200D01*
D30*
X10922000Y6360130D02*
X10784500Y6222630D01*
X9079000Y6815300D02*
X9079000Y6022849D01*
D33*
X12214800Y11811000D02*
X12214800Y11995386D01*
X12214800Y11626614D02*
X11629686Y11041500D01*
X10823000Y6184130D02*
X10784500Y6222630D01*
X10466500Y10420546D02*
X10466500Y9702800D01*
X5393000Y11995386D02*
X5978614Y12581000D01*
D32*
X8579000Y10590300D02*
X8579000Y11782000D01*
D31*
X2457000Y12275000D02*
X3403600Y11328400D01*
D30*
X9079000Y6022849D02*
X9127372Y5974477D01*
D33*
X8618600Y12606400D02*
X6004014Y12606400D01*
X10823000Y5588000D02*
X10823000Y6184130D01*
X3321800Y12581000D02*
X3015800Y12275000D01*
D31*
X3015800Y12275000D02*
X3683000Y11607800D01*
D33*
X5505452Y7804452D02*
X5207000Y7506000D01*
X5393000Y11811000D02*
X5393000Y11995386D01*
D30*
X10712200Y7702800D02*
X10922000Y7493000D01*
D33*
X3403600Y11328400D02*
X3683000Y11607800D01*
D30*
X11102800Y9202800D02*
X10466500Y9202800D01*
X10922000Y7493000D02*
X10922000Y6360130D01*
D33*
X11087454Y11041500D02*
X10466500Y10420546D01*
X6004014Y12606400D02*
X5978614Y12581000D01*
D30*
X6691500Y8202800D02*
X5534403Y8202800D01*
D33*
X3838200Y12093200D02*
X5393000Y12093200D01*
X5505452Y8312053D02*
X5505452Y7804452D01*
D31*
X3015800Y12275000D02*
X5211200Y12275000D01*
D30*
%TO.N,Net-(C16-Pad1)*%
X6077200Y6890000D02*
X6077200Y7702800D01*
X6077200Y6890000D02*
X5918200Y6731000D01*
X4371400Y6731000D02*
X4013200Y6372800D01*
X6077200Y7702800D02*
X6691500Y7702800D01*
X5918200Y6731000D02*
X4371400Y6731000D01*
%TO.N,/MISO{slash}GDO1*%
X6133572Y9202800D02*
X5950318Y9386054D01*
X5060586Y9386054D02*
X4877332Y9202800D01*
X2762000Y4540000D02*
X1400000Y4540000D01*
X5950318Y9386054D02*
X5060586Y9386054D01*
X2928699Y6967989D02*
X2928699Y4706699D01*
X3374001Y8988091D02*
X3374001Y7663108D01*
X3588710Y9202800D02*
X3374001Y8988091D01*
X6691500Y9202800D02*
X6133572Y9202800D01*
X3374001Y7663108D02*
X3334499Y7623606D01*
X4877332Y9202800D02*
X3588710Y9202800D01*
X2928699Y4706699D02*
X2762000Y4540000D01*
X3334499Y7623606D02*
X3334499Y7373789D01*
X3334499Y7373789D02*
X2928699Y6967989D01*
D31*
%TO.N,/VDD*%
X1300000Y10890000D02*
X1300000Y12235000D01*
X1300000Y12235000D02*
X1340000Y12275000D01*
%TD*%
%TA.AperFunction,Conductor*%
%TO.N,GND*%
G36*
X14248413Y7544285D02*
G01*
X14255151Y7536257D01*
X14257376Y7531484D01*
X14310911Y7477949D01*
X14329217Y7433755D01*
X14310911Y7389561D01*
X14275821Y7371922D01*
X14256927Y7369140D01*
X14256922Y7369139D01*
X14252116Y7368431D01*
X14148120Y7317372D01*
X14144474Y7313720D01*
X14144473Y7313719D01*
X14069918Y7239034D01*
X14069916Y7239032D01*
X14066270Y7235379D01*
X14064002Y7230739D01*
X14023497Y7147874D01*
X14015392Y7131294D01*
X14014691Y7126491D01*
X14014691Y7126490D01*
X14014386Y7124398D01*
X14005500Y7063486D01*
X14005500Y6652514D01*
X14005831Y6650267D01*
X14005831Y6650264D01*
X14006186Y6647854D01*
X14015569Y6584116D01*
X14066628Y6480120D01*
X14070283Y6476471D01*
X14070284Y6476470D01*
X14127594Y6419260D01*
X14145939Y6375082D01*
X14127633Y6330833D01*
X14046752Y6249952D01*
X14041041Y6242091D01*
X13988847Y6139655D01*
X13985843Y6130411D01*
X13972384Y6045434D01*
X13972000Y6040547D01*
X13972000Y5981431D01*
X13975641Y5972641D01*
X13984431Y5969000D01*
X14570500Y5969000D01*
X14614694Y5950694D01*
X14633000Y5906500D01*
X14633000Y5290432D01*
X14636641Y5281642D01*
X14645431Y5278001D01*
X14674546Y5278001D01*
X14679434Y5278386D01*
X14764412Y5291844D01*
X14773653Y5294846D01*
X14876091Y5347041D01*
X14883952Y5352752D01*
X14965247Y5434047D01*
X14971538Y5442706D01*
X15012325Y5467700D01*
X15058838Y5456534D01*
X15066296Y5450164D01*
X15127684Y5388776D01*
X15132639Y5386466D01*
X15132641Y5386464D01*
X15182236Y5363338D01*
X15236513Y5338028D01*
X15247892Y5336530D01*
X15284068Y5331767D01*
X15284074Y5331767D01*
X15286099Y5331500D01*
X15328721Y5331500D01*
X15547178Y5331501D01*
X15568554Y5327732D01*
X15575547Y5325187D01*
X15608206Y5313300D01*
X15722994Y5313300D01*
X15790934Y5338028D01*
X15825720Y5350689D01*
X15825721Y5350690D01*
X15830860Y5352560D01*
X15918794Y5426345D01*
X15976188Y5525755D01*
X15977137Y5531138D01*
X15977437Y5531962D01*
X16009753Y5567231D01*
X16057543Y5569318D01*
X16063610Y5566740D01*
X16099790Y5549055D01*
X16130364Y5534110D01*
X16135106Y5531792D01*
X16139909Y5531091D01*
X16139910Y5531091D01*
X16156911Y5528611D01*
X16202914Y5521900D01*
X16613886Y5521900D01*
X16616133Y5522231D01*
X16616136Y5522231D01*
X16640122Y5525762D01*
X16682284Y5531969D01*
X16763733Y5571958D01*
X16781645Y5580752D01*
X16781647Y5580753D01*
X16786280Y5583028D01*
X16789677Y5586431D01*
X16836121Y5597237D01*
X16876731Y5571958D01*
X16882555Y5561991D01*
X16918064Y5485841D01*
X16918066Y5485839D01*
X16920376Y5480884D01*
X17005284Y5395976D01*
X17004883Y5395575D01*
X17028467Y5358556D01*
X17018114Y5311854D01*
X17011150Y5303547D01*
X16965521Y5257838D01*
X16965517Y5257832D01*
X16961870Y5254179D01*
X16910992Y5150094D01*
X16901100Y5082286D01*
X16901100Y4671314D01*
X16911169Y4602916D01*
X16942072Y4539974D01*
X16958872Y4505755D01*
X16961917Y4458016D01*
X16954735Y4443486D01*
X16914553Y4383351D01*
X16914551Y4383347D01*
X16911133Y4378231D01*
X16909933Y4372197D01*
X16909932Y4372195D01*
X16900465Y4324601D01*
X16899500Y4319748D01*
X16899500Y3938000D01*
X16881194Y3893806D01*
X16837000Y3875500D01*
X16827941Y3875500D01*
X16822494Y3875738D01*
X16820451Y3875917D01*
X16782193Y3879264D01*
X16776913Y3877849D01*
X16776911Y3877849D01*
X16743117Y3868793D01*
X16737796Y3867613D01*
X16697955Y3860588D01*
X16693221Y3857855D01*
X16693216Y3857853D01*
X16692487Y3857432D01*
X16677414Y3851188D01*
X16676595Y3850969D01*
X16676593Y3850968D01*
X16671316Y3849554D01*
X16666841Y3846420D01*
X16666840Y3846420D01*
X16638178Y3826350D01*
X16633586Y3823425D01*
X16598545Y3803194D01*
X16595030Y3799005D01*
X16572536Y3772198D01*
X16568852Y3768178D01*
X16186480Y3385806D01*
X16142286Y3367500D01*
X15783702Y3367500D01*
X15739508Y3385806D01*
X15721202Y3430000D01*
X15731735Y3464723D01*
X15763843Y3512775D01*
X15768464Y3523933D01*
X15781401Y3588970D01*
X15782000Y3595054D01*
X15782000Y4002569D01*
X15778359Y4011359D01*
X15769569Y4015000D01*
X14567431Y4015000D01*
X14558641Y4011359D01*
X14555000Y4002569D01*
X14555000Y3375431D01*
X14558641Y3366641D01*
X14567431Y3363000D01*
X15200894Y3363001D01*
X15245088Y3344695D01*
X15263394Y3300501D01*
X15252861Y3265779D01*
X15242554Y3250353D01*
X15242552Y3250347D01*
X15239133Y3245231D01*
X15227500Y3186748D01*
X15227500Y2147252D01*
X15228099Y2144242D01*
X15228099Y2144239D01*
X15235170Y2108694D01*
X15239133Y2088769D01*
X15242550Y2083655D01*
X15242551Y2083653D01*
X15252861Y2068224D01*
X15262193Y2021307D01*
X15235618Y1981533D01*
X15200894Y1971000D01*
X14567431Y1970999D01*
X14558641Y1967358D01*
X14555000Y1958568D01*
X14555000Y1331431D01*
X14558641Y1322641D01*
X14567431Y1319000D01*
X15769568Y1319000D01*
X15778358Y1322641D01*
X15781999Y1331431D01*
X15781999Y1409431D01*
X16846000Y1409431D01*
X16849641Y1400641D01*
X16858431Y1397000D01*
X17860569Y1397000D01*
X17869359Y1400641D01*
X17873000Y1409431D01*
X17873000Y2261568D01*
X17869359Y2270358D01*
X17860569Y2273999D01*
X17078055Y2273999D01*
X17071970Y2273400D01*
X17006932Y2260464D01*
X16995776Y2255843D01*
X16921993Y2206543D01*
X16913457Y2198007D01*
X16864157Y2124225D01*
X16859536Y2113067D01*
X16846599Y2048030D01*
X16846000Y2041946D01*
X16846000Y1409431D01*
X15781999Y1409431D01*
X15781999Y1738945D01*
X15781400Y1745030D01*
X15768464Y1810068D01*
X15763843Y1821224D01*
X15731735Y1869277D01*
X15722403Y1916193D01*
X15748979Y1955967D01*
X15783702Y1966500D01*
X16447748Y1966500D01*
X16450758Y1967099D01*
X16450761Y1967099D01*
X16500195Y1976932D01*
X16500197Y1976933D01*
X16506231Y1978133D01*
X16511345Y1981550D01*
X16511347Y1981551D01*
X16567438Y2019031D01*
X16572552Y2022448D01*
X16616867Y2088769D01*
X16620831Y2108694D01*
X16627901Y2144239D01*
X16627901Y2144242D01*
X16628500Y2147252D01*
X16628500Y2881286D01*
X16646806Y2925480D01*
X16792806Y3071480D01*
X16837000Y3089786D01*
X16881194Y3071480D01*
X16899500Y3027286D01*
X16899500Y2780252D01*
X16900099Y2777242D01*
X16900099Y2777239D01*
X16903137Y2761970D01*
X16911133Y2721769D01*
X16914550Y2716655D01*
X16914551Y2716653D01*
X16919305Y2709539D01*
X16955448Y2655448D01*
X16960562Y2652031D01*
X17016653Y2614551D01*
X17016655Y2614550D01*
X17021769Y2611133D01*
X17027803Y2609933D01*
X17027805Y2609932D01*
X17077239Y2600099D01*
X17077242Y2600099D01*
X17080252Y2599500D01*
X18784300Y2599500D01*
X18828494Y2581194D01*
X18846800Y2537000D01*
X18846800Y2336500D01*
X18828494Y2292306D01*
X18784300Y2274000D01*
X18139431Y2274000D01*
X18130641Y2270359D01*
X18127000Y2261569D01*
X18127000Y1205500D01*
X18108694Y1161306D01*
X18064500Y1143000D01*
X16858432Y1143000D01*
X16849642Y1139359D01*
X16846001Y1130569D01*
X16846001Y498055D01*
X16846600Y491970D01*
X16859536Y426932D01*
X16864157Y415776D01*
X16913457Y341993D01*
X16921993Y333457D01*
X16995775Y284157D01*
X17006933Y279536D01*
X17023708Y276199D01*
X17063482Y249623D01*
X17072814Y202707D01*
X17046238Y162933D01*
X17011515Y152400D01*
X214900Y152400D01*
X170706Y170706D01*
X152400Y214900D01*
X152400Y645055D01*
X13074001Y645055D01*
X13074600Y638970D01*
X13087536Y573932D01*
X13092157Y562776D01*
X13141457Y488993D01*
X13149993Y480457D01*
X13223775Y431157D01*
X13234933Y426536D01*
X13299970Y413599D01*
X13306054Y413000D01*
X14288569Y413000D01*
X14297359Y416641D01*
X14301000Y425431D01*
X14301000Y425432D01*
X14555000Y425432D01*
X14558641Y416642D01*
X14567431Y413001D01*
X15549945Y413001D01*
X15556030Y413600D01*
X15621068Y426536D01*
X15632224Y431157D01*
X15706007Y480457D01*
X15714543Y488993D01*
X15763843Y562775D01*
X15768464Y573933D01*
X15781401Y638970D01*
X15782000Y645054D01*
X15782000Y1052569D01*
X15778359Y1061359D01*
X15769569Y1065000D01*
X14567431Y1065000D01*
X14558641Y1061359D01*
X14555000Y1052569D01*
X14555000Y425432D01*
X14301000Y425432D01*
X14301000Y1052569D01*
X14297359Y1061359D01*
X14288569Y1065000D01*
X13086432Y1065000D01*
X13077642Y1061359D01*
X13074001Y1052569D01*
X13074001Y645055D01*
X152400Y645055D01*
X152400Y1195604D01*
X170706Y1239798D01*
X214900Y1258104D01*
X233135Y1254799D01*
X233177Y1254977D01*
X236458Y1254197D01*
X236833Y1254129D01*
X236987Y1254071D01*
X244556Y1252272D01*
X300608Y1246183D01*
X303976Y1246000D01*
X810569Y1246000D01*
X819359Y1249641D01*
X823000Y1258431D01*
X823000Y1258432D01*
X1077000Y1258432D01*
X1080641Y1249642D01*
X1089431Y1246001D01*
X1596018Y1246001D01*
X1599388Y1246183D01*
X1655443Y1252272D01*
X1663012Y1254071D01*
X1790351Y1301808D01*
X1798086Y1306043D01*
X1906487Y1387285D01*
X1912715Y1393513D01*
X1993957Y1501914D01*
X1998192Y1509649D01*
X2045930Y1636992D01*
X2047728Y1644556D01*
X2053817Y1700608D01*
X2054000Y1703976D01*
X2054000Y1860569D01*
X2050359Y1869359D01*
X2041569Y1873000D01*
X1089431Y1873000D01*
X1080641Y1869359D01*
X1077000Y1860569D01*
X1077000Y1258432D01*
X823000Y1258432D01*
X823000Y2064500D01*
X841306Y2108694D01*
X885500Y2127000D01*
X2041568Y2127000D01*
X2050358Y2130641D01*
X2053999Y2139431D01*
X2053999Y2296018D01*
X2053817Y2299388D01*
X2047728Y2355443D01*
X2045929Y2363012D01*
X1998192Y2490351D01*
X1993957Y2498086D01*
X1912715Y2606487D01*
X1906487Y2612715D01*
X1893574Y2622393D01*
X1869188Y2663546D01*
X1880784Y2709539D01*
X1949856Y2803055D01*
X1952634Y2806816D01*
X1954182Y2811225D01*
X1954185Y2811230D01*
X1986310Y2902709D01*
X2018225Y2938341D01*
X2045279Y2944500D01*
X2237059Y2944500D01*
X2242506Y2944262D01*
X2282807Y2940736D01*
X2288087Y2942151D01*
X2288089Y2942151D01*
X2321883Y2951207D01*
X2327204Y2952387D01*
X2367045Y2959412D01*
X2371779Y2962145D01*
X2371784Y2962147D01*
X2372513Y2962568D01*
X2387586Y2968812D01*
X2388405Y2969031D01*
X2388407Y2969032D01*
X2393684Y2970446D01*
X2426822Y2993650D01*
X2431414Y2996575D01*
X2466455Y3016806D01*
X2492464Y3047802D01*
X2496148Y3051822D01*
X3659447Y4215121D01*
X3664447Y4225843D01*
X3669359Y4236376D01*
X3674806Y4245811D01*
X3685118Y4260538D01*
X3688254Y4265016D01*
X3694322Y4287662D01*
X3698047Y4297897D01*
X3705649Y4314201D01*
X3707959Y4319154D01*
X3710003Y4342516D01*
X3711894Y4353245D01*
X3716548Y4370611D01*
X3716548Y4370613D01*
X3717963Y4375893D01*
X3715919Y4399259D01*
X3715919Y4410141D01*
X3717963Y4433507D01*
X3715004Y4444552D01*
X3711894Y4456155D01*
X3710002Y4466886D01*
X3709812Y4469066D01*
X3707959Y4490245D01*
X3705776Y4494926D01*
X3703700Y4510699D01*
X3703700Y4822805D01*
X3722006Y4866999D01*
X3766200Y4885305D01*
X3775977Y4884536D01*
X3809766Y4879184D01*
X3814653Y4878800D01*
X3873769Y4878800D01*
X3882559Y4882441D01*
X3886200Y4891231D01*
X3886200Y5477300D01*
X3904506Y5521494D01*
X3948700Y5539800D01*
X4077700Y5539800D01*
X4121894Y5521494D01*
X4140200Y5477300D01*
X4140200Y4891232D01*
X4143841Y4882442D01*
X4152631Y4878801D01*
X4211746Y4878801D01*
X4216634Y4879186D01*
X4301612Y4892644D01*
X4310853Y4895646D01*
X4413291Y4947841D01*
X4421152Y4953552D01*
X4502448Y5034848D01*
X4508159Y5042709D01*
X4560353Y5145145D01*
X4563357Y5154389D01*
X4576816Y5239366D01*
X4577200Y5244253D01*
X4577200Y5292056D01*
X4595506Y5336250D01*
X4639700Y5354556D01*
X4677183Y5342069D01*
X4721043Y5309197D01*
X4728778Y5304962D01*
X4849416Y5259738D01*
X4856980Y5257940D01*
X4909975Y5252183D01*
X4913343Y5252000D01*
X5067569Y5252000D01*
X5076359Y5255641D01*
X5080000Y5264431D01*
X5334000Y5264431D01*
X5337641Y5255641D01*
X5346431Y5252000D01*
X5500657Y5252000D01*
X5504025Y5252183D01*
X5557020Y5257940D01*
X5564584Y5259738D01*
X5685222Y5304962D01*
X5692957Y5309197D01*
X5795627Y5386145D01*
X5801855Y5392373D01*
X5878803Y5495043D01*
X5883038Y5502778D01*
X5928262Y5623416D01*
X5930060Y5630980D01*
X5935817Y5683975D01*
X5936000Y5687343D01*
X5936000Y5816569D01*
X5932359Y5825359D01*
X5923569Y5829000D01*
X5346431Y5829000D01*
X5337641Y5825359D01*
X5334000Y5816569D01*
X5334000Y5264431D01*
X5080000Y5264431D01*
X5080000Y6020500D01*
X5098306Y6064694D01*
X5142500Y6083000D01*
X5923569Y6083000D01*
X5932359Y6086641D01*
X5936000Y6095431D01*
X5936000Y6224657D01*
X5935817Y6228025D01*
X5930060Y6281020D01*
X5928262Y6288584D01*
X5915601Y6322358D01*
X5917229Y6370166D01*
X5952185Y6402820D01*
X5957946Y6404667D01*
X5973245Y6408767D01*
X5986087Y6412208D01*
X5991404Y6413387D01*
X6031245Y6420412D01*
X6035979Y6423145D01*
X6035984Y6423147D01*
X6036713Y6423568D01*
X6051786Y6429812D01*
X6052605Y6430031D01*
X6052607Y6430032D01*
X6057884Y6431446D01*
X6077754Y6445359D01*
X6091022Y6454650D01*
X6095614Y6457575D01*
X6130655Y6477806D01*
X6156664Y6508802D01*
X6160348Y6512822D01*
X6295380Y6647854D01*
X6299400Y6651538D01*
X6326205Y6674030D01*
X6330394Y6677545D01*
X6350625Y6712586D01*
X6353550Y6717178D01*
X6373620Y6745840D01*
X6373620Y6745841D01*
X6376754Y6750316D01*
X6378388Y6756414D01*
X6384632Y6771487D01*
X6385053Y6772216D01*
X6385055Y6772221D01*
X6387788Y6776955D01*
X6394813Y6816796D01*
X6395993Y6822117D01*
X6405049Y6855911D01*
X6405049Y6855913D01*
X6406464Y6861193D01*
X6402938Y6901494D01*
X6402700Y6906941D01*
X6402700Y7314800D01*
X6421006Y7358994D01*
X6465200Y7377300D01*
X6719975Y7377300D01*
X6719977Y7377301D01*
X7123965Y7377301D01*
X7168159Y7358995D01*
X7175932Y7349524D01*
X7192457Y7324793D01*
X7200993Y7316257D01*
X7225723Y7299733D01*
X7252299Y7259959D01*
X7253500Y7247766D01*
X7253500Y6418914D01*
X7235194Y6374720D01*
X6896577Y6036103D01*
X6892557Y6032419D01*
X6873801Y6016681D01*
X6850803Y6004465D01*
X6835362Y6000052D01*
X6714113Y5923550D01*
X6711170Y5920218D01*
X6711168Y5920216D01*
X6640984Y5840747D01*
X6619210Y5816092D01*
X6558280Y5686317D01*
X6536224Y5544657D01*
X6536801Y5540244D01*
X6536801Y5540242D01*
X6542712Y5495043D01*
X6554813Y5402501D01*
X6556606Y5398426D01*
X6599035Y5301999D01*
X6600079Y5254175D01*
X6570202Y5221139D01*
X6566709Y5219359D01*
X6558848Y5213648D01*
X6477552Y5132352D01*
X6471841Y5124491D01*
X6419647Y5022055D01*
X6416643Y5012811D01*
X6403184Y4927834D01*
X6402800Y4922947D01*
X6402800Y4863831D01*
X6406441Y4855041D01*
X6415231Y4851400D01*
X7001300Y4851400D01*
X7045494Y4833094D01*
X7063800Y4788900D01*
X7063800Y4659900D01*
X7045494Y4615706D01*
X7001300Y4597400D01*
X6415232Y4597400D01*
X6406442Y4593759D01*
X6402801Y4584969D01*
X6402801Y4525854D01*
X6403186Y4520966D01*
X6416644Y4435988D01*
X6419646Y4426747D01*
X6466458Y4334873D01*
X6470211Y4287185D01*
X6439144Y4250811D01*
X6410770Y4243999D01*
X6001255Y4243999D01*
X5995170Y4243400D01*
X5930132Y4230464D01*
X5918976Y4225843D01*
X5845193Y4176543D01*
X5836657Y4168007D01*
X5787357Y4094225D01*
X5782736Y4083067D01*
X5769799Y4018030D01*
X5769200Y4011946D01*
X5769200Y3529431D01*
X5772841Y3520641D01*
X5781631Y3517000D01*
X6787700Y3517000D01*
X6831894Y3498694D01*
X6850200Y3454500D01*
X6850200Y3325500D01*
X6831894Y3281306D01*
X6787700Y3263000D01*
X5781632Y3263000D01*
X5772842Y3259359D01*
X5769201Y3250569D01*
X5769201Y2768059D01*
X5769800Y2761970D01*
X5782736Y2696932D01*
X5787357Y2685776D01*
X5836657Y2611993D01*
X5845193Y2603457D01*
X5910538Y2559795D01*
X5937114Y2520021D01*
X5927782Y2473105D01*
X5910538Y2455861D01*
X5883764Y2437971D01*
X5883762Y2437969D01*
X5878648Y2434552D01*
X5834333Y2368231D01*
X5822700Y2309748D01*
X5822700Y1070252D01*
X5823299Y1067242D01*
X5823299Y1067239D01*
X5823745Y1065000D01*
X5834333Y1011769D01*
X5878648Y945448D01*
X5883762Y942031D01*
X5939853Y904551D01*
X5939855Y904550D01*
X5944969Y901133D01*
X5951003Y899933D01*
X5951005Y899932D01*
X6000439Y890099D01*
X6000442Y890099D01*
X6003452Y889500D01*
X7442948Y889500D01*
X7445958Y890099D01*
X7445961Y890099D01*
X7495395Y899932D01*
X7495397Y899933D01*
X7501431Y901133D01*
X7506545Y904550D01*
X7506547Y904551D01*
X7562638Y942031D01*
X7567752Y945448D01*
X7612067Y1011769D01*
X7622656Y1065000D01*
X7623101Y1067239D01*
X7623101Y1067242D01*
X7623263Y1068055D01*
X7969201Y1068055D01*
X7969800Y1061970D01*
X7982736Y996932D01*
X7987357Y985776D01*
X8036657Y911993D01*
X8045193Y903457D01*
X8118975Y854157D01*
X8130133Y849536D01*
X8195170Y836599D01*
X8201254Y836000D01*
X8783769Y836000D01*
X8792559Y839641D01*
X8796200Y848431D01*
X8796200Y848432D01*
X9050200Y848432D01*
X9053841Y839642D01*
X9062631Y836001D01*
X9645145Y836001D01*
X9651230Y836600D01*
X9716268Y849536D01*
X9727424Y854157D01*
X9801207Y903457D01*
X9809743Y911993D01*
X9859043Y985775D01*
X9863664Y996933D01*
X9876601Y1061970D01*
X9877200Y1068054D01*
X9877200Y1550569D01*
X9873559Y1559359D01*
X9864769Y1563000D01*
X9062631Y1563000D01*
X9053841Y1559359D01*
X9050200Y1550569D01*
X9050200Y848432D01*
X8796200Y848432D01*
X8796200Y1550569D01*
X8792559Y1559359D01*
X8783769Y1563000D01*
X7981632Y1563000D01*
X7972842Y1559359D01*
X7969201Y1550569D01*
X7969201Y1068055D01*
X7623263Y1068055D01*
X7623700Y1070252D01*
X7623700Y1939640D01*
X7642006Y1983834D01*
X7862506Y2204334D01*
X7906700Y2222640D01*
X7950894Y2204334D01*
X7969200Y2160140D01*
X7969200Y1829431D01*
X7972841Y1820641D01*
X7981631Y1817000D01*
X9864768Y1817000D01*
X9873558Y1820641D01*
X9877199Y1829431D01*
X9877199Y2145055D01*
X12174001Y2145055D01*
X12174600Y2138970D01*
X12187536Y2073932D01*
X12192157Y2062776D01*
X12241457Y1988993D01*
X12249993Y1980457D01*
X12323775Y1931157D01*
X12334933Y1926536D01*
X12399970Y1913599D01*
X12406054Y1913000D01*
X12788569Y1913001D01*
X12797359Y1916642D01*
X12801000Y1925432D01*
X13055000Y1925432D01*
X13058641Y1916642D01*
X13064469Y1914228D01*
X13098293Y1880403D01*
X13098292Y1832567D01*
X13092516Y1821762D01*
X13092158Y1821226D01*
X13087536Y1810067D01*
X13074599Y1745030D01*
X13074000Y1738946D01*
X13074000Y1331431D01*
X13077641Y1322641D01*
X13086431Y1319000D01*
X14288569Y1319000D01*
X14297359Y1322641D01*
X14301000Y1331431D01*
X14301000Y1958568D01*
X14297359Y1967358D01*
X14288569Y1970999D01*
X13719366Y1970999D01*
X13675172Y1989305D01*
X13656866Y2033499D01*
X13661623Y2057416D01*
X13668464Y2073933D01*
X13681401Y2138970D01*
X13682000Y2145054D01*
X13682000Y2527569D01*
X13678359Y2536359D01*
X13669569Y2540000D01*
X13067431Y2540000D01*
X13058641Y2536359D01*
X13055000Y2527569D01*
X13055000Y1925432D01*
X12801000Y1925432D01*
X12801000Y2527569D01*
X12797359Y2536359D01*
X12788569Y2540000D01*
X12186432Y2540000D01*
X12177642Y2536359D01*
X12174001Y2527569D01*
X12174001Y2145055D01*
X9877199Y2145055D01*
X9877199Y2311945D01*
X9876600Y2318030D01*
X9863664Y2383068D01*
X9859043Y2394224D01*
X9809743Y2468007D01*
X9801207Y2476543D01*
X9735862Y2520205D01*
X9709286Y2559979D01*
X9718618Y2606895D01*
X9735862Y2624139D01*
X9762636Y2642029D01*
X9762638Y2642031D01*
X9767752Y2645448D01*
X9802153Y2696932D01*
X9808649Y2706653D01*
X9808650Y2706655D01*
X9812067Y2711769D01*
X9823700Y2770252D01*
X9823700Y2806431D01*
X12174000Y2806431D01*
X12177641Y2797641D01*
X12186431Y2794000D01*
X12788569Y2794000D01*
X12797359Y2797641D01*
X12801000Y2806431D01*
X13055000Y2806431D01*
X13058641Y2797641D01*
X13067431Y2794000D01*
X13669568Y2794000D01*
X13678358Y2797641D01*
X13681999Y2806431D01*
X13681999Y3188945D01*
X13681400Y3195030D01*
X13668464Y3260066D01*
X13661623Y3276583D01*
X13661624Y3324419D01*
X13695449Y3358243D01*
X13719366Y3363000D01*
X14288569Y3363000D01*
X14297359Y3366641D01*
X14301000Y3375431D01*
X14301000Y4002569D01*
X14297359Y4011359D01*
X14288569Y4015000D01*
X13086432Y4015000D01*
X13077642Y4011359D01*
X13074001Y4002569D01*
X13074001Y3595055D01*
X13074600Y3588970D01*
X13087536Y3523932D01*
X13092157Y3512775D01*
X13092516Y3512238D01*
X13092642Y3511604D01*
X13094513Y3507087D01*
X13093615Y3506715D01*
X13101849Y3465322D01*
X13075274Y3425548D01*
X13064467Y3419771D01*
X13058641Y3417358D01*
X13055000Y3408569D01*
X13055000Y2806431D01*
X12801000Y2806431D01*
X12801000Y3408569D01*
X12797359Y3417359D01*
X12788569Y3421000D01*
X12406055Y3420999D01*
X12399970Y3420400D01*
X12334932Y3407464D01*
X12323776Y3402843D01*
X12249993Y3353543D01*
X12241457Y3345007D01*
X12192157Y3271225D01*
X12187536Y3260067D01*
X12174599Y3195030D01*
X12174000Y3188946D01*
X12174000Y2806431D01*
X9823700Y2806431D01*
X9823700Y4009748D01*
X9823101Y4012761D01*
X9813268Y4062195D01*
X9813267Y4062197D01*
X9812067Y4068231D01*
X9803382Y4081230D01*
X9771169Y4129438D01*
X9767752Y4134552D01*
X9767914Y4134661D01*
X9752103Y4172832D01*
X10005000Y4172832D01*
X10008641Y4164042D01*
X10017431Y4160401D01*
X10046546Y4160401D01*
X10051434Y4160786D01*
X10136412Y4174244D01*
X10145653Y4177246D01*
X10248091Y4229441D01*
X10255952Y4235152D01*
X10302231Y4281431D01*
X13074000Y4281431D01*
X13077641Y4272641D01*
X13086431Y4269000D01*
X14288569Y4269000D01*
X14297359Y4272641D01*
X14301000Y4281431D01*
X14555000Y4281431D01*
X14558641Y4272641D01*
X14567431Y4269000D01*
X15769568Y4269000D01*
X15778358Y4272641D01*
X15781999Y4281431D01*
X15781999Y4688945D01*
X15781400Y4695030D01*
X15768464Y4760068D01*
X15763843Y4771224D01*
X15714543Y4845007D01*
X15706007Y4853543D01*
X15632225Y4902843D01*
X15621067Y4907464D01*
X15556030Y4920401D01*
X15549946Y4921000D01*
X14567431Y4921000D01*
X14558641Y4917359D01*
X14555000Y4908569D01*
X14555000Y4281431D01*
X14301000Y4281431D01*
X14301000Y4908568D01*
X14297359Y4917358D01*
X14288569Y4920999D01*
X13306055Y4920999D01*
X13299970Y4920400D01*
X13234932Y4907464D01*
X13223776Y4902843D01*
X13149993Y4853543D01*
X13141457Y4845007D01*
X13092157Y4771225D01*
X13087536Y4760067D01*
X13074599Y4695030D01*
X13074000Y4688946D01*
X13074000Y4281431D01*
X10302231Y4281431D01*
X10337248Y4316448D01*
X10342959Y4324309D01*
X10395153Y4426745D01*
X10398157Y4435989D01*
X10411616Y4520966D01*
X10412000Y4525853D01*
X10412000Y4584969D01*
X10408359Y4593759D01*
X10399569Y4597400D01*
X10017431Y4597400D01*
X10008641Y4593759D01*
X10005000Y4584969D01*
X10005000Y4172832D01*
X9752103Y4172832D01*
X9751000Y4175495D01*
X9751000Y4788900D01*
X9769306Y4833094D01*
X9813500Y4851400D01*
X10399568Y4851400D01*
X10408358Y4855041D01*
X10411999Y4863831D01*
X10411999Y4922946D01*
X10411614Y4927834D01*
X10398156Y5012812D01*
X10395154Y5022053D01*
X10342959Y5124491D01*
X10337248Y5132352D01*
X10255952Y5213648D01*
X10248091Y5219359D01*
X10145655Y5271553D01*
X10136411Y5274557D01*
X10051434Y5288016D01*
X10046547Y5288400D01*
X9983191Y5288400D01*
X9938997Y5306706D01*
X9920691Y5350900D01*
X9938997Y5395094D01*
X9970052Y5426149D01*
X9974072Y5429833D01*
X10000877Y5452325D01*
X10005066Y5455840D01*
X10025297Y5490881D01*
X10028222Y5495473D01*
X10048292Y5524135D01*
X10048292Y5524136D01*
X10051426Y5528611D01*
X10052850Y5533923D01*
X10053060Y5534709D01*
X10059304Y5549782D01*
X10059725Y5550511D01*
X10059727Y5550516D01*
X10062460Y5555250D01*
X10069485Y5595091D01*
X10070665Y5600412D01*
X10079721Y5634206D01*
X10079721Y5634208D01*
X10081136Y5639488D01*
X10077610Y5679789D01*
X10077372Y5685236D01*
X10077372Y6625487D01*
X10077610Y6630934D01*
X10079301Y6650264D01*
X10081136Y6671235D01*
X10079446Y6677545D01*
X10070665Y6710311D01*
X10069484Y6715635D01*
X10063409Y6750090D01*
X10062460Y6755473D01*
X10059727Y6760207D01*
X10059725Y6760212D01*
X10059304Y6760941D01*
X10053060Y6776014D01*
X10052841Y6776833D01*
X10052840Y6776835D01*
X10051426Y6782112D01*
X10028222Y6815250D01*
X10025292Y6819849D01*
X10016885Y6834412D01*
X10005066Y6854883D01*
X9974070Y6880892D01*
X9970050Y6884576D01*
X9922805Y6931821D01*
X9904499Y6976015D01*
X9904499Y7247765D01*
X9922805Y7291959D01*
X9932276Y7299732D01*
X9957007Y7316257D01*
X9965543Y7324793D01*
X9982067Y7349523D01*
X10021841Y7376099D01*
X10034034Y7377300D01*
X10183155Y7377300D01*
X10534000Y7377301D01*
X10578194Y7358995D01*
X10596500Y7314801D01*
X10596500Y6730323D01*
X10578194Y6686129D01*
X10567351Y6677465D01*
X10456780Y6607700D01*
X10453837Y6604368D01*
X10453835Y6604366D01*
X10405568Y6549713D01*
X10361877Y6500242D01*
X10300947Y6370467D01*
X10278891Y6228807D01*
X10279468Y6224394D01*
X10279468Y6224392D01*
X10283818Y6191128D01*
X10297480Y6086651D01*
X10299273Y6082576D01*
X10349248Y5969000D01*
X10355220Y5955427D01*
X10358083Y5952021D01*
X10360438Y5948238D01*
X10359530Y5947673D01*
X10372500Y5912091D01*
X10372500Y5618474D01*
X10372067Y5611129D01*
X10367636Y5573690D01*
X10368475Y5569096D01*
X10368475Y5569095D01*
X10378355Y5514999D01*
X10378676Y5513066D01*
X10387551Y5454038D01*
X10389576Y5449821D01*
X10390173Y5447881D01*
X10390248Y5447575D01*
X10390356Y5447241D01*
X10390479Y5446941D01*
X10391136Y5445022D01*
X10391975Y5440427D01*
X10394130Y5436279D01*
X10394130Y5436278D01*
X10395289Y5434047D01*
X10418223Y5389898D01*
X10419460Y5387516D01*
X10420338Y5385759D01*
X10444150Y5336172D01*
X10446191Y5331921D01*
X10449362Y5328490D01*
X10450507Y5326806D01*
X10450823Y5326276D01*
X10452779Y5323374D01*
X10454421Y5320212D01*
X10458725Y5315172D01*
X10496849Y5277048D01*
X10498550Y5275279D01*
X10538146Y5232444D01*
X10542186Y5230097D01*
X10545831Y5227177D01*
X10545590Y5226876D01*
X10551795Y5222102D01*
X10749897Y5024000D01*
X10754785Y5018500D01*
X10778128Y4988890D01*
X10827207Y4954970D01*
X10828795Y4953835D01*
X10837558Y4947363D01*
X10873057Y4921142D01*
X10873059Y4921141D01*
X10876816Y4918366D01*
X10881224Y4916818D01*
X10883025Y4915865D01*
X10883281Y4915710D01*
X10883617Y4915538D01*
X10883914Y4915414D01*
X10885723Y4914528D01*
X10889569Y4911869D01*
X10894024Y4910460D01*
X10894026Y4910459D01*
X10946452Y4893879D01*
X10948291Y4893266D01*
X11004631Y4873481D01*
X11009295Y4873298D01*
X11011293Y4872917D01*
X11011898Y4872765D01*
X11015327Y4872097D01*
X11018730Y4871020D01*
X11022285Y4870740D01*
X11022286Y4870740D01*
X11024098Y4870597D01*
X11024111Y4870596D01*
X11025337Y4870500D01*
X11079262Y4870500D01*
X11081716Y4870452D01*
X11135325Y4868345D01*
X11135328Y4868345D01*
X11139994Y4868162D01*
X11144508Y4869359D01*
X11149155Y4869872D01*
X11149197Y4869489D01*
X11156959Y4870500D01*
X12733850Y4870500D01*
X12833962Y4885551D01*
X12922016Y4927834D01*
X12951869Y4942169D01*
X12951871Y4942170D01*
X12956079Y4944191D01*
X13055556Y5036146D01*
X13083661Y5084532D01*
X13121250Y5149248D01*
X13123596Y5153287D01*
X13150170Y5267932D01*
X13154411Y5280230D01*
X13155069Y5281641D01*
X13203972Y5386513D01*
X13207782Y5415455D01*
X13210233Y5434068D01*
X13210233Y5434074D01*
X13210500Y5436099D01*
X13210499Y5643454D01*
X13972001Y5643454D01*
X13972386Y5638566D01*
X13985844Y5553588D01*
X13988846Y5544347D01*
X14041041Y5441909D01*
X14046752Y5434048D01*
X14128048Y5352752D01*
X14135909Y5347041D01*
X14238345Y5294847D01*
X14247589Y5291843D01*
X14332566Y5278384D01*
X14337453Y5278000D01*
X14366569Y5278000D01*
X14375359Y5281641D01*
X14379000Y5290431D01*
X14379000Y5702569D01*
X14375359Y5711359D01*
X14366569Y5715000D01*
X13984432Y5715000D01*
X13975642Y5711359D01*
X13972001Y5702569D01*
X13972001Y5643454D01*
X13210499Y5643454D01*
X13210499Y5795900D01*
X13207779Y5816569D01*
X13204596Y5840747D01*
X13204596Y5840748D01*
X13203972Y5845487D01*
X13172914Y5912091D01*
X13155536Y5949359D01*
X13155534Y5949361D01*
X13153224Y5954316D01*
X13091836Y6015704D01*
X13073530Y6059898D01*
X13091836Y6104092D01*
X13099294Y6110462D01*
X13107953Y6116753D01*
X13189248Y6198048D01*
X13194959Y6205909D01*
X13247153Y6308345D01*
X13250157Y6317589D01*
X13263616Y6402566D01*
X13264000Y6407453D01*
X13264000Y6436569D01*
X13260359Y6445359D01*
X13251569Y6449000D01*
X11619500Y6449000D01*
X11575306Y6467306D01*
X11557000Y6511500D01*
X11557000Y6715431D01*
X11811000Y6715431D01*
X11814641Y6706641D01*
X11823431Y6703000D01*
X12560569Y6703000D01*
X12569359Y6706641D01*
X12573000Y6715431D01*
X12827000Y6715431D01*
X12830641Y6706641D01*
X12839431Y6703000D01*
X13251568Y6703000D01*
X13260358Y6706641D01*
X13263999Y6715431D01*
X13263999Y6744546D01*
X13263614Y6749434D01*
X13250156Y6834412D01*
X13247154Y6843653D01*
X13194959Y6946091D01*
X13189248Y6953952D01*
X13107952Y7035248D01*
X13100091Y7040959D01*
X12997655Y7093153D01*
X12988411Y7096157D01*
X12903434Y7109616D01*
X12898547Y7110000D01*
X12839431Y7110000D01*
X12830641Y7106359D01*
X12827000Y7097569D01*
X12827000Y6715431D01*
X12573000Y6715431D01*
X12573000Y7097568D01*
X12569359Y7106358D01*
X12560569Y7109999D01*
X12501454Y7109999D01*
X12496566Y7109614D01*
X12411588Y7096156D01*
X12402347Y7093154D01*
X12299909Y7040959D01*
X12292048Y7035248D01*
X12236194Y6979394D01*
X12192000Y6961088D01*
X12147806Y6979394D01*
X12091952Y7035248D01*
X12084091Y7040959D01*
X11981655Y7093153D01*
X11972411Y7096157D01*
X11887434Y7109616D01*
X11882547Y7110000D01*
X11823431Y7110000D01*
X11814641Y7106359D01*
X11811000Y7097569D01*
X11811000Y6715431D01*
X11557000Y6715431D01*
X11557000Y7097568D01*
X11553359Y7106358D01*
X11544569Y7109999D01*
X11485454Y7109999D01*
X11480566Y7109614D01*
X11395588Y7096156D01*
X11386350Y7093155D01*
X11338375Y7068710D01*
X11290687Y7064957D01*
X11254312Y7096023D01*
X11247500Y7124398D01*
X11247500Y7476059D01*
X11247738Y7481508D01*
X11248083Y7485444D01*
X11248695Y7492443D01*
X11270784Y7534873D01*
X11316406Y7549256D01*
X11359425Y7524717D01*
X11359628Y7524920D01*
X11399173Y7485444D01*
X11437966Y7446718D01*
X11437968Y7446716D01*
X11441621Y7443070D01*
X11446261Y7440802D01*
X11540964Y7394510D01*
X11545706Y7392192D01*
X11550509Y7391491D01*
X11550510Y7391491D01*
X11563741Y7389561D01*
X11613514Y7382300D01*
X11974486Y7382300D01*
X11976733Y7382631D01*
X11976736Y7382631D01*
X12000722Y7386162D01*
X12042884Y7392369D01*
X12146880Y7443428D01*
X12154128Y7450688D01*
X12191414Y7488040D01*
X12228730Y7525421D01*
X12229422Y7526837D01*
X12268681Y7551370D01*
X12315291Y7540612D01*
X12328299Y7527628D01*
X12329628Y7524920D01*
X12333281Y7521273D01*
X12333282Y7521272D01*
X12407966Y7446718D01*
X12407968Y7446716D01*
X12411621Y7443070D01*
X12416261Y7440802D01*
X12510964Y7394510D01*
X12515706Y7392192D01*
X12520509Y7391491D01*
X12520510Y7391491D01*
X12533741Y7389561D01*
X12583514Y7382300D01*
X12944486Y7382300D01*
X12946733Y7382631D01*
X12946736Y7382631D01*
X12970722Y7386162D01*
X13012884Y7392369D01*
X13116880Y7443428D01*
X13120934Y7447489D01*
X13195082Y7521766D01*
X13195084Y7521768D01*
X13198730Y7525421D01*
X13200998Y7530061D01*
X13203998Y7534267D01*
X13206380Y7532568D01*
X13234928Y7557773D01*
X13282672Y7554803D01*
X13299409Y7542851D01*
X13360684Y7481576D01*
X13365639Y7479266D01*
X13365641Y7479264D01*
X13386229Y7469664D01*
X13469513Y7430828D01*
X13486512Y7428590D01*
X13517068Y7424567D01*
X13517074Y7424567D01*
X13519099Y7424300D01*
X13521146Y7424300D01*
X13729565Y7424301D01*
X13938900Y7424301D01*
X13940912Y7424566D01*
X13940915Y7424566D01*
X13983747Y7430204D01*
X13983748Y7430204D01*
X13988487Y7430828D01*
X14023342Y7447081D01*
X14092359Y7479264D01*
X14092361Y7479266D01*
X14097316Y7481576D01*
X14160025Y7544285D01*
X14204219Y7562591D01*
X14248413Y7544285D01*
G37*
%TD.AperFunction*%
%TA.AperFunction,Conductor*%
G36*
X2567114Y6768793D02*
G01*
X2599430Y6733524D01*
X2603199Y6712149D01*
X2603199Y4928000D01*
X2584893Y4883806D01*
X2540699Y4865500D01*
X2045279Y4865500D01*
X2001085Y4883806D01*
X1986310Y4907291D01*
X1954185Y4998770D01*
X1954182Y4998775D01*
X1952634Y5003184D01*
X1872150Y5112150D01*
X1855123Y5124727D01*
X1830450Y5165708D01*
X1841981Y5212132D01*
X1855123Y5225274D01*
X1857700Y5227177D01*
X1872150Y5237850D01*
X1952634Y5346816D01*
X1956062Y5356576D01*
X1983988Y5436099D01*
X1997519Y5474631D01*
X2000500Y5506166D01*
X2000500Y6113834D01*
X1997519Y6145369D01*
X1974726Y6210276D01*
X1954183Y6268774D01*
X1954182Y6268776D01*
X1952634Y6273184D01*
X1872150Y6382150D01*
X1855123Y6394727D01*
X1830450Y6435708D01*
X1841981Y6482132D01*
X1855123Y6495274D01*
X1855852Y6495812D01*
X1872150Y6507850D01*
X1952634Y6616816D01*
X1954182Y6621225D01*
X1954185Y6621230D01*
X1986310Y6712709D01*
X2018225Y6748341D01*
X2045279Y6754500D01*
X2388079Y6754500D01*
X2393526Y6754262D01*
X2433827Y6750736D01*
X2439107Y6752151D01*
X2439109Y6752151D01*
X2472903Y6761207D01*
X2478224Y6762387D01*
X2489628Y6764398D01*
X2512684Y6768463D01*
X2512685Y6768463D01*
X2518065Y6769412D01*
X2520517Y6770828D01*
X2567114Y6768793D01*
G37*
%TD.AperFunction*%
%TA.AperFunction,Conductor*%
G36*
X18828494Y12834094D02*
G01*
X18846800Y12789900D01*
X18846800Y7213628D01*
X18828494Y7169434D01*
X18784300Y7151128D01*
X18740106Y7169434D01*
X18707116Y7202424D01*
X18702161Y7204734D01*
X18702159Y7204736D01*
X18651234Y7228482D01*
X18598287Y7253172D01*
X18578728Y7255747D01*
X18550732Y7259433D01*
X18550726Y7259433D01*
X18548701Y7259700D01*
X18546654Y7259700D01*
X18338235Y7259699D01*
X18128900Y7259699D01*
X18126888Y7259434D01*
X18126885Y7259434D01*
X18084053Y7253796D01*
X18084052Y7253796D01*
X18079313Y7253172D01*
X18074979Y7251151D01*
X17975441Y7204736D01*
X17975439Y7204734D01*
X17970484Y7202424D01*
X17900394Y7132334D01*
X17856200Y7114028D01*
X17812006Y7132334D01*
X17741916Y7202424D01*
X17736961Y7204734D01*
X17736959Y7204736D01*
X17686034Y7228482D01*
X17633087Y7253172D01*
X17613528Y7255747D01*
X17572101Y7279664D01*
X17559721Y7325870D01*
X17563944Y7341630D01*
X17577200Y7373632D01*
X17831200Y7373632D01*
X17834841Y7364842D01*
X17843631Y7361201D01*
X17872746Y7361201D01*
X17877634Y7361586D01*
X17962612Y7375044D01*
X17971853Y7378046D01*
X18074291Y7430241D01*
X18082152Y7435952D01*
X18163448Y7517248D01*
X18169159Y7525109D01*
X18221353Y7627545D01*
X18224357Y7636789D01*
X18237816Y7721766D01*
X18238200Y7726653D01*
X18238200Y7785769D01*
X18234559Y7794559D01*
X18225769Y7798200D01*
X17843631Y7798200D01*
X17834841Y7794559D01*
X17831200Y7785769D01*
X17831200Y7373632D01*
X17577200Y7373632D01*
X17577200Y7989700D01*
X17595506Y8033894D01*
X17639700Y8052200D01*
X18225768Y8052200D01*
X18234558Y8055841D01*
X18238199Y8064631D01*
X18238199Y8123746D01*
X18237814Y8128634D01*
X18224356Y8213612D01*
X18221354Y8222853D01*
X18169159Y8325291D01*
X18163448Y8333152D01*
X18092611Y8403989D01*
X18074305Y8448183D01*
X18092572Y8492338D01*
X18141518Y8541370D01*
X18160282Y8560166D01*
X18160284Y8560168D01*
X18163930Y8563821D01*
X18193786Y8624900D01*
X18212677Y8663546D01*
X18212677Y8663547D01*
X18214808Y8667906D01*
X18224700Y8735714D01*
X18224700Y9146686D01*
X18214631Y9215084D01*
X18163572Y9319080D01*
X18153847Y9328788D01*
X18085234Y9397282D01*
X18085232Y9397284D01*
X18081579Y9400930D01*
X18012526Y9434684D01*
X17981854Y9449677D01*
X17981853Y9449677D01*
X17977494Y9451808D01*
X17972691Y9452509D01*
X17972690Y9452509D01*
X17951935Y9455537D01*
X17909686Y9461700D01*
X17548714Y9461700D01*
X17546467Y9461369D01*
X17546464Y9461369D01*
X17533844Y9459511D01*
X17480316Y9451631D01*
X17376320Y9400572D01*
X17372674Y9396920D01*
X17372673Y9396919D01*
X17343722Y9367917D01*
X17294470Y9318579D01*
X17293778Y9317163D01*
X17254519Y9292630D01*
X17207909Y9303388D01*
X17194901Y9316372D01*
X17193572Y9319080D01*
X17183847Y9328788D01*
X17115234Y9397282D01*
X17115232Y9397284D01*
X17111579Y9400930D01*
X17042526Y9434684D01*
X17011854Y9449677D01*
X17011853Y9449677D01*
X17007494Y9451808D01*
X17002691Y9452509D01*
X17002690Y9452509D01*
X16981935Y9455537D01*
X16939686Y9461700D01*
X16578714Y9461700D01*
X16576467Y9461369D01*
X16576464Y9461369D01*
X16563844Y9459511D01*
X16510316Y9451631D01*
X16406320Y9400572D01*
X16402674Y9396920D01*
X16402673Y9396919D01*
X16328118Y9322234D01*
X16328116Y9322232D01*
X16324470Y9318579D01*
X16322202Y9313940D01*
X16322201Y9313938D01*
X16320741Y9310951D01*
X16284885Y9279287D01*
X16264591Y9275900D01*
X16172584Y9275900D01*
X16128390Y9294206D01*
X16116481Y9310855D01*
X16110894Y9322234D01*
X16099972Y9344480D01*
X16096318Y9348128D01*
X16096316Y9348131D01*
X16028997Y9415333D01*
X16010653Y9459511D01*
X16028959Y9503759D01*
X16099848Y9574648D01*
X16105559Y9582509D01*
X16157753Y9684945D01*
X16160757Y9694189D01*
X16174216Y9779166D01*
X16174600Y9784053D01*
X16174600Y9843169D01*
X16170959Y9851959D01*
X16162169Y9855600D01*
X15576100Y9855600D01*
X15531906Y9873906D01*
X15513600Y9918100D01*
X15513600Y10122031D01*
X15767600Y10122031D01*
X15771241Y10113241D01*
X15780031Y10109600D01*
X16162168Y10109600D01*
X16170958Y10113241D01*
X16174599Y10122031D01*
X16174599Y10181146D01*
X16174214Y10186034D01*
X16160756Y10271012D01*
X16157754Y10280253D01*
X16105559Y10382691D01*
X16099848Y10390552D01*
X16018552Y10471848D01*
X16010691Y10477559D01*
X15908255Y10529753D01*
X15899011Y10532757D01*
X15814034Y10546216D01*
X15809147Y10546600D01*
X15780031Y10546600D01*
X15771241Y10542959D01*
X15767600Y10534169D01*
X15767600Y10122031D01*
X15513600Y10122031D01*
X15513600Y10534168D01*
X15509959Y10542958D01*
X15501169Y10546599D01*
X15472054Y10546599D01*
X15467166Y10546214D01*
X15382188Y10532756D01*
X15372947Y10529754D01*
X15270509Y10477559D01*
X15262648Y10471848D01*
X15181353Y10390553D01*
X15175062Y10381894D01*
X15134275Y10356900D01*
X15087762Y10368066D01*
X15080304Y10374436D01*
X15018916Y10435824D01*
X15013961Y10438134D01*
X15013959Y10438136D01*
X14950230Y10467853D01*
X14910087Y10486572D01*
X14893088Y10488810D01*
X14862532Y10492833D01*
X14862526Y10492833D01*
X14860501Y10493100D01*
X14858454Y10493100D01*
X14680116Y10493099D01*
X14500700Y10493099D01*
X14498688Y10492834D01*
X14498685Y10492834D01*
X14455853Y10487196D01*
X14455852Y10487196D01*
X14451113Y10486572D01*
X14446779Y10484551D01*
X14347241Y10438136D01*
X14347239Y10438134D01*
X14342284Y10435824D01*
X14257376Y10350916D01*
X14255066Y10345961D01*
X14255064Y10345959D01*
X14247881Y10330555D01*
X14206628Y10242087D01*
X14206004Y10237346D01*
X14202148Y10208055D01*
X14200100Y10192501D01*
X14200101Y9772700D01*
X14206628Y9723113D01*
X14208649Y9718779D01*
X14255064Y9619241D01*
X14255066Y9619239D01*
X14257376Y9614284D01*
X14342284Y9529376D01*
X14344253Y9528458D01*
X14369151Y9489376D01*
X14370100Y9478523D01*
X14370100Y9476652D01*
X14351794Y9432458D01*
X14346109Y9427636D01*
X14342720Y9425972D01*
X14316408Y9399614D01*
X14264518Y9347634D01*
X14264516Y9347632D01*
X14260870Y9343979D01*
X14250482Y9322728D01*
X14227244Y9275188D01*
X14191389Y9243522D01*
X14143646Y9246484D01*
X14126899Y9258441D01*
X14097316Y9288024D01*
X14092361Y9290334D01*
X14092359Y9290336D01*
X14040654Y9314446D01*
X13988487Y9338772D01*
X13971488Y9341010D01*
X13940932Y9345033D01*
X13940926Y9345033D01*
X13938901Y9345300D01*
X13936854Y9345300D01*
X13728435Y9345299D01*
X13519100Y9345299D01*
X13517088Y9345034D01*
X13517085Y9345034D01*
X13474253Y9339396D01*
X13474252Y9339396D01*
X13469513Y9338772D01*
X13465179Y9336751D01*
X13365641Y9290336D01*
X13365639Y9290334D01*
X13360684Y9288024D01*
X13309266Y9236606D01*
X13265072Y9218300D01*
X13263030Y9218300D01*
X13218836Y9236606D01*
X13206927Y9253256D01*
X13200649Y9266044D01*
X13200646Y9266048D01*
X13198372Y9270680D01*
X13189750Y9279287D01*
X13120034Y9348882D01*
X13120032Y9348884D01*
X13116379Y9352530D01*
X13084652Y9368038D01*
X13016654Y9401277D01*
X13016653Y9401277D01*
X13012294Y9403408D01*
X13007491Y9404109D01*
X13007490Y9404109D01*
X12986735Y9407137D01*
X12944486Y9413300D01*
X12583514Y9413300D01*
X12581267Y9412969D01*
X12581264Y9412969D01*
X12557278Y9409438D01*
X12515116Y9403231D01*
X12411120Y9352172D01*
X12407474Y9348520D01*
X12407473Y9348519D01*
X12376988Y9317980D01*
X12329270Y9270179D01*
X12328578Y9268763D01*
X12289319Y9244230D01*
X12242709Y9254988D01*
X12229701Y9267972D01*
X12228372Y9270680D01*
X12224718Y9274328D01*
X12150034Y9348882D01*
X12150032Y9348884D01*
X12146379Y9352530D01*
X12114652Y9368038D01*
X12046654Y9401277D01*
X12046653Y9401277D01*
X12042294Y9403408D01*
X12037491Y9404109D01*
X12037490Y9404109D01*
X12016735Y9407137D01*
X11974486Y9413300D01*
X11927801Y9413300D01*
X11883607Y9431606D01*
X11865301Y9475800D01*
X11883607Y9519994D01*
X11887626Y9523677D01*
X11894004Y9529029D01*
X11894005Y9529030D01*
X11898194Y9532545D01*
X11918425Y9567586D01*
X11921350Y9572178D01*
X11941420Y9600840D01*
X11941420Y9600841D01*
X11944554Y9605316D01*
X11946188Y9611414D01*
X11952432Y9626487D01*
X11952852Y9627215D01*
X11952853Y9627218D01*
X11955588Y9631955D01*
X11956537Y9637339D01*
X11958026Y9641429D01*
X11980194Y9670320D01*
X11983316Y9671776D01*
X12044704Y9733164D01*
X12088898Y9751470D01*
X12133092Y9733164D01*
X12139462Y9725706D01*
X12145753Y9717047D01*
X12227048Y9635752D01*
X12234909Y9630041D01*
X12337345Y9577847D01*
X12346589Y9574843D01*
X12431566Y9561384D01*
X12436453Y9561000D01*
X12465569Y9561000D01*
X12474359Y9564641D01*
X12478000Y9573431D01*
X12478000Y9573432D01*
X12732000Y9573432D01*
X12735641Y9564642D01*
X12744431Y9561001D01*
X12773546Y9561001D01*
X12778434Y9561386D01*
X12863412Y9574844D01*
X12872653Y9577846D01*
X12975091Y9630041D01*
X12982952Y9635752D01*
X13064248Y9717048D01*
X13069959Y9724909D01*
X13122153Y9827345D01*
X13125157Y9836589D01*
X13138616Y9921566D01*
X13139000Y9926453D01*
X13139000Y9985569D01*
X13135359Y9994359D01*
X13126569Y9998000D01*
X12744431Y9998000D01*
X12735641Y9994359D01*
X12732000Y9985569D01*
X12732000Y9573432D01*
X12478000Y9573432D01*
X12478000Y10264431D01*
X12732000Y10264431D01*
X12735641Y10255641D01*
X12744431Y10252000D01*
X13126568Y10252000D01*
X13135358Y10255641D01*
X13138999Y10264431D01*
X13138999Y10323546D01*
X13138614Y10328434D01*
X13125156Y10413412D01*
X13122154Y10422653D01*
X13069959Y10525091D01*
X13064248Y10532952D01*
X12982952Y10614248D01*
X12975091Y10619959D01*
X12872655Y10672153D01*
X12863411Y10675157D01*
X12778434Y10688616D01*
X12773547Y10689000D01*
X12744431Y10689000D01*
X12735641Y10685359D01*
X12732000Y10676569D01*
X12732000Y10264431D01*
X12478000Y10264431D01*
X12478000Y10676568D01*
X12474359Y10685358D01*
X12465569Y10688999D01*
X12436454Y10688999D01*
X12431566Y10688614D01*
X12346588Y10675156D01*
X12337347Y10672154D01*
X12234909Y10619959D01*
X12227048Y10614248D01*
X12145753Y10532953D01*
X12139462Y10524294D01*
X12098675Y10499300D01*
X12052162Y10510466D01*
X12044704Y10516836D01*
X12013806Y10547734D01*
X11995500Y10591928D01*
X11995500Y10744323D01*
X12013806Y10788517D01*
X12511800Y11286511D01*
X12517300Y11291399D01*
X12537125Y11307028D01*
X12546910Y11314742D01*
X12580838Y11363832D01*
X12581972Y11365419D01*
X12585504Y11370200D01*
X12611781Y11405776D01*
X12614658Y11409671D01*
X12614659Y11409673D01*
X12617434Y11413430D01*
X12618982Y11417838D01*
X12619935Y11419639D01*
X12620090Y11419895D01*
X12620602Y11420899D01*
X12621109Y11421857D01*
X12622081Y11423173D01*
X12623747Y11425917D01*
X12623919Y11426166D01*
X12624165Y11425996D01*
X12632156Y11436816D01*
X12638024Y11442684D01*
X12640334Y11447639D01*
X12640336Y11447641D01*
X12682456Y11537969D01*
X12688772Y11551513D01*
X12692804Y11582140D01*
X12695033Y11599068D01*
X12695033Y11599074D01*
X12695300Y11601099D01*
X12695299Y12020900D01*
X12688772Y12070487D01*
X12653456Y12146223D01*
X12640336Y12174359D01*
X12640334Y12174361D01*
X12638024Y12179316D01*
X12622917Y12194423D01*
X12610770Y12211563D01*
X12593633Y12247252D01*
X12593630Y12247257D01*
X12591609Y12251465D01*
X12588439Y12254894D01*
X12587294Y12256579D01*
X12586963Y12257133D01*
X12585019Y12260017D01*
X12583379Y12263175D01*
X12579075Y12268214D01*
X12578221Y12269068D01*
X12578209Y12269081D01*
X12540951Y12306338D01*
X12539250Y12308107D01*
X12506459Y12343580D01*
X12499654Y12350942D01*
X12495614Y12353289D01*
X12491969Y12356209D01*
X12492210Y12356510D01*
X12486005Y12361284D01*
X12101583Y12745706D01*
X12083277Y12789900D01*
X12101583Y12834094D01*
X12145777Y12852400D01*
X18784300Y12852400D01*
X18828494Y12834094D01*
G37*
%TD.AperFunction*%
%TA.AperFunction,Conductor*%
G36*
X6461694Y11919694D02*
G01*
X6480000Y11875500D01*
X6480000Y11259432D01*
X6483641Y11250642D01*
X6492431Y11247001D01*
X6521546Y11247001D01*
X6526434Y11247386D01*
X6611412Y11260844D01*
X6620653Y11263846D01*
X6723091Y11316041D01*
X6730952Y11321752D01*
X6812248Y11403048D01*
X6817959Y11410909D01*
X6870153Y11513345D01*
X6873158Y11522595D01*
X6876130Y11541354D01*
X6901124Y11582140D01*
X6947638Y11593306D01*
X6988424Y11568312D01*
X6997301Y11550889D01*
X7001246Y11538748D01*
X7053441Y11436309D01*
X7059152Y11428448D01*
X7140448Y11347152D01*
X7148309Y11341441D01*
X7250745Y11289247D01*
X7259989Y11286243D01*
X7273195Y11284152D01*
X7313982Y11259159D01*
X7325150Y11212645D01*
X7315386Y11187698D01*
X7273573Y11125120D01*
X7268760Y11117917D01*
X7253500Y11041201D01*
X7253500Y10751015D01*
X7235194Y10706821D01*
X7157236Y10628862D01*
X7113042Y10610556D01*
X4705149Y10610556D01*
X4699702Y10610794D01*
X4697659Y10610973D01*
X4659401Y10614320D01*
X4654121Y10612905D01*
X4654119Y10612905D01*
X4620325Y10603849D01*
X4615004Y10602669D01*
X4575163Y10595644D01*
X4570429Y10592911D01*
X4570424Y10592909D01*
X4569695Y10592488D01*
X4554622Y10586244D01*
X4553803Y10586025D01*
X4553801Y10586024D01*
X4548524Y10584610D01*
X4544049Y10581476D01*
X4544048Y10581476D01*
X4515386Y10561406D01*
X4510794Y10558481D01*
X4475753Y10538250D01*
X4472238Y10534061D01*
X4450224Y10507826D01*
X4407793Y10485738D01*
X4402346Y10485500D01*
X3291460Y10485500D01*
X3286013Y10485738D01*
X3251168Y10488787D01*
X3251166Y10488787D01*
X3245723Y10489263D01*
X3240446Y10487849D01*
X3240445Y10487849D01*
X3206639Y10478791D01*
X3201321Y10477613D01*
X3161485Y10470588D01*
X3156748Y10467853D01*
X3156747Y10467853D01*
X3156014Y10467430D01*
X3140949Y10461190D01*
X3140126Y10460970D01*
X3140121Y10460967D01*
X3134846Y10459554D01*
X3101698Y10436344D01*
X3097111Y10433422D01*
X3062075Y10413194D01*
X3058559Y10409004D01*
X3036071Y10382204D01*
X3032387Y10378184D01*
X2539005Y9884801D01*
X2107194Y9452990D01*
X2063000Y9434684D01*
X2018806Y9452990D01*
X2000500Y9497184D01*
X2000500Y9923834D01*
X2000253Y9926453D01*
X1997877Y9951578D01*
X1997519Y9955369D01*
X1961957Y10056637D01*
X1954183Y10078774D01*
X1954182Y10078776D01*
X1952634Y10083184D01*
X1908643Y10142743D01*
X1897111Y10189168D01*
X1924191Y10231842D01*
X1939436Y10242029D01*
X1939438Y10242031D01*
X1944552Y10245448D01*
X1961634Y10271012D01*
X1985449Y10306653D01*
X1985450Y10306655D01*
X1988867Y10311769D01*
X1993469Y10334901D01*
X1999901Y10367239D01*
X1999901Y10367242D01*
X2000500Y10370252D01*
X2000500Y11409748D01*
X1999768Y11413430D01*
X1990068Y11462195D01*
X1990067Y11462197D01*
X1988867Y11468231D01*
X1985131Y11473823D01*
X1955826Y11517680D01*
X1944552Y11534552D01*
X1920102Y11550889D01*
X1883347Y11575449D01*
X1883345Y11575450D01*
X1878231Y11578867D01*
X1872195Y11580068D01*
X1872194Y11580068D01*
X1850807Y11584322D01*
X1811033Y11610898D01*
X1800500Y11645621D01*
X1800500Y11821414D01*
X1818806Y11865608D01*
X1863000Y11883914D01*
X1907156Y11865647D01*
X1953966Y11818918D01*
X1953968Y11818916D01*
X1957621Y11815270D01*
X2061706Y11764392D01*
X2066509Y11763691D01*
X2066510Y11763691D01*
X2087265Y11760663D01*
X2129514Y11754500D01*
X2243798Y11754500D01*
X2287992Y11736194D01*
X3032154Y10992032D01*
X3035803Y10988054D01*
X3066570Y10951452D01*
X3113173Y10920431D01*
X3115983Y10918444D01*
X3160776Y10884873D01*
X3164946Y10883310D01*
X3164951Y10883307D01*
X3167368Y10882401D01*
X3180054Y10875910D01*
X3185913Y10872010D01*
X3222429Y10860602D01*
X3239304Y10855330D01*
X3242605Y10854197D01*
X3290853Y10836110D01*
X3295020Y10834548D01*
X3299457Y10834218D01*
X3299459Y10834218D01*
X3301459Y10834070D01*
X3302036Y10834027D01*
X3316048Y10831354D01*
X3318505Y10830586D01*
X3318508Y10830585D01*
X3322757Y10829258D01*
X3327209Y10829176D01*
X3327211Y10829176D01*
X3378692Y10828232D01*
X3382177Y10828071D01*
X3433550Y10824254D01*
X3437992Y10823924D01*
X3444874Y10825393D01*
X3459065Y10826759D01*
X3460504Y10826733D01*
X3466099Y10826630D01*
X3520094Y10841351D01*
X3523460Y10842169D01*
X3578199Y10853853D01*
X3582120Y10855969D01*
X3582124Y10855970D01*
X3584397Y10857196D01*
X3597626Y10862488D01*
X3598927Y10862843D01*
X3604417Y10864340D01*
X3629733Y10879884D01*
X3652095Y10893614D01*
X3655118Y10895356D01*
X3700453Y10919818D01*
X3704371Y10921932D01*
X3707537Y10925060D01*
X3707544Y10925065D01*
X3709377Y10926876D01*
X3720594Y10935672D01*
X3722796Y10937024D01*
X3722801Y10937028D01*
X3726591Y10939355D01*
X3764135Y10980833D01*
X3766548Y10983354D01*
X3803193Y11019554D01*
X3803194Y11019556D01*
X3806363Y11022686D01*
X3809782Y11028841D01*
X3818078Y11040429D01*
X3819813Y11042345D01*
X3819816Y11042349D01*
X3822800Y11045646D01*
X3846100Y11093737D01*
X3847189Y11095984D01*
X3848798Y11099082D01*
X3863261Y11125120D01*
X3888219Y11149775D01*
X3979855Y11199220D01*
X3979858Y11199222D01*
X3983770Y11201333D01*
X3986933Y11204457D01*
X3986935Y11204459D01*
X4044013Y11260844D01*
X4085763Y11302086D01*
X4155378Y11427417D01*
X4182477Y11547180D01*
X4186035Y11562903D01*
X4186035Y11562904D01*
X4187018Y11567248D01*
X4186742Y11571697D01*
X4186455Y11576333D01*
X4201991Y11621575D01*
X4248835Y11642700D01*
X4852212Y11642700D01*
X4896406Y11624394D01*
X4914177Y11588357D01*
X4918402Y11556259D01*
X4918404Y11556251D01*
X4919028Y11551513D01*
X4921049Y11547180D01*
X4921049Y11547179D01*
X4967464Y11447641D01*
X4967466Y11447639D01*
X4969776Y11442684D01*
X5054684Y11357776D01*
X5059639Y11355466D01*
X5059641Y11355464D01*
X5100853Y11336247D01*
X5163513Y11307028D01*
X5180512Y11304790D01*
X5211068Y11300767D01*
X5211074Y11300767D01*
X5213099Y11300500D01*
X5215146Y11300500D01*
X5393484Y11300501D01*
X5572900Y11300501D01*
X5574912Y11300766D01*
X5574915Y11300766D01*
X5617747Y11306404D01*
X5617748Y11306404D01*
X5622487Y11307028D01*
X5654063Y11321752D01*
X5726359Y11355464D01*
X5726361Y11355466D01*
X5731316Y11357776D01*
X5792704Y11419164D01*
X5836898Y11437470D01*
X5881092Y11419164D01*
X5887462Y11411706D01*
X5893753Y11403047D01*
X5975048Y11321752D01*
X5982909Y11316041D01*
X6085345Y11263847D01*
X6094589Y11260843D01*
X6179566Y11247384D01*
X6184453Y11247000D01*
X6213569Y11247000D01*
X6222359Y11250641D01*
X6226000Y11259431D01*
X6226000Y11875500D01*
X6244306Y11919694D01*
X6288500Y11938000D01*
X6417500Y11938000D01*
X6461694Y11919694D01*
G37*
%TD.AperFunction*%
%TA.AperFunction,Conductor*%
G36*
X7973357Y10076077D02*
G01*
X7982828Y10068304D01*
X8013666Y10037466D01*
X8059275Y9991858D01*
X8077581Y9947664D01*
X8059275Y9903470D01*
X7673194Y9517389D01*
X7629000Y9499083D01*
X7584806Y9517389D01*
X7493589Y9608606D01*
X7475283Y9652800D01*
X7493589Y9696994D01*
X7693310Y9896715D01*
X7725313Y9913820D01*
X7744117Y9917560D01*
X7831112Y9975688D01*
X7886668Y10058834D01*
X7926440Y10085409D01*
X7973357Y10076077D01*
G37*
%TD.AperFunction*%
%TA.AperFunction,Conductor*%
G36*
X8283588Y10038331D02*
G01*
X8291359Y10028862D01*
X8326888Y9975688D01*
X8332005Y9972269D01*
X8408764Y9920980D01*
X8408766Y9920979D01*
X8413883Y9917560D01*
X8488880Y9902642D01*
X8490599Y9902300D01*
X8490513Y9901869D01*
X8526604Y9884801D01*
X8714411Y9696994D01*
X8732717Y9652800D01*
X8714411Y9608606D01*
X8623194Y9517389D01*
X8579000Y9499083D01*
X8534806Y9517389D01*
X8148725Y9903470D01*
X8130419Y9947664D01*
X8148725Y9991859D01*
X8194334Y10037467D01*
X8195199Y10038332D01*
X8239394Y10056637D01*
X8283588Y10038331D01*
G37*
%TD.AperFunction*%
%TA.AperFunction,Conductor*%
G36*
X9685694Y10696994D02*
G01*
X9704000Y10652800D01*
X9704000Y9871300D01*
X9685694Y9827106D01*
X9641500Y9808800D01*
X9516500Y9808800D01*
X9472306Y9827106D01*
X9454000Y9871300D01*
X9454000Y10652800D01*
X9472306Y10696994D01*
X9516500Y10715300D01*
X9641500Y10715300D01*
X9685694Y10696994D01*
G37*
%TD.AperFunction*%
%TA.AperFunction,Conductor*%
G36*
X8071238Y11450934D02*
G01*
X8078696Y11444564D01*
X8140084Y11383176D01*
X8167914Y11370198D01*
X8200231Y11334932D01*
X8204000Y11313555D01*
X8204000Y10527800D01*
X8185694Y10483606D01*
X8141500Y10465300D01*
X8016500Y10465300D01*
X7972306Y10483606D01*
X7954000Y10527800D01*
X7954000Y11316022D01*
X7943979Y11340214D01*
X7943978Y11388050D01*
X7957527Y11408327D01*
X7977647Y11428447D01*
X7983938Y11437106D01*
X8024725Y11462100D01*
X8071238Y11450934D01*
G37*
%TD.AperFunction*%
%TA.AperFunction,Conductor*%
G36*
X10926262Y11945094D02*
G01*
X10926934Y11944088D01*
X10941631Y11938000D01*
X11319300Y11938000D01*
X11363494Y11919694D01*
X11381800Y11875500D01*
X11381800Y11746500D01*
X11363494Y11702306D01*
X11319300Y11684000D01*
X10727932Y11684000D01*
X10683738Y11702306D01*
X10683066Y11703312D01*
X10668369Y11709400D01*
X10504631Y11709400D01*
X10495841Y11705759D01*
X10492200Y11696969D01*
X10492200Y11274831D01*
X10495841Y11266041D01*
X10504631Y11262400D01*
X10520362Y11262400D01*
X10564556Y11244094D01*
X10582862Y11199900D01*
X10564556Y11155706D01*
X10169495Y10760644D01*
X10163994Y10755756D01*
X10134390Y10732418D01*
X10101866Y10685359D01*
X10100470Y10683339D01*
X10099335Y10681751D01*
X10070773Y10643081D01*
X10029792Y10618409D01*
X9983367Y10629941D01*
X9958695Y10670922D01*
X9958000Y10680214D01*
X9958000Y11050343D01*
X9957733Y11054421D01*
X9952556Y11093737D01*
X9949910Y11102817D01*
X9907075Y11194677D01*
X9900892Y11203508D01*
X9829708Y11274692D01*
X9820877Y11280875D01*
X9740325Y11318437D01*
X9708007Y11353705D01*
X9710094Y11401494D01*
X9722544Y11419275D01*
X9759265Y11455996D01*
X9769101Y11477089D01*
X9804367Y11509404D01*
X9852157Y11507319D01*
X9881432Y11479048D01*
X9909336Y11424284D01*
X9915047Y11416423D01*
X9995223Y11336247D01*
X10003084Y11330536D01*
X10104109Y11279061D01*
X10113353Y11276057D01*
X10197157Y11262784D01*
X10202044Y11262400D01*
X10225769Y11262400D01*
X10234559Y11266041D01*
X10238200Y11274831D01*
X10238200Y11900900D01*
X10256506Y11945094D01*
X10300700Y11963400D01*
X10882068Y11963400D01*
X10926262Y11945094D01*
G37*
%TD.AperFunction*%
%TA.AperFunction,Conductor*%
G36*
X1002966Y12834094D02*
G01*
X1021272Y12789900D01*
X1002966Y12745706D01*
X995154Y12739080D01*
X991759Y12736650D01*
X987120Y12734372D01*
X983470Y12730716D01*
X983469Y12730715D01*
X908918Y12656034D01*
X908916Y12656032D01*
X905270Y12652379D01*
X854392Y12548294D01*
X844500Y12480486D01*
X844500Y12457213D01*
X840522Y12435271D01*
X839249Y12431876D01*
X837303Y12427259D01*
X816447Y12382837D01*
X815762Y12378439D01*
X815762Y12378438D01*
X814294Y12369008D01*
X811060Y12356682D01*
X806148Y12343580D01*
X805818Y12339135D01*
X802511Y12294640D01*
X801939Y12289660D01*
X799500Y12273991D01*
X799500Y12256431D01*
X799328Y12251802D01*
X795524Y12200608D01*
X796453Y12196256D01*
X798123Y12188433D01*
X799500Y12175385D01*
X799500Y11653000D01*
X781194Y11608806D01*
X737000Y11590500D01*
X214900Y11590500D01*
X170706Y11608806D01*
X152400Y11653000D01*
X152400Y12789900D01*
X170706Y12834094D01*
X214900Y12852400D01*
X958772Y12852400D01*
X1002966Y12834094D01*
G37*
%TD.AperFunction*%
%TD*%
M02*
