%TF.GenerationSoftware,KiCad,Pcbnew,8.0.5-8.0.5-0~ubuntu22.04.1*%
%TF.CreationDate,2024-09-30T14:04:22+02:00*%
%TF.ProjectId,CC1101_868MHz_UFL_RF_Modul_FUEL4EP,43433131-3031-45f3-9836-384d487a5f55,1.6*%
%TF.SameCoordinates,Original*%
%TF.FileFunction,Copper,L1,Top*%
%TF.FilePolarity,Positive*%
%FSLAX46Y46*%
G04 Gerber Fmt 4.6, Leading zero omitted, Abs format (unit mm)*
G04 Created by KiCad (PCBNEW 8.0.5-8.0.5-0~ubuntu22.04.1) date 2024-09-30 14:04:22*
%MOMM*%
%LPD*%
G01*
G04 APERTURE LIST*
G04 Aperture macros list*
%AMRoundRect*
0 Rectangle with rounded corners*
0 $1 Rounding radius*
0 $2 $3 $4 $5 $6 $7 $8 $9 X,Y pos of 4 corners*
0 Add a 4 corners polygon primitive as box body*
4,1,4,$2,$3,$4,$5,$6,$7,$8,$9,$2,$3,0*
0 Add four circle primitives for the rounded corners*
1,1,$1+$1,$2,$3*
1,1,$1+$1,$4,$5*
1,1,$1+$1,$6,$7*
1,1,$1+$1,$8,$9*
0 Add four rect primitives between the rounded corners*
20,1,$1+$1,$2,$3,$4,$5,0*
20,1,$1+$1,$4,$5,$6,$7,0*
20,1,$1+$1,$6,$7,$8,$9,0*
20,1,$1+$1,$8,$9,$2,$3,0*%
G04 Aperture macros list end*
%TA.AperFunction,SMDPad,CuDef*%
%ADD10RoundRect,0.062500X-0.425000X-0.062500X0.425000X-0.062500X0.425000X0.062500X-0.425000X0.062500X0*%
%TD*%
%TA.AperFunction,SMDPad,CuDef*%
%ADD11RoundRect,0.062500X-0.062500X-0.425000X0.062500X-0.425000X0.062500X0.425000X-0.062500X0.425000X0*%
%TD*%
%TA.AperFunction,HeatsinkPad*%
%ADD12C,0.500000*%
%TD*%
%TA.AperFunction,HeatsinkPad*%
%ADD13R,2.400000X2.400000*%
%TD*%
%TA.AperFunction,CastellatedPad*%
%ADD14R,1.700000X1.000000*%
%TD*%
%TA.AperFunction,SMDPad,CuDef*%
%ADD15RoundRect,0.147500X-0.147500X-0.172500X0.147500X-0.172500X0.147500X0.172500X-0.147500X0.172500X0*%
%TD*%
%TA.AperFunction,SMDPad,CuDef*%
%ADD16RoundRect,0.140000X0.140000X0.170000X-0.140000X0.170000X-0.140000X-0.170000X0.140000X-0.170000X0*%
%TD*%
%TA.AperFunction,SMDPad,CuDef*%
%ADD17RoundRect,0.147500X0.147500X0.172500X-0.147500X0.172500X-0.147500X-0.172500X0.147500X-0.172500X0*%
%TD*%
%TA.AperFunction,SMDPad,CuDef*%
%ADD18RoundRect,0.140000X-0.140000X-0.170000X0.140000X-0.170000X0.140000X0.170000X-0.140000X0.170000X0*%
%TD*%
%TA.AperFunction,CastellatedPad*%
%ADD19RoundRect,0.250000X-0.600000X-0.250000X0.600000X-0.250000X0.600000X0.250000X-0.600000X0.250000X0*%
%TD*%
%TA.AperFunction,SMDPad,CuDef*%
%ADD20RoundRect,0.147500X-0.172500X0.147500X-0.172500X-0.147500X0.172500X-0.147500X0.172500X0.147500X0*%
%TD*%
%TA.AperFunction,SMDPad,CuDef*%
%ADD21RoundRect,0.140000X0.170000X-0.140000X0.170000X0.140000X-0.170000X0.140000X-0.170000X-0.140000X0*%
%TD*%
%TA.AperFunction,SMDPad,CuDef*%
%ADD22R,1.000000X1.000000*%
%TD*%
%TA.AperFunction,SMDPad,CuDef*%
%ADD23R,2.200000X1.050000*%
%TD*%
%TA.AperFunction,SMDPad,CuDef*%
%ADD24RoundRect,0.140000X-0.170000X0.140000X-0.170000X-0.140000X0.170000X-0.140000X0.170000X0.140000X0*%
%TD*%
%TA.AperFunction,SMDPad,CuDef*%
%ADD25RoundRect,0.135000X0.135000X0.185000X-0.135000X0.185000X-0.135000X-0.185000X0.135000X-0.185000X0*%
%TD*%
%TA.AperFunction,SMDPad,CuDef*%
%ADD26R,1.400000X1.200000*%
%TD*%
%TA.AperFunction,SMDPad,CuDef*%
%ADD27RoundRect,0.225000X-0.250000X0.225000X-0.250000X-0.225000X0.250000X-0.225000X0.250000X0.225000X0*%
%TD*%
%TA.AperFunction,ViaPad*%
%ADD28C,0.600000*%
%TD*%
%TA.AperFunction,Conductor*%
%ADD29C,0.250000*%
%TD*%
%TA.AperFunction,Conductor*%
%ADD30C,0.600000*%
%TD*%
%TA.AperFunction,Conductor*%
%ADD31C,0.200000*%
%TD*%
%TA.AperFunction,Conductor*%
%ADD32C,0.500000*%
%TD*%
G04 APERTURE END LIST*
D10*
%TO.P,U1,1,SCLK*%
%TO.N,/SCK*%
X6691500Y9702800D03*
%TO.P,U1,2,SO/GDO1*%
%TO.N,/MISO{slash}GDO1*%
X6691500Y9202800D03*
%TO.P,U1,3,GDO2*%
%TO.N,/GDO2*%
X6691500Y8702800D03*
%TO.P,U1,4,DVDD*%
%TO.N,VDDA*%
X6691500Y8202800D03*
%TO.P,U1,5,DCOUPL*%
%TO.N,Net-(U1-DCOUPL)*%
X6691500Y7702800D03*
D11*
%TO.P,U1,6,GDO0*%
%TO.N,/GDO0*%
X7579000Y6815300D03*
%TO.P,U1,7,~{CS}*%
%TO.N,/~{CS}*%
X8079000Y6815300D03*
%TO.P,U1,8,XOSC_Q1*%
%TO.N,Net-(U1-XOSC_Q1)*%
X8579000Y6815300D03*
%TO.P,U1,9,AVDD1*%
%TO.N,VDDA*%
X9079000Y6815300D03*
%TO.P,U1,10,XOSC_Q2*%
%TO.N,Net-(U1-XOSC_Q2)*%
X9579000Y6815300D03*
D10*
%TO.P,U1,11,AVDD2*%
%TO.N,VDDA*%
X10466500Y7702800D03*
%TO.P,U1,12,RF_P*%
%TO.N,Net-(U1-RF_P)*%
X10466500Y8202800D03*
%TO.P,U1,13,RF_N*%
%TO.N,Net-(U1-RF_N)*%
X10466500Y8702800D03*
%TO.P,U1,14,AVDD3*%
%TO.N,VDDA*%
X10466500Y9202800D03*
%TO.P,U1,15,AVDD4*%
X10466500Y9702800D03*
D11*
%TO.P,U1,16,GND1*%
%TO.N,GND*%
X9579000Y10590300D03*
%TO.P,U1,17,RBIAS*%
%TO.N,Net-(U1-RBIAS)*%
X9079000Y10590300D03*
%TO.P,U1,18,DGUARD*%
%TO.N,VDDA*%
X8579000Y10590300D03*
%TO.P,U1,19,GND2*%
%TO.N,GND*%
X8079000Y10590300D03*
%TO.P,U1,20,SI*%
%TO.N,/MOSI*%
X7579000Y10590300D03*
D12*
%TO.P,U1,21,GND3*%
%TO.N,GND*%
X7629000Y9652800D03*
X7629000Y8702800D03*
X7629000Y7752800D03*
X8579000Y9652800D03*
X8579000Y8702800D03*
D13*
X8579000Y8702800D03*
D12*
X8579000Y7752800D03*
X9529000Y9652800D03*
X9529000Y8702800D03*
X9529000Y7752800D03*
%TD*%
D14*
%TO.P,JA2,1,Pin_1*%
%TO.N,GND*%
X18050000Y1270000D03*
%TD*%
%TO.P,JA1,1,Pin_1*%
%TO.N,Net-(JA1-Pin_1)*%
X18050000Y3550000D03*
%TD*%
D15*
%TO.P,L1,1,1*%
%TO.N,Net-(U1-RF_N)*%
X11794000Y8892800D03*
%TO.P,L1,2,2*%
%TO.N,Net-(C1-Pad1)*%
X12764000Y8892800D03*
%TD*%
D16*
%TO.P,C14,1*%
%TO.N,VDDA*%
X8478400Y11836400D03*
%TO.P,C14,2*%
%TO.N,GND*%
X7518400Y11836400D03*
%TD*%
D17*
%TO.P,L7,1,1*%
%TO.N,Net-(C7-Pad1)*%
X18366600Y4876800D03*
%TO.P,L7,2,2*%
%TO.N,Net-(JA1-Pin_1)*%
X17396600Y4876800D03*
%TD*%
D15*
%TO.P,L3,1,1*%
%TO.N,Net-(C2-Pad1)*%
X14501000Y6858000D03*
%TO.P,L3,2,2*%
%TO.N,Net-(C3-Pad2)*%
X15471000Y6858000D03*
%TD*%
%TO.P,L2,1,1*%
%TO.N,Net-(U1-RF_P)*%
X11794000Y7902800D03*
%TO.P,L2,2,2*%
%TO.N,Net-(C2-Pad1)*%
X12764000Y7902800D03*
%TD*%
D16*
%TO.P,C5,1*%
%TO.N,GND*%
X17704200Y7925200D03*
%TO.P,C5,2*%
%TO.N,Net-(C5-Pad2)*%
X16744200Y7925200D03*
%TD*%
D18*
%TO.P,C3,1*%
%TO.N,GND*%
X14506000Y5842000D03*
%TO.P,C3,2*%
%TO.N,Net-(C3-Pad2)*%
X15466000Y5842000D03*
%TD*%
D19*
%TO.P,JC5,1,Pin_1*%
%TO.N,/MOSI*%
X950000Y5810000D03*
%TD*%
D20*
%TO.P,L6,1,1*%
%TO.N,Net-(C5-Pad2)*%
X16408400Y6987400D03*
%TO.P,L6,2,2*%
%TO.N,Net-(C6-Pad2)*%
X16408400Y6017400D03*
%TD*%
D21*
%TO.P,C2,1*%
%TO.N,Net-(C2-Pad1)*%
X13729000Y7904800D03*
%TO.P,C2,2*%
%TO.N,Net-(C1-Pad1)*%
X13729000Y8864800D03*
%TD*%
D19*
%TO.P,JC8,1,Pin_1*%
%TO.N,GND*%
X950000Y2000000D03*
%TD*%
D21*
%TO.P,C7,1*%
%TO.N,Net-(C7-Pad1)*%
X18338800Y5819200D03*
%TO.P,C7,2*%
%TO.N,Net-(C6-Pad2)*%
X18338800Y6779200D03*
%TD*%
D22*
%TO.P,JA3,1,In*%
%TO.N,Net-(JA1-Pin_1)*%
X15928000Y2667000D03*
D23*
%TO.P,JA3,2,Ext*%
%TO.N,GND*%
X14428000Y4142000D03*
D22*
X12928000Y2667000D03*
D23*
X14428000Y1192000D03*
%TD*%
D24*
%TO.P,C16,1*%
%TO.N,Net-(U1-DCOUPL)*%
X4013200Y6372800D03*
%TO.P,C16,2*%
%TO.N,GND*%
X4013200Y5412800D03*
%TD*%
D25*
%TO.P,R1,1*%
%TO.N,GND*%
X10365200Y11836400D03*
%TO.P,R1,2*%
%TO.N,Net-(U1-RBIAS)*%
X9345200Y11836400D03*
%TD*%
D21*
%TO.P,C15,1*%
%TO.N,VDDA*%
X11684000Y5616000D03*
%TO.P,C15,2*%
%TO.N,GND*%
X11684000Y6576000D03*
%TD*%
%TO.P,C17,1*%
%TO.N,VDDA*%
X12700000Y5616000D03*
%TO.P,C17,2*%
%TO.N,GND*%
X12700000Y6576000D03*
%TD*%
D15*
%TO.P,L4,1,1*%
%TO.N,Net-(C1-Pad1)*%
X14695600Y8966600D03*
%TO.P,L4,2,2*%
%TO.N,Net-(C4-Pad2)*%
X15665600Y8966600D03*
%TD*%
D26*
%TO.P,Y1,1,1*%
%TO.N,Net-(U1-XOSC_Q1)*%
X6723200Y1690000D03*
%TO.P,Y1,2,2*%
%TO.N,GND*%
X8923200Y1690000D03*
%TO.P,Y1,3,3*%
%TO.N,Net-(U1-XOSC_Q2)*%
X8923200Y3390000D03*
%TO.P,Y1,4,4*%
%TO.N,GND*%
X6723200Y3390000D03*
%TD*%
D27*
%TO.P,C13,1*%
%TO.N,VDDA*%
X5207000Y7506000D03*
%TO.P,C13,2*%
%TO.N,GND*%
X5207000Y5956000D03*
%TD*%
D18*
%TO.P,C10,1*%
%TO.N,VDDA*%
X5393000Y11811000D03*
%TO.P,C10,2*%
%TO.N,GND*%
X6353000Y11811000D03*
%TD*%
%TO.P,C4,1*%
%TO.N,Net-(C2-Pad1)*%
X14680600Y7899800D03*
%TO.P,C4,2*%
%TO.N,Net-(C4-Pad2)*%
X15640600Y7899800D03*
%TD*%
D19*
%TO.P,JC6,1,Pin_1*%
%TO.N,/MISO{slash}GDO1*%
X950000Y4540000D03*
%TD*%
D15*
%TO.P,FB1,1*%
%TO.N,/VDD*%
X1340000Y12275000D03*
%TO.P,FB1,2*%
%TO.N,VDDA*%
X2310000Y12275000D03*
%TD*%
D16*
%TO.P,C12,1*%
%TO.N,VDDA*%
X12214800Y11811000D03*
%TO.P,C12,2*%
%TO.N,GND*%
X11254800Y11811000D03*
%TD*%
D19*
%TO.P,JC3,1,Pin_1*%
%TO.N,/~{CS}*%
X950000Y8350000D03*
%TD*%
%TO.P,JC2,1,Pin_1*%
%TO.N,/GDO0*%
X950000Y9620000D03*
%TD*%
D14*
%TO.P,JC1,1,Pin_1*%
%TO.N,/VDD*%
X950000Y10890000D03*
%TD*%
D15*
%TO.P,L5,1,1*%
%TO.N,Net-(C4-Pad2)*%
X16759200Y8941200D03*
%TO.P,L5,2,2*%
%TO.N,Net-(C5-Pad2)*%
X17729200Y8941200D03*
%TD*%
D18*
%TO.P,C11,1*%
%TO.N,VDDA*%
X11645000Y10125000D03*
%TO.P,C11,2*%
%TO.N,GND*%
X12605000Y10125000D03*
%TD*%
%TO.P,C8,1*%
%TO.N,GND*%
X6936800Y4724400D03*
%TO.P,C8,2*%
%TO.N,Net-(U1-XOSC_Q1)*%
X7896800Y4724400D03*
%TD*%
%TO.P,C1,1*%
%TO.N,Net-(C1-Pad1)*%
X14680600Y9982600D03*
%TO.P,C1,2*%
%TO.N,GND*%
X15640600Y9982600D03*
%TD*%
D21*
%TO.P,C6,1*%
%TO.N,Net-(JA1-Pin_1)*%
X17373600Y5819200D03*
%TO.P,C6,2*%
%TO.N,Net-(C6-Pad2)*%
X17373600Y6779200D03*
%TD*%
D16*
%TO.P,C9,1*%
%TO.N,GND*%
X10081200Y4724400D03*
%TO.P,C9,2*%
%TO.N,Net-(U1-XOSC_Q2)*%
X9121200Y4724400D03*
%TD*%
D19*
%TO.P,JC4,1,Pin_1*%
%TO.N,/SCK*%
X950000Y7080000D03*
%TD*%
%TO.P,JC7,1,Pin_1*%
%TO.N,/GDO2*%
X950000Y3270000D03*
%TD*%
D28*
%TO.N,GND*%
X5130800Y4902200D03*
X3302000Y1524000D03*
X3302000Y508000D03*
X2286000Y1524000D03*
X2286000Y508000D03*
X762000Y508000D03*
X11938000Y2692400D03*
X500000Y12050000D03*
X14859000Y12192000D03*
X3302000Y2540000D03*
X4318000Y1524000D03*
X6604000Y508000D03*
X8890000Y508000D03*
X18288000Y11176000D03*
X5334000Y1524000D03*
X6985000Y11303000D03*
X10414000Y3048000D03*
X18542000Y8890000D03*
X10226239Y7051239D03*
X11176000Y3556000D03*
X16205200Y4927600D03*
X5854208Y4498645D03*
X17526000Y11176000D03*
X4318000Y508000D03*
X13462000Y6985000D03*
X12192000Y7112000D03*
X2286000Y2540000D03*
X16357600Y10058400D03*
X16002000Y12192000D03*
X5334000Y2540000D03*
X9780000Y10794000D03*
X11023600Y660400D03*
X10640848Y4659587D03*
X16764000Y11176000D03*
X10160000Y508000D03*
X4318000Y3556000D03*
X5334000Y3556000D03*
X18440400Y7924800D03*
X12192000Y3556000D03*
X11836400Y660400D03*
X13335000Y10175000D03*
X12446000Y1676400D03*
X3556000Y3302000D03*
X4318000Y2540000D03*
X14808200Y11226800D03*
X15748000Y10820400D03*
X13817600Y5384800D03*
X17526000Y10160000D03*
X16764000Y12192000D03*
X5334000Y508000D03*
X2304199Y5700000D03*
X13030200Y12014200D03*
X18288000Y10160000D03*
X11734800Y4470400D03*
X12700000Y762000D03*
X11176000Y2540000D03*
X13792200Y11099800D03*
X7874000Y508000D03*
X6223000Y10922000D03*
X6858000Y7061200D03*
X18288000Y12192000D03*
X4346102Y4561781D03*
X13868400Y12039600D03*
X10414000Y2032000D03*
X11480800Y1574800D03*
X13462000Y6096000D03*
X16256000Y1574800D03*
X16205200Y4064000D03*
X17526000Y12192000D03*
X16205200Y762000D03*
X1524000Y762000D03*
X2375000Y10775000D03*
X4592391Y11199563D03*
X10375000Y3875000D03*
X12928600Y11074400D03*
X12801600Y4521200D03*
X10414000Y1270000D03*
%TO.N,/GDO0*%
X7041833Y5538480D03*
%TO.N,/MOSI*%
X2261967Y7852614D03*
%TO.N,/~{CS}*%
X7877108Y5586478D03*
%TO.N,VDDA*%
X5505452Y8312053D03*
X3403600Y11328400D03*
X9127372Y5974477D03*
X11089998Y5321000D03*
%TD*%
D29*
%TO.N,GND*%
X8079000Y9799247D02*
X8225447Y9652800D01*
X8079000Y10590300D02*
X8079000Y9799247D01*
X9579000Y10590300D02*
X9579000Y9702800D01*
D30*
X10390600Y11811000D02*
X10365200Y11836400D01*
D29*
X8079000Y11268191D02*
X7518400Y11828791D01*
X8079000Y10590300D02*
X8079000Y11268191D01*
D30*
X10365200Y11836400D02*
X10365200Y11379200D01*
D29*
X9579000Y10593000D02*
X9780000Y10794000D01*
D30*
X11254800Y11811000D02*
X10390600Y11811000D01*
X10365200Y11379200D02*
X9780000Y10794000D01*
D29*
%TO.N,Net-(C1-Pad1)*%
X13729000Y8864800D02*
X14593800Y8864800D01*
X12764000Y8892800D02*
X13701000Y8892800D01*
X14695600Y8966600D02*
X14695600Y9967600D01*
%TO.N,Net-(C2-Pad1)*%
X14680600Y7899800D02*
X14680600Y6746400D01*
X13729000Y7904800D02*
X14675600Y7904800D01*
X12764000Y7902800D02*
X13727000Y7902800D01*
%TO.N,Net-(C3-Pad2)*%
X15665600Y6731400D02*
X15665600Y5638800D01*
%TO.N,Net-(C4-Pad2)*%
X15773800Y8950400D02*
X16750000Y8950400D01*
X15640600Y7899800D02*
X15640600Y8941600D01*
%TO.N,Net-(C5-Pad2)*%
X16408400Y7518400D02*
X16408400Y6835000D01*
X16744200Y7854200D02*
X16408400Y7518400D01*
X17729200Y8922984D02*
X16744200Y7937984D01*
%TO.N,Net-(JA1-Pin_1)*%
X17396600Y4876800D02*
X17396600Y3883400D01*
X16811000Y3550000D02*
X15928000Y2667000D01*
X17730000Y3550000D02*
X16811000Y3550000D01*
X17373600Y5819200D02*
X17373600Y4899800D01*
%TO.N,Net-(C6-Pad2)*%
X17373600Y6779200D02*
X16961800Y6367400D01*
X16961800Y6367400D02*
X16758400Y6367400D01*
X18338800Y6779200D02*
X17373600Y6779200D01*
X16758400Y6367400D02*
X16408400Y6017400D01*
%TO.N,Net-(C7-Pad1)*%
X18338800Y5819200D02*
X18338800Y4904600D01*
D31*
%TO.N,Net-(U1-XOSC_Q1)*%
X7848600Y2615400D02*
X6923200Y1690000D01*
X8585200Y6299200D02*
X8527872Y6241872D01*
X7988459Y4848800D02*
X8219659Y5080000D01*
X8527872Y6241872D02*
X8527872Y5378272D01*
D29*
X8579000Y6815300D02*
X8579000Y6305400D01*
X8579000Y6305400D02*
X8585200Y6299200D01*
D31*
X8219659Y5080000D02*
X8229600Y5080000D01*
X7848600Y4777800D02*
X7848600Y2615400D01*
X8229600Y5080000D02*
X8527872Y5378272D01*
D29*
%TO.N,/SCK*%
X6269262Y9702800D02*
X6136507Y9835555D01*
X4874397Y9835555D02*
X4741642Y9702800D01*
X6691500Y9702800D02*
X6269262Y9702800D01*
X2884998Y7559978D02*
X2405020Y7080000D01*
X4741642Y9702800D02*
X3453020Y9702800D01*
X2924500Y9174280D02*
X2924500Y7849297D01*
X2924500Y7849297D02*
X2884998Y7809795D01*
X3453020Y9702800D02*
X2924500Y9174280D01*
X2884998Y7809795D02*
X2884998Y7559978D01*
X6136507Y9835555D02*
X4874397Y9835555D01*
X2405020Y7080000D02*
X1400000Y7080000D01*
%TO.N,/GDO0*%
X7579000Y6258200D02*
X7114757Y5793957D01*
X7579000Y6815300D02*
X7579000Y6258200D01*
X7114757Y5793957D02*
X7114757Y5634373D01*
%TO.N,/MOSI*%
X4688208Y10285056D02*
X4563152Y10160000D01*
X7273756Y10285056D02*
X4688208Y10285056D01*
X2261967Y9147437D02*
X2261967Y7852614D01*
X7579000Y10590300D02*
X7273756Y10285056D01*
X3274530Y10160000D02*
X2261967Y9147437D01*
X4563152Y10160000D02*
X3274530Y10160000D01*
%TO.N,/GDO2*%
X3784000Y7187600D02*
X3784000Y7437417D01*
X2254000Y3270000D02*
X3388700Y4404700D01*
X1400000Y3270000D02*
X2254000Y3270000D01*
X6641001Y8753299D02*
X6691500Y8702800D01*
X3388700Y4404700D02*
X3378200Y4415200D01*
X5764129Y8936553D02*
X5947383Y8753299D01*
X4109499Y8720308D02*
X4142490Y8753299D01*
X4109499Y7762916D02*
X4109499Y8720308D01*
X5947383Y8753299D02*
X6641001Y8753299D01*
X5246775Y8936553D02*
X5764129Y8936553D01*
X4142490Y8753299D02*
X5063521Y8753299D01*
X3784000Y7437417D02*
X4109499Y7762916D01*
X3378200Y6781800D02*
X3784000Y7187600D01*
X5063521Y8753299D02*
X5246775Y8936553D01*
X3378200Y4415200D02*
X3378200Y6781800D01*
%TO.N,Net-(U1-XOSC_Q2)*%
X9579000Y6423000D02*
X9579000Y6815300D01*
X9121200Y4724400D02*
X9121200Y3588000D01*
X9753600Y5567609D02*
X9121200Y4935209D01*
X9753600Y5567609D02*
X9753600Y6248400D01*
X9753600Y6248400D02*
X9579000Y6423000D01*
X9121200Y4935209D02*
X9121200Y4724400D01*
%TO.N,Net-(U1-RF_N)*%
X10466500Y8702800D02*
X11604000Y8702800D01*
X11604000Y8702800D02*
X11794000Y8892800D01*
%TO.N,Net-(U1-RF_P)*%
X11494000Y8202800D02*
X11794000Y7902800D01*
X10466500Y8202800D02*
X11494000Y8202800D01*
%TO.N,Net-(U1-RBIAS)*%
X9079000Y11570200D02*
X9345200Y11836400D01*
X9079000Y10590300D02*
X9079000Y11570200D01*
%TO.N,/~{CS}*%
X8079000Y5787163D02*
X7927343Y5635506D01*
X8079000Y6815300D02*
X8079000Y5787163D01*
%TO.N,VDDA*%
X11645000Y10125000D02*
X11645000Y9745000D01*
D32*
X3683000Y11938000D02*
X3838200Y12093200D01*
X11629686Y11041500D02*
X11087454Y11041500D01*
D29*
X11645000Y9745000D02*
X11102800Y9202800D01*
D32*
X12214800Y11995386D02*
X11603786Y12606400D01*
D30*
X2310000Y12275000D02*
X3015800Y12275000D01*
D32*
X3683000Y11607800D02*
X3683000Y11938000D01*
D30*
X5211200Y12275000D02*
X5393000Y12093200D01*
D32*
X5978614Y12581000D02*
X3321800Y12581000D01*
X8478400Y12466200D02*
X8618600Y12606400D01*
X12214800Y11811000D02*
X12214800Y11626614D01*
D29*
X11670000Y11150000D02*
X11670000Y10150000D01*
X10922000Y5488998D02*
X11089998Y5321000D01*
D30*
X2310000Y12275000D02*
X2457000Y12275000D01*
D32*
X11603786Y12606400D02*
X8618600Y12606400D01*
X8478400Y11836400D02*
X8478400Y12466200D01*
D29*
X9079000Y6815300D02*
X9079000Y6022849D01*
X10922000Y7493000D02*
X10922000Y5488998D01*
D32*
X12214800Y11811000D02*
X12214800Y11995386D01*
X12214800Y11626614D02*
X11629686Y11041500D01*
X10466500Y10420546D02*
X10466500Y9702800D01*
X5393000Y11995386D02*
X5978614Y12581000D01*
D31*
X8579000Y10590300D02*
X8579000Y11782000D01*
D30*
X2457000Y12275000D02*
X3403600Y11328400D01*
D29*
X9079000Y6022849D02*
X9127372Y5974477D01*
D32*
X8618600Y12606400D02*
X6004014Y12606400D01*
X3321800Y12581000D02*
X3015800Y12275000D01*
D30*
X3015800Y12275000D02*
X3683000Y11607800D01*
D32*
X5505452Y7804452D02*
X5207000Y7506000D01*
X5393000Y11811000D02*
X5393000Y11995386D01*
D29*
X10712200Y7702800D02*
X10922000Y7493000D01*
D32*
X12700000Y5321000D02*
X11089998Y5321000D01*
X3403600Y11328400D02*
X3683000Y11607800D01*
D29*
X11102800Y9202800D02*
X10466500Y9202800D01*
D32*
X11087454Y11041500D02*
X10466500Y10420546D01*
X6004014Y12606400D02*
X5978614Y12581000D01*
D29*
X6691500Y8202800D02*
X5534403Y8202800D01*
D32*
X3838200Y12093200D02*
X5393000Y12093200D01*
X5505452Y8312053D02*
X5505452Y7804452D01*
D30*
X3015800Y12275000D02*
X5211200Y12275000D01*
D29*
%TO.N,Net-(U1-DCOUPL)*%
X6077200Y6890000D02*
X6077200Y7702800D01*
X6077200Y6890000D02*
X5918200Y6731000D01*
X4371400Y6731000D02*
X4013200Y6372800D01*
X6077200Y7702800D02*
X6691500Y7702800D01*
X5918200Y6731000D02*
X4371400Y6731000D01*
%TO.N,/MISO{slash}GDO1*%
X6133572Y9202800D02*
X5950318Y9386054D01*
X5060586Y9386054D02*
X4877332Y9202800D01*
X2762000Y4540000D02*
X1400000Y4540000D01*
X5950318Y9386054D02*
X5060586Y9386054D01*
X2928699Y6967989D02*
X2928699Y4706699D01*
X3374001Y8988091D02*
X3374001Y7663108D01*
X3588710Y9202800D02*
X3374001Y8988091D01*
X6691500Y9202800D02*
X6133572Y9202800D01*
X3374001Y7663108D02*
X3334499Y7623606D01*
X4877332Y9202800D02*
X3588710Y9202800D01*
X2928699Y4706699D02*
X2762000Y4540000D01*
X3334499Y7623606D02*
X3334499Y7373789D01*
X3334499Y7373789D02*
X2928699Y6967989D01*
D30*
%TO.N,/VDD*%
X1300000Y10890000D02*
X1300000Y12235000D01*
X1300000Y12235000D02*
X1340000Y12275000D01*
%TD*%
%TA.AperFunction,Conductor*%
%TO.N,GND*%
G36*
X10591800Y5372811D02*
G01*
X10584351Y5321000D01*
X10591800Y5269190D01*
X10591800Y5130800D01*
X10648405Y5083131D01*
X10664621Y5047626D01*
X10758871Y4938855D01*
X10879944Y4861047D01*
X10929362Y4846536D01*
X11074400Y4724400D01*
X11074400Y4165600D01*
X10083800Y4165600D01*
X10083800Y5359400D01*
X10236200Y5537200D01*
X10591800Y5562600D01*
X10591800Y5372811D01*
G37*
%TD.AperFunction*%
%TD*%
%TA.AperFunction,Conductor*%
%TO.N,GND*%
G36*
X14247731Y7543602D02*
G01*
X14254734Y7535256D01*
X14257375Y7531483D01*
X14310847Y7478012D01*
X14329153Y7433818D01*
X14310847Y7389624D01*
X14275664Y7371971D01*
X14252830Y7368645D01*
X14148489Y7317636D01*
X14066364Y7235511D01*
X14021088Y7142897D01*
X14015354Y7131167D01*
X14005500Y7063527D01*
X14005500Y6652472D01*
X14015354Y6584832D01*
X14066364Y6480489D01*
X14127633Y6419220D01*
X14145938Y6375026D01*
X14127632Y6330832D01*
X14043273Y6246473D01*
X13986614Y6135274D01*
X13986611Y6135264D01*
X13972001Y6043020D01*
X13972000Y6043004D01*
X13972000Y5969000D01*
X14570500Y5969000D01*
X14614694Y5950694D01*
X14633000Y5906500D01*
X14633000Y5277999D01*
X14677002Y5278000D01*
X14677007Y5278001D01*
X14769271Y5292613D01*
X14880473Y5349273D01*
X14968727Y5437527D01*
X14971619Y5441507D01*
X14973876Y5439866D01*
X15003241Y5464951D01*
X15050929Y5461201D01*
X15066753Y5449706D01*
X15127683Y5388776D01*
X15236513Y5338027D01*
X15286092Y5331500D01*
X15286099Y5331500D01*
X15546591Y5331500D01*
X15562766Y5329371D01*
X15622745Y5313300D01*
X15622747Y5313300D01*
X15708452Y5313300D01*
X15708453Y5313300D01*
X15708454Y5313300D01*
X15708459Y5313301D01*
X15791234Y5335480D01*
X15791237Y5335481D01*
X15839301Y5363231D01*
X15865462Y5378335D01*
X15865463Y5378336D01*
X15865467Y5378339D01*
X15926060Y5438932D01*
X15926063Y5438936D01*
X15926065Y5438938D01*
X15968918Y5513162D01*
X15972943Y5528184D01*
X16002061Y5566135D01*
X16049487Y5572380D01*
X16060762Y5568159D01*
X16135034Y5531851D01*
X16135230Y5531755D01*
X16202872Y5521900D01*
X16613928Y5521900D01*
X16681567Y5531754D01*
X16681568Y5531754D01*
X16681570Y5531755D01*
X16785911Y5582764D01*
X16785912Y5582765D01*
X16789961Y5585656D01*
X16836566Y5596438D01*
X16877144Y5571107D01*
X16882922Y5561204D01*
X16920377Y5480881D01*
X17009150Y5392109D01*
X17007220Y5390179D01*
X17027815Y5357848D01*
X17017459Y5311147D01*
X17010458Y5302805D01*
X16961964Y5254311D01*
X16914068Y5156337D01*
X16910954Y5149967D01*
X16907881Y5128873D01*
X16902614Y5092716D01*
X16901100Y5082327D01*
X16901100Y4671272D01*
X16910954Y4603632D01*
X16961965Y4499287D01*
X17044093Y4417159D01*
X17044926Y4416565D01*
X17045320Y4415932D01*
X17047751Y4413502D01*
X17047188Y4412939D01*
X17070249Y4375982D01*
X17071100Y4365706D01*
X17071100Y4236092D01*
X17056632Y4201164D01*
X17058868Y4199671D01*
X17011133Y4128232D01*
X17011132Y4128230D01*
X16999500Y4069748D01*
X16999500Y3938000D01*
X16981194Y3893806D01*
X16937000Y3875500D01*
X16857694Y3875500D01*
X16857678Y3875501D01*
X16853853Y3875501D01*
X16768148Y3875501D01*
X16768142Y3875500D01*
X16724153Y3863712D01*
X16685362Y3853318D01*
X16611138Y3810465D01*
X16550535Y3749862D01*
X16550533Y3749859D01*
X16548353Y3747679D01*
X16548352Y3747679D01*
X16548347Y3747673D01*
X16186480Y3385806D01*
X16142286Y3367500D01*
X15783702Y3367500D01*
X15739508Y3385806D01*
X15721202Y3430000D01*
X15731735Y3464723D01*
X15767261Y3517891D01*
X15767263Y3517895D01*
X15781999Y3591982D01*
X15782000Y3591983D01*
X15782000Y4015000D01*
X14555000Y4015000D01*
X14555000Y3363000D01*
X15200894Y3363000D01*
X15245088Y3344694D01*
X15263394Y3300500D01*
X15252861Y3265777D01*
X15239133Y3245232D01*
X15239132Y3245230D01*
X15227500Y3186748D01*
X15227500Y2147251D01*
X15239132Y2088769D01*
X15239133Y2088767D01*
X15252862Y2068222D01*
X15262194Y2021306D01*
X15235618Y1981532D01*
X15200895Y1970999D01*
X14555000Y1970999D01*
X14555000Y1319000D01*
X15781999Y1319000D01*
X15781999Y1742014D01*
X15781998Y1742018D01*
X15771457Y1795017D01*
X16946000Y1795017D01*
X16946000Y1397000D01*
X17345801Y1397000D01*
X17325000Y1319370D01*
X17325000Y1220630D01*
X17345801Y1143000D01*
X16946001Y1143000D01*
X16946001Y744981D01*
X16960736Y670895D01*
X16960738Y670891D01*
X17016876Y586876D01*
X17100891Y530738D01*
X17100895Y530736D01*
X17174982Y516000D01*
X17923000Y516000D01*
X17923000Y965736D01*
X17930255Y969925D01*
X18000075Y1039745D01*
X18049444Y1125255D01*
X18075000Y1220630D01*
X18075000Y1319370D01*
X18049444Y1414745D01*
X18000075Y1500255D01*
X17930255Y1570075D01*
X17923000Y1574263D01*
X17923000Y2023999D01*
X17174986Y2023999D01*
X17174981Y2023998D01*
X17100895Y2009263D01*
X17100891Y2009261D01*
X17016876Y1953123D01*
X16960738Y1869108D01*
X16960736Y1869104D01*
X16946000Y1795017D01*
X15771457Y1795017D01*
X15767263Y1816104D01*
X15767261Y1816108D01*
X15731735Y1869277D01*
X15722403Y1916193D01*
X15748979Y1955967D01*
X15783702Y1966500D01*
X16447748Y1966500D01*
X16506230Y1978132D01*
X16506232Y1978133D01*
X16572552Y2022447D01*
X16616866Y2088767D01*
X16616867Y2088769D01*
X16624162Y2125445D01*
X16628500Y2147252D01*
X16628500Y2881285D01*
X16646806Y2925479D01*
X16892806Y3171479D01*
X16937000Y3189785D01*
X16981194Y3171479D01*
X16999500Y3127285D01*
X16999500Y3030251D01*
X17011132Y2971769D01*
X17011133Y2971767D01*
X17055447Y2905447D01*
X17121767Y2861133D01*
X17121769Y2861132D01*
X17180251Y2849500D01*
X18784300Y2849500D01*
X18828494Y2831194D01*
X18846800Y2787000D01*
X18846800Y2086499D01*
X18828494Y2042305D01*
X18784300Y2023999D01*
X18177000Y2023999D01*
X18177000Y516000D01*
X18784300Y516000D01*
X18828494Y497694D01*
X18846800Y453500D01*
X18846800Y214900D01*
X18828494Y170706D01*
X18784300Y152400D01*
X214900Y152400D01*
X170706Y170706D01*
X152400Y214900D01*
X152400Y641981D01*
X13074001Y641981D01*
X13088736Y567895D01*
X13088738Y567891D01*
X13144876Y483876D01*
X13228891Y427738D01*
X13228895Y427736D01*
X13302982Y413000D01*
X14301000Y413000D01*
X14555000Y413000D01*
X15553014Y413000D01*
X15553018Y413001D01*
X15627104Y427736D01*
X15627108Y427738D01*
X15711123Y483876D01*
X15767261Y567891D01*
X15767263Y567895D01*
X15781999Y641982D01*
X15782000Y641983D01*
X15782000Y1065000D01*
X14555000Y1065000D01*
X14555000Y413000D01*
X14301000Y413000D01*
X14301000Y1065000D01*
X13074001Y1065000D01*
X13074001Y641981D01*
X152400Y641981D01*
X152400Y1195767D01*
X170706Y1239961D01*
X214900Y1258267D01*
X236741Y1254327D01*
X241765Y1252453D01*
X301781Y1246000D01*
X823000Y1246000D01*
X823000Y2064500D01*
X841306Y2108694D01*
X885500Y2127000D01*
X998047Y2127000D01*
X997149Y2125445D01*
X975000Y2042787D01*
X975000Y1957213D01*
X997149Y1874555D01*
X1039936Y1800446D01*
X1077000Y1763382D01*
X1077000Y1246000D01*
X1598202Y1246000D01*
X1598219Y1246001D01*
X1658234Y1252453D01*
X1658238Y1252454D01*
X1794021Y1303099D01*
X1794026Y1303102D01*
X1910046Y1389953D01*
X1996897Y1505973D01*
X1996900Y1505978D01*
X2047546Y1641763D01*
X2053999Y1701781D01*
X2054000Y1701794D01*
X2054000Y1873000D01*
X1601953Y1873000D01*
X1602851Y1874555D01*
X1625000Y1957213D01*
X1625000Y2042787D01*
X1602851Y2125445D01*
X1601953Y2127000D01*
X2053999Y2127000D01*
X2053999Y2298203D01*
X2053998Y2298219D01*
X2047546Y2358234D01*
X2047545Y2358238D01*
X1996900Y2494021D01*
X1996897Y2494026D01*
X1910046Y2610046D01*
X1893592Y2622363D01*
X1869181Y2663501D01*
X1880756Y2709511D01*
X1924366Y2768600D01*
X1952792Y2807116D01*
X1952792Y2807117D01*
X1952793Y2807118D01*
X1986218Y2902642D01*
X2018093Y2938310D01*
X2045211Y2944500D01*
X2296852Y2944500D01*
X2296853Y2944500D01*
X2296854Y2944500D01*
X2296859Y2944501D01*
X2379635Y2966680D01*
X2379644Y2966684D01*
X2453858Y3009532D01*
X2453867Y3009539D01*
X3649160Y4204832D01*
X3649167Y4204841D01*
X3692015Y4279055D01*
X3692019Y4279064D01*
X3712655Y4356081D01*
X3714200Y4361847D01*
X3714200Y4447553D01*
X3705829Y4478791D01*
X3703700Y4494967D01*
X3703700Y4822805D01*
X3722006Y4866999D01*
X3766200Y4885305D01*
X3775977Y4884536D01*
X3812191Y4878800D01*
X3886200Y4878800D01*
X3886200Y5477300D01*
X3904506Y5521494D01*
X3948700Y5539800D01*
X4077700Y5539800D01*
X4121894Y5521494D01*
X4140200Y5477300D01*
X4140200Y4878800D01*
X4214201Y4878800D01*
X4214207Y4878801D01*
X4306471Y4893413D01*
X4417673Y4950073D01*
X4505926Y5038326D01*
X4562585Y5149525D01*
X4562588Y5149535D01*
X4577198Y5241779D01*
X4577199Y5241794D01*
X4577199Y5292108D01*
X4595504Y5336302D01*
X4639698Y5354609D01*
X4677153Y5342143D01*
X4725074Y5306269D01*
X4725076Y5306268D01*
X4854132Y5258133D01*
X4911172Y5252000D01*
X5080000Y5252000D01*
X5334000Y5252000D01*
X5502827Y5252000D01*
X5559867Y5258133D01*
X5688923Y5306268D01*
X5688926Y5306270D01*
X5799184Y5388810D01*
X5799189Y5388815D01*
X5881729Y5499073D01*
X5881731Y5499076D01*
X5929866Y5628132D01*
X5935999Y5685172D01*
X5936000Y5685185D01*
X5936000Y5829000D01*
X5334000Y5829000D01*
X5334000Y5252000D01*
X5080000Y5252000D01*
X5080000Y6020500D01*
X5098306Y6064694D01*
X5142500Y6083000D01*
X5936000Y6083000D01*
X5936000Y6226814D01*
X5935999Y6226827D01*
X5929866Y6283867D01*
X5915482Y6322433D01*
X5917189Y6370238D01*
X5952199Y6402834D01*
X5957865Y6404645D01*
X6043836Y6427681D01*
X6043844Y6427684D01*
X6118058Y6470532D01*
X6118067Y6470539D01*
X6337660Y6690132D01*
X6337667Y6690141D01*
X6380515Y6764355D01*
X6380519Y6764364D01*
X6402698Y6847140D01*
X6402700Y6847148D01*
X6402700Y7314800D01*
X6421006Y7358994D01*
X6465200Y7377300D01*
X7142398Y7377300D01*
X7142402Y7377301D01*
X7189347Y7386638D01*
X7236263Y7377305D01*
X7262838Y7337531D01*
X7262838Y7313146D01*
X7253500Y7266201D01*
X7253500Y6418914D01*
X7235194Y6374720D01*
X6881461Y6020988D01*
X6854876Y6005214D01*
X6831780Y5998433D01*
X6710705Y5920623D01*
X6710704Y5920622D01*
X6616456Y5811854D01*
X6616456Y5811853D01*
X6572224Y5715000D01*
X6556667Y5680935D01*
X6536186Y5538480D01*
X6556667Y5396024D01*
X6556668Y5396021D01*
X6599139Y5303024D01*
X6600846Y5255219D01*
X6570661Y5221373D01*
X6562326Y5217126D01*
X6474073Y5128873D01*
X6423287Y5029200D01*
X5588000Y5029200D01*
X5588000Y2794000D01*
X5767590Y2794000D01*
X5765800Y2789678D01*
X5765800Y863600D01*
X8178972Y838721D01*
X8190517Y837524D01*
X8198179Y836000D01*
X8796200Y836000D01*
X9050200Y836000D01*
X9648214Y836000D01*
X9648218Y836001D01*
X9722304Y850736D01*
X9722308Y850738D01*
X9806323Y906876D01*
X9862461Y990891D01*
X9862463Y990895D01*
X9877199Y1064982D01*
X9877200Y1064983D01*
X9877200Y1563000D01*
X9050200Y1563000D01*
X9050200Y836000D01*
X8796200Y836000D01*
X8796200Y1754500D01*
X8814506Y1798694D01*
X8858700Y1817000D01*
X9877199Y1817000D01*
X9877199Y2141981D01*
X12174001Y2141981D01*
X12188736Y2067895D01*
X12188738Y2067891D01*
X12244876Y1983876D01*
X12328891Y1927738D01*
X12328895Y1927736D01*
X12402982Y1913000D01*
X12801000Y1913000D01*
X13055000Y1913000D01*
X13068046Y1899953D01*
X13080744Y1894694D01*
X13099050Y1850500D01*
X13090426Y1822072D01*
X13091094Y1821796D01*
X13088736Y1816104D01*
X13074000Y1742017D01*
X13074000Y1319000D01*
X14301000Y1319000D01*
X14301000Y1970999D01*
X13719449Y1970999D01*
X13675255Y1989305D01*
X13656949Y2033499D01*
X13665573Y2061927D01*
X13664906Y2062204D01*
X13667263Y2067895D01*
X13681999Y2141982D01*
X13682000Y2141983D01*
X13682000Y2540000D01*
X13055000Y2540000D01*
X13055000Y1913000D01*
X12801000Y1913000D01*
X12801000Y2540000D01*
X12174001Y2540000D01*
X12174001Y2141981D01*
X9877199Y2141981D01*
X9877199Y2302635D01*
X9895505Y2346829D01*
X9906144Y2355364D01*
X9956800Y2387599D01*
X9956800Y3192017D01*
X12174000Y3192017D01*
X12174000Y2794000D01*
X12801000Y2794000D01*
X12801000Y3420999D01*
X13055000Y3420999D01*
X13055000Y2794000D01*
X13681999Y2794000D01*
X13681999Y3192014D01*
X13681998Y3192018D01*
X13667263Y3266104D01*
X13664906Y3271796D01*
X13666181Y3272324D01*
X13658151Y3312692D01*
X13684726Y3352466D01*
X13719450Y3363000D01*
X14301000Y3363000D01*
X14301000Y4015000D01*
X13074001Y4015000D01*
X13074001Y3591981D01*
X13088736Y3517895D01*
X13091094Y3512204D01*
X13089819Y3511675D01*
X13097851Y3471310D01*
X13071277Y3431534D01*
X13063034Y3429033D01*
X13055000Y3420999D01*
X12801000Y3420999D01*
X12402986Y3420999D01*
X12402981Y3420998D01*
X12328895Y3406263D01*
X12328891Y3406261D01*
X12244876Y3350123D01*
X12188738Y3266108D01*
X12188736Y3266104D01*
X12174000Y3192017D01*
X9956800Y3192017D01*
X9956800Y4160399D01*
X10208200Y4160399D01*
X10252202Y4160400D01*
X10252207Y4160401D01*
X10344471Y4175013D01*
X10455673Y4231673D01*
X10543926Y4319926D01*
X10600585Y4431125D01*
X10600588Y4431135D01*
X10615198Y4523379D01*
X10615200Y4523395D01*
X10615200Y4597400D01*
X10208200Y4597400D01*
X10208200Y4160399D01*
X9956800Y4160399D01*
X9956800Y4416411D01*
X9954200Y4422688D01*
X9954200Y4692017D01*
X13074000Y4692017D01*
X13074000Y4269000D01*
X14301000Y4269000D01*
X14555000Y4269000D01*
X15781999Y4269000D01*
X15781999Y4692014D01*
X15781998Y4692018D01*
X15767263Y4766104D01*
X15767261Y4766108D01*
X15711123Y4850123D01*
X15627108Y4906261D01*
X15627104Y4906263D01*
X15553017Y4920999D01*
X14555000Y4920999D01*
X14555000Y4269000D01*
X14301000Y4269000D01*
X14301000Y4920999D01*
X13302986Y4920999D01*
X13302981Y4920998D01*
X13228895Y4906263D01*
X13228891Y4906261D01*
X13144876Y4850123D01*
X13088738Y4766108D01*
X13088736Y4766104D01*
X13074000Y4692017D01*
X9954200Y4692017D01*
X9954200Y5281993D01*
X9972506Y5326187D01*
X10014060Y5367741D01*
X10014063Y5367745D01*
X10014065Y5367747D01*
X10056918Y5441971D01*
X10060847Y5456635D01*
X10079101Y5524756D01*
X10079101Y5610462D01*
X10079101Y5615493D01*
X10079100Y5615506D01*
X10079100Y6201705D01*
X10079101Y6201723D01*
X10079101Y6291252D01*
X10079100Y6291258D01*
X10069894Y6325614D01*
X10056918Y6374039D01*
X10025947Y6427682D01*
X10014065Y6448262D01*
X9953462Y6508865D01*
X9949903Y6512424D01*
X9949896Y6512430D01*
X9922805Y6539521D01*
X9904499Y6583715D01*
X9904500Y6690132D01*
X9904500Y6806872D01*
X9904500Y6858153D01*
X9904500Y6858154D01*
X9904500Y6865425D01*
X9904499Y6865434D01*
X9904499Y7266198D01*
X9904499Y7266200D01*
X9895161Y7313147D01*
X9904493Y7360062D01*
X9944267Y7386638D01*
X9968653Y7386638D01*
X10015598Y7377300D01*
X10015599Y7377300D01*
X10534000Y7377300D01*
X10578194Y7358994D01*
X10596500Y7314800D01*
X10596500Y5446147D01*
X10596501Y5446135D01*
X10596987Y5444323D01*
X10598478Y5419263D01*
X10584351Y5321000D01*
X10596677Y5235268D01*
X10584847Y5188919D01*
X10543707Y5164510D01*
X10497358Y5176340D01*
X10490618Y5182180D01*
X10455671Y5217127D01*
X10344474Y5273785D01*
X10344464Y5273788D01*
X10252219Y5288398D01*
X10252204Y5288399D01*
X10208200Y5288398D01*
X10208200Y4851400D01*
X10615199Y4851400D01*
X10615199Y4925402D01*
X10615198Y4925406D01*
X10614657Y4928825D01*
X10625821Y4975340D01*
X10666605Y5000337D01*
X10713120Y4989173D01*
X10723621Y4979536D01*
X10758869Y4938857D01*
X10879948Y4861045D01*
X11018034Y4820500D01*
X11018037Y4820500D01*
X11161961Y4820500D01*
X11300046Y4861045D01*
X11300049Y4861046D01*
X11300051Y4861047D01*
X11300052Y4861047D01*
X11304119Y4862905D01*
X11304488Y4862095D01*
X11333112Y4870500D01*
X12759308Y4870500D01*
X12759309Y4870500D01*
X12759310Y4870500D01*
X12759315Y4870501D01*
X12873885Y4901200D01*
X12873891Y4901203D01*
X12976609Y4960508D01*
X12976618Y4960515D01*
X13060484Y5044381D01*
X13060491Y5044390D01*
X13119796Y5147108D01*
X13119799Y5147114D01*
X13135131Y5204335D01*
X13150500Y5261691D01*
X13150500Y5261699D01*
X13151034Y5265750D01*
X13152187Y5265598D01*
X13156356Y5284401D01*
X13158221Y5288399D01*
X13203972Y5386513D01*
X13210500Y5436099D01*
X13210499Y5640993D01*
X13972001Y5640993D01*
X13986613Y5548728D01*
X14043273Y5437526D01*
X14131526Y5349273D01*
X14242725Y5292614D01*
X14242735Y5292611D01*
X14334979Y5278001D01*
X14334995Y5278000D01*
X14379000Y5278000D01*
X14379000Y5715000D01*
X13972001Y5715000D01*
X13972001Y5640993D01*
X13210499Y5640993D01*
X13210499Y5795900D01*
X13203972Y5845487D01*
X13153224Y5954316D01*
X13092293Y6015246D01*
X13073988Y6059440D01*
X13092293Y6103634D01*
X13100867Y6109866D01*
X13100493Y6110381D01*
X13104472Y6113272D01*
X13192726Y6201526D01*
X13249385Y6312725D01*
X13249388Y6312735D01*
X13263998Y6404979D01*
X13264000Y6404995D01*
X13264000Y6449000D01*
X11619500Y6449000D01*
X11575306Y6467306D01*
X11557000Y6511500D01*
X11557000Y6703000D01*
X11811000Y6703000D01*
X12573000Y6703000D01*
X12827000Y6703000D01*
X13263999Y6703000D01*
X13263999Y6747002D01*
X13263998Y6747006D01*
X13249386Y6839271D01*
X13192726Y6950473D01*
X13104473Y7038726D01*
X12993274Y7095385D01*
X12993264Y7095388D01*
X12901020Y7109998D01*
X12901005Y7109999D01*
X12827000Y7109999D01*
X12827000Y6703000D01*
X12573000Y6703000D01*
X12573000Y7109999D01*
X12498997Y7109999D01*
X12498993Y7109998D01*
X12406728Y7095386D01*
X12295526Y7038726D01*
X12236194Y6979394D01*
X12192000Y6961088D01*
X12147806Y6979394D01*
X12088473Y7038726D01*
X11977274Y7095385D01*
X11977264Y7095388D01*
X11885020Y7109998D01*
X11885005Y7109999D01*
X11811000Y7109999D01*
X11811000Y6703000D01*
X11557000Y6703000D01*
X11557000Y7109999D01*
X11482997Y7109999D01*
X11482993Y7109998D01*
X11390728Y7095386D01*
X11338374Y7068710D01*
X11290686Y7064957D01*
X11254312Y7096024D01*
X11247500Y7124398D01*
X11247500Y7486869D01*
X11265806Y7531063D01*
X11310000Y7549369D01*
X11354194Y7531063D01*
X11357537Y7527115D01*
X11441487Y7443165D01*
X11545832Y7392154D01*
X11613472Y7382300D01*
X11974528Y7382300D01*
X12042167Y7392154D01*
X12042168Y7392154D01*
X12042170Y7392155D01*
X12146511Y7443164D01*
X12228636Y7525289D01*
X12232298Y7528951D01*
X12233383Y7527865D01*
X12268718Y7549918D01*
X12315322Y7539131D01*
X12325602Y7528851D01*
X12325702Y7528951D01*
X12411487Y7443165D01*
X12515832Y7392154D01*
X12583472Y7382300D01*
X12944528Y7382300D01*
X13012167Y7392154D01*
X13012168Y7392154D01*
X13012170Y7392155D01*
X13116511Y7443164D01*
X13198636Y7525289D01*
X13199046Y7526127D01*
X13199555Y7526577D01*
X13201648Y7529507D01*
X13202325Y7529023D01*
X13234902Y7557790D01*
X13282646Y7554825D01*
X13299389Y7542870D01*
X13360681Y7481577D01*
X13469513Y7430827D01*
X13519098Y7424300D01*
X13519099Y7424300D01*
X13938891Y7424300D01*
X13938892Y7424300D01*
X13938900Y7424301D01*
X13988487Y7430828D01*
X14097316Y7481576D01*
X14097318Y7481577D01*
X14159343Y7543602D01*
X14203537Y7561908D01*
X14247731Y7543602D01*
G37*
%TD.AperFunction*%
%TA.AperFunction,Conductor*%
G36*
X2571949Y6768793D02*
G01*
X2601069Y6730843D01*
X2603199Y6714667D01*
X2603199Y4928000D01*
X2584893Y4883806D01*
X2540699Y4865500D01*
X2045211Y4865500D01*
X2001017Y4883806D01*
X1986218Y4907358D01*
X1979904Y4925402D01*
X1952793Y5002882D01*
X1872150Y5112150D01*
X1855127Y5124713D01*
X1830439Y5165684D01*
X1841953Y5212113D01*
X1855125Y5225285D01*
X1872150Y5237850D01*
X1884299Y5254311D01*
X1952792Y5347116D01*
X1952792Y5347117D01*
X1952793Y5347118D01*
X1997646Y5475301D01*
X2000500Y5505734D01*
X2000500Y6114266D01*
X1997646Y6144699D01*
X1952793Y6272882D01*
X1872150Y6382150D01*
X1855127Y6394713D01*
X1830439Y6435684D01*
X1841953Y6482113D01*
X1855125Y6495285D01*
X1872150Y6507850D01*
X1909034Y6557826D01*
X1952792Y6617116D01*
X1952792Y6617117D01*
X1952793Y6617118D01*
X1986218Y6712642D01*
X2018093Y6748310D01*
X2045211Y6754500D01*
X2447872Y6754500D01*
X2447873Y6754500D01*
X2447874Y6754500D01*
X2447879Y6754501D01*
X2524523Y6775037D01*
X2571949Y6768793D01*
G37*
%TD.AperFunction*%
%TA.AperFunction,Conductor*%
G36*
X18828494Y12834094D02*
G01*
X18846800Y12789900D01*
X18846800Y7213629D01*
X18828494Y7169435D01*
X18784300Y7151129D01*
X18740106Y7169435D01*
X18707118Y7202422D01*
X18707116Y7202424D01*
X18598287Y7253172D01*
X18548701Y7259700D01*
X18128900Y7259699D01*
X18079313Y7253172D01*
X17970484Y7202424D01*
X17970482Y7202422D01*
X17970481Y7202422D01*
X17900394Y7132335D01*
X17856200Y7114029D01*
X17812006Y7132335D01*
X17741918Y7202422D01*
X17741916Y7202424D01*
X17633087Y7253172D01*
X17613892Y7255698D01*
X17572468Y7279613D01*
X17560085Y7325818D01*
X17577200Y7360524D01*
X17577200Y7361199D01*
X17831200Y7361199D01*
X17875202Y7361200D01*
X17875207Y7361201D01*
X17967471Y7375813D01*
X18078673Y7432473D01*
X18166926Y7520726D01*
X18223585Y7631925D01*
X18223588Y7631935D01*
X18238198Y7724179D01*
X18238200Y7724195D01*
X18238200Y7798200D01*
X17831200Y7798200D01*
X17831200Y7361199D01*
X17577200Y7361199D01*
X17577200Y7989700D01*
X17595506Y8033894D01*
X17639700Y8052200D01*
X18238199Y8052200D01*
X18238199Y8126202D01*
X18238198Y8126206D01*
X18223586Y8218471D01*
X18166926Y8329673D01*
X18092567Y8404032D01*
X18074261Y8448226D01*
X18092567Y8492420D01*
X18163834Y8563687D01*
X18163836Y8563689D01*
X18214845Y8668030D01*
X18224700Y8735672D01*
X18224700Y9146728D01*
X18214845Y9214370D01*
X18163836Y9318711D01*
X18081711Y9400836D01*
X17977370Y9451845D01*
X17909728Y9461700D01*
X17548672Y9461700D01*
X17481030Y9451845D01*
X17376689Y9400836D01*
X17376687Y9400834D01*
X17290902Y9315049D01*
X17289814Y9316136D01*
X17254490Y9294083D01*
X17207885Y9304863D01*
X17197598Y9315149D01*
X17197498Y9315049D01*
X17160111Y9352436D01*
X17111711Y9400836D01*
X17007370Y9451845D01*
X16939728Y9461700D01*
X16578672Y9461700D01*
X16511030Y9451845D01*
X16406689Y9400836D01*
X16324564Y9318711D01*
X16320769Y9310950D01*
X16284916Y9279287D01*
X16264621Y9275900D01*
X16172597Y9275900D01*
X16128403Y9294206D01*
X16116448Y9310950D01*
X16101977Y9340549D01*
X16100236Y9344111D01*
X16028966Y9415380D01*
X16010661Y9459573D01*
X16028967Y9503767D01*
X16103326Y9578126D01*
X16159985Y9689325D01*
X16159988Y9689335D01*
X16174598Y9781579D01*
X16174600Y9781595D01*
X16174600Y9855600D01*
X15576100Y9855600D01*
X15531906Y9873906D01*
X15513600Y9918100D01*
X15513600Y10546598D01*
X15767600Y10546598D01*
X15767600Y10109600D01*
X16174599Y10109600D01*
X16174599Y10183602D01*
X16174598Y10183606D01*
X16159986Y10275871D01*
X16103326Y10387073D01*
X16015073Y10475326D01*
X15903874Y10531985D01*
X15903864Y10531988D01*
X15811619Y10546598D01*
X15811604Y10546599D01*
X15767600Y10546598D01*
X15513600Y10546598D01*
X15513600Y10546599D01*
X15469597Y10546599D01*
X15469593Y10546598D01*
X15377328Y10531986D01*
X15266126Y10475326D01*
X15177872Y10387072D01*
X15174981Y10383093D01*
X15172730Y10384728D01*
X15143327Y10359638D01*
X15095640Y10363413D01*
X15079848Y10374891D01*
X15018916Y10435824D01*
X14910087Y10486572D01*
X14860501Y10493100D01*
X14500700Y10493099D01*
X14451113Y10486572D01*
X14342284Y10435824D01*
X14342283Y10435823D01*
X14342281Y10435822D01*
X14257377Y10350918D01*
X14206627Y10242086D01*
X14200100Y10192507D01*
X14200100Y9772708D01*
X14200100Y9772706D01*
X14200101Y9772700D01*
X14206628Y9723113D01*
X14206628Y9723111D01*
X14206629Y9723110D01*
X14257377Y9614281D01*
X14342285Y9529373D01*
X14343220Y9528719D01*
X14343711Y9527947D01*
X14346150Y9525509D01*
X14345609Y9524968D01*
X14368918Y9488372D01*
X14358559Y9441672D01*
X14343686Y9426663D01*
X14343091Y9426238D01*
X14260964Y9344111D01*
X14260962Y9344108D01*
X14227259Y9275168D01*
X14191403Y9243504D01*
X14143660Y9246469D01*
X14126918Y9258421D01*
X14097316Y9288024D01*
X13988487Y9338772D01*
X13938901Y9345300D01*
X13519100Y9345299D01*
X13469513Y9338772D01*
X13360684Y9288024D01*
X13309265Y9236605D01*
X13265073Y9218300D01*
X13263077Y9218300D01*
X13218883Y9236606D01*
X13206927Y9253351D01*
X13200377Y9266749D01*
X13198636Y9270311D01*
X13116511Y9352436D01*
X13012170Y9403445D01*
X12944528Y9413300D01*
X12583472Y9413300D01*
X12515830Y9403445D01*
X12411489Y9352436D01*
X12411487Y9352434D01*
X12325702Y9266649D01*
X12324614Y9267736D01*
X12289290Y9245683D01*
X12242685Y9256463D01*
X12232398Y9266749D01*
X12232298Y9266649D01*
X12194084Y9304863D01*
X12146511Y9352436D01*
X12042170Y9403445D01*
X11974528Y9413300D01*
X11924516Y9413300D01*
X11880322Y9431606D01*
X11862016Y9475800D01*
X11880322Y9519994D01*
X11905460Y9545132D01*
X11905463Y9545136D01*
X11905465Y9545138D01*
X11914622Y9560999D01*
X12732000Y9560999D01*
X12776002Y9561000D01*
X12776007Y9561001D01*
X12868271Y9575613D01*
X12979473Y9632273D01*
X13067726Y9720526D01*
X13124385Y9831725D01*
X13124388Y9831735D01*
X13138998Y9923979D01*
X13139000Y9923995D01*
X13139000Y9998000D01*
X12732000Y9998000D01*
X12732000Y9560999D01*
X11914622Y9560999D01*
X11948318Y9619362D01*
X11951827Y9632458D01*
X11979195Y9668126D01*
X11978837Y9668639D01*
X11980461Y9669776D01*
X11980946Y9670408D01*
X11982573Y9671255D01*
X11983316Y9671775D01*
X12044246Y9732705D01*
X12088440Y9751011D01*
X12132634Y9732705D01*
X12138867Y9724134D01*
X12139381Y9724507D01*
X12142272Y9720527D01*
X12230526Y9632273D01*
X12341725Y9575614D01*
X12341735Y9575611D01*
X12433979Y9561001D01*
X12433995Y9561000D01*
X12478000Y9561000D01*
X12478000Y10688998D01*
X12732000Y10688998D01*
X12732000Y10252000D01*
X13138999Y10252000D01*
X13138999Y10326002D01*
X13138998Y10326006D01*
X13124386Y10418271D01*
X13067726Y10529473D01*
X12979473Y10617726D01*
X12868274Y10674385D01*
X12868264Y10674388D01*
X12776019Y10688998D01*
X12776004Y10688999D01*
X12732000Y10688998D01*
X12478000Y10688998D01*
X12478000Y10688999D01*
X12433997Y10688999D01*
X12433993Y10688998D01*
X12341728Y10674386D01*
X12230526Y10617726D01*
X12142272Y10529472D01*
X12139381Y10525493D01*
X12137130Y10527128D01*
X12107727Y10502038D01*
X12060040Y10505813D01*
X12044246Y10517294D01*
X12013806Y10547734D01*
X11995500Y10591928D01*
X11995500Y10744322D01*
X12013806Y10788516D01*
X12575284Y11349994D01*
X12575287Y11349998D01*
X12575289Y11350000D01*
X12612087Y11413737D01*
X12622020Y11426680D01*
X12638022Y11442681D01*
X12638022Y11442682D01*
X12638024Y11442684D01*
X12688772Y11551513D01*
X12695300Y11601099D01*
X12695299Y12020900D01*
X12688772Y12070487D01*
X12638024Y12179316D01*
X12622019Y12195320D01*
X12612085Y12208266D01*
X12578125Y12267088D01*
X12578122Y12267093D01*
X12575289Y12272000D01*
X12101583Y12745706D01*
X12083277Y12789900D01*
X12101583Y12834094D01*
X12145777Y12852400D01*
X18784300Y12852400D01*
X18828494Y12834094D01*
G37*
%TD.AperFunction*%
%TA.AperFunction,Conductor*%
G36*
X9573194Y9788210D02*
G01*
X9664410Y9696994D01*
X9682716Y9652800D01*
X9664410Y9608606D01*
X9273619Y9217815D01*
X9275604Y9199359D01*
X9281353Y9191078D01*
X9276400Y9163645D01*
X9273620Y9137783D01*
X9529000Y8882405D01*
X9664410Y8746994D01*
X9682716Y8702800D01*
X9664410Y8658606D01*
X9273619Y8267815D01*
X9275604Y8249359D01*
X9281353Y8241078D01*
X9276400Y8213645D01*
X9273620Y8187783D01*
X9529000Y7932405D01*
X9760194Y7701209D01*
X9778500Y7657016D01*
X9778500Y7614402D01*
X9778501Y7614394D01*
X9787838Y7567451D01*
X9778505Y7520535D01*
X9738730Y7493961D01*
X9714351Y7493961D01*
X9667401Y7503300D01*
X9624781Y7503299D01*
X9580589Y7521604D01*
X9580587Y7521606D01*
X9529000Y7573195D01*
X9329504Y7772691D01*
X9429000Y7772691D01*
X9429000Y7732909D01*
X9444224Y7696155D01*
X9472355Y7668024D01*
X9509109Y7652800D01*
X9548891Y7652800D01*
X9585645Y7668024D01*
X9613776Y7696155D01*
X9629000Y7732909D01*
X9629000Y7772691D01*
X9613776Y7809445D01*
X9585645Y7837576D01*
X9548891Y7852800D01*
X9509109Y7852800D01*
X9472355Y7837576D01*
X9444224Y7809445D01*
X9429000Y7772691D01*
X9329504Y7772691D01*
X9092329Y8009865D01*
X9065097Y8004952D01*
X9042901Y8004952D01*
X9015669Y8009865D01*
X8623193Y7617389D01*
X8578999Y7599083D01*
X8534805Y7617389D01*
X8379503Y7772691D01*
X8479000Y7772691D01*
X8479000Y7732909D01*
X8494224Y7696155D01*
X8522355Y7668024D01*
X8559109Y7652800D01*
X8598891Y7652800D01*
X8635645Y7668024D01*
X8663776Y7696155D01*
X8679000Y7732909D01*
X8679000Y7772691D01*
X8663776Y7809445D01*
X8635645Y7837576D01*
X8598891Y7852800D01*
X8559109Y7852800D01*
X8522355Y7837576D01*
X8494224Y7809445D01*
X8479000Y7772691D01*
X8379503Y7772691D01*
X8142329Y8009865D01*
X8115097Y8004952D01*
X8092901Y8004952D01*
X8065669Y8009865D01*
X7629000Y7573195D01*
X7577410Y7521605D01*
X7533216Y7503299D01*
X7490600Y7503299D01*
X7443652Y7493961D01*
X7396736Y7503293D01*
X7370161Y7543067D01*
X7370161Y7567451D01*
X7379500Y7614399D01*
X7379499Y7657016D01*
X7397804Y7701209D01*
X7469286Y7772691D01*
X7529000Y7772691D01*
X7529000Y7732909D01*
X7544224Y7696155D01*
X7572355Y7668024D01*
X7609109Y7652800D01*
X7648891Y7652800D01*
X7685645Y7668024D01*
X7713776Y7696155D01*
X7729000Y7732909D01*
X7729000Y7772691D01*
X7713776Y7809445D01*
X7685645Y7837576D01*
X7648891Y7852800D01*
X7609109Y7852800D01*
X7572355Y7837576D01*
X7544224Y7809445D01*
X7529000Y7772691D01*
X7469286Y7772691D01*
X7884378Y8187783D01*
X7882395Y8206231D01*
X7876646Y8214511D01*
X7881601Y8241984D01*
X7884379Y8267815D01*
X8323619Y8267815D01*
X8325604Y8249359D01*
X8331353Y8241078D01*
X8326400Y8213645D01*
X8323620Y8187783D01*
X8579000Y7932405D01*
X8834378Y8187783D01*
X8832395Y8206231D01*
X8826646Y8214511D01*
X8831601Y8241984D01*
X8834379Y8267815D01*
X8579000Y8523195D01*
X8323619Y8267815D01*
X7884379Y8267815D01*
X7493589Y8658606D01*
X7475283Y8702800D01*
X7483522Y8722691D01*
X7529000Y8722691D01*
X7529000Y8682909D01*
X7544224Y8646155D01*
X7572355Y8618024D01*
X7609109Y8602800D01*
X7648891Y8602800D01*
X7685645Y8618024D01*
X7713776Y8646155D01*
X7729000Y8682909D01*
X7729000Y8702800D01*
X7808605Y8702800D01*
X8065671Y8445732D01*
X8092905Y8450645D01*
X8115097Y8450645D01*
X8142328Y8445732D01*
X8399395Y8702800D01*
X8379504Y8722691D01*
X8479000Y8722691D01*
X8479000Y8682909D01*
X8494224Y8646155D01*
X8522355Y8618024D01*
X8559109Y8602800D01*
X8598891Y8602800D01*
X8635645Y8618024D01*
X8663776Y8646155D01*
X8679000Y8682909D01*
X8679000Y8702800D01*
X8758605Y8702800D01*
X9015671Y8445732D01*
X9042905Y8450645D01*
X9065097Y8450645D01*
X9092328Y8445732D01*
X9349395Y8702800D01*
X9329504Y8722691D01*
X9429000Y8722691D01*
X9429000Y8682909D01*
X9444224Y8646155D01*
X9472355Y8618024D01*
X9509109Y8602800D01*
X9548891Y8602800D01*
X9585645Y8618024D01*
X9613776Y8646155D01*
X9629000Y8682909D01*
X9629000Y8722691D01*
X9613776Y8759445D01*
X9585645Y8787576D01*
X9548891Y8802800D01*
X9509109Y8802800D01*
X9472355Y8787576D01*
X9444224Y8759445D01*
X9429000Y8722691D01*
X9329504Y8722691D01*
X9092329Y8959865D01*
X9065097Y8954952D01*
X9042901Y8954952D01*
X9015669Y8959865D01*
X8758605Y8702800D01*
X8679000Y8702800D01*
X8679000Y8722691D01*
X8663776Y8759445D01*
X8635645Y8787576D01*
X8598891Y8802800D01*
X8559109Y8802800D01*
X8522355Y8787576D01*
X8494224Y8759445D01*
X8479000Y8722691D01*
X8379504Y8722691D01*
X8142329Y8959865D01*
X8115097Y8954952D01*
X8092901Y8954952D01*
X8065669Y8959865D01*
X7808605Y8702800D01*
X7729000Y8702800D01*
X7729000Y8722691D01*
X7713776Y8759445D01*
X7685645Y8787576D01*
X7648891Y8802800D01*
X7609109Y8802800D01*
X7572355Y8787576D01*
X7544224Y8759445D01*
X7529000Y8722691D01*
X7483522Y8722691D01*
X7493589Y8746994D01*
X7884378Y9137783D01*
X7882395Y9156231D01*
X7876646Y9164511D01*
X7881601Y9191984D01*
X7884379Y9217815D01*
X8323619Y9217815D01*
X8325604Y9199359D01*
X8331353Y9191078D01*
X8326400Y9163645D01*
X8323620Y9137783D01*
X8579000Y8882405D01*
X8834378Y9137783D01*
X8832395Y9156231D01*
X8826646Y9164511D01*
X8831601Y9191984D01*
X8834379Y9217815D01*
X8579000Y9473195D01*
X8323619Y9217815D01*
X7884379Y9217815D01*
X7493589Y9608606D01*
X7475283Y9652800D01*
X7483522Y9672691D01*
X7529000Y9672691D01*
X7529000Y9632909D01*
X7544224Y9596155D01*
X7572355Y9568024D01*
X7609109Y9552800D01*
X7648891Y9552800D01*
X7685645Y9568024D01*
X7713776Y9596155D01*
X7729000Y9632909D01*
X7729000Y9672691D01*
X7713776Y9709445D01*
X7685645Y9737576D01*
X7648891Y9752800D01*
X7609109Y9752800D01*
X7572355Y9737576D01*
X7544224Y9709445D01*
X7529000Y9672691D01*
X7483522Y9672691D01*
X7493589Y9696994D01*
X7584805Y9788210D01*
X7628999Y9806516D01*
X7673193Y9788210D01*
X8065671Y9395731D01*
X8092905Y9400645D01*
X8115097Y9400645D01*
X8142328Y9395732D01*
X8419286Y9672691D01*
X8479000Y9672691D01*
X8479000Y9632909D01*
X8494224Y9596155D01*
X8522355Y9568024D01*
X8559109Y9552800D01*
X8598891Y9552800D01*
X8635645Y9568024D01*
X8663776Y9596155D01*
X8679000Y9632909D01*
X8679000Y9672691D01*
X8663776Y9709445D01*
X8635645Y9737576D01*
X8598891Y9752800D01*
X8559109Y9752800D01*
X8522355Y9737576D01*
X8494224Y9709445D01*
X8479000Y9672691D01*
X8419286Y9672691D01*
X8534805Y9788210D01*
X8578999Y9806516D01*
X8623193Y9788210D01*
X9015671Y9395731D01*
X9042905Y9400645D01*
X9065097Y9400645D01*
X9092328Y9395732D01*
X9369287Y9672691D01*
X9429000Y9672691D01*
X9429000Y9632909D01*
X9444224Y9596155D01*
X9472355Y9568024D01*
X9509109Y9552800D01*
X9548891Y9552800D01*
X9585645Y9568024D01*
X9613776Y9596155D01*
X9629000Y9632909D01*
X9629000Y9672691D01*
X9613776Y9709445D01*
X9585645Y9737576D01*
X9548891Y9752800D01*
X9509109Y9752800D01*
X9472355Y9737576D01*
X9444224Y9709445D01*
X9429000Y9672691D01*
X9369287Y9672691D01*
X9484806Y9788210D01*
X9529000Y9806516D01*
X9573194Y9788210D01*
G37*
%TD.AperFunction*%
%TA.AperFunction,Conductor*%
G36*
X1907194Y11865659D02*
G01*
X1957487Y11815365D01*
X2061832Y11764354D01*
X2129472Y11754500D01*
X2243798Y11754500D01*
X2287992Y11736194D01*
X3035473Y10988711D01*
X3038513Y10985447D01*
X3072473Y10946256D01*
X3082094Y10940072D01*
X3092487Y10931698D01*
X3096283Y10927902D01*
X3141742Y10901655D01*
X3144279Y10900108D01*
X3193546Y10868446D01*
X3198013Y10867135D01*
X3206584Y10863465D01*
X3206630Y10863574D01*
X3210409Y10862008D01*
X3267586Y10846688D01*
X3268996Y10846293D01*
X3331639Y10827900D01*
X3331640Y10827900D01*
X3475561Y10827900D01*
X3538205Y10846293D01*
X3539635Y10846694D01*
X3596786Y10862008D01*
X3596788Y10862009D01*
X3600572Y10863576D01*
X3600617Y10863465D01*
X3609191Y10867136D01*
X3613649Y10868445D01*
X3613652Y10868446D01*
X3626972Y10877006D01*
X3662929Y10900114D01*
X3665431Y10901640D01*
X3710915Y10927900D01*
X3710916Y10927901D01*
X3710918Y10927902D01*
X3714704Y10931689D01*
X3725110Y10940075D01*
X3734724Y10946254D01*
X3734728Y10946257D01*
X3768686Y10985446D01*
X3771726Y10988711D01*
X3804099Y11021084D01*
X3804100Y11021085D01*
X3810170Y11031599D01*
X3817057Y11041271D01*
X3828977Y11055027D01*
X3847729Y11096090D01*
X3850454Y11101374D01*
X3863885Y11124637D01*
X3886761Y11147513D01*
X3990310Y11207298D01*
X3990319Y11207305D01*
X4083494Y11300480D01*
X4083499Y11300486D01*
X4149391Y11414611D01*
X4149392Y11414614D01*
X4177020Y11517725D01*
X4183500Y11541908D01*
X4183500Y11580200D01*
X4201806Y11624394D01*
X4246000Y11642700D01*
X4852213Y11642700D01*
X4896407Y11624394D01*
X4914178Y11588357D01*
X4919027Y11551516D01*
X4919029Y11551510D01*
X4969777Y11442681D01*
X5054681Y11357777D01*
X5163513Y11307027D01*
X5213098Y11300500D01*
X5213099Y11300500D01*
X5572891Y11300500D01*
X5572892Y11300500D01*
X5572900Y11300501D01*
X5622487Y11307028D01*
X5731316Y11357776D01*
X5731318Y11357777D01*
X5792246Y11418705D01*
X5820450Y11430387D01*
X5791200Y11379200D01*
X5791200Y11226800D01*
X7321751Y11226800D01*
X7325149Y11212643D01*
X7315386Y11187698D01*
X7268760Y11117918D01*
X7268759Y11117916D01*
X7253500Y11041201D01*
X7253500Y10751015D01*
X7235194Y10706821D01*
X7157235Y10628862D01*
X7113041Y10610556D01*
X4731061Y10610556D01*
X4645355Y10610556D01*
X4645348Y10610554D01*
X4562572Y10588375D01*
X4562570Y10588374D01*
X4562569Y10588374D01*
X4562566Y10588372D01*
X4562563Y10588371D01*
X4492179Y10547734D01*
X4488346Y10545521D01*
X4446630Y10503805D01*
X4402438Y10485500D01*
X3231677Y10485500D01*
X3199551Y10476892D01*
X3148895Y10463319D01*
X3148892Y10463318D01*
X3101271Y10435824D01*
X3074668Y10420465D01*
X3074667Y10420464D01*
X2107194Y9452991D01*
X2063000Y9434685D01*
X2018806Y9452991D01*
X2000500Y9497185D01*
X2000500Y9924262D01*
X1997646Y9954696D01*
X1997646Y9954699D01*
X1952793Y10082882D01*
X1908608Y10142749D01*
X1897094Y10189178D01*
X1921782Y10230150D01*
X1924172Y10231829D01*
X1944551Y10245446D01*
X1988866Y10311767D01*
X1988867Y10311769D01*
X1991699Y10326006D01*
X2000500Y10370252D01*
X2000500Y11409748D01*
X1988867Y11468231D01*
X1944552Y11534552D01*
X1878231Y11578867D01*
X1850807Y11584322D01*
X1811033Y11610898D01*
X1800500Y11645621D01*
X1800500Y11821465D01*
X1818806Y11865659D01*
X1863000Y11883965D01*
X1907194Y11865659D01*
G37*
%TD.AperFunction*%
%TA.AperFunction,Conductor*%
G36*
X8063329Y11455601D02*
G01*
X8079153Y11444106D01*
X8140082Y11383177D01*
X8167915Y11370198D01*
X8200231Y11334929D01*
X8204000Y11313554D01*
X8204000Y10527800D01*
X8185694Y10483606D01*
X8141500Y10465300D01*
X8016500Y10465300D01*
X7972306Y10483606D01*
X7954000Y10527800D01*
X7954000Y11226800D01*
X7975600Y11226800D01*
X7975600Y11426400D01*
X7981127Y11431927D01*
X7984019Y11435907D01*
X7986276Y11434266D01*
X8015641Y11459351D01*
X8063329Y11455601D01*
G37*
%TD.AperFunction*%
%TA.AperFunction,Conductor*%
G36*
X10925106Y11945094D02*
G01*
X10932200Y11938000D01*
X11319300Y11938000D01*
X11363494Y11919694D01*
X11381800Y11875500D01*
X11381800Y11746500D01*
X11363494Y11702306D01*
X11319300Y11684000D01*
X10729088Y11684000D01*
X10684894Y11702306D01*
X10677800Y11709400D01*
X10492200Y11709400D01*
X10492200Y11262400D01*
X10520363Y11262400D01*
X10564557Y11244094D01*
X10582863Y11199900D01*
X10564557Y11155707D01*
X10450127Y11041276D01*
X10106015Y10697165D01*
X10106012Y10697161D01*
X10106011Y10697160D01*
X10074625Y10642798D01*
X10036676Y10613680D01*
X9989250Y10619923D01*
X9960130Y10657874D01*
X9958000Y10674050D01*
X9958000Y11052383D01*
X9957999Y11052394D01*
X9951932Y11098479D01*
X9904760Y11199640D01*
X9825841Y11278559D01*
X9740325Y11318435D01*
X9708007Y11353703D01*
X9710093Y11401493D01*
X9722544Y11419274D01*
X9759262Y11455992D01*
X9759262Y11455993D01*
X9759265Y11455996D01*
X9769100Y11477088D01*
X9804369Y11509404D01*
X9852159Y11507317D01*
X9881432Y11479048D01*
X9911569Y11419900D01*
X9998701Y11332768D01*
X10108489Y11276828D01*
X10108499Y11276825D01*
X10199570Y11262401D01*
X10199586Y11262400D01*
X10238200Y11262400D01*
X10238200Y11900900D01*
X10256506Y11945094D01*
X10300700Y11963400D01*
X10880912Y11963400D01*
X10925106Y11945094D01*
G37*
%TD.AperFunction*%
%TA.AperFunction,Conductor*%
G36*
X1002422Y12834094D02*
G01*
X1020728Y12789900D01*
X1002422Y12745706D01*
X991512Y12737915D01*
X991705Y12737646D01*
X987490Y12734636D01*
X987489Y12734636D01*
X905364Y12652511D01*
X855000Y12549489D01*
X854354Y12548167D01*
X844500Y12480527D01*
X844500Y12463798D01*
X836124Y12432544D01*
X833608Y12428188D01*
X833607Y12428185D01*
X799501Y12300898D01*
X799500Y12300890D01*
X799500Y11653000D01*
X781194Y11608806D01*
X737000Y11590500D01*
X214900Y11590500D01*
X170706Y11608806D01*
X152400Y11653000D01*
X152400Y12789900D01*
X170706Y12834094D01*
X214900Y12852400D01*
X958228Y12852400D01*
X1002422Y12834094D01*
G37*
%TD.AperFunction*%
%TD*%
%TA.AperFunction,Conductor*%
%TO.N,GND*%
G36*
X6096000Y5029200D02*
G01*
X5588000Y5029200D01*
X5588000Y4876800D01*
X4089400Y4876800D01*
X4089400Y5689600D01*
X4597400Y5689600D01*
X4724400Y5816600D01*
X4724400Y6375400D01*
X4799650Y6405500D01*
X5961051Y6405500D01*
X5961053Y6405500D01*
X6038308Y6426200D01*
X6096000Y6426200D01*
X6096000Y5029200D01*
G37*
%TD.AperFunction*%
%TD*%
%TA.AperFunction,Conductor*%
%TO.N,GND*%
G36*
X7940939Y12136215D02*
G01*
X7975600Y12096214D01*
X7975600Y11226800D01*
X7798354Y11226800D01*
X7744117Y11263040D01*
X7667401Y11278300D01*
X7490600Y11278299D01*
X7413883Y11263040D01*
X7413881Y11263039D01*
X7413879Y11263038D01*
X7359646Y11226800D01*
X5791200Y11226800D01*
X5791200Y11379200D01*
X5994400Y11734800D01*
X5994400Y11959683D01*
X6110868Y12076151D01*
X6197600Y12141200D01*
X7923962Y12141200D01*
X7940939Y12136215D01*
G37*
%TD.AperFunction*%
%TD*%
%TA.AperFunction,Conductor*%
%TO.N,GND*%
G36*
X7213600Y4419600D02*
G01*
X7416800Y3962400D01*
X7416800Y2794000D01*
X5588000Y2794000D01*
X5588000Y5029200D01*
X7213600Y5029200D01*
X7213600Y4419600D01*
G37*
%TD.AperFunction*%
%TD*%
M02*
