%TF.GenerationSoftware,KiCad,Pcbnew,6.0.11-2627ca5db0~126~ubuntu22.04.1*%
%TF.CreationDate,2023-08-27T17:19:58+02:00*%
%TF.ProjectId,CC1101_868MHz_UFL_RF_Modul_FUEL4EP,43433131-3031-45f3-9836-384d487a5f55,1.0*%
%TF.SameCoordinates,Original*%
%TF.FileFunction,Soldermask,Top*%
%TF.FilePolarity,Negative*%
%FSLAX46Y46*%
G04 Gerber Fmt 4.6, Leading zero omitted, Abs format (unit mm)*
G04 Created by KiCad (PCBNEW 6.0.11-2627ca5db0~126~ubuntu22.04.1) date 2023-08-27 17:19:58*
%MOMM*%
%LPD*%
G01*
G04 APERTURE LIST*
G04 Aperture macros list*
%AMRoundRect*
0 Rectangle with rounded corners*
0 $1 Rounding radius*
0 $2 $3 $4 $5 $6 $7 $8 $9 X,Y pos of 4 corners*
0 Add a 4 corners polygon primitive as box body*
4,1,4,$2,$3,$4,$5,$6,$7,$8,$9,$2,$3,0*
0 Add four circle primitives for the rounded corners*
1,1,$1+$1,$2,$3*
1,1,$1+$1,$4,$5*
1,1,$1+$1,$6,$7*
1,1,$1+$1,$8,$9*
0 Add four rect primitives between the rounded corners*
20,1,$1+$1,$2,$3,$4,$5,0*
20,1,$1+$1,$4,$5,$6,$7,0*
20,1,$1+$1,$6,$7,$8,$9,0*
20,1,$1+$1,$8,$9,$2,$3,0*%
G04 Aperture macros list end*
%ADD10RoundRect,0.147500X-0.147500X-0.172500X0.147500X-0.172500X0.147500X0.172500X-0.147500X0.172500X0*%
%ADD11RoundRect,0.140000X0.140000X0.170000X-0.140000X0.170000X-0.140000X-0.170000X0.140000X-0.170000X0*%
%ADD12RoundRect,0.147500X-0.172500X0.147500X-0.172500X-0.147500X0.172500X-0.147500X0.172500X0.147500X0*%
%ADD13RoundRect,0.140000X-0.140000X-0.170000X0.140000X-0.170000X0.140000X0.170000X-0.140000X0.170000X0*%
%ADD14O,2.200000X0.800000*%
%ADD15O,0.800000X0.800000*%
%ADD16RoundRect,0.140000X0.170000X-0.140000X0.170000X0.140000X-0.170000X0.140000X-0.170000X-0.140000X0*%
%ADD17R,1.500000X1.500000*%
%ADD18RoundRect,0.140000X-0.170000X0.140000X-0.170000X-0.140000X0.170000X-0.140000X0.170000X0.140000X0*%
%ADD19RoundRect,0.135000X0.135000X0.185000X-0.135000X0.185000X-0.135000X-0.185000X0.135000X-0.185000X0*%
%ADD20R,1.400000X1.200000*%
%ADD21R,2.200000X0.800000*%
%ADD22R,0.800000X0.800000*%
%ADD23R,1.000000X1.000000*%
%ADD24R,2.200000X1.050000*%
%ADD25RoundRect,0.062500X-0.425000X-0.062500X0.425000X-0.062500X0.425000X0.062500X-0.425000X0.062500X0*%
%ADD26RoundRect,0.062500X-0.062500X-0.425000X0.062500X-0.425000X0.062500X0.425000X-0.062500X0.425000X0*%
%ADD27R,2.400000X2.400000*%
G04 APERTURE END LIST*
D10*
%TO.C,L1*%
X11794000Y8892800D03*
X12764000Y8892800D03*
%TD*%
D11*
%TO.C,C14*%
X8608000Y11811000D03*
X7648000Y11811000D03*
%TD*%
D12*
%TO.C,L7*%
X16500000Y2585000D03*
X16500000Y1615000D03*
%TD*%
D10*
%TO.C,L3*%
X14695600Y6731400D03*
X15665600Y6731400D03*
%TD*%
%TO.C,L2*%
X11794000Y7902800D03*
X12764000Y7902800D03*
%TD*%
D11*
%TO.C,C5*%
X17704200Y7925200D03*
X16744200Y7925200D03*
%TD*%
D13*
%TO.C,C3*%
X14680600Y5613800D03*
X15640600Y5613800D03*
%TD*%
D14*
%TO.C,JC5*%
X700000Y5810000D03*
D15*
X1400000Y5810000D03*
%TD*%
D12*
%TO.C,L6*%
X17141800Y6556000D03*
X17141800Y5586000D03*
%TD*%
D16*
%TO.C,C2*%
X13729000Y7904800D03*
X13729000Y8864800D03*
%TD*%
D17*
%TO.C,JA1*%
X19000000Y3550000D03*
%TD*%
D14*
%TO.C,JC8*%
X700000Y2000000D03*
D15*
X1400000Y2000000D03*
%TD*%
D16*
%TO.C,C7*%
X17500000Y2570000D03*
X17500000Y3530000D03*
%TD*%
D18*
%TO.C,C16*%
X5435600Y6728400D03*
X5435600Y5768400D03*
%TD*%
D19*
%TO.C,R1*%
X10797000Y11811000D03*
X9777000Y11811000D03*
%TD*%
D18*
%TO.C,C15*%
X11800000Y6630000D03*
X11800000Y5670000D03*
%TD*%
%TO.C,C17*%
X12800000Y6630000D03*
X12800000Y5670000D03*
%TD*%
D17*
%TO.C,JA2*%
X19000000Y1270000D03*
%TD*%
D10*
%TO.C,L4*%
X14695600Y8966600D03*
X15665600Y8966600D03*
%TD*%
D20*
%TO.C,Y1*%
X6723200Y1690000D03*
X8923200Y1690000D03*
X8923200Y3390000D03*
X6723200Y3390000D03*
%TD*%
D18*
%TO.C,C13*%
X4470400Y8113600D03*
X4470400Y7153600D03*
%TD*%
D13*
%TO.C,C10*%
X5393000Y11811000D03*
X6353000Y11811000D03*
%TD*%
%TO.C,C4*%
X14680600Y7899800D03*
X15640600Y7899800D03*
%TD*%
D14*
%TO.C,JC6*%
X700000Y4540000D03*
D15*
X1400000Y4540000D03*
%TD*%
D13*
%TO.C,C12*%
X11712000Y12090400D03*
X12672000Y12090400D03*
%TD*%
D14*
%TO.C,JC3*%
X700000Y8350000D03*
D15*
X1400000Y8350000D03*
%TD*%
D14*
%TO.C,JC2*%
X700000Y9620000D03*
D15*
X1400000Y9620000D03*
%TD*%
D21*
%TO.C,JC1*%
X700000Y10890000D03*
D22*
X1400000Y10890000D03*
%TD*%
D10*
%TO.C,L5*%
X16759200Y8941200D03*
X17729200Y8941200D03*
%TD*%
D23*
%TO.C,JA3*%
X14950000Y2600000D03*
D24*
X13450000Y4075000D03*
D23*
X11950000Y2600000D03*
D24*
X13450000Y1125000D03*
%TD*%
D13*
%TO.C,C11*%
X11712000Y11023600D03*
X12672000Y11023600D03*
%TD*%
%TO.C,C8*%
X6936800Y4826000D03*
X7896800Y4826000D03*
%TD*%
%TO.C,C1*%
X14680600Y9982600D03*
X15640600Y9982600D03*
%TD*%
D16*
%TO.C,C6*%
X16500000Y3570000D03*
X16500000Y4530000D03*
%TD*%
D11*
%TO.C,C9*%
X10205000Y4801000D03*
X9245000Y4801000D03*
%TD*%
D14*
%TO.C,JC4*%
X700000Y7080000D03*
D15*
X1400000Y7080000D03*
%TD*%
D25*
%TO.C,U1*%
X6691500Y9702800D03*
X6691500Y9202800D03*
X6691500Y8702800D03*
X6691500Y8202800D03*
X6691500Y7702800D03*
D26*
X7579000Y6815300D03*
X8079000Y6815300D03*
X8579000Y6815300D03*
X9079000Y6815300D03*
X9579000Y6815300D03*
D25*
X10466500Y7702800D03*
X10466500Y8202800D03*
X10466500Y8702800D03*
X10466500Y9202800D03*
X10466500Y9702800D03*
D26*
X9579000Y10590300D03*
X9079000Y10590300D03*
X8579000Y10590300D03*
X8079000Y10590300D03*
X7579000Y10590300D03*
D27*
X8579000Y8702800D03*
%TD*%
D14*
%TO.C,JC7*%
X700000Y3270000D03*
D15*
X1400000Y3270000D03*
%TD*%
M02*
