%TF.GenerationSoftware,KiCad,Pcbnew,6.0.11-2627ca5db0~126~ubuntu22.04.1*%
%TF.CreationDate,2023-09-01T15:57:07+02:00*%
%TF.ProjectId,CC1101_868MHz_UFL_RF_Modul_FUEL4EP,43433131-3031-45f3-9836-384d487a5f55,1.3*%
%TF.SameCoordinates,Original*%
%TF.FileFunction,Paste,Top*%
%TF.FilePolarity,Positive*%
%FSLAX46Y46*%
G04 Gerber Fmt 4.6, Leading zero omitted, Abs format (unit mm)*
G04 Created by KiCad (PCBNEW 6.0.11-2627ca5db0~126~ubuntu22.04.1) date 2023-09-01 15:57:07*
%MOMM*%
%LPD*%
G01*
G04 APERTURE LIST*
G04 Aperture macros list*
%AMRoundRect*
0 Rectangle with rounded corners*
0 $1 Rounding radius*
0 $2 $3 $4 $5 $6 $7 $8 $9 X,Y pos of 4 corners*
0 Add a 4 corners polygon primitive as box body*
4,1,4,$2,$3,$4,$5,$6,$7,$8,$9,$2,$3,0*
0 Add four circle primitives for the rounded corners*
1,1,$1+$1,$2,$3*
1,1,$1+$1,$4,$5*
1,1,$1+$1,$6,$7*
1,1,$1+$1,$8,$9*
0 Add four rect primitives between the rounded corners*
20,1,$1+$1,$2,$3,$4,$5,0*
20,1,$1+$1,$4,$5,$6,$7,0*
20,1,$1+$1,$6,$7,$8,$9,0*
20,1,$1+$1,$8,$9,$2,$3,0*%
%AMFreePoly0*
4,1,57,0.212378,0.420986,0.217091,0.421320,0.219625,0.419936,0.226195,0.418983,0.252737,0.401845,0.280456,0.386701,0.386701,0.280456,0.400367,0.262155,0.403938,0.259056,0.404751,0.256283,0.408722,0.250966,0.415371,0.220084,0.424264,0.189771,0.424264,-0.189771,0.420986,-0.212378,0.421320,-0.217092,0.419935,-0.219626,0.418983,-0.226195,0.401847,-0.252734,0.386701,-0.280456,
0.280456,-0.386701,0.262155,-0.400367,0.259056,-0.403938,0.256283,-0.404751,0.250966,-0.408722,0.220084,-0.415371,0.189771,-0.424264,-0.189771,-0.424264,-0.212378,-0.420986,-0.217092,-0.421320,-0.219626,-0.419935,-0.226195,-0.418983,-0.252734,-0.401847,-0.280456,-0.386701,-0.386701,-0.280456,-0.400367,-0.262155,-0.403938,-0.259056,-0.404751,-0.256283,-0.408722,-0.250966,-0.415371,-0.220084,
-0.424264,-0.189771,-0.424264,0.189771,-0.420986,0.212378,-0.421320,0.217091,-0.419936,0.219625,-0.418983,0.226195,-0.401845,0.252737,-0.386701,0.280456,-0.280456,0.386701,-0.262155,0.400367,-0.259056,0.403938,-0.256283,0.404751,-0.250966,0.408722,-0.220084,0.415371,-0.189771,0.424264,0.189771,0.424264,0.212378,0.420986,0.212378,0.420986,$1*%
G04 Aperture macros list end*
%ADD10RoundRect,0.147500X-0.147500X-0.172500X0.147500X-0.172500X0.147500X0.172500X-0.147500X0.172500X0*%
%ADD11RoundRect,0.140000X0.140000X0.170000X-0.140000X0.170000X-0.140000X-0.170000X0.140000X-0.170000X0*%
%ADD12RoundRect,0.140000X-0.140000X-0.170000X0.140000X-0.170000X0.140000X0.170000X-0.140000X0.170000X0*%
%ADD13RoundRect,0.147500X-0.172500X0.147500X-0.172500X-0.147500X0.172500X-0.147500X0.172500X0.147500X0*%
%ADD14RoundRect,0.140000X0.170000X-0.140000X0.170000X0.140000X-0.170000X0.140000X-0.170000X-0.140000X0*%
%ADD15RoundRect,0.140000X-0.170000X0.140000X-0.170000X-0.140000X0.170000X-0.140000X0.170000X0.140000X0*%
%ADD16RoundRect,0.135000X0.135000X0.185000X-0.135000X0.185000X-0.135000X-0.185000X0.135000X-0.185000X0*%
%ADD17R,1.400000X1.200000*%
%ADD18R,1.000000X1.000000*%
%ADD19R,2.200000X1.050000*%
%ADD20FreePoly0,0.000000*%
%ADD21RoundRect,0.062500X-0.425000X-0.062500X0.425000X-0.062500X0.425000X0.062500X-0.425000X0.062500X0*%
%ADD22RoundRect,0.062500X-0.062500X-0.425000X0.062500X-0.425000X0.062500X0.425000X-0.062500X0.425000X0*%
G04 APERTURE END LIST*
D10*
%TO.C,L1*%
X11794000Y8892800D03*
X12764000Y8892800D03*
%TD*%
D11*
%TO.C,C14*%
X8608000Y11811000D03*
X7648000Y11811000D03*
%TD*%
D10*
%TO.C,L7*%
X17365000Y4675000D03*
X18335000Y4675000D03*
%TD*%
%TO.C,L3*%
X14515000Y6731400D03*
X15485000Y6731400D03*
%TD*%
%TO.C,L2*%
X11794000Y7902800D03*
X12764000Y7902800D03*
%TD*%
D11*
%TO.C,C5*%
X17505000Y7900000D03*
X16545000Y7900000D03*
%TD*%
D12*
%TO.C,C3*%
X14520000Y5613800D03*
X15480000Y5613800D03*
%TD*%
D13*
%TO.C,L6*%
X16400000Y6685000D03*
X16400000Y5715000D03*
%TD*%
D14*
%TO.C,C2*%
X13729000Y7904800D03*
X13729000Y8864800D03*
%TD*%
%TO.C,C7*%
X18350000Y5610000D03*
X18350000Y6570000D03*
%TD*%
D15*
%TO.C,C16*%
X5435600Y6728400D03*
X5435600Y5768400D03*
%TD*%
D16*
%TO.C,R1*%
X10797000Y11811000D03*
X9777000Y11811000D03*
%TD*%
D15*
%TO.C,C15*%
X11800000Y6630000D03*
X11800000Y5670000D03*
%TD*%
%TO.C,C17*%
X12800000Y6630000D03*
X12800000Y5670000D03*
%TD*%
D10*
%TO.C,L4*%
X14695600Y8966600D03*
X15665600Y8966600D03*
%TD*%
D17*
%TO.C,Y1*%
X6723200Y1690000D03*
X8923200Y1690000D03*
X8923200Y3390000D03*
X6723200Y3390000D03*
%TD*%
D15*
%TO.C,C13*%
X4470400Y8113600D03*
X4470400Y7153600D03*
%TD*%
D12*
%TO.C,C10*%
X5393000Y11811000D03*
X6353000Y11811000D03*
%TD*%
%TO.C,C4*%
X14680600Y7899800D03*
X15640600Y7899800D03*
%TD*%
%TO.C,C12*%
X11670000Y11000000D03*
X12630000Y11000000D03*
%TD*%
D10*
%TO.C,L5*%
X16590000Y8950000D03*
X17560000Y8950000D03*
%TD*%
D18*
%TO.C,JA3*%
X15875000Y2650000D03*
D19*
X14375000Y4125000D03*
D18*
X12875000Y2650000D03*
D19*
X14375000Y1175000D03*
%TD*%
D12*
%TO.C,C11*%
X11670000Y10025000D03*
X12630000Y10025000D03*
%TD*%
%TO.C,C8*%
X6936800Y4826000D03*
X7896800Y4826000D03*
%TD*%
%TO.C,C1*%
X14680600Y9982600D03*
X15640600Y9982600D03*
%TD*%
D14*
%TO.C,C6*%
X17400000Y5620000D03*
X17400000Y6580000D03*
%TD*%
D11*
%TO.C,C9*%
X10205000Y4801000D03*
X9245000Y4801000D03*
%TD*%
D20*
%TO.C,U1*%
X8104000Y8227800D03*
X8104000Y9177800D03*
X9054000Y8227800D03*
X9054000Y9177800D03*
D21*
X6691500Y9702800D03*
X6691500Y9202800D03*
X6691500Y8702800D03*
X6691500Y8202800D03*
X6691500Y7702800D03*
D22*
X7579000Y6815300D03*
X8079000Y6815300D03*
X8579000Y6815300D03*
X9079000Y6815300D03*
X9579000Y6815300D03*
D21*
X10466500Y7702800D03*
X10466500Y8202800D03*
X10466500Y8702800D03*
X10466500Y9202800D03*
X10466500Y9702800D03*
D22*
X9579000Y10590300D03*
X9079000Y10590300D03*
X8579000Y10590300D03*
X8079000Y10590300D03*
X7579000Y10590300D03*
%TD*%
D10*
%TO.C,FB1*%
X1540000Y12250000D03*
X2510000Y12250000D03*
%TD*%
M02*
