M48
; DRILL file {KiCad 6.0.11-2627ca5db0~126~ubuntu22.04.1} date Fr 01 Sep 2023 15:57:07 CEST
; FORMAT={-:-/ absolute / inch / decimal}
; #@! TF.CreationDate,2023-09-01T15:57:07+02:00
; #@! TF.GenerationSoftware,Kicad,Pcbnew,6.0.11-2627ca5db0~126~ubuntu22.04.1
; #@! TF.FileFunction,Plated,1,2,PTH
FMAT,2
INCH
; #@! TA.AperFunction,Plated,PTH,ComponentDrill
T1C0.0079
; #@! TA.AperFunction,Plated,PTH,ViaDrill
T2C0.0157
; #@! TA.AperFunction,Plated,PTH,ComponentDrill
T3C0.0256
; #@! TA.AperFunction,Plated,PTH,ComponentDrill
T4C0.0295
; #@! TA.AperFunction,Plated,PTH,ComponentDrill
T5C0.0315
%
G90
G05
T1
X0.3004Y0.38
X0.3004Y0.3426
X0.3004Y0.3052
X0.3378Y0.38
X0.3378Y0.3426
X0.3378Y0.3052
X0.3752Y0.38
X0.3752Y0.3426
X0.3752Y0.3052
T2
X0.0217Y0.4744
X0.05Y0.04
X0.0906Y0.31
X0.0925Y0.4252
X0.1Y0.21
X0.11Y0.04
X0.126Y0.1
X0.134Y0.446
X0.14Y0.14
X0.1457Y0.0679
X0.17Y0.1
X0.17Y0.04
X0.1711Y0.1796
X0.1732Y0.2283
X0.1742Y0.1437
X0.1808Y0.4409
X0.21Y0.43
X0.21Y0.13
X0.21Y0.07
X0.215Y0.18
X0.215Y0.02
X0.2171Y0.3195
X0.26Y0.02
X0.2689Y0.241
X0.275Y0.445
X0.305Y0.02
X0.3103Y0.2315
X0.35Y0.02
X0.3594Y0.2334
X0.385Y0.425
X0.39Y0.02
X0.4Y0.07
X0.4026Y0.1102
X0.4291Y0.2289
X0.43Y0.17
X0.43Y0.13
X0.43Y0.09
X0.43Y0.02
X0.4488Y0.0551
X0.4606Y0.1073
X0.4626Y0.1831
X0.4626Y0.1496
X0.465Y0.02
X0.4843Y0.0492
X0.4941Y0.1811
X0.5Y0.4705
X0.5394Y0.2677
X0.54Y0.4921
X0.54Y0.44
X0.54Y0.39
X0.54Y0.22
X0.58Y0.4921
X0.58Y0.44
X0.62Y0.4921
X0.62Y0.44
X0.6417Y0.1811
X0.6427Y0.0591
X0.6496Y0.0217
X0.66Y0.44
X0.66Y0.4
X0.6614Y0.4921
X0.7Y0.4921
X0.7Y0.44
X0.7Y0.4
X0.7195Y0.313
X0.7234Y0.3533
T3
X0.0512Y0.3787
X0.0512Y0.3287
X0.0512Y0.2787
X0.0512Y0.2287
X0.0512Y0.1787
X0.0512Y0.1287
X0.0512Y0.0787
T4
X0.0512Y0.4287
T5
X0.698Y0.1289
X0.698Y0.061
T0
M30
