%TF.GenerationSoftware,KiCad,Pcbnew,6.0.11-2627ca5db0~126~ubuntu22.04.1*%
%TF.CreationDate,2023-08-27T19:57:34+02:00*%
%TF.ProjectId,CC1101_868MHz_UFL_RF_Modul_FUEL4EP,43433131-3031-45f3-9836-384d487a5f55,1.1*%
%TF.SameCoordinates,Original*%
%TF.FileFunction,Legend,Top*%
%TF.FilePolarity,Positive*%
%FSLAX46Y46*%
G04 Gerber Fmt 4.6, Leading zero omitted, Abs format (unit mm)*
G04 Created by KiCad (PCBNEW 6.0.11-2627ca5db0~126~ubuntu22.04.1) date 2023-08-27 19:57:34*
%MOMM*%
%LPD*%
G01*
G04 APERTURE LIST*
G04 Aperture macros list*
%AMRoundRect*
0 Rectangle with rounded corners*
0 $1 Rounding radius*
0 $2 $3 $4 $5 $6 $7 $8 $9 X,Y pos of 4 corners*
0 Add a 4 corners polygon primitive as box body*
4,1,4,$2,$3,$4,$5,$6,$7,$8,$9,$2,$3,0*
0 Add four circle primitives for the rounded corners*
1,1,$1+$1,$2,$3*
1,1,$1+$1,$4,$5*
1,1,$1+$1,$6,$7*
1,1,$1+$1,$8,$9*
0 Add four rect primitives between the rounded corners*
20,1,$1+$1,$2,$3,$4,$5,0*
20,1,$1+$1,$4,$5,$6,$7,0*
20,1,$1+$1,$6,$7,$8,$9,0*
20,1,$1+$1,$8,$9,$2,$3,0*%
G04 Aperture macros list end*
%ADD10C,0.050000*%
%ADD11C,0.037500*%
%ADD12C,0.120000*%
%ADD13RoundRect,0.147500X-0.147500X-0.172500X0.147500X-0.172500X0.147500X0.172500X-0.147500X0.172500X0*%
%ADD14RoundRect,0.140000X0.140000X0.170000X-0.140000X0.170000X-0.140000X-0.170000X0.140000X-0.170000X0*%
%ADD15RoundRect,0.140000X-0.140000X-0.170000X0.140000X-0.170000X0.140000X0.170000X-0.140000X0.170000X0*%
%ADD16O,2.200000X1.000000*%
%ADD17O,1.000000X1.000000*%
%ADD18RoundRect,0.147500X-0.172500X0.147500X-0.172500X-0.147500X0.172500X-0.147500X0.172500X0.147500X0*%
%ADD19RoundRect,0.140000X0.170000X-0.140000X0.170000X0.140000X-0.170000X0.140000X-0.170000X-0.140000X0*%
%ADD20R,1.500000X1.500000*%
%ADD21RoundRect,0.140000X-0.170000X0.140000X-0.170000X-0.140000X0.170000X-0.140000X0.170000X0.140000X0*%
%ADD22RoundRect,0.135000X0.135000X0.185000X-0.135000X0.185000X-0.135000X-0.185000X0.135000X-0.185000X0*%
%ADD23R,1.400000X1.200000*%
%ADD24R,1.000000X1.000000*%
%ADD25R,2.200000X1.000000*%
%ADD26R,2.200000X1.050000*%
%ADD27RoundRect,0.062500X-0.425000X-0.062500X0.425000X-0.062500X0.425000X0.062500X-0.425000X0.062500X0*%
%ADD28RoundRect,0.062500X-0.062500X-0.425000X0.062500X-0.425000X0.062500X0.425000X-0.062500X0.425000X0*%
%ADD29R,2.400000X2.400000*%
G04 APERTURE END LIST*
D10*
X17983333Y721428D02*
X17983333Y816666D01*
X18040476Y702380D02*
X17840476Y769047D01*
X18040476Y835714D01*
X18040476Y902380D02*
X17840476Y902380D01*
X18040476Y1016666D01*
X17840476Y1016666D01*
X17840476Y1083333D02*
X17840476Y1197619D01*
X18040476Y1140476D02*
X17840476Y1140476D01*
X17850000Y3397619D02*
X17840476Y3378571D01*
X17840476Y3350000D01*
X17850000Y3321428D01*
X17869047Y3302380D01*
X17888095Y3292857D01*
X17926190Y3283333D01*
X17954761Y3283333D01*
X17992857Y3292857D01*
X18011904Y3302380D01*
X18030952Y3321428D01*
X18040476Y3350000D01*
X18040476Y3369047D01*
X18030952Y3397619D01*
X18021428Y3407142D01*
X17954761Y3407142D01*
X17954761Y3369047D01*
X18040476Y3492857D02*
X17840476Y3492857D01*
X18040476Y3607142D01*
X17840476Y3607142D01*
X18040476Y3702380D02*
X17840476Y3702380D01*
X17840476Y3750000D01*
X17850000Y3778571D01*
X17869047Y3797619D01*
X17888095Y3807142D01*
X17926190Y3816666D01*
X17954761Y3816666D01*
X17992857Y3807142D01*
X18011904Y3797619D01*
X18030952Y3778571D01*
X18040476Y3750000D01*
X18040476Y3702380D01*
D11*
X13896428Y11917178D02*
X13889285Y11910035D01*
X13867857Y11902892D01*
X13853571Y11902892D01*
X13832142Y11910035D01*
X13817857Y11924321D01*
X13810714Y11938607D01*
X13803571Y11967178D01*
X13803571Y11988607D01*
X13810714Y12017178D01*
X13817857Y12031464D01*
X13832142Y12045750D01*
X13853571Y12052892D01*
X13867857Y12052892D01*
X13889285Y12045750D01*
X13896428Y12038607D01*
X14046428Y11917178D02*
X14039285Y11910035D01*
X14017857Y11902892D01*
X14003571Y11902892D01*
X13982142Y11910035D01*
X13967857Y11924321D01*
X13960714Y11938607D01*
X13953571Y11967178D01*
X13953571Y11988607D01*
X13960714Y12017178D01*
X13967857Y12031464D01*
X13982142Y12045750D01*
X14003571Y12052892D01*
X14017857Y12052892D01*
X14039285Y12045750D01*
X14046428Y12038607D01*
X14189285Y11902892D02*
X14103571Y11902892D01*
X14146428Y11902892D02*
X14146428Y12052892D01*
X14132142Y12031464D01*
X14117857Y12017178D01*
X14103571Y12010035D01*
X14332142Y11902892D02*
X14246428Y11902892D01*
X14289285Y11902892D02*
X14289285Y12052892D01*
X14275000Y12031464D01*
X14260714Y12017178D01*
X14246428Y12010035D01*
X14425000Y12052892D02*
X14439285Y12052892D01*
X14453571Y12045750D01*
X14460714Y12038607D01*
X14467857Y12024321D01*
X14475000Y11995750D01*
X14475000Y11960035D01*
X14467857Y11931464D01*
X14460714Y11917178D01*
X14453571Y11910035D01*
X14439285Y11902892D01*
X14425000Y11902892D01*
X14410714Y11910035D01*
X14403571Y11917178D01*
X14396428Y11931464D01*
X14389285Y11960035D01*
X14389285Y11995750D01*
X14396428Y12024321D01*
X14403571Y12038607D01*
X14410714Y12045750D01*
X14425000Y12052892D01*
X14617857Y11902892D02*
X14532142Y11902892D01*
X14575000Y11902892D02*
X14575000Y12052892D01*
X14560714Y12031464D01*
X14546428Y12017178D01*
X14532142Y12010035D01*
X14646428Y11888607D02*
X14760714Y11888607D01*
X14817857Y11988607D02*
X14803571Y11995750D01*
X14796428Y12002892D01*
X14789285Y12017178D01*
X14789285Y12024321D01*
X14796428Y12038607D01*
X14803571Y12045750D01*
X14817857Y12052892D01*
X14846428Y12052892D01*
X14860714Y12045750D01*
X14867857Y12038607D01*
X14875000Y12024321D01*
X14875000Y12017178D01*
X14867857Y12002892D01*
X14860714Y11995750D01*
X14846428Y11988607D01*
X14817857Y11988607D01*
X14803571Y11981464D01*
X14796428Y11974321D01*
X14789285Y11960035D01*
X14789285Y11931464D01*
X14796428Y11917178D01*
X14803571Y11910035D01*
X14817857Y11902892D01*
X14846428Y11902892D01*
X14860714Y11910035D01*
X14867857Y11917178D01*
X14875000Y11931464D01*
X14875000Y11960035D01*
X14867857Y11974321D01*
X14860714Y11981464D01*
X14846428Y11988607D01*
X15003571Y12052892D02*
X14975000Y12052892D01*
X14960714Y12045750D01*
X14953571Y12038607D01*
X14939285Y12017178D01*
X14932142Y11988607D01*
X14932142Y11931464D01*
X14939285Y11917178D01*
X14946428Y11910035D01*
X14960714Y11902892D01*
X14989285Y11902892D01*
X15003571Y11910035D01*
X15010714Y11917178D01*
X15017857Y11931464D01*
X15017857Y11967178D01*
X15010714Y11981464D01*
X15003571Y11988607D01*
X14989285Y11995750D01*
X14960714Y11995750D01*
X14946428Y11988607D01*
X14939285Y11981464D01*
X14932142Y11967178D01*
X15103571Y11988607D02*
X15089285Y11995750D01*
X15082142Y12002892D01*
X15075000Y12017178D01*
X15075000Y12024321D01*
X15082142Y12038607D01*
X15089285Y12045750D01*
X15103571Y12052892D01*
X15132142Y12052892D01*
X15146428Y12045750D01*
X15153571Y12038607D01*
X15160714Y12024321D01*
X15160714Y12017178D01*
X15153571Y12002892D01*
X15146428Y11995750D01*
X15132142Y11988607D01*
X15103571Y11988607D01*
X15089285Y11981464D01*
X15082142Y11974321D01*
X15075000Y11960035D01*
X15075000Y11931464D01*
X15082142Y11917178D01*
X15089285Y11910035D01*
X15103571Y11902892D01*
X15132142Y11902892D01*
X15146428Y11910035D01*
X15153571Y11917178D01*
X15160714Y11931464D01*
X15160714Y11960035D01*
X15153571Y11974321D01*
X15146428Y11981464D01*
X15132142Y11988607D01*
X15225000Y11902892D02*
X15225000Y12052892D01*
X15275000Y11945750D01*
X15325000Y12052892D01*
X15325000Y11902892D01*
X15396428Y11902892D02*
X15396428Y12052892D01*
X15396428Y11981464D02*
X15482142Y11981464D01*
X15482142Y11902892D02*
X15482142Y12052892D01*
X15539285Y12002892D02*
X15617857Y12002892D01*
X15539285Y11902892D01*
X15617857Y11902892D01*
X15639285Y11888607D02*
X15753571Y11888607D01*
X15789285Y12052892D02*
X15789285Y11931464D01*
X15796428Y11917178D01*
X15803571Y11910035D01*
X15817857Y11902892D01*
X15846428Y11902892D01*
X15860714Y11910035D01*
X15867857Y11917178D01*
X15875000Y11931464D01*
X15875000Y12052892D01*
X15996428Y11981464D02*
X15946428Y11981464D01*
X15946428Y11902892D02*
X15946428Y12052892D01*
X16017857Y12052892D01*
X16146428Y11902892D02*
X16075000Y11902892D01*
X16075000Y12052892D01*
X16160714Y11888607D02*
X16275000Y11888607D01*
X16396428Y11902892D02*
X16346428Y11974321D01*
X16310714Y11902892D02*
X16310714Y12052892D01*
X16367857Y12052892D01*
X16382142Y12045750D01*
X16389285Y12038607D01*
X16396428Y12024321D01*
X16396428Y12002892D01*
X16389285Y11988607D01*
X16382142Y11981464D01*
X16367857Y11974321D01*
X16310714Y11974321D01*
X16510714Y11981464D02*
X16460714Y11981464D01*
X16460714Y11902892D02*
X16460714Y12052892D01*
X16532142Y12052892D01*
X16553571Y11888607D02*
X16667857Y11888607D01*
X16703571Y11902892D02*
X16703571Y12052892D01*
X16753571Y11945750D01*
X16803571Y12052892D01*
X16803571Y11902892D01*
X16896428Y11902892D02*
X16882142Y11910035D01*
X16875000Y11917178D01*
X16867857Y11931464D01*
X16867857Y11974321D01*
X16875000Y11988607D01*
X16882142Y11995750D01*
X16896428Y12002892D01*
X16917857Y12002892D01*
X16932142Y11995750D01*
X16939285Y11988607D01*
X16946428Y11974321D01*
X16946428Y11931464D01*
X16939285Y11917178D01*
X16932142Y11910035D01*
X16917857Y11902892D01*
X16896428Y11902892D01*
X17075000Y11902892D02*
X17075000Y12052892D01*
X17075000Y11910035D02*
X17060714Y11902892D01*
X17032142Y11902892D01*
X17017857Y11910035D01*
X17010714Y11917178D01*
X17003571Y11931464D01*
X17003571Y11974321D01*
X17010714Y11988607D01*
X17017857Y11995750D01*
X17032142Y12002892D01*
X17060714Y12002892D01*
X17075000Y11995750D01*
X17210714Y12002892D02*
X17210714Y11902892D01*
X17146428Y12002892D02*
X17146428Y11924321D01*
X17153571Y11910035D01*
X17167857Y11902892D01*
X17189285Y11902892D01*
X17203571Y11910035D01*
X17210714Y11917178D01*
X17303571Y11902892D02*
X17289285Y11910035D01*
X17282142Y11924321D01*
X17282142Y12052892D01*
X17325000Y11888607D02*
X17439285Y11888607D01*
X17525000Y11981464D02*
X17475000Y11981464D01*
X17475000Y11902892D02*
X17475000Y12052892D01*
X17546428Y12052892D01*
X17603571Y12052892D02*
X17603571Y11931464D01*
X17610714Y11917178D01*
X17617857Y11910035D01*
X17632142Y11902892D01*
X17660714Y11902892D01*
X17675000Y11910035D01*
X17682142Y11917178D01*
X17689285Y11931464D01*
X17689285Y12052892D01*
X17760714Y11981464D02*
X17810714Y11981464D01*
X17832142Y11902892D02*
X17760714Y11902892D01*
X17760714Y12052892D01*
X17832142Y12052892D01*
X17967857Y11902892D02*
X17896428Y11902892D01*
X17896428Y12052892D01*
X18082142Y12002892D02*
X18082142Y11902892D01*
X18046428Y12060035D02*
X18010714Y11952892D01*
X18103571Y11952892D01*
X18160714Y11981464D02*
X18210714Y11981464D01*
X18232142Y11902892D02*
X18160714Y11902892D01*
X18160714Y12052892D01*
X18232142Y12052892D01*
X18296428Y11902892D02*
X18296428Y12052892D01*
X18353571Y12052892D01*
X18367857Y12045750D01*
X18375000Y12038607D01*
X18382142Y12024321D01*
X18382142Y12002892D01*
X18375000Y11988607D01*
X18367857Y11981464D01*
X18353571Y11974321D01*
X18296428Y11974321D01*
X14646428Y11604250D02*
X14639285Y11611392D01*
X14625000Y11632821D01*
X14617857Y11647107D01*
X14610714Y11668535D01*
X14603571Y11704250D01*
X14603571Y11732821D01*
X14610714Y11768535D01*
X14617857Y11789964D01*
X14625000Y11804250D01*
X14639285Y11825678D01*
X14646428Y11832821D01*
X14789285Y11675678D02*
X14782142Y11668535D01*
X14760714Y11661392D01*
X14746428Y11661392D01*
X14725000Y11668535D01*
X14710714Y11682821D01*
X14703571Y11697107D01*
X14696428Y11725678D01*
X14696428Y11747107D01*
X14703571Y11775678D01*
X14710714Y11789964D01*
X14725000Y11804250D01*
X14746428Y11811392D01*
X14760714Y11811392D01*
X14782142Y11804250D01*
X14789285Y11797107D01*
X14839285Y11604250D02*
X14846428Y11611392D01*
X14860714Y11632821D01*
X14867857Y11647107D01*
X14875000Y11668535D01*
X14882142Y11704250D01*
X14882142Y11732821D01*
X14875000Y11768535D01*
X14867857Y11789964D01*
X14860714Y11804250D01*
X14846428Y11825678D01*
X14839285Y11832821D01*
X15117857Y11739964D02*
X15067857Y11739964D01*
X15067857Y11661392D02*
X15067857Y11811392D01*
X15139285Y11811392D01*
X15196428Y11811392D02*
X15196428Y11689964D01*
X15203571Y11675678D01*
X15210714Y11668535D01*
X15225000Y11661392D01*
X15253571Y11661392D01*
X15267857Y11668535D01*
X15275000Y11675678D01*
X15282142Y11689964D01*
X15282142Y11811392D01*
X15353571Y11739964D02*
X15403571Y11739964D01*
X15425000Y11661392D02*
X15353571Y11661392D01*
X15353571Y11811392D01*
X15425000Y11811392D01*
X15560714Y11661392D02*
X15489285Y11661392D01*
X15489285Y11811392D01*
X15675000Y11761392D02*
X15675000Y11661392D01*
X15639285Y11818535D02*
X15603571Y11711392D01*
X15696428Y11711392D01*
X15753571Y11739964D02*
X15803571Y11739964D01*
X15825000Y11661392D02*
X15753571Y11661392D01*
X15753571Y11811392D01*
X15825000Y11811392D01*
X15889285Y11661392D02*
X15889285Y11811392D01*
X15946428Y11811392D01*
X15960714Y11804250D01*
X15967857Y11797107D01*
X15975000Y11782821D01*
X15975000Y11761392D01*
X15967857Y11747107D01*
X15960714Y11739964D01*
X15946428Y11732821D01*
X15889285Y11732821D01*
X16182142Y11811392D02*
X16196428Y11811392D01*
X16210714Y11804250D01*
X16217857Y11797107D01*
X16225000Y11782821D01*
X16232142Y11754250D01*
X16232142Y11718535D01*
X16225000Y11689964D01*
X16217857Y11675678D01*
X16210714Y11668535D01*
X16196428Y11661392D01*
X16182142Y11661392D01*
X16167857Y11668535D01*
X16160714Y11675678D01*
X16153571Y11689964D01*
X16146428Y11718535D01*
X16146428Y11754250D01*
X16153571Y11782821D01*
X16160714Y11797107D01*
X16167857Y11804250D01*
X16182142Y11811392D01*
X16317857Y11747107D02*
X16303571Y11754250D01*
X16296428Y11761392D01*
X16289285Y11775678D01*
X16289285Y11782821D01*
X16296428Y11797107D01*
X16303571Y11804250D01*
X16317857Y11811392D01*
X16346428Y11811392D01*
X16360714Y11804250D01*
X16367857Y11797107D01*
X16375000Y11782821D01*
X16375000Y11775678D01*
X16367857Y11761392D01*
X16360714Y11754250D01*
X16346428Y11747107D01*
X16317857Y11747107D01*
X16303571Y11739964D01*
X16296428Y11732821D01*
X16289285Y11718535D01*
X16289285Y11689964D01*
X16296428Y11675678D01*
X16303571Y11668535D01*
X16317857Y11661392D01*
X16346428Y11661392D01*
X16360714Y11668535D01*
X16367857Y11675678D01*
X16375000Y11689964D01*
X16375000Y11718535D01*
X16367857Y11732821D01*
X16360714Y11739964D01*
X16346428Y11747107D01*
X16546428Y11818535D02*
X16417857Y11625678D01*
X16589285Y11797107D02*
X16596428Y11804250D01*
X16610714Y11811392D01*
X16646428Y11811392D01*
X16660714Y11804250D01*
X16667857Y11797107D01*
X16675000Y11782821D01*
X16675000Y11768535D01*
X16667857Y11747107D01*
X16582142Y11661392D01*
X16675000Y11661392D01*
X16767857Y11811392D02*
X16782142Y11811392D01*
X16796428Y11804250D01*
X16803571Y11797107D01*
X16810714Y11782821D01*
X16817857Y11754250D01*
X16817857Y11718535D01*
X16810714Y11689964D01*
X16803571Y11675678D01*
X16796428Y11668535D01*
X16782142Y11661392D01*
X16767857Y11661392D01*
X16753571Y11668535D01*
X16746428Y11675678D01*
X16739285Y11689964D01*
X16732142Y11718535D01*
X16732142Y11754250D01*
X16739285Y11782821D01*
X16746428Y11797107D01*
X16753571Y11804250D01*
X16767857Y11811392D01*
X16875000Y11797107D02*
X16882142Y11804250D01*
X16896428Y11811392D01*
X16932142Y11811392D01*
X16946428Y11804250D01*
X16953571Y11797107D01*
X16960714Y11782821D01*
X16960714Y11768535D01*
X16953571Y11747107D01*
X16867857Y11661392D01*
X16960714Y11661392D01*
X17010714Y11811392D02*
X17103571Y11811392D01*
X17053571Y11754250D01*
X17075000Y11754250D01*
X17089285Y11747107D01*
X17096428Y11739964D01*
X17103571Y11725678D01*
X17103571Y11689964D01*
X17096428Y11675678D01*
X17089285Y11668535D01*
X17075000Y11661392D01*
X17032142Y11661392D01*
X17017857Y11668535D01*
X17010714Y11675678D01*
X17260714Y11811392D02*
X17310714Y11661392D01*
X17360714Y11811392D01*
X17489285Y11661392D02*
X17403571Y11661392D01*
X17446428Y11661392D02*
X17446428Y11811392D01*
X17432142Y11789964D01*
X17417857Y11775678D01*
X17403571Y11768535D01*
X17553571Y11675678D02*
X17560714Y11668535D01*
X17553571Y11661392D01*
X17546428Y11668535D01*
X17553571Y11675678D01*
X17553571Y11661392D01*
X17703571Y11661392D02*
X17617857Y11661392D01*
X17660714Y11661392D02*
X17660714Y11811392D01*
X17646428Y11789964D01*
X17632142Y11775678D01*
X17617857Y11768535D01*
D10*
%TO.C,L1*%
X12285666Y9434523D02*
X12190428Y9434523D01*
X12190428Y9634523D01*
X12457095Y9434523D02*
X12342809Y9434523D01*
X12399952Y9434523D02*
X12399952Y9634523D01*
X12380904Y9605952D01*
X12361857Y9586904D01*
X12342809Y9577380D01*
%TO.C,C14*%
X7364428Y12374571D02*
X7354904Y12365047D01*
X7326333Y12355523D01*
X7307285Y12355523D01*
X7278714Y12365047D01*
X7259666Y12384095D01*
X7250142Y12403142D01*
X7240619Y12441238D01*
X7240619Y12469809D01*
X7250142Y12507904D01*
X7259666Y12526952D01*
X7278714Y12546000D01*
X7307285Y12555523D01*
X7326333Y12555523D01*
X7354904Y12546000D01*
X7364428Y12536476D01*
X7554904Y12355523D02*
X7440619Y12355523D01*
X7497761Y12355523D02*
X7497761Y12555523D01*
X7478714Y12526952D01*
X7459666Y12507904D01*
X7440619Y12498380D01*
X7726333Y12488857D02*
X7726333Y12355523D01*
X7678714Y12565047D02*
X7631095Y12422190D01*
X7754904Y12422190D01*
%TO.C,L7*%
X16966666Y1859523D02*
X16871428Y1859523D01*
X16871428Y2059523D01*
X17014285Y2059523D02*
X17147619Y2059523D01*
X17061904Y1859523D01*
%TO.C,L3*%
X16290476Y6716666D02*
X16290476Y6621428D01*
X16090476Y6621428D01*
X16090476Y6764285D02*
X16090476Y6888095D01*
X16166666Y6821428D01*
X16166666Y6850000D01*
X16176190Y6869047D01*
X16185714Y6878571D01*
X16204761Y6888095D01*
X16252380Y6888095D01*
X16271428Y6878571D01*
X16280952Y6869047D01*
X16290476Y6850000D01*
X16290476Y6792857D01*
X16280952Y6773809D01*
X16271428Y6764285D01*
%TO.C,L2*%
X12291666Y7209523D02*
X12196428Y7209523D01*
X12196428Y7409523D01*
X12348809Y7390476D02*
X12358333Y7400000D01*
X12377380Y7409523D01*
X12425000Y7409523D01*
X12444047Y7400000D01*
X12453571Y7390476D01*
X12463095Y7371428D01*
X12463095Y7352380D01*
X12453571Y7323809D01*
X12339285Y7209523D01*
X12463095Y7209523D01*
%TO.C,C5*%
X17190866Y7167571D02*
X17181342Y7158047D01*
X17152771Y7148523D01*
X17133723Y7148523D01*
X17105152Y7158047D01*
X17086104Y7177095D01*
X17076580Y7196142D01*
X17067057Y7234238D01*
X17067057Y7262809D01*
X17076580Y7300904D01*
X17086104Y7319952D01*
X17105152Y7339000D01*
X17133723Y7348523D01*
X17152771Y7348523D01*
X17181342Y7339000D01*
X17190866Y7329476D01*
X17371819Y7348523D02*
X17276580Y7348523D01*
X17267057Y7253285D01*
X17276580Y7262809D01*
X17295628Y7272333D01*
X17343247Y7272333D01*
X17362295Y7262809D01*
X17371819Y7253285D01*
X17381342Y7234238D01*
X17381342Y7186619D01*
X17371819Y7167571D01*
X17362295Y7158047D01*
X17343247Y7148523D01*
X17295628Y7148523D01*
X17276580Y7158047D01*
X17267057Y7167571D01*
%TO.C,C3*%
X16271428Y5616666D02*
X16280952Y5607142D01*
X16290476Y5578571D01*
X16290476Y5559523D01*
X16280952Y5530952D01*
X16261904Y5511904D01*
X16242857Y5502380D01*
X16204761Y5492857D01*
X16176190Y5492857D01*
X16138095Y5502380D01*
X16119047Y5511904D01*
X16100000Y5530952D01*
X16090476Y5559523D01*
X16090476Y5578571D01*
X16100000Y5607142D01*
X16109523Y5616666D01*
X16090476Y5683333D02*
X16090476Y5807142D01*
X16166666Y5740476D01*
X16166666Y5769047D01*
X16176190Y5788095D01*
X16185714Y5797619D01*
X16204761Y5807142D01*
X16252380Y5807142D01*
X16271428Y5797619D01*
X16280952Y5788095D01*
X16290476Y5769047D01*
X16290476Y5711904D01*
X16280952Y5692857D01*
X16271428Y5683333D01*
%TO.C,JC5*%
X2383333Y6319523D02*
X2383333Y6176666D01*
X2373809Y6148095D01*
X2354761Y6129047D01*
X2326190Y6119523D01*
X2307142Y6119523D01*
X2592857Y6138571D02*
X2583333Y6129047D01*
X2554761Y6119523D01*
X2535714Y6119523D01*
X2507142Y6129047D01*
X2488095Y6148095D01*
X2478571Y6167142D01*
X2469047Y6205238D01*
X2469047Y6233809D01*
X2478571Y6271904D01*
X2488095Y6290952D01*
X2507142Y6310000D01*
X2535714Y6319523D01*
X2554761Y6319523D01*
X2583333Y6310000D01*
X2592857Y6300476D01*
X2773809Y6319523D02*
X2678571Y6319523D01*
X2669047Y6224285D01*
X2678571Y6233809D01*
X2697619Y6243333D01*
X2745238Y6243333D01*
X2764285Y6233809D01*
X2773809Y6224285D01*
X2783333Y6205238D01*
X2783333Y6157619D01*
X2773809Y6138571D01*
X2764285Y6129047D01*
X2745238Y6119523D01*
X2697619Y6119523D01*
X2678571Y6129047D01*
X2669047Y6138571D01*
%TO.C,L6*%
X17590476Y5891666D02*
X17590476Y5796428D01*
X17390476Y5796428D01*
X17390476Y6044047D02*
X17390476Y6005952D01*
X17400000Y5986904D01*
X17409523Y5977380D01*
X17438095Y5958333D01*
X17476190Y5948809D01*
X17552380Y5948809D01*
X17571428Y5958333D01*
X17580952Y5967857D01*
X17590476Y5986904D01*
X17590476Y6025000D01*
X17580952Y6044047D01*
X17571428Y6053571D01*
X17552380Y6063095D01*
X17504761Y6063095D01*
X17485714Y6053571D01*
X17476190Y6044047D01*
X17466666Y6025000D01*
X17466666Y5986904D01*
X17476190Y5967857D01*
X17485714Y5958333D01*
X17504761Y5948809D01*
%TO.C,C2*%
X13716666Y7228571D02*
X13707142Y7219047D01*
X13678571Y7209523D01*
X13659523Y7209523D01*
X13630952Y7219047D01*
X13611904Y7238095D01*
X13602380Y7257142D01*
X13592857Y7295238D01*
X13592857Y7323809D01*
X13602380Y7361904D01*
X13611904Y7380952D01*
X13630952Y7400000D01*
X13659523Y7409523D01*
X13678571Y7409523D01*
X13707142Y7400000D01*
X13716666Y7390476D01*
X13792857Y7390476D02*
X13802380Y7400000D01*
X13821428Y7409523D01*
X13869047Y7409523D01*
X13888095Y7400000D01*
X13897619Y7390476D01*
X13907142Y7371428D01*
X13907142Y7352380D01*
X13897619Y7323809D01*
X13783333Y7209523D01*
X13907142Y7209523D01*
%TO.C,JA1*%
X17815476Y4422619D02*
X17958333Y4422619D01*
X17986904Y4413095D01*
X18005952Y4394047D01*
X18015476Y4365476D01*
X18015476Y4346428D01*
X17958333Y4508333D02*
X17958333Y4603571D01*
X18015476Y4489285D02*
X17815476Y4555952D01*
X18015476Y4622619D01*
X18015476Y4794047D02*
X18015476Y4679761D01*
X18015476Y4736904D02*
X17815476Y4736904D01*
X17844047Y4717857D01*
X17863095Y4698809D01*
X17872619Y4679761D01*
%TO.C,JC8*%
X2383333Y2509523D02*
X2383333Y2366666D01*
X2373809Y2338095D01*
X2354761Y2319047D01*
X2326190Y2309523D01*
X2307142Y2309523D01*
X2592857Y2328571D02*
X2583333Y2319047D01*
X2554761Y2309523D01*
X2535714Y2309523D01*
X2507142Y2319047D01*
X2488095Y2338095D01*
X2478571Y2357142D01*
X2469047Y2395238D01*
X2469047Y2423809D01*
X2478571Y2461904D01*
X2488095Y2480952D01*
X2507142Y2500000D01*
X2535714Y2509523D01*
X2554761Y2509523D01*
X2583333Y2500000D01*
X2592857Y2490476D01*
X2707142Y2423809D02*
X2688095Y2433333D01*
X2678571Y2442857D01*
X2669047Y2461904D01*
X2669047Y2471428D01*
X2678571Y2490476D01*
X2688095Y2500000D01*
X2707142Y2509523D01*
X2745238Y2509523D01*
X2764285Y2500000D01*
X2773809Y2490476D01*
X2783333Y2471428D01*
X2783333Y2461904D01*
X2773809Y2442857D01*
X2764285Y2433333D01*
X2745238Y2423809D01*
X2707142Y2423809D01*
X2688095Y2414285D01*
X2678571Y2404761D01*
X2669047Y2385714D01*
X2669047Y2347619D01*
X2678571Y2328571D01*
X2688095Y2319047D01*
X2707142Y2309523D01*
X2745238Y2309523D01*
X2764285Y2319047D01*
X2773809Y2328571D01*
X2783333Y2347619D01*
X2783333Y2385714D01*
X2773809Y2404761D01*
X2764285Y2414285D01*
X2745238Y2423809D01*
%TO.C,C7*%
X17616666Y5203571D02*
X17607142Y5194047D01*
X17578571Y5184523D01*
X17559523Y5184523D01*
X17530952Y5194047D01*
X17511904Y5213095D01*
X17502380Y5232142D01*
X17492857Y5270238D01*
X17492857Y5298809D01*
X17502380Y5336904D01*
X17511904Y5355952D01*
X17530952Y5375000D01*
X17559523Y5384523D01*
X17578571Y5384523D01*
X17607142Y5375000D01*
X17616666Y5365476D01*
X17683333Y5384523D02*
X17816666Y5384523D01*
X17730952Y5184523D01*
%TO.C,C16*%
X6294428Y6094428D02*
X6303952Y6084904D01*
X6313476Y6056333D01*
X6313476Y6037285D01*
X6303952Y6008714D01*
X6284904Y5989666D01*
X6265857Y5980142D01*
X6227761Y5970619D01*
X6199190Y5970619D01*
X6161095Y5980142D01*
X6142047Y5989666D01*
X6123000Y6008714D01*
X6113476Y6037285D01*
X6113476Y6056333D01*
X6123000Y6084904D01*
X6132523Y6094428D01*
X6313476Y6284904D02*
X6313476Y6170619D01*
X6313476Y6227761D02*
X6113476Y6227761D01*
X6142047Y6208714D01*
X6161095Y6189666D01*
X6170619Y6170619D01*
X6113476Y6456333D02*
X6113476Y6418238D01*
X6123000Y6399190D01*
X6132523Y6389666D01*
X6161095Y6370619D01*
X6199190Y6361095D01*
X6275380Y6361095D01*
X6294428Y6370619D01*
X6303952Y6380142D01*
X6313476Y6399190D01*
X6313476Y6437285D01*
X6303952Y6456333D01*
X6294428Y6465857D01*
X6275380Y6475380D01*
X6227761Y6475380D01*
X6208714Y6465857D01*
X6199190Y6456333D01*
X6189666Y6437285D01*
X6189666Y6399190D01*
X6199190Y6380142D01*
X6208714Y6370619D01*
X6227761Y6361095D01*
%TO.C,R1*%
X9745666Y12355523D02*
X9679000Y12450761D01*
X9631380Y12355523D02*
X9631380Y12555523D01*
X9707571Y12555523D01*
X9726619Y12546000D01*
X9736142Y12536476D01*
X9745666Y12517428D01*
X9745666Y12488857D01*
X9736142Y12469809D01*
X9726619Y12460285D01*
X9707571Y12450761D01*
X9631380Y12450761D01*
X9936142Y12355523D02*
X9821857Y12355523D01*
X9879000Y12355523D02*
X9879000Y12555523D01*
X9859952Y12526952D01*
X9840904Y12507904D01*
X9821857Y12498380D01*
%TO.C,C15*%
X11227628Y6021428D02*
X11237152Y6011904D01*
X11246676Y5983333D01*
X11246676Y5964285D01*
X11237152Y5935714D01*
X11218104Y5916666D01*
X11199057Y5907142D01*
X11160961Y5897619D01*
X11132390Y5897619D01*
X11094295Y5907142D01*
X11075247Y5916666D01*
X11056200Y5935714D01*
X11046676Y5964285D01*
X11046676Y5983333D01*
X11056200Y6011904D01*
X11065723Y6021428D01*
X11246676Y6211904D02*
X11246676Y6097619D01*
X11246676Y6154761D02*
X11046676Y6154761D01*
X11075247Y6135714D01*
X11094295Y6116666D01*
X11103819Y6097619D01*
X11046676Y6392857D02*
X11046676Y6297619D01*
X11141914Y6288095D01*
X11132390Y6297619D01*
X11122866Y6316666D01*
X11122866Y6364285D01*
X11132390Y6383333D01*
X11141914Y6392857D01*
X11160961Y6402380D01*
X11208580Y6402380D01*
X11227628Y6392857D01*
X11237152Y6383333D01*
X11246676Y6364285D01*
X11246676Y6316666D01*
X11237152Y6297619D01*
X11227628Y6288095D01*
%TO.C,C17*%
X13531828Y6021428D02*
X13541352Y6011904D01*
X13550876Y5983333D01*
X13550876Y5964285D01*
X13541352Y5935714D01*
X13522304Y5916666D01*
X13503257Y5907142D01*
X13465161Y5897619D01*
X13436590Y5897619D01*
X13398495Y5907142D01*
X13379447Y5916666D01*
X13360400Y5935714D01*
X13350876Y5964285D01*
X13350876Y5983333D01*
X13360400Y6011904D01*
X13369923Y6021428D01*
X13550876Y6211904D02*
X13550876Y6097619D01*
X13550876Y6154761D02*
X13350876Y6154761D01*
X13379447Y6135714D01*
X13398495Y6116666D01*
X13408019Y6097619D01*
X13350876Y6278571D02*
X13350876Y6411904D01*
X13550876Y6326190D01*
%TO.C,JA2*%
X17840476Y1597619D02*
X17983333Y1597619D01*
X18011904Y1588095D01*
X18030952Y1569047D01*
X18040476Y1540476D01*
X18040476Y1521428D01*
X17983333Y1683333D02*
X17983333Y1778571D01*
X18040476Y1664285D02*
X17840476Y1730952D01*
X18040476Y1797619D01*
X17859523Y1854761D02*
X17850000Y1864285D01*
X17840476Y1883333D01*
X17840476Y1930952D01*
X17850000Y1950000D01*
X17859523Y1959523D01*
X17878571Y1969047D01*
X17897619Y1969047D01*
X17926190Y1959523D01*
X18040476Y1845238D01*
X18040476Y1969047D01*
%TO.C,L4*%
X16215476Y8941666D02*
X16215476Y8846428D01*
X16015476Y8846428D01*
X16082142Y9094047D02*
X16215476Y9094047D01*
X16005952Y9046428D02*
X16148809Y8998809D01*
X16148809Y9122619D01*
%TO.C,Y1*%
X7154761Y554761D02*
X7154761Y459523D01*
X7088095Y659523D02*
X7154761Y554761D01*
X7221428Y659523D01*
X7392857Y459523D02*
X7278571Y459523D01*
X7335714Y459523D02*
X7335714Y659523D01*
X7316666Y630952D01*
X7297619Y611904D01*
X7278571Y602380D01*
%TO.C,C13*%
X5278428Y7491428D02*
X5287952Y7481904D01*
X5297476Y7453333D01*
X5297476Y7434285D01*
X5287952Y7405714D01*
X5268904Y7386666D01*
X5249857Y7377142D01*
X5211761Y7367619D01*
X5183190Y7367619D01*
X5145095Y7377142D01*
X5126047Y7386666D01*
X5107000Y7405714D01*
X5097476Y7434285D01*
X5097476Y7453333D01*
X5107000Y7481904D01*
X5116523Y7491428D01*
X5297476Y7681904D02*
X5297476Y7567619D01*
X5297476Y7624761D02*
X5097476Y7624761D01*
X5126047Y7605714D01*
X5145095Y7586666D01*
X5154619Y7567619D01*
X5097476Y7748571D02*
X5097476Y7872380D01*
X5173666Y7805714D01*
X5173666Y7834285D01*
X5183190Y7853333D01*
X5192714Y7862857D01*
X5211761Y7872380D01*
X5259380Y7872380D01*
X5278428Y7862857D01*
X5287952Y7853333D01*
X5297476Y7834285D01*
X5297476Y7777142D01*
X5287952Y7758095D01*
X5278428Y7748571D01*
%TO.C,C10*%
X5205428Y12374571D02*
X5195904Y12365047D01*
X5167333Y12355523D01*
X5148285Y12355523D01*
X5119714Y12365047D01*
X5100666Y12384095D01*
X5091142Y12403142D01*
X5081619Y12441238D01*
X5081619Y12469809D01*
X5091142Y12507904D01*
X5100666Y12526952D01*
X5119714Y12546000D01*
X5148285Y12555523D01*
X5167333Y12555523D01*
X5195904Y12546000D01*
X5205428Y12536476D01*
X5395904Y12355523D02*
X5281619Y12355523D01*
X5338761Y12355523D02*
X5338761Y12555523D01*
X5319714Y12526952D01*
X5300666Y12507904D01*
X5281619Y12498380D01*
X5519714Y12555523D02*
X5538761Y12555523D01*
X5557809Y12546000D01*
X5567333Y12536476D01*
X5576857Y12517428D01*
X5586380Y12479333D01*
X5586380Y12431714D01*
X5576857Y12393619D01*
X5567333Y12374571D01*
X5557809Y12365047D01*
X5538761Y12355523D01*
X5519714Y12355523D01*
X5500666Y12365047D01*
X5491142Y12374571D01*
X5481619Y12393619D01*
X5472095Y12431714D01*
X5472095Y12479333D01*
X5481619Y12517428D01*
X5491142Y12536476D01*
X5500666Y12546000D01*
X5519714Y12555523D01*
%TO.C,C4*%
X16196428Y7891666D02*
X16205952Y7882142D01*
X16215476Y7853571D01*
X16215476Y7834523D01*
X16205952Y7805952D01*
X16186904Y7786904D01*
X16167857Y7777380D01*
X16129761Y7767857D01*
X16101190Y7767857D01*
X16063095Y7777380D01*
X16044047Y7786904D01*
X16025000Y7805952D01*
X16015476Y7834523D01*
X16015476Y7853571D01*
X16025000Y7882142D01*
X16034523Y7891666D01*
X16082142Y8063095D02*
X16215476Y8063095D01*
X16005952Y8015476D02*
X16148809Y7967857D01*
X16148809Y8091666D01*
%TO.C,JC6*%
X2383333Y5049523D02*
X2383333Y4906666D01*
X2373809Y4878095D01*
X2354761Y4859047D01*
X2326190Y4849523D01*
X2307142Y4849523D01*
X2592857Y4868571D02*
X2583333Y4859047D01*
X2554761Y4849523D01*
X2535714Y4849523D01*
X2507142Y4859047D01*
X2488095Y4878095D01*
X2478571Y4897142D01*
X2469047Y4935238D01*
X2469047Y4963809D01*
X2478571Y5001904D01*
X2488095Y5020952D01*
X2507142Y5040000D01*
X2535714Y5049523D01*
X2554761Y5049523D01*
X2583333Y5040000D01*
X2592857Y5030476D01*
X2764285Y5049523D02*
X2726190Y5049523D01*
X2707142Y5040000D01*
X2697619Y5030476D01*
X2678571Y5001904D01*
X2669047Y4963809D01*
X2669047Y4887619D01*
X2678571Y4868571D01*
X2688095Y4859047D01*
X2707142Y4849523D01*
X2745238Y4849523D01*
X2764285Y4859047D01*
X2773809Y4868571D01*
X2783333Y4887619D01*
X2783333Y4935238D01*
X2773809Y4954285D01*
X2764285Y4963809D01*
X2745238Y4973333D01*
X2707142Y4973333D01*
X2688095Y4963809D01*
X2678571Y4954285D01*
X2669047Y4935238D01*
%TO.C,C12*%
X12063428Y12628571D02*
X12053904Y12619047D01*
X12025333Y12609523D01*
X12006285Y12609523D01*
X11977714Y12619047D01*
X11958666Y12638095D01*
X11949142Y12657142D01*
X11939619Y12695238D01*
X11939619Y12723809D01*
X11949142Y12761904D01*
X11958666Y12780952D01*
X11977714Y12800000D01*
X12006285Y12809523D01*
X12025333Y12809523D01*
X12053904Y12800000D01*
X12063428Y12790476D01*
X12253904Y12609523D02*
X12139619Y12609523D01*
X12196761Y12609523D02*
X12196761Y12809523D01*
X12177714Y12780952D01*
X12158666Y12761904D01*
X12139619Y12752380D01*
X12330095Y12790476D02*
X12339619Y12800000D01*
X12358666Y12809523D01*
X12406285Y12809523D01*
X12425333Y12800000D01*
X12434857Y12790476D01*
X12444380Y12771428D01*
X12444380Y12752380D01*
X12434857Y12723809D01*
X12320571Y12609523D01*
X12444380Y12609523D01*
%TO.C,JC3*%
X2383333Y8859523D02*
X2383333Y8716666D01*
X2373809Y8688095D01*
X2354761Y8669047D01*
X2326190Y8659523D01*
X2307142Y8659523D01*
X2592857Y8678571D02*
X2583333Y8669047D01*
X2554761Y8659523D01*
X2535714Y8659523D01*
X2507142Y8669047D01*
X2488095Y8688095D01*
X2478571Y8707142D01*
X2469047Y8745238D01*
X2469047Y8773809D01*
X2478571Y8811904D01*
X2488095Y8830952D01*
X2507142Y8850000D01*
X2535714Y8859523D01*
X2554761Y8859523D01*
X2583333Y8850000D01*
X2592857Y8840476D01*
X2659523Y8859523D02*
X2783333Y8859523D01*
X2716666Y8783333D01*
X2745238Y8783333D01*
X2764285Y8773809D01*
X2773809Y8764285D01*
X2783333Y8745238D01*
X2783333Y8697619D01*
X2773809Y8678571D01*
X2764285Y8669047D01*
X2745238Y8659523D01*
X2688095Y8659523D01*
X2669047Y8669047D01*
X2659523Y8678571D01*
%TO.C,JC2*%
X2383333Y10129523D02*
X2383333Y9986666D01*
X2373809Y9958095D01*
X2354761Y9939047D01*
X2326190Y9929523D01*
X2307142Y9929523D01*
X2592857Y9948571D02*
X2583333Y9939047D01*
X2554761Y9929523D01*
X2535714Y9929523D01*
X2507142Y9939047D01*
X2488095Y9958095D01*
X2478571Y9977142D01*
X2469047Y10015238D01*
X2469047Y10043809D01*
X2478571Y10081904D01*
X2488095Y10100952D01*
X2507142Y10120000D01*
X2535714Y10129523D01*
X2554761Y10129523D01*
X2583333Y10120000D01*
X2592857Y10110476D01*
X2669047Y10110476D02*
X2678571Y10120000D01*
X2697619Y10129523D01*
X2745238Y10129523D01*
X2764285Y10120000D01*
X2773809Y10110476D01*
X2783333Y10091428D01*
X2783333Y10072380D01*
X2773809Y10043809D01*
X2659523Y9929523D01*
X2783333Y9929523D01*
%TO.C,JC1*%
X2383333Y11349523D02*
X2383333Y11206666D01*
X2373809Y11178095D01*
X2354761Y11159047D01*
X2326190Y11149523D01*
X2307142Y11149523D01*
X2592857Y11168571D02*
X2583333Y11159047D01*
X2554761Y11149523D01*
X2535714Y11149523D01*
X2507142Y11159047D01*
X2488095Y11178095D01*
X2478571Y11197142D01*
X2469047Y11235238D01*
X2469047Y11263809D01*
X2478571Y11301904D01*
X2488095Y11320952D01*
X2507142Y11340000D01*
X2535714Y11349523D01*
X2554761Y11349523D01*
X2583333Y11340000D01*
X2592857Y11330476D01*
X2783333Y11149523D02*
X2669047Y11149523D01*
X2726190Y11149523D02*
X2726190Y11349523D01*
X2707142Y11320952D01*
X2688095Y11301904D01*
X2669047Y11292380D01*
%TO.C,L5*%
X17210866Y9561523D02*
X17115628Y9561523D01*
X17115628Y9761523D01*
X17372771Y9761523D02*
X17277533Y9761523D01*
X17268009Y9666285D01*
X17277533Y9675809D01*
X17296580Y9685333D01*
X17344200Y9685333D01*
X17363247Y9675809D01*
X17372771Y9666285D01*
X17382295Y9647238D01*
X17382295Y9599619D01*
X17372771Y9580571D01*
X17363247Y9571047D01*
X17344200Y9561523D01*
X17296580Y9561523D01*
X17277533Y9571047D01*
X17268009Y9580571D01*
%TO.C,JA3*%
X14940476Y597619D02*
X15083333Y597619D01*
X15111904Y588095D01*
X15130952Y569047D01*
X15140476Y540476D01*
X15140476Y521428D01*
X15083333Y683333D02*
X15083333Y778571D01*
X15140476Y664285D02*
X14940476Y730952D01*
X15140476Y797619D01*
X14940476Y845238D02*
X14940476Y969047D01*
X15016666Y902380D01*
X15016666Y930952D01*
X15026190Y950000D01*
X15035714Y959523D01*
X15054761Y969047D01*
X15102380Y969047D01*
X15121428Y959523D01*
X15130952Y950000D01*
X15140476Y930952D01*
X15140476Y873809D01*
X15130952Y854761D01*
X15121428Y845238D01*
%TO.C,C11*%
X12063428Y10215571D02*
X12053904Y10206047D01*
X12025333Y10196523D01*
X12006285Y10196523D01*
X11977714Y10206047D01*
X11958666Y10225095D01*
X11949142Y10244142D01*
X11939619Y10282238D01*
X11939619Y10310809D01*
X11949142Y10348904D01*
X11958666Y10367952D01*
X11977714Y10387000D01*
X12006285Y10396523D01*
X12025333Y10396523D01*
X12053904Y10387000D01*
X12063428Y10377476D01*
X12253904Y10196523D02*
X12139619Y10196523D01*
X12196761Y10196523D02*
X12196761Y10396523D01*
X12177714Y10367952D01*
X12158666Y10348904D01*
X12139619Y10339380D01*
X12444380Y10196523D02*
X12330095Y10196523D01*
X12387238Y10196523D02*
X12387238Y10396523D01*
X12368190Y10367952D01*
X12349142Y10348904D01*
X12330095Y10339380D01*
%TO.C,C8*%
X6062666Y4627571D02*
X6053142Y4618047D01*
X6024571Y4608523D01*
X6005523Y4608523D01*
X5976952Y4618047D01*
X5957904Y4637095D01*
X5948380Y4656142D01*
X5938857Y4694238D01*
X5938857Y4722809D01*
X5948380Y4760904D01*
X5957904Y4779952D01*
X5976952Y4799000D01*
X6005523Y4808523D01*
X6024571Y4808523D01*
X6053142Y4799000D01*
X6062666Y4789476D01*
X6176952Y4722809D02*
X6157904Y4732333D01*
X6148380Y4741857D01*
X6138857Y4760904D01*
X6138857Y4770428D01*
X6148380Y4789476D01*
X6157904Y4799000D01*
X6176952Y4808523D01*
X6215047Y4808523D01*
X6234095Y4799000D01*
X6243619Y4789476D01*
X6253142Y4770428D01*
X6253142Y4760904D01*
X6243619Y4741857D01*
X6234095Y4732333D01*
X6215047Y4722809D01*
X6176952Y4722809D01*
X6157904Y4713285D01*
X6148380Y4703761D01*
X6138857Y4684714D01*
X6138857Y4646619D01*
X6148380Y4627571D01*
X6157904Y4618047D01*
X6176952Y4608523D01*
X6215047Y4608523D01*
X6234095Y4618047D01*
X6243619Y4627571D01*
X6253142Y4646619D01*
X6253142Y4684714D01*
X6243619Y4703761D01*
X6234095Y4713285D01*
X6215047Y4722809D01*
%TO.C,C1*%
X15206666Y10596571D02*
X15197142Y10587047D01*
X15168571Y10577523D01*
X15149523Y10577523D01*
X15120952Y10587047D01*
X15101904Y10606095D01*
X15092380Y10625142D01*
X15082857Y10663238D01*
X15082857Y10691809D01*
X15092380Y10729904D01*
X15101904Y10748952D01*
X15120952Y10768000D01*
X15149523Y10777523D01*
X15168571Y10777523D01*
X15197142Y10768000D01*
X15206666Y10758476D01*
X15397142Y10577523D02*
X15282857Y10577523D01*
X15340000Y10577523D02*
X15340000Y10777523D01*
X15320952Y10748952D01*
X15301904Y10729904D01*
X15282857Y10720380D01*
%TO.C,C6*%
X17021428Y4816666D02*
X17030952Y4807142D01*
X17040476Y4778571D01*
X17040476Y4759523D01*
X17030952Y4730952D01*
X17011904Y4711904D01*
X16992857Y4702380D01*
X16954761Y4692857D01*
X16926190Y4692857D01*
X16888095Y4702380D01*
X16869047Y4711904D01*
X16850000Y4730952D01*
X16840476Y4759523D01*
X16840476Y4778571D01*
X16850000Y4807142D01*
X16859523Y4816666D01*
X16840476Y4988095D02*
X16840476Y4950000D01*
X16850000Y4930952D01*
X16859523Y4921428D01*
X16888095Y4902380D01*
X16926190Y4892857D01*
X17002380Y4892857D01*
X17021428Y4902380D01*
X17030952Y4911904D01*
X17040476Y4930952D01*
X17040476Y4969047D01*
X17030952Y4988095D01*
X17021428Y4997619D01*
X17002380Y5007142D01*
X16954761Y5007142D01*
X16935714Y4997619D01*
X16926190Y4988095D01*
X16916666Y4969047D01*
X16916666Y4930952D01*
X16926190Y4911904D01*
X16935714Y4902380D01*
X16954761Y4892857D01*
%TO.C,C9*%
X10253666Y3992571D02*
X10244142Y3983047D01*
X10215571Y3973523D01*
X10196523Y3973523D01*
X10167952Y3983047D01*
X10148904Y4002095D01*
X10139380Y4021142D01*
X10129857Y4059238D01*
X10129857Y4087809D01*
X10139380Y4125904D01*
X10148904Y4144952D01*
X10167952Y4164000D01*
X10196523Y4173523D01*
X10215571Y4173523D01*
X10244142Y4164000D01*
X10253666Y4154476D01*
X10348904Y3973523D02*
X10387000Y3973523D01*
X10406047Y3983047D01*
X10415571Y3992571D01*
X10434619Y4021142D01*
X10444142Y4059238D01*
X10444142Y4135428D01*
X10434619Y4154476D01*
X10425095Y4164000D01*
X10406047Y4173523D01*
X10367952Y4173523D01*
X10348904Y4164000D01*
X10339380Y4154476D01*
X10329857Y4135428D01*
X10329857Y4087809D01*
X10339380Y4068761D01*
X10348904Y4059238D01*
X10367952Y4049714D01*
X10406047Y4049714D01*
X10425095Y4059238D01*
X10434619Y4068761D01*
X10444142Y4087809D01*
%TO.C,JC4*%
X2383333Y7534523D02*
X2383333Y7391666D01*
X2373809Y7363095D01*
X2354761Y7344047D01*
X2326190Y7334523D01*
X2307142Y7334523D01*
X2592857Y7353571D02*
X2583333Y7344047D01*
X2554761Y7334523D01*
X2535714Y7334523D01*
X2507142Y7344047D01*
X2488095Y7363095D01*
X2478571Y7382142D01*
X2469047Y7420238D01*
X2469047Y7448809D01*
X2478571Y7486904D01*
X2488095Y7505952D01*
X2507142Y7525000D01*
X2535714Y7534523D01*
X2554761Y7534523D01*
X2583333Y7525000D01*
X2592857Y7515476D01*
X2764285Y7467857D02*
X2764285Y7334523D01*
X2716666Y7544047D02*
X2669047Y7401190D01*
X2792857Y7401190D01*
%TO.C,U1*%
X10007619Y6332523D02*
X10007619Y6170619D01*
X10017142Y6151571D01*
X10026666Y6142047D01*
X10045714Y6132523D01*
X10083809Y6132523D01*
X10102857Y6142047D01*
X10112380Y6151571D01*
X10121904Y6170619D01*
X10121904Y6332523D01*
X10321904Y6132523D02*
X10207619Y6132523D01*
X10264761Y6132523D02*
X10264761Y6332523D01*
X10245714Y6303952D01*
X10226666Y6284904D01*
X10207619Y6275380D01*
%TO.C,JC7*%
X2383333Y3779523D02*
X2383333Y3636666D01*
X2373809Y3608095D01*
X2354761Y3589047D01*
X2326190Y3579523D01*
X2307142Y3579523D01*
X2592857Y3598571D02*
X2583333Y3589047D01*
X2554761Y3579523D01*
X2535714Y3579523D01*
X2507142Y3589047D01*
X2488095Y3608095D01*
X2478571Y3627142D01*
X2469047Y3665238D01*
X2469047Y3693809D01*
X2478571Y3731904D01*
X2488095Y3750952D01*
X2507142Y3770000D01*
X2535714Y3779523D01*
X2554761Y3779523D01*
X2583333Y3770000D01*
X2592857Y3760476D01*
X2659523Y3779523D02*
X2792857Y3779523D01*
X2707142Y3579523D01*
D12*
%TO.C,C14*%
X8235836Y11451000D02*
X8020164Y11451000D01*
X8235836Y12171000D02*
X8020164Y12171000D01*
%TO.C,C5*%
X17332036Y8285200D02*
X17116364Y8285200D01*
X17332036Y7565200D02*
X17116364Y7565200D01*
%TO.C,C3*%
X15052764Y5973800D02*
X15268436Y5973800D01*
X15052764Y5253800D02*
X15268436Y5253800D01*
%TO.C,C2*%
X13369000Y8276964D02*
X13369000Y8492636D01*
X14089000Y8276964D02*
X14089000Y8492636D01*
%TO.C,C7*%
X17090000Y4062164D02*
X17090000Y4277836D01*
X17810000Y4062164D02*
X17810000Y4277836D01*
%TO.C,C16*%
X5075600Y6356236D02*
X5075600Y6140564D01*
X5795600Y6356236D02*
X5795600Y6140564D01*
%TO.C,R1*%
X10440641Y11431000D02*
X10133359Y11431000D01*
X10440641Y12191000D02*
X10133359Y12191000D01*
%TO.C,C15*%
X12160000Y6257836D02*
X12160000Y6042164D01*
X11440000Y6257836D02*
X11440000Y6042164D01*
%TO.C,C17*%
X13160000Y6257836D02*
X13160000Y6042164D01*
X12440000Y6257836D02*
X12440000Y6042164D01*
%TO.C,Y1*%
X5823200Y890000D02*
X9823200Y890000D01*
X5823200Y4190000D02*
X5823200Y890000D01*
%TO.C,C13*%
X4110400Y7741436D02*
X4110400Y7525764D01*
X4830400Y7741436D02*
X4830400Y7525764D01*
%TO.C,C10*%
X5765164Y12171000D02*
X5980836Y12171000D01*
X5765164Y11451000D02*
X5980836Y11451000D01*
%TO.C,C4*%
X15052764Y8259800D02*
X15268436Y8259800D01*
X15052764Y7539800D02*
X15268436Y7539800D01*
%TO.C,C12*%
X12084164Y11730400D02*
X12299836Y11730400D01*
X12084164Y12450400D02*
X12299836Y12450400D01*
%TO.C,JA3*%
X11950000Y1100000D02*
X11950000Y1900000D01*
X14950000Y1900000D02*
X14950000Y1300000D01*
X14950000Y1900000D02*
X15450000Y1900000D01*
X11950000Y4100000D02*
X12150000Y4100000D01*
X14950000Y4100000D02*
X14950000Y3300000D01*
X14750000Y4100000D02*
X14950000Y4100000D01*
X14950000Y1300000D02*
X14750000Y1100000D01*
X12150000Y1100000D02*
X11950000Y1100000D01*
X11950000Y3300000D02*
X11950000Y4100000D01*
X14950000Y3300000D02*
X15450000Y3300000D01*
%TO.C,C11*%
X12084164Y11383600D02*
X12299836Y11383600D01*
X12084164Y10663600D02*
X12299836Y10663600D01*
%TO.C,C8*%
X7308964Y4466000D02*
X7524636Y4466000D01*
X7308964Y5186000D02*
X7524636Y5186000D01*
%TO.C,C1*%
X15052764Y10342600D02*
X15268436Y10342600D01*
X15052764Y9622600D02*
X15268436Y9622600D01*
%TO.C,C6*%
X16115000Y4067164D02*
X16115000Y4282836D01*
X16835000Y4067164D02*
X16835000Y4282836D01*
%TO.C,C9*%
X9832836Y5161000D02*
X9617164Y5161000D01*
X9832836Y4441000D02*
X9617164Y4441000D01*
%TO.C,U1*%
X7194000Y6592800D02*
X6469000Y6592800D01*
X7194000Y10812800D02*
X6469000Y10812800D01*
X9964000Y10812800D02*
X10689000Y10812800D01*
X10689000Y6592800D02*
X10689000Y7317800D01*
X9964000Y6592800D02*
X10689000Y6592800D01*
X10689000Y10812800D02*
X10689000Y10087800D01*
X6469000Y6592800D02*
X6469000Y7317800D01*
%TD*%
%LPC*%
D13*
%TO.C,L1*%
X11794000Y8892800D03*
X12764000Y8892800D03*
%TD*%
D14*
%TO.C,C14*%
X8608000Y11811000D03*
X7648000Y11811000D03*
%TD*%
D13*
%TO.C,L7*%
X16490000Y2625000D03*
X17460000Y2625000D03*
%TD*%
%TO.C,L3*%
X14695600Y6731400D03*
X15665600Y6731400D03*
%TD*%
%TO.C,L2*%
X11794000Y7902800D03*
X12764000Y7902800D03*
%TD*%
D14*
%TO.C,C5*%
X17704200Y7925200D03*
X16744200Y7925200D03*
%TD*%
D15*
%TO.C,C3*%
X14680600Y5613800D03*
X15640600Y5613800D03*
%TD*%
D16*
%TO.C,JC5*%
X700000Y5810000D03*
D17*
X1300000Y5810000D03*
%TD*%
D18*
%TO.C,L6*%
X16800000Y6660000D03*
X16800000Y5690000D03*
%TD*%
D19*
%TO.C,C2*%
X13729000Y7904800D03*
X13729000Y8864800D03*
%TD*%
D20*
%TO.C,JA1*%
X19000000Y3550000D03*
%TD*%
D17*
%TO.C,JC8*%
X1300000Y2000000D03*
D16*
X700000Y2000000D03*
%TD*%
D19*
%TO.C,C7*%
X17450000Y3690000D03*
X17450000Y4650000D03*
%TD*%
D21*
%TO.C,C16*%
X5435600Y6728400D03*
X5435600Y5768400D03*
%TD*%
D22*
%TO.C,R1*%
X10797000Y11811000D03*
X9777000Y11811000D03*
%TD*%
D21*
%TO.C,C15*%
X11800000Y6630000D03*
X11800000Y5670000D03*
%TD*%
%TO.C,C17*%
X12800000Y6630000D03*
X12800000Y5670000D03*
%TD*%
D20*
%TO.C,JA2*%
X19000000Y1270000D03*
%TD*%
D13*
%TO.C,L4*%
X14695600Y8966600D03*
X15665600Y8966600D03*
%TD*%
D23*
%TO.C,Y1*%
X6723200Y1690000D03*
X8923200Y1690000D03*
X8923200Y3390000D03*
X6723200Y3390000D03*
%TD*%
D21*
%TO.C,C13*%
X4470400Y8113600D03*
X4470400Y7153600D03*
%TD*%
D15*
%TO.C,C10*%
X5393000Y11811000D03*
X6353000Y11811000D03*
%TD*%
%TO.C,C4*%
X14680600Y7899800D03*
X15640600Y7899800D03*
%TD*%
D17*
%TO.C,JC6*%
X1300000Y4540000D03*
D16*
X700000Y4540000D03*
%TD*%
D15*
%TO.C,C12*%
X11712000Y12090400D03*
X12672000Y12090400D03*
%TD*%
D16*
%TO.C,JC3*%
X700000Y8350000D03*
D17*
X1300000Y8350000D03*
%TD*%
D16*
%TO.C,JC2*%
X700000Y9620000D03*
D17*
X1300000Y9620000D03*
%TD*%
D24*
%TO.C,JC1*%
X1300000Y10890000D03*
D25*
X700000Y10890000D03*
%TD*%
D13*
%TO.C,L5*%
X16759200Y8941200D03*
X17729200Y8941200D03*
%TD*%
D24*
%TO.C,JA3*%
X14950000Y2600000D03*
D26*
X13450000Y4075000D03*
D24*
X11950000Y2600000D03*
D26*
X13450000Y1125000D03*
%TD*%
D15*
%TO.C,C11*%
X11712000Y11023600D03*
X12672000Y11023600D03*
%TD*%
%TO.C,C8*%
X6936800Y4826000D03*
X7896800Y4826000D03*
%TD*%
%TO.C,C1*%
X14680600Y9982600D03*
X15640600Y9982600D03*
%TD*%
D19*
%TO.C,C6*%
X16475000Y3695000D03*
X16475000Y4655000D03*
%TD*%
D14*
%TO.C,C9*%
X10205000Y4801000D03*
X9245000Y4801000D03*
%TD*%
D17*
%TO.C,JC4*%
X1300000Y7080000D03*
D16*
X700000Y7080000D03*
%TD*%
D27*
%TO.C,U1*%
X6691500Y9702800D03*
X6691500Y9202800D03*
X6691500Y8702800D03*
X6691500Y8202800D03*
X6691500Y7702800D03*
D28*
X7579000Y6815300D03*
X8079000Y6815300D03*
X8579000Y6815300D03*
X9079000Y6815300D03*
X9579000Y6815300D03*
D27*
X10466500Y7702800D03*
X10466500Y8202800D03*
X10466500Y8702800D03*
X10466500Y9202800D03*
X10466500Y9702800D03*
D28*
X9579000Y10590300D03*
X9079000Y10590300D03*
X8579000Y10590300D03*
X8079000Y10590300D03*
X7579000Y10590300D03*
D29*
X8579000Y8702800D03*
%TD*%
D17*
%TO.C,JC7*%
X1300000Y3270000D03*
D16*
X700000Y3270000D03*
%TD*%
M02*
