M48
; DRILL file {KiCad 8.0.9-8.0.9-0~ubuntu22.04.1} date 2025-06-26T12:13:22+0200
; FORMAT={-:-/ absolute / inch / decimal}
; #@! TF.CreationDate,2025-06-26T12:13:22+02:00
; #@! TF.GenerationSoftware,Kicad,Pcbnew,8.0.9-8.0.9-0~ubuntu22.04.1
; #@! TF.FileFunction,Plated,1,2,PTH
FMAT,2
INCH
; #@! TA.AperFunction,Plated,PTH,ViaDrill
T1C0.0157
; #@! TA.AperFunction,Plated,PTH,ComponentDrill
T2C0.0157
; #@! TA.AperFunction,Plated,PTH,ComponentDrill
T3C0.0236
; #@! TA.AperFunction,Plated,PTH,ComponentDrill
T4C0.0315
; #@! TA.AperFunction,Plated,PTH,ComponentDrill
T5C0.0354
; #@! TA.AperFunction,Plated,PTH,ComponentDrill
T6C0.0394
; #@! TA.AperFunction,Plated,PTH,ComponentDrill
T7C0.0402
; #@! TA.AperFunction,Plated,PTH,ComponentDrill
T8C0.0433
; #@! TA.AperFunction,Plated,PTH,ComponentDrill
T9C0.0866
; #@! TA.AperFunction,Plated,PTH,ComponentDrill
T10C0.1220
%
G90
G05
T1
X0.2036Y2.8586
X0.2283Y0.7933
X0.2323Y2.2244
X0.3622Y0.7933
X0.3622Y0.6969
X0.3661Y2.2244
X0.455Y0.785
X0.456Y0.576
X0.46Y0.8981
X0.46Y0.825
X0.4626Y0.935
X0.5Y1.6575
X0.51Y1.595
X0.5315Y0.785
X0.5689Y0.935
X0.5689Y0.8981
X0.5827Y0.825
X0.5905Y1.9995
X0.6Y1.1004
X0.6Y0.88
X0.626Y1.595
X0.6437Y2.6371
X0.6583Y1.7115
X0.6811Y1.6575
X0.685Y1.95
X0.6965Y1.8763
X0.7402Y2.6371
X0.7816Y1.5075
X0.7816Y1.4505
X0.7816Y1.4025
X0.7816Y1.3535
X0.7816Y1.3005
X0.7986Y1.2315
X0.8176Y1.5435
X0.8496Y1.5025
X0.8525Y1.5665
X0.8586Y2.8886
X0.8607Y2.2207
X0.8626Y1.2055
X0.8935Y1.5665
X0.9186Y1.2055
X0.9193Y2.1476
X0.9335Y1.5086
X0.935Y0.4961
X0.9366Y1.5675
X0.945Y1.6161
X0.9581Y1.228
X0.9764Y2.225
X0.9862Y0.4154
X0.9871Y1.542
X0.9911Y1.489
X0.9916Y1.2615
X0.9959Y1.3112
X0.998Y1.6535
X1.005Y2.165
X1.07Y1.547
X1.1184Y0.7916
X1.126Y0.4862
X1.1437Y2.1142
X1.1475Y1.8325
X1.185Y0.725
X1.185Y0.6
X1.2036Y1.9161
X1.2323Y2.1122
X1.2461Y2.5386
X1.2461Y2.4761
X1.248Y0.4154
X1.2762Y2.3535
X1.2922Y2.183
X1.33Y1.541
X1.3596Y2.7116
X1.3858Y2.0571
X1.406Y2.004
X1.4175Y1.6089
X1.4409Y2.0157
X1.441Y1.484
X1.45Y1.588
X1.4596Y2.7116
X1.4661Y2.1036
X1.4756Y1.6129
X1.484Y1.484
X1.489Y1.734
X1.495Y1.125
X1.4986Y2.5836
X1.5059Y1.565
X1.52Y2.68
X1.5273Y1.1902
X1.538Y1.09
X1.545Y1.7638
X1.5472Y1.6929
X1.5653Y1.5797
X1.5811Y1.9186
X1.5827Y1.7441
X1.5827Y1.7087
X1.5859Y1.7992
X1.5861Y2.0861
X1.5886Y2.1752
X1.61Y1.145
X1.615Y1.484
X1.6211Y2.0531
X1.65Y1.53
X1.6732Y1.7244
X1.6732Y1.6811
X1.6732Y0.2657
X1.6751Y1.7913
X1.6831Y1.9186
X1.6867Y2.5261
X1.6886Y2.0036
X1.6986Y2.4436
X1.71Y1.285
X1.71Y1.22
X1.7146Y0.2992
X1.7194Y1.5544
X1.7539Y2.0036
X1.7556Y1.4844
X1.76Y1.55
X1.8406Y0.2283
X1.8701Y0.7224
X1.8701Y0.6043
X1.875Y0.925
X1.8996Y0.0512
X1.905Y1.2
X1.9469Y0.3012
X1.9528Y1.6614
X1.9567Y1.7165
X1.9665Y0.2717
X1.9961Y0.3287
X2.0136Y2.0286
X2.0425Y2.8888
X2.11Y1.5087
X2.13Y1.57
X2.1454Y1.5111
X2.1636Y2.2786
X2.1636Y2.2236
X2.1636Y2.1736
X2.1686Y1.9936
X2.1686Y1.9286
X2.1736Y2.0536
X2.2Y1.66
X2.2Y1.57
X2.2323Y1.7874
X2.3425Y0.7795
X2.3661Y1.0945
X2.4606Y1.5315
T2
X0.5197Y2.8248
X0.5197Y0.128
X0.5404Y2.8749
X0.5404Y2.7747
X0.5404Y0.1781
X0.5404Y0.0778
X0.5906Y2.8957
X0.5906Y2.7539
X0.5906Y0.1988
X0.5906Y0.0571
X0.6407Y2.8749
X0.6407Y2.7747
X0.6407Y0.1781
X0.6407Y0.0778
X0.6614Y2.8248
X0.6614Y0.128
X2.2913Y2.8248
X2.2913Y0.128
X2.3121Y2.8749
X2.3121Y2.7747
X2.3121Y0.1781
X2.3121Y0.0778
X2.3622Y2.8957
X2.3622Y2.7539
X2.3622Y0.1988
X2.3622Y0.0571
X2.4123Y2.8749
X2.4123Y2.7747
X2.4123Y0.1781
X2.4123Y0.0778
X2.4331Y2.8248
X2.4331Y0.128
T3
X0.8956Y1.3045
T4
X1.2008Y0.8379
X1.2795Y0.8379
X1.3583Y0.8379
X1.437Y0.8379
X1.5157Y0.8379
X1.5945Y0.8379
X1.6732Y0.8379
X1.752Y0.8379
T5
X1.226Y0.1181
X1.326Y0.1181
X1.426Y0.1181
X1.526Y0.1181
X1.626Y0.1181
X1.726Y0.1181
T6
X0.7661Y0.637
X0.7661Y0.537
X0.7661Y0.437
X0.7661Y0.337
X0.7661Y0.237
X0.7661Y0.137
X1.1051Y2.8401
X1.2051Y2.8401
X1.3051Y2.8401
X1.4051Y2.8401
X1.5051Y2.8401
X1.6051Y2.8401
X1.6299Y2.6586
X1.6299Y2.5586
X1.6299Y2.3986
X1.6299Y2.2986
X1.7636Y1.8811
X1.7636Y1.7361
X1.8636Y1.8811
X1.8636Y1.7361
X2.1866Y0.637
X2.1866Y0.537
X2.1866Y0.437
X2.1866Y0.337
X2.1866Y0.237
X2.1866Y0.137
X2.3181Y0.3236
X2.4181Y0.3236
X2.5181Y0.3236
X2.5586Y2.8211
X2.6181Y0.3236
X2.6586Y2.8211
X2.7181Y0.3236
X2.7586Y2.8211
X2.8181Y0.3236
T7
X0.363Y2.5941
X0.363Y0.5472
X2.5898Y2.5945
X2.5898Y0.5476
T8
X0.1558Y0.3073
X0.246Y0.3073
X0.3362Y0.3073
T9
X0.5906Y2.8248
X0.5906Y0.128
X2.3622Y2.8248
X2.3622Y0.128
T10
X0.9252Y2.5748
X0.9252Y0.8819
X2.0276Y2.5748
X2.0276Y0.8819
M30
