M48
; DRILL file {KiCad 6.0.11-2627ca5db0~126~ubuntu22.04.1} date Fr 09 Feb 2024 10:12:00 CET
; FORMAT={-:-/ absolute / inch / decimal}
; #@! TF.CreationDate,2024-02-09T10:12:00+01:00
; #@! TF.GenerationSoftware,Kicad,Pcbnew,6.0.11-2627ca5db0~126~ubuntu22.04.1
; #@! TF.FileFunction,Plated,1,2,PTH
FMAT,2
INCH
; #@! TA.AperFunction,Plated,PTH,ViaDrill
T1C0.0157
; #@! TA.AperFunction,Plated,PTH,ComponentDrill
T2C0.0283
; #@! TA.AperFunction,Plated,PTH,ComponentDrill
T3C0.0394
%
G90
G05
T1
X0.1673Y0.2476
X0.2087Y0.4213
X0.2087Y0.3228
X0.2953Y0.4488
X0.3189Y0.3858
X0.3459Y0.5943
X0.3487Y0.563
X0.3504Y0.2992
X0.374Y0.4528
X0.3819Y0.2559
X0.4213Y0.3543
X0.4291Y0.5945
X0.4291Y0.563
X0.4325Y0.4172
X0.4331Y0.4724
X0.4695Y0.2628
X0.4824Y0.4597
X0.5079Y0.3701
X0.5519Y0.3343
X0.6051Y0.2689
X0.6061Y0.3191
X0.6701Y0.2756
X0.6939Y0.3012
X0.7283Y0.3386
X0.75Y0.5925
X0.75Y0.3917
X0.8386Y0.3386
X0.8976Y0.3504
X0.961Y0.3161
X1.0307Y0.2465
T2
X0.753Y0.2059
X0.753Y0.1559
X0.753Y0.1059
X0.753Y0.0559
T3
X0.0984Y0.3787
X0.0984Y0.2787
X0.0984Y0.1787
X0.0984Y0.0787
X1.0984Y0.3787
X1.0984Y0.2787
X1.0984Y0.1787
X1.0984Y0.0787
T0
M30
