%TF.GenerationSoftware,KiCad,Pcbnew,6.0.11-2627ca5db0~126~ubuntu22.04.1*%
%TF.CreationDate,2023-07-25T17:20:16+02:00*%
%TF.ProjectId,HB-UNI-SEN-BATT_E07-868MS10_FUEL4EP,48422d55-4e49-42d5-9345-4e2d42415454,1.2*%
%TF.SameCoordinates,Original*%
%TF.FileFunction,Legend,Top*%
%TF.FilePolarity,Positive*%
%FSLAX46Y46*%
G04 Gerber Fmt 4.6, Leading zero omitted, Abs format (unit mm)*
G04 Created by KiCad (PCBNEW 6.0.11-2627ca5db0~126~ubuntu22.04.1) date 2023-07-25 17:20:16*
%MOMM*%
%LPD*%
G01*
G04 APERTURE LIST*
%ADD10C,0.200000*%
%ADD11C,0.150000*%
%ADD12C,0.152400*%
%ADD13C,0.100000*%
%ADD14C,0.300000*%
%ADD15C,0.120000*%
%ADD16C,0.800000*%
%ADD17C,0.010000*%
%ADD18R,1.800000X1.800000*%
%ADD19C,1.800000*%
%ADD20R,1.700000X1.700000*%
%ADD21O,1.700000X1.700000*%
%ADD22C,2.640000*%
%ADD23R,2.000000X2.000000*%
%ADD24C,2.000000*%
%ADD25R,1.200000X1.200000*%
%ADD26C,1.200000*%
%ADD27C,1.600000*%
%ADD28O,1.600000X1.600000*%
%ADD29R,1.717500X1.800000*%
%ADD30O,1.717500X1.800000*%
%ADD31C,1.000000*%
%ADD32R,2.170000X1.000000*%
%ADD33C,3.000000*%
%ADD34R,1.500000X1.000000*%
%ADD35C,0.700000*%
%ADD36C,4.400000*%
%ADD37R,1.350000X1.350000*%
%ADD38O,1.350000X1.350000*%
G04 APERTURE END LIST*
D10*
X37430000Y-73130000D02*
X37430000Y-55350000D01*
X22190000Y-73130000D02*
X37430000Y-73130000D01*
X22190000Y-55350000D02*
X22190000Y-73130000D01*
X37430000Y-55350000D02*
X22190000Y-55350000D01*
X37430000Y-73130000D02*
X52670000Y-73130000D01*
X37430000Y-55350000D02*
X37430000Y-73130000D01*
X52670000Y-55350000D02*
X37430000Y-55350000D01*
X52670000Y-73130000D02*
X52670000Y-55350000D01*
D11*
X30672595Y-70151904D02*
X30839261Y-70951904D01*
X31205928Y-70151904D01*
X31839261Y-70875714D02*
X31796404Y-70913809D01*
X31677357Y-70951904D01*
X31601166Y-70951904D01*
X31491642Y-70913809D01*
X31424976Y-70837619D01*
X31396404Y-70761428D01*
X31377357Y-70609047D01*
X31391642Y-70494761D01*
X31448785Y-70342380D01*
X31496404Y-70266190D01*
X31582119Y-70190000D01*
X31701166Y-70151904D01*
X31777357Y-70151904D01*
X31886880Y-70190000D01*
X31920214Y-70228095D01*
X32639261Y-70875714D02*
X32596404Y-70913809D01*
X32477357Y-70951904D01*
X32401166Y-70951904D01*
X32291642Y-70913809D01*
X32224976Y-70837619D01*
X32196404Y-70761428D01*
X32177357Y-70609047D01*
X32191642Y-70494761D01*
X32248785Y-70342380D01*
X32296404Y-70266190D01*
X32382119Y-70190000D01*
X32501166Y-70151904D01*
X32577357Y-70151904D01*
X32686880Y-70190000D01*
X32720214Y-70228095D01*
X31124976Y-67650000D02*
X31053547Y-67611904D01*
X30939261Y-67611904D01*
X30820214Y-67650000D01*
X30734500Y-67726190D01*
X30686880Y-67802380D01*
X30629738Y-67954761D01*
X30615452Y-68069047D01*
X30634500Y-68221428D01*
X30663071Y-68297619D01*
X30729738Y-68373809D01*
X30839261Y-68411904D01*
X30915452Y-68411904D01*
X31034500Y-68373809D01*
X31077357Y-68335714D01*
X31110690Y-68069047D01*
X30958309Y-68069047D01*
X31410690Y-68411904D02*
X31510690Y-67611904D01*
X31867833Y-68411904D01*
X31967833Y-67611904D01*
X32248785Y-68411904D02*
X32348785Y-67611904D01*
X32539261Y-67611904D01*
X32648785Y-67650000D01*
X32715452Y-67726190D01*
X32744023Y-67802380D01*
X32763071Y-67954761D01*
X32748785Y-68069047D01*
X32691642Y-68221428D01*
X32644023Y-68297619D01*
X32558309Y-68373809D01*
X32439261Y-68411904D01*
X32248785Y-68411904D01*
X30691642Y-65833809D02*
X30801166Y-65871904D01*
X30991642Y-65871904D01*
X31072595Y-65833809D01*
X31115452Y-65795714D01*
X31163071Y-65719523D01*
X31172595Y-65643333D01*
X31144023Y-65567142D01*
X31110690Y-65529047D01*
X31039261Y-65490952D01*
X30891642Y-65452857D01*
X30820214Y-65414761D01*
X30786880Y-65376666D01*
X30758309Y-65300476D01*
X30767833Y-65224285D01*
X30815452Y-65148095D01*
X30858309Y-65110000D01*
X30939261Y-65071904D01*
X31129738Y-65071904D01*
X31239261Y-65110000D01*
X31953547Y-65795714D02*
X31910690Y-65833809D01*
X31791642Y-65871904D01*
X31715452Y-65871904D01*
X31605928Y-65833809D01*
X31539261Y-65757619D01*
X31510690Y-65681428D01*
X31491642Y-65529047D01*
X31505928Y-65414761D01*
X31563071Y-65262380D01*
X31610690Y-65186190D01*
X31696404Y-65110000D01*
X31815452Y-65071904D01*
X31891642Y-65071904D01*
X32001166Y-65110000D01*
X32034500Y-65148095D01*
X32667833Y-65871904D02*
X32286880Y-65871904D01*
X32386880Y-65071904D01*
X30672595Y-63293809D02*
X30782119Y-63331904D01*
X30972595Y-63331904D01*
X31053547Y-63293809D01*
X31096404Y-63255714D01*
X31144023Y-63179523D01*
X31153547Y-63103333D01*
X31124976Y-63027142D01*
X31091642Y-62989047D01*
X31020214Y-62950952D01*
X30872595Y-62912857D01*
X30801166Y-62874761D01*
X30767833Y-62836666D01*
X30739261Y-62760476D01*
X30748785Y-62684285D01*
X30796404Y-62608095D01*
X30839261Y-62570000D01*
X30920214Y-62531904D01*
X31110690Y-62531904D01*
X31220214Y-62570000D01*
X31467833Y-63331904D02*
X31567833Y-62531904D01*
X31758309Y-62531904D01*
X31867833Y-62570000D01*
X31934500Y-62646190D01*
X31963071Y-62722380D01*
X31982119Y-62874761D01*
X31967833Y-62989047D01*
X31910690Y-63141428D01*
X31863071Y-63217619D01*
X31777357Y-63293809D01*
X31658309Y-63331904D01*
X31467833Y-63331904D01*
X32258309Y-63103333D02*
X32639261Y-63103333D01*
X32153547Y-63331904D02*
X32520214Y-62531904D01*
X32686880Y-63331904D01*
X42102595Y-63293809D02*
X42212119Y-63331904D01*
X42402595Y-63331904D01*
X42483547Y-63293809D01*
X42526404Y-63255714D01*
X42574023Y-63179523D01*
X42583547Y-63103333D01*
X42554976Y-63027142D01*
X42521642Y-62989047D01*
X42450214Y-62950952D01*
X42302595Y-62912857D01*
X42231166Y-62874761D01*
X42197833Y-62836666D01*
X42169261Y-62760476D01*
X42178785Y-62684285D01*
X42226404Y-62608095D01*
X42269261Y-62570000D01*
X42350214Y-62531904D01*
X42540690Y-62531904D01*
X42650214Y-62570000D01*
X42897833Y-63331904D02*
X42997833Y-62531904D01*
X43188309Y-62531904D01*
X43297833Y-62570000D01*
X43364500Y-62646190D01*
X43393071Y-62722380D01*
X43412119Y-62874761D01*
X43397833Y-62989047D01*
X43340690Y-63141428D01*
X43293071Y-63217619D01*
X43207357Y-63293809D01*
X43088309Y-63331904D01*
X42897833Y-63331904D01*
X43688309Y-63103333D02*
X44069261Y-63103333D01*
X43583547Y-63331904D02*
X43950214Y-62531904D01*
X44116880Y-63331904D01*
X42121642Y-65833809D02*
X42231166Y-65871904D01*
X42421642Y-65871904D01*
X42502595Y-65833809D01*
X42545452Y-65795714D01*
X42593071Y-65719523D01*
X42602595Y-65643333D01*
X42574023Y-65567142D01*
X42540690Y-65529047D01*
X42469261Y-65490952D01*
X42321642Y-65452857D01*
X42250214Y-65414761D01*
X42216880Y-65376666D01*
X42188309Y-65300476D01*
X42197833Y-65224285D01*
X42245452Y-65148095D01*
X42288309Y-65110000D01*
X42369261Y-65071904D01*
X42559738Y-65071904D01*
X42669261Y-65110000D01*
X43383547Y-65795714D02*
X43340690Y-65833809D01*
X43221642Y-65871904D01*
X43145452Y-65871904D01*
X43035928Y-65833809D01*
X42969261Y-65757619D01*
X42940690Y-65681428D01*
X42921642Y-65529047D01*
X42935928Y-65414761D01*
X42993071Y-65262380D01*
X43040690Y-65186190D01*
X43126404Y-65110000D01*
X43245452Y-65071904D01*
X43321642Y-65071904D01*
X43431166Y-65110000D01*
X43464500Y-65148095D01*
X44097833Y-65871904D02*
X43716880Y-65871904D01*
X43816880Y-65071904D01*
X42554976Y-67650000D02*
X42483547Y-67611904D01*
X42369261Y-67611904D01*
X42250214Y-67650000D01*
X42164500Y-67726190D01*
X42116880Y-67802380D01*
X42059738Y-67954761D01*
X42045452Y-68069047D01*
X42064500Y-68221428D01*
X42093071Y-68297619D01*
X42159738Y-68373809D01*
X42269261Y-68411904D01*
X42345452Y-68411904D01*
X42464500Y-68373809D01*
X42507357Y-68335714D01*
X42540690Y-68069047D01*
X42388309Y-68069047D01*
X42840690Y-68411904D02*
X42940690Y-67611904D01*
X43297833Y-68411904D01*
X43397833Y-67611904D01*
X43678785Y-68411904D02*
X43778785Y-67611904D01*
X43969261Y-67611904D01*
X44078785Y-67650000D01*
X44145452Y-67726190D01*
X44174023Y-67802380D01*
X44193071Y-67954761D01*
X44178785Y-68069047D01*
X44121642Y-68221428D01*
X44074023Y-68297619D01*
X43988309Y-68373809D01*
X43869261Y-68411904D01*
X43678785Y-68411904D01*
X66076605Y-69268416D02*
X66713001Y-68773441D01*
X66446994Y-69315556D01*
X67090125Y-69150565D01*
X66453729Y-69645539D01*
X66723103Y-69914913D02*
X67359499Y-69419939D01*
X66995844Y-70133780D02*
X67046351Y-70238162D01*
X67181038Y-70372849D01*
X67265218Y-70403154D01*
X67322460Y-70406521D01*
X67410006Y-70386318D01*
X67470616Y-70339177D01*
X67504287Y-70265099D01*
X67507654Y-70214592D01*
X67484084Y-70137147D01*
X67406639Y-70005827D01*
X67383069Y-69928382D01*
X67386436Y-69877874D01*
X67420108Y-69803796D01*
X67480717Y-69756656D01*
X67568264Y-69736453D01*
X67625506Y-69739820D01*
X67709685Y-69770125D01*
X67844372Y-69904812D01*
X67894880Y-70009194D01*
X68275370Y-70335810D02*
X68383120Y-70443560D01*
X68406690Y-70521005D01*
X68399956Y-70622020D01*
X68305675Y-70743238D01*
X68093543Y-70908230D01*
X67945387Y-70975573D01*
X67830903Y-70968839D01*
X67746724Y-70938535D01*
X67638974Y-70830785D01*
X67615404Y-70753340D01*
X67622138Y-70652325D01*
X67716419Y-70531106D01*
X67928551Y-70366115D01*
X68076707Y-70298771D01*
X68191191Y-70305506D01*
X68275370Y-70335810D01*
X26881642Y-65833809D02*
X26991166Y-65871904D01*
X27181642Y-65871904D01*
X27262595Y-65833809D01*
X27305452Y-65795714D01*
X27353071Y-65719523D01*
X27362595Y-65643333D01*
X27334023Y-65567142D01*
X27300690Y-65529047D01*
X27229261Y-65490952D01*
X27081642Y-65452857D01*
X27010214Y-65414761D01*
X26976880Y-65376666D01*
X26948309Y-65300476D01*
X26957833Y-65224285D01*
X27005452Y-65148095D01*
X27048309Y-65110000D01*
X27129261Y-65071904D01*
X27319738Y-65071904D01*
X27429261Y-65110000D01*
X28143547Y-65795714D02*
X28100690Y-65833809D01*
X27981642Y-65871904D01*
X27905452Y-65871904D01*
X27795928Y-65833809D01*
X27729261Y-65757619D01*
X27700690Y-65681428D01*
X27681642Y-65529047D01*
X27695928Y-65414761D01*
X27753071Y-65262380D01*
X27800690Y-65186190D01*
X27886404Y-65110000D01*
X28005452Y-65071904D01*
X28081642Y-65071904D01*
X28191166Y-65110000D01*
X28224500Y-65148095D01*
X28857833Y-65871904D02*
X28476880Y-65871904D01*
X28576880Y-65071904D01*
D12*
X30184347Y-51056190D02*
X30106938Y-51094895D01*
X29952119Y-51094895D01*
X29874709Y-51056190D01*
X29836004Y-50978780D01*
X29836004Y-50669142D01*
X29874709Y-50591733D01*
X29952119Y-50553028D01*
X30106938Y-50553028D01*
X30184347Y-50591733D01*
X30223052Y-50669142D01*
X30223052Y-50746552D01*
X29836004Y-50823961D01*
X30571395Y-51094895D02*
X30571395Y-50282095D01*
X30881033Y-50282095D01*
X30958442Y-50320800D01*
X30997147Y-50359504D01*
X31035852Y-50436914D01*
X31035852Y-50553028D01*
X30997147Y-50630438D01*
X30958442Y-50669142D01*
X30881033Y-50707847D01*
X30571395Y-50707847D01*
X31732538Y-51094895D02*
X31732538Y-50669142D01*
X31693833Y-50591733D01*
X31616423Y-50553028D01*
X31461604Y-50553028D01*
X31384195Y-50591733D01*
X31732538Y-51056190D02*
X31655128Y-51094895D01*
X31461604Y-51094895D01*
X31384195Y-51056190D01*
X31345490Y-50978780D01*
X31345490Y-50901371D01*
X31384195Y-50823961D01*
X31461604Y-50785257D01*
X31655128Y-50785257D01*
X31732538Y-50746552D01*
X32119585Y-50553028D02*
X32119585Y-51365828D01*
X32119585Y-50591733D02*
X32196995Y-50553028D01*
X32351814Y-50553028D01*
X32429223Y-50591733D01*
X32467928Y-50630438D01*
X32506633Y-50707847D01*
X32506633Y-50940076D01*
X32467928Y-51017485D01*
X32429223Y-51056190D01*
X32351814Y-51094895D01*
X32196995Y-51094895D01*
X32119585Y-51056190D01*
X33164614Y-51056190D02*
X33087204Y-51094895D01*
X32932385Y-51094895D01*
X32854976Y-51056190D01*
X32816271Y-50978780D01*
X32816271Y-50669142D01*
X32854976Y-50591733D01*
X32932385Y-50553028D01*
X33087204Y-50553028D01*
X33164614Y-50591733D01*
X33203319Y-50669142D01*
X33203319Y-50746552D01*
X32816271Y-50823961D01*
X33551661Y-51094895D02*
X33551661Y-50553028D01*
X33551661Y-50707847D02*
X33590366Y-50630438D01*
X33629071Y-50591733D01*
X33706480Y-50553028D01*
X33783890Y-50553028D01*
X35022442Y-51056190D02*
X34945033Y-51094895D01*
X34790214Y-51094895D01*
X34712804Y-51056190D01*
X34674100Y-51017485D01*
X34635395Y-50940076D01*
X34635395Y-50707847D01*
X34674100Y-50630438D01*
X34712804Y-50591733D01*
X34790214Y-50553028D01*
X34945033Y-50553028D01*
X35022442Y-50591733D01*
X35486900Y-51094895D02*
X35409490Y-51056190D01*
X35370785Y-51017485D01*
X35332080Y-50940076D01*
X35332080Y-50707847D01*
X35370785Y-50630438D01*
X35409490Y-50591733D01*
X35486900Y-50553028D01*
X35603014Y-50553028D01*
X35680423Y-50591733D01*
X35719128Y-50630438D01*
X35757833Y-50707847D01*
X35757833Y-50940076D01*
X35719128Y-51017485D01*
X35680423Y-51056190D01*
X35603014Y-51094895D01*
X35486900Y-51094895D01*
X36106176Y-50553028D02*
X36106176Y-51094895D01*
X36106176Y-50630438D02*
X36144880Y-50591733D01*
X36222290Y-50553028D01*
X36338404Y-50553028D01*
X36415814Y-50591733D01*
X36454519Y-50669142D01*
X36454519Y-51094895D01*
X36841566Y-50553028D02*
X36841566Y-51094895D01*
X36841566Y-50630438D02*
X36880271Y-50591733D01*
X36957680Y-50553028D01*
X37073795Y-50553028D01*
X37151204Y-50591733D01*
X37189909Y-50669142D01*
X37189909Y-51094895D01*
X37886595Y-51056190D02*
X37809185Y-51094895D01*
X37654366Y-51094895D01*
X37576957Y-51056190D01*
X37538252Y-50978780D01*
X37538252Y-50669142D01*
X37576957Y-50591733D01*
X37654366Y-50553028D01*
X37809185Y-50553028D01*
X37886595Y-50591733D01*
X37925300Y-50669142D01*
X37925300Y-50746552D01*
X37538252Y-50823961D01*
X38621985Y-51056190D02*
X38544576Y-51094895D01*
X38389757Y-51094895D01*
X38312347Y-51056190D01*
X38273642Y-51017485D01*
X38234938Y-50940076D01*
X38234938Y-50707847D01*
X38273642Y-50630438D01*
X38312347Y-50591733D01*
X38389757Y-50553028D01*
X38544576Y-50553028D01*
X38621985Y-50591733D01*
X38854214Y-50553028D02*
X39163852Y-50553028D01*
X38970328Y-50282095D02*
X38970328Y-50978780D01*
X39009033Y-51056190D01*
X39086442Y-51094895D01*
X39163852Y-51094895D01*
X39550900Y-51094895D02*
X39473490Y-51056190D01*
X39434785Y-51017485D01*
X39396080Y-50940076D01*
X39396080Y-50707847D01*
X39434785Y-50630438D01*
X39473490Y-50591733D01*
X39550900Y-50553028D01*
X39667014Y-50553028D01*
X39744423Y-50591733D01*
X39783128Y-50630438D01*
X39821833Y-50707847D01*
X39821833Y-50940076D01*
X39783128Y-51017485D01*
X39744423Y-51056190D01*
X39667014Y-51094895D01*
X39550900Y-51094895D01*
X40170176Y-51094895D02*
X40170176Y-50553028D01*
X40170176Y-50707847D02*
X40208880Y-50630438D01*
X40247585Y-50591733D01*
X40324995Y-50553028D01*
X40402404Y-50553028D01*
D11*
X64055666Y-1055166D02*
X64289000Y-1755166D01*
X64522333Y-1055166D01*
X65155666Y-1688500D02*
X65122333Y-1721833D01*
X65022333Y-1755166D01*
X64955666Y-1755166D01*
X64855666Y-1721833D01*
X64789000Y-1655166D01*
X64755666Y-1588500D01*
X64722333Y-1455166D01*
X64722333Y-1355166D01*
X64755666Y-1221833D01*
X64789000Y-1155166D01*
X64855666Y-1088500D01*
X64955666Y-1055166D01*
X65022333Y-1055166D01*
X65122333Y-1088500D01*
X65155666Y-1121833D01*
X65855666Y-1688500D02*
X65822333Y-1721833D01*
X65722333Y-1755166D01*
X65655666Y-1755166D01*
X65555666Y-1721833D01*
X65489000Y-1655166D01*
X65455666Y-1588500D01*
X65422333Y-1455166D01*
X65422333Y-1355166D01*
X65455666Y-1221833D01*
X65489000Y-1155166D01*
X65555666Y-1088500D01*
X65655666Y-1055166D01*
X65722333Y-1055166D01*
X65822333Y-1088500D01*
X65855666Y-1121833D01*
X42102595Y-70151904D02*
X42269261Y-70951904D01*
X42635928Y-70151904D01*
X43269261Y-70875714D02*
X43226404Y-70913809D01*
X43107357Y-70951904D01*
X43031166Y-70951904D01*
X42921642Y-70913809D01*
X42854976Y-70837619D01*
X42826404Y-70761428D01*
X42807357Y-70609047D01*
X42821642Y-70494761D01*
X42878785Y-70342380D01*
X42926404Y-70266190D01*
X43012119Y-70190000D01*
X43131166Y-70151904D01*
X43207357Y-70151904D01*
X43316880Y-70190000D01*
X43350214Y-70228095D01*
X44069261Y-70875714D02*
X44026404Y-70913809D01*
X43907357Y-70951904D01*
X43831166Y-70951904D01*
X43721642Y-70913809D01*
X43654976Y-70837619D01*
X43626404Y-70761428D01*
X43607357Y-70609047D01*
X43621642Y-70494761D01*
X43678785Y-70342380D01*
X43726404Y-70266190D01*
X43812119Y-70190000D01*
X43931166Y-70151904D01*
X44007357Y-70151904D01*
X44116880Y-70190000D01*
X44150214Y-70228095D01*
X67148047Y-1446428D02*
X67909952Y-1446428D01*
X67529000Y-1827380D02*
X67529000Y-1065476D01*
X46828047Y-2716428D02*
X47589952Y-2716428D01*
X50781404Y-33653333D02*
X51162357Y-33653333D01*
X50676642Y-33881904D02*
X51043309Y-33081904D01*
X51209976Y-33881904D01*
X51895690Y-33881904D02*
X51438547Y-33881904D01*
X51667119Y-33881904D02*
X51767119Y-33081904D01*
X51676642Y-33196190D01*
X51590928Y-33272380D01*
X51509976Y-33310476D01*
X45912595Y-63293809D02*
X46022119Y-63331904D01*
X46212595Y-63331904D01*
X46293547Y-63293809D01*
X46336404Y-63255714D01*
X46384023Y-63179523D01*
X46393547Y-63103333D01*
X46364976Y-63027142D01*
X46331642Y-62989047D01*
X46260214Y-62950952D01*
X46112595Y-62912857D01*
X46041166Y-62874761D01*
X46007833Y-62836666D01*
X45979261Y-62760476D01*
X45988785Y-62684285D01*
X46036404Y-62608095D01*
X46079261Y-62570000D01*
X46160214Y-62531904D01*
X46350690Y-62531904D01*
X46460214Y-62570000D01*
X46707833Y-63331904D02*
X46807833Y-62531904D01*
X46998309Y-62531904D01*
X47107833Y-62570000D01*
X47174500Y-62646190D01*
X47203071Y-62722380D01*
X47222119Y-62874761D01*
X47207833Y-62989047D01*
X47150690Y-63141428D01*
X47103071Y-63217619D01*
X47017357Y-63293809D01*
X46898309Y-63331904D01*
X46707833Y-63331904D01*
X47498309Y-63103333D02*
X47879261Y-63103333D01*
X47393547Y-63331904D02*
X47760214Y-62531904D01*
X47926880Y-63331904D01*
D13*
X30065685Y-54509390D02*
X30065685Y-54009390D01*
X30232352Y-54366533D01*
X30399019Y-54009390D01*
X30399019Y-54509390D01*
X30637114Y-54509390D02*
X30637114Y-54009390D01*
X30851400Y-54485580D02*
X30922828Y-54509390D01*
X31041876Y-54509390D01*
X31089495Y-54485580D01*
X31113304Y-54461771D01*
X31137114Y-54414152D01*
X31137114Y-54366533D01*
X31113304Y-54318914D01*
X31089495Y-54295104D01*
X31041876Y-54271295D01*
X30946638Y-54247485D01*
X30899019Y-54223676D01*
X30875209Y-54199866D01*
X30851400Y-54152247D01*
X30851400Y-54104628D01*
X30875209Y-54057009D01*
X30899019Y-54033200D01*
X30946638Y-54009390D01*
X31065685Y-54009390D01*
X31137114Y-54033200D01*
X31446638Y-54009390D02*
X31541876Y-54009390D01*
X31589495Y-54033200D01*
X31637114Y-54080819D01*
X31660923Y-54176057D01*
X31660923Y-54342723D01*
X31637114Y-54437961D01*
X31589495Y-54485580D01*
X31541876Y-54509390D01*
X31446638Y-54509390D01*
X31399019Y-54485580D01*
X31351400Y-54437961D01*
X31327590Y-54342723D01*
X31327590Y-54176057D01*
X31351400Y-54080819D01*
X31399019Y-54033200D01*
X31446638Y-54009390D01*
X48907142Y-7259857D02*
X48850000Y-7288428D01*
X48735714Y-7288428D01*
X48678571Y-7259857D01*
X48650000Y-7231285D01*
X48621428Y-7174142D01*
X48621428Y-7002714D01*
X48650000Y-6945571D01*
X48678571Y-6917000D01*
X48735714Y-6888428D01*
X48850000Y-6888428D01*
X48907142Y-6917000D01*
X49421428Y-6888428D02*
X49421428Y-7288428D01*
X49164285Y-6888428D02*
X49164285Y-7202714D01*
X49192857Y-7259857D01*
X49250000Y-7288428D01*
X49335714Y-7288428D01*
X49392857Y-7259857D01*
X49421428Y-7231285D01*
X49621428Y-6888428D02*
X49850000Y-6888428D01*
X49707142Y-6688428D02*
X49707142Y-7202714D01*
X49735714Y-7259857D01*
X49792857Y-7288428D01*
X49850000Y-7288428D01*
X50678571Y-6688428D02*
X50678571Y-7117000D01*
X50650000Y-7202714D01*
X50592857Y-7259857D01*
X50507142Y-7288428D01*
X50450000Y-7288428D01*
X50964285Y-7288428D02*
X50964285Y-6688428D01*
X51192857Y-6688428D01*
X51250000Y-6717000D01*
X51278571Y-6745571D01*
X51307142Y-6802714D01*
X51307142Y-6888428D01*
X51278571Y-6945571D01*
X51250000Y-6974142D01*
X51192857Y-7002714D01*
X50964285Y-7002714D01*
X51535714Y-6745571D02*
X51564285Y-6717000D01*
X51621428Y-6688428D01*
X51764285Y-6688428D01*
X51821428Y-6717000D01*
X51850000Y-6745571D01*
X51878571Y-6802714D01*
X51878571Y-6859857D01*
X51850000Y-6945571D01*
X51507142Y-7288428D01*
X51878571Y-7288428D01*
X48150000Y-7854428D02*
X48378571Y-7854428D01*
X48235714Y-8254428D02*
X48235714Y-7740142D01*
X48264285Y-7683000D01*
X48321428Y-7654428D01*
X48378571Y-7654428D01*
X48664285Y-8254428D02*
X48607142Y-8225857D01*
X48578571Y-8197285D01*
X48550000Y-8140142D01*
X48550000Y-7968714D01*
X48578571Y-7911571D01*
X48607142Y-7883000D01*
X48664285Y-7854428D01*
X48750000Y-7854428D01*
X48807142Y-7883000D01*
X48835714Y-7911571D01*
X48864285Y-7968714D01*
X48864285Y-8140142D01*
X48835714Y-8197285D01*
X48807142Y-8225857D01*
X48750000Y-8254428D01*
X48664285Y-8254428D01*
X49121428Y-8254428D02*
X49121428Y-7854428D01*
X49121428Y-7968714D02*
X49150000Y-7911571D01*
X49178571Y-7883000D01*
X49235714Y-7854428D01*
X49292857Y-7854428D01*
X50207142Y-8254428D02*
X50207142Y-7940142D01*
X50178571Y-7883000D01*
X50121428Y-7854428D01*
X50007142Y-7854428D01*
X49950000Y-7883000D01*
X50207142Y-8225857D02*
X50150000Y-8254428D01*
X50007142Y-8254428D01*
X49950000Y-8225857D01*
X49921428Y-8168714D01*
X49921428Y-8111571D01*
X49950000Y-8054428D01*
X50007142Y-8025857D01*
X50150000Y-8025857D01*
X50207142Y-7997285D01*
X50750000Y-8225857D02*
X50692857Y-8254428D01*
X50578571Y-8254428D01*
X50521428Y-8225857D01*
X50492857Y-8197285D01*
X50464285Y-8140142D01*
X50464285Y-7968714D01*
X50492857Y-7911571D01*
X50521428Y-7883000D01*
X50578571Y-7854428D01*
X50692857Y-7854428D01*
X50750000Y-7883000D01*
X51264285Y-8225857D02*
X51207142Y-8254428D01*
X51092857Y-8254428D01*
X51035714Y-8225857D01*
X51007142Y-8197285D01*
X50978571Y-8140142D01*
X50978571Y-7968714D01*
X51007142Y-7911571D01*
X51035714Y-7883000D01*
X51092857Y-7854428D01*
X51207142Y-7854428D01*
X51264285Y-7883000D01*
X51778571Y-7854428D02*
X51778571Y-8254428D01*
X51521428Y-7854428D02*
X51521428Y-8168714D01*
X51550000Y-8225857D01*
X51607142Y-8254428D01*
X51692857Y-8254428D01*
X51750000Y-8225857D01*
X51778571Y-8197285D01*
X52035714Y-8225857D02*
X52092857Y-8254428D01*
X52207142Y-8254428D01*
X52264285Y-8225857D01*
X52292857Y-8168714D01*
X52292857Y-8140142D01*
X52264285Y-8083000D01*
X52207142Y-8054428D01*
X52121428Y-8054428D01*
X52064285Y-8025857D01*
X52035714Y-7968714D01*
X52035714Y-7940142D01*
X52064285Y-7883000D01*
X52121428Y-7854428D01*
X52207142Y-7854428D01*
X52264285Y-7883000D01*
X36072785Y-54496690D02*
X36072785Y-53996690D01*
X36239452Y-54353833D01*
X36406119Y-53996690D01*
X36406119Y-54496690D01*
X36739452Y-53996690D02*
X36834690Y-53996690D01*
X36882309Y-54020500D01*
X36929928Y-54068119D01*
X36953738Y-54163357D01*
X36953738Y-54330023D01*
X36929928Y-54425261D01*
X36882309Y-54472880D01*
X36834690Y-54496690D01*
X36739452Y-54496690D01*
X36691833Y-54472880D01*
X36644214Y-54425261D01*
X36620404Y-54330023D01*
X36620404Y-54163357D01*
X36644214Y-54068119D01*
X36691833Y-54020500D01*
X36739452Y-53996690D01*
X37144214Y-54472880D02*
X37215642Y-54496690D01*
X37334690Y-54496690D01*
X37382309Y-54472880D01*
X37406119Y-54449071D01*
X37429928Y-54401452D01*
X37429928Y-54353833D01*
X37406119Y-54306214D01*
X37382309Y-54282404D01*
X37334690Y-54258595D01*
X37239452Y-54234785D01*
X37191833Y-54210976D01*
X37168023Y-54187166D01*
X37144214Y-54139547D01*
X37144214Y-54091928D01*
X37168023Y-54044309D01*
X37191833Y-54020500D01*
X37239452Y-53996690D01*
X37358500Y-53996690D01*
X37429928Y-54020500D01*
X37644214Y-54496690D02*
X37644214Y-53996690D01*
D11*
X46955047Y-6653428D02*
X47716952Y-6653428D01*
X47336000Y-7034380D02*
X47336000Y-6272476D01*
X67101500Y-5722333D02*
X67034833Y-5755666D01*
X66901500Y-5755666D01*
X66834833Y-5722333D01*
X66801500Y-5689000D01*
X66768166Y-5622333D01*
X66768166Y-5422333D01*
X66801500Y-5355666D01*
X66834833Y-5322333D01*
X66901500Y-5289000D01*
X67034833Y-5289000D01*
X67101500Y-5322333D01*
X67401500Y-5755666D02*
X67401500Y-5055666D01*
X67701500Y-5755666D02*
X67701500Y-5389000D01*
X67668166Y-5322333D01*
X67601500Y-5289000D01*
X67501500Y-5289000D01*
X67434833Y-5322333D01*
X67401500Y-5355666D01*
X68334833Y-5755666D02*
X68334833Y-5389000D01*
X68301500Y-5322333D01*
X68234833Y-5289000D01*
X68101500Y-5289000D01*
X68034833Y-5322333D01*
X68334833Y-5722333D02*
X68268166Y-5755666D01*
X68101500Y-5755666D01*
X68034833Y-5722333D01*
X68001500Y-5655666D01*
X68001500Y-5589000D01*
X68034833Y-5522333D01*
X68101500Y-5489000D01*
X68268166Y-5489000D01*
X68334833Y-5455666D01*
X68668166Y-5755666D02*
X68668166Y-5289000D01*
X68668166Y-5422333D02*
X68701500Y-5355666D01*
X68734833Y-5322333D01*
X68801500Y-5289000D01*
X68868166Y-5289000D01*
X69401500Y-5289000D02*
X69401500Y-5855666D01*
X69368166Y-5922333D01*
X69334833Y-5955666D01*
X69268166Y-5989000D01*
X69168166Y-5989000D01*
X69101500Y-5955666D01*
X69401500Y-5722333D02*
X69334833Y-5755666D01*
X69201500Y-5755666D01*
X69134833Y-5722333D01*
X69101500Y-5689000D01*
X69068166Y-5622333D01*
X69068166Y-5422333D01*
X69101500Y-5355666D01*
X69134833Y-5322333D01*
X69201500Y-5289000D01*
X69334833Y-5289000D01*
X69401500Y-5322333D01*
X70001500Y-5722333D02*
X69934833Y-5755666D01*
X69801500Y-5755666D01*
X69734833Y-5722333D01*
X69701500Y-5655666D01*
X69701500Y-5389000D01*
X69734833Y-5322333D01*
X69801500Y-5289000D01*
X69934833Y-5289000D01*
X70001500Y-5322333D01*
X70034833Y-5389000D01*
X70034833Y-5455666D01*
X69701500Y-5522333D01*
X70868166Y-5289000D02*
X70868166Y-5989000D01*
X70868166Y-5322333D02*
X70934833Y-5289000D01*
X71068166Y-5289000D01*
X71134833Y-5322333D01*
X71168166Y-5355666D01*
X71201500Y-5422333D01*
X71201500Y-5622333D01*
X71168166Y-5689000D01*
X71134833Y-5722333D01*
X71068166Y-5755666D01*
X70934833Y-5755666D01*
X70868166Y-5722333D01*
X71501500Y-5755666D02*
X71501500Y-5289000D01*
X71501500Y-5055666D02*
X71468166Y-5089000D01*
X71501500Y-5122333D01*
X71534833Y-5089000D01*
X71501500Y-5055666D01*
X71501500Y-5122333D01*
X71834833Y-5289000D02*
X71834833Y-5755666D01*
X71834833Y-5355666D02*
X71868166Y-5322333D01*
X71934833Y-5289000D01*
X72034833Y-5289000D01*
X72101500Y-5322333D01*
X72134833Y-5389000D01*
X72134833Y-5755666D01*
X72434833Y-5722333D02*
X72501500Y-5755666D01*
X72634833Y-5755666D01*
X72701500Y-5722333D01*
X72734833Y-5655666D01*
X72734833Y-5622333D01*
X72701500Y-5555666D01*
X72634833Y-5522333D01*
X72534833Y-5522333D01*
X72468166Y-5489000D01*
X72434833Y-5422333D01*
X72434833Y-5389000D01*
X72468166Y-5322333D01*
X72534833Y-5289000D01*
X72634833Y-5289000D01*
X72701500Y-5322333D01*
X63728534Y-69406470D02*
X63779042Y-69510852D01*
X63913729Y-69645539D01*
X63997908Y-69675844D01*
X64055150Y-69679211D01*
X64142697Y-69659008D01*
X64203306Y-69611868D01*
X64236977Y-69537790D01*
X64240345Y-69487282D01*
X64216774Y-69409837D01*
X64139329Y-69278517D01*
X64115759Y-69201072D01*
X64119126Y-69150565D01*
X64152798Y-69076487D01*
X64213407Y-69029346D01*
X64300954Y-69009143D01*
X64358196Y-69012510D01*
X64442375Y-69042815D01*
X64577062Y-69177502D01*
X64627570Y-69281884D01*
X64647773Y-70271834D02*
X64590531Y-70268467D01*
X64479414Y-70211225D01*
X64425539Y-70157350D01*
X64375032Y-70052967D01*
X64381766Y-69951952D01*
X64415438Y-69877874D01*
X64509719Y-69756656D01*
X64600632Y-69685945D01*
X64748788Y-69618602D01*
X64836335Y-69598399D01*
X64950819Y-69605133D01*
X65061935Y-69662375D01*
X65115810Y-69716250D01*
X65166318Y-69820632D01*
X65162951Y-69871140D01*
X64829600Y-70561411D02*
X65465996Y-70066436D01*
X65152849Y-70884660D02*
X65274067Y-70359380D01*
X65789245Y-70389685D02*
X65102341Y-70349279D01*
X45912595Y-70151904D02*
X46079261Y-70951904D01*
X46445928Y-70151904D01*
X47079261Y-70875714D02*
X47036404Y-70913809D01*
X46917357Y-70951904D01*
X46841166Y-70951904D01*
X46731642Y-70913809D01*
X46664976Y-70837619D01*
X46636404Y-70761428D01*
X46617357Y-70609047D01*
X46631642Y-70494761D01*
X46688785Y-70342380D01*
X46736404Y-70266190D01*
X46822119Y-70190000D01*
X46941166Y-70151904D01*
X47017357Y-70151904D01*
X47126880Y-70190000D01*
X47160214Y-70228095D01*
X47879261Y-70875714D02*
X47836404Y-70913809D01*
X47717357Y-70951904D01*
X47641166Y-70951904D01*
X47531642Y-70913809D01*
X47464976Y-70837619D01*
X47436404Y-70761428D01*
X47417357Y-70609047D01*
X47431642Y-70494761D01*
X47488785Y-70342380D01*
X47536404Y-70266190D01*
X47622119Y-70190000D01*
X47741166Y-70151904D01*
X47817357Y-70151904D01*
X47926880Y-70190000D01*
X47960214Y-70228095D01*
D13*
X28437652Y-54509390D02*
X28437652Y-54009390D01*
X28556700Y-54009390D01*
X28628128Y-54033200D01*
X28675747Y-54080819D01*
X28699557Y-54128438D01*
X28723366Y-54223676D01*
X28723366Y-54295104D01*
X28699557Y-54390342D01*
X28675747Y-54437961D01*
X28628128Y-54485580D01*
X28556700Y-54509390D01*
X28437652Y-54509390D01*
X29151938Y-54009390D02*
X29056700Y-54009390D01*
X29009080Y-54033200D01*
X28985271Y-54057009D01*
X28937652Y-54128438D01*
X28913842Y-54223676D01*
X28913842Y-54414152D01*
X28937652Y-54461771D01*
X28961461Y-54485580D01*
X29009080Y-54509390D01*
X29104319Y-54509390D01*
X29151938Y-54485580D01*
X29175747Y-54461771D01*
X29199557Y-54414152D01*
X29199557Y-54295104D01*
X29175747Y-54247485D01*
X29151938Y-54223676D01*
X29104319Y-54199866D01*
X29009080Y-54199866D01*
X28961461Y-54223676D01*
X28937652Y-54247485D01*
X28913842Y-54295104D01*
D11*
X45729976Y-40345000D02*
X45658547Y-40306904D01*
X45544261Y-40306904D01*
X45425214Y-40345000D01*
X45339500Y-40421190D01*
X45291880Y-40497380D01*
X45234738Y-40649761D01*
X45220452Y-40764047D01*
X45239500Y-40916428D01*
X45268071Y-40992619D01*
X45334738Y-41068809D01*
X45444261Y-41106904D01*
X45520452Y-41106904D01*
X45639500Y-41068809D01*
X45682357Y-41030714D01*
X45715690Y-40764047D01*
X45563309Y-40764047D01*
X46015690Y-41106904D02*
X46115690Y-40306904D01*
X46472833Y-41106904D01*
X46572833Y-40306904D01*
X46853785Y-41106904D02*
X46953785Y-40306904D01*
X47144261Y-40306904D01*
X47253785Y-40345000D01*
X47320452Y-40421190D01*
X47349023Y-40497380D01*
X47368071Y-40649761D01*
X47353785Y-40764047D01*
X47296642Y-40916428D01*
X47249023Y-40992619D01*
X47163309Y-41068809D01*
X47044261Y-41106904D01*
X46853785Y-41106904D01*
X69688047Y-1509928D02*
X70449952Y-1509928D01*
D13*
X26558052Y-54509390D02*
X26558052Y-54009390D01*
X26677100Y-54009390D01*
X26748528Y-54033200D01*
X26796147Y-54080819D01*
X26819957Y-54128438D01*
X26843766Y-54223676D01*
X26843766Y-54295104D01*
X26819957Y-54390342D01*
X26796147Y-54437961D01*
X26748528Y-54485580D01*
X26677100Y-54509390D01*
X26558052Y-54509390D01*
X27010433Y-54009390D02*
X27343766Y-54009390D01*
X27129480Y-54509390D01*
D11*
X68939854Y-69591664D02*
X69054338Y-69167400D01*
X68616605Y-69268416D02*
X69253001Y-68773441D01*
X69468500Y-68988940D01*
X69492071Y-69066385D01*
X69488703Y-69116893D01*
X69455032Y-69190971D01*
X69364118Y-69261681D01*
X69276571Y-69281884D01*
X69219329Y-69278517D01*
X69135150Y-69248213D01*
X68919651Y-69032713D01*
X69185658Y-69783593D02*
X69236165Y-69887976D01*
X69370852Y-70022663D01*
X69455032Y-70052967D01*
X69512274Y-70056335D01*
X69599820Y-70036132D01*
X69660429Y-69988991D01*
X69694101Y-69914913D01*
X69697468Y-69864406D01*
X69673898Y-69786961D01*
X69596453Y-69655641D01*
X69572883Y-69578196D01*
X69576250Y-69527688D01*
X69609922Y-69453610D01*
X69670531Y-69406470D01*
X69758077Y-69386267D01*
X69815319Y-69389634D01*
X69899499Y-69419939D01*
X70034186Y-69554626D01*
X70084693Y-69659008D01*
X70054389Y-70113577D02*
X70242951Y-70302138D01*
X69990412Y-70642223D02*
X69721038Y-70372849D01*
X70357435Y-69877874D01*
X70626809Y-70147248D01*
X70788433Y-70308873D02*
X71111682Y-70632122D01*
X70313661Y-70965472D02*
X70950057Y-70470497D01*
X27314976Y-67650000D02*
X27243547Y-67611904D01*
X27129261Y-67611904D01*
X27010214Y-67650000D01*
X26924500Y-67726190D01*
X26876880Y-67802380D01*
X26819738Y-67954761D01*
X26805452Y-68069047D01*
X26824500Y-68221428D01*
X26853071Y-68297619D01*
X26919738Y-68373809D01*
X27029261Y-68411904D01*
X27105452Y-68411904D01*
X27224500Y-68373809D01*
X27267357Y-68335714D01*
X27300690Y-68069047D01*
X27148309Y-68069047D01*
X27600690Y-68411904D02*
X27700690Y-67611904D01*
X28057833Y-68411904D01*
X28157833Y-67611904D01*
X28438785Y-68411904D02*
X28538785Y-67611904D01*
X28729261Y-67611904D01*
X28838785Y-67650000D01*
X28905452Y-67726190D01*
X28934023Y-67802380D01*
X28953071Y-67954761D01*
X28938785Y-68069047D01*
X28881642Y-68221428D01*
X28834023Y-68297619D01*
X28748309Y-68373809D01*
X28629261Y-68411904D01*
X28438785Y-68411904D01*
X46364976Y-67650000D02*
X46293547Y-67611904D01*
X46179261Y-67611904D01*
X46060214Y-67650000D01*
X45974500Y-67726190D01*
X45926880Y-67802380D01*
X45869738Y-67954761D01*
X45855452Y-68069047D01*
X45874500Y-68221428D01*
X45903071Y-68297619D01*
X45969738Y-68373809D01*
X46079261Y-68411904D01*
X46155452Y-68411904D01*
X46274500Y-68373809D01*
X46317357Y-68335714D01*
X46350690Y-68069047D01*
X46198309Y-68069047D01*
X46650690Y-68411904D02*
X46750690Y-67611904D01*
X47107833Y-68411904D01*
X47207833Y-67611904D01*
X47488785Y-68411904D02*
X47588785Y-67611904D01*
X47779261Y-67611904D01*
X47888785Y-67650000D01*
X47955452Y-67726190D01*
X47984023Y-67802380D01*
X48003071Y-67954761D01*
X47988785Y-68069047D01*
X47931642Y-68221428D01*
X47884023Y-68297619D01*
X47798309Y-68373809D01*
X47679261Y-68411904D01*
X47488785Y-68411904D01*
X45729976Y-30820000D02*
X45658547Y-30781904D01*
X45544261Y-30781904D01*
X45425214Y-30820000D01*
X45339500Y-30896190D01*
X45291880Y-30972380D01*
X45234738Y-31124761D01*
X45220452Y-31239047D01*
X45239500Y-31391428D01*
X45268071Y-31467619D01*
X45334738Y-31543809D01*
X45444261Y-31581904D01*
X45520452Y-31581904D01*
X45639500Y-31543809D01*
X45682357Y-31505714D01*
X45715690Y-31239047D01*
X45563309Y-31239047D01*
X46015690Y-31581904D02*
X46115690Y-30781904D01*
X46472833Y-31581904D01*
X46572833Y-30781904D01*
X46853785Y-31581904D02*
X46953785Y-30781904D01*
X47144261Y-30781904D01*
X47253785Y-30820000D01*
X47320452Y-30896190D01*
X47349023Y-30972380D01*
X47368071Y-31124761D01*
X47353785Y-31239047D01*
X47296642Y-31391428D01*
X47249023Y-31467619D01*
X47163309Y-31543809D01*
X47044261Y-31581904D01*
X46853785Y-31581904D01*
X45701404Y-33653333D02*
X46082357Y-33653333D01*
X45596642Y-33881904D02*
X45963309Y-33081904D01*
X46129976Y-33881904D01*
X46649023Y-33081904D02*
X46725214Y-33081904D01*
X46796642Y-33120000D01*
X46829976Y-33158095D01*
X46858547Y-33234285D01*
X46877595Y-33386666D01*
X46853785Y-33577142D01*
X46796642Y-33729523D01*
X46749023Y-33805714D01*
X46706166Y-33843809D01*
X46625214Y-33881904D01*
X46549023Y-33881904D01*
X46477595Y-33843809D01*
X46444261Y-33805714D01*
X46415690Y-33729523D01*
X46396642Y-33577142D01*
X46420452Y-33386666D01*
X46477595Y-33234285D01*
X46525214Y-33158095D01*
X46568071Y-33120000D01*
X46649023Y-33081904D01*
D13*
X38598447Y-54045900D02*
X38550828Y-54022090D01*
X38479400Y-54022090D01*
X38407971Y-54045900D01*
X38360352Y-54093519D01*
X38336542Y-54141138D01*
X38312733Y-54236376D01*
X38312733Y-54307804D01*
X38336542Y-54403042D01*
X38360352Y-54450661D01*
X38407971Y-54498280D01*
X38479400Y-54522090D01*
X38527019Y-54522090D01*
X38598447Y-54498280D01*
X38622257Y-54474471D01*
X38622257Y-54307804D01*
X38527019Y-54307804D01*
X38836542Y-54522090D02*
X38836542Y-54022090D01*
X39122257Y-54522090D01*
X39122257Y-54022090D01*
X39360352Y-54522090D02*
X39360352Y-54022090D01*
X39479400Y-54022090D01*
X39550828Y-54045900D01*
X39598447Y-54093519D01*
X39622257Y-54141138D01*
X39646066Y-54236376D01*
X39646066Y-54307804D01*
X39622257Y-54403042D01*
X39598447Y-54450661D01*
X39550828Y-54498280D01*
X39479400Y-54522090D01*
X39360352Y-54522090D01*
X40243133Y-54022090D02*
X40409800Y-54522090D01*
X40576466Y-54022090D01*
X41028847Y-54474471D02*
X41005038Y-54498280D01*
X40933609Y-54522090D01*
X40885990Y-54522090D01*
X40814561Y-54498280D01*
X40766942Y-54450661D01*
X40743133Y-54403042D01*
X40719323Y-54307804D01*
X40719323Y-54236376D01*
X40743133Y-54141138D01*
X40766942Y-54093519D01*
X40814561Y-54045900D01*
X40885990Y-54022090D01*
X40933609Y-54022090D01*
X41005038Y-54045900D01*
X41028847Y-54069709D01*
X41528847Y-54474471D02*
X41505038Y-54498280D01*
X41433609Y-54522090D01*
X41385990Y-54522090D01*
X41314561Y-54498280D01*
X41266942Y-54450661D01*
X41243133Y-54403042D01*
X41219323Y-54307804D01*
X41219323Y-54236376D01*
X41243133Y-54141138D01*
X41266942Y-54093519D01*
X41314561Y-54045900D01*
X41385990Y-54022090D01*
X41433609Y-54022090D01*
X41505038Y-54045900D01*
X41528847Y-54069709D01*
D11*
X50809976Y-40345000D02*
X50738547Y-40306904D01*
X50624261Y-40306904D01*
X50505214Y-40345000D01*
X50419500Y-40421190D01*
X50371880Y-40497380D01*
X50314738Y-40649761D01*
X50300452Y-40764047D01*
X50319500Y-40916428D01*
X50348071Y-40992619D01*
X50414738Y-41068809D01*
X50524261Y-41106904D01*
X50600452Y-41106904D01*
X50719500Y-41068809D01*
X50762357Y-41030714D01*
X50795690Y-40764047D01*
X50643309Y-40764047D01*
X51095690Y-41106904D02*
X51195690Y-40306904D01*
X51552833Y-41106904D01*
X51652833Y-40306904D01*
X51933785Y-41106904D02*
X52033785Y-40306904D01*
X52224261Y-40306904D01*
X52333785Y-40345000D01*
X52400452Y-40421190D01*
X52429023Y-40497380D01*
X52448071Y-40649761D01*
X52433785Y-40764047D01*
X52376642Y-40916428D01*
X52329023Y-40992619D01*
X52243309Y-41068809D01*
X52124261Y-41106904D01*
X51933785Y-41106904D01*
X26862595Y-63293809D02*
X26972119Y-63331904D01*
X27162595Y-63331904D01*
X27243547Y-63293809D01*
X27286404Y-63255714D01*
X27334023Y-63179523D01*
X27343547Y-63103333D01*
X27314976Y-63027142D01*
X27281642Y-62989047D01*
X27210214Y-62950952D01*
X27062595Y-62912857D01*
X26991166Y-62874761D01*
X26957833Y-62836666D01*
X26929261Y-62760476D01*
X26938785Y-62684285D01*
X26986404Y-62608095D01*
X27029261Y-62570000D01*
X27110214Y-62531904D01*
X27300690Y-62531904D01*
X27410214Y-62570000D01*
X27657833Y-63331904D02*
X27757833Y-62531904D01*
X27948309Y-62531904D01*
X28057833Y-62570000D01*
X28124500Y-62646190D01*
X28153071Y-62722380D01*
X28172119Y-62874761D01*
X28157833Y-62989047D01*
X28100690Y-63141428D01*
X28053071Y-63217619D01*
X27967357Y-63293809D01*
X27848309Y-63331904D01*
X27657833Y-63331904D01*
X28448309Y-63103333D02*
X28829261Y-63103333D01*
X28343547Y-63331904D02*
X28710214Y-62531904D01*
X28876880Y-63331904D01*
X26862595Y-70151904D02*
X27029261Y-70951904D01*
X27395928Y-70151904D01*
X28029261Y-70875714D02*
X27986404Y-70913809D01*
X27867357Y-70951904D01*
X27791166Y-70951904D01*
X27681642Y-70913809D01*
X27614976Y-70837619D01*
X27586404Y-70761428D01*
X27567357Y-70609047D01*
X27581642Y-70494761D01*
X27638785Y-70342380D01*
X27686404Y-70266190D01*
X27772119Y-70190000D01*
X27891166Y-70151904D01*
X27967357Y-70151904D01*
X28076880Y-70190000D01*
X28110214Y-70228095D01*
X28829261Y-70875714D02*
X28786404Y-70913809D01*
X28667357Y-70951904D01*
X28591166Y-70951904D01*
X28481642Y-70913809D01*
X28414976Y-70837619D01*
X28386404Y-70761428D01*
X28367357Y-70609047D01*
X28381642Y-70494761D01*
X28438785Y-70342380D01*
X28486404Y-70266190D01*
X28572119Y-70190000D01*
X28691166Y-70151904D01*
X28767357Y-70151904D01*
X28876880Y-70190000D01*
X28910214Y-70228095D01*
D13*
X34170942Y-54472880D02*
X34242371Y-54496690D01*
X34361419Y-54496690D01*
X34409038Y-54472880D01*
X34432847Y-54449071D01*
X34456657Y-54401452D01*
X34456657Y-54353833D01*
X34432847Y-54306214D01*
X34409038Y-54282404D01*
X34361419Y-54258595D01*
X34266180Y-54234785D01*
X34218561Y-54210976D01*
X34194752Y-54187166D01*
X34170942Y-54139547D01*
X34170942Y-54091928D01*
X34194752Y-54044309D01*
X34218561Y-54020500D01*
X34266180Y-53996690D01*
X34385228Y-53996690D01*
X34456657Y-54020500D01*
X34956657Y-54449071D02*
X34932847Y-54472880D01*
X34861419Y-54496690D01*
X34813800Y-54496690D01*
X34742371Y-54472880D01*
X34694752Y-54425261D01*
X34670942Y-54377642D01*
X34647133Y-54282404D01*
X34647133Y-54210976D01*
X34670942Y-54115738D01*
X34694752Y-54068119D01*
X34742371Y-54020500D01*
X34813800Y-53996690D01*
X34861419Y-53996690D01*
X34932847Y-54020500D01*
X34956657Y-54044309D01*
X35170942Y-54496690D02*
X35170942Y-53996690D01*
X35456657Y-54496690D02*
X35242371Y-54210976D01*
X35456657Y-53996690D02*
X35170942Y-54282404D01*
D11*
X50809976Y-30820000D02*
X50738547Y-30781904D01*
X50624261Y-30781904D01*
X50505214Y-30820000D01*
X50419500Y-30896190D01*
X50371880Y-30972380D01*
X50314738Y-31124761D01*
X50300452Y-31239047D01*
X50319500Y-31391428D01*
X50348071Y-31467619D01*
X50414738Y-31543809D01*
X50524261Y-31581904D01*
X50600452Y-31581904D01*
X50719500Y-31543809D01*
X50762357Y-31505714D01*
X50795690Y-31239047D01*
X50643309Y-31239047D01*
X51095690Y-31581904D02*
X51195690Y-30781904D01*
X51552833Y-31581904D01*
X51652833Y-30781904D01*
X51933785Y-31581904D02*
X52033785Y-30781904D01*
X52224261Y-30781904D01*
X52333785Y-30820000D01*
X52400452Y-30896190D01*
X52429023Y-30972380D01*
X52448071Y-31124761D01*
X52433785Y-31239047D01*
X52376642Y-31391428D01*
X52329023Y-31467619D01*
X52243309Y-31543809D01*
X52124261Y-31581904D01*
X51933785Y-31581904D01*
X50921404Y-24033333D02*
X51302357Y-24033333D01*
X50816642Y-24261904D02*
X51183309Y-23461904D01*
X51349976Y-24261904D01*
X51640452Y-23461904D02*
X52135690Y-23461904D01*
X51830928Y-23766666D01*
X51945214Y-23766666D01*
X52016642Y-23804761D01*
X52049976Y-23842857D01*
X52078547Y-23919047D01*
X52054738Y-24109523D01*
X52007119Y-24185714D01*
X51964261Y-24223809D01*
X51883309Y-24261904D01*
X51654738Y-24261904D01*
X51583309Y-24223809D01*
X51549976Y-24185714D01*
X45931642Y-65833809D02*
X46041166Y-65871904D01*
X46231642Y-65871904D01*
X46312595Y-65833809D01*
X46355452Y-65795714D01*
X46403071Y-65719523D01*
X46412595Y-65643333D01*
X46384023Y-65567142D01*
X46350690Y-65529047D01*
X46279261Y-65490952D01*
X46131642Y-65452857D01*
X46060214Y-65414761D01*
X46026880Y-65376666D01*
X45998309Y-65300476D01*
X46007833Y-65224285D01*
X46055452Y-65148095D01*
X46098309Y-65110000D01*
X46179261Y-65071904D01*
X46369738Y-65071904D01*
X46479261Y-65110000D01*
X47193547Y-65795714D02*
X47150690Y-65833809D01*
X47031642Y-65871904D01*
X46955452Y-65871904D01*
X46845928Y-65833809D01*
X46779261Y-65757619D01*
X46750690Y-65681428D01*
X46731642Y-65529047D01*
X46745928Y-65414761D01*
X46803071Y-65262380D01*
X46850690Y-65186190D01*
X46936404Y-65110000D01*
X47055452Y-65071904D01*
X47131642Y-65071904D01*
X47241166Y-65110000D01*
X47274500Y-65148095D01*
X47907833Y-65871904D02*
X47526880Y-65871904D01*
X47626880Y-65071904D01*
X60996605Y-69268416D02*
X61633001Y-68773441D01*
X61366994Y-69315556D01*
X62010125Y-69150565D01*
X61373729Y-69645539D01*
X62387248Y-69527688D02*
X62494998Y-69635438D01*
X62518568Y-69712883D01*
X62511834Y-69813898D01*
X62417553Y-69935116D01*
X62205421Y-70100108D01*
X62057265Y-70167451D01*
X61942781Y-70160717D01*
X61858602Y-70130412D01*
X61750852Y-70022663D01*
X61727282Y-69945218D01*
X61734016Y-69844203D01*
X61828297Y-69722984D01*
X62040429Y-69557993D01*
X62188585Y-69490649D01*
X62303069Y-69497384D01*
X62387248Y-69527688D01*
X62239093Y-70457028D02*
X62289600Y-70561411D01*
X62424287Y-70696098D01*
X62508467Y-70726402D01*
X62565709Y-70729770D01*
X62653255Y-70709567D01*
X62713864Y-70662426D01*
X62747536Y-70588348D01*
X62750903Y-70537841D01*
X62727333Y-70460396D01*
X62649888Y-70329076D01*
X62626318Y-70251631D01*
X62629685Y-70201123D01*
X62663357Y-70127045D01*
X62723966Y-70079905D01*
X62811512Y-70059702D01*
X62868754Y-70063069D01*
X62952934Y-70093374D01*
X63087621Y-70228061D01*
X63138128Y-70332443D01*
X62774474Y-71046284D02*
X63410870Y-70551309D01*
X45871404Y-24003333D02*
X46252357Y-24003333D01*
X45766642Y-24231904D02*
X46133309Y-23431904D01*
X46299976Y-24231904D01*
X46619023Y-23508095D02*
X46661880Y-23470000D01*
X46742833Y-23431904D01*
X46933309Y-23431904D01*
X47004738Y-23470000D01*
X47038071Y-23508095D01*
X47066642Y-23584285D01*
X47057119Y-23660476D01*
X47004738Y-23774761D01*
X46490452Y-24231904D01*
X46985690Y-24231904D01*
D13*
X32488952Y-54534790D02*
X32488952Y-54034790D01*
X32608000Y-54034790D01*
X32679428Y-54058600D01*
X32727047Y-54106219D01*
X32750857Y-54153838D01*
X32774666Y-54249076D01*
X32774666Y-54320504D01*
X32750857Y-54415742D01*
X32727047Y-54463361D01*
X32679428Y-54510980D01*
X32608000Y-54534790D01*
X32488952Y-54534790D01*
X33227047Y-54034790D02*
X32988952Y-54034790D01*
X32965142Y-54272885D01*
X32988952Y-54249076D01*
X33036571Y-54225266D01*
X33155619Y-54225266D01*
X33203238Y-54249076D01*
X33227047Y-54272885D01*
X33250857Y-54320504D01*
X33250857Y-54439552D01*
X33227047Y-54487171D01*
X33203238Y-54510980D01*
X33155619Y-54534790D01*
X33036571Y-54534790D01*
X32988952Y-54510980D01*
X32965142Y-54487171D01*
D12*
X47880285Y-22303390D02*
X47802876Y-22342095D01*
X47648057Y-22342095D01*
X47570647Y-22303390D01*
X47531942Y-22264685D01*
X47493238Y-22187276D01*
X47493238Y-21955047D01*
X47531942Y-21877638D01*
X47570647Y-21838933D01*
X47648057Y-21800228D01*
X47802876Y-21800228D01*
X47880285Y-21838933D01*
X48344742Y-22342095D02*
X48267333Y-22303390D01*
X48228628Y-22264685D01*
X48189923Y-22187276D01*
X48189923Y-21955047D01*
X48228628Y-21877638D01*
X48267333Y-21838933D01*
X48344742Y-21800228D01*
X48460857Y-21800228D01*
X48538266Y-21838933D01*
X48576971Y-21877638D01*
X48615676Y-21955047D01*
X48615676Y-22187276D01*
X48576971Y-22264685D01*
X48538266Y-22303390D01*
X48460857Y-22342095D01*
X48344742Y-22342095D01*
X48964019Y-21800228D02*
X48964019Y-22342095D01*
X48964019Y-21877638D02*
X49002723Y-21838933D01*
X49080133Y-21800228D01*
X49196247Y-21800228D01*
X49273657Y-21838933D01*
X49312361Y-21916342D01*
X49312361Y-22342095D01*
X49583295Y-21800228D02*
X49892933Y-21800228D01*
X49699409Y-22342095D02*
X49699409Y-21645409D01*
X49738114Y-21568000D01*
X49815523Y-21529295D01*
X49892933Y-21529295D01*
X50163866Y-22342095D02*
X50163866Y-21800228D01*
X50163866Y-21529295D02*
X50125161Y-21568000D01*
X50163866Y-21606704D01*
X50202571Y-21568000D01*
X50163866Y-21529295D01*
X50163866Y-21606704D01*
X50899257Y-21800228D02*
X50899257Y-22458209D01*
X50860552Y-22535619D01*
X50821847Y-22574323D01*
X50744438Y-22613028D01*
X50628323Y-22613028D01*
X50550914Y-22574323D01*
X50899257Y-22303390D02*
X50821847Y-22342095D01*
X50667028Y-22342095D01*
X50589619Y-22303390D01*
X50550914Y-22264685D01*
X50512209Y-22187276D01*
X50512209Y-21955047D01*
X50550914Y-21877638D01*
X50589619Y-21838933D01*
X50667028Y-21800228D01*
X50821847Y-21800228D01*
X50899257Y-21838933D01*
D14*
X43585714Y-58568571D02*
X43585714Y-57068571D01*
X44228571Y-57211428D02*
X44300000Y-57140000D01*
X44442857Y-57068571D01*
X44800000Y-57068571D01*
X44942857Y-57140000D01*
X45014285Y-57211428D01*
X45085714Y-57354285D01*
X45085714Y-57497142D01*
X45014285Y-57711428D01*
X44157142Y-58568571D01*
X45085714Y-58568571D01*
X46585714Y-58425714D02*
X46514285Y-58497142D01*
X46300000Y-58568571D01*
X46157142Y-58568571D01*
X45942857Y-58497142D01*
X45800000Y-58354285D01*
X45728571Y-58211428D01*
X45657142Y-57925714D01*
X45657142Y-57711428D01*
X45728571Y-57425714D01*
X45800000Y-57282857D01*
X45942857Y-57140000D01*
X46157142Y-57068571D01*
X46300000Y-57068571D01*
X46514285Y-57140000D01*
X46585714Y-57211428D01*
X28345714Y-58568571D02*
X28345714Y-57068571D01*
X28988571Y-57211428D02*
X29060000Y-57140000D01*
X29202857Y-57068571D01*
X29560000Y-57068571D01*
X29702857Y-57140000D01*
X29774285Y-57211428D01*
X29845714Y-57354285D01*
X29845714Y-57497142D01*
X29774285Y-57711428D01*
X28917142Y-58568571D01*
X29845714Y-58568571D01*
X31345714Y-58425714D02*
X31274285Y-58497142D01*
X31060000Y-58568571D01*
X30917142Y-58568571D01*
X30702857Y-58497142D01*
X30560000Y-58354285D01*
X30488571Y-58211428D01*
X30417142Y-57925714D01*
X30417142Y-57711428D01*
X30488571Y-57425714D01*
X30560000Y-57282857D01*
X30702857Y-57140000D01*
X30917142Y-57068571D01*
X31060000Y-57068571D01*
X31274285Y-57140000D01*
X31345714Y-57211428D01*
D11*
X63683000Y-72290966D02*
X63683000Y-71590966D01*
X63983000Y-72257633D02*
X64083000Y-72290966D01*
X64249666Y-72290966D01*
X64316333Y-72257633D01*
X64349666Y-72224300D01*
X64383000Y-72157633D01*
X64383000Y-72090966D01*
X64349666Y-72024300D01*
X64316333Y-71990966D01*
X64249666Y-71957633D01*
X64116333Y-71924300D01*
X64049666Y-71890966D01*
X64016333Y-71857633D01*
X63983000Y-71790966D01*
X63983000Y-71724300D01*
X64016333Y-71657633D01*
X64049666Y-71624300D01*
X64116333Y-71590966D01*
X64283000Y-71590966D01*
X64383000Y-71624300D01*
X64683000Y-72290966D02*
X64683000Y-71590966D01*
X64949666Y-71590966D01*
X65016333Y-71624300D01*
X65049666Y-71657633D01*
X65083000Y-71724300D01*
X65083000Y-71824300D01*
X65049666Y-71890966D01*
X65016333Y-71924300D01*
X64949666Y-71957633D01*
X64683000Y-71957633D01*
X65916333Y-71824300D02*
X65916333Y-72524300D01*
X65916333Y-71857633D02*
X65983000Y-71824300D01*
X66116333Y-71824300D01*
X66183000Y-71857633D01*
X66216333Y-71890966D01*
X66249666Y-71957633D01*
X66249666Y-72157633D01*
X66216333Y-72224300D01*
X66183000Y-72257633D01*
X66116333Y-72290966D01*
X65983000Y-72290966D01*
X65916333Y-72257633D01*
X66549666Y-72290966D02*
X66549666Y-71824300D01*
X66549666Y-71957633D02*
X66583000Y-71890966D01*
X66616333Y-71857633D01*
X66683000Y-71824300D01*
X66749666Y-71824300D01*
X67083000Y-72290966D02*
X67016333Y-72257633D01*
X66983000Y-72224300D01*
X66949666Y-72157633D01*
X66949666Y-71957633D01*
X66983000Y-71890966D01*
X67016333Y-71857633D01*
X67083000Y-71824300D01*
X67183000Y-71824300D01*
X67249666Y-71857633D01*
X67283000Y-71890966D01*
X67316333Y-71957633D01*
X67316333Y-72157633D01*
X67283000Y-72224300D01*
X67249666Y-72257633D01*
X67183000Y-72290966D01*
X67083000Y-72290966D01*
X67916333Y-71824300D02*
X67916333Y-72390966D01*
X67883000Y-72457633D01*
X67849666Y-72490966D01*
X67783000Y-72524300D01*
X67683000Y-72524300D01*
X67616333Y-72490966D01*
X67916333Y-72257633D02*
X67849666Y-72290966D01*
X67716333Y-72290966D01*
X67649666Y-72257633D01*
X67616333Y-72224300D01*
X67583000Y-72157633D01*
X67583000Y-71957633D01*
X67616333Y-71890966D01*
X67649666Y-71857633D01*
X67716333Y-71824300D01*
X67849666Y-71824300D01*
X67916333Y-71857633D01*
X68249666Y-72290966D02*
X68249666Y-71824300D01*
X68249666Y-71957633D02*
X68283000Y-71890966D01*
X68316333Y-71857633D01*
X68383000Y-71824300D01*
X68449666Y-71824300D01*
X68983000Y-72290966D02*
X68983000Y-71924300D01*
X68949666Y-71857633D01*
X68883000Y-71824300D01*
X68749666Y-71824300D01*
X68683000Y-71857633D01*
X68983000Y-72257633D02*
X68916333Y-72290966D01*
X68749666Y-72290966D01*
X68683000Y-72257633D01*
X68649666Y-72190966D01*
X68649666Y-72124300D01*
X68683000Y-72057633D01*
X68749666Y-72024300D01*
X68916333Y-72024300D01*
X68983000Y-71990966D01*
X69316333Y-72290966D02*
X69316333Y-71824300D01*
X69316333Y-71890966D02*
X69349666Y-71857633D01*
X69416333Y-71824300D01*
X69516333Y-71824300D01*
X69583000Y-71857633D01*
X69616333Y-71924300D01*
X69616333Y-72290966D01*
X69616333Y-71924300D02*
X69649666Y-71857633D01*
X69716333Y-71824300D01*
X69816333Y-71824300D01*
X69883000Y-71857633D01*
X69916333Y-71924300D01*
X69916333Y-72290966D01*
X70249666Y-72290966D02*
X70249666Y-71824300D01*
X70249666Y-71890966D02*
X70283000Y-71857633D01*
X70349666Y-71824300D01*
X70449666Y-71824300D01*
X70516333Y-71857633D01*
X70549666Y-71924300D01*
X70549666Y-72290966D01*
X70549666Y-71924300D02*
X70583000Y-71857633D01*
X70649666Y-71824300D01*
X70749666Y-71824300D01*
X70816333Y-71857633D01*
X70849666Y-71924300D01*
X70849666Y-72290966D01*
X71449666Y-72257633D02*
X71383000Y-72290966D01*
X71249666Y-72290966D01*
X71183000Y-72257633D01*
X71149666Y-72190966D01*
X71149666Y-71924300D01*
X71183000Y-71857633D01*
X71249666Y-71824300D01*
X71383000Y-71824300D01*
X71449666Y-71857633D01*
X71483000Y-71924300D01*
X71483000Y-71990966D01*
X71149666Y-72057633D01*
X71783000Y-72290966D02*
X71783000Y-71824300D01*
X71783000Y-71957633D02*
X71816333Y-71890966D01*
X71849666Y-71857633D01*
X71916333Y-71824300D01*
X71983000Y-71824300D01*
X57049947Y-70089367D02*
X56972502Y-70112937D01*
X56891690Y-70193749D01*
X56834448Y-70304866D01*
X56827713Y-70419350D01*
X56847916Y-70506896D01*
X56915260Y-70655052D01*
X56985971Y-70745966D01*
X57107189Y-70840247D01*
X57181267Y-70873918D01*
X57282282Y-70880653D01*
X57386664Y-70830145D01*
X57440539Y-70776270D01*
X57497781Y-70665154D01*
X57501148Y-70607912D01*
X57336157Y-70395780D01*
X57228407Y-70503529D01*
X57790725Y-70426084D02*
X57295751Y-69789688D01*
X58113974Y-70102835D01*
X57619000Y-69466439D01*
X58383348Y-69833461D02*
X57888374Y-69197065D01*
X58023061Y-69062378D01*
X58127443Y-69011871D01*
X58228458Y-69018605D01*
X58302536Y-69052277D01*
X58423754Y-69146558D01*
X58494465Y-69237471D01*
X58561809Y-69385627D01*
X58582012Y-69473174D01*
X58575277Y-69587658D01*
X58518035Y-69698774D01*
X58383348Y-69833461D01*
X54798128Y-70382311D02*
X55481664Y-70830145D01*
X55175252Y-70005187D01*
X56134896Y-70069164D02*
X56131529Y-70126406D01*
X56074287Y-70237522D01*
X56020412Y-70291397D01*
X55916030Y-70341905D01*
X55815015Y-70335170D01*
X55740937Y-70301499D01*
X55619719Y-70207218D01*
X55549008Y-70116304D01*
X55481664Y-69968148D01*
X55461461Y-69880602D01*
X55468196Y-69766118D01*
X55525438Y-69655001D01*
X55579313Y-69601126D01*
X55683695Y-69550619D01*
X55734203Y-69553986D01*
X56700582Y-69503478D02*
X56697215Y-69560720D01*
X56639973Y-69671837D01*
X56586098Y-69725712D01*
X56481715Y-69776219D01*
X56380700Y-69769485D01*
X56306622Y-69735813D01*
X56185404Y-69641532D01*
X56114693Y-69550619D01*
X56047350Y-69402463D01*
X56027147Y-69314916D01*
X56033881Y-69200432D01*
X56091123Y-69089316D01*
X56144998Y-69035441D01*
X56249380Y-68984933D01*
X56299888Y-68988300D01*
%TO.C,D1*%
X48842380Y-5168095D02*
X47842380Y-5168095D01*
X47842380Y-4930000D01*
X47890000Y-4787142D01*
X47985238Y-4691904D01*
X48080476Y-4644285D01*
X48270952Y-4596666D01*
X48413809Y-4596666D01*
X48604285Y-4644285D01*
X48699523Y-4691904D01*
X48794761Y-4787142D01*
X48842380Y-4930000D01*
X48842380Y-5168095D01*
X48842380Y-3644285D02*
X48842380Y-4215714D01*
X48842380Y-3930000D02*
X47842380Y-3930000D01*
X47985238Y-4025238D01*
X48080476Y-4120476D01*
X48128095Y-4215714D01*
%TO.C,J1*%
X48007580Y-37242933D02*
X48721866Y-37242933D01*
X48864723Y-37290552D01*
X48959961Y-37385790D01*
X49007580Y-37528647D01*
X49007580Y-37623885D01*
X49007580Y-36242933D02*
X49007580Y-36814361D01*
X49007580Y-36528647D02*
X48007580Y-36528647D01*
X48150438Y-36623885D01*
X48245676Y-36719123D01*
X48293295Y-36814361D01*
%TO.C,J2*%
X53087580Y-37293733D02*
X53801866Y-37293733D01*
X53944723Y-37341352D01*
X54039961Y-37436590D01*
X54087580Y-37579447D01*
X54087580Y-37674685D01*
X53182819Y-36865161D02*
X53135200Y-36817542D01*
X53087580Y-36722304D01*
X53087580Y-36484209D01*
X53135200Y-36388971D01*
X53182819Y-36341352D01*
X53278057Y-36293733D01*
X53373295Y-36293733D01*
X53516152Y-36341352D01*
X54087580Y-36912780D01*
X54087580Y-36293733D01*
%TO.C,J7*%
X34416666Y-59192380D02*
X34416666Y-59906666D01*
X34369047Y-60049523D01*
X34273809Y-60144761D01*
X34130952Y-60192380D01*
X34035714Y-60192380D01*
X34797619Y-59192380D02*
X35464285Y-59192380D01*
X35035714Y-60192380D01*
%TO.C,BT1*%
X72838571Y-9625714D02*
X72886190Y-9482857D01*
X72933809Y-9435238D01*
X73029047Y-9387619D01*
X73171904Y-9387619D01*
X73267142Y-9435238D01*
X73314761Y-9482857D01*
X73362380Y-9578095D01*
X73362380Y-9959047D01*
X72362380Y-9959047D01*
X72362380Y-9625714D01*
X72410000Y-9530476D01*
X72457619Y-9482857D01*
X72552857Y-9435238D01*
X72648095Y-9435238D01*
X72743333Y-9482857D01*
X72790952Y-9530476D01*
X72838571Y-9625714D01*
X72838571Y-9959047D01*
X72362380Y-9101904D02*
X72362380Y-8530476D01*
X73362380Y-8816190D02*
X72362380Y-8816190D01*
X73362380Y-7673333D02*
X73362380Y-8244761D01*
X73362380Y-7959047D02*
X72362380Y-7959047D01*
X72505238Y-8054285D01*
X72600476Y-8149523D01*
X72648095Y-8244761D01*
X63967780Y-42222280D02*
X62967780Y-42222280D01*
X63967780Y-41650851D02*
X63396352Y-42079422D01*
X62967780Y-41650851D02*
X63539209Y-42222280D01*
X63920161Y-40841327D02*
X63967780Y-40936565D01*
X63967780Y-41127041D01*
X63920161Y-41222280D01*
X63824923Y-41269899D01*
X63443971Y-41269899D01*
X63348733Y-41222280D01*
X63301114Y-41127041D01*
X63301114Y-40936565D01*
X63348733Y-40841327D01*
X63443971Y-40793708D01*
X63539209Y-40793708D01*
X63634447Y-41269899D01*
X63301114Y-40460375D02*
X63967780Y-40222280D01*
X63301114Y-39984184D02*
X63967780Y-40222280D01*
X64205876Y-40317518D01*
X64253495Y-40365137D01*
X64301114Y-40460375D01*
X63920161Y-39650851D02*
X63967780Y-39555613D01*
X63967780Y-39365137D01*
X63920161Y-39269899D01*
X63824923Y-39222280D01*
X63777304Y-39222280D01*
X63682066Y-39269899D01*
X63634447Y-39365137D01*
X63634447Y-39507994D01*
X63586828Y-39603232D01*
X63491590Y-39650851D01*
X63443971Y-39650851D01*
X63348733Y-39603232D01*
X63301114Y-39507994D01*
X63301114Y-39365137D01*
X63348733Y-39269899D01*
X63301114Y-38936565D02*
X63301114Y-38555613D01*
X62967780Y-38793708D02*
X63824923Y-38793708D01*
X63920161Y-38746089D01*
X63967780Y-38650851D01*
X63967780Y-38555613D01*
X63967780Y-38079422D02*
X63920161Y-38174660D01*
X63872542Y-38222280D01*
X63777304Y-38269899D01*
X63491590Y-38269899D01*
X63396352Y-38222280D01*
X63348733Y-38174660D01*
X63301114Y-38079422D01*
X63301114Y-37936565D01*
X63348733Y-37841327D01*
X63396352Y-37793708D01*
X63491590Y-37746089D01*
X63777304Y-37746089D01*
X63872542Y-37793708D01*
X63920161Y-37841327D01*
X63967780Y-37936565D01*
X63967780Y-38079422D01*
X63301114Y-37317518D02*
X63967780Y-37317518D01*
X63396352Y-37317518D02*
X63348733Y-37269899D01*
X63301114Y-37174660D01*
X63301114Y-37031803D01*
X63348733Y-36936565D01*
X63443971Y-36888946D01*
X63967780Y-36888946D01*
X63920161Y-36031803D02*
X63967780Y-36127041D01*
X63967780Y-36317518D01*
X63920161Y-36412756D01*
X63824923Y-36460375D01*
X63443971Y-36460375D01*
X63348733Y-36412756D01*
X63301114Y-36317518D01*
X63301114Y-36127041D01*
X63348733Y-36031803D01*
X63443971Y-35984184D01*
X63539209Y-35984184D01*
X63634447Y-36460375D01*
X63063019Y-34841327D02*
X63015400Y-34793708D01*
X62967780Y-34698470D01*
X62967780Y-34460375D01*
X63015400Y-34365137D01*
X63063019Y-34317518D01*
X63158257Y-34269899D01*
X63253495Y-34269899D01*
X63396352Y-34317518D01*
X63967780Y-34888946D01*
X63967780Y-34269899D01*
X63301114Y-33412756D02*
X63967780Y-33412756D01*
X62920161Y-33650851D02*
X63634447Y-33888946D01*
X63634447Y-33269899D01*
X62967780Y-32460375D02*
X62967780Y-32650851D01*
X63015400Y-32746089D01*
X63063019Y-32793708D01*
X63205876Y-32888946D01*
X63396352Y-32936565D01*
X63777304Y-32936565D01*
X63872542Y-32888946D01*
X63920161Y-32841327D01*
X63967780Y-32746089D01*
X63967780Y-32555613D01*
X63920161Y-32460375D01*
X63872542Y-32412756D01*
X63777304Y-32365137D01*
X63539209Y-32365137D01*
X63443971Y-32412756D01*
X63396352Y-32460375D01*
X63348733Y-32555613D01*
X63348733Y-32746089D01*
X63396352Y-32841327D01*
X63443971Y-32888946D01*
X63539209Y-32936565D01*
X62967780Y-31746089D02*
X62967780Y-31650851D01*
X63015400Y-31555613D01*
X63063019Y-31507994D01*
X63158257Y-31460375D01*
X63348733Y-31412756D01*
X63586828Y-31412756D01*
X63777304Y-31460375D01*
X63872542Y-31507994D01*
X63920161Y-31555613D01*
X63967780Y-31650851D01*
X63967780Y-31746089D01*
X63920161Y-31841327D01*
X63872542Y-31888946D01*
X63777304Y-31936565D01*
X63586828Y-31984184D01*
X63348733Y-31984184D01*
X63158257Y-31936565D01*
X63063019Y-31888946D01*
X63015400Y-31841327D01*
X62967780Y-31746089D01*
X63967780Y-29698470D02*
X63967780Y-30269899D01*
X63967780Y-29984184D02*
X62967780Y-29984184D01*
X63110638Y-30079422D01*
X63205876Y-30174660D01*
X63253495Y-30269899D01*
X63967780Y-29365137D02*
X63301114Y-28841327D01*
X63301114Y-29365137D02*
X63967780Y-28841327D01*
X63682066Y-28507994D02*
X63682066Y-28031803D01*
X63967780Y-28603232D02*
X62967780Y-28269899D01*
X63967780Y-27936565D01*
X63682066Y-27650851D02*
X63682066Y-27174660D01*
X63967780Y-27746089D02*
X62967780Y-27412756D01*
X63967780Y-27079422D01*
X63169047Y-64301428D02*
X63930952Y-64301428D01*
X63621428Y-5840952D02*
X63621428Y-5079047D01*
X64002380Y-5460000D02*
X63240476Y-5460000D01*
%TO.C,J3*%
X48413980Y-27641733D02*
X49128266Y-27641733D01*
X49271123Y-27689352D01*
X49366361Y-27784590D01*
X49413980Y-27927447D01*
X49413980Y-28022685D01*
X48413980Y-27260780D02*
X48413980Y-26641733D01*
X48794933Y-26975066D01*
X48794933Y-26832209D01*
X48842552Y-26736971D01*
X48890171Y-26689352D01*
X48985409Y-26641733D01*
X49223504Y-26641733D01*
X49318742Y-26689352D01*
X49366361Y-26736971D01*
X49413980Y-26832209D01*
X49413980Y-27117923D01*
X49366361Y-27213161D01*
X49318742Y-27260780D01*
%TO.C,J4*%
X53493980Y-27489333D02*
X54208266Y-27489333D01*
X54351123Y-27536952D01*
X54446361Y-27632190D01*
X54493980Y-27775047D01*
X54493980Y-27870285D01*
X53827314Y-26584571D02*
X54493980Y-26584571D01*
X53446361Y-26822666D02*
X54160647Y-27060761D01*
X54160647Y-26441714D01*
%TO.C,J5*%
X53602380Y-67113333D02*
X54316666Y-67113333D01*
X54459523Y-67160952D01*
X54554761Y-67256190D01*
X54602380Y-67399047D01*
X54602380Y-67494285D01*
X53602380Y-66160952D02*
X53602380Y-66637142D01*
X54078571Y-66684761D01*
X54030952Y-66637142D01*
X53983333Y-66541904D01*
X53983333Y-66303809D01*
X54030952Y-66208571D01*
X54078571Y-66160952D01*
X54173809Y-66113333D01*
X54411904Y-66113333D01*
X54507142Y-66160952D01*
X54554761Y-66208571D01*
X54602380Y-66303809D01*
X54602380Y-66541904D01*
X54554761Y-66637142D01*
X54507142Y-66684761D01*
%TO.C,J6*%
X24436666Y-59052380D02*
X24436666Y-59766666D01*
X24389047Y-59909523D01*
X24293809Y-60004761D01*
X24150952Y-60052380D01*
X24055714Y-60052380D01*
X25341428Y-59052380D02*
X25150952Y-59052380D01*
X25055714Y-59100000D01*
X25008095Y-59147619D01*
X24912857Y-59290476D01*
X24865238Y-59480952D01*
X24865238Y-59861904D01*
X24912857Y-59957142D01*
X24960476Y-60004761D01*
X25055714Y-60052380D01*
X25246190Y-60052380D01*
X25341428Y-60004761D01*
X25389047Y-59957142D01*
X25436666Y-59861904D01*
X25436666Y-59623809D01*
X25389047Y-59528571D01*
X25341428Y-59480952D01*
X25246190Y-59433333D01*
X25055714Y-59433333D01*
X24960476Y-59480952D01*
X24912857Y-59528571D01*
X24865238Y-59623809D01*
%TO.C,C1*%
X50562142Y-51821666D02*
X50609761Y-51869285D01*
X50657380Y-52012142D01*
X50657380Y-52107380D01*
X50609761Y-52250238D01*
X50514523Y-52345476D01*
X50419285Y-52393095D01*
X50228809Y-52440714D01*
X50085952Y-52440714D01*
X49895476Y-52393095D01*
X49800238Y-52345476D01*
X49705000Y-52250238D01*
X49657380Y-52107380D01*
X49657380Y-52012142D01*
X49705000Y-51869285D01*
X49752619Y-51821666D01*
X50657380Y-50869285D02*
X50657380Y-51440714D01*
X50657380Y-51155000D02*
X49657380Y-51155000D01*
X49800238Y-51250238D01*
X49895476Y-51345476D01*
X49943095Y-51440714D01*
%TO.C,R4*%
X52202380Y-46666666D02*
X51726190Y-47000000D01*
X52202380Y-47238095D02*
X51202380Y-47238095D01*
X51202380Y-46857142D01*
X51250000Y-46761904D01*
X51297619Y-46714285D01*
X51392857Y-46666666D01*
X51535714Y-46666666D01*
X51630952Y-46714285D01*
X51678571Y-46761904D01*
X51726190Y-46857142D01*
X51726190Y-47238095D01*
X51535714Y-45809523D02*
X52202380Y-45809523D01*
X51154761Y-46047619D02*
X51869047Y-46285714D01*
X51869047Y-45666666D01*
%TO.C,R5*%
X48452380Y-46666666D02*
X47976190Y-47000000D01*
X48452380Y-47238095D02*
X47452380Y-47238095D01*
X47452380Y-46857142D01*
X47500000Y-46761904D01*
X47547619Y-46714285D01*
X47642857Y-46666666D01*
X47785714Y-46666666D01*
X47880952Y-46714285D01*
X47928571Y-46761904D01*
X47976190Y-46857142D01*
X47976190Y-47238095D01*
X47452380Y-45761904D02*
X47452380Y-46238095D01*
X47928571Y-46285714D01*
X47880952Y-46238095D01*
X47833333Y-46142857D01*
X47833333Y-45904761D01*
X47880952Y-45809523D01*
X47928571Y-45761904D01*
X48023809Y-45714285D01*
X48261904Y-45714285D01*
X48357142Y-45761904D01*
X48404761Y-45809523D01*
X48452380Y-45904761D01*
X48452380Y-46142857D01*
X48404761Y-46238095D01*
X48357142Y-46285714D01*
%TO.C,R1*%
X47872380Y-10431666D02*
X47396190Y-10765000D01*
X47872380Y-11003095D02*
X46872380Y-11003095D01*
X46872380Y-10622142D01*
X46920000Y-10526904D01*
X46967619Y-10479285D01*
X47062857Y-10431666D01*
X47205714Y-10431666D01*
X47300952Y-10479285D01*
X47348571Y-10526904D01*
X47396190Y-10622142D01*
X47396190Y-11003095D01*
X47872380Y-9479285D02*
X47872380Y-10050714D01*
X47872380Y-9765000D02*
X46872380Y-9765000D01*
X47015238Y-9860238D01*
X47110476Y-9955476D01*
X47158095Y-10050714D01*
%TO.C,R3*%
X16943333Y-69602380D02*
X16610000Y-69126190D01*
X16371904Y-69602380D02*
X16371904Y-68602380D01*
X16752857Y-68602380D01*
X16848095Y-68650000D01*
X16895714Y-68697619D01*
X16943333Y-68792857D01*
X16943333Y-68935714D01*
X16895714Y-69030952D01*
X16848095Y-69078571D01*
X16752857Y-69126190D01*
X16371904Y-69126190D01*
X17276666Y-68602380D02*
X17895714Y-68602380D01*
X17562380Y-68983333D01*
X17705238Y-68983333D01*
X17800476Y-69030952D01*
X17848095Y-69078571D01*
X17895714Y-69173809D01*
X17895714Y-69411904D01*
X17848095Y-69507142D01*
X17800476Y-69554761D01*
X17705238Y-69602380D01*
X17419523Y-69602380D01*
X17324285Y-69554761D01*
X17276666Y-69507142D01*
%TO.C,Q1*%
X9144761Y-64937619D02*
X9049523Y-64890000D01*
X8954285Y-64794761D01*
X8811428Y-64651904D01*
X8716190Y-64604285D01*
X8620952Y-64604285D01*
X8668571Y-64842380D02*
X8573333Y-64794761D01*
X8478095Y-64699523D01*
X8430476Y-64509047D01*
X8430476Y-64175714D01*
X8478095Y-63985238D01*
X8573333Y-63890000D01*
X8668571Y-63842380D01*
X8859047Y-63842380D01*
X8954285Y-63890000D01*
X9049523Y-63985238D01*
X9097142Y-64175714D01*
X9097142Y-64509047D01*
X9049523Y-64699523D01*
X8954285Y-64794761D01*
X8859047Y-64842380D01*
X8668571Y-64842380D01*
X10049523Y-64842380D02*
X9478095Y-64842380D01*
X9763809Y-64842380D02*
X9763809Y-63842380D01*
X9668571Y-63985238D01*
X9573333Y-64080476D01*
X9478095Y-64128095D01*
%TO.C,J9*%
X50186666Y-59302380D02*
X50186666Y-60016666D01*
X50139047Y-60159523D01*
X50043809Y-60254761D01*
X49900952Y-60302380D01*
X49805714Y-60302380D01*
X50710476Y-60302380D02*
X50900952Y-60302380D01*
X50996190Y-60254761D01*
X51043809Y-60207142D01*
X51139047Y-60064285D01*
X51186666Y-59873809D01*
X51186666Y-59492857D01*
X51139047Y-59397619D01*
X51091428Y-59350000D01*
X50996190Y-59302380D01*
X50805714Y-59302380D01*
X50710476Y-59350000D01*
X50662857Y-59397619D01*
X50615238Y-59492857D01*
X50615238Y-59730952D01*
X50662857Y-59826190D01*
X50710476Y-59873809D01*
X50805714Y-59921428D01*
X50996190Y-59921428D01*
X51091428Y-59873809D01*
X51139047Y-59826190D01*
X51186666Y-59730952D01*
%TO.C,J10*%
X62700666Y-2322666D02*
X63200666Y-2322666D01*
X63300666Y-2356000D01*
X63367333Y-2422666D01*
X63400666Y-2522666D01*
X63400666Y-2589333D01*
X63400666Y-1622666D02*
X63400666Y-2022666D01*
X63400666Y-1822666D02*
X62700666Y-1822666D01*
X62800666Y-1889333D01*
X62867333Y-1956000D01*
X62900666Y-2022666D01*
X62700666Y-1189333D02*
X62700666Y-1122666D01*
X62734000Y-1056000D01*
X62767333Y-1022666D01*
X62834000Y-989333D01*
X62967333Y-956000D01*
X63134000Y-956000D01*
X63267333Y-989333D01*
X63334000Y-1022666D01*
X63367333Y-1056000D01*
X63400666Y-1122666D01*
X63400666Y-1189333D01*
X63367333Y-1256000D01*
X63334000Y-1289333D01*
X63267333Y-1322666D01*
X63134000Y-1356000D01*
X62967333Y-1356000D01*
X62834000Y-1322666D01*
X62767333Y-1289333D01*
X62734000Y-1256000D01*
X62700666Y-1189333D01*
%TO.C,Module2*%
X26906428Y-5235714D02*
X26306428Y-5235714D01*
X26306428Y-5092857D01*
X26335000Y-5007142D01*
X26392142Y-4950000D01*
X26449285Y-4921428D01*
X26563571Y-4892857D01*
X26649285Y-4892857D01*
X26763571Y-4921428D01*
X26820714Y-4950000D01*
X26877857Y-5007142D01*
X26906428Y-5092857D01*
X26906428Y-5235714D01*
X26306428Y-4721428D02*
X26306428Y-4378571D01*
X26906428Y-4550000D02*
X26306428Y-4550000D01*
X26906428Y-3835714D02*
X26620714Y-4035714D01*
X26906428Y-4178571D02*
X26306428Y-4178571D01*
X26306428Y-3950000D01*
X26335000Y-3892857D01*
X26363571Y-3864285D01*
X26420714Y-3835714D01*
X26506428Y-3835714D01*
X26563571Y-3864285D01*
X26592142Y-3892857D01*
X26620714Y-3950000D01*
X26620714Y-4178571D01*
X35860000Y-5007142D02*
X35831428Y-5064285D01*
X35831428Y-5150000D01*
X35860000Y-5235714D01*
X35917142Y-5292857D01*
X35974285Y-5321428D01*
X36088571Y-5350000D01*
X36174285Y-5350000D01*
X36288571Y-5321428D01*
X36345714Y-5292857D01*
X36402857Y-5235714D01*
X36431428Y-5150000D01*
X36431428Y-5092857D01*
X36402857Y-5007142D01*
X36374285Y-4978571D01*
X36174285Y-4978571D01*
X36174285Y-5092857D01*
X36431428Y-4721428D02*
X35831428Y-4721428D01*
X36431428Y-4378571D01*
X35831428Y-4378571D01*
X36431428Y-4092857D02*
X35831428Y-4092857D01*
X35831428Y-3950000D01*
X35860000Y-3864285D01*
X35917142Y-3807142D01*
X35974285Y-3778571D01*
X36088571Y-3750000D01*
X36174285Y-3750000D01*
X36288571Y-3778571D01*
X36345714Y-3807142D01*
X36402857Y-3864285D01*
X36431428Y-3950000D01*
X36431428Y-4092857D01*
X28211428Y-5592857D02*
X28211428Y-5250000D01*
X28811428Y-5421428D02*
X28211428Y-5421428D01*
X28211428Y-5107142D02*
X28811428Y-4707142D01*
X28211428Y-4707142D02*
X28811428Y-5107142D01*
X28811428Y-4478571D02*
X28211428Y-4478571D01*
X28211428Y-4335714D01*
X28240000Y-4250000D01*
X28297142Y-4192857D01*
X28354285Y-4164285D01*
X28468571Y-4135714D01*
X28554285Y-4135714D01*
X28668571Y-4164285D01*
X28725714Y-4192857D01*
X28782857Y-4250000D01*
X28811428Y-4335714D01*
X28811428Y-4478571D01*
X28211428Y-3764285D02*
X28211428Y-3707142D01*
X28240000Y-3650000D01*
X28268571Y-3621428D01*
X28325714Y-3592857D01*
X28440000Y-3564285D01*
X28582857Y-3564285D01*
X28697142Y-3592857D01*
X28754285Y-3621428D01*
X28782857Y-3650000D01*
X28811428Y-3707142D01*
X28811428Y-3764285D01*
X28782857Y-3821428D01*
X28754285Y-3850000D01*
X28697142Y-3878571D01*
X28582857Y-3907142D01*
X28440000Y-3907142D01*
X28325714Y-3878571D01*
X28268571Y-3850000D01*
X28240000Y-3821428D01*
X28211428Y-3764285D01*
D13*
X36235380Y-14035238D02*
X36259190Y-13963809D01*
X36259190Y-13844761D01*
X36235380Y-13797142D01*
X36211571Y-13773333D01*
X36163952Y-13749523D01*
X36116333Y-13749523D01*
X36068714Y-13773333D01*
X36044904Y-13797142D01*
X36021095Y-13844761D01*
X35997285Y-13940000D01*
X35973476Y-13987619D01*
X35949666Y-14011428D01*
X35902047Y-14035238D01*
X35854428Y-14035238D01*
X35806809Y-14011428D01*
X35783000Y-13987619D01*
X35759190Y-13940000D01*
X35759190Y-13820952D01*
X35783000Y-13749523D01*
X36211571Y-13249523D02*
X36235380Y-13273333D01*
X36259190Y-13344761D01*
X36259190Y-13392380D01*
X36235380Y-13463809D01*
X36187761Y-13511428D01*
X36140142Y-13535238D01*
X36044904Y-13559047D01*
X35973476Y-13559047D01*
X35878238Y-13535238D01*
X35830619Y-13511428D01*
X35783000Y-13463809D01*
X35759190Y-13392380D01*
X35759190Y-13344761D01*
X35783000Y-13273333D01*
X35806809Y-13249523D01*
X36259190Y-12797142D02*
X36259190Y-13035238D01*
X35759190Y-13035238D01*
D11*
X29435333Y-28177857D02*
X29435333Y-27796904D01*
X29663904Y-28254047D02*
X28863904Y-27987380D01*
X29663904Y-27720714D01*
X28863904Y-27568333D02*
X28863904Y-27111190D01*
X29663904Y-27339761D02*
X28863904Y-27339761D01*
X29663904Y-26844523D02*
X28863904Y-26844523D01*
X29435333Y-26577857D01*
X28863904Y-26311190D01*
X29663904Y-26311190D01*
X29625809Y-25625476D02*
X29663904Y-25701666D01*
X29663904Y-25854047D01*
X29625809Y-25930238D01*
X29549619Y-25968333D01*
X29244857Y-25968333D01*
X29168666Y-25930238D01*
X29130571Y-25854047D01*
X29130571Y-25701666D01*
X29168666Y-25625476D01*
X29244857Y-25587380D01*
X29321047Y-25587380D01*
X29397238Y-25968333D01*
X29130571Y-24901666D02*
X29778190Y-24901666D01*
X29854380Y-24939761D01*
X29892476Y-24977857D01*
X29930571Y-25054047D01*
X29930571Y-25168333D01*
X29892476Y-25244523D01*
X29625809Y-24901666D02*
X29663904Y-24977857D01*
X29663904Y-25130238D01*
X29625809Y-25206428D01*
X29587714Y-25244523D01*
X29511523Y-25282619D01*
X29282952Y-25282619D01*
X29206761Y-25244523D01*
X29168666Y-25206428D01*
X29130571Y-25130238D01*
X29130571Y-24977857D01*
X29168666Y-24901666D01*
X29663904Y-24177857D02*
X29244857Y-24177857D01*
X29168666Y-24215952D01*
X29130571Y-24292142D01*
X29130571Y-24444523D01*
X29168666Y-24520714D01*
X29625809Y-24177857D02*
X29663904Y-24254047D01*
X29663904Y-24444523D01*
X29625809Y-24520714D01*
X29549619Y-24558809D01*
X29473428Y-24558809D01*
X29397238Y-24520714D01*
X29359142Y-24444523D01*
X29359142Y-24254047D01*
X29321047Y-24177857D01*
X29663904Y-23377857D02*
X29663904Y-23835000D01*
X29663904Y-23606428D02*
X28863904Y-23606428D01*
X28978190Y-23682619D01*
X29054380Y-23758809D01*
X29092476Y-23835000D01*
X28940095Y-23073095D02*
X28902000Y-23035000D01*
X28863904Y-22958809D01*
X28863904Y-22768333D01*
X28902000Y-22692142D01*
X28940095Y-22654047D01*
X29016285Y-22615952D01*
X29092476Y-22615952D01*
X29206761Y-22654047D01*
X29663904Y-23111190D01*
X29663904Y-22615952D01*
X29206761Y-22158809D02*
X29168666Y-22235000D01*
X29130571Y-22273095D01*
X29054380Y-22311190D01*
X29016285Y-22311190D01*
X28940095Y-22273095D01*
X28902000Y-22235000D01*
X28863904Y-22158809D01*
X28863904Y-22006428D01*
X28902000Y-21930238D01*
X28940095Y-21892142D01*
X29016285Y-21854047D01*
X29054380Y-21854047D01*
X29130571Y-21892142D01*
X29168666Y-21930238D01*
X29206761Y-22006428D01*
X29206761Y-22158809D01*
X29244857Y-22235000D01*
X29282952Y-22273095D01*
X29359142Y-22311190D01*
X29511523Y-22311190D01*
X29587714Y-22273095D01*
X29625809Y-22235000D01*
X29663904Y-22158809D01*
X29663904Y-22006428D01*
X29625809Y-21930238D01*
X29587714Y-21892142D01*
X29511523Y-21854047D01*
X29359142Y-21854047D01*
X29282952Y-21892142D01*
X29244857Y-21930238D01*
X29206761Y-22006428D01*
X29130571Y-21168333D02*
X29663904Y-21168333D01*
X28825809Y-21358809D02*
X29397238Y-21549285D01*
X29397238Y-21054047D01*
X29663904Y-20749285D02*
X28863904Y-20749285D01*
X28863904Y-20444523D01*
X28902000Y-20368333D01*
X28940095Y-20330238D01*
X29016285Y-20292142D01*
X29130571Y-20292142D01*
X29206761Y-20330238D01*
X29244857Y-20368333D01*
X29282952Y-20444523D01*
X29282952Y-20749285D01*
X33291428Y-5350000D02*
X33891428Y-5150000D01*
X33291428Y-4950000D01*
X33834285Y-4407142D02*
X33862857Y-4435714D01*
X33891428Y-4521428D01*
X33891428Y-4578571D01*
X33862857Y-4664285D01*
X33805714Y-4721428D01*
X33748571Y-4750000D01*
X33634285Y-4778571D01*
X33548571Y-4778571D01*
X33434285Y-4750000D01*
X33377142Y-4721428D01*
X33320000Y-4664285D01*
X33291428Y-4578571D01*
X33291428Y-4521428D01*
X33320000Y-4435714D01*
X33348571Y-4407142D01*
X33834285Y-3807142D02*
X33862857Y-3835714D01*
X33891428Y-3921428D01*
X33891428Y-3978571D01*
X33862857Y-4064285D01*
X33805714Y-4121428D01*
X33748571Y-4150000D01*
X33634285Y-4178571D01*
X33548571Y-4178571D01*
X33434285Y-4150000D01*
X33377142Y-4121428D01*
X33320000Y-4064285D01*
X33291428Y-3978571D01*
X33291428Y-3921428D01*
X33320000Y-3835714D01*
X33348571Y-3807142D01*
D13*
X36235380Y-16587142D02*
X36259190Y-16515714D01*
X36259190Y-16396666D01*
X36235380Y-16349047D01*
X36211571Y-16325238D01*
X36163952Y-16301428D01*
X36116333Y-16301428D01*
X36068714Y-16325238D01*
X36044904Y-16349047D01*
X36021095Y-16396666D01*
X35997285Y-16491904D01*
X35973476Y-16539523D01*
X35949666Y-16563333D01*
X35902047Y-16587142D01*
X35854428Y-16587142D01*
X35806809Y-16563333D01*
X35783000Y-16539523D01*
X35759190Y-16491904D01*
X35759190Y-16372857D01*
X35783000Y-16301428D01*
X36259190Y-16087142D02*
X35759190Y-16087142D01*
X35759190Y-15968095D01*
X35783000Y-15896666D01*
X35830619Y-15849047D01*
X35878238Y-15825238D01*
X35973476Y-15801428D01*
X36044904Y-15801428D01*
X36140142Y-15825238D01*
X36187761Y-15849047D01*
X36235380Y-15896666D01*
X36259190Y-15968095D01*
X36259190Y-16087142D01*
X36116333Y-15610952D02*
X36116333Y-15372857D01*
X36259190Y-15658571D02*
X35759190Y-15491904D01*
X36259190Y-15325238D01*
D11*
X37765000Y-5007142D02*
X37736428Y-5064285D01*
X37736428Y-5150000D01*
X37765000Y-5235714D01*
X37822142Y-5292857D01*
X37879285Y-5321428D01*
X37993571Y-5350000D01*
X38079285Y-5350000D01*
X38193571Y-5321428D01*
X38250714Y-5292857D01*
X38307857Y-5235714D01*
X38336428Y-5150000D01*
X38336428Y-5092857D01*
X38307857Y-5007142D01*
X38279285Y-4978571D01*
X38079285Y-4978571D01*
X38079285Y-5092857D01*
X38336428Y-4721428D02*
X37736428Y-4721428D01*
X38336428Y-4378571D01*
X37736428Y-4378571D01*
X38336428Y-4092857D02*
X37736428Y-4092857D01*
X37736428Y-3950000D01*
X37765000Y-3864285D01*
X37822142Y-3807142D01*
X37879285Y-3778571D01*
X37993571Y-3750000D01*
X38079285Y-3750000D01*
X38193571Y-3778571D01*
X38250714Y-3807142D01*
X38307857Y-3864285D01*
X38336428Y-3950000D01*
X38336428Y-4092857D01*
X31351428Y-5235714D02*
X31065714Y-5435714D01*
X31351428Y-5578571D02*
X30751428Y-5578571D01*
X30751428Y-5350000D01*
X30780000Y-5292857D01*
X30808571Y-5264285D01*
X30865714Y-5235714D01*
X30951428Y-5235714D01*
X31008571Y-5264285D01*
X31037142Y-5292857D01*
X31065714Y-5350000D01*
X31065714Y-5578571D01*
X30751428Y-5035714D02*
X31351428Y-4635714D01*
X30751428Y-4635714D02*
X31351428Y-5035714D01*
X31351428Y-4407142D02*
X30751428Y-4407142D01*
X30751428Y-4264285D01*
X30780000Y-4178571D01*
X30837142Y-4121428D01*
X30894285Y-4092857D01*
X31008571Y-4064285D01*
X31094285Y-4064285D01*
X31208571Y-4092857D01*
X31265714Y-4121428D01*
X31322857Y-4178571D01*
X31351428Y-4264285D01*
X31351428Y-4407142D01*
X30751428Y-3692857D02*
X30751428Y-3635714D01*
X30780000Y-3578571D01*
X30808571Y-3550000D01*
X30865714Y-3521428D01*
X30980000Y-3492857D01*
X31122857Y-3492857D01*
X31237142Y-3521428D01*
X31294285Y-3550000D01*
X31322857Y-3578571D01*
X31351428Y-3635714D01*
X31351428Y-3692857D01*
X31322857Y-3750000D01*
X31294285Y-3778571D01*
X31237142Y-3807142D01*
X31122857Y-3835714D01*
X30980000Y-3835714D01*
X30865714Y-3807142D01*
X30808571Y-3778571D01*
X30780000Y-3750000D01*
X30751428Y-3692857D01*
%TO.C,Module1*%
X23470400Y-42191161D02*
X23375161Y-42238780D01*
X23184685Y-42238780D01*
X23089447Y-42191161D01*
X23041828Y-42095923D01*
X23041828Y-41714971D01*
X23089447Y-41619733D01*
X23184685Y-41572114D01*
X23375161Y-41572114D01*
X23470400Y-41619733D01*
X23518019Y-41714971D01*
X23518019Y-41810209D01*
X23041828Y-41905447D01*
X24279923Y-41714971D02*
X24422780Y-41762590D01*
X24470400Y-41810209D01*
X24518019Y-41905447D01*
X24518019Y-42048304D01*
X24470400Y-42143542D01*
X24422780Y-42191161D01*
X24327542Y-42238780D01*
X23946590Y-42238780D01*
X23946590Y-41238780D01*
X24279923Y-41238780D01*
X24375161Y-41286400D01*
X24422780Y-41334019D01*
X24470400Y-41429257D01*
X24470400Y-41524495D01*
X24422780Y-41619733D01*
X24375161Y-41667352D01*
X24279923Y-41714971D01*
X23946590Y-41714971D01*
X24851352Y-41572114D02*
X25089447Y-42238780D01*
X25327542Y-41572114D02*
X25089447Y-42238780D01*
X24994209Y-42476876D01*
X24946590Y-42524495D01*
X24851352Y-42572114D01*
X25565638Y-41572114D02*
X25946590Y-41572114D01*
X25708495Y-41238780D02*
X25708495Y-42095923D01*
X25756114Y-42191161D01*
X25851352Y-42238780D01*
X25946590Y-42238780D01*
X26660876Y-42191161D02*
X26565638Y-42238780D01*
X26375161Y-42238780D01*
X26279923Y-42191161D01*
X26232304Y-42095923D01*
X26232304Y-41714971D01*
X26279923Y-41619733D01*
X26375161Y-41572114D01*
X26565638Y-41572114D01*
X26660876Y-41619733D01*
X26708495Y-41714971D01*
X26708495Y-41810209D01*
X26232304Y-41905447D01*
X27898971Y-41714971D02*
X28232304Y-41714971D01*
X28375161Y-42238780D02*
X27898971Y-42238780D01*
X27898971Y-41238780D01*
X28375161Y-41238780D01*
X28994209Y-41238780D02*
X29089447Y-41238780D01*
X29184685Y-41286400D01*
X29232304Y-41334019D01*
X29279923Y-41429257D01*
X29327542Y-41619733D01*
X29327542Y-41857828D01*
X29279923Y-42048304D01*
X29232304Y-42143542D01*
X29184685Y-42191161D01*
X29089447Y-42238780D01*
X28994209Y-42238780D01*
X28898971Y-42191161D01*
X28851352Y-42143542D01*
X28803733Y-42048304D01*
X28756114Y-41857828D01*
X28756114Y-41619733D01*
X28803733Y-41429257D01*
X28851352Y-41334019D01*
X28898971Y-41286400D01*
X28994209Y-41238780D01*
X29660876Y-41238780D02*
X30327542Y-41238780D01*
X29898971Y-42238780D01*
X31613257Y-41667352D02*
X31518019Y-41619733D01*
X31470400Y-41572114D01*
X31422780Y-41476876D01*
X31422780Y-41429257D01*
X31470400Y-41334019D01*
X31518019Y-41286400D01*
X31613257Y-41238780D01*
X31803733Y-41238780D01*
X31898971Y-41286400D01*
X31946590Y-41334019D01*
X31994209Y-41429257D01*
X31994209Y-41476876D01*
X31946590Y-41572114D01*
X31898971Y-41619733D01*
X31803733Y-41667352D01*
X31613257Y-41667352D01*
X31518019Y-41714971D01*
X31470400Y-41762590D01*
X31422780Y-41857828D01*
X31422780Y-42048304D01*
X31470400Y-42143542D01*
X31518019Y-42191161D01*
X31613257Y-42238780D01*
X31803733Y-42238780D01*
X31898971Y-42191161D01*
X31946590Y-42143542D01*
X31994209Y-42048304D01*
X31994209Y-41857828D01*
X31946590Y-41762590D01*
X31898971Y-41714971D01*
X31803733Y-41667352D01*
X32851352Y-41238780D02*
X32660876Y-41238780D01*
X32565638Y-41286400D01*
X32518019Y-41334019D01*
X32422780Y-41476876D01*
X32375161Y-41667352D01*
X32375161Y-42048304D01*
X32422780Y-42143542D01*
X32470400Y-42191161D01*
X32565638Y-42238780D01*
X32756114Y-42238780D01*
X32851352Y-42191161D01*
X32898971Y-42143542D01*
X32946590Y-42048304D01*
X32946590Y-41810209D01*
X32898971Y-41714971D01*
X32851352Y-41667352D01*
X32756114Y-41619733D01*
X32565638Y-41619733D01*
X32470400Y-41667352D01*
X32422780Y-41714971D01*
X32375161Y-41810209D01*
X33518019Y-41667352D02*
X33422780Y-41619733D01*
X33375161Y-41572114D01*
X33327542Y-41476876D01*
X33327542Y-41429257D01*
X33375161Y-41334019D01*
X33422780Y-41286400D01*
X33518019Y-41238780D01*
X33708495Y-41238780D01*
X33803733Y-41286400D01*
X33851352Y-41334019D01*
X33898971Y-41429257D01*
X33898971Y-41476876D01*
X33851352Y-41572114D01*
X33803733Y-41619733D01*
X33708495Y-41667352D01*
X33518019Y-41667352D01*
X33422780Y-41714971D01*
X33375161Y-41762590D01*
X33327542Y-41857828D01*
X33327542Y-42048304D01*
X33375161Y-42143542D01*
X33422780Y-42191161D01*
X33518019Y-42238780D01*
X33708495Y-42238780D01*
X33803733Y-42191161D01*
X33851352Y-42143542D01*
X33898971Y-42048304D01*
X33898971Y-41857828D01*
X33851352Y-41762590D01*
X33803733Y-41714971D01*
X33708495Y-41667352D01*
X34327542Y-42238780D02*
X34327542Y-41238780D01*
X34660876Y-41953066D01*
X34994209Y-41238780D01*
X34994209Y-42238780D01*
X35422780Y-42191161D02*
X35565638Y-42238780D01*
X35803733Y-42238780D01*
X35898971Y-42191161D01*
X35946590Y-42143542D01*
X35994209Y-42048304D01*
X35994209Y-41953066D01*
X35946590Y-41857828D01*
X35898971Y-41810209D01*
X35803733Y-41762590D01*
X35613257Y-41714971D01*
X35518019Y-41667352D01*
X35470400Y-41619733D01*
X35422780Y-41524495D01*
X35422780Y-41429257D01*
X35470400Y-41334019D01*
X35518019Y-41286400D01*
X35613257Y-41238780D01*
X35851352Y-41238780D01*
X35994209Y-41286400D01*
X36946590Y-42238780D02*
X36375161Y-42238780D01*
X36660876Y-42238780D02*
X36660876Y-41238780D01*
X36565638Y-41381638D01*
X36470399Y-41476876D01*
X36375161Y-41524495D01*
X37565638Y-41238780D02*
X37660876Y-41238780D01*
X37756114Y-41286400D01*
X37803733Y-41334019D01*
X37851352Y-41429257D01*
X37898971Y-41619733D01*
X37898971Y-41857828D01*
X37851352Y-42048304D01*
X37803733Y-42143542D01*
X37756114Y-42191161D01*
X37660876Y-42238780D01*
X37565638Y-42238780D01*
X37470399Y-42191161D01*
X37422780Y-42143542D01*
X37375161Y-42048304D01*
X37327542Y-41857828D01*
X37327542Y-41619733D01*
X37375161Y-41429257D01*
X37422780Y-41334019D01*
X37470399Y-41286400D01*
X37565638Y-41238780D01*
%TO.C,JP2*%
X52202380Y-11083333D02*
X52916666Y-11083333D01*
X53059523Y-11130952D01*
X53154761Y-11226190D01*
X53202380Y-11369047D01*
X53202380Y-11464285D01*
X53202380Y-10607142D02*
X52202380Y-10607142D01*
X52202380Y-10226190D01*
X52250000Y-10130952D01*
X52297619Y-10083333D01*
X52392857Y-10035714D01*
X52535714Y-10035714D01*
X52630952Y-10083333D01*
X52678571Y-10130952D01*
X52726190Y-10226190D01*
X52726190Y-10607142D01*
X52297619Y-9654761D02*
X52250000Y-9607142D01*
X52202380Y-9511904D01*
X52202380Y-9273809D01*
X52250000Y-9178571D01*
X52297619Y-9130952D01*
X52392857Y-9083333D01*
X52488095Y-9083333D01*
X52630952Y-9130952D01*
X53202380Y-9702380D01*
X53202380Y-9083333D01*
%TO.C,SW1*%
X47501266Y-16702261D02*
X47644123Y-16749880D01*
X47882219Y-16749880D01*
X47977457Y-16702261D01*
X48025076Y-16654642D01*
X48072695Y-16559404D01*
X48072695Y-16464166D01*
X48025076Y-16368928D01*
X47977457Y-16321309D01*
X47882219Y-16273690D01*
X47691742Y-16226071D01*
X47596504Y-16178452D01*
X47548885Y-16130833D01*
X47501266Y-16035595D01*
X47501266Y-15940357D01*
X47548885Y-15845119D01*
X47596504Y-15797500D01*
X47691742Y-15749880D01*
X47929838Y-15749880D01*
X48072695Y-15797500D01*
X48406028Y-15749880D02*
X48644123Y-16749880D01*
X48834600Y-16035595D01*
X49025076Y-16749880D01*
X49263171Y-15749880D01*
X50167933Y-16749880D02*
X49596504Y-16749880D01*
X49882219Y-16749880D02*
X49882219Y-15749880D01*
X49786980Y-15892738D01*
X49691742Y-15987976D01*
X49596504Y-16035595D01*
%TO.C,J8*%
X39326666Y-59082380D02*
X39326666Y-59796666D01*
X39279047Y-59939523D01*
X39183809Y-60034761D01*
X39040952Y-60082380D01*
X38945714Y-60082380D01*
X39945714Y-59510952D02*
X39850476Y-59463333D01*
X39802857Y-59415714D01*
X39755238Y-59320476D01*
X39755238Y-59272857D01*
X39802857Y-59177619D01*
X39850476Y-59130000D01*
X39945714Y-59082380D01*
X40136190Y-59082380D01*
X40231428Y-59130000D01*
X40279047Y-59177619D01*
X40326666Y-59272857D01*
X40326666Y-59320476D01*
X40279047Y-59415714D01*
X40231428Y-59463333D01*
X40136190Y-59510952D01*
X39945714Y-59510952D01*
X39850476Y-59558571D01*
X39802857Y-59606190D01*
X39755238Y-59701428D01*
X39755238Y-59891904D01*
X39802857Y-59987142D01*
X39850476Y-60034761D01*
X39945714Y-60082380D01*
X40136190Y-60082380D01*
X40231428Y-60034761D01*
X40279047Y-59987142D01*
X40326666Y-59891904D01*
X40326666Y-59701428D01*
X40279047Y-59606190D01*
X40231428Y-59558571D01*
X40136190Y-59510952D01*
%TO.C,J11*%
X24182380Y-53429023D02*
X24896666Y-53429023D01*
X25039523Y-53476642D01*
X25134761Y-53571880D01*
X25182380Y-53714738D01*
X25182380Y-53809976D01*
X25182380Y-52429023D02*
X25182380Y-53000452D01*
X25182380Y-52714738D02*
X24182380Y-52714738D01*
X24325238Y-52809976D01*
X24420476Y-52905214D01*
X24468095Y-53000452D01*
X25182380Y-51476642D02*
X25182380Y-52048071D01*
X25182380Y-51762357D02*
X24182380Y-51762357D01*
X24325238Y-51857595D01*
X24420476Y-51952833D01*
X24468095Y-52048071D01*
%TO.C,BT2*%
X1928571Y-61705714D02*
X1976190Y-61562857D01*
X2023809Y-61515238D01*
X2119047Y-61467619D01*
X2261904Y-61467619D01*
X2357142Y-61515238D01*
X2404761Y-61562857D01*
X2452380Y-61658095D01*
X2452380Y-62039047D01*
X1452380Y-62039047D01*
X1452380Y-61705714D01*
X1500000Y-61610476D01*
X1547619Y-61562857D01*
X1642857Y-61515238D01*
X1738095Y-61515238D01*
X1833333Y-61562857D01*
X1880952Y-61610476D01*
X1928571Y-61705714D01*
X1928571Y-62039047D01*
X1452380Y-61181904D02*
X1452380Y-60610476D01*
X2452380Y-60896190D02*
X1452380Y-60896190D01*
X1547619Y-60324761D02*
X1500000Y-60277142D01*
X1452380Y-60181904D01*
X1452380Y-59943809D01*
X1500000Y-59848571D01*
X1547619Y-59800952D01*
X1642857Y-59753333D01*
X1738095Y-59753333D01*
X1880952Y-59800952D01*
X2452380Y-60372380D01*
X2452380Y-59753333D01*
X11431428Y-64680952D02*
X11431428Y-63919047D01*
X11812380Y-64300000D02*
X11050476Y-64300000D01*
X10979047Y-5601428D02*
X11740952Y-5601428D01*
X11846980Y-42537720D02*
X10846980Y-42537720D01*
X11846980Y-41966291D02*
X11275552Y-42394862D01*
X10846980Y-41966291D02*
X11418409Y-42537720D01*
X11799361Y-41156767D02*
X11846980Y-41252005D01*
X11846980Y-41442481D01*
X11799361Y-41537720D01*
X11704123Y-41585339D01*
X11323171Y-41585339D01*
X11227933Y-41537720D01*
X11180314Y-41442481D01*
X11180314Y-41252005D01*
X11227933Y-41156767D01*
X11323171Y-41109148D01*
X11418409Y-41109148D01*
X11513647Y-41585339D01*
X11180314Y-40775815D02*
X11846980Y-40537720D01*
X11180314Y-40299624D02*
X11846980Y-40537720D01*
X12085076Y-40632958D01*
X12132695Y-40680577D01*
X12180314Y-40775815D01*
X11799361Y-39966291D02*
X11846980Y-39871053D01*
X11846980Y-39680577D01*
X11799361Y-39585339D01*
X11704123Y-39537720D01*
X11656504Y-39537720D01*
X11561266Y-39585339D01*
X11513647Y-39680577D01*
X11513647Y-39823434D01*
X11466028Y-39918672D01*
X11370790Y-39966291D01*
X11323171Y-39966291D01*
X11227933Y-39918672D01*
X11180314Y-39823434D01*
X11180314Y-39680577D01*
X11227933Y-39585339D01*
X11180314Y-39252005D02*
X11180314Y-38871053D01*
X10846980Y-39109148D02*
X11704123Y-39109148D01*
X11799361Y-39061529D01*
X11846980Y-38966291D01*
X11846980Y-38871053D01*
X11846980Y-38394862D02*
X11799361Y-38490100D01*
X11751742Y-38537720D01*
X11656504Y-38585339D01*
X11370790Y-38585339D01*
X11275552Y-38537720D01*
X11227933Y-38490100D01*
X11180314Y-38394862D01*
X11180314Y-38252005D01*
X11227933Y-38156767D01*
X11275552Y-38109148D01*
X11370790Y-38061529D01*
X11656504Y-38061529D01*
X11751742Y-38109148D01*
X11799361Y-38156767D01*
X11846980Y-38252005D01*
X11846980Y-38394862D01*
X11180314Y-37632958D02*
X11846980Y-37632958D01*
X11275552Y-37632958D02*
X11227933Y-37585339D01*
X11180314Y-37490100D01*
X11180314Y-37347243D01*
X11227933Y-37252005D01*
X11323171Y-37204386D01*
X11846980Y-37204386D01*
X11799361Y-36347243D02*
X11846980Y-36442481D01*
X11846980Y-36632958D01*
X11799361Y-36728196D01*
X11704123Y-36775815D01*
X11323171Y-36775815D01*
X11227933Y-36728196D01*
X11180314Y-36632958D01*
X11180314Y-36442481D01*
X11227933Y-36347243D01*
X11323171Y-36299624D01*
X11418409Y-36299624D01*
X11513647Y-36775815D01*
X10942219Y-35156767D02*
X10894600Y-35109148D01*
X10846980Y-35013910D01*
X10846980Y-34775815D01*
X10894600Y-34680577D01*
X10942219Y-34632958D01*
X11037457Y-34585339D01*
X11132695Y-34585339D01*
X11275552Y-34632958D01*
X11846980Y-35204386D01*
X11846980Y-34585339D01*
X11180314Y-33728196D02*
X11846980Y-33728196D01*
X10799361Y-33966291D02*
X11513647Y-34204386D01*
X11513647Y-33585339D01*
X10846980Y-32775815D02*
X10846980Y-32966291D01*
X10894600Y-33061529D01*
X10942219Y-33109148D01*
X11085076Y-33204386D01*
X11275552Y-33252005D01*
X11656504Y-33252005D01*
X11751742Y-33204386D01*
X11799361Y-33156767D01*
X11846980Y-33061529D01*
X11846980Y-32871053D01*
X11799361Y-32775815D01*
X11751742Y-32728196D01*
X11656504Y-32680577D01*
X11418409Y-32680577D01*
X11323171Y-32728196D01*
X11275552Y-32775815D01*
X11227933Y-32871053D01*
X11227933Y-33061529D01*
X11275552Y-33156767D01*
X11323171Y-33204386D01*
X11418409Y-33252005D01*
X10846980Y-32061529D02*
X10846980Y-31966291D01*
X10894600Y-31871053D01*
X10942219Y-31823434D01*
X11037457Y-31775815D01*
X11227933Y-31728196D01*
X11466028Y-31728196D01*
X11656504Y-31775815D01*
X11751742Y-31823434D01*
X11799361Y-31871053D01*
X11846980Y-31966291D01*
X11846980Y-32061529D01*
X11799361Y-32156767D01*
X11751742Y-32204386D01*
X11656504Y-32252005D01*
X11466028Y-32299624D01*
X11227933Y-32299624D01*
X11037457Y-32252005D01*
X10942219Y-32204386D01*
X10894600Y-32156767D01*
X10846980Y-32061529D01*
X11846980Y-30013910D02*
X11846980Y-30585339D01*
X11846980Y-30299624D02*
X10846980Y-30299624D01*
X10989838Y-30394862D01*
X11085076Y-30490100D01*
X11132695Y-30585339D01*
X11846980Y-29680577D02*
X11180314Y-29156767D01*
X11180314Y-29680577D02*
X11846980Y-29156767D01*
X11561266Y-28823434D02*
X11561266Y-28347243D01*
X11846980Y-28918672D02*
X10846980Y-28585339D01*
X11846980Y-28252005D01*
X11561266Y-27966291D02*
X11561266Y-27490100D01*
X11846980Y-28061529D02*
X10846980Y-27728196D01*
X11846980Y-27394862D01*
D15*
%TO.C,D1*%
X46286000Y-2990000D02*
X46130000Y-2990000D01*
X43970000Y-2990000D02*
X43814000Y-2990000D01*
X43970000Y-3509039D02*
G75*
G03*
X43970163Y-5591130I1080000J-1040961D01*
G01*
X46128608Y-6222335D02*
G75*
G03*
X46285516Y-2990000I-1078608J1672335D01*
G01*
X46129837Y-5591130D02*
G75*
G03*
X46130000Y-3509039I-1079837J1041130D01*
G01*
X43814484Y-2990000D02*
G75*
G03*
X43971392Y-6222335I1235516J-1560000D01*
G01*
%TO.C,J1*%
X44990000Y-35665000D02*
X44990000Y-34335000D01*
X44990000Y-36935000D02*
X44990000Y-39535000D01*
X44990000Y-39535000D02*
X47650000Y-39535000D01*
X47650000Y-36935000D02*
X47650000Y-39535000D01*
X44990000Y-36935000D02*
X47650000Y-36935000D01*
X44990000Y-34335000D02*
X46320000Y-34335000D01*
%TO.C,J2*%
X50070000Y-36935000D02*
X50070000Y-39535000D01*
X50070000Y-35665000D02*
X50070000Y-34335000D01*
X50070000Y-39535000D02*
X52730000Y-39535000D01*
X52730000Y-36935000D02*
X52730000Y-39535000D01*
X50070000Y-36935000D02*
X52730000Y-36935000D01*
X50070000Y-34335000D02*
X51400000Y-34335000D01*
%TO.C,J7*%
X36220000Y-70590000D02*
X36220000Y-71920000D01*
X33560000Y-69320000D02*
X33560000Y-61640000D01*
X36220000Y-71920000D02*
X34890000Y-71920000D01*
X36220000Y-61640000D02*
X33560000Y-61640000D01*
X36220000Y-69320000D02*
X33560000Y-69320000D01*
X36220000Y-69320000D02*
X36220000Y-61640000D01*
%TO.C,BT1*%
X71090000Y-44760000D02*
X71090000Y-62760000D01*
X64550000Y-56170000D02*
X62550000Y-56170000D01*
X54925000Y-6240000D02*
X72055000Y-6240000D01*
X69090000Y-26960000D02*
X69090000Y-42760000D01*
X65550000Y-57170000D02*
X61550000Y-57170000D01*
X72055000Y-63480000D02*
X54925000Y-63480000D01*
X55890000Y-44760000D02*
X55890000Y-62760000D01*
X55890000Y-6960000D02*
X55890000Y-24960000D01*
X71090000Y-6960000D02*
X71090000Y-24960000D01*
X72055000Y-6240000D02*
X72055000Y-63480000D01*
X60550000Y-58170000D02*
X66550000Y-58170000D01*
X54925000Y-63480000D02*
X54925000Y-6240000D01*
X67550000Y-59170000D02*
X59550000Y-59170000D01*
X71090000Y-62760000D02*
X55890000Y-62760000D01*
X71090000Y-6960000D02*
X55890000Y-6960000D01*
X57890000Y-42760000D02*
X57890000Y-26960000D01*
X55890000Y-44760000D02*
G75*
G03*
X57890000Y-42760000I0J2000000D01*
G01*
X69090000Y-42760000D02*
G75*
G03*
X71090000Y-44760000I2000000J0D01*
G01*
X57890000Y-26960000D02*
G75*
G03*
X55890000Y-24960000I-2000000J0D01*
G01*
X71090000Y-24960000D02*
G75*
G03*
X69090000Y-26960000I0J-2000000D01*
G01*
%TO.C,J3*%
X44990000Y-27410000D02*
X47650000Y-27410000D01*
X47650000Y-27410000D02*
X47650000Y-30010000D01*
X44990000Y-26140000D02*
X44990000Y-24810000D01*
X44990000Y-27410000D02*
X44990000Y-30010000D01*
X44990000Y-30010000D02*
X47650000Y-30010000D01*
X44990000Y-24810000D02*
X46320000Y-24810000D01*
%TO.C,J4*%
X50070000Y-27410000D02*
X50070000Y-30010000D01*
X50070000Y-27410000D02*
X52730000Y-27410000D01*
X52730000Y-27410000D02*
X52730000Y-30010000D01*
X50070000Y-26140000D02*
X50070000Y-24810000D01*
X50070000Y-30010000D02*
X52730000Y-30010000D01*
X50070000Y-24810000D02*
X51400000Y-24810000D01*
%TO.C,J5*%
X55150000Y-68110000D02*
X55150000Y-66780000D01*
X57750000Y-65450000D02*
X70510000Y-65450000D01*
X57750000Y-68110000D02*
X57750000Y-65450000D01*
X70510000Y-68110000D02*
X70510000Y-65450000D01*
X56480000Y-68110000D02*
X55150000Y-68110000D01*
X57750000Y-68110000D02*
X70510000Y-68110000D01*
%TO.C,J6*%
X26060000Y-70590000D02*
X26060000Y-71920000D01*
X26060000Y-69320000D02*
X23400000Y-69320000D01*
X26060000Y-61640000D02*
X23400000Y-61640000D01*
X26060000Y-71920000D02*
X24730000Y-71920000D01*
X23400000Y-69320000D02*
X23400000Y-61640000D01*
X26060000Y-69320000D02*
X26060000Y-61640000D01*
%TO.C,C1*%
X48471000Y-53096000D02*
X47795000Y-53096000D01*
X48350000Y-49585199D02*
X47950000Y-49585199D01*
X48715000Y-52776000D02*
X47795000Y-52776000D01*
X46115000Y-52496000D02*
X45048000Y-52496000D01*
X48825000Y-52576000D02*
X47795000Y-52576000D01*
X47325000Y-53736000D02*
X46585000Y-53736000D01*
X48393000Y-53176000D02*
X47795000Y-53176000D01*
X48574000Y-52976000D02*
X47795000Y-52976000D01*
X46115000Y-52776000D02*
X45195000Y-52776000D01*
X46115000Y-53136000D02*
X45477000Y-53136000D01*
X46115000Y-53176000D02*
X45517000Y-53176000D01*
X48806000Y-52616000D02*
X47795000Y-52616000D01*
X49017000Y-51935000D02*
X47795000Y-51935000D01*
X46115000Y-52175000D02*
X44939000Y-52175000D01*
X46115000Y-52456000D02*
X45031000Y-52456000D01*
X46115000Y-52015000D02*
X44905000Y-52015000D01*
X49035000Y-51655000D02*
X47795000Y-51655000D01*
X46115000Y-51695000D02*
X44875000Y-51695000D01*
X47492000Y-53696000D02*
X46418000Y-53696000D01*
X48989000Y-52095000D02*
X47795000Y-52095000D01*
X48209000Y-53336000D02*
X45701000Y-53336000D01*
X46115000Y-53216000D02*
X45559000Y-53216000D01*
X46115000Y-52976000D02*
X45336000Y-52976000D01*
X48542000Y-53016000D02*
X47795000Y-53016000D01*
X48306000Y-53256000D02*
X45604000Y-53256000D01*
X47619000Y-53656000D02*
X46291000Y-53656000D01*
X49005000Y-52015000D02*
X47795000Y-52015000D01*
X48663000Y-52856000D02*
X47795000Y-52856000D01*
X46115000Y-51815000D02*
X44881000Y-51815000D01*
X48690000Y-52816000D02*
X47795000Y-52816000D01*
X46115000Y-52295000D02*
X44973000Y-52295000D01*
X48997000Y-52055000D02*
X47795000Y-52055000D01*
X49032000Y-51775000D02*
X47795000Y-51775000D01*
X48879000Y-52456000D02*
X47795000Y-52456000D01*
X46115000Y-51655000D02*
X44875000Y-51655000D01*
X46115000Y-51735000D02*
X44876000Y-51735000D01*
X46115000Y-53016000D02*
X45368000Y-53016000D01*
X48785000Y-52656000D02*
X47795000Y-52656000D01*
X47814000Y-53576000D02*
X46096000Y-53576000D01*
X46115000Y-52135000D02*
X44930000Y-52135000D01*
X48155000Y-53376000D02*
X45755000Y-53376000D01*
X49011000Y-51975000D02*
X47795000Y-51975000D01*
X49034000Y-51735000D02*
X47795000Y-51735000D01*
X46115000Y-52215000D02*
X44950000Y-52215000D01*
X46115000Y-53096000D02*
X45439000Y-53096000D01*
X46115000Y-52536000D02*
X45066000Y-52536000D01*
X48844000Y-52536000D02*
X47795000Y-52536000D01*
X49029000Y-51815000D02*
X47795000Y-51815000D01*
X46115000Y-52335000D02*
X44987000Y-52335000D01*
X46115000Y-52736000D02*
X45170000Y-52736000D01*
X48923000Y-52335000D02*
X47795000Y-52335000D01*
X46115000Y-52656000D02*
X45125000Y-52656000D01*
X46115000Y-52255000D02*
X44961000Y-52255000D01*
X46115000Y-51975000D02*
X44899000Y-51975000D01*
X48605000Y-52936000D02*
X47795000Y-52936000D01*
X48937000Y-52295000D02*
X47795000Y-52295000D01*
X46115000Y-52095000D02*
X44921000Y-52095000D01*
X49035000Y-51695000D02*
X47795000Y-51695000D01*
X46115000Y-51935000D02*
X44893000Y-51935000D01*
X48909000Y-52376000D02*
X47795000Y-52376000D01*
X46115000Y-52576000D02*
X45085000Y-52576000D01*
X48150000Y-49385199D02*
X48150000Y-49785199D01*
X48740000Y-52736000D02*
X47795000Y-52736000D01*
X48259000Y-53296000D02*
X45651000Y-53296000D01*
X48351000Y-53216000D02*
X47795000Y-53216000D01*
X48507000Y-53056000D02*
X47795000Y-53056000D01*
X48433000Y-53136000D02*
X47795000Y-53136000D01*
X47968000Y-53496000D02*
X45942000Y-53496000D01*
X48035000Y-53456000D02*
X45875000Y-53456000D01*
X46115000Y-52055000D02*
X44913000Y-52055000D01*
X48895000Y-52416000D02*
X47795000Y-52416000D01*
X48949000Y-52255000D02*
X47795000Y-52255000D01*
X49022000Y-51895000D02*
X47795000Y-51895000D01*
X46115000Y-52416000D02*
X45015000Y-52416000D01*
X46115000Y-51855000D02*
X44884000Y-51855000D01*
X46115000Y-52856000D02*
X45247000Y-52856000D01*
X46115000Y-52936000D02*
X45305000Y-52936000D01*
X48097000Y-53416000D02*
X45813000Y-53416000D01*
X47895000Y-53536000D02*
X46015000Y-53536000D01*
X48971000Y-52175000D02*
X47795000Y-52175000D01*
X46115000Y-52896000D02*
X45275000Y-52896000D01*
X48763000Y-52696000D02*
X47795000Y-52696000D01*
X46115000Y-52376000D02*
X45001000Y-52376000D01*
X49026000Y-51855000D02*
X47795000Y-51855000D01*
X48980000Y-52135000D02*
X47795000Y-52135000D01*
X46115000Y-51895000D02*
X44888000Y-51895000D01*
X48635000Y-52896000D02*
X47795000Y-52896000D01*
X48960000Y-52215000D02*
X47795000Y-52215000D01*
X46115000Y-52696000D02*
X45147000Y-52696000D01*
X46115000Y-52616000D02*
X45104000Y-52616000D01*
X46115000Y-52816000D02*
X45220000Y-52816000D01*
X48862000Y-52496000D02*
X47795000Y-52496000D01*
X46115000Y-53056000D02*
X45403000Y-53056000D01*
X47723000Y-53616000D02*
X46187000Y-53616000D01*
X46115000Y-51775000D02*
X44878000Y-51775000D01*
X49075000Y-51655000D02*
G75*
G03*
X49075000Y-51655000I-2120000J0D01*
G01*
%TO.C,R4*%
X50130000Y-45925000D02*
X50130000Y-45995000D01*
X51500000Y-44555000D02*
G75*
G03*
X51500000Y-44555000I-1370000J0D01*
G01*
%TO.C,R5*%
X46320000Y-45925000D02*
X46320000Y-45995000D01*
X47690000Y-44555000D02*
G75*
G03*
X47690000Y-44555000I-1370000J0D01*
G01*
%TO.C,R1*%
X45050000Y-10365000D02*
X45050000Y-10435000D01*
X46420000Y-8995000D02*
G75*
G03*
X46420000Y-8995000I-1370000J0D01*
G01*
%TO.C,R3*%
X17010000Y-66780000D02*
X16940000Y-66780000D01*
X19750000Y-66780000D02*
G75*
G03*
X19750000Y-66780000I-1370000J0D01*
G01*
%TO.C,Q1*%
X12539000Y-66129000D02*
X12650000Y-66129000D01*
X5830000Y-65390000D02*
X12650000Y-65390000D01*
X12650000Y-65390000D02*
X12650000Y-67930000D01*
X7959000Y-66129000D02*
X8232000Y-66129000D01*
X10249000Y-66129000D02*
X10522000Y-66129000D01*
X5830000Y-66129000D02*
X5941000Y-66129000D01*
X5830000Y-65390000D02*
X5830000Y-67930000D01*
X5830000Y-67930000D02*
X12650000Y-67930000D01*
%TO.C,J9*%
X51460000Y-61640000D02*
X48800000Y-61640000D01*
X51460000Y-69320000D02*
X48800000Y-69320000D01*
X51460000Y-70590000D02*
X51460000Y-71920000D01*
X51460000Y-71920000D02*
X50130000Y-71920000D01*
X48800000Y-69320000D02*
X48800000Y-61640000D01*
X51460000Y-69320000D02*
X51460000Y-61640000D01*
%TO.C,J10*%
X71399000Y-4673500D02*
X71399000Y-2013500D01*
X63659000Y-4673500D02*
X63659000Y-3343500D01*
X66259000Y-4673500D02*
X71399000Y-4673500D01*
X66259000Y-4673500D02*
X66259000Y-2013500D01*
X66259000Y-2013500D02*
X71399000Y-2013500D01*
X64989000Y-4673500D02*
X63659000Y-4673500D01*
D11*
%TO.C,Module2*%
X33239000Y-8233000D02*
X28159000Y-8233000D01*
D15*
X29810000Y-12360000D02*
X33366000Y-12360000D01*
D11*
X41240000Y-740000D02*
X23460000Y-740000D01*
X41240000Y-33760000D02*
X41240000Y-740000D01*
X23460000Y-740000D02*
X23460000Y-33760000D01*
X33239000Y-10773000D02*
X33239000Y-8233000D01*
X23460000Y-33760000D02*
X41240000Y-33760000D01*
D15*
X37397000Y-19282000D02*
X27397000Y-19282000D01*
D11*
X28159000Y-10773000D02*
X33239000Y-10773000D01*
D15*
X37430000Y-29315000D02*
X37397000Y-19315000D01*
X29810000Y-16361000D02*
X33366000Y-16361000D01*
D11*
X28159000Y-8233000D02*
X28159000Y-10773000D01*
D15*
X27430000Y-29315000D02*
X27397000Y-19315000D01*
X37430000Y-29315000D02*
X27430000Y-29315000D01*
X29810000Y-12360000D02*
G75*
G03*
X29810000Y-16360000I0J-2000000D01*
G01*
X33366000Y-16360000D02*
G75*
G03*
X33366000Y-12360000I0J2000000D01*
G01*
D11*
X31715000Y-2010000D02*
G75*
G03*
X31715000Y-2010000I-635000J0D01*
G01*
X29175000Y-2010000D02*
G75*
G03*
X29175000Y-2010000I-635000J0D01*
G01*
X39335000Y-2010000D02*
G75*
G03*
X39335000Y-2010000I-635000J0D01*
G01*
D15*
X38065000Y-15980000D02*
G75*
G03*
X38065000Y-15980000I-635000J0D01*
G01*
D11*
X26635000Y-2010000D02*
G75*
G03*
X26635000Y-2010000I-635000J0D01*
G01*
X36795000Y-2010000D02*
G75*
G03*
X36795000Y-2010000I-635000J0D01*
G01*
D15*
X38065000Y-13440000D02*
G75*
G03*
X38065000Y-13440000I-635000J0D01*
G01*
D11*
X34255000Y-2010000D02*
G75*
G03*
X34255000Y-2010000I-635000J0D01*
G01*
D15*
%TO.C,Module1*%
X21230000Y-35900000D02*
X40530000Y-35900000D01*
X21230000Y-35900000D02*
X21230000Y-39100000D01*
X40530000Y-35900000D02*
X40530000Y-37700000D01*
X21230000Y-40400000D02*
X21230000Y-49200000D01*
X40530000Y-49200000D02*
X40530000Y-47800000D01*
X40530000Y-49200000D02*
X21230000Y-49200000D01*
D16*
X23330000Y-47400000D02*
G75*
G03*
X23330000Y-47400000I-400000J0D01*
G01*
D15*
X24381139Y-37470000D02*
G75*
G03*
X24381139Y-37470000I-1581139J0D01*
G01*
%TO.C,JP2*%
X49257000Y-11650000D02*
X49257000Y-8850000D01*
X49257000Y-8850000D02*
X51257000Y-8850000D01*
X51257000Y-11650000D02*
X49257000Y-11650000D01*
X51257000Y-8850000D02*
X51257000Y-11650000D01*
%TO.C,SW1*%
X46685000Y-20845000D02*
X51185000Y-20845000D01*
X52435000Y-18345000D02*
X52435000Y-16845000D01*
X51185000Y-14345000D02*
X46685000Y-14345000D01*
X45435000Y-16845000D02*
X45435000Y-18345000D01*
%TO.C,J8*%
X41300000Y-69320000D02*
X41300000Y-61640000D01*
X41300000Y-69320000D02*
X38640000Y-69320000D01*
X41300000Y-70590000D02*
X41300000Y-71920000D01*
X41300000Y-61640000D02*
X38640000Y-61640000D01*
X41300000Y-71920000D02*
X39970000Y-71920000D01*
X38640000Y-69320000D02*
X38640000Y-61640000D01*
%TO.C,LOGO1*%
G36*
X14031491Y-24588425D02*
G01*
X14109067Y-24615287D01*
X14168836Y-24663794D01*
X14172939Y-24669155D01*
X14203028Y-24734456D01*
X14216477Y-24816263D01*
X14211044Y-24897774D01*
X14206075Y-24917466D01*
X14173222Y-24983336D01*
X14119437Y-25025596D01*
X14040536Y-25046664D01*
X13976515Y-25050143D01*
X13909692Y-25048325D01*
X13866382Y-25040276D01*
X13833889Y-25022101D01*
X13807939Y-24998444D01*
X13760675Y-24928279D01*
X13738890Y-24844821D01*
X13742794Y-24758829D01*
X13772599Y-24681066D01*
X13800972Y-24644833D01*
X13866539Y-24602485D01*
X13947013Y-24583920D01*
X14031491Y-24588425D01*
G37*
D17*
X14031491Y-24588425D02*
X14109067Y-24615287D01*
X14168836Y-24663794D01*
X14172939Y-24669155D01*
X14203028Y-24734456D01*
X14216477Y-24816263D01*
X14211044Y-24897774D01*
X14206075Y-24917466D01*
X14173222Y-24983336D01*
X14119437Y-25025596D01*
X14040536Y-25046664D01*
X13976515Y-25050143D01*
X13909692Y-25048325D01*
X13866382Y-25040276D01*
X13833889Y-25022101D01*
X13807939Y-24998444D01*
X13760675Y-24928279D01*
X13738890Y-24844821D01*
X13742794Y-24758829D01*
X13772599Y-24681066D01*
X13800972Y-24644833D01*
X13866539Y-24602485D01*
X13947013Y-24583920D01*
X14031491Y-24588425D01*
G36*
X15193845Y-28571814D02*
G01*
X15276843Y-28658971D01*
X15329228Y-28751414D01*
X15355957Y-28859562D01*
X15361288Y-28923643D01*
X15362034Y-28996805D01*
X15358665Y-29063044D01*
X15352499Y-29105072D01*
X15305018Y-29218229D01*
X15228686Y-29316183D01*
X15130046Y-29391717D01*
X15064452Y-29422688D01*
X14941926Y-29452380D01*
X14807503Y-29458053D01*
X14676453Y-29439748D01*
X14616805Y-29421555D01*
X14527958Y-29373897D01*
X14445320Y-29303931D01*
X14378638Y-29221605D01*
X14337659Y-29136867D01*
X14337568Y-29136564D01*
X14321494Y-29049851D01*
X14316915Y-28946868D01*
X14323561Y-28843953D01*
X14341161Y-28757446D01*
X14343965Y-28749031D01*
X14368033Y-28700535D01*
X14405797Y-28644831D01*
X14450057Y-28590408D01*
X14493610Y-28545751D01*
X14529254Y-28519348D01*
X14542027Y-28515644D01*
X14559674Y-28530520D01*
X14587724Y-28569301D01*
X14619912Y-28623252D01*
X14678896Y-28730645D01*
X14624903Y-28769091D01*
X14569917Y-28828835D01*
X14543761Y-28904000D01*
X14549180Y-28984781D01*
X14557639Y-29009283D01*
X14595686Y-29072088D01*
X14651723Y-29113801D01*
X14732057Y-29138060D01*
X14794165Y-29145720D01*
X14910167Y-29145108D01*
X15001082Y-29121607D01*
X15070926Y-29074001D01*
X15086478Y-29057111D01*
X15122108Y-28991622D01*
X15133361Y-28916913D01*
X15121538Y-28843584D01*
X15087942Y-28782234D01*
X15048782Y-28750213D01*
X15018672Y-28728724D01*
X15008365Y-28701887D01*
X15018242Y-28662118D01*
X15048686Y-28601833D01*
X15057015Y-28587104D01*
X15108602Y-28496780D01*
X15193845Y-28571814D01*
G37*
X15193845Y-28571814D02*
X15276843Y-28658971D01*
X15329228Y-28751414D01*
X15355957Y-28859562D01*
X15361288Y-28923643D01*
X15362034Y-28996805D01*
X15358665Y-29063044D01*
X15352499Y-29105072D01*
X15305018Y-29218229D01*
X15228686Y-29316183D01*
X15130046Y-29391717D01*
X15064452Y-29422688D01*
X14941926Y-29452380D01*
X14807503Y-29458053D01*
X14676453Y-29439748D01*
X14616805Y-29421555D01*
X14527958Y-29373897D01*
X14445320Y-29303931D01*
X14378638Y-29221605D01*
X14337659Y-29136867D01*
X14337568Y-29136564D01*
X14321494Y-29049851D01*
X14316915Y-28946868D01*
X14323561Y-28843953D01*
X14341161Y-28757446D01*
X14343965Y-28749031D01*
X14368033Y-28700535D01*
X14405797Y-28644831D01*
X14450057Y-28590408D01*
X14493610Y-28545751D01*
X14529254Y-28519348D01*
X14542027Y-28515644D01*
X14559674Y-28530520D01*
X14587724Y-28569301D01*
X14619912Y-28623252D01*
X14678896Y-28730645D01*
X14624903Y-28769091D01*
X14569917Y-28828835D01*
X14543761Y-28904000D01*
X14549180Y-28984781D01*
X14557639Y-29009283D01*
X14595686Y-29072088D01*
X14651723Y-29113801D01*
X14732057Y-29138060D01*
X14794165Y-29145720D01*
X14910167Y-29145108D01*
X15001082Y-29121607D01*
X15070926Y-29074001D01*
X15086478Y-29057111D01*
X15122108Y-28991622D01*
X15133361Y-28916913D01*
X15121538Y-28843584D01*
X15087942Y-28782234D01*
X15048782Y-28750213D01*
X15018672Y-28728724D01*
X15008365Y-28701887D01*
X15018242Y-28662118D01*
X15048686Y-28601833D01*
X15057015Y-28587104D01*
X15108602Y-28496780D01*
X15193845Y-28571814D01*
G36*
X15114286Y-24560286D02*
G01*
X15948857Y-24560286D01*
X15948857Y-25086429D01*
X15114286Y-25086429D01*
X15114286Y-25286000D01*
X14745169Y-25286000D01*
X14619306Y-25285741D01*
X14524727Y-25284688D01*
X14456434Y-25282423D01*
X14409429Y-25278533D01*
X14378711Y-25272602D01*
X14359283Y-25264213D01*
X14346144Y-25252952D01*
X14346026Y-25252822D01*
X14336071Y-25237759D01*
X14328549Y-25214354D01*
X14323132Y-25177890D01*
X14319495Y-25123652D01*
X14317312Y-25046921D01*
X14316256Y-24942983D01*
X14316000Y-24818689D01*
X14316335Y-24684775D01*
X14317542Y-24582561D01*
X14319925Y-24507467D01*
X14323789Y-24454911D01*
X14329437Y-24420315D01*
X14337174Y-24399096D01*
X14344510Y-24389225D01*
X14359294Y-24379373D01*
X14384400Y-24372020D01*
X14424604Y-24366826D01*
X14484681Y-24363449D01*
X14569407Y-24361547D01*
X14683559Y-24360780D01*
X14743653Y-24360715D01*
X15114286Y-24360715D01*
X15114286Y-24560286D01*
G37*
X15114286Y-24560286D02*
X15948857Y-24560286D01*
X15948857Y-25086429D01*
X15114286Y-25086429D01*
X15114286Y-25286000D01*
X14745169Y-25286000D01*
X14619306Y-25285741D01*
X14524727Y-25284688D01*
X14456434Y-25282423D01*
X14409429Y-25278533D01*
X14378711Y-25272602D01*
X14359283Y-25264213D01*
X14346144Y-25252952D01*
X14346026Y-25252822D01*
X14336071Y-25237759D01*
X14328549Y-25214354D01*
X14323132Y-25177890D01*
X14319495Y-25123652D01*
X14317312Y-25046921D01*
X14316256Y-24942983D01*
X14316000Y-24818689D01*
X14316335Y-24684775D01*
X14317542Y-24582561D01*
X14319925Y-24507467D01*
X14323789Y-24454911D01*
X14329437Y-24420315D01*
X14337174Y-24399096D01*
X14344510Y-24389225D01*
X14359294Y-24379373D01*
X14384400Y-24372020D01*
X14424604Y-24366826D01*
X14484681Y-24363449D01*
X14569407Y-24361547D01*
X14683559Y-24360780D01*
X14743653Y-24360715D01*
X15114286Y-24360715D01*
X15114286Y-24560286D01*
G36*
X14459259Y-30150476D02*
G01*
X14233279Y-30080859D01*
X14207143Y-30070352D01*
X13986588Y-29960716D01*
X13784959Y-29822852D01*
X13605273Y-29659913D01*
X13450549Y-29475054D01*
X13323804Y-29271427D01*
X13228055Y-29052187D01*
X13225314Y-29044305D01*
X13174102Y-28850616D01*
X13145771Y-28639843D01*
X13140461Y-28422613D01*
X13142318Y-28400447D01*
X13452054Y-28400447D01*
X13454118Y-28623940D01*
X13490944Y-28839153D01*
X13561550Y-29043454D01*
X13664951Y-29234208D01*
X13800166Y-29408782D01*
X13846288Y-29457106D01*
X14018934Y-29606097D01*
X14205135Y-29723355D01*
X14401644Y-29808664D01*
X14605212Y-29861809D01*
X14812593Y-29882572D01*
X15020538Y-29870738D01*
X15225799Y-29826092D01*
X15425129Y-29748416D01*
X15615280Y-29637496D01*
X15692910Y-29579925D01*
X15849609Y-29433303D01*
X15984442Y-29261635D01*
X16093028Y-29071670D01*
X16170981Y-28870160D01*
X16183867Y-28823857D01*
X16209972Y-28679230D01*
X16220701Y-28516996D01*
X16216064Y-28351947D01*
X16196073Y-28198876D01*
X16183329Y-28142581D01*
X16131458Y-27989449D01*
X16056836Y-27830059D01*
X15966765Y-27678485D01*
X15885597Y-27568807D01*
X15735264Y-27415184D01*
X15564698Y-27289824D01*
X15377611Y-27193725D01*
X15177716Y-27127890D01*
X14968726Y-27093317D01*
X14754353Y-27091008D01*
X14538311Y-27121961D01*
X14385748Y-27164746D01*
X14211824Y-27237973D01*
X14051429Y-27336239D01*
X13897287Y-27464267D01*
X13844286Y-27516151D01*
X13700997Y-27684396D01*
X13590805Y-27865355D01*
X13512596Y-28061537D01*
X13465257Y-28275449D01*
X13452054Y-28400447D01*
X13142318Y-28400447D01*
X13158312Y-28209548D01*
X13199462Y-28011275D01*
X13211223Y-27972053D01*
X13300488Y-27748400D01*
X13419744Y-27539651D01*
X13565676Y-27349534D01*
X13734969Y-27181776D01*
X13924308Y-27040104D01*
X14130376Y-26928245D01*
X14145794Y-26921431D01*
X14365758Y-26844110D01*
X14595675Y-26797539D01*
X14830356Y-26781301D01*
X15064611Y-26794982D01*
X15293251Y-26838168D01*
X15511086Y-26910442D01*
X15712927Y-27011390D01*
X15776500Y-27051842D01*
X15964499Y-27199518D01*
X16129048Y-27371038D01*
X16268516Y-27562485D01*
X16381273Y-27769941D01*
X16465687Y-27989492D01*
X16520128Y-28217219D01*
X16542963Y-28449207D01*
X16532563Y-28681539D01*
X16510684Y-28814786D01*
X16441314Y-29061183D01*
X16340971Y-29288750D01*
X16210071Y-29496853D01*
X16049030Y-29684853D01*
X15858264Y-29852113D01*
X15809947Y-29887783D01*
X15608507Y-30009938D01*
X15391448Y-30101444D01*
X15163383Y-30161776D01*
X14928923Y-30190409D01*
X14812593Y-30188641D01*
X14692677Y-30186817D01*
X14459259Y-30150476D01*
G37*
X14459259Y-30150476D02*
X14233279Y-30080859D01*
X14207143Y-30070352D01*
X13986588Y-29960716D01*
X13784959Y-29822852D01*
X13605273Y-29659913D01*
X13450549Y-29475054D01*
X13323804Y-29271427D01*
X13228055Y-29052187D01*
X13225314Y-29044305D01*
X13174102Y-28850616D01*
X13145771Y-28639843D01*
X13140461Y-28422613D01*
X13142318Y-28400447D01*
X13452054Y-28400447D01*
X13454118Y-28623940D01*
X13490944Y-28839153D01*
X13561550Y-29043454D01*
X13664951Y-29234208D01*
X13800166Y-29408782D01*
X13846288Y-29457106D01*
X14018934Y-29606097D01*
X14205135Y-29723355D01*
X14401644Y-29808664D01*
X14605212Y-29861809D01*
X14812593Y-29882572D01*
X15020538Y-29870738D01*
X15225799Y-29826092D01*
X15425129Y-29748416D01*
X15615280Y-29637496D01*
X15692910Y-29579925D01*
X15849609Y-29433303D01*
X15984442Y-29261635D01*
X16093028Y-29071670D01*
X16170981Y-28870160D01*
X16183867Y-28823857D01*
X16209972Y-28679230D01*
X16220701Y-28516996D01*
X16216064Y-28351947D01*
X16196073Y-28198876D01*
X16183329Y-28142581D01*
X16131458Y-27989449D01*
X16056836Y-27830059D01*
X15966765Y-27678485D01*
X15885597Y-27568807D01*
X15735264Y-27415184D01*
X15564698Y-27289824D01*
X15377611Y-27193725D01*
X15177716Y-27127890D01*
X14968726Y-27093317D01*
X14754353Y-27091008D01*
X14538311Y-27121961D01*
X14385748Y-27164746D01*
X14211824Y-27237973D01*
X14051429Y-27336239D01*
X13897287Y-27464267D01*
X13844286Y-27516151D01*
X13700997Y-27684396D01*
X13590805Y-27865355D01*
X13512596Y-28061537D01*
X13465257Y-28275449D01*
X13452054Y-28400447D01*
X13142318Y-28400447D01*
X13158312Y-28209548D01*
X13199462Y-28011275D01*
X13211223Y-27972053D01*
X13300488Y-27748400D01*
X13419744Y-27539651D01*
X13565676Y-27349534D01*
X13734969Y-27181776D01*
X13924308Y-27040104D01*
X14130376Y-26928245D01*
X14145794Y-26921431D01*
X14365758Y-26844110D01*
X14595675Y-26797539D01*
X14830356Y-26781301D01*
X15064611Y-26794982D01*
X15293251Y-26838168D01*
X15511086Y-26910442D01*
X15712927Y-27011390D01*
X15776500Y-27051842D01*
X15964499Y-27199518D01*
X16129048Y-27371038D01*
X16268516Y-27562485D01*
X16381273Y-27769941D01*
X16465687Y-27989492D01*
X16520128Y-28217219D01*
X16542963Y-28449207D01*
X16532563Y-28681539D01*
X16510684Y-28814786D01*
X16441314Y-29061183D01*
X16340971Y-29288750D01*
X16210071Y-29496853D01*
X16049030Y-29684853D01*
X15858264Y-29852113D01*
X15809947Y-29887783D01*
X15608507Y-30009938D01*
X15391448Y-30101444D01*
X15163383Y-30161776D01*
X14928923Y-30190409D01*
X14812593Y-30188641D01*
X14692677Y-30186817D01*
X14459259Y-30150476D01*
G36*
X15081556Y-16638329D02*
G01*
X15249875Y-16690170D01*
X15400658Y-16772173D01*
X15450424Y-16809218D01*
X15576147Y-16932895D01*
X15672440Y-17076019D01*
X15737961Y-17235060D01*
X15771365Y-17406488D01*
X15771307Y-17586772D01*
X15765412Y-17636285D01*
X15725754Y-17789537D01*
X15655164Y-17927840D01*
X15557294Y-18047239D01*
X15435792Y-18143777D01*
X15294308Y-18213496D01*
X15209536Y-18238920D01*
X15114286Y-18261442D01*
X15114286Y-17833594D01*
X15193810Y-17813569D01*
X15270170Y-17778628D01*
X15338618Y-17719733D01*
X15387550Y-17648027D01*
X15399773Y-17615775D01*
X15407324Y-17570393D01*
X15412232Y-17505399D01*
X15413337Y-17455570D01*
X15398945Y-17346939D01*
X15354985Y-17256344D01*
X15279288Y-17180268D01*
X15219772Y-17141286D01*
X15109879Y-17093757D01*
X14985405Y-17065108D01*
X14853910Y-17054767D01*
X14722952Y-17062163D01*
X14600091Y-17086724D01*
X14492885Y-17127879D01*
X14408895Y-17185054D01*
X14390429Y-17204013D01*
X14334796Y-17293517D01*
X14305851Y-17399675D01*
X14304474Y-17513630D01*
X14331548Y-17626528D01*
X14345194Y-17658538D01*
X14388748Y-17719282D01*
X14452185Y-17772353D01*
X14521629Y-17807274D01*
X14551479Y-17814320D01*
X14585802Y-17811873D01*
X14602275Y-17785904D01*
X14605908Y-17769769D01*
X14610749Y-17750016D01*
X14619016Y-17741582D01*
X14635068Y-17747334D01*
X14663262Y-17770141D01*
X14707959Y-17812869D01*
X14773516Y-17878386D01*
X14778265Y-17883162D01*
X14941172Y-18047000D01*
X14778265Y-18210880D01*
X14615357Y-18374761D01*
X14606286Y-18315202D01*
X14596169Y-18276850D01*
X14573703Y-18253536D01*
X14528267Y-18235478D01*
X14515571Y-18231661D01*
X14348692Y-18168012D01*
X14211130Y-18083387D01*
X14102090Y-17977054D01*
X14020777Y-17848281D01*
X13977555Y-17736686D01*
X13956237Y-17628679D01*
X13948781Y-17501236D01*
X13954908Y-17368337D01*
X13974343Y-17243964D01*
X13988392Y-17191156D01*
X14053606Y-17041637D01*
X14148163Y-16910543D01*
X14268748Y-16800483D01*
X14412048Y-16714063D01*
X14574749Y-16653891D01*
X14704132Y-16628003D01*
X14898657Y-16617367D01*
X15081556Y-16638329D01*
G37*
X15081556Y-16638329D02*
X15249875Y-16690170D01*
X15400658Y-16772173D01*
X15450424Y-16809218D01*
X15576147Y-16932895D01*
X15672440Y-17076019D01*
X15737961Y-17235060D01*
X15771365Y-17406488D01*
X15771307Y-17586772D01*
X15765412Y-17636285D01*
X15725754Y-17789537D01*
X15655164Y-17927840D01*
X15557294Y-18047239D01*
X15435792Y-18143777D01*
X15294308Y-18213496D01*
X15209536Y-18238920D01*
X15114286Y-18261442D01*
X15114286Y-17833594D01*
X15193810Y-17813569D01*
X15270170Y-17778628D01*
X15338618Y-17719733D01*
X15387550Y-17648027D01*
X15399773Y-17615775D01*
X15407324Y-17570393D01*
X15412232Y-17505399D01*
X15413337Y-17455570D01*
X15398945Y-17346939D01*
X15354985Y-17256344D01*
X15279288Y-17180268D01*
X15219772Y-17141286D01*
X15109879Y-17093757D01*
X14985405Y-17065108D01*
X14853910Y-17054767D01*
X14722952Y-17062163D01*
X14600091Y-17086724D01*
X14492885Y-17127879D01*
X14408895Y-17185054D01*
X14390429Y-17204013D01*
X14334796Y-17293517D01*
X14305851Y-17399675D01*
X14304474Y-17513630D01*
X14331548Y-17626528D01*
X14345194Y-17658538D01*
X14388748Y-17719282D01*
X14452185Y-17772353D01*
X14521629Y-17807274D01*
X14551479Y-17814320D01*
X14585802Y-17811873D01*
X14602275Y-17785904D01*
X14605908Y-17769769D01*
X14610749Y-17750016D01*
X14619016Y-17741582D01*
X14635068Y-17747334D01*
X14663262Y-17770141D01*
X14707959Y-17812869D01*
X14773516Y-17878386D01*
X14778265Y-17883162D01*
X14941172Y-18047000D01*
X14778265Y-18210880D01*
X14615357Y-18374761D01*
X14606286Y-18315202D01*
X14596169Y-18276850D01*
X14573703Y-18253536D01*
X14528267Y-18235478D01*
X14515571Y-18231661D01*
X14348692Y-18168012D01*
X14211130Y-18083387D01*
X14102090Y-17977054D01*
X14020777Y-17848281D01*
X13977555Y-17736686D01*
X13956237Y-17628679D01*
X13948781Y-17501236D01*
X13954908Y-17368337D01*
X13974343Y-17243964D01*
X13988392Y-17191156D01*
X14053606Y-17041637D01*
X14148163Y-16910543D01*
X14268748Y-16800483D01*
X14412048Y-16714063D01*
X14574749Y-16653891D01*
X14704132Y-16628003D01*
X14898657Y-16617367D01*
X15081556Y-16638329D01*
G36*
X14375369Y-19131745D02*
G01*
X14163134Y-19056570D01*
X13960355Y-18948604D01*
X13776196Y-18817303D01*
X13595335Y-18650217D01*
X13443266Y-18462942D01*
X13320881Y-18258488D01*
X13229075Y-18039871D01*
X13168741Y-17810101D01*
X13140773Y-17572193D01*
X13142681Y-17484572D01*
X13455587Y-17484572D01*
X13462808Y-17661205D01*
X13486423Y-17815752D01*
X13529180Y-17959749D01*
X13593827Y-18104731D01*
X13611158Y-18137715D01*
X13727579Y-18317183D01*
X13872706Y-18479951D01*
X14041062Y-18621495D01*
X14227172Y-18737292D01*
X14425559Y-18822820D01*
X14450562Y-18831035D01*
X14559226Y-18856189D01*
X14690551Y-18872244D01*
X14831953Y-18878746D01*
X14970854Y-18875242D01*
X15094671Y-18861280D01*
X15125355Y-18855341D01*
X15328650Y-18793355D01*
X15519355Y-18700087D01*
X15694200Y-18579103D01*
X15849918Y-18433967D01*
X15983241Y-18268245D01*
X16090900Y-18085502D01*
X16169626Y-17889302D01*
X16216153Y-17683211D01*
X16218872Y-17662501D01*
X16227679Y-17504650D01*
X16219219Y-17335222D01*
X16194751Y-17173797D01*
X16184751Y-17130929D01*
X16119399Y-16943122D01*
X16022982Y-16760378D01*
X15900679Y-16589565D01*
X15757665Y-16437551D01*
X15599117Y-16311206D01*
X15537739Y-16272448D01*
X15357659Y-16186438D01*
X15159649Y-16127184D01*
X14951345Y-16095689D01*
X14740381Y-16092957D01*
X14534390Y-16119993D01*
X14478256Y-16133134D01*
X14288423Y-16200107D01*
X14106592Y-16298666D01*
X13938402Y-16424184D01*
X13789493Y-16572040D01*
X13665504Y-16737608D01*
X13600973Y-16852481D01*
X13541244Y-16982715D01*
X13499740Y-17097540D01*
X13473564Y-17209557D01*
X13459817Y-17331368D01*
X13455600Y-17475576D01*
X13455587Y-17484572D01*
X13142681Y-17484572D01*
X13146065Y-17329158D01*
X13185510Y-17084011D01*
X13222091Y-16949357D01*
X13309062Y-16730738D01*
X13428316Y-16525393D01*
X13577223Y-16336704D01*
X13753156Y-16168055D01*
X13931007Y-16037117D01*
X14132405Y-15928079D01*
X14349126Y-15849231D01*
X14576417Y-15800539D01*
X14809521Y-15781971D01*
X15043682Y-15793492D01*
X15274144Y-15835069D01*
X15496153Y-15906670D01*
X15704951Y-16008260D01*
X15772698Y-16050024D01*
X15953568Y-16188835D01*
X16117309Y-16355614D01*
X16259725Y-16544429D01*
X16376615Y-16749345D01*
X16463782Y-16964427D01*
X16493753Y-17069218D01*
X16524578Y-17236846D01*
X16539724Y-17418223D01*
X16538879Y-17599739D01*
X16521733Y-17767783D01*
X16511012Y-17824660D01*
X16445211Y-18058513D01*
X16353022Y-18270912D01*
X16231644Y-18466819D01*
X16078278Y-18651194D01*
X16000054Y-18729835D01*
X15809678Y-18888265D01*
X15604431Y-19013632D01*
X15384879Y-19105709D01*
X15151589Y-19164270D01*
X14905130Y-19189089D01*
X14846240Y-19190000D01*
X14831953Y-19189165D01*
X14601568Y-19175698D01*
X14375369Y-19131745D01*
G37*
X14375369Y-19131745D02*
X14163134Y-19056570D01*
X13960355Y-18948604D01*
X13776196Y-18817303D01*
X13595335Y-18650217D01*
X13443266Y-18462942D01*
X13320881Y-18258488D01*
X13229075Y-18039871D01*
X13168741Y-17810101D01*
X13140773Y-17572193D01*
X13142681Y-17484572D01*
X13455587Y-17484572D01*
X13462808Y-17661205D01*
X13486423Y-17815752D01*
X13529180Y-17959749D01*
X13593827Y-18104731D01*
X13611158Y-18137715D01*
X13727579Y-18317183D01*
X13872706Y-18479951D01*
X14041062Y-18621495D01*
X14227172Y-18737292D01*
X14425559Y-18822820D01*
X14450562Y-18831035D01*
X14559226Y-18856189D01*
X14690551Y-18872244D01*
X14831953Y-18878746D01*
X14970854Y-18875242D01*
X15094671Y-18861280D01*
X15125355Y-18855341D01*
X15328650Y-18793355D01*
X15519355Y-18700087D01*
X15694200Y-18579103D01*
X15849918Y-18433967D01*
X15983241Y-18268245D01*
X16090900Y-18085502D01*
X16169626Y-17889302D01*
X16216153Y-17683211D01*
X16218872Y-17662501D01*
X16227679Y-17504650D01*
X16219219Y-17335222D01*
X16194751Y-17173797D01*
X16184751Y-17130929D01*
X16119399Y-16943122D01*
X16022982Y-16760378D01*
X15900679Y-16589565D01*
X15757665Y-16437551D01*
X15599117Y-16311206D01*
X15537739Y-16272448D01*
X15357659Y-16186438D01*
X15159649Y-16127184D01*
X14951345Y-16095689D01*
X14740381Y-16092957D01*
X14534390Y-16119993D01*
X14478256Y-16133134D01*
X14288423Y-16200107D01*
X14106592Y-16298666D01*
X13938402Y-16424184D01*
X13789493Y-16572040D01*
X13665504Y-16737608D01*
X13600973Y-16852481D01*
X13541244Y-16982715D01*
X13499740Y-17097540D01*
X13473564Y-17209557D01*
X13459817Y-17331368D01*
X13455600Y-17475576D01*
X13455587Y-17484572D01*
X13142681Y-17484572D01*
X13146065Y-17329158D01*
X13185510Y-17084011D01*
X13222091Y-16949357D01*
X13309062Y-16730738D01*
X13428316Y-16525393D01*
X13577223Y-16336704D01*
X13753156Y-16168055D01*
X13931007Y-16037117D01*
X14132405Y-15928079D01*
X14349126Y-15849231D01*
X14576417Y-15800539D01*
X14809521Y-15781971D01*
X15043682Y-15793492D01*
X15274144Y-15835069D01*
X15496153Y-15906670D01*
X15704951Y-16008260D01*
X15772698Y-16050024D01*
X15953568Y-16188835D01*
X16117309Y-16355614D01*
X16259725Y-16544429D01*
X16376615Y-16749345D01*
X16463782Y-16964427D01*
X16493753Y-17069218D01*
X16524578Y-17236846D01*
X16539724Y-17418223D01*
X16538879Y-17599739D01*
X16521733Y-17767783D01*
X16511012Y-17824660D01*
X16445211Y-18058513D01*
X16353022Y-18270912D01*
X16231644Y-18466819D01*
X16078278Y-18651194D01*
X16000054Y-18729835D01*
X15809678Y-18888265D01*
X15604431Y-19013632D01*
X15384879Y-19105709D01*
X15151589Y-19164270D01*
X14905130Y-19189089D01*
X14846240Y-19190000D01*
X14831953Y-19189165D01*
X14601568Y-19175698D01*
X14375369Y-19131745D01*
G36*
X14578880Y-26509036D02*
G01*
X14478842Y-26493989D01*
X14252721Y-26427876D01*
X14037389Y-26329181D01*
X13836646Y-26200928D01*
X13654295Y-26046142D01*
X13494137Y-25867847D01*
X13359976Y-25669069D01*
X13300965Y-25556978D01*
X13216255Y-25339379D01*
X13162585Y-25109742D01*
X13139798Y-24873514D01*
X13142343Y-24797434D01*
X13449044Y-24797434D01*
X13462611Y-25018577D01*
X13510987Y-25236007D01*
X13529982Y-25293345D01*
X13613450Y-25476559D01*
X13727950Y-25649753D01*
X13868614Y-25808183D01*
X14030574Y-25947102D01*
X14208961Y-26061764D01*
X14398907Y-26147424D01*
X14410211Y-26151415D01*
X14538047Y-26184347D01*
X14687625Y-26204404D01*
X14846607Y-26211167D01*
X15002655Y-26204215D01*
X15143429Y-26183128D01*
X15168413Y-26177241D01*
X15372893Y-26107204D01*
X15565730Y-26004823D01*
X15741767Y-25873454D01*
X15895846Y-25716456D01*
X15918066Y-25689246D01*
X16001798Y-25577706D01*
X16065164Y-25476587D01*
X16115442Y-25372813D01*
X16158699Y-25256932D01*
X16208973Y-25052990D01*
X16228120Y-24838685D01*
X16215855Y-24622769D01*
X16184751Y-24460643D01*
X16118796Y-24271461D01*
X16021656Y-24089039D01*
X15898171Y-23919259D01*
X15753184Y-23768003D01*
X15591536Y-23641153D01*
X15438403Y-23553937D01*
X15313954Y-23500362D01*
X15198559Y-23463582D01*
X15080070Y-23441035D01*
X14946342Y-23430159D01*
X14842143Y-23428125D01*
X14697101Y-23431493D01*
X14575094Y-23444246D01*
X14463453Y-23469301D01*
X14349509Y-23509572D01*
X14220592Y-23567975D01*
X14208353Y-23573960D01*
X14130167Y-23614333D01*
X14065933Y-23653441D01*
X14006107Y-23698448D01*
X13941143Y-23756517D01*
X13863639Y-23832654D01*
X13773968Y-23926642D01*
X13705951Y-24007690D01*
X13652449Y-24084943D01*
X13614206Y-24152250D01*
X13525140Y-24360218D01*
X13469986Y-24576631D01*
X13449044Y-24797434D01*
X13142343Y-24797434D01*
X13147740Y-24636143D01*
X13186254Y-24403079D01*
X13255186Y-24179769D01*
X13345776Y-23986833D01*
X13481559Y-23779738D01*
X13642907Y-23596370D01*
X13826913Y-23438970D01*
X14030671Y-23309774D01*
X14251273Y-23211024D01*
X14419390Y-23159912D01*
X14559681Y-23134681D01*
X14721520Y-23120853D01*
X14892210Y-23118435D01*
X15059057Y-23127432D01*
X15209362Y-23147849D01*
X15263225Y-23159515D01*
X15486520Y-23230871D01*
X15690300Y-23330740D01*
X15878705Y-23461523D01*
X16041600Y-23610780D01*
X16208306Y-23806204D01*
X16341926Y-24015784D01*
X16443542Y-24241457D01*
X16503217Y-24437722D01*
X16521202Y-24538577D01*
X16533235Y-24662780D01*
X16538997Y-24797834D01*
X16538170Y-24931241D01*
X16530436Y-25050505D01*
X16520588Y-25119685D01*
X16461328Y-25351131D01*
X16375066Y-25562754D01*
X16259249Y-25759209D01*
X16111321Y-25945147D01*
X16009764Y-26050044D01*
X15825506Y-26208286D01*
X15632922Y-26332870D01*
X15427741Y-26426197D01*
X15240289Y-26482731D01*
X15130727Y-26501917D01*
X14997881Y-26514317D01*
X14853675Y-26519754D01*
X14846607Y-26519671D01*
X14710033Y-26518052D01*
X14578880Y-26509036D01*
G37*
X14578880Y-26509036D02*
X14478842Y-26493989D01*
X14252721Y-26427876D01*
X14037389Y-26329181D01*
X13836646Y-26200928D01*
X13654295Y-26046142D01*
X13494137Y-25867847D01*
X13359976Y-25669069D01*
X13300965Y-25556978D01*
X13216255Y-25339379D01*
X13162585Y-25109742D01*
X13139798Y-24873514D01*
X13142343Y-24797434D01*
X13449044Y-24797434D01*
X13462611Y-25018577D01*
X13510987Y-25236007D01*
X13529982Y-25293345D01*
X13613450Y-25476559D01*
X13727950Y-25649753D01*
X13868614Y-25808183D01*
X14030574Y-25947102D01*
X14208961Y-26061764D01*
X14398907Y-26147424D01*
X14410211Y-26151415D01*
X14538047Y-26184347D01*
X14687625Y-26204404D01*
X14846607Y-26211167D01*
X15002655Y-26204215D01*
X15143429Y-26183128D01*
X15168413Y-26177241D01*
X15372893Y-26107204D01*
X15565730Y-26004823D01*
X15741767Y-25873454D01*
X15895846Y-25716456D01*
X15918066Y-25689246D01*
X16001798Y-25577706D01*
X16065164Y-25476587D01*
X16115442Y-25372813D01*
X16158699Y-25256932D01*
X16208973Y-25052990D01*
X16228120Y-24838685D01*
X16215855Y-24622769D01*
X16184751Y-24460643D01*
X16118796Y-24271461D01*
X16021656Y-24089039D01*
X15898171Y-23919259D01*
X15753184Y-23768003D01*
X15591536Y-23641153D01*
X15438403Y-23553937D01*
X15313954Y-23500362D01*
X15198559Y-23463582D01*
X15080070Y-23441035D01*
X14946342Y-23430159D01*
X14842143Y-23428125D01*
X14697101Y-23431493D01*
X14575094Y-23444246D01*
X14463453Y-23469301D01*
X14349509Y-23509572D01*
X14220592Y-23567975D01*
X14208353Y-23573960D01*
X14130167Y-23614333D01*
X14065933Y-23653441D01*
X14006107Y-23698448D01*
X13941143Y-23756517D01*
X13863639Y-23832654D01*
X13773968Y-23926642D01*
X13705951Y-24007690D01*
X13652449Y-24084943D01*
X13614206Y-24152250D01*
X13525140Y-24360218D01*
X13469986Y-24576631D01*
X13449044Y-24797434D01*
X13142343Y-24797434D01*
X13147740Y-24636143D01*
X13186254Y-24403079D01*
X13255186Y-24179769D01*
X13345776Y-23986833D01*
X13481559Y-23779738D01*
X13642907Y-23596370D01*
X13826913Y-23438970D01*
X14030671Y-23309774D01*
X14251273Y-23211024D01*
X14419390Y-23159912D01*
X14559681Y-23134681D01*
X14721520Y-23120853D01*
X14892210Y-23118435D01*
X15059057Y-23127432D01*
X15209362Y-23147849D01*
X15263225Y-23159515D01*
X15486520Y-23230871D01*
X15690300Y-23330740D01*
X15878705Y-23461523D01*
X16041600Y-23610780D01*
X16208306Y-23806204D01*
X16341926Y-24015784D01*
X16443542Y-24241457D01*
X16503217Y-24437722D01*
X16521202Y-24538577D01*
X16533235Y-24662780D01*
X16538997Y-24797834D01*
X16538170Y-24931241D01*
X16530436Y-25050505D01*
X16520588Y-25119685D01*
X16461328Y-25351131D01*
X16375066Y-25562754D01*
X16259249Y-25759209D01*
X16111321Y-25945147D01*
X16009764Y-26050044D01*
X15825506Y-26208286D01*
X15632922Y-26332870D01*
X15427741Y-26426197D01*
X15240289Y-26482731D01*
X15130727Y-26501917D01*
X14997881Y-26514317D01*
X14853675Y-26519754D01*
X14846607Y-26519671D01*
X14710033Y-26518052D01*
X14578880Y-26509036D01*
G36*
X14765368Y-22849984D02*
G01*
X14535914Y-22829955D01*
X14329014Y-22786013D01*
X14137979Y-22715731D01*
X14069202Y-22678271D01*
X13956123Y-22616681D01*
X13787302Y-22494957D01*
X13764950Y-22474554D01*
X14398225Y-22474554D01*
X14398300Y-22474921D01*
X14424329Y-22490406D01*
X14478686Y-22506154D01*
X14553442Y-22520877D01*
X14640675Y-22533288D01*
X14732456Y-22542101D01*
X14820861Y-22546026D01*
X14836653Y-22546114D01*
X15013028Y-22537568D01*
X15169411Y-22510672D01*
X15318643Y-22462522D01*
X15431786Y-22411621D01*
X15630105Y-22294253D01*
X15801745Y-22152369D01*
X15947399Y-21985274D01*
X16067761Y-21792274D01*
X16086654Y-21755015D01*
X16137919Y-21643396D01*
X16174444Y-21543375D01*
X16198190Y-21444907D01*
X16211115Y-21337948D01*
X16215182Y-21212452D01*
X16213701Y-21104072D01*
X16209462Y-20988217D01*
X16202873Y-20899579D01*
X16192794Y-20829111D01*
X16178087Y-20767764D01*
X16166897Y-20732535D01*
X16102043Y-20567548D01*
X16025601Y-20424386D01*
X15930262Y-20291326D01*
X15808717Y-20156648D01*
X15806105Y-20153995D01*
X15724668Y-20075663D01*
X15650668Y-20012539D01*
X15588215Y-19967568D01*
X15541421Y-19943693D01*
X15514396Y-19943858D01*
X15513619Y-19944569D01*
X15501732Y-19965290D01*
X15478544Y-20012543D01*
X15447012Y-20079718D01*
X15410097Y-20160208D01*
X15370758Y-20247405D01*
X15331955Y-20334700D01*
X15296646Y-20415484D01*
X15267792Y-20483151D01*
X15248352Y-20531091D01*
X15241286Y-20552653D01*
X15256531Y-20566537D01*
X15293726Y-20583542D01*
X15298635Y-20585300D01*
X15397238Y-20638131D01*
X15482617Y-20720592D01*
X15550175Y-20827069D01*
X15593775Y-20945792D01*
X15615694Y-21031500D01*
X15741454Y-21033624D01*
X15867214Y-21035747D01*
X15867214Y-21231072D01*
X15608660Y-21241642D01*
X15596589Y-21348334D01*
X15575440Y-21443325D01*
X15535814Y-21548090D01*
X15484683Y-21646539D01*
X15439597Y-21710634D01*
X15402461Y-21754769D01*
X15281841Y-21634149D01*
X15161222Y-21513529D01*
X15200367Y-21471860D01*
X15250820Y-21400156D01*
X15288262Y-21311567D01*
X15311079Y-21215703D01*
X15317657Y-21122174D01*
X15306382Y-21040592D01*
X15281629Y-20987917D01*
X15253061Y-20958228D01*
X15216767Y-20944294D01*
X15158737Y-20940786D01*
X15157720Y-20940786D01*
X15103130Y-20942891D01*
X15071513Y-20953860D01*
X15049605Y-20980677D01*
X15037102Y-21004286D01*
X15012646Y-21055145D01*
X14977905Y-21130455D01*
X14934654Y-21226127D01*
X14884670Y-21338074D01*
X14829728Y-21462207D01*
X14771603Y-21594440D01*
X14712071Y-21730685D01*
X14652907Y-21866855D01*
X14595887Y-21998860D01*
X14542787Y-22122615D01*
X14495382Y-22234031D01*
X14455448Y-22329020D01*
X14424760Y-22403495D01*
X14405094Y-22453369D01*
X14398225Y-22474554D01*
X13764950Y-22474554D01*
X13626592Y-22348261D01*
X13482384Y-22181717D01*
X13359939Y-22002682D01*
X13264517Y-21818511D01*
X13220319Y-21702154D01*
X13163936Y-21472051D01*
X13140212Y-21242437D01*
X13449022Y-21242437D01*
X13479881Y-21455585D01*
X13542022Y-21661339D01*
X13634989Y-21854134D01*
X13652688Y-21883399D01*
X13691976Y-21939043D01*
X13745620Y-22005006D01*
X13808270Y-22075806D01*
X13874576Y-22145956D01*
X13939187Y-22209972D01*
X13996754Y-22262369D01*
X14041925Y-22297662D01*
X14069202Y-22310370D01*
X14085931Y-22294834D01*
X14110615Y-22254278D01*
X14137932Y-22197456D01*
X14138139Y-22196978D01*
X14165798Y-22133509D01*
X14202991Y-22048871D01*
X14244452Y-21955024D01*
X14277920Y-21879626D01*
X14368776Y-21675466D01*
X14296787Y-21638740D01*
X14208738Y-21573521D01*
X14138984Y-21477212D01*
X14087778Y-21350204D01*
X14072355Y-21290036D01*
X14064755Y-21263921D01*
X14050700Y-21249003D01*
X14021547Y-21242150D01*
X13968657Y-21240231D01*
X13934654Y-21240143D01*
X13808000Y-21240143D01*
X13808000Y-21040572D01*
X14060356Y-21040572D01*
X14071508Y-20972536D01*
X14090662Y-20889886D01*
X14120024Y-20801556D01*
X14154534Y-20720686D01*
X14189133Y-20660416D01*
X14194297Y-20653615D01*
X14234357Y-20603617D01*
X14450463Y-20822379D01*
X14408717Y-20908304D01*
X14374182Y-21000987D01*
X14358011Y-21093525D01*
X14359488Y-21179078D01*
X14377896Y-21250805D01*
X14412519Y-21301866D01*
X14452204Y-21323440D01*
X14493064Y-21327080D01*
X14515973Y-21319550D01*
X14526779Y-21299780D01*
X14550267Y-21250925D01*
X14584610Y-21177097D01*
X14627976Y-21082404D01*
X14678538Y-20970954D01*
X14734464Y-20846858D01*
X14793927Y-20714225D01*
X14855096Y-20577163D01*
X14916142Y-20439782D01*
X14975236Y-20306191D01*
X15030547Y-20180499D01*
X15080248Y-20066816D01*
X15122508Y-19969250D01*
X15155498Y-19891911D01*
X15177388Y-19838909D01*
X15186349Y-19814351D01*
X15186469Y-19813508D01*
X15171183Y-19795258D01*
X15136964Y-19782171D01*
X14974735Y-19759989D01*
X14796093Y-19757473D01*
X14614588Y-19773826D01*
X14443770Y-19808247D01*
X14382069Y-19826697D01*
X14209202Y-19901659D01*
X14041790Y-20007428D01*
X13885628Y-20138527D01*
X13746512Y-20289478D01*
X13630238Y-20454805D01*
X13548693Y-20614252D01*
X13482972Y-20816208D01*
X13449900Y-21027457D01*
X13449022Y-21242437D01*
X13140212Y-21242437D01*
X13139410Y-21234671D01*
X13146048Y-20995503D01*
X13183157Y-20760036D01*
X13250043Y-20533759D01*
X13346012Y-20322162D01*
X13407755Y-20218874D01*
X13558803Y-20019901D01*
X13733231Y-19847523D01*
X13928674Y-19703435D01*
X14142767Y-19589330D01*
X14373145Y-19506903D01*
X14418017Y-19495098D01*
X14561181Y-19469172D01*
X14725654Y-19455149D01*
X14898642Y-19453034D01*
X15067350Y-19462830D01*
X15218984Y-19484545D01*
X15264896Y-19494772D01*
X15485014Y-19564977D01*
X15685150Y-19662282D01*
X15870302Y-19789616D01*
X16045468Y-19949904D01*
X16049952Y-19954556D01*
X16195149Y-20120822D01*
X16310251Y-20288135D01*
X16400649Y-20465117D01*
X16450876Y-20595724D01*
X16511526Y-20824989D01*
X16541256Y-21062059D01*
X16539379Y-21298262D01*
X16519000Y-21457857D01*
X16460381Y-21683169D01*
X16369550Y-21899193D01*
X16249774Y-22102176D01*
X16104321Y-22288369D01*
X15936458Y-22454020D01*
X15749453Y-22595378D01*
X15546574Y-22708692D01*
X15368286Y-22778817D01*
X15253110Y-22812542D01*
X15147330Y-22835240D01*
X15039805Y-22848227D01*
X14919390Y-22852817D01*
X14836653Y-22851391D01*
X14774944Y-22850327D01*
X14765368Y-22849984D01*
G37*
X14765368Y-22849984D02*
X14535914Y-22829955D01*
X14329014Y-22786013D01*
X14137979Y-22715731D01*
X14069202Y-22678271D01*
X13956123Y-22616681D01*
X13787302Y-22494957D01*
X13764950Y-22474554D01*
X14398225Y-22474554D01*
X14398300Y-22474921D01*
X14424329Y-22490406D01*
X14478686Y-22506154D01*
X14553442Y-22520877D01*
X14640675Y-22533288D01*
X14732456Y-22542101D01*
X14820861Y-22546026D01*
X14836653Y-22546114D01*
X15013028Y-22537568D01*
X15169411Y-22510672D01*
X15318643Y-22462522D01*
X15431786Y-22411621D01*
X15630105Y-22294253D01*
X15801745Y-22152369D01*
X15947399Y-21985274D01*
X16067761Y-21792274D01*
X16086654Y-21755015D01*
X16137919Y-21643396D01*
X16174444Y-21543375D01*
X16198190Y-21444907D01*
X16211115Y-21337948D01*
X16215182Y-21212452D01*
X16213701Y-21104072D01*
X16209462Y-20988217D01*
X16202873Y-20899579D01*
X16192794Y-20829111D01*
X16178087Y-20767764D01*
X16166897Y-20732535D01*
X16102043Y-20567548D01*
X16025601Y-20424386D01*
X15930262Y-20291326D01*
X15808717Y-20156648D01*
X15806105Y-20153995D01*
X15724668Y-20075663D01*
X15650668Y-20012539D01*
X15588215Y-19967568D01*
X15541421Y-19943693D01*
X15514396Y-19943858D01*
X15513619Y-19944569D01*
X15501732Y-19965290D01*
X15478544Y-20012543D01*
X15447012Y-20079718D01*
X15410097Y-20160208D01*
X15370758Y-20247405D01*
X15331955Y-20334700D01*
X15296646Y-20415484D01*
X15267792Y-20483151D01*
X15248352Y-20531091D01*
X15241286Y-20552653D01*
X15256531Y-20566537D01*
X15293726Y-20583542D01*
X15298635Y-20585300D01*
X15397238Y-20638131D01*
X15482617Y-20720592D01*
X15550175Y-20827069D01*
X15593775Y-20945792D01*
X15615694Y-21031500D01*
X15741454Y-21033624D01*
X15867214Y-21035747D01*
X15867214Y-21231072D01*
X15608660Y-21241642D01*
X15596589Y-21348334D01*
X15575440Y-21443325D01*
X15535814Y-21548090D01*
X15484683Y-21646539D01*
X15439597Y-21710634D01*
X15402461Y-21754769D01*
X15281841Y-21634149D01*
X15161222Y-21513529D01*
X15200367Y-21471860D01*
X15250820Y-21400156D01*
X15288262Y-21311567D01*
X15311079Y-21215703D01*
X15317657Y-21122174D01*
X15306382Y-21040592D01*
X15281629Y-20987917D01*
X15253061Y-20958228D01*
X15216767Y-20944294D01*
X15158737Y-20940786D01*
X15157720Y-20940786D01*
X15103130Y-20942891D01*
X15071513Y-20953860D01*
X15049605Y-20980677D01*
X15037102Y-21004286D01*
X15012646Y-21055145D01*
X14977905Y-21130455D01*
X14934654Y-21226127D01*
X14884670Y-21338074D01*
X14829728Y-21462207D01*
X14771603Y-21594440D01*
X14712071Y-21730685D01*
X14652907Y-21866855D01*
X14595887Y-21998860D01*
X14542787Y-22122615D01*
X14495382Y-22234031D01*
X14455448Y-22329020D01*
X14424760Y-22403495D01*
X14405094Y-22453369D01*
X14398225Y-22474554D01*
X13764950Y-22474554D01*
X13626592Y-22348261D01*
X13482384Y-22181717D01*
X13359939Y-22002682D01*
X13264517Y-21818511D01*
X13220319Y-21702154D01*
X13163936Y-21472051D01*
X13140212Y-21242437D01*
X13449022Y-21242437D01*
X13479881Y-21455585D01*
X13542022Y-21661339D01*
X13634989Y-21854134D01*
X13652688Y-21883399D01*
X13691976Y-21939043D01*
X13745620Y-22005006D01*
X13808270Y-22075806D01*
X13874576Y-22145956D01*
X13939187Y-22209972D01*
X13996754Y-22262369D01*
X14041925Y-22297662D01*
X14069202Y-22310370D01*
X14085931Y-22294834D01*
X14110615Y-22254278D01*
X14137932Y-22197456D01*
X14138139Y-22196978D01*
X14165798Y-22133509D01*
X14202991Y-22048871D01*
X14244452Y-21955024D01*
X14277920Y-21879626D01*
X14368776Y-21675466D01*
X14296787Y-21638740D01*
X14208738Y-21573521D01*
X14138984Y-21477212D01*
X14087778Y-21350204D01*
X14072355Y-21290036D01*
X14064755Y-21263921D01*
X14050700Y-21249003D01*
X14021547Y-21242150D01*
X13968657Y-21240231D01*
X13934654Y-21240143D01*
X13808000Y-21240143D01*
X13808000Y-21040572D01*
X14060356Y-21040572D01*
X14071508Y-20972536D01*
X14090662Y-20889886D01*
X14120024Y-20801556D01*
X14154534Y-20720686D01*
X14189133Y-20660416D01*
X14194297Y-20653615D01*
X14234357Y-20603617D01*
X14450463Y-20822379D01*
X14408717Y-20908304D01*
X14374182Y-21000987D01*
X14358011Y-21093525D01*
X14359488Y-21179078D01*
X14377896Y-21250805D01*
X14412519Y-21301866D01*
X14452204Y-21323440D01*
X14493064Y-21327080D01*
X14515973Y-21319550D01*
X14526779Y-21299780D01*
X14550267Y-21250925D01*
X14584610Y-21177097D01*
X14627976Y-21082404D01*
X14678538Y-20970954D01*
X14734464Y-20846858D01*
X14793927Y-20714225D01*
X14855096Y-20577163D01*
X14916142Y-20439782D01*
X14975236Y-20306191D01*
X15030547Y-20180499D01*
X15080248Y-20066816D01*
X15122508Y-19969250D01*
X15155498Y-19891911D01*
X15177388Y-19838909D01*
X15186349Y-19814351D01*
X15186469Y-19813508D01*
X15171183Y-19795258D01*
X15136964Y-19782171D01*
X14974735Y-19759989D01*
X14796093Y-19757473D01*
X14614588Y-19773826D01*
X14443770Y-19808247D01*
X14382069Y-19826697D01*
X14209202Y-19901659D01*
X14041790Y-20007428D01*
X13885628Y-20138527D01*
X13746512Y-20289478D01*
X13630238Y-20454805D01*
X13548693Y-20614252D01*
X13482972Y-20816208D01*
X13449900Y-21027457D01*
X13449022Y-21242437D01*
X13140212Y-21242437D01*
X13139410Y-21234671D01*
X13146048Y-20995503D01*
X13183157Y-20760036D01*
X13250043Y-20533759D01*
X13346012Y-20322162D01*
X13407755Y-20218874D01*
X13558803Y-20019901D01*
X13733231Y-19847523D01*
X13928674Y-19703435D01*
X14142767Y-19589330D01*
X14373145Y-19506903D01*
X14418017Y-19495098D01*
X14561181Y-19469172D01*
X14725654Y-19455149D01*
X14898642Y-19453034D01*
X15067350Y-19462830D01*
X15218984Y-19484545D01*
X15264896Y-19494772D01*
X15485014Y-19564977D01*
X15685150Y-19662282D01*
X15870302Y-19789616D01*
X16045468Y-19949904D01*
X16049952Y-19954556D01*
X16195149Y-20120822D01*
X16310251Y-20288135D01*
X16400649Y-20465117D01*
X16450876Y-20595724D01*
X16511526Y-20824989D01*
X16541256Y-21062059D01*
X16539379Y-21298262D01*
X16519000Y-21457857D01*
X16460381Y-21683169D01*
X16369550Y-21899193D01*
X16249774Y-22102176D01*
X16104321Y-22288369D01*
X15936458Y-22454020D01*
X15749453Y-22595378D01*
X15546574Y-22708692D01*
X15368286Y-22778817D01*
X15253110Y-22812542D01*
X15147330Y-22835240D01*
X15039805Y-22848227D01*
X14919390Y-22852817D01*
X14836653Y-22851391D01*
X14774944Y-22850327D01*
X14765368Y-22849984D01*
G36*
X15125789Y-27527781D02*
G01*
X15165255Y-27554432D01*
X15211528Y-27597453D01*
X15257616Y-27650161D01*
X15296524Y-27705872D01*
X15304114Y-27719126D01*
X15344178Y-27824046D01*
X15363238Y-27944788D01*
X15360033Y-28066730D01*
X15341493Y-28152572D01*
X15287284Y-28262540D01*
X15202930Y-28353645D01*
X15101249Y-28418378D01*
X15042917Y-28444270D01*
X14989976Y-28459545D01*
X14928803Y-28466834D01*
X14845776Y-28468772D01*
X14840534Y-28468776D01*
X14757801Y-28467255D01*
X14697821Y-28460852D01*
X14647127Y-28446806D01*
X14592247Y-28422354D01*
X14577301Y-28414807D01*
X14473219Y-28344396D01*
X14391783Y-28253868D01*
X14339076Y-28150323D01*
X14332640Y-28129130D01*
X14317714Y-28033170D01*
X14318204Y-27925138D01*
X14332754Y-27818550D01*
X14360007Y-27726924D01*
X14376349Y-27693669D01*
X14414177Y-27639115D01*
X14458834Y-27588988D01*
X14502907Y-27550081D01*
X14538981Y-27529184D01*
X14555937Y-27529165D01*
X14571341Y-27549131D01*
X14596670Y-27592001D01*
X14622770Y-27641358D01*
X14674729Y-27744357D01*
X14630347Y-27777776D01*
X14591634Y-27817814D01*
X14558273Y-27869336D01*
X14556779Y-27872397D01*
X14539370Y-27947499D01*
X14552713Y-28023094D01*
X14593468Y-28087866D01*
X14628756Y-28116265D01*
X14716561Y-28152204D01*
X14816552Y-28165591D01*
X14917932Y-28157294D01*
X15009902Y-28128182D01*
X15080867Y-28079925D01*
X15112969Y-28041400D01*
X15128281Y-27999968D01*
X15132413Y-27939733D01*
X15132429Y-27933860D01*
X15129564Y-27874027D01*
X15116248Y-27833513D01*
X15085400Y-27795506D01*
X15066382Y-27777066D01*
X15000335Y-27714776D01*
X15042826Y-27624054D01*
X15068896Y-27572190D01*
X15090765Y-27535268D01*
X15100124Y-27524183D01*
X15125789Y-27527781D01*
G37*
X15125789Y-27527781D02*
X15165255Y-27554432D01*
X15211528Y-27597453D01*
X15257616Y-27650161D01*
X15296524Y-27705872D01*
X15304114Y-27719126D01*
X15344178Y-27824046D01*
X15363238Y-27944788D01*
X15360033Y-28066730D01*
X15341493Y-28152572D01*
X15287284Y-28262540D01*
X15202930Y-28353645D01*
X15101249Y-28418378D01*
X15042917Y-28444270D01*
X14989976Y-28459545D01*
X14928803Y-28466834D01*
X14845776Y-28468772D01*
X14840534Y-28468776D01*
X14757801Y-28467255D01*
X14697821Y-28460852D01*
X14647127Y-28446806D01*
X14592247Y-28422354D01*
X14577301Y-28414807D01*
X14473219Y-28344396D01*
X14391783Y-28253868D01*
X14339076Y-28150323D01*
X14332640Y-28129130D01*
X14317714Y-28033170D01*
X14318204Y-27925138D01*
X14332754Y-27818550D01*
X14360007Y-27726924D01*
X14376349Y-27693669D01*
X14414177Y-27639115D01*
X14458834Y-27588988D01*
X14502907Y-27550081D01*
X14538981Y-27529184D01*
X14555937Y-27529165D01*
X14571341Y-27549131D01*
X14596670Y-27592001D01*
X14622770Y-27641358D01*
X14674729Y-27744357D01*
X14630347Y-27777776D01*
X14591634Y-27817814D01*
X14558273Y-27869336D01*
X14556779Y-27872397D01*
X14539370Y-27947499D01*
X14552713Y-28023094D01*
X14593468Y-28087866D01*
X14628756Y-28116265D01*
X14716561Y-28152204D01*
X14816552Y-28165591D01*
X14917932Y-28157294D01*
X15009902Y-28128182D01*
X15080867Y-28079925D01*
X15112969Y-28041400D01*
X15128281Y-27999968D01*
X15132413Y-27939733D01*
X15132429Y-27933860D01*
X15129564Y-27874027D01*
X15116248Y-27833513D01*
X15085400Y-27795506D01*
X15066382Y-27777066D01*
X15000335Y-27714776D01*
X15042826Y-27624054D01*
X15068896Y-27572190D01*
X15090765Y-27535268D01*
X15100124Y-27524183D01*
X15125789Y-27527781D01*
D15*
%TO.C,J11*%
X26901700Y-53730300D02*
X25841700Y-53730300D01*
X27901700Y-53730300D02*
X41961700Y-53730300D01*
X27901700Y-53730300D02*
X27901700Y-51610300D01*
X27901700Y-51610300D02*
X41961700Y-51610300D01*
X41961700Y-53730300D02*
X41961700Y-51610300D01*
X25841700Y-53730300D02*
X25841700Y-52670300D01*
%TO.C,BT2*%
X3820000Y-62800000D02*
X19020000Y-62800000D01*
X3820000Y-7000000D02*
X19020000Y-7000000D01*
X3820000Y-25000000D02*
X3820000Y-7000000D01*
X19020000Y-25000000D02*
X19020000Y-7000000D01*
X17020000Y-27000000D02*
X17020000Y-42800000D01*
X19985000Y-63520000D02*
X2855000Y-63520000D01*
X2855000Y-63520000D02*
X2855000Y-6280000D01*
X19020000Y-62800000D02*
X19020000Y-44800000D01*
X14360000Y-11590000D02*
X8360000Y-11590000D01*
X9360000Y-12590000D02*
X13360000Y-12590000D01*
X5820000Y-42800000D02*
X5820000Y-27000000D01*
X3820000Y-62800000D02*
X3820000Y-44800000D01*
X10360000Y-13590000D02*
X12360000Y-13590000D01*
X2855000Y-6280000D02*
X19985000Y-6280000D01*
X19985000Y-6280000D02*
X19985000Y-63520000D01*
X7360000Y-10590000D02*
X15360000Y-10590000D01*
X3820000Y-44800000D02*
G75*
G03*
X5820000Y-42800000I0J2000000D01*
G01*
X5820000Y-27000000D02*
G75*
G03*
X3820000Y-25000000I-2000000J0D01*
G01*
X19020000Y-25000000D02*
G75*
G03*
X17020000Y-27000000I0J-2000000D01*
G01*
X17020000Y-42800000D02*
G75*
G03*
X19020000Y-44800000I2000000J0D01*
G01*
%TD*%
%LPC*%
D18*
%TO.C,D1*%
X45050000Y-3280000D03*
D19*
X45050000Y-5820000D03*
%TD*%
D20*
%TO.C,J1*%
X46320000Y-35665000D03*
D21*
X46320000Y-38205000D03*
%TD*%
D20*
%TO.C,J2*%
X51400000Y-35665000D03*
D21*
X51400000Y-38205000D03*
%TD*%
D20*
%TO.C,J7*%
X34890000Y-70590000D03*
D21*
X34890000Y-68050000D03*
X34890000Y-65510000D03*
X34890000Y-62970000D03*
%TD*%
D22*
%TO.C,BT1*%
X69485000Y-11610000D03*
X57495000Y-58090000D03*
D23*
X63490000Y-8860000D03*
D24*
X63490000Y-60850000D03*
%TD*%
D20*
%TO.C,J3*%
X46320000Y-26140000D03*
D21*
X46320000Y-28680000D03*
%TD*%
D20*
%TO.C,J4*%
X51400000Y-26140000D03*
D21*
X51400000Y-28680000D03*
%TD*%
D20*
%TO.C,J5*%
X56480000Y-66780000D03*
D21*
X59020000Y-66780000D03*
X61560000Y-66780000D03*
X64100000Y-66780000D03*
X66640000Y-66780000D03*
X69180000Y-66780000D03*
%TD*%
D20*
%TO.C,J6*%
X24730000Y-70590000D03*
D21*
X24730000Y-68050000D03*
X24730000Y-65510000D03*
X24730000Y-62970000D03*
%TD*%
D25*
%TO.C,C1*%
X46955000Y-50905000D03*
D26*
X46955000Y-52405000D03*
%TD*%
D27*
%TO.C,R4*%
X50130000Y-44555000D03*
D28*
X50130000Y-47095000D03*
%TD*%
D27*
%TO.C,R5*%
X46320000Y-44555000D03*
D28*
X46320000Y-47095000D03*
%TD*%
D27*
%TO.C,R1*%
X45050000Y-8995000D03*
D28*
X45050000Y-11535000D03*
%TD*%
D27*
%TO.C,R3*%
X18380000Y-66780000D03*
D28*
X15840000Y-66780000D03*
%TD*%
D29*
%TO.C,Q1*%
X6950000Y-66780000D03*
D30*
X9240000Y-66780000D03*
X11530000Y-66780000D03*
%TD*%
D20*
%TO.C,J9*%
X50130000Y-70590000D03*
D21*
X50130000Y-68050000D03*
X50130000Y-65510000D03*
X50130000Y-62970000D03*
%TD*%
D20*
%TO.C,J10*%
X64989000Y-3343500D03*
D21*
X67529000Y-3343500D03*
X70069000Y-3343500D03*
%TD*%
D19*
%TO.C,Module2*%
X39970000Y-4550000D03*
X27270000Y-32490000D03*
X24730000Y-4550000D03*
X26000000Y-2010000D03*
X37430000Y-8360000D03*
X39970000Y-7090000D03*
X29810000Y-32490000D03*
X24730000Y-7090000D03*
X28540000Y-2010000D03*
X37430000Y-10900000D03*
X39970000Y-9630000D03*
X32350000Y-32490000D03*
X24730000Y-9630000D03*
X31080000Y-2010000D03*
X37430000Y-13440000D03*
X39970000Y-12170000D03*
X34890000Y-32490000D03*
X24730000Y-12170000D03*
X33620000Y-2010000D03*
X37430000Y-15980000D03*
X39970000Y-14710000D03*
X37430000Y-32490000D03*
X24730000Y-14710000D03*
X36160000Y-2010000D03*
X39970000Y-17250000D03*
X24730000Y-17250000D03*
X38700000Y-2010000D03*
X39970000Y-19790000D03*
X24730000Y-19790000D03*
X39970000Y-22330000D03*
X24730000Y-22330000D03*
X39970000Y-24870000D03*
X24730000Y-24870000D03*
X39970000Y-27410000D03*
X24730000Y-27410000D03*
X39970000Y-29950000D03*
X24730000Y-29950000D03*
X39970000Y-32490000D03*
X24730000Y-32490000D03*
%TD*%
D31*
%TO.C,Module1*%
X22800000Y-39750000D03*
D32*
X21715000Y-39750000D03*
D31*
X39260000Y-47200000D03*
D32*
X40345000Y-47200000D03*
D33*
X22800000Y-37470000D03*
D32*
X40345000Y-45930000D03*
D31*
X39260000Y-45930000D03*
D32*
X40345000Y-44660000D03*
D31*
X39260000Y-44660000D03*
X39260000Y-43390000D03*
D32*
X40345000Y-43390000D03*
X40345000Y-42120000D03*
D31*
X39260000Y-42120000D03*
D32*
X40345000Y-40850000D03*
D31*
X39260000Y-40850000D03*
D32*
X40345000Y-39580000D03*
D31*
X39260000Y-39580000D03*
X39260000Y-38310000D03*
D32*
X40345000Y-38310000D03*
%TD*%
D34*
%TO.C,JP2*%
X50257000Y-9600000D03*
X50257000Y-10900000D03*
%TD*%
D24*
%TO.C,SW1*%
X45685000Y-15345000D03*
X52185000Y-15345000D03*
X52185000Y-19845000D03*
X45685000Y-19845000D03*
%TD*%
D20*
%TO.C,J8*%
X39970000Y-70590000D03*
D21*
X39970000Y-68050000D03*
X39970000Y-65510000D03*
X39970000Y-62970000D03*
%TD*%
D35*
%TO.C,H2*%
X58200000Y-3250000D03*
X58727200Y-1977200D03*
X61800000Y-3250000D03*
X60000000Y-1450000D03*
D36*
X60000000Y-3250000D03*
D35*
X58727200Y-4522800D03*
X60000000Y-5050000D03*
X61272800Y-1977200D03*
X61272800Y-4522800D03*
%TD*%
%TO.C,H4*%
X60000000Y-73550000D03*
X60000000Y-69950000D03*
X58727200Y-70477200D03*
X61800000Y-71750000D03*
D36*
X60000000Y-71750000D03*
D35*
X61272800Y-70477200D03*
X58200000Y-71750000D03*
X58727200Y-73022800D03*
X61272800Y-73022800D03*
%TD*%
%TO.C,H1*%
X16272800Y-4522800D03*
X13727200Y-1977200D03*
X13200000Y-3250000D03*
X13727200Y-4522800D03*
X16272800Y-1977200D03*
X15000000Y-1450000D03*
D36*
X15000000Y-3250000D03*
D35*
X15000000Y-5050000D03*
X16800000Y-3250000D03*
%TD*%
%TO.C,H3*%
X13727200Y-73022800D03*
X16272800Y-73022800D03*
X13200000Y-71750000D03*
X15000000Y-73550000D03*
X16272800Y-70477200D03*
X15000000Y-69950000D03*
X16800000Y-71750000D03*
D36*
X15000000Y-71750000D03*
D35*
X13727200Y-70477200D03*
%TD*%
D37*
%TO.C,J11*%
X26901700Y-52670300D03*
D38*
X28901700Y-52670300D03*
X30901700Y-52670300D03*
X32901700Y-52670300D03*
X34901700Y-52670300D03*
X36901700Y-52670300D03*
X38901700Y-52670300D03*
X40901700Y-52670300D03*
%TD*%
D22*
%TO.C,BT2*%
X17415000Y-11670000D03*
X5425000Y-58150000D03*
D23*
X11420000Y-60900000D03*
D24*
X11420000Y-8910000D03*
%TD*%
M02*
