%TF.GenerationSoftware,KiCad,Pcbnew,8.0.9-8.0.9-0~ubuntu22.04.1*%
%TF.CreationDate,2025-03-07T09:00:22+01:00*%
%TF.ProjectId,HB-UNI-SEN-BATT_E07-868MS10_FUEL4EP,48422d55-4e49-42d5-9345-4e2d42415454,1.4*%
%TF.SameCoordinates,Original*%
%TF.FileFunction,Copper,L1,Top*%
%TF.FilePolarity,Positive*%
%FSLAX46Y46*%
G04 Gerber Fmt 4.6, Leading zero omitted, Abs format (unit mm)*
G04 Created by KiCad (PCBNEW 8.0.9-8.0.9-0~ubuntu22.04.1) date 2025-03-07 09:00:22*
%MOMM*%
%LPD*%
G01*
G04 APERTURE LIST*
%TA.AperFunction,ComponentPad*%
%ADD10R,1.800000X1.800000*%
%TD*%
%TA.AperFunction,ComponentPad*%
%ADD11C,1.800000*%
%TD*%
%TA.AperFunction,ComponentPad*%
%ADD12R,1.700000X1.700000*%
%TD*%
%TA.AperFunction,ComponentPad*%
%ADD13O,1.700000X1.700000*%
%TD*%
%TA.AperFunction,ComponentPad*%
%ADD14R,2.000000X2.000000*%
%TD*%
%TA.AperFunction,ComponentPad*%
%ADD15C,2.000000*%
%TD*%
%TA.AperFunction,ComponentPad*%
%ADD16R,1.200000X1.200000*%
%TD*%
%TA.AperFunction,ComponentPad*%
%ADD17C,1.200000*%
%TD*%
%TA.AperFunction,ComponentPad*%
%ADD18C,1.600000*%
%TD*%
%TA.AperFunction,ComponentPad*%
%ADD19O,1.600000X1.600000*%
%TD*%
%TA.AperFunction,ComponentPad*%
%ADD20R,1.717500X1.800000*%
%TD*%
%TA.AperFunction,ComponentPad*%
%ADD21O,1.717500X1.800000*%
%TD*%
%TA.AperFunction,ComponentPad*%
%ADD22C,1.000000*%
%TD*%
%TA.AperFunction,SMDPad,CuDef*%
%ADD23R,2.170000X1.000000*%
%TD*%
%TA.AperFunction,ComponentPad*%
%ADD24C,3.000000*%
%TD*%
%TA.AperFunction,SMDPad,CuDef*%
%ADD25R,1.500000X1.000000*%
%TD*%
%TA.AperFunction,ComponentPad*%
%ADD26C,0.700000*%
%TD*%
%TA.AperFunction,ComponentPad*%
%ADD27C,4.400000*%
%TD*%
%TA.AperFunction,ComponentPad*%
%ADD28R,1.350000X1.350000*%
%TD*%
%TA.AperFunction,ComponentPad*%
%ADD29O,1.350000X1.350000*%
%TD*%
%TA.AperFunction,SMDPad,CuDef*%
%ADD30R,1.000000X1.500000*%
%TD*%
%TA.AperFunction,ViaPad*%
%ADD31C,0.600000*%
%TD*%
%TA.AperFunction,ViaPad*%
%ADD32C,1.000000*%
%TD*%
%TA.AperFunction,Conductor*%
%ADD33C,0.600000*%
%TD*%
%TA.AperFunction,Conductor*%
%ADD34C,0.250000*%
%TD*%
%TA.AperFunction,Conductor*%
%ADD35C,0.200000*%
%TD*%
%TA.AperFunction,Conductor*%
%ADD36C,0.500000*%
%TD*%
%TA.AperFunction,Conductor*%
%ADD37C,1.000000*%
%TD*%
G04 APERTURE END LIST*
D10*
%TO.P,D1,1,K*%
%TO.N,GND*%
X45050000Y71720000D03*
D11*
%TO.P,D1,2,A*%
%TO.N,Net-(D1-A)*%
X45050000Y69180000D03*
%TD*%
D12*
%TO.P,J1,1,Pin_1*%
%TO.N,/A0*%
X46320000Y39335000D03*
D13*
%TO.P,J1,2,Pin_2*%
%TO.N,GND*%
X46320000Y36795000D03*
%TD*%
D12*
%TO.P,J2,1,Pin_1*%
%TO.N,/A1*%
X51400000Y39335000D03*
D13*
%TO.P,J2,2,Pin_2*%
%TO.N,GND*%
X51400000Y36795000D03*
%TD*%
D12*
%TO.P,J7,1,Pin_1*%
%TO.N,VCC*%
X34890000Y4410000D03*
D13*
%TO.P,J7,2,Pin_2*%
%TO.N,GND*%
X34890000Y6950000D03*
%TO.P,J7,3,Pin_3*%
%TO.N,/SCL*%
X34890000Y9490000D03*
%TO.P,J7,4,Pin_4*%
%TO.N,/SDA*%
X34890000Y12030000D03*
%TD*%
D14*
%TO.P,BT1,1,+*%
%TO.N,/plusBAT*%
X63490000Y66140000D03*
D15*
%TO.P,BT1,2,-*%
%TO.N,/conBAT*%
X63490000Y14150000D03*
%TD*%
D12*
%TO.P,J3,1,Pin_1*%
%TO.N,/A2*%
X46320000Y48860000D03*
D13*
%TO.P,J3,2,Pin_2*%
%TO.N,GND*%
X46320000Y46320000D03*
%TD*%
D12*
%TO.P,J4,1,Pin_1*%
%TO.N,/A3*%
X51400000Y48860000D03*
D13*
%TO.P,J4,2,Pin_2*%
%TO.N,GND*%
X51400000Y46320000D03*
%TD*%
D12*
%TO.P,J5,1,Pin_1*%
%TO.N,VCC*%
X56480000Y8220000D03*
D13*
%TO.P,J5,2,Pin_2*%
%TO.N,/minusBAT*%
X59020000Y8220000D03*
%TO.P,J5,3,Pin_3*%
%TO.N,/MOSI*%
X61560000Y8220000D03*
%TO.P,J5,4,Pin_4*%
%TO.N,/SCK*%
X64100000Y8220000D03*
%TO.P,J5,5,Pin_5*%
%TO.N,/MISO*%
X66640000Y8220000D03*
%TO.P,J5,6,Pin_6*%
%TO.N,/RSET*%
X69180000Y8220000D03*
%TD*%
D12*
%TO.P,J6,1,Pin_1*%
%TO.N,VCC*%
X24730000Y4410000D03*
D13*
%TO.P,J6,2,Pin_2*%
%TO.N,GND*%
X24730000Y6950000D03*
%TO.P,J6,3,Pin_3*%
%TO.N,/SCL*%
X24730000Y9490000D03*
%TO.P,J6,4,Pin_4*%
%TO.N,/SDA*%
X24730000Y12030000D03*
%TD*%
D16*
%TO.P,C1,1*%
%TO.N,VCC*%
X46955000Y24095000D03*
D17*
%TO.P,C1,2*%
%TO.N,GND*%
X46955000Y22595000D03*
%TD*%
D18*
%TO.P,R4,1*%
%TO.N,VCC*%
X50130000Y30445000D03*
D19*
%TO.P,R4,2*%
%TO.N,/SCL*%
X50130000Y27905000D03*
%TD*%
D18*
%TO.P,R5,1*%
%TO.N,VCC*%
X46320000Y30445000D03*
D19*
%TO.P,R5,2*%
%TO.N,/SDA*%
X46320000Y27905000D03*
%TD*%
D18*
%TO.P,R1,1*%
%TO.N,Net-(D1-A)*%
X45050000Y66005000D03*
D19*
%TO.P,R1,2*%
%TO.N,Net-(Module2-PD4)*%
X45050000Y63465000D03*
%TD*%
D20*
%TO.P,Q1,1,G*%
%TO.N,Net-(Q1-G)*%
X6950000Y8220000D03*
D21*
%TO.P,Q1,2,D*%
%TO.N,/minusBAT*%
X9240000Y8220000D03*
%TO.P,Q1,3,S*%
%TO.N,GND*%
X11530000Y8220000D03*
%TD*%
D12*
%TO.P,J9,1,Pin_1*%
%TO.N,VCC*%
X50130000Y4410000D03*
D13*
%TO.P,J9,2,Pin_2*%
%TO.N,GND*%
X50130000Y6950000D03*
%TO.P,J9,3,Pin_3*%
%TO.N,/SCL*%
X50130000Y9490000D03*
%TO.P,J9,4,Pin_4*%
%TO.N,/SDA*%
X50130000Y12030000D03*
%TD*%
D12*
%TO.P,J10,1,Pin_1*%
%TO.N,VCC*%
X64989000Y71656500D03*
D13*
%TO.P,J10,2,Pin_2*%
%TO.N,/plusBAT*%
X67529000Y71656500D03*
%TO.P,J10,3,Pin_3*%
%TO.N,/minusBAT*%
X70069000Y71656500D03*
%TD*%
D11*
%TO.P,Module2,1A,V_ACCU*%
%TO.N,/V_ACCU*%
X39970000Y70450000D03*
%TO.P,Module2,1B,PC2/TCK*%
%TO.N,unconnected-(Module2-PC2{slash}TCK-Pad1B)*%
X27270000Y42510000D03*
%TO.P,Module2,1C,PD1/TXD0*%
%TO.N,unconnected-(Module2-PD1{slash}TXD0-Pad1C)*%
X24730000Y70450000D03*
%TO.P,Module2,1D,DTR*%
%TO.N,unconnected-(Module2-DTR-Pad1D)*%
X26000000Y72990000D03*
%TO.P,Module2,1E,PC0/SCL*%
%TO.N,/SCL*%
X37430000Y61560000D03*
%TO.P,Module2,2A,GND*%
%TO.N,GND*%
X39970000Y67910000D03*
%TO.P,Module2,2B,PC4/TD0*%
%TO.N,unconnected-(Module2-PC4{slash}TD0-Pad2B)*%
X29810000Y42510000D03*
%TO.P,Module2,2C,PD0/RXD0*%
%TO.N,unconnected-(Module2-PD0{slash}RXD0-Pad2C)*%
X24730000Y67910000D03*
%TO.P,Module2,2D,PD1/TXD0*%
%TO.N,unconnected-(Module2-PD1{slash}TXD0-Pad2D)*%
X28540000Y72990000D03*
%TO.P,Module2,2E,PC1/SDA*%
%TO.N,/SDA*%
X37430000Y59020000D03*
%TO.P,Module2,3A,RSTB*%
%TO.N,/RSET*%
X39970000Y65370000D03*
%TO.P,Module2,3B,PC5/TDI*%
%TO.N,unconnected-(Module2-PC5{slash}TDI-Pad3B)*%
X32350000Y42510000D03*
%TO.P,Module2,3C,RSTB*%
%TO.N,unconnected-(Module2-RSTB-Pad3C)*%
X24730000Y65370000D03*
%TO.P,Module2,3D,PD0/RXD0*%
%TO.N,unconnected-(Module2-PD0{slash}RXD0-Pad3D)*%
X31080000Y72990000D03*
%TO.P,Module2,4A,VCC*%
%TO.N,VCC*%
X39970000Y62830000D03*
%TO.P,Module2,4B,PB1/T1*%
%TO.N,unconnected-(Module2-PB1{slash}T1-Pad4B)*%
X34890000Y42510000D03*
%TO.P,Module2,4C,GND*%
%TO.N,GND*%
X24730000Y62830000D03*
%TO.P,Module2,4D,VCC*%
%TO.N,unconnected-(Module2-VCC-Pad4D)*%
X33620000Y72990000D03*
%TO.P,Module2,5A,PB2/A3*%
%TO.N,/A3*%
X39970000Y60290000D03*
%TO.P,Module2,5B,PB0/T0*%
%TO.N,unconnected-(Module2-PB0{slash}T0-Pad5B)*%
X37430000Y42510000D03*
%TO.P,Module2,5C,PD2*%
%TO.N,/D2*%
X24730000Y60290000D03*
%TO.P,Module2,5D,GND*%
%TO.N,unconnected-(Module2-GND-Pad5D)*%
X36160000Y72990000D03*
%TO.P,Module2,6A,PB3/A2*%
%TO.N,/A2*%
X39970000Y57750000D03*
%TO.P,Module2,6C,PD3*%
%TO.N,unconnected-(Module2-PD3-Pad6C)*%
X24730000Y57750000D03*
%TO.P,Module2,6D,GND*%
%TO.N,unconnected-(Module2-GND-Pad6D)*%
X38700000Y72990000D03*
%TO.P,Module2,7A,PA1/A1*%
%TO.N,/A1*%
X39970000Y55210000D03*
%TO.P,Module2,7C,PD4*%
%TO.N,Net-(Module2-PD4)*%
X24730000Y55210000D03*
%TO.P,Module2,8A,PA0/A0*%
%TO.N,/A0*%
X39970000Y52670000D03*
%TO.P,Module2,8C,PD5*%
%TO.N,/D5*%
X24730000Y52670000D03*
%TO.P,Module2,9A,PB7/SCK*%
%TO.N,/SCK*%
X39970000Y50130000D03*
%TO.P,Module2,9C,PD6*%
%TO.N,/D6*%
X24730000Y50130000D03*
%TO.P,Module2,10A,PB6/MISO*%
%TO.N,/MISO*%
X39970000Y47590000D03*
%TO.P,Module2,10C,PD7*%
%TO.N,/D7*%
X24730000Y47590000D03*
%TO.P,Module2,11A,PB5/MOSI*%
%TO.N,/MOSI*%
X39970000Y45050000D03*
%TO.P,Module2,11C,PC6/TOSC*%
%TO.N,/CONFIG*%
X24730000Y45050000D03*
%TO.P,Module2,12A,PB4/~{SS}*%
%TO.N,/SS*%
X39970000Y42510000D03*
%TO.P,Module2,12C,PC3/TMS*%
%TO.N,unconnected-(Module2-PC3{slash}TMS-Pad12C)*%
X24730000Y42510000D03*
%TD*%
D22*
%TO.P,Module1,1A,GND*%
%TO.N,GND*%
X22800000Y35250000D03*
D23*
X21715000Y35250000D03*
%TO.P,Module1,1C,VCC*%
%TO.N,VCC*%
X40345000Y27800000D03*
D22*
X39260000Y27800000D03*
D24*
%TO.P,Module1,2A,ANT*%
%TO.N,unconnected-(Module1-ANT-Pad2A)*%
X22800000Y37530000D03*
D23*
%TO.P,Module1,2C,GDO0*%
%TO.N,/D2*%
X40345000Y29070000D03*
D22*
X39260000Y29070000D03*
D23*
%TO.P,Module1,3C,~{CSN}*%
%TO.N,/SS*%
X40345000Y30340000D03*
D22*
X39260000Y30340000D03*
D23*
%TO.P,Module1,4C,SCK*%
%TO.N,/SCK*%
X40345000Y31610000D03*
D22*
X39260000Y31610000D03*
D23*
%TO.P,Module1,5C,MOSI*%
%TO.N,/MOSI*%
X40345000Y32880000D03*
D22*
X39260000Y32880000D03*
D23*
%TO.P,Module1,6C,MISO/GDO1*%
%TO.N,/MISO*%
X40345000Y34150000D03*
D22*
X39260000Y34150000D03*
D23*
%TO.P,Module1,7C,GDO2*%
%TO.N,unconnected-(Module1-GDO2-Pad7C)*%
X40345000Y35420000D03*
D22*
%TO.N,unconnected-(Module1-GDO2-Pad7C)_1*%
X39260000Y35420000D03*
D23*
%TO.P,Module1,8C,GND*%
%TO.N,GND*%
X40345000Y36690000D03*
D22*
X39260000Y36690000D03*
%TD*%
D25*
%TO.P,JP2,1,A*%
%TO.N,/plusBAT*%
X50257000Y65400000D03*
%TO.P,JP2,2,B*%
%TO.N,VCC*%
X50257000Y64100000D03*
%TD*%
D15*
%TO.P,SW1,1*%
%TO.N,/CONFIG*%
X45685000Y59655000D03*
X52185000Y59655000D03*
%TO.P,SW1,2*%
%TO.N,GND*%
X45685000Y55155000D03*
X52185000Y55155000D03*
%TD*%
D12*
%TO.P,J8,1,Pin_1*%
%TO.N,VCC*%
X39970000Y4410000D03*
D13*
%TO.P,J8,2,Pin_2*%
%TO.N,GND*%
X39970000Y6950000D03*
%TO.P,J8,3,Pin_3*%
%TO.N,/SCL*%
X39970000Y9490000D03*
%TO.P,J8,4,Pin_4*%
%TO.N,/SDA*%
X39970000Y12030000D03*
%TD*%
D26*
%TO.P,H2,1*%
%TO.N,N/C*%
X58200000Y71750000D03*
X58727200Y73022800D03*
X58727200Y70477200D03*
X60000000Y73550000D03*
D27*
X60000000Y71750000D03*
D26*
X60000000Y69950000D03*
X61272800Y73022800D03*
X61272800Y70477200D03*
X61800000Y71750000D03*
%TD*%
%TO.P,H4,1*%
%TO.N,N/C*%
X58200000Y3250000D03*
X58727200Y4522800D03*
X58727200Y1977200D03*
X60000000Y5050000D03*
D27*
X60000000Y3250000D03*
D26*
X60000000Y1450000D03*
X61272800Y4522800D03*
X61272800Y1977200D03*
X61800000Y3250000D03*
%TD*%
%TO.P,H1,1*%
%TO.N,N/C*%
X13200000Y71750000D03*
X13727200Y73022800D03*
X13727200Y70477200D03*
X15000000Y73550000D03*
D27*
X15000000Y71750000D03*
D26*
X15000000Y69950000D03*
X16272800Y73022800D03*
X16272800Y70477200D03*
X16800000Y71750000D03*
%TD*%
%TO.P,H3,1*%
%TO.N,N/C*%
X13200000Y3250000D03*
X13727200Y4522800D03*
X13727200Y1977200D03*
X15000000Y5050000D03*
D27*
X15000000Y3250000D03*
D26*
X15000000Y1450000D03*
X16272800Y4522800D03*
X16272800Y1977200D03*
X16800000Y3250000D03*
%TD*%
D28*
%TO.P,J11,1,Pin_1*%
%TO.N,/D7*%
X26901700Y22329700D03*
D29*
%TO.P,J11,2,Pin_2*%
%TO.N,/D6*%
X28901700Y22329700D03*
%TO.P,J11,3,Pin_3*%
%TO.N,/MISO*%
X30901700Y22329700D03*
%TO.P,J11,4,Pin_4*%
%TO.N,/D5*%
X32901700Y22329700D03*
%TO.P,J11,5,Pin_5*%
%TO.N,/SCK*%
X34901700Y22329700D03*
%TO.P,J11,6,Pin_6*%
%TO.N,/MOSI*%
X36901700Y22329700D03*
%TO.P,J11,7,Pin_7*%
%TO.N,GND*%
X38901700Y22329700D03*
%TO.P,J11,8,Pin_8*%
%TO.N,VCC*%
X40901700Y22329700D03*
%TD*%
D14*
%TO.P,BT2,1,+*%
%TO.N,/conBAT*%
X11420000Y14100000D03*
D15*
%TO.P,BT2,2,-*%
%TO.N,/minusBAT*%
X11420000Y66090000D03*
%TD*%
D30*
%TO.P,JP5,1,A*%
%TO.N,/A0*%
X54453000Y71628000D03*
%TO.P,JP5,2,B*%
%TO.N,/plusBAT*%
X55753000Y71628000D03*
%TD*%
%TO.P,JP3,1,A*%
%TO.N,/plusBAT*%
X51816000Y71628000D03*
%TO.P,JP3,2,B*%
%TO.N,/V_ACCU*%
X50516000Y71628000D03*
%TD*%
D18*
%TO.P,R2,1*%
%TO.N,VCC*%
X18380000Y8220000D03*
D19*
%TO.P,R2,2*%
%TO.N,Net-(Q1-G)*%
X15840000Y8220000D03*
%TD*%
D31*
%TO.N,GND*%
X52619200Y16957600D03*
X11529998Y11938000D03*
X13462000Y11938000D03*
X12446000Y11938000D03*
%TO.N,/SS*%
X39970000Y40986002D03*
X35144000Y40922486D03*
%TO.N,/A0*%
X53213000Y68453000D03*
%TO.N,/MOSI*%
X42340000Y25370000D03*
%TO.N,/SCK*%
X43070000Y26040000D03*
X43070000Y31510000D03*
%TO.N,/MISO*%
X38318999Y40350999D03*
X29873500Y39906500D03*
%TO.N,/RSET*%
X55718000Y61560000D03*
X53686000Y61560000D03*
D32*
%TO.N,/minusBAT*%
X63681920Y62429080D03*
D31*
%TO.N,/D5*%
X25750000Y19810000D03*
X28200000Y19810000D03*
%TO.N,/D6*%
X29149600Y24577600D03*
X25936500Y24628400D03*
%TO.N,/conBAT*%
X4572000Y6604000D03*
%TD*%
D33*
%TO.N,GND*%
X50130000Y6950000D02*
X52568400Y9388400D01*
X39970000Y6950000D02*
X50130000Y6950000D01*
X11776000Y8220000D02*
X13462000Y9906000D01*
X13462000Y11938000D02*
X11529998Y11938000D01*
X52568400Y16906800D02*
X52619200Y16957600D01*
X52568400Y9388400D02*
X52568400Y16906800D01*
X34890000Y6950000D02*
X39970000Y6950000D01*
X11529998Y11938000D02*
X11529998Y8220002D01*
X24730000Y6950000D02*
X34890000Y6950000D01*
X13462000Y9906000D02*
X13462000Y11938000D01*
D34*
%TO.N,Net-(D1-A)*%
X45050000Y66005000D02*
X45050000Y69180000D01*
%TO.N,/SS*%
X39970000Y42510000D02*
X39970000Y40986002D01*
X37330000Y30340000D02*
X35144000Y32526000D01*
X39260000Y30340000D02*
X37330000Y30340000D01*
X35144000Y32526000D02*
X35144000Y40922486D01*
%TO.N,/D2*%
X40605000Y56480000D02*
X39335000Y56480000D01*
X38700000Y57115000D02*
X38700000Y62195000D01*
X38700000Y62195000D02*
X38065000Y62830000D01*
X27270000Y62830000D02*
X24730000Y60290000D01*
X41240000Y55845000D02*
X40605000Y56480000D01*
X41240000Y54575000D02*
X43145000Y52670000D01*
X51565000Y35055000D02*
X53305000Y36795000D01*
X53305000Y36795000D02*
X53305000Y39970000D01*
X43145000Y45050000D02*
X46955000Y41240000D01*
X46955000Y41240000D02*
X52035000Y41240000D01*
X52035000Y41240000D02*
X53305000Y39970000D01*
X45671814Y35055000D02*
X43840000Y33223186D01*
X42831814Y29040000D02*
X43840000Y30048186D01*
X38065000Y62830000D02*
X27270000Y62830000D01*
X45671814Y35055000D02*
X51565000Y35055000D01*
X39335000Y56480000D02*
X38700000Y57115000D01*
X43840000Y33223186D02*
X43840000Y30048186D01*
X40740000Y29040000D02*
X42831814Y29040000D01*
X41240000Y55845000D02*
X41240000Y54575000D01*
X43145000Y52670000D02*
X43145000Y45050000D01*
%TO.N,/SCL*%
X34890000Y9490000D02*
X39970000Y9490000D01*
X39970000Y9490000D02*
X50130000Y9490000D01*
X51400000Y26000000D02*
X51400000Y10760000D01*
X50130000Y27270000D02*
X51400000Y26000000D01*
X50765000Y10125000D02*
X51400000Y10760000D01*
X26982799Y19184999D02*
X27003300Y19205500D01*
X28495001Y52625001D02*
X28495001Y23604001D01*
X27003300Y19205500D02*
X27003300Y20234200D01*
D35*
X27876701Y22985701D02*
X27876701Y21044101D01*
D34*
X23460000Y10760000D02*
X23460000Y19015000D01*
X27003300Y20234200D02*
X27813201Y21044101D01*
D35*
X28495001Y23604001D02*
X27876701Y22985701D01*
D34*
X24730000Y9490000D02*
X34890000Y9490000D01*
X24730000Y9490000D02*
X23460000Y10760000D01*
X50130000Y9490000D02*
X50765000Y10125000D01*
X23629999Y19184999D02*
X26982799Y19184999D01*
X37430000Y61560000D02*
X28495001Y52625001D01*
X23460000Y19015000D02*
X23629999Y19184999D01*
%TO.N,/SDA*%
X39970000Y12030000D02*
X50130000Y12030000D01*
X48225000Y27905000D02*
X50130000Y26000000D01*
X34890000Y12030000D02*
X39970000Y12030000D01*
X33876701Y22797701D02*
X33876701Y23622399D01*
X24730000Y12030000D02*
X34890000Y12030000D01*
X32909099Y24590001D02*
X31765001Y24590001D01*
X24730000Y17690000D02*
X24730000Y12030000D01*
X31765001Y24590001D02*
X31035001Y25320001D01*
X32893301Y19825001D02*
X33823200Y20754900D01*
X29630000Y17690000D02*
X24730000Y17690000D01*
X31765001Y19825001D02*
X32893301Y19825001D01*
X46320000Y27905000D02*
X48225000Y27905000D01*
X31035001Y25320001D02*
X31035001Y52625001D01*
X50130000Y12030000D02*
X50130000Y26000000D01*
X33876701Y23622399D02*
X32909099Y24590001D01*
D35*
X33876701Y22797701D02*
X33876701Y20808401D01*
X33876701Y20808401D02*
X33823200Y20754900D01*
D34*
X31765001Y19825001D02*
X29630000Y17690000D01*
X31035001Y52625001D02*
X37430000Y59020000D01*
%TO.N,/A0*%
X41875000Y43780000D02*
X46320000Y39335000D01*
X41875000Y51400000D02*
X41875000Y43780000D01*
X54453000Y69693000D02*
X54453000Y71628000D01*
X41875000Y51400000D02*
X40605000Y52670000D01*
X53213000Y68453000D02*
X54453000Y69693000D01*
%TO.N,/A1*%
X42510000Y44415000D02*
X46320000Y40605000D01*
X46320000Y40605000D02*
X50130000Y40605000D01*
X50130000Y40605000D02*
X51400000Y39335000D01*
X42510000Y52035000D02*
X39970000Y54575000D01*
X42510000Y52035000D02*
X42510000Y44415000D01*
%TO.N,/A2*%
X41875000Y55210000D02*
X46320000Y50765000D01*
X46320000Y50765000D02*
X46320000Y48860000D01*
X40605000Y57750000D02*
X41875000Y56480000D01*
X41875000Y56480000D02*
X41875000Y55210000D01*
%TO.N,/A3*%
X42510000Y57115000D02*
X39970000Y59655000D01*
X42510000Y55845000D02*
X49495000Y48860000D01*
X49495000Y48860000D02*
X51400000Y48860000D01*
X42510000Y57115000D02*
X42510000Y55845000D01*
%TO.N,/MOSI*%
X39975000Y25370000D02*
X36960100Y22355100D01*
X42340000Y25370000D02*
X39975000Y25370000D01*
X40345000Y32880000D02*
X41680000Y32880000D01*
X42410000Y33610000D02*
X42410000Y42608590D01*
X42410000Y42608590D02*
X39960000Y45058590D01*
X41680000Y32880000D02*
X42410000Y33610000D01*
%TO.N,/SCK*%
X37030000Y31630000D02*
X39240000Y31630000D01*
X43070000Y26040000D02*
X38625700Y26040000D01*
X43070000Y31510000D02*
X41050000Y31510000D01*
X38625700Y26040000D02*
X38524100Y26040000D01*
X36204999Y32455001D02*
X37030000Y31630000D01*
X36204999Y46454999D02*
X36204999Y32455001D01*
X38524100Y26040000D02*
X34991600Y22507500D01*
X36204999Y46454999D02*
X39880000Y50130000D01*
%TO.N,/MISO*%
X30965700Y22342400D02*
X29873500Y23434600D01*
X38318999Y34791001D02*
X38318999Y40350999D01*
X29873500Y23434600D02*
X29873500Y39906500D01*
X39970000Y47590000D02*
X38668999Y46288999D01*
X39010000Y34100000D02*
X38318999Y34791001D01*
X38668999Y46288999D02*
X38668999Y40700999D01*
X38668999Y40700999D02*
X38318999Y40350999D01*
%TO.N,/RSET*%
X55718000Y61560000D02*
X57531000Y63373000D01*
X66675000Y34258100D02*
X69180000Y31753100D01*
X44415000Y61560000D02*
X53686000Y61560000D01*
X66675000Y62230000D02*
X66675000Y34258100D01*
X65532000Y63373000D02*
X66675000Y62230000D01*
X69180000Y31753100D02*
X69180000Y8220000D01*
X57531000Y63373000D02*
X65532000Y63373000D01*
X44415000Y61560000D02*
X40605000Y65370000D01*
D36*
%TO.N,VCC*%
X34890000Y4410000D02*
X39970000Y4410000D01*
X39970000Y4410000D02*
X50130000Y4410000D01*
X44415000Y32985000D02*
X45050000Y33620000D01*
X45050000Y33620000D02*
X53305000Y33620000D01*
X53940000Y8855000D02*
X53940000Y32985000D01*
X44415000Y31080000D02*
X44415000Y32985000D01*
X44415000Y31080000D02*
X45050000Y30445000D01*
X45050000Y30445000D02*
X44415000Y29810000D01*
X44415000Y29810000D02*
X44415000Y27905000D01*
X20920000Y8220000D02*
X24730000Y4410000D01*
X45050000Y57750000D02*
X39970000Y62830000D01*
X53940000Y57115000D02*
X53305000Y57750000D01*
X45050000Y57750000D02*
X53305000Y57750000D01*
X54575000Y8220000D02*
X56480000Y8220000D01*
D37*
X44415000Y27270000D02*
X44415000Y27905000D01*
D36*
X46955000Y24730000D02*
X46955000Y24095000D01*
D33*
X64990000Y64640000D02*
X64450000Y64100000D01*
D36*
X52160000Y4410000D02*
X50130000Y4410000D01*
X53940000Y57040000D02*
X53940000Y57115000D01*
D33*
X64990000Y71655500D02*
X64990000Y64640000D01*
D36*
X53305000Y33620000D02*
X53940000Y32985000D01*
X18380000Y8220000D02*
X20920000Y8220000D01*
X53940000Y6190000D02*
X52160000Y4410000D01*
D37*
X40345000Y27800000D02*
X44310000Y27800000D01*
D36*
X40901700Y22329700D02*
X45189700Y22329700D01*
D33*
X64450000Y64100000D02*
X50257000Y64100000D01*
D36*
X44310000Y27800000D02*
X44415000Y27905000D01*
X24730000Y4410000D02*
X34890000Y4410000D01*
X45050000Y30445000D02*
X46320000Y30445000D01*
X53940000Y57040000D02*
X54575000Y57675000D01*
X53940000Y8855000D02*
X53940000Y6190000D01*
X53940000Y34255000D02*
X53940000Y57040000D01*
X45189700Y22329700D02*
X46955000Y24095000D01*
X53940000Y8855000D02*
X54575000Y8220000D01*
X54575000Y57675000D02*
X54575000Y64065000D01*
X46320000Y30445000D02*
X50130000Y30445000D01*
D37*
X44415000Y27270000D02*
X46955000Y24730000D01*
D36*
X53305000Y33620000D02*
X53940000Y34255000D01*
D37*
%TO.N,/minusBAT*%
X59870000Y9070000D02*
X59870000Y58617160D01*
X59020000Y8220000D02*
X59870000Y9070000D01*
X59870000Y58617160D02*
X63681920Y62429080D01*
%TO.N,/plusBAT*%
X51816000Y71628000D02*
X51816000Y65400000D01*
X55753000Y65654000D02*
X56007000Y65400000D01*
X50257000Y65400000D02*
X51816000Y65400000D01*
X51816000Y65400000D02*
X56007000Y65400000D01*
X55753000Y71628000D02*
X55753000Y65654000D01*
X56007000Y65400000D02*
X62300000Y65400000D01*
X62300000Y65400000D02*
X63500000Y66600000D01*
D34*
%TO.N,/D5*%
X25750000Y19810000D02*
X23184998Y19810000D01*
X18634000Y46684000D02*
X24750000Y52800000D01*
X30351000Y19810000D02*
X32858000Y22317000D01*
X28200000Y19810000D02*
X30351000Y19810000D01*
X23184998Y19810000D02*
X18634000Y24360998D01*
X18634000Y24360998D02*
X18634000Y46684000D01*
%TO.N,/D6*%
X25936500Y24628400D02*
X21034300Y24628400D01*
X19205500Y43878502D02*
X24900000Y49573002D01*
X19205500Y26457200D02*
X19205500Y43878502D01*
X21034300Y24628400D02*
X19205500Y26457200D01*
X29149600Y22577600D02*
X29149600Y24577600D01*
%TO.N,/D7*%
X19777000Y42657000D02*
X24740000Y47620000D01*
X26876300Y26303700D02*
X19777000Y33403000D01*
X19777000Y33403000D02*
X19777000Y42657000D01*
X26876300Y22380500D02*
X26876300Y26303700D01*
%TO.N,/CONFIG*%
X37928003Y65414999D02*
X36931997Y65414999D01*
X23460000Y59655000D02*
X23460000Y63465000D01*
X24095000Y64100000D02*
X35616998Y64100000D01*
X23460000Y63465000D02*
X24095000Y64100000D01*
X24095000Y59020000D02*
X23460000Y59655000D01*
X36931997Y65414999D02*
X35616998Y64100000D01*
X45685000Y59655000D02*
X52185000Y59655000D01*
X26635000Y57750000D02*
X25365000Y59020000D01*
X26635000Y46955000D02*
X26635000Y57750000D01*
X24730000Y45050000D02*
X26635000Y46955000D01*
X45345000Y59655000D02*
X40855001Y64144999D01*
X25365000Y59020000D02*
X24095000Y59020000D01*
X39198003Y64144999D02*
X37928003Y65414999D01*
X40855001Y64144999D02*
X39198003Y64144999D01*
D36*
%TO.N,/conBAT*%
X11420000Y14100000D02*
X9920000Y14100000D01*
X9920000Y14100000D02*
X4572000Y8752000D01*
X4572000Y8752000D02*
X4572000Y6604000D01*
D34*
%TO.N,Net-(Q1-G)*%
X6950000Y9236000D02*
X6950000Y8220000D01*
X15840000Y10443883D02*
X13583883Y12700000D01*
X13583883Y12700000D02*
X10414000Y12700000D01*
X15840000Y8220000D02*
X15840000Y10443883D01*
X10414000Y12700000D02*
X6950000Y9236000D01*
D37*
%TO.N,/V_ACCU*%
X48824000Y73320000D02*
X42840000Y73320000D01*
X42840000Y73320000D02*
X39970000Y70450000D01*
X50516000Y71628000D02*
X48824000Y73320000D01*
D34*
%TO.N,Net-(Module2-PD4)*%
X41240000Y68545000D02*
X40605000Y69180000D01*
X45050000Y63465000D02*
X41240000Y67275000D01*
X24095000Y69180000D02*
X22190000Y67275000D01*
X40605000Y69180000D02*
X24095000Y69180000D01*
X22190000Y57115000D02*
X24095000Y55210000D01*
X41240000Y67275000D02*
X41240000Y68545000D01*
X22190000Y67275000D02*
X22190000Y57115000D01*
%TD*%
M02*
