M48
; DRILL file {KiCad 6.0.11-2627ca5db0~126~ubuntu22.04.1} date Di 15 Aug 2023 16:48:19 CEST
; FORMAT={-:-/ absolute / inch / decimal}
; #@! TF.CreationDate,2023-08-15T16:48:19+02:00
; #@! TF.GenerationSoftware,Kicad,Pcbnew,6.0.11-2627ca5db0~126~ubuntu22.04.1
; #@! TF.FileFunction,Plated,1,2,PTH
FMAT,2
INCH
; #@! TA.AperFunction,Plated,PTH,ViaDrill
T1C0.0157
; #@! TA.AperFunction,Plated,PTH,ComponentDrill
T2C0.0157
; #@! TA.AperFunction,Plated,PTH,ComponentDrill
T3C0.0236
; #@! TA.AperFunction,Plated,PTH,ComponentDrill
T4C0.0256
; #@! TA.AperFunction,Plated,PTH,ComponentDrill
T5C0.0315
; #@! TA.AperFunction,Plated,PTH,ComponentDrill
T6C0.0354
; #@! TA.AperFunction,Plated,PTH,ComponentDrill
T7C0.0394
; #@! TA.AperFunction,Plated,PTH,ComponentDrill
T8C0.0402
; #@! TA.AperFunction,Plated,PTH,ComponentDrill
T9C0.0433
; #@! TA.AperFunction,Plated,PTH,ComponentDrill
T10C0.0866
; #@! TA.AperFunction,Plated,PTH,ComponentDrill
T11C0.1063
%
G90
G05
T1
X0.4396Y0.6816
X1.0138Y0.7799
X1.0211Y0.9696
X1.1102Y0.7799
X1.1476Y0.9676
X1.1761Y1.5711
X1.3836Y1.6111
X1.5086Y1.5886
X1.5736Y1.6136
X1.6669Y0.9988
X1.6957Y1.2406
X1.6957Y1.0252
X2.0716Y0.6676
X2.1286Y2.6911
X2.1286Y2.5061
X2.5966Y2.5473
T2
X0.5197Y2.8248
X0.5197Y0.128
X0.5404Y2.8749
X0.5404Y2.7747
X0.5404Y0.1781
X0.5404Y0.0778
X0.5906Y2.8957
X0.5906Y2.7539
X0.5906Y0.1988
X0.5906Y0.0571
X0.6407Y2.8749
X0.6407Y2.7747
X0.6407Y0.1781
X0.6407Y0.0778
X0.6614Y2.8248
X0.6614Y0.128
X2.2913Y2.8248
X2.2913Y0.128
X2.3121Y2.8749
X2.3121Y2.7747
X2.3121Y0.1781
X2.3121Y0.0778
X2.3622Y2.8957
X2.3622Y2.7539
X2.3622Y0.1988
X2.3622Y0.0571
X2.4123Y2.8749
X2.4123Y2.7747
X2.4123Y0.1781
X2.4123Y0.0778
X2.4331Y2.8248
X2.4331Y0.128
T3
X1.8486Y0.9486
X1.8486Y0.8896
T4
X0.8976Y1.3878
X1.5457Y1.4445
X1.5457Y1.3945
X1.5457Y1.3445
X1.5457Y1.2945
X1.5457Y1.2445
X1.5457Y1.1945
X1.5457Y1.1445
X1.5457Y1.0945
T5
X0.6236Y0.3236
X0.7236Y0.3236
X1.0591Y0.8791
X1.1379Y0.8791
X1.2166Y0.8791
X1.2953Y0.8791
X1.3741Y0.8791
X1.4528Y0.8791
X1.5316Y0.8791
X1.6103Y0.8791
X1.7736Y2.5986
X1.7736Y2.4986
X1.8236Y1.1986
X1.8236Y1.0986
X1.9736Y1.1986
X1.9736Y1.0986
T6
X1.7736Y2.8236
X1.7736Y2.7236
T7
X0.9736Y2.7736
X0.9736Y2.6736
X0.9736Y2.5736
X0.9736Y2.4736
X0.9736Y2.3736
X0.9736Y2.2736
X0.9736Y2.1736
X0.9736Y2.0736
X0.9736Y1.9736
X0.9736Y1.8736
X0.9736Y1.7736
X0.9736Y1.6736
X0.9736Y0.4736
X0.9736Y0.3736
X0.9736Y0.2736
X0.9736Y0.1736
X1.0236Y2.8736
X1.0736Y1.6736
X1.1236Y2.8736
X1.1736Y1.6736
X1.2236Y2.8736
X1.2736Y1.6736
X1.3236Y2.8736
X1.3736Y1.6736
X1.3736Y0.4736
X1.3736Y0.3736
X1.3736Y0.2736
X1.3736Y0.1736
X1.4236Y2.8736
X1.4736Y2.6236
X1.4736Y2.5236
X1.4736Y2.4236
X1.4736Y2.3236
X1.4736Y1.6736
X1.5236Y2.8736
X1.5736Y2.7736
X1.5736Y2.6736
X1.5736Y2.5736
X1.5736Y2.4736
X1.5736Y2.3736
X1.5736Y2.2736
X1.5736Y2.1736
X1.5736Y2.0736
X1.5736Y1.9736
X1.5736Y1.8736
X1.5736Y1.7736
X1.5736Y1.6736
X1.5736Y0.4736
X1.5736Y0.3736
X1.5736Y0.2736
X1.5736Y0.1736
X1.8236Y1.9236
X1.8236Y1.8236
X1.8236Y1.5486
X1.8236Y1.4486
X1.9736Y0.4736
X1.9736Y0.3736
X1.9736Y0.2736
X1.9736Y0.1736
X2.0236Y1.9236
X2.0236Y1.8236
X2.0236Y1.5486
X2.0236Y1.4486
X2.2236Y0.3236
X2.3236Y0.3236
X2.4236Y0.3236
X2.5236Y0.3236
X2.5586Y2.8211
X2.6236Y0.3236
X2.6586Y2.8211
X2.7236Y0.3236
X2.7586Y2.8211
T8
X0.4496Y2.602
X0.4496Y0.5551
X2.4996Y2.6039
X2.4996Y0.5571
T9
X0.2736Y0.3236
X0.3638Y0.3236
X0.4539Y0.3236
X1.7986Y2.3486
X1.7986Y2.1715
X2.0545Y2.3486
X2.0545Y2.1715
T10
X0.5906Y2.8248
X0.5906Y0.128
X2.3622Y2.8248
X2.3622Y0.128
T11
X0.8976Y1.4776
T0
M30
