%TF.GenerationSoftware,KiCad,Pcbnew,6.0.11-2627ca5db0~126~ubuntu22.04.1*%
%TF.CreationDate,2023-08-15T16:53:06+02:00*%
%TF.ProjectId,HB-UNI-SEN-BATT_ATMega1284P_E07-868MS10_FRAM_FUEL4EP,48422d55-4e49-42d5-9345-4e2d42415454,1.4*%
%TF.SameCoordinates,Original*%
%TF.FileFunction,Legend,Bot*%
%TF.FilePolarity,Positive*%
%FSLAX46Y46*%
G04 Gerber Fmt 4.6, Leading zero omitted, Abs format (unit mm)*
G04 Created by KiCad (PCBNEW 6.0.11-2627ca5db0~126~ubuntu22.04.1) date 2023-08-15 16:53:06*
%MOMM*%
%LPD*%
G01*
G04 APERTURE LIST*
%ADD10C,0.200000*%
%ADD11C,0.150000*%
%ADD12C,0.120000*%
%ADD13R,1.000000X1.500000*%
%ADD14R,1.700000X1.700000*%
%ADD15O,1.700000X1.700000*%
%ADD16R,1.717500X1.800000*%
%ADD17O,1.717500X1.800000*%
%ADD18C,1.000000*%
%ADD19C,3.000000*%
%ADD20C,0.700000*%
%ADD21C,4.400000*%
%ADD22C,2.640000*%
%ADD23R,2.000000X2.000000*%
%ADD24C,2.000000*%
%ADD25R,1.350000X1.350000*%
%ADD26O,1.350000X1.350000*%
%ADD27R,1.000000X1.000000*%
%ADD28O,1.000000X1.000000*%
%ADD29C,5.000000*%
G04 APERTURE END LIST*
D10*
X9474000Y69310428D02*
X9416857Y69367571D01*
X9245428Y69481857D01*
X9131142Y69539000D01*
X8959714Y69596142D01*
X8674000Y69653285D01*
X8445428Y69653285D01*
X8159714Y69596142D01*
X7988285Y69539000D01*
X7874000Y69481857D01*
X7702571Y69367571D01*
X7645428Y69310428D01*
X8959714Y68339000D02*
X9016857Y68453285D01*
X9016857Y68681857D01*
X8959714Y68796142D01*
X8902571Y68853285D01*
X8788285Y68910428D01*
X8445428Y68910428D01*
X8331142Y68853285D01*
X8274000Y68796142D01*
X8216857Y68681857D01*
X8216857Y68453285D01*
X8274000Y68339000D01*
X9474000Y67939000D02*
X9416857Y67881857D01*
X9245428Y67767571D01*
X9131142Y67710428D01*
X8959714Y67653285D01*
X8674000Y67596142D01*
X8445428Y67596142D01*
X8159714Y67653285D01*
X7988285Y67710428D01*
X7874000Y67767571D01*
X7702571Y67881857D01*
X7645428Y67939000D01*
X8388285Y65710428D02*
X8388285Y66110428D01*
X9016857Y66110428D02*
X7816857Y66110428D01*
X7816857Y65539000D01*
X7816857Y65081857D02*
X8788285Y65081857D01*
X8902571Y65024714D01*
X8959714Y64967571D01*
X9016857Y64853285D01*
X9016857Y64624714D01*
X8959714Y64510428D01*
X8902571Y64453285D01*
X8788285Y64396142D01*
X7816857Y64396142D01*
X8388285Y63824714D02*
X8388285Y63424714D01*
X9016857Y63253285D02*
X9016857Y63824714D01*
X7816857Y63824714D01*
X7816857Y63253285D01*
X9016857Y62167571D02*
X9016857Y62739000D01*
X7816857Y62739000D01*
X8216857Y61253285D02*
X9016857Y61253285D01*
X7759714Y61539000D02*
X8616857Y61824714D01*
X8616857Y61081857D01*
X8388285Y60624714D02*
X8388285Y60224714D01*
X9016857Y60053285D02*
X9016857Y60624714D01*
X7816857Y60624714D01*
X7816857Y60053285D01*
X9016857Y59539000D02*
X7816857Y59539000D01*
X7816857Y59081857D01*
X7873999Y58967571D01*
X7931142Y58910428D01*
X8045428Y58853285D01*
X8216857Y58853285D01*
X8331142Y58910428D01*
X8388285Y58967571D01*
X8445428Y59081857D01*
X8445428Y59539000D01*
X4438380Y69764404D02*
X3438380Y69764404D01*
X3914571Y69764404D02*
X3914571Y69192976D01*
X4438380Y69192976D02*
X3438380Y69192976D01*
X3914571Y68383452D02*
X3962190Y68240595D01*
X4009809Y68192976D01*
X4105047Y68145357D01*
X4247904Y68145357D01*
X4343142Y68192976D01*
X4390761Y68240595D01*
X4438380Y68335833D01*
X4438380Y68716785D01*
X3438380Y68716785D01*
X3438380Y68383452D01*
X3486000Y68288214D01*
X3533619Y68240595D01*
X3628857Y68192976D01*
X3724095Y68192976D01*
X3819333Y68240595D01*
X3866952Y68288214D01*
X3914571Y68383452D01*
X3914571Y68716785D01*
X4057428Y67716785D02*
X4057428Y66954880D01*
X3438380Y66478690D02*
X4247904Y66478690D01*
X4343142Y66431071D01*
X4390761Y66383452D01*
X4438380Y66288214D01*
X4438380Y66097738D01*
X4390761Y66002500D01*
X4343142Y65954880D01*
X4247904Y65907261D01*
X3438380Y65907261D01*
X4438380Y65431071D02*
X3438380Y65431071D01*
X4438380Y64859642D01*
X3438380Y64859642D01*
X4438380Y64383452D02*
X3438380Y64383452D01*
X4057428Y63907261D02*
X4057428Y63145357D01*
X4390761Y62716785D02*
X4438380Y62573928D01*
X4438380Y62335833D01*
X4390761Y62240595D01*
X4343142Y62192976D01*
X4247904Y62145357D01*
X4152666Y62145357D01*
X4057428Y62192976D01*
X4009809Y62240595D01*
X3962190Y62335833D01*
X3914571Y62526309D01*
X3866952Y62621547D01*
X3819333Y62669166D01*
X3724095Y62716785D01*
X3628857Y62716785D01*
X3533619Y62669166D01*
X3485999Y62621547D01*
X3438380Y62526309D01*
X3438380Y62288214D01*
X3485999Y62145357D01*
X3914571Y61716785D02*
X3914571Y61383452D01*
X4438380Y61240595D02*
X4438380Y61716785D01*
X3438380Y61716785D01*
X3438380Y61240595D01*
X4438380Y60812023D02*
X3438380Y60812023D01*
X4438380Y60240595D01*
X3438380Y60240595D01*
X4390761Y59812023D02*
X4438380Y59669166D01*
X4438380Y59431071D01*
X4390761Y59335833D01*
X4343142Y59288214D01*
X4247904Y59240595D01*
X4152666Y59240595D01*
X4057428Y59288214D01*
X4009809Y59335833D01*
X3962190Y59431071D01*
X3914571Y59621547D01*
X3866952Y59716785D01*
X3819333Y59764404D01*
X3724095Y59812023D01*
X3628857Y59812023D01*
X3533619Y59764404D01*
X3485999Y59716785D01*
X3438380Y59621547D01*
X3438380Y59383452D01*
X3485999Y59240595D01*
X4057428Y58812023D02*
X4057428Y58050119D01*
X3914571Y57240595D02*
X3962190Y57097738D01*
X4009809Y57050119D01*
X4105047Y57002500D01*
X4247904Y57002500D01*
X4343142Y57050119D01*
X4390761Y57097738D01*
X4438380Y57192976D01*
X4438380Y57573928D01*
X3438380Y57573928D01*
X3438380Y57240595D01*
X3485999Y57145357D01*
X3533619Y57097738D01*
X3628857Y57050119D01*
X3724095Y57050119D01*
X3819333Y57097738D01*
X3866952Y57145357D01*
X3914571Y57240595D01*
X3914571Y57573928D01*
X4152666Y56621547D02*
X4152666Y56145357D01*
X4438380Y56716785D02*
X3438380Y56383452D01*
X4438380Y56050119D01*
X3438380Y55859642D02*
X3438380Y55288214D01*
X4438380Y55573928D02*
X3438380Y55573928D01*
X3438380Y55097738D02*
X3438380Y54526309D01*
X4438380Y54812023D02*
X3438380Y54812023D01*
X4533619Y54431071D02*
X4533619Y53669166D01*
X4152666Y53478690D02*
X4152666Y53002500D01*
X4438380Y53573928D02*
X3438380Y53240595D01*
X4438380Y52907261D01*
X3438380Y52716785D02*
X3438380Y52145357D01*
X4438380Y52431071D02*
X3438380Y52431071D01*
X4438380Y51812023D02*
X3438380Y51812023D01*
X4152666Y51478690D01*
X3438380Y51145357D01*
X4438380Y51145357D01*
X4390761Y50288214D02*
X4438380Y50383452D01*
X4438380Y50573928D01*
X4390761Y50669166D01*
X4295523Y50716785D01*
X3914571Y50716785D01*
X3819333Y50669166D01*
X3771714Y50573928D01*
X3771714Y50383452D01*
X3819333Y50288214D01*
X3914571Y50240595D01*
X4009809Y50240595D01*
X4105047Y50716785D01*
X3771714Y49383452D02*
X4581238Y49383452D01*
X4676476Y49431071D01*
X4724095Y49478690D01*
X4771714Y49573928D01*
X4771714Y49716785D01*
X4724095Y49812023D01*
X4390761Y49383452D02*
X4438380Y49478690D01*
X4438380Y49669166D01*
X4390761Y49764404D01*
X4343142Y49812023D01*
X4247904Y49859642D01*
X3962190Y49859642D01*
X3866952Y49812023D01*
X3819333Y49764404D01*
X3771714Y49669166D01*
X3771714Y49478690D01*
X3819333Y49383452D01*
X4438380Y48478690D02*
X3914571Y48478690D01*
X3819333Y48526309D01*
X3771714Y48621547D01*
X3771714Y48812023D01*
X3819333Y48907261D01*
X4390761Y48478690D02*
X4438380Y48573928D01*
X4438380Y48812023D01*
X4390761Y48907261D01*
X4295523Y48954880D01*
X4200285Y48954880D01*
X4105047Y48907261D01*
X4057428Y48812023D01*
X4057428Y48573928D01*
X4009809Y48478690D01*
X4438380Y47478690D02*
X4438380Y48050119D01*
X4438380Y47764404D02*
X3438380Y47764404D01*
X3581238Y47859642D01*
X3676476Y47954880D01*
X3724095Y48050119D01*
X3533619Y47097738D02*
X3485999Y47050119D01*
X3438380Y46954880D01*
X3438380Y46716785D01*
X3485999Y46621547D01*
X3533619Y46573928D01*
X3628857Y46526309D01*
X3724095Y46526309D01*
X3866952Y46573928D01*
X4438380Y47145357D01*
X4438380Y46526309D01*
X3866952Y45954880D02*
X3819333Y46050119D01*
X3771714Y46097738D01*
X3676476Y46145357D01*
X3628857Y46145357D01*
X3533619Y46097738D01*
X3485999Y46050119D01*
X3438380Y45954880D01*
X3438380Y45764404D01*
X3485999Y45669166D01*
X3533619Y45621547D01*
X3628857Y45573928D01*
X3676476Y45573928D01*
X3771714Y45621547D01*
X3819333Y45669166D01*
X3866952Y45764404D01*
X3866952Y45954880D01*
X3914571Y46050119D01*
X3962190Y46097738D01*
X4057428Y46145357D01*
X4247904Y46145357D01*
X4343142Y46097738D01*
X4390761Y46050119D01*
X4438380Y45954880D01*
X4438380Y45764404D01*
X4390761Y45669166D01*
X4343142Y45621547D01*
X4247904Y45573928D01*
X4057428Y45573928D01*
X3962190Y45621547D01*
X3914571Y45669166D01*
X3866952Y45764404D01*
X3771714Y44716785D02*
X4438380Y44716785D01*
X3390761Y44954880D02*
X4105047Y45192976D01*
X4105047Y44573928D01*
X4438380Y44192976D02*
X3438380Y44192976D01*
X3438380Y43812023D01*
X3485999Y43716785D01*
X3533619Y43669166D01*
X3628857Y43621547D01*
X3771714Y43621547D01*
X3866952Y43669166D01*
X3914571Y43716785D01*
X3962190Y43812023D01*
X3962190Y44192976D01*
X4533619Y43431071D02*
X4533619Y42669166D01*
X3914571Y42431071D02*
X3914571Y42097738D01*
X4438380Y41954880D02*
X4438380Y42431071D01*
X3438380Y42431071D01*
X3438380Y41954880D01*
X3438380Y41335833D02*
X3438380Y41240595D01*
X3485999Y41145357D01*
X3533619Y41097738D01*
X3628857Y41050119D01*
X3819333Y41002500D01*
X4057428Y41002500D01*
X4247904Y41050119D01*
X4343142Y41097738D01*
X4390761Y41145357D01*
X4438380Y41240595D01*
X4438380Y41335833D01*
X4390761Y41431071D01*
X4343142Y41478690D01*
X4247904Y41526309D01*
X4057428Y41573928D01*
X3819333Y41573928D01*
X3628857Y41526309D01*
X3533619Y41478690D01*
X3485999Y41431071D01*
X3438380Y41335833D01*
X3438380Y40669166D02*
X3438380Y40002500D01*
X4438380Y40431071D01*
X4057428Y39621547D02*
X4057428Y38859642D01*
X3866952Y38240595D02*
X3819333Y38335833D01*
X3771714Y38383452D01*
X3676476Y38431071D01*
X3628857Y38431071D01*
X3533619Y38383452D01*
X3485999Y38335833D01*
X3438380Y38240595D01*
X3438380Y38050119D01*
X3485999Y37954880D01*
X3533619Y37907261D01*
X3628857Y37859642D01*
X3676476Y37859642D01*
X3771714Y37907261D01*
X3819333Y37954880D01*
X3866952Y38050119D01*
X3866952Y38240595D01*
X3914571Y38335833D01*
X3962190Y38383452D01*
X4057428Y38431071D01*
X4247904Y38431071D01*
X4343142Y38383452D01*
X4390761Y38335833D01*
X4438380Y38240595D01*
X4438380Y38050119D01*
X4390761Y37954880D01*
X4343142Y37907261D01*
X4247904Y37859642D01*
X4057428Y37859642D01*
X3962190Y37907261D01*
X3914571Y37954880D01*
X3866952Y38050119D01*
X3438380Y37002500D02*
X3438380Y37192976D01*
X3485999Y37288214D01*
X3533619Y37335833D01*
X3676476Y37431071D01*
X3866952Y37478690D01*
X4247904Y37478690D01*
X4343142Y37431071D01*
X4390761Y37383452D01*
X4438380Y37288214D01*
X4438380Y37097738D01*
X4390761Y37002500D01*
X4343142Y36954880D01*
X4247904Y36907261D01*
X4009809Y36907261D01*
X3914571Y36954880D01*
X3866952Y37002500D01*
X3819333Y37097738D01*
X3819333Y37288214D01*
X3866952Y37383452D01*
X3914571Y37431071D01*
X4009809Y37478690D01*
X3866952Y36335833D02*
X3819333Y36431071D01*
X3771714Y36478690D01*
X3676476Y36526309D01*
X3628857Y36526309D01*
X3533619Y36478690D01*
X3485999Y36431071D01*
X3438380Y36335833D01*
X3438380Y36145357D01*
X3485999Y36050119D01*
X3533619Y36002500D01*
X3628857Y35954880D01*
X3676476Y35954880D01*
X3771714Y36002500D01*
X3819333Y36050119D01*
X3866952Y36145357D01*
X3866952Y36335833D01*
X3914571Y36431071D01*
X3962190Y36478690D01*
X4057428Y36526309D01*
X4247904Y36526309D01*
X4343142Y36478690D01*
X4390761Y36431071D01*
X4438380Y36335833D01*
X4438380Y36145357D01*
X4390761Y36050119D01*
X4343142Y36002500D01*
X4247904Y35954880D01*
X4057428Y35954880D01*
X3962190Y36002500D01*
X3914571Y36050119D01*
X3866952Y36145357D01*
X4438380Y35526309D02*
X3438380Y35526309D01*
X4152666Y35192976D01*
X3438380Y34859642D01*
X4438380Y34859642D01*
X4390761Y34431071D02*
X4438380Y34288214D01*
X4438380Y34050119D01*
X4390761Y33954880D01*
X4343142Y33907261D01*
X4247904Y33859642D01*
X4152666Y33859642D01*
X4057428Y33907261D01*
X4009809Y33954880D01*
X3962190Y34050119D01*
X3914571Y34240595D01*
X3866952Y34335833D01*
X3819333Y34383452D01*
X3724095Y34431071D01*
X3628857Y34431071D01*
X3533619Y34383452D01*
X3485999Y34335833D01*
X3438380Y34240595D01*
X3438380Y34002500D01*
X3485999Y33859642D01*
X4438380Y32907261D02*
X4438380Y33478690D01*
X4438380Y33192976D02*
X3438380Y33192976D01*
X3581238Y33288214D01*
X3676476Y33383452D01*
X3724095Y33478690D01*
X3438380Y32288214D02*
X3438380Y32192976D01*
X3485999Y32097738D01*
X3533619Y32050119D01*
X3628857Y32002500D01*
X3819333Y31954880D01*
X4057428Y31954880D01*
X4247904Y32002500D01*
X4343142Y32050119D01*
X4390761Y32097738D01*
X4438380Y32192976D01*
X4438380Y32288214D01*
X4390761Y32383452D01*
X4343142Y32431071D01*
X4247904Y32478690D01*
X4057428Y32526309D01*
X3819333Y32526309D01*
X3628857Y32478690D01*
X3533619Y32431071D01*
X3485999Y32383452D01*
X3438380Y32288214D01*
X4533619Y31764404D02*
X4533619Y31002500D01*
X3914571Y30431071D02*
X3914571Y30764404D01*
X4438380Y30764404D02*
X3438380Y30764404D01*
X3438380Y30288214D01*
X4438380Y29335833D02*
X3962190Y29669166D01*
X4438380Y29907261D02*
X3438380Y29907261D01*
X3438380Y29526309D01*
X3485999Y29431071D01*
X3533619Y29383452D01*
X3628857Y29335833D01*
X3771714Y29335833D01*
X3866952Y29383452D01*
X3914571Y29431071D01*
X3962190Y29526309D01*
X3962190Y29907261D01*
X4152666Y28954880D02*
X4152666Y28478690D01*
X4438380Y29050119D02*
X3438380Y28716785D01*
X4438380Y28383452D01*
X4438380Y28050119D02*
X3438380Y28050119D01*
X4152666Y27716785D01*
X3438380Y27383452D01*
X4438380Y27383452D01*
X4533619Y27145357D02*
X4533619Y26383452D01*
X3914571Y25812023D02*
X3914571Y26145357D01*
X4438380Y26145357D02*
X3438380Y26145357D01*
X3438380Y25669166D01*
X3438380Y25288214D02*
X4247904Y25288214D01*
X4343142Y25240595D01*
X4390761Y25192976D01*
X4438380Y25097738D01*
X4438380Y24907261D01*
X4390761Y24812023D01*
X4343142Y24764404D01*
X4247904Y24716785D01*
X3438380Y24716785D01*
X3914571Y24240595D02*
X3914571Y23907261D01*
X4438380Y23764404D02*
X4438380Y24240595D01*
X3438380Y24240595D01*
X3438380Y23764404D01*
X4438380Y22859642D02*
X4438380Y23335833D01*
X3438380Y23335833D01*
X3771714Y22097738D02*
X4438380Y22097738D01*
X3390761Y22335833D02*
X4105047Y22573928D01*
X4105047Y21954880D01*
X3914571Y21573928D02*
X3914571Y21240595D01*
X4438380Y21097738D02*
X4438380Y21573928D01*
X3438380Y21573928D01*
X3438380Y21097738D01*
X4438380Y20669166D02*
X3438380Y20669166D01*
X3438380Y20288214D01*
X3485999Y20192976D01*
X3533619Y20145357D01*
X3628857Y20097738D01*
X3771714Y20097738D01*
X3866952Y20145357D01*
X3914571Y20192976D01*
X3962190Y20288214D01*
X3962190Y20669166D01*
X5594357Y69697714D02*
X6794357Y69297714D01*
X5594357Y68897714D01*
X6737214Y68040571D02*
X6794357Y68154857D01*
X6794357Y68383428D01*
X6737214Y68497714D01*
X6622928Y68554857D01*
X6165785Y68554857D01*
X6051500Y68497714D01*
X5994357Y68383428D01*
X5994357Y68154857D01*
X6051500Y68040571D01*
X6165785Y67983428D01*
X6280071Y67983428D01*
X6394357Y68554857D01*
X6794357Y67469142D02*
X5994357Y67469142D01*
X6222928Y67469142D02*
X6108642Y67412000D01*
X6051500Y67354857D01*
X5994357Y67240571D01*
X5994357Y67126285D01*
X6737214Y66783428D02*
X6794357Y66669142D01*
X6794357Y66440571D01*
X6737214Y66326285D01*
X6622928Y66269142D01*
X6565785Y66269142D01*
X6451500Y66326285D01*
X6394357Y66440571D01*
X6394357Y66612000D01*
X6337214Y66726285D01*
X6222928Y66783428D01*
X6165785Y66783428D01*
X6051500Y66726285D01*
X5994357Y66612000D01*
X5994357Y66440571D01*
X6051500Y66326285D01*
X6794357Y65754857D02*
X5994357Y65754857D01*
X5594357Y65754857D02*
X5651500Y65812000D01*
X5708642Y65754857D01*
X5651500Y65697714D01*
X5594357Y65754857D01*
X5708642Y65754857D01*
X6794357Y65012000D02*
X6737214Y65126285D01*
X6680071Y65183428D01*
X6565785Y65240571D01*
X6222928Y65240571D01*
X6108642Y65183428D01*
X6051500Y65126285D01*
X5994357Y65012000D01*
X5994357Y64840571D01*
X6051500Y64726285D01*
X6108642Y64669142D01*
X6222928Y64612000D01*
X6565785Y64612000D01*
X6680071Y64669142D01*
X6737214Y64726285D01*
X6794357Y64840571D01*
X6794357Y65012000D01*
X5994357Y64097714D02*
X6794357Y64097714D01*
X6108642Y64097714D02*
X6051500Y64040571D01*
X5994357Y63926285D01*
X5994357Y63754857D01*
X6051500Y63640571D01*
X6165785Y63583428D01*
X6794357Y63583428D01*
X6794357Y61469142D02*
X6794357Y62154857D01*
X6794357Y61812000D02*
X5594357Y61812000D01*
X5765785Y61926285D01*
X5880071Y62040571D01*
X5937214Y62154857D01*
X6680071Y60954857D02*
X6737214Y60897714D01*
X6794357Y60954857D01*
X6737214Y61012000D01*
X6680071Y60954857D01*
X6794357Y60954857D01*
X5994357Y59869142D02*
X6794357Y59869142D01*
X5537214Y60154857D02*
X6394357Y60440571D01*
X6394357Y59697714D01*
X6337214Y58326285D02*
X6337214Y57412000D01*
X5594357Y55697714D02*
X5594357Y55583428D01*
X5651499Y55469142D01*
X5708642Y55412000D01*
X5822928Y55354857D01*
X6051499Y55297714D01*
X6337214Y55297714D01*
X6565785Y55354857D01*
X6680071Y55412000D01*
X6737214Y55469142D01*
X6794357Y55583428D01*
X6794357Y55697714D01*
X6737214Y55812000D01*
X6680071Y55869142D01*
X6565785Y55926285D01*
X6337214Y55983428D01*
X6051499Y55983428D01*
X5822928Y55926285D01*
X5708642Y55869142D01*
X5651499Y55812000D01*
X5594357Y55697714D01*
X5594357Y54897714D02*
X5594357Y54097714D01*
X6794357Y54612000D01*
X5537214Y52783428D02*
X7080071Y53812000D01*
X5708642Y52440571D02*
X5651499Y52383428D01*
X5594357Y52269142D01*
X5594357Y51983428D01*
X5651499Y51869142D01*
X5708642Y51812000D01*
X5822928Y51754857D01*
X5937214Y51754857D01*
X6108642Y51812000D01*
X6794357Y52497714D01*
X6794357Y51754857D01*
X5594357Y51012000D02*
X5594357Y50897714D01*
X5651499Y50783428D01*
X5708642Y50726285D01*
X5822928Y50669142D01*
X6051499Y50612000D01*
X6337214Y50612000D01*
X6565785Y50669142D01*
X6680071Y50726285D01*
X6737214Y50783428D01*
X6794357Y50897714D01*
X6794357Y51012000D01*
X6737214Y51126285D01*
X6680071Y51183428D01*
X6565785Y51240571D01*
X6337214Y51297714D01*
X6051499Y51297714D01*
X5822928Y51240571D01*
X5708642Y51183428D01*
X5651499Y51126285D01*
X5594357Y51012000D01*
X5708642Y50154857D02*
X5651499Y50097714D01*
X5594357Y49983428D01*
X5594357Y49697714D01*
X5651499Y49583428D01*
X5708642Y49526285D01*
X5822928Y49469142D01*
X5937214Y49469142D01*
X6108642Y49526285D01*
X6794357Y50212000D01*
X6794357Y49469142D01*
X5594357Y49069142D02*
X5594357Y48326285D01*
X6051499Y48726285D01*
X6051499Y48554857D01*
X6108642Y48440571D01*
X6165785Y48383428D01*
X6280071Y48326285D01*
X6565785Y48326285D01*
X6680071Y48383428D01*
X6737214Y48440571D01*
X6794357Y48554857D01*
X6794357Y48897714D01*
X6737214Y49012000D01*
X6680071Y49069142D01*
X7251499Y46554857D02*
X7194357Y46612000D01*
X7022928Y46726285D01*
X6908642Y46783428D01*
X6737214Y46840571D01*
X6451499Y46897714D01*
X6222928Y46897714D01*
X5937214Y46840571D01*
X5765785Y46783428D01*
X5651499Y46726285D01*
X5480071Y46612000D01*
X5422928Y46554857D01*
X6794357Y46097714D02*
X5594357Y46097714D01*
X6794357Y45412000D02*
X6108642Y45926285D01*
X5594357Y45412000D02*
X6280071Y46097714D01*
X6794357Y44897714D02*
X5994357Y44897714D01*
X5594357Y44897714D02*
X5651499Y44954857D01*
X5708642Y44897714D01*
X5651499Y44840571D01*
X5594357Y44897714D01*
X5708642Y44897714D01*
X6680071Y43640571D02*
X6737214Y43697714D01*
X6794357Y43869142D01*
X6794357Y43983428D01*
X6737214Y44154857D01*
X6622928Y44269142D01*
X6508642Y44326285D01*
X6280071Y44383428D01*
X6108642Y44383428D01*
X5880071Y44326285D01*
X5765785Y44269142D01*
X5651499Y44154857D01*
X5594357Y43983428D01*
X5594357Y43869142D01*
X5651499Y43697714D01*
X5708642Y43640571D01*
X6451499Y43183428D02*
X6451499Y42612000D01*
X6794357Y43297714D02*
X5594357Y42897714D01*
X6794357Y42497714D01*
X6794357Y42097714D02*
X5594357Y42097714D01*
X5594357Y41812000D01*
X5651499Y41640571D01*
X5765785Y41526285D01*
X5880071Y41469142D01*
X6108642Y41412000D01*
X6280071Y41412000D01*
X6508642Y41469142D01*
X6622928Y41526285D01*
X6737214Y41640571D01*
X6794357Y41812000D01*
X6794357Y42097714D01*
X5594357Y39469142D02*
X5594357Y39697714D01*
X5651499Y39812000D01*
X5708642Y39869142D01*
X5880071Y39983428D01*
X6108642Y40040571D01*
X6565785Y40040571D01*
X6680071Y39983428D01*
X6737214Y39926285D01*
X6794357Y39812000D01*
X6794357Y39583428D01*
X6737214Y39469142D01*
X6680071Y39412000D01*
X6565785Y39354857D01*
X6280071Y39354857D01*
X6165785Y39412000D01*
X6108642Y39469142D01*
X6051499Y39583428D01*
X6051499Y39812000D01*
X6108642Y39926285D01*
X6165785Y39983428D01*
X6280071Y40040571D01*
X7251499Y38954857D02*
X7194357Y38897714D01*
X7022928Y38783428D01*
X6908642Y38726285D01*
X6737214Y38669142D01*
X6451499Y38612000D01*
X6222928Y38612000D01*
X5937214Y38669142D01*
X5765785Y38726285D01*
X5651499Y38783428D01*
X5480071Y38897714D01*
X5422928Y38954857D01*
D11*
%TO.C,JP1*%
X9683333Y2522619D02*
X9683333Y1808333D01*
X9730952Y1665476D01*
X9826190Y1570238D01*
X9969047Y1522619D01*
X10064285Y1522619D01*
X9207142Y1522619D02*
X9207142Y2522619D01*
X8826190Y2522619D01*
X8730952Y2475000D01*
X8683333Y2427380D01*
X8635714Y2332142D01*
X8635714Y2189285D01*
X8683333Y2094047D01*
X8730952Y2046428D01*
X8826190Y1998809D01*
X9207142Y1998809D01*
X7683333Y1522619D02*
X8254761Y1522619D01*
X7969047Y1522619D02*
X7969047Y2522619D01*
X8064285Y2379761D01*
X8159523Y2284523D01*
X8254761Y2236904D01*
D12*
X7450000Y2775000D02*
X7450000Y4775000D01*
X10250000Y4775000D02*
X10250000Y2775000D01*
X7450000Y4775000D02*
X10250000Y4775000D01*
X10250000Y2775000D02*
X7450000Y2775000D01*
%TD*%
D13*
%TO.C,JP1*%
X9500000Y3775000D03*
X8200000Y3775000D03*
%TD*%
%LPC*%
D14*
%TO.C,J3*%
X44542000Y44097500D03*
D15*
X47082000Y44097500D03*
%TD*%
D14*
%TO.C,J4*%
X44542000Y47780500D03*
D15*
X47082000Y47780500D03*
%TD*%
D14*
%TO.C,J5*%
X56480000Y8220000D03*
D15*
X59020000Y8220000D03*
X61560000Y8220000D03*
X64100000Y8220000D03*
X66640000Y8220000D03*
X69180000Y8220000D03*
%TD*%
D16*
%TO.C,Q1*%
X6950000Y8220000D03*
D17*
X9240000Y8220000D03*
X11530000Y8220000D03*
%TD*%
D14*
%TO.C,J10*%
X64989000Y71656500D03*
D15*
X67529000Y71656500D03*
X70069000Y71656500D03*
%TD*%
D13*
%TO.C,JP1*%
X9500000Y3775000D03*
X8200000Y3775000D03*
%TD*%
D18*
%TO.C,Module1*%
X22800000Y35250000D03*
X39260000Y27800000D03*
D19*
X22800000Y37530000D03*
D18*
X39260000Y29070000D03*
X39260000Y30340000D03*
X39260000Y31610000D03*
X39260000Y32880000D03*
X39260000Y34150000D03*
X39260000Y35420000D03*
X39260000Y36690000D03*
%TD*%
D14*
%TO.C,J8*%
X39970000Y1997000D03*
D15*
X39970000Y4537000D03*
X39970000Y7077000D03*
X39970000Y9617000D03*
%TD*%
D20*
%TO.C,H2*%
X58727200Y70477200D03*
X60000000Y69950000D03*
X61272800Y70477200D03*
X61800000Y71750000D03*
X60000000Y73550000D03*
D21*
X60000000Y71750000D03*
D20*
X58200000Y71750000D03*
X58727200Y73022800D03*
X61272800Y73022800D03*
%TD*%
%TO.C,H4*%
X58200000Y3250000D03*
X60000000Y1450000D03*
X61272800Y1977200D03*
X58727200Y1977200D03*
X58727200Y4522800D03*
X60000000Y5050000D03*
X61272800Y4522800D03*
X61800000Y3250000D03*
D21*
X60000000Y3250000D03*
%TD*%
D20*
%TO.C,H1*%
X16272800Y70477200D03*
X13727200Y70477200D03*
X15000000Y73550000D03*
X13200000Y71750000D03*
X16800000Y71750000D03*
D21*
X15000000Y71750000D03*
D20*
X15000000Y69950000D03*
X16272800Y73022800D03*
X13727200Y73022800D03*
%TD*%
%TO.C,H3*%
X13727200Y4522800D03*
X13200000Y3250000D03*
X15000000Y1450000D03*
X15000000Y5050000D03*
X13727200Y1977200D03*
X16800000Y3250000D03*
X16272800Y4522800D03*
D21*
X15000000Y3250000D03*
D20*
X16272800Y1977200D03*
%TD*%
D22*
%TO.C,BT2*%
X5425000Y16650000D03*
X17415000Y63130000D03*
D23*
X11420000Y13900000D03*
D24*
X11420000Y65890000D03*
%TD*%
D14*
%TO.C,J12*%
X28070100Y72139100D03*
D15*
X30610100Y72139100D03*
X33150100Y72139100D03*
X35690100Y72139100D03*
X38230100Y72139100D03*
X40770100Y72139100D03*
%TD*%
D22*
%TO.C,BT1*%
X57495000Y16910000D03*
X69485000Y63390000D03*
D23*
X63490000Y66140000D03*
D24*
X63490000Y14150000D03*
%TD*%
D25*
%TO.C,J11*%
X28667000Y21250000D03*
D26*
X30667000Y21250000D03*
X32667000Y21250000D03*
X34667000Y21250000D03*
X36667000Y21250000D03*
X38667000Y21250000D03*
X40667000Y21250000D03*
X42667000Y21250000D03*
%TD*%
D14*
%TO.C,J1*%
X41400000Y64989000D03*
D15*
X41400000Y67529000D03*
%TD*%
D27*
%TO.C,J6*%
X24730000Y2000000D03*
D28*
X24730000Y3270000D03*
X24730000Y4540000D03*
X24730000Y5810000D03*
%TD*%
D14*
%TO.C,J2*%
X41400000Y58385000D03*
D15*
X41400000Y60925000D03*
%TD*%
D14*
%TO.C,J9*%
X50130000Y2000000D03*
D15*
X50130000Y4540000D03*
X50130000Y7080000D03*
X50130000Y9620000D03*
%TD*%
D29*
%TO.C,H5*%
X23510800Y62800000D03*
%TD*%
%TO.C,H6*%
X23510800Y19800000D03*
%TD*%
%TO.C,H7*%
X51510800Y62800000D03*
%TD*%
%TO.C,H8*%
X51510800Y19800000D03*
%TD*%
D27*
%TO.C,J7*%
X34890000Y1997000D03*
D28*
X34890000Y3267000D03*
X34890000Y4537000D03*
X34890000Y5807000D03*
%TD*%
D14*
%TO.C,J13*%
X45177000Y4029000D03*
D15*
X45177000Y6569000D03*
X45177000Y9109000D03*
X45177000Y11649000D03*
X45177000Y14189000D03*
%TD*%
M02*
