M48
; DRILL file {KiCad 6.0.11-2627ca5db0~126~ubuntu22.04.1} date Di 15 Aug 2023 11:16:23 CEST
; FORMAT={-:-/ absolute / inch / decimal}
; #@! TF.CreationDate,2023-08-15T11:16:23+02:00
; #@! TF.GenerationSoftware,Kicad,Pcbnew,6.0.11-2627ca5db0~126~ubuntu22.04.1
; #@! TF.FileFunction,Plated,1,2,PTH
FMAT,2
INCH
; #@! TA.AperFunction,Plated,PTH,ViaDrill
T1C0.0157
; #@! TA.AperFunction,Plated,PTH,ComponentDrill
T2C0.0157
; #@! TA.AperFunction,Plated,PTH,ComponentDrill
T3C0.0256
; #@! TA.AperFunction,Plated,PTH,ComponentDrill
T4C0.0315
; #@! TA.AperFunction,Plated,PTH,ComponentDrill
T5C0.0394
; #@! TA.AperFunction,Plated,PTH,ComponentDrill
T6C0.0402
; #@! TA.AperFunction,Plated,PTH,ComponentDrill
T7C0.0433
; #@! TA.AperFunction,Plated,PTH,ComponentDrill
T8C0.0866
; #@! TA.AperFunction,Plated,PTH,ComponentDrill
T9C0.1063
; #@! TA.AperFunction,Plated,PTH,ComponentDrill
T10C0.1220
%
G90
G05
T1
X0.2036Y-0.0941
X0.3976Y-2.2851
X0.6071Y-0.3157
X0.7402Y-0.3157
X0.8445Y-2.7283
X0.8452Y-2.8125
X0.8586Y-0.0641
X0.9889Y-1.2144
X1.0236Y-2.6441
X1.0747Y-2.6441
X1.0776Y-2.7751
X1.1059Y-1.2144
X1.1174Y-1.0206
X1.1291Y-0.9171
X1.1836Y-0.9491
X1.1843Y-0.8034
X1.2036Y-1.0366
X1.2116Y-2.7311
X1.2386Y-0.7734
X1.2386Y-1.0097
X1.2461Y-0.4141
X1.2461Y-0.4766
X1.2762Y-0.5992
X1.2922Y-0.7698
X1.3021Y-1.3391
X1.31Y-0.8856
X1.3261Y-0.8491
X1.3361Y-1.3766
X1.3596Y-0.2411
X1.3636Y-0.8241
X1.3686Y-1.3391
X1.3916Y-0.8991
X1.4161Y-1.3391
X1.4161Y-1.3791
X1.4211Y-0.8241
X1.4566Y-1.3391
X1.4596Y-0.2411
X1.4661Y-0.8491
X1.4986Y-0.3691
X1.5036Y-1.2724
X1.5036Y-1.3416
X1.5536Y-1.1541
X1.5786Y-1.1841
X1.5811Y-1.0341
X1.5835Y-0.7831
X1.5836Y-1.2391
X1.5861Y-0.8666
X1.6211Y-0.8866
X1.6636Y-1.2391
X1.6669Y-1.9539
X1.6711Y-1.0341
X1.6736Y-1.1866
X1.6886Y-0.9491
X1.6957Y-1.7122
X1.6957Y-1.9276
X1.6986Y-0.4366
X1.6986Y-0.5091
X1.6986Y-1.1567
X1.7361Y-1.9041
X1.7611Y-0.9491
X1.7886Y-1.3141
X1.8611Y-1.7266
X1.8936Y-1.9991
X1.9011Y-2.0541
X1.9661Y-1.8056
X1.9686Y-1.2891
X1.9686Y-1.6691
X2.0136Y-0.9241
X2.0186Y-2.0291
X2.0236Y-1.4191
X2.0386Y-1.3841
X2.0425Y-0.064
X2.0511Y-1.8066
X2.0886Y-1.4291
X2.0936Y-1.3841
X2.1636Y-0.6741
X2.1636Y-0.7291
X2.1636Y-0.7791
X2.1686Y-0.9591
X2.1686Y-1.0241
X2.1736Y-0.8991
X2.1746Y-0.2571
X2.1986Y-2.0291
X2.2286Y-1.9991
X2.2776Y-0.2571
X2.6291Y-0.3811
T2
X0.5197Y-0.128
X0.5197Y-2.8248
X0.5404Y-0.0778
X0.5404Y-0.1781
X0.5404Y-2.7747
X0.5404Y-2.8749
X0.5906Y-0.0571
X0.5906Y-0.1988
X0.5906Y-2.7539
X0.5906Y-2.8957
X0.6407Y-0.0778
X0.6407Y-0.1781
X0.6407Y-2.7747
X0.6407Y-2.8749
X0.6614Y-0.128
X0.6614Y-2.8248
X2.2913Y-0.128
X2.2913Y-2.8248
X2.3121Y-0.0778
X2.3121Y-0.1781
X2.3121Y-2.7747
X2.3121Y-2.8749
X2.3622Y-0.0571
X2.3622Y-0.1988
X2.3622Y-2.7539
X2.3622Y-2.8957
X2.4123Y-0.0778
X2.4123Y-0.1781
X2.4123Y-2.7747
X2.4123Y-2.8749
X2.4331Y-0.128
X2.4331Y-2.8248
T3
X0.8976Y-1.565
X0.9736Y-2.724
X0.9736Y-2.774
X0.9736Y-2.824
X0.9736Y-2.874
X1.3736Y-2.7241
X1.3736Y-2.7741
X1.3736Y-2.8241
X1.3736Y-2.8741
X1.5457Y-1.5083
X1.5457Y-1.5583
X1.5457Y-1.6083
X1.5457Y-1.6583
X1.5457Y-1.7083
X1.5457Y-1.7583
X1.5457Y-1.8083
X1.5457Y-1.8583
T4
X1.1286Y-2.1161
X1.2074Y-2.1161
X1.2861Y-2.1161
X1.3648Y-2.1161
X1.4436Y-2.1161
X1.5223Y-2.1161
X1.6011Y-2.1161
X1.6798Y-2.1161
T5
X1.1051Y-0.1126
X1.2051Y-0.1126
X1.3051Y-0.1126
X1.4051Y-0.1126
X1.5051Y-0.1126
X1.5736Y-2.5741
X1.5736Y-2.6741
X1.5736Y-2.7741
X1.5736Y-2.8741
X1.6051Y-0.1126
X1.6299Y-0.2941
X1.6299Y-0.3941
X1.6299Y-0.5541
X1.6299Y-0.6541
X1.7536Y-1.0716
X1.7536Y-1.2166
X1.7786Y-2.3941
X1.7786Y-2.4941
X1.7786Y-2.5941
X1.7786Y-2.6941
X1.7786Y-2.7941
X1.8536Y-1.0716
X1.8536Y-1.2166
X1.9736Y-2.574
X1.9736Y-2.674
X1.9736Y-2.774
X1.9736Y-2.874
X2.2236Y-2.6291
X2.3236Y-2.6291
X2.4236Y-2.6291
X2.5236Y-2.6291
X2.5586Y-0.1316
X2.6236Y-2.6291
X2.6586Y-0.1316
X2.7236Y-2.6291
X2.7586Y-0.1316
T6
X0.4496Y-0.3587
X0.4496Y-2.4055
X2.4996Y-0.3488
X2.4996Y-2.3957
T7
X0.2736Y-2.6291
X0.3638Y-2.6291
X0.4539Y-2.6291
T8
X0.5906Y-0.128
X0.5906Y-2.8248
X2.3622Y-0.128
X2.3622Y-2.8248
T9
X0.8976Y-1.4752
T10
X0.9256Y-0.4803
X0.9256Y-2.1732
X2.028Y-0.4803
X2.028Y-2.1732
T0
M30
