%TF.GenerationSoftware,KiCad,Pcbnew,6.0.11-2627ca5db0~126~ubuntu22.04.1*%
%TF.CreationDate,2023-07-25T17:39:43+02:00*%
%TF.ProjectId,HB-UNI-SEN-BATT_ATMega1284P_E07-868MS10_FRAM_FUEL4EP,48422d55-4e49-42d5-9345-4e2d42415454,1.3*%
%TF.SameCoordinates,Original*%
%TF.FileFunction,Copper,L1,Top*%
%TF.FilePolarity,Positive*%
%FSLAX46Y46*%
G04 Gerber Fmt 4.6, Leading zero omitted, Abs format (unit mm)*
G04 Created by KiCad (PCBNEW 6.0.11-2627ca5db0~126~ubuntu22.04.1) date 2023-07-25 17:39:43*
%MOMM*%
%LPD*%
G01*
G04 APERTURE LIST*
G04 Aperture macros list*
%AMRoundRect*
0 Rectangle with rounded corners*
0 $1 Rounding radius*
0 $2 $3 $4 $5 $6 $7 $8 $9 X,Y pos of 4 corners*
0 Add a 4 corners polygon primitive as box body*
4,1,4,$2,$3,$4,$5,$6,$7,$8,$9,$2,$3,0*
0 Add four circle primitives for the rounded corners*
1,1,$1+$1,$2,$3*
1,1,$1+$1,$4,$5*
1,1,$1+$1,$6,$7*
1,1,$1+$1,$8,$9*
0 Add four rect primitives between the rounded corners*
20,1,$1+$1,$2,$3,$4,$5,0*
20,1,$1+$1,$4,$5,$6,$7,0*
20,1,$1+$1,$6,$7,$8,$9,0*
20,1,$1+$1,$8,$9,$2,$3,0*%
G04 Aperture macros list end*
%TA.AperFunction,SMDPad,CuDef*%
%ADD10RoundRect,0.250000X-0.325000X-0.450000X0.325000X-0.450000X0.325000X0.450000X-0.325000X0.450000X0*%
%TD*%
%TA.AperFunction,ComponentPad*%
%ADD11R,1.700000X1.700000*%
%TD*%
%TA.AperFunction,ComponentPad*%
%ADD12O,1.700000X1.700000*%
%TD*%
%TA.AperFunction,SMDPad,CuDef*%
%ADD13RoundRect,0.250000X0.412500X0.650000X-0.412500X0.650000X-0.412500X-0.650000X0.412500X-0.650000X0*%
%TD*%
%TA.AperFunction,SMDPad,CuDef*%
%ADD14RoundRect,0.250000X-0.450000X0.350000X-0.450000X-0.350000X0.450000X-0.350000X0.450000X0.350000X0*%
%TD*%
%TA.AperFunction,SMDPad,CuDef*%
%ADD15RoundRect,0.250000X-0.350000X-0.450000X0.350000X-0.450000X0.350000X0.450000X-0.350000X0.450000X0*%
%TD*%
%TA.AperFunction,SMDPad,CuDef*%
%ADD16RoundRect,0.250000X0.350000X0.450000X-0.350000X0.450000X-0.350000X-0.450000X0.350000X-0.450000X0*%
%TD*%
%TA.AperFunction,ComponentPad*%
%ADD17R,1.717500X1.800000*%
%TD*%
%TA.AperFunction,ComponentPad*%
%ADD18O,1.717500X1.800000*%
%TD*%
%TA.AperFunction,SMDPad,CuDef*%
%ADD19R,2.170000X1.000000*%
%TD*%
%TA.AperFunction,ComponentPad*%
%ADD20C,1.000000*%
%TD*%
%TA.AperFunction,ComponentPad*%
%ADD21C,3.000000*%
%TD*%
%TA.AperFunction,SMDPad,CuDef*%
%ADD22R,1.500000X1.000000*%
%TD*%
%TA.AperFunction,ComponentPad*%
%ADD23C,0.700000*%
%TD*%
%TA.AperFunction,ComponentPad*%
%ADD24C,4.400000*%
%TD*%
%TA.AperFunction,ComponentPad*%
%ADD25R,2.000000X2.000000*%
%TD*%
%TA.AperFunction,ComponentPad*%
%ADD26C,2.000000*%
%TD*%
%TA.AperFunction,SMDPad,CuDef*%
%ADD27RoundRect,0.250000X0.250000X0.475000X-0.250000X0.475000X-0.250000X-0.475000X0.250000X-0.475000X0*%
%TD*%
%TA.AperFunction,SMDPad,CuDef*%
%ADD28RoundRect,0.250000X-0.250000X-0.475000X0.250000X-0.475000X0.250000X0.475000X-0.250000X0.475000X0*%
%TD*%
%TA.AperFunction,SMDPad,CuDef*%
%ADD29R,3.500000X2.400000*%
%TD*%
%TA.AperFunction,SMDPad,CuDef*%
%ADD30RoundRect,0.250000X0.650000X-0.412500X0.650000X0.412500X-0.650000X0.412500X-0.650000X-0.412500X0*%
%TD*%
%TA.AperFunction,SMDPad,CuDef*%
%ADD31R,1.000000X0.750000*%
%TD*%
%TA.AperFunction,ComponentPad*%
%ADD32R,1.350000X1.350000*%
%TD*%
%TA.AperFunction,ComponentPad*%
%ADD33O,1.350000X1.350000*%
%TD*%
%TA.AperFunction,SMDPad,CuDef*%
%ADD34R,3.000000X0.900000*%
%TD*%
%TA.AperFunction,SMDPad,CuDef*%
%ADD35R,0.900000X0.400000*%
%TD*%
%TA.AperFunction,SMDPad,CuDef*%
%ADD36RoundRect,0.250000X0.450000X-0.350000X0.450000X0.350000X-0.450000X0.350000X-0.450000X-0.350000X0*%
%TD*%
%TA.AperFunction,ComponentPad*%
%ADD37R,1.000000X1.000000*%
%TD*%
%TA.AperFunction,ComponentPad*%
%ADD38O,1.000000X1.000000*%
%TD*%
%TA.AperFunction,SMDPad,CuDef*%
%ADD39R,0.550000X1.500000*%
%TD*%
%TA.AperFunction,SMDPad,CuDef*%
%ADD40R,1.500000X0.550000*%
%TD*%
%TA.AperFunction,SMDPad,CuDef*%
%ADD41RoundRect,0.250000X0.475000X-0.250000X0.475000X0.250000X-0.475000X0.250000X-0.475000X-0.250000X0*%
%TD*%
%TA.AperFunction,ComponentPad*%
%ADD42C,5.000000*%
%TD*%
%TA.AperFunction,SMDPad,CuDef*%
%ADD43RoundRect,0.150000X-0.150000X0.650000X-0.150000X-0.650000X0.150000X-0.650000X0.150000X0.650000X0*%
%TD*%
%TA.AperFunction,ViaPad*%
%ADD44C,0.600000*%
%TD*%
%TA.AperFunction,ViaPad*%
%ADD45C,1.000000*%
%TD*%
%TA.AperFunction,Conductor*%
%ADD46C,0.500000*%
%TD*%
%TA.AperFunction,Conductor*%
%ADD47C,0.200000*%
%TD*%
%TA.AperFunction,Conductor*%
%ADD48C,1.000000*%
%TD*%
%TA.AperFunction,Conductor*%
%ADD49C,0.400000*%
%TD*%
%TA.AperFunction,Conductor*%
%ADD50C,0.370000*%
%TD*%
G04 APERTURE END LIST*
%TO.C,JP2*%
G36*
X46937500Y-9181500D02*
G01*
X46337500Y-9181500D01*
X46337500Y-8681500D01*
X46937500Y-8681500D01*
X46937500Y-9181500D01*
G37*
%TD*%
D10*
%TO.P,D1,1,K*%
%TO.N,GND*%
X8138500Y-2200500D03*
%TO.P,D1,2,A*%
%TO.N,Net-(D1-Pad2)*%
X10188500Y-2200500D03*
%TD*%
D11*
%TO.P,J3,1,Pin_1*%
%TO.N,/A1*%
X44542000Y-30902500D03*
D12*
%TO.P,J3,2,Pin_2*%
%TO.N,GND*%
X47082000Y-30902500D03*
%TD*%
D11*
%TO.P,J4,1,Pin_1*%
%TO.N,/A3*%
X44542000Y-27219500D03*
D12*
%TO.P,J4,2,Pin_2*%
%TO.N,GND*%
X47082000Y-27219500D03*
%TD*%
D11*
%TO.P,J5,1,Pin_1*%
%TO.N,VCC*%
X56480000Y-66780000D03*
D12*
%TO.P,J5,2,Pin_2*%
%TO.N,/minusBAT*%
X59020000Y-66780000D03*
%TO.P,J5,3,Pin_3*%
%TO.N,/MOSI*%
X61560000Y-66780000D03*
%TO.P,J5,4,Pin_4*%
%TO.N,/SCK*%
X64100000Y-66780000D03*
%TO.P,J5,5,Pin_5*%
%TO.N,/MISO*%
X66640000Y-66780000D03*
%TO.P,J5,6,Pin_6*%
%TO.N,/RSETB*%
X69180000Y-66780000D03*
%TD*%
D13*
%TO.P,C1,1*%
%TO.N,VCC*%
X45850500Y-38586000D03*
%TO.P,C1,2*%
%TO.N,GND*%
X42725500Y-38586000D03*
%TD*%
D14*
%TO.P,R4,1*%
%TO.N,VCC*%
X22190000Y-24251000D03*
%TO.P,R4,2*%
%TO.N,/SCL*%
X22190000Y-26251000D03*
%TD*%
%TO.P,R5,1*%
%TO.N,VCC*%
X24984000Y-24235000D03*
%TO.P,R5,2*%
%TO.N,/SDA*%
X24984000Y-26235000D03*
%TD*%
D15*
%TO.P,R1,1*%
%TO.N,Net-(R1-Pad1)*%
X8172500Y-4296000D03*
%TO.P,R1,2*%
%TO.N,Net-(D1-Pad2)*%
X10172500Y-4296000D03*
%TD*%
D16*
%TO.P,R3,1*%
%TO.N,VCC*%
X17941600Y-66818100D03*
%TO.P,R3,2*%
%TO.N,Net-(Q1-Pad1)*%
X15941600Y-66818100D03*
%TD*%
D17*
%TO.P,Q1,1,G*%
%TO.N,Net-(Q1-Pad1)*%
X6950000Y-66780000D03*
D18*
%TO.P,Q1,2,D*%
%TO.N,/minusBAT*%
X9240000Y-66780000D03*
%TO.P,Q1,3,S*%
%TO.N,GND*%
X11530000Y-66780000D03*
%TD*%
D11*
%TO.P,J10,1,Pin_1*%
%TO.N,VCC*%
X64989000Y-3343500D03*
D12*
%TO.P,J10,2,Pin_2*%
%TO.N,/plusBAT*%
X67529000Y-3343500D03*
%TO.P,J10,3,Pin_3*%
%TO.N,/minusBAT*%
X70069000Y-3343500D03*
%TD*%
D19*
%TO.P,Module1,1A,GND*%
%TO.N,GND*%
X21715000Y-39750000D03*
D20*
X22800000Y-39750000D03*
%TO.P,Module1,1C,VCC*%
%TO.N,VCC*%
X39260000Y-47200000D03*
D19*
X40345000Y-47200000D03*
D21*
%TO.P,Module1,2A,ANT*%
%TO.N,unconnected-(Module1-Pad2A)*%
X22800000Y-37470000D03*
D19*
%TO.P,Module1,2C,GDO0*%
%TO.N,/D2*%
X40345000Y-45930000D03*
D20*
X39260000Y-45930000D03*
D19*
%TO.P,Module1,3C,~{CSN}*%
%TO.N,/SS*%
X40345000Y-44660000D03*
D20*
X39260000Y-44660000D03*
D19*
%TO.P,Module1,4C,SCK*%
%TO.N,/SCK*%
X40345000Y-43390000D03*
D20*
X39260000Y-43390000D03*
%TO.P,Module1,5C,MOSI*%
%TO.N,/MOSI*%
X39260000Y-42120000D03*
D19*
X40345000Y-42120000D03*
D20*
%TO.P,Module1,6C,MISO/GDO1*%
%TO.N,/MISO*%
X39260000Y-40850000D03*
D19*
X40345000Y-40850000D03*
%TO.P,Module1,7C,GDO2*%
%TO.N,unconnected-(Module1-Pad7C)*%
X40345000Y-39580000D03*
D20*
X39260000Y-39580000D03*
%TO.P,Module1,8C,GND*%
%TO.N,GND*%
X39260000Y-38310000D03*
D19*
X40345000Y-38310000D03*
%TD*%
D22*
%TO.P,JP2,1,A*%
%TO.N,/plusBAT*%
X46637500Y-8281500D03*
%TO.P,JP2,2,B*%
%TO.N,VCC*%
X46637500Y-9581500D03*
%TD*%
D11*
%TO.P,J8,1,Pin_1*%
%TO.N,VCC*%
X39970000Y-73003000D03*
D12*
%TO.P,J8,2,Pin_2*%
%TO.N,/SDA*%
X39970000Y-70463000D03*
%TO.P,J8,3,Pin_3*%
%TO.N,GND*%
X39970000Y-67923000D03*
%TO.P,J8,4,Pin_4*%
%TO.N,/SCL*%
X39970000Y-65383000D03*
%TD*%
D23*
%TO.P,H2,1*%
%TO.N,N/C*%
X58727200Y-4522800D03*
X60000000Y-5050000D03*
X61272800Y-4522800D03*
X61800000Y-3250000D03*
X60000000Y-1450000D03*
D24*
X60000000Y-3250000D03*
D23*
X58200000Y-3250000D03*
X58727200Y-1977200D03*
X61272800Y-1977200D03*
%TD*%
%TO.P,H4,1*%
%TO.N,N/C*%
X58200000Y-71750000D03*
X60000000Y-73550000D03*
X61272800Y-73022800D03*
X58727200Y-73022800D03*
X58727200Y-70477200D03*
X60000000Y-69950000D03*
X61272800Y-70477200D03*
X61800000Y-71750000D03*
D24*
X60000000Y-71750000D03*
%TD*%
D23*
%TO.P,H1,1*%
%TO.N,N/C*%
X16272800Y-4522800D03*
X13727200Y-4522800D03*
X15000000Y-1450000D03*
X13200000Y-3250000D03*
X16800000Y-3250000D03*
D24*
X15000000Y-3250000D03*
D23*
X15000000Y-5050000D03*
X16272800Y-1977200D03*
X13727200Y-1977200D03*
%TD*%
%TO.P,H3,1*%
%TO.N,N/C*%
X13727200Y-70477200D03*
X13200000Y-71750000D03*
X15000000Y-73550000D03*
X15000000Y-69950000D03*
X13727200Y-73022800D03*
X16800000Y-71750000D03*
X16272800Y-70477200D03*
D24*
X15000000Y-71750000D03*
D23*
X16272800Y-73022800D03*
%TD*%
D25*
%TO.P,BT2,1,+*%
%TO.N,/conBAT*%
X11420000Y-61100000D03*
D26*
%TO.P,BT2,2,-*%
%TO.N,/minusBAT*%
X11420000Y-9110000D03*
%TD*%
D27*
%TO.P,C2,1*%
%TO.N,GND*%
X31168900Y-32050000D03*
%TO.P,C2,2*%
%TO.N,/VAVCC*%
X29268900Y-32050000D03*
%TD*%
%TO.P,C4,1*%
%TO.N,VCC*%
X34316000Y-16361000D03*
%TO.P,C4,2*%
%TO.N,GND*%
X32416000Y-16361000D03*
%TD*%
D28*
%TO.P,C6,1*%
%TO.N,Net-(C6-Pad1)*%
X28542500Y-10519000D03*
%TO.P,C6,2*%
%TO.N,GND*%
X30442500Y-10519000D03*
%TD*%
D27*
%TO.P,C8,1*%
%TO.N,Net-(C8-Pad1)*%
X34801100Y-31893100D03*
%TO.P,C8,2*%
%TO.N,GND*%
X32901100Y-31893100D03*
%TD*%
D11*
%TO.P,J12,1,Pin_1*%
%TO.N,/DTR*%
X28070100Y-2860900D03*
D12*
%TO.P,J12,2,Pin_2*%
%TO.N,/TXD0*%
X30610100Y-2860900D03*
%TO.P,J12,3,Pin_3*%
%TO.N,/RXD0*%
X33150100Y-2860900D03*
%TO.P,J12,4,Pin_4*%
%TO.N,VCC*%
X35690100Y-2860900D03*
%TO.P,J12,5,Pin_5*%
%TO.N,GND*%
X38230100Y-2860900D03*
%TO.P,J12,6,Pin_6*%
X40770100Y-2860900D03*
%TD*%
D16*
%TO.P,R2,1*%
%TO.N,VCC*%
X33315200Y-5870800D03*
%TO.P,R2,2*%
%TO.N,/RSETB*%
X31315200Y-5870800D03*
%TD*%
%TO.P,R6,1*%
%TO.N,VCC*%
X31143500Y-34000000D03*
%TO.P,R6,2*%
%TO.N,/VAVCC*%
X29143500Y-34000000D03*
%TD*%
D29*
%TO.P,Y1,1,1*%
%TO.N,Net-(C6-Pad1)*%
X29051500Y-13440000D03*
%TO.P,Y1,2,2*%
%TO.N,Net-(C7-Pad1)*%
X34251500Y-13440000D03*
%TD*%
D30*
%TO.P,C5,1*%
%TO.N,VCC*%
X38065000Y-14037700D03*
%TO.P,C5,2*%
%TO.N,GND*%
X38065000Y-10912700D03*
%TD*%
D31*
%TO.P,SW2,A*%
%TO.N,GND*%
X48500000Y-1625000D03*
%TO.P,SW2,B,e*%
X54500000Y-1625000D03*
%TO.P,SW2,C*%
%TO.N,/RSETB*%
X48500000Y-5375000D03*
%TO.P,SW2,D*%
X54500000Y-5375000D03*
%TD*%
%TO.P,SW1,A*%
%TO.N,/CONFIG*%
X24800000Y-5375000D03*
%TO.P,SW1,B,e*%
X18800000Y-5375000D03*
%TO.P,SW1,C*%
%TO.N,GND*%
X24800000Y-1625000D03*
%TO.P,SW1,D*%
X18800000Y-1625000D03*
%TD*%
D25*
%TO.P,BT1,1,+*%
%TO.N,/plusBAT*%
X63490000Y-8860000D03*
D26*
%TO.P,BT1,2,-*%
%TO.N,/conBAT*%
X63490000Y-60850000D03*
%TD*%
D32*
%TO.P,J11,1,Pin_1*%
%TO.N,/D7*%
X28667000Y-53750000D03*
D33*
%TO.P,J11,2,Pin_2*%
%TO.N,/D6*%
X30667000Y-53750000D03*
%TO.P,J11,3,Pin_3*%
%TO.N,/MISO*%
X32667000Y-53750000D03*
%TO.P,J11,4,Pin_4*%
%TO.N,/D5*%
X34667000Y-53750000D03*
%TO.P,J11,5,Pin_5*%
%TO.N,/SCK*%
X36667000Y-53750000D03*
%TO.P,J11,6,Pin_6*%
%TO.N,/MOSI*%
X38667000Y-53750000D03*
%TO.P,J11,7,Pin_7*%
%TO.N,GND*%
X40667000Y-53750000D03*
%TO.P,J11,8,Pin_8*%
%TO.N,VCC*%
X42667000Y-53750000D03*
%TD*%
D28*
%TO.P,C11,1*%
%TO.N,/plusBAT*%
X52080680Y-26053640D03*
%TO.P,C11,2*%
%TO.N,GND*%
X53980680Y-26053640D03*
%TD*%
%TO.P,C12,1*%
%TO.N,/Vout*%
X52101000Y-19210880D03*
%TO.P,C12,2*%
%TO.N,GND*%
X54001000Y-19210880D03*
%TD*%
%TO.P,C13,1*%
%TO.N,/Vout*%
X52101000Y-17204280D03*
%TO.P,C13,2*%
%TO.N,GND*%
X54001000Y-17204280D03*
%TD*%
D22*
%TO.P,JP3,1,A*%
%TO.N,/Vout*%
X46688300Y-13188300D03*
%TO.P,JP3,2,B*%
%TO.N,VCC*%
X46688300Y-11888300D03*
%TD*%
D34*
%TO.P,L1,1,1*%
%TO.N,/plusBAT*%
X48809200Y-23684000D03*
%TO.P,L1,2,2*%
%TO.N,Net-(L1-Pad2)*%
X48809200Y-21584000D03*
%TD*%
D35*
%TO.P,U2,1,VIN*%
%TO.N,/plusBAT*%
X54214500Y-22281500D03*
%TO.P,U2,2,FB*%
%TO.N,/Vout*%
X54214500Y-21631500D03*
%TO.P,U2,3,GND*%
%TO.N,GND*%
X54214500Y-20981500D03*
%TO.P,U2,4,VOUT*%
%TO.N,/Vout*%
X52014500Y-20981500D03*
%TO.P,U2,5,L*%
%TO.N,Net-(L1-Pad2)*%
X52014500Y-21631500D03*
%TO.P,U2,6,EN*%
%TO.N,GND*%
X52014500Y-22281500D03*
%TD*%
D16*
%TO.P,R8,1*%
%TO.N,/plusBAT*%
X46456400Y-18875600D03*
%TO.P,R8,2*%
%TO.N,/A0*%
X44456400Y-18875600D03*
%TD*%
D36*
%TO.P,R7,1*%
%TO.N,/A0*%
X42616680Y-21384360D03*
%TO.P,R7,2*%
%TO.N,/A2*%
X42616680Y-19384360D03*
%TD*%
D11*
%TO.P,J1,1,Pin_1*%
%TO.N,/PB0_T0*%
X41400000Y-10011000D03*
D12*
%TO.P,J1,2,Pin_2*%
%TO.N,GND*%
X41400000Y-7471000D03*
%TD*%
D37*
%TO.P,J6,1,Pin_1*%
%TO.N,/SCL*%
X24730000Y-73000000D03*
D38*
%TO.P,J6,2,Pin_2*%
%TO.N,VCC*%
X24730000Y-71730000D03*
%TO.P,J6,3,Pin_3*%
%TO.N,GND*%
X24730000Y-70460000D03*
%TO.P,J6,4,Pin_4*%
%TO.N,/SDA*%
X24730000Y-69190000D03*
%TD*%
D27*
%TO.P,C9,1*%
%TO.N,/RSETB*%
X29474800Y-5870800D03*
%TO.P,C9,2*%
%TO.N,/DTR*%
X27574800Y-5870800D03*
%TD*%
%TO.P,C7,1*%
%TO.N,Net-(C7-Pad1)*%
X34697000Y-10519000D03*
%TO.P,C7,2*%
%TO.N,GND*%
X32797000Y-10519000D03*
%TD*%
D39*
%TO.P,U1,1,PB5*%
%TO.N,/MOSI*%
X36832600Y-18395300D03*
%TO.P,U1,2,PB6*%
%TO.N,/MISO*%
X36032600Y-18395300D03*
%TO.P,U1,3,PB7*%
%TO.N,/SCK*%
X35232600Y-18395300D03*
%TO.P,U1,4,~{RESET}*%
%TO.N,/RSETB*%
X34432600Y-18395300D03*
%TO.P,U1,5,VCC*%
%TO.N,VCC*%
X33632600Y-18395300D03*
%TO.P,U1,6,GND*%
%TO.N,GND*%
X32832600Y-18395300D03*
%TO.P,U1,7,XTAL2*%
%TO.N,Net-(C7-Pad1)*%
X32032600Y-18395300D03*
%TO.P,U1,8,XTAL1*%
%TO.N,Net-(C6-Pad1)*%
X31232600Y-18395300D03*
%TO.P,U1,9,PD0*%
%TO.N,/RXD0*%
X30432600Y-18395300D03*
%TO.P,U1,10,PD1*%
%TO.N,/TXD0*%
X29632600Y-18395300D03*
%TO.P,U1,11,PD2*%
%TO.N,/D2*%
X28832600Y-18395300D03*
D40*
%TO.P,U1,12,PD3*%
%TO.N,unconnected-(U1-Pad12)*%
X27132600Y-20095300D03*
%TO.P,U1,13,PD4*%
%TO.N,Net-(R1-Pad1)*%
X27132600Y-20895300D03*
%TO.P,U1,14,PD5*%
%TO.N,/D5*%
X27132600Y-21695300D03*
%TO.P,U1,15,PD6*%
%TO.N,/D6*%
X27132600Y-22495300D03*
%TO.P,U1,16,PD7*%
%TO.N,/D7*%
X27132600Y-23295300D03*
%TO.P,U1,17,VCC*%
%TO.N,VCC*%
X27132600Y-24095300D03*
%TO.P,U1,18,GND*%
%TO.N,GND*%
X27132600Y-24895300D03*
%TO.P,U1,19,PC0*%
%TO.N,/SCL*%
X27132600Y-25695300D03*
%TO.P,U1,20,PC1*%
%TO.N,/SDA*%
X27132600Y-26495300D03*
%TO.P,U1,21,PC2*%
%TO.N,unconnected-(U1-Pad21)*%
X27132600Y-27295300D03*
%TO.P,U1,22,PC3*%
%TO.N,unconnected-(U1-Pad22)*%
X27132600Y-28095300D03*
D39*
%TO.P,U1,23,PC4*%
%TO.N,unconnected-(U1-Pad23)*%
X28832600Y-29795300D03*
%TO.P,U1,24,PC5*%
%TO.N,unconnected-(U1-Pad24)*%
X29632600Y-29795300D03*
%TO.P,U1,25,PC6*%
%TO.N,/CONFIG*%
X30432600Y-29795300D03*
%TO.P,U1,26,PC7*%
%TO.N,unconnected-(U1-Pad26)*%
X31232600Y-29795300D03*
%TO.P,U1,27,AVCC*%
%TO.N,/VAVCC*%
X32032600Y-29795300D03*
%TO.P,U1,28,GND*%
%TO.N,GND*%
X32832600Y-29795300D03*
%TO.P,U1,29,AREF*%
%TO.N,Net-(C8-Pad1)*%
X33632600Y-29795300D03*
%TO.P,U1,30,PA7*%
%TO.N,unconnected-(U1-Pad30)*%
X34432600Y-29795300D03*
%TO.P,U1,31,PA6*%
%TO.N,unconnected-(U1-Pad31)*%
X35232600Y-29795300D03*
%TO.P,U1,32,PA5*%
%TO.N,unconnected-(U1-Pad32)*%
X36032600Y-29795300D03*
%TO.P,U1,33,PA4*%
%TO.N,unconnected-(U1-Pad33)*%
X36832600Y-29795300D03*
D40*
%TO.P,U1,34,PA3*%
%TO.N,/PA3*%
X38532600Y-28095300D03*
%TO.P,U1,35,PA2*%
%TO.N,/PA2*%
X38532600Y-27295300D03*
%TO.P,U1,36,PA1*%
%TO.N,/A1*%
X38532600Y-26495300D03*
%TO.P,U1,37,PA0*%
%TO.N,/A0*%
X38532600Y-25695300D03*
%TO.P,U1,38,VCC*%
%TO.N,VCC*%
X38532600Y-24895300D03*
%TO.P,U1,39,GND*%
%TO.N,GND*%
X38532600Y-24095300D03*
%TO.P,U1,40,PB0*%
%TO.N,/PB0_T0*%
X38532600Y-23295300D03*
%TO.P,U1,41,PB1*%
%TO.N,/PB1_T1*%
X38532600Y-22495300D03*
%TO.P,U1,42,PB2*%
%TO.N,/A3*%
X38532600Y-21695300D03*
%TO.P,U1,43,PB3*%
%TO.N,/A2*%
X38532600Y-20895300D03*
%TO.P,U1,44,PB4*%
%TO.N,/SS*%
X38532600Y-20095300D03*
%TD*%
D41*
%TO.P,C3,1*%
%TO.N,VCC*%
X41176500Y-25248500D03*
%TO.P,C3,2*%
%TO.N,GND*%
X41176500Y-23348500D03*
%TD*%
D11*
%TO.P,J2,1,Pin_1*%
%TO.N,/PB1_T1*%
X41400000Y-16615000D03*
D12*
%TO.P,J2,2,Pin_2*%
%TO.N,GND*%
X41400000Y-14075000D03*
%TD*%
D11*
%TO.P,J9,1,Pin_1*%
%TO.N,VCC*%
X50130000Y-73000000D03*
D12*
%TO.P,J9,2,Pin_2*%
%TO.N,GND*%
X50130000Y-70460000D03*
%TO.P,J9,3,Pin_3*%
%TO.N,/SCL*%
X50130000Y-67920000D03*
%TO.P,J9,4,Pin_4*%
%TO.N,/SDA*%
X50130000Y-65380000D03*
%TD*%
D42*
%TO.P,H5,1*%
%TO.N,N/C*%
X23510800Y-12200000D03*
%TD*%
%TO.P,H6,1*%
%TO.N,N/C*%
X23510800Y-55200000D03*
%TD*%
%TO.P,H7,1*%
%TO.N,N/C*%
X51510800Y-12200000D03*
%TD*%
%TO.P,H8,1*%
%TO.N,N/C*%
X51510800Y-55200000D03*
%TD*%
D43*
%TO.P,U3,1,~{CS}*%
%TO.N,/PA3*%
X53813000Y-40828000D03*
%TO.P,U3,2,SO*%
%TO.N,/MISO*%
X52543000Y-40828000D03*
%TO.P,U3,3,~{WP}*%
%TO.N,/~{hold}*%
X51273000Y-40828000D03*
%TO.P,U3,4,GND*%
%TO.N,GND*%
X50003000Y-40828000D03*
%TO.P,U3,5,SI*%
%TO.N,/MOSI*%
X50003000Y-48028000D03*
%TO.P,U3,6,SCK*%
%TO.N,/SCK*%
X51273000Y-48028000D03*
%TO.P,U3,7,~{HOLD}*%
%TO.N,/~{hold}*%
X52543000Y-48028000D03*
%TO.P,U3,8,VDD*%
%TO.N,VCC*%
X53813000Y-48028000D03*
%TD*%
%TO.P,U4,1,~{CS}*%
%TO.N,/PA2*%
X53813000Y-30668000D03*
%TO.P,U4,2,SO*%
%TO.N,/MISO*%
X52543000Y-30668000D03*
%TO.P,U4,3,~{WP}*%
%TO.N,/~{hold}*%
X51273000Y-30668000D03*
%TO.P,U4,4,GND*%
%TO.N,GND*%
X50003000Y-30668000D03*
%TO.P,U4,5,SI*%
%TO.N,/MOSI*%
X50003000Y-37868000D03*
%TO.P,U4,6,SCK*%
%TO.N,/SCK*%
X51273000Y-37868000D03*
%TO.P,U4,7,~{HOLD}*%
%TO.N,/~{hold}*%
X52543000Y-37868000D03*
%TO.P,U4,8,VDD*%
%TO.N,VCC*%
X53813000Y-37868000D03*
%TD*%
D16*
%TO.P,R9,1*%
%TO.N,/~{hold}*%
X47939000Y-41634000D03*
%TO.P,R9,2*%
%TO.N,VCC*%
X45939000Y-41634000D03*
%TD*%
D41*
%TO.P,C14,1*%
%TO.N,/~{hold}*%
X47971000Y-38329500D03*
%TO.P,C14,2*%
%TO.N,GND*%
X47971000Y-36429500D03*
%TD*%
%TO.P,C15,1*%
%TO.N,VCC*%
X47653500Y-46711500D03*
%TO.P,C15,2*%
%TO.N,GND*%
X47653500Y-44811500D03*
%TD*%
D28*
%TO.P,C10,1*%
%TO.N,/plusBAT*%
X52080680Y-24057200D03*
%TO.P,C10,2*%
%TO.N,GND*%
X53980680Y-24057200D03*
%TD*%
D37*
%TO.P,J7,1,Pin_1*%
%TO.N,VCC*%
X34890000Y-73003000D03*
D38*
%TO.P,J7,2,Pin_2*%
%TO.N,/SDA*%
X34890000Y-71733000D03*
%TO.P,J7,3,Pin_3*%
%TO.N,GND*%
X34890000Y-70463000D03*
%TO.P,J7,4,Pin_4*%
%TO.N,/SCL*%
X34890000Y-69193000D03*
%TD*%
D11*
%TO.P,J13,1,Pin_1*%
%TO.N,VCC*%
X45177000Y-70971000D03*
D12*
%TO.P,J13,2,Pin_2*%
%TO.N,/SDA*%
X45177000Y-68431000D03*
%TO.P,J13,3,Pin_3*%
%TO.N,/SCL*%
X45177000Y-65891000D03*
%TO.P,J13,4,Pin_4*%
%TO.N,unconnected-(J13-Pad4)*%
X45177000Y-63351000D03*
%TO.P,J13,5,Pin_5*%
%TO.N,GND*%
X45177000Y-60811000D03*
%TD*%
D27*
%TO.P,C16,1*%
%TO.N,VCC*%
X48220000Y-34014000D03*
%TO.P,C16,2*%
%TO.N,GND*%
X46320000Y-34014000D03*
%TD*%
D44*
%TO.N,GND*%
X30775200Y-69370800D03*
X50003000Y-32744000D03*
X41176500Y-22520500D03*
D45*
X55083000Y-24362000D03*
D44*
X51878600Y-1625000D03*
X50003000Y-42396000D03*
D45*
X54956000Y-18520000D03*
D44*
X47272500Y-43856500D03*
X27371600Y-70488400D03*
X32416000Y-15220500D03*
X10099600Y-58042400D03*
D45*
X54956000Y-17123000D03*
D44*
X32822962Y-19551762D03*
D45*
X54956000Y-19790000D03*
D44*
X45431000Y-33379000D03*
X31651500Y-12106500D03*
X38065000Y-9376000D03*
D45*
X55083000Y-26013000D03*
D44*
X21809000Y-1629000D03*
X31651500Y-10519000D03*
X5172000Y-2391000D03*
X30572000Y-26330500D03*
%TO.N,/SS*%
X37239500Y-21568000D03*
X36998006Y-34014000D03*
%TO.N,/D2*%
X31461000Y-25645300D03*
X38192000Y-32318110D03*
X38192000Y-34077500D03*
X31461000Y-19645302D03*
%TO.N,/SCL*%
X21450331Y-69297669D03*
X27298500Y-67161000D03*
X21469174Y-71437836D03*
X26000000Y-67161000D03*
%TO.N,/A0*%
X40160500Y-26267000D03*
X42446500Y-26267000D03*
%TO.N,/A1*%
X40097000Y-30077002D03*
X42510004Y-30140500D03*
%TO.N,/A3*%
X44732500Y-24108000D03*
X42891000Y-24108000D03*
%TO.N,/MOSI*%
X42340000Y-49630000D03*
X48288499Y-52175001D03*
X36096500Y-20933000D03*
X35969500Y-34014000D03*
%TO.N,/SCK*%
X34763000Y-34014000D03*
X53178000Y-35156994D03*
X55845000Y-51540000D03*
X34636000Y-20933000D03*
X51781000Y-35157000D03*
X43070000Y-43490000D03*
X43070000Y-48960000D03*
X51273000Y-51540000D03*
%TO.N,/MISO*%
X44097500Y-48365000D03*
X35345499Y-22838000D03*
X56607000Y-50778000D03*
X48098000Y-50778000D03*
X35969500Y-35030000D03*
%TO.N,VCC*%
X55235400Y-6531200D03*
X53050996Y-36300000D03*
X49939500Y-45863500D03*
X30064000Y-24108000D03*
X30082364Y-20406636D03*
X57851600Y-6531200D03*
X37074400Y-6124800D03*
X51400000Y-36046000D03*
X52098503Y-45888497D03*
X34534400Y-6124800D03*
D45*
%TO.N,/minusBAT*%
X66779700Y-9680800D03*
%TO.N,/plusBAT*%
X55210000Y-22838000D03*
X51146000Y-23473000D03*
D44*
%TO.N,/D5*%
X33683500Y-21568000D03*
X33937500Y-34966500D03*
%TO.N,/D6*%
X33073997Y-34014000D03*
X33274000Y-22495300D03*
%TO.N,/D7*%
X28382602Y-25922012D03*
X28679800Y-23295300D03*
%TO.N,/CONFIG*%
X25117301Y-30845301D03*
X28089199Y-30845301D03*
X18800000Y-8018000D03*
X15420000Y-8018000D03*
%TO.N,/PB0_T0*%
X40220565Y-19891718D03*
X43145000Y-11090500D03*
X40287500Y-22012500D03*
X43145000Y-12932000D03*
%TO.N,/PA2*%
X43145000Y-29380000D03*
X39462000Y-29315000D03*
%TO.N,/PA3*%
X40224000Y-31474000D03*
X42256000Y-31474000D03*
%TD*%
D46*
%TO.N,GND*%
X42521000Y-55604000D02*
X40667000Y-53750000D01*
X31588000Y-10519000D02*
X31651500Y-10519000D01*
X5362500Y-2200500D02*
X5172000Y-2391000D01*
X54500000Y-1625000D02*
X51878600Y-1625000D01*
X38065000Y-10912700D02*
X38065000Y-9376000D01*
X32416000Y-16361000D02*
X32416000Y-15220500D01*
X54956000Y-18520000D02*
X54321000Y-19155000D01*
X24730000Y-70460000D02*
X27343200Y-70460000D01*
D47*
X52924000Y-21637240D02*
X52924000Y-22965000D01*
D46*
X30563150Y-26321650D02*
X30572000Y-26330500D01*
X54448000Y-24362000D02*
X54194000Y-24108000D01*
D47*
X52237960Y-22278960D02*
X52924000Y-22965000D01*
X52924000Y-22965000D02*
X54067000Y-24108000D01*
D46*
X3648000Y-64494000D02*
X10099600Y-58042400D01*
X32832600Y-18395300D02*
X32832600Y-16780100D01*
X54956000Y-19790000D02*
X54321000Y-19155000D01*
X27343200Y-70460000D02*
X27371600Y-70488400D01*
D47*
X53582280Y-20978960D02*
X52924000Y-21637240D01*
D46*
X46320000Y-34739000D02*
X47844000Y-36263000D01*
X3648000Y-66627600D02*
X3648000Y-64494000D01*
X55083000Y-24362000D02*
X54448000Y-24362000D01*
D47*
X54232280Y-20978960D02*
X53582280Y-20978960D01*
D46*
X45177000Y-55629400D02*
X45151600Y-55604000D01*
X50003000Y-40828000D02*
X50003000Y-42396000D01*
X21813000Y-1625000D02*
X21809000Y-1629000D01*
X47653500Y-44237500D02*
X47272500Y-43856500D01*
X10180000Y-68130000D02*
X5150400Y-68130000D01*
X38532600Y-24095300D02*
X40554200Y-24095300D01*
X30442500Y-10519000D02*
X31588000Y-10519000D01*
X32832600Y-16780100D02*
X32477000Y-16424500D01*
X54956000Y-17123000D02*
X53940000Y-17123000D01*
X5150400Y-68130000D02*
X3648000Y-66627600D01*
X45177000Y-60811000D02*
X45177000Y-55629400D01*
X32832600Y-28545300D02*
X30563150Y-26275850D01*
X30563150Y-26275850D02*
X30563150Y-26321650D01*
X34890000Y-70463000D02*
X31867400Y-70463000D01*
X45151600Y-55604000D02*
X42521000Y-55604000D01*
X32832600Y-19542124D02*
X32822962Y-19551762D01*
X32901100Y-31893100D02*
X32901100Y-29993100D01*
X31588000Y-10519000D02*
X32794500Y-10519000D01*
X8138500Y-2200500D02*
X5362500Y-2200500D01*
X41176500Y-23348500D02*
X41176500Y-22520500D01*
X11530000Y-66780000D02*
X10180000Y-68130000D01*
D48*
X40345000Y-38310000D02*
X42792800Y-38310000D01*
D46*
X55083000Y-26013000D02*
X54067000Y-26013000D01*
D49*
X54270200Y-24158800D02*
X54331160Y-24219760D01*
D46*
X32832600Y-18395300D02*
X32832600Y-19542124D01*
X34890000Y-70463000D02*
X37430000Y-70463000D01*
X40554200Y-24095300D02*
X41176500Y-23473000D01*
X51878600Y-1625000D02*
X48432200Y-1625000D01*
X50003000Y-31176000D02*
X50003000Y-32744000D01*
X47653500Y-44811500D02*
X47653500Y-44237500D01*
X18796300Y-1625000D02*
X21813000Y-1625000D01*
X46320000Y-34014000D02*
X46066000Y-34014000D01*
X31867400Y-70463000D02*
X30775200Y-69370800D01*
X46066000Y-34014000D02*
X45431000Y-33379000D01*
X54001000Y-19210880D02*
X54001000Y-20740000D01*
X54001000Y-17204280D02*
X54001000Y-19216000D01*
X31651500Y-10519000D02*
X31651500Y-12106500D01*
X29182600Y-24895300D02*
X27132600Y-24895300D01*
X32901100Y-31893100D02*
X31359400Y-31893100D01*
X46320000Y-34014000D02*
X46320000Y-34739000D01*
X37430000Y-70463000D02*
X39970000Y-67923000D01*
X21813000Y-1625000D02*
X24853000Y-1625000D01*
X32832600Y-29795300D02*
X32832600Y-28545300D01*
X30563150Y-26275850D02*
X29182600Y-24895300D01*
D47*
%TO.N,Net-(D1-Pad2)*%
X10188500Y-2200500D02*
X10188500Y-4169000D01*
%TO.N,/SS*%
X43688010Y-43759992D02*
X43688010Y-37708176D01*
X42788002Y-44660000D02*
X43688010Y-43759992D01*
X39260000Y-44660000D02*
X42788002Y-44660000D01*
X42470334Y-36490500D02*
X39474506Y-36490500D01*
X39474506Y-36490500D02*
X36998006Y-34014000D01*
X37582600Y-20095300D02*
X37239500Y-20438400D01*
X43688010Y-37708176D02*
X42470334Y-36490500D01*
X38532600Y-20095300D02*
X37582600Y-20095300D01*
X37239500Y-20438400D02*
X37239500Y-21568000D01*
%TO.N,/D2*%
X42083700Y-45930000D02*
X44088020Y-43925681D01*
X31461000Y-25568500D02*
X31461000Y-25645300D01*
X40623033Y-34077500D02*
X38192000Y-34077500D01*
X28857500Y-19185202D02*
X28857500Y-18393000D01*
X40345000Y-45930000D02*
X42083700Y-45930000D01*
X44088020Y-43925681D02*
X44088020Y-37542487D01*
X38192000Y-29589698D02*
X34170802Y-25568500D01*
X38192000Y-32318110D02*
X38192000Y-29589698D01*
X31461000Y-19645302D02*
X29317600Y-19645302D01*
X34170802Y-25568500D02*
X31461000Y-25568500D01*
X44088020Y-37542487D02*
X40623033Y-34077500D01*
X29317600Y-19645302D02*
X28857500Y-19185202D01*
%TO.N,/SCL*%
X27132600Y-25695300D02*
X26022134Y-25695300D01*
X25661824Y-25334990D02*
X23122010Y-25334990D01*
X50130000Y-67920000D02*
X51280001Y-66769999D01*
X20221500Y-65954500D02*
X21428000Y-67161000D01*
X46838001Y-64229999D02*
X45177000Y-65891000D01*
X21428000Y-67161000D02*
X21428000Y-69320000D01*
X26022134Y-25695300D02*
X25661824Y-25334990D01*
X32985000Y-67161000D02*
X34890000Y-69066000D01*
X23161338Y-73130000D02*
X21469174Y-71437836D01*
X24603000Y-73130000D02*
X23161338Y-73130000D01*
X51280001Y-64827999D02*
X50682001Y-64229999D01*
X50682001Y-64229999D02*
X46838001Y-64229999D01*
X45177000Y-65891000D02*
X40732000Y-65891000D01*
X27298500Y-67161000D02*
X32985000Y-67161000D01*
X22063000Y-26140000D02*
X25717302Y-29794302D01*
X21428000Y-69320000D02*
X21450331Y-69297669D01*
X21428000Y-67161000D02*
X26000000Y-67161000D01*
X38192000Y-65891000D02*
X34890000Y-69193000D01*
X51280001Y-66769999D02*
X51280001Y-64827999D01*
X20221500Y-51445298D02*
X20221500Y-65954500D01*
X25717302Y-29794302D02*
X25717302Y-45949496D01*
X25717302Y-45949496D02*
X20221500Y-51445298D01*
X40732000Y-65891000D02*
X38192000Y-65891000D01*
X23122010Y-25334990D02*
X22190000Y-26267000D01*
%TO.N,/SDA*%
X26762000Y-69193000D02*
X24857000Y-69193000D01*
X26698500Y-69129500D02*
X26762000Y-69193000D01*
X41706499Y-71012501D02*
X35864499Y-71012501D01*
X26698500Y-29226202D02*
X26698500Y-69129500D01*
X50130000Y-65380000D02*
X47339000Y-65380000D01*
X35864499Y-71012501D02*
X35017000Y-71860000D01*
X27651000Y-69193000D02*
X26762000Y-69193000D01*
X24984000Y-27511702D02*
X26698500Y-29226202D01*
X27132600Y-26495300D02*
X25212300Y-26495300D01*
X24984000Y-26267000D02*
X24984000Y-27511702D01*
X47339000Y-65380000D02*
X41706499Y-71012501D01*
X35017000Y-71860000D02*
X30318000Y-71860000D01*
X30318000Y-71860000D02*
X27651000Y-69193000D01*
%TO.N,/A0*%
X44034000Y-24679500D02*
X44034000Y-22393500D01*
X44034000Y-24679500D02*
X42446500Y-26267000D01*
X39588800Y-25695300D02*
X40160500Y-26267000D01*
X44173700Y-22253800D02*
X44034000Y-22393500D01*
X38532600Y-25695300D02*
X39588800Y-25695300D01*
X44173700Y-22253800D02*
X44173700Y-19107500D01*
X42954500Y-21314000D02*
X44034000Y-22393500D01*
%TO.N,/A1*%
X40097000Y-27109700D02*
X40097000Y-30077002D01*
X42510004Y-30140500D02*
X44034000Y-30140500D01*
X38532600Y-26495300D02*
X39482600Y-26495300D01*
X39482600Y-26495300D02*
X40097000Y-27109700D01*
X44034000Y-30140500D02*
X44669000Y-30775500D01*
%TO.N,/A2*%
X40462000Y-20441000D02*
X39970000Y-20933000D01*
X41732000Y-20441000D02*
X42827500Y-19345500D01*
X41732000Y-20441000D02*
X40462000Y-20441000D01*
X39970000Y-20933000D02*
X38509500Y-20933000D01*
%TO.N,/A3*%
X39999499Y-21412499D02*
X40956501Y-21412499D01*
X40956501Y-21412499D02*
X42891000Y-23346998D01*
X44732500Y-24108000D02*
X44732500Y-27092500D01*
X39691598Y-21720400D02*
X39999499Y-21412499D01*
X38547600Y-21720400D02*
X39691598Y-21720400D01*
X42891000Y-23346998D02*
X42891000Y-24108000D01*
%TO.N,/MOSI*%
X47497999Y-48530891D02*
X47497999Y-51384501D01*
X35369499Y-38429499D02*
X35369499Y-34614001D01*
X42340000Y-49630000D02*
X42340000Y-50122500D01*
X39060000Y-42120000D02*
X35369499Y-38429499D01*
X47497999Y-51384501D02*
X48288499Y-52175001D01*
X50539502Y-46151502D02*
X50202503Y-46488501D01*
X36832600Y-18395300D02*
X36832600Y-19406702D01*
X50539502Y-45575498D02*
X50539502Y-46151502D01*
X40345000Y-42120000D02*
X39060000Y-42120000D01*
X35369499Y-34614001D02*
X35969500Y-34014000D01*
X48058504Y-43094500D02*
X50539502Y-45575498D01*
X46891500Y-37906166D02*
X46891500Y-42206498D01*
X47779502Y-43094500D02*
X48058504Y-43094500D01*
X49364510Y-37229510D02*
X47568156Y-37229510D01*
X46891500Y-42206498D02*
X47779502Y-43094500D01*
X36096500Y-20142802D02*
X36096500Y-20933000D01*
X50003000Y-37868000D02*
X49364510Y-37229510D01*
X36832600Y-19406702D02*
X36096500Y-20142802D01*
X47568156Y-37229510D02*
X46891500Y-37906166D01*
X50003000Y-50460500D02*
X48288499Y-52175001D01*
X49540389Y-46488501D02*
X47497999Y-48530891D01*
X50202503Y-46488501D02*
X49540389Y-46488501D01*
X42340000Y-50122500D02*
X38636500Y-53826000D01*
X50003000Y-48028000D02*
X50003000Y-50460500D01*
%TO.N,/SCK*%
X43070000Y-43490000D02*
X40302000Y-43490000D01*
X35144000Y-19248902D02*
X35144000Y-18647000D01*
X34636000Y-19756902D02*
X35144000Y-19248902D01*
X55845000Y-51540000D02*
X55845000Y-37823994D01*
X51273000Y-37135889D02*
X52000003Y-36408886D01*
X53178000Y-35156994D02*
X55845000Y-37823994D01*
X34839200Y-43361200D02*
X34572500Y-43094500D01*
X52000003Y-35376003D02*
X51781000Y-35157000D01*
X41026000Y-48960000D02*
X36668000Y-53318000D01*
X51273000Y-48028000D02*
X51273000Y-51540000D01*
X39258800Y-43361200D02*
X34839200Y-43361200D01*
X34572500Y-43094500D02*
X34572500Y-34014000D01*
X43070000Y-48960000D02*
X41026000Y-48960000D01*
X52000003Y-36408886D02*
X52000003Y-35376003D01*
X34636000Y-19756902D02*
X34636000Y-20933000D01*
%TO.N,/MISO*%
X56607000Y-34903000D02*
X56607000Y-50778000D01*
X35642001Y-54218001D02*
X35135001Y-54725001D01*
X36363200Y-38027200D02*
X39208000Y-40872000D01*
X36160000Y-19032902D02*
X35271000Y-19921902D01*
X50939513Y-43231487D02*
X50939513Y-46317191D01*
X36363200Y-35423700D02*
X35969500Y-35030000D01*
X49666600Y-46927990D02*
X48098000Y-48496590D01*
X40803998Y-48170000D02*
X35642001Y-53331997D01*
X52543000Y-41628000D02*
X50939513Y-43231487D01*
X35135001Y-54725001D02*
X33693501Y-54725001D01*
X35271000Y-22838000D02*
X35345499Y-22838000D01*
X44080000Y-48170000D02*
X40803998Y-48170000D01*
X48098000Y-48496590D02*
X48098000Y-50778000D01*
X50939513Y-46317191D02*
X50328714Y-46927990D01*
X50328714Y-46927990D02*
X49666600Y-46927990D01*
X52543000Y-40828000D02*
X52543000Y-41628000D01*
X33693501Y-54725001D02*
X32731000Y-53762500D01*
X36363200Y-38027200D02*
X36363200Y-35423700D01*
X35271000Y-19921902D02*
X35271000Y-22838000D01*
X35642001Y-53331997D02*
X35642001Y-54218001D01*
X52543000Y-30839000D02*
X56607000Y-34903000D01*
%TO.N,Net-(Q1-Pad1)*%
X15941600Y-66729200D02*
X14087400Y-64875000D01*
X14087400Y-64875000D02*
X8867700Y-64875000D01*
X8867700Y-64875000D02*
X6886500Y-66856200D01*
D46*
%TO.N,VCC*%
X44887200Y-11888300D02*
X45184010Y-12185110D01*
X48220000Y-34014000D02*
X49368000Y-34014000D01*
X31879501Y-33263999D02*
X34065255Y-33263999D01*
X42637000Y-73003000D02*
X45177000Y-70463000D01*
X40097000Y-73003000D02*
X42637000Y-73003000D01*
D48*
X41228004Y-28869796D02*
X41228004Y-32819496D01*
D46*
X55083000Y-38713000D02*
X54829000Y-38459000D01*
X33582601Y-19232471D02*
X33582601Y-19921401D01*
D48*
X45850500Y-38586000D02*
X45850500Y-45863500D01*
D46*
X34261144Y-33068110D02*
X40979390Y-33068110D01*
D49*
X55235400Y-6531200D02*
X46417798Y-6531200D01*
D46*
X36714990Y-11657388D02*
X36714990Y-6484210D01*
D50*
X45831999Y-25835497D02*
X45536070Y-25539568D01*
D49*
X33110044Y-20406636D02*
X33023366Y-20406636D01*
D46*
X21765671Y-70624329D02*
X21716329Y-70624329D01*
D49*
X45487499Y-9101501D02*
X46041398Y-9655400D01*
D46*
X38065000Y-14037700D02*
X38065000Y-13007398D01*
X53813000Y-47228000D02*
X52473497Y-45888497D01*
X45697500Y-53750000D02*
X45850500Y-53597000D01*
D50*
X45456400Y-25459898D02*
X45831999Y-25835497D01*
D46*
X27132600Y-24095300D02*
X25377700Y-24095300D01*
X35690100Y-2860900D02*
X33366000Y-5185000D01*
D48*
X40345000Y-47200000D02*
X45847500Y-47200000D01*
D46*
X36714990Y-6484210D02*
X37074400Y-6124800D01*
X22871342Y-71730000D02*
X21765671Y-70624329D01*
X38532600Y-24895300D02*
X30851300Y-24895300D01*
D48*
X45850500Y-36200371D02*
X45850500Y-38586000D01*
D46*
X41228004Y-32819496D02*
X40979390Y-33068110D01*
D50*
X45304000Y-17808800D02*
X45456400Y-17961200D01*
D46*
X56480000Y-66780000D02*
X50130000Y-73130000D01*
D49*
X46637500Y-9581500D02*
X46637500Y-11776300D01*
D46*
X24730000Y-71730000D02*
X22871342Y-71730000D01*
X53813000Y-48028000D02*
X55083000Y-46758000D01*
X45850500Y-54817000D02*
X45850500Y-53597000D01*
X33186244Y-20406636D02*
X33110044Y-20406636D01*
X30064000Y-24108000D02*
X27066800Y-24108000D01*
X45304000Y-17808800D02*
X45184010Y-17688810D01*
X42667000Y-53750000D02*
X45697500Y-53750000D01*
X53050996Y-36680996D02*
X53050996Y-36300000D01*
X33582601Y-20010279D02*
X33186244Y-20406636D01*
X45304000Y-70463000D02*
X47971000Y-73130000D01*
X33632600Y-18395300D02*
X33632600Y-17046900D01*
X45850500Y-45863500D02*
X47742000Y-45863500D01*
X33632600Y-17046900D02*
X34318500Y-16361000D01*
X47971000Y-73130000D02*
X50130000Y-73130000D01*
D48*
X41228004Y-28160004D02*
X41228004Y-28869796D01*
D46*
X47742000Y-45863500D02*
X47742000Y-46562000D01*
X52473497Y-45888497D02*
X52098503Y-45888497D01*
X33366000Y-5185000D02*
X33366000Y-5820000D01*
D49*
X45487499Y-7461499D02*
X45487499Y-9101501D01*
D46*
X44887200Y-11888300D02*
X39642100Y-11888300D01*
D48*
X41435486Y-27849514D02*
X41176500Y-28108500D01*
D46*
X31143500Y-34000000D02*
X31879501Y-33263999D01*
X39642100Y-11888300D02*
X38192000Y-13338400D01*
X55083000Y-46758000D02*
X55083000Y-38713000D01*
X33023366Y-20406636D02*
X30082364Y-20406636D01*
X41176500Y-28108500D02*
X41228004Y-28160004D01*
D48*
X40979390Y-33068110D02*
X42718239Y-33068110D01*
D49*
X33582601Y-19921401D02*
X33582601Y-19934079D01*
D48*
X34318500Y-16361000D02*
X35779000Y-16361000D01*
D46*
X45184010Y-17688810D02*
X45184010Y-12085110D01*
X34065255Y-33263999D02*
X34261144Y-33068110D01*
D49*
X45831999Y-28603503D02*
X45755502Y-28680000D01*
D46*
X49368000Y-34014000D02*
X51400000Y-36046000D01*
X46688300Y-11888300D02*
X44887200Y-11888300D01*
D48*
X45850500Y-45863500D02*
X45850500Y-47197000D01*
D46*
X33632600Y-19182472D02*
X33582601Y-19232471D01*
X53813000Y-48028000D02*
X53813000Y-47228000D01*
X34534400Y-6124800D02*
X33366000Y-6124800D01*
X33582601Y-19934079D02*
X33582601Y-20010279D01*
X24730000Y-71730000D02*
X27775000Y-71730000D01*
D48*
X35779000Y-16361000D02*
X38065000Y-14075000D01*
D46*
X38532600Y-24895300D02*
X40884300Y-24895300D01*
X30064000Y-24108000D02*
X30851300Y-24895300D01*
D48*
X41176500Y-25248500D02*
X41435486Y-25507486D01*
D46*
X29048000Y-73003000D02*
X40097000Y-73003000D01*
D49*
X41417800Y-28680000D02*
X41228004Y-28869796D01*
D46*
X54829000Y-38459000D02*
X53940000Y-38459000D01*
D49*
X64989000Y-3407000D02*
X61864800Y-6531200D01*
D46*
X56480000Y-66780000D02*
X56480000Y-65446500D01*
X40884300Y-24895300D02*
X41176500Y-25187500D01*
D48*
X42718239Y-33068110D02*
X45850500Y-36200371D01*
D46*
X22190000Y-24251000D02*
X24968000Y-24251000D01*
X33632600Y-18395300D02*
X33632600Y-19182472D01*
X47742000Y-45863500D02*
X49939500Y-45863500D01*
D49*
X61864800Y-6531200D02*
X57851600Y-6531200D01*
D48*
X41435486Y-25507486D02*
X41435486Y-27849514D01*
D46*
X45850500Y-47197000D02*
X45850500Y-53597000D01*
X21716329Y-70624329D02*
X17999000Y-66907000D01*
D49*
X45831999Y-25835497D02*
X45831999Y-28603503D01*
X46417798Y-6531200D02*
X45487499Y-7461499D01*
D50*
X45456400Y-17961200D02*
X45456400Y-25459898D01*
D46*
X56480000Y-65446500D02*
X45850500Y-54817000D01*
X27775000Y-71730000D02*
X29048000Y-73003000D01*
D49*
X45755502Y-28680000D02*
X41417800Y-28680000D01*
D46*
X53686000Y-37316000D02*
X53050996Y-36680996D01*
X38065000Y-13007398D02*
X36714990Y-11657388D01*
X45847500Y-47200000D02*
X45850500Y-47197000D01*
D48*
%TO.N,/minusBAT*%
X61179000Y-60445602D02*
X61179000Y-15230700D01*
X61179000Y-15230700D02*
X66728900Y-9680800D01*
X59020000Y-62604602D02*
X61179000Y-60445602D01*
X66728900Y-9680800D02*
X66779700Y-9680800D01*
X59020000Y-66780000D02*
X59020000Y-62604602D01*
%TO.N,/plusBAT*%
X56683200Y-22203000D02*
X56683200Y-22517960D01*
X55791952Y-27478650D02*
X53337170Y-27478650D01*
X46456400Y-18875600D02*
X46456400Y-22771200D01*
X56683200Y-22517960D02*
X56683200Y-26587402D01*
D49*
X49964900Y-24196900D02*
X48948900Y-24196900D01*
D48*
X52162000Y-26303480D02*
X52162000Y-24108000D01*
D47*
X56336732Y-22864428D02*
X56683200Y-22517960D01*
D48*
X52162000Y-24108000D02*
X48352000Y-24108000D01*
X61890000Y-9060000D02*
X56683200Y-14266800D01*
D49*
X56556200Y-22330000D02*
X56683200Y-22203000D01*
X46637500Y-8281500D02*
X62726100Y-8281500D01*
D48*
X55210000Y-22838000D02*
X56363160Y-22838000D01*
X51146000Y-23473000D02*
X51781000Y-24108000D01*
D49*
X54489000Y-22330000D02*
X54041600Y-22330000D01*
D48*
X56683200Y-14266800D02*
X56683200Y-22203000D01*
X56683200Y-26587402D02*
X55791952Y-27478650D01*
D49*
X54232280Y-22278960D02*
X54650960Y-22278960D01*
D48*
X46456400Y-22771200D02*
X47285200Y-23600000D01*
X56363160Y-22838000D02*
X56683200Y-22517960D01*
X53337170Y-27478650D02*
X52162000Y-26303480D01*
X63490000Y-9060000D02*
X61890000Y-9060000D01*
D49*
X54489000Y-22330000D02*
X54295600Y-22330000D01*
X54650960Y-22278960D02*
X55210000Y-22838000D01*
D47*
%TO.N,/D5*%
X33556200Y-21695300D02*
X33683500Y-21568000D01*
X33937500Y-34966500D02*
X33937500Y-53000500D01*
X27132600Y-21695300D02*
X33556200Y-21695300D01*
X33937500Y-53000500D02*
X34699500Y-53762500D01*
%TO.N,/D6*%
X33073997Y-34014000D02*
X33073997Y-35830003D01*
X30699000Y-38205000D02*
X30699000Y-53699000D01*
X33073997Y-35830003D02*
X30699000Y-38205000D01*
X27132600Y-22495300D02*
X33274000Y-22495300D01*
%TO.N,/D7*%
X27489198Y-29573700D02*
X27489198Y-52584698D01*
X28382602Y-28680296D02*
X27489198Y-29573700D01*
X28382602Y-25922012D02*
X28382602Y-28680296D01*
X27132600Y-23295300D02*
X28679800Y-23295300D01*
X27489198Y-52584698D02*
X28667000Y-53762500D01*
%TO.N,/CONFIG*%
X18796300Y-5375000D02*
X24819400Y-5375000D01*
X30432600Y-29795300D02*
X30432600Y-30560302D01*
X18800000Y-5375000D02*
X18800000Y-8018000D01*
X25117301Y-30845301D02*
X19656301Y-30845301D01*
X30432600Y-30560302D02*
X30147601Y-30845301D01*
X15420000Y-8018000D02*
X15420000Y-26609000D01*
X19656301Y-30845301D02*
X15420000Y-26609000D01*
X30147601Y-30845301D02*
X28089199Y-30845301D01*
%TO.N,Net-(C6-Pad1)*%
X29051500Y-15221500D02*
X31270500Y-17440500D01*
X28542500Y-10519000D02*
X28542500Y-12871000D01*
X31270500Y-17440500D02*
X31270500Y-18329500D01*
X29051500Y-13440000D02*
X29051500Y-15221500D01*
%TO.N,Net-(C7-Pad1)*%
X31461000Y-14280500D02*
X31461000Y-17058698D01*
X31461000Y-17058698D02*
X31969000Y-17566698D01*
X34251500Y-13440000D02*
X32301500Y-13440000D01*
X34697000Y-10519000D02*
X34697000Y-12871000D01*
X31969000Y-17566698D02*
X31969000Y-18202500D01*
X32301500Y-13440000D02*
X31461000Y-14280500D01*
%TO.N,Net-(C8-Pad1)*%
X34801100Y-31893100D02*
X33620000Y-30712000D01*
X33620000Y-30712000D02*
X33620000Y-29823000D01*
%TO.N,/DTR*%
X28032000Y-5248500D02*
X28032000Y-5502500D01*
X28070100Y-2860900D02*
X28070100Y-5210400D01*
X28070100Y-5210400D02*
X28032000Y-5248500D01*
%TO.N,/RSETB*%
X71593000Y-64557500D02*
X69370500Y-66780000D01*
X41582198Y-5375000D02*
X39620099Y-3412901D01*
X17999996Y-8773099D02*
X17999996Y-4760003D01*
X70513500Y-7407500D02*
X71593000Y-8487000D01*
X34445500Y-19147402D02*
X34132612Y-19460290D01*
X34132612Y-19460290D02*
X34132612Y-20238101D01*
X41582198Y-5375000D02*
X55464500Y-5375000D01*
X26129103Y-1710899D02*
X29446097Y-1710899D01*
X19884989Y-10658092D02*
X17999996Y-8773099D01*
X23140003Y-4699999D02*
X26129103Y-1710899D01*
X29493111Y-1310889D02*
X29460099Y-1343901D01*
X57497000Y-7407500D02*
X70513500Y-7407500D01*
X29446097Y-1710899D02*
X29460099Y-1724901D01*
X25412799Y-19520299D02*
X19884989Y-13992489D01*
X55464500Y-5375000D02*
X57497000Y-7407500D01*
X33183713Y-21187000D02*
X30014198Y-21187000D01*
X34445500Y-18393000D02*
X34445500Y-19147402D01*
X30014198Y-21187000D02*
X28347497Y-19520299D01*
X39620099Y-2548897D02*
X38382091Y-1310889D01*
X19884989Y-13992489D02*
X19884989Y-10658092D01*
X18059999Y-4699999D02*
X23140003Y-4699999D01*
X38382091Y-1310889D02*
X29493111Y-1310889D01*
X28347497Y-19520299D02*
X25412799Y-19520299D01*
X71593000Y-8487000D02*
X71593000Y-64557500D01*
X34132612Y-20238101D02*
X33183713Y-21187000D01*
X29474800Y-5870800D02*
X29474800Y-3427602D01*
X29460099Y-1343901D02*
X29460099Y-1724901D01*
X39620099Y-3412901D02*
X39620099Y-2548897D01*
X17999996Y-4760003D02*
X18059999Y-4699999D01*
X31315200Y-5870800D02*
X29098596Y-5870800D01*
X29460099Y-1724901D02*
X29460099Y-5343099D01*
%TO.N,/RXD0*%
X27441490Y-16532490D02*
X29334792Y-16532490D01*
X26662099Y-9984667D02*
X26662099Y-15753099D01*
X36840101Y-5191285D02*
X36788715Y-5191285D01*
X26662099Y-15753099D02*
X27441490Y-16532490D01*
X36788715Y-5191285D02*
X34001000Y-7979000D01*
X33150100Y-2860900D02*
X34300101Y-1710899D01*
X36242101Y-1710899D02*
X36840101Y-2308899D01*
X28667766Y-7979000D02*
X26662099Y-9984667D01*
X36840101Y-2308899D02*
X36840101Y-5191285D01*
X34300101Y-1710899D02*
X36242101Y-1710899D01*
X34001000Y-7979000D02*
X28667766Y-7979000D01*
X30445000Y-17642698D02*
X30445000Y-17885000D01*
X29334792Y-16532490D02*
X30445000Y-17642698D01*
%TO.N,/TXD0*%
X29619500Y-17617198D02*
X28934802Y-16932500D01*
X29619500Y-18393000D02*
X29619500Y-17617198D01*
X28934802Y-16932500D02*
X23523500Y-16932500D01*
X32215210Y-6748604D02*
X32068004Y-6895810D01*
X23523500Y-16932500D02*
X20285000Y-13694000D01*
X30610100Y-3587866D02*
X32215210Y-5192976D01*
X20285000Y-6899500D02*
X21134499Y-6050001D01*
X21134499Y-6050001D02*
X24769501Y-6050001D01*
X20285000Y-13694000D02*
X20285000Y-6899500D01*
X32068004Y-6895810D02*
X25615310Y-6895810D01*
X32215210Y-6748604D02*
X32215210Y-5192976D01*
X25615310Y-6895810D02*
X24769501Y-6050001D01*
%TO.N,Net-(R1-Pad1)*%
X19459500Y-14756900D02*
X19459500Y-10798302D01*
X16983000Y-8321802D02*
X16983000Y-6518500D01*
X25572100Y-20869500D02*
X19459500Y-14756900D01*
X27079500Y-20869500D02*
X25572100Y-20869500D01*
X16983000Y-6518500D02*
X10379000Y-6518500D01*
X10379000Y-6518500D02*
X8156500Y-4296000D01*
X19459500Y-10798302D02*
X16983000Y-8321802D01*
%TO.N,/Vout*%
X53203400Y-16081600D02*
X52487120Y-16797880D01*
D48*
X50688800Y-17224600D02*
X46726400Y-13262200D01*
D47*
X50709120Y-17204280D02*
X50688800Y-17224600D01*
X55139000Y-21680000D02*
X55793411Y-21025589D01*
X52101000Y-17204280D02*
X52101000Y-20872000D01*
X55793411Y-16081600D02*
X53203400Y-16081600D01*
X55793411Y-21025589D02*
X55793411Y-16081600D01*
X54489000Y-21680000D02*
X55139000Y-21680000D01*
X52101000Y-17204280D02*
X50709120Y-17204280D01*
%TO.N,/VAVCC*%
X31724812Y-30868090D02*
X30690511Y-30868090D01*
X30690511Y-30868090D02*
X29322601Y-32236000D01*
X32032600Y-30560302D02*
X31724812Y-30868090D01*
X29268900Y-32050000D02*
X29268900Y-33983600D01*
X32032600Y-29795300D02*
X32032600Y-30560302D01*
%TO.N,/PB1_T1*%
X36639499Y-21856001D02*
X36639499Y-21215501D01*
X36839490Y-19999510D02*
X40224000Y-16615000D01*
X37240498Y-22457000D02*
X37938000Y-22457000D01*
X37240498Y-22457000D02*
X36639499Y-21856001D01*
X36839490Y-21015510D02*
X36839490Y-19999510D01*
X36639499Y-21215501D02*
X36839490Y-21015510D01*
X41240000Y-16615000D02*
X40224000Y-16615000D01*
%TO.N,/PB0_T0*%
X43145000Y-11090500D02*
X41938500Y-9884000D01*
X43145000Y-12932000D02*
X43145000Y-17192301D01*
X40445583Y-19891718D02*
X40220565Y-19891718D01*
X38532600Y-23295300D02*
X39482600Y-23295300D01*
X39482600Y-23295300D02*
X40287500Y-22490400D01*
X43145000Y-17192301D02*
X40445583Y-19891718D01*
X40287500Y-22490400D02*
X40287500Y-22012500D01*
X40287500Y-19958653D02*
X40220565Y-19891718D01*
%TO.N,/PA2*%
X39582601Y-29194399D02*
X39582601Y-27580299D01*
X53387000Y-29442000D02*
X43145000Y-29442000D01*
X53813000Y-30668000D02*
X53813000Y-29868000D01*
X39462000Y-29315000D02*
X39582601Y-29194399D01*
X53813000Y-29868000D02*
X53387000Y-29442000D01*
X43145000Y-29442000D02*
X43145000Y-29315000D01*
X39582601Y-27580299D02*
X39412302Y-27410000D01*
X43145000Y-29315000D02*
X43145000Y-29380000D01*
X39412302Y-27410000D02*
X39081000Y-27410000D01*
%TO.N,/PA3*%
X40224000Y-31474000D02*
X38827000Y-30077000D01*
X48610423Y-35039010D02*
X47742176Y-35039010D01*
X42580501Y-32052501D02*
X42256000Y-31728000D01*
X42256000Y-31728000D02*
X42256000Y-31474000D01*
X53813000Y-40025909D02*
X52773101Y-38986010D01*
X47120010Y-33311176D02*
X45861335Y-32052501D01*
X50954598Y-38986010D02*
X50672990Y-38704402D01*
X52773101Y-38986010D02*
X50954598Y-38986010D01*
X47120010Y-34416844D02*
X47120010Y-33311176D01*
X38827000Y-30077000D02*
X38827000Y-28045000D01*
X47742176Y-35039010D02*
X47120010Y-34416844D01*
X42580501Y-32052501D02*
X45861335Y-32052501D01*
X50672990Y-38704402D02*
X50672990Y-37101577D01*
X50672990Y-37101577D02*
X48610423Y-35039010D01*
%TO.N,/~{hold}*%
X53149490Y-42107010D02*
X51371499Y-43885001D01*
X52843000Y-38168000D02*
X53212990Y-38168000D01*
X51208490Y-39727990D02*
X52949382Y-39727990D01*
X48099010Y-39727990D02*
X48099010Y-38521490D01*
X53212990Y-38704402D02*
X53517598Y-39009010D01*
X54413010Y-39186010D02*
X54413010Y-42107010D01*
X51208490Y-39727990D02*
X48099010Y-39727990D01*
X53517598Y-39009010D02*
X54236010Y-39009010D01*
X51273000Y-39792500D02*
X51208490Y-39727990D01*
X51371499Y-46685499D02*
X52289000Y-47603000D01*
X53212990Y-38168000D02*
X53212990Y-38704402D01*
X54413010Y-42107010D02*
X53149490Y-42107010D01*
X53212990Y-39991598D02*
X53212990Y-42043510D01*
X51273000Y-40828000D02*
X51273000Y-39792500D01*
X48099010Y-39727990D02*
X48099010Y-41315490D01*
X52543000Y-37868000D02*
X52843000Y-38168000D01*
X52949382Y-39727990D02*
X53212990Y-39991598D01*
X51371499Y-43885001D02*
X51371499Y-46685499D01*
X51273000Y-30668000D02*
X51273000Y-33379998D01*
X52416000Y-34522998D02*
X52416000Y-37316000D01*
X51273000Y-33379998D02*
X52416000Y-34522998D01*
X54236010Y-39009010D02*
X54413010Y-39186010D01*
X53212990Y-42043510D02*
X53149490Y-42107010D01*
%TD*%
%TA.AperFunction,Conductor*%
%TO.N,/plusBAT*%
G36*
X57184121Y-22096002D02*
G01*
X57230614Y-22149658D01*
X57242000Y-22202000D01*
X57242000Y-26853649D01*
X57221998Y-26921770D01*
X57209655Y-26937939D01*
X56136539Y-28130290D01*
X56076101Y-28167543D01*
X56042884Y-28172000D01*
X52976190Y-28172000D01*
X52908069Y-28151998D01*
X52887095Y-28135095D01*
X51563905Y-26811905D01*
X51529879Y-26749593D01*
X51527000Y-26722810D01*
X51527000Y-25886000D01*
X47157739Y-25886000D01*
X47089618Y-25865998D01*
X47043125Y-25812342D01*
X47031740Y-25759462D01*
X47039367Y-23973470D01*
X47042784Y-23173106D01*
X47063077Y-23105072D01*
X47116931Y-23058809D01*
X47168316Y-23047646D01*
X50170723Y-23036558D01*
X52300038Y-23028694D01*
X52368232Y-23048444D01*
X52389598Y-23065598D01*
X53014095Y-23690095D01*
X53048121Y-23752407D01*
X53051000Y-23779190D01*
X53051000Y-26584500D01*
X53559000Y-27219500D01*
X55591000Y-27029000D01*
X55972000Y-26521000D01*
X55972000Y-23981000D01*
X55591000Y-23600000D01*
X54828000Y-23600000D01*
X54759879Y-23579998D01*
X54713386Y-23526342D01*
X54702000Y-23474000D01*
X54702000Y-23219000D01*
X54586949Y-23065598D01*
X54331871Y-22725495D01*
X54331872Y-22725495D01*
X54321000Y-22711000D01*
X53992190Y-22711000D01*
X53924069Y-22690998D01*
X53903095Y-22674095D01*
X53849905Y-22620905D01*
X53815879Y-22558593D01*
X53813000Y-22531810D01*
X53813000Y-22202000D01*
X53833002Y-22133879D01*
X53886658Y-22087386D01*
X53939000Y-22076000D01*
X57116000Y-22076000D01*
X57184121Y-22096002D01*
G37*
%TD.AperFunction*%
%TD*%
%TA.AperFunction,Conductor*%
%TO.N,/Vout*%
G36*
X47482164Y-12698002D02*
G01*
X47499113Y-12711053D01*
X48656003Y-13769901D01*
X51209500Y-16107000D01*
X52986451Y-16107000D01*
X53054572Y-16127002D01*
X53101065Y-16180658D01*
X53112435Y-16235032D01*
X53051000Y-20044000D01*
X53051000Y-20363375D01*
X53030998Y-20431496D01*
X53002357Y-20462833D01*
X52493798Y-20858379D01*
X52479500Y-20869500D01*
X52479500Y-20997500D01*
X52459498Y-21065621D01*
X52405842Y-21112114D01*
X52353500Y-21123500D01*
X51579190Y-21123500D01*
X51511069Y-21103498D01*
X51490095Y-21086595D01*
X51436905Y-21033405D01*
X51402879Y-20971093D01*
X51400000Y-20944310D01*
X51400000Y-18647000D01*
X46193000Y-13757500D01*
X46065000Y-13757500D01*
X45996879Y-13737498D01*
X45950386Y-13683842D01*
X45939000Y-13631500D01*
X45939000Y-12804000D01*
X45959002Y-12735879D01*
X46012658Y-12689386D01*
X46065000Y-12678000D01*
X47414043Y-12678000D01*
X47482164Y-12698002D01*
G37*
%TD.AperFunction*%
%TD*%
%TA.AperFunction,Conductor*%
%TO.N,Net-(L1-Pad2)*%
G36*
X50783321Y-20267202D02*
G01*
X50829814Y-20320858D01*
X50841200Y-20373200D01*
X50841200Y-21136200D01*
X51031700Y-21326700D01*
X51382695Y-21326700D01*
X51452698Y-21347936D01*
X51475949Y-21363472D01*
X51475952Y-21363473D01*
X51486269Y-21370367D01*
X51498438Y-21372788D01*
X51498439Y-21372788D01*
X51538684Y-21380793D01*
X51544752Y-21382000D01*
X52175700Y-21382000D01*
X52243821Y-21402002D01*
X52290314Y-21455658D01*
X52301700Y-21508000D01*
X52301700Y-21708700D01*
X52281698Y-21776821D01*
X52228042Y-21823314D01*
X52175700Y-21834700D01*
X51158700Y-21834700D01*
X51143179Y-21845047D01*
X51143177Y-21845048D01*
X50808884Y-22067911D01*
X50740226Y-22089066D01*
X47712351Y-22118679D01*
X47284522Y-22124191D01*
X47216150Y-22105068D01*
X47168970Y-22052015D01*
X47156900Y-21998201D01*
X47156900Y-20373200D01*
X47176902Y-20305079D01*
X47230558Y-20258586D01*
X47282900Y-20247200D01*
X50715200Y-20247200D01*
X50783321Y-20267202D01*
G37*
%TD.AperFunction*%
%TD*%
%TA.AperFunction,Conductor*%
%TO.N,GND*%
G36*
X32219032Y-14051605D02*
G01*
X32275868Y-14094152D01*
X32300679Y-14160672D01*
X32301000Y-14169661D01*
X32301000Y-14659748D01*
X32312633Y-14718231D01*
X32356948Y-14784552D01*
X32423269Y-14828867D01*
X32435438Y-14831288D01*
X32435439Y-14831288D01*
X32475151Y-14839187D01*
X32481752Y-14840500D01*
X35868320Y-14840500D01*
X35936441Y-14860502D01*
X35982934Y-14914158D01*
X35993038Y-14984432D01*
X35963544Y-15049012D01*
X35954976Y-15057970D01*
X35688448Y-15310470D01*
X35625239Y-15342799D01*
X35601792Y-15345000D01*
X31887500Y-15345000D01*
X31819379Y-15324998D01*
X31772886Y-15271342D01*
X31761500Y-15219000D01*
X31761500Y-14457161D01*
X31781502Y-14389040D01*
X31798405Y-14368066D01*
X32085905Y-14080566D01*
X32148217Y-14046540D01*
X32219032Y-14051605D01*
G37*
%TD.AperFunction*%
%TA.AperFunction,Conductor*%
G36*
X32858201Y-9226750D02*
G01*
X35412859Y-9248584D01*
X35480805Y-9269167D01*
X35497241Y-9281991D01*
X35834708Y-9593500D01*
X36223953Y-9952803D01*
X36260442Y-10013705D01*
X36264490Y-10045388D01*
X36264490Y-11623168D01*
X36263617Y-11637977D01*
X36259626Y-11671698D01*
X36261318Y-11680962D01*
X36261318Y-11680963D01*
X36270162Y-11729389D01*
X36270812Y-11733292D01*
X36279541Y-11791350D01*
X36282094Y-11796666D01*
X36283506Y-11802448D01*
X36283965Y-11804962D01*
X36282790Y-11805177D01*
X36287000Y-11830473D01*
X36287000Y-11953896D01*
X36266998Y-12022017D01*
X36213342Y-12068510D01*
X36143068Y-12078614D01*
X36101548Y-12062703D01*
X36101517Y-12062777D01*
X36098764Y-12061637D01*
X36090996Y-12058660D01*
X36090048Y-12058026D01*
X36090045Y-12058025D01*
X36079731Y-12051133D01*
X36067562Y-12048712D01*
X36067561Y-12048712D01*
X36027316Y-12040707D01*
X36021248Y-12039500D01*
X35123500Y-12039500D01*
X35055379Y-12019498D01*
X35008886Y-11965842D01*
X34997500Y-11913500D01*
X34997500Y-11543060D01*
X35017502Y-11474939D01*
X35071158Y-11428446D01*
X35081752Y-11424177D01*
X35160184Y-11396634D01*
X35167754Y-11391042D01*
X35167757Y-11391041D01*
X35261579Y-11321742D01*
X35269150Y-11316150D01*
X35281665Y-11299206D01*
X35344041Y-11214757D01*
X35344042Y-11214754D01*
X35349634Y-11207184D01*
X35394519Y-11079369D01*
X35397500Y-11047834D01*
X35397500Y-9990166D01*
X35395806Y-9972248D01*
X35395242Y-9966278D01*
X35395242Y-9966277D01*
X35394519Y-9958631D01*
X35349634Y-9830816D01*
X35344042Y-9823246D01*
X35344041Y-9823243D01*
X35274742Y-9729421D01*
X35269150Y-9721850D01*
X35252206Y-9709335D01*
X35167757Y-9646959D01*
X35167754Y-9646958D01*
X35160184Y-9641366D01*
X35032369Y-9596481D01*
X35024723Y-9595758D01*
X35024722Y-9595758D01*
X35018752Y-9595194D01*
X35000834Y-9593500D01*
X34393166Y-9593500D01*
X34375248Y-9595194D01*
X34369278Y-9595758D01*
X34369277Y-9595758D01*
X34361631Y-9596481D01*
X34233816Y-9641366D01*
X34226246Y-9646958D01*
X34226243Y-9646959D01*
X34141794Y-9709335D01*
X34124850Y-9721850D01*
X34119258Y-9729421D01*
X34049959Y-9823243D01*
X34049958Y-9823246D01*
X34044366Y-9830816D01*
X33999481Y-9958631D01*
X33998758Y-9966277D01*
X33998758Y-9966278D01*
X33998194Y-9972248D01*
X33996500Y-9990166D01*
X33996500Y-11047834D01*
X33999481Y-11079369D01*
X34044366Y-11207184D01*
X34049958Y-11214754D01*
X34049959Y-11214757D01*
X34112335Y-11299206D01*
X34124850Y-11316150D01*
X34132421Y-11321742D01*
X34226243Y-11391041D01*
X34226246Y-11391042D01*
X34233816Y-11396634D01*
X34312248Y-11424177D01*
X34369894Y-11465620D01*
X34395982Y-11531650D01*
X34396500Y-11543060D01*
X34396500Y-11913500D01*
X34376498Y-11981621D01*
X34322842Y-12028114D01*
X34270500Y-12039500D01*
X32481752Y-12039500D01*
X32475684Y-12040707D01*
X32435439Y-12048712D01*
X32435438Y-12048712D01*
X32423269Y-12051133D01*
X32356948Y-12095448D01*
X32312633Y-12161769D01*
X32301000Y-12220252D01*
X32301000Y-13029688D01*
X32280998Y-13097809D01*
X32227342Y-13144302D01*
X32211869Y-13149194D01*
X32202883Y-13152661D01*
X32191447Y-13154791D01*
X32181546Y-13160894D01*
X32181544Y-13160895D01*
X32170461Y-13167727D01*
X32154079Y-13176236D01*
X32150717Y-13177681D01*
X32139613Y-13182451D01*
X32139611Y-13182452D01*
X32131437Y-13185964D01*
X32126551Y-13189978D01*
X32124371Y-13192158D01*
X32122103Y-13194215D01*
X32121958Y-13194055D01*
X32112951Y-13201175D01*
X32106056Y-13207427D01*
X32096152Y-13213532D01*
X32079584Y-13235320D01*
X32068390Y-13248139D01*
X31285548Y-14030981D01*
X31283514Y-14032737D01*
X31278731Y-14035075D01*
X31270819Y-14043604D01*
X31270818Y-14043605D01*
X31245427Y-14070977D01*
X31242147Y-14074382D01*
X31228752Y-14087777D01*
X31226029Y-14091747D01*
X31223708Y-14094389D01*
X31220382Y-14097975D01*
X31159392Y-14134319D01*
X31088436Y-14131919D01*
X31030041Y-14091539D01*
X31002748Y-14025999D01*
X31002000Y-14012292D01*
X31002000Y-12220252D01*
X30990367Y-12161769D01*
X30946052Y-12095448D01*
X30879731Y-12051133D01*
X30867562Y-12048712D01*
X30867561Y-12048712D01*
X30827316Y-12040707D01*
X30821248Y-12039500D01*
X28969000Y-12039500D01*
X28900879Y-12019498D01*
X28854386Y-11965842D01*
X28843000Y-11913500D01*
X28843000Y-11543060D01*
X28863002Y-11474939D01*
X28916658Y-11428446D01*
X28927252Y-11424177D01*
X29005684Y-11396634D01*
X29013254Y-11391042D01*
X29013257Y-11391041D01*
X29107079Y-11321742D01*
X29114650Y-11316150D01*
X29127165Y-11299206D01*
X29189541Y-11214757D01*
X29189542Y-11214754D01*
X29195134Y-11207184D01*
X29240019Y-11079369D01*
X29243000Y-11047834D01*
X29243000Y-9990166D01*
X29241306Y-9972248D01*
X29240742Y-9966278D01*
X29240742Y-9966277D01*
X29240019Y-9958631D01*
X29195134Y-9830816D01*
X29189542Y-9823246D01*
X29189541Y-9823243D01*
X29120242Y-9729421D01*
X29114650Y-9721850D01*
X29097706Y-9709335D01*
X29013257Y-9646959D01*
X29013254Y-9646958D01*
X29005684Y-9641366D01*
X28877869Y-9596481D01*
X28870223Y-9595758D01*
X28870222Y-9595758D01*
X28864252Y-9595194D01*
X28846334Y-9593500D01*
X28238666Y-9593500D01*
X28220748Y-9595194D01*
X28214778Y-9595758D01*
X28214777Y-9595758D01*
X28207131Y-9596481D01*
X28079316Y-9641366D01*
X28071746Y-9646958D01*
X28071743Y-9646959D01*
X27987294Y-9709335D01*
X27970350Y-9721850D01*
X27964758Y-9729421D01*
X27895459Y-9823243D01*
X27895458Y-9823246D01*
X27889866Y-9830816D01*
X27844981Y-9958631D01*
X27844258Y-9966277D01*
X27844258Y-9966278D01*
X27843694Y-9972248D01*
X27842000Y-9990166D01*
X27842000Y-11047834D01*
X27844981Y-11079369D01*
X27889866Y-11207184D01*
X27895458Y-11214754D01*
X27895459Y-11214757D01*
X27957835Y-11299206D01*
X27970350Y-11316150D01*
X27977921Y-11321742D01*
X28071743Y-11391041D01*
X28071746Y-11391042D01*
X28079316Y-11396634D01*
X28157748Y-11424177D01*
X28215394Y-11465620D01*
X28241482Y-11531650D01*
X28242000Y-11543060D01*
X28242000Y-11913500D01*
X28221998Y-11981621D01*
X28168342Y-12028114D01*
X28116000Y-12039500D01*
X27281752Y-12039500D01*
X27230081Y-12049778D01*
X27159367Y-12043450D01*
X27103300Y-11999896D01*
X27079500Y-11926199D01*
X27079500Y-10312641D01*
X27099502Y-10244520D01*
X27111020Y-10229277D01*
X27993951Y-9228623D01*
X28054020Y-9190777D01*
X28089508Y-9185992D01*
X32858201Y-9226750D01*
G37*
%TD.AperFunction*%
%TD*%
%TA.AperFunction,Conductor*%
%TO.N,GND*%
G36*
X55114743Y-16509162D02*
G01*
X55407892Y-16704595D01*
X55453477Y-16759024D01*
X55464000Y-16809433D01*
X55464000Y-20618441D01*
X55443998Y-20686562D01*
X55416712Y-20716830D01*
X54863514Y-21159389D01*
X54797825Y-21186325D01*
X54784802Y-21187000D01*
X53813000Y-21187000D01*
X53727102Y-21229949D01*
X53704666Y-21237634D01*
X53698443Y-21240211D01*
X53686269Y-21242633D01*
X53675952Y-21249526D01*
X53675951Y-21249527D01*
X53646870Y-21268959D01*
X53633216Y-21276892D01*
X53559000Y-21314000D01*
X53559000Y-22711000D01*
X53813000Y-22965000D01*
X54126567Y-22965000D01*
X54194688Y-22985002D01*
X54231405Y-23021108D01*
X54426838Y-23314257D01*
X54448000Y-23384149D01*
X54448000Y-23854000D01*
X55411810Y-23854000D01*
X55479931Y-23874002D01*
X55500905Y-23890905D01*
X55681095Y-24071095D01*
X55715121Y-24133407D01*
X55718000Y-24160190D01*
X55718000Y-26468810D01*
X55697998Y-26536931D01*
X55681095Y-26557905D01*
X55500905Y-26738095D01*
X55438593Y-26772121D01*
X55411810Y-26775000D01*
X53715745Y-26775000D01*
X53659396Y-26761698D01*
X53580640Y-26722320D01*
X53547894Y-26698717D01*
X53468905Y-26619728D01*
X53434879Y-26557416D01*
X53432000Y-26530633D01*
X53432000Y-23600000D01*
X52416000Y-22584000D01*
X51653000Y-22584000D01*
X51584879Y-22563998D01*
X51538386Y-22510342D01*
X51527000Y-22458000D01*
X51527000Y-22265500D01*
X51547002Y-22197379D01*
X51600658Y-22150886D01*
X51653000Y-22139500D01*
X52797000Y-22139500D01*
X52797000Y-21239190D01*
X52817002Y-21171069D01*
X52833905Y-21150095D01*
X53305000Y-20679000D01*
X53305000Y-16794190D01*
X53325002Y-16726069D01*
X53341905Y-16705095D01*
X53522095Y-16524905D01*
X53584407Y-16490879D01*
X53611190Y-16488000D01*
X55044851Y-16488000D01*
X55114743Y-16509162D01*
G37*
%TD.AperFunction*%
%TD*%
M02*
