%TF.GenerationSoftware,KiCad,Pcbnew,6.0.11-2627ca5db0~126~ubuntu22.04.1*%
%TF.CreationDate,2024-02-09T09:37:32+01:00*%
%TF.ProjectId,I2C_Module_SHT45_BME280_small_FUEL4EP,4932435f-4d6f-4647-956c-655f53485434,V1.2*%
%TF.SameCoordinates,Original*%
%TF.FileFunction,Copper,L2,Bot*%
%TF.FilePolarity,Positive*%
%FSLAX46Y46*%
G04 Gerber Fmt 4.6, Leading zero omitted, Abs format (unit mm)*
G04 Created by KiCad (PCBNEW 6.0.11-2627ca5db0~126~ubuntu22.04.1) date 2024-02-09 09:37:32*
%MOMM*%
%LPD*%
G01*
G04 APERTURE LIST*
%TA.AperFunction,ComponentPad*%
%ADD10R,1.700000X1.700000*%
%TD*%
%TA.AperFunction,ComponentPad*%
%ADD11O,1.700000X1.700000*%
%TD*%
%TA.AperFunction,ViaPad*%
%ADD12C,0.600000*%
%TD*%
%TA.AperFunction,Conductor*%
%ADD13C,0.400000*%
%TD*%
%TA.AperFunction,Conductor*%
%ADD14C,0.250000*%
%TD*%
G04 APERTURE END LIST*
D10*
%TO.P,J1,1,Pin_1*%
%TO.N,VCC*%
X19812000Y2032000D03*
D11*
%TO.P,J1,2,Pin_2*%
%TO.N,GND*%
X19812000Y4572000D03*
%TO.P,J1,3,Pin_3*%
%TO.N,/SCL*%
X19812000Y7112000D03*
%TO.P,J1,4,Pin_4*%
%TO.N,/SDA*%
X19812000Y9652000D03*
%TD*%
D12*
%TO.N,VCC*%
X9794735Y8935823D03*
X1524000Y10922000D03*
X889000Y15240000D03*
X3445000Y6675000D03*
X12942500Y7696884D03*
X6888742Y6831258D03*
%TO.N,GND*%
X861500Y6885500D03*
X8878500Y7282551D03*
X3772178Y11675500D03*
X17700000Y6260000D03*
X5539014Y8491742D03*
X1905000Y13081000D03*
X15930000Y8030000D03*
X2220000Y9000000D03*
%TO.N,/SCL*%
X9300000Y4826000D03*
X11920000Y5600000D03*
%TO.N,/SDA*%
X16615000Y10182000D03*
X10570000Y9950000D03*
X18034000Y10160000D03*
X10570000Y15050000D03*
%TO.N,VDDA*%
X2505000Y10597577D03*
X2574500Y12000000D03*
X4420000Y9400000D03*
X6915802Y8104198D03*
%TD*%
D13*
%TO.N,VCC*%
X9794735Y8935823D02*
X11703561Y8935823D01*
X3601258Y6831258D02*
X3445000Y6675000D01*
X11703561Y8935823D02*
X12942500Y7696884D01*
X1524000Y10922000D02*
X889000Y11557000D01*
X889000Y11557000D02*
X889000Y15240000D01*
X6888742Y6831258D02*
X3601258Y6831258D01*
D14*
%TO.N,/SCL*%
X9300000Y4826000D02*
X10074000Y5600000D01*
X10074000Y5600000D02*
X11920000Y5600000D01*
%TO.N,/SDA*%
X16615000Y10182000D02*
X18012000Y10182000D01*
X18012000Y10182000D02*
X18034000Y10160000D01*
X10570000Y15050000D02*
X10570000Y9950000D01*
D13*
%TO.N,VDDA*%
X2520000Y11945500D02*
X2574500Y12000000D01*
X5620000Y9400000D02*
X6915802Y8104198D01*
X2520000Y10619423D02*
X2520000Y10612577D01*
X2520000Y10619423D02*
X2501577Y10601000D01*
X2520000Y10612577D02*
X2505000Y10597577D01*
X4420000Y9400000D02*
X5620000Y9400000D01*
X2520000Y10619423D02*
X2520000Y11945500D01*
%TD*%
%TA.AperFunction,Conductor*%
%TO.N,GND*%
G36*
X21433621Y16471498D02*
G01*
X21480114Y16417842D01*
X21491500Y16365500D01*
X21491500Y4029474D01*
X21491496Y4028490D01*
X21464981Y634500D01*
X21464973Y633516D01*
X21444440Y565553D01*
X21390422Y519481D01*
X21338977Y508500D01*
X20989528Y508500D01*
X20921407Y528502D01*
X20874914Y582158D01*
X20864810Y652432D01*
X20894304Y717012D01*
X20913963Y735326D01*
X21018081Y813358D01*
X21025261Y818739D01*
X21112615Y935295D01*
X21163745Y1071684D01*
X21170500Y1133866D01*
X21170500Y2930134D01*
X21163745Y2992316D01*
X21112615Y3128705D01*
X21025261Y3245261D01*
X20908705Y3332615D01*
X20789687Y3377233D01*
X20732923Y3419875D01*
X20708223Y3486436D01*
X20723430Y3555785D01*
X20744977Y3584465D01*
X20846052Y3685188D01*
X20852730Y3693035D01*
X20977003Y3865980D01*
X20982313Y3874817D01*
X21076670Y4065733D01*
X21080469Y4075328D01*
X21142377Y4279090D01*
X21144555Y4289163D01*
X21145986Y4300038D01*
X21143775Y4314222D01*
X21130617Y4318000D01*
X18495225Y4318000D01*
X18481694Y4314027D01*
X18480257Y4304034D01*
X18510565Y4169554D01*
X18513645Y4159725D01*
X18593770Y3962397D01*
X18598413Y3953206D01*
X18709694Y3771612D01*
X18715777Y3763301D01*
X18855213Y3602333D01*
X18862577Y3595121D01*
X18867522Y3591015D01*
X18907156Y3532111D01*
X18908653Y3461130D01*
X18871537Y3400608D01*
X18831264Y3376090D01*
X18723705Y3335768D01*
X18723704Y3335767D01*
X18715295Y3332615D01*
X18598739Y3245261D01*
X18511385Y3128705D01*
X18460255Y2992316D01*
X18453500Y2930134D01*
X18453500Y1133866D01*
X18460255Y1071684D01*
X18511385Y935295D01*
X18598739Y818739D01*
X18605919Y813358D01*
X18710037Y735326D01*
X18752552Y678467D01*
X18757578Y607648D01*
X18723518Y545355D01*
X18661187Y511365D01*
X18634472Y508500D01*
X15854500Y508500D01*
X15786379Y528502D01*
X15739886Y582158D01*
X15728500Y634500D01*
X15728500Y5991377D01*
X15728502Y5992147D01*
X15728714Y6026833D01*
X15728976Y6069721D01*
X15720850Y6098153D01*
X15717272Y6114915D01*
X15714352Y6135302D01*
X15713080Y6144187D01*
X15702451Y6167564D01*
X15696004Y6185087D01*
X15695738Y6186018D01*
X15688949Y6209771D01*
X15683458Y6218474D01*
X15673170Y6234780D01*
X15665030Y6249865D01*
X15652792Y6276782D01*
X15646930Y6283585D01*
X15642095Y6291146D01*
X15644882Y6292928D01*
X15622233Y6342894D01*
X15621000Y6360475D01*
X15621000Y6477000D01*
X15428724Y6477000D01*
X15387334Y6486233D01*
X15386909Y6484842D01*
X15378324Y6487467D01*
X15370200Y6491281D01*
X15361333Y6492662D01*
X15361332Y6492662D01*
X15350478Y6494352D01*
X15340983Y6495830D01*
X15324268Y6499613D01*
X15304534Y6505515D01*
X15304528Y6505516D01*
X15295934Y6508086D01*
X15286963Y6508141D01*
X15286962Y6508141D01*
X15276903Y6508202D01*
X15261494Y6508296D01*
X15260711Y6508329D01*
X15259614Y6508500D01*
X15228623Y6508500D01*
X15227853Y6508502D01*
X15154215Y6508952D01*
X15154214Y6508952D01*
X15150279Y6508976D01*
X15148935Y6508592D01*
X15147590Y6508500D01*
X13228623Y6508500D01*
X13227853Y6508502D01*
X13227037Y6508507D01*
X13150279Y6508976D01*
X13127918Y6502585D01*
X13121847Y6500850D01*
X13105085Y6497272D01*
X13075813Y6493080D01*
X13067644Y6489366D01*
X13067641Y6489365D01*
X13065299Y6488300D01*
X13060280Y6487212D01*
X13059023Y6486845D01*
X13058997Y6486934D01*
X13013147Y6477000D01*
X8128724Y6477000D01*
X8087334Y6486233D01*
X8086909Y6484842D01*
X8078324Y6487467D01*
X8070200Y6491281D01*
X8061333Y6492662D01*
X8061332Y6492662D01*
X8050478Y6494352D01*
X8040983Y6495830D01*
X8024268Y6499613D01*
X8004534Y6505515D01*
X8004528Y6505516D01*
X7995934Y6508086D01*
X7986963Y6508141D01*
X7986962Y6508141D01*
X7976903Y6508202D01*
X7961494Y6508296D01*
X7960711Y6508329D01*
X7959614Y6508500D01*
X7928623Y6508500D01*
X7927853Y6508502D01*
X7854215Y6508952D01*
X7854214Y6508952D01*
X7850279Y6508976D01*
X7848935Y6508592D01*
X7847590Y6508500D01*
X7804820Y6508500D01*
X7736699Y6528502D01*
X7690206Y6582158D01*
X7680046Y6652036D01*
X7701490Y6804618D01*
X7701490Y6804623D01*
X7702041Y6808541D01*
X7702358Y6831258D01*
X7682139Y7011513D01*
X7675653Y7030139D01*
X7624806Y7176152D01*
X7624804Y7176155D01*
X7622487Y7182810D01*
X7615397Y7194157D01*
X7530101Y7330660D01*
X7526368Y7336634D01*
X7498372Y7364826D01*
X7464565Y7427256D01*
X7469877Y7498054D01*
X7500886Y7544856D01*
X7539068Y7581216D01*
X7639445Y7732296D01*
X7694466Y7877139D01*
X7701357Y7895278D01*
X7701358Y7895280D01*
X7703857Y7901860D01*
X7704837Y7908832D01*
X7728550Y8077559D01*
X7728550Y8077562D01*
X7729101Y8081481D01*
X7729418Y8104198D01*
X7709199Y8284453D01*
X7701929Y8305331D01*
X7651866Y8449092D01*
X7651864Y8449095D01*
X7649547Y8455750D01*
X7599797Y8535368D01*
X7557161Y8603600D01*
X7553428Y8609574D01*
X7506455Y8656876D01*
X7430580Y8733283D01*
X7430576Y8733286D01*
X7425617Y8738280D01*
X7380893Y8766663D01*
X7366340Y8775898D01*
X7272468Y8835471D01*
X7165710Y8873486D01*
X7118880Y8903090D01*
X7074787Y8947183D01*
X8981198Y8947183D01*
X8998898Y8766663D01*
X9056153Y8594550D01*
X9059800Y8588528D01*
X9059801Y8588526D01*
X9144245Y8449092D01*
X9150115Y8439399D01*
X9155004Y8434336D01*
X9155005Y8434335D01*
X9166278Y8422662D01*
X9276117Y8308921D01*
X9427894Y8209601D01*
X9434498Y8207145D01*
X9434500Y8207144D01*
X9591293Y8148833D01*
X9591295Y8148833D01*
X9597903Y8146375D01*
X9681730Y8135190D01*
X9770715Y8123316D01*
X9770719Y8123316D01*
X9777696Y8122385D01*
X9784707Y8123023D01*
X9784711Y8123023D01*
X9927194Y8135991D01*
X9958335Y8138825D01*
X9965037Y8141003D01*
X9965039Y8141003D01*
X10124144Y8192699D01*
X10124147Y8192700D01*
X10130843Y8194876D01*
X10155462Y8209552D01*
X10219980Y8227323D01*
X11357900Y8227323D01*
X11426021Y8207321D01*
X11446996Y8190418D01*
X12144034Y7493379D01*
X12174496Y7444056D01*
X12203918Y7355611D01*
X12207565Y7349589D01*
X12207566Y7349587D01*
X12219745Y7329478D01*
X12297880Y7200460D01*
X12302769Y7195397D01*
X12302770Y7195396D01*
X12317857Y7179773D01*
X12423882Y7069982D01*
X12575659Y6970662D01*
X12582263Y6968206D01*
X12582265Y6968205D01*
X12739058Y6909894D01*
X12739060Y6909894D01*
X12745668Y6907436D01*
X12829495Y6896251D01*
X12918480Y6884377D01*
X12918484Y6884377D01*
X12925461Y6883446D01*
X12932472Y6884084D01*
X12932476Y6884084D01*
X13074959Y6897052D01*
X13106100Y6899886D01*
X13112802Y6902064D01*
X13112804Y6902064D01*
X13271909Y6953760D01*
X13271912Y6953761D01*
X13278608Y6955937D01*
X13414193Y7036762D01*
X13428360Y7045207D01*
X13428362Y7045208D01*
X13434412Y7048815D01*
X13565766Y7173902D01*
X13666143Y7324982D01*
X13720231Y7467367D01*
X13728055Y7487964D01*
X13728056Y7487966D01*
X13730555Y7494546D01*
X13732930Y7511447D01*
X13755248Y7670245D01*
X13755248Y7670248D01*
X13755799Y7674167D01*
X13756116Y7696884D01*
X13735897Y7877139D01*
X13733580Y7883793D01*
X13678564Y8041778D01*
X13678562Y8041781D01*
X13676245Y8048436D01*
X13624426Y8131365D01*
X13583859Y8196286D01*
X13580126Y8202260D01*
X13569005Y8213459D01*
X13457278Y8325969D01*
X13457274Y8325972D01*
X13452315Y8330966D01*
X13299166Y8428157D01*
X13192408Y8466172D01*
X13145578Y8495776D01*
X12225011Y9416343D01*
X12219157Y9422608D01*
X12200382Y9444130D01*
X12181122Y9466208D01*
X12128841Y9502952D01*
X12123547Y9506884D01*
X12079254Y9541614D01*
X12073279Y9546299D01*
X12066363Y9549422D01*
X12064077Y9550806D01*
X12049396Y9559180D01*
X12047036Y9560445D01*
X12040822Y9564813D01*
X12033743Y9567573D01*
X12033741Y9567574D01*
X11981286Y9588025D01*
X11975217Y9590576D01*
X11916988Y9616868D01*
X11909521Y9618252D01*
X11906966Y9619053D01*
X11890713Y9623682D01*
X11888133Y9624345D01*
X11881052Y9627105D01*
X11873521Y9628096D01*
X11873519Y9628097D01*
X11843900Y9631996D01*
X11817700Y9635445D01*
X11811202Y9636475D01*
X11748375Y9648119D01*
X11740795Y9647682D01*
X11740794Y9647682D01*
X11686169Y9644532D01*
X11678915Y9644323D01*
X11488478Y9644323D01*
X11420357Y9664325D01*
X11373864Y9717981D01*
X11363704Y9787859D01*
X11365662Y9801787D01*
X11380632Y9908307D01*
X11382748Y9923361D01*
X11382748Y9923364D01*
X11383299Y9927283D01*
X11383616Y9950000D01*
X11363397Y10130255D01*
X11361080Y10136909D01*
X11341422Y10193360D01*
X15801463Y10193360D01*
X15819163Y10012840D01*
X15876418Y9840727D01*
X15880065Y9834705D01*
X15880066Y9834703D01*
X15932780Y9747662D01*
X15970380Y9685576D01*
X15975269Y9680513D01*
X15975270Y9680512D01*
X16010016Y9644532D01*
X16096382Y9555098D01*
X16248159Y9455778D01*
X16254763Y9453322D01*
X16254765Y9453321D01*
X16411558Y9395010D01*
X16411560Y9395010D01*
X16418168Y9392552D01*
X16501995Y9381367D01*
X16590980Y9369493D01*
X16590984Y9369493D01*
X16597961Y9368562D01*
X16604972Y9369200D01*
X16604976Y9369200D01*
X16747459Y9382168D01*
X16778600Y9385002D01*
X16785302Y9387180D01*
X16785304Y9387180D01*
X16944409Y9438876D01*
X16944412Y9438877D01*
X16951108Y9441053D01*
X17101540Y9530729D01*
X17166058Y9548500D01*
X17454283Y9548500D01*
X17523276Y9527932D01*
X17659368Y9438876D01*
X17667159Y9433778D01*
X17673763Y9431322D01*
X17673765Y9431321D01*
X17830558Y9373010D01*
X17830560Y9373010D01*
X17837168Y9370552D01*
X17920995Y9359367D01*
X18009980Y9347493D01*
X18009984Y9347493D01*
X18016961Y9346562D01*
X18023972Y9347200D01*
X18023976Y9347200D01*
X18166459Y9360168D01*
X18197600Y9363002D01*
X18204300Y9365179D01*
X18204305Y9365180D01*
X18333447Y9407141D01*
X18404415Y9409168D01*
X18465213Y9372506D01*
X18495300Y9315010D01*
X18499227Y9297585D01*
X18511222Y9244361D01*
X18549461Y9150189D01*
X18589046Y9052703D01*
X18595266Y9037384D01*
X18597965Y9032980D01*
X18689866Y8883011D01*
X18711987Y8846912D01*
X18858250Y8678062D01*
X19030126Y8535368D01*
X19097880Y8495776D01*
X19103445Y8492524D01*
X19152169Y8440886D01*
X19165240Y8371103D01*
X19138509Y8305331D01*
X19098055Y8271973D01*
X19085607Y8265493D01*
X19081474Y8262390D01*
X19081471Y8262388D01*
X18911100Y8134470D01*
X18906965Y8131365D01*
X18752629Y7969862D01*
X18626743Y7785320D01*
X18532688Y7582695D01*
X18472989Y7367430D01*
X18449251Y7145305D01*
X18449548Y7140152D01*
X18449548Y7140149D01*
X18456965Y7011513D01*
X18462110Y6922285D01*
X18463247Y6917239D01*
X18463248Y6917233D01*
X18476299Y6859325D01*
X18511222Y6704361D01*
X18549461Y6610189D01*
X18590834Y6508300D01*
X18595266Y6497384D01*
X18625169Y6448587D01*
X18697059Y6331273D01*
X18711987Y6306912D01*
X18858250Y6138062D01*
X19030126Y5995368D01*
X19036198Y5991820D01*
X19103955Y5952226D01*
X19152679Y5900588D01*
X19165750Y5830805D01*
X19139019Y5765033D01*
X19098562Y5731673D01*
X19090457Y5727454D01*
X19081738Y5721964D01*
X18911433Y5594095D01*
X18903726Y5587252D01*
X18756590Y5433283D01*
X18750104Y5425273D01*
X18630098Y5249351D01*
X18625000Y5240377D01*
X18535338Y5047217D01*
X18531775Y5037530D01*
X18476389Y4837817D01*
X18477912Y4829393D01*
X18490292Y4826000D01*
X21130344Y4826000D01*
X21143875Y4829973D01*
X21145180Y4839053D01*
X21103214Y5006125D01*
X21099894Y5015876D01*
X21014972Y5211186D01*
X21010105Y5220261D01*
X20894426Y5399074D01*
X20888136Y5407243D01*
X20744806Y5564760D01*
X20737273Y5571785D01*
X20570139Y5703778D01*
X20561556Y5709480D01*
X20524602Y5729880D01*
X20474631Y5780313D01*
X20459859Y5849755D01*
X20484975Y5916161D01*
X20512327Y5942768D01*
X20535797Y5959509D01*
X20691860Y6070827D01*
X20699412Y6078352D01*
X20846435Y6224863D01*
X20850096Y6228511D01*
X20859170Y6241138D01*
X20977435Y6405723D01*
X20980453Y6409923D01*
X20991756Y6432792D01*
X21077136Y6605547D01*
X21077137Y6605549D01*
X21079430Y6610189D01*
X21144370Y6823931D01*
X21173529Y7045410D01*
X21174035Y7066124D01*
X21175074Y7108635D01*
X21175074Y7108639D01*
X21175156Y7112000D01*
X21156852Y7334639D01*
X21102431Y7551298D01*
X21013354Y7756160D01*
X20935089Y7877139D01*
X20894822Y7939383D01*
X20894820Y7939386D01*
X20892014Y7943723D01*
X20741670Y8108949D01*
X20737619Y8112148D01*
X20737615Y8112152D01*
X20570414Y8244200D01*
X20570410Y8244202D01*
X20566359Y8247402D01*
X20525053Y8270204D01*
X20475084Y8320636D01*
X20460312Y8390079D01*
X20485428Y8456484D01*
X20512780Y8483091D01*
X20556603Y8514350D01*
X20691860Y8610827D01*
X20743874Y8662659D01*
X20846435Y8764863D01*
X20850096Y8768511D01*
X20899912Y8837837D01*
X20977435Y8945723D01*
X20980453Y8949923D01*
X21079430Y9150189D01*
X21122200Y9290962D01*
X21142865Y9358977D01*
X21142865Y9358979D01*
X21144370Y9363931D01*
X21173529Y9585410D01*
X21173622Y9589222D01*
X21175074Y9648635D01*
X21175074Y9648639D01*
X21175156Y9652000D01*
X21156852Y9874639D01*
X21102431Y10091298D01*
X21013354Y10296160D01*
X20892014Y10483723D01*
X20741670Y10648949D01*
X20737619Y10652148D01*
X20737615Y10652152D01*
X20570414Y10784200D01*
X20570410Y10784202D01*
X20566359Y10787402D01*
X20370789Y10895362D01*
X20365920Y10897086D01*
X20365916Y10897088D01*
X20165087Y10968205D01*
X20165083Y10968206D01*
X20160212Y10969931D01*
X20155119Y10970838D01*
X20155116Y10970839D01*
X19945373Y11008200D01*
X19945367Y11008201D01*
X19940284Y11009106D01*
X19866452Y11010008D01*
X19722081Y11011772D01*
X19722079Y11011772D01*
X19716911Y11011835D01*
X19496091Y10978045D01*
X19283756Y10908643D01*
X19250389Y10891273D01*
X19126603Y10826834D01*
X19085607Y10805493D01*
X19081474Y10802390D01*
X19081471Y10802388D01*
X18932193Y10690307D01*
X18906965Y10671365D01*
X18903392Y10667626D01*
X18874430Y10637320D01*
X18812905Y10601890D01*
X18741993Y10605348D01*
X18684207Y10646595D01*
X18676492Y10657589D01*
X18671626Y10665376D01*
X18665679Y10671365D01*
X18548778Y10789085D01*
X18548774Y10789088D01*
X18543815Y10794082D01*
X18509149Y10816082D01*
X18479157Y10835115D01*
X18390666Y10891273D01*
X18341885Y10908643D01*
X18226425Y10949757D01*
X18226420Y10949758D01*
X18219790Y10952119D01*
X18212802Y10952952D01*
X18212799Y10952953D01*
X18070415Y10969931D01*
X18039680Y10973596D01*
X18032677Y10972860D01*
X18032676Y10972860D01*
X17866288Y10955372D01*
X17866286Y10955371D01*
X17859288Y10954636D01*
X17687579Y10896182D01*
X17586800Y10834182D01*
X17520780Y10815500D01*
X17162338Y10815500D01*
X17094824Y10835115D01*
X17012287Y10887494D01*
X16971666Y10913273D01*
X16909161Y10935530D01*
X16807425Y10971757D01*
X16807420Y10971758D01*
X16800790Y10974119D01*
X16793802Y10974952D01*
X16793799Y10974953D01*
X16670698Y10989632D01*
X16620680Y10995596D01*
X16613677Y10994860D01*
X16613676Y10994860D01*
X16447288Y10977372D01*
X16447286Y10977371D01*
X16440288Y10976636D01*
X16268579Y10918182D01*
X16224839Y10891273D01*
X16120095Y10826834D01*
X16120092Y10826832D01*
X16114088Y10823138D01*
X16109053Y10818207D01*
X16109050Y10818205D01*
X16067823Y10777832D01*
X15984493Y10696229D01*
X15886235Y10543762D01*
X15883826Y10537142D01*
X15883824Y10537139D01*
X15841375Y10420512D01*
X15824197Y10373315D01*
X15801463Y10193360D01*
X11341422Y10193360D01*
X11306064Y10294894D01*
X11306062Y10294897D01*
X11303745Y10301552D01*
X11249316Y10388657D01*
X11222646Y10431339D01*
X11203500Y10498108D01*
X11203500Y14504380D01*
X11224552Y14574107D01*
X11289742Y14672227D01*
X11293643Y14678098D01*
X11358055Y14847662D01*
X11360927Y14868098D01*
X11382748Y15023361D01*
X11382748Y15023364D01*
X11383299Y15027283D01*
X11383616Y15050000D01*
X11363397Y15230255D01*
X11361080Y15236909D01*
X11306064Y15394894D01*
X11306062Y15394897D01*
X11303745Y15401552D01*
X11207626Y15555376D01*
X11193941Y15569157D01*
X11084778Y15679085D01*
X11084774Y15679088D01*
X11079815Y15684082D01*
X11068697Y15691138D01*
X10992644Y15739402D01*
X10926666Y15781273D01*
X10897463Y15791672D01*
X10762425Y15839757D01*
X10762420Y15839758D01*
X10755790Y15842119D01*
X10748802Y15842952D01*
X10748799Y15842953D01*
X10625698Y15857632D01*
X10575680Y15863596D01*
X10568677Y15862860D01*
X10568676Y15862860D01*
X10402288Y15845372D01*
X10402286Y15845371D01*
X10395288Y15844636D01*
X10223579Y15786182D01*
X10217575Y15782488D01*
X10075095Y15694834D01*
X10075092Y15694832D01*
X10069088Y15691138D01*
X10064053Y15686207D01*
X10064050Y15686205D01*
X9967394Y15591552D01*
X9939493Y15564229D01*
X9841235Y15411762D01*
X9838826Y15405142D01*
X9838824Y15405139D01*
X9781606Y15247934D01*
X9779197Y15241315D01*
X9756463Y15061360D01*
X9774163Y14880840D01*
X9831418Y14708727D01*
X9835065Y14702705D01*
X9835066Y14702703D01*
X9918276Y14565306D01*
X9936500Y14500035D01*
X9936500Y10496669D01*
X9916411Y10428414D01*
X9845054Y10317690D01*
X9845050Y10317681D01*
X9841235Y10311762D01*
X9838826Y10305142D01*
X9838825Y10305141D01*
X9795587Y10186347D01*
X9779197Y10141315D01*
X9756463Y9961360D01*
X9757979Y9945900D01*
X9765270Y9871535D01*
X9752010Y9801787D01*
X9703147Y9750281D01*
X9653044Y9733930D01*
X9627022Y9731195D01*
X9627019Y9731194D01*
X9620023Y9730459D01*
X9448314Y9672005D01*
X9403658Y9644532D01*
X9299830Y9580657D01*
X9299827Y9580655D01*
X9293823Y9576961D01*
X9288788Y9572030D01*
X9288785Y9572028D01*
X9174015Y9459636D01*
X9164228Y9450052D01*
X9065970Y9297585D01*
X9063561Y9290965D01*
X9063559Y9290962D01*
X9039244Y9224156D01*
X9003932Y9127138D01*
X8981198Y8947183D01*
X7074787Y8947183D01*
X6141450Y9880520D01*
X6135596Y9886785D01*
X6111655Y9914229D01*
X6097561Y9930385D01*
X6045280Y9967129D01*
X6039986Y9971061D01*
X5995693Y10005791D01*
X5989718Y10010476D01*
X5982802Y10013599D01*
X5980516Y10014983D01*
X5965835Y10023357D01*
X5963475Y10024622D01*
X5957261Y10028990D01*
X5950182Y10031750D01*
X5950180Y10031751D01*
X5897725Y10052202D01*
X5891656Y10054753D01*
X5833427Y10081045D01*
X5825960Y10082429D01*
X5823405Y10083230D01*
X5807152Y10087859D01*
X5804572Y10088522D01*
X5797491Y10091282D01*
X5789960Y10092273D01*
X5789958Y10092274D01*
X5756147Y10096725D01*
X5734139Y10099622D01*
X5727641Y10100652D01*
X5664814Y10112296D01*
X5657234Y10111859D01*
X5657233Y10111859D01*
X5602608Y10108709D01*
X5595354Y10108500D01*
X4849158Y10108500D01*
X4789624Y10125795D01*
X4788948Y10124410D01*
X4782609Y10127502D01*
X4776666Y10131273D01*
X4768095Y10134325D01*
X4612425Y10189757D01*
X4612420Y10189758D01*
X4605790Y10192119D01*
X4598802Y10192952D01*
X4598799Y10192953D01*
X4475698Y10207632D01*
X4425680Y10213596D01*
X4418677Y10212860D01*
X4418676Y10212860D01*
X4252288Y10195372D01*
X4252286Y10195371D01*
X4245288Y10194636D01*
X4073579Y10136182D01*
X4015828Y10100653D01*
X3925095Y10044834D01*
X3925092Y10044832D01*
X3919088Y10041138D01*
X3914053Y10036207D01*
X3914050Y10036205D01*
X3798818Y9923361D01*
X3789493Y9914229D01*
X3691235Y9761762D01*
X3688826Y9755142D01*
X3688824Y9755139D01*
X3637359Y9613741D01*
X3629197Y9591315D01*
X3606463Y9411360D01*
X3624163Y9230840D01*
X3681418Y9058727D01*
X3685065Y9052705D01*
X3685066Y9052703D01*
X3694344Y9037384D01*
X3775380Y8903576D01*
X3780269Y8898513D01*
X3780270Y8898512D01*
X3804438Y8873486D01*
X3901382Y8773098D01*
X4053159Y8673778D01*
X4059763Y8671322D01*
X4059765Y8671321D01*
X4216558Y8613010D01*
X4216560Y8613010D01*
X4223168Y8610552D01*
X4306995Y8599367D01*
X4395980Y8587493D01*
X4395984Y8587493D01*
X4402961Y8586562D01*
X4409972Y8587200D01*
X4409976Y8587200D01*
X4552459Y8600168D01*
X4583600Y8603002D01*
X4590302Y8605180D01*
X4590304Y8605180D01*
X4749409Y8656876D01*
X4749412Y8656877D01*
X4756108Y8659053D01*
X4780727Y8673729D01*
X4845245Y8691500D01*
X5274340Y8691500D01*
X5342461Y8671498D01*
X5363435Y8654595D01*
X6117334Y7900696D01*
X6147796Y7851374D01*
X6177220Y7762925D01*
X6196538Y7731027D01*
X6214716Y7662400D01*
X6192906Y7594837D01*
X6138030Y7549790D01*
X6088761Y7539758D01*
X3630170Y7539758D01*
X3621600Y7540050D01*
X3571482Y7543467D01*
X3571478Y7543467D01*
X3563906Y7543983D01*
X3556429Y7542678D01*
X3556428Y7542678D01*
X3529950Y7538057D01*
X3500955Y7532996D01*
X3494437Y7532035D01*
X3431016Y7524360D01*
X3423915Y7521677D01*
X3421306Y7521036D01*
X3404996Y7516573D01*
X3402460Y7515808D01*
X3394974Y7514501D01*
X3346858Y7493379D01*
X3336463Y7488816D01*
X3330373Y7486330D01*
X3307522Y7477696D01*
X3284119Y7472143D01*
X3284175Y7471886D01*
X3277288Y7470372D01*
X3270288Y7469636D01*
X3263624Y7467367D01*
X3263622Y7467367D01*
X3145796Y7427256D01*
X3098579Y7411182D01*
X3092575Y7407488D01*
X2950095Y7319834D01*
X2950092Y7319832D01*
X2944088Y7316138D01*
X2939053Y7311207D01*
X2939050Y7311205D01*
X2819525Y7194157D01*
X2814493Y7189229D01*
X2716235Y7036762D01*
X2713826Y7030142D01*
X2713824Y7030139D01*
X2666416Y6899886D01*
X2654197Y6866315D01*
X2631463Y6686360D01*
X2637095Y6628920D01*
X2638431Y6615295D01*
X2625171Y6545548D01*
X2576309Y6494041D01*
X2513032Y6477000D01*
X634500Y6477000D01*
X566379Y6497002D01*
X519886Y6550658D01*
X508500Y6603000D01*
X508500Y10631340D01*
X528502Y10699461D01*
X582158Y10745954D01*
X652432Y10756058D01*
X717012Y10726564D01*
X723595Y10720435D01*
X725532Y10718498D01*
X755994Y10669176D01*
X785418Y10580727D01*
X789065Y10574705D01*
X789066Y10574703D01*
X861333Y10455376D01*
X879380Y10425576D01*
X884269Y10420513D01*
X884270Y10420512D01*
X923456Y10379934D01*
X1005382Y10295098D01*
X1011278Y10291240D01*
X1131205Y10212762D01*
X1157159Y10195778D01*
X1163763Y10193322D01*
X1163765Y10193321D01*
X1320558Y10135010D01*
X1320560Y10135010D01*
X1327168Y10132552D01*
X1396837Y10123256D01*
X1499980Y10109493D01*
X1499984Y10109493D01*
X1506961Y10108562D01*
X1513972Y10109200D01*
X1513976Y10109200D01*
X1668415Y10123256D01*
X1687600Y10125002D01*
X1727370Y10137924D01*
X1798336Y10139952D01*
X1859058Y10103336D01*
X1860380Y10101153D01*
X1864655Y10096726D01*
X1864656Y10096725D01*
X1877688Y10083230D01*
X1986382Y9970675D01*
X2047952Y9930385D01*
X2125471Y9879658D01*
X2138159Y9871355D01*
X2144763Y9868899D01*
X2144765Y9868898D01*
X2301558Y9810587D01*
X2301560Y9810587D01*
X2308168Y9808129D01*
X2391995Y9796944D01*
X2480980Y9785070D01*
X2480984Y9785070D01*
X2487961Y9784139D01*
X2494972Y9784777D01*
X2494976Y9784777D01*
X2637459Y9797745D01*
X2668600Y9800579D01*
X2675302Y9802757D01*
X2675304Y9802757D01*
X2834409Y9854453D01*
X2834412Y9854454D01*
X2841108Y9856630D01*
X2996912Y9949508D01*
X3128266Y10074595D01*
X3228643Y10225675D01*
X3270423Y10335660D01*
X3290555Y10388657D01*
X3290556Y10388659D01*
X3293055Y10395239D01*
X3297319Y10425576D01*
X3317748Y10570938D01*
X3317748Y10570941D01*
X3318299Y10574860D01*
X3318616Y10597577D01*
X3298397Y10777832D01*
X3296080Y10784486D01*
X3241064Y10942471D01*
X3241062Y10942474D01*
X3238745Y10949129D01*
X3239397Y10949356D01*
X3228500Y10997320D01*
X3228500Y11485236D01*
X3249551Y11554962D01*
X3298143Y11628098D01*
X3362555Y11797662D01*
X3387799Y11977283D01*
X3388116Y12000000D01*
X3367897Y12180255D01*
X3365580Y12186909D01*
X3310564Y12344894D01*
X3310562Y12344897D01*
X3308245Y12351552D01*
X3212126Y12505376D01*
X3198441Y12519157D01*
X3089278Y12629085D01*
X3089274Y12629088D01*
X3084315Y12634082D01*
X3073197Y12641138D01*
X3025038Y12671700D01*
X2931166Y12731273D01*
X2901963Y12741672D01*
X2766925Y12789757D01*
X2766920Y12789758D01*
X2760290Y12792119D01*
X2753302Y12792952D01*
X2753299Y12792953D01*
X2630198Y12807632D01*
X2580180Y12813596D01*
X2573177Y12812860D01*
X2573176Y12812860D01*
X2406788Y12795372D01*
X2406786Y12795371D01*
X2399788Y12794636D01*
X2228079Y12736182D01*
X2222075Y12732488D01*
X2079595Y12644834D01*
X2079592Y12644832D01*
X2073588Y12641138D01*
X2068553Y12636207D01*
X2068550Y12636205D01*
X1949025Y12519157D01*
X1943993Y12514229D01*
X1845735Y12361762D01*
X1843324Y12355138D01*
X1843323Y12355136D01*
X1841901Y12351229D01*
X1840312Y12349071D01*
X1840193Y12348831D01*
X1840151Y12348852D01*
X1799807Y12294057D01*
X1733486Y12268719D01*
X1663994Y12283260D01*
X1613395Y12333062D01*
X1597500Y12394323D01*
X1597500Y14809868D01*
X1610983Y14865600D01*
X1612643Y14868098D01*
X1617484Y14880840D01*
X1674555Y15031080D01*
X1674556Y15031082D01*
X1677055Y15037662D01*
X1678789Y15050000D01*
X1701748Y15213361D01*
X1701748Y15213364D01*
X1702299Y15217283D01*
X1702616Y15240000D01*
X1682397Y15420255D01*
X1680080Y15426909D01*
X1625064Y15584894D01*
X1625062Y15584897D01*
X1622745Y15591552D01*
X1526626Y15745376D01*
X1521664Y15750373D01*
X1403778Y15869085D01*
X1403774Y15869088D01*
X1398815Y15874082D01*
X1245666Y15971273D01*
X1216463Y15981672D01*
X1081425Y16029757D01*
X1081420Y16029758D01*
X1074790Y16032119D01*
X1067802Y16032952D01*
X1067799Y16032953D01*
X944698Y16047632D01*
X894680Y16053596D01*
X887677Y16052860D01*
X887676Y16052860D01*
X721288Y16035372D01*
X721286Y16035371D01*
X714288Y16034636D01*
X675104Y16021297D01*
X604173Y16018279D01*
X542869Y16054089D01*
X510658Y16117358D01*
X508500Y16140575D01*
X508500Y16365500D01*
X528502Y16433621D01*
X582158Y16480114D01*
X634500Y16491500D01*
X21365500Y16491500D01*
X21433621Y16471498D01*
G37*
%TD.AperFunction*%
%TD*%
M02*
