%TF.GenerationSoftware,KiCad,Pcbnew,8.0.5-8.0.5-0~ubuntu22.04.1*%
%TF.CreationDate,2024-09-29T11:23:02+02:00*%
%TF.ProjectId,I2C_Module_SHT45_BME280_small_FUEL4EP,4932435f-4d6f-4647-956c-655f53485434,V1.5*%
%TF.SameCoordinates,Original*%
%TF.FileFunction,Legend,Top*%
%TF.FilePolarity,Positive*%
%FSLAX46Y46*%
G04 Gerber Fmt 4.6, Leading zero omitted, Abs format (unit mm)*
G04 Created by KiCad (PCBNEW 8.0.5-8.0.5-0~ubuntu22.04.1) date 2024-09-29 11:23:02*
%MOMM*%
%LPD*%
G01*
G04 APERTURE LIST*
G04 Aperture macros list*
%AMRoundRect*
0 Rectangle with rounded corners*
0 $1 Rounding radius*
0 $2 $3 $4 $5 $6 $7 $8 $9 X,Y pos of 4 corners*
0 Add a 4 corners polygon primitive as box body*
4,1,4,$2,$3,$4,$5,$6,$7,$8,$9,$2,$3,0*
0 Add four circle primitives for the rounded corners*
1,1,$1+$1,$2,$3*
1,1,$1+$1,$4,$5*
1,1,$1+$1,$6,$7*
1,1,$1+$1,$8,$9*
0 Add four rect primitives between the rounded corners*
20,1,$1+$1,$2,$3,$4,$5,0*
20,1,$1+$1,$4,$5,$6,$7,0*
20,1,$1+$1,$6,$7,$8,$9,0*
20,1,$1+$1,$8,$9,$2,$3,0*%
G04 Aperture macros list end*
%ADD10C,0.176200*%
%ADD11C,0.150000*%
%ADD12C,0.152400*%
%ADD13C,0.120000*%
%ADD14C,0.100000*%
%ADD15R,0.500000X0.300000*%
%ADD16RoundRect,0.225000X-0.250000X0.225000X-0.250000X-0.225000X0.250000X-0.225000X0.250000X0.225000X0*%
%ADD17RoundRect,0.147500X0.147500X0.172500X-0.147500X0.172500X-0.147500X-0.172500X0.147500X-0.172500X0*%
%ADD18R,1.000000X1.500000*%
%ADD19R,0.500000X0.350000*%
%ADD20RoundRect,0.225000X-0.225000X-0.250000X0.225000X-0.250000X0.225000X0.250000X-0.225000X0.250000X0*%
%ADD21RoundRect,0.135000X-0.185000X0.135000X-0.185000X-0.135000X0.185000X-0.135000X0.185000X0.135000X0*%
%ADD22RoundRect,0.225000X0.225000X0.250000X-0.225000X0.250000X-0.225000X-0.250000X0.225000X-0.250000X0*%
%ADD23R,1.700000X1.700000*%
%ADD24O,1.700000X1.700000*%
G04 APERTURE END LIST*
D10*
X9486100Y13258800D02*
G75*
G02*
X9309900Y13258800I-88100J0D01*
G01*
X9309900Y13258800D02*
G75*
G02*
X9486100Y13258800I88100J0D01*
G01*
X1104100Y4267200D02*
G75*
G02*
X927900Y4267200I-88100J0D01*
G01*
X927900Y4267200D02*
G75*
G02*
X1104100Y4267200I88100J0D01*
G01*
D11*
X8649600Y9267700D02*
X8749600Y9234366D01*
X8749600Y9234366D02*
X8916267Y9234366D01*
X8916267Y9234366D02*
X8982933Y9267700D01*
X8982933Y9267700D02*
X9016267Y9301033D01*
X9016267Y9301033D02*
X9049600Y9367700D01*
X9049600Y9367700D02*
X9049600Y9434366D01*
X9049600Y9434366D02*
X9016267Y9501033D01*
X9016267Y9501033D02*
X8982933Y9534366D01*
X8982933Y9534366D02*
X8916267Y9567700D01*
X8916267Y9567700D02*
X8782933Y9601033D01*
X8782933Y9601033D02*
X8716267Y9634366D01*
X8716267Y9634366D02*
X8682933Y9667700D01*
X8682933Y9667700D02*
X8649600Y9734366D01*
X8649600Y9734366D02*
X8649600Y9801033D01*
X8649600Y9801033D02*
X8682933Y9867700D01*
X8682933Y9867700D02*
X8716267Y9901033D01*
X8716267Y9901033D02*
X8782933Y9934366D01*
X8782933Y9934366D02*
X8949600Y9934366D01*
X8949600Y9934366D02*
X9049600Y9901033D01*
X9349600Y9234366D02*
X9349600Y9934366D01*
X9349600Y9934366D02*
X9516267Y9934366D01*
X9516267Y9934366D02*
X9616267Y9901033D01*
X9616267Y9901033D02*
X9682934Y9834366D01*
X9682934Y9834366D02*
X9716267Y9767700D01*
X9716267Y9767700D02*
X9749600Y9634366D01*
X9749600Y9634366D02*
X9749600Y9534366D01*
X9749600Y9534366D02*
X9716267Y9401033D01*
X9716267Y9401033D02*
X9682934Y9334366D01*
X9682934Y9334366D02*
X9616267Y9267700D01*
X9616267Y9267700D02*
X9516267Y9234366D01*
X9516267Y9234366D02*
X9349600Y9234366D01*
X10016267Y9434366D02*
X10349600Y9434366D01*
X9949600Y9234366D02*
X10182934Y9934366D01*
X10182934Y9934366D02*
X10416267Y9234366D01*
X1298800Y1342900D02*
X1398800Y1309566D01*
X1398800Y1309566D02*
X1565467Y1309566D01*
X1565467Y1309566D02*
X1632133Y1342900D01*
X1632133Y1342900D02*
X1665467Y1376233D01*
X1665467Y1376233D02*
X1698800Y1442900D01*
X1698800Y1442900D02*
X1698800Y1509566D01*
X1698800Y1509566D02*
X1665467Y1576233D01*
X1665467Y1576233D02*
X1632133Y1609566D01*
X1632133Y1609566D02*
X1565467Y1642900D01*
X1565467Y1642900D02*
X1432133Y1676233D01*
X1432133Y1676233D02*
X1365467Y1709566D01*
X1365467Y1709566D02*
X1332133Y1742900D01*
X1332133Y1742900D02*
X1298800Y1809566D01*
X1298800Y1809566D02*
X1298800Y1876233D01*
X1298800Y1876233D02*
X1332133Y1942900D01*
X1332133Y1942900D02*
X1365467Y1976233D01*
X1365467Y1976233D02*
X1432133Y2009566D01*
X1432133Y2009566D02*
X1598800Y2009566D01*
X1598800Y2009566D02*
X1698800Y1976233D01*
X1998800Y1309566D02*
X1998800Y2009566D01*
X1998800Y1676233D02*
X2398800Y1676233D01*
X2398800Y1309566D02*
X2398800Y2009566D01*
X2632133Y2009566D02*
X3032133Y2009566D01*
X2832133Y1309566D02*
X2832133Y2009566D01*
X3565466Y1776233D02*
X3565466Y1309566D01*
X3398800Y2042900D02*
X3232133Y1542900D01*
X3232133Y1542900D02*
X3665466Y1542900D01*
X4265467Y2009566D02*
X3932133Y2009566D01*
X3932133Y2009566D02*
X3898800Y1676233D01*
X3898800Y1676233D02*
X3932133Y1709566D01*
X3932133Y1709566D02*
X3998800Y1742900D01*
X3998800Y1742900D02*
X4165467Y1742900D01*
X4165467Y1742900D02*
X4232133Y1709566D01*
X4232133Y1709566D02*
X4265467Y1676233D01*
X4265467Y1676233D02*
X4298800Y1609566D01*
X4298800Y1609566D02*
X4298800Y1442900D01*
X4298800Y1442900D02*
X4265467Y1376233D01*
X4265467Y1376233D02*
X4232133Y1342900D01*
X4232133Y1342900D02*
X4165467Y1309566D01*
X4165467Y1309566D02*
X3998800Y1309566D01*
X3998800Y1309566D02*
X3932133Y1342900D01*
X3932133Y1342900D02*
X3898800Y1376233D01*
X8864667Y5024233D02*
X8798000Y5057566D01*
X8798000Y5057566D02*
X8698000Y5057566D01*
X8698000Y5057566D02*
X8598000Y5024233D01*
X8598000Y5024233D02*
X8531334Y4957566D01*
X8531334Y4957566D02*
X8498000Y4890900D01*
X8498000Y4890900D02*
X8464667Y4757566D01*
X8464667Y4757566D02*
X8464667Y4657566D01*
X8464667Y4657566D02*
X8498000Y4524233D01*
X8498000Y4524233D02*
X8531334Y4457566D01*
X8531334Y4457566D02*
X8598000Y4390900D01*
X8598000Y4390900D02*
X8698000Y4357566D01*
X8698000Y4357566D02*
X8764667Y4357566D01*
X8764667Y4357566D02*
X8864667Y4390900D01*
X8864667Y4390900D02*
X8898000Y4424233D01*
X8898000Y4424233D02*
X8898000Y4657566D01*
X8898000Y4657566D02*
X8764667Y4657566D01*
X9198000Y4357566D02*
X9198000Y5057566D01*
X9198000Y5057566D02*
X9598000Y4357566D01*
X9598000Y4357566D02*
X9598000Y5057566D01*
X9931333Y4357566D02*
X9931333Y5057566D01*
X9931333Y5057566D02*
X10098000Y5057566D01*
X10098000Y5057566D02*
X10198000Y5024233D01*
X10198000Y5024233D02*
X10264667Y4957566D01*
X10264667Y4957566D02*
X10298000Y4890900D01*
X10298000Y4890900D02*
X10331333Y4757566D01*
X10331333Y4757566D02*
X10331333Y4657566D01*
X10331333Y4657566D02*
X10298000Y4524233D01*
X10298000Y4524233D02*
X10264667Y4457566D01*
X10264667Y4457566D02*
X10198000Y4390900D01*
X10198000Y4390900D02*
X10098000Y4357566D01*
X10098000Y4357566D02*
X9931333Y4357566D01*
X10210966Y11236533D02*
X10244300Y11336533D01*
X10244300Y11336533D02*
X10277633Y11369866D01*
X10277633Y11369866D02*
X10344300Y11403199D01*
X10344300Y11403199D02*
X10444300Y11403199D01*
X10444300Y11403199D02*
X10510966Y11369866D01*
X10510966Y11369866D02*
X10544300Y11336533D01*
X10544300Y11336533D02*
X10577633Y11269866D01*
X10577633Y11269866D02*
X10577633Y11003199D01*
X10577633Y11003199D02*
X9877633Y11003199D01*
X9877633Y11003199D02*
X9877633Y11236533D01*
X9877633Y11236533D02*
X9910966Y11303199D01*
X9910966Y11303199D02*
X9944300Y11336533D01*
X9944300Y11336533D02*
X10010966Y11369866D01*
X10010966Y11369866D02*
X10077633Y11369866D01*
X10077633Y11369866D02*
X10144300Y11336533D01*
X10144300Y11336533D02*
X10177633Y11303199D01*
X10177633Y11303199D02*
X10210966Y11236533D01*
X10210966Y11236533D02*
X10210966Y11003199D01*
X10577633Y11703199D02*
X9877633Y11703199D01*
X9877633Y11703199D02*
X10377633Y11936533D01*
X10377633Y11936533D02*
X9877633Y12169866D01*
X9877633Y12169866D02*
X10577633Y12169866D01*
X10210966Y12503199D02*
X10210966Y12736533D01*
X10577633Y12836533D02*
X10577633Y12503199D01*
X10577633Y12503199D02*
X9877633Y12503199D01*
X9877633Y12503199D02*
X9877633Y12836533D01*
X9944300Y13103199D02*
X9910966Y13136532D01*
X9910966Y13136532D02*
X9877633Y13203199D01*
X9877633Y13203199D02*
X9877633Y13369866D01*
X9877633Y13369866D02*
X9910966Y13436532D01*
X9910966Y13436532D02*
X9944300Y13469866D01*
X9944300Y13469866D02*
X10010966Y13503199D01*
X10010966Y13503199D02*
X10077633Y13503199D01*
X10077633Y13503199D02*
X10177633Y13469866D01*
X10177633Y13469866D02*
X10577633Y13069866D01*
X10577633Y13069866D02*
X10577633Y13503199D01*
X10177633Y13903199D02*
X10144300Y13836533D01*
X10144300Y13836533D02*
X10110966Y13803199D01*
X10110966Y13803199D02*
X10044300Y13769866D01*
X10044300Y13769866D02*
X10010966Y13769866D01*
X10010966Y13769866D02*
X9944300Y13803199D01*
X9944300Y13803199D02*
X9910966Y13836533D01*
X9910966Y13836533D02*
X9877633Y13903199D01*
X9877633Y13903199D02*
X9877633Y14036533D01*
X9877633Y14036533D02*
X9910966Y14103199D01*
X9910966Y14103199D02*
X9944300Y14136533D01*
X9944300Y14136533D02*
X10010966Y14169866D01*
X10010966Y14169866D02*
X10044300Y14169866D01*
X10044300Y14169866D02*
X10110966Y14136533D01*
X10110966Y14136533D02*
X10144300Y14103199D01*
X10144300Y14103199D02*
X10177633Y14036533D01*
X10177633Y14036533D02*
X10177633Y13903199D01*
X10177633Y13903199D02*
X10210966Y13836533D01*
X10210966Y13836533D02*
X10244300Y13803199D01*
X10244300Y13803199D02*
X10310966Y13769866D01*
X10310966Y13769866D02*
X10444300Y13769866D01*
X10444300Y13769866D02*
X10510966Y13803199D01*
X10510966Y13803199D02*
X10544300Y13836533D01*
X10544300Y13836533D02*
X10577633Y13903199D01*
X10577633Y13903199D02*
X10577633Y14036533D01*
X10577633Y14036533D02*
X10544300Y14103199D01*
X10544300Y14103199D02*
X10510966Y14136533D01*
X10510966Y14136533D02*
X10444300Y14169866D01*
X10444300Y14169866D02*
X10310966Y14169866D01*
X10310966Y14169866D02*
X10244300Y14136533D01*
X10244300Y14136533D02*
X10210966Y14103199D01*
X10210966Y14103199D02*
X10177633Y14036533D01*
X9877633Y14603200D02*
X9877633Y14669866D01*
X9877633Y14669866D02*
X9910966Y14736533D01*
X9910966Y14736533D02*
X9944300Y14769866D01*
X9944300Y14769866D02*
X10010966Y14803200D01*
X10010966Y14803200D02*
X10144300Y14836533D01*
X10144300Y14836533D02*
X10310966Y14836533D01*
X10310966Y14836533D02*
X10444300Y14803200D01*
X10444300Y14803200D02*
X10510966Y14769866D01*
X10510966Y14769866D02*
X10544300Y14736533D01*
X10544300Y14736533D02*
X10577633Y14669866D01*
X10577633Y14669866D02*
X10577633Y14603200D01*
X10577633Y14603200D02*
X10544300Y14536533D01*
X10544300Y14536533D02*
X10510966Y14503200D01*
X10510966Y14503200D02*
X10444300Y14469866D01*
X10444300Y14469866D02*
X10310966Y14436533D01*
X10310966Y14436533D02*
X10144300Y14436533D01*
X10144300Y14436533D02*
X10010966Y14469866D01*
X10010966Y14469866D02*
X9944300Y14503200D01*
X9944300Y14503200D02*
X9910966Y14536533D01*
X9910966Y14536533D02*
X9877633Y14603200D01*
X8615466Y6880100D02*
X8715466Y6846766D01*
X8715466Y6846766D02*
X8882133Y6846766D01*
X8882133Y6846766D02*
X8948799Y6880100D01*
X8948799Y6880100D02*
X8982133Y6913433D01*
X8982133Y6913433D02*
X9015466Y6980100D01*
X9015466Y6980100D02*
X9015466Y7046766D01*
X9015466Y7046766D02*
X8982133Y7113433D01*
X8982133Y7113433D02*
X8948799Y7146766D01*
X8948799Y7146766D02*
X8882133Y7180100D01*
X8882133Y7180100D02*
X8748799Y7213433D01*
X8748799Y7213433D02*
X8682133Y7246766D01*
X8682133Y7246766D02*
X8648799Y7280100D01*
X8648799Y7280100D02*
X8615466Y7346766D01*
X8615466Y7346766D02*
X8615466Y7413433D01*
X8615466Y7413433D02*
X8648799Y7480100D01*
X8648799Y7480100D02*
X8682133Y7513433D01*
X8682133Y7513433D02*
X8748799Y7546766D01*
X8748799Y7546766D02*
X8915466Y7546766D01*
X8915466Y7546766D02*
X9015466Y7513433D01*
X9715466Y6913433D02*
X9682133Y6880100D01*
X9682133Y6880100D02*
X9582133Y6846766D01*
X9582133Y6846766D02*
X9515466Y6846766D01*
X9515466Y6846766D02*
X9415466Y6880100D01*
X9415466Y6880100D02*
X9348800Y6946766D01*
X9348800Y6946766D02*
X9315466Y7013433D01*
X9315466Y7013433D02*
X9282133Y7146766D01*
X9282133Y7146766D02*
X9282133Y7246766D01*
X9282133Y7246766D02*
X9315466Y7380100D01*
X9315466Y7380100D02*
X9348800Y7446766D01*
X9348800Y7446766D02*
X9415466Y7513433D01*
X9415466Y7513433D02*
X9515466Y7546766D01*
X9515466Y7546766D02*
X9582133Y7546766D01*
X9582133Y7546766D02*
X9682133Y7513433D01*
X9682133Y7513433D02*
X9715466Y7480100D01*
X10348800Y6846766D02*
X10015466Y6846766D01*
X10015466Y6846766D02*
X10015466Y7546766D01*
X8515466Y2568366D02*
X8748800Y1868366D01*
X8748800Y1868366D02*
X8982133Y2568366D01*
X9615466Y1935033D02*
X9582133Y1901700D01*
X9582133Y1901700D02*
X9482133Y1868366D01*
X9482133Y1868366D02*
X9415466Y1868366D01*
X9415466Y1868366D02*
X9315466Y1901700D01*
X9315466Y1901700D02*
X9248800Y1968366D01*
X9248800Y1968366D02*
X9215466Y2035033D01*
X9215466Y2035033D02*
X9182133Y2168366D01*
X9182133Y2168366D02*
X9182133Y2268366D01*
X9182133Y2268366D02*
X9215466Y2401700D01*
X9215466Y2401700D02*
X9248800Y2468366D01*
X9248800Y2468366D02*
X9315466Y2535033D01*
X9315466Y2535033D02*
X9415466Y2568366D01*
X9415466Y2568366D02*
X9482133Y2568366D01*
X9482133Y2568366D02*
X9582133Y2535033D01*
X9582133Y2535033D02*
X9615466Y2501700D01*
X10315466Y1935033D02*
X10282133Y1901700D01*
X10282133Y1901700D02*
X10182133Y1868366D01*
X10182133Y1868366D02*
X10115466Y1868366D01*
X10115466Y1868366D02*
X10015466Y1901700D01*
X10015466Y1901700D02*
X9948800Y1968366D01*
X9948800Y1968366D02*
X9915466Y2035033D01*
X9915466Y2035033D02*
X9882133Y2168366D01*
X9882133Y2168366D02*
X9882133Y2268366D01*
X9882133Y2268366D02*
X9915466Y2401700D01*
X9915466Y2401700D02*
X9948800Y2468366D01*
X9948800Y2468366D02*
X10015466Y2535033D01*
X10015466Y2535033D02*
X10115466Y2568366D01*
X10115466Y2568366D02*
X10182133Y2568366D01*
X10182133Y2568366D02*
X10282133Y2535033D01*
X10282133Y2535033D02*
X10315466Y2501700D01*
D12*
X1669867Y15838491D02*
X1669867Y16305158D01*
X1669867Y16238491D02*
X1703201Y16271825D01*
X1703201Y16271825D02*
X1769867Y16305158D01*
X1769867Y16305158D02*
X1869867Y16305158D01*
X1869867Y16305158D02*
X1936534Y16271825D01*
X1936534Y16271825D02*
X1969867Y16205158D01*
X1969867Y16205158D02*
X1969867Y15838491D01*
X1969867Y16205158D02*
X2003201Y16271825D01*
X2003201Y16271825D02*
X2069867Y16305158D01*
X2069867Y16305158D02*
X2169867Y16305158D01*
X2169867Y16305158D02*
X2236534Y16271825D01*
X2236534Y16271825D02*
X2269867Y16205158D01*
X2269867Y16205158D02*
X2269867Y15838491D01*
X2903200Y15838491D02*
X2903200Y16205158D01*
X2903200Y16205158D02*
X2869867Y16271825D01*
X2869867Y16271825D02*
X2803200Y16305158D01*
X2803200Y16305158D02*
X2669867Y16305158D01*
X2669867Y16305158D02*
X2603200Y16271825D01*
X2903200Y15871825D02*
X2836534Y15838491D01*
X2836534Y15838491D02*
X2669867Y15838491D01*
X2669867Y15838491D02*
X2603200Y15871825D01*
X2603200Y15871825D02*
X2569867Y15938491D01*
X2569867Y15938491D02*
X2569867Y16005158D01*
X2569867Y16005158D02*
X2603200Y16071825D01*
X2603200Y16071825D02*
X2669867Y16105158D01*
X2669867Y16105158D02*
X2836534Y16105158D01*
X2836534Y16105158D02*
X2903200Y16138491D01*
X3169867Y15838491D02*
X3536533Y16305158D01*
X3169867Y16305158D02*
X3536533Y15838491D01*
X3803200Y15905158D02*
X3836534Y15871825D01*
X3836534Y15871825D02*
X3803200Y15838491D01*
X3803200Y15838491D02*
X3769867Y15871825D01*
X3769867Y15871825D02*
X3803200Y15905158D01*
X3803200Y15905158D02*
X3803200Y15838491D01*
X4569866Y16538491D02*
X4803200Y15838491D01*
X4803200Y15838491D02*
X5036533Y16538491D01*
X5669866Y15905158D02*
X5636533Y15871825D01*
X5636533Y15871825D02*
X5536533Y15838491D01*
X5536533Y15838491D02*
X5469866Y15838491D01*
X5469866Y15838491D02*
X5369866Y15871825D01*
X5369866Y15871825D02*
X5303200Y15938491D01*
X5303200Y15938491D02*
X5269866Y16005158D01*
X5269866Y16005158D02*
X5236533Y16138491D01*
X5236533Y16138491D02*
X5236533Y16238491D01*
X5236533Y16238491D02*
X5269866Y16371825D01*
X5269866Y16371825D02*
X5303200Y16438491D01*
X5303200Y16438491D02*
X5369866Y16505158D01*
X5369866Y16505158D02*
X5469866Y16538491D01*
X5469866Y16538491D02*
X5536533Y16538491D01*
X5536533Y16538491D02*
X5636533Y16505158D01*
X5636533Y16505158D02*
X5669866Y16471825D01*
X6369866Y15905158D02*
X6336533Y15871825D01*
X6336533Y15871825D02*
X6236533Y15838491D01*
X6236533Y15838491D02*
X6169866Y15838491D01*
X6169866Y15838491D02*
X6069866Y15871825D01*
X6069866Y15871825D02*
X6003200Y15938491D01*
X6003200Y15938491D02*
X5969866Y16005158D01*
X5969866Y16005158D02*
X5936533Y16138491D01*
X5936533Y16138491D02*
X5936533Y16238491D01*
X5936533Y16238491D02*
X5969866Y16371825D01*
X5969866Y16371825D02*
X6003200Y16438491D01*
X6003200Y16438491D02*
X6069866Y16505158D01*
X6069866Y16505158D02*
X6169866Y16538491D01*
X6169866Y16538491D02*
X6236533Y16538491D01*
X6236533Y16538491D02*
X6336533Y16505158D01*
X6336533Y16505158D02*
X6369866Y16471825D01*
X7203199Y15838491D02*
X7203199Y16305158D01*
X7203199Y16538491D02*
X7169866Y16505158D01*
X7169866Y16505158D02*
X7203199Y16471825D01*
X7203199Y16471825D02*
X7236533Y16505158D01*
X7236533Y16505158D02*
X7203199Y16538491D01*
X7203199Y16538491D02*
X7203199Y16471825D01*
X7503199Y15871825D02*
X7569866Y15838491D01*
X7569866Y15838491D02*
X7703199Y15838491D01*
X7703199Y15838491D02*
X7769866Y15871825D01*
X7769866Y15871825D02*
X7803199Y15938491D01*
X7803199Y15938491D02*
X7803199Y15971825D01*
X7803199Y15971825D02*
X7769866Y16038491D01*
X7769866Y16038491D02*
X7703199Y16071825D01*
X7703199Y16071825D02*
X7603199Y16071825D01*
X7603199Y16071825D02*
X7536532Y16105158D01*
X7536532Y16105158D02*
X7503199Y16171825D01*
X7503199Y16171825D02*
X7503199Y16205158D01*
X7503199Y16205158D02*
X7536532Y16271825D01*
X7536532Y16271825D02*
X7603199Y16305158D01*
X7603199Y16305158D02*
X7703199Y16305158D01*
X7703199Y16305158D02*
X7769866Y16271825D01*
X8569866Y16538491D02*
X9003199Y16538491D01*
X9003199Y16538491D02*
X8769866Y16271825D01*
X8769866Y16271825D02*
X8869866Y16271825D01*
X8869866Y16271825D02*
X8936532Y16238491D01*
X8936532Y16238491D02*
X8969866Y16205158D01*
X8969866Y16205158D02*
X9003199Y16138491D01*
X9003199Y16138491D02*
X9003199Y15971825D01*
X9003199Y15971825D02*
X8969866Y15905158D01*
X8969866Y15905158D02*
X8936532Y15871825D01*
X8936532Y15871825D02*
X8869866Y15838491D01*
X8869866Y15838491D02*
X8669866Y15838491D01*
X8669866Y15838491D02*
X8603199Y15871825D01*
X8603199Y15871825D02*
X8569866Y15905158D01*
X9303199Y15905158D02*
X9336533Y15871825D01*
X9336533Y15871825D02*
X9303199Y15838491D01*
X9303199Y15838491D02*
X9269866Y15871825D01*
X9269866Y15871825D02*
X9303199Y15905158D01*
X9303199Y15905158D02*
X9303199Y15838491D01*
X9569866Y16538491D02*
X10003199Y16538491D01*
X10003199Y16538491D02*
X9769866Y16271825D01*
X9769866Y16271825D02*
X9869866Y16271825D01*
X9869866Y16271825D02*
X9936532Y16238491D01*
X9936532Y16238491D02*
X9969866Y16205158D01*
X9969866Y16205158D02*
X10003199Y16138491D01*
X10003199Y16138491D02*
X10003199Y15971825D01*
X10003199Y15971825D02*
X9969866Y15905158D01*
X9969866Y15905158D02*
X9936532Y15871825D01*
X9936532Y15871825D02*
X9869866Y15838491D01*
X9869866Y15838491D02*
X9669866Y15838491D01*
X9669866Y15838491D02*
X9603199Y15871825D01*
X9603199Y15871825D02*
X9569866Y15905158D01*
X10203199Y16538491D02*
X10436533Y15838491D01*
X10436533Y15838491D02*
X10669866Y16538491D01*
X11436532Y15905158D02*
X11469866Y15871825D01*
X11469866Y15871825D02*
X11436532Y15838491D01*
X11436532Y15838491D02*
X11403199Y15871825D01*
X11403199Y15871825D02*
X11436532Y15905158D01*
X11436532Y15905158D02*
X11436532Y15838491D01*
X11436532Y16105158D02*
X11403199Y16505158D01*
X11403199Y16505158D02*
X11436532Y16538491D01*
X11436532Y16538491D02*
X11469866Y16505158D01*
X11469866Y16505158D02*
X11436532Y16105158D01*
X11436532Y16105158D02*
X11436532Y16538491D01*
D13*
%TO.C,U2*%
X1975000Y4185000D02*
X3475000Y4185000D01*
X1975000Y2465000D02*
X3475000Y2465000D01*
X1525000Y3925000D02*
X1245000Y3925000D01*
X1525000Y4205000D01*
X1525000Y3925000D01*
G36*
X1525000Y3925000D02*
G01*
X1245000Y3925000D01*
X1525000Y4205000D01*
X1525000Y3925000D01*
G37*
%TO.C,C1*%
X12757600Y13145380D02*
X12757600Y12864220D01*
X11737600Y13145380D02*
X11737600Y12864220D01*
%TO.C,JP2*%
X570800Y12836400D02*
X3370800Y12836400D01*
X570800Y10836400D02*
X570800Y12836400D01*
X3370800Y12836400D02*
X3370800Y10836400D01*
X3370800Y10836400D02*
X570800Y10836400D01*
D14*
%TO.C,U1*%
X6320800Y13592800D02*
X6470800Y13592800D01*
X6310800Y13592800D02*
X6310800Y13442800D01*
X9020800Y11042800D02*
X9020800Y10892800D01*
X9020800Y10892800D02*
X8870800Y10892800D01*
X6320800Y10892800D02*
X6320800Y11042800D01*
X6320800Y10892800D02*
X6470800Y10892800D01*
D13*
X9380800Y13592800D02*
X9020800Y13592800D01*
X9020800Y13952800D01*
X9380800Y13592800D01*
G36*
X9380800Y13592800D02*
G01*
X9020800Y13592800D01*
X9020800Y13952800D01*
X9380800Y13592800D01*
G37*
%TO.C,JP1*%
X3370800Y13376400D02*
X570800Y13376400D01*
X3370800Y15376400D02*
X3370800Y13376400D01*
X570800Y13376400D02*
X570800Y15376400D01*
X570800Y15376400D02*
X3370800Y15376400D01*
%TO.C,C3*%
X6569820Y7926800D02*
X6850980Y7926800D01*
X6569820Y6906800D02*
X6850980Y6906800D01*
%TO.C,R1*%
X6074400Y9348441D02*
X6074400Y9041159D01*
X5314400Y9348441D02*
X5314400Y9041159D01*
%TO.C,C4*%
X7811380Y13968000D02*
X7530220Y13968000D01*
X7811380Y14988000D02*
X7530220Y14988000D01*
%TO.C,R2*%
X7141200Y9348441D02*
X7141200Y9041159D01*
X6381200Y9348441D02*
X6381200Y9041159D01*
%TO.C,C2*%
X2509420Y7510000D02*
X2790580Y7510000D01*
X2509420Y6490000D02*
X2790580Y6490000D01*
%TD*%
%LPC*%
D15*
%TO.C,U2*%
X2025000Y3725000D03*
X2025000Y2925000D03*
X3425000Y2925000D03*
X3425000Y3725000D03*
%TD*%
D16*
%TO.C,C1*%
X12247600Y13779800D03*
X12247600Y12229800D03*
%TD*%
D17*
%TO.C,FB1*%
X12529400Y15036800D03*
X11559400Y15036800D03*
%TD*%
D18*
%TO.C,JP2*%
X1320800Y11836400D03*
X2620800Y11836400D03*
%TD*%
D19*
%TO.C,U1*%
X8695800Y13217800D03*
X8695800Y12567800D03*
X8695800Y11917800D03*
X8695800Y11267800D03*
X6645800Y11267800D03*
X6645800Y11917800D03*
X6645800Y12567800D03*
X6645800Y13217800D03*
%TD*%
D18*
%TO.C,JP1*%
X2620800Y14376400D03*
X1320800Y14376400D03*
%TD*%
D20*
%TO.C,C3*%
X5935400Y7416800D03*
X7485400Y7416800D03*
%TD*%
D21*
%TO.C,R1*%
X5694400Y9704800D03*
X5694400Y8684800D03*
%TD*%
D22*
%TO.C,C4*%
X8445800Y14478000D03*
X6895800Y14478000D03*
%TD*%
D21*
%TO.C,R2*%
X6761200Y9704800D03*
X6761200Y8684800D03*
%TD*%
D20*
%TO.C,C2*%
X1875000Y7000000D03*
X3425000Y7000000D03*
%TD*%
D23*
%TO.C,J1*%
X11892000Y2032000D03*
D24*
X11892000Y4572000D03*
X11892000Y7112000D03*
X11892000Y9652000D03*
%TD*%
%LPD*%
M02*
