%TF.GenerationSoftware,KiCad,Pcbnew,6.0.11-2627ca5db0~126~ubuntu22.04.1*%
%TF.CreationDate,2024-02-09T09:37:32+01:00*%
%TF.ProjectId,I2C_Module_SHT45_BME280_small_FUEL4EP,4932435f-4d6f-4647-956c-655f53485434,V1.2*%
%TF.SameCoordinates,Original*%
%TF.FileFunction,Copper,L1,Top*%
%TF.FilePolarity,Positive*%
%FSLAX46Y46*%
G04 Gerber Fmt 4.6, Leading zero omitted, Abs format (unit mm)*
G04 Created by KiCad (PCBNEW 6.0.11-2627ca5db0~126~ubuntu22.04.1) date 2024-02-09 09:37:32*
%MOMM*%
%LPD*%
G01*
G04 APERTURE LIST*
G04 Aperture macros list*
%AMRoundRect*
0 Rectangle with rounded corners*
0 $1 Rounding radius*
0 $2 $3 $4 $5 $6 $7 $8 $9 X,Y pos of 4 corners*
0 Add a 4 corners polygon primitive as box body*
4,1,4,$2,$3,$4,$5,$6,$7,$8,$9,$2,$3,0*
0 Add four circle primitives for the rounded corners*
1,1,$1+$1,$2,$3*
1,1,$1+$1,$4,$5*
1,1,$1+$1,$6,$7*
1,1,$1+$1,$8,$9*
0 Add four rect primitives between the rounded corners*
20,1,$1+$1,$2,$3,$4,$5,0*
20,1,$1+$1,$4,$5,$6,$7,0*
20,1,$1+$1,$6,$7,$8,$9,0*
20,1,$1+$1,$8,$9,$2,$3,0*%
G04 Aperture macros list end*
%TA.AperFunction,SMDPad,CuDef*%
%ADD10RoundRect,0.225000X0.250000X-0.225000X0.250000X0.225000X-0.250000X0.225000X-0.250000X-0.225000X0*%
%TD*%
%TA.AperFunction,SMDPad,CuDef*%
%ADD11RoundRect,0.147500X-0.147500X-0.172500X0.147500X-0.172500X0.147500X0.172500X-0.147500X0.172500X0*%
%TD*%
%TA.AperFunction,SMDPad,CuDef*%
%ADD12R,0.500000X0.350000*%
%TD*%
%TA.AperFunction,SMDPad,CuDef*%
%ADD13R,1.000000X1.500000*%
%TD*%
%TA.AperFunction,SMDPad,CuDef*%
%ADD14RoundRect,0.225000X0.225000X0.250000X-0.225000X0.250000X-0.225000X-0.250000X0.225000X-0.250000X0*%
%TD*%
%TA.AperFunction,SMDPad,CuDef*%
%ADD15RoundRect,0.135000X-0.185000X0.135000X-0.185000X-0.135000X0.185000X-0.135000X0.185000X0.135000X0*%
%TD*%
%TA.AperFunction,SMDPad,CuDef*%
%ADD16R,0.500000X0.300000*%
%TD*%
%TA.AperFunction,SMDPad,CuDef*%
%ADD17RoundRect,0.225000X-0.225000X-0.250000X0.225000X-0.250000X0.225000X0.250000X-0.225000X0.250000X0*%
%TD*%
%TA.AperFunction,ComponentPad*%
%ADD18R,1.700000X1.700000*%
%TD*%
%TA.AperFunction,ComponentPad*%
%ADD19O,1.700000X1.700000*%
%TD*%
%TA.AperFunction,ViaPad*%
%ADD20C,0.600000*%
%TD*%
%TA.AperFunction,Conductor*%
%ADD21C,0.400000*%
%TD*%
%TA.AperFunction,Conductor*%
%ADD22C,0.500000*%
%TD*%
%TA.AperFunction,Conductor*%
%ADD23C,0.300000*%
%TD*%
%TA.AperFunction,Conductor*%
%ADD24C,0.250000*%
%TD*%
G04 APERTURE END LIST*
%TO.C,JP1*%
G36*
X6680000Y10685000D02*
G01*
X6180000Y10685000D01*
X6180000Y11285000D01*
X6680000Y11285000D01*
X6680000Y10685000D01*
G37*
%TD*%
D10*
%TO.P,C1,1*%
%TO.N,VDDA*%
X3820000Y9975000D03*
%TO.P,C1,2*%
%TO.N,GND*%
X3820000Y11525000D03*
%TD*%
D11*
%TO.P,FB1,1*%
%TO.N,VCC*%
X1535000Y10000000D03*
%TO.P,FB1,2*%
%TO.N,VDDA*%
X2505000Y10000000D03*
%TD*%
D12*
%TO.P,U1,1,GND*%
%TO.N,GND*%
X2045000Y3125000D03*
%TO.P,U1,2,CSB*%
%TO.N,VCC*%
X2045000Y3775000D03*
%TO.P,U1,3,SDI*%
%TO.N,/SDA*%
X2045000Y4425000D03*
%TO.P,U1,4,SCK*%
%TO.N,/SCL*%
X2045000Y5075000D03*
%TO.P,U1,5,SDO*%
%TO.N,Net-(JP1-Pad2)*%
X4095000Y5075000D03*
%TO.P,U1,6,VDDIO*%
%TO.N,VCC*%
X4095000Y4425000D03*
%TO.P,U1,7,GND*%
%TO.N,GND*%
X4095000Y3775000D03*
%TO.P,U1,8,VDD*%
%TO.N,VDDA*%
X4095000Y3125000D03*
%TD*%
D13*
%TO.P,JP1,1,A*%
%TO.N,GND*%
X5780000Y10985000D03*
%TO.P,JP1,2,B*%
%TO.N,Net-(JP1-Pad2)*%
X7080000Y10985000D03*
%TD*%
D14*
%TO.P,C3,1*%
%TO.N,GND*%
X4595000Y8100000D03*
%TO.P,C3,2*%
%TO.N,VCC*%
X3045000Y8100000D03*
%TD*%
D15*
%TO.P,R1,1*%
%TO.N,/SDA*%
X15269000Y10797000D03*
%TO.P,R1,2*%
%TO.N,VCC*%
X15269000Y9777000D03*
%TD*%
%TO.P,R3,1*%
%TO.N,VDDA*%
X8620000Y11810000D03*
%TO.P,R3,2*%
%TO.N,Net-(JP1-Pad2)*%
X8620000Y10790000D03*
%TD*%
D16*
%TO.P,U2,1,SDA*%
%TO.N,/SDA*%
X9945000Y3725000D03*
%TO.P,U2,2,SCL*%
%TO.N,/SCL*%
X9945000Y2925000D03*
%TO.P,U2,3,VDD*%
%TO.N,VDDA*%
X11345000Y2925000D03*
%TO.P,U2,4,VSS*%
%TO.N,GND*%
X11345000Y3725000D03*
%TD*%
D17*
%TO.P,C4,1*%
%TO.N,GND*%
X2295000Y1800000D03*
%TO.P,C4,2*%
%TO.N,VDDA*%
X3845000Y1800000D03*
%TD*%
D15*
%TO.P,R2,1*%
%TO.N,/SCL*%
X13999000Y10795000D03*
%TO.P,R2,2*%
%TO.N,VCC*%
X13999000Y9775000D03*
%TD*%
D17*
%TO.P,C2,1*%
%TO.N,GND*%
X9795000Y7000000D03*
%TO.P,C2,2*%
%TO.N,VDDA*%
X11345000Y7000000D03*
%TD*%
D18*
%TO.P,J1,1,Pin_1*%
%TO.N,VCC*%
X19812000Y2032000D03*
D19*
%TO.P,J1,2,Pin_2*%
%TO.N,GND*%
X19812000Y4572000D03*
%TO.P,J1,3,Pin_3*%
%TO.N,/SCL*%
X19812000Y7112000D03*
%TO.P,J1,4,Pin_4*%
%TO.N,/SDA*%
X19812000Y9652000D03*
%TD*%
D20*
%TO.N,VCC*%
X9794735Y8935823D03*
X1524000Y10922000D03*
X889000Y15240000D03*
X3445000Y6675000D03*
X12942500Y7696884D03*
X6888742Y6831258D03*
%TO.N,GND*%
X861500Y6885500D03*
X8878500Y7282551D03*
X3772178Y11675500D03*
X17700000Y6260000D03*
X5539014Y8491742D03*
X1905000Y13081000D03*
X15930000Y8030000D03*
X2220000Y9000000D03*
%TO.N,/SCL*%
X9300000Y4826000D03*
X11920000Y5600000D03*
%TO.N,/SDA*%
X16615000Y10182000D03*
X10570000Y9950000D03*
X18034000Y10160000D03*
X10570000Y15050000D03*
%TO.N,VDDA*%
X2505000Y10597577D03*
X2574500Y12000000D03*
X4420000Y9400000D03*
X6915802Y8104198D03*
%TD*%
D21*
%TO.N,VCC*%
X14320000Y7716000D02*
X14300884Y7696884D01*
D22*
X17920000Y2000000D02*
X16420000Y3500000D01*
D21*
X3270000Y4425000D02*
X2620000Y3775000D01*
X8900493Y8935823D02*
X9794735Y8935823D01*
D22*
X20752000Y2032000D02*
X21238000Y2518000D01*
D21*
X15269000Y9777000D02*
X14730000Y9777000D01*
D22*
X21238000Y15084000D02*
X20193000Y16129000D01*
D21*
X2620000Y3775000D02*
X2045000Y3775000D01*
X6888742Y6924072D02*
X8900493Y8935823D01*
X1535000Y10911000D02*
X1524000Y10922000D01*
D22*
X21238000Y2518000D02*
X21238000Y15084000D01*
X17920000Y2000000D02*
X17952000Y2032000D01*
D21*
X14320000Y9367000D02*
X14730000Y9777000D01*
X14730000Y9777000D02*
X14001000Y9777000D01*
D22*
X20193000Y16129000D02*
X1778000Y16129000D01*
X17952000Y2032000D02*
X19812000Y2032000D01*
D21*
X1520500Y8710257D02*
X2130757Y8100000D01*
X1520500Y9289743D02*
X1520500Y8710257D01*
X1535000Y10000000D02*
X1535000Y9304243D01*
X3445000Y4500000D02*
X3445000Y7700000D01*
D22*
X1778000Y16129000D02*
X889000Y15240000D01*
D21*
X2130757Y8100000D02*
X3045000Y8100000D01*
D22*
X16420000Y6400000D02*
X15123116Y7696884D01*
D21*
X14320000Y9454000D02*
X13999000Y9775000D01*
X1535000Y9304243D02*
X1520500Y9289743D01*
X3520000Y4425000D02*
X3445000Y4500000D01*
D22*
X16420000Y3500000D02*
X16420000Y6400000D01*
D21*
X1535000Y10000000D02*
X1535000Y10911000D01*
X14320000Y9367000D02*
X14320000Y7716000D01*
X4095000Y4425000D02*
X3270000Y4425000D01*
X3445000Y7700000D02*
X3045000Y8100000D01*
X6888742Y6831258D02*
X6888742Y6924072D01*
X4095000Y4425000D02*
X3520000Y4425000D01*
D22*
X14300884Y7696884D02*
X12942500Y7696884D01*
X19812000Y2032000D02*
X20752000Y2032000D01*
X15123116Y7696884D02*
X14300884Y7696884D01*
D21*
%TO.N,GND*%
X9795000Y7000000D02*
X9161051Y7000000D01*
X2245000Y8975000D02*
X3720000Y8975000D01*
X2045000Y2050000D02*
X2295000Y1800000D01*
X18328000Y4572000D02*
X19812000Y4572000D01*
D23*
X11457132Y3725000D02*
X11345000Y3725000D01*
D21*
X5620000Y8572728D02*
X5539014Y8491742D01*
D23*
X10316000Y5334000D02*
X9795000Y5855000D01*
D21*
X3595500Y11300500D02*
X2230257Y11300500D01*
X2245000Y8975000D02*
X2220000Y9000000D01*
X17700000Y5200000D02*
X18328000Y4572000D01*
D23*
X10348132Y5334000D02*
X11545000Y4137132D01*
D21*
X5620000Y10825000D02*
X5620000Y8572728D01*
X1905000Y11625757D02*
X1905000Y13081000D01*
X17700000Y6260000D02*
X17700000Y5200000D01*
X5211742Y8491742D02*
X5539014Y8491742D01*
D23*
X9795000Y5855000D02*
X9795000Y7000000D01*
D21*
X2230257Y11300500D02*
X1905000Y11625757D01*
X2045000Y3125000D02*
X2045000Y2050000D01*
X9161051Y7000000D02*
X8878500Y7282551D01*
D23*
X11545000Y3812868D02*
X11457132Y3725000D01*
D21*
X4820000Y8100000D02*
X5211742Y8491742D01*
D23*
X11545000Y4137132D02*
X11545000Y3812868D01*
D21*
X1395000Y3125000D02*
X1395000Y4299964D01*
X17700000Y6260000D02*
X15930000Y8030000D01*
X4595000Y8100000D02*
X3720000Y8975000D01*
D23*
X10348132Y5334000D02*
X10316000Y5334000D01*
D21*
X4095000Y3775000D02*
X3467822Y3775000D01*
X5240000Y11525000D02*
X5780000Y10985000D01*
X2045000Y3125000D02*
X1395000Y3125000D01*
X3820000Y11525000D02*
X5240000Y11525000D01*
X1395000Y4299964D02*
X861500Y4833464D01*
X861500Y4833464D02*
X861500Y6885500D01*
X2817822Y3125000D02*
X2045000Y3125000D01*
X3467822Y3775000D02*
X2817822Y3125000D01*
D24*
%TO.N,/SCL*%
X11920000Y5600000D02*
X12162000Y5842000D01*
D23*
X9945000Y2925000D02*
X9395000Y2925000D01*
D24*
X17459500Y9464500D02*
X19812000Y7112000D01*
X929500Y8251514D02*
X929500Y12946250D01*
D23*
X9300000Y3020000D02*
X9300000Y4826000D01*
D24*
X13999000Y11967000D02*
X15126000Y13094000D01*
X929500Y12946250D02*
X2357750Y14374500D01*
X12162000Y10130000D02*
X12827000Y10795000D01*
X15126000Y13094000D02*
X17459500Y10760500D01*
X17459500Y10760500D02*
X17459500Y9464500D01*
X2045000Y7136014D02*
X929500Y8251514D01*
X2357750Y14374500D02*
X13845500Y14374500D01*
X2045000Y5075000D02*
X2045000Y7136014D01*
D23*
X9395000Y2925000D02*
X9300000Y3020000D01*
D24*
X13999000Y10795000D02*
X13999000Y11967000D01*
X12162000Y5842000D02*
X12162000Y10130000D01*
X13845500Y14374500D02*
X15126000Y13094000D01*
X12827000Y10795000D02*
X13999000Y10795000D01*
%TO.N,/SDA*%
X1456000Y4939000D02*
X1456000Y7131750D01*
X15269000Y10797000D02*
X15884000Y10182000D01*
X18034000Y10160000D02*
X19304000Y10160000D01*
X508000Y13187503D02*
X2420000Y15099503D01*
X508000Y8079750D02*
X508000Y13187503D01*
X9744501Y3825499D02*
X9845000Y3725000D01*
X15884000Y10182000D02*
X16615000Y10182000D01*
X1970000Y4425000D02*
X1456000Y4939000D01*
X10644500Y8341323D02*
X9005323Y8341323D01*
X19812000Y12908000D02*
X19812000Y9652000D01*
X1456000Y7131750D02*
X508000Y8079750D01*
X10644500Y9875500D02*
X10644500Y8341323D01*
X9894500Y5072250D02*
X9894500Y4579750D01*
X8284000Y7620000D02*
X8284000Y6682750D01*
X17620497Y15099503D02*
X19812000Y12908000D01*
X9005323Y8341323D02*
X8284000Y7620000D01*
X10570000Y9950000D02*
X10644500Y9875500D01*
X9744501Y4429751D02*
X9744501Y3825499D01*
X8284000Y6682750D02*
X9894500Y5072250D01*
X9894500Y4579750D02*
X9744501Y4429751D01*
X2420000Y15099503D02*
X17620497Y15099503D01*
D21*
%TO.N,VDDA*%
X2505000Y10000000D02*
X2505000Y10597577D01*
X4895000Y3275000D02*
X4895000Y6083396D01*
X9340000Y10433396D02*
X8098606Y9192002D01*
X9340000Y10670000D02*
X9340000Y10433396D01*
X8620000Y11810000D02*
X8055000Y12375000D01*
D23*
X11345000Y2925000D02*
X11895000Y2925000D01*
D21*
X3845000Y9975000D02*
X4420000Y9400000D01*
X4095000Y3125000D02*
X4745000Y3125000D01*
X8055000Y12375000D02*
X2949500Y12375000D01*
D23*
X11300500Y5343394D02*
X11300500Y6955500D01*
X11895000Y2925000D02*
X12014501Y3044501D01*
D21*
X11370000Y10350000D02*
X11370000Y7025000D01*
X4095000Y2050000D02*
X3845000Y1800000D01*
X4895000Y6083396D02*
X6915802Y8104198D01*
X8003606Y9192002D02*
X6915802Y8104198D01*
X11050000Y10670000D02*
X11370000Y10350000D01*
X2949500Y12375000D02*
X2574500Y12000000D01*
X9340000Y10670000D02*
X11050000Y10670000D01*
X4095000Y3125000D02*
X4095000Y2050000D01*
X3820000Y9975000D02*
X2530000Y9975000D01*
X4745000Y3125000D02*
X4895000Y3275000D01*
X8098606Y9192002D02*
X8003606Y9192002D01*
X8676604Y11810000D02*
X9340000Y11146604D01*
X9340000Y11146604D02*
X9340000Y10670000D01*
D23*
X12014501Y4629393D02*
X11300500Y5343394D01*
X12014501Y3044501D02*
X12014501Y4629393D01*
D24*
%TO.N,Net-(JP1-Pad2)*%
X6291302Y8221454D02*
X6291302Y8362875D01*
X7080000Y9151573D02*
X7080000Y10985000D01*
X6291302Y8362875D02*
X7080000Y9151573D01*
X4095000Y5075000D02*
X4095000Y6025152D01*
X8620000Y10790000D02*
X7275000Y10790000D01*
X4095000Y6025152D02*
X6291302Y8221454D01*
%TD*%
M02*
