%TF.GenerationSoftware,KiCad,Pcbnew,6.0.11-2627ca5db0~126~ubuntu22.04.1*%
%TF.CreationDate,2024-02-14T11:17:40+01:00*%
%TF.ProjectId,I2C_Module_SHT45_BME280_small_FUEL4EP,4932435f-4d6f-4647-956c-655f53485434,V1.3*%
%TF.SameCoordinates,Original*%
%TF.FileFunction,Copper,L2,Bot*%
%TF.FilePolarity,Positive*%
%FSLAX46Y46*%
G04 Gerber Fmt 4.6, Leading zero omitted, Abs format (unit mm)*
G04 Created by KiCad (PCBNEW 6.0.11-2627ca5db0~126~ubuntu22.04.1) date 2024-02-14 11:17:40*
%MOMM*%
%LPD*%
G01*
G04 APERTURE LIST*
%TA.AperFunction,ComponentPad*%
%ADD10R,1.700000X1.700000*%
%TD*%
%TA.AperFunction,ComponentPad*%
%ADD11O,1.700000X1.700000*%
%TD*%
%TA.AperFunction,ViaPad*%
%ADD12C,0.600000*%
%TD*%
%TA.AperFunction,Conductor*%
%ADD13C,0.250000*%
%TD*%
G04 APERTURE END LIST*
D10*
%TO.P,J1,1,Pin_1*%
%TO.N,VCC*%
X11892000Y2032000D03*
D11*
%TO.P,J1,2,Pin_2*%
%TO.N,GND*%
X11892000Y4572000D03*
%TO.P,J1,3,Pin_3*%
%TO.N,/SCL*%
X11892000Y7112000D03*
%TO.P,J1,4,Pin_4*%
%TO.N,/SDA*%
X11892000Y9652000D03*
%TD*%
D12*
%TO.N,GND*%
X4780000Y7416800D03*
X9780000Y6260000D03*
X2203176Y7910824D03*
X5186400Y14630400D03*
X10774400Y14224000D03*
%TO.N,/SCL*%
X1380000Y4826000D03*
X4000000Y5600000D03*
%TO.N,/SDA*%
X2184400Y8940800D03*
X3575992Y9093200D03*
%TO.N,Net-(JP1-Pad2)*%
X3154400Y12039600D03*
X4572000Y11023600D03*
%TD*%
D13*
%TO.N,/SCL*%
X1380000Y4826000D02*
X2154000Y5600000D01*
X2154000Y5600000D02*
X4000000Y5600000D01*
%TO.N,/SDA*%
X2336800Y9093200D02*
X2184400Y8940800D01*
X3575992Y9093200D02*
X2336800Y9093200D01*
%TO.N,Net-(JP1-Pad2)*%
X4170400Y11023600D02*
X3154400Y12039600D01*
X4572000Y11023600D02*
X4170400Y11023600D01*
%TD*%
%TA.AperFunction,Conductor*%
%TO.N,GND*%
G36*
X13513621Y16471498D02*
G01*
X13560114Y16417842D01*
X13571500Y16365500D01*
X13571500Y4029474D01*
X13571496Y4028490D01*
X13544981Y634500D01*
X13544973Y633516D01*
X13524440Y565553D01*
X13470422Y519481D01*
X13418977Y508500D01*
X13069528Y508500D01*
X13001407Y528502D01*
X12954914Y582158D01*
X12944810Y652432D01*
X12974304Y717012D01*
X12993963Y735326D01*
X13098081Y813358D01*
X13105261Y818739D01*
X13192615Y935295D01*
X13243745Y1071684D01*
X13250500Y1133866D01*
X13250500Y2930134D01*
X13243745Y2992316D01*
X13192615Y3128705D01*
X13105261Y3245261D01*
X12988705Y3332615D01*
X12869687Y3377233D01*
X12812923Y3419875D01*
X12788223Y3486436D01*
X12803430Y3555785D01*
X12824977Y3584465D01*
X12926052Y3685188D01*
X12932730Y3693035D01*
X13057003Y3865980D01*
X13062313Y3874817D01*
X13156670Y4065733D01*
X13160469Y4075328D01*
X13222377Y4279090D01*
X13224555Y4289163D01*
X13225986Y4300038D01*
X13223775Y4314222D01*
X13210617Y4318000D01*
X10575225Y4318000D01*
X10561694Y4314027D01*
X10560257Y4304034D01*
X10590565Y4169554D01*
X10593645Y4159725D01*
X10673770Y3962397D01*
X10678413Y3953206D01*
X10789694Y3771612D01*
X10795777Y3763301D01*
X10935213Y3602333D01*
X10942577Y3595121D01*
X10947522Y3591015D01*
X10987156Y3532111D01*
X10988653Y3461130D01*
X10951537Y3400608D01*
X10911264Y3376090D01*
X10803705Y3335768D01*
X10803704Y3335767D01*
X10795295Y3332615D01*
X10678739Y3245261D01*
X10591385Y3128705D01*
X10540255Y2992316D01*
X10533500Y2930134D01*
X10533500Y1133866D01*
X10540255Y1071684D01*
X10591385Y935295D01*
X10678739Y818739D01*
X10685919Y813358D01*
X10790037Y735326D01*
X10832552Y678467D01*
X10837578Y607648D01*
X10803518Y545355D01*
X10741187Y511365D01*
X10714472Y508500D01*
X7934500Y508500D01*
X7866379Y528502D01*
X7819886Y582158D01*
X7808500Y634500D01*
X7808500Y5991377D01*
X7808502Y5992147D01*
X7808921Y6060746D01*
X7808976Y6069721D01*
X7800850Y6098153D01*
X7797272Y6114915D01*
X7794352Y6135302D01*
X7793080Y6144187D01*
X7782451Y6167564D01*
X7776004Y6185087D01*
X7775738Y6186018D01*
X7768949Y6209771D01*
X7763458Y6218474D01*
X7753170Y6234780D01*
X7745030Y6249865D01*
X7732792Y6276782D01*
X7726930Y6283585D01*
X7722095Y6291146D01*
X7724882Y6292928D01*
X7702233Y6342894D01*
X7701000Y6360475D01*
X7701000Y6477000D01*
X7508724Y6477000D01*
X7467334Y6486233D01*
X7466909Y6484842D01*
X7458324Y6487467D01*
X7450200Y6491281D01*
X7441333Y6492662D01*
X7441332Y6492662D01*
X7430478Y6494352D01*
X7420983Y6495830D01*
X7404268Y6499613D01*
X7384534Y6505515D01*
X7384528Y6505516D01*
X7375934Y6508086D01*
X7366963Y6508141D01*
X7366962Y6508141D01*
X7356903Y6508202D01*
X7341494Y6508296D01*
X7340711Y6508329D01*
X7339614Y6508500D01*
X7308623Y6508500D01*
X7307853Y6508502D01*
X7234215Y6508952D01*
X7234214Y6508952D01*
X7230279Y6508976D01*
X7228935Y6508592D01*
X7227590Y6508500D01*
X5308623Y6508500D01*
X5307853Y6508502D01*
X5307037Y6508507D01*
X5230279Y6508976D01*
X5207918Y6502585D01*
X5201847Y6500850D01*
X5185085Y6497272D01*
X5155813Y6493080D01*
X5147644Y6489366D01*
X5147641Y6489365D01*
X5145299Y6488300D01*
X5140280Y6487212D01*
X5139023Y6486845D01*
X5138997Y6486934D01*
X5093147Y6477000D01*
X634500Y6477000D01*
X566379Y6497002D01*
X519886Y6550658D01*
X508500Y6603000D01*
X508500Y7145305D01*
X10529251Y7145305D01*
X10529548Y7140152D01*
X10529548Y7140149D01*
X10535011Y7045410D01*
X10542110Y6922285D01*
X10543247Y6917239D01*
X10543248Y6917233D01*
X10563119Y6829061D01*
X10591222Y6704361D01*
X10629461Y6610189D01*
X10670834Y6508300D01*
X10675266Y6497384D01*
X10705169Y6448587D01*
X10777059Y6331273D01*
X10791987Y6306912D01*
X10938250Y6138062D01*
X11110126Y5995368D01*
X11116198Y5991820D01*
X11183955Y5952226D01*
X11232679Y5900588D01*
X11245750Y5830805D01*
X11219019Y5765033D01*
X11178562Y5731673D01*
X11170457Y5727454D01*
X11161738Y5721964D01*
X10991433Y5594095D01*
X10983726Y5587252D01*
X10836590Y5433283D01*
X10830104Y5425273D01*
X10710098Y5249351D01*
X10705000Y5240377D01*
X10615338Y5047217D01*
X10611775Y5037530D01*
X10556389Y4837817D01*
X10557912Y4829393D01*
X10570292Y4826000D01*
X13210344Y4826000D01*
X13223875Y4829973D01*
X13225180Y4839053D01*
X13183214Y5006125D01*
X13179894Y5015876D01*
X13094972Y5211186D01*
X13090105Y5220261D01*
X12974426Y5399074D01*
X12968136Y5407243D01*
X12824806Y5564760D01*
X12817273Y5571785D01*
X12650139Y5703778D01*
X12641556Y5709480D01*
X12604602Y5729880D01*
X12554631Y5780313D01*
X12539859Y5849755D01*
X12564975Y5916161D01*
X12592327Y5942768D01*
X12615797Y5959509D01*
X12771860Y6070827D01*
X12779412Y6078352D01*
X12926435Y6224863D01*
X12930096Y6228511D01*
X12939170Y6241138D01*
X13057435Y6405723D01*
X13060453Y6409923D01*
X13071756Y6432792D01*
X13157136Y6605547D01*
X13157137Y6605549D01*
X13159430Y6610189D01*
X13224370Y6823931D01*
X13253529Y7045410D01*
X13255156Y7112000D01*
X13236852Y7334639D01*
X13182431Y7551298D01*
X13093354Y7756160D01*
X12972014Y7943723D01*
X12821670Y8108949D01*
X12817619Y8112148D01*
X12817615Y8112152D01*
X12650414Y8244200D01*
X12650410Y8244202D01*
X12646359Y8247402D01*
X12605053Y8270204D01*
X12555084Y8320636D01*
X12540312Y8390079D01*
X12565428Y8456484D01*
X12592780Y8483091D01*
X12636603Y8514350D01*
X12771860Y8610827D01*
X12930096Y8768511D01*
X12989594Y8851311D01*
X13057435Y8945723D01*
X13060453Y8949923D01*
X13129307Y9089238D01*
X13157136Y9145547D01*
X13157137Y9145549D01*
X13159430Y9150189D01*
X13224370Y9363931D01*
X13253529Y9585410D01*
X13255156Y9652000D01*
X13236852Y9874639D01*
X13182431Y10091298D01*
X13093354Y10296160D01*
X13008106Y10427934D01*
X12974822Y10479383D01*
X12974820Y10479386D01*
X12972014Y10483723D01*
X12821670Y10648949D01*
X12817619Y10652148D01*
X12817615Y10652152D01*
X12650414Y10784200D01*
X12650410Y10784202D01*
X12646359Y10787402D01*
X12450789Y10895362D01*
X12445920Y10897086D01*
X12445916Y10897088D01*
X12245087Y10968205D01*
X12245083Y10968206D01*
X12240212Y10969931D01*
X12235119Y10970838D01*
X12235116Y10970839D01*
X12025373Y11008200D01*
X12025367Y11008201D01*
X12020284Y11009106D01*
X11946452Y11010008D01*
X11802081Y11011772D01*
X11802079Y11011772D01*
X11796911Y11011835D01*
X11576091Y10978045D01*
X11363756Y10908643D01*
X11165607Y10805493D01*
X11161474Y10802390D01*
X11161471Y10802388D01*
X11137247Y10784200D01*
X10986965Y10671365D01*
X10832629Y10509862D01*
X10829715Y10505590D01*
X10829714Y10505589D01*
X10774649Y10424867D01*
X10706743Y10325320D01*
X10612688Y10122695D01*
X10552989Y9907430D01*
X10529251Y9685305D01*
X10529548Y9680152D01*
X10529548Y9680149D01*
X10534998Y9585634D01*
X10542110Y9462285D01*
X10543247Y9457239D01*
X10543248Y9457233D01*
X10563119Y9369061D01*
X10591222Y9244361D01*
X10636800Y9132115D01*
X10663419Y9066561D01*
X10675266Y9037384D01*
X10791987Y8846912D01*
X10938250Y8678062D01*
X11110126Y8535368D01*
X11180595Y8494189D01*
X11183445Y8492524D01*
X11232169Y8440886D01*
X11245240Y8371103D01*
X11218509Y8305331D01*
X11178055Y8271973D01*
X11165607Y8265493D01*
X11161474Y8262390D01*
X11161471Y8262388D01*
X11002678Y8143163D01*
X10986965Y8131365D01*
X10832629Y7969862D01*
X10706743Y7785320D01*
X10612688Y7582695D01*
X10552989Y7367430D01*
X10529251Y7145305D01*
X508500Y7145305D01*
X508500Y8952160D01*
X1370863Y8952160D01*
X1388563Y8771640D01*
X1445818Y8599527D01*
X1449465Y8593505D01*
X1449466Y8593503D01*
X1530500Y8459700D01*
X1539780Y8444376D01*
X1544669Y8439313D01*
X1544670Y8439312D01*
X1610539Y8371103D01*
X1665782Y8313898D01*
X1693801Y8295563D01*
X1767399Y8247402D01*
X1817559Y8214578D01*
X1824163Y8212122D01*
X1824165Y8212121D01*
X1980958Y8153810D01*
X1980960Y8153810D01*
X1987568Y8151352D01*
X2071395Y8140167D01*
X2160380Y8128293D01*
X2160384Y8128293D01*
X2167361Y8127362D01*
X2174372Y8128000D01*
X2174376Y8128000D01*
X2316859Y8140968D01*
X2348000Y8143802D01*
X2354702Y8145980D01*
X2354704Y8145980D01*
X2513809Y8197676D01*
X2513812Y8197677D01*
X2520508Y8199853D01*
X2630620Y8265493D01*
X2670260Y8289123D01*
X2670262Y8289124D01*
X2676312Y8292731D01*
X2807666Y8417818D01*
X2808074Y8417389D01*
X2863126Y8454017D01*
X2900539Y8459700D01*
X3029895Y8459700D01*
X3098888Y8439132D01*
X3184933Y8382826D01*
X3209151Y8366978D01*
X3215755Y8364522D01*
X3215757Y8364521D01*
X3372550Y8306210D01*
X3372552Y8306210D01*
X3379160Y8303752D01*
X3461757Y8292731D01*
X3551972Y8280693D01*
X3551976Y8280693D01*
X3558953Y8279762D01*
X3565964Y8280400D01*
X3565968Y8280400D01*
X3708451Y8293368D01*
X3739592Y8296202D01*
X3746294Y8298380D01*
X3746296Y8298380D01*
X3905401Y8350076D01*
X3905404Y8350077D01*
X3912100Y8352253D01*
X4008505Y8409722D01*
X4061852Y8441523D01*
X4061854Y8441524D01*
X4067904Y8445131D01*
X4199258Y8570218D01*
X4299635Y8721298D01*
X4364047Y8890862D01*
X4371757Y8945723D01*
X4388740Y9066561D01*
X4388740Y9066564D01*
X4389291Y9070483D01*
X4389608Y9093200D01*
X4369389Y9273455D01*
X4337882Y9363931D01*
X4312056Y9438094D01*
X4312054Y9438097D01*
X4309737Y9444752D01*
X4227097Y9577005D01*
X4217351Y9592602D01*
X4213618Y9598576D01*
X4208656Y9603573D01*
X4090770Y9722285D01*
X4090766Y9722288D01*
X4085807Y9727282D01*
X4079552Y9731252D01*
X4026530Y9764900D01*
X3932658Y9824473D01*
X3903455Y9834872D01*
X3768417Y9882957D01*
X3768412Y9882958D01*
X3761782Y9885319D01*
X3754794Y9886152D01*
X3754791Y9886153D01*
X3619435Y9902293D01*
X3581672Y9906796D01*
X3574669Y9906060D01*
X3574668Y9906060D01*
X3408280Y9888572D01*
X3408278Y9888571D01*
X3401280Y9887836D01*
X3229571Y9829382D01*
X3093031Y9745381D01*
X3027011Y9726700D01*
X2415568Y9726700D01*
X2404384Y9727227D01*
X2396891Y9728902D01*
X2389606Y9728673D01*
X2375732Y9730946D01*
X2370190Y9732919D01*
X2190080Y9754396D01*
X2183077Y9753660D01*
X2183076Y9753660D01*
X2016688Y9736172D01*
X2016686Y9736171D01*
X2009688Y9735436D01*
X1837979Y9676982D01*
X1797372Y9652000D01*
X1689495Y9585634D01*
X1689492Y9585632D01*
X1683488Y9581938D01*
X1678453Y9577007D01*
X1678450Y9577005D01*
X1558925Y9459957D01*
X1553893Y9455029D01*
X1455635Y9302562D01*
X1453226Y9295942D01*
X1453224Y9295939D01*
X1400175Y9150189D01*
X1393597Y9132115D01*
X1370863Y8952160D01*
X508500Y8952160D01*
X508500Y12050960D01*
X2340863Y12050960D01*
X2358563Y11870440D01*
X2415818Y11698327D01*
X2419465Y11692305D01*
X2419466Y11692303D01*
X2443460Y11652685D01*
X2509780Y11543176D01*
X2635782Y11412698D01*
X2787559Y11313378D01*
X2794163Y11310922D01*
X2794165Y11310921D01*
X2950958Y11252610D01*
X2950960Y11252610D01*
X2957568Y11250152D01*
X2964553Y11249220D01*
X2964557Y11249219D01*
X3002224Y11244193D01*
X3019586Y11241877D01*
X3084462Y11213041D01*
X3092016Y11206079D01*
X3666748Y10631347D01*
X3674288Y10623061D01*
X3678400Y10616582D01*
X3684177Y10611157D01*
X3728051Y10569957D01*
X3730893Y10567202D01*
X3750630Y10547465D01*
X3753827Y10544985D01*
X3762847Y10537282D01*
X3795079Y10507014D01*
X3802025Y10503195D01*
X3802028Y10503193D01*
X3812834Y10497252D01*
X3829353Y10486401D01*
X3845359Y10473986D01*
X3852628Y10470841D01*
X3852632Y10470838D01*
X3885937Y10456426D01*
X3896587Y10451209D01*
X3935340Y10429905D01*
X3943015Y10427934D01*
X3943016Y10427934D01*
X3954962Y10424867D01*
X3973667Y10418463D01*
X3992255Y10410419D01*
X4000080Y10409179D01*
X4000089Y10409177D01*
X4018562Y10406251D01*
X4067843Y10387235D01*
X4205159Y10297378D01*
X4211763Y10294922D01*
X4211765Y10294921D01*
X4368558Y10236610D01*
X4368560Y10236610D01*
X4375168Y10234152D01*
X4458995Y10222967D01*
X4547980Y10211093D01*
X4547984Y10211093D01*
X4554961Y10210162D01*
X4561972Y10210800D01*
X4561976Y10210800D01*
X4704459Y10223768D01*
X4735600Y10226602D01*
X4742302Y10228780D01*
X4742304Y10228780D01*
X4901409Y10280476D01*
X4901412Y10280477D01*
X4908108Y10282653D01*
X5063912Y10375531D01*
X5195266Y10500618D01*
X5295643Y10651698D01*
X5348141Y10789899D01*
X5357555Y10814680D01*
X5357556Y10814682D01*
X5360055Y10821262D01*
X5372336Y10908643D01*
X5384748Y10996961D01*
X5384748Y10996964D01*
X5385299Y11000883D01*
X5385616Y11023600D01*
X5365397Y11203855D01*
X5354121Y11236236D01*
X5308064Y11368494D01*
X5308062Y11368497D01*
X5305745Y11375152D01*
X5209626Y11528976D01*
X5189544Y11549199D01*
X5086778Y11652685D01*
X5086774Y11652688D01*
X5081815Y11657682D01*
X4928666Y11754873D01*
X4899463Y11765272D01*
X4764425Y11813357D01*
X4764420Y11813358D01*
X4757790Y11815719D01*
X4750802Y11816552D01*
X4750799Y11816553D01*
X4627698Y11831232D01*
X4577680Y11837196D01*
X4570677Y11836460D01*
X4570676Y11836460D01*
X4404288Y11818972D01*
X4404286Y11818971D01*
X4397288Y11818236D01*
X4382956Y11813357D01*
X4377815Y11811607D01*
X4306882Y11808589D01*
X4248115Y11841790D01*
X3988821Y12101084D01*
X3954795Y12163396D01*
X3952701Y12176135D01*
X3948582Y12212854D01*
X3947797Y12219855D01*
X3888145Y12391152D01*
X3792026Y12544976D01*
X3778341Y12558757D01*
X3669178Y12668685D01*
X3669174Y12668688D01*
X3664215Y12673682D01*
X3653097Y12680738D01*
X3604938Y12711300D01*
X3511066Y12770873D01*
X3481863Y12781272D01*
X3346825Y12829357D01*
X3346820Y12829358D01*
X3340190Y12831719D01*
X3333202Y12832552D01*
X3333199Y12832553D01*
X3210098Y12847232D01*
X3160080Y12853196D01*
X3153077Y12852460D01*
X3153076Y12852460D01*
X2986688Y12834972D01*
X2986686Y12834971D01*
X2979688Y12834236D01*
X2807979Y12775782D01*
X2801975Y12772088D01*
X2659495Y12684434D01*
X2659492Y12684432D01*
X2653488Y12680738D01*
X2648453Y12675807D01*
X2648450Y12675805D01*
X2528925Y12558757D01*
X2523893Y12553829D01*
X2425635Y12401362D01*
X2423226Y12394742D01*
X2423224Y12394739D01*
X2366006Y12237534D01*
X2363597Y12230915D01*
X2340863Y12050960D01*
X508500Y12050960D01*
X508500Y16365500D01*
X528502Y16433621D01*
X582158Y16480114D01*
X634500Y16491500D01*
X13445500Y16491500D01*
X13513621Y16471498D01*
G37*
%TD.AperFunction*%
%TD*%
M02*
