%TF.GenerationSoftware,KiCad,Pcbnew,6.0.11-2627ca5db0~126~ubuntu22.04.1*%
%TF.CreationDate,2023-09-11T09:38:43+02:00*%
%TF.ProjectId,HB-UNI-SEN-BATT_E07-900MM10S_FUEL4EP,48422d55-4e49-42d5-9345-4e2d42415454,1.0*%
%TF.SameCoordinates,Original*%
%TF.FileFunction,Soldermask,Top*%
%TF.FilePolarity,Negative*%
%FSLAX46Y46*%
G04 Gerber Fmt 4.6, Leading zero omitted, Abs format (unit mm)*
G04 Created by KiCad (PCBNEW 6.0.11-2627ca5db0~126~ubuntu22.04.1) date 2023-09-11 09:38:43*
%MOMM*%
%LPD*%
G01*
G04 APERTURE LIST*
G04 Aperture macros list*
%AMRoundRect*
0 Rectangle with rounded corners*
0 $1 Rounding radius*
0 $2 $3 $4 $5 $6 $7 $8 $9 X,Y pos of 4 corners*
0 Add a 4 corners polygon primitive as box body*
4,1,4,$2,$3,$4,$5,$6,$7,$8,$9,$2,$3,0*
0 Add four circle primitives for the rounded corners*
1,1,$1+$1,$2,$3*
1,1,$1+$1,$4,$5*
1,1,$1+$1,$6,$7*
1,1,$1+$1,$8,$9*
0 Add four rect primitives between the rounded corners*
20,1,$1+$1,$2,$3,$4,$5,0*
20,1,$1+$1,$4,$5,$6,$7,0*
20,1,$1+$1,$6,$7,$8,$9,0*
20,1,$1+$1,$8,$9,$2,$3,0*%
G04 Aperture macros list end*
%ADD10R,1.800000X1.800000*%
%ADD11C,1.800000*%
%ADD12R,1.700000X1.700000*%
%ADD13O,1.700000X1.700000*%
%ADD14C,2.640000*%
%ADD15R,2.000000X2.000000*%
%ADD16C,2.000000*%
%ADD17R,1.200000X1.200000*%
%ADD18C,1.200000*%
%ADD19C,1.600000*%
%ADD20O,1.600000X1.600000*%
%ADD21R,1.717500X1.800000*%
%ADD22O,1.717500X1.800000*%
%ADD23R,0.800000X1.500000*%
%ADD24R,1.500000X0.800000*%
%ADD25R,1.500000X1.000000*%
%ADD26C,0.700000*%
%ADD27C,4.400000*%
%ADD28R,1.350000X1.350000*%
%ADD29O,1.350000X1.350000*%
%ADD30RoundRect,0.250000X-0.550000X-0.550000X0.550000X-0.550000X0.550000X0.550000X-0.550000X0.550000X0*%
%ADD31R,1.000000X1.000000*%
%ADD32R,1.050000X2.200000*%
G04 APERTURE END LIST*
D10*
%TO.C,D1*%
X45050000Y71720000D03*
D11*
X45050000Y69180000D03*
%TD*%
D12*
%TO.C,J1*%
X46320000Y39335000D03*
D13*
X46320000Y36795000D03*
%TD*%
D12*
%TO.C,J2*%
X51400000Y39335000D03*
D13*
X51400000Y36795000D03*
%TD*%
D12*
%TO.C,J7*%
X34890000Y4410000D03*
D13*
X34890000Y6950000D03*
X34890000Y9490000D03*
X34890000Y12030000D03*
%TD*%
D14*
%TO.C,BT1*%
X57495000Y16910000D03*
X69485000Y63390000D03*
D15*
X63490000Y66140000D03*
D16*
X63490000Y14150000D03*
%TD*%
D12*
%TO.C,J3*%
X46320000Y48860000D03*
D13*
X46320000Y46320000D03*
%TD*%
D12*
%TO.C,J4*%
X51400000Y48860000D03*
D13*
X51400000Y46320000D03*
%TD*%
D12*
%TO.C,J5*%
X56480000Y8220000D03*
D13*
X59020000Y8220000D03*
X61560000Y8220000D03*
X64100000Y8220000D03*
X66640000Y8220000D03*
X69180000Y8220000D03*
%TD*%
D12*
%TO.C,J6*%
X24730000Y4410000D03*
D13*
X24730000Y6950000D03*
X24730000Y9490000D03*
X24730000Y12030000D03*
%TD*%
D17*
%TO.C,C1*%
X42164000Y36957000D03*
D18*
X42164000Y38457000D03*
%TD*%
D19*
%TO.C,R4*%
X50130000Y30445000D03*
D20*
X50130000Y27905000D03*
%TD*%
D19*
%TO.C,R5*%
X46320000Y30445000D03*
D20*
X46320000Y27905000D03*
%TD*%
D19*
%TO.C,R1*%
X45050000Y66005000D03*
D20*
X45050000Y63465000D03*
%TD*%
D19*
%TO.C,R3*%
X18380000Y8220000D03*
D20*
X15840000Y8220000D03*
%TD*%
D21*
%TO.C,Q1*%
X6950000Y8220000D03*
D22*
X9240000Y8220000D03*
X11530000Y8220000D03*
%TD*%
D12*
%TO.C,J9*%
X50130000Y4410000D03*
D13*
X50130000Y6950000D03*
X50130000Y9490000D03*
X50130000Y12030000D03*
%TD*%
D12*
%TO.C,J10*%
X64989000Y71656500D03*
D13*
X67529000Y71656500D03*
X70069000Y71656500D03*
%TD*%
D11*
%TO.C,Module2*%
X39970000Y70450000D03*
X27270000Y42510000D03*
X24730000Y70450000D03*
X26000000Y72990000D03*
X37430000Y66640000D03*
X39970000Y67910000D03*
X29810000Y42510000D03*
X24730000Y67910000D03*
X28540000Y72990000D03*
X37430000Y64100000D03*
X39970000Y65370000D03*
X32350000Y42510000D03*
X24730000Y65370000D03*
X31080000Y72990000D03*
X37430000Y61560000D03*
X39970000Y62830000D03*
X34890000Y42510000D03*
X24730000Y62830000D03*
X33620000Y72990000D03*
X37430000Y59020000D03*
X39970000Y60290000D03*
X37430000Y42510000D03*
X24730000Y60290000D03*
X36160000Y72990000D03*
X39970000Y57750000D03*
X24730000Y57750000D03*
X38700000Y72990000D03*
X39970000Y55210000D03*
X24730000Y55210000D03*
X39970000Y52670000D03*
X24730000Y52670000D03*
X39970000Y50130000D03*
X24730000Y50130000D03*
X39970000Y47590000D03*
X24730000Y47590000D03*
X39970000Y45050000D03*
X24730000Y45050000D03*
X39970000Y42510000D03*
X24730000Y42510000D03*
%TD*%
D23*
%TO.C,Module1*%
X33869000Y27338000D03*
D24*
X26329000Y34878000D03*
D23*
X33869000Y37338000D03*
D24*
X36329000Y34878000D03*
D23*
X32599000Y27338000D03*
D24*
X26329000Y33608000D03*
D23*
X32599000Y37338000D03*
D24*
X36329000Y33608000D03*
D23*
X31329000Y27338000D03*
D24*
X26329000Y32338000D03*
D23*
X31329000Y37338000D03*
D24*
X36329000Y32338000D03*
D23*
X30059000Y27338000D03*
D24*
X26329000Y31068000D03*
D23*
X30059000Y37338000D03*
D24*
X36329000Y31068000D03*
D23*
X28789000Y27338000D03*
D24*
X26329000Y29798000D03*
D23*
X28789000Y37338000D03*
D24*
X36329000Y29798000D03*
%TD*%
D25*
%TO.C,JP2*%
X50257000Y65400000D03*
X50257000Y64100000D03*
%TD*%
D16*
%TO.C,SW1*%
X52185000Y59655000D03*
X45685000Y59655000D03*
X45685000Y55155000D03*
X52185000Y55155000D03*
%TD*%
D12*
%TO.C,J8*%
X39970000Y4410000D03*
D13*
X39970000Y6950000D03*
X39970000Y9490000D03*
X39970000Y12030000D03*
%TD*%
D26*
%TO.C,H2*%
X60000000Y73550000D03*
X58727200Y70477200D03*
X61800000Y71750000D03*
X61272800Y73022800D03*
X58727200Y73022800D03*
X58200000Y71750000D03*
D27*
X60000000Y71750000D03*
D26*
X60000000Y69950000D03*
X61272800Y70477200D03*
%TD*%
%TO.C,H4*%
X58200000Y3250000D03*
X60000000Y1450000D03*
X61800000Y3250000D03*
X60000000Y5050000D03*
D27*
X60000000Y3250000D03*
D26*
X58727200Y1977200D03*
X58727200Y4522800D03*
X61272800Y4522800D03*
X61272800Y1977200D03*
%TD*%
%TO.C,H1*%
X15000000Y69950000D03*
X15000000Y73550000D03*
X16272800Y70477200D03*
X16272800Y73022800D03*
X13727200Y70477200D03*
X13200000Y71750000D03*
X13727200Y73022800D03*
D27*
X15000000Y71750000D03*
D26*
X16800000Y71750000D03*
%TD*%
%TO.C,H3*%
X15000000Y5050000D03*
X16272800Y1977200D03*
X15000000Y1450000D03*
X13727200Y1977200D03*
D27*
X15000000Y3250000D03*
D26*
X16272800Y4522800D03*
X16800000Y3250000D03*
X13200000Y3250000D03*
X13727200Y4522800D03*
%TD*%
D28*
%TO.C,J11*%
X27048000Y21682000D03*
D29*
X29048000Y21682000D03*
X31048000Y21682000D03*
X33048000Y21682000D03*
X35048000Y21682000D03*
X37048000Y21682000D03*
X39048000Y21682000D03*
X41048000Y21682000D03*
%TD*%
D14*
%TO.C,BT2*%
X17415000Y63330000D03*
X5425000Y16850000D03*
D15*
X11420000Y14100000D03*
D16*
X11420000Y66090000D03*
%TD*%
D30*
%TO.C,AE1*%
X22733000Y34163000D03*
%TD*%
D31*
%TO.C,J12*%
X22735000Y36188000D03*
D32*
X24210000Y37688000D03*
X21260000Y37688000D03*
D31*
X22735000Y39188000D03*
%TD*%
M02*
