%TF.GenerationSoftware,KiCad,Pcbnew,8.0.5-8.0.5-0~ubuntu22.04.1*%
%TF.CreationDate,2024-09-30T17:55:33+02:00*%
%TF.ProjectId,HB-UNI-SEN-BATT_E07-900MM10S_FUEL4EP,48422d55-4e49-42d5-9345-4e2d42415454,1.1*%
%TF.SameCoordinates,Original*%
%TF.FileFunction,Copper,L1,Top*%
%TF.FilePolarity,Positive*%
%FSLAX46Y46*%
G04 Gerber Fmt 4.6, Leading zero omitted, Abs format (unit mm)*
G04 Created by KiCad (PCBNEW 8.0.5-8.0.5-0~ubuntu22.04.1) date 2024-09-30 17:55:33*
%MOMM*%
%LPD*%
G01*
G04 APERTURE LIST*
G04 Aperture macros list*
%AMRoundRect*
0 Rectangle with rounded corners*
0 $1 Rounding radius*
0 $2 $3 $4 $5 $6 $7 $8 $9 X,Y pos of 4 corners*
0 Add a 4 corners polygon primitive as box body*
4,1,4,$2,$3,$4,$5,$6,$7,$8,$9,$2,$3,0*
0 Add four circle primitives for the rounded corners*
1,1,$1+$1,$2,$3*
1,1,$1+$1,$4,$5*
1,1,$1+$1,$6,$7*
1,1,$1+$1,$8,$9*
0 Add four rect primitives between the rounded corners*
20,1,$1+$1,$2,$3,$4,$5,0*
20,1,$1+$1,$4,$5,$6,$7,0*
20,1,$1+$1,$6,$7,$8,$9,0*
20,1,$1+$1,$8,$9,$2,$3,0*%
G04 Aperture macros list end*
%TA.AperFunction,EtchedComponent*%
%ADD10C,0.000000*%
%TD*%
%TA.AperFunction,ComponentPad*%
%ADD11R,1.800000X1.800000*%
%TD*%
%TA.AperFunction,ComponentPad*%
%ADD12C,1.800000*%
%TD*%
%TA.AperFunction,ComponentPad*%
%ADD13R,1.700000X1.700000*%
%TD*%
%TA.AperFunction,ComponentPad*%
%ADD14O,1.700000X1.700000*%
%TD*%
%TA.AperFunction,ComponentPad*%
%ADD15R,2.000000X2.000000*%
%TD*%
%TA.AperFunction,ComponentPad*%
%ADD16C,2.000000*%
%TD*%
%TA.AperFunction,ComponentPad*%
%ADD17R,1.200000X1.200000*%
%TD*%
%TA.AperFunction,ComponentPad*%
%ADD18C,1.200000*%
%TD*%
%TA.AperFunction,ComponentPad*%
%ADD19C,1.600000*%
%TD*%
%TA.AperFunction,ComponentPad*%
%ADD20O,1.600000X1.600000*%
%TD*%
%TA.AperFunction,ComponentPad*%
%ADD21R,1.717500X1.800000*%
%TD*%
%TA.AperFunction,ComponentPad*%
%ADD22O,1.717500X1.800000*%
%TD*%
%TA.AperFunction,SMDPad,CuDef*%
%ADD23R,0.800000X1.500000*%
%TD*%
%TA.AperFunction,SMDPad,CuDef*%
%ADD24R,1.500000X0.800000*%
%TD*%
%TA.AperFunction,SMDPad,CuDef*%
%ADD25R,1.500000X1.000000*%
%TD*%
%TA.AperFunction,ComponentPad*%
%ADD26C,0.700000*%
%TD*%
%TA.AperFunction,ComponentPad*%
%ADD27C,4.400000*%
%TD*%
%TA.AperFunction,ComponentPad*%
%ADD28R,1.350000X1.350000*%
%TD*%
%TA.AperFunction,ComponentPad*%
%ADD29O,1.350000X1.350000*%
%TD*%
%TA.AperFunction,ComponentPad*%
%ADD30RoundRect,0.250000X-0.550000X-0.550000X0.550000X-0.550000X0.550000X0.550000X-0.550000X0.550000X0*%
%TD*%
%TA.AperFunction,SMDPad,CuDef*%
%ADD31R,1.000000X1.000000*%
%TD*%
%TA.AperFunction,SMDPad,CuDef*%
%ADD32R,1.050000X2.200000*%
%TD*%
%TA.AperFunction,ViaPad*%
%ADD33C,0.600000*%
%TD*%
%TA.AperFunction,ViaPad*%
%ADD34C,0.800000*%
%TD*%
%TA.AperFunction,ViaPad*%
%ADD35C,1.000000*%
%TD*%
%TA.AperFunction,Conductor*%
%ADD36C,0.400000*%
%TD*%
%TA.AperFunction,Conductor*%
%ADD37C,0.600000*%
%TD*%
%TA.AperFunction,Conductor*%
%ADD38C,0.250000*%
%TD*%
%TA.AperFunction,Conductor*%
%ADD39C,1.500000*%
%TD*%
%TA.AperFunction,Conductor*%
%ADD40C,0.500000*%
%TD*%
%TA.AperFunction,Conductor*%
%ADD41C,0.800000*%
%TD*%
%TA.AperFunction,Conductor*%
%ADD42C,1.000000*%
%TD*%
G04 APERTURE END LIST*
D10*
%TA.AperFunction,EtchedComponent*%
%TO.C,JP2*%
G36*
X50557000Y64500000D02*
G01*
X49957000Y64500000D01*
X49957000Y65000000D01*
X50557000Y65000000D01*
X50557000Y64500000D01*
G37*
%TD.AperFunction*%
%TD*%
D11*
%TO.P,D1,1,K*%
%TO.N,GND*%
X45050000Y71720000D03*
D12*
%TO.P,D1,2,A*%
%TO.N,Net-(D1-A)*%
X45050000Y69180000D03*
%TD*%
D13*
%TO.P,J1,1,Pin_1*%
%TO.N,/A0*%
X46320000Y39335000D03*
D14*
%TO.P,J1,2,Pin_2*%
%TO.N,GND*%
X46320000Y36795000D03*
%TD*%
D13*
%TO.P,J2,1,Pin_1*%
%TO.N,/A1*%
X51400000Y39335000D03*
D14*
%TO.P,J2,2,Pin_2*%
%TO.N,GND*%
X51400000Y36795000D03*
%TD*%
D13*
%TO.P,J7,1,Pin_1*%
%TO.N,VCC*%
X34890000Y4410000D03*
D14*
%TO.P,J7,2,Pin_2*%
%TO.N,GND*%
X34890000Y6950000D03*
%TO.P,J7,3,Pin_3*%
%TO.N,/SCL*%
X34890000Y9490000D03*
%TO.P,J7,4,Pin_4*%
%TO.N,/SDA*%
X34890000Y12030000D03*
%TD*%
D15*
%TO.P,BT1,1,+*%
%TO.N,/plusBAT*%
X63490000Y66140000D03*
D16*
%TO.P,BT1,2,-*%
%TO.N,/conBAT*%
X63490000Y14150000D03*
%TD*%
D13*
%TO.P,J3,1,Pin_1*%
%TO.N,/A2*%
X46320000Y48860000D03*
D14*
%TO.P,J3,2,Pin_2*%
%TO.N,GND*%
X46320000Y46320000D03*
%TD*%
D13*
%TO.P,J4,1,Pin_1*%
%TO.N,/A3*%
X51400000Y48860000D03*
D14*
%TO.P,J4,2,Pin_2*%
%TO.N,GND*%
X51400000Y46320000D03*
%TD*%
D13*
%TO.P,J5,1,Pin_1*%
%TO.N,VCC*%
X56480000Y8220000D03*
D14*
%TO.P,J5,2,Pin_2*%
%TO.N,/minusBAT*%
X59020000Y8220000D03*
%TO.P,J5,3,Pin_3*%
%TO.N,/MOSI*%
X61560000Y8220000D03*
%TO.P,J5,4,Pin_4*%
%TO.N,/SCK*%
X64100000Y8220000D03*
%TO.P,J5,5,Pin_5*%
%TO.N,/MISO*%
X66640000Y8220000D03*
%TO.P,J5,6,Pin_6*%
%TO.N,/RSET*%
X69180000Y8220000D03*
%TD*%
D13*
%TO.P,J6,1,Pin_1*%
%TO.N,VCC*%
X24730000Y4410000D03*
D14*
%TO.P,J6,2,Pin_2*%
%TO.N,GND*%
X24730000Y6950000D03*
%TO.P,J6,3,Pin_3*%
%TO.N,/SCL*%
X24730000Y9490000D03*
%TO.P,J6,4,Pin_4*%
%TO.N,/SDA*%
X24730000Y12030000D03*
%TD*%
D17*
%TO.P,C1,1*%
%TO.N,VCC*%
X42164000Y36957000D03*
D18*
%TO.P,C1,2*%
%TO.N,GND*%
X42164000Y38457000D03*
%TD*%
D19*
%TO.P,R4,1*%
%TO.N,VCC*%
X50130000Y30445000D03*
D20*
%TO.P,R4,2*%
%TO.N,/SCL*%
X50130000Y27905000D03*
%TD*%
D19*
%TO.P,R5,1*%
%TO.N,VCC*%
X46320000Y30445000D03*
D20*
%TO.P,R5,2*%
%TO.N,/SDA*%
X46320000Y27905000D03*
%TD*%
D19*
%TO.P,R1,1*%
%TO.N,Net-(D1-A)*%
X45050000Y66005000D03*
D20*
%TO.P,R1,2*%
%TO.N,Net-(Module2-PD4_4)*%
X45050000Y63465000D03*
%TD*%
D19*
%TO.P,R3,1*%
%TO.N,VCC*%
X18380000Y8220000D03*
D20*
%TO.P,R3,2*%
%TO.N,Net-(Q1-G)*%
X15840000Y8220000D03*
%TD*%
D21*
%TO.P,Q1,1,G*%
%TO.N,Net-(Q1-G)*%
X6950000Y8220000D03*
D22*
%TO.P,Q1,2,D*%
%TO.N,/minusBAT*%
X9240000Y8220000D03*
%TO.P,Q1,3,S*%
%TO.N,GND*%
X11530000Y8220000D03*
%TD*%
D13*
%TO.P,J9,1,Pin_1*%
%TO.N,VCC*%
X50130000Y4410000D03*
D14*
%TO.P,J9,2,Pin_2*%
%TO.N,GND*%
X50130000Y6950000D03*
%TO.P,J9,3,Pin_3*%
%TO.N,/SCL*%
X50130000Y9490000D03*
%TO.P,J9,4,Pin_4*%
%TO.N,/SDA*%
X50130000Y12030000D03*
%TD*%
D13*
%TO.P,J10,1,Pin_1*%
%TO.N,VCC*%
X64989000Y71656500D03*
D14*
%TO.P,J10,2,Pin_2*%
%TO.N,/plusBAT*%
X67529000Y71656500D03*
%TO.P,J10,3,Pin_3*%
%TO.N,/minusBAT*%
X70069000Y71656500D03*
%TD*%
D12*
%TO.P,Module2,1A,VCC*%
%TO.N,unconnected-(Module2-VCC-Pad1A)*%
X39970000Y70450000D03*
%TO.P,Module2,1B,PC2/TCK*%
%TO.N,unconnected-(Module2-PC2{slash}TCK-Pad1B)*%
X27270000Y42510000D03*
%TO.P,Module2,1C,PD1/TXD0*%
%TO.N,unconnected-(Module2-PD1{slash}TXD0-Pad1C)*%
X24730000Y70450000D03*
%TO.P,Module2,1D,DTR*%
%TO.N,unconnected-(Module2-DTR-Pad1D)*%
X26000000Y72990000D03*
%TO.P,Module2,1E,VCC*%
%TO.N,unconnected-(Module2-VCC-Pad1E)*%
X37430000Y66640000D03*
%TO.P,Module2,2A,GND*%
%TO.N,GND*%
X39970000Y67910000D03*
%TO.P,Module2,2B,PC4/TD0*%
%TO.N,unconnected-(Module2-PC4{slash}TD0-Pad2B)*%
X29810000Y42510000D03*
%TO.P,Module2,2C,PD0/RXD0*%
%TO.N,unconnected-(Module2-PD0{slash}RXD0-Pad2C)*%
X24730000Y67910000D03*
%TO.P,Module2,2D,PD1/TXD0*%
%TO.N,unconnected-(Module2-PD1{slash}TXD0-Pad2D)*%
X28540000Y72990000D03*
%TO.P,Module2,2E,GND*%
%TO.N,GND*%
X37430000Y64100000D03*
%TO.P,Module2,3A,RST*%
%TO.N,/RSET*%
X39970000Y65370000D03*
%TO.P,Module2,3B,PC5/TDI*%
%TO.N,unconnected-(Module2-PC5{slash}TDI-Pad3B)*%
X32350000Y42510000D03*
%TO.P,Module2,3C,RST*%
%TO.N,unconnected-(Module2-RST-Pad3C)*%
X24730000Y65370000D03*
%TO.P,Module2,3D,PD0/RXD0*%
%TO.N,unconnected-(Module2-PD0{slash}RXD0-Pad3D)*%
X31080000Y72990000D03*
%TO.P,Module2,3E,PC0/SCL*%
%TO.N,/SCL*%
X37430000Y61560000D03*
%TO.P,Module2,4A,VCC*%
%TO.N,VCC*%
X39970000Y62830000D03*
%TO.P,Module2,4B,PB1/T1*%
%TO.N,unconnected-(Module2-PB1{slash}T1-Pad4B)*%
X34890000Y42510000D03*
%TO.P,Module2,4C,GND*%
%TO.N,GND*%
X24730000Y62830000D03*
%TO.P,Module2,4D,VCC*%
%TO.N,unconnected-(Module2-VCC-Pad4D)*%
X33620000Y72990000D03*
%TO.P,Module2,4E,PC1/SDA*%
%TO.N,/SDA*%
X37430000Y59020000D03*
%TO.P,Module2,5A,PB2/A3*%
%TO.N,/A3*%
X39970000Y60290000D03*
%TO.P,Module2,5B,PB0/T0*%
%TO.N,unconnected-(Module2-PB0{slash}T0-Pad5B)*%
X37430000Y42510000D03*
%TO.P,Module2,5C,PD2_2*%
%TO.N,/D2*%
X24730000Y60290000D03*
%TO.P,Module2,5D,GND*%
%TO.N,unconnected-(Module2-GND-Pad5D)*%
X36160000Y72990000D03*
%TO.P,Module2,6A,PB3/A2*%
%TO.N,/A2*%
X39970000Y57750000D03*
%TO.P,Module2,6C,PD3_3*%
%TO.N,unconnected-(Module2-PD3_3-Pad6C)*%
X24730000Y57750000D03*
%TO.P,Module2,6D,GND*%
%TO.N,unconnected-(Module2-GND-Pad6D)*%
X38700000Y72990000D03*
%TO.P,Module2,7A,PA1/A1*%
%TO.N,/A1*%
X39970000Y55210000D03*
%TO.P,Module2,7C,PD4_4*%
%TO.N,Net-(Module2-PD4_4)*%
X24730000Y55210000D03*
%TO.P,Module2,8A,PA0/A0*%
%TO.N,/A0*%
X39970000Y52670000D03*
%TO.P,Module2,8C,PD5_5*%
%TO.N,/D5*%
X24730000Y52670000D03*
%TO.P,Module2,9A,PB7/SCK*%
%TO.N,/SCK*%
X39970000Y50130000D03*
%TO.P,Module2,9C,PD6_6*%
%TO.N,/D6*%
X24730000Y50130000D03*
%TO.P,Module2,10A,PB6/MISO*%
%TO.N,/MISO*%
X39970000Y47590000D03*
%TO.P,Module2,10C,PD7_7*%
%TO.N,/D7*%
X24730000Y47590000D03*
%TO.P,Module2,11A,PB5/MOSI*%
%TO.N,/MOSI*%
X39970000Y45050000D03*
%TO.P,Module2,11C,PC6_8L*%
%TO.N,/CONFIG*%
X24730000Y45050000D03*
%TO.P,Module2,12A,PB4/~{SS}*%
%TO.N,/SS*%
X39970000Y42510000D03*
%TO.P,Module2,12C,PC3_9/TMS*%
%TO.N,unconnected-(Module2-PC3_9{slash}TMS-Pad12C)*%
X24730000Y42510000D03*
%TD*%
D23*
%TO.P,Module1,1A,SCK*%
%TO.N,/SCK*%
X33869000Y27338000D03*
D24*
%TO.P,Module1,1B,ANT*%
%TO.N,Net-(AE1-A)*%
X26329000Y34878000D03*
D23*
%TO.P,Module1,1C,VCC*%
%TO.N,VCC*%
X33869000Y37338000D03*
D24*
%TO.P,Module1,1D,GD02*%
%TO.N,unconnected-(Module1-GD02-Pad1D)*%
X36329000Y34878000D03*
D23*
%TO.P,Module1,2A,~{CSN}*%
%TO.N,/SS*%
X32599000Y27338000D03*
D24*
%TO.P,Module1,2B,GND*%
%TO.N,GND*%
X26329000Y33608000D03*
D23*
%TO.P,Module1,2C,GND*%
X32599000Y37338000D03*
D24*
%TO.P,Module1,2D,NC*%
%TO.N,unconnected-(Module1-NC-Pad2D)*%
X36329000Y33608000D03*
D23*
%TO.P,Module1,3A,MOSI*%
%TO.N,/MOSI*%
X31329000Y27338000D03*
D24*
%TO.P,Module1,3B,NC*%
%TO.N,unconnected-(Module1-NC-Pad3B)*%
X26329000Y32338000D03*
D23*
%TO.P,Module1,3C,NC*%
%TO.N,unconnected-(Module1-NC-Pad3C)*%
X31329000Y37338000D03*
D24*
%TO.P,Module1,3D,GD00*%
%TO.N,/D2*%
X36329000Y32338000D03*
D23*
%TO.P,Module1,4A,MISO/GD01*%
%TO.N,/MISO*%
X30059000Y27338000D03*
D24*
%TO.P,Module1,4B,NC*%
%TO.N,unconnected-(Module1-NC-Pad4B)*%
X26329000Y31068000D03*
D23*
%TO.P,Module1,4C,NC*%
%TO.N,unconnected-(Module1-NC-Pad4C)*%
X30059000Y37338000D03*
D24*
%TO.P,Module1,4D,NC*%
%TO.N,unconnected-(Module1-NC-Pad4D)*%
X36329000Y31068000D03*
D23*
%TO.P,Module1,5A,NC*%
%TO.N,unconnected-(Module1-NC-Pad5A)*%
X28789000Y27338000D03*
D24*
%TO.P,Module1,5B,NC*%
%TO.N,unconnected-(Module1-NC-Pad5B)*%
X26329000Y29798000D03*
D23*
%TO.P,Module1,5C,NC*%
%TO.N,unconnected-(Module1-NC-Pad5C)*%
X28789000Y37338000D03*
D24*
%TO.P,Module1,5D,GND*%
%TO.N,GND*%
X36329000Y29798000D03*
%TD*%
D25*
%TO.P,JP2,1,A*%
%TO.N,/plusBAT*%
X50257000Y65400000D03*
%TO.P,JP2,2,B*%
%TO.N,VCC*%
X50257000Y64100000D03*
%TD*%
D16*
%TO.P,SW1,1*%
%TO.N,/CONFIG*%
X45685000Y59655000D03*
X52185000Y59655000D03*
%TO.P,SW1,2*%
%TO.N,GND*%
X45685000Y55155000D03*
X52185000Y55155000D03*
%TD*%
D13*
%TO.P,J8,1,Pin_1*%
%TO.N,VCC*%
X39970000Y4410000D03*
D14*
%TO.P,J8,2,Pin_2*%
%TO.N,GND*%
X39970000Y6950000D03*
%TO.P,J8,3,Pin_3*%
%TO.N,/SCL*%
X39970000Y9490000D03*
%TO.P,J8,4,Pin_4*%
%TO.N,/SDA*%
X39970000Y12030000D03*
%TD*%
D26*
%TO.P,H2,1*%
%TO.N,N/C*%
X58200000Y71750000D03*
X58727200Y73022800D03*
X58727200Y70477200D03*
X60000000Y73550000D03*
D27*
X60000000Y71750000D03*
D26*
X60000000Y69950000D03*
X61272800Y73022800D03*
X61272800Y70477200D03*
X61800000Y71750000D03*
%TD*%
%TO.P,H4,1*%
%TO.N,N/C*%
X58200000Y3250000D03*
X58727200Y4522800D03*
X58727200Y1977200D03*
X60000000Y5050000D03*
D27*
X60000000Y3250000D03*
D26*
X60000000Y1450000D03*
X61272800Y4522800D03*
X61272800Y1977200D03*
X61800000Y3250000D03*
%TD*%
%TO.P,H1,1*%
%TO.N,N/C*%
X13200000Y71750000D03*
X13727200Y73022800D03*
X13727200Y70477200D03*
X15000000Y73550000D03*
D27*
X15000000Y71750000D03*
D26*
X15000000Y69950000D03*
X16272800Y73022800D03*
X16272800Y70477200D03*
X16800000Y71750000D03*
%TD*%
%TO.P,H3,1*%
%TO.N,N/C*%
X13200000Y3250000D03*
X13727200Y4522800D03*
X13727200Y1977200D03*
X15000000Y5050000D03*
D27*
X15000000Y3250000D03*
D26*
X15000000Y1450000D03*
X16272800Y4522800D03*
X16272800Y1977200D03*
X16800000Y3250000D03*
%TD*%
D28*
%TO.P,J11,1,Pin_1*%
%TO.N,/D7*%
X27048000Y21682000D03*
D29*
%TO.P,J11,2,Pin_2*%
%TO.N,/D6*%
X29048000Y21682000D03*
%TO.P,J11,3,Pin_3*%
%TO.N,/MISO*%
X31048000Y21682000D03*
%TO.P,J11,4,Pin_4*%
%TO.N,/D5*%
X33048000Y21682000D03*
%TO.P,J11,5,Pin_5*%
%TO.N,/SCK*%
X35048000Y21682000D03*
%TO.P,J11,6,Pin_6*%
%TO.N,/MOSI*%
X37048000Y21682000D03*
%TO.P,J11,7,Pin_7*%
%TO.N,GND*%
X39048000Y21682000D03*
%TO.P,J11,8,Pin_8*%
%TO.N,VCC*%
X41048000Y21682000D03*
%TD*%
D15*
%TO.P,BT2,1,+*%
%TO.N,/conBAT*%
X11420000Y14100000D03*
D16*
%TO.P,BT2,2,-*%
%TO.N,/minusBAT*%
X11420000Y66090000D03*
%TD*%
D30*
%TO.P,AE1,1,A*%
%TO.N,Net-(AE1-A)*%
X22733000Y34163000D03*
%TD*%
D31*
%TO.P,J12,1,In*%
%TO.N,Net-(AE1-A)*%
X22735000Y36188000D03*
D32*
%TO.P,J12,2,Ext*%
%TO.N,GND*%
X21260000Y37688000D03*
D31*
X22735000Y39188000D03*
D32*
X24210000Y37688000D03*
%TD*%
D33*
%TO.N,GND*%
X10861600Y18075200D03*
X37666057Y30516985D03*
X33361000Y38666161D03*
X36957000Y38608000D03*
X37630065Y29115932D03*
X52619200Y15636800D03*
X25908000Y38862000D03*
X20828000Y33274000D03*
X22733000Y32131000D03*
X22596400Y6238800D03*
X39243000Y23622000D03*
X26797000Y38862000D03*
X24765000Y32766000D03*
X24765000Y33528000D03*
X20828000Y34163000D03*
X21260000Y40716000D03*
X37679000Y29798000D03*
X21018500Y32321500D03*
X24003000Y32131000D03*
X32599000Y38666161D03*
X31583000Y38666161D03*
X39055600Y17668800D03*
X20828000Y35052000D03*
X21082000Y35941000D03*
%TO.N,/SCL*%
X52797000Y32604000D03*
X52797000Y34255000D03*
%TO.N,/SDA*%
X43271816Y40081645D03*
%TO.N,/MOSI*%
X35501271Y25583453D03*
X37592000Y25527000D03*
%TO.N,/SCK*%
X33869000Y25948000D03*
X38248500Y20585262D03*
X36576000Y24892000D03*
X36287000Y50130000D03*
%TO.N,/MISO*%
X54702000Y19523000D03*
X34417000Y45466000D03*
%TO.N,VCC*%
X54067000Y63655500D03*
X54067000Y68354500D03*
D34*
X38354000Y36957000D03*
D35*
%TO.N,/minusBAT*%
X65954200Y64701360D03*
D33*
%TO.N,/D7*%
X21732800Y23663200D03*
X21732800Y22088400D03*
%TD*%
D36*
%TO.N,GND*%
X24003000Y32131000D02*
X24130000Y32131000D01*
D37*
X39048000Y21682000D02*
X39048000Y23427000D01*
D36*
X21366000Y39188000D02*
X22735000Y39188000D01*
X20828000Y35052000D02*
X20828000Y34163000D01*
X20828000Y34163000D02*
X20828000Y33274000D01*
X20828000Y33274000D02*
X20828000Y32512000D01*
D37*
X34890000Y6950000D02*
X39970000Y6950000D01*
X50130000Y6950000D02*
X52619200Y9439200D01*
D36*
X20828000Y32512000D02*
X21018500Y32321500D01*
X23931000Y39188000D02*
X24210000Y38909000D01*
D37*
X4105200Y12995200D02*
X5781600Y12995200D01*
D38*
X37679000Y29798000D02*
X37679000Y30504042D01*
D37*
X10130000Y6820000D02*
X5591250Y6820000D01*
X24845000Y33608000D02*
X24765000Y33528000D01*
D38*
X26797000Y36703000D02*
X26797000Y38862000D01*
X25019000Y35560000D02*
X25400000Y35941000D01*
D36*
X22735000Y39188000D02*
X23931000Y39188000D01*
D37*
X4105200Y8306050D02*
X4105200Y12995200D01*
D36*
X25908000Y38862000D02*
X26797000Y38862000D01*
D37*
X32599000Y37338000D02*
X32599000Y38666161D01*
X39970000Y6950000D02*
X50130000Y6950000D01*
X13848377Y8220000D02*
X15829577Y6238800D01*
D36*
X24130000Y32131000D02*
X24765000Y32766000D01*
D38*
X25400000Y35941000D02*
X26035000Y35941000D01*
D37*
X39048000Y17676400D02*
X39055600Y17668800D01*
X39048000Y23427000D02*
X39243000Y23622000D01*
D38*
X37679000Y29798000D02*
X37679000Y29164867D01*
D36*
X21260000Y39294000D02*
X21366000Y39188000D01*
D38*
X24210000Y35607000D02*
X24257000Y35560000D01*
X24210000Y37688000D02*
X24210000Y35607000D01*
D36*
X21260000Y37688000D02*
X21260000Y39294000D01*
X24210000Y37688000D02*
X24734000Y37688000D01*
X24210000Y38909000D02*
X24210000Y37688000D01*
D38*
X24257000Y35560000D02*
X25019000Y35560000D01*
X33361000Y38666161D02*
X36898839Y38666161D01*
D37*
X39048000Y21682000D02*
X39048000Y17676400D01*
D39*
X46320000Y36795000D02*
X51400000Y36795000D01*
D38*
X33361000Y38666161D02*
X32599000Y38666161D01*
D37*
X5781600Y12995200D02*
X10861600Y18075200D01*
D36*
X21260000Y37688000D02*
X21260000Y36119000D01*
D37*
X24765000Y33528000D02*
X24765000Y32766000D01*
D36*
X24734000Y37688000D02*
X25908000Y38862000D01*
D38*
X37679000Y29164867D02*
X37630065Y29115932D01*
D37*
X11530000Y8220000D02*
X10130000Y6820000D01*
X11530000Y8220000D02*
X13848377Y8220000D01*
D36*
X21018500Y32321500D02*
X21209000Y32131000D01*
X21260000Y39294000D02*
X21260000Y40716000D01*
D37*
X5591250Y6820000D02*
X4105200Y8306050D01*
D36*
X20828000Y35687000D02*
X20828000Y35052000D01*
D39*
X46320000Y46320000D02*
X51400000Y46320000D01*
D37*
X26329000Y33608000D02*
X24845000Y33608000D01*
D38*
X26035000Y35941000D02*
X26797000Y36703000D01*
D36*
X22733000Y32131000D02*
X24003000Y32131000D01*
D37*
X36329000Y29798000D02*
X37679000Y29798000D01*
X15829577Y6238800D02*
X22596400Y6238800D01*
D38*
X31583000Y38666161D02*
X32599000Y38666161D01*
D37*
X52619200Y9439200D02*
X52619200Y15636800D01*
D38*
X37679000Y30504042D02*
X37666057Y30516985D01*
D36*
X21209000Y32131000D02*
X22733000Y32131000D01*
D38*
X36898839Y38666161D02*
X36957000Y38608000D01*
D36*
X21260000Y36119000D02*
X21082000Y35941000D01*
D37*
X24730000Y6950000D02*
X34890000Y6950000D01*
D36*
X21082000Y35941000D02*
X20828000Y35687000D01*
%TO.N,Net-(AE1-A)*%
X26329000Y34878000D02*
X23448000Y34878000D01*
X23448000Y34878000D02*
X22733000Y34163000D01*
X22735000Y36188000D02*
X22735000Y34165000D01*
D38*
%TO.N,/SS*%
X37275894Y40189663D02*
X38042337Y40189663D01*
X38042337Y40189663D02*
X40258502Y37973498D01*
X37211000Y46990000D02*
X34671000Y46990000D01*
X33610323Y25323500D02*
X33244500Y25689323D01*
X33575000Y45800000D02*
X33575000Y41228000D01*
X37338000Y45142000D02*
X37338000Y46863000D01*
X36237557Y41228000D02*
X37275894Y40189663D01*
X40258502Y37973498D02*
X40258502Y30225502D01*
X33244500Y25936810D02*
X32599000Y26582310D01*
X35024676Y26220499D02*
X34127677Y25323500D01*
X39970000Y42510000D02*
X37338000Y45142000D01*
X36253499Y26220499D02*
X35024676Y26220499D01*
X34671000Y46990000D02*
X33528000Y45847000D01*
X40258502Y30225502D02*
X36253499Y26220499D01*
X33528000Y45847000D02*
X33575000Y45800000D01*
X32599000Y26582310D02*
X32599000Y26988000D01*
X33244500Y25689323D02*
X33244500Y25936810D01*
X37338000Y46863000D02*
X37211000Y46990000D01*
X34127677Y25323500D02*
X33610323Y25323500D01*
X33575000Y41228000D02*
X36237557Y41228000D01*
%TO.N,/D2*%
X28585000Y57707792D02*
X28585000Y41822632D01*
X31116971Y39290661D02*
X37544339Y39290661D01*
X28585000Y41822632D02*
X31116971Y39290661D01*
X39359500Y35018500D02*
X36679000Y32338000D01*
X24730000Y60290000D02*
X26002792Y60290000D01*
X37544339Y39290661D02*
X39359500Y37475500D01*
X39359500Y37475500D02*
X39359500Y35018500D01*
X26002792Y60290000D02*
X28585000Y57707792D01*
%TO.N,/SCL*%
X34890000Y9490000D02*
X39970000Y9490000D01*
X39970000Y9490000D02*
X50130000Y9490000D01*
X51400000Y26000000D02*
X51400000Y10760000D01*
X50130000Y27270000D02*
X51400000Y26000000D01*
X50765000Y10125000D02*
X51400000Y10760000D01*
X45512412Y56480000D02*
X46233833Y56480000D01*
X46233833Y56480000D02*
X52797000Y49916833D01*
X52797000Y30572000D02*
X50130000Y27905000D01*
X52797000Y49916833D02*
X52797000Y34255000D01*
X52797000Y32604000D02*
X52797000Y30572000D01*
X37430000Y61560000D02*
X40432412Y61560000D01*
X24730000Y9490000D02*
X34890000Y9490000D01*
X50130000Y9490000D02*
X50765000Y10125000D01*
X40432412Y61560000D02*
X45512412Y56480000D01*
%TO.N,/SDA*%
X39970000Y12030000D02*
X50130000Y12030000D01*
X48225000Y27905000D02*
X50130000Y26000000D01*
X34890000Y12030000D02*
X39970000Y12030000D01*
X41644501Y42567911D02*
X43271816Y40940596D01*
X37430000Y52232000D02*
X38307000Y51355000D01*
X24730000Y12030000D02*
X34890000Y12030000D01*
X46320000Y27905000D02*
X48225000Y27905000D01*
X50130000Y12030000D02*
X50130000Y26000000D01*
X43271816Y40940596D02*
X43271816Y40081645D01*
X38307000Y51355000D02*
X40477412Y51355000D01*
X41280706Y43567396D02*
X41644501Y43203601D01*
X40477412Y51355000D02*
X41280706Y50551706D01*
X41644501Y43203601D02*
X41644501Y42567911D01*
X37430000Y59020000D02*
X37430000Y52232000D01*
X41280706Y50551706D02*
X41280706Y43567396D01*
%TO.N,/A0*%
X41875000Y43780000D02*
X46320000Y39335000D01*
X41875000Y51400000D02*
X41875000Y43780000D01*
X41875000Y51400000D02*
X40605000Y52670000D01*
%TO.N,/A1*%
X42510000Y44415000D02*
X46320000Y40605000D01*
X46320000Y40605000D02*
X50130000Y40605000D01*
X50130000Y40605000D02*
X51400000Y39335000D01*
X42510000Y52035000D02*
X39970000Y54575000D01*
X42510000Y52035000D02*
X42510000Y44415000D01*
%TO.N,/A2*%
X41875000Y55210000D02*
X46320000Y50765000D01*
X46320000Y50765000D02*
X46320000Y48860000D01*
X40605000Y57750000D02*
X41875000Y56480000D01*
X41875000Y56480000D02*
X41875000Y55210000D01*
%TO.N,/A3*%
X42510000Y57115000D02*
X39970000Y59655000D01*
X42510000Y55845000D02*
X49495000Y48860000D01*
X49495000Y48860000D02*
X51400000Y48860000D01*
X42510000Y57115000D02*
X42510000Y55845000D01*
%TO.N,/MOSI*%
X31329000Y26988000D02*
X32794999Y25522001D01*
X33424134Y24873999D02*
X34313866Y24873999D01*
X41195000Y43017412D02*
X41195000Y29130000D01*
X37592000Y23622000D02*
X37592000Y25527000D01*
X32794999Y25503134D02*
X33424134Y24873999D01*
X37048000Y21682000D02*
X37048000Y23078000D01*
X37048000Y23078000D02*
X37592000Y23622000D01*
X32794999Y25522001D02*
X32794999Y25503134D01*
X35023320Y25583453D02*
X35501271Y25583453D01*
X39970000Y45050000D02*
X39970000Y44242412D01*
X34313866Y24873999D02*
X35023320Y25583453D01*
X37592000Y25527000D02*
X41195000Y29130000D01*
X39970000Y44242412D02*
X41195000Y43017412D01*
%TO.N,/SCK*%
X31125000Y42002588D02*
X33387426Y39740162D01*
X33869000Y27338000D02*
X33869000Y25948000D01*
X36287000Y50130000D02*
X31125000Y44968000D01*
X37729838Y39740162D02*
X37777499Y39692501D01*
X36576000Y23210000D02*
X36576000Y24892000D01*
X31125000Y44968000D02*
X31125000Y42002588D01*
X39809001Y37661689D02*
X39809001Y30411691D01*
X39809001Y30411691D02*
X36735310Y27338000D01*
X36735310Y27338000D02*
X33869000Y27338000D01*
X37778189Y39692501D02*
X39809001Y37661689D01*
X37777499Y39692501D02*
X37778189Y39692501D01*
X33387426Y39740162D02*
X37729838Y39740162D01*
X36144738Y20585262D02*
X35048000Y21682000D01*
X35048000Y21682000D02*
X36576000Y23210000D01*
X38248500Y20585262D02*
X36144738Y20585262D01*
%TO.N,/MISO*%
X37462083Y40639164D02*
X38228526Y40639164D01*
X34417000Y45466000D02*
X36205000Y43678000D01*
X35340675Y24424498D02*
X32622502Y24424498D01*
X40708003Y29907180D02*
X35951500Y25150677D01*
X36205000Y41896247D02*
X37462083Y40639164D01*
X58533299Y7045000D02*
X57740001Y7838298D01*
X35951500Y25150677D02*
X35951500Y25035323D01*
X31647000Y25400000D02*
X30059000Y26988000D01*
X54702000Y15967000D02*
X54702000Y19523000D01*
X38228526Y40639164D02*
X40708003Y38159687D01*
X57740001Y12928999D02*
X54702000Y15967000D01*
X57740001Y7838298D02*
X57740001Y12928999D01*
X40708003Y38159687D02*
X40708003Y29907180D01*
X66640000Y8220000D02*
X65465000Y7045000D01*
X32622502Y24424498D02*
X31647000Y25400000D01*
X36205000Y43678000D02*
X36205000Y41896247D01*
X35951500Y25035323D02*
X35340675Y24424498D01*
X31647000Y25400000D02*
X31048000Y24801000D01*
X65465000Y7045000D02*
X58533299Y7045000D01*
X31048000Y24801000D02*
X31048000Y21682000D01*
%TO.N,/RSET*%
X64671500Y68037000D02*
X62449000Y68037000D01*
X69180000Y8220000D02*
X69180000Y31753100D01*
X61814000Y67402000D02*
X48225000Y67402000D01*
X47336000Y61560000D02*
X44415000Y61560000D01*
X67402000Y65306500D02*
X64671500Y68037000D01*
X48225000Y67402000D02*
X47971000Y67148000D01*
X47971000Y62195000D02*
X47336000Y61560000D01*
X67402000Y33531100D02*
X67402000Y65306500D01*
X62449000Y68037000D02*
X61814000Y67402000D01*
X69180000Y31753100D02*
X67402000Y33531100D01*
X44415000Y61560000D02*
X40605000Y65370000D01*
X47971000Y67148000D02*
X47971000Y62195000D01*
%TO.N,Net-(D1-A)*%
X45050000Y66005000D02*
X45050000Y69180000D01*
D40*
%TO.N,VCC*%
X34890000Y4410000D02*
X39970000Y4410000D01*
X39970000Y4410000D02*
X50130000Y4410000D01*
X53940000Y34255000D02*
X53940000Y57040000D01*
X45050000Y30445000D02*
X44415000Y29810000D01*
X44415000Y29810000D02*
X44415000Y27905000D01*
X54575000Y8220000D02*
X56480000Y8220000D01*
X54067000Y64100000D02*
X54067000Y63655500D01*
X46471799Y57054501D02*
X45750378Y57054501D01*
X53107454Y33505500D02*
X53221954Y33620000D01*
X43053000Y36957000D02*
X47307500Y32702500D01*
X52160000Y4410000D02*
X50130000Y4410000D01*
X23345901Y6549253D02*
X23345901Y5794099D01*
X40670378Y62134501D02*
X40665499Y62134501D01*
X48110500Y33505500D02*
X53107454Y33505500D01*
X53940000Y32985000D02*
X53940000Y8855000D01*
D41*
X38354000Y36957000D02*
X35687000Y36957000D01*
D40*
X46486300Y57040000D02*
X46471799Y57054501D01*
X45750378Y57054501D02*
X40670378Y62134501D01*
X61623500Y68291000D02*
X54067000Y68291000D01*
X53305000Y33620000D02*
X53940000Y32985000D01*
D41*
X35687000Y36957000D02*
X35306000Y37338000D01*
D40*
X53940000Y6190000D02*
X52160000Y4410000D01*
X45050000Y30445000D02*
X47307500Y32702500D01*
D37*
X43531000Y24165000D02*
X41048000Y21682000D01*
D40*
X40665499Y62134501D02*
X39970000Y62830000D01*
X53940000Y57040000D02*
X46486300Y57040000D01*
X64989000Y71656500D02*
X61623500Y68291000D01*
X24730000Y4410000D02*
X34890000Y4410000D01*
X23345901Y5794099D02*
X24730000Y4410000D01*
X42164000Y36957000D02*
X43053000Y36957000D01*
X54067000Y68291000D02*
X54067000Y68354500D01*
X45050000Y30445000D02*
X46320000Y30445000D01*
D37*
X44415000Y24165000D02*
X43531000Y24165000D01*
D40*
X54575000Y57675000D02*
X53940000Y57040000D01*
X21675154Y8220000D02*
X23345901Y6549253D01*
X18380000Y8220000D02*
X21675154Y8220000D01*
X47307500Y32702500D02*
X48110500Y33505500D01*
X54575000Y63020500D02*
X54575000Y57675000D01*
D41*
X35306000Y37338000D02*
X33869000Y37338000D01*
D40*
X53940000Y8855000D02*
X53940000Y6190000D01*
X53940000Y8855000D02*
X54575000Y8220000D01*
X54067000Y63528500D02*
X54575000Y63020500D01*
X54067000Y64100000D02*
X54067000Y63528500D01*
D37*
X44415000Y27905000D02*
X44415000Y24165000D01*
D40*
X53221954Y33620000D02*
X53305000Y33620000D01*
X46320000Y30445000D02*
X50130000Y30445000D01*
X50257000Y64100000D02*
X54067000Y64100000D01*
X53305000Y33620000D02*
X53940000Y34255000D01*
D42*
%TO.N,/minusBAT*%
X59667700Y58414860D02*
X65954200Y64701360D01*
X59020000Y8220000D02*
X59020000Y12196002D01*
X59667700Y12843702D02*
X59667700Y58414860D01*
X59020000Y12196002D02*
X59667700Y12843702D01*
%TO.N,/plusBAT*%
X50257000Y65400000D02*
X62300000Y65400000D01*
X62300000Y65400000D02*
X63500000Y66600000D01*
D38*
%TO.N,/D5*%
X17480998Y25457025D02*
X23128023Y19810000D01*
X23128023Y19810000D02*
X31176000Y19810000D01*
X31176000Y19810000D02*
X33048000Y21682000D01*
X24750000Y52800000D02*
X17480998Y45530998D01*
X17480998Y45530998D02*
X17480998Y25457025D01*
%TO.N,/D6*%
X17930499Y26582324D02*
X17930499Y43330499D01*
X21991477Y22712900D02*
X21799923Y22712900D01*
X21799923Y22712900D02*
X17930499Y26582324D01*
X28048000Y22682000D02*
X22022377Y22682000D01*
X22022377Y22682000D02*
X21991477Y22712900D01*
X17930499Y43330499D02*
X24730000Y50130000D01*
X29048000Y21682000D02*
X28048000Y22682000D01*
%TO.N,/D7*%
X18380000Y41240000D02*
X24730000Y47590000D01*
X21732800Y22088400D02*
X22139200Y21682000D01*
X22139200Y21682000D02*
X27048000Y21682000D01*
X18380000Y27016000D02*
X18380000Y41240000D01*
X18380000Y27016000D02*
X21732800Y23663200D01*
%TO.N,/CONFIG*%
X37928003Y65414999D02*
X36931997Y65414999D01*
X23460000Y59655000D02*
X23460000Y63465000D01*
X24095000Y64100000D02*
X35616998Y64100000D01*
X23460000Y63465000D02*
X24095000Y64100000D01*
X24095000Y59020000D02*
X23460000Y59655000D01*
X36931997Y65414999D02*
X35616998Y64100000D01*
X45685000Y59655000D02*
X52185000Y59655000D01*
X26635000Y57750000D02*
X25365000Y59020000D01*
X26635000Y46955000D02*
X26635000Y57750000D01*
X24730000Y45050000D02*
X26635000Y46955000D01*
X45345000Y59655000D02*
X40855001Y64144999D01*
X25365000Y59020000D02*
X24095000Y59020000D01*
X39198003Y64144999D02*
X37928003Y65414999D01*
X40855001Y64144999D02*
X39198003Y64144999D01*
%TO.N,Net-(Module2-PD4_4)*%
X41240000Y68545000D02*
X40605000Y69180000D01*
X45050000Y63465000D02*
X41240000Y67275000D01*
X24095000Y69180000D02*
X22190000Y67275000D01*
X40605000Y69180000D02*
X24095000Y69180000D01*
X22190000Y57115000D02*
X24095000Y55210000D01*
X41240000Y67275000D02*
X41240000Y68545000D01*
X22190000Y67275000D02*
X22190000Y57115000D01*
%TO.N,Net-(Q1-G)*%
X14189000Y9871000D02*
X8601000Y9871000D01*
X15840000Y8220000D02*
X14189000Y9871000D01*
X8601000Y9871000D02*
X6950000Y8220000D01*
%TD*%
M02*
