%TF.GenerationSoftware,KiCad,Pcbnew,8.0.9-8.0.9-0~ubuntu22.04.1*%
%TF.CreationDate,2025-02-24T09:16:42+01:00*%
%TF.ProjectId,HB-UNI-SEN-BATT_FUEL4EP,48422d55-4e49-42d5-9345-4e2d42415454,V1.5*%
%TF.SameCoordinates,Original*%
%TF.FileFunction,Copper,L2,Bot*%
%TF.FilePolarity,Positive*%
%FSLAX46Y46*%
G04 Gerber Fmt 4.6, Leading zero omitted, Abs format (unit mm)*
G04 Created by KiCad (PCBNEW 8.0.9-8.0.9-0~ubuntu22.04.1) date 2025-02-24 09:16:42*
%MOMM*%
%LPD*%
G01*
G04 APERTURE LIST*
%TA.AperFunction,ComponentPad*%
%ADD10R,1.800000X1.800000*%
%TD*%
%TA.AperFunction,ComponentPad*%
%ADD11C,1.800000*%
%TD*%
%TA.AperFunction,ComponentPad*%
%ADD12R,1.700000X1.700000*%
%TD*%
%TA.AperFunction,ComponentPad*%
%ADD13O,1.700000X1.700000*%
%TD*%
%TA.AperFunction,ComponentPad*%
%ADD14R,1.200000X1.200000*%
%TD*%
%TA.AperFunction,ComponentPad*%
%ADD15C,1.200000*%
%TD*%
%TA.AperFunction,ComponentPad*%
%ADD16C,1.600000*%
%TD*%
%TA.AperFunction,ComponentPad*%
%ADD17O,1.600000X1.600000*%
%TD*%
%TA.AperFunction,ComponentPad*%
%ADD18R,1.717500X1.800000*%
%TD*%
%TA.AperFunction,ComponentPad*%
%ADD19O,1.717500X1.800000*%
%TD*%
%TA.AperFunction,SMDPad,CuDef*%
%ADD20R,1.000000X1.500000*%
%TD*%
%TA.AperFunction,ComponentPad*%
%ADD21C,1.350000*%
%TD*%
%TA.AperFunction,ComponentPad*%
%ADD22C,3.000000*%
%TD*%
%TA.AperFunction,ComponentPad*%
%ADD23C,2.000000*%
%TD*%
%TA.AperFunction,ComponentPad*%
%ADD24C,4.400000*%
%TD*%
%TA.AperFunction,ComponentPad*%
%ADD25C,0.700000*%
%TD*%
%TA.AperFunction,ComponentPad*%
%ADD26R,2.000000X2.000000*%
%TD*%
%TA.AperFunction,ViaPad*%
%ADD27C,0.600000*%
%TD*%
%TA.AperFunction,ViaPad*%
%ADD28C,0.900000*%
%TD*%
%TA.AperFunction,Conductor*%
%ADD29C,0.250000*%
%TD*%
%TA.AperFunction,Conductor*%
%ADD30C,1.000000*%
%TD*%
%TA.AperFunction,Conductor*%
%ADD31C,0.500000*%
%TD*%
G04 APERTURE END LIST*
D10*
%TO.P,D1,1,K*%
%TO.N,GND*%
X45050000Y71720000D03*
D11*
%TO.P,D1,2,A*%
%TO.N,Net-(D1-A)*%
X45050000Y69180000D03*
%TD*%
D12*
%TO.P,J1,1,Pin_1*%
%TO.N,/A0*%
X46320000Y39335000D03*
D13*
%TO.P,J1,2,Pin_2*%
%TO.N,GND*%
X46320000Y36795000D03*
%TD*%
D12*
%TO.P,J2,1,Pin_1*%
%TO.N,/A1*%
X51400000Y39335000D03*
D13*
%TO.P,J2,2,Pin_2*%
%TO.N,GND*%
X51400000Y36795000D03*
%TD*%
D12*
%TO.P,J7,1,Pin_1*%
%TO.N,VCC*%
X34890000Y4410000D03*
D13*
%TO.P,J7,2,Pin_2*%
%TO.N,GND*%
X34890000Y6950000D03*
%TO.P,J7,3,Pin_3*%
%TO.N,/SCL*%
X34890000Y9490000D03*
%TO.P,J7,4,Pin_4*%
%TO.N,/SDA*%
X34890000Y12030000D03*
%TD*%
D12*
%TO.P,J3,1,Pin_1*%
%TO.N,/A2*%
X46320000Y48860000D03*
D13*
%TO.P,J3,2,Pin_2*%
%TO.N,GND*%
X46320000Y46320000D03*
%TD*%
D12*
%TO.P,J4,1,Pin_1*%
%TO.N,/A3*%
X51400000Y48860000D03*
D13*
%TO.P,J4,2,Pin_2*%
%TO.N,GND*%
X51400000Y46320000D03*
%TD*%
D12*
%TO.P,J5,1,Pin_1*%
%TO.N,VCC*%
X56480000Y8220000D03*
D13*
%TO.P,J5,2,Pin_2*%
%TO.N,/minusBAT*%
X59020000Y8220000D03*
%TO.P,J5,3,Pin_3*%
%TO.N,/MOSI*%
X61560000Y8220000D03*
%TO.P,J5,4,Pin_4*%
%TO.N,/SCK*%
X64100000Y8220000D03*
%TO.P,J5,5,Pin_5*%
%TO.N,/MISO*%
X66640000Y8220000D03*
%TO.P,J5,6,Pin_6*%
%TO.N,/RSET*%
X69180000Y8220000D03*
%TD*%
D12*
%TO.P,J6,1,Pin_1*%
%TO.N,VCC*%
X24730000Y4410000D03*
D13*
%TO.P,J6,2,Pin_2*%
%TO.N,GND*%
X24730000Y6950000D03*
%TO.P,J6,3,Pin_3*%
%TO.N,/SCL*%
X24730000Y9490000D03*
%TO.P,J6,4,Pin_4*%
%TO.N,/SDA*%
X24730000Y12030000D03*
%TD*%
D14*
%TO.P,C1,1*%
%TO.N,VCC*%
X46955000Y24095000D03*
D15*
%TO.P,C1,2*%
%TO.N,GND*%
X46955000Y22595000D03*
%TD*%
D16*
%TO.P,R4,1*%
%TO.N,VCC*%
X50130000Y30445000D03*
D17*
%TO.P,R4,2*%
%TO.N,/SCL*%
X50130000Y27905000D03*
%TD*%
D16*
%TO.P,R5,1*%
%TO.N,VCC*%
X46320000Y30445000D03*
D17*
%TO.P,R5,2*%
%TO.N,/SDA*%
X46320000Y27905000D03*
%TD*%
D16*
%TO.P,R1,1*%
%TO.N,Net-(D1-A)*%
X45050000Y66005000D03*
D17*
%TO.P,R1,2*%
%TO.N,Net-(Module2-PD4)*%
X45050000Y63465000D03*
%TD*%
D16*
%TO.P,R3,1*%
%TO.N,VCC*%
X18380000Y8220000D03*
D17*
%TO.P,R3,2*%
%TO.N,Net-(Q1-G)*%
X15840000Y8220000D03*
%TD*%
D18*
%TO.P,Q1,1,G*%
%TO.N,Net-(Q1-G)*%
X6950000Y8220000D03*
D19*
%TO.P,Q1,2,D*%
%TO.N,/minusBAT*%
X9240000Y8220000D03*
%TO.P,Q1,3,S*%
%TO.N,GND*%
X11530000Y8220000D03*
%TD*%
D12*
%TO.P,J9,1,Pin_1*%
%TO.N,VCC*%
X50130000Y4410000D03*
D13*
%TO.P,J9,2,Pin_2*%
%TO.N,GND*%
X50130000Y6950000D03*
%TO.P,J9,3,Pin_3*%
%TO.N,/SCL*%
X50130000Y9490000D03*
%TO.P,J9,4,Pin_4*%
%TO.N,/SDA*%
X50130000Y12030000D03*
%TD*%
D12*
%TO.P,J10,1,Pin_1*%
%TO.N,VCC*%
X64989000Y71656500D03*
D13*
%TO.P,J10,2,Pin_2*%
%TO.N,/plusBAT*%
X67529000Y71656500D03*
%TO.P,J10,3,Pin_3*%
%TO.N,/minusBAT*%
X70069000Y71656500D03*
%TD*%
D20*
%TO.P,JP1,1,A*%
%TO.N,/minusBAT*%
X9500000Y3775000D03*
%TO.P,JP1,2,B*%
%TO.N,GND*%
X8200000Y3775000D03*
%TD*%
D11*
%TO.P,Module2,1A,V_ACCU*%
%TO.N,/V_ACCU*%
X39970000Y70450000D03*
%TO.P,Module2,1B,PC2/TCK*%
%TO.N,unconnected-(Module2-PC2{slash}TCK-Pad1B)*%
X27270000Y42510000D03*
%TO.P,Module2,1C,PD1/TXD0*%
%TO.N,unconnected-(Module2-PD1{slash}TXD0-Pad1C)*%
X24730000Y70450000D03*
%TO.P,Module2,1D,DTR*%
%TO.N,unconnected-(Module2-DTR-Pad1D)*%
X26000000Y72990000D03*
%TO.P,Module2,1E,PC0/SCL*%
%TO.N,/SCL*%
X37430000Y61560000D03*
%TO.P,Module2,2A,GND*%
%TO.N,GND*%
X39970000Y67910000D03*
%TO.P,Module2,2B,PC4/TD0*%
%TO.N,unconnected-(Module2-PC4{slash}TD0-Pad2B)*%
X29810000Y42510000D03*
%TO.P,Module2,2C,PD0/RXD0*%
%TO.N,unconnected-(Module2-PD0{slash}RXD0-Pad2C)*%
X24730000Y67910000D03*
%TO.P,Module2,2D,PD1/TXD0*%
%TO.N,unconnected-(Module2-PD1{slash}TXD0-Pad2D)*%
X28540000Y72990000D03*
%TO.P,Module2,2E,PC1/SDA*%
%TO.N,/SDA*%
X37430000Y59020000D03*
%TO.P,Module2,3A,RSTB*%
%TO.N,/RSET*%
X39970000Y65370000D03*
%TO.P,Module2,3B,PC5/TDI*%
%TO.N,unconnected-(Module2-PC5{slash}TDI-Pad3B)*%
X32350000Y42510000D03*
%TO.P,Module2,3C,RSTB*%
%TO.N,unconnected-(Module2-RSTB-Pad3C)*%
X24730000Y65370000D03*
%TO.P,Module2,3D,PD0/RXD0*%
%TO.N,unconnected-(Module2-PD0{slash}RXD0-Pad3D)*%
X31080000Y72990000D03*
%TO.P,Module2,4A,VCC*%
%TO.N,VCC*%
X39970000Y62830000D03*
%TO.P,Module2,4B,PB1/T1*%
%TO.N,unconnected-(Module2-PB1{slash}T1-Pad4B)*%
X34890000Y42510000D03*
%TO.P,Module2,4C,GND*%
%TO.N,GND*%
X24730000Y62830000D03*
%TO.P,Module2,4D,VCC*%
%TO.N,unconnected-(Module2-VCC-Pad4D)*%
X33620000Y72990000D03*
%TO.P,Module2,5A,PB2/A3*%
%TO.N,/A3*%
X39970000Y60290000D03*
%TO.P,Module2,5B,PB0/T0*%
%TO.N,unconnected-(Module2-PB0{slash}T0-Pad5B)*%
X37430000Y42510000D03*
%TO.P,Module2,5C,PD2*%
%TO.N,/D2*%
X24730000Y60290000D03*
%TO.P,Module2,5D,GND*%
%TO.N,unconnected-(Module2-GND-Pad5D)*%
X36160000Y72990000D03*
%TO.P,Module2,6A,PB3/A2*%
%TO.N,/A2*%
X39970000Y57750000D03*
%TO.P,Module2,6C,PD3*%
%TO.N,unconnected-(Module2-PD3-Pad6C)*%
X24730000Y57750000D03*
%TO.P,Module2,6D,GND*%
%TO.N,unconnected-(Module2-GND-Pad6D)*%
X38700000Y72990000D03*
%TO.P,Module2,7A,PA1/A1*%
%TO.N,/A1*%
X39970000Y55210000D03*
%TO.P,Module2,7C,PD4*%
%TO.N,Net-(Module2-PD4)*%
X24730000Y55210000D03*
%TO.P,Module2,8A,PA0/A0*%
%TO.N,/A0*%
X39970000Y52670000D03*
%TO.P,Module2,8C,PD5*%
%TO.N,unconnected-(Module2-PD5-Pad8C)*%
X24730000Y52670000D03*
%TO.P,Module2,9A,PB7/SCK*%
%TO.N,/SCK*%
X39970000Y50130000D03*
%TO.P,Module2,9C,PD6*%
%TO.N,unconnected-(Module2-PD6-Pad9C)*%
X24730000Y50130000D03*
%TO.P,Module2,10A,PB6/MISO*%
%TO.N,/MISO*%
X39970000Y47590000D03*
%TO.P,Module2,10C,PD7*%
%TO.N,unconnected-(Module2-PD7-Pad10C)*%
X24730000Y47590000D03*
%TO.P,Module2,11A,PB5/MOSI*%
%TO.N,/MOSI*%
X39970000Y45050000D03*
%TO.P,Module2,11C,PC6/TOSC*%
%TO.N,/CONFIG*%
X24730000Y45050000D03*
%TO.P,Module2,12A,PB4/~{SS}*%
%TO.N,/SS*%
X39970000Y42510000D03*
%TO.P,Module2,12C,PC3/TMS*%
%TO.N,unconnected-(Module2-PC3{slash}TMS-Pad12C)*%
X24730000Y42510000D03*
%TD*%
D21*
%TO.P,Module1,1A,GND*%
%TO.N,GND*%
X23280000Y28555000D03*
%TO.P,Module1,1C,VCC*%
%TO.N,VCC*%
X41280000Y23055000D03*
D22*
%TO.P,Module1,2A,ANT*%
%TO.N,unconnected-(Module1-ANT-Pad2A)*%
X23280000Y31055000D03*
D21*
%TO.P,Module1,2C,GND*%
%TO.N,GND*%
X41280000Y25055000D03*
%TO.P,Module1,3A,GND*%
X23280000Y33555000D03*
%TO.P,Module1,3C,MOSI*%
%TO.N,/MOSI*%
X41280000Y27055000D03*
%TO.P,Module1,4C,SCLK*%
%TO.N,/SCK*%
X41280000Y29055000D03*
%TO.P,Module1,5C,MISO*%
%TO.N,/MISO*%
X41280000Y31055000D03*
%TO.P,Module1,6C,GD2*%
%TO.N,unconnected-(Module1-GD2-Pad6C)*%
X41280000Y33055000D03*
%TO.P,Module1,7C,GD0*%
%TO.N,/D2*%
X41280000Y35055000D03*
%TO.P,Module1,8C,~{CSN}*%
%TO.N,/SS*%
X41280000Y37055000D03*
%TD*%
D23*
%TO.P,SW1,1*%
%TO.N,/CONFIG*%
X45685000Y59655000D03*
X52185000Y59655000D03*
%TO.P,SW1,2*%
%TO.N,GND*%
X45685000Y55155000D03*
X52185000Y55155000D03*
%TD*%
D12*
%TO.P,J8,1,Pin_1*%
%TO.N,VCC*%
X39970000Y4410000D03*
D13*
%TO.P,J8,2,Pin_2*%
%TO.N,GND*%
X39970000Y6950000D03*
%TO.P,J8,3,Pin_3*%
%TO.N,/SCL*%
X39970000Y9490000D03*
%TO.P,J8,4,Pin_4*%
%TO.N,/SDA*%
X39970000Y12030000D03*
%TD*%
D24*
%TO.P,H2,1*%
%TO.N,N/C*%
X60000000Y71750000D03*
D25*
X61800000Y71750000D03*
X61272800Y70477200D03*
X60000000Y69950000D03*
X58727200Y70477200D03*
X58200000Y71750000D03*
X58727200Y73022800D03*
X60000000Y73550000D03*
X61272800Y73022800D03*
%TD*%
D24*
%TO.P,H4,1*%
%TO.N,N/C*%
X60000000Y3250000D03*
D25*
X61800000Y3250000D03*
X61272800Y1977200D03*
X60000000Y1450000D03*
X58727200Y1977200D03*
X58200000Y3250000D03*
X58727200Y4522800D03*
X60000000Y5050000D03*
X61272800Y4522800D03*
%TD*%
D24*
%TO.P,H3,1*%
%TO.N,N/C*%
X15000000Y3250000D03*
D25*
X16800000Y3250000D03*
X16272800Y1977200D03*
X15000000Y1450000D03*
X13727200Y1977200D03*
X13200000Y3250000D03*
X13727200Y4522800D03*
X15000000Y5050000D03*
X16272800Y4522800D03*
%TD*%
D24*
%TO.P,H1,1*%
%TO.N,N/C*%
X15000000Y71750000D03*
D25*
X16800000Y71750000D03*
X16272800Y70477200D03*
X15000000Y69950000D03*
X13727200Y70477200D03*
X13200000Y71750000D03*
X13727200Y73022800D03*
X15000000Y73550000D03*
X16272800Y73022800D03*
%TD*%
D23*
%TO.P,BT2,2,-*%
%TO.N,/minusBAT*%
X11420000Y66090000D03*
D26*
%TO.P,BT2,1,+*%
%TO.N,/conBAT*%
X11420000Y14100000D03*
%TD*%
D23*
%TO.P,BT1,2,-*%
%TO.N,/conBAT*%
X63490000Y14150000D03*
D26*
%TO.P,BT1,1,+*%
%TO.N,/plusBAT*%
X63490000Y66140000D03*
%TD*%
D20*
%TO.P,JP4,1,A*%
%TO.N,/conBAT*%
X4318000Y3810000D03*
%TO.P,JP4,2,B*%
%TO.N,/minusBAT*%
X5618000Y3810000D03*
%TD*%
D27*
%TO.N,GND*%
X13716000Y11938000D03*
X52670000Y16805200D03*
%TO.N,/A0*%
X53086000Y68326000D03*
%TO.N,/RSET*%
X56388000Y62230000D03*
X54356000Y62230000D03*
D28*
%TO.N,/minusBAT*%
X64262000Y62484000D03*
D27*
%TO.N,/conBAT*%
X4318000Y5588000D03*
%TD*%
D29*
%TO.N,/A0*%
X53086000Y68326000D02*
X49784000Y68326000D01*
X48514000Y41529000D02*
X46320000Y39335000D01*
X48768000Y67310000D02*
X48768000Y41529000D01*
X49784000Y68326000D02*
X48768000Y67310000D01*
X48768000Y41529000D02*
X48514000Y41529000D01*
%TO.N,/MOSI*%
X42970000Y25365000D02*
X55387800Y25365000D01*
X55387800Y25365000D02*
X65052500Y15700300D01*
X41280000Y27055000D02*
X42970000Y25365000D01*
X65052500Y11763300D02*
X61509200Y8220000D01*
X65052500Y15700300D02*
X65052500Y11763300D01*
%TO.N,/SCK*%
X41280000Y29055000D02*
X44335000Y26000000D01*
X55389210Y26000000D02*
X65502511Y15886700D01*
X65502511Y15886700D02*
X65502511Y9520911D01*
X65502511Y9520911D02*
X64201600Y8220000D01*
X44335000Y26000000D02*
X55389210Y26000000D01*
%TO.N,/MISO*%
X41280000Y31040000D02*
X45685000Y26635000D01*
X66005000Y16020620D02*
X66005000Y8855000D01*
X66005000Y8855000D02*
X66640000Y8220000D01*
X45685000Y26635000D02*
X55390620Y26635000D01*
X55390620Y26635000D02*
X66005000Y16020620D01*
%TO.N,/RSET*%
X54356000Y62230000D02*
X56388000Y62230000D01*
D30*
%TO.N,/minusBAT*%
X23460000Y2505000D02*
X53305000Y2505000D01*
X20965000Y5000000D02*
X20965000Y9035000D01*
X20965000Y9035000D02*
X19750000Y10250000D01*
X6631000Y6250000D02*
X5618000Y5237000D01*
X20965000Y5000000D02*
X23460000Y2505000D01*
X19750000Y10250000D02*
X9250000Y10250000D01*
X70069000Y68291000D02*
X64262000Y62484000D01*
X53305000Y2505000D02*
X53725002Y2505000D01*
X9250000Y8166650D02*
X9250000Y6250000D01*
X53725002Y2505000D02*
X59083500Y7863498D01*
X5618000Y5237000D02*
X5618000Y3810000D01*
X9250000Y10250000D02*
X9240000Y10260000D01*
X9500000Y6000000D02*
X9250000Y6250000D01*
X9250000Y6250000D02*
X6631000Y6250000D01*
X7750000Y11750000D02*
X7750000Y62360000D01*
X9240000Y8220000D02*
X9240000Y10260000D01*
X9500000Y3775000D02*
X9500000Y6000000D01*
X9240000Y10260000D02*
X7750000Y11750000D01*
X7750000Y62360000D02*
X11420400Y66030400D01*
X70069000Y71656500D02*
X70069000Y68291000D01*
%TO.N,/plusBAT*%
X67529000Y71656500D02*
X67529000Y70259500D01*
X67529000Y70259500D02*
X63528500Y66259000D01*
D31*
%TO.N,/conBAT*%
X4318000Y3810000D02*
X4318000Y5588000D01*
X11420000Y14100000D02*
X63477600Y14100000D01*
%TD*%
%TA.AperFunction,Conductor*%
%TO.N,GND*%
G36*
X13532725Y74239998D02*
G01*
X13579218Y74186342D01*
X13589322Y74116068D01*
X13559828Y74051488D01*
X13529789Y74026172D01*
X13458587Y73983128D01*
X13458584Y73983126D01*
X13200649Y73781047D01*
X13200647Y73781045D01*
X13200641Y73781040D01*
X12968959Y73549358D01*
X12968954Y73549352D01*
X12968953Y73549351D01*
X12890260Y73448907D01*
X12766871Y73291412D01*
X12597356Y73011003D01*
X12462880Y72712207D01*
X12365396Y72399370D01*
X12306333Y72077070D01*
X12306332Y72077067D01*
X12286549Y71750001D01*
X12286549Y71749998D01*
X12306332Y71422932D01*
X12306333Y71422929D01*
X12365396Y71100629D01*
X12462880Y70787792D01*
X12597356Y70488996D01*
X12766871Y70208587D01*
X12968954Y69950647D01*
X12968959Y69950641D01*
X13200641Y69718959D01*
X13200647Y69718954D01*
X13458587Y69516871D01*
X13738996Y69347356D01*
X14037792Y69212880D01*
X14350629Y69115396D01*
X14672929Y69056333D01*
X14672932Y69056332D01*
X14999999Y69036549D01*
X15000000Y69036549D01*
X15000001Y69036549D01*
X15327067Y69056332D01*
X15327070Y69056333D01*
X15649370Y69115396D01*
X15962207Y69212880D01*
X16261003Y69347356D01*
X16541412Y69516871D01*
X16668736Y69616623D01*
X16799351Y69718953D01*
X16799352Y69718954D01*
X16799358Y69718959D01*
X17031040Y69950641D01*
X17031045Y69950647D01*
X17042549Y69965330D01*
X17233126Y70208584D01*
X17242652Y70224342D01*
X17402643Y70488996D01*
X17537119Y70787792D01*
X17546916Y70819229D01*
X17634603Y71100629D01*
X17693667Y71422930D01*
X17713105Y71744286D01*
X17713451Y71749998D01*
X17713451Y71750001D01*
X17704759Y71893694D01*
X17693667Y72077070D01*
X17634603Y72399371D01*
X17537121Y72712203D01*
X17466210Y72869761D01*
X17402643Y73011003D01*
X17274707Y73222633D01*
X17233126Y73291416D01*
X17031047Y73549351D01*
X16799351Y73781047D01*
X16541416Y73983126D01*
X16517244Y73997738D01*
X16470211Y74026172D01*
X16422263Y74078531D01*
X16410233Y74148501D01*
X16437942Y74213867D01*
X16496592Y74253876D01*
X16535396Y74260000D01*
X24379250Y74260000D01*
X24447371Y74239998D01*
X24486683Y74199834D01*
X24514058Y74155161D01*
X24523034Y74137545D01*
X24600984Y73949357D01*
X24607094Y73930553D01*
X24654646Y73732483D01*
X24657739Y73712955D01*
X24673716Y73509955D01*
X24664270Y73454070D01*
X24664944Y73453839D01*
X24663541Y73449751D01*
X24663491Y73449456D01*
X24663253Y73448915D01*
X24663249Y73448903D01*
X24605950Y73222633D01*
X24605950Y73222631D01*
X24605949Y73222626D01*
X24586673Y72990000D01*
X24602608Y72797688D01*
X24605950Y72757366D01*
X24663249Y72531096D01*
X24663252Y72531089D01*
X24757015Y72317331D01*
X24884683Y72121920D01*
X24932629Y72069837D01*
X24964049Y72006172D01*
X24956062Y71935626D01*
X24911203Y71880597D01*
X24843714Y71858557D01*
X24839927Y71858500D01*
X24613288Y71858500D01*
X24383049Y71820080D01*
X24162273Y71744287D01*
X23956983Y71633190D01*
X23864874Y71561498D01*
X23772778Y71489817D01*
X23772774Y71489813D01*
X23614685Y71318083D01*
X23487015Y71122668D01*
X23393252Y70908910D01*
X23393249Y70908903D01*
X23335950Y70682633D01*
X23335949Y70682628D01*
X23335949Y70682626D01*
X23316673Y70450000D01*
X23335746Y70219818D01*
X23335950Y70217366D01*
X23393249Y69991096D01*
X23393251Y69991093D01*
X23487015Y69777331D01*
X23614685Y69581916D01*
X23772774Y69410186D01*
X23772785Y69410176D01*
X23940766Y69279431D01*
X23982237Y69221806D01*
X23985970Y69150908D01*
X23950780Y69089246D01*
X23940766Y69080569D01*
X23772785Y68949823D01*
X23772774Y68949813D01*
X23614685Y68778083D01*
X23487015Y68582668D01*
X23393252Y68368910D01*
X23393249Y68368903D01*
X23335950Y68142633D01*
X23335949Y68142628D01*
X23335949Y68142626D01*
X23316673Y67910000D01*
X23334934Y67689621D01*
X23335950Y67677366D01*
X23393249Y67451096D01*
X23393252Y67451089D01*
X23487015Y67237331D01*
X23614685Y67041916D01*
X23772774Y66870186D01*
X23772785Y66870176D01*
X23940766Y66739431D01*
X23982237Y66681806D01*
X23985970Y66610908D01*
X23950780Y66549246D01*
X23940766Y66540569D01*
X23772785Y66409823D01*
X23772774Y66409813D01*
X23614685Y66238083D01*
X23487015Y66042668D01*
X23393252Y65828910D01*
X23393249Y65828903D01*
X23335950Y65602633D01*
X23335949Y65602628D01*
X23335949Y65602626D01*
X23316673Y65370000D01*
X23334016Y65160697D01*
X23335950Y65137366D01*
X23393249Y64911096D01*
X23393252Y64911089D01*
X23487015Y64697331D01*
X23614685Y64501916D01*
X23772774Y64330186D01*
X23772785Y64330176D01*
X23941173Y64199114D01*
X23982644Y64141489D01*
X23986377Y64070591D01*
X23951187Y64008929D01*
X23941173Y64000251D01*
X23928680Y63990528D01*
X24605051Y63314157D01*
X24537007Y63295925D01*
X24422993Y63230099D01*
X24329901Y63137007D01*
X24264075Y63022993D01*
X24245841Y62954946D01*
X23570796Y63629991D01*
X23570795Y63629991D01*
X23487461Y63502439D01*
X23487454Y63502425D01*
X23393726Y63288747D01*
X23393724Y63288743D01*
X23336444Y63062549D01*
X23317174Y62830000D01*
X23336444Y62597450D01*
X23393724Y62371256D01*
X23393726Y62371252D01*
X23487454Y62157574D01*
X23487461Y62157560D01*
X23570795Y62030007D01*
X23570796Y62030006D01*
X24245842Y62705052D01*
X24264075Y62637007D01*
X24329901Y62522993D01*
X24422993Y62429901D01*
X24537007Y62364075D01*
X24605052Y62345842D01*
X23928680Y61669470D01*
X23928681Y61669469D01*
X23941173Y61659747D01*
X23982644Y61602122D01*
X23986378Y61531224D01*
X23951188Y61469561D01*
X23941189Y61460897D01*
X23772780Y61329818D01*
X23772779Y61329817D01*
X23772778Y61329816D01*
X23772774Y61329813D01*
X23614685Y61158083D01*
X23487015Y60962668D01*
X23393252Y60748910D01*
X23393249Y60748903D01*
X23335950Y60522633D01*
X23335949Y60522628D01*
X23335949Y60522626D01*
X23316673Y60290000D01*
X23335746Y60059818D01*
X23335950Y60057366D01*
X23393249Y59831096D01*
X23393252Y59831089D01*
X23487015Y59617331D01*
X23614685Y59421916D01*
X23772774Y59250186D01*
X23772785Y59250176D01*
X23940766Y59119431D01*
X23982237Y59061806D01*
X23985970Y58990908D01*
X23950780Y58929246D01*
X23940766Y58920569D01*
X23772785Y58789823D01*
X23772774Y58789813D01*
X23614685Y58618083D01*
X23487015Y58422668D01*
X23393252Y58208910D01*
X23393249Y58208903D01*
X23335950Y57982633D01*
X23335949Y57982628D01*
X23335949Y57982626D01*
X23316673Y57750000D01*
X23328149Y57611500D01*
X23335950Y57517366D01*
X23393249Y57291096D01*
X23393252Y57291089D01*
X23487015Y57077331D01*
X23614685Y56881916D01*
X23772774Y56710186D01*
X23772785Y56710176D01*
X23940766Y56579431D01*
X23982237Y56521806D01*
X23985970Y56450908D01*
X23950780Y56389246D01*
X23940766Y56380569D01*
X23772785Y56249823D01*
X23772774Y56249813D01*
X23614685Y56078083D01*
X23487015Y55882668D01*
X23393252Y55668910D01*
X23393249Y55668903D01*
X23335950Y55442633D01*
X23335949Y55442628D01*
X23335949Y55442626D01*
X23316673Y55210000D01*
X23327230Y55082591D01*
X23335950Y54977366D01*
X23393249Y54751096D01*
X23393252Y54751089D01*
X23487015Y54537331D01*
X23614685Y54341916D01*
X23772774Y54170186D01*
X23772785Y54170176D01*
X23940766Y54039431D01*
X23982237Y53981806D01*
X23985970Y53910908D01*
X23950780Y53849246D01*
X23940766Y53840569D01*
X23772785Y53709823D01*
X23772774Y53709813D01*
X23614685Y53538083D01*
X23487015Y53342668D01*
X23393252Y53128910D01*
X23393249Y53128903D01*
X23335950Y52902633D01*
X23316673Y52670000D01*
X23335950Y52437366D01*
X23393249Y52211096D01*
X23393252Y52211089D01*
X23487015Y51997331D01*
X23614685Y51801916D01*
X23772774Y51630186D01*
X23772785Y51630176D01*
X23940766Y51499431D01*
X23982237Y51441806D01*
X23985970Y51370908D01*
X23950780Y51309246D01*
X23940766Y51300569D01*
X23772785Y51169823D01*
X23772774Y51169813D01*
X23614685Y50998083D01*
X23487015Y50802668D01*
X23393252Y50588910D01*
X23393249Y50588903D01*
X23335950Y50362633D01*
X23335949Y50362628D01*
X23335949Y50362626D01*
X23316673Y50130000D01*
X23331074Y49956202D01*
X23335950Y49897366D01*
X23393249Y49671096D01*
X23393252Y49671089D01*
X23487015Y49457331D01*
X23614685Y49261916D01*
X23772774Y49090186D01*
X23772785Y49090176D01*
X23940766Y48959431D01*
X23982237Y48901806D01*
X23985970Y48830908D01*
X23950780Y48769246D01*
X23940766Y48760569D01*
X23772785Y48629823D01*
X23772774Y48629813D01*
X23614685Y48458083D01*
X23487015Y48262668D01*
X23393252Y48048910D01*
X23393249Y48048903D01*
X23335950Y47822633D01*
X23335949Y47822628D01*
X23335949Y47822626D01*
X23316673Y47590000D01*
X23328535Y47446843D01*
X23335950Y47357366D01*
X23393249Y47131096D01*
X23393252Y47131089D01*
X23487015Y46917331D01*
X23614685Y46721916D01*
X23772774Y46550186D01*
X23772785Y46550176D01*
X23940766Y46419431D01*
X23982237Y46361806D01*
X23985970Y46290908D01*
X23950780Y46229246D01*
X23940766Y46220569D01*
X23772785Y46089823D01*
X23772774Y46089813D01*
X23614685Y45918083D01*
X23487015Y45722668D01*
X23393252Y45508910D01*
X23393249Y45508903D01*
X23335950Y45282633D01*
X23335949Y45282628D01*
X23335949Y45282626D01*
X23316673Y45050000D01*
X23320895Y44999043D01*
X23335950Y44817366D01*
X23393249Y44591096D01*
X23393252Y44591089D01*
X23487015Y44377331D01*
X23614685Y44181916D01*
X23772774Y44010186D01*
X23772785Y44010176D01*
X23940766Y43879431D01*
X23982237Y43821806D01*
X23985970Y43750908D01*
X23950780Y43689246D01*
X23940766Y43680569D01*
X23772785Y43549823D01*
X23772774Y43549813D01*
X23614685Y43378083D01*
X23487015Y43182668D01*
X23393252Y42968910D01*
X23393249Y42968903D01*
X23335950Y42742633D01*
X23316673Y42510000D01*
X23335950Y42277366D01*
X23393249Y42051096D01*
X23393252Y42051089D01*
X23487015Y41837331D01*
X23614685Y41641916D01*
X23772774Y41470186D01*
X23772778Y41470182D01*
X23956983Y41326810D01*
X23956985Y41326809D01*
X24162273Y41215713D01*
X24162276Y41215711D01*
X24383044Y41139921D01*
X24383051Y41139919D01*
X24498066Y41120727D01*
X24613288Y41101500D01*
X24613292Y41101500D01*
X24846708Y41101500D01*
X24846712Y41101500D01*
X24988565Y41125171D01*
X25076948Y41139919D01*
X25076955Y41139921D01*
X25297723Y41215711D01*
X25297724Y41215712D01*
X25297727Y41215713D01*
X25503017Y41326810D01*
X25595118Y41398496D01*
X25687221Y41470182D01*
X25687225Y41470186D01*
X25845314Y41641916D01*
X25894517Y41717227D01*
X25948521Y41763316D01*
X26018869Y41772891D01*
X26083226Y41742914D01*
X26105483Y41717227D01*
X26154685Y41641916D01*
X26312774Y41470186D01*
X26312778Y41470182D01*
X26496983Y41326810D01*
X26496985Y41326809D01*
X26702273Y41215713D01*
X26702276Y41215711D01*
X26923044Y41139921D01*
X26923051Y41139919D01*
X27038066Y41120727D01*
X27153288Y41101500D01*
X27153292Y41101500D01*
X27386708Y41101500D01*
X27386712Y41101500D01*
X27528565Y41125171D01*
X27616948Y41139919D01*
X27616955Y41139921D01*
X27837723Y41215711D01*
X27837724Y41215712D01*
X27837727Y41215713D01*
X28043017Y41326810D01*
X28135118Y41398496D01*
X28227221Y41470182D01*
X28227225Y41470186D01*
X28385314Y41641916D01*
X28434517Y41717227D01*
X28488521Y41763316D01*
X28558869Y41772891D01*
X28623226Y41742914D01*
X28645483Y41717227D01*
X28694685Y41641916D01*
X28852774Y41470186D01*
X28852778Y41470182D01*
X29036983Y41326810D01*
X29036985Y41326809D01*
X29242273Y41215713D01*
X29242276Y41215711D01*
X29463044Y41139921D01*
X29463051Y41139919D01*
X29578066Y41120727D01*
X29693288Y41101500D01*
X29693292Y41101500D01*
X29926708Y41101500D01*
X29926712Y41101500D01*
X30068565Y41125171D01*
X30156948Y41139919D01*
X30156955Y41139921D01*
X30377723Y41215711D01*
X30377724Y41215712D01*
X30377727Y41215713D01*
X30583017Y41326810D01*
X30675118Y41398496D01*
X30767221Y41470182D01*
X30767225Y41470186D01*
X30925314Y41641916D01*
X30974517Y41717227D01*
X31028521Y41763316D01*
X31098869Y41772891D01*
X31163226Y41742914D01*
X31185483Y41717227D01*
X31234685Y41641916D01*
X31392774Y41470186D01*
X31392778Y41470182D01*
X31576983Y41326810D01*
X31576985Y41326809D01*
X31782273Y41215713D01*
X31782276Y41215711D01*
X32003044Y41139921D01*
X32003051Y41139919D01*
X32118066Y41120727D01*
X32233288Y41101500D01*
X32233292Y41101500D01*
X32466708Y41101500D01*
X32466712Y41101500D01*
X32608565Y41125171D01*
X32696948Y41139919D01*
X32696955Y41139921D01*
X32917723Y41215711D01*
X32917724Y41215712D01*
X32917727Y41215713D01*
X33123017Y41326810D01*
X33215118Y41398496D01*
X33307221Y41470182D01*
X33307225Y41470186D01*
X33465314Y41641916D01*
X33514517Y41717227D01*
X33568521Y41763316D01*
X33638869Y41772891D01*
X33703226Y41742914D01*
X33725483Y41717227D01*
X33774685Y41641916D01*
X33932774Y41470186D01*
X33932778Y41470182D01*
X34116983Y41326810D01*
X34116985Y41326809D01*
X34322273Y41215713D01*
X34322276Y41215711D01*
X34543044Y41139921D01*
X34543051Y41139919D01*
X34658066Y41120727D01*
X34773288Y41101500D01*
X34773292Y41101500D01*
X35006708Y41101500D01*
X35006712Y41101500D01*
X35148565Y41125171D01*
X35236948Y41139919D01*
X35236955Y41139921D01*
X35457723Y41215711D01*
X35457724Y41215712D01*
X35457727Y41215713D01*
X35663017Y41326810D01*
X35755118Y41398496D01*
X35847221Y41470182D01*
X35847225Y41470186D01*
X36005314Y41641916D01*
X36054517Y41717227D01*
X36108521Y41763316D01*
X36178869Y41772891D01*
X36243226Y41742914D01*
X36265483Y41717227D01*
X36314685Y41641916D01*
X36472774Y41470186D01*
X36472778Y41470182D01*
X36656983Y41326810D01*
X36656985Y41326809D01*
X36862273Y41215713D01*
X36862276Y41215711D01*
X37083044Y41139921D01*
X37083051Y41139919D01*
X37198066Y41120727D01*
X37313288Y41101500D01*
X37313292Y41101500D01*
X37546708Y41101500D01*
X37546712Y41101500D01*
X37688565Y41125171D01*
X37776948Y41139919D01*
X37776955Y41139921D01*
X37997723Y41215711D01*
X37997724Y41215712D01*
X37997727Y41215713D01*
X38203017Y41326810D01*
X38295118Y41398496D01*
X38387221Y41470182D01*
X38387225Y41470186D01*
X38545314Y41641916D01*
X38594517Y41717227D01*
X38648521Y41763316D01*
X38718869Y41772891D01*
X38783226Y41742914D01*
X38805483Y41717227D01*
X38854685Y41641916D01*
X39012774Y41470186D01*
X39012778Y41470182D01*
X39196983Y41326810D01*
X39196985Y41326809D01*
X39402273Y41215713D01*
X39402276Y41215711D01*
X39623044Y41139921D01*
X39623051Y41139919D01*
X39738066Y41120727D01*
X39853288Y41101500D01*
X39853292Y41101500D01*
X40086708Y41101500D01*
X40086712Y41101500D01*
X40228565Y41125171D01*
X40316948Y41139919D01*
X40316955Y41139921D01*
X40537723Y41215711D01*
X40537724Y41215712D01*
X40537727Y41215713D01*
X40743017Y41326810D01*
X40835118Y41398496D01*
X40927221Y41470182D01*
X40927225Y41470186D01*
X41085314Y41641916D01*
X41212984Y41837331D01*
X41288066Y42008500D01*
X41306749Y42051093D01*
X41364051Y42277374D01*
X41383327Y42510000D01*
X41364051Y42742626D01*
X41306749Y42968907D01*
X41212984Y43182669D01*
X41085314Y43378083D01*
X40927220Y43549818D01*
X40759229Y43680570D01*
X40717761Y43738193D01*
X40714027Y43809091D01*
X40749217Y43870753D01*
X40759217Y43879419D01*
X40927220Y44010182D01*
X40927221Y44010183D01*
X40927225Y44010186D01*
X41085314Y44181916D01*
X41212984Y44377331D01*
X41306747Y44591089D01*
X41306750Y44591096D01*
X41364049Y44817366D01*
X41364051Y44817374D01*
X41383327Y45050000D01*
X41364051Y45282626D01*
X41306749Y45508907D01*
X41212984Y45722669D01*
X41085314Y45918083D01*
X40927220Y46089818D01*
X40759229Y46220570D01*
X40717761Y46278193D01*
X40714027Y46349091D01*
X40749217Y46410753D01*
X40759217Y46419419D01*
X40927220Y46550182D01*
X40927221Y46550183D01*
X40927225Y46550186D01*
X41085314Y46721916D01*
X41212984Y46917331D01*
X41306747Y47131089D01*
X41306750Y47131096D01*
X41364049Y47357366D01*
X41364051Y47357374D01*
X41383327Y47590000D01*
X41364051Y47822626D01*
X41306749Y48048907D01*
X41212984Y48262669D01*
X41085314Y48458083D01*
X40927220Y48629818D01*
X40759229Y48760570D01*
X40717761Y48818193D01*
X40714027Y48889091D01*
X40749217Y48950753D01*
X40759217Y48959419D01*
X40927220Y49090182D01*
X40927221Y49090183D01*
X40927225Y49090186D01*
X41085314Y49261916D01*
X41212984Y49457331D01*
X41306747Y49671089D01*
X41306750Y49671096D01*
X41328921Y49758649D01*
X44961500Y49758649D01*
X44961500Y47961350D01*
X44968009Y47900803D01*
X44968011Y47900795D01*
X45019110Y47763797D01*
X45019112Y47763792D01*
X45106738Y47646738D01*
X45223792Y47559112D01*
X45223795Y47559111D01*
X45339313Y47516024D01*
X45396148Y47473477D01*
X45420958Y47406956D01*
X45405866Y47337582D01*
X45387981Y47312632D01*
X45244674Y47156958D01*
X45121580Y46968548D01*
X45031179Y46762456D01*
X45031176Y46762449D01*
X44983455Y46574000D01*
X45889297Y46574000D01*
X45854075Y46512993D01*
X45820000Y46385826D01*
X45820000Y46254174D01*
X45854075Y46127007D01*
X45889297Y46066000D01*
X44983456Y46066000D01*
X44983455Y46065999D01*
X45031176Y45877550D01*
X45031179Y45877543D01*
X45121580Y45671451D01*
X45244674Y45483041D01*
X45397097Y45317465D01*
X45574698Y45179232D01*
X45574699Y45179231D01*
X45772628Y45072117D01*
X45772630Y45072116D01*
X45985487Y44999043D01*
X45985498Y44999040D01*
X46065999Y44985606D01*
X46066000Y44985607D01*
X46066000Y45889297D01*
X46127007Y45854075D01*
X46254174Y45820000D01*
X46385826Y45820000D01*
X46512993Y45854075D01*
X46574000Y45889297D01*
X46574000Y44985606D01*
X46654501Y44999040D01*
X46654512Y44999043D01*
X46867369Y45072116D01*
X46867371Y45072117D01*
X47065300Y45179231D01*
X47065301Y45179232D01*
X47242902Y45317465D01*
X47395325Y45483041D01*
X47518419Y45671451D01*
X47608820Y45877543D01*
X47608823Y45877550D01*
X47656544Y46065999D01*
X47656544Y46066000D01*
X46750703Y46066000D01*
X46785925Y46127007D01*
X46820000Y46254174D01*
X46820000Y46385826D01*
X46785925Y46512993D01*
X46750703Y46574000D01*
X47656544Y46574000D01*
X47608823Y46762449D01*
X47608820Y46762456D01*
X47518419Y46968548D01*
X47395323Y47156961D01*
X47252019Y47312632D01*
X47220598Y47376297D01*
X47228585Y47446843D01*
X47273444Y47501872D01*
X47300686Y47516024D01*
X47416204Y47559111D01*
X47416207Y47559112D01*
X47533261Y47646738D01*
X47620887Y47763792D01*
X47620889Y47763797D01*
X47671988Y47900795D01*
X47671990Y47900803D01*
X47678499Y47961350D01*
X47678500Y47961367D01*
X47678500Y49758632D01*
X47678499Y49758649D01*
X47671990Y49819196D01*
X47671988Y49819204D01*
X47664960Y49838045D01*
X47620889Y49956204D01*
X47533261Y50073261D01*
X47416204Y50160889D01*
X47279201Y50211989D01*
X47279199Y50211989D01*
X47279196Y50211990D01*
X47218649Y50218499D01*
X47218645Y50218499D01*
X47218638Y50218500D01*
X45421362Y50218500D01*
X45421355Y50218499D01*
X45421350Y50218499D01*
X45360803Y50211990D01*
X45360795Y50211988D01*
X45282875Y50182924D01*
X45223796Y50160889D01*
X45223794Y50160888D01*
X45223792Y50160887D01*
X45106738Y50073261D01*
X45019112Y49956207D01*
X45019110Y49956202D01*
X44968011Y49819204D01*
X44968009Y49819196D01*
X44961500Y49758649D01*
X41328921Y49758649D01*
X41364049Y49897366D01*
X41364051Y49897374D01*
X41383327Y50130000D01*
X41364051Y50362626D01*
X41306749Y50588907D01*
X41212984Y50802669D01*
X41085314Y50998083D01*
X40927220Y51169818D01*
X40759229Y51300570D01*
X40717761Y51358193D01*
X40714027Y51429091D01*
X40749217Y51490753D01*
X40759217Y51499419D01*
X40927220Y51630182D01*
X40927221Y51630183D01*
X40927225Y51630186D01*
X41085314Y51801916D01*
X41212984Y51997331D01*
X41306747Y52211089D01*
X41306750Y52211096D01*
X41364049Y52437366D01*
X41364051Y52437374D01*
X41383327Y52670000D01*
X41364051Y52902626D01*
X41306749Y53128907D01*
X41212984Y53342669D01*
X41085314Y53538083D01*
X40927220Y53709818D01*
X40759229Y53840570D01*
X40717761Y53898193D01*
X40714027Y53969091D01*
X40749217Y54030753D01*
X40759217Y54039419D01*
X40927220Y54170182D01*
X40927221Y54170183D01*
X40927225Y54170186D01*
X41085314Y54341916D01*
X41212984Y54537331D01*
X41259108Y54642482D01*
X41306749Y54751093D01*
X41349109Y54918367D01*
X41364049Y54977366D01*
X41364051Y54977374D01*
X41378770Y55155000D01*
X44172337Y55155000D01*
X44190960Y54918367D01*
X44246371Y54687562D01*
X44337208Y54468262D01*
X44451896Y54281107D01*
X44451898Y54281107D01*
X45160017Y54989226D01*
X45172482Y54942708D01*
X45244890Y54817292D01*
X45347292Y54714890D01*
X45472708Y54642482D01*
X45519226Y54630017D01*
X44811107Y53921898D01*
X44811107Y53921896D01*
X44998262Y53807208D01*
X45217562Y53716371D01*
X45448367Y53660960D01*
X45685000Y53642337D01*
X45921632Y53660960D01*
X46152437Y53716371D01*
X46371733Y53807206D01*
X46558891Y53921897D01*
X45850772Y54630017D01*
X45897292Y54642482D01*
X46022708Y54714890D01*
X46125110Y54817292D01*
X46197518Y54942708D01*
X46209982Y54989226D01*
X46918101Y54281107D01*
X46918102Y54281107D01*
X47032791Y54468261D01*
X47123628Y54687562D01*
X47179039Y54918367D01*
X47197662Y55155000D01*
X47179039Y55391632D01*
X47123628Y55622437D01*
X47032791Y55841738D01*
X46918102Y56028891D01*
X46918101Y56028892D01*
X46209982Y55320773D01*
X46197518Y55367292D01*
X46125110Y55492708D01*
X46022708Y55595110D01*
X45897292Y55667518D01*
X45850773Y55679982D01*
X46558892Y56388101D01*
X46558891Y56388102D01*
X46371738Y56502791D01*
X46152437Y56593628D01*
X45921632Y56649039D01*
X45685000Y56667662D01*
X45448367Y56649039D01*
X45217562Y56593628D01*
X44998261Y56502791D01*
X44811107Y56388102D01*
X44811107Y56388101D01*
X45519226Y55679982D01*
X45472708Y55667518D01*
X45347292Y55595110D01*
X45244890Y55492708D01*
X45172482Y55367292D01*
X45160016Y55320771D01*
X44451897Y56028891D01*
X44337206Y55841733D01*
X44246371Y55622437D01*
X44190960Y55391632D01*
X44172337Y55155000D01*
X41378770Y55155000D01*
X41383327Y55210000D01*
X41364051Y55442626D01*
X41306749Y55668907D01*
X41212984Y55882669D01*
X41085314Y56078083D01*
X40927220Y56249818D01*
X40759229Y56380570D01*
X40717761Y56438193D01*
X40714027Y56509091D01*
X40749217Y56570753D01*
X40759217Y56579419D01*
X40927220Y56710182D01*
X40927221Y56710183D01*
X40927225Y56710186D01*
X41085314Y56881916D01*
X41212984Y57077331D01*
X41306747Y57291089D01*
X41306750Y57291096D01*
X41364049Y57517366D01*
X41364051Y57517374D01*
X41383327Y57750000D01*
X41364051Y57982626D01*
X41306749Y58208907D01*
X41212984Y58422669D01*
X41085314Y58618083D01*
X40949529Y58765584D01*
X40927225Y58789813D01*
X40927223Y58789813D01*
X40927220Y58789818D01*
X40759229Y58920570D01*
X40717761Y58978193D01*
X40714027Y59049091D01*
X40749217Y59110753D01*
X40759217Y59119419D01*
X40927220Y59250182D01*
X40927221Y59250183D01*
X40927225Y59250186D01*
X41085314Y59421916D01*
X41212984Y59617331D01*
X41229507Y59655000D01*
X44171835Y59655000D01*
X44190465Y59418289D01*
X44245894Y59187407D01*
X44336759Y58968038D01*
X44460825Y58765582D01*
X44460826Y58765580D01*
X44615030Y58585030D01*
X44795580Y58430826D01*
X44795582Y58430825D01*
X44998038Y58306759D01*
X45217407Y58215894D01*
X45448289Y58160465D01*
X45685000Y58141835D01*
X45921711Y58160465D01*
X45994651Y58177976D01*
X46152592Y58215894D01*
X46371961Y58306759D01*
X46371963Y58306760D01*
X46574416Y58430824D01*
X46574417Y58430825D01*
X46574419Y58430826D01*
X46754969Y58585030D01*
X46909173Y58765580D01*
X46909174Y58765582D01*
X46909176Y58765584D01*
X47033240Y58968037D01*
X47124105Y59187406D01*
X47179535Y59418289D01*
X47198165Y59655000D01*
X47179535Y59891711D01*
X47124105Y60122594D01*
X47033240Y60341963D01*
X46909176Y60544416D01*
X46754969Y60724969D01*
X46574416Y60879176D01*
X46371963Y61003240D01*
X46152594Y61094105D01*
X45921711Y61149535D01*
X45685000Y61168165D01*
X45448289Y61149535D01*
X45217406Y61094105D01*
X44998037Y61003240D01*
X44795584Y60879176D01*
X44795582Y60879174D01*
X44795580Y60879173D01*
X44615030Y60724969D01*
X44460826Y60544419D01*
X44460825Y60544417D01*
X44460824Y60544416D01*
X44336760Y60341963D01*
X44336759Y60341961D01*
X44245894Y60122592D01*
X44230237Y60057374D01*
X44190465Y59891711D01*
X44185694Y59831096D01*
X44171835Y59655000D01*
X41229507Y59655000D01*
X41306747Y59831089D01*
X41306750Y59831096D01*
X41364049Y60057366D01*
X41364051Y60057374D01*
X41383327Y60290000D01*
X41364051Y60522626D01*
X41306749Y60748907D01*
X41212984Y60962669D01*
X41085314Y61158083D01*
X41076033Y61168165D01*
X40927225Y61329813D01*
X40927223Y61329813D01*
X40927220Y61329818D01*
X40759229Y61460570D01*
X40717761Y61518193D01*
X40714027Y61589091D01*
X40749217Y61650753D01*
X40759217Y61659419D01*
X40927220Y61790182D01*
X40927221Y61790183D01*
X40927225Y61790186D01*
X41085314Y61961916D01*
X41212984Y62157331D01*
X41228232Y62192092D01*
X41306749Y62371093D01*
X41306790Y62371252D01*
X41364049Y62597366D01*
X41364051Y62597374D01*
X41383327Y62830000D01*
X41364051Y63062626D01*
X41306749Y63288907D01*
X41212984Y63502669D01*
X41085314Y63698083D01*
X40927220Y63869818D01*
X40759229Y64000570D01*
X40717761Y64058193D01*
X40714027Y64129091D01*
X40749217Y64190753D01*
X40759217Y64199419D01*
X40927220Y64330182D01*
X40927221Y64330183D01*
X40927225Y64330186D01*
X41085314Y64501916D01*
X41212984Y64697331D01*
X41259755Y64803958D01*
X41306749Y64911093D01*
X41328961Y64998804D01*
X41364049Y65137366D01*
X41364051Y65137374D01*
X41383327Y65370000D01*
X41364051Y65602626D01*
X41306749Y65828907D01*
X41229507Y66005000D01*
X43736502Y66005000D01*
X43756457Y65776913D01*
X43815715Y65555759D01*
X43815717Y65555753D01*
X43912477Y65348250D01*
X44043799Y65160703D01*
X44043804Y65160697D01*
X44205697Y64998804D01*
X44205703Y64998799D01*
X44393250Y64867477D01*
X44432457Y64849195D01*
X44485742Y64802278D01*
X44505203Y64734001D01*
X44484661Y64666041D01*
X44432457Y64620805D01*
X44393251Y64602523D01*
X44205700Y64471198D01*
X44205697Y64471195D01*
X44043804Y64309302D01*
X44043799Y64309296D01*
X43912477Y64121749D01*
X43824397Y63932859D01*
X43815716Y63914243D01*
X43757711Y63697765D01*
X43756457Y63693086D01*
X43736502Y63465000D01*
X43756457Y63236913D01*
X43815715Y63015759D01*
X43815717Y63015753D01*
X43912477Y62808250D01*
X44043799Y62620703D01*
X44043804Y62620697D01*
X44205697Y62458804D01*
X44205703Y62458799D01*
X44393250Y62327477D01*
X44600753Y62230717D01*
X44600759Y62230715D01*
X44753359Y62189826D01*
X44821913Y62171457D01*
X45050000Y62151502D01*
X45278087Y62171457D01*
X45405771Y62205670D01*
X45499240Y62230715D01*
X45499246Y62230717D01*
X45706749Y62327477D01*
X45894296Y62458799D01*
X45894302Y62458804D01*
X46056195Y62620697D01*
X46056198Y62620700D01*
X46187523Y62808251D01*
X46284284Y63015757D01*
X46343543Y63236913D01*
X46363498Y63465000D01*
X46343543Y63693087D01*
X46284284Y63914243D01*
X46187523Y64121749D01*
X46056198Y64309300D01*
X45894300Y64471198D01*
X45706749Y64602523D01*
X45667543Y64620805D01*
X45614258Y64667721D01*
X45594796Y64735998D01*
X45615337Y64803958D01*
X45667543Y64849195D01*
X45706747Y64867476D01*
X45706749Y64867477D01*
X45894300Y64998802D01*
X46056198Y65160700D01*
X46187523Y65348251D01*
X46284284Y65555757D01*
X46343543Y65776913D01*
X46363498Y66005000D01*
X46343543Y66233087D01*
X46284284Y66454243D01*
X46187523Y66661749D01*
X46056198Y66849300D01*
X45894300Y67011198D01*
X45706749Y67142523D01*
X45499243Y67239284D01*
X45278087Y67298543D01*
X45050000Y67318498D01*
X44821913Y67298543D01*
X44600757Y67239284D01*
X44393251Y67142523D01*
X44205700Y67011198D01*
X44205697Y67011195D01*
X44043804Y66849302D01*
X44043799Y66849296D01*
X43912477Y66661749D01*
X43815717Y66454246D01*
X43815715Y66454240D01*
X43756457Y66233086D01*
X43736502Y66005000D01*
X41229507Y66005000D01*
X41212984Y66042669D01*
X41085314Y66238083D01*
X40927220Y66409818D01*
X40758826Y66540885D01*
X40717356Y66598509D01*
X40713622Y66669408D01*
X40748812Y66731070D01*
X40758827Y66739748D01*
X40771318Y66749470D01*
X40094947Y67425841D01*
X40162993Y67444075D01*
X40277007Y67509901D01*
X40370099Y67602993D01*
X40435925Y67717007D01*
X40454157Y67785050D01*
X41129202Y67110007D01*
X41212540Y67237566D01*
X41212547Y67237578D01*
X41306273Y67451252D01*
X41306275Y67451256D01*
X41363555Y67677450D01*
X41382825Y67910000D01*
X41363555Y68142549D01*
X41306275Y68368743D01*
X41306273Y68368747D01*
X41212544Y68582427D01*
X41129202Y68709990D01*
X40454158Y68034947D01*
X40435925Y68102993D01*
X40370099Y68217007D01*
X40277007Y68310099D01*
X40162993Y68375925D01*
X40094947Y68394158D01*
X40771317Y69070528D01*
X40758824Y69080253D01*
X40717354Y69137879D01*
X40715137Y69180000D01*
X43636673Y69180000D01*
X43655746Y68949818D01*
X43655950Y68947366D01*
X43713249Y68721096D01*
X43713252Y68721089D01*
X43807015Y68507331D01*
X43934685Y68311916D01*
X44092774Y68140186D01*
X44092778Y68140182D01*
X44276983Y67996810D01*
X44276985Y67996809D01*
X44482273Y67885713D01*
X44482276Y67885711D01*
X44703044Y67809921D01*
X44703051Y67809919D01*
X44818066Y67790727D01*
X44933288Y67771500D01*
X44933292Y67771500D01*
X45166708Y67771500D01*
X45166712Y67771500D01*
X45298411Y67793476D01*
X45396948Y67809919D01*
X45396955Y67809921D01*
X45617723Y67885711D01*
X45617724Y67885712D01*
X45617727Y67885713D01*
X45823017Y67996810D01*
X45959440Y68102993D01*
X46007221Y68140182D01*
X46007225Y68140186D01*
X46165314Y68311916D01*
X46292984Y68507331D01*
X46325924Y68582427D01*
X46386749Y68721093D01*
X46444051Y68947374D01*
X46463327Y69180000D01*
X46444051Y69412626D01*
X46386749Y69638907D01*
X46292984Y69852669D01*
X46165314Y70048083D01*
X46079789Y70140986D01*
X46048370Y70204647D01*
X46056356Y70275193D01*
X46101215Y70330223D01*
X46128459Y70344376D01*
X46195960Y70369553D01*
X46195965Y70369555D01*
X46312904Y70457095D01*
X46400444Y70574034D01*
X46400444Y70574035D01*
X46451494Y70710906D01*
X46457999Y70771402D01*
X46458000Y70771414D01*
X46458000Y71466000D01*
X45422968Y71466000D01*
X45469333Y71546306D01*
X45500000Y71660756D01*
X45500000Y71779244D01*
X45469333Y71893694D01*
X45422968Y71974000D01*
X46458000Y71974000D01*
X46458000Y72668585D01*
X46457999Y72668597D01*
X46451494Y72729093D01*
X46400444Y72865964D01*
X46400444Y72865965D01*
X46312904Y72982904D01*
X46195965Y73070444D01*
X46059093Y73121494D01*
X45998597Y73127999D01*
X45998585Y73128000D01*
X45304000Y73128000D01*
X45304000Y72092968D01*
X45223694Y72139333D01*
X45109244Y72170000D01*
X44990756Y72170000D01*
X44876306Y72139333D01*
X44796000Y72092968D01*
X44796000Y73128000D01*
X44101415Y73128000D01*
X44101402Y73127999D01*
X44040906Y73121494D01*
X43904035Y73070444D01*
X43904034Y73070444D01*
X43787095Y72982904D01*
X43699555Y72865965D01*
X43699555Y72865964D01*
X43648505Y72729093D01*
X43642000Y72668597D01*
X43642000Y71974000D01*
X44677032Y71974000D01*
X44630667Y71893694D01*
X44600000Y71779244D01*
X44600000Y71660756D01*
X44630667Y71546306D01*
X44677032Y71466000D01*
X43642000Y71466000D01*
X43642000Y70771402D01*
X43648505Y70710906D01*
X43699555Y70574035D01*
X43699555Y70574034D01*
X43787095Y70457095D01*
X43904034Y70369555D01*
X43904037Y70369554D01*
X43971541Y70344376D01*
X44028376Y70301829D01*
X44053186Y70235308D01*
X44038094Y70165934D01*
X44020211Y70140988D01*
X43934686Y70048083D01*
X43934684Y70048080D01*
X43934683Y70048079D01*
X43807015Y69852668D01*
X43713252Y69638910D01*
X43713249Y69638903D01*
X43655950Y69412633D01*
X43655949Y69412628D01*
X43655949Y69412626D01*
X43636673Y69180000D01*
X40715137Y69180000D01*
X40713622Y69208777D01*
X40748813Y69270439D01*
X40758826Y69279115D01*
X40759234Y69279432D01*
X40846502Y69347356D01*
X40927221Y69410182D01*
X40927225Y69410186D01*
X41085314Y69581916D01*
X41212984Y69777331D01*
X41306749Y69991093D01*
X41306750Y69991096D01*
X41364049Y70217366D01*
X41364051Y70217374D01*
X41383327Y70450000D01*
X41364051Y70682626D01*
X41306749Y70908907D01*
X41212984Y71122669D01*
X41085314Y71318083D01*
X40988793Y71422932D01*
X40927225Y71489813D01*
X40927221Y71489817D01*
X40927220Y71489818D01*
X40743017Y71633190D01*
X40537727Y71744287D01*
X40316951Y71820080D01*
X40086712Y71858500D01*
X39860073Y71858500D01*
X39791952Y71878502D01*
X39745459Y71932158D01*
X39735355Y72002432D01*
X39764849Y72067012D01*
X39767371Y72069837D01*
X39794324Y72099116D01*
X39815314Y72121917D01*
X39942984Y72317331D01*
X40036749Y72531093D01*
X40058174Y72615696D01*
X40094049Y72757366D01*
X40094051Y72757374D01*
X40113327Y72990000D01*
X40094051Y73222626D01*
X40079355Y73280656D01*
X40075500Y73311586D01*
X40075500Y73495043D01*
X40075888Y73504929D01*
X40092260Y73712955D01*
X40095353Y73732483D01*
X40142905Y73930553D01*
X40149015Y73949357D01*
X40226965Y74137545D01*
X40235942Y74155162D01*
X40263318Y74199835D01*
X40315966Y74247467D01*
X40370750Y74260000D01*
X58464604Y74260000D01*
X58532725Y74239998D01*
X58579218Y74186342D01*
X58589322Y74116068D01*
X58559828Y74051488D01*
X58529789Y74026172D01*
X58458587Y73983128D01*
X58458584Y73983126D01*
X58200649Y73781047D01*
X58200647Y73781045D01*
X58200641Y73781040D01*
X57968959Y73549358D01*
X57968954Y73549352D01*
X57968953Y73549351D01*
X57890260Y73448907D01*
X57766871Y73291412D01*
X57597356Y73011003D01*
X57462880Y72712207D01*
X57365396Y72399370D01*
X57306333Y72077070D01*
X57306332Y72077067D01*
X57286549Y71750001D01*
X57286549Y71749998D01*
X57306332Y71422932D01*
X57306333Y71422929D01*
X57365396Y71100629D01*
X57462880Y70787792D01*
X57597356Y70488996D01*
X57766871Y70208587D01*
X57968954Y69950647D01*
X57968959Y69950641D01*
X58200641Y69718959D01*
X58200647Y69718954D01*
X58458587Y69516871D01*
X58738996Y69347356D01*
X59037792Y69212880D01*
X59350629Y69115396D01*
X59672929Y69056333D01*
X59672932Y69056332D01*
X59999999Y69036549D01*
X60000000Y69036549D01*
X60000001Y69036549D01*
X60327067Y69056332D01*
X60327070Y69056333D01*
X60649370Y69115396D01*
X60962207Y69212880D01*
X61261003Y69347356D01*
X61541412Y69516871D01*
X61668736Y69616623D01*
X61799351Y69718953D01*
X61799352Y69718954D01*
X61799358Y69718959D01*
X62031040Y69950641D01*
X62031045Y69950647D01*
X62042549Y69965330D01*
X62233126Y70208584D01*
X62242652Y70224342D01*
X62402643Y70488996D01*
X62537119Y70787792D01*
X62546916Y70819229D01*
X62634603Y71100629D01*
X62693667Y71422930D01*
X62713105Y71744286D01*
X62713451Y71749998D01*
X62713451Y71750001D01*
X62704759Y71893694D01*
X62693667Y72077070D01*
X62634603Y72399371D01*
X62537121Y72712203D01*
X62466210Y72869761D01*
X62402643Y73011003D01*
X62274707Y73222633D01*
X62233126Y73291416D01*
X62031047Y73549351D01*
X61799351Y73781047D01*
X61541416Y73983126D01*
X61517244Y73997738D01*
X61470211Y74026172D01*
X61422263Y74078531D01*
X61410233Y74148501D01*
X61437942Y74213867D01*
X61496592Y74253876D01*
X61535396Y74260000D01*
X70924174Y74260000D01*
X70980574Y74246672D01*
X71314531Y74079504D01*
X71322425Y74075194D01*
X71739796Y73827556D01*
X71747363Y73822693D01*
X72146003Y73545913D01*
X72153203Y73540523D01*
X72531074Y73236015D01*
X72537872Y73230125D01*
X72893067Y72899427D01*
X72899427Y72893067D01*
X73230125Y72537872D01*
X73236015Y72531074D01*
X73540523Y72153203D01*
X73545913Y72146003D01*
X73822693Y71747363D01*
X73827556Y71739796D01*
X74075194Y71322425D01*
X74079504Y71314531D01*
X74246672Y70980572D01*
X74260000Y70924172D01*
X74260000Y4075826D01*
X74246672Y4019426D01*
X74079504Y3685468D01*
X74075194Y3677574D01*
X73827556Y3260203D01*
X73822693Y3252636D01*
X73717709Y3101429D01*
X73593775Y2922930D01*
X73545913Y2853996D01*
X73540527Y2846801D01*
X73320068Y2573228D01*
X73236015Y2468925D01*
X73230125Y2462127D01*
X72899427Y2106932D01*
X72893067Y2100572D01*
X72537872Y1769874D01*
X72531078Y1763987D01*
X72153194Y1459469D01*
X72146012Y1454093D01*
X71807346Y1218953D01*
X71747363Y1177306D01*
X71739800Y1172445D01*
X71322425Y924805D01*
X71314535Y920497D01*
X70880552Y703260D01*
X70872406Y699540D01*
X70669266Y615397D01*
X70655249Y609591D01*
X70607031Y600000D01*
X61298366Y600000D01*
X61230245Y620002D01*
X61183752Y673658D01*
X61173648Y743932D01*
X61203142Y808512D01*
X61246654Y840899D01*
X61261002Y847356D01*
X61541412Y1016871D01*
X61746192Y1177306D01*
X61799351Y1218953D01*
X61799352Y1218954D01*
X61799358Y1218959D01*
X62031040Y1450641D01*
X62031045Y1450647D01*
X62033740Y1454086D01*
X62233126Y1708584D01*
X62241022Y1721645D01*
X62402643Y1988996D01*
X62537119Y2287792D01*
X62593563Y2468925D01*
X62634603Y2600629D01*
X62693667Y2922930D01*
X62713451Y3250000D01*
X62693667Y3577070D01*
X62634603Y3899371D01*
X62537121Y4212203D01*
X62455766Y4392968D01*
X62402643Y4511003D01*
X62284864Y4705831D01*
X62233126Y4791416D01*
X62031047Y5049351D01*
X61799351Y5281047D01*
X61541416Y5483126D01*
X61309606Y5623261D01*
X61261003Y5652643D01*
X60962207Y5787119D01*
X60962203Y5787121D01*
X60649371Y5884603D01*
X60327070Y5943667D01*
X60081767Y5958505D01*
X60000001Y5963451D01*
X59999999Y5963451D01*
X59899419Y5957367D01*
X59672930Y5943667D01*
X59350629Y5884603D01*
X59037797Y5787121D01*
X59037793Y5787119D01*
X59037792Y5787119D01*
X58738997Y5652643D01*
X58514168Y5516728D01*
X58445524Y5498603D01*
X58377978Y5520468D01*
X58332976Y5575380D01*
X58324805Y5645905D01*
X58356060Y5709652D01*
X58359888Y5713651D01*
X59664262Y7018025D01*
X59693386Y7039743D01*
X59765574Y7078810D01*
X59765576Y7078811D01*
X59861382Y7153381D01*
X59943237Y7217091D01*
X60095720Y7382729D01*
X60184517Y7518643D01*
X60238521Y7564731D01*
X60308869Y7574306D01*
X60373226Y7544329D01*
X60395483Y7518643D01*
X60484279Y7382729D01*
X60636762Y7217091D01*
X60809714Y7082477D01*
X60814424Y7078811D01*
X60941940Y7009803D01*
X61012426Y6971658D01*
X61012428Y6971656D01*
X61225360Y6898557D01*
X61225369Y6898555D01*
X61266115Y6891756D01*
X61447431Y6861500D01*
X61447435Y6861500D01*
X61672565Y6861500D01*
X61672569Y6861500D01*
X61853885Y6891756D01*
X61894630Y6898555D01*
X61894632Y6898555D01*
X61894635Y6898556D01*
X61894639Y6898557D01*
X62107571Y6971656D01*
X62107572Y6971657D01*
X62107574Y6971658D01*
X62305576Y7078811D01*
X62401382Y7153381D01*
X62483237Y7217091D01*
X62635720Y7382729D01*
X62724517Y7518643D01*
X62778521Y7564731D01*
X62848869Y7574306D01*
X62913226Y7544329D01*
X62935483Y7518643D01*
X63024279Y7382729D01*
X63176762Y7217091D01*
X63349714Y7082477D01*
X63354424Y7078811D01*
X63481940Y7009803D01*
X63552426Y6971658D01*
X63552428Y6971656D01*
X63765360Y6898557D01*
X63765369Y6898555D01*
X63806115Y6891756D01*
X63987431Y6861500D01*
X63987435Y6861500D01*
X64212565Y6861500D01*
X64212569Y6861500D01*
X64393885Y6891756D01*
X64434630Y6898555D01*
X64434632Y6898555D01*
X64434635Y6898556D01*
X64434639Y6898557D01*
X64647571Y6971656D01*
X64647572Y6971657D01*
X64647574Y6971658D01*
X64845576Y7078811D01*
X64941382Y7153381D01*
X65023237Y7217091D01*
X65175720Y7382729D01*
X65264517Y7518643D01*
X65318521Y7564731D01*
X65388869Y7574306D01*
X65453226Y7544329D01*
X65475483Y7518643D01*
X65564279Y7382729D01*
X65716762Y7217091D01*
X65889714Y7082477D01*
X65894424Y7078811D01*
X66021940Y7009803D01*
X66092426Y6971658D01*
X66092428Y6971656D01*
X66305360Y6898557D01*
X66305369Y6898555D01*
X66346115Y6891756D01*
X66527431Y6861500D01*
X66527435Y6861500D01*
X66752565Y6861500D01*
X66752569Y6861500D01*
X66933885Y6891756D01*
X66974630Y6898555D01*
X66974632Y6898555D01*
X66974635Y6898556D01*
X66974639Y6898557D01*
X67187571Y6971656D01*
X67187572Y6971657D01*
X67187574Y6971658D01*
X67385576Y7078811D01*
X67481382Y7153381D01*
X67563237Y7217091D01*
X67715720Y7382729D01*
X67804517Y7518643D01*
X67858521Y7564731D01*
X67928869Y7574306D01*
X67993226Y7544329D01*
X68015483Y7518643D01*
X68104279Y7382729D01*
X68256762Y7217091D01*
X68429714Y7082477D01*
X68434424Y7078811D01*
X68561940Y7009803D01*
X68632426Y6971658D01*
X68632428Y6971656D01*
X68845360Y6898557D01*
X68845369Y6898555D01*
X68886115Y6891756D01*
X69067431Y6861500D01*
X69067435Y6861500D01*
X69292565Y6861500D01*
X69292569Y6861500D01*
X69473885Y6891756D01*
X69514630Y6898555D01*
X69514632Y6898555D01*
X69514635Y6898556D01*
X69514639Y6898557D01*
X69727571Y6971656D01*
X69727572Y6971657D01*
X69727574Y6971658D01*
X69925576Y7078811D01*
X70021382Y7153381D01*
X70103237Y7217091D01*
X70255720Y7382729D01*
X70255724Y7382734D01*
X70378858Y7571206D01*
X70378860Y7571209D01*
X70469296Y7777384D01*
X70471721Y7786958D01*
X70524562Y7995624D01*
X70524564Y7995632D01*
X70543156Y8220000D01*
X70524564Y8444368D01*
X70469296Y8662616D01*
X70378860Y8868791D01*
X70255722Y9057268D01*
X70103240Y9222906D01*
X69925576Y9361189D01*
X69727574Y9468342D01*
X69514635Y9541444D01*
X69292569Y9578500D01*
X69067431Y9578500D01*
X68845365Y9541444D01*
X68776449Y9517785D01*
X68632428Y9468343D01*
X68632427Y9468342D01*
X68632426Y9468342D01*
X68434424Y9361189D01*
X68311654Y9265632D01*
X68256762Y9222908D01*
X68104279Y9057270D01*
X68104275Y9057265D01*
X68093936Y9041439D01*
X68015481Y8921354D01*
X67961480Y8875268D01*
X67891132Y8865692D01*
X67826775Y8895669D01*
X67804519Y8921353D01*
X67715722Y9057268D01*
X67563240Y9222906D01*
X67385576Y9361189D01*
X67187574Y9468342D01*
X66974635Y9541444D01*
X66752569Y9578500D01*
X66752565Y9578500D01*
X66747429Y9579357D01*
X66747679Y9580855D01*
X66687882Y9603914D01*
X66645965Y9661216D01*
X66638500Y9703942D01*
X66638500Y16083012D01*
X66638500Y16083014D01*
X66614155Y16205405D01*
X66566400Y16320695D01*
X66497071Y16424453D01*
X66408833Y16512691D01*
X55794453Y27127071D01*
X55690695Y27196400D01*
X55575405Y27244155D01*
X55453014Y27268500D01*
X55453013Y27268500D01*
X51474745Y27268500D01*
X51406624Y27288502D01*
X51360131Y27342158D01*
X51350027Y27412432D01*
X51360551Y27447752D01*
X51364284Y27455757D01*
X51423543Y27676913D01*
X51443498Y27905000D01*
X51423543Y28133087D01*
X51364284Y28354243D01*
X51267523Y28561749D01*
X51136198Y28749300D01*
X50974300Y28911198D01*
X50786749Y29042523D01*
X50747543Y29060805D01*
X50694258Y29107721D01*
X50674796Y29175998D01*
X50695337Y29243958D01*
X50747543Y29289195D01*
X50786747Y29307476D01*
X50786749Y29307477D01*
X50911998Y29395177D01*
X50974296Y29438799D01*
X50974302Y29438804D01*
X51136195Y29600697D01*
X51136198Y29600700D01*
X51267523Y29788251D01*
X51364284Y29995757D01*
X51423543Y30216913D01*
X51443498Y30445000D01*
X51423543Y30673087D01*
X51364284Y30894243D01*
X51267523Y31101749D01*
X51136198Y31289300D01*
X50974300Y31451198D01*
X50786749Y31582523D01*
X50579243Y31679284D01*
X50358087Y31738543D01*
X50130000Y31758498D01*
X49901913Y31738543D01*
X49680757Y31679284D01*
X49473251Y31582523D01*
X49285700Y31451198D01*
X49285697Y31451195D01*
X49123804Y31289302D01*
X49123799Y31289296D01*
X49112664Y31273393D01*
X48992477Y31101749D01*
X48895716Y30894243D01*
X48836457Y30673087D01*
X48832306Y30625639D01*
X48816502Y30445000D01*
X48836457Y30216913D01*
X48895715Y29995759D01*
X48895717Y29995753D01*
X48992477Y29788250D01*
X49123799Y29600703D01*
X49123804Y29600697D01*
X49285697Y29438804D01*
X49285703Y29438799D01*
X49473250Y29307477D01*
X49512457Y29289195D01*
X49565742Y29242278D01*
X49585203Y29174001D01*
X49564661Y29106041D01*
X49512457Y29060805D01*
X49473251Y29042523D01*
X49285700Y28911198D01*
X49285697Y28911195D01*
X49123804Y28749302D01*
X49123799Y28749296D01*
X49037218Y28625646D01*
X48992477Y28561749D01*
X48895716Y28354243D01*
X48836457Y28133087D01*
X48829625Y28055000D01*
X48816502Y27905000D01*
X48836457Y27676913D01*
X48895715Y27455759D01*
X48895717Y27455754D01*
X48899449Y27447752D01*
X48910111Y27377560D01*
X48881132Y27312747D01*
X48821713Y27273890D01*
X48785255Y27268500D01*
X47664745Y27268500D01*
X47596624Y27288502D01*
X47550131Y27342158D01*
X47540027Y27412432D01*
X47550551Y27447752D01*
X47554284Y27455757D01*
X47613543Y27676913D01*
X47633498Y27905000D01*
X47613543Y28133087D01*
X47554284Y28354243D01*
X47457523Y28561749D01*
X47326198Y28749300D01*
X47164300Y28911198D01*
X46976749Y29042523D01*
X46937543Y29060805D01*
X46884258Y29107721D01*
X46864796Y29175998D01*
X46885337Y29243958D01*
X46937543Y29289195D01*
X46976747Y29307476D01*
X46976749Y29307477D01*
X47101998Y29395177D01*
X47164296Y29438799D01*
X47164302Y29438804D01*
X47326195Y29600697D01*
X47326198Y29600700D01*
X47457523Y29788251D01*
X47554284Y29995757D01*
X47613543Y30216913D01*
X47633498Y30445000D01*
X47613543Y30673087D01*
X47554284Y30894243D01*
X47457523Y31101749D01*
X47326198Y31289300D01*
X47164300Y31451198D01*
X46976749Y31582523D01*
X46769243Y31679284D01*
X46548087Y31738543D01*
X46320000Y31758498D01*
X46091913Y31738543D01*
X45870757Y31679284D01*
X45663251Y31582523D01*
X45475700Y31451198D01*
X45475697Y31451195D01*
X45313804Y31289302D01*
X45313799Y31289296D01*
X45302664Y31273393D01*
X45182477Y31101749D01*
X45085716Y30894243D01*
X45026457Y30673087D01*
X45022306Y30625639D01*
X45006502Y30445000D01*
X45026457Y30216913D01*
X45085715Y29995759D01*
X45085717Y29995753D01*
X45182477Y29788250D01*
X45313799Y29600703D01*
X45313804Y29600697D01*
X45475697Y29438804D01*
X45475703Y29438799D01*
X45663250Y29307477D01*
X45702457Y29289195D01*
X45755742Y29242278D01*
X45775203Y29174001D01*
X45754661Y29106041D01*
X45702457Y29060805D01*
X45663251Y29042523D01*
X45475700Y28911198D01*
X45475697Y28911195D01*
X45313804Y28749302D01*
X45313799Y28749296D01*
X45182477Y28561749D01*
X45090511Y28364527D01*
X45043594Y28311242D01*
X44975316Y28291781D01*
X44907357Y28312323D01*
X44887226Y28328677D01*
X42484300Y30731603D01*
X42450276Y30793913D01*
X42447935Y30832323D01*
X42448331Y30836598D01*
X42448332Y30836601D01*
X42468570Y31055000D01*
X42448332Y31273399D01*
X42388309Y31484361D01*
X42290543Y31680701D01*
X42158364Y31855734D01*
X42156912Y31857058D01*
X42041923Y31961885D01*
X42005056Y32022559D01*
X42006845Y32093533D01*
X42041923Y32148115D01*
X42158362Y32254263D01*
X42290541Y32429297D01*
X42290543Y32429299D01*
X42388309Y32625639D01*
X42448332Y32836601D01*
X42468570Y33055000D01*
X42467782Y33063500D01*
X42459303Y33155000D01*
X42448332Y33273399D01*
X42388309Y33484361D01*
X42290543Y33680701D01*
X42158364Y33855734D01*
X42158362Y33855736D01*
X42041923Y33961885D01*
X42005056Y34022559D01*
X42006845Y34093533D01*
X42041923Y34148115D01*
X42158362Y34254263D01*
X42290541Y34429297D01*
X42290543Y34429299D01*
X42388309Y34625639D01*
X42448332Y34836601D01*
X42468570Y35055000D01*
X42448332Y35273399D01*
X42388309Y35484361D01*
X42290543Y35680701D01*
X42158364Y35855734D01*
X42158362Y35855736D01*
X42041923Y35961885D01*
X42005056Y36022559D01*
X42006845Y36093533D01*
X42041923Y36148115D01*
X42158362Y36254263D01*
X42232585Y36352550D01*
X42290543Y36429299D01*
X42388309Y36625639D01*
X42448332Y36836601D01*
X42468570Y37055000D01*
X42448332Y37273399D01*
X42388309Y37484361D01*
X42290543Y37680701D01*
X42158364Y37855734D01*
X42085846Y37921843D01*
X41996278Y38003495D01*
X41996275Y38003497D01*
X41996273Y38003499D01*
X41809791Y38118964D01*
X41707529Y38158580D01*
X41605274Y38198195D01*
X41605272Y38198195D01*
X41605268Y38198197D01*
X41389667Y38238500D01*
X41170333Y38238500D01*
X40954732Y38198197D01*
X40954728Y38198195D01*
X40954725Y38198195D01*
X40757372Y38121739D01*
X40750209Y38118964D01*
X40613169Y38034112D01*
X40563724Y38003497D01*
X40563721Y38003495D01*
X40401637Y37855736D01*
X40312312Y37737450D01*
X40269457Y37680701D01*
X40245186Y37631958D01*
X40171691Y37484360D01*
X40171688Y37484353D01*
X40111667Y37273397D01*
X40111667Y37273393D01*
X40091430Y37055004D01*
X40091430Y37054995D01*
X40111667Y36836606D01*
X40111667Y36836602D01*
X40171688Y36625646D01*
X40171691Y36625639D01*
X40269458Y36429297D01*
X40401634Y36254266D01*
X40518077Y36148115D01*
X40554943Y36087441D01*
X40553154Y36016466D01*
X40518077Y35961885D01*
X40401634Y35855733D01*
X40353857Y35792465D01*
X40269457Y35680701D01*
X40171691Y35484361D01*
X40171691Y35484360D01*
X40171688Y35484353D01*
X40111667Y35273397D01*
X40111667Y35273393D01*
X40091430Y35055004D01*
X40091430Y35054995D01*
X40111667Y34836606D01*
X40111667Y34836602D01*
X40171688Y34625646D01*
X40171691Y34625639D01*
X40269458Y34429297D01*
X40401634Y34254266D01*
X40518077Y34148115D01*
X40554943Y34087441D01*
X40553154Y34016466D01*
X40518077Y33961885D01*
X40401634Y33855733D01*
X40291181Y33709469D01*
X40269457Y33680701D01*
X40171691Y33484361D01*
X40171691Y33484360D01*
X40171688Y33484353D01*
X40111667Y33273397D01*
X40111667Y33273393D01*
X40091430Y33055004D01*
X40091430Y33054995D01*
X40111667Y32836606D01*
X40111667Y32836602D01*
X40171688Y32625646D01*
X40171691Y32625639D01*
X40269458Y32429297D01*
X40401634Y32254266D01*
X40518077Y32148115D01*
X40554943Y32087441D01*
X40553154Y32016466D01*
X40518077Y31961885D01*
X40401634Y31855733D01*
X40291181Y31709469D01*
X40269457Y31680701D01*
X40220570Y31582522D01*
X40171691Y31484360D01*
X40171688Y31484353D01*
X40111667Y31273397D01*
X40111667Y31273393D01*
X40091430Y31055004D01*
X40091430Y31054995D01*
X40111667Y30836606D01*
X40111667Y30836602D01*
X40171688Y30625646D01*
X40171691Y30625639D01*
X40269458Y30429297D01*
X40401634Y30254266D01*
X40518077Y30148115D01*
X40554943Y30087441D01*
X40553154Y30016466D01*
X40518077Y29961885D01*
X40401634Y29855733D01*
X40291181Y29709469D01*
X40269457Y29680701D01*
X40171691Y29484361D01*
X40171691Y29484360D01*
X40171688Y29484353D01*
X40111667Y29273397D01*
X40111667Y29273393D01*
X40091430Y29055004D01*
X40091430Y29054995D01*
X40111667Y28836606D01*
X40111667Y28836602D01*
X40171688Y28625646D01*
X40171691Y28625639D01*
X40269458Y28429297D01*
X40401634Y28254266D01*
X40518077Y28148115D01*
X40554943Y28087441D01*
X40553154Y28016466D01*
X40518077Y27961885D01*
X40401634Y27855733D01*
X40291181Y27709469D01*
X40269457Y27680701D01*
X40171691Y27484361D01*
X40171691Y27484360D01*
X40171688Y27484353D01*
X40111667Y27273397D01*
X40111667Y27273393D01*
X40091430Y27055004D01*
X40091430Y27054995D01*
X40111667Y26836606D01*
X40111667Y26836602D01*
X40171688Y26625646D01*
X40171691Y26625639D01*
X40269458Y26429297D01*
X40401637Y26254263D01*
X40563720Y26106505D01*
X40563725Y26106501D01*
X40614275Y26075202D01*
X40637038Y26057171D01*
X41239210Y25455000D01*
X41227339Y25455000D01*
X41125606Y25427741D01*
X41034394Y25375080D01*
X40959920Y25300606D01*
X40907259Y25209394D01*
X40880000Y25107661D01*
X40880000Y25095788D01*
X40280841Y25694947D01*
X40269886Y25680441D01*
X40172158Y25484175D01*
X40112161Y25273308D01*
X40091932Y25055000D01*
X40112161Y24836691D01*
X40172158Y24625824D01*
X40269883Y24429565D01*
X40280841Y24415051D01*
X40880000Y25014210D01*
X40880000Y25002339D01*
X40907259Y24900606D01*
X40959920Y24809394D01*
X41034394Y24734920D01*
X41125606Y24682259D01*
X41227339Y24655000D01*
X41239210Y24655000D01*
X40637038Y24052828D01*
X40614277Y24034798D01*
X40563727Y24003499D01*
X40401634Y23855733D01*
X40291181Y23709469D01*
X40269457Y23680701D01*
X40171691Y23484361D01*
X40171691Y23484360D01*
X40171688Y23484353D01*
X40111667Y23273397D01*
X40111667Y23273393D01*
X40091430Y23055004D01*
X40091430Y23054995D01*
X40111667Y22836606D01*
X40111667Y22836602D01*
X40171688Y22625646D01*
X40171691Y22625639D01*
X40269458Y22429297D01*
X40401637Y22254263D01*
X40563721Y22106504D01*
X40563724Y22106502D01*
X40750205Y21991038D01*
X40750214Y21991033D01*
X40954725Y21911804D01*
X41031247Y21897499D01*
X41170333Y21871500D01*
X41170336Y21871500D01*
X41389664Y21871500D01*
X41389667Y21871500D01*
X41566853Y21904622D01*
X41605274Y21911804D01*
X41809785Y21991033D01*
X41809789Y21991035D01*
X41809791Y21991036D01*
X41996273Y22106501D01*
X41996275Y22106502D01*
X41996278Y22106504D01*
X42158362Y22254263D01*
X42204833Y22315800D01*
X42290543Y22429299D01*
X42388309Y22625639D01*
X42448332Y22836601D01*
X42458451Y22945800D01*
X42468570Y23054995D01*
X42468570Y23055004D01*
X42455161Y23199705D01*
X42448332Y23273399D01*
X42388309Y23484361D01*
X42290543Y23680701D01*
X42158364Y23855734D01*
X41996273Y24003499D01*
X41945715Y24034803D01*
X41922960Y24052827D01*
X41320789Y24655000D01*
X41332661Y24655000D01*
X41434394Y24682259D01*
X41525606Y24734920D01*
X41600080Y24809394D01*
X41652741Y24900606D01*
X41680000Y25002339D01*
X41680000Y25014210D01*
X42279157Y24415052D01*
X42279158Y24415052D01*
X42290113Y24429559D01*
X42387842Y24625825D01*
X42428059Y24767175D01*
X42465939Y24827222D01*
X42530270Y24857256D01*
X42600626Y24847743D01*
X42619250Y24837460D01*
X42669924Y24803600D01*
X42785212Y24755846D01*
X42785213Y24755845D01*
X42785215Y24755845D01*
X42834568Y24746028D01*
X42907603Y24731500D01*
X42907606Y24731500D01*
X43032394Y24731500D01*
X45720500Y24731500D01*
X45788621Y24711498D01*
X45835114Y24657842D01*
X45846500Y24605500D01*
X45846500Y23446350D01*
X45853009Y23385803D01*
X45853011Y23385795D01*
X45904110Y23248797D01*
X45940859Y23199705D01*
X45965668Y23133184D01*
X45952780Y23068035D01*
X45917394Y22996970D01*
X45917391Y22996962D01*
X45861199Y22799465D01*
X45861199Y22799461D01*
X45842253Y22595004D01*
X45842253Y22595000D01*
X45861199Y22390538D01*
X45861199Y22390534D01*
X45917391Y22193037D01*
X45917394Y22193029D01*
X46008926Y22009208D01*
X46009386Y22008597D01*
X46662215Y22661425D01*
X46655000Y22634496D01*
X46655000Y22555504D01*
X46675444Y22479204D01*
X46714940Y22410795D01*
X46770795Y22354940D01*
X46839204Y22315444D01*
X46915504Y22295000D01*
X46994496Y22295000D01*
X47070796Y22315444D01*
X47139205Y22354940D01*
X47195060Y22410795D01*
X47234556Y22479204D01*
X47255000Y22555504D01*
X47255000Y22634496D01*
X47247784Y22661424D01*
X47900610Y22008598D01*
X47900612Y22008598D01*
X47901076Y22009213D01*
X47992605Y22193029D01*
X47992608Y22193037D01*
X48048800Y22390534D01*
X48048800Y22390538D01*
X48067747Y22595000D01*
X48067747Y22595004D01*
X48048800Y22799461D01*
X48048800Y22799465D01*
X47992606Y22996970D01*
X47992605Y22996971D01*
X47957220Y23068034D01*
X47944760Y23137928D01*
X47969142Y23199707D01*
X48005887Y23248792D01*
X48005889Y23248797D01*
X48015066Y23273399D01*
X48056989Y23385799D01*
X48056990Y23385803D01*
X48063499Y23446350D01*
X48063500Y23446367D01*
X48063500Y24605500D01*
X48083502Y24673621D01*
X48137158Y24720114D01*
X48189500Y24731500D01*
X55073206Y24731500D01*
X55141327Y24711498D01*
X55162301Y24694595D01*
X64049882Y15807013D01*
X64083908Y15744701D01*
X64078843Y15673886D01*
X64036296Y15617050D01*
X63969776Y15592239D01*
X63931379Y15595398D01*
X63726711Y15644535D01*
X63490000Y15663165D01*
X63253289Y15644535D01*
X63022406Y15589105D01*
X62803037Y15498240D01*
X62600584Y15374176D01*
X62600582Y15374174D01*
X62600580Y15374173D01*
X62420030Y15219969D01*
X62265826Y15039419D01*
X62265818Y15039408D01*
X62191826Y14918665D01*
X62139178Y14871033D01*
X62084394Y14858500D01*
X13054500Y14858500D01*
X12986379Y14878502D01*
X12939886Y14932158D01*
X12928500Y14984500D01*
X12928500Y15148632D01*
X12928499Y15148649D01*
X12921990Y15209196D01*
X12921988Y15209204D01*
X12914960Y15228045D01*
X12870889Y15346204D01*
X12849949Y15374176D01*
X12783261Y15463261D01*
X12666207Y15550887D01*
X12666206Y15550887D01*
X12666204Y15550889D01*
X12529201Y15601989D01*
X12529199Y15601989D01*
X12529196Y15601990D01*
X12468649Y15608499D01*
X12468645Y15608499D01*
X12468638Y15608500D01*
X10371362Y15608500D01*
X10371355Y15608499D01*
X10371350Y15608499D01*
X10310803Y15601990D01*
X10310795Y15601988D01*
X10232875Y15572924D01*
X10173796Y15550889D01*
X10173794Y15550888D01*
X10173792Y15550887D01*
X10056738Y15463261D01*
X9969112Y15346207D01*
X9969110Y15346202D01*
X9918011Y15209204D01*
X9918009Y15209196D01*
X9911500Y15148649D01*
X9911500Y13051350D01*
X9918009Y12990803D01*
X9918011Y12990795D01*
X9969110Y12853797D01*
X9969112Y12853792D01*
X10056738Y12736738D01*
X10173792Y12649112D01*
X10173797Y12649110D01*
X10310795Y12598011D01*
X10310803Y12598009D01*
X10371350Y12591500D01*
X10371362Y12591500D01*
X12468649Y12591500D01*
X12529196Y12598009D01*
X12529204Y12598011D01*
X12666202Y12649110D01*
X12666207Y12649112D01*
X12783261Y12736738D01*
X12870887Y12853792D01*
X12870889Y12853797D01*
X12875913Y12867265D01*
X12921989Y12990799D01*
X12921990Y12990803D01*
X12928499Y13051350D01*
X12928500Y13051367D01*
X12928500Y13215500D01*
X12948502Y13283621D01*
X13002158Y13330114D01*
X13054500Y13341500D01*
X23836215Y13341500D01*
X23904336Y13321498D01*
X23950829Y13267842D01*
X23960933Y13197568D01*
X23931439Y13132988D01*
X23913609Y13116070D01*
X23867306Y13080031D01*
X23806762Y13032908D01*
X23654279Y12867270D01*
X23654275Y12867265D01*
X23531141Y12678793D01*
X23440703Y12472613D01*
X23440702Y12472612D01*
X23385437Y12254375D01*
X23385436Y12254370D01*
X23385436Y12254368D01*
X23378257Y12167734D01*
X23366844Y12030000D01*
X23385437Y11805624D01*
X23440702Y11587387D01*
X23440703Y11587386D01*
X23531141Y11381206D01*
X23654275Y11192734D01*
X23654279Y11192729D01*
X23806762Y11027091D01*
X23984424Y10888811D01*
X23984431Y10888807D01*
X24017680Y10870814D01*
X24068071Y10820800D01*
X24083423Y10751484D01*
X24058862Y10684871D01*
X24017680Y10649186D01*
X23984424Y10631189D01*
X23861331Y10535381D01*
X23806762Y10492908D01*
X23654279Y10327270D01*
X23654275Y10327265D01*
X23531141Y10138793D01*
X23440703Y9932613D01*
X23440702Y9932612D01*
X23385437Y9714375D01*
X23385436Y9714370D01*
X23385436Y9714368D01*
X23366844Y9490000D01*
X23381245Y9316204D01*
X23385437Y9265624D01*
X23440702Y9047387D01*
X23440703Y9047386D01*
X23531141Y8841206D01*
X23654275Y8652734D01*
X23654279Y8652729D01*
X23806762Y8487091D01*
X23984424Y8348811D01*
X23984430Y8348807D01*
X24018207Y8330528D01*
X24068597Y8280515D01*
X24083949Y8211198D01*
X24059388Y8144585D01*
X24018207Y8108902D01*
X23984704Y8090771D01*
X23984698Y8090767D01*
X23807097Y7952534D01*
X23654674Y7786958D01*
X23531580Y7598548D01*
X23441179Y7392456D01*
X23441176Y7392449D01*
X23393455Y7204000D01*
X24299297Y7204000D01*
X24264075Y7142993D01*
X24230000Y7015826D01*
X24230000Y6884174D01*
X24264075Y6757007D01*
X24299297Y6696000D01*
X23393456Y6696000D01*
X23393455Y6695999D01*
X23441176Y6507550D01*
X23441179Y6507543D01*
X23531580Y6301451D01*
X23654674Y6113041D01*
X23797981Y5957367D01*
X23829401Y5893701D01*
X23821414Y5823156D01*
X23776554Y5768127D01*
X23749312Y5753975D01*
X23633796Y5710889D01*
X23633792Y5710887D01*
X23516738Y5623261D01*
X23429112Y5506207D01*
X23429110Y5506202D01*
X23378011Y5369204D01*
X23378009Y5369196D01*
X23371500Y5308649D01*
X23371500Y4323924D01*
X23351498Y4255803D01*
X23297842Y4209310D01*
X23227568Y4199206D01*
X23162988Y4228700D01*
X23156405Y4234829D01*
X22010405Y5380829D01*
X21976379Y5443141D01*
X21973500Y5469924D01*
X21973500Y9134327D01*
X21973500Y9134329D01*
X21934744Y9329169D01*
X21858721Y9512704D01*
X21748353Y9677881D01*
X21607881Y9818353D01*
X20392881Y11033353D01*
X20227704Y11143721D01*
X20109381Y11192732D01*
X20044169Y11219744D01*
X19849329Y11258500D01*
X19849328Y11258500D01*
X9719924Y11258500D01*
X9651803Y11278502D01*
X9630829Y11295405D01*
X8795405Y12130829D01*
X8761379Y12193141D01*
X8758500Y12219924D01*
X8758500Y17033601D01*
X55924500Y17033601D01*
X55924500Y17033597D01*
X55924500Y16786402D01*
X55963172Y16542234D01*
X56039559Y16307140D01*
X56151790Y16086875D01*
X56297092Y15886885D01*
X56297094Y15886882D01*
X56471882Y15712094D01*
X56471885Y15712092D01*
X56671875Y15566790D01*
X56892140Y15454559D01*
X57127234Y15378172D01*
X57127239Y15378171D01*
X57127240Y15378171D01*
X57371399Y15339500D01*
X57371402Y15339500D01*
X57618598Y15339500D01*
X57618601Y15339500D01*
X57862760Y15378171D01*
X57862761Y15378171D01*
X57862765Y15378172D01*
X58097859Y15454559D01*
X58200368Y15506790D01*
X58318121Y15566788D01*
X58518112Y15712090D01*
X58518114Y15712092D01*
X58518117Y15712094D01*
X58692905Y15886882D01*
X58692907Y15886885D01*
X58692910Y15886888D01*
X58838212Y16086879D01*
X58950439Y16307137D01*
X59026829Y16542240D01*
X59065500Y16786399D01*
X59065500Y17033601D01*
X59026829Y17277760D01*
X58950439Y17512863D01*
X58838212Y17733121D01*
X58692910Y17933112D01*
X58518112Y18107910D01*
X58318121Y18253212D01*
X58097863Y18365439D01*
X57862760Y18441829D01*
X57618601Y18480500D01*
X57371399Y18480500D01*
X57127240Y18441829D01*
X56892137Y18365439D01*
X56671879Y18253212D01*
X56471888Y18107910D01*
X56471885Y18107907D01*
X56471882Y18107905D01*
X56297094Y17933117D01*
X56297092Y17933114D01*
X56297090Y17933112D01*
X56151788Y17733121D01*
X56039561Y17512863D01*
X56039559Y17512859D01*
X55963172Y17277765D01*
X55963171Y17277761D01*
X55963171Y17277760D01*
X55924500Y17033601D01*
X8758500Y17033601D01*
X8758500Y21652784D01*
X46371994Y21652784D01*
X46459000Y21598913D01*
X46459012Y21598907D01*
X46650474Y21524733D01*
X46650477Y21524732D01*
X46852331Y21487000D01*
X47057669Y21487000D01*
X47259522Y21524732D01*
X47259525Y21524733D01*
X47450988Y21598907D01*
X47450995Y21598910D01*
X47538003Y21652784D01*
X46955000Y22235789D01*
X46954999Y22235789D01*
X46371994Y21652784D01*
X8758500Y21652784D01*
X8758500Y31055004D01*
X21266807Y31055004D01*
X21266807Y31054995D01*
X21285556Y30780883D01*
X21285557Y30780877D01*
X21285557Y30780873D01*
X21285558Y30780870D01*
X21306599Y30679614D01*
X21341460Y30511853D01*
X21341462Y30511845D01*
X21433477Y30252941D01*
X21559892Y30008971D01*
X21718343Y29784498D01*
X21905886Y29583688D01*
X22119033Y29410280D01*
X22223733Y29346610D01*
X22271544Y29294125D01*
X22283389Y29224124D01*
X22271056Y29182792D01*
X22172159Y28984178D01*
X22172159Y28984177D01*
X22112161Y28773308D01*
X22091932Y28555000D01*
X22112161Y28336691D01*
X22172158Y28125824D01*
X22269883Y27929565D01*
X22280841Y27915052D01*
X22880000Y28514210D01*
X22880000Y28502339D01*
X22907259Y28400606D01*
X22959920Y28309394D01*
X23034394Y28234920D01*
X23125606Y28182259D01*
X23227339Y28155000D01*
X23239210Y28155000D01*
X22642514Y27558304D01*
X22750433Y27491485D01*
X22954868Y27412286D01*
X23170382Y27372000D01*
X23389618Y27372000D01*
X23605131Y27412286D01*
X23809565Y27491485D01*
X23809567Y27491485D01*
X23917483Y27558304D01*
X23320789Y28155000D01*
X23332661Y28155000D01*
X23434394Y28182259D01*
X23525606Y28234920D01*
X23600080Y28309394D01*
X23652741Y28400606D01*
X23680000Y28502339D01*
X23680000Y28514208D01*
X24279156Y27915052D01*
X24279158Y27915052D01*
X24290113Y27929559D01*
X24387841Y28125824D01*
X24447838Y28336691D01*
X24468067Y28555000D01*
X24447838Y28773308D01*
X24387841Y28984175D01*
X24288943Y29182791D01*
X24276485Y29252686D01*
X24303792Y29318221D01*
X24336266Y29346611D01*
X24440969Y29410282D01*
X24654111Y29583686D01*
X24841657Y29784498D01*
X24990777Y29995753D01*
X25000107Y30008971D01*
X25000107Y30008972D01*
X25000111Y30008977D01*
X25126523Y30252942D01*
X25218538Y30511847D01*
X25274442Y30780870D01*
X25275334Y30793913D01*
X25293193Y31054995D01*
X25293193Y31055004D01*
X25274443Y31329116D01*
X25274442Y31329116D01*
X25274442Y31329130D01*
X25218538Y31598153D01*
X25126523Y31857058D01*
X25000111Y32101023D01*
X24841657Y32325502D01*
X24654111Y32526314D01*
X24440969Y32699718D01*
X24336265Y32763389D01*
X24288456Y32815872D01*
X24276610Y32885873D01*
X24288943Y32927208D01*
X24387841Y33125824D01*
X24447838Y33336691D01*
X24468067Y33555000D01*
X24447838Y33773308D01*
X24387841Y33984175D01*
X24290116Y34180434D01*
X24279157Y34194946D01*
X23680000Y33595789D01*
X23680000Y33607661D01*
X23652741Y33709394D01*
X23600080Y33800606D01*
X23525606Y33875080D01*
X23434394Y33927741D01*
X23332661Y33955000D01*
X23320790Y33955000D01*
X23917484Y34551694D01*
X23809572Y34618511D01*
X23809568Y34618513D01*
X23605131Y34697713D01*
X23389618Y34738000D01*
X23170382Y34738000D01*
X22954868Y34697713D01*
X22750431Y34618513D01*
X22750427Y34618511D01*
X22642514Y34551694D01*
X23239209Y33955000D01*
X23227339Y33955000D01*
X23125606Y33927741D01*
X23034394Y33875080D01*
X22959920Y33800606D01*
X22907259Y33709394D01*
X22880000Y33607661D01*
X22880000Y33595788D01*
X22280841Y34194947D01*
X22269886Y34180441D01*
X22172158Y33984175D01*
X22112161Y33773308D01*
X22091932Y33555000D01*
X22112161Y33336691D01*
X22172158Y33125824D01*
X22271057Y32927208D01*
X22283515Y32857313D01*
X22256208Y32791778D01*
X22223735Y32763390D01*
X22119031Y32699718D01*
X21905889Y32526314D01*
X21718343Y32325502D01*
X21627797Y32197227D01*
X21559892Y32101028D01*
X21559890Y32101025D01*
X21559889Y32101023D01*
X21487794Y31961885D01*
X21433477Y31857058D01*
X21341462Y31598154D01*
X21341460Y31598146D01*
X21317816Y31484361D01*
X21285558Y31329130D01*
X21285557Y31329125D01*
X21285557Y31329122D01*
X21285556Y31329116D01*
X21266807Y31055004D01*
X8758500Y31055004D01*
X8758500Y40233649D01*
X44961500Y40233649D01*
X44961500Y38436350D01*
X44968009Y38375803D01*
X44968011Y38375795D01*
X45019110Y38238797D01*
X45019112Y38238792D01*
X45106738Y38121738D01*
X45223792Y38034112D01*
X45223795Y38034111D01*
X45339313Y37991024D01*
X45396148Y37948477D01*
X45420958Y37881956D01*
X45405866Y37812582D01*
X45387981Y37787632D01*
X45244674Y37631958D01*
X45121580Y37443548D01*
X45031179Y37237456D01*
X45031176Y37237449D01*
X44983455Y37049000D01*
X45889297Y37049000D01*
X45854075Y36987993D01*
X45820000Y36860826D01*
X45820000Y36729174D01*
X45854075Y36602007D01*
X45889297Y36541000D01*
X44983456Y36541000D01*
X44983455Y36540999D01*
X45031176Y36352550D01*
X45031179Y36352543D01*
X45121580Y36146451D01*
X45244674Y35958041D01*
X45397097Y35792465D01*
X45574698Y35654232D01*
X45574699Y35654231D01*
X45772628Y35547117D01*
X45772630Y35547116D01*
X45985487Y35474043D01*
X45985498Y35474040D01*
X46065999Y35460606D01*
X46066000Y35460607D01*
X46066000Y36364297D01*
X46127007Y36329075D01*
X46254174Y36295000D01*
X46385826Y36295000D01*
X46512993Y36329075D01*
X46574000Y36364297D01*
X46574000Y35460606D01*
X46654501Y35474040D01*
X46654512Y35474043D01*
X46867369Y35547116D01*
X46867371Y35547117D01*
X47065300Y35654231D01*
X47065301Y35654232D01*
X47242902Y35792465D01*
X47395325Y35958041D01*
X47518419Y36146451D01*
X47608820Y36352543D01*
X47608823Y36352550D01*
X47656544Y36540999D01*
X47656544Y36541000D01*
X46750703Y36541000D01*
X46785925Y36602007D01*
X46820000Y36729174D01*
X46820000Y36860826D01*
X46785925Y36987993D01*
X46750703Y37049000D01*
X47656544Y37049000D01*
X47608823Y37237449D01*
X47608820Y37237456D01*
X47518419Y37443548D01*
X47395323Y37631961D01*
X47252019Y37787632D01*
X47220598Y37851297D01*
X47228585Y37921843D01*
X47273444Y37976872D01*
X47300686Y37991024D01*
X47416204Y38034111D01*
X47416207Y38034112D01*
X47533261Y38121738D01*
X47620887Y38238792D01*
X47620889Y38238797D01*
X47671988Y38375795D01*
X47671990Y38375803D01*
X47678499Y38436350D01*
X47678500Y38436367D01*
X47678500Y39745405D01*
X47698502Y39813526D01*
X47715405Y39834500D01*
X48114554Y40233649D01*
X50041500Y40233649D01*
X50041500Y38436350D01*
X50048009Y38375803D01*
X50048011Y38375795D01*
X50099110Y38238797D01*
X50099112Y38238792D01*
X50186738Y38121738D01*
X50303792Y38034112D01*
X50303795Y38034111D01*
X50419313Y37991024D01*
X50476148Y37948477D01*
X50500958Y37881956D01*
X50485866Y37812582D01*
X50467981Y37787632D01*
X50324674Y37631958D01*
X50201580Y37443548D01*
X50111179Y37237456D01*
X50111176Y37237449D01*
X50063455Y37049000D01*
X50969297Y37049000D01*
X50934075Y36987993D01*
X50900000Y36860826D01*
X50900000Y36729174D01*
X50934075Y36602007D01*
X50969297Y36541000D01*
X50063456Y36541000D01*
X50063455Y36540999D01*
X50111176Y36352550D01*
X50111179Y36352543D01*
X50201580Y36146451D01*
X50324674Y35958041D01*
X50477097Y35792465D01*
X50654698Y35654232D01*
X50654699Y35654231D01*
X50852628Y35547117D01*
X50852630Y35547116D01*
X51065487Y35474043D01*
X51065498Y35474040D01*
X51145999Y35460606D01*
X51146000Y35460607D01*
X51146000Y36364297D01*
X51207007Y36329075D01*
X51334174Y36295000D01*
X51465826Y36295000D01*
X51592993Y36329075D01*
X51654000Y36364297D01*
X51654000Y35460606D01*
X51734501Y35474040D01*
X51734512Y35474043D01*
X51947369Y35547116D01*
X51947371Y35547117D01*
X52145300Y35654231D01*
X52145301Y35654232D01*
X52322902Y35792465D01*
X52475325Y35958041D01*
X52598419Y36146451D01*
X52688820Y36352543D01*
X52688823Y36352550D01*
X52736544Y36540999D01*
X52736544Y36541000D01*
X51830703Y36541000D01*
X51865925Y36602007D01*
X51900000Y36729174D01*
X51900000Y36860826D01*
X51865925Y36987993D01*
X51830703Y37049000D01*
X52736544Y37049000D01*
X52688823Y37237449D01*
X52688820Y37237456D01*
X52598419Y37443548D01*
X52475323Y37631961D01*
X52332019Y37787632D01*
X52300598Y37851297D01*
X52308585Y37921843D01*
X52353444Y37976872D01*
X52380686Y37991024D01*
X52496204Y38034111D01*
X52496207Y38034112D01*
X52613261Y38121738D01*
X52700887Y38238792D01*
X52700889Y38238797D01*
X52751988Y38375795D01*
X52751990Y38375803D01*
X52758499Y38436350D01*
X52758500Y38436367D01*
X52758500Y40233632D01*
X52758499Y40233649D01*
X52751990Y40294196D01*
X52751988Y40294204D01*
X52744960Y40313045D01*
X52700889Y40431204D01*
X52613261Y40548261D01*
X52496204Y40635889D01*
X52359201Y40686989D01*
X52359199Y40686989D01*
X52359196Y40686990D01*
X52298649Y40693499D01*
X52298645Y40693499D01*
X52298638Y40693500D01*
X50501362Y40693500D01*
X50501355Y40693499D01*
X50501350Y40693499D01*
X50440803Y40686990D01*
X50440795Y40686988D01*
X50362875Y40657924D01*
X50303796Y40635889D01*
X50303794Y40635888D01*
X50303792Y40635887D01*
X50186738Y40548261D01*
X50099112Y40431207D01*
X50099110Y40431202D01*
X50048011Y40294204D01*
X50048009Y40294196D01*
X50041500Y40233649D01*
X48114554Y40233649D01*
X48739500Y40858595D01*
X48801812Y40892621D01*
X48828595Y40895500D01*
X48830396Y40895500D01*
X48879086Y40905185D01*
X48952785Y40919845D01*
X49068075Y40967600D01*
X49171833Y41036929D01*
X49260071Y41125167D01*
X49329400Y41228925D01*
X49377155Y41344215D01*
X49401500Y41466606D01*
X49401500Y49758649D01*
X50041500Y49758649D01*
X50041500Y47961350D01*
X50048009Y47900803D01*
X50048011Y47900795D01*
X50099110Y47763797D01*
X50099112Y47763792D01*
X50186738Y47646738D01*
X50303792Y47559112D01*
X50303795Y47559111D01*
X50419313Y47516024D01*
X50476148Y47473477D01*
X50500958Y47406956D01*
X50485866Y47337582D01*
X50467981Y47312632D01*
X50324674Y47156958D01*
X50201580Y46968548D01*
X50111179Y46762456D01*
X50111176Y46762449D01*
X50063455Y46574000D01*
X50969297Y46574000D01*
X50934075Y46512993D01*
X50900000Y46385826D01*
X50900000Y46254174D01*
X50934075Y46127007D01*
X50969297Y46066000D01*
X50063456Y46066000D01*
X50063455Y46065999D01*
X50111176Y45877550D01*
X50111179Y45877543D01*
X50201580Y45671451D01*
X50324674Y45483041D01*
X50477097Y45317465D01*
X50654698Y45179232D01*
X50654699Y45179231D01*
X50852628Y45072117D01*
X50852630Y45072116D01*
X51065487Y44999043D01*
X51065498Y44999040D01*
X51145999Y44985606D01*
X51146000Y44985607D01*
X51146000Y45889297D01*
X51207007Y45854075D01*
X51334174Y45820000D01*
X51465826Y45820000D01*
X51592993Y45854075D01*
X51654000Y45889297D01*
X51654000Y44985606D01*
X51734501Y44999040D01*
X51734512Y44999043D01*
X51947369Y45072116D01*
X51947371Y45072117D01*
X52145300Y45179231D01*
X52145301Y45179232D01*
X52322902Y45317465D01*
X52475325Y45483041D01*
X52598419Y45671451D01*
X52688820Y45877543D01*
X52688823Y45877550D01*
X52736544Y46065999D01*
X52736544Y46066000D01*
X51830703Y46066000D01*
X51865925Y46127007D01*
X51900000Y46254174D01*
X51900000Y46385826D01*
X51865925Y46512993D01*
X51830703Y46574000D01*
X52736544Y46574000D01*
X52688823Y46762449D01*
X52688820Y46762456D01*
X52598419Y46968548D01*
X52475323Y47156961D01*
X52332019Y47312632D01*
X52300598Y47376297D01*
X52308585Y47446843D01*
X52353444Y47501872D01*
X52380686Y47516024D01*
X52496204Y47559111D01*
X52496207Y47559112D01*
X52613261Y47646738D01*
X52700887Y47763792D01*
X52700889Y47763797D01*
X52751988Y47900795D01*
X52751990Y47900803D01*
X52758499Y47961350D01*
X52758500Y47961367D01*
X52758500Y49758632D01*
X52758499Y49758649D01*
X52751990Y49819196D01*
X52751988Y49819204D01*
X52744960Y49838045D01*
X52700889Y49956204D01*
X52613261Y50073261D01*
X52496204Y50160889D01*
X52359201Y50211989D01*
X52359199Y50211989D01*
X52359196Y50211990D01*
X52298649Y50218499D01*
X52298645Y50218499D01*
X52298638Y50218500D01*
X50501362Y50218500D01*
X50501355Y50218499D01*
X50501350Y50218499D01*
X50440803Y50211990D01*
X50440795Y50211988D01*
X50362875Y50182924D01*
X50303796Y50160889D01*
X50303794Y50160888D01*
X50303792Y50160887D01*
X50186738Y50073261D01*
X50099112Y49956207D01*
X50099110Y49956202D01*
X50048011Y49819204D01*
X50048009Y49819196D01*
X50041500Y49758649D01*
X49401500Y49758649D01*
X49401500Y55155000D01*
X50672337Y55155000D01*
X50690960Y54918367D01*
X50746371Y54687562D01*
X50837208Y54468262D01*
X50951896Y54281107D01*
X50951898Y54281107D01*
X51660017Y54989226D01*
X51672482Y54942708D01*
X51744890Y54817292D01*
X51847292Y54714890D01*
X51972708Y54642482D01*
X52019226Y54630017D01*
X51311107Y53921898D01*
X51311107Y53921896D01*
X51498262Y53807208D01*
X51717562Y53716371D01*
X51948367Y53660960D01*
X52185000Y53642337D01*
X52421632Y53660960D01*
X52652437Y53716371D01*
X52871733Y53807206D01*
X53058891Y53921897D01*
X52350772Y54630017D01*
X52397292Y54642482D01*
X52522708Y54714890D01*
X52625110Y54817292D01*
X52697518Y54942708D01*
X52709982Y54989226D01*
X53418101Y54281107D01*
X53418102Y54281107D01*
X53532791Y54468261D01*
X53623628Y54687562D01*
X53679039Y54918367D01*
X53697662Y55155000D01*
X53679039Y55391632D01*
X53623628Y55622437D01*
X53532791Y55841738D01*
X53418102Y56028891D01*
X53418101Y56028892D01*
X52709982Y55320773D01*
X52697518Y55367292D01*
X52625110Y55492708D01*
X52522708Y55595110D01*
X52397292Y55667518D01*
X52350773Y55679982D01*
X53058892Y56388101D01*
X53058891Y56388102D01*
X52871738Y56502791D01*
X52652437Y56593628D01*
X52421632Y56649039D01*
X52185000Y56667662D01*
X51948367Y56649039D01*
X51717562Y56593628D01*
X51498261Y56502791D01*
X51311107Y56388102D01*
X51311107Y56388101D01*
X52019226Y55679982D01*
X51972708Y55667518D01*
X51847292Y55595110D01*
X51744890Y55492708D01*
X51672482Y55367292D01*
X51660016Y55320771D01*
X50951897Y56028891D01*
X50837206Y55841733D01*
X50746371Y55622437D01*
X50690960Y55391632D01*
X50672337Y55155000D01*
X49401500Y55155000D01*
X49401500Y59655000D01*
X50671835Y59655000D01*
X50690465Y59418289D01*
X50745894Y59187407D01*
X50836759Y58968038D01*
X50960825Y58765582D01*
X50960826Y58765580D01*
X51115030Y58585030D01*
X51295580Y58430826D01*
X51295582Y58430825D01*
X51498038Y58306759D01*
X51717407Y58215894D01*
X51948289Y58160465D01*
X52185000Y58141835D01*
X52421711Y58160465D01*
X52494651Y58177976D01*
X52652592Y58215894D01*
X52871961Y58306759D01*
X52871963Y58306760D01*
X53074416Y58430824D01*
X53074417Y58430825D01*
X53074419Y58430826D01*
X53254969Y58585030D01*
X53409173Y58765580D01*
X53409174Y58765582D01*
X53409176Y58765584D01*
X53533240Y58968037D01*
X53624105Y59187406D01*
X53679535Y59418289D01*
X53698165Y59655000D01*
X53679535Y59891711D01*
X53624105Y60122594D01*
X53533240Y60341963D01*
X53409176Y60544416D01*
X53254969Y60724969D01*
X53074416Y60879176D01*
X52871963Y61003240D01*
X52652594Y61094105D01*
X52421711Y61149535D01*
X52185000Y61168165D01*
X51948289Y61149535D01*
X51717406Y61094105D01*
X51498037Y61003240D01*
X51295584Y60879176D01*
X51295582Y60879174D01*
X51295580Y60879173D01*
X51115030Y60724969D01*
X50960826Y60544419D01*
X50960825Y60544417D01*
X50960824Y60544416D01*
X50836760Y60341963D01*
X50836759Y60341961D01*
X50745894Y60122592D01*
X50730237Y60057374D01*
X50690465Y59891711D01*
X50685694Y59831096D01*
X50671835Y59655000D01*
X49401500Y59655000D01*
X49401500Y62230000D01*
X53542384Y62230000D01*
X53562783Y62048953D01*
X53562783Y62048950D01*
X53562784Y62048949D01*
X53622957Y61876984D01*
X53622958Y61876981D01*
X53719887Y61722720D01*
X53719888Y61722718D01*
X53848718Y61593888D01*
X53848720Y61593887D01*
X54002981Y61496958D01*
X54002984Y61496957D01*
X54174949Y61436784D01*
X54174950Y61436783D01*
X54174953Y61436783D01*
X54356000Y61416384D01*
X54537047Y61436783D01*
X54630722Y61469561D01*
X54709015Y61496957D01*
X54709017Y61496958D01*
X54836701Y61577187D01*
X54903737Y61596500D01*
X55840263Y61596500D01*
X55907299Y61577187D01*
X56034982Y61496958D01*
X56034984Y61496957D01*
X56206949Y61436784D01*
X56206950Y61436783D01*
X56206953Y61436783D01*
X56388000Y61416384D01*
X56569047Y61436783D01*
X56662722Y61469561D01*
X56741015Y61496957D01*
X56741018Y61496958D01*
X56895279Y61593887D01*
X56895281Y61593888D01*
X57024111Y61722718D01*
X57024112Y61722720D01*
X57121041Y61876981D01*
X57121042Y61876984D01*
X57121043Y61876985D01*
X57181217Y62048953D01*
X57201616Y62230000D01*
X57181217Y62411047D01*
X57121043Y62583015D01*
X57024111Y62737281D01*
X56895281Y62866111D01*
X56741015Y62963043D01*
X56569047Y63023217D01*
X56388000Y63043616D01*
X56206953Y63023217D01*
X56034985Y62963043D01*
X56015444Y62950764D01*
X55907299Y62882813D01*
X55840263Y62863500D01*
X54903737Y62863500D01*
X54836701Y62882813D01*
X54761475Y62930080D01*
X54709015Y62963043D01*
X54537047Y63023217D01*
X54356000Y63043616D01*
X54174953Y63023217D01*
X54002985Y62963043D01*
X54002982Y62963041D01*
X54002981Y62963041D01*
X53848720Y62866112D01*
X53848718Y62866111D01*
X53719888Y62737281D01*
X53719887Y62737279D01*
X53622958Y62583018D01*
X53622957Y62583015D01*
X53562783Y62411047D01*
X53542384Y62230000D01*
X49401500Y62230000D01*
X49401500Y66995406D01*
X49421502Y67063527D01*
X49438405Y67084501D01*
X49542553Y67188649D01*
X61981500Y67188649D01*
X61981500Y65091350D01*
X61988009Y65030803D01*
X61988011Y65030795D01*
X62039110Y64893797D01*
X62039112Y64893792D01*
X62126738Y64776738D01*
X62243792Y64689112D01*
X62243797Y64689110D01*
X62380795Y64638011D01*
X62380803Y64638009D01*
X62441350Y64631500D01*
X62441362Y64631500D01*
X64538649Y64631500D01*
X64599196Y64638009D01*
X64599197Y64638010D01*
X64599199Y64638010D01*
X64599201Y64638011D01*
X64679418Y64667931D01*
X64750234Y64672996D01*
X64812546Y64638971D01*
X64846571Y64576658D01*
X64841507Y64505843D01*
X64812546Y64460780D01*
X63478647Y63126881D01*
X63368279Y62961704D01*
X63313725Y62829999D01*
X63292258Y62778173D01*
X63292256Y62778168D01*
X63253500Y62583331D01*
X63253500Y62384668D01*
X63292256Y62189831D01*
X63292258Y62189826D01*
X63368279Y62006296D01*
X63478644Y61841123D01*
X63478649Y61841116D01*
X63619116Y61700649D01*
X63619123Y61700644D01*
X63784296Y61590279D01*
X63967826Y61514258D01*
X63967831Y61514256D01*
X64162668Y61475500D01*
X64162671Y61475500D01*
X64361331Y61475500D01*
X64556168Y61514256D01*
X64556173Y61514258D01*
X64597132Y61531224D01*
X64739704Y61590279D01*
X64904881Y61700647D01*
X66717835Y63513601D01*
X67914500Y63513601D01*
X67914500Y63266399D01*
X67946787Y63062549D01*
X67953172Y63022234D01*
X68029559Y62787140D01*
X68141790Y62566875D01*
X68287092Y62366885D01*
X68287094Y62366882D01*
X68461882Y62192094D01*
X68461885Y62192092D01*
X68661875Y62046790D01*
X68882140Y61934559D01*
X69117234Y61858172D01*
X69117239Y61858171D01*
X69117240Y61858171D01*
X69361399Y61819500D01*
X69361402Y61819500D01*
X69608598Y61819500D01*
X69608601Y61819500D01*
X69852760Y61858171D01*
X69852761Y61858171D01*
X69852765Y61858172D01*
X70087859Y61934559D01*
X70190368Y61986790D01*
X70308121Y62046788D01*
X70311096Y62048949D01*
X70425532Y62132092D01*
X70508112Y62192090D01*
X70508114Y62192092D01*
X70508117Y62192094D01*
X70682905Y62366882D01*
X70682907Y62366885D01*
X70682910Y62366888D01*
X70828212Y62566879D01*
X70940439Y62787137D01*
X71016829Y63022240D01*
X71055500Y63266399D01*
X71055500Y63513601D01*
X71016829Y63757760D01*
X70940439Y63992863D01*
X70828212Y64213121D01*
X70682910Y64413112D01*
X70508112Y64587910D01*
X70308121Y64733212D01*
X70087863Y64845439D01*
X69852760Y64921829D01*
X69608601Y64960500D01*
X69361399Y64960500D01*
X69117240Y64921829D01*
X68882137Y64845439D01*
X68661879Y64733212D01*
X68461888Y64587910D01*
X68461885Y64587907D01*
X68461882Y64587905D01*
X68287094Y64413117D01*
X68287092Y64413114D01*
X68287090Y64413112D01*
X68141788Y64213121D01*
X68062848Y64058193D01*
X68029559Y63992859D01*
X67953172Y63757765D01*
X67953171Y63757761D01*
X67953171Y63757760D01*
X67914500Y63513601D01*
X66717835Y63513601D01*
X70852353Y67648119D01*
X70962721Y67813296D01*
X71038744Y67996831D01*
X71077500Y68191671D01*
X71077500Y68390329D01*
X71077500Y70697043D01*
X71097502Y70765164D01*
X71110799Y70782380D01*
X71144714Y70819222D01*
X71144724Y70819234D01*
X71267858Y71007706D01*
X71267860Y71007709D01*
X71358296Y71213884D01*
X71380273Y71300667D01*
X71413562Y71432124D01*
X71413564Y71432132D01*
X71432156Y71656500D01*
X71413564Y71880868D01*
X71358296Y72099116D01*
X71267860Y72305291D01*
X71144722Y72493768D01*
X70992240Y72659406D01*
X70814576Y72797689D01*
X70616574Y72904842D01*
X70403635Y72977944D01*
X70181569Y73015000D01*
X69956431Y73015000D01*
X69734365Y72977944D01*
X69633227Y72943223D01*
X69521428Y72904843D01*
X69521427Y72904842D01*
X69521426Y72904842D01*
X69323424Y72797689D01*
X69235293Y72729093D01*
X69145762Y72659408D01*
X68993279Y72493770D01*
X68993275Y72493765D01*
X68959774Y72442487D01*
X68904481Y72357854D01*
X68850480Y72311768D01*
X68780132Y72302192D01*
X68715775Y72332169D01*
X68693519Y72357853D01*
X68604722Y72493768D01*
X68452240Y72659406D01*
X68274576Y72797689D01*
X68076574Y72904842D01*
X67863635Y72977944D01*
X67641569Y73015000D01*
X67416431Y73015000D01*
X67194365Y72977944D01*
X67093227Y72943223D01*
X66981428Y72904843D01*
X66981427Y72904842D01*
X66981426Y72904842D01*
X66783424Y72797689D01*
X66695293Y72729093D01*
X66605762Y72659408D01*
X66605760Y72659406D01*
X66544753Y72593136D01*
X66483902Y72556566D01*
X66412937Y72558701D01*
X66354392Y72598863D01*
X66334000Y72634437D01*
X66289889Y72752704D01*
X66202261Y72869761D01*
X66155400Y72904841D01*
X66085207Y72957387D01*
X66085206Y72957387D01*
X66085204Y72957389D01*
X65948201Y73008489D01*
X65948199Y73008489D01*
X65948196Y73008490D01*
X65887649Y73014999D01*
X65887645Y73014999D01*
X65887638Y73015000D01*
X64090362Y73015000D01*
X64090355Y73014999D01*
X64090350Y73014999D01*
X64029803Y73008490D01*
X64029795Y73008488D01*
X63961204Y72982904D01*
X63892796Y72957389D01*
X63892794Y72957388D01*
X63892792Y72957387D01*
X63775738Y72869761D01*
X63688112Y72752707D01*
X63688110Y72752702D01*
X63637011Y72615704D01*
X63637009Y72615696D01*
X63630500Y72555149D01*
X63630500Y70757850D01*
X63637009Y70697303D01*
X63637011Y70697295D01*
X63688110Y70560297D01*
X63688112Y70560292D01*
X63775738Y70443238D01*
X63892792Y70355612D01*
X63892797Y70355610D01*
X64029795Y70304511D01*
X64029803Y70304509D01*
X64090350Y70298000D01*
X65837076Y70298000D01*
X65905197Y70277998D01*
X65951690Y70224342D01*
X65961794Y70154068D01*
X65932300Y70089488D01*
X65926171Y70082905D01*
X63528671Y67685405D01*
X63466359Y67651379D01*
X63439576Y67648500D01*
X62441362Y67648500D01*
X62441355Y67648499D01*
X62441350Y67648499D01*
X62380803Y67641990D01*
X62380795Y67641988D01*
X62302875Y67612924D01*
X62243796Y67590889D01*
X62243794Y67590888D01*
X62243792Y67590887D01*
X62126738Y67503261D01*
X62039112Y67386207D01*
X62039110Y67386202D01*
X61988011Y67249204D01*
X61988009Y67249196D01*
X61981500Y67188649D01*
X49542553Y67188649D01*
X50009499Y67655595D01*
X50071811Y67689621D01*
X50098594Y67692500D01*
X52538263Y67692500D01*
X52605299Y67673187D01*
X52732982Y67592958D01*
X52732984Y67592957D01*
X52904949Y67532784D01*
X52904950Y67532783D01*
X52904953Y67532783D01*
X53086000Y67512384D01*
X53267047Y67532783D01*
X53439015Y67592957D01*
X53439018Y67592958D01*
X53593279Y67689887D01*
X53593281Y67689888D01*
X53722111Y67818718D01*
X53722112Y67818720D01*
X53819041Y67972981D01*
X53819042Y67972984D01*
X53819043Y67972985D01*
X53879217Y68144953D01*
X53899616Y68326000D01*
X53879217Y68507047D01*
X53819043Y68679015D01*
X53722111Y68833281D01*
X53593281Y68962111D01*
X53439015Y69059043D01*
X53267047Y69119217D01*
X53086000Y69139616D01*
X52904953Y69119217D01*
X52732985Y69059043D01*
X52713444Y69046764D01*
X52605299Y68978813D01*
X52538263Y68959500D01*
X49846394Y68959500D01*
X49721606Y68959500D01*
X49599215Y68935155D01*
X49483925Y68887400D01*
X49380167Y68818071D01*
X48364167Y67802071D01*
X48275929Y67713833D01*
X48206600Y67610075D01*
X48158845Y67494785D01*
X48148758Y67444075D01*
X48134500Y67372396D01*
X48134500Y42097595D01*
X48114498Y42029474D01*
X48097595Y42008500D01*
X46819501Y40730405D01*
X46757189Y40696380D01*
X46730406Y40693500D01*
X45421362Y40693500D01*
X45421355Y40693499D01*
X45421350Y40693499D01*
X45360803Y40686990D01*
X45360795Y40686988D01*
X45282875Y40657924D01*
X45223796Y40635889D01*
X45223794Y40635888D01*
X45223792Y40635887D01*
X45106738Y40548261D01*
X45019112Y40431207D01*
X45019110Y40431202D01*
X44968011Y40294204D01*
X44968009Y40294196D01*
X44961500Y40233649D01*
X8758500Y40233649D01*
X8758500Y61890076D01*
X8778502Y61958197D01*
X8795405Y61979171D01*
X10269835Y63453601D01*
X15844500Y63453601D01*
X15844500Y63206399D01*
X15876734Y63002883D01*
X15883172Y62962234D01*
X15959559Y62727140D01*
X16071790Y62506875D01*
X16217092Y62306885D01*
X16217094Y62306882D01*
X16391882Y62132094D01*
X16391885Y62132092D01*
X16591875Y61986790D01*
X16812140Y61874559D01*
X17047234Y61798172D01*
X17047239Y61798171D01*
X17047240Y61798171D01*
X17291399Y61759500D01*
X17291402Y61759500D01*
X17538598Y61759500D01*
X17538601Y61759500D01*
X17782760Y61798171D01*
X17782761Y61798171D01*
X17782765Y61798172D01*
X18017859Y61874559D01*
X18017863Y61874561D01*
X18238121Y61986788D01*
X18264972Y62006296D01*
X18320704Y62046788D01*
X18438112Y62132090D01*
X18438114Y62132092D01*
X18438117Y62132094D01*
X18612905Y62306882D01*
X18612907Y62306885D01*
X18612910Y62306888D01*
X18758212Y62506879D01*
X18870439Y62727137D01*
X18946829Y62962240D01*
X18985500Y63206399D01*
X18985500Y63453601D01*
X18946829Y63697760D01*
X18870439Y63932863D01*
X18758212Y64153121D01*
X18612910Y64353112D01*
X18438112Y64527910D01*
X18238121Y64673212D01*
X18017863Y64785439D01*
X17782760Y64861829D01*
X17538601Y64900500D01*
X17291399Y64900500D01*
X17047240Y64861829D01*
X16812137Y64785439D01*
X16591879Y64673212D01*
X16391888Y64527910D01*
X16391885Y64527907D01*
X16391882Y64527905D01*
X16217094Y64353117D01*
X16217092Y64353114D01*
X16217090Y64353112D01*
X16071788Y64153121D01*
X15988943Y63990528D01*
X15959559Y63932859D01*
X15883172Y63697765D01*
X15883171Y63697761D01*
X15883171Y63697760D01*
X15844500Y63453601D01*
X10269835Y63453601D01*
X11357898Y64541664D01*
X11420210Y64575690D01*
X11437106Y64578181D01*
X11611455Y64591903D01*
X11656711Y64595465D01*
X11762260Y64620805D01*
X11887592Y64650894D01*
X12106961Y64741759D01*
X12106963Y64741760D01*
X12309416Y64865824D01*
X12309417Y64865825D01*
X12309419Y64865826D01*
X12489969Y65020030D01*
X12644173Y65200580D01*
X12644174Y65200582D01*
X12644176Y65200584D01*
X12768240Y65403037D01*
X12859105Y65622406D01*
X12914535Y65853289D01*
X12933165Y66090000D01*
X12914535Y66326711D01*
X12859105Y66557594D01*
X12768240Y66776963D01*
X12644176Y66979416D01*
X12489969Y67159969D01*
X12309416Y67314176D01*
X12106963Y67438240D01*
X11887594Y67529105D01*
X11656711Y67584535D01*
X11420000Y67603165D01*
X11183289Y67584535D01*
X10952406Y67529105D01*
X10733037Y67438240D01*
X10530584Y67314176D01*
X10530582Y67314174D01*
X10530580Y67314173D01*
X10350030Y67159969D01*
X10195826Y66979419D01*
X10195825Y66979417D01*
X10195824Y66979416D01*
X10116086Y66849296D01*
X10071759Y66776961D01*
X9980894Y66557592D01*
X9956082Y66454240D01*
X9925465Y66326711D01*
X9918097Y66233087D01*
X9906835Y66089998D01*
X9912997Y66011693D01*
X9898400Y65942213D01*
X9876480Y65912714D01*
X7107119Y63143353D01*
X6966647Y63002881D01*
X6856279Y62837704D01*
X6791392Y62681053D01*
X6780258Y62654174D01*
X6780256Y62654169D01*
X6741500Y62459331D01*
X6741500Y18058713D01*
X6721498Y17990592D01*
X6667842Y17944099D01*
X6597568Y17933995D01*
X6532988Y17963489D01*
X6526405Y17969618D01*
X6448117Y18047905D01*
X6448112Y18047910D01*
X6248121Y18193212D01*
X6027863Y18305439D01*
X5792760Y18381829D01*
X5548601Y18420500D01*
X5301399Y18420500D01*
X5057240Y18381829D01*
X4822137Y18305439D01*
X4601879Y18193212D01*
X4401888Y18047910D01*
X4401885Y18047907D01*
X4401882Y18047905D01*
X4227094Y17873117D01*
X4227092Y17873114D01*
X4227090Y17873112D01*
X4081788Y17673121D01*
X3969561Y17452863D01*
X3969559Y17452859D01*
X3893172Y17217765D01*
X3893171Y17217761D01*
X3893171Y17217760D01*
X3854500Y16973601D01*
X3854500Y16973597D01*
X3854500Y16726402D01*
X3893172Y16482234D01*
X3969559Y16247140D01*
X4081790Y16026875D01*
X4227092Y15826885D01*
X4227094Y15826882D01*
X4401882Y15652094D01*
X4401885Y15652092D01*
X4601875Y15506790D01*
X4822140Y15394559D01*
X5057234Y15318172D01*
X5057239Y15318171D01*
X5057240Y15318171D01*
X5301399Y15279500D01*
X5301402Y15279500D01*
X5548598Y15279500D01*
X5548601Y15279500D01*
X5792760Y15318171D01*
X5792761Y15318171D01*
X5792765Y15318172D01*
X6027859Y15394559D01*
X6027863Y15394561D01*
X6248121Y15506788D01*
X6448112Y15652090D01*
X6448114Y15652092D01*
X6448117Y15652094D01*
X6526405Y15730382D01*
X6588717Y15764408D01*
X6659532Y15759343D01*
X6716368Y15716796D01*
X6741179Y15650276D01*
X6741500Y15641287D01*
X6741500Y11650668D01*
X6780256Y11455830D01*
X6780258Y11455825D01*
X6856279Y11272296D01*
X6966644Y11107123D01*
X6966649Y11107116D01*
X8194595Y9879171D01*
X8228621Y9816859D01*
X8231500Y9790076D01*
X8231500Y9686514D01*
X8211498Y9618393D01*
X8157842Y9571900D01*
X8087568Y9561796D01*
X8061466Y9568459D01*
X8054956Y9570886D01*
X8054954Y9570889D01*
X7917951Y9621989D01*
X7917946Y9621990D01*
X7857399Y9628499D01*
X7857395Y9628499D01*
X7857388Y9628500D01*
X6042612Y9628500D01*
X6042605Y9628499D01*
X6042600Y9628499D01*
X5982053Y9621990D01*
X5982045Y9621988D01*
X5904125Y9592924D01*
X5845046Y9570889D01*
X5845044Y9570888D01*
X5845042Y9570887D01*
X5727988Y9483261D01*
X5640362Y9366207D01*
X5640360Y9366202D01*
X5589261Y9229204D01*
X5589259Y9229196D01*
X5582750Y9168649D01*
X5582750Y7271350D01*
X5589259Y7210803D01*
X5589261Y7210795D01*
X5640360Y7073797D01*
X5640362Y7073792D01*
X5727989Y6956737D01*
X5730656Y6954071D01*
X5732461Y6950763D01*
X5733389Y6949525D01*
X5733210Y6949391D01*
X5764678Y6891756D01*
X5759609Y6820941D01*
X5730651Y6775885D01*
X5091174Y6136408D01*
X5028862Y6102382D01*
X4958047Y6107447D01*
X4912985Y6136406D01*
X4825281Y6224111D01*
X4671015Y6321043D01*
X4499047Y6381217D01*
X4318000Y6401616D01*
X4136953Y6381217D01*
X3964985Y6321043D01*
X3964982Y6321041D01*
X3964981Y6321041D01*
X3810720Y6224112D01*
X3810718Y6224111D01*
X3681888Y6095281D01*
X3681887Y6095279D01*
X3584958Y5941018D01*
X3584957Y5941015D01*
X3534397Y5796521D01*
X3524783Y5769047D01*
X3504384Y5588000D01*
X3524783Y5406953D01*
X3552430Y5327940D01*
X3559500Y5286329D01*
X3559500Y5064755D01*
X3539498Y4996634D01*
X3509009Y4963887D01*
X3454738Y4923261D01*
X3367112Y4806207D01*
X3367110Y4806202D01*
X3316011Y4669204D01*
X3316009Y4669196D01*
X3309500Y4608649D01*
X3309500Y3011350D01*
X3316009Y2950803D01*
X3316011Y2950795D01*
X3367110Y2813797D01*
X3367112Y2813792D01*
X3454738Y2696738D01*
X3571792Y2609112D01*
X3571797Y2609110D01*
X3708795Y2558011D01*
X3708803Y2558009D01*
X3769350Y2551500D01*
X3769362Y2551500D01*
X4866649Y2551500D01*
X4927195Y2558009D01*
X4934867Y2559823D01*
X4935386Y2557624D01*
X4994799Y2561866D01*
X5004327Y2559068D01*
X5008804Y2558009D01*
X5069350Y2551500D01*
X5069362Y2551500D01*
X6166649Y2551500D01*
X6227196Y2558009D01*
X6227204Y2558011D01*
X6364202Y2609110D01*
X6364207Y2609112D01*
X6481261Y2696738D01*
X6568887Y2813792D01*
X6568889Y2813797D01*
X6619988Y2950795D01*
X6619990Y2950803D01*
X6622742Y2976402D01*
X7192000Y2976402D01*
X7198505Y2915906D01*
X7249555Y2779035D01*
X7249555Y2779034D01*
X7337095Y2662095D01*
X7454034Y2574555D01*
X7590906Y2523505D01*
X7651402Y2517000D01*
X7946000Y2517000D01*
X7946000Y3521000D01*
X7192000Y3521000D01*
X7192000Y2976402D01*
X6622742Y2976402D01*
X6626499Y3011350D01*
X6626500Y3011367D01*
X6626500Y4767076D01*
X6646502Y4835197D01*
X6663405Y4856171D01*
X7011829Y5204595D01*
X7074141Y5238621D01*
X7100924Y5241500D01*
X7468986Y5241500D01*
X7537107Y5221498D01*
X7583600Y5167842D01*
X7593704Y5097568D01*
X7564210Y5032988D01*
X7513019Y4997444D01*
X7454033Y4975443D01*
X7337095Y4887904D01*
X7249555Y4770965D01*
X7249555Y4770964D01*
X7198505Y4634093D01*
X7192000Y4573597D01*
X7192000Y4029000D01*
X8074000Y4029000D01*
X8142121Y4008998D01*
X8188614Y3955342D01*
X8200000Y3903000D01*
X8200000Y3775000D01*
X8328000Y3775000D01*
X8396121Y3754998D01*
X8442614Y3701342D01*
X8454000Y3649000D01*
X8454000Y2517000D01*
X8748597Y2517000D01*
X8809096Y2523505D01*
X8816766Y2525318D01*
X8817328Y2522938D01*
X8876082Y2527133D01*
X8887319Y2523833D01*
X8890804Y2523009D01*
X8951350Y2516500D01*
X8951362Y2516500D01*
X10048649Y2516500D01*
X10109196Y2523009D01*
X10109204Y2523011D01*
X10246202Y2574110D01*
X10246207Y2574112D01*
X10363261Y2661738D01*
X10450887Y2778792D01*
X10450889Y2778797D01*
X10450978Y2779034D01*
X10477560Y2850302D01*
X10501988Y2915795D01*
X10501990Y2915803D01*
X10508499Y2976350D01*
X10508500Y2976367D01*
X10508500Y6099327D01*
X10508500Y6099329D01*
X10469744Y6294169D01*
X10393721Y6477704D01*
X10283353Y6642881D01*
X10279914Y6648028D01*
X10282303Y6649624D01*
X10259351Y6703630D01*
X10258500Y6718248D01*
X10258500Y7213550D01*
X10278502Y7281671D01*
X10282548Y7287589D01*
X10283112Y7288366D01*
X10283357Y7288703D01*
X10339570Y7332069D01*
X10410305Y7338160D01*
X10473104Y7305042D01*
X10487237Y7288736D01*
X10487499Y7288374D01*
X10487506Y7288366D01*
X10639616Y7136256D01*
X10639619Y7136254D01*
X10813663Y7009803D01*
X11005348Y6912134D01*
X11005354Y6912131D01*
X11209945Y6845655D01*
X11209962Y6845651D01*
X11275998Y6835191D01*
X11276000Y6835192D01*
X11276000Y7731561D01*
X11317708Y7707482D01*
X11457591Y7670000D01*
X11602409Y7670000D01*
X11742292Y7707482D01*
X11784000Y7731561D01*
X11784000Y6835192D01*
X11784001Y6835191D01*
X11850037Y6845651D01*
X11850054Y6845655D01*
X12054645Y6912131D01*
X12054651Y6912134D01*
X12246336Y7009803D01*
X12420380Y7136254D01*
X12420383Y7136256D01*
X12572493Y7288366D01*
X12572495Y7288369D01*
X12698946Y7462413D01*
X12796615Y7654098D01*
X12796618Y7654104D01*
X12863094Y7858697D01*
X12880089Y7966000D01*
X12018438Y7966000D01*
X12042518Y8007708D01*
X12080000Y8147591D01*
X12080000Y8292409D01*
X12042518Y8432292D01*
X12018438Y8474000D01*
X12880089Y8474000D01*
X12863094Y8581302D01*
X12796618Y8785895D01*
X12796615Y8785901D01*
X12698946Y8977586D01*
X12652555Y9041439D01*
X12628696Y9108307D01*
X12644777Y9177458D01*
X12695691Y9226938D01*
X12754491Y9241500D01*
X14715835Y9241500D01*
X14783956Y9221498D01*
X14830449Y9167842D01*
X14840553Y9097568D01*
X14819048Y9043229D01*
X14702477Y8876749D01*
X14611888Y8682478D01*
X14605716Y8669243D01*
X14546457Y8448087D01*
X14537771Y8348810D01*
X14526502Y8220000D01*
X14546457Y7991913D01*
X14605715Y7770759D01*
X14605717Y7770753D01*
X14702477Y7563250D01*
X14833799Y7375703D01*
X14833804Y7375697D01*
X14995697Y7213804D01*
X14995703Y7213799D01*
X15183250Y7082477D01*
X15390753Y6985717D01*
X15390759Y6985715D01*
X15611913Y6926457D01*
X15840000Y6906502D01*
X16068087Y6926457D01*
X16236771Y6971656D01*
X16289240Y6985715D01*
X16289246Y6985717D01*
X16496749Y7082477D01*
X16684296Y7213799D01*
X16684302Y7213804D01*
X16846195Y7375697D01*
X16846198Y7375700D01*
X16977523Y7563251D01*
X16995805Y7602457D01*
X17042722Y7655742D01*
X17110999Y7675203D01*
X17178959Y7654661D01*
X17224195Y7602457D01*
X17242477Y7563250D01*
X17373799Y7375703D01*
X17373804Y7375697D01*
X17535697Y7213804D01*
X17535703Y7213799D01*
X17723250Y7082477D01*
X17930753Y6985717D01*
X17930759Y6985715D01*
X18151913Y6926457D01*
X18380000Y6906502D01*
X18608087Y6926457D01*
X18776771Y6971656D01*
X18829240Y6985715D01*
X18829246Y6985717D01*
X19036749Y7082477D01*
X19224296Y7213799D01*
X19224302Y7213804D01*
X19386195Y7375697D01*
X19386198Y7375700D01*
X19517523Y7563251D01*
X19614284Y7770757D01*
X19673543Y7991913D01*
X19693498Y8220000D01*
X19673543Y8448087D01*
X19629755Y8611504D01*
X19631445Y8682478D01*
X19671239Y8741274D01*
X19736503Y8769222D01*
X19806517Y8757449D01*
X19840557Y8733209D01*
X19919596Y8654169D01*
X19953620Y8591860D01*
X19956500Y8565076D01*
X19956500Y4900668D01*
X19995256Y4705831D01*
X19995257Y4705827D01*
X19996729Y4702275D01*
X20071279Y4522296D01*
X20181644Y4357123D01*
X20181649Y4357116D01*
X22817113Y1721650D01*
X22817119Y1721645D01*
X22982295Y1611278D01*
X23112075Y1557522D01*
X23165824Y1535258D01*
X23165830Y1535256D01*
X23360668Y1496500D01*
X23360671Y1496500D01*
X53824333Y1496500D01*
X54019171Y1535256D01*
X54019176Y1535258D01*
X54046055Y1546392D01*
X54202706Y1611279D01*
X54367883Y1721647D01*
X54508355Y1862119D01*
X55906439Y3260203D01*
X57536348Y4890111D01*
X57598660Y4924137D01*
X57669476Y4919072D01*
X57726311Y4876525D01*
X57751122Y4810005D01*
X57736031Y4740631D01*
X57733271Y4735831D01*
X57597356Y4511003D01*
X57462880Y4212207D01*
X57365396Y3899370D01*
X57306333Y3577070D01*
X57306332Y3577067D01*
X57286549Y3250001D01*
X57286549Y3249998D01*
X57306332Y2922932D01*
X57306333Y2922929D01*
X57365396Y2600629D01*
X57462880Y2287792D01*
X57597356Y1988996D01*
X57766871Y1708587D01*
X57968954Y1450647D01*
X57968959Y1450641D01*
X58200641Y1218959D01*
X58200647Y1218954D01*
X58458587Y1016871D01*
X58738997Y847356D01*
X58753346Y840899D01*
X58807256Y794702D01*
X58827632Y726692D01*
X58808005Y658463D01*
X58754605Y611676D01*
X58701634Y600000D01*
X16298366Y600000D01*
X16230245Y620002D01*
X16183752Y673658D01*
X16173648Y743932D01*
X16203142Y808512D01*
X16246654Y840899D01*
X16261002Y847356D01*
X16541412Y1016871D01*
X16746192Y1177306D01*
X16799351Y1218953D01*
X16799352Y1218954D01*
X16799358Y1218959D01*
X17031040Y1450641D01*
X17031045Y1450647D01*
X17033740Y1454086D01*
X17233126Y1708584D01*
X17241022Y1721645D01*
X17402643Y1988996D01*
X17537119Y2287792D01*
X17593563Y2468925D01*
X17634603Y2600629D01*
X17693667Y2922930D01*
X17713451Y3250000D01*
X17693667Y3577070D01*
X17634603Y3899371D01*
X17537121Y4212203D01*
X17455766Y4392968D01*
X17402643Y4511003D01*
X17284864Y4705831D01*
X17233126Y4791416D01*
X17031047Y5049351D01*
X16799351Y5281047D01*
X16541416Y5483126D01*
X16309606Y5623261D01*
X16261003Y5652643D01*
X15962207Y5787119D01*
X15962203Y5787121D01*
X15649371Y5884603D01*
X15327070Y5943667D01*
X15081767Y5958505D01*
X15000001Y5963451D01*
X14999999Y5963451D01*
X14899419Y5957367D01*
X14672930Y5943667D01*
X14350629Y5884603D01*
X14037797Y5787121D01*
X14037793Y5787119D01*
X14037792Y5787119D01*
X13738996Y5652643D01*
X13458587Y5483128D01*
X13458584Y5483126D01*
X13200649Y5281047D01*
X13200647Y5281045D01*
X13200641Y5281040D01*
X12968959Y5049358D01*
X12968954Y5049352D01*
X12968953Y5049351D01*
X12833553Y4876525D01*
X12766871Y4791412D01*
X12597356Y4511003D01*
X12462880Y4212207D01*
X12365396Y3899370D01*
X12306333Y3577070D01*
X12306332Y3577067D01*
X12286549Y3250001D01*
X12286549Y3249998D01*
X12306332Y2922932D01*
X12306333Y2922929D01*
X12365396Y2600629D01*
X12462880Y2287792D01*
X12597356Y1988996D01*
X12766871Y1708587D01*
X12968954Y1450647D01*
X12968959Y1450641D01*
X13200641Y1218959D01*
X13200647Y1218954D01*
X13458587Y1016871D01*
X13738997Y847356D01*
X13753346Y840899D01*
X13807256Y794702D01*
X13827632Y726692D01*
X13808005Y658463D01*
X13754605Y611676D01*
X13701634Y600000D01*
X4392969Y600000D01*
X4344751Y609591D01*
X4330734Y615397D01*
X4127583Y699544D01*
X4119458Y703255D01*
X3685452Y920503D01*
X3677591Y924795D01*
X3260186Y1172453D01*
X3252652Y1177295D01*
X2853973Y1454102D01*
X2846818Y1459458D01*
X2468907Y1763999D01*
X2462143Y1769859D01*
X2106915Y2100588D01*
X2100588Y2106915D01*
X1769859Y2462143D01*
X1763999Y2468907D01*
X1459458Y2846818D01*
X1454102Y2853973D01*
X1177295Y3252652D01*
X1172453Y3260186D01*
X924795Y3677591D01*
X920503Y3685452D01*
X703260Y4119447D01*
X699540Y4127593D01*
X609590Y4344752D01*
X600000Y4392968D01*
X600000Y70607028D01*
X609591Y70655246D01*
X647269Y70746210D01*
X699541Y70872406D01*
X703261Y70880552D01*
X920497Y71314535D01*
X924805Y71322424D01*
X984438Y71422930D01*
X1172446Y71739800D01*
X1177307Y71747363D01*
X1179139Y71750001D01*
X1454094Y72146012D01*
X1459470Y72153194D01*
X1763988Y72531078D01*
X1769875Y72537872D01*
X1785961Y72555149D01*
X2100575Y72893068D01*
X2106933Y72899426D01*
X2462127Y73230124D01*
X2468925Y73236014D01*
X2739516Y73454070D01*
X2846801Y73540526D01*
X2853996Y73545912D01*
X2853998Y73545913D01*
X3132913Y73739567D01*
X3252636Y73822692D01*
X3260203Y73827555D01*
X3677575Y74075194D01*
X3685469Y74079504D01*
X4019428Y74246672D01*
X4075828Y74260000D01*
X13464604Y74260000D01*
X13532725Y74239998D01*
G37*
%TD.AperFunction*%
%TA.AperFunction,Conductor*%
G36*
X34064336Y13321498D02*
G01*
X34110829Y13267842D01*
X34120933Y13197568D01*
X34091439Y13132988D01*
X34073609Y13116070D01*
X34027306Y13080031D01*
X33966762Y13032908D01*
X33814279Y12867270D01*
X33814275Y12867265D01*
X33691141Y12678793D01*
X33600703Y12472613D01*
X33600702Y12472612D01*
X33545437Y12254375D01*
X33545436Y12254370D01*
X33545436Y12254368D01*
X33538257Y12167734D01*
X33526844Y12030000D01*
X33545437Y11805624D01*
X33600702Y11587387D01*
X33600703Y11587386D01*
X33691141Y11381206D01*
X33814275Y11192734D01*
X33814279Y11192729D01*
X33966762Y11027091D01*
X34144424Y10888811D01*
X34144431Y10888807D01*
X34177680Y10870814D01*
X34228071Y10820800D01*
X34243423Y10751484D01*
X34218862Y10684871D01*
X34177680Y10649186D01*
X34144424Y10631189D01*
X34021331Y10535381D01*
X33966762Y10492908D01*
X33814279Y10327270D01*
X33814275Y10327265D01*
X33691141Y10138793D01*
X33600703Y9932613D01*
X33600702Y9932612D01*
X33545437Y9714375D01*
X33545436Y9714370D01*
X33545436Y9714368D01*
X33526844Y9490000D01*
X33541245Y9316204D01*
X33545437Y9265624D01*
X33600702Y9047387D01*
X33600703Y9047386D01*
X33691141Y8841206D01*
X33814275Y8652734D01*
X33814279Y8652729D01*
X33966762Y8487091D01*
X34144424Y8348811D01*
X34144430Y8348807D01*
X34178207Y8330528D01*
X34228597Y8280515D01*
X34243949Y8211198D01*
X34219388Y8144585D01*
X34178207Y8108902D01*
X34144704Y8090771D01*
X34144698Y8090767D01*
X33967097Y7952534D01*
X33814674Y7786958D01*
X33691580Y7598548D01*
X33601179Y7392456D01*
X33601176Y7392449D01*
X33553455Y7204000D01*
X34459297Y7204000D01*
X34424075Y7142993D01*
X34390000Y7015826D01*
X34390000Y6884174D01*
X34424075Y6757007D01*
X34459297Y6696000D01*
X33553456Y6696000D01*
X33553455Y6695999D01*
X33601176Y6507550D01*
X33601179Y6507543D01*
X33691580Y6301451D01*
X33814674Y6113041D01*
X33957981Y5957367D01*
X33989401Y5893701D01*
X33981414Y5823156D01*
X33936554Y5768127D01*
X33909312Y5753975D01*
X33793796Y5710889D01*
X33793792Y5710887D01*
X33676738Y5623261D01*
X33589112Y5506207D01*
X33589110Y5506202D01*
X33538011Y5369204D01*
X33538009Y5369196D01*
X33531500Y5308649D01*
X33531500Y3639500D01*
X33511498Y3571379D01*
X33457842Y3524886D01*
X33405500Y3513500D01*
X26214500Y3513500D01*
X26146379Y3533502D01*
X26099886Y3587158D01*
X26088500Y3639500D01*
X26088500Y5308632D01*
X26088499Y5308649D01*
X26081990Y5369196D01*
X26081988Y5369204D01*
X26063887Y5417734D01*
X26030889Y5506204D01*
X25943261Y5623261D01*
X25826204Y5710889D01*
X25710684Y5753976D01*
X25653852Y5796521D01*
X25629041Y5863042D01*
X25644133Y5932416D01*
X25662018Y5957367D01*
X25805325Y6113041D01*
X25928419Y6301451D01*
X26018820Y6507543D01*
X26018823Y6507550D01*
X26066544Y6695999D01*
X26066544Y6696000D01*
X25160703Y6696000D01*
X25195925Y6757007D01*
X25230000Y6884174D01*
X25230000Y7015826D01*
X25195925Y7142993D01*
X25160703Y7204000D01*
X26066544Y7204000D01*
X26018823Y7392449D01*
X26018820Y7392456D01*
X25928419Y7598548D01*
X25805325Y7786958D01*
X25652902Y7952534D01*
X25475301Y8090767D01*
X25441793Y8108901D01*
X25391403Y8158914D01*
X25376050Y8228230D01*
X25400610Y8294844D01*
X25441792Y8330528D01*
X25475576Y8348811D01*
X25582831Y8432292D01*
X25653237Y8487091D01*
X25805720Y8652729D01*
X25805724Y8652734D01*
X25928858Y8841206D01*
X25928860Y8841209D01*
X26019296Y9047384D01*
X26021800Y9057270D01*
X26074562Y9265624D01*
X26074564Y9265632D01*
X26093156Y9490000D01*
X26074564Y9714368D01*
X26019296Y9932616D01*
X25928860Y10138791D01*
X25805722Y10327268D01*
X25653240Y10492906D01*
X25475576Y10631189D01*
X25442319Y10649186D01*
X25391929Y10699198D01*
X25376576Y10768515D01*
X25401136Y10835128D01*
X25442320Y10870814D01*
X25475569Y10888807D01*
X25475570Y10888808D01*
X25475576Y10888811D01*
X25571382Y10963381D01*
X25653237Y11027091D01*
X25805720Y11192729D01*
X25805724Y11192734D01*
X25928858Y11381206D01*
X25928860Y11381209D01*
X26019296Y11587384D01*
X26035323Y11650671D01*
X26074562Y11805624D01*
X26074564Y11805632D01*
X26093156Y12030000D01*
X26074564Y12254368D01*
X26019296Y12472616D01*
X25928860Y12678791D01*
X25805722Y12867268D01*
X25653240Y13032906D01*
X25546393Y13116069D01*
X25504923Y13173693D01*
X25501189Y13244592D01*
X25536379Y13306254D01*
X25599320Y13339102D01*
X25623785Y13341500D01*
X33996215Y13341500D01*
X34064336Y13321498D01*
G37*
%TD.AperFunction*%
%TA.AperFunction,Conductor*%
G36*
X39144336Y13321498D02*
G01*
X39190829Y13267842D01*
X39200933Y13197568D01*
X39171439Y13132988D01*
X39153609Y13116070D01*
X39107306Y13080031D01*
X39046762Y13032908D01*
X38894279Y12867270D01*
X38894275Y12867265D01*
X38771141Y12678793D01*
X38680703Y12472613D01*
X38680702Y12472612D01*
X38625437Y12254375D01*
X38625436Y12254370D01*
X38625436Y12254368D01*
X38618257Y12167734D01*
X38606844Y12030000D01*
X38625437Y11805624D01*
X38680702Y11587387D01*
X38680703Y11587386D01*
X38771141Y11381206D01*
X38894275Y11192734D01*
X38894279Y11192729D01*
X39046762Y11027091D01*
X39224424Y10888811D01*
X39224431Y10888807D01*
X39257680Y10870814D01*
X39308071Y10820800D01*
X39323423Y10751484D01*
X39298862Y10684871D01*
X39257680Y10649186D01*
X39224424Y10631189D01*
X39101331Y10535381D01*
X39046762Y10492908D01*
X38894279Y10327270D01*
X38894275Y10327265D01*
X38771141Y10138793D01*
X38680703Y9932613D01*
X38680702Y9932612D01*
X38625437Y9714375D01*
X38625436Y9714370D01*
X38625436Y9714368D01*
X38606844Y9490000D01*
X38621245Y9316204D01*
X38625437Y9265624D01*
X38680702Y9047387D01*
X38680703Y9047386D01*
X38771141Y8841206D01*
X38894275Y8652734D01*
X38894279Y8652729D01*
X39046762Y8487091D01*
X39224424Y8348811D01*
X39224430Y8348807D01*
X39258207Y8330528D01*
X39308597Y8280515D01*
X39323949Y8211198D01*
X39299388Y8144585D01*
X39258207Y8108902D01*
X39224704Y8090771D01*
X39224698Y8090767D01*
X39047097Y7952534D01*
X38894674Y7786958D01*
X38771580Y7598548D01*
X38681179Y7392456D01*
X38681176Y7392449D01*
X38633455Y7204000D01*
X39539297Y7204000D01*
X39504075Y7142993D01*
X39470000Y7015826D01*
X39470000Y6884174D01*
X39504075Y6757007D01*
X39539297Y6696000D01*
X38633456Y6696000D01*
X38633455Y6695999D01*
X38681176Y6507550D01*
X38681179Y6507543D01*
X38771580Y6301451D01*
X38894674Y6113041D01*
X39037981Y5957367D01*
X39069401Y5893701D01*
X39061414Y5823156D01*
X39016554Y5768127D01*
X38989312Y5753975D01*
X38873796Y5710889D01*
X38873792Y5710887D01*
X38756738Y5623261D01*
X38669112Y5506207D01*
X38669110Y5506202D01*
X38618011Y5369204D01*
X38618009Y5369196D01*
X38611500Y5308649D01*
X38611500Y3639500D01*
X38591498Y3571379D01*
X38537842Y3524886D01*
X38485500Y3513500D01*
X36374500Y3513500D01*
X36306379Y3533502D01*
X36259886Y3587158D01*
X36248500Y3639500D01*
X36248500Y5308632D01*
X36248499Y5308649D01*
X36241990Y5369196D01*
X36241988Y5369204D01*
X36223887Y5417734D01*
X36190889Y5506204D01*
X36103261Y5623261D01*
X35986204Y5710889D01*
X35870684Y5753976D01*
X35813852Y5796521D01*
X35789041Y5863042D01*
X35804133Y5932416D01*
X35822018Y5957367D01*
X35965325Y6113041D01*
X36088419Y6301451D01*
X36178820Y6507543D01*
X36178823Y6507550D01*
X36226544Y6695999D01*
X36226544Y6696000D01*
X35320703Y6696000D01*
X35355925Y6757007D01*
X35390000Y6884174D01*
X35390000Y7015826D01*
X35355925Y7142993D01*
X35320703Y7204000D01*
X36226544Y7204000D01*
X36178823Y7392449D01*
X36178820Y7392456D01*
X36088419Y7598548D01*
X35965325Y7786958D01*
X35812902Y7952534D01*
X35635301Y8090767D01*
X35601793Y8108901D01*
X35551403Y8158914D01*
X35536050Y8228230D01*
X35560610Y8294844D01*
X35601792Y8330528D01*
X35635576Y8348811D01*
X35742831Y8432292D01*
X35813237Y8487091D01*
X35965720Y8652729D01*
X35965724Y8652734D01*
X36088858Y8841206D01*
X36088860Y8841209D01*
X36179296Y9047384D01*
X36181800Y9057270D01*
X36234562Y9265624D01*
X36234564Y9265632D01*
X36253156Y9490000D01*
X36234564Y9714368D01*
X36179296Y9932616D01*
X36088860Y10138791D01*
X35965722Y10327268D01*
X35813240Y10492906D01*
X35635576Y10631189D01*
X35602319Y10649186D01*
X35551929Y10699198D01*
X35536576Y10768515D01*
X35561136Y10835128D01*
X35602320Y10870814D01*
X35635569Y10888807D01*
X35635570Y10888808D01*
X35635576Y10888811D01*
X35731382Y10963381D01*
X35813237Y11027091D01*
X35965720Y11192729D01*
X35965724Y11192734D01*
X36088858Y11381206D01*
X36088860Y11381209D01*
X36179296Y11587384D01*
X36195323Y11650671D01*
X36234562Y11805624D01*
X36234564Y11805632D01*
X36253156Y12030000D01*
X36234564Y12254368D01*
X36179296Y12472616D01*
X36088860Y12678791D01*
X35965722Y12867268D01*
X35813240Y13032906D01*
X35706393Y13116069D01*
X35664923Y13173693D01*
X35661189Y13244592D01*
X35696379Y13306254D01*
X35759320Y13339102D01*
X35783785Y13341500D01*
X39076215Y13341500D01*
X39144336Y13321498D01*
G37*
%TD.AperFunction*%
%TA.AperFunction,Conductor*%
G36*
X49304336Y13321498D02*
G01*
X49350829Y13267842D01*
X49360933Y13197568D01*
X49331439Y13132988D01*
X49313609Y13116070D01*
X49267306Y13080031D01*
X49206762Y13032908D01*
X49054279Y12867270D01*
X49054275Y12867265D01*
X48931141Y12678793D01*
X48840703Y12472613D01*
X48840702Y12472612D01*
X48785437Y12254375D01*
X48785436Y12254370D01*
X48785436Y12254368D01*
X48778257Y12167734D01*
X48766844Y12030000D01*
X48785437Y11805624D01*
X48840702Y11587387D01*
X48840703Y11587386D01*
X48931141Y11381206D01*
X49054275Y11192734D01*
X49054279Y11192729D01*
X49206762Y11027091D01*
X49384424Y10888811D01*
X49384431Y10888807D01*
X49417680Y10870814D01*
X49468071Y10820800D01*
X49483423Y10751484D01*
X49458862Y10684871D01*
X49417680Y10649186D01*
X49384424Y10631189D01*
X49261331Y10535381D01*
X49206762Y10492908D01*
X49054279Y10327270D01*
X49054275Y10327265D01*
X48931141Y10138793D01*
X48840703Y9932613D01*
X48840702Y9932612D01*
X48785437Y9714375D01*
X48785436Y9714370D01*
X48785436Y9714368D01*
X48766844Y9490000D01*
X48781245Y9316204D01*
X48785437Y9265624D01*
X48840702Y9047387D01*
X48840703Y9047386D01*
X48931141Y8841206D01*
X49054275Y8652734D01*
X49054279Y8652729D01*
X49206762Y8487091D01*
X49384424Y8348811D01*
X49384430Y8348807D01*
X49418207Y8330528D01*
X49468597Y8280515D01*
X49483949Y8211198D01*
X49459388Y8144585D01*
X49418207Y8108902D01*
X49384704Y8090771D01*
X49384698Y8090767D01*
X49207097Y7952534D01*
X49054674Y7786958D01*
X48931580Y7598548D01*
X48841179Y7392456D01*
X48841176Y7392449D01*
X48793455Y7204000D01*
X49699297Y7204000D01*
X49664075Y7142993D01*
X49630000Y7015826D01*
X49630000Y6884174D01*
X49664075Y6757007D01*
X49699297Y6696000D01*
X48793456Y6696000D01*
X48793455Y6695999D01*
X48841176Y6507550D01*
X48841179Y6507543D01*
X48931580Y6301451D01*
X49054674Y6113041D01*
X49197981Y5957367D01*
X49229401Y5893701D01*
X49221414Y5823156D01*
X49176554Y5768127D01*
X49149312Y5753975D01*
X49033796Y5710889D01*
X49033792Y5710887D01*
X48916738Y5623261D01*
X48829112Y5506207D01*
X48829110Y5506202D01*
X48778011Y5369204D01*
X48778009Y5369196D01*
X48771500Y5308649D01*
X48771500Y3639500D01*
X48751498Y3571379D01*
X48697842Y3524886D01*
X48645500Y3513500D01*
X41454500Y3513500D01*
X41386379Y3533502D01*
X41339886Y3587158D01*
X41328500Y3639500D01*
X41328500Y5308632D01*
X41328499Y5308649D01*
X41321990Y5369196D01*
X41321988Y5369204D01*
X41303887Y5417734D01*
X41270889Y5506204D01*
X41183261Y5623261D01*
X41066204Y5710889D01*
X40950684Y5753976D01*
X40893852Y5796521D01*
X40869041Y5863042D01*
X40884133Y5932416D01*
X40902018Y5957367D01*
X41045325Y6113041D01*
X41168419Y6301451D01*
X41258820Y6507543D01*
X41258823Y6507550D01*
X41306544Y6695999D01*
X41306544Y6696000D01*
X40400703Y6696000D01*
X40435925Y6757007D01*
X40470000Y6884174D01*
X40470000Y7015826D01*
X40435925Y7142993D01*
X40400703Y7204000D01*
X41306544Y7204000D01*
X41258823Y7392449D01*
X41258820Y7392456D01*
X41168419Y7598548D01*
X41045325Y7786958D01*
X40892902Y7952534D01*
X40715301Y8090767D01*
X40681793Y8108901D01*
X40631403Y8158914D01*
X40616050Y8228230D01*
X40640610Y8294844D01*
X40681792Y8330528D01*
X40715576Y8348811D01*
X40822831Y8432292D01*
X40893237Y8487091D01*
X41045720Y8652729D01*
X41045724Y8652734D01*
X41168858Y8841206D01*
X41168860Y8841209D01*
X41259296Y9047384D01*
X41261800Y9057270D01*
X41314562Y9265624D01*
X41314564Y9265632D01*
X41333156Y9490000D01*
X41314564Y9714368D01*
X41259296Y9932616D01*
X41168860Y10138791D01*
X41045722Y10327268D01*
X40893240Y10492906D01*
X40715576Y10631189D01*
X40682319Y10649186D01*
X40631929Y10699198D01*
X40616576Y10768515D01*
X40641136Y10835128D01*
X40682320Y10870814D01*
X40715569Y10888807D01*
X40715570Y10888808D01*
X40715576Y10888811D01*
X40811382Y10963381D01*
X40893237Y11027091D01*
X41045720Y11192729D01*
X41045724Y11192734D01*
X41168858Y11381206D01*
X41168860Y11381209D01*
X41259296Y11587384D01*
X41275323Y11650671D01*
X41314562Y11805624D01*
X41314564Y11805632D01*
X41333156Y12030000D01*
X41314564Y12254368D01*
X41259296Y12472616D01*
X41168860Y12678791D01*
X41045722Y12867268D01*
X40893240Y13032906D01*
X40786393Y13116069D01*
X40744923Y13173693D01*
X40741189Y13244592D01*
X40776379Y13306254D01*
X40839320Y13339102D01*
X40863785Y13341500D01*
X49236215Y13341500D01*
X49304336Y13321498D01*
G37*
%TD.AperFunction*%
%TA.AperFunction,Conductor*%
G36*
X62213796Y13321498D02*
G01*
X62253107Y13281335D01*
X62265818Y13260591D01*
X62265826Y13260580D01*
X62420030Y13080030D01*
X62600580Y12925826D01*
X62600582Y12925825D01*
X62803038Y12801759D01*
X63022407Y12710894D01*
X63253289Y12655465D01*
X63490000Y12636835D01*
X63726711Y12655465D01*
X63823871Y12678791D01*
X63957592Y12710894D01*
X64112276Y12774966D01*
X64176963Y12801760D01*
X64176965Y12801761D01*
X64227166Y12832524D01*
X64295699Y12851062D01*
X64363376Y12829605D01*
X64408709Y12774966D01*
X64419000Y12725091D01*
X64419000Y12077894D01*
X64398998Y12009773D01*
X64382095Y11988799D01*
X61974866Y9581570D01*
X61912554Y9547544D01*
X61865036Y9546383D01*
X61672569Y9578500D01*
X61447431Y9578500D01*
X61225365Y9541444D01*
X61156449Y9517785D01*
X61012428Y9468343D01*
X61012427Y9468342D01*
X61012426Y9468342D01*
X60814424Y9361189D01*
X60691654Y9265632D01*
X60636762Y9222908D01*
X60484279Y9057270D01*
X60484275Y9057265D01*
X60473936Y9041439D01*
X60395481Y8921354D01*
X60341480Y8875268D01*
X60271132Y8865692D01*
X60206775Y8895669D01*
X60184519Y8921353D01*
X60095722Y9057268D01*
X59943240Y9222906D01*
X59765576Y9361189D01*
X59567574Y9468342D01*
X59354635Y9541444D01*
X59132569Y9578500D01*
X58907431Y9578500D01*
X58685365Y9541444D01*
X58616449Y9517785D01*
X58472428Y9468343D01*
X58472427Y9468342D01*
X58472426Y9468342D01*
X58274424Y9361189D01*
X58151654Y9265632D01*
X58096762Y9222908D01*
X58096760Y9222906D01*
X58035753Y9156636D01*
X57974902Y9120066D01*
X57903937Y9122201D01*
X57845392Y9162363D01*
X57825000Y9197937D01*
X57780889Y9316204D01*
X57693261Y9433261D01*
X57646400Y9468341D01*
X57576207Y9520887D01*
X57576206Y9520887D01*
X57576204Y9520889D01*
X57439201Y9571989D01*
X57439199Y9571989D01*
X57439196Y9571990D01*
X57378649Y9578499D01*
X57378645Y9578499D01*
X57378638Y9578500D01*
X55581362Y9578500D01*
X55581355Y9578499D01*
X55581350Y9578499D01*
X55520803Y9571990D01*
X55520795Y9571988D01*
X55455260Y9547544D01*
X55383796Y9520889D01*
X55383794Y9520888D01*
X55383792Y9520887D01*
X55266738Y9433261D01*
X55179112Y9316207D01*
X55179110Y9316202D01*
X55128011Y9179204D01*
X55128009Y9179196D01*
X55121500Y9118649D01*
X55121500Y7321350D01*
X55128009Y7260803D01*
X55128011Y7260795D01*
X55179110Y7123797D01*
X55179112Y7123792D01*
X55266738Y7006738D01*
X55383792Y6919112D01*
X55383797Y6919110D01*
X55520795Y6868011D01*
X55520803Y6868009D01*
X55581350Y6861500D01*
X55581362Y6861500D01*
X56351077Y6861500D01*
X56419198Y6841498D01*
X56465691Y6787842D01*
X56475795Y6717568D01*
X56446301Y6652988D01*
X56440172Y6646405D01*
X53344173Y3550405D01*
X53281861Y3516379D01*
X53255078Y3513500D01*
X51614500Y3513500D01*
X51546379Y3533502D01*
X51499886Y3587158D01*
X51488500Y3639500D01*
X51488500Y5308632D01*
X51488499Y5308649D01*
X51481990Y5369196D01*
X51481988Y5369204D01*
X51463887Y5417734D01*
X51430889Y5506204D01*
X51343261Y5623261D01*
X51226204Y5710889D01*
X51110684Y5753976D01*
X51053852Y5796521D01*
X51029041Y5863042D01*
X51044133Y5932416D01*
X51062018Y5957367D01*
X51205325Y6113041D01*
X51328419Y6301451D01*
X51418820Y6507543D01*
X51418823Y6507550D01*
X51466544Y6695999D01*
X51466544Y6696000D01*
X50560703Y6696000D01*
X50595925Y6757007D01*
X50630000Y6884174D01*
X50630000Y7015826D01*
X50595925Y7142993D01*
X50560703Y7204000D01*
X51466544Y7204000D01*
X51418823Y7392449D01*
X51418820Y7392456D01*
X51328419Y7598548D01*
X51205325Y7786958D01*
X51052902Y7952534D01*
X50875301Y8090767D01*
X50841793Y8108901D01*
X50791403Y8158914D01*
X50776050Y8228230D01*
X50800610Y8294844D01*
X50841792Y8330528D01*
X50875576Y8348811D01*
X50982831Y8432292D01*
X51053237Y8487091D01*
X51205720Y8652729D01*
X51205724Y8652734D01*
X51328858Y8841206D01*
X51328860Y8841209D01*
X51419296Y9047384D01*
X51421800Y9057270D01*
X51474562Y9265624D01*
X51474564Y9265632D01*
X51493156Y9490000D01*
X51474564Y9714368D01*
X51419296Y9932616D01*
X51328860Y10138791D01*
X51205722Y10327268D01*
X51053240Y10492906D01*
X50875576Y10631189D01*
X50842319Y10649186D01*
X50791929Y10699198D01*
X50776576Y10768515D01*
X50801136Y10835128D01*
X50842320Y10870814D01*
X50875569Y10888807D01*
X50875570Y10888808D01*
X50875576Y10888811D01*
X50971382Y10963381D01*
X51053237Y11027091D01*
X51205720Y11192729D01*
X51205724Y11192734D01*
X51328858Y11381206D01*
X51328860Y11381209D01*
X51419296Y11587384D01*
X51435323Y11650671D01*
X51474562Y11805624D01*
X51474564Y11805632D01*
X51493156Y12030000D01*
X51474564Y12254368D01*
X51419296Y12472616D01*
X51328860Y12678791D01*
X51205722Y12867268D01*
X51053240Y13032906D01*
X50946393Y13116069D01*
X50904923Y13173693D01*
X50901189Y13244592D01*
X50936379Y13306254D01*
X50999320Y13339102D01*
X51023785Y13341500D01*
X62145675Y13341500D01*
X62213796Y13321498D01*
G37*
%TD.AperFunction*%
%TA.AperFunction,Conductor*%
G36*
X28053950Y71667673D02*
G01*
X28193044Y71619921D01*
X28193051Y71619919D01*
X28308066Y71600727D01*
X28423288Y71581500D01*
X28423292Y71581500D01*
X28656708Y71581500D01*
X28656712Y71581500D01*
X28788411Y71603476D01*
X28886948Y71619919D01*
X28886955Y71619921D01*
X29026050Y71667673D01*
X29066962Y71674500D01*
X30553038Y71674500D01*
X30593950Y71667673D01*
X30733044Y71619921D01*
X30733051Y71619919D01*
X30848066Y71600727D01*
X30963288Y71581500D01*
X30963292Y71581500D01*
X31196708Y71581500D01*
X31196712Y71581500D01*
X31328411Y71603476D01*
X31426948Y71619919D01*
X31426955Y71619921D01*
X31566050Y71667673D01*
X31606962Y71674500D01*
X33093038Y71674500D01*
X33133950Y71667673D01*
X33273044Y71619921D01*
X33273051Y71619919D01*
X33388066Y71600727D01*
X33503288Y71581500D01*
X33503292Y71581500D01*
X33736708Y71581500D01*
X33736712Y71581500D01*
X33868411Y71603476D01*
X33966948Y71619919D01*
X33966955Y71619921D01*
X34106050Y71667673D01*
X34146962Y71674500D01*
X35633038Y71674500D01*
X35673950Y71667673D01*
X35813044Y71619921D01*
X35813051Y71619919D01*
X35928066Y71600727D01*
X36043288Y71581500D01*
X36043292Y71581500D01*
X36276708Y71581500D01*
X36276712Y71581500D01*
X36408411Y71603476D01*
X36506948Y71619919D01*
X36506955Y71619921D01*
X36646050Y71667673D01*
X36686962Y71674500D01*
X38173038Y71674500D01*
X38213950Y71667673D01*
X38353044Y71619921D01*
X38353051Y71619919D01*
X38468066Y71600727D01*
X38583288Y71581500D01*
X38583292Y71581500D01*
X38809927Y71581500D01*
X38878048Y71561498D01*
X38924541Y71507842D01*
X38934645Y71437568D01*
X38905151Y71372988D01*
X38902629Y71370163D01*
X38854686Y71318083D01*
X38854684Y71318080D01*
X38854683Y71318079D01*
X38727015Y71122668D01*
X38633252Y70908910D01*
X38633249Y70908903D01*
X38575950Y70682633D01*
X38575949Y70682628D01*
X38575949Y70682626D01*
X38556673Y70450000D01*
X38575746Y70219818D01*
X38575950Y70217366D01*
X38633249Y69991096D01*
X38633251Y69991093D01*
X38727015Y69777331D01*
X38854685Y69581916D01*
X39012774Y69410186D01*
X39012785Y69410176D01*
X39181173Y69279114D01*
X39222644Y69221489D01*
X39226377Y69150591D01*
X39191187Y69088929D01*
X39181173Y69080251D01*
X39168680Y69070528D01*
X39845051Y68394157D01*
X39777007Y68375925D01*
X39662993Y68310099D01*
X39569901Y68217007D01*
X39504075Y68102993D01*
X39485841Y68034946D01*
X38810796Y68709991D01*
X38810795Y68709991D01*
X38727461Y68582439D01*
X38727454Y68582425D01*
X38633726Y68368747D01*
X38633724Y68368743D01*
X38576444Y68142549D01*
X38557174Y67910000D01*
X38576444Y67677450D01*
X38633724Y67451256D01*
X38633726Y67451252D01*
X38727454Y67237574D01*
X38727461Y67237560D01*
X38810795Y67110007D01*
X38810796Y67110006D01*
X39485842Y67785052D01*
X39504075Y67717007D01*
X39569901Y67602993D01*
X39662993Y67509901D01*
X39777007Y67444075D01*
X39845052Y67425842D01*
X39168680Y66749470D01*
X39168681Y66749469D01*
X39181173Y66739747D01*
X39222644Y66682122D01*
X39226378Y66611224D01*
X39191188Y66549561D01*
X39181189Y66540897D01*
X39012780Y66409818D01*
X39012779Y66409817D01*
X39012778Y66409816D01*
X39012774Y66409813D01*
X38854685Y66238083D01*
X38727015Y66042668D01*
X38633252Y65828910D01*
X38633249Y65828903D01*
X38575950Y65602633D01*
X38575949Y65602628D01*
X38575949Y65602626D01*
X38556673Y65370000D01*
X38574016Y65160697D01*
X38575950Y65137366D01*
X38633249Y64911096D01*
X38633252Y64911089D01*
X38727015Y64697331D01*
X38854685Y64501916D01*
X39012774Y64330186D01*
X39012785Y64330176D01*
X39180766Y64199431D01*
X39222237Y64141806D01*
X39225970Y64070908D01*
X39190780Y64009246D01*
X39180766Y64000569D01*
X39012785Y63869823D01*
X39012774Y63869813D01*
X38854685Y63698083D01*
X38727015Y63502668D01*
X38633252Y63288910D01*
X38633249Y63288903D01*
X38575950Y63062633D01*
X38575949Y63062628D01*
X38575949Y63062626D01*
X38556673Y62830000D01*
X38563866Y62743189D01*
X38565023Y62729236D01*
X38550714Y62659696D01*
X38501081Y62608931D01*
X38431882Y62593059D01*
X38365086Y62617118D01*
X38362062Y62619400D01*
X38279258Y62683848D01*
X38203017Y62743190D01*
X37997727Y62854287D01*
X37776951Y62930080D01*
X37546712Y62968500D01*
X37313288Y62968500D01*
X37083049Y62930080D01*
X36862273Y62854287D01*
X36656983Y62743190D01*
X36549711Y62659696D01*
X36472778Y62599817D01*
X36472774Y62599813D01*
X36314685Y62428083D01*
X36187015Y62232668D01*
X36093252Y62018910D01*
X36093249Y62018903D01*
X36035950Y61792633D01*
X36035949Y61792628D01*
X36035949Y61792626D01*
X36016673Y61560000D01*
X36035746Y61329818D01*
X36035950Y61327366D01*
X36093249Y61101096D01*
X36093252Y61101089D01*
X36187015Y60887331D01*
X36314685Y60691916D01*
X36472774Y60520186D01*
X36472785Y60520176D01*
X36640766Y60389431D01*
X36682237Y60331806D01*
X36685970Y60260908D01*
X36650780Y60199246D01*
X36640766Y60190569D01*
X36472785Y60059823D01*
X36472774Y60059813D01*
X36314685Y59888083D01*
X36187015Y59692668D01*
X36093252Y59478910D01*
X36093249Y59478903D01*
X36035950Y59252633D01*
X36035949Y59252628D01*
X36035949Y59252626D01*
X36016673Y59020000D01*
X36035746Y58789818D01*
X36035950Y58787366D01*
X36093249Y58561096D01*
X36093252Y58561089D01*
X36187015Y58347331D01*
X36314685Y58151916D01*
X36472774Y57980186D01*
X36472778Y57980182D01*
X36656983Y57836810D01*
X36656985Y57836809D01*
X36862273Y57725713D01*
X36862276Y57725711D01*
X37083044Y57649921D01*
X37083051Y57649919D01*
X37198066Y57630727D01*
X37313288Y57611500D01*
X37313292Y57611500D01*
X37546708Y57611500D01*
X37546712Y57611500D01*
X37678411Y57633476D01*
X37776948Y57649919D01*
X37776955Y57649921D01*
X37997723Y57725711D01*
X37997724Y57725712D01*
X37997727Y57725713D01*
X38203017Y57836810D01*
X38314550Y57923620D01*
X38362062Y57960600D01*
X38428105Y57986656D01*
X38497750Y57972871D01*
X38548887Y57923620D01*
X38565279Y57854542D01*
X38565025Y57850796D01*
X38556673Y57750000D01*
X38568149Y57611500D01*
X38575950Y57517366D01*
X38633249Y57291096D01*
X38633252Y57291089D01*
X38727015Y57077331D01*
X38854685Y56881916D01*
X39012774Y56710186D01*
X39012785Y56710176D01*
X39180766Y56579431D01*
X39222237Y56521806D01*
X39225970Y56450908D01*
X39190780Y56389246D01*
X39180766Y56380569D01*
X39012785Y56249823D01*
X39012774Y56249813D01*
X38854685Y56078083D01*
X38727015Y55882668D01*
X38633252Y55668910D01*
X38633249Y55668903D01*
X38575950Y55442633D01*
X38575949Y55442628D01*
X38575949Y55442626D01*
X38556673Y55210000D01*
X38567230Y55082591D01*
X38575950Y54977366D01*
X38633249Y54751096D01*
X38633252Y54751089D01*
X38727015Y54537331D01*
X38854685Y54341916D01*
X39012774Y54170186D01*
X39012785Y54170176D01*
X39180766Y54039431D01*
X39222237Y53981806D01*
X39225970Y53910908D01*
X39190780Y53849246D01*
X39180766Y53840569D01*
X39012785Y53709823D01*
X39012774Y53709813D01*
X38854685Y53538083D01*
X38727015Y53342668D01*
X38633252Y53128910D01*
X38633249Y53128903D01*
X38575950Y52902633D01*
X38556673Y52670000D01*
X38575950Y52437366D01*
X38633249Y52211096D01*
X38633252Y52211089D01*
X38727015Y51997331D01*
X38854685Y51801916D01*
X39012774Y51630186D01*
X39012785Y51630176D01*
X39180766Y51499431D01*
X39222237Y51441806D01*
X39225970Y51370908D01*
X39190780Y51309246D01*
X39180766Y51300569D01*
X39012785Y51169823D01*
X39012774Y51169813D01*
X38854685Y50998083D01*
X38727015Y50802668D01*
X38633252Y50588910D01*
X38633249Y50588903D01*
X38575950Y50362633D01*
X38575949Y50362628D01*
X38575949Y50362626D01*
X38556673Y50130000D01*
X38571074Y49956202D01*
X38575950Y49897366D01*
X38633249Y49671096D01*
X38633252Y49671089D01*
X38727015Y49457331D01*
X38854685Y49261916D01*
X39012774Y49090186D01*
X39012785Y49090176D01*
X39180766Y48959431D01*
X39222237Y48901806D01*
X39225970Y48830908D01*
X39190780Y48769246D01*
X39180766Y48760569D01*
X39012785Y48629823D01*
X39012774Y48629813D01*
X38854685Y48458083D01*
X38727015Y48262668D01*
X38633252Y48048910D01*
X38633249Y48048903D01*
X38575950Y47822633D01*
X38575949Y47822628D01*
X38575949Y47822626D01*
X38556673Y47590000D01*
X38568535Y47446843D01*
X38575950Y47357366D01*
X38633249Y47131096D01*
X38633252Y47131089D01*
X38727015Y46917331D01*
X38854685Y46721916D01*
X39012774Y46550186D01*
X39012785Y46550176D01*
X39180766Y46419431D01*
X39222237Y46361806D01*
X39225970Y46290908D01*
X39190780Y46229246D01*
X39180766Y46220569D01*
X39012785Y46089823D01*
X39012774Y46089813D01*
X38854685Y45918083D01*
X38727015Y45722668D01*
X38633252Y45508910D01*
X38633249Y45508903D01*
X38575950Y45282633D01*
X38575949Y45282628D01*
X38575949Y45282626D01*
X38556673Y45050000D01*
X38560895Y44999043D01*
X38575950Y44817366D01*
X38633249Y44591096D01*
X38633252Y44591089D01*
X38727015Y44377331D01*
X38854685Y44181916D01*
X39012774Y44010186D01*
X39012785Y44010176D01*
X39180766Y43879431D01*
X39222237Y43821806D01*
X39225970Y43750908D01*
X39190780Y43689246D01*
X39180766Y43680569D01*
X39012785Y43549823D01*
X39012774Y43549813D01*
X38854685Y43378083D01*
X38805483Y43302772D01*
X38751480Y43256683D01*
X38681132Y43247108D01*
X38616775Y43277085D01*
X38594517Y43302772D01*
X38545314Y43378083D01*
X38387225Y43549813D01*
X38387221Y43549817D01*
X38387220Y43549818D01*
X38203017Y43693190D01*
X37997727Y43804287D01*
X37776951Y43880080D01*
X37546712Y43918500D01*
X37313288Y43918500D01*
X37083049Y43880080D01*
X36862273Y43804287D01*
X36656983Y43693190D01*
X36538650Y43601087D01*
X36472778Y43549817D01*
X36472774Y43549813D01*
X36314685Y43378083D01*
X36265483Y43302772D01*
X36211480Y43256683D01*
X36141132Y43247108D01*
X36076775Y43277085D01*
X36054517Y43302772D01*
X36005314Y43378083D01*
X35847225Y43549813D01*
X35847221Y43549817D01*
X35847220Y43549818D01*
X35663017Y43693190D01*
X35457727Y43804287D01*
X35236951Y43880080D01*
X35006712Y43918500D01*
X34773288Y43918500D01*
X34543049Y43880080D01*
X34322273Y43804287D01*
X34116983Y43693190D01*
X33998650Y43601087D01*
X33932778Y43549817D01*
X33932774Y43549813D01*
X33774685Y43378083D01*
X33725483Y43302772D01*
X33671480Y43256683D01*
X33601132Y43247108D01*
X33536775Y43277085D01*
X33514517Y43302772D01*
X33465314Y43378083D01*
X33307225Y43549813D01*
X33307221Y43549817D01*
X33307220Y43549818D01*
X33123017Y43693190D01*
X32917727Y43804287D01*
X32696951Y43880080D01*
X32466712Y43918500D01*
X32233288Y43918500D01*
X32003049Y43880080D01*
X31782273Y43804287D01*
X31576983Y43693190D01*
X31458650Y43601087D01*
X31392778Y43549817D01*
X31392774Y43549813D01*
X31234685Y43378083D01*
X31185483Y43302772D01*
X31131480Y43256683D01*
X31061132Y43247108D01*
X30996775Y43277085D01*
X30974517Y43302772D01*
X30925314Y43378083D01*
X30767225Y43549813D01*
X30767221Y43549817D01*
X30767220Y43549818D01*
X30583017Y43693190D01*
X30377727Y43804287D01*
X30156951Y43880080D01*
X29926712Y43918500D01*
X29693288Y43918500D01*
X29463049Y43880080D01*
X29242273Y43804287D01*
X29036983Y43693190D01*
X28918650Y43601087D01*
X28852778Y43549817D01*
X28852774Y43549813D01*
X28694685Y43378083D01*
X28645483Y43302772D01*
X28591480Y43256683D01*
X28521132Y43247108D01*
X28456775Y43277085D01*
X28434517Y43302772D01*
X28385314Y43378083D01*
X28227225Y43549813D01*
X28227221Y43549817D01*
X28227220Y43549818D01*
X28043017Y43693190D01*
X27837727Y43804287D01*
X27616951Y43880080D01*
X27386712Y43918500D01*
X27153288Y43918500D01*
X26923049Y43880080D01*
X26702273Y43804287D01*
X26496983Y43693190D01*
X26378650Y43601087D01*
X26312778Y43549817D01*
X26312774Y43549813D01*
X26154685Y43378083D01*
X26105483Y43302772D01*
X26051480Y43256683D01*
X25981132Y43247108D01*
X25916775Y43277085D01*
X25894517Y43302772D01*
X25845314Y43378083D01*
X25687225Y43549813D01*
X25687223Y43549813D01*
X25687220Y43549818D01*
X25519229Y43680570D01*
X25477761Y43738193D01*
X25474027Y43809091D01*
X25509217Y43870753D01*
X25519217Y43879419D01*
X25687220Y44010182D01*
X25687221Y44010183D01*
X25687225Y44010186D01*
X25845314Y44181916D01*
X25972984Y44377331D01*
X26066747Y44591089D01*
X26066750Y44591096D01*
X26124049Y44817366D01*
X26124051Y44817374D01*
X26143327Y45050000D01*
X26124051Y45282626D01*
X26066749Y45508907D01*
X25972984Y45722669D01*
X25845314Y45918083D01*
X25687220Y46089818D01*
X25519229Y46220570D01*
X25477761Y46278193D01*
X25474027Y46349091D01*
X25509217Y46410753D01*
X25519217Y46419419D01*
X25687220Y46550182D01*
X25687221Y46550183D01*
X25687225Y46550186D01*
X25845314Y46721916D01*
X25972984Y46917331D01*
X26066747Y47131089D01*
X26066750Y47131096D01*
X26124049Y47357366D01*
X26124051Y47357374D01*
X26143327Y47590000D01*
X26124051Y47822626D01*
X26066749Y48048907D01*
X25972984Y48262669D01*
X25845314Y48458083D01*
X25687220Y48629818D01*
X25519229Y48760570D01*
X25477761Y48818193D01*
X25474027Y48889091D01*
X25509217Y48950753D01*
X25519217Y48959419D01*
X25687220Y49090182D01*
X25687221Y49090183D01*
X25687225Y49090186D01*
X25845314Y49261916D01*
X25972984Y49457331D01*
X26066747Y49671089D01*
X26066750Y49671096D01*
X26124049Y49897366D01*
X26124051Y49897374D01*
X26143327Y50130000D01*
X26124051Y50362626D01*
X26066749Y50588907D01*
X25972984Y50802669D01*
X25845314Y50998083D01*
X25687220Y51169818D01*
X25519229Y51300570D01*
X25477761Y51358193D01*
X25474027Y51429091D01*
X25509217Y51490753D01*
X25519217Y51499419D01*
X25687220Y51630182D01*
X25687221Y51630183D01*
X25687225Y51630186D01*
X25845314Y51801916D01*
X25972984Y51997331D01*
X26066747Y52211089D01*
X26066750Y52211096D01*
X26124049Y52437366D01*
X26124051Y52437374D01*
X26143327Y52670000D01*
X26124051Y52902626D01*
X26066749Y53128907D01*
X25972984Y53342669D01*
X25845314Y53538083D01*
X25687220Y53709818D01*
X25519229Y53840570D01*
X25477761Y53898193D01*
X25474027Y53969091D01*
X25509217Y54030753D01*
X25519217Y54039419D01*
X25687220Y54170182D01*
X25687221Y54170183D01*
X25687225Y54170186D01*
X25845314Y54341916D01*
X25972984Y54537331D01*
X26019108Y54642482D01*
X26066749Y54751093D01*
X26109109Y54918367D01*
X26124049Y54977366D01*
X26124051Y54977374D01*
X26143327Y55210000D01*
X26124051Y55442626D01*
X26066749Y55668907D01*
X25972984Y55882669D01*
X25845314Y56078083D01*
X25687220Y56249818D01*
X25519229Y56380570D01*
X25477761Y56438193D01*
X25474027Y56509091D01*
X25509217Y56570753D01*
X25519217Y56579419D01*
X25687220Y56710182D01*
X25687221Y56710183D01*
X25687225Y56710186D01*
X25845314Y56881916D01*
X25972984Y57077331D01*
X26066747Y57291089D01*
X26066750Y57291096D01*
X26124049Y57517366D01*
X26124051Y57517374D01*
X26143327Y57750000D01*
X26124051Y57982626D01*
X26066749Y58208907D01*
X25972984Y58422669D01*
X25845314Y58618083D01*
X25709529Y58765584D01*
X25687225Y58789813D01*
X25687223Y58789813D01*
X25687220Y58789818D01*
X25519229Y58920570D01*
X25477761Y58978193D01*
X25474027Y59049091D01*
X25509217Y59110753D01*
X25519217Y59119419D01*
X25687220Y59250182D01*
X25687221Y59250183D01*
X25687225Y59250186D01*
X25845314Y59421916D01*
X25972984Y59617331D01*
X26066747Y59831089D01*
X26066750Y59831096D01*
X26124049Y60057366D01*
X26124051Y60057374D01*
X26143327Y60290000D01*
X26124051Y60522626D01*
X26066749Y60748907D01*
X25972984Y60962669D01*
X25845314Y61158083D01*
X25836033Y61168165D01*
X25687225Y61329813D01*
X25687221Y61329817D01*
X25687220Y61329818D01*
X25518826Y61460885D01*
X25477356Y61518509D01*
X25473622Y61589408D01*
X25508812Y61651070D01*
X25518827Y61659748D01*
X25531318Y61669470D01*
X24854947Y62345841D01*
X24922993Y62364075D01*
X25037007Y62429901D01*
X25130099Y62522993D01*
X25195925Y62637007D01*
X25214157Y62705050D01*
X25889202Y62030007D01*
X25972540Y62157566D01*
X25972547Y62157578D01*
X26066273Y62371252D01*
X26066275Y62371256D01*
X26123555Y62597450D01*
X26142825Y62830000D01*
X26123555Y63062549D01*
X26066275Y63288743D01*
X26066273Y63288747D01*
X25972544Y63502427D01*
X25889202Y63629990D01*
X25214158Y62954947D01*
X25195925Y63022993D01*
X25130099Y63137007D01*
X25037007Y63230099D01*
X24922993Y63295925D01*
X24854947Y63314158D01*
X25531317Y63990528D01*
X25518824Y64000253D01*
X25477354Y64057879D01*
X25473622Y64128777D01*
X25508813Y64190439D01*
X25518826Y64199115D01*
X25519234Y64199432D01*
X25562346Y64232988D01*
X25687221Y64330182D01*
X25687225Y64330186D01*
X25845314Y64501916D01*
X25972984Y64697331D01*
X26019755Y64803958D01*
X26066749Y64911093D01*
X26088961Y64998804D01*
X26124049Y65137366D01*
X26124051Y65137374D01*
X26143327Y65370000D01*
X26124051Y65602626D01*
X26066749Y65828907D01*
X25972984Y66042669D01*
X25845314Y66238083D01*
X25687220Y66409818D01*
X25519229Y66540570D01*
X25477761Y66598193D01*
X25474027Y66669091D01*
X25509217Y66730753D01*
X25519217Y66739419D01*
X25687220Y66870182D01*
X25687221Y66870183D01*
X25687225Y66870186D01*
X25845314Y67041916D01*
X25972984Y67237331D01*
X26006690Y67314173D01*
X26066749Y67451093D01*
X26066790Y67451252D01*
X26124049Y67677366D01*
X26124051Y67677374D01*
X26143327Y67910000D01*
X26124051Y68142626D01*
X26066749Y68368907D01*
X25972984Y68582669D01*
X25845314Y68778083D01*
X25808502Y68818071D01*
X25687225Y68949813D01*
X25687223Y68949813D01*
X25687220Y68949818D01*
X25519229Y69080570D01*
X25477761Y69138193D01*
X25474027Y69209091D01*
X25509217Y69270753D01*
X25519217Y69279419D01*
X25687220Y69410182D01*
X25687221Y69410183D01*
X25687225Y69410186D01*
X25845314Y69581916D01*
X25972984Y69777331D01*
X26066749Y69991093D01*
X26066750Y69991096D01*
X26124049Y70217366D01*
X26124051Y70217374D01*
X26143327Y70450000D01*
X26124051Y70682626D01*
X26066749Y70908907D01*
X25972984Y71122669D01*
X25845314Y71318083D01*
X25797371Y71370163D01*
X25765951Y71433828D01*
X25773938Y71504374D01*
X25818797Y71559403D01*
X25886286Y71581443D01*
X25890073Y71581500D01*
X26116708Y71581500D01*
X26116712Y71581500D01*
X26248411Y71603476D01*
X26346948Y71619919D01*
X26346955Y71619921D01*
X26486050Y71667673D01*
X26526962Y71674500D01*
X28013038Y71674500D01*
X28053950Y71667673D01*
G37*
%TD.AperFunction*%
%TD*%
M02*
