%TF.GenerationSoftware,KiCad,Pcbnew,6.0.11-2627ca5db0~126~ubuntu22.04.1*%
%TF.CreationDate,2023-08-15T16:46:03+02:00*%
%TF.ProjectId,HB-UNI-SEN-BATT_FUEL4EP,48422d55-4e49-42d5-9345-4e2d42415454,V1.2*%
%TF.SameCoordinates,Original*%
%TF.FileFunction,Legend,Bot*%
%TF.FilePolarity,Positive*%
%FSLAX46Y46*%
G04 Gerber Fmt 4.6, Leading zero omitted, Abs format (unit mm)*
G04 Created by KiCad (PCBNEW 6.0.11-2627ca5db0~126~ubuntu22.04.1) date 2023-08-15 16:46:03*
%MOMM*%
%LPD*%
G01*
G04 APERTURE LIST*
%ADD10C,0.200000*%
%ADD11C,0.300000*%
%ADD12C,0.150000*%
%ADD13C,0.120000*%
%ADD14R,1.000000X1.500000*%
%ADD15R,1.800000X1.800000*%
%ADD16C,1.800000*%
%ADD17R,1.700000X1.700000*%
%ADD18O,1.700000X1.700000*%
%ADD19R,1.200000X1.200000*%
%ADD20C,1.200000*%
%ADD21C,1.600000*%
%ADD22O,1.600000X1.600000*%
%ADD23R,1.717500X1.800000*%
%ADD24O,1.717500X1.800000*%
%ADD25C,1.350000*%
%ADD26C,3.000000*%
%ADD27C,2.000000*%
%ADD28C,0.700000*%
%ADD29C,4.400000*%
%ADD30C,2.640000*%
%ADD31R,2.000000X2.000000*%
G04 APERTURE END LIST*
D10*
X7562857Y62585714D02*
X8762857Y62185714D01*
X7562857Y61785714D01*
X8705714Y60928571D02*
X8762857Y61042857D01*
X8762857Y61271428D01*
X8705714Y61385714D01*
X8591428Y61442857D01*
X8134285Y61442857D01*
X8020000Y61385714D01*
X7962857Y61271428D01*
X7962857Y61042857D01*
X8020000Y60928571D01*
X8134285Y60871428D01*
X8248571Y60871428D01*
X8362857Y61442857D01*
X8762857Y60357142D02*
X7962857Y60357142D01*
X8191428Y60357142D02*
X8077142Y60300000D01*
X8020000Y60242857D01*
X7962857Y60128571D01*
X7962857Y60014285D01*
X8705714Y59671428D02*
X8762857Y59557142D01*
X8762857Y59328571D01*
X8705714Y59214285D01*
X8591428Y59157142D01*
X8534285Y59157142D01*
X8420000Y59214285D01*
X8362857Y59328571D01*
X8362857Y59500000D01*
X8305714Y59614285D01*
X8191428Y59671428D01*
X8134285Y59671428D01*
X8020000Y59614285D01*
X7962857Y59500000D01*
X7962857Y59328571D01*
X8020000Y59214285D01*
X8762857Y58642857D02*
X7962857Y58642857D01*
X7562857Y58642857D02*
X7620000Y58700000D01*
X7677142Y58642857D01*
X7620000Y58585714D01*
X7562857Y58642857D01*
X7677142Y58642857D01*
X8762857Y57900000D02*
X8705714Y58014285D01*
X8648571Y58071428D01*
X8534285Y58128571D01*
X8191428Y58128571D01*
X8077142Y58071428D01*
X8020000Y58014285D01*
X7962857Y57900000D01*
X7962857Y57728571D01*
X8020000Y57614285D01*
X8077142Y57557142D01*
X8191428Y57500000D01*
X8534285Y57500000D01*
X8648571Y57557142D01*
X8705714Y57614285D01*
X8762857Y57728571D01*
X8762857Y57900000D01*
X7962857Y56985714D02*
X8762857Y56985714D01*
X8077142Y56985714D02*
X8020000Y56928571D01*
X7962857Y56814285D01*
X7962857Y56642857D01*
X8020000Y56528571D01*
X8134285Y56471428D01*
X8762857Y56471428D01*
X8762857Y54357142D02*
X8762857Y55042857D01*
X8762857Y54700000D02*
X7562857Y54700000D01*
X7734285Y54814285D01*
X7848571Y54928571D01*
X7905714Y55042857D01*
X8648571Y53842857D02*
X8705714Y53785714D01*
X8762857Y53842857D01*
X8705714Y53900000D01*
X8648571Y53842857D01*
X8762857Y53842857D01*
X7677142Y53328571D02*
X7619999Y53271428D01*
X7562857Y53157142D01*
X7562857Y52871428D01*
X7619999Y52757142D01*
X7677142Y52700000D01*
X7791428Y52642857D01*
X7905714Y52642857D01*
X8077142Y52700000D01*
X8762857Y53385714D01*
X8762857Y52642857D01*
X8305714Y51214285D02*
X8305714Y50300000D01*
X7562857Y48585714D02*
X7562857Y48471428D01*
X7619999Y48357142D01*
X7677142Y48300000D01*
X7791428Y48242857D01*
X8019999Y48185714D01*
X8305714Y48185714D01*
X8534285Y48242857D01*
X8648571Y48300000D01*
X8705714Y48357142D01*
X8762857Y48471428D01*
X8762857Y48585714D01*
X8705714Y48700000D01*
X8648571Y48757142D01*
X8534285Y48814285D01*
X8305714Y48871428D01*
X8019999Y48871428D01*
X7791428Y48814285D01*
X7677142Y48757142D01*
X7619999Y48700000D01*
X7562857Y48585714D01*
X7562857Y47785714D02*
X7562857Y46985714D01*
X8762857Y47500000D01*
X7505714Y45671428D02*
X9048571Y46700000D01*
X7677142Y45328571D02*
X7619999Y45271428D01*
X7562857Y45157142D01*
X7562857Y44871428D01*
X7619999Y44757142D01*
X7677142Y44700000D01*
X7791428Y44642857D01*
X7905714Y44642857D01*
X8077142Y44700000D01*
X8762857Y45385714D01*
X8762857Y44642857D01*
X7562857Y43900000D02*
X7562857Y43785714D01*
X7619999Y43671428D01*
X7677142Y43614285D01*
X7791428Y43557142D01*
X8019999Y43500000D01*
X8305714Y43500000D01*
X8534285Y43557142D01*
X8648571Y43614285D01*
X8705714Y43671428D01*
X8762857Y43785714D01*
X8762857Y43900000D01*
X8705714Y44014285D01*
X8648571Y44071428D01*
X8534285Y44128571D01*
X8305714Y44185714D01*
X8019999Y44185714D01*
X7791428Y44128571D01*
X7677142Y44071428D01*
X7619999Y44014285D01*
X7562857Y43900000D01*
X7677142Y43042857D02*
X7619999Y42985714D01*
X7562857Y42871428D01*
X7562857Y42585714D01*
X7619999Y42471428D01*
X7677142Y42414285D01*
X7791428Y42357142D01*
X7905714Y42357142D01*
X8077142Y42414285D01*
X8762857Y43100000D01*
X8762857Y42357142D01*
X7562857Y41957142D02*
X7562857Y41214285D01*
X8019999Y41614285D01*
X8019999Y41442857D01*
X8077142Y41328571D01*
X8134285Y41271428D01*
X8248571Y41214285D01*
X8534285Y41214285D01*
X8648571Y41271428D01*
X8705714Y41328571D01*
X8762857Y41442857D01*
X8762857Y41785714D01*
X8705714Y41900000D01*
X8648571Y41957142D01*
X9219999Y39442857D02*
X9162857Y39500000D01*
X8991428Y39614285D01*
X8877142Y39671428D01*
X8705714Y39728571D01*
X8419999Y39785714D01*
X8191428Y39785714D01*
X7905714Y39728571D01*
X7734285Y39671428D01*
X7619999Y39614285D01*
X7448571Y39500000D01*
X7391428Y39442857D01*
X8762857Y38985714D02*
X7562857Y38985714D01*
X8762857Y38300000D02*
X8077142Y38814285D01*
X7562857Y38300000D02*
X8248571Y38985714D01*
X8762857Y37785714D02*
X7962857Y37785714D01*
X7562857Y37785714D02*
X7619999Y37842857D01*
X7677142Y37785714D01*
X7619999Y37728571D01*
X7562857Y37785714D01*
X7677142Y37785714D01*
X8648571Y36528571D02*
X8705714Y36585714D01*
X8762857Y36757142D01*
X8762857Y36871428D01*
X8705714Y37042857D01*
X8591428Y37157142D01*
X8477142Y37214285D01*
X8248571Y37271428D01*
X8077142Y37271428D01*
X7848571Y37214285D01*
X7734285Y37157142D01*
X7619999Y37042857D01*
X7562857Y36871428D01*
X7562857Y36757142D01*
X7619999Y36585714D01*
X7677142Y36528571D01*
X8419999Y36071428D02*
X8419999Y35500000D01*
X8762857Y36185714D02*
X7562857Y35785714D01*
X8762857Y35385714D01*
X8762857Y34985714D02*
X7562857Y34985714D01*
X7562857Y34700000D01*
X7619999Y34528571D01*
X7734285Y34414285D01*
X7848571Y34357142D01*
X8077142Y34300000D01*
X8248571Y34300000D01*
X8477142Y34357142D01*
X8591428Y34414285D01*
X8705714Y34528571D01*
X8762857Y34700000D01*
X8762857Y34985714D01*
X7562857Y32357142D02*
X7562857Y32585714D01*
X7619999Y32700000D01*
X7677142Y32757142D01*
X7848571Y32871428D01*
X8077142Y32928571D01*
X8534285Y32928571D01*
X8648571Y32871428D01*
X8705714Y32814285D01*
X8762857Y32700000D01*
X8762857Y32471428D01*
X8705714Y32357142D01*
X8648571Y32300000D01*
X8534285Y32242857D01*
X8248571Y32242857D01*
X8134285Y32300000D01*
X8077142Y32357142D01*
X8019999Y32471428D01*
X8019999Y32700000D01*
X8077142Y32814285D01*
X8134285Y32871428D01*
X8248571Y32928571D01*
X9219999Y31842857D02*
X9162857Y31785714D01*
X8991428Y31671428D01*
X8877142Y31614285D01*
X8705714Y31557142D01*
X8419999Y31500000D01*
X8191428Y31500000D01*
X7905714Y31557142D01*
X7734285Y31614285D01*
X7619999Y31671428D01*
X7448571Y31785714D01*
X7391428Y31842857D01*
D11*
X3943571Y62277857D02*
X2443571Y62277857D01*
X3157857Y62277857D02*
X3157857Y61420714D01*
X3943571Y61420714D02*
X2443571Y61420714D01*
X3157857Y60206428D02*
X3229285Y59992142D01*
X3300714Y59920714D01*
X3443571Y59849285D01*
X3657857Y59849285D01*
X3800714Y59920714D01*
X3872142Y59992142D01*
X3943571Y60135000D01*
X3943571Y60706428D01*
X2443571Y60706428D01*
X2443571Y60206428D01*
X2515000Y60063571D01*
X2586428Y59992142D01*
X2729285Y59920714D01*
X2872142Y59920714D01*
X3015000Y59992142D01*
X3086428Y60063571D01*
X3157857Y60206428D01*
X3157857Y60706428D01*
X3372142Y59206428D02*
X3372142Y58063571D01*
X2443571Y57349285D02*
X3657857Y57349285D01*
X3800714Y57277857D01*
X3872142Y57206428D01*
X3943571Y57063571D01*
X3943571Y56777857D01*
X3872142Y56635000D01*
X3800714Y56563571D01*
X3657857Y56492142D01*
X2443571Y56492142D01*
X3943571Y55777857D02*
X2443571Y55777857D01*
X3943571Y54920714D01*
X2443571Y54920714D01*
X3943571Y54206428D02*
X2443571Y54206428D01*
X3372142Y53492142D02*
X3372142Y52349285D01*
X3872142Y51706428D02*
X3943571Y51492142D01*
X3943571Y51135000D01*
X3872142Y50992142D01*
X3800714Y50920714D01*
X3657857Y50849285D01*
X3514999Y50849285D01*
X3372142Y50920714D01*
X3300714Y50992142D01*
X3229285Y51135000D01*
X3157857Y51420714D01*
X3086428Y51563571D01*
X3014999Y51635000D01*
X2872142Y51706428D01*
X2729285Y51706428D01*
X2586428Y51635000D01*
X2514999Y51563571D01*
X2443571Y51420714D01*
X2443571Y51063571D01*
X2514999Y50849285D01*
X3157857Y50206428D02*
X3157857Y49706428D01*
X3943571Y49492142D02*
X3943571Y50206428D01*
X2443571Y50206428D01*
X2443571Y49492142D01*
X3943571Y48849285D02*
X2443571Y48849285D01*
X3943571Y47992142D01*
X2443571Y47992142D01*
X3872142Y47349285D02*
X3943571Y47135000D01*
X3943571Y46777857D01*
X3872142Y46635000D01*
X3800714Y46563571D01*
X3657857Y46492142D01*
X3514999Y46492142D01*
X3372142Y46563571D01*
X3300714Y46635000D01*
X3229285Y46777857D01*
X3157857Y47063571D01*
X3086428Y47206428D01*
X3014999Y47277857D01*
X2872142Y47349285D01*
X2729285Y47349285D01*
X2586428Y47277857D01*
X2514999Y47206428D01*
X2443571Y47063571D01*
X2443571Y46706428D01*
X2514999Y46492142D01*
X3372142Y45849285D02*
X3372142Y44706428D01*
X3157857Y43492142D02*
X3229285Y43277857D01*
X3300714Y43206428D01*
X3443571Y43135000D01*
X3657857Y43135000D01*
X3800714Y43206428D01*
X3872142Y43277857D01*
X3943571Y43420714D01*
X3943571Y43992142D01*
X2443571Y43992142D01*
X2443571Y43492142D01*
X2514999Y43349285D01*
X2586428Y43277857D01*
X2729285Y43206428D01*
X2872142Y43206428D01*
X3014999Y43277857D01*
X3086428Y43349285D01*
X3157857Y43492142D01*
X3157857Y43992142D01*
X3514999Y42563571D02*
X3514999Y41849285D01*
X3943571Y42706428D02*
X2443571Y42206428D01*
X3943571Y41706428D01*
X2443571Y41420714D02*
X2443571Y40563571D01*
X3943571Y40992142D02*
X2443571Y40992142D01*
X2443571Y40277857D02*
X2443571Y39420714D01*
X3943571Y39849285D02*
X2443571Y39849285D01*
X4086428Y39277857D02*
X4086428Y38135000D01*
X3157857Y37277857D02*
X3157857Y37777857D01*
X3943571Y37777857D02*
X2443571Y37777857D01*
X2443571Y37063571D01*
X2443571Y36492142D02*
X3657857Y36492142D01*
X3800714Y36420714D01*
X3872142Y36349285D01*
X3943571Y36206428D01*
X3943571Y35920714D01*
X3872142Y35777857D01*
X3800714Y35706428D01*
X3657857Y35635000D01*
X2443571Y35635000D01*
X3157857Y34920714D02*
X3157857Y34420714D01*
X3943571Y34206428D02*
X3943571Y34920714D01*
X2443571Y34920714D01*
X2443571Y34206428D01*
X3943571Y32849285D02*
X3943571Y33563571D01*
X2443571Y33563571D01*
X2943571Y31706428D02*
X3943571Y31706428D01*
X2372142Y32063571D02*
X3443571Y32420714D01*
X3443571Y31492142D01*
X3157857Y30920714D02*
X3157857Y30420714D01*
X3943571Y30206428D02*
X3943571Y30920714D01*
X2443571Y30920714D01*
X2443571Y30206428D01*
X3943571Y29563571D02*
X2443571Y29563571D01*
X2443571Y28992142D01*
X2514999Y28849285D01*
X2586428Y28777857D01*
X2729285Y28706428D01*
X2943571Y28706428D01*
X3086428Y28777857D01*
X3157857Y28849285D01*
X3229285Y28992142D01*
X3229285Y29563571D01*
D10*
X12395000Y62071428D02*
X12337857Y62128571D01*
X12166428Y62242857D01*
X12052142Y62300000D01*
X11880714Y62357142D01*
X11595000Y62414285D01*
X11366428Y62414285D01*
X11080714Y62357142D01*
X10909285Y62300000D01*
X10795000Y62242857D01*
X10623571Y62128571D01*
X10566428Y62071428D01*
X11880714Y61100000D02*
X11937857Y61214285D01*
X11937857Y61442857D01*
X11880714Y61557142D01*
X11823571Y61614285D01*
X11709285Y61671428D01*
X11366428Y61671428D01*
X11252142Y61614285D01*
X11195000Y61557142D01*
X11137857Y61442857D01*
X11137857Y61214285D01*
X11195000Y61100000D01*
X12395000Y60700000D02*
X12337857Y60642857D01*
X12166428Y60528571D01*
X12052142Y60471428D01*
X11880714Y60414285D01*
X11595000Y60357142D01*
X11366428Y60357142D01*
X11080714Y60414285D01*
X10909285Y60471428D01*
X10795000Y60528571D01*
X10623571Y60642857D01*
X10566428Y60700000D01*
X11309285Y58471428D02*
X11309285Y58871428D01*
X11937857Y58871428D02*
X10737857Y58871428D01*
X10737857Y58300000D01*
X10737857Y57842857D02*
X11709285Y57842857D01*
X11823571Y57785714D01*
X11880714Y57728571D01*
X11937857Y57614285D01*
X11937857Y57385714D01*
X11880714Y57271428D01*
X11823571Y57214285D01*
X11709285Y57157142D01*
X10737857Y57157142D01*
X11309285Y56585714D02*
X11309285Y56185714D01*
X11937857Y56014285D02*
X11937857Y56585714D01*
X10737857Y56585714D01*
X10737857Y56014285D01*
X11937857Y54928571D02*
X11937857Y55500000D01*
X10737857Y55500000D01*
X11137857Y54014285D02*
X11937857Y54014285D01*
X10680714Y54300000D02*
X11537857Y54585714D01*
X11537857Y53842857D01*
X11309285Y53385714D02*
X11309285Y52985714D01*
X11937857Y52814285D02*
X11937857Y53385714D01*
X10737857Y53385714D01*
X10737857Y52814285D01*
X11937857Y52300000D02*
X10737857Y52300000D01*
X10737857Y51842857D01*
X10795000Y51728571D01*
X10852142Y51671428D01*
X10966428Y51614285D01*
X11137857Y51614285D01*
X11252142Y51671428D01*
X11309285Y51728571D01*
X11366428Y51842857D01*
X11366428Y52300000D01*
D12*
%TO.C,JP1*%
X9683333Y2522619D02*
X9683333Y1808333D01*
X9730952Y1665476D01*
X9826190Y1570238D01*
X9969047Y1522619D01*
X10064285Y1522619D01*
X9207142Y1522619D02*
X9207142Y2522619D01*
X8826190Y2522619D01*
X8730952Y2475000D01*
X8683333Y2427380D01*
X8635714Y2332142D01*
X8635714Y2189285D01*
X8683333Y2094047D01*
X8730952Y2046428D01*
X8826190Y1998809D01*
X9207142Y1998809D01*
X7683333Y1522619D02*
X8254761Y1522619D01*
X7969047Y1522619D02*
X7969047Y2522619D01*
X8064285Y2379761D01*
X8159523Y2284523D01*
X8254761Y2236904D01*
%TO.C,Module2*%
X26906428Y71135714D02*
X26306428Y71135714D01*
X26306428Y70992857D01*
X26335000Y70907142D01*
X26392142Y70850000D01*
X26449285Y70821428D01*
X26563571Y70792857D01*
X26649285Y70792857D01*
X26763571Y70821428D01*
X26820714Y70850000D01*
X26877857Y70907142D01*
X26906428Y70992857D01*
X26906428Y71135714D01*
X26306428Y70621428D02*
X26306428Y70278571D01*
X26906428Y70450000D02*
X26306428Y70450000D01*
X26906428Y69735714D02*
X26620714Y69935714D01*
X26906428Y70078571D02*
X26306428Y70078571D01*
X26306428Y69850000D01*
X26335000Y69792857D01*
X26363571Y69764285D01*
X26420714Y69735714D01*
X26506428Y69735714D01*
X26563571Y69764285D01*
X26592142Y69792857D01*
X26620714Y69850000D01*
X26620714Y70078571D01*
X37765000Y70907142D02*
X37736428Y70964285D01*
X37736428Y71050000D01*
X37765000Y71135714D01*
X37822142Y71192857D01*
X37879285Y71221428D01*
X37993571Y71250000D01*
X38079285Y71250000D01*
X38193571Y71221428D01*
X38250714Y71192857D01*
X38307857Y71135714D01*
X38336428Y71050000D01*
X38336428Y70992857D01*
X38307857Y70907142D01*
X38279285Y70878571D01*
X38079285Y70878571D01*
X38079285Y70992857D01*
X38336428Y70621428D02*
X37736428Y70621428D01*
X38336428Y70278571D01*
X37736428Y70278571D01*
X38336428Y69992857D02*
X37736428Y69992857D01*
X37736428Y69850000D01*
X37765000Y69764285D01*
X37822142Y69707142D01*
X37879285Y69678571D01*
X37993571Y69650000D01*
X38079285Y69650000D01*
X38193571Y69678571D01*
X38250714Y69707142D01*
X38307857Y69764285D01*
X38336428Y69850000D01*
X38336428Y69992857D01*
X28211428Y71492857D02*
X28211428Y71150000D01*
X28811428Y71321428D02*
X28211428Y71321428D01*
X28211428Y71007142D02*
X28811428Y70607142D01*
X28211428Y70607142D02*
X28811428Y71007142D01*
X28811428Y70378571D02*
X28211428Y70378571D01*
X28211428Y70235714D01*
X28240000Y70150000D01*
X28297142Y70092857D01*
X28354285Y70064285D01*
X28468571Y70035714D01*
X28554285Y70035714D01*
X28668571Y70064285D01*
X28725714Y70092857D01*
X28782857Y70150000D01*
X28811428Y70235714D01*
X28811428Y70378571D01*
X28211428Y69664285D02*
X28211428Y69607142D01*
X28240000Y69550000D01*
X28268571Y69521428D01*
X28325714Y69492857D01*
X28440000Y69464285D01*
X28582857Y69464285D01*
X28697142Y69492857D01*
X28754285Y69521428D01*
X28782857Y69550000D01*
X28811428Y69607142D01*
X28811428Y69664285D01*
X28782857Y69721428D01*
X28754285Y69750000D01*
X28697142Y69778571D01*
X28582857Y69807142D01*
X28440000Y69807142D01*
X28325714Y69778571D01*
X28268571Y69750000D01*
X28240000Y69721428D01*
X28211428Y69664285D01*
X31351428Y71135714D02*
X31065714Y71335714D01*
X31351428Y71478571D02*
X30751428Y71478571D01*
X30751428Y71250000D01*
X30780000Y71192857D01*
X30808571Y71164285D01*
X30865714Y71135714D01*
X30951428Y71135714D01*
X31008571Y71164285D01*
X31037142Y71192857D01*
X31065714Y71250000D01*
X31065714Y71478571D01*
X30751428Y70935714D02*
X31351428Y70535714D01*
X30751428Y70535714D02*
X31351428Y70935714D01*
X31351428Y70307142D02*
X30751428Y70307142D01*
X30751428Y70164285D01*
X30780000Y70078571D01*
X30837142Y70021428D01*
X30894285Y69992857D01*
X31008571Y69964285D01*
X31094285Y69964285D01*
X31208571Y69992857D01*
X31265714Y70021428D01*
X31322857Y70078571D01*
X31351428Y70164285D01*
X31351428Y70307142D01*
X30751428Y69592857D02*
X30751428Y69535714D01*
X30780000Y69478571D01*
X30808571Y69450000D01*
X30865714Y69421428D01*
X30980000Y69392857D01*
X31122857Y69392857D01*
X31237142Y69421428D01*
X31294285Y69450000D01*
X31322857Y69478571D01*
X31351428Y69535714D01*
X31351428Y69592857D01*
X31322857Y69650000D01*
X31294285Y69678571D01*
X31237142Y69707142D01*
X31122857Y69735714D01*
X30980000Y69735714D01*
X30865714Y69707142D01*
X30808571Y69678571D01*
X30780000Y69650000D01*
X30751428Y69592857D01*
X33291428Y71250000D02*
X33891428Y71050000D01*
X33291428Y70850000D01*
X33834285Y70307142D02*
X33862857Y70335714D01*
X33891428Y70421428D01*
X33891428Y70478571D01*
X33862857Y70564285D01*
X33805714Y70621428D01*
X33748571Y70650000D01*
X33634285Y70678571D01*
X33548571Y70678571D01*
X33434285Y70650000D01*
X33377142Y70621428D01*
X33320000Y70564285D01*
X33291428Y70478571D01*
X33291428Y70421428D01*
X33320000Y70335714D01*
X33348571Y70307142D01*
X33834285Y69707142D02*
X33862857Y69735714D01*
X33891428Y69821428D01*
X33891428Y69878571D01*
X33862857Y69964285D01*
X33805714Y70021428D01*
X33748571Y70050000D01*
X33634285Y70078571D01*
X33548571Y70078571D01*
X33434285Y70050000D01*
X33377142Y70021428D01*
X33320000Y69964285D01*
X33291428Y69878571D01*
X33291428Y69821428D01*
X33320000Y69735714D01*
X33348571Y69707142D01*
X35860000Y70907142D02*
X35831428Y70964285D01*
X35831428Y71050000D01*
X35860000Y71135714D01*
X35917142Y71192857D01*
X35974285Y71221428D01*
X36088571Y71250000D01*
X36174285Y71250000D01*
X36288571Y71221428D01*
X36345714Y71192857D01*
X36402857Y71135714D01*
X36431428Y71050000D01*
X36431428Y70992857D01*
X36402857Y70907142D01*
X36374285Y70878571D01*
X36174285Y70878571D01*
X36174285Y70992857D01*
X36431428Y70621428D02*
X35831428Y70621428D01*
X36431428Y70278571D01*
X35831428Y70278571D01*
X36431428Y69992857D02*
X35831428Y69992857D01*
X35831428Y69850000D01*
X35860000Y69764285D01*
X35917142Y69707142D01*
X35974285Y69678571D01*
X36088571Y69650000D01*
X36174285Y69650000D01*
X36288571Y69678571D01*
X36345714Y69707142D01*
X36402857Y69764285D01*
X36431428Y69850000D01*
X36431428Y69992857D01*
D13*
%TO.C,JP1*%
X10250000Y4775000D02*
X10250000Y2775000D01*
X7450000Y2775000D02*
X7450000Y4775000D01*
X10250000Y2775000D02*
X7450000Y2775000D01*
X7450000Y4775000D02*
X10250000Y4775000D01*
D12*
%TO.C,Module2*%
X39335000Y72990000D02*
G75*
G03*
X39335000Y72990000I-635000J0D01*
G01*
X34255000Y72990000D02*
G75*
G03*
X34255000Y72990000I-635000J0D01*
G01*
X29175000Y72990000D02*
G75*
G03*
X29175000Y72990000I-635000J0D01*
G01*
X31715000Y72990000D02*
G75*
G03*
X31715000Y72990000I-635000J0D01*
G01*
X26635000Y72990000D02*
G75*
G03*
X26635000Y72990000I-635000J0D01*
G01*
X36795000Y72990000D02*
G75*
G03*
X36795000Y72990000I-635000J0D01*
G01*
%TD*%
D14*
%TO.C,JP1*%
X9500000Y3775000D03*
X8200000Y3775000D03*
%TD*%
%LPC*%
D15*
%TO.C,D1*%
X45050000Y71720000D03*
D16*
X45050000Y69180000D03*
%TD*%
D17*
%TO.C,J1*%
X46320000Y39335000D03*
D18*
X46320000Y36795000D03*
%TD*%
D17*
%TO.C,J2*%
X51400000Y39335000D03*
D18*
X51400000Y36795000D03*
%TD*%
D17*
%TO.C,J7*%
X34890000Y4410000D03*
D18*
X34890000Y6950000D03*
X34890000Y9490000D03*
X34890000Y12030000D03*
%TD*%
D17*
%TO.C,J3*%
X46320000Y48860000D03*
D18*
X46320000Y46320000D03*
%TD*%
D17*
%TO.C,J4*%
X51400000Y48860000D03*
D18*
X51400000Y46320000D03*
%TD*%
D17*
%TO.C,J5*%
X56480000Y8220000D03*
D18*
X59020000Y8220000D03*
X61560000Y8220000D03*
X64100000Y8220000D03*
X66640000Y8220000D03*
X69180000Y8220000D03*
%TD*%
D17*
%TO.C,J6*%
X24730000Y4410000D03*
D18*
X24730000Y6950000D03*
X24730000Y9490000D03*
X24730000Y12030000D03*
%TD*%
D19*
%TO.C,C1*%
X46955000Y24095000D03*
D20*
X46955000Y22595000D03*
%TD*%
D21*
%TO.C,R4*%
X50130000Y30445000D03*
D22*
X50130000Y27905000D03*
%TD*%
D21*
%TO.C,R5*%
X46320000Y30445000D03*
D22*
X46320000Y27905000D03*
%TD*%
D21*
%TO.C,R1*%
X45050000Y66005000D03*
D22*
X45050000Y63465000D03*
%TD*%
D21*
%TO.C,R3*%
X18380000Y8220000D03*
D22*
X15840000Y8220000D03*
%TD*%
D23*
%TO.C,Q1*%
X6950000Y8220000D03*
D24*
X9240000Y8220000D03*
X11530000Y8220000D03*
%TD*%
D17*
%TO.C,J9*%
X50130000Y4410000D03*
D18*
X50130000Y6950000D03*
X50130000Y9490000D03*
X50130000Y12030000D03*
%TD*%
D17*
%TO.C,J10*%
X64989000Y71656500D03*
D18*
X67529000Y71656500D03*
X70069000Y71656500D03*
%TD*%
D14*
%TO.C,JP1*%
X9500000Y3775000D03*
X8200000Y3775000D03*
%TD*%
D16*
%TO.C,Module2*%
X39970000Y70450000D03*
X27270000Y42510000D03*
X24730000Y70450000D03*
X26000000Y72990000D03*
X37430000Y66640000D03*
X39970000Y67910000D03*
X29810000Y42510000D03*
X24730000Y67910000D03*
X28540000Y72990000D03*
X37430000Y64100000D03*
X39970000Y65370000D03*
X32350000Y42510000D03*
X24730000Y65370000D03*
X31080000Y72990000D03*
X37430000Y61560000D03*
X39970000Y62830000D03*
X34890000Y42510000D03*
X24730000Y62830000D03*
X33620000Y72990000D03*
X37430000Y59020000D03*
X39970000Y60290000D03*
X37430000Y42510000D03*
X24730000Y60290000D03*
X36160000Y72990000D03*
X39970000Y57750000D03*
X24730000Y57750000D03*
X38700000Y72990000D03*
X39970000Y55210000D03*
X24730000Y55210000D03*
X39970000Y52670000D03*
X24730000Y52670000D03*
X39970000Y50130000D03*
X24730000Y50130000D03*
X39970000Y47590000D03*
X24730000Y47590000D03*
X39970000Y45050000D03*
X24730000Y45050000D03*
X39970000Y42510000D03*
X24730000Y42510000D03*
%TD*%
D25*
%TO.C,Module1*%
X23280000Y28555000D03*
X41280000Y23055000D03*
D26*
X23280000Y31055000D03*
D25*
X41280000Y25055000D03*
X23280000Y33555000D03*
X41280000Y27055000D03*
X41280000Y29055000D03*
X41280000Y31055000D03*
X41280000Y33055000D03*
X41280000Y35055000D03*
X41280000Y37055000D03*
%TD*%
D27*
%TO.C,SW1*%
X52185000Y59655000D03*
X45685000Y59655000D03*
X45685000Y55155000D03*
X52185000Y55155000D03*
%TD*%
D17*
%TO.C,J8*%
X39970000Y4410000D03*
D18*
X39970000Y6950000D03*
X39970000Y9490000D03*
X39970000Y12030000D03*
%TD*%
D28*
%TO.C,H2*%
X58727200Y73022800D03*
X58727200Y70477200D03*
X61800000Y71750000D03*
D29*
X60000000Y71750000D03*
D28*
X61272800Y73022800D03*
X60000000Y73550000D03*
X61272800Y70477200D03*
X58200000Y71750000D03*
X60000000Y69950000D03*
%TD*%
%TO.C,H4*%
X58727200Y4522800D03*
X58200000Y3250000D03*
X61800000Y3250000D03*
X61272800Y4522800D03*
X61272800Y1977200D03*
X58727200Y1977200D03*
D29*
X60000000Y3250000D03*
D28*
X60000000Y5050000D03*
X60000000Y1450000D03*
%TD*%
%TO.C,H3*%
X13727200Y1977200D03*
X16800000Y3250000D03*
X13727200Y4522800D03*
X16272800Y1977200D03*
X13200000Y3250000D03*
D29*
X15000000Y3250000D03*
D28*
X15000000Y5050000D03*
X16272800Y4522800D03*
X15000000Y1450000D03*
%TD*%
%TO.C,H1*%
X16272800Y73022800D03*
X13200000Y71750000D03*
X13727200Y73022800D03*
X16272800Y70477200D03*
X15000000Y69950000D03*
X15000000Y73550000D03*
X13727200Y70477200D03*
X16800000Y71750000D03*
D29*
X15000000Y71750000D03*
%TD*%
D30*
%TO.C,BT2*%
X17415000Y63330000D03*
X5425000Y16850000D03*
D31*
X11420000Y14100000D03*
D27*
X11420000Y66090000D03*
%TD*%
D30*
%TO.C,BT1*%
X69485000Y63390000D03*
X57495000Y16910000D03*
D31*
X63490000Y66140000D03*
D27*
X63490000Y14150000D03*
%TD*%
M02*
