%TF.GenerationSoftware,KiCad,Pcbnew,6.0.11-2627ca5db0~126~ubuntu22.04.1*%
%TF.CreationDate,2023-07-25T17:19:43+02:00*%
%TF.ProjectId,HB-UNI-SEN-BATT_FUEL4EP,48422d55-4e49-42d5-9345-4e2d42415454,V1.2*%
%TF.SameCoordinates,Original*%
%TF.FileFunction,Soldermask,Bot*%
%TF.FilePolarity,Negative*%
%FSLAX46Y46*%
G04 Gerber Fmt 4.6, Leading zero omitted, Abs format (unit mm)*
G04 Created by KiCad (PCBNEW 6.0.11-2627ca5db0~126~ubuntu22.04.1) date 2023-07-25 17:19:43*
%MOMM*%
%LPD*%
G01*
G04 APERTURE LIST*
%ADD10R,1.800000X1.800000*%
%ADD11C,1.800000*%
%ADD12R,1.700000X1.700000*%
%ADD13O,1.700000X1.700000*%
%ADD14R,1.200000X1.200000*%
%ADD15C,1.200000*%
%ADD16C,1.600000*%
%ADD17O,1.600000X1.600000*%
%ADD18R,1.717500X1.800000*%
%ADD19O,1.717500X1.800000*%
%ADD20R,1.000000X1.500000*%
%ADD21C,1.350000*%
%ADD22C,3.000000*%
%ADD23C,2.000000*%
%ADD24C,0.700000*%
%ADD25C,4.400000*%
%ADD26C,2.640000*%
%ADD27R,2.000000X2.000000*%
G04 APERTURE END LIST*
D10*
%TO.C,D1*%
X45050000Y-3280000D03*
D11*
X45050000Y-5820000D03*
%TD*%
D12*
%TO.C,J1*%
X46320000Y-35665000D03*
D13*
X46320000Y-38205000D03*
%TD*%
D12*
%TO.C,J2*%
X51400000Y-35665000D03*
D13*
X51400000Y-38205000D03*
%TD*%
D12*
%TO.C,J7*%
X34890000Y-70590000D03*
D13*
X34890000Y-68050000D03*
X34890000Y-65510000D03*
X34890000Y-62970000D03*
%TD*%
D12*
%TO.C,J3*%
X46320000Y-26140000D03*
D13*
X46320000Y-28680000D03*
%TD*%
D12*
%TO.C,J4*%
X51400000Y-26140000D03*
D13*
X51400000Y-28680000D03*
%TD*%
D12*
%TO.C,J5*%
X56480000Y-66780000D03*
D13*
X59020000Y-66780000D03*
X61560000Y-66780000D03*
X64100000Y-66780000D03*
X66640000Y-66780000D03*
X69180000Y-66780000D03*
%TD*%
D12*
%TO.C,J6*%
X24730000Y-70590000D03*
D13*
X24730000Y-68050000D03*
X24730000Y-65510000D03*
X24730000Y-62970000D03*
%TD*%
D14*
%TO.C,C1*%
X46955000Y-50905000D03*
D15*
X46955000Y-52405000D03*
%TD*%
D16*
%TO.C,R4*%
X50130000Y-44555000D03*
D17*
X50130000Y-47095000D03*
%TD*%
D16*
%TO.C,R5*%
X46320000Y-44555000D03*
D17*
X46320000Y-47095000D03*
%TD*%
D16*
%TO.C,R1*%
X45050000Y-8995000D03*
D17*
X45050000Y-11535000D03*
%TD*%
D16*
%TO.C,R3*%
X18380000Y-66780000D03*
D17*
X15840000Y-66780000D03*
%TD*%
D18*
%TO.C,Q1*%
X6950000Y-66780000D03*
D19*
X9240000Y-66780000D03*
X11530000Y-66780000D03*
%TD*%
D12*
%TO.C,J9*%
X50130000Y-70590000D03*
D13*
X50130000Y-68050000D03*
X50130000Y-65510000D03*
X50130000Y-62970000D03*
%TD*%
D12*
%TO.C,J10*%
X64989000Y-3343500D03*
D13*
X67529000Y-3343500D03*
X70069000Y-3343500D03*
%TD*%
D20*
%TO.C,JP1*%
X9500000Y-71225000D03*
X8200000Y-71225000D03*
%TD*%
D11*
%TO.C,Module2*%
X39970000Y-4550000D03*
X27270000Y-32490000D03*
X24730000Y-4550000D03*
X26000000Y-2010000D03*
X37430000Y-8360000D03*
X39970000Y-7090000D03*
X29810000Y-32490000D03*
X24730000Y-7090000D03*
X28540000Y-2010000D03*
X37430000Y-10900000D03*
X39970000Y-9630000D03*
X32350000Y-32490000D03*
X24730000Y-9630000D03*
X31080000Y-2010000D03*
X37430000Y-13440000D03*
X39970000Y-12170000D03*
X34890000Y-32490000D03*
X24730000Y-12170000D03*
X33620000Y-2010000D03*
X37430000Y-15980000D03*
X39970000Y-14710000D03*
X37430000Y-32490000D03*
X24730000Y-14710000D03*
X36160000Y-2010000D03*
X39970000Y-17250000D03*
X24730000Y-17250000D03*
X38700000Y-2010000D03*
X39970000Y-19790000D03*
X24730000Y-19790000D03*
X39970000Y-22330000D03*
X24730000Y-22330000D03*
X39970000Y-24870000D03*
X24730000Y-24870000D03*
X39970000Y-27410000D03*
X24730000Y-27410000D03*
X39970000Y-29950000D03*
X24730000Y-29950000D03*
X39970000Y-32490000D03*
X24730000Y-32490000D03*
%TD*%
D21*
%TO.C,Module1*%
X23280000Y-46445000D03*
X41280000Y-51945000D03*
D22*
X23280000Y-43945000D03*
D21*
X41280000Y-49945000D03*
X23280000Y-41445000D03*
X41280000Y-47945000D03*
X41280000Y-45945000D03*
X41280000Y-43945000D03*
X41280000Y-41945000D03*
X41280000Y-39945000D03*
X41280000Y-37945000D03*
%TD*%
D23*
%TO.C,SW1*%
X52185000Y-15345000D03*
X45685000Y-15345000D03*
X45685000Y-19845000D03*
X52185000Y-19845000D03*
%TD*%
D12*
%TO.C,J8*%
X39970000Y-70590000D03*
D13*
X39970000Y-68050000D03*
X39970000Y-65510000D03*
X39970000Y-62970000D03*
%TD*%
D24*
%TO.C,H2*%
X58727200Y-1977200D03*
X58727200Y-4522800D03*
X61800000Y-3250000D03*
D25*
X60000000Y-3250000D03*
D24*
X61272800Y-1977200D03*
X60000000Y-1450000D03*
X61272800Y-4522800D03*
X58200000Y-3250000D03*
X60000000Y-5050000D03*
%TD*%
%TO.C,H4*%
X58727200Y-70477200D03*
X58200000Y-71750000D03*
X61800000Y-71750000D03*
X61272800Y-70477200D03*
X61272800Y-73022800D03*
X58727200Y-73022800D03*
D25*
X60000000Y-71750000D03*
D24*
X60000000Y-69950000D03*
X60000000Y-73550000D03*
%TD*%
%TO.C,H3*%
X13727200Y-73022800D03*
X16800000Y-71750000D03*
X13727200Y-70477200D03*
X16272800Y-73022800D03*
X13200000Y-71750000D03*
D25*
X15000000Y-71750000D03*
D24*
X15000000Y-69950000D03*
X16272800Y-70477200D03*
X15000000Y-73550000D03*
%TD*%
%TO.C,H1*%
X16272800Y-1977200D03*
X13200000Y-3250000D03*
X13727200Y-1977200D03*
X16272800Y-4522800D03*
X15000000Y-5050000D03*
X15000000Y-1450000D03*
X13727200Y-4522800D03*
X16800000Y-3250000D03*
D25*
X15000000Y-3250000D03*
%TD*%
D26*
%TO.C,BT2*%
X17415000Y-11670000D03*
X5425000Y-58150000D03*
D27*
X11420000Y-60900000D03*
D23*
X11420000Y-8910000D03*
%TD*%
D26*
%TO.C,BT1*%
X69485000Y-11610000D03*
X57495000Y-58090000D03*
D27*
X63490000Y-8860000D03*
D23*
X63490000Y-60850000D03*
%TD*%
M02*
