%TF.GenerationSoftware,KiCad,Pcbnew,6.0.11-2627ca5db0~126~ubuntu22.04.1*%
%TF.CreationDate,2023-08-15T16:46:03+02:00*%
%TF.ProjectId,HB-UNI-SEN-BATT_FUEL4EP,48422d55-4e49-42d5-9345-4e2d42415454,V1.2*%
%TF.SameCoordinates,Original*%
%TF.FileFunction,Legend,Top*%
%TF.FilePolarity,Positive*%
%FSLAX46Y46*%
G04 Gerber Fmt 4.6, Leading zero omitted, Abs format (unit mm)*
G04 Created by KiCad (PCBNEW 6.0.11-2627ca5db0~126~ubuntu22.04.1) date 2023-08-15 16:46:03*
%MOMM*%
%LPD*%
G01*
G04 APERTURE LIST*
%ADD10C,0.200000*%
%ADD11C,0.150000*%
%ADD12C,0.300000*%
%ADD13C,0.100000*%
%ADD14C,0.120000*%
%ADD15C,0.010000*%
%ADD16R,1.800000X1.800000*%
%ADD17C,1.800000*%
%ADD18R,1.700000X1.700000*%
%ADD19O,1.700000X1.700000*%
%ADD20R,1.200000X1.200000*%
%ADD21C,1.200000*%
%ADD22C,1.600000*%
%ADD23O,1.600000X1.600000*%
%ADD24R,1.717500X1.800000*%
%ADD25O,1.717500X1.800000*%
%ADD26C,1.350000*%
%ADD27R,1.800000X1.350000*%
%ADD28C,3.000000*%
%ADD29R,1.500000X1.000000*%
%ADD30C,2.000000*%
%ADD31C,0.700000*%
%ADD32C,4.400000*%
%ADD33C,2.640000*%
%ADD34R,2.000000X2.000000*%
G04 APERTURE END LIST*
D10*
X37430000Y1870000D02*
X37430000Y19650000D01*
X22190000Y1870000D02*
X37430000Y1870000D01*
X22190000Y19650000D02*
X22190000Y1870000D01*
X37430000Y19650000D02*
X22190000Y19650000D01*
X37430000Y1870000D02*
X52670000Y1870000D01*
X52670000Y1870000D02*
X52670000Y19650000D01*
X37430000Y19650000D02*
X37430000Y1870000D01*
X52670000Y19650000D02*
X37430000Y19650000D01*
D11*
X30672595Y4848095D02*
X30839261Y4048095D01*
X31205928Y4848095D01*
X31839261Y4124285D02*
X31796404Y4086190D01*
X31677357Y4048095D01*
X31601166Y4048095D01*
X31491642Y4086190D01*
X31424976Y4162380D01*
X31396404Y4238571D01*
X31377357Y4390952D01*
X31391642Y4505238D01*
X31448785Y4657619D01*
X31496404Y4733809D01*
X31582119Y4810000D01*
X31701166Y4848095D01*
X31777357Y4848095D01*
X31886880Y4810000D01*
X31920214Y4771904D01*
X32639261Y4124285D02*
X32596404Y4086190D01*
X32477357Y4048095D01*
X32401166Y4048095D01*
X32291642Y4086190D01*
X32224976Y4162380D01*
X32196404Y4238571D01*
X32177357Y4390952D01*
X32191642Y4505238D01*
X32248785Y4657619D01*
X32296404Y4733809D01*
X32382119Y4810000D01*
X32501166Y4848095D01*
X32577357Y4848095D01*
X32686880Y4810000D01*
X32720214Y4771904D01*
X31124976Y7350000D02*
X31053547Y7388095D01*
X30939261Y7388095D01*
X30820214Y7350000D01*
X30734500Y7273809D01*
X30686880Y7197619D01*
X30629738Y7045238D01*
X30615452Y6930952D01*
X30634500Y6778571D01*
X30663071Y6702380D01*
X30729738Y6626190D01*
X30839261Y6588095D01*
X30915452Y6588095D01*
X31034500Y6626190D01*
X31077357Y6664285D01*
X31110690Y6930952D01*
X30958309Y6930952D01*
X31410690Y6588095D02*
X31510690Y7388095D01*
X31867833Y6588095D01*
X31967833Y7388095D01*
X32248785Y6588095D02*
X32348785Y7388095D01*
X32539261Y7388095D01*
X32648785Y7350000D01*
X32715452Y7273809D01*
X32744023Y7197619D01*
X32763071Y7045238D01*
X32748785Y6930952D01*
X32691642Y6778571D01*
X32644023Y6702380D01*
X32558309Y6626190D01*
X32439261Y6588095D01*
X32248785Y6588095D01*
X30691642Y9166190D02*
X30801166Y9128095D01*
X30991642Y9128095D01*
X31072595Y9166190D01*
X31115452Y9204285D01*
X31163071Y9280476D01*
X31172595Y9356666D01*
X31144023Y9432857D01*
X31110690Y9470952D01*
X31039261Y9509047D01*
X30891642Y9547142D01*
X30820214Y9585238D01*
X30786880Y9623333D01*
X30758309Y9699523D01*
X30767833Y9775714D01*
X30815452Y9851904D01*
X30858309Y9890000D01*
X30939261Y9928095D01*
X31129738Y9928095D01*
X31239261Y9890000D01*
X31953547Y9204285D02*
X31910690Y9166190D01*
X31791642Y9128095D01*
X31715452Y9128095D01*
X31605928Y9166190D01*
X31539261Y9242380D01*
X31510690Y9318571D01*
X31491642Y9470952D01*
X31505928Y9585238D01*
X31563071Y9737619D01*
X31610690Y9813809D01*
X31696404Y9890000D01*
X31815452Y9928095D01*
X31891642Y9928095D01*
X32001166Y9890000D01*
X32034500Y9851904D01*
X32667833Y9128095D02*
X32286880Y9128095D01*
X32386880Y9928095D01*
X30672595Y11706190D02*
X30782119Y11668095D01*
X30972595Y11668095D01*
X31053547Y11706190D01*
X31096404Y11744285D01*
X31144023Y11820476D01*
X31153547Y11896666D01*
X31124976Y11972857D01*
X31091642Y12010952D01*
X31020214Y12049047D01*
X30872595Y12087142D01*
X30801166Y12125238D01*
X30767833Y12163333D01*
X30739261Y12239523D01*
X30748785Y12315714D01*
X30796404Y12391904D01*
X30839261Y12430000D01*
X30920214Y12468095D01*
X31110690Y12468095D01*
X31220214Y12430000D01*
X31467833Y11668095D02*
X31567833Y12468095D01*
X31758309Y12468095D01*
X31867833Y12430000D01*
X31934500Y12353809D01*
X31963071Y12277619D01*
X31982119Y12125238D01*
X31967833Y12010952D01*
X31910690Y11858571D01*
X31863071Y11782380D01*
X31777357Y11706190D01*
X31658309Y11668095D01*
X31467833Y11668095D01*
X32258309Y11896666D02*
X32639261Y11896666D01*
X32153547Y11668095D02*
X32520214Y12468095D01*
X32686880Y11668095D01*
X42102595Y11706190D02*
X42212119Y11668095D01*
X42402595Y11668095D01*
X42483547Y11706190D01*
X42526404Y11744285D01*
X42574023Y11820476D01*
X42583547Y11896666D01*
X42554976Y11972857D01*
X42521642Y12010952D01*
X42450214Y12049047D01*
X42302595Y12087142D01*
X42231166Y12125238D01*
X42197833Y12163333D01*
X42169261Y12239523D01*
X42178785Y12315714D01*
X42226404Y12391904D01*
X42269261Y12430000D01*
X42350214Y12468095D01*
X42540690Y12468095D01*
X42650214Y12430000D01*
X42897833Y11668095D02*
X42997833Y12468095D01*
X43188309Y12468095D01*
X43297833Y12430000D01*
X43364500Y12353809D01*
X43393071Y12277619D01*
X43412119Y12125238D01*
X43397833Y12010952D01*
X43340690Y11858571D01*
X43293071Y11782380D01*
X43207357Y11706190D01*
X43088309Y11668095D01*
X42897833Y11668095D01*
X43688309Y11896666D02*
X44069261Y11896666D01*
X43583547Y11668095D02*
X43950214Y12468095D01*
X44116880Y11668095D01*
X42121642Y9166190D02*
X42231166Y9128095D01*
X42421642Y9128095D01*
X42502595Y9166190D01*
X42545452Y9204285D01*
X42593071Y9280476D01*
X42602595Y9356666D01*
X42574023Y9432857D01*
X42540690Y9470952D01*
X42469261Y9509047D01*
X42321642Y9547142D01*
X42250214Y9585238D01*
X42216880Y9623333D01*
X42188309Y9699523D01*
X42197833Y9775714D01*
X42245452Y9851904D01*
X42288309Y9890000D01*
X42369261Y9928095D01*
X42559738Y9928095D01*
X42669261Y9890000D01*
X43383547Y9204285D02*
X43340690Y9166190D01*
X43221642Y9128095D01*
X43145452Y9128095D01*
X43035928Y9166190D01*
X42969261Y9242380D01*
X42940690Y9318571D01*
X42921642Y9470952D01*
X42935928Y9585238D01*
X42993071Y9737619D01*
X43040690Y9813809D01*
X43126404Y9890000D01*
X43245452Y9928095D01*
X43321642Y9928095D01*
X43431166Y9890000D01*
X43464500Y9851904D01*
X44097833Y9128095D02*
X43716880Y9128095D01*
X43816880Y9928095D01*
X42554976Y7350000D02*
X42483547Y7388095D01*
X42369261Y7388095D01*
X42250214Y7350000D01*
X42164500Y7273809D01*
X42116880Y7197619D01*
X42059738Y7045238D01*
X42045452Y6930952D01*
X42064500Y6778571D01*
X42093071Y6702380D01*
X42159738Y6626190D01*
X42269261Y6588095D01*
X42345452Y6588095D01*
X42464500Y6626190D01*
X42507357Y6664285D01*
X42540690Y6930952D01*
X42388309Y6930952D01*
X42840690Y6588095D02*
X42940690Y7388095D01*
X43297833Y6588095D01*
X43397833Y7388095D01*
X43678785Y6588095D02*
X43778785Y7388095D01*
X43969261Y7388095D01*
X44078785Y7350000D01*
X44145452Y7273809D01*
X44174023Y7197619D01*
X44193071Y7045238D01*
X44178785Y6930952D01*
X44121642Y6778571D01*
X44074023Y6702380D01*
X43988309Y6626190D01*
X43869261Y6588095D01*
X43678785Y6588095D01*
X50809976Y34655000D02*
X50738547Y34693095D01*
X50624261Y34693095D01*
X50505214Y34655000D01*
X50419500Y34578809D01*
X50371880Y34502619D01*
X50314738Y34350238D01*
X50300452Y34235952D01*
X50319500Y34083571D01*
X50348071Y34007380D01*
X50414738Y33931190D01*
X50524261Y33893095D01*
X50600452Y33893095D01*
X50719500Y33931190D01*
X50762357Y33969285D01*
X50795690Y34235952D01*
X50643309Y34235952D01*
X51095690Y33893095D02*
X51195690Y34693095D01*
X51552833Y33893095D01*
X51652833Y34693095D01*
X51933785Y33893095D02*
X52033785Y34693095D01*
X52224261Y34693095D01*
X52333785Y34655000D01*
X52400452Y34578809D01*
X52429023Y34502619D01*
X52448071Y34350238D01*
X52433785Y34235952D01*
X52376642Y34083571D01*
X52329023Y34007380D01*
X52243309Y33931190D01*
X52124261Y33893095D01*
X51933785Y33893095D01*
X66847500Y69277666D02*
X66780833Y69244333D01*
X66647500Y69244333D01*
X66580833Y69277666D01*
X66547500Y69311000D01*
X66514166Y69377666D01*
X66514166Y69577666D01*
X66547500Y69644333D01*
X66580833Y69677666D01*
X66647500Y69711000D01*
X66780833Y69711000D01*
X66847500Y69677666D01*
X67147500Y69244333D02*
X67147500Y69944333D01*
X67447500Y69244333D02*
X67447500Y69611000D01*
X67414166Y69677666D01*
X67347500Y69711000D01*
X67247500Y69711000D01*
X67180833Y69677666D01*
X67147500Y69644333D01*
X68080833Y69244333D02*
X68080833Y69611000D01*
X68047500Y69677666D01*
X67980833Y69711000D01*
X67847500Y69711000D01*
X67780833Y69677666D01*
X68080833Y69277666D02*
X68014166Y69244333D01*
X67847500Y69244333D01*
X67780833Y69277666D01*
X67747500Y69344333D01*
X67747500Y69411000D01*
X67780833Y69477666D01*
X67847500Y69511000D01*
X68014166Y69511000D01*
X68080833Y69544333D01*
X68414166Y69244333D02*
X68414166Y69711000D01*
X68414166Y69577666D02*
X68447500Y69644333D01*
X68480833Y69677666D01*
X68547500Y69711000D01*
X68614166Y69711000D01*
X69147500Y69711000D02*
X69147500Y69144333D01*
X69114166Y69077666D01*
X69080833Y69044333D01*
X69014166Y69011000D01*
X68914166Y69011000D01*
X68847500Y69044333D01*
X69147500Y69277666D02*
X69080833Y69244333D01*
X68947500Y69244333D01*
X68880833Y69277666D01*
X68847500Y69311000D01*
X68814166Y69377666D01*
X68814166Y69577666D01*
X68847500Y69644333D01*
X68880833Y69677666D01*
X68947500Y69711000D01*
X69080833Y69711000D01*
X69147500Y69677666D01*
X69747500Y69277666D02*
X69680833Y69244333D01*
X69547500Y69244333D01*
X69480833Y69277666D01*
X69447500Y69344333D01*
X69447500Y69611000D01*
X69480833Y69677666D01*
X69547500Y69711000D01*
X69680833Y69711000D01*
X69747500Y69677666D01*
X69780833Y69611000D01*
X69780833Y69544333D01*
X69447500Y69477666D01*
X70614166Y69711000D02*
X70614166Y69011000D01*
X70614166Y69677666D02*
X70680833Y69711000D01*
X70814166Y69711000D01*
X70880833Y69677666D01*
X70914166Y69644333D01*
X70947500Y69577666D01*
X70947500Y69377666D01*
X70914166Y69311000D01*
X70880833Y69277666D01*
X70814166Y69244333D01*
X70680833Y69244333D01*
X70614166Y69277666D01*
X71247500Y69244333D02*
X71247500Y69711000D01*
X71247500Y69944333D02*
X71214166Y69911000D01*
X71247500Y69877666D01*
X71280833Y69911000D01*
X71247500Y69944333D01*
X71247500Y69877666D01*
X71580833Y69711000D02*
X71580833Y69244333D01*
X71580833Y69644333D02*
X71614166Y69677666D01*
X71680833Y69711000D01*
X71780833Y69711000D01*
X71847500Y69677666D01*
X71880833Y69611000D01*
X71880833Y69244333D01*
X72180833Y69277666D02*
X72247500Y69244333D01*
X72380833Y69244333D01*
X72447500Y69277666D01*
X72480833Y69344333D01*
X72480833Y69377666D01*
X72447500Y69444333D01*
X72380833Y69477666D01*
X72280833Y69477666D01*
X72214166Y69511000D01*
X72180833Y69577666D01*
X72180833Y69611000D01*
X72214166Y69677666D01*
X72280833Y69711000D01*
X72380833Y69711000D01*
X72447500Y69677666D01*
X68939854Y5408335D02*
X69054338Y5832599D01*
X68616605Y5731583D02*
X69253001Y6226558D01*
X69468500Y6011059D01*
X69492071Y5933614D01*
X69488703Y5883106D01*
X69455032Y5809028D01*
X69364118Y5738318D01*
X69276571Y5718115D01*
X69219329Y5721482D01*
X69135150Y5751786D01*
X68919651Y5967286D01*
X69185658Y5216406D02*
X69236165Y5112023D01*
X69370852Y4977336D01*
X69455032Y4947032D01*
X69512274Y4943664D01*
X69599820Y4963867D01*
X69660429Y5011008D01*
X69694101Y5085086D01*
X69697468Y5135593D01*
X69673898Y5213038D01*
X69596453Y5344358D01*
X69572883Y5421803D01*
X69576250Y5472311D01*
X69609922Y5546389D01*
X69670531Y5593529D01*
X69758077Y5613732D01*
X69815319Y5610365D01*
X69899499Y5580060D01*
X70034186Y5445373D01*
X70084693Y5340991D01*
X70054389Y4886422D02*
X70242951Y4697861D01*
X69990412Y4357776D02*
X69721038Y4627150D01*
X70357435Y5122125D01*
X70626809Y4852751D01*
X70788433Y4691126D02*
X71111682Y4367877D01*
X70313661Y4034527D02*
X70950057Y4529502D01*
D12*
X43585714Y16431428D02*
X43585714Y17931428D01*
X44228571Y17788571D02*
X44300000Y17860000D01*
X44442857Y17931428D01*
X44800000Y17931428D01*
X44942857Y17860000D01*
X45014285Y17788571D01*
X45085714Y17645714D01*
X45085714Y17502857D01*
X45014285Y17288571D01*
X44157142Y16431428D01*
X45085714Y16431428D01*
X46585714Y16574285D02*
X46514285Y16502857D01*
X46300000Y16431428D01*
X46157142Y16431428D01*
X45942857Y16502857D01*
X45800000Y16645714D01*
X45728571Y16788571D01*
X45657142Y17074285D01*
X45657142Y17288571D01*
X45728571Y17574285D01*
X45800000Y17717142D01*
X45942857Y17860000D01*
X46157142Y17931428D01*
X46300000Y17931428D01*
X46514285Y17860000D01*
X46585714Y17788571D01*
D11*
X45729976Y34655000D02*
X45658547Y34693095D01*
X45544261Y34693095D01*
X45425214Y34655000D01*
X45339500Y34578809D01*
X45291880Y34502619D01*
X45234738Y34350238D01*
X45220452Y34235952D01*
X45239500Y34083571D01*
X45268071Y34007380D01*
X45334738Y33931190D01*
X45444261Y33893095D01*
X45520452Y33893095D01*
X45639500Y33931190D01*
X45682357Y33969285D01*
X45715690Y34235952D01*
X45563309Y34235952D01*
X46015690Y33893095D02*
X46115690Y34693095D01*
X46472833Y33893095D01*
X46572833Y34693095D01*
X46853785Y33893095D02*
X46953785Y34693095D01*
X47144261Y34693095D01*
X47253785Y34655000D01*
X47320452Y34578809D01*
X47349023Y34502619D01*
X47368071Y34350238D01*
X47353785Y34235952D01*
X47296642Y34083571D01*
X47249023Y34007380D01*
X47163309Y33931190D01*
X47044261Y33893095D01*
X46853785Y33893095D01*
D12*
X29207142Y22924285D02*
X29135714Y22852857D01*
X28921428Y22781428D01*
X28778571Y22781428D01*
X28564285Y22852857D01*
X28421428Y22995714D01*
X28350000Y23138571D01*
X28278571Y23424285D01*
X28278571Y23638571D01*
X28350000Y23924285D01*
X28421428Y24067142D01*
X28564285Y24210000D01*
X28778571Y24281428D01*
X28921428Y24281428D01*
X29135714Y24210000D01*
X29207142Y24138571D01*
X30707142Y22924285D02*
X30635714Y22852857D01*
X30421428Y22781428D01*
X30278571Y22781428D01*
X30064285Y22852857D01*
X29921428Y22995714D01*
X29850000Y23138571D01*
X29778571Y23424285D01*
X29778571Y23638571D01*
X29850000Y23924285D01*
X29921428Y24067142D01*
X30064285Y24210000D01*
X30278571Y24281428D01*
X30421428Y24281428D01*
X30635714Y24210000D01*
X30707142Y24138571D01*
X32135714Y22781428D02*
X31278571Y22781428D01*
X31707142Y22781428D02*
X31707142Y24281428D01*
X31564285Y24067142D01*
X31421428Y23924285D01*
X31278571Y23852857D01*
X33564285Y22781428D02*
X32707142Y22781428D01*
X33135714Y22781428D02*
X33135714Y24281428D01*
X32992857Y24067142D01*
X32850000Y23924285D01*
X32707142Y23852857D01*
X34492857Y24281428D02*
X34635714Y24281428D01*
X34778571Y24210000D01*
X34850000Y24138571D01*
X34921428Y23995714D01*
X34992857Y23710000D01*
X34992857Y23352857D01*
X34921428Y23067142D01*
X34850000Y22924285D01*
X34778571Y22852857D01*
X34635714Y22781428D01*
X34492857Y22781428D01*
X34350000Y22852857D01*
X34278571Y22924285D01*
X34207142Y23067142D01*
X34135714Y23352857D01*
X34135714Y23710000D01*
X34207142Y23995714D01*
X34278571Y24138571D01*
X34350000Y24210000D01*
X34492857Y24281428D01*
X36421428Y22781428D02*
X35564285Y22781428D01*
X35992857Y22781428D02*
X35992857Y24281428D01*
X35850000Y24067142D01*
X35707142Y23924285D01*
X35564285Y23852857D01*
D11*
X45729976Y44180000D02*
X45658547Y44218095D01*
X45544261Y44218095D01*
X45425214Y44180000D01*
X45339500Y44103809D01*
X45291880Y44027619D01*
X45234738Y43875238D01*
X45220452Y43760952D01*
X45239500Y43608571D01*
X45268071Y43532380D01*
X45334738Y43456190D01*
X45444261Y43418095D01*
X45520452Y43418095D01*
X45639500Y43456190D01*
X45682357Y43494285D01*
X45715690Y43760952D01*
X45563309Y43760952D01*
X46015690Y43418095D02*
X46115690Y44218095D01*
X46472833Y43418095D01*
X46572833Y44218095D01*
X46853785Y43418095D02*
X46953785Y44218095D01*
X47144261Y44218095D01*
X47253785Y44180000D01*
X47320452Y44103809D01*
X47349023Y44027619D01*
X47368071Y43875238D01*
X47353785Y43760952D01*
X47296642Y43608571D01*
X47249023Y43532380D01*
X47163309Y43456190D01*
X47044261Y43418095D01*
X46853785Y43418095D01*
X67211547Y73553571D02*
X67973452Y73553571D01*
X67592500Y73172619D02*
X67592500Y73934523D01*
X26862595Y4848095D02*
X27029261Y4048095D01*
X27395928Y4848095D01*
X28029261Y4124285D02*
X27986404Y4086190D01*
X27867357Y4048095D01*
X27791166Y4048095D01*
X27681642Y4086190D01*
X27614976Y4162380D01*
X27586404Y4238571D01*
X27567357Y4390952D01*
X27581642Y4505238D01*
X27638785Y4657619D01*
X27686404Y4733809D01*
X27772119Y4810000D01*
X27891166Y4848095D01*
X27967357Y4848095D01*
X28076880Y4810000D01*
X28110214Y4771904D01*
X28829261Y4124285D02*
X28786404Y4086190D01*
X28667357Y4048095D01*
X28591166Y4048095D01*
X28481642Y4086190D01*
X28414976Y4162380D01*
X28386404Y4238571D01*
X28367357Y4390952D01*
X28381642Y4505238D01*
X28438785Y4657619D01*
X28486404Y4733809D01*
X28572119Y4810000D01*
X28691166Y4848095D01*
X28767357Y4848095D01*
X28876880Y4810000D01*
X28910214Y4771904D01*
X46828047Y72283571D02*
X47589952Y72283571D01*
D12*
X28345714Y16431428D02*
X28345714Y17931428D01*
X28988571Y17788571D02*
X29060000Y17860000D01*
X29202857Y17931428D01*
X29560000Y17931428D01*
X29702857Y17860000D01*
X29774285Y17788571D01*
X29845714Y17645714D01*
X29845714Y17502857D01*
X29774285Y17288571D01*
X28917142Y16431428D01*
X29845714Y16431428D01*
X31345714Y16574285D02*
X31274285Y16502857D01*
X31060000Y16431428D01*
X30917142Y16431428D01*
X30702857Y16502857D01*
X30560000Y16645714D01*
X30488571Y16788571D01*
X30417142Y17074285D01*
X30417142Y17288571D01*
X30488571Y17574285D01*
X30560000Y17717142D01*
X30702857Y17860000D01*
X30917142Y17931428D01*
X31060000Y17931428D01*
X31274285Y17860000D01*
X31345714Y17788571D01*
D11*
X60996605Y5731583D02*
X61633001Y6226558D01*
X61366994Y5684443D01*
X62010125Y5849434D01*
X61373729Y5354460D01*
X62387248Y5472311D02*
X62494998Y5364561D01*
X62518568Y5287116D01*
X62511834Y5186101D01*
X62417553Y5064883D01*
X62205421Y4899891D01*
X62057265Y4832548D01*
X61942781Y4839282D01*
X61858602Y4869587D01*
X61750852Y4977336D01*
X61727282Y5054781D01*
X61734016Y5155796D01*
X61828297Y5277015D01*
X62040429Y5442006D01*
X62188585Y5509350D01*
X62303069Y5502615D01*
X62387248Y5472311D01*
X62239093Y4542971D02*
X62289600Y4438588D01*
X62424287Y4303901D01*
X62508467Y4273597D01*
X62565709Y4270229D01*
X62653255Y4290432D01*
X62713864Y4337573D01*
X62747536Y4411651D01*
X62750903Y4462158D01*
X62727333Y4539603D01*
X62649888Y4670923D01*
X62626318Y4748368D01*
X62629685Y4798876D01*
X62663357Y4872954D01*
X62723966Y4920094D01*
X62811512Y4940297D01*
X62868754Y4936930D01*
X62952934Y4906625D01*
X63087621Y4771938D01*
X63138128Y4667556D01*
X62774474Y3953715D02*
X63410870Y4448690D01*
X63728534Y5593529D02*
X63779042Y5489147D01*
X63913729Y5354460D01*
X63997908Y5324155D01*
X64055150Y5320788D01*
X64142697Y5340991D01*
X64203306Y5388131D01*
X64236977Y5462209D01*
X64240345Y5512717D01*
X64216774Y5590162D01*
X64139329Y5721482D01*
X64115759Y5798927D01*
X64119126Y5849434D01*
X64152798Y5923512D01*
X64213407Y5970653D01*
X64300954Y5990856D01*
X64358196Y5987489D01*
X64442375Y5957184D01*
X64577062Y5822497D01*
X64627570Y5718115D01*
X64647773Y4728165D02*
X64590531Y4731532D01*
X64479414Y4788774D01*
X64425539Y4842649D01*
X64375032Y4947032D01*
X64381766Y5048047D01*
X64415438Y5122125D01*
X64509719Y5243343D01*
X64600632Y5314054D01*
X64748788Y5381397D01*
X64836335Y5401600D01*
X64950819Y5394866D01*
X65061935Y5337624D01*
X65115810Y5283749D01*
X65166318Y5179367D01*
X65162951Y5128859D01*
X64829600Y4438588D02*
X65465996Y4933563D01*
X65152849Y4115339D02*
X65274067Y4640619D01*
X65789245Y4610314D02*
X65102341Y4650720D01*
X54798128Y4617688D02*
X55481664Y4169854D01*
X55175252Y4994812D01*
X56134896Y4930835D02*
X56131529Y4873593D01*
X56074287Y4762477D01*
X56020412Y4708602D01*
X55916030Y4658094D01*
X55815015Y4664829D01*
X55740937Y4698500D01*
X55619719Y4792781D01*
X55549008Y4883695D01*
X55481664Y5031851D01*
X55461461Y5119397D01*
X55468196Y5233881D01*
X55525438Y5344998D01*
X55579313Y5398873D01*
X55683695Y5449380D01*
X55734203Y5446013D01*
X56700582Y5496521D02*
X56697215Y5439279D01*
X56639973Y5328162D01*
X56586098Y5274287D01*
X56481715Y5223780D01*
X56380700Y5230514D01*
X56306622Y5264186D01*
X56185404Y5358467D01*
X56114693Y5449380D01*
X56047350Y5597536D01*
X56027147Y5685083D01*
X56033881Y5799567D01*
X56091123Y5910683D01*
X56144998Y5964558D01*
X56249380Y6015066D01*
X56299888Y6011699D01*
X50809976Y44180000D02*
X50738547Y44218095D01*
X50624261Y44218095D01*
X50505214Y44180000D01*
X50419500Y44103809D01*
X50371880Y44027619D01*
X50314738Y43875238D01*
X50300452Y43760952D01*
X50319500Y43608571D01*
X50348071Y43532380D01*
X50414738Y43456190D01*
X50524261Y43418095D01*
X50600452Y43418095D01*
X50719500Y43456190D01*
X50762357Y43494285D01*
X50795690Y43760952D01*
X50643309Y43760952D01*
X51095690Y43418095D02*
X51195690Y44218095D01*
X51552833Y43418095D01*
X51652833Y44218095D01*
X51933785Y43418095D02*
X52033785Y44218095D01*
X52224261Y44218095D01*
X52333785Y44180000D01*
X52400452Y44103809D01*
X52429023Y44027619D01*
X52448071Y43875238D01*
X52433785Y43760952D01*
X52376642Y43608571D01*
X52329023Y43532380D01*
X52243309Y43456190D01*
X52124261Y43418095D01*
X51933785Y43418095D01*
X50781404Y41346666D02*
X51162357Y41346666D01*
X50676642Y41118095D02*
X51043309Y41918095D01*
X51209976Y41118095D01*
X51895690Y41118095D02*
X51438547Y41118095D01*
X51667119Y41118095D02*
X51767119Y41918095D01*
X51676642Y41803809D01*
X51590928Y41727619D01*
X51509976Y41689523D01*
D13*
X64055666Y73881333D02*
X64289000Y73181333D01*
X64522333Y73881333D01*
X65155666Y73248000D02*
X65122333Y73214666D01*
X65022333Y73181333D01*
X64955666Y73181333D01*
X64855666Y73214666D01*
X64789000Y73281333D01*
X64755666Y73348000D01*
X64722333Y73481333D01*
X64722333Y73581333D01*
X64755666Y73714666D01*
X64789000Y73781333D01*
X64855666Y73848000D01*
X64955666Y73881333D01*
X65022333Y73881333D01*
X65122333Y73848000D01*
X65155666Y73814666D01*
X65855666Y73248000D02*
X65822333Y73214666D01*
X65722333Y73181333D01*
X65655666Y73181333D01*
X65555666Y73214666D01*
X65489000Y73281333D01*
X65455666Y73348000D01*
X65422333Y73481333D01*
X65422333Y73581333D01*
X65455666Y73714666D01*
X65489000Y73781333D01*
X65555666Y73848000D01*
X65655666Y73881333D01*
X65722333Y73881333D01*
X65822333Y73848000D01*
X65855666Y73814666D01*
D11*
X42102595Y4848095D02*
X42269261Y4048095D01*
X42635928Y4848095D01*
X43269261Y4124285D02*
X43226404Y4086190D01*
X43107357Y4048095D01*
X43031166Y4048095D01*
X42921642Y4086190D01*
X42854976Y4162380D01*
X42826404Y4238571D01*
X42807357Y4390952D01*
X42821642Y4505238D01*
X42878785Y4657619D01*
X42926404Y4733809D01*
X43012119Y4810000D01*
X43131166Y4848095D01*
X43207357Y4848095D01*
X43316880Y4810000D01*
X43350214Y4771904D01*
X44069261Y4124285D02*
X44026404Y4086190D01*
X43907357Y4048095D01*
X43831166Y4048095D01*
X43721642Y4086190D01*
X43654976Y4162380D01*
X43626404Y4238571D01*
X43607357Y4390952D01*
X43621642Y4505238D01*
X43678785Y4657619D01*
X43726404Y4733809D01*
X43812119Y4810000D01*
X43931166Y4848095D01*
X44007357Y4848095D01*
X44116880Y4810000D01*
X44150214Y4771904D01*
X26862595Y11706190D02*
X26972119Y11668095D01*
X27162595Y11668095D01*
X27243547Y11706190D01*
X27286404Y11744285D01*
X27334023Y11820476D01*
X27343547Y11896666D01*
X27314976Y11972857D01*
X27281642Y12010952D01*
X27210214Y12049047D01*
X27062595Y12087142D01*
X26991166Y12125238D01*
X26957833Y12163333D01*
X26929261Y12239523D01*
X26938785Y12315714D01*
X26986404Y12391904D01*
X27029261Y12430000D01*
X27110214Y12468095D01*
X27300690Y12468095D01*
X27410214Y12430000D01*
X27657833Y11668095D02*
X27757833Y12468095D01*
X27948309Y12468095D01*
X28057833Y12430000D01*
X28124500Y12353809D01*
X28153071Y12277619D01*
X28172119Y12125238D01*
X28157833Y12010952D01*
X28100690Y11858571D01*
X28053071Y11782380D01*
X27967357Y11706190D01*
X27848309Y11668095D01*
X27657833Y11668095D01*
X28448309Y11896666D02*
X28829261Y11896666D01*
X28343547Y11668095D02*
X28710214Y12468095D01*
X28876880Y11668095D01*
X46955047Y68346571D02*
X47716952Y68346571D01*
X47336000Y67965619D02*
X47336000Y68727523D01*
X45701404Y41346666D02*
X46082357Y41346666D01*
X45596642Y41118095D02*
X45963309Y41918095D01*
X46129976Y41118095D01*
X46649023Y41918095D02*
X46725214Y41918095D01*
X46796642Y41880000D01*
X46829976Y41841904D01*
X46858547Y41765714D01*
X46877595Y41613333D01*
X46853785Y41422857D01*
X46796642Y41270476D01*
X46749023Y41194285D01*
X46706166Y41156190D01*
X46625214Y41118095D01*
X46549023Y41118095D01*
X46477595Y41156190D01*
X46444261Y41194285D01*
X46415690Y41270476D01*
X46396642Y41422857D01*
X46420452Y41613333D01*
X46477595Y41765714D01*
X46525214Y41841904D01*
X46568071Y41880000D01*
X46649023Y41918095D01*
X45871404Y50996666D02*
X46252357Y50996666D01*
X45766642Y50768095D02*
X46133309Y51568095D01*
X46299976Y50768095D01*
X46619023Y51491904D02*
X46661880Y51530000D01*
X46742833Y51568095D01*
X46933309Y51568095D01*
X47004738Y51530000D01*
X47038071Y51491904D01*
X47066642Y51415714D01*
X47057119Y51339523D01*
X47004738Y51225238D01*
X46490452Y50768095D01*
X46985690Y50768095D01*
X69624547Y73553571D02*
X70386452Y73553571D01*
X45931642Y9166190D02*
X46041166Y9128095D01*
X46231642Y9128095D01*
X46312595Y9166190D01*
X46355452Y9204285D01*
X46403071Y9280476D01*
X46412595Y9356666D01*
X46384023Y9432857D01*
X46350690Y9470952D01*
X46279261Y9509047D01*
X46131642Y9547142D01*
X46060214Y9585238D01*
X46026880Y9623333D01*
X45998309Y9699523D01*
X46007833Y9775714D01*
X46055452Y9851904D01*
X46098309Y9890000D01*
X46179261Y9928095D01*
X46369738Y9928095D01*
X46479261Y9890000D01*
X47193547Y9204285D02*
X47150690Y9166190D01*
X47031642Y9128095D01*
X46955452Y9128095D01*
X46845928Y9166190D01*
X46779261Y9242380D01*
X46750690Y9318571D01*
X46731642Y9470952D01*
X46745928Y9585238D01*
X46803071Y9737619D01*
X46850690Y9813809D01*
X46936404Y9890000D01*
X47055452Y9928095D01*
X47131642Y9928095D01*
X47241166Y9890000D01*
X47274500Y9851904D01*
X47907833Y9128095D02*
X47526880Y9128095D01*
X47626880Y9928095D01*
X63492500Y2518533D02*
X63492500Y3218533D01*
X63792500Y2551866D02*
X63892500Y2518533D01*
X64059166Y2518533D01*
X64125833Y2551866D01*
X64159166Y2585200D01*
X64192500Y2651866D01*
X64192500Y2718533D01*
X64159166Y2785200D01*
X64125833Y2818533D01*
X64059166Y2851866D01*
X63925833Y2885200D01*
X63859166Y2918533D01*
X63825833Y2951866D01*
X63792500Y3018533D01*
X63792500Y3085200D01*
X63825833Y3151866D01*
X63859166Y3185200D01*
X63925833Y3218533D01*
X64092500Y3218533D01*
X64192500Y3185200D01*
X64492500Y2518533D02*
X64492500Y3218533D01*
X64759166Y3218533D01*
X64825833Y3185200D01*
X64859166Y3151866D01*
X64892500Y3085200D01*
X64892500Y2985200D01*
X64859166Y2918533D01*
X64825833Y2885200D01*
X64759166Y2851866D01*
X64492500Y2851866D01*
X65725833Y2985200D02*
X65725833Y2285200D01*
X65725833Y2951866D02*
X65792500Y2985200D01*
X65925833Y2985200D01*
X65992500Y2951866D01*
X66025833Y2918533D01*
X66059166Y2851866D01*
X66059166Y2651866D01*
X66025833Y2585200D01*
X65992500Y2551866D01*
X65925833Y2518533D01*
X65792500Y2518533D01*
X65725833Y2551866D01*
X66359166Y2518533D02*
X66359166Y2985200D01*
X66359166Y2851866D02*
X66392500Y2918533D01*
X66425833Y2951866D01*
X66492500Y2985200D01*
X66559166Y2985200D01*
X66892500Y2518533D02*
X66825833Y2551866D01*
X66792500Y2585200D01*
X66759166Y2651866D01*
X66759166Y2851866D01*
X66792500Y2918533D01*
X66825833Y2951866D01*
X66892500Y2985200D01*
X66992500Y2985200D01*
X67059166Y2951866D01*
X67092500Y2918533D01*
X67125833Y2851866D01*
X67125833Y2651866D01*
X67092500Y2585200D01*
X67059166Y2551866D01*
X66992500Y2518533D01*
X66892500Y2518533D01*
X67725833Y2985200D02*
X67725833Y2418533D01*
X67692500Y2351866D01*
X67659166Y2318533D01*
X67592500Y2285200D01*
X67492500Y2285200D01*
X67425833Y2318533D01*
X67725833Y2551866D02*
X67659166Y2518533D01*
X67525833Y2518533D01*
X67459166Y2551866D01*
X67425833Y2585200D01*
X67392500Y2651866D01*
X67392500Y2851866D01*
X67425833Y2918533D01*
X67459166Y2951866D01*
X67525833Y2985200D01*
X67659166Y2985200D01*
X67725833Y2951866D01*
X68059166Y2518533D02*
X68059166Y2985200D01*
X68059166Y2851866D02*
X68092500Y2918533D01*
X68125833Y2951866D01*
X68192500Y2985200D01*
X68259166Y2985200D01*
X68792500Y2518533D02*
X68792500Y2885200D01*
X68759166Y2951866D01*
X68692500Y2985200D01*
X68559166Y2985200D01*
X68492500Y2951866D01*
X68792500Y2551866D02*
X68725833Y2518533D01*
X68559166Y2518533D01*
X68492500Y2551866D01*
X68459166Y2618533D01*
X68459166Y2685200D01*
X68492500Y2751866D01*
X68559166Y2785200D01*
X68725833Y2785200D01*
X68792500Y2818533D01*
X69125833Y2518533D02*
X69125833Y2985200D01*
X69125833Y2918533D02*
X69159166Y2951866D01*
X69225833Y2985200D01*
X69325833Y2985200D01*
X69392500Y2951866D01*
X69425833Y2885200D01*
X69425833Y2518533D01*
X69425833Y2885200D02*
X69459166Y2951866D01*
X69525833Y2985200D01*
X69625833Y2985200D01*
X69692500Y2951866D01*
X69725833Y2885200D01*
X69725833Y2518533D01*
X70059166Y2518533D02*
X70059166Y2985200D01*
X70059166Y2918533D02*
X70092500Y2951866D01*
X70159166Y2985200D01*
X70259166Y2985200D01*
X70325833Y2951866D01*
X70359166Y2885200D01*
X70359166Y2518533D01*
X70359166Y2885200D02*
X70392500Y2951866D01*
X70459166Y2985200D01*
X70559166Y2985200D01*
X70625833Y2951866D01*
X70659166Y2885200D01*
X70659166Y2518533D01*
X71259166Y2551866D02*
X71192500Y2518533D01*
X71059166Y2518533D01*
X70992500Y2551866D01*
X70959166Y2618533D01*
X70959166Y2885200D01*
X70992500Y2951866D01*
X71059166Y2985200D01*
X71192500Y2985200D01*
X71259166Y2951866D01*
X71292500Y2885200D01*
X71292500Y2818533D01*
X70959166Y2751866D01*
X71592500Y2518533D02*
X71592500Y2985200D01*
X71592500Y2851866D02*
X71625833Y2918533D01*
X71659166Y2951866D01*
X71725833Y2985200D01*
X71792500Y2985200D01*
X46364976Y7350000D02*
X46293547Y7388095D01*
X46179261Y7388095D01*
X46060214Y7350000D01*
X45974500Y7273809D01*
X45926880Y7197619D01*
X45869738Y7045238D01*
X45855452Y6930952D01*
X45874500Y6778571D01*
X45903071Y6702380D01*
X45969738Y6626190D01*
X46079261Y6588095D01*
X46155452Y6588095D01*
X46274500Y6626190D01*
X46317357Y6664285D01*
X46350690Y6930952D01*
X46198309Y6930952D01*
X46650690Y6588095D02*
X46750690Y7388095D01*
X47107833Y6588095D01*
X47207833Y7388095D01*
X47488785Y6588095D02*
X47588785Y7388095D01*
X47779261Y7388095D01*
X47888785Y7350000D01*
X47955452Y7273809D01*
X47984023Y7197619D01*
X48003071Y7045238D01*
X47988785Y6930952D01*
X47931642Y6778571D01*
X47884023Y6702380D01*
X47798309Y6626190D01*
X47679261Y6588095D01*
X47488785Y6588095D01*
X57049947Y4910632D02*
X56972502Y4887062D01*
X56891690Y4806250D01*
X56834448Y4695133D01*
X56827713Y4580649D01*
X56847916Y4493103D01*
X56915260Y4344947D01*
X56985971Y4254033D01*
X57107189Y4159752D01*
X57181267Y4126081D01*
X57282282Y4119346D01*
X57386664Y4169854D01*
X57440539Y4223729D01*
X57497781Y4334845D01*
X57501148Y4392087D01*
X57336157Y4604219D01*
X57228407Y4496470D01*
X57790725Y4573915D02*
X57295751Y5210311D01*
X58113974Y4897164D01*
X57619000Y5533560D01*
X58383348Y5166538D02*
X57888374Y5802934D01*
X58023061Y5937621D01*
X58127443Y5988128D01*
X58228458Y5981394D01*
X58302536Y5947722D01*
X58423754Y5853441D01*
X58494465Y5762528D01*
X58561809Y5614372D01*
X58582012Y5526825D01*
X58575277Y5412341D01*
X58518035Y5301225D01*
X58383348Y5166538D01*
X45912595Y11706190D02*
X46022119Y11668095D01*
X46212595Y11668095D01*
X46293547Y11706190D01*
X46336404Y11744285D01*
X46384023Y11820476D01*
X46393547Y11896666D01*
X46364976Y11972857D01*
X46331642Y12010952D01*
X46260214Y12049047D01*
X46112595Y12087142D01*
X46041166Y12125238D01*
X46007833Y12163333D01*
X45979261Y12239523D01*
X45988785Y12315714D01*
X46036404Y12391904D01*
X46079261Y12430000D01*
X46160214Y12468095D01*
X46350690Y12468095D01*
X46460214Y12430000D01*
X46707833Y11668095D02*
X46807833Y12468095D01*
X46998309Y12468095D01*
X47107833Y12430000D01*
X47174500Y12353809D01*
X47203071Y12277619D01*
X47222119Y12125238D01*
X47207833Y12010952D01*
X47150690Y11858571D01*
X47103071Y11782380D01*
X47017357Y11706190D01*
X46898309Y11668095D01*
X46707833Y11668095D01*
X47498309Y11896666D02*
X47879261Y11896666D01*
X47393547Y11668095D02*
X47760214Y12468095D01*
X47926880Y11668095D01*
X45912595Y4848095D02*
X46079261Y4048095D01*
X46445928Y4848095D01*
X47079261Y4124285D02*
X47036404Y4086190D01*
X46917357Y4048095D01*
X46841166Y4048095D01*
X46731642Y4086190D01*
X46664976Y4162380D01*
X46636404Y4238571D01*
X46617357Y4390952D01*
X46631642Y4505238D01*
X46688785Y4657619D01*
X46736404Y4733809D01*
X46822119Y4810000D01*
X46941166Y4848095D01*
X47017357Y4848095D01*
X47126880Y4810000D01*
X47160214Y4771904D01*
X47879261Y4124285D02*
X47836404Y4086190D01*
X47717357Y4048095D01*
X47641166Y4048095D01*
X47531642Y4086190D01*
X47464976Y4162380D01*
X47436404Y4238571D01*
X47417357Y4390952D01*
X47431642Y4505238D01*
X47488785Y4657619D01*
X47536404Y4733809D01*
X47622119Y4810000D01*
X47741166Y4848095D01*
X47817357Y4848095D01*
X47926880Y4810000D01*
X47960214Y4771904D01*
D13*
X49130952Y67700119D02*
X49083333Y67676309D01*
X48988095Y67676309D01*
X48940476Y67700119D01*
X48916666Y67723928D01*
X48892857Y67771547D01*
X48892857Y67914404D01*
X48916666Y67962023D01*
X48940476Y67985833D01*
X48988095Y68009642D01*
X49083333Y68009642D01*
X49130952Y67985833D01*
X49559523Y68009642D02*
X49559523Y67676309D01*
X49345238Y68009642D02*
X49345238Y67747738D01*
X49369047Y67700119D01*
X49416666Y67676309D01*
X49488095Y67676309D01*
X49535714Y67700119D01*
X49559523Y67723928D01*
X49726190Y68009642D02*
X49916666Y68009642D01*
X49797619Y68176309D02*
X49797619Y67747738D01*
X49821428Y67700119D01*
X49869047Y67676309D01*
X49916666Y67676309D01*
X50607142Y68176309D02*
X50607142Y67819166D01*
X50583333Y67747738D01*
X50535714Y67700119D01*
X50464285Y67676309D01*
X50416666Y67676309D01*
X50845238Y67676309D02*
X50845238Y68176309D01*
X51035714Y68176309D01*
X51083333Y68152500D01*
X51107142Y68128690D01*
X51130952Y68081071D01*
X51130952Y68009642D01*
X51107142Y67962023D01*
X51083333Y67938214D01*
X51035714Y67914404D01*
X50845238Y67914404D01*
X51321428Y68128690D02*
X51345238Y68152500D01*
X51392857Y68176309D01*
X51511904Y68176309D01*
X51559523Y68152500D01*
X51583333Y68128690D01*
X51607142Y68081071D01*
X51607142Y68033452D01*
X51583333Y67962023D01*
X51297619Y67676309D01*
X51607142Y67676309D01*
X48500000Y67204642D02*
X48690476Y67204642D01*
X48571428Y66871309D02*
X48571428Y67299880D01*
X48595238Y67347500D01*
X48642857Y67371309D01*
X48690476Y67371309D01*
X48928571Y66871309D02*
X48880952Y66895119D01*
X48857142Y66918928D01*
X48833333Y66966547D01*
X48833333Y67109404D01*
X48857142Y67157023D01*
X48880952Y67180833D01*
X48928571Y67204642D01*
X49000000Y67204642D01*
X49047619Y67180833D01*
X49071428Y67157023D01*
X49095238Y67109404D01*
X49095238Y66966547D01*
X49071428Y66918928D01*
X49047619Y66895119D01*
X49000000Y66871309D01*
X48928571Y66871309D01*
X49309523Y66871309D02*
X49309523Y67204642D01*
X49309523Y67109404D02*
X49333333Y67157023D01*
X49357142Y67180833D01*
X49404761Y67204642D01*
X49452380Y67204642D01*
X50214285Y66871309D02*
X50214285Y67133214D01*
X50190476Y67180833D01*
X50142857Y67204642D01*
X50047619Y67204642D01*
X50000000Y67180833D01*
X50214285Y66895119D02*
X50166666Y66871309D01*
X50047619Y66871309D01*
X50000000Y66895119D01*
X49976190Y66942738D01*
X49976190Y66990357D01*
X50000000Y67037976D01*
X50047619Y67061785D01*
X50166666Y67061785D01*
X50214285Y67085595D01*
X50666666Y66895119D02*
X50619047Y66871309D01*
X50523809Y66871309D01*
X50476190Y66895119D01*
X50452380Y66918928D01*
X50428571Y66966547D01*
X50428571Y67109404D01*
X50452380Y67157023D01*
X50476190Y67180833D01*
X50523809Y67204642D01*
X50619047Y67204642D01*
X50666666Y67180833D01*
X51095238Y66895119D02*
X51047619Y66871309D01*
X50952380Y66871309D01*
X50904761Y66895119D01*
X50880952Y66918928D01*
X50857142Y66966547D01*
X50857142Y67109404D01*
X50880952Y67157023D01*
X50904761Y67180833D01*
X50952380Y67204642D01*
X51047619Y67204642D01*
X51095238Y67180833D01*
X51523809Y67204642D02*
X51523809Y66871309D01*
X51309523Y67204642D02*
X51309523Y66942738D01*
X51333333Y66895119D01*
X51380952Y66871309D01*
X51452380Y66871309D01*
X51500000Y66895119D01*
X51523809Y66918928D01*
X51738095Y66895119D02*
X51785714Y66871309D01*
X51880952Y66871309D01*
X51928571Y66895119D01*
X51952380Y66942738D01*
X51952380Y66966547D01*
X51928571Y67014166D01*
X51880952Y67037976D01*
X51809523Y67037976D01*
X51761904Y67061785D01*
X51738095Y67109404D01*
X51738095Y67133214D01*
X51761904Y67180833D01*
X51809523Y67204642D01*
X51880952Y67204642D01*
X51928571Y67180833D01*
D11*
X50921404Y50966666D02*
X51302357Y50966666D01*
X50816642Y50738095D02*
X51183309Y51538095D01*
X51349976Y50738095D01*
X51640452Y51538095D02*
X52135690Y51538095D01*
X51830928Y51233333D01*
X51945214Y51233333D01*
X52016642Y51195238D01*
X52049976Y51157142D01*
X52078547Y51080952D01*
X52054738Y50890476D01*
X52007119Y50814285D01*
X51964261Y50776190D01*
X51883309Y50738095D01*
X51654738Y50738095D01*
X51583309Y50776190D01*
X51549976Y50814285D01*
X27314976Y7350000D02*
X27243547Y7388095D01*
X27129261Y7388095D01*
X27010214Y7350000D01*
X26924500Y7273809D01*
X26876880Y7197619D01*
X26819738Y7045238D01*
X26805452Y6930952D01*
X26824500Y6778571D01*
X26853071Y6702380D01*
X26919738Y6626190D01*
X27029261Y6588095D01*
X27105452Y6588095D01*
X27224500Y6626190D01*
X27267357Y6664285D01*
X27300690Y6930952D01*
X27148309Y6930952D01*
X27600690Y6588095D02*
X27700690Y7388095D01*
X28057833Y6588095D01*
X28157833Y7388095D01*
X28438785Y6588095D02*
X28538785Y7388095D01*
X28729261Y7388095D01*
X28838785Y7350000D01*
X28905452Y7273809D01*
X28934023Y7197619D01*
X28953071Y7045238D01*
X28938785Y6930952D01*
X28881642Y6778571D01*
X28834023Y6702380D01*
X28748309Y6626190D01*
X28629261Y6588095D01*
X28438785Y6588095D01*
X26881642Y9166190D02*
X26991166Y9128095D01*
X27181642Y9128095D01*
X27262595Y9166190D01*
X27305452Y9204285D01*
X27353071Y9280476D01*
X27362595Y9356666D01*
X27334023Y9432857D01*
X27300690Y9470952D01*
X27229261Y9509047D01*
X27081642Y9547142D01*
X27010214Y9585238D01*
X26976880Y9623333D01*
X26948309Y9699523D01*
X26957833Y9775714D01*
X27005452Y9851904D01*
X27048309Y9890000D01*
X27129261Y9928095D01*
X27319738Y9928095D01*
X27429261Y9890000D01*
X28143547Y9204285D02*
X28100690Y9166190D01*
X27981642Y9128095D01*
X27905452Y9128095D01*
X27795928Y9166190D01*
X27729261Y9242380D01*
X27700690Y9318571D01*
X27681642Y9470952D01*
X27695928Y9585238D01*
X27753071Y9737619D01*
X27800690Y9813809D01*
X27886404Y9890000D01*
X28005452Y9928095D01*
X28081642Y9928095D01*
X28191166Y9890000D01*
X28224500Y9851904D01*
X28857833Y9128095D02*
X28476880Y9128095D01*
X28576880Y9928095D01*
X66076605Y5731583D02*
X66713001Y6226558D01*
X66446994Y5684443D01*
X67090125Y5849434D01*
X66453729Y5354460D01*
X66723103Y5085086D02*
X67359499Y5580060D01*
X66995844Y4866219D02*
X67046351Y4761837D01*
X67181038Y4627150D01*
X67265218Y4596845D01*
X67322460Y4593478D01*
X67410006Y4613681D01*
X67470616Y4660822D01*
X67504287Y4734900D01*
X67507654Y4785407D01*
X67484084Y4862852D01*
X67406639Y4994172D01*
X67383069Y5071617D01*
X67386436Y5122125D01*
X67420108Y5196203D01*
X67480717Y5243343D01*
X67568264Y5263546D01*
X67625506Y5260179D01*
X67709685Y5229874D01*
X67844372Y5095187D01*
X67894880Y4990805D01*
X68275370Y4664189D02*
X68383120Y4556439D01*
X68406690Y4478994D01*
X68399956Y4377979D01*
X68305675Y4256761D01*
X68093543Y4091769D01*
X67945387Y4024426D01*
X67830903Y4031160D01*
X67746724Y4061464D01*
X67638974Y4169214D01*
X67615404Y4246659D01*
X67622138Y4347674D01*
X67716419Y4468893D01*
X67928551Y4633884D01*
X68076707Y4701228D01*
X68191191Y4694493D01*
X68275370Y4664189D01*
D10*
X47585442Y52519238D02*
X47490204Y52471619D01*
X47299728Y52471619D01*
X47204490Y52519238D01*
X47156871Y52566857D01*
X47109252Y52662095D01*
X47109252Y52947809D01*
X47156871Y53043047D01*
X47204490Y53090666D01*
X47299728Y53138285D01*
X47490204Y53138285D01*
X47585442Y53090666D01*
X48156871Y52471619D02*
X48061633Y52519238D01*
X48014014Y52566857D01*
X47966395Y52662095D01*
X47966395Y52947809D01*
X48014014Y53043047D01*
X48061633Y53090666D01*
X48156871Y53138285D01*
X48299728Y53138285D01*
X48394966Y53090666D01*
X48442585Y53043047D01*
X48490204Y52947809D01*
X48490204Y52662095D01*
X48442585Y52566857D01*
X48394966Y52519238D01*
X48299728Y52471619D01*
X48156871Y52471619D01*
X48918776Y53138285D02*
X48918776Y52471619D01*
X48918776Y53043047D02*
X48966395Y53090666D01*
X49061633Y53138285D01*
X49204490Y53138285D01*
X49299728Y53090666D01*
X49347347Y52995428D01*
X49347347Y52471619D01*
X49680680Y53138285D02*
X50061633Y53138285D01*
X49823538Y52471619D02*
X49823538Y53328761D01*
X49871157Y53424000D01*
X49966395Y53471619D01*
X50061633Y53471619D01*
X50394966Y52471619D02*
X50394966Y53138285D01*
X50394966Y53471619D02*
X50347347Y53424000D01*
X50394966Y53376380D01*
X50442585Y53424000D01*
X50394966Y53471619D01*
X50394966Y53376380D01*
X51299728Y53138285D02*
X51299728Y52328761D01*
X51252109Y52233523D01*
X51204490Y52185904D01*
X51109252Y52138285D01*
X50966395Y52138285D01*
X50871157Y52185904D01*
X51299728Y52519238D02*
X51204490Y52471619D01*
X51014014Y52471619D01*
X50918776Y52519238D01*
X50871157Y52566857D01*
X50823538Y52662095D01*
X50823538Y52947809D01*
X50871157Y53043047D01*
X50918776Y53090666D01*
X51014014Y53138285D01*
X51204490Y53138285D01*
X51299728Y53090666D01*
D11*
%TO.C,D1*%
X48842380Y69831904D02*
X47842380Y69831904D01*
X47842380Y70070000D01*
X47890000Y70212857D01*
X47985238Y70308095D01*
X48080476Y70355714D01*
X48270952Y70403333D01*
X48413809Y70403333D01*
X48604285Y70355714D01*
X48699523Y70308095D01*
X48794761Y70212857D01*
X48842380Y70070000D01*
X48842380Y69831904D01*
X48842380Y71355714D02*
X48842380Y70784285D01*
X48842380Y71070000D02*
X47842380Y71070000D01*
X47985238Y70974761D01*
X48080476Y70879523D01*
X48128095Y70784285D01*
%TO.C,J1*%
X48413980Y38823866D02*
X49128266Y38823866D01*
X49271123Y38776247D01*
X49366361Y38681009D01*
X49413980Y38538152D01*
X49413980Y38442914D01*
X49413980Y39823866D02*
X49413980Y39252438D01*
X49413980Y39538152D02*
X48413980Y39538152D01*
X48556838Y39442914D01*
X48652076Y39347676D01*
X48699695Y39252438D01*
%TO.C,J2*%
X53544780Y38976266D02*
X54259066Y38976266D01*
X54401923Y38928647D01*
X54497161Y38833409D01*
X54544780Y38690552D01*
X54544780Y38595314D01*
X53640019Y39404838D02*
X53592400Y39452457D01*
X53544780Y39547695D01*
X53544780Y39785790D01*
X53592400Y39881028D01*
X53640019Y39928647D01*
X53735257Y39976266D01*
X53830495Y39976266D01*
X53973352Y39928647D01*
X54544780Y39357219D01*
X54544780Y39976266D01*
%TO.C,J7*%
X34416666Y15807619D02*
X34416666Y15093333D01*
X34369047Y14950476D01*
X34273809Y14855238D01*
X34130952Y14807619D01*
X34035714Y14807619D01*
X34797619Y15807619D02*
X35464285Y15807619D01*
X35035714Y14807619D01*
%TO.C,J3*%
X48261580Y47104266D02*
X48975866Y47104266D01*
X49118723Y47056647D01*
X49213961Y46961409D01*
X49261580Y46818552D01*
X49261580Y46723314D01*
X48261580Y47485219D02*
X48261580Y48104266D01*
X48642533Y47770933D01*
X48642533Y47913790D01*
X48690152Y48009028D01*
X48737771Y48056647D01*
X48833009Y48104266D01*
X49071104Y48104266D01*
X49166342Y48056647D01*
X49213961Y48009028D01*
X49261580Y47913790D01*
X49261580Y47628076D01*
X49213961Y47532838D01*
X49166342Y47485219D01*
%TO.C,J4*%
X53443180Y47307466D02*
X54157466Y47307466D01*
X54300323Y47259847D01*
X54395561Y47164609D01*
X54443180Y47021752D01*
X54443180Y46926514D01*
X53776514Y48212228D02*
X54443180Y48212228D01*
X53395561Y47974133D02*
X54109847Y47736038D01*
X54109847Y48355085D01*
%TO.C,J5*%
X53602380Y7886666D02*
X54316666Y7886666D01*
X54459523Y7839047D01*
X54554761Y7743809D01*
X54602380Y7600952D01*
X54602380Y7505714D01*
X53602380Y8839047D02*
X53602380Y8362857D01*
X54078571Y8315238D01*
X54030952Y8362857D01*
X53983333Y8458095D01*
X53983333Y8696190D01*
X54030952Y8791428D01*
X54078571Y8839047D01*
X54173809Y8886666D01*
X54411904Y8886666D01*
X54507142Y8839047D01*
X54554761Y8791428D01*
X54602380Y8696190D01*
X54602380Y8458095D01*
X54554761Y8362857D01*
X54507142Y8315238D01*
%TO.C,J6*%
X24436666Y15947619D02*
X24436666Y15233333D01*
X24389047Y15090476D01*
X24293809Y14995238D01*
X24150952Y14947619D01*
X24055714Y14947619D01*
X25341428Y15947619D02*
X25150952Y15947619D01*
X25055714Y15900000D01*
X25008095Y15852380D01*
X24912857Y15709523D01*
X24865238Y15519047D01*
X24865238Y15138095D01*
X24912857Y15042857D01*
X24960476Y14995238D01*
X25055714Y14947619D01*
X25246190Y14947619D01*
X25341428Y14995238D01*
X25389047Y15042857D01*
X25436666Y15138095D01*
X25436666Y15376190D01*
X25389047Y15471428D01*
X25341428Y15519047D01*
X25246190Y15566666D01*
X25055714Y15566666D01*
X24960476Y15519047D01*
X24912857Y15471428D01*
X24865238Y15376190D01*
%TO.C,C1*%
X50562142Y23178333D02*
X50609761Y23130714D01*
X50657380Y22987857D01*
X50657380Y22892619D01*
X50609761Y22749761D01*
X50514523Y22654523D01*
X50419285Y22606904D01*
X50228809Y22559285D01*
X50085952Y22559285D01*
X49895476Y22606904D01*
X49800238Y22654523D01*
X49705000Y22749761D01*
X49657380Y22892619D01*
X49657380Y22987857D01*
X49705000Y23130714D01*
X49752619Y23178333D01*
X50657380Y24130714D02*
X50657380Y23559285D01*
X50657380Y23845000D02*
X49657380Y23845000D01*
X49800238Y23749761D01*
X49895476Y23654523D01*
X49943095Y23559285D01*
%TO.C,R4*%
X52202380Y28333333D02*
X51726190Y28000000D01*
X52202380Y27761904D02*
X51202380Y27761904D01*
X51202380Y28142857D01*
X51250000Y28238095D01*
X51297619Y28285714D01*
X51392857Y28333333D01*
X51535714Y28333333D01*
X51630952Y28285714D01*
X51678571Y28238095D01*
X51726190Y28142857D01*
X51726190Y27761904D01*
X51535714Y29190476D02*
X52202380Y29190476D01*
X51154761Y28952380D02*
X51869047Y28714285D01*
X51869047Y29333333D01*
%TO.C,R5*%
X48452380Y28333333D02*
X47976190Y28000000D01*
X48452380Y27761904D02*
X47452380Y27761904D01*
X47452380Y28142857D01*
X47500000Y28238095D01*
X47547619Y28285714D01*
X47642857Y28333333D01*
X47785714Y28333333D01*
X47880952Y28285714D01*
X47928571Y28238095D01*
X47976190Y28142857D01*
X47976190Y27761904D01*
X47452380Y29238095D02*
X47452380Y28761904D01*
X47928571Y28714285D01*
X47880952Y28761904D01*
X47833333Y28857142D01*
X47833333Y29095238D01*
X47880952Y29190476D01*
X47928571Y29238095D01*
X48023809Y29285714D01*
X48261904Y29285714D01*
X48357142Y29238095D01*
X48404761Y29190476D01*
X48452380Y29095238D01*
X48452380Y28857142D01*
X48404761Y28761904D01*
X48357142Y28714285D01*
%TO.C,R1*%
X47872380Y64568333D02*
X47396190Y64235000D01*
X47872380Y63996904D02*
X46872380Y63996904D01*
X46872380Y64377857D01*
X46920000Y64473095D01*
X46967619Y64520714D01*
X47062857Y64568333D01*
X47205714Y64568333D01*
X47300952Y64520714D01*
X47348571Y64473095D01*
X47396190Y64377857D01*
X47396190Y63996904D01*
X47872380Y65520714D02*
X47872380Y64949285D01*
X47872380Y65235000D02*
X46872380Y65235000D01*
X47015238Y65139761D01*
X47110476Y65044523D01*
X47158095Y64949285D01*
%TO.C,R3*%
X16943333Y5397619D02*
X16610000Y5873809D01*
X16371904Y5397619D02*
X16371904Y6397619D01*
X16752857Y6397619D01*
X16848095Y6350000D01*
X16895714Y6302380D01*
X16943333Y6207142D01*
X16943333Y6064285D01*
X16895714Y5969047D01*
X16848095Y5921428D01*
X16752857Y5873809D01*
X16371904Y5873809D01*
X17276666Y6397619D02*
X17895714Y6397619D01*
X17562380Y6016666D01*
X17705238Y6016666D01*
X17800476Y5969047D01*
X17848095Y5921428D01*
X17895714Y5826190D01*
X17895714Y5588095D01*
X17848095Y5492857D01*
X17800476Y5445238D01*
X17705238Y5397619D01*
X17419523Y5397619D01*
X17324285Y5445238D01*
X17276666Y5492857D01*
%TO.C,Q1*%
X9144761Y10062380D02*
X9049523Y10110000D01*
X8954285Y10205238D01*
X8811428Y10348095D01*
X8716190Y10395714D01*
X8620952Y10395714D01*
X8668571Y10157619D02*
X8573333Y10205238D01*
X8478095Y10300476D01*
X8430476Y10490952D01*
X8430476Y10824285D01*
X8478095Y11014761D01*
X8573333Y11110000D01*
X8668571Y11157619D01*
X8859047Y11157619D01*
X8954285Y11110000D01*
X9049523Y11014761D01*
X9097142Y10824285D01*
X9097142Y10490952D01*
X9049523Y10300476D01*
X8954285Y10205238D01*
X8859047Y10157619D01*
X8668571Y10157619D01*
X10049523Y10157619D02*
X9478095Y10157619D01*
X9763809Y10157619D02*
X9763809Y11157619D01*
X9668571Y11014761D01*
X9573333Y10919523D01*
X9478095Y10871904D01*
%TO.C,J9*%
X50186666Y15697619D02*
X50186666Y14983333D01*
X50139047Y14840476D01*
X50043809Y14745238D01*
X49900952Y14697619D01*
X49805714Y14697619D01*
X50710476Y14697619D02*
X50900952Y14697619D01*
X50996190Y14745238D01*
X51043809Y14792857D01*
X51139047Y14935714D01*
X51186666Y15126190D01*
X51186666Y15507142D01*
X51139047Y15602380D01*
X51091428Y15650000D01*
X50996190Y15697619D01*
X50805714Y15697619D01*
X50710476Y15650000D01*
X50662857Y15602380D01*
X50615238Y15507142D01*
X50615238Y15269047D01*
X50662857Y15173809D01*
X50710476Y15126190D01*
X50805714Y15078571D01*
X50996190Y15078571D01*
X51091428Y15126190D01*
X51139047Y15173809D01*
X51186666Y15269047D01*
D13*
%TO.C,J10*%
X62827666Y71216833D02*
X63327666Y71216833D01*
X63427666Y71183500D01*
X63494333Y71116833D01*
X63527666Y71016833D01*
X63527666Y70950166D01*
X63527666Y71916833D02*
X63527666Y71516833D01*
X63527666Y71716833D02*
X62827666Y71716833D01*
X62927666Y71650166D01*
X62994333Y71583500D01*
X63027666Y71516833D01*
X62827666Y72350166D02*
X62827666Y72416833D01*
X62861000Y72483500D01*
X62894333Y72516833D01*
X62961000Y72550166D01*
X63094333Y72583500D01*
X63261000Y72583500D01*
X63394333Y72550166D01*
X63461000Y72516833D01*
X63494333Y72483500D01*
X63527666Y72416833D01*
X63527666Y72350166D01*
X63494333Y72283500D01*
X63461000Y72250166D01*
X63394333Y72216833D01*
X63261000Y72183500D01*
X63094333Y72183500D01*
X62961000Y72216833D01*
X62894333Y72250166D01*
X62861000Y72283500D01*
X62827666Y72350166D01*
%TO.C,Module2*%
X36235380Y60964761D02*
X36259190Y61036190D01*
X36259190Y61155238D01*
X36235380Y61202857D01*
X36211571Y61226666D01*
X36163952Y61250476D01*
X36116333Y61250476D01*
X36068714Y61226666D01*
X36044904Y61202857D01*
X36021095Y61155238D01*
X35997285Y61060000D01*
X35973476Y61012380D01*
X35949666Y60988571D01*
X35902047Y60964761D01*
X35854428Y60964761D01*
X35806809Y60988571D01*
X35783000Y61012380D01*
X35759190Y61060000D01*
X35759190Y61179047D01*
X35783000Y61250476D01*
X36211571Y61750476D02*
X36235380Y61726666D01*
X36259190Y61655238D01*
X36259190Y61607619D01*
X36235380Y61536190D01*
X36187761Y61488571D01*
X36140142Y61464761D01*
X36044904Y61440952D01*
X35973476Y61440952D01*
X35878238Y61464761D01*
X35830619Y61488571D01*
X35783000Y61536190D01*
X35759190Y61607619D01*
X35759190Y61655238D01*
X35783000Y61726666D01*
X35806809Y61750476D01*
X36259190Y62202857D02*
X36259190Y61964761D01*
X35759190Y61964761D01*
D11*
X37765000Y69992857D02*
X37736428Y69935714D01*
X37736428Y69850000D01*
X37765000Y69764285D01*
X37822142Y69707142D01*
X37879285Y69678571D01*
X37993571Y69650000D01*
X38079285Y69650000D01*
X38193571Y69678571D01*
X38250714Y69707142D01*
X38307857Y69764285D01*
X38336428Y69850000D01*
X38336428Y69907142D01*
X38307857Y69992857D01*
X38279285Y70021428D01*
X38079285Y70021428D01*
X38079285Y69907142D01*
X38336428Y70278571D02*
X37736428Y70278571D01*
X38336428Y70621428D01*
X37736428Y70621428D01*
X38336428Y70907142D02*
X37736428Y70907142D01*
X37736428Y71050000D01*
X37765000Y71135714D01*
X37822142Y71192857D01*
X37879285Y71221428D01*
X37993571Y71250000D01*
X38079285Y71250000D01*
X38193571Y71221428D01*
X38250714Y71192857D01*
X38307857Y71135714D01*
X38336428Y71050000D01*
X38336428Y70907142D01*
X31351428Y69764285D02*
X31065714Y69564285D01*
X31351428Y69421428D02*
X30751428Y69421428D01*
X30751428Y69650000D01*
X30780000Y69707142D01*
X30808571Y69735714D01*
X30865714Y69764285D01*
X30951428Y69764285D01*
X31008571Y69735714D01*
X31037142Y69707142D01*
X31065714Y69650000D01*
X31065714Y69421428D01*
X30751428Y69964285D02*
X31351428Y70364285D01*
X30751428Y70364285D02*
X31351428Y69964285D01*
X31351428Y70592857D02*
X30751428Y70592857D01*
X30751428Y70735714D01*
X30780000Y70821428D01*
X30837142Y70878571D01*
X30894285Y70907142D01*
X31008571Y70935714D01*
X31094285Y70935714D01*
X31208571Y70907142D01*
X31265714Y70878571D01*
X31322857Y70821428D01*
X31351428Y70735714D01*
X31351428Y70592857D01*
X30751428Y71307142D02*
X30751428Y71364285D01*
X30780000Y71421428D01*
X30808571Y71450000D01*
X30865714Y71478571D01*
X30980000Y71507142D01*
X31122857Y71507142D01*
X31237142Y71478571D01*
X31294285Y71450000D01*
X31322857Y71421428D01*
X31351428Y71364285D01*
X31351428Y71307142D01*
X31322857Y71250000D01*
X31294285Y71221428D01*
X31237142Y71192857D01*
X31122857Y71164285D01*
X30980000Y71164285D01*
X30865714Y71192857D01*
X30808571Y71221428D01*
X30780000Y71250000D01*
X30751428Y71307142D01*
X26906428Y69764285D02*
X26306428Y69764285D01*
X26306428Y69907142D01*
X26335000Y69992857D01*
X26392142Y70050000D01*
X26449285Y70078571D01*
X26563571Y70107142D01*
X26649285Y70107142D01*
X26763571Y70078571D01*
X26820714Y70050000D01*
X26877857Y69992857D01*
X26906428Y69907142D01*
X26906428Y69764285D01*
X26306428Y70278571D02*
X26306428Y70621428D01*
X26906428Y70450000D02*
X26306428Y70450000D01*
X26906428Y71164285D02*
X26620714Y70964285D01*
X26906428Y70821428D02*
X26306428Y70821428D01*
X26306428Y71050000D01*
X26335000Y71107142D01*
X26363571Y71135714D01*
X26420714Y71164285D01*
X26506428Y71164285D01*
X26563571Y71135714D01*
X26592142Y71107142D01*
X26620714Y71050000D01*
X26620714Y70821428D01*
X35860000Y69992857D02*
X35831428Y69935714D01*
X35831428Y69850000D01*
X35860000Y69764285D01*
X35917142Y69707142D01*
X35974285Y69678571D01*
X36088571Y69650000D01*
X36174285Y69650000D01*
X36288571Y69678571D01*
X36345714Y69707142D01*
X36402857Y69764285D01*
X36431428Y69850000D01*
X36431428Y69907142D01*
X36402857Y69992857D01*
X36374285Y70021428D01*
X36174285Y70021428D01*
X36174285Y69907142D01*
X36431428Y70278571D02*
X35831428Y70278571D01*
X36431428Y70621428D01*
X35831428Y70621428D01*
X36431428Y70907142D02*
X35831428Y70907142D01*
X35831428Y71050000D01*
X35860000Y71135714D01*
X35917142Y71192857D01*
X35974285Y71221428D01*
X36088571Y71250000D01*
X36174285Y71250000D01*
X36288571Y71221428D01*
X36345714Y71192857D01*
X36402857Y71135714D01*
X36431428Y71050000D01*
X36431428Y70907142D01*
X29435333Y46822142D02*
X29435333Y47203095D01*
X29663904Y46745952D02*
X28863904Y47012619D01*
X29663904Y47279285D01*
X28863904Y47431666D02*
X28863904Y47888809D01*
X29663904Y47660238D02*
X28863904Y47660238D01*
X29663904Y48155476D02*
X28863904Y48155476D01*
X29435333Y48422142D01*
X28863904Y48688809D01*
X29663904Y48688809D01*
X29625809Y49374523D02*
X29663904Y49298333D01*
X29663904Y49145952D01*
X29625809Y49069761D01*
X29549619Y49031666D01*
X29244857Y49031666D01*
X29168666Y49069761D01*
X29130571Y49145952D01*
X29130571Y49298333D01*
X29168666Y49374523D01*
X29244857Y49412619D01*
X29321047Y49412619D01*
X29397238Y49031666D01*
X29130571Y50098333D02*
X29778190Y50098333D01*
X29854380Y50060238D01*
X29892476Y50022142D01*
X29930571Y49945952D01*
X29930571Y49831666D01*
X29892476Y49755476D01*
X29625809Y50098333D02*
X29663904Y50022142D01*
X29663904Y49869761D01*
X29625809Y49793571D01*
X29587714Y49755476D01*
X29511523Y49717380D01*
X29282952Y49717380D01*
X29206761Y49755476D01*
X29168666Y49793571D01*
X29130571Y49869761D01*
X29130571Y50022142D01*
X29168666Y50098333D01*
X29663904Y50822142D02*
X29244857Y50822142D01*
X29168666Y50784047D01*
X29130571Y50707857D01*
X29130571Y50555476D01*
X29168666Y50479285D01*
X29625809Y50822142D02*
X29663904Y50745952D01*
X29663904Y50555476D01*
X29625809Y50479285D01*
X29549619Y50441190D01*
X29473428Y50441190D01*
X29397238Y50479285D01*
X29359142Y50555476D01*
X29359142Y50745952D01*
X29321047Y50822142D01*
X29663904Y51622142D02*
X29663904Y51165000D01*
X29663904Y51393571D02*
X28863904Y51393571D01*
X28978190Y51317380D01*
X29054380Y51241190D01*
X29092476Y51165000D01*
X28940095Y51926904D02*
X28902000Y51965000D01*
X28863904Y52041190D01*
X28863904Y52231666D01*
X28902000Y52307857D01*
X28940095Y52345952D01*
X29016285Y52384047D01*
X29092476Y52384047D01*
X29206761Y52345952D01*
X29663904Y51888809D01*
X29663904Y52384047D01*
X29206761Y52841190D02*
X29168666Y52765000D01*
X29130571Y52726904D01*
X29054380Y52688809D01*
X29016285Y52688809D01*
X28940095Y52726904D01*
X28902000Y52765000D01*
X28863904Y52841190D01*
X28863904Y52993571D01*
X28902000Y53069761D01*
X28940095Y53107857D01*
X29016285Y53145952D01*
X29054380Y53145952D01*
X29130571Y53107857D01*
X29168666Y53069761D01*
X29206761Y52993571D01*
X29206761Y52841190D01*
X29244857Y52765000D01*
X29282952Y52726904D01*
X29359142Y52688809D01*
X29511523Y52688809D01*
X29587714Y52726904D01*
X29625809Y52765000D01*
X29663904Y52841190D01*
X29663904Y52993571D01*
X29625809Y53069761D01*
X29587714Y53107857D01*
X29511523Y53145952D01*
X29359142Y53145952D01*
X29282952Y53107857D01*
X29244857Y53069761D01*
X29206761Y52993571D01*
X29130571Y53831666D02*
X29663904Y53831666D01*
X28825809Y53641190D02*
X29397238Y53450714D01*
X29397238Y53945952D01*
X29663904Y54250714D02*
X28863904Y54250714D01*
X28863904Y54555476D01*
X28902000Y54631666D01*
X28940095Y54669761D01*
X29016285Y54707857D01*
X29130571Y54707857D01*
X29206761Y54669761D01*
X29244857Y54631666D01*
X29282952Y54555476D01*
X29282952Y54250714D01*
X33291428Y69650000D02*
X33891428Y69850000D01*
X33291428Y70050000D01*
X33834285Y70592857D02*
X33862857Y70564285D01*
X33891428Y70478571D01*
X33891428Y70421428D01*
X33862857Y70335714D01*
X33805714Y70278571D01*
X33748571Y70250000D01*
X33634285Y70221428D01*
X33548571Y70221428D01*
X33434285Y70250000D01*
X33377142Y70278571D01*
X33320000Y70335714D01*
X33291428Y70421428D01*
X33291428Y70478571D01*
X33320000Y70564285D01*
X33348571Y70592857D01*
X33834285Y71192857D02*
X33862857Y71164285D01*
X33891428Y71078571D01*
X33891428Y71021428D01*
X33862857Y70935714D01*
X33805714Y70878571D01*
X33748571Y70850000D01*
X33634285Y70821428D01*
X33548571Y70821428D01*
X33434285Y70850000D01*
X33377142Y70878571D01*
X33320000Y70935714D01*
X33291428Y71021428D01*
X33291428Y71078571D01*
X33320000Y71164285D01*
X33348571Y71192857D01*
X28211428Y69407142D02*
X28211428Y69750000D01*
X28811428Y69578571D02*
X28211428Y69578571D01*
X28211428Y69892857D02*
X28811428Y70292857D01*
X28211428Y70292857D02*
X28811428Y69892857D01*
X28811428Y70521428D02*
X28211428Y70521428D01*
X28211428Y70664285D01*
X28240000Y70750000D01*
X28297142Y70807142D01*
X28354285Y70835714D01*
X28468571Y70864285D01*
X28554285Y70864285D01*
X28668571Y70835714D01*
X28725714Y70807142D01*
X28782857Y70750000D01*
X28811428Y70664285D01*
X28811428Y70521428D01*
X28211428Y71235714D02*
X28211428Y71292857D01*
X28240000Y71350000D01*
X28268571Y71378571D01*
X28325714Y71407142D01*
X28440000Y71435714D01*
X28582857Y71435714D01*
X28697142Y71407142D01*
X28754285Y71378571D01*
X28782857Y71350000D01*
X28811428Y71292857D01*
X28811428Y71235714D01*
X28782857Y71178571D01*
X28754285Y71150000D01*
X28697142Y71121428D01*
X28582857Y71092857D01*
X28440000Y71092857D01*
X28325714Y71121428D01*
X28268571Y71150000D01*
X28240000Y71178571D01*
X28211428Y71235714D01*
D13*
X36235380Y58412857D02*
X36259190Y58484285D01*
X36259190Y58603333D01*
X36235380Y58650952D01*
X36211571Y58674761D01*
X36163952Y58698571D01*
X36116333Y58698571D01*
X36068714Y58674761D01*
X36044904Y58650952D01*
X36021095Y58603333D01*
X35997285Y58508095D01*
X35973476Y58460476D01*
X35949666Y58436666D01*
X35902047Y58412857D01*
X35854428Y58412857D01*
X35806809Y58436666D01*
X35783000Y58460476D01*
X35759190Y58508095D01*
X35759190Y58627142D01*
X35783000Y58698571D01*
X36259190Y58912857D02*
X35759190Y58912857D01*
X35759190Y59031904D01*
X35783000Y59103333D01*
X35830619Y59150952D01*
X35878238Y59174761D01*
X35973476Y59198571D01*
X36044904Y59198571D01*
X36140142Y59174761D01*
X36187761Y59150952D01*
X36235380Y59103333D01*
X36259190Y59031904D01*
X36259190Y58912857D01*
X36116333Y59389047D02*
X36116333Y59627142D01*
X36259190Y59341428D02*
X35759190Y59508095D01*
X36259190Y59674761D01*
D11*
%TO.C,Module1*%
X30392857Y25297619D02*
X30392857Y26297619D01*
X30726190Y25583333D01*
X31059523Y26297619D01*
X31059523Y25297619D01*
X31678571Y25297619D02*
X31583333Y25345238D01*
X31535714Y25392857D01*
X31488095Y25488095D01*
X31488095Y25773809D01*
X31535714Y25869047D01*
X31583333Y25916666D01*
X31678571Y25964285D01*
X31821428Y25964285D01*
X31916666Y25916666D01*
X31964285Y25869047D01*
X32011904Y25773809D01*
X32011904Y25488095D01*
X31964285Y25392857D01*
X31916666Y25345238D01*
X31821428Y25297619D01*
X31678571Y25297619D01*
X32869047Y25297619D02*
X32869047Y26297619D01*
X32869047Y25345238D02*
X32773809Y25297619D01*
X32583333Y25297619D01*
X32488095Y25345238D01*
X32440476Y25392857D01*
X32392857Y25488095D01*
X32392857Y25773809D01*
X32440476Y25869047D01*
X32488095Y25916666D01*
X32583333Y25964285D01*
X32773809Y25964285D01*
X32869047Y25916666D01*
X33773809Y25964285D02*
X33773809Y25297619D01*
X33345238Y25964285D02*
X33345238Y25440476D01*
X33392857Y25345238D01*
X33488095Y25297619D01*
X33630952Y25297619D01*
X33726190Y25345238D01*
X33773809Y25392857D01*
X34392857Y25297619D02*
X34297619Y25345238D01*
X34250000Y25440476D01*
X34250000Y26297619D01*
X35154761Y25345238D02*
X35059523Y25297619D01*
X34869047Y25297619D01*
X34773809Y25345238D01*
X34726190Y25440476D01*
X34726190Y25821428D01*
X34773809Y25916666D01*
X34869047Y25964285D01*
X35059523Y25964285D01*
X35154761Y25916666D01*
X35202380Y25821428D01*
X35202380Y25726190D01*
X34726190Y25630952D01*
X36154761Y25297619D02*
X35583333Y25297619D01*
X35869047Y25297619D02*
X35869047Y26297619D01*
X35773809Y26154761D01*
X35678571Y26059523D01*
X35583333Y26011904D01*
X30484761Y27847857D02*
X30437142Y27800238D01*
X30294285Y27752619D01*
X30199047Y27752619D01*
X30056190Y27800238D01*
X29960952Y27895476D01*
X29913333Y27990714D01*
X29865714Y28181190D01*
X29865714Y28324047D01*
X29913333Y28514523D01*
X29960952Y28609761D01*
X30056190Y28705000D01*
X30199047Y28752619D01*
X30294285Y28752619D01*
X30437142Y28705000D01*
X30484761Y28657380D01*
X31484761Y27847857D02*
X31437142Y27800238D01*
X31294285Y27752619D01*
X31199047Y27752619D01*
X31056190Y27800238D01*
X30960952Y27895476D01*
X30913333Y27990714D01*
X30865714Y28181190D01*
X30865714Y28324047D01*
X30913333Y28514523D01*
X30960952Y28609761D01*
X31056190Y28705000D01*
X31199047Y28752619D01*
X31294285Y28752619D01*
X31437142Y28705000D01*
X31484761Y28657380D01*
X32437142Y27752619D02*
X31865714Y27752619D01*
X32151428Y27752619D02*
X32151428Y28752619D01*
X32056190Y28609761D01*
X31960952Y28514523D01*
X31865714Y28466904D01*
X33389523Y27752619D02*
X32818095Y27752619D01*
X33103809Y27752619D02*
X33103809Y28752619D01*
X33008571Y28609761D01*
X32913333Y28514523D01*
X32818095Y28466904D01*
X34008571Y28752619D02*
X34103809Y28752619D01*
X34199047Y28705000D01*
X34246666Y28657380D01*
X34294285Y28562142D01*
X34341904Y28371666D01*
X34341904Y28133571D01*
X34294285Y27943095D01*
X34246666Y27847857D01*
X34199047Y27800238D01*
X34103809Y27752619D01*
X34008571Y27752619D01*
X33913333Y27800238D01*
X33865714Y27847857D01*
X33818095Y27943095D01*
X33770476Y28133571D01*
X33770476Y28371666D01*
X33818095Y28562142D01*
X33865714Y28657380D01*
X33913333Y28705000D01*
X34008571Y28752619D01*
X35294285Y27752619D02*
X34722857Y27752619D01*
X35008571Y27752619D02*
X35008571Y28752619D01*
X34913333Y28609761D01*
X34818095Y28514523D01*
X34722857Y28466904D01*
X30132380Y30224047D02*
X30037142Y30271666D01*
X29989523Y30319285D01*
X29941904Y30414523D01*
X29941904Y30462142D01*
X29989523Y30557380D01*
X30037142Y30605000D01*
X30132380Y30652619D01*
X30322857Y30652619D01*
X30418095Y30605000D01*
X30465714Y30557380D01*
X30513333Y30462142D01*
X30513333Y30414523D01*
X30465714Y30319285D01*
X30418095Y30271666D01*
X30322857Y30224047D01*
X30132380Y30224047D01*
X30037142Y30176428D01*
X29989523Y30128809D01*
X29941904Y30033571D01*
X29941904Y29843095D01*
X29989523Y29747857D01*
X30037142Y29700238D01*
X30132380Y29652619D01*
X30322857Y29652619D01*
X30418095Y29700238D01*
X30465714Y29747857D01*
X30513333Y29843095D01*
X30513333Y30033571D01*
X30465714Y30128809D01*
X30418095Y30176428D01*
X30322857Y30224047D01*
X31370476Y30652619D02*
X31180000Y30652619D01*
X31084761Y30605000D01*
X31037142Y30557380D01*
X30941904Y30414523D01*
X30894285Y30224047D01*
X30894285Y29843095D01*
X30941904Y29747857D01*
X30989523Y29700238D01*
X31084761Y29652619D01*
X31275238Y29652619D01*
X31370476Y29700238D01*
X31418095Y29747857D01*
X31465714Y29843095D01*
X31465714Y30081190D01*
X31418095Y30176428D01*
X31370476Y30224047D01*
X31275238Y30271666D01*
X31084761Y30271666D01*
X30989523Y30224047D01*
X30941904Y30176428D01*
X30894285Y30081190D01*
X32037142Y30224047D02*
X31941904Y30271666D01*
X31894285Y30319285D01*
X31846666Y30414523D01*
X31846666Y30462142D01*
X31894285Y30557380D01*
X31941904Y30605000D01*
X32037142Y30652619D01*
X32227619Y30652619D01*
X32322857Y30605000D01*
X32370476Y30557380D01*
X32418095Y30462142D01*
X32418095Y30414523D01*
X32370476Y30319285D01*
X32322857Y30271666D01*
X32227619Y30224047D01*
X32037142Y30224047D01*
X31941904Y30176428D01*
X31894285Y30128809D01*
X31846666Y30033571D01*
X31846666Y29843095D01*
X31894285Y29747857D01*
X31941904Y29700238D01*
X32037142Y29652619D01*
X32227619Y29652619D01*
X32322857Y29700238D01*
X32370476Y29747857D01*
X32418095Y29843095D01*
X32418095Y30033571D01*
X32370476Y30128809D01*
X32322857Y30176428D01*
X32227619Y30224047D01*
X32846666Y29652619D02*
X32846666Y30652619D01*
X33180000Y29938333D01*
X33513333Y30652619D01*
X33513333Y29652619D01*
X33989523Y29652619D02*
X33989523Y30652619D01*
X33989523Y30176428D02*
X34560952Y30176428D01*
X34560952Y29652619D02*
X34560952Y30652619D01*
X34941904Y30319285D02*
X35465714Y30319285D01*
X34941904Y29652619D01*
X35465714Y29652619D01*
X27465714Y31502619D02*
X27132380Y31978809D01*
X26894285Y31502619D02*
X26894285Y32502619D01*
X27275238Y32502619D01*
X27370476Y32455000D01*
X27418095Y32407380D01*
X27465714Y32312142D01*
X27465714Y32169285D01*
X27418095Y32074047D01*
X27370476Y32026428D01*
X27275238Y31978809D01*
X26894285Y31978809D01*
X28227619Y32026428D02*
X27894285Y32026428D01*
X27894285Y31502619D02*
X27894285Y32502619D01*
X28370476Y32502619D01*
X29370476Y32502619D02*
X29941904Y32502619D01*
X29656190Y31502619D02*
X29656190Y32502619D01*
X30275238Y31502619D02*
X30275238Y32169285D01*
X30275238Y31978809D02*
X30322857Y32074047D01*
X30370476Y32121666D01*
X30465714Y32169285D01*
X30560952Y32169285D01*
X31322857Y31502619D02*
X31322857Y32026428D01*
X31275238Y32121666D01*
X31180000Y32169285D01*
X30989523Y32169285D01*
X30894285Y32121666D01*
X31322857Y31550238D02*
X31227619Y31502619D01*
X30989523Y31502619D01*
X30894285Y31550238D01*
X30846666Y31645476D01*
X30846666Y31740714D01*
X30894285Y31835952D01*
X30989523Y31883571D01*
X31227619Y31883571D01*
X31322857Y31931190D01*
X31799047Y32169285D02*
X31799047Y31502619D01*
X31799047Y32074047D02*
X31846666Y32121666D01*
X31941904Y32169285D01*
X32084761Y32169285D01*
X32180000Y32121666D01*
X32227619Y32026428D01*
X32227619Y31502619D01*
X32656190Y31550238D02*
X32751428Y31502619D01*
X32941904Y31502619D01*
X33037142Y31550238D01*
X33084761Y31645476D01*
X33084761Y31693095D01*
X33037142Y31788333D01*
X32941904Y31835952D01*
X32799047Y31835952D01*
X32703809Y31883571D01*
X32656190Y31978809D01*
X32656190Y32026428D01*
X32703809Y32121666D01*
X32799047Y32169285D01*
X32941904Y32169285D01*
X33037142Y32121666D01*
X33941904Y31550238D02*
X33846666Y31502619D01*
X33656190Y31502619D01*
X33560952Y31550238D01*
X33513333Y31597857D01*
X33465714Y31693095D01*
X33465714Y31978809D01*
X33513333Y32074047D01*
X33560952Y32121666D01*
X33656190Y32169285D01*
X33846666Y32169285D01*
X33941904Y32121666D01*
X34751428Y31550238D02*
X34656190Y31502619D01*
X34465714Y31502619D01*
X34370476Y31550238D01*
X34322857Y31645476D01*
X34322857Y32026428D01*
X34370476Y32121666D01*
X34465714Y32169285D01*
X34656190Y32169285D01*
X34751428Y32121666D01*
X34799047Y32026428D01*
X34799047Y31931190D01*
X34322857Y31835952D01*
X35227619Y31502619D02*
X35227619Y32169285D01*
X35227619Y32502619D02*
X35180000Y32455000D01*
X35227619Y32407380D01*
X35275238Y32455000D01*
X35227619Y32502619D01*
X35227619Y32407380D01*
X35608571Y32169285D02*
X35846666Y31502619D01*
X36084761Y32169285D01*
X36846666Y31550238D02*
X36751428Y31502619D01*
X36560952Y31502619D01*
X36465714Y31550238D01*
X36418095Y31645476D01*
X36418095Y32026428D01*
X36465714Y32121666D01*
X36560952Y32169285D01*
X36751428Y32169285D01*
X36846666Y32121666D01*
X36894285Y32026428D01*
X36894285Y31931190D01*
X36418095Y31835952D01*
X37322857Y31502619D02*
X37322857Y32169285D01*
X37322857Y31978809D02*
X37370476Y32074047D01*
X37418095Y32121666D01*
X37513333Y32169285D01*
X37608571Y32169285D01*
%TO.C,JP2*%
X52202380Y63916666D02*
X52916666Y63916666D01*
X53059523Y63869047D01*
X53154761Y63773809D01*
X53202380Y63630952D01*
X53202380Y63535714D01*
X53202380Y64392857D02*
X52202380Y64392857D01*
X52202380Y64773809D01*
X52250000Y64869047D01*
X52297619Y64916666D01*
X52392857Y64964285D01*
X52535714Y64964285D01*
X52630952Y64916666D01*
X52678571Y64869047D01*
X52726190Y64773809D01*
X52726190Y64392857D01*
X52297619Y65345238D02*
X52250000Y65392857D01*
X52202380Y65488095D01*
X52202380Y65726190D01*
X52250000Y65821428D01*
X52297619Y65869047D01*
X52392857Y65916666D01*
X52488095Y65916666D01*
X52630952Y65869047D01*
X53202380Y65297619D01*
X53202380Y65916666D01*
%TO.C,SW1*%
X47399666Y57269038D02*
X47542523Y57221419D01*
X47780619Y57221419D01*
X47875857Y57269038D01*
X47923476Y57316657D01*
X47971095Y57411895D01*
X47971095Y57507133D01*
X47923476Y57602371D01*
X47875857Y57649990D01*
X47780619Y57697609D01*
X47590142Y57745228D01*
X47494904Y57792847D01*
X47447285Y57840466D01*
X47399666Y57935704D01*
X47399666Y58030942D01*
X47447285Y58126180D01*
X47494904Y58173800D01*
X47590142Y58221419D01*
X47828238Y58221419D01*
X47971095Y58173800D01*
X48304428Y58221419D02*
X48542523Y57221419D01*
X48733000Y57935704D01*
X48923476Y57221419D01*
X49161571Y58221419D01*
X50066333Y57221419D02*
X49494904Y57221419D01*
X49780619Y57221419D02*
X49780619Y58221419D01*
X49685380Y58078561D01*
X49590142Y57983323D01*
X49494904Y57935704D01*
%TO.C,J8*%
X39326666Y15917619D02*
X39326666Y15203333D01*
X39279047Y15060476D01*
X39183809Y14965238D01*
X39040952Y14917619D01*
X38945714Y14917619D01*
X39945714Y15489047D02*
X39850476Y15536666D01*
X39802857Y15584285D01*
X39755238Y15679523D01*
X39755238Y15727142D01*
X39802857Y15822380D01*
X39850476Y15870000D01*
X39945714Y15917619D01*
X40136190Y15917619D01*
X40231428Y15870000D01*
X40279047Y15822380D01*
X40326666Y15727142D01*
X40326666Y15679523D01*
X40279047Y15584285D01*
X40231428Y15536666D01*
X40136190Y15489047D01*
X39945714Y15489047D01*
X39850476Y15441428D01*
X39802857Y15393809D01*
X39755238Y15298571D01*
X39755238Y15108095D01*
X39802857Y15012857D01*
X39850476Y14965238D01*
X39945714Y14917619D01*
X40136190Y14917619D01*
X40231428Y14965238D01*
X40279047Y15012857D01*
X40326666Y15108095D01*
X40326666Y15298571D01*
X40279047Y15393809D01*
X40231428Y15441428D01*
X40136190Y15489047D01*
%TO.C,BT2*%
X1928571Y13294285D02*
X1976190Y13437142D01*
X2023809Y13484761D01*
X2119047Y13532380D01*
X2261904Y13532380D01*
X2357142Y13484761D01*
X2404761Y13437142D01*
X2452380Y13341904D01*
X2452380Y12960952D01*
X1452380Y12960952D01*
X1452380Y13294285D01*
X1500000Y13389523D01*
X1547619Y13437142D01*
X1642857Y13484761D01*
X1738095Y13484761D01*
X1833333Y13437142D01*
X1880952Y13389523D01*
X1928571Y13294285D01*
X1928571Y12960952D01*
X1452380Y13818095D02*
X1452380Y14389523D01*
X2452380Y14103809D02*
X1452380Y14103809D01*
X1547619Y14675238D02*
X1500000Y14722857D01*
X1452380Y14818095D01*
X1452380Y15056190D01*
X1500000Y15151428D01*
X1547619Y15199047D01*
X1642857Y15246666D01*
X1738095Y15246666D01*
X1880952Y15199047D01*
X2452380Y14627619D01*
X2452380Y15246666D01*
X11390228Y16017847D02*
X11390228Y16779752D01*
X11771180Y16398800D02*
X11009276Y16398800D01*
X13574628Y65852647D02*
X13574628Y66614552D01*
X11846980Y32462280D02*
X10846980Y32462280D01*
X11846980Y33033708D02*
X11275552Y32605137D01*
X10846980Y33033708D02*
X11418409Y32462280D01*
X11799361Y33843232D02*
X11846980Y33747994D01*
X11846980Y33557518D01*
X11799361Y33462280D01*
X11704123Y33414660D01*
X11323171Y33414660D01*
X11227933Y33462280D01*
X11180314Y33557518D01*
X11180314Y33747994D01*
X11227933Y33843232D01*
X11323171Y33890851D01*
X11418409Y33890851D01*
X11513647Y33414660D01*
X11180314Y34224184D02*
X11846980Y34462280D01*
X11180314Y34700375D02*
X11846980Y34462280D01*
X12085076Y34367041D01*
X12132695Y34319422D01*
X12180314Y34224184D01*
X11799361Y35033708D02*
X11846980Y35128946D01*
X11846980Y35319422D01*
X11799361Y35414660D01*
X11704123Y35462280D01*
X11656504Y35462280D01*
X11561266Y35414660D01*
X11513647Y35319422D01*
X11513647Y35176565D01*
X11466028Y35081327D01*
X11370790Y35033708D01*
X11323171Y35033708D01*
X11227933Y35081327D01*
X11180314Y35176565D01*
X11180314Y35319422D01*
X11227933Y35414660D01*
X11180314Y35747994D02*
X11180314Y36128946D01*
X10846980Y35890851D02*
X11704123Y35890851D01*
X11799361Y35938470D01*
X11846980Y36033708D01*
X11846980Y36128946D01*
X11846980Y36605137D02*
X11799361Y36509899D01*
X11751742Y36462280D01*
X11656504Y36414660D01*
X11370790Y36414660D01*
X11275552Y36462280D01*
X11227933Y36509899D01*
X11180314Y36605137D01*
X11180314Y36747994D01*
X11227933Y36843232D01*
X11275552Y36890851D01*
X11370790Y36938470D01*
X11656504Y36938470D01*
X11751742Y36890851D01*
X11799361Y36843232D01*
X11846980Y36747994D01*
X11846980Y36605137D01*
X11180314Y37367041D02*
X11846980Y37367041D01*
X11275552Y37367041D02*
X11227933Y37414660D01*
X11180314Y37509899D01*
X11180314Y37652756D01*
X11227933Y37747994D01*
X11323171Y37795613D01*
X11846980Y37795613D01*
X11799361Y38652756D02*
X11846980Y38557518D01*
X11846980Y38367041D01*
X11799361Y38271803D01*
X11704123Y38224184D01*
X11323171Y38224184D01*
X11227933Y38271803D01*
X11180314Y38367041D01*
X11180314Y38557518D01*
X11227933Y38652756D01*
X11323171Y38700375D01*
X11418409Y38700375D01*
X11513647Y38224184D01*
X10942219Y39843232D02*
X10894600Y39890851D01*
X10846980Y39986089D01*
X10846980Y40224184D01*
X10894600Y40319422D01*
X10942219Y40367041D01*
X11037457Y40414660D01*
X11132695Y40414660D01*
X11275552Y40367041D01*
X11846980Y39795613D01*
X11846980Y40414660D01*
X11180314Y41271803D02*
X11846980Y41271803D01*
X10799361Y41033708D02*
X11513647Y40795613D01*
X11513647Y41414660D01*
X10846980Y42224184D02*
X10846980Y42033708D01*
X10894600Y41938470D01*
X10942219Y41890851D01*
X11085076Y41795613D01*
X11275552Y41747994D01*
X11656504Y41747994D01*
X11751742Y41795613D01*
X11799361Y41843232D01*
X11846980Y41938470D01*
X11846980Y42128946D01*
X11799361Y42224184D01*
X11751742Y42271803D01*
X11656504Y42319422D01*
X11418409Y42319422D01*
X11323171Y42271803D01*
X11275552Y42224184D01*
X11227933Y42128946D01*
X11227933Y41938470D01*
X11275552Y41843232D01*
X11323171Y41795613D01*
X11418409Y41747994D01*
X10846980Y42938470D02*
X10846980Y43033708D01*
X10894600Y43128946D01*
X10942219Y43176565D01*
X11037457Y43224184D01*
X11227933Y43271803D01*
X11466028Y43271803D01*
X11656504Y43224184D01*
X11751742Y43176565D01*
X11799361Y43128946D01*
X11846980Y43033708D01*
X11846980Y42938470D01*
X11799361Y42843232D01*
X11751742Y42795613D01*
X11656504Y42747994D01*
X11466028Y42700375D01*
X11227933Y42700375D01*
X11037457Y42747994D01*
X10942219Y42795613D01*
X10894600Y42843232D01*
X10846980Y42938470D01*
X11846980Y44986089D02*
X11846980Y44414660D01*
X11846980Y44700375D02*
X10846980Y44700375D01*
X10989838Y44605137D01*
X11085076Y44509899D01*
X11132695Y44414660D01*
X11846980Y45319422D02*
X11180314Y45843232D01*
X11180314Y45319422D02*
X11846980Y45843232D01*
X11561266Y46176565D02*
X11561266Y46652756D01*
X11846980Y46081327D02*
X10846980Y46414660D01*
X11846980Y46747994D01*
X11561266Y47033708D02*
X11561266Y47509899D01*
X11846980Y46938470D02*
X10846980Y47271803D01*
X11846980Y47605137D01*
%TO.C,BT1*%
X72838571Y65374285D02*
X72886190Y65517142D01*
X72933809Y65564761D01*
X73029047Y65612380D01*
X73171904Y65612380D01*
X73267142Y65564761D01*
X73314761Y65517142D01*
X73362380Y65421904D01*
X73362380Y65040952D01*
X72362380Y65040952D01*
X72362380Y65374285D01*
X72410000Y65469523D01*
X72457619Y65517142D01*
X72552857Y65564761D01*
X72648095Y65564761D01*
X72743333Y65517142D01*
X72790952Y65469523D01*
X72838571Y65374285D01*
X72838571Y65040952D01*
X72362380Y65898095D02*
X72362380Y66469523D01*
X73362380Y66183809D02*
X72362380Y66183809D01*
X73362380Y67326666D02*
X73362380Y66755238D01*
X73362380Y67040952D02*
X72362380Y67040952D01*
X72505238Y66945714D01*
X72600476Y66850476D01*
X72648095Y66755238D01*
X65390628Y13985847D02*
X65390628Y14747752D01*
X63967780Y32777720D02*
X62967780Y32777720D01*
X63967780Y33349148D02*
X63396352Y32920577D01*
X62967780Y33349148D02*
X63539209Y32777720D01*
X63920161Y34158672D02*
X63967780Y34063434D01*
X63967780Y33872958D01*
X63920161Y33777720D01*
X63824923Y33730100D01*
X63443971Y33730100D01*
X63348733Y33777720D01*
X63301114Y33872958D01*
X63301114Y34063434D01*
X63348733Y34158672D01*
X63443971Y34206291D01*
X63539209Y34206291D01*
X63634447Y33730100D01*
X63301114Y34539624D02*
X63967780Y34777720D01*
X63301114Y35015815D02*
X63967780Y34777720D01*
X64205876Y34682481D01*
X64253495Y34634862D01*
X64301114Y34539624D01*
X63920161Y35349148D02*
X63967780Y35444386D01*
X63967780Y35634862D01*
X63920161Y35730100D01*
X63824923Y35777720D01*
X63777304Y35777720D01*
X63682066Y35730100D01*
X63634447Y35634862D01*
X63634447Y35492005D01*
X63586828Y35396767D01*
X63491590Y35349148D01*
X63443971Y35349148D01*
X63348733Y35396767D01*
X63301114Y35492005D01*
X63301114Y35634862D01*
X63348733Y35730100D01*
X63301114Y36063434D02*
X63301114Y36444386D01*
X62967780Y36206291D02*
X63824923Y36206291D01*
X63920161Y36253910D01*
X63967780Y36349148D01*
X63967780Y36444386D01*
X63967780Y36920577D02*
X63920161Y36825339D01*
X63872542Y36777720D01*
X63777304Y36730100D01*
X63491590Y36730100D01*
X63396352Y36777720D01*
X63348733Y36825339D01*
X63301114Y36920577D01*
X63301114Y37063434D01*
X63348733Y37158672D01*
X63396352Y37206291D01*
X63491590Y37253910D01*
X63777304Y37253910D01*
X63872542Y37206291D01*
X63920161Y37158672D01*
X63967780Y37063434D01*
X63967780Y36920577D01*
X63301114Y37682481D02*
X63967780Y37682481D01*
X63396352Y37682481D02*
X63348733Y37730100D01*
X63301114Y37825339D01*
X63301114Y37968196D01*
X63348733Y38063434D01*
X63443971Y38111053D01*
X63967780Y38111053D01*
X63920161Y38968196D02*
X63967780Y38872958D01*
X63967780Y38682481D01*
X63920161Y38587243D01*
X63824923Y38539624D01*
X63443971Y38539624D01*
X63348733Y38587243D01*
X63301114Y38682481D01*
X63301114Y38872958D01*
X63348733Y38968196D01*
X63443971Y39015815D01*
X63539209Y39015815D01*
X63634447Y38539624D01*
X63063019Y40158672D02*
X63015400Y40206291D01*
X62967780Y40301529D01*
X62967780Y40539624D01*
X63015400Y40634862D01*
X63063019Y40682481D01*
X63158257Y40730100D01*
X63253495Y40730100D01*
X63396352Y40682481D01*
X63967780Y40111053D01*
X63967780Y40730100D01*
X63301114Y41587243D02*
X63967780Y41587243D01*
X62920161Y41349148D02*
X63634447Y41111053D01*
X63634447Y41730100D01*
X62967780Y42539624D02*
X62967780Y42349148D01*
X63015400Y42253910D01*
X63063019Y42206291D01*
X63205876Y42111053D01*
X63396352Y42063434D01*
X63777304Y42063434D01*
X63872542Y42111053D01*
X63920161Y42158672D01*
X63967780Y42253910D01*
X63967780Y42444386D01*
X63920161Y42539624D01*
X63872542Y42587243D01*
X63777304Y42634862D01*
X63539209Y42634862D01*
X63443971Y42587243D01*
X63396352Y42539624D01*
X63348733Y42444386D01*
X63348733Y42253910D01*
X63396352Y42158672D01*
X63443971Y42111053D01*
X63539209Y42063434D01*
X62967780Y43253910D02*
X62967780Y43349148D01*
X63015400Y43444386D01*
X63063019Y43492005D01*
X63158257Y43539624D01*
X63348733Y43587243D01*
X63586828Y43587243D01*
X63777304Y43539624D01*
X63872542Y43492005D01*
X63920161Y43444386D01*
X63967780Y43349148D01*
X63967780Y43253910D01*
X63920161Y43158672D01*
X63872542Y43111053D01*
X63777304Y43063434D01*
X63586828Y43015815D01*
X63348733Y43015815D01*
X63158257Y43063434D01*
X63063019Y43111053D01*
X63015400Y43158672D01*
X62967780Y43253910D01*
X63967780Y45301529D02*
X63967780Y44730100D01*
X63967780Y45015815D02*
X62967780Y45015815D01*
X63110638Y44920577D01*
X63205876Y44825339D01*
X63253495Y44730100D01*
X63967780Y45634862D02*
X63301114Y46158672D01*
X63301114Y45634862D02*
X63967780Y46158672D01*
X63682066Y46492005D02*
X63682066Y46968196D01*
X63967780Y46396767D02*
X62967780Y46730100D01*
X63967780Y47063434D01*
X63682066Y47349148D02*
X63682066Y47825339D01*
X63967780Y47253910D02*
X62967780Y47587243D01*
X63967780Y47920577D01*
X65695428Y66005047D02*
X65695428Y66766952D01*
X66076380Y66386000D02*
X65314476Y66386000D01*
D14*
%TO.C,D1*%
X43970000Y72010000D02*
X43814000Y72010000D01*
X46286000Y72010000D02*
X46130000Y72010000D01*
X43814484Y72010000D02*
G75*
G03*
X43971392Y68777665I1235516J-1560000D01*
G01*
X43970000Y71490961D02*
G75*
G03*
X43970163Y69408870I1080000J-1040961D01*
G01*
X46129837Y69408870D02*
G75*
G03*
X46130000Y71490961I-1079837J1041130D01*
G01*
X46128608Y68777665D02*
G75*
G03*
X46285516Y72010000I-1078608J1672335D01*
G01*
%TO.C,J1*%
X44990000Y38065000D02*
X47650000Y38065000D01*
X44990000Y35465000D02*
X47650000Y35465000D01*
X44990000Y39335000D02*
X44990000Y40665000D01*
X44990000Y40665000D02*
X46320000Y40665000D01*
X47650000Y38065000D02*
X47650000Y35465000D01*
X44990000Y38065000D02*
X44990000Y35465000D01*
%TO.C,J2*%
X50070000Y35465000D02*
X52730000Y35465000D01*
X50070000Y38065000D02*
X50070000Y35465000D01*
X50070000Y39335000D02*
X50070000Y40665000D01*
X50070000Y38065000D02*
X52730000Y38065000D01*
X50070000Y40665000D02*
X51400000Y40665000D01*
X52730000Y38065000D02*
X52730000Y35465000D01*
%TO.C,J7*%
X36220000Y3080000D02*
X34890000Y3080000D01*
X36220000Y5680000D02*
X36220000Y13360000D01*
X36220000Y4410000D02*
X36220000Y3080000D01*
X33560000Y5680000D02*
X33560000Y13360000D01*
X36220000Y13360000D02*
X33560000Y13360000D01*
X36220000Y5680000D02*
X33560000Y5680000D01*
%TO.C,J3*%
X44990000Y50190000D02*
X46320000Y50190000D01*
X47650000Y47590000D02*
X47650000Y44990000D01*
X44990000Y47590000D02*
X44990000Y44990000D01*
X44990000Y47590000D02*
X47650000Y47590000D01*
X44990000Y48860000D02*
X44990000Y50190000D01*
X44990000Y44990000D02*
X47650000Y44990000D01*
%TO.C,J4*%
X50070000Y50190000D02*
X51400000Y50190000D01*
X52730000Y47590000D02*
X52730000Y44990000D01*
X50070000Y47590000D02*
X50070000Y44990000D01*
X50070000Y44990000D02*
X52730000Y44990000D01*
X50070000Y48860000D02*
X50070000Y50190000D01*
X50070000Y47590000D02*
X52730000Y47590000D01*
%TO.C,J5*%
X70510000Y6890000D02*
X70510000Y9550000D01*
X57750000Y6890000D02*
X57750000Y9550000D01*
X57750000Y6890000D02*
X70510000Y6890000D01*
X55150000Y6890000D02*
X55150000Y8220000D01*
X57750000Y9550000D02*
X70510000Y9550000D01*
X56480000Y6890000D02*
X55150000Y6890000D01*
%TO.C,J6*%
X26060000Y4410000D02*
X26060000Y3080000D01*
X26060000Y13360000D02*
X23400000Y13360000D01*
X23400000Y5680000D02*
X23400000Y13360000D01*
X26060000Y5680000D02*
X26060000Y13360000D01*
X26060000Y5680000D02*
X23400000Y5680000D01*
X26060000Y3080000D02*
X24730000Y3080000D01*
%TO.C,C1*%
X48862000Y22504000D02*
X47795000Y22504000D01*
X46115000Y23225000D02*
X44878000Y23225000D01*
X47619000Y21344000D02*
X46291000Y21344000D01*
X46115000Y22865000D02*
X44930000Y22865000D01*
X48507000Y21944000D02*
X47795000Y21944000D01*
X46115000Y22584000D02*
X45015000Y22584000D01*
X46115000Y22945000D02*
X44913000Y22945000D01*
X46115000Y23265000D02*
X44876000Y23265000D01*
X46115000Y22064000D02*
X45305000Y22064000D01*
X48574000Y22024000D02*
X47795000Y22024000D01*
X48351000Y21784000D02*
X47795000Y21784000D01*
X48825000Y22424000D02*
X47795000Y22424000D01*
X48259000Y21704000D02*
X45651000Y21704000D01*
X46115000Y22104000D02*
X45275000Y22104000D01*
X48763000Y22304000D02*
X47795000Y22304000D01*
X48035000Y21544000D02*
X45875000Y21544000D01*
X46115000Y21944000D02*
X45403000Y21944000D01*
X49032000Y23225000D02*
X47795000Y23225000D01*
X46115000Y22624000D02*
X45001000Y22624000D01*
X46115000Y21984000D02*
X45368000Y21984000D01*
X48635000Y22104000D02*
X47795000Y22104000D01*
X48690000Y22184000D02*
X47795000Y22184000D01*
X48949000Y22745000D02*
X47795000Y22745000D01*
X48879000Y22544000D02*
X47795000Y22544000D01*
X46115000Y22264000D02*
X45170000Y22264000D01*
X46115000Y22905000D02*
X44921000Y22905000D01*
X46115000Y22184000D02*
X45220000Y22184000D01*
X48960000Y22785000D02*
X47795000Y22785000D01*
X46115000Y22384000D02*
X45104000Y22384000D01*
X46115000Y22424000D02*
X45085000Y22424000D01*
X48715000Y22224000D02*
X47795000Y22224000D01*
X48971000Y22825000D02*
X47795000Y22825000D01*
X46115000Y22544000D02*
X45031000Y22544000D01*
X48350000Y25414801D02*
X47950000Y25414801D01*
X46115000Y23185000D02*
X44881000Y23185000D01*
X46115000Y23065000D02*
X44893000Y23065000D01*
X46115000Y22024000D02*
X45336000Y22024000D01*
X49035000Y23345000D02*
X47795000Y23345000D01*
X48433000Y21864000D02*
X47795000Y21864000D01*
X49011000Y23025000D02*
X47795000Y23025000D01*
X49022000Y23105000D02*
X47795000Y23105000D01*
X46115000Y22665000D02*
X44987000Y22665000D01*
X46115000Y21824000D02*
X45517000Y21824000D01*
X46115000Y22785000D02*
X44950000Y22785000D01*
X48605000Y22064000D02*
X47795000Y22064000D01*
X48844000Y22464000D02*
X47795000Y22464000D01*
X46115000Y22745000D02*
X44961000Y22745000D01*
X48937000Y22705000D02*
X47795000Y22705000D01*
X46115000Y23145000D02*
X44884000Y23145000D01*
X46115000Y23345000D02*
X44875000Y23345000D01*
X49029000Y23185000D02*
X47795000Y23185000D01*
X48997000Y22945000D02*
X47795000Y22945000D01*
X48155000Y21624000D02*
X45755000Y21624000D01*
X48980000Y22865000D02*
X47795000Y22865000D01*
X46115000Y22825000D02*
X44939000Y22825000D01*
X47325000Y21264000D02*
X46585000Y21264000D01*
X48393000Y21824000D02*
X47795000Y21824000D01*
X49026000Y23145000D02*
X47795000Y23145000D01*
X48740000Y22264000D02*
X47795000Y22264000D01*
X47895000Y21464000D02*
X46015000Y21464000D01*
X48097000Y21584000D02*
X45813000Y21584000D01*
X47968000Y21504000D02*
X45942000Y21504000D01*
X49017000Y23065000D02*
X47795000Y23065000D01*
X48923000Y22665000D02*
X47795000Y22665000D01*
X49034000Y23265000D02*
X47795000Y23265000D01*
X46115000Y23305000D02*
X44875000Y23305000D01*
X48895000Y22584000D02*
X47795000Y22584000D01*
X48150000Y25614801D02*
X48150000Y25214801D01*
X49005000Y22985000D02*
X47795000Y22985000D01*
X48542000Y21984000D02*
X47795000Y21984000D01*
X46115000Y21904000D02*
X45439000Y21904000D01*
X48989000Y22905000D02*
X47795000Y22905000D01*
X48306000Y21744000D02*
X45604000Y21744000D01*
X46115000Y22144000D02*
X45247000Y22144000D01*
X46115000Y23105000D02*
X44888000Y23105000D01*
X48209000Y21664000D02*
X45701000Y21664000D01*
X46115000Y21864000D02*
X45477000Y21864000D01*
X47814000Y21424000D02*
X46096000Y21424000D01*
X46115000Y22705000D02*
X44973000Y22705000D01*
X46115000Y22985000D02*
X44905000Y22985000D01*
X49035000Y23305000D02*
X47795000Y23305000D01*
X48663000Y22144000D02*
X47795000Y22144000D01*
X48909000Y22624000D02*
X47795000Y22624000D01*
X46115000Y22224000D02*
X45195000Y22224000D01*
X46115000Y23025000D02*
X44899000Y23025000D01*
X48806000Y22384000D02*
X47795000Y22384000D01*
X47723000Y21384000D02*
X46187000Y21384000D01*
X46115000Y22304000D02*
X45147000Y22304000D01*
X46115000Y22464000D02*
X45066000Y22464000D01*
X46115000Y21784000D02*
X45559000Y21784000D01*
X48471000Y21904000D02*
X47795000Y21904000D01*
X46115000Y22344000D02*
X45125000Y22344000D01*
X46115000Y22504000D02*
X45048000Y22504000D01*
X48785000Y22344000D02*
X47795000Y22344000D01*
X47492000Y21304000D02*
X46418000Y21304000D01*
X49075000Y23345000D02*
G75*
G03*
X49075000Y23345000I-2120000J0D01*
G01*
%TO.C,R4*%
X50130000Y29075000D02*
X50130000Y29005000D01*
X51500000Y30445000D02*
G75*
G03*
X51500000Y30445000I-1370000J0D01*
G01*
%TO.C,R5*%
X46320000Y29075000D02*
X46320000Y29005000D01*
X47690000Y30445000D02*
G75*
G03*
X47690000Y30445000I-1370000J0D01*
G01*
%TO.C,R1*%
X45050000Y64635000D02*
X45050000Y64565000D01*
X46420000Y66005000D02*
G75*
G03*
X46420000Y66005000I-1370000J0D01*
G01*
%TO.C,R3*%
X17010000Y8220000D02*
X16940000Y8220000D01*
X19750000Y8220000D02*
G75*
G03*
X19750000Y8220000I-1370000J0D01*
G01*
%TO.C,Q1*%
X10249000Y8871000D02*
X10522000Y8871000D01*
X12650000Y9610000D02*
X12650000Y7070000D01*
X5830000Y9610000D02*
X5830000Y7070000D01*
X5830000Y8871000D02*
X5941000Y8871000D01*
X12539000Y8871000D02*
X12650000Y8871000D01*
X5830000Y9610000D02*
X12650000Y9610000D01*
X7959000Y8871000D02*
X8232000Y8871000D01*
X5830000Y7070000D02*
X12650000Y7070000D01*
%TO.C,J9*%
X51460000Y4410000D02*
X51460000Y3080000D01*
X51460000Y5680000D02*
X51460000Y13360000D01*
X51460000Y5680000D02*
X48800000Y5680000D01*
X48800000Y5680000D02*
X48800000Y13360000D01*
X51460000Y13360000D02*
X48800000Y13360000D01*
X51460000Y3080000D02*
X50130000Y3080000D01*
%TO.C,J10*%
X66259000Y70326500D02*
X66259000Y72986500D01*
X66259000Y70326500D02*
X71399000Y70326500D01*
X63659000Y70326500D02*
X63659000Y71656500D01*
X71399000Y70326500D02*
X71399000Y72986500D01*
X66259000Y72986500D02*
X71399000Y72986500D01*
X64989000Y70326500D02*
X63659000Y70326500D01*
D11*
%TO.C,Module2*%
X23460000Y74260000D02*
X23460000Y41240000D01*
X33239000Y66767000D02*
X28159000Y66767000D01*
X41240000Y41240000D02*
X41240000Y74260000D01*
D14*
X37397000Y55718000D02*
X27397000Y55718000D01*
X37430000Y45685000D02*
X27430000Y45685000D01*
X37430000Y45685000D02*
X37397000Y55685000D01*
D11*
X23460000Y41240000D02*
X41240000Y41240000D01*
D14*
X27430000Y45685000D02*
X27397000Y55685000D01*
D11*
X33239000Y64227000D02*
X33239000Y66767000D01*
X41240000Y74260000D02*
X23460000Y74260000D01*
D14*
X29810000Y62640000D02*
X33366000Y62640000D01*
D11*
X28159000Y66767000D02*
X28159000Y64227000D01*
D14*
X29810000Y58639000D02*
X33366000Y58639000D01*
D11*
X28159000Y64227000D02*
X33239000Y64227000D01*
D14*
X33366000Y58640000D02*
G75*
G03*
X33366000Y62640000I0J2000000D01*
G01*
X29810000Y62640000D02*
G75*
G03*
X29810000Y58640000I0J-2000000D01*
G01*
D11*
X34255000Y72990000D02*
G75*
G03*
X34255000Y72990000I-635000J0D01*
G01*
X31715000Y72990000D02*
G75*
G03*
X31715000Y72990000I-635000J0D01*
G01*
D14*
X38065000Y61560000D02*
G75*
G03*
X38065000Y61560000I-635000J0D01*
G01*
D11*
X29175000Y72990000D02*
G75*
G03*
X29175000Y72990000I-635000J0D01*
G01*
D14*
X38065000Y59020000D02*
G75*
G03*
X38065000Y59020000I-635000J0D01*
G01*
D11*
X39335000Y72990000D02*
G75*
G03*
X39335000Y72990000I-635000J0D01*
G01*
X26635000Y72990000D02*
G75*
G03*
X26635000Y72990000I-635000J0D01*
G01*
X36795000Y72990000D02*
G75*
G03*
X36795000Y72990000I-635000J0D01*
G01*
%TO.C,Module1*%
X42280000Y21555000D02*
X21580000Y21555000D01*
X21580000Y38555000D02*
X42280000Y38555000D01*
X42280000Y21555000D02*
X42280000Y22055000D01*
X21580000Y21555000D02*
X21580000Y38555000D01*
X42280000Y38555000D02*
X42280000Y38055000D01*
X23780000Y33555000D02*
G75*
G03*
X23780000Y33555000I-500000J0D01*
G01*
D14*
X24861139Y31055000D02*
G75*
G03*
X24861139Y31055000I-1581139J0D01*
G01*
D11*
X23780000Y28555000D02*
G75*
G03*
X23780000Y28555000I-500000J0D01*
G01*
D14*
%TO.C,JP2*%
X51257000Y63350000D02*
X49257000Y63350000D01*
X49257000Y63350000D02*
X49257000Y66150000D01*
X51257000Y66150000D02*
X51257000Y63350000D01*
X49257000Y66150000D02*
X51257000Y66150000D01*
%TO.C,SW1*%
X45435000Y58155000D02*
X45435000Y56655000D01*
X51185000Y60655000D02*
X46685000Y60655000D01*
X46685000Y54155000D02*
X51185000Y54155000D01*
X52435000Y56655000D02*
X52435000Y58155000D01*
%TO.C,J8*%
X41300000Y5680000D02*
X41300000Y13360000D01*
X41300000Y3080000D02*
X39970000Y3080000D01*
X38640000Y5680000D02*
X38640000Y13360000D01*
X41300000Y5680000D02*
X38640000Y5680000D01*
X41300000Y13360000D02*
X38640000Y13360000D01*
X41300000Y4410000D02*
X41300000Y3080000D01*
%TO.C,LOGO1*%
G36*
X14765368Y52150016D02*
G01*
X14535914Y52170045D01*
X14329014Y52213987D01*
X14137979Y52284269D01*
X14069202Y52321729D01*
X13956123Y52383319D01*
X13787302Y52505043D01*
X13764950Y52525446D01*
X14398225Y52525446D01*
X14398300Y52525079D01*
X14424329Y52509594D01*
X14478686Y52493846D01*
X14553442Y52479123D01*
X14640675Y52466712D01*
X14732456Y52457899D01*
X14820861Y52453974D01*
X14836653Y52453886D01*
X15013028Y52462432D01*
X15169411Y52489328D01*
X15318643Y52537478D01*
X15431786Y52588379D01*
X15630105Y52705747D01*
X15801745Y52847631D01*
X15947399Y53014726D01*
X16067761Y53207726D01*
X16086654Y53244985D01*
X16137919Y53356604D01*
X16174444Y53456625D01*
X16198190Y53555093D01*
X16211115Y53662052D01*
X16215182Y53787548D01*
X16213701Y53895928D01*
X16209462Y54011783D01*
X16202873Y54100421D01*
X16192794Y54170889D01*
X16178087Y54232236D01*
X16166897Y54267465D01*
X16102043Y54432452D01*
X16025601Y54575614D01*
X15930262Y54708674D01*
X15808717Y54843352D01*
X15806105Y54846005D01*
X15724668Y54924337D01*
X15650668Y54987461D01*
X15588215Y55032432D01*
X15541421Y55056307D01*
X15514396Y55056142D01*
X15513619Y55055431D01*
X15501732Y55034710D01*
X15478544Y54987457D01*
X15447012Y54920282D01*
X15410097Y54839792D01*
X15370758Y54752595D01*
X15331955Y54665300D01*
X15296646Y54584516D01*
X15267792Y54516849D01*
X15248352Y54468909D01*
X15241286Y54447347D01*
X15256531Y54433463D01*
X15293726Y54416458D01*
X15298635Y54414700D01*
X15397238Y54361869D01*
X15482617Y54279408D01*
X15550175Y54172931D01*
X15593775Y54054208D01*
X15615694Y53968500D01*
X15741454Y53966376D01*
X15867214Y53964253D01*
X15867214Y53768928D01*
X15608660Y53758358D01*
X15596589Y53651666D01*
X15575440Y53556675D01*
X15535814Y53451910D01*
X15484683Y53353461D01*
X15439597Y53289366D01*
X15402461Y53245231D01*
X15281841Y53365851D01*
X15161222Y53486471D01*
X15200367Y53528140D01*
X15250820Y53599844D01*
X15288262Y53688433D01*
X15311079Y53784297D01*
X15317657Y53877826D01*
X15306382Y53959408D01*
X15281629Y54012083D01*
X15253061Y54041772D01*
X15216767Y54055706D01*
X15158737Y54059214D01*
X15157720Y54059214D01*
X15103130Y54057109D01*
X15071513Y54046140D01*
X15049605Y54019323D01*
X15037102Y53995714D01*
X15012646Y53944855D01*
X14977905Y53869545D01*
X14934654Y53773873D01*
X14884670Y53661926D01*
X14829728Y53537793D01*
X14771603Y53405560D01*
X14712071Y53269315D01*
X14652907Y53133145D01*
X14595887Y53001140D01*
X14542787Y52877385D01*
X14495382Y52765969D01*
X14455448Y52670980D01*
X14424760Y52596505D01*
X14405094Y52546631D01*
X14398225Y52525446D01*
X13764950Y52525446D01*
X13626592Y52651739D01*
X13482384Y52818283D01*
X13359939Y52997318D01*
X13264517Y53181489D01*
X13220319Y53297846D01*
X13163936Y53527949D01*
X13140212Y53757563D01*
X13449022Y53757563D01*
X13479881Y53544415D01*
X13542022Y53338661D01*
X13634989Y53145866D01*
X13652688Y53116601D01*
X13691976Y53060957D01*
X13745620Y52994994D01*
X13808270Y52924194D01*
X13874576Y52854044D01*
X13939187Y52790028D01*
X13996754Y52737631D01*
X14041925Y52702338D01*
X14069202Y52689630D01*
X14085931Y52705166D01*
X14110615Y52745722D01*
X14137932Y52802544D01*
X14138139Y52803022D01*
X14165798Y52866491D01*
X14202991Y52951129D01*
X14244452Y53044976D01*
X14277920Y53120374D01*
X14368776Y53324534D01*
X14296787Y53361260D01*
X14208738Y53426479D01*
X14138984Y53522788D01*
X14087778Y53649796D01*
X14072355Y53709964D01*
X14064755Y53736079D01*
X14050700Y53750997D01*
X14021547Y53757850D01*
X13968657Y53759769D01*
X13934654Y53759857D01*
X13808000Y53759857D01*
X13808000Y53959428D01*
X14060356Y53959428D01*
X14071508Y54027464D01*
X14090662Y54110114D01*
X14120024Y54198444D01*
X14154534Y54279314D01*
X14189133Y54339584D01*
X14194297Y54346385D01*
X14234357Y54396383D01*
X14450463Y54177621D01*
X14408717Y54091696D01*
X14374182Y53999013D01*
X14358011Y53906475D01*
X14359488Y53820922D01*
X14377896Y53749195D01*
X14412519Y53698134D01*
X14452204Y53676560D01*
X14493064Y53672920D01*
X14515973Y53680450D01*
X14526779Y53700220D01*
X14550267Y53749075D01*
X14584610Y53822903D01*
X14627976Y53917596D01*
X14678538Y54029046D01*
X14734464Y54153142D01*
X14793927Y54285775D01*
X14855096Y54422837D01*
X14916142Y54560218D01*
X14975236Y54693809D01*
X15030547Y54819501D01*
X15080248Y54933184D01*
X15122508Y55030750D01*
X15155498Y55108089D01*
X15177388Y55161091D01*
X15186349Y55185649D01*
X15186469Y55186492D01*
X15171183Y55204742D01*
X15136964Y55217829D01*
X14974735Y55240011D01*
X14796093Y55242527D01*
X14614588Y55226174D01*
X14443770Y55191753D01*
X14382069Y55173303D01*
X14209202Y55098341D01*
X14041790Y54992572D01*
X13885628Y54861473D01*
X13746512Y54710522D01*
X13630238Y54545195D01*
X13548693Y54385748D01*
X13482972Y54183792D01*
X13449900Y53972543D01*
X13449022Y53757563D01*
X13140212Y53757563D01*
X13139410Y53765329D01*
X13146048Y54004497D01*
X13183157Y54239964D01*
X13250043Y54466241D01*
X13346012Y54677838D01*
X13407755Y54781126D01*
X13558803Y54980099D01*
X13733231Y55152477D01*
X13928674Y55296565D01*
X14142767Y55410670D01*
X14373145Y55493097D01*
X14418017Y55504902D01*
X14561181Y55530828D01*
X14725654Y55544851D01*
X14898642Y55546966D01*
X15067350Y55537170D01*
X15218984Y55515455D01*
X15264896Y55505228D01*
X15485014Y55435023D01*
X15685150Y55337718D01*
X15870302Y55210384D01*
X16045468Y55050096D01*
X16049952Y55045444D01*
X16195149Y54879178D01*
X16310251Y54711865D01*
X16400649Y54534883D01*
X16450876Y54404276D01*
X16511526Y54175011D01*
X16541256Y53937941D01*
X16539379Y53701738D01*
X16519000Y53542143D01*
X16460381Y53316831D01*
X16369550Y53100807D01*
X16249774Y52897824D01*
X16104321Y52711631D01*
X15936458Y52545980D01*
X15749453Y52404622D01*
X15546574Y52291308D01*
X15368286Y52221183D01*
X15253110Y52187458D01*
X15147330Y52164760D01*
X15039805Y52151773D01*
X14919390Y52147183D01*
X14836653Y52148609D01*
X14774944Y52149673D01*
X14765368Y52150016D01*
G37*
D15*
X14765368Y52150016D02*
X14535914Y52170045D01*
X14329014Y52213987D01*
X14137979Y52284269D01*
X14069202Y52321729D01*
X13956123Y52383319D01*
X13787302Y52505043D01*
X13764950Y52525446D01*
X14398225Y52525446D01*
X14398300Y52525079D01*
X14424329Y52509594D01*
X14478686Y52493846D01*
X14553442Y52479123D01*
X14640675Y52466712D01*
X14732456Y52457899D01*
X14820861Y52453974D01*
X14836653Y52453886D01*
X15013028Y52462432D01*
X15169411Y52489328D01*
X15318643Y52537478D01*
X15431786Y52588379D01*
X15630105Y52705747D01*
X15801745Y52847631D01*
X15947399Y53014726D01*
X16067761Y53207726D01*
X16086654Y53244985D01*
X16137919Y53356604D01*
X16174444Y53456625D01*
X16198190Y53555093D01*
X16211115Y53662052D01*
X16215182Y53787548D01*
X16213701Y53895928D01*
X16209462Y54011783D01*
X16202873Y54100421D01*
X16192794Y54170889D01*
X16178087Y54232236D01*
X16166897Y54267465D01*
X16102043Y54432452D01*
X16025601Y54575614D01*
X15930262Y54708674D01*
X15808717Y54843352D01*
X15806105Y54846005D01*
X15724668Y54924337D01*
X15650668Y54987461D01*
X15588215Y55032432D01*
X15541421Y55056307D01*
X15514396Y55056142D01*
X15513619Y55055431D01*
X15501732Y55034710D01*
X15478544Y54987457D01*
X15447012Y54920282D01*
X15410097Y54839792D01*
X15370758Y54752595D01*
X15331955Y54665300D01*
X15296646Y54584516D01*
X15267792Y54516849D01*
X15248352Y54468909D01*
X15241286Y54447347D01*
X15256531Y54433463D01*
X15293726Y54416458D01*
X15298635Y54414700D01*
X15397238Y54361869D01*
X15482617Y54279408D01*
X15550175Y54172931D01*
X15593775Y54054208D01*
X15615694Y53968500D01*
X15741454Y53966376D01*
X15867214Y53964253D01*
X15867214Y53768928D01*
X15608660Y53758358D01*
X15596589Y53651666D01*
X15575440Y53556675D01*
X15535814Y53451910D01*
X15484683Y53353461D01*
X15439597Y53289366D01*
X15402461Y53245231D01*
X15281841Y53365851D01*
X15161222Y53486471D01*
X15200367Y53528140D01*
X15250820Y53599844D01*
X15288262Y53688433D01*
X15311079Y53784297D01*
X15317657Y53877826D01*
X15306382Y53959408D01*
X15281629Y54012083D01*
X15253061Y54041772D01*
X15216767Y54055706D01*
X15158737Y54059214D01*
X15157720Y54059214D01*
X15103130Y54057109D01*
X15071513Y54046140D01*
X15049605Y54019323D01*
X15037102Y53995714D01*
X15012646Y53944855D01*
X14977905Y53869545D01*
X14934654Y53773873D01*
X14884670Y53661926D01*
X14829728Y53537793D01*
X14771603Y53405560D01*
X14712071Y53269315D01*
X14652907Y53133145D01*
X14595887Y53001140D01*
X14542787Y52877385D01*
X14495382Y52765969D01*
X14455448Y52670980D01*
X14424760Y52596505D01*
X14405094Y52546631D01*
X14398225Y52525446D01*
X13764950Y52525446D01*
X13626592Y52651739D01*
X13482384Y52818283D01*
X13359939Y52997318D01*
X13264517Y53181489D01*
X13220319Y53297846D01*
X13163936Y53527949D01*
X13140212Y53757563D01*
X13449022Y53757563D01*
X13479881Y53544415D01*
X13542022Y53338661D01*
X13634989Y53145866D01*
X13652688Y53116601D01*
X13691976Y53060957D01*
X13745620Y52994994D01*
X13808270Y52924194D01*
X13874576Y52854044D01*
X13939187Y52790028D01*
X13996754Y52737631D01*
X14041925Y52702338D01*
X14069202Y52689630D01*
X14085931Y52705166D01*
X14110615Y52745722D01*
X14137932Y52802544D01*
X14138139Y52803022D01*
X14165798Y52866491D01*
X14202991Y52951129D01*
X14244452Y53044976D01*
X14277920Y53120374D01*
X14368776Y53324534D01*
X14296787Y53361260D01*
X14208738Y53426479D01*
X14138984Y53522788D01*
X14087778Y53649796D01*
X14072355Y53709964D01*
X14064755Y53736079D01*
X14050700Y53750997D01*
X14021547Y53757850D01*
X13968657Y53759769D01*
X13934654Y53759857D01*
X13808000Y53759857D01*
X13808000Y53959428D01*
X14060356Y53959428D01*
X14071508Y54027464D01*
X14090662Y54110114D01*
X14120024Y54198444D01*
X14154534Y54279314D01*
X14189133Y54339584D01*
X14194297Y54346385D01*
X14234357Y54396383D01*
X14450463Y54177621D01*
X14408717Y54091696D01*
X14374182Y53999013D01*
X14358011Y53906475D01*
X14359488Y53820922D01*
X14377896Y53749195D01*
X14412519Y53698134D01*
X14452204Y53676560D01*
X14493064Y53672920D01*
X14515973Y53680450D01*
X14526779Y53700220D01*
X14550267Y53749075D01*
X14584610Y53822903D01*
X14627976Y53917596D01*
X14678538Y54029046D01*
X14734464Y54153142D01*
X14793927Y54285775D01*
X14855096Y54422837D01*
X14916142Y54560218D01*
X14975236Y54693809D01*
X15030547Y54819501D01*
X15080248Y54933184D01*
X15122508Y55030750D01*
X15155498Y55108089D01*
X15177388Y55161091D01*
X15186349Y55185649D01*
X15186469Y55186492D01*
X15171183Y55204742D01*
X15136964Y55217829D01*
X14974735Y55240011D01*
X14796093Y55242527D01*
X14614588Y55226174D01*
X14443770Y55191753D01*
X14382069Y55173303D01*
X14209202Y55098341D01*
X14041790Y54992572D01*
X13885628Y54861473D01*
X13746512Y54710522D01*
X13630238Y54545195D01*
X13548693Y54385748D01*
X13482972Y54183792D01*
X13449900Y53972543D01*
X13449022Y53757563D01*
X13140212Y53757563D01*
X13139410Y53765329D01*
X13146048Y54004497D01*
X13183157Y54239964D01*
X13250043Y54466241D01*
X13346012Y54677838D01*
X13407755Y54781126D01*
X13558803Y54980099D01*
X13733231Y55152477D01*
X13928674Y55296565D01*
X14142767Y55410670D01*
X14373145Y55493097D01*
X14418017Y55504902D01*
X14561181Y55530828D01*
X14725654Y55544851D01*
X14898642Y55546966D01*
X15067350Y55537170D01*
X15218984Y55515455D01*
X15264896Y55505228D01*
X15485014Y55435023D01*
X15685150Y55337718D01*
X15870302Y55210384D01*
X16045468Y55050096D01*
X16049952Y55045444D01*
X16195149Y54879178D01*
X16310251Y54711865D01*
X16400649Y54534883D01*
X16450876Y54404276D01*
X16511526Y54175011D01*
X16541256Y53937941D01*
X16539379Y53701738D01*
X16519000Y53542143D01*
X16460381Y53316831D01*
X16369550Y53100807D01*
X16249774Y52897824D01*
X16104321Y52711631D01*
X15936458Y52545980D01*
X15749453Y52404622D01*
X15546574Y52291308D01*
X15368286Y52221183D01*
X15253110Y52187458D01*
X15147330Y52164760D01*
X15039805Y52151773D01*
X14919390Y52147183D01*
X14836653Y52148609D01*
X14774944Y52149673D01*
X14765368Y52150016D01*
G36*
X15125789Y47472219D02*
G01*
X15165255Y47445568D01*
X15211528Y47402547D01*
X15257616Y47349839D01*
X15296524Y47294128D01*
X15304114Y47280874D01*
X15344178Y47175954D01*
X15363238Y47055212D01*
X15360033Y46933270D01*
X15341493Y46847428D01*
X15287284Y46737460D01*
X15202930Y46646355D01*
X15101249Y46581622D01*
X15042917Y46555730D01*
X14989976Y46540455D01*
X14928803Y46533166D01*
X14845776Y46531228D01*
X14840534Y46531224D01*
X14757801Y46532745D01*
X14697821Y46539148D01*
X14647127Y46553194D01*
X14592247Y46577646D01*
X14577301Y46585193D01*
X14473219Y46655604D01*
X14391783Y46746132D01*
X14339076Y46849677D01*
X14332640Y46870870D01*
X14317714Y46966830D01*
X14318204Y47074862D01*
X14332754Y47181450D01*
X14360007Y47273076D01*
X14376349Y47306331D01*
X14414177Y47360885D01*
X14458834Y47411012D01*
X14502907Y47449919D01*
X14538981Y47470816D01*
X14555937Y47470835D01*
X14571341Y47450869D01*
X14596670Y47407999D01*
X14622770Y47358642D01*
X14674729Y47255643D01*
X14630347Y47222224D01*
X14591634Y47182186D01*
X14558273Y47130664D01*
X14556779Y47127603D01*
X14539370Y47052501D01*
X14552713Y46976906D01*
X14593468Y46912134D01*
X14628756Y46883735D01*
X14716561Y46847796D01*
X14816552Y46834409D01*
X14917932Y46842706D01*
X15009902Y46871818D01*
X15080867Y46920075D01*
X15112969Y46958600D01*
X15128281Y47000032D01*
X15132413Y47060267D01*
X15132429Y47066140D01*
X15129564Y47125973D01*
X15116248Y47166487D01*
X15085400Y47204494D01*
X15066382Y47222934D01*
X15000335Y47285224D01*
X15042826Y47375946D01*
X15068896Y47427810D01*
X15090765Y47464732D01*
X15100124Y47475817D01*
X15125789Y47472219D01*
G37*
X15125789Y47472219D02*
X15165255Y47445568D01*
X15211528Y47402547D01*
X15257616Y47349839D01*
X15296524Y47294128D01*
X15304114Y47280874D01*
X15344178Y47175954D01*
X15363238Y47055212D01*
X15360033Y46933270D01*
X15341493Y46847428D01*
X15287284Y46737460D01*
X15202930Y46646355D01*
X15101249Y46581622D01*
X15042917Y46555730D01*
X14989976Y46540455D01*
X14928803Y46533166D01*
X14845776Y46531228D01*
X14840534Y46531224D01*
X14757801Y46532745D01*
X14697821Y46539148D01*
X14647127Y46553194D01*
X14592247Y46577646D01*
X14577301Y46585193D01*
X14473219Y46655604D01*
X14391783Y46746132D01*
X14339076Y46849677D01*
X14332640Y46870870D01*
X14317714Y46966830D01*
X14318204Y47074862D01*
X14332754Y47181450D01*
X14360007Y47273076D01*
X14376349Y47306331D01*
X14414177Y47360885D01*
X14458834Y47411012D01*
X14502907Y47449919D01*
X14538981Y47470816D01*
X14555937Y47470835D01*
X14571341Y47450869D01*
X14596670Y47407999D01*
X14622770Y47358642D01*
X14674729Y47255643D01*
X14630347Y47222224D01*
X14591634Y47182186D01*
X14558273Y47130664D01*
X14556779Y47127603D01*
X14539370Y47052501D01*
X14552713Y46976906D01*
X14593468Y46912134D01*
X14628756Y46883735D01*
X14716561Y46847796D01*
X14816552Y46834409D01*
X14917932Y46842706D01*
X15009902Y46871818D01*
X15080867Y46920075D01*
X15112969Y46958600D01*
X15128281Y47000032D01*
X15132413Y47060267D01*
X15132429Y47066140D01*
X15129564Y47125973D01*
X15116248Y47166487D01*
X15085400Y47204494D01*
X15066382Y47222934D01*
X15000335Y47285224D01*
X15042826Y47375946D01*
X15068896Y47427810D01*
X15090765Y47464732D01*
X15100124Y47475817D01*
X15125789Y47472219D01*
G36*
X14375369Y55868255D02*
G01*
X14163134Y55943430D01*
X13960355Y56051396D01*
X13776196Y56182697D01*
X13595335Y56349783D01*
X13443266Y56537058D01*
X13320881Y56741512D01*
X13229075Y56960129D01*
X13168741Y57189899D01*
X13140773Y57427807D01*
X13142681Y57515428D01*
X13455587Y57515428D01*
X13462808Y57338795D01*
X13486423Y57184248D01*
X13529180Y57040251D01*
X13593827Y56895269D01*
X13611158Y56862285D01*
X13727579Y56682817D01*
X13872706Y56520049D01*
X14041062Y56378505D01*
X14227172Y56262708D01*
X14425559Y56177180D01*
X14450562Y56168965D01*
X14559226Y56143811D01*
X14690551Y56127756D01*
X14831953Y56121254D01*
X14970854Y56124758D01*
X15094671Y56138720D01*
X15125355Y56144659D01*
X15328650Y56206645D01*
X15519355Y56299913D01*
X15694200Y56420897D01*
X15849918Y56566033D01*
X15983241Y56731755D01*
X16090900Y56914498D01*
X16169626Y57110698D01*
X16216153Y57316789D01*
X16218872Y57337499D01*
X16227679Y57495350D01*
X16219219Y57664778D01*
X16194751Y57826203D01*
X16184751Y57869071D01*
X16119399Y58056878D01*
X16022982Y58239622D01*
X15900679Y58410435D01*
X15757665Y58562449D01*
X15599117Y58688794D01*
X15537739Y58727552D01*
X15357659Y58813562D01*
X15159649Y58872816D01*
X14951345Y58904311D01*
X14740381Y58907043D01*
X14534390Y58880007D01*
X14478256Y58866866D01*
X14288423Y58799893D01*
X14106592Y58701334D01*
X13938402Y58575816D01*
X13789493Y58427960D01*
X13665504Y58262392D01*
X13600973Y58147519D01*
X13541244Y58017285D01*
X13499740Y57902460D01*
X13473564Y57790443D01*
X13459817Y57668632D01*
X13455600Y57524424D01*
X13455587Y57515428D01*
X13142681Y57515428D01*
X13146065Y57670842D01*
X13185510Y57915989D01*
X13222091Y58050643D01*
X13309062Y58269262D01*
X13428316Y58474607D01*
X13577223Y58663296D01*
X13753156Y58831945D01*
X13931007Y58962883D01*
X14132405Y59071921D01*
X14349126Y59150769D01*
X14576417Y59199461D01*
X14809521Y59218029D01*
X15043682Y59206508D01*
X15274144Y59164931D01*
X15496153Y59093330D01*
X15704951Y58991740D01*
X15772698Y58949976D01*
X15953568Y58811165D01*
X16117309Y58644386D01*
X16259725Y58455571D01*
X16376615Y58250655D01*
X16463782Y58035573D01*
X16493753Y57930782D01*
X16524578Y57763154D01*
X16539724Y57581777D01*
X16538879Y57400261D01*
X16521733Y57232217D01*
X16511012Y57175340D01*
X16445211Y56941487D01*
X16353022Y56729088D01*
X16231644Y56533181D01*
X16078278Y56348806D01*
X16000054Y56270165D01*
X15809678Y56111735D01*
X15604431Y55986368D01*
X15384879Y55894291D01*
X15151589Y55835730D01*
X14905130Y55810911D01*
X14846240Y55810000D01*
X14831953Y55810835D01*
X14601568Y55824302D01*
X14375369Y55868255D01*
G37*
X14375369Y55868255D02*
X14163134Y55943430D01*
X13960355Y56051396D01*
X13776196Y56182697D01*
X13595335Y56349783D01*
X13443266Y56537058D01*
X13320881Y56741512D01*
X13229075Y56960129D01*
X13168741Y57189899D01*
X13140773Y57427807D01*
X13142681Y57515428D01*
X13455587Y57515428D01*
X13462808Y57338795D01*
X13486423Y57184248D01*
X13529180Y57040251D01*
X13593827Y56895269D01*
X13611158Y56862285D01*
X13727579Y56682817D01*
X13872706Y56520049D01*
X14041062Y56378505D01*
X14227172Y56262708D01*
X14425559Y56177180D01*
X14450562Y56168965D01*
X14559226Y56143811D01*
X14690551Y56127756D01*
X14831953Y56121254D01*
X14970854Y56124758D01*
X15094671Y56138720D01*
X15125355Y56144659D01*
X15328650Y56206645D01*
X15519355Y56299913D01*
X15694200Y56420897D01*
X15849918Y56566033D01*
X15983241Y56731755D01*
X16090900Y56914498D01*
X16169626Y57110698D01*
X16216153Y57316789D01*
X16218872Y57337499D01*
X16227679Y57495350D01*
X16219219Y57664778D01*
X16194751Y57826203D01*
X16184751Y57869071D01*
X16119399Y58056878D01*
X16022982Y58239622D01*
X15900679Y58410435D01*
X15757665Y58562449D01*
X15599117Y58688794D01*
X15537739Y58727552D01*
X15357659Y58813562D01*
X15159649Y58872816D01*
X14951345Y58904311D01*
X14740381Y58907043D01*
X14534390Y58880007D01*
X14478256Y58866866D01*
X14288423Y58799893D01*
X14106592Y58701334D01*
X13938402Y58575816D01*
X13789493Y58427960D01*
X13665504Y58262392D01*
X13600973Y58147519D01*
X13541244Y58017285D01*
X13499740Y57902460D01*
X13473564Y57790443D01*
X13459817Y57668632D01*
X13455600Y57524424D01*
X13455587Y57515428D01*
X13142681Y57515428D01*
X13146065Y57670842D01*
X13185510Y57915989D01*
X13222091Y58050643D01*
X13309062Y58269262D01*
X13428316Y58474607D01*
X13577223Y58663296D01*
X13753156Y58831945D01*
X13931007Y58962883D01*
X14132405Y59071921D01*
X14349126Y59150769D01*
X14576417Y59199461D01*
X14809521Y59218029D01*
X15043682Y59206508D01*
X15274144Y59164931D01*
X15496153Y59093330D01*
X15704951Y58991740D01*
X15772698Y58949976D01*
X15953568Y58811165D01*
X16117309Y58644386D01*
X16259725Y58455571D01*
X16376615Y58250655D01*
X16463782Y58035573D01*
X16493753Y57930782D01*
X16524578Y57763154D01*
X16539724Y57581777D01*
X16538879Y57400261D01*
X16521733Y57232217D01*
X16511012Y57175340D01*
X16445211Y56941487D01*
X16353022Y56729088D01*
X16231644Y56533181D01*
X16078278Y56348806D01*
X16000054Y56270165D01*
X15809678Y56111735D01*
X15604431Y55986368D01*
X15384879Y55894291D01*
X15151589Y55835730D01*
X14905130Y55810911D01*
X14846240Y55810000D01*
X14831953Y55810835D01*
X14601568Y55824302D01*
X14375369Y55868255D01*
G36*
X14459259Y44849524D02*
G01*
X14233279Y44919141D01*
X14207143Y44929648D01*
X13986588Y45039284D01*
X13784959Y45177148D01*
X13605273Y45340087D01*
X13450549Y45524946D01*
X13323804Y45728573D01*
X13228055Y45947813D01*
X13225314Y45955695D01*
X13174102Y46149384D01*
X13145771Y46360157D01*
X13140461Y46577387D01*
X13142318Y46599553D01*
X13452054Y46599553D01*
X13454118Y46376060D01*
X13490944Y46160847D01*
X13561550Y45956546D01*
X13664951Y45765792D01*
X13800166Y45591218D01*
X13846288Y45542894D01*
X14018934Y45393903D01*
X14205135Y45276645D01*
X14401644Y45191336D01*
X14605212Y45138191D01*
X14812593Y45117428D01*
X15020538Y45129262D01*
X15225799Y45173908D01*
X15425129Y45251584D01*
X15615280Y45362504D01*
X15692910Y45420075D01*
X15849609Y45566697D01*
X15984442Y45738365D01*
X16093028Y45928330D01*
X16170981Y46129840D01*
X16183867Y46176143D01*
X16209972Y46320770D01*
X16220701Y46483004D01*
X16216064Y46648053D01*
X16196073Y46801124D01*
X16183329Y46857419D01*
X16131458Y47010551D01*
X16056836Y47169941D01*
X15966765Y47321515D01*
X15885597Y47431193D01*
X15735264Y47584816D01*
X15564698Y47710176D01*
X15377611Y47806275D01*
X15177716Y47872110D01*
X14968726Y47906683D01*
X14754353Y47908992D01*
X14538311Y47878039D01*
X14385748Y47835254D01*
X14211824Y47762027D01*
X14051429Y47663761D01*
X13897287Y47535733D01*
X13844286Y47483849D01*
X13700997Y47315604D01*
X13590805Y47134645D01*
X13512596Y46938463D01*
X13465257Y46724551D01*
X13452054Y46599553D01*
X13142318Y46599553D01*
X13158312Y46790452D01*
X13199462Y46988725D01*
X13211223Y47027947D01*
X13300488Y47251600D01*
X13419744Y47460349D01*
X13565676Y47650466D01*
X13734969Y47818224D01*
X13924308Y47959896D01*
X14130376Y48071755D01*
X14145794Y48078569D01*
X14365758Y48155890D01*
X14595675Y48202461D01*
X14830356Y48218699D01*
X15064611Y48205018D01*
X15293251Y48161832D01*
X15511086Y48089558D01*
X15712927Y47988610D01*
X15776500Y47948158D01*
X15964499Y47800482D01*
X16129048Y47628962D01*
X16268516Y47437515D01*
X16381273Y47230059D01*
X16465687Y47010508D01*
X16520128Y46782781D01*
X16542963Y46550793D01*
X16532563Y46318461D01*
X16510684Y46185214D01*
X16441314Y45938817D01*
X16340971Y45711250D01*
X16210071Y45503147D01*
X16049030Y45315147D01*
X15858264Y45147887D01*
X15809947Y45112217D01*
X15608507Y44990062D01*
X15391448Y44898556D01*
X15163383Y44838224D01*
X14928923Y44809591D01*
X14812593Y44811359D01*
X14692677Y44813183D01*
X14459259Y44849524D01*
G37*
X14459259Y44849524D02*
X14233279Y44919141D01*
X14207143Y44929648D01*
X13986588Y45039284D01*
X13784959Y45177148D01*
X13605273Y45340087D01*
X13450549Y45524946D01*
X13323804Y45728573D01*
X13228055Y45947813D01*
X13225314Y45955695D01*
X13174102Y46149384D01*
X13145771Y46360157D01*
X13140461Y46577387D01*
X13142318Y46599553D01*
X13452054Y46599553D01*
X13454118Y46376060D01*
X13490944Y46160847D01*
X13561550Y45956546D01*
X13664951Y45765792D01*
X13800166Y45591218D01*
X13846288Y45542894D01*
X14018934Y45393903D01*
X14205135Y45276645D01*
X14401644Y45191336D01*
X14605212Y45138191D01*
X14812593Y45117428D01*
X15020538Y45129262D01*
X15225799Y45173908D01*
X15425129Y45251584D01*
X15615280Y45362504D01*
X15692910Y45420075D01*
X15849609Y45566697D01*
X15984442Y45738365D01*
X16093028Y45928330D01*
X16170981Y46129840D01*
X16183867Y46176143D01*
X16209972Y46320770D01*
X16220701Y46483004D01*
X16216064Y46648053D01*
X16196073Y46801124D01*
X16183329Y46857419D01*
X16131458Y47010551D01*
X16056836Y47169941D01*
X15966765Y47321515D01*
X15885597Y47431193D01*
X15735264Y47584816D01*
X15564698Y47710176D01*
X15377611Y47806275D01*
X15177716Y47872110D01*
X14968726Y47906683D01*
X14754353Y47908992D01*
X14538311Y47878039D01*
X14385748Y47835254D01*
X14211824Y47762027D01*
X14051429Y47663761D01*
X13897287Y47535733D01*
X13844286Y47483849D01*
X13700997Y47315604D01*
X13590805Y47134645D01*
X13512596Y46938463D01*
X13465257Y46724551D01*
X13452054Y46599553D01*
X13142318Y46599553D01*
X13158312Y46790452D01*
X13199462Y46988725D01*
X13211223Y47027947D01*
X13300488Y47251600D01*
X13419744Y47460349D01*
X13565676Y47650466D01*
X13734969Y47818224D01*
X13924308Y47959896D01*
X14130376Y48071755D01*
X14145794Y48078569D01*
X14365758Y48155890D01*
X14595675Y48202461D01*
X14830356Y48218699D01*
X15064611Y48205018D01*
X15293251Y48161832D01*
X15511086Y48089558D01*
X15712927Y47988610D01*
X15776500Y47948158D01*
X15964499Y47800482D01*
X16129048Y47628962D01*
X16268516Y47437515D01*
X16381273Y47230059D01*
X16465687Y47010508D01*
X16520128Y46782781D01*
X16542963Y46550793D01*
X16532563Y46318461D01*
X16510684Y46185214D01*
X16441314Y45938817D01*
X16340971Y45711250D01*
X16210071Y45503147D01*
X16049030Y45315147D01*
X15858264Y45147887D01*
X15809947Y45112217D01*
X15608507Y44990062D01*
X15391448Y44898556D01*
X15163383Y44838224D01*
X14928923Y44809591D01*
X14812593Y44811359D01*
X14692677Y44813183D01*
X14459259Y44849524D01*
G36*
X15081556Y58361671D02*
G01*
X15249875Y58309830D01*
X15400658Y58227827D01*
X15450424Y58190782D01*
X15576147Y58067105D01*
X15672440Y57923981D01*
X15737961Y57764940D01*
X15771365Y57593512D01*
X15771307Y57413228D01*
X15765412Y57363715D01*
X15725754Y57210463D01*
X15655164Y57072160D01*
X15557294Y56952761D01*
X15435792Y56856223D01*
X15294308Y56786504D01*
X15209536Y56761080D01*
X15114286Y56738558D01*
X15114286Y57166406D01*
X15193810Y57186431D01*
X15270170Y57221372D01*
X15338618Y57280267D01*
X15387550Y57351973D01*
X15399773Y57384225D01*
X15407324Y57429607D01*
X15412232Y57494601D01*
X15413337Y57544430D01*
X15398945Y57653061D01*
X15354985Y57743656D01*
X15279288Y57819732D01*
X15219772Y57858714D01*
X15109879Y57906243D01*
X14985405Y57934892D01*
X14853910Y57945233D01*
X14722952Y57937837D01*
X14600091Y57913276D01*
X14492885Y57872121D01*
X14408895Y57814946D01*
X14390429Y57795987D01*
X14334796Y57706483D01*
X14305851Y57600325D01*
X14304474Y57486370D01*
X14331548Y57373472D01*
X14345194Y57341462D01*
X14388748Y57280718D01*
X14452185Y57227647D01*
X14521629Y57192726D01*
X14551479Y57185680D01*
X14585802Y57188127D01*
X14602275Y57214096D01*
X14605908Y57230231D01*
X14610749Y57249984D01*
X14619016Y57258418D01*
X14635068Y57252666D01*
X14663262Y57229859D01*
X14707959Y57187131D01*
X14773516Y57121614D01*
X14778265Y57116838D01*
X14941172Y56953000D01*
X14778265Y56789120D01*
X14615357Y56625239D01*
X14606286Y56684798D01*
X14596169Y56723150D01*
X14573703Y56746464D01*
X14528267Y56764522D01*
X14515571Y56768339D01*
X14348692Y56831988D01*
X14211130Y56916613D01*
X14102090Y57022946D01*
X14020777Y57151719D01*
X13977555Y57263314D01*
X13956237Y57371321D01*
X13948781Y57498764D01*
X13954908Y57631663D01*
X13974343Y57756036D01*
X13988392Y57808844D01*
X14053606Y57958363D01*
X14148163Y58089457D01*
X14268748Y58199517D01*
X14412048Y58285937D01*
X14574749Y58346109D01*
X14704132Y58371997D01*
X14898657Y58382633D01*
X15081556Y58361671D01*
G37*
X15081556Y58361671D02*
X15249875Y58309830D01*
X15400658Y58227827D01*
X15450424Y58190782D01*
X15576147Y58067105D01*
X15672440Y57923981D01*
X15737961Y57764940D01*
X15771365Y57593512D01*
X15771307Y57413228D01*
X15765412Y57363715D01*
X15725754Y57210463D01*
X15655164Y57072160D01*
X15557294Y56952761D01*
X15435792Y56856223D01*
X15294308Y56786504D01*
X15209536Y56761080D01*
X15114286Y56738558D01*
X15114286Y57166406D01*
X15193810Y57186431D01*
X15270170Y57221372D01*
X15338618Y57280267D01*
X15387550Y57351973D01*
X15399773Y57384225D01*
X15407324Y57429607D01*
X15412232Y57494601D01*
X15413337Y57544430D01*
X15398945Y57653061D01*
X15354985Y57743656D01*
X15279288Y57819732D01*
X15219772Y57858714D01*
X15109879Y57906243D01*
X14985405Y57934892D01*
X14853910Y57945233D01*
X14722952Y57937837D01*
X14600091Y57913276D01*
X14492885Y57872121D01*
X14408895Y57814946D01*
X14390429Y57795987D01*
X14334796Y57706483D01*
X14305851Y57600325D01*
X14304474Y57486370D01*
X14331548Y57373472D01*
X14345194Y57341462D01*
X14388748Y57280718D01*
X14452185Y57227647D01*
X14521629Y57192726D01*
X14551479Y57185680D01*
X14585802Y57188127D01*
X14602275Y57214096D01*
X14605908Y57230231D01*
X14610749Y57249984D01*
X14619016Y57258418D01*
X14635068Y57252666D01*
X14663262Y57229859D01*
X14707959Y57187131D01*
X14773516Y57121614D01*
X14778265Y57116838D01*
X14941172Y56953000D01*
X14778265Y56789120D01*
X14615357Y56625239D01*
X14606286Y56684798D01*
X14596169Y56723150D01*
X14573703Y56746464D01*
X14528267Y56764522D01*
X14515571Y56768339D01*
X14348692Y56831988D01*
X14211130Y56916613D01*
X14102090Y57022946D01*
X14020777Y57151719D01*
X13977555Y57263314D01*
X13956237Y57371321D01*
X13948781Y57498764D01*
X13954908Y57631663D01*
X13974343Y57756036D01*
X13988392Y57808844D01*
X14053606Y57958363D01*
X14148163Y58089457D01*
X14268748Y58199517D01*
X14412048Y58285937D01*
X14574749Y58346109D01*
X14704132Y58371997D01*
X14898657Y58382633D01*
X15081556Y58361671D01*
G36*
X14578880Y48490964D02*
G01*
X14478842Y48506011D01*
X14252721Y48572124D01*
X14037389Y48670819D01*
X13836646Y48799072D01*
X13654295Y48953858D01*
X13494137Y49132153D01*
X13359976Y49330931D01*
X13300965Y49443022D01*
X13216255Y49660621D01*
X13162585Y49890258D01*
X13139798Y50126486D01*
X13142343Y50202566D01*
X13449044Y50202566D01*
X13462611Y49981423D01*
X13510987Y49763993D01*
X13529982Y49706655D01*
X13613450Y49523441D01*
X13727950Y49350247D01*
X13868614Y49191817D01*
X14030574Y49052898D01*
X14208961Y48938236D01*
X14398907Y48852576D01*
X14410211Y48848585D01*
X14538047Y48815653D01*
X14687625Y48795596D01*
X14846607Y48788833D01*
X15002655Y48795785D01*
X15143429Y48816872D01*
X15168413Y48822759D01*
X15372893Y48892796D01*
X15565730Y48995177D01*
X15741767Y49126546D01*
X15895846Y49283544D01*
X15918066Y49310754D01*
X16001798Y49422294D01*
X16065164Y49523413D01*
X16115442Y49627187D01*
X16158699Y49743068D01*
X16208973Y49947010D01*
X16228120Y50161315D01*
X16215855Y50377231D01*
X16184751Y50539357D01*
X16118796Y50728539D01*
X16021656Y50910961D01*
X15898171Y51080741D01*
X15753184Y51231997D01*
X15591536Y51358847D01*
X15438403Y51446063D01*
X15313954Y51499638D01*
X15198559Y51536418D01*
X15080070Y51558965D01*
X14946342Y51569841D01*
X14842143Y51571875D01*
X14697101Y51568507D01*
X14575094Y51555754D01*
X14463453Y51530699D01*
X14349509Y51490428D01*
X14220592Y51432025D01*
X14208353Y51426040D01*
X14130167Y51385667D01*
X14065933Y51346559D01*
X14006107Y51301552D01*
X13941143Y51243483D01*
X13863639Y51167346D01*
X13773968Y51073358D01*
X13705951Y50992310D01*
X13652449Y50915057D01*
X13614206Y50847750D01*
X13525140Y50639782D01*
X13469986Y50423369D01*
X13449044Y50202566D01*
X13142343Y50202566D01*
X13147740Y50363857D01*
X13186254Y50596921D01*
X13255186Y50820231D01*
X13345776Y51013167D01*
X13481559Y51220262D01*
X13642907Y51403630D01*
X13826913Y51561030D01*
X14030671Y51690226D01*
X14251273Y51788976D01*
X14419390Y51840088D01*
X14559681Y51865319D01*
X14721520Y51879147D01*
X14892210Y51881565D01*
X15059057Y51872568D01*
X15209362Y51852151D01*
X15263225Y51840485D01*
X15486520Y51769129D01*
X15690300Y51669260D01*
X15878705Y51538477D01*
X16041600Y51389220D01*
X16208306Y51193796D01*
X16341926Y50984216D01*
X16443542Y50758543D01*
X16503217Y50562278D01*
X16521202Y50461423D01*
X16533235Y50337220D01*
X16538997Y50202166D01*
X16538170Y50068759D01*
X16530436Y49949495D01*
X16520588Y49880315D01*
X16461328Y49648869D01*
X16375066Y49437246D01*
X16259249Y49240791D01*
X16111321Y49054853D01*
X16009764Y48949956D01*
X15825506Y48791714D01*
X15632922Y48667130D01*
X15427741Y48573803D01*
X15240289Y48517269D01*
X15130727Y48498083D01*
X14997881Y48485683D01*
X14853675Y48480246D01*
X14846607Y48480329D01*
X14710033Y48481948D01*
X14578880Y48490964D01*
G37*
X14578880Y48490964D02*
X14478842Y48506011D01*
X14252721Y48572124D01*
X14037389Y48670819D01*
X13836646Y48799072D01*
X13654295Y48953858D01*
X13494137Y49132153D01*
X13359976Y49330931D01*
X13300965Y49443022D01*
X13216255Y49660621D01*
X13162585Y49890258D01*
X13139798Y50126486D01*
X13142343Y50202566D01*
X13449044Y50202566D01*
X13462611Y49981423D01*
X13510987Y49763993D01*
X13529982Y49706655D01*
X13613450Y49523441D01*
X13727950Y49350247D01*
X13868614Y49191817D01*
X14030574Y49052898D01*
X14208961Y48938236D01*
X14398907Y48852576D01*
X14410211Y48848585D01*
X14538047Y48815653D01*
X14687625Y48795596D01*
X14846607Y48788833D01*
X15002655Y48795785D01*
X15143429Y48816872D01*
X15168413Y48822759D01*
X15372893Y48892796D01*
X15565730Y48995177D01*
X15741767Y49126546D01*
X15895846Y49283544D01*
X15918066Y49310754D01*
X16001798Y49422294D01*
X16065164Y49523413D01*
X16115442Y49627187D01*
X16158699Y49743068D01*
X16208973Y49947010D01*
X16228120Y50161315D01*
X16215855Y50377231D01*
X16184751Y50539357D01*
X16118796Y50728539D01*
X16021656Y50910961D01*
X15898171Y51080741D01*
X15753184Y51231997D01*
X15591536Y51358847D01*
X15438403Y51446063D01*
X15313954Y51499638D01*
X15198559Y51536418D01*
X15080070Y51558965D01*
X14946342Y51569841D01*
X14842143Y51571875D01*
X14697101Y51568507D01*
X14575094Y51555754D01*
X14463453Y51530699D01*
X14349509Y51490428D01*
X14220592Y51432025D01*
X14208353Y51426040D01*
X14130167Y51385667D01*
X14065933Y51346559D01*
X14006107Y51301552D01*
X13941143Y51243483D01*
X13863639Y51167346D01*
X13773968Y51073358D01*
X13705951Y50992310D01*
X13652449Y50915057D01*
X13614206Y50847750D01*
X13525140Y50639782D01*
X13469986Y50423369D01*
X13449044Y50202566D01*
X13142343Y50202566D01*
X13147740Y50363857D01*
X13186254Y50596921D01*
X13255186Y50820231D01*
X13345776Y51013167D01*
X13481559Y51220262D01*
X13642907Y51403630D01*
X13826913Y51561030D01*
X14030671Y51690226D01*
X14251273Y51788976D01*
X14419390Y51840088D01*
X14559681Y51865319D01*
X14721520Y51879147D01*
X14892210Y51881565D01*
X15059057Y51872568D01*
X15209362Y51852151D01*
X15263225Y51840485D01*
X15486520Y51769129D01*
X15690300Y51669260D01*
X15878705Y51538477D01*
X16041600Y51389220D01*
X16208306Y51193796D01*
X16341926Y50984216D01*
X16443542Y50758543D01*
X16503217Y50562278D01*
X16521202Y50461423D01*
X16533235Y50337220D01*
X16538997Y50202166D01*
X16538170Y50068759D01*
X16530436Y49949495D01*
X16520588Y49880315D01*
X16461328Y49648869D01*
X16375066Y49437246D01*
X16259249Y49240791D01*
X16111321Y49054853D01*
X16009764Y48949956D01*
X15825506Y48791714D01*
X15632922Y48667130D01*
X15427741Y48573803D01*
X15240289Y48517269D01*
X15130727Y48498083D01*
X14997881Y48485683D01*
X14853675Y48480246D01*
X14846607Y48480329D01*
X14710033Y48481948D01*
X14578880Y48490964D01*
G36*
X14031491Y50411575D02*
G01*
X14109067Y50384713D01*
X14168836Y50336206D01*
X14172939Y50330845D01*
X14203028Y50265544D01*
X14216477Y50183737D01*
X14211044Y50102226D01*
X14206075Y50082534D01*
X14173222Y50016664D01*
X14119437Y49974404D01*
X14040536Y49953336D01*
X13976515Y49949857D01*
X13909692Y49951675D01*
X13866382Y49959724D01*
X13833889Y49977899D01*
X13807939Y50001556D01*
X13760675Y50071721D01*
X13738890Y50155179D01*
X13742794Y50241171D01*
X13772599Y50318934D01*
X13800972Y50355167D01*
X13866539Y50397515D01*
X13947013Y50416080D01*
X14031491Y50411575D01*
G37*
X14031491Y50411575D02*
X14109067Y50384713D01*
X14168836Y50336206D01*
X14172939Y50330845D01*
X14203028Y50265544D01*
X14216477Y50183737D01*
X14211044Y50102226D01*
X14206075Y50082534D01*
X14173222Y50016664D01*
X14119437Y49974404D01*
X14040536Y49953336D01*
X13976515Y49949857D01*
X13909692Y49951675D01*
X13866382Y49959724D01*
X13833889Y49977899D01*
X13807939Y50001556D01*
X13760675Y50071721D01*
X13738890Y50155179D01*
X13742794Y50241171D01*
X13772599Y50318934D01*
X13800972Y50355167D01*
X13866539Y50397515D01*
X13947013Y50416080D01*
X14031491Y50411575D01*
G36*
X15114286Y50439714D02*
G01*
X15948857Y50439714D01*
X15948857Y49913571D01*
X15114286Y49913571D01*
X15114286Y49714000D01*
X14745169Y49714000D01*
X14619306Y49714259D01*
X14524727Y49715312D01*
X14456434Y49717577D01*
X14409429Y49721467D01*
X14378711Y49727398D01*
X14359283Y49735787D01*
X14346144Y49747048D01*
X14346026Y49747178D01*
X14336071Y49762241D01*
X14328549Y49785646D01*
X14323132Y49822110D01*
X14319495Y49876348D01*
X14317312Y49953079D01*
X14316256Y50057017D01*
X14316000Y50181311D01*
X14316335Y50315225D01*
X14317542Y50417439D01*
X14319925Y50492533D01*
X14323789Y50545089D01*
X14329437Y50579685D01*
X14337174Y50600904D01*
X14344510Y50610775D01*
X14359294Y50620627D01*
X14384400Y50627980D01*
X14424604Y50633174D01*
X14484681Y50636551D01*
X14569407Y50638453D01*
X14683559Y50639220D01*
X14743653Y50639285D01*
X15114286Y50639285D01*
X15114286Y50439714D01*
G37*
X15114286Y50439714D02*
X15948857Y50439714D01*
X15948857Y49913571D01*
X15114286Y49913571D01*
X15114286Y49714000D01*
X14745169Y49714000D01*
X14619306Y49714259D01*
X14524727Y49715312D01*
X14456434Y49717577D01*
X14409429Y49721467D01*
X14378711Y49727398D01*
X14359283Y49735787D01*
X14346144Y49747048D01*
X14346026Y49747178D01*
X14336071Y49762241D01*
X14328549Y49785646D01*
X14323132Y49822110D01*
X14319495Y49876348D01*
X14317312Y49953079D01*
X14316256Y50057017D01*
X14316000Y50181311D01*
X14316335Y50315225D01*
X14317542Y50417439D01*
X14319925Y50492533D01*
X14323789Y50545089D01*
X14329437Y50579685D01*
X14337174Y50600904D01*
X14344510Y50610775D01*
X14359294Y50620627D01*
X14384400Y50627980D01*
X14424604Y50633174D01*
X14484681Y50636551D01*
X14569407Y50638453D01*
X14683559Y50639220D01*
X14743653Y50639285D01*
X15114286Y50639285D01*
X15114286Y50439714D01*
G36*
X15193845Y46428186D02*
G01*
X15276843Y46341029D01*
X15329228Y46248586D01*
X15355957Y46140438D01*
X15361288Y46076357D01*
X15362034Y46003195D01*
X15358665Y45936956D01*
X15352499Y45894928D01*
X15305018Y45781771D01*
X15228686Y45683817D01*
X15130046Y45608283D01*
X15064452Y45577312D01*
X14941926Y45547620D01*
X14807503Y45541947D01*
X14676453Y45560252D01*
X14616805Y45578445D01*
X14527958Y45626103D01*
X14445320Y45696069D01*
X14378638Y45778395D01*
X14337659Y45863133D01*
X14337568Y45863436D01*
X14321494Y45950149D01*
X14316915Y46053132D01*
X14323561Y46156047D01*
X14341161Y46242554D01*
X14343965Y46250969D01*
X14368033Y46299465D01*
X14405797Y46355169D01*
X14450057Y46409592D01*
X14493610Y46454249D01*
X14529254Y46480652D01*
X14542027Y46484356D01*
X14559674Y46469480D01*
X14587724Y46430699D01*
X14619912Y46376748D01*
X14678896Y46269355D01*
X14624903Y46230909D01*
X14569917Y46171165D01*
X14543761Y46096000D01*
X14549180Y46015219D01*
X14557639Y45990717D01*
X14595686Y45927912D01*
X14651723Y45886199D01*
X14732057Y45861940D01*
X14794165Y45854280D01*
X14910167Y45854892D01*
X15001082Y45878393D01*
X15070926Y45925999D01*
X15086478Y45942889D01*
X15122108Y46008378D01*
X15133361Y46083087D01*
X15121538Y46156416D01*
X15087942Y46217766D01*
X15048782Y46249787D01*
X15018672Y46271276D01*
X15008365Y46298113D01*
X15018242Y46337882D01*
X15048686Y46398167D01*
X15057015Y46412896D01*
X15108602Y46503220D01*
X15193845Y46428186D01*
G37*
X15193845Y46428186D02*
X15276843Y46341029D01*
X15329228Y46248586D01*
X15355957Y46140438D01*
X15361288Y46076357D01*
X15362034Y46003195D01*
X15358665Y45936956D01*
X15352499Y45894928D01*
X15305018Y45781771D01*
X15228686Y45683817D01*
X15130046Y45608283D01*
X15064452Y45577312D01*
X14941926Y45547620D01*
X14807503Y45541947D01*
X14676453Y45560252D01*
X14616805Y45578445D01*
X14527958Y45626103D01*
X14445320Y45696069D01*
X14378638Y45778395D01*
X14337659Y45863133D01*
X14337568Y45863436D01*
X14321494Y45950149D01*
X14316915Y46053132D01*
X14323561Y46156047D01*
X14341161Y46242554D01*
X14343965Y46250969D01*
X14368033Y46299465D01*
X14405797Y46355169D01*
X14450057Y46409592D01*
X14493610Y46454249D01*
X14529254Y46480652D01*
X14542027Y46484356D01*
X14559674Y46469480D01*
X14587724Y46430699D01*
X14619912Y46376748D01*
X14678896Y46269355D01*
X14624903Y46230909D01*
X14569917Y46171165D01*
X14543761Y46096000D01*
X14549180Y46015219D01*
X14557639Y45990717D01*
X14595686Y45927912D01*
X14651723Y45886199D01*
X14732057Y45861940D01*
X14794165Y45854280D01*
X14910167Y45854892D01*
X15001082Y45878393D01*
X15070926Y45925999D01*
X15086478Y45942889D01*
X15122108Y46008378D01*
X15133361Y46083087D01*
X15121538Y46156416D01*
X15087942Y46217766D01*
X15048782Y46249787D01*
X15018672Y46271276D01*
X15008365Y46298113D01*
X15018242Y46337882D01*
X15048686Y46398167D01*
X15057015Y46412896D01*
X15108602Y46503220D01*
X15193845Y46428186D01*
D14*
%TO.C,BT2*%
X17020000Y48000000D02*
X17020000Y32200000D01*
X9360000Y62410000D02*
X13360000Y62410000D01*
X2855000Y11480000D02*
X2855000Y68720000D01*
X19985000Y11480000D02*
X2855000Y11480000D01*
X3820000Y50000000D02*
X3820000Y68000000D01*
X3820000Y12200000D02*
X3820000Y30200000D01*
X10360000Y61410000D02*
X12360000Y61410000D01*
X3820000Y68000000D02*
X19020000Y68000000D01*
X19985000Y68720000D02*
X19985000Y11480000D01*
X14360000Y63410000D02*
X8360000Y63410000D01*
X2855000Y68720000D02*
X19985000Y68720000D01*
X19020000Y12200000D02*
X19020000Y30200000D01*
X7360000Y64410000D02*
X15360000Y64410000D01*
X3820000Y12200000D02*
X19020000Y12200000D01*
X5820000Y32200000D02*
X5820000Y48000000D01*
X19020000Y50000000D02*
X19020000Y68000000D01*
X3820000Y30200000D02*
G75*
G03*
X5820000Y32200000I0J2000000D01*
G01*
X19020000Y50000000D02*
G75*
G03*
X17020000Y48000000I0J-2000000D01*
G01*
X5820000Y48000000D02*
G75*
G03*
X3820000Y50000000I-2000000J0D01*
G01*
X17020000Y32200000D02*
G75*
G03*
X19020000Y30200000I2000000J0D01*
G01*
%TO.C,BT1*%
X69090000Y48040000D02*
X69090000Y32240000D01*
X71090000Y30240000D02*
X71090000Y12240000D01*
X60550000Y16830000D02*
X66550000Y16830000D01*
X72055000Y11520000D02*
X54925000Y11520000D01*
X71090000Y12240000D02*
X55890000Y12240000D01*
X67550000Y15830000D02*
X59550000Y15830000D01*
X54925000Y68760000D02*
X72055000Y68760000D01*
X65550000Y17830000D02*
X61550000Y17830000D01*
X54925000Y11520000D02*
X54925000Y68760000D01*
X57890000Y32240000D02*
X57890000Y48040000D01*
X55890000Y30240000D02*
X55890000Y12240000D01*
X71090000Y68040000D02*
X71090000Y50040000D01*
X64550000Y18830000D02*
X62550000Y18830000D01*
X55890000Y68040000D02*
X55890000Y50040000D01*
X72055000Y68760000D02*
X72055000Y11520000D01*
X71090000Y68040000D02*
X55890000Y68040000D01*
X57890000Y48040000D02*
G75*
G03*
X55890000Y50040000I-2000000J0D01*
G01*
X71090000Y50040000D02*
G75*
G03*
X69090000Y48040000I0J-2000000D01*
G01*
X55890000Y30240000D02*
G75*
G03*
X57890000Y32240000I0J2000000D01*
G01*
X69090000Y32240000D02*
G75*
G03*
X71090000Y30240000I2000000J0D01*
G01*
%TD*%
%LPC*%
D16*
%TO.C,D1*%
X45050000Y71720000D03*
D17*
X45050000Y69180000D03*
%TD*%
D18*
%TO.C,J1*%
X46320000Y39335000D03*
D19*
X46320000Y36795000D03*
%TD*%
D18*
%TO.C,J2*%
X51400000Y39335000D03*
D19*
X51400000Y36795000D03*
%TD*%
D18*
%TO.C,J7*%
X34890000Y4410000D03*
D19*
X34890000Y6950000D03*
X34890000Y9490000D03*
X34890000Y12030000D03*
%TD*%
D18*
%TO.C,J3*%
X46320000Y48860000D03*
D19*
X46320000Y46320000D03*
%TD*%
D18*
%TO.C,J4*%
X51400000Y48860000D03*
D19*
X51400000Y46320000D03*
%TD*%
D18*
%TO.C,J5*%
X56480000Y8220000D03*
D19*
X59020000Y8220000D03*
X61560000Y8220000D03*
X64100000Y8220000D03*
X66640000Y8220000D03*
X69180000Y8220000D03*
%TD*%
D18*
%TO.C,J6*%
X24730000Y4410000D03*
D19*
X24730000Y6950000D03*
X24730000Y9490000D03*
X24730000Y12030000D03*
%TD*%
D20*
%TO.C,C1*%
X46955000Y24095000D03*
D21*
X46955000Y22595000D03*
%TD*%
D22*
%TO.C,R4*%
X50130000Y30445000D03*
D23*
X50130000Y27905000D03*
%TD*%
D22*
%TO.C,R5*%
X46320000Y30445000D03*
D23*
X46320000Y27905000D03*
%TD*%
D22*
%TO.C,R1*%
X45050000Y66005000D03*
D23*
X45050000Y63465000D03*
%TD*%
D22*
%TO.C,R3*%
X18380000Y8220000D03*
D23*
X15840000Y8220000D03*
%TD*%
D24*
%TO.C,Q1*%
X6950000Y8220000D03*
D25*
X9240000Y8220000D03*
X11530000Y8220000D03*
%TD*%
D18*
%TO.C,J9*%
X50130000Y4410000D03*
D19*
X50130000Y6950000D03*
X50130000Y9490000D03*
X50130000Y12030000D03*
%TD*%
D18*
%TO.C,J10*%
X64989000Y71656500D03*
D19*
X67529000Y71656500D03*
X70069000Y71656500D03*
%TD*%
D17*
%TO.C,Module2*%
X39970000Y70450000D03*
X27270000Y42510000D03*
X24730000Y70450000D03*
X26000000Y72990000D03*
X37430000Y66640000D03*
X39970000Y67910000D03*
X29810000Y42510000D03*
X24730000Y67910000D03*
X28540000Y72990000D03*
X37430000Y64100000D03*
X39970000Y65370000D03*
X32350000Y42510000D03*
X24730000Y65370000D03*
X31080000Y72990000D03*
X37430000Y61560000D03*
X39970000Y62830000D03*
X34890000Y42510000D03*
X24730000Y62830000D03*
X33620000Y72990000D03*
X37430000Y59020000D03*
X39970000Y60290000D03*
X37430000Y42510000D03*
X24730000Y60290000D03*
X36160000Y72990000D03*
X39970000Y57750000D03*
X24730000Y57750000D03*
X38700000Y72990000D03*
X39970000Y55210000D03*
X24730000Y55210000D03*
X39970000Y52670000D03*
X24730000Y52670000D03*
X39970000Y50130000D03*
X24730000Y50130000D03*
X39970000Y47590000D03*
X24730000Y47590000D03*
X39970000Y45050000D03*
X24730000Y45050000D03*
X39970000Y42510000D03*
X24730000Y42510000D03*
%TD*%
D26*
%TO.C,Module1*%
X23280000Y28555000D03*
D27*
X42280000Y23055000D03*
D26*
X41280000Y23055000D03*
D28*
X23280000Y31055000D03*
D27*
X42280000Y25055000D03*
D26*
X41280000Y25055000D03*
X23280000Y33555000D03*
X41280000Y27055000D03*
D27*
X42280000Y27055000D03*
D26*
X41280000Y29055000D03*
D27*
X42280000Y29055000D03*
X42280000Y31055000D03*
D26*
X41280000Y31055000D03*
X41280000Y33055000D03*
D27*
X42280000Y33055000D03*
D26*
X41280000Y35055000D03*
D27*
X42280000Y35055000D03*
D26*
X41280000Y37055000D03*
D27*
X42280000Y37055000D03*
%TD*%
D29*
%TO.C,JP2*%
X50257000Y65400000D03*
X50257000Y64100000D03*
%TD*%
D30*
%TO.C,SW1*%
X52185000Y59655000D03*
X45685000Y59655000D03*
X45685000Y55155000D03*
X52185000Y55155000D03*
%TD*%
D18*
%TO.C,J8*%
X39970000Y4410000D03*
D19*
X39970000Y6950000D03*
X39970000Y9490000D03*
X39970000Y12030000D03*
%TD*%
D31*
%TO.C,H2*%
X58727200Y73022800D03*
X58727200Y70477200D03*
X61800000Y71750000D03*
D32*
X60000000Y71750000D03*
D31*
X61272800Y73022800D03*
X60000000Y73550000D03*
X61272800Y70477200D03*
X58200000Y71750000D03*
X60000000Y69950000D03*
%TD*%
%TO.C,H4*%
X58727200Y4522800D03*
X58200000Y3250000D03*
X61800000Y3250000D03*
X61272800Y4522800D03*
X61272800Y1977200D03*
X58727200Y1977200D03*
D32*
X60000000Y3250000D03*
D31*
X60000000Y5050000D03*
X60000000Y1450000D03*
%TD*%
%TO.C,H3*%
X13727200Y1977200D03*
X16800000Y3250000D03*
X13727200Y4522800D03*
X16272800Y1977200D03*
X13200000Y3250000D03*
D32*
X15000000Y3250000D03*
D31*
X15000000Y5050000D03*
X16272800Y4522800D03*
X15000000Y1450000D03*
%TD*%
%TO.C,H1*%
X16272800Y73022800D03*
X13200000Y71750000D03*
X13727200Y73022800D03*
X16272800Y70477200D03*
X15000000Y69950000D03*
X15000000Y73550000D03*
X13727200Y70477200D03*
X16800000Y71750000D03*
D32*
X15000000Y71750000D03*
%TD*%
D33*
%TO.C,BT2*%
X17415000Y63330000D03*
X5425000Y16850000D03*
D34*
X11420000Y14100000D03*
D30*
X11420000Y66090000D03*
%TD*%
D33*
%TO.C,BT1*%
X69485000Y63390000D03*
X57495000Y16910000D03*
D34*
X63490000Y66140000D03*
D30*
X63490000Y14150000D03*
%TD*%
M02*
