%TF.GenerationSoftware,KiCad,Pcbnew,8.0.8-8.0.8-0~ubuntu22.04.1*%
%TF.CreationDate,2025-02-17T16:41:44+01:00*%
%TF.ProjectId,HB_Stamp_IO_ATMega1284P_FUEL4EP,48425f53-7461-46d7-905f-494f5f41544d,1.5*%
%TF.SameCoordinates,Original*%
%TF.FileFunction,Copper,L1,Top*%
%TF.FilePolarity,Positive*%
%FSLAX46Y46*%
G04 Gerber Fmt 4.6, Leading zero omitted, Abs format (unit mm)*
G04 Created by KiCad (PCBNEW 8.0.8-8.0.8-0~ubuntu22.04.1) date 2025-02-17 16:41:44*
%MOMM*%
%LPD*%
G01*
G04 APERTURE LIST*
G04 Aperture macros list*
%AMRoundRect*
0 Rectangle with rounded corners*
0 $1 Rounding radius*
0 $2 $3 $4 $5 $6 $7 $8 $9 X,Y pos of 4 corners*
0 Add a 4 corners polygon primitive as box body*
4,1,4,$2,$3,$4,$5,$6,$7,$8,$9,$2,$3,0*
0 Add four circle primitives for the rounded corners*
1,1,$1+$1,$2,$3*
1,1,$1+$1,$4,$5*
1,1,$1+$1,$6,$7*
1,1,$1+$1,$8,$9*
0 Add four rect primitives between the rounded corners*
20,1,$1+$1,$2,$3,$4,$5,0*
20,1,$1+$1,$4,$5,$6,$7,0*
20,1,$1+$1,$6,$7,$8,$9,0*
20,1,$1+$1,$8,$9,$2,$3,0*%
%AMOutline4P*
0 Free polygon, 4 corners , with rotation*
0 The origin of the aperture is its center*
0 number of corners: always 4*
0 $1 to $8 corner X, Y*
0 $9 Rotation angle, in degrees counterclockwise*
0 create outline with 4 corners*
4,1,4,$1,$2,$3,$4,$5,$6,$7,$8,$1,$2,$9*%
%AMFreePoly0*
4,1,48,0.039158,0.847433,0.114805,0.827164,0.182628,0.788006,0.238006,0.732628,0.277164,0.664805,0.297433,0.589158,0.300000,0.550000,0.300000,-0.550000,0.297433,-0.589158,0.277164,-0.664805,0.238006,-0.732628,0.182628,-0.788006,0.114805,-0.827164,0.039158,-0.847433,0.000000,-0.850000,-1.100000,-0.850000,-1.139158,-0.847433,-1.214805,-0.827164,-1.282628,-0.788006,-1.338006,-0.732628,
-1.377164,-0.664805,-1.397433,-0.589158,-1.400000,-0.550000,-1.400000,0.000000,-0.705291,0.000000,-0.684486,-0.077646,-0.627646,-0.134486,-0.550000,-0.155291,-0.472354,-0.134486,-0.415514,-0.077646,-0.394709,0.000000,-0.415514,0.077645,-0.472354,0.134486,-0.550000,0.155291,-0.627645,0.134486,-0.684486,0.077645,-0.705291,0.000000,-1.400000,0.000000,-1.400000,0.550000,-1.397433,0.589158,
-1.377164,0.664805,-1.338006,0.732628,-1.282628,0.788006,-1.214805,0.827164,-1.139158,0.847433,-1.100000,0.850000,0.000000,0.850000,0.039158,0.847433,0.039158,0.847433,$1*%
%AMFreePoly1*
4,1,49,0.052363,0.295344,0.088849,0.295344,0.262664,0.258398,0.425000,0.186122,0.568761,0.081673,0.687664,-0.050383,0.776514,-0.204274,0.831425,-0.373275,0.850000,-0.550000,0.831425,-0.726725,0.776514,-0.895726,0.687664,-1.049617,0.568761,-1.181673,0.425000,-1.286122,0.262664,-1.358398,0.088849,-1.395344,-0.088849,-1.395344,-0.262664,-1.358398,-0.425000,-1.286122,-0.568761,-1.181673,
-0.687664,-1.049617,-0.776514,-0.895726,-0.831425,-0.726725,-0.850000,-0.550000,-0.155291,-0.550000,-0.134486,-0.627646,-0.077646,-0.684486,0.000000,-0.705291,0.077646,-0.684486,0.134486,-0.627646,0.155291,-0.550000,0.134486,-0.472355,0.077646,-0.415514,0.000000,-0.394709,-0.077645,-0.415514,-0.134486,-0.472355,-0.155291,-0.550000,-0.850000,-0.550000,-0.831425,-0.373275,-0.776514,-0.204274,
-0.687664,-0.050383,-0.568761,0.081673,-0.425000,0.186122,-0.262664,0.258398,-0.088849,0.295344,-0.052363,0.295344,-0.052094,0.295442,0.052094,0.295442,0.052363,0.295344,0.052363,0.295344,$1*%
G04 Aperture macros list end*
%TA.AperFunction,EtchedComponent*%
%ADD10C,1.000000*%
%TD*%
%TA.AperFunction,EtchedComponent*%
%ADD11C,0.000000*%
%TD*%
%TA.AperFunction,SMDPad,CuDef*%
%ADD12RoundRect,0.147500X-0.172500X0.147500X-0.172500X-0.147500X0.172500X-0.147500X0.172500X0.147500X0*%
%TD*%
%TA.AperFunction,SMDPad,CuDef*%
%ADD13RoundRect,0.140000X0.170000X-0.140000X0.170000X0.140000X-0.170000X0.140000X-0.170000X-0.140000X0*%
%TD*%
%TA.AperFunction,SMDPad,CuDef*%
%ADD14RoundRect,0.135000X0.185000X-0.135000X0.185000X0.135000X-0.185000X0.135000X-0.185000X-0.135000X0*%
%TD*%
%TA.AperFunction,SMDPad,CuDef*%
%ADD15RoundRect,0.140000X-0.140000X-0.170000X0.140000X-0.170000X0.140000X0.170000X-0.140000X0.170000X0*%
%TD*%
%TA.AperFunction,SMDPad,CuDef*%
%ADD16RoundRect,0.135000X-0.135000X-0.185000X0.135000X-0.185000X0.135000X0.185000X-0.135000X0.185000X0*%
%TD*%
%TA.AperFunction,SMDPad,CuDef*%
%ADD17RoundRect,0.250000X-0.250000X-0.475000X0.250000X-0.475000X0.250000X0.475000X-0.250000X0.475000X0*%
%TD*%
%TA.AperFunction,SMDPad,CuDef*%
%ADD18RoundRect,0.140000X0.140000X0.170000X-0.140000X0.170000X-0.140000X-0.170000X0.140000X-0.170000X0*%
%TD*%
%TA.AperFunction,SMDPad,CuDef*%
%ADD19R,3.000000X0.900000*%
%TD*%
%TA.AperFunction,SMDPad,CuDef*%
%ADD20RoundRect,0.100000X0.350000X0.100000X-0.350000X0.100000X-0.350000X-0.100000X0.350000X-0.100000X0*%
%TD*%
%TA.AperFunction,SMDPad,CuDef*%
%ADD21R,0.550000X1.500000*%
%TD*%
%TA.AperFunction,SMDPad,CuDef*%
%ADD22R,1.500000X0.550000*%
%TD*%
%TA.AperFunction,ComponentPad*%
%ADD23R,1.000000X1.000000*%
%TD*%
%TA.AperFunction,ComponentPad*%
%ADD24O,1.000000X1.000000*%
%TD*%
%TA.AperFunction,ComponentPad*%
%ADD25C,1.000000*%
%TD*%
%TA.AperFunction,SMDPad,CuDef*%
%ADD26Outline4P,-0.350000X-0.400000X0.350000X-0.400000X0.050000X0.400000X-0.050000X0.400000X180.000000*%
%TD*%
%TA.AperFunction,SMDPad,CuDef*%
%ADD27C,0.600000*%
%TD*%
%TA.AperFunction,SMDPad,CuDef*%
%ADD28FreePoly0,180.000000*%
%TD*%
%TA.AperFunction,SMDPad,CuDef*%
%ADD29FreePoly1,180.000000*%
%TD*%
%TA.AperFunction,SMDPad,CuDef*%
%ADD30RoundRect,0.140000X-0.170000X0.140000X-0.170000X-0.140000X0.170000X-0.140000X0.170000X0.140000X0*%
%TD*%
%TA.AperFunction,SMDPad,CuDef*%
%ADD31R,1.500000X1.000000*%
%TD*%
%TA.AperFunction,SMDPad,CuDef*%
%ADD32RoundRect,0.135000X-0.185000X0.135000X-0.185000X-0.135000X0.185000X-0.135000X0.185000X0.135000X0*%
%TD*%
%TA.AperFunction,SMDPad,CuDef*%
%ADD33R,1.000000X1.000000*%
%TD*%
%TA.AperFunction,SMDPad,CuDef*%
%ADD34RoundRect,0.147500X0.147500X0.172500X-0.147500X0.172500X-0.147500X-0.172500X0.147500X-0.172500X0*%
%TD*%
%TA.AperFunction,SMDPad,CuDef*%
%ADD35C,0.500000*%
%TD*%
%TA.AperFunction,ViaPad*%
%ADD36C,0.600000*%
%TD*%
%TA.AperFunction,Conductor*%
%ADD37C,0.500000*%
%TD*%
%TA.AperFunction,Conductor*%
%ADD38C,0.400000*%
%TD*%
%TA.AperFunction,Conductor*%
%ADD39C,0.600000*%
%TD*%
%TA.AperFunction,Conductor*%
%ADD40C,0.200000*%
%TD*%
G04 APERTURE END LIST*
D10*
%TO.C,AE1*%
X2049000Y27861500D02*
X2049000Y38861500D01*
X4049000Y38861500D02*
X4049000Y33861500D01*
X6049000Y38861500D02*
X6049000Y33861500D01*
X8049000Y38861500D02*
X8049000Y33861500D01*
X10049000Y38861500D02*
X10049000Y33861500D01*
X12049000Y38861500D02*
X12049000Y33861500D01*
X14049000Y38861500D02*
X14049000Y33861500D01*
X16049000Y38861500D02*
X16049000Y33861500D01*
X18049000Y38861500D02*
X18049000Y33861500D01*
X20049000Y38861500D02*
X20049000Y33861500D01*
D11*
%TA.AperFunction,EtchedComponent*%
%TO.C,NT1*%
G36*
X4060000Y24544400D02*
G01*
X3560000Y24544400D01*
X3560000Y25544400D01*
X4060000Y25544400D01*
X4060000Y24544400D01*
G37*
%TD.AperFunction*%
%TD*%
D12*
%TO.P,D1,1,K*%
%TO.N,GND*%
X4953000Y23980000D03*
%TO.P,D1,2,A*%
%TO.N,Net-(D1-A)*%
X4953000Y23010000D03*
%TD*%
D13*
%TO.P,C1,1*%
%TO.N,/DTR*%
X3810000Y10569000D03*
%TO.P,C1,2*%
%TO.N,/RSETB*%
X3810000Y11529000D03*
%TD*%
D14*
%TO.P,R4,1*%
%TO.N,Net-(U1-PD4)*%
X4951000Y21080000D03*
%TO.P,R4,2*%
%TO.N,Net-(D1-A)*%
X4951000Y22100000D03*
%TD*%
%TO.P,R1,1*%
%TO.N,VCC*%
X14224000Y25525000D03*
%TO.P,R1,2*%
%TO.N,/RSETB*%
X14224000Y26545000D03*
%TD*%
D15*
%TO.P,C2,1*%
%TO.N,GND*%
X12506000Y10829000D03*
%TO.P,C2,2*%
%TO.N,Net-(U1-AREF)*%
X13466000Y10829000D03*
%TD*%
D13*
%TO.P,C4,1*%
%TO.N,VCC*%
X19429000Y17173000D03*
%TO.P,C4,2*%
%TO.N,GND*%
X19429000Y18133000D03*
%TD*%
D15*
%TO.P,C6,1*%
%TO.N,GND*%
X12220000Y25400000D03*
%TO.P,C6,2*%
%TO.N,VCC*%
X13180000Y25400000D03*
%TD*%
%TO.P,C8,1*%
%TO.N,Net-(U1-AVCC)*%
X10601000Y10702000D03*
%TO.P,C8,2*%
%TO.N,GND*%
X11561000Y10702000D03*
%TD*%
D16*
%TO.P,R2,1*%
%TO.N,VCC*%
X8583200Y10515600D03*
%TO.P,R2,2*%
%TO.N,Net-(U1-AVCC)*%
X9603200Y10515600D03*
%TD*%
D17*
%TO.P,C5,1*%
%TO.N,/plusBAT*%
X9575000Y2810000D03*
%TO.P,C5,2*%
%TO.N,GND*%
X11475000Y2810000D03*
%TD*%
D13*
%TO.P,C11,1*%
%TO.N,VCC*%
X4953000Y19205000D03*
%TO.P,C11,2*%
%TO.N,GND*%
X4953000Y20165000D03*
%TD*%
%TO.P,C12,1*%
%TO.N,VCC*%
X3937000Y19205000D03*
%TO.P,C12,2*%
%TO.N,GND*%
X3937000Y20165000D03*
%TD*%
D18*
%TO.P,C13,1*%
%TO.N,/ANT*%
X3909000Y26543000D03*
%TO.P,C13,2*%
%TO.N,Net-(AE1-A)*%
X2949000Y26543000D03*
%TD*%
D19*
%TO.P,L1,1,1*%
%TO.N,/plusBAT*%
X6207000Y1821000D03*
%TO.P,L1,2,2*%
%TO.N,/L*%
X6207000Y3921000D03*
%TD*%
D20*
%TO.P,U2,1,VIN*%
%TO.N,/plusBAT*%
X11625000Y4700000D03*
%TO.P,U2,2,FB*%
%TO.N,VCC*%
X11625000Y5350000D03*
%TO.P,U2,3,GND*%
%TO.N,GND*%
X11625000Y6000000D03*
%TO.P,U2,4,VOUT*%
%TO.N,VCC*%
X9425000Y6000000D03*
%TO.P,U2,5,L*%
%TO.N,/L*%
X9425000Y5350000D03*
%TO.P,U2,6,EN*%
%TO.N,/plusBAT*%
X9425000Y4700000D03*
%TD*%
D17*
%TO.P,C9,1*%
%TO.N,VCC*%
X9575000Y8144000D03*
%TO.P,C9,2*%
%TO.N,GND*%
X11475000Y8144000D03*
%TD*%
D21*
%TO.P,U1,1,PB5*%
%TO.N,/MOSI*%
X16190000Y23861000D03*
%TO.P,U1,2,PB6*%
%TO.N,/MISO*%
X15390000Y23861000D03*
%TO.P,U1,3,PB7*%
%TO.N,/SCK*%
X14590000Y23861000D03*
%TO.P,U1,4,~{RESET}*%
%TO.N,/RSETB*%
X13790000Y23861000D03*
%TO.P,U1,5,VCC*%
%TO.N,VCC*%
X12990000Y23861000D03*
%TO.P,U1,6,GND*%
%TO.N,GND*%
X12190000Y23861000D03*
%TO.P,U1,7,XTAL2*%
%TO.N,unconnected-(U1-XTAL2-Pad7)*%
X11390000Y23861000D03*
%TO.P,U1,8,XTAL1*%
%TO.N,unconnected-(U1-XTAL1-Pad8)*%
X10590000Y23861000D03*
%TO.P,U1,9,PD0*%
%TO.N,/RXD0*%
X9790000Y23861000D03*
%TO.P,U1,10,PD1*%
%TO.N,/TXD0*%
X8990000Y23861000D03*
%TO.P,U1,11,PD2*%
%TO.N,/D2*%
X8190000Y23861000D03*
D22*
%TO.P,U1,12,PD3*%
%TO.N,unconnected-(U1-PD3-Pad12)*%
X6490000Y22161000D03*
%TO.P,U1,13,PD4*%
%TO.N,Net-(U1-PD4)*%
X6490000Y21361000D03*
%TO.P,U1,14,PD5*%
%TO.N,unconnected-(U1-PD5-Pad14)*%
X6490000Y20561000D03*
%TO.P,U1,15,PD6*%
%TO.N,unconnected-(U1-PD6-Pad15)*%
X6490000Y19761000D03*
%TO.P,U1,16,PD7*%
%TO.N,unconnected-(U1-PD7-Pad16)*%
X6490000Y18961000D03*
%TO.P,U1,17,VCC*%
%TO.N,VCC*%
X6490000Y18161000D03*
%TO.P,U1,18,GND*%
%TO.N,GND*%
X6490000Y17361000D03*
%TO.P,U1,19,PC0*%
%TO.N,/SCL*%
X6490000Y16561000D03*
%TO.P,U1,20,PC1*%
%TO.N,/SDA*%
X6490000Y15761000D03*
%TO.P,U1,21,PC2*%
%TO.N,unconnected-(U1-PC2-Pad21)*%
X6490000Y14961000D03*
%TO.P,U1,22,PC3*%
%TO.N,/C3*%
X6490000Y14161000D03*
D21*
%TO.P,U1,23,PC4*%
%TO.N,/C4*%
X8190000Y12461000D03*
%TO.P,U1,24,PC5*%
%TO.N,/C5*%
X8990000Y12461000D03*
%TO.P,U1,25,PC6*%
%TO.N,/CONFIG*%
X9790000Y12461000D03*
%TO.P,U1,26,PC7*%
%TO.N,unconnected-(U1-PC7-Pad26)*%
X10590000Y12461000D03*
%TO.P,U1,27,AVCC*%
%TO.N,Net-(U1-AVCC)*%
X11390000Y12461000D03*
%TO.P,U1,28,GND*%
%TO.N,GND*%
X12190000Y12461000D03*
%TO.P,U1,29,AREF*%
%TO.N,Net-(U1-AREF)*%
X12990000Y12461000D03*
%TO.P,U1,30,PA7*%
%TO.N,/A7*%
X13790000Y12461000D03*
%TO.P,U1,31,PA6*%
%TO.N,/A6*%
X14590000Y12461000D03*
%TO.P,U1,32,PA5*%
%TO.N,/A5*%
X15390000Y12461000D03*
%TO.P,U1,33,PA4*%
%TO.N,/A4*%
X16190000Y12461000D03*
D22*
%TO.P,U1,34,PA3*%
%TO.N,/A3*%
X17890000Y14161000D03*
%TO.P,U1,35,PA2*%
%TO.N,/A2*%
X17890000Y14961000D03*
%TO.P,U1,36,PA1*%
%TO.N,unconnected-(U1-PA1-Pad36)*%
X17890000Y15761000D03*
%TO.P,U1,37,PA0*%
%TO.N,Net-(U1-PA0)*%
X17890000Y16561000D03*
%TO.P,U1,38,VCC*%
%TO.N,VCC*%
X17890000Y17361000D03*
%TO.P,U1,39,GND*%
%TO.N,GND*%
X17890000Y18161000D03*
%TO.P,U1,40,PB0*%
%TO.N,unconnected-(U1-PB0-Pad40)*%
X17890000Y18961000D03*
%TO.P,U1,41,PB1*%
%TO.N,unconnected-(U1-PB1-Pad41)*%
X17890000Y19761000D03*
%TO.P,U1,42,PB2*%
%TO.N,unconnected-(U1-PB2-Pad42)*%
X17890000Y20561000D03*
%TO.P,U1,43,PB3*%
%TO.N,/B3*%
X17890000Y21361000D03*
%TO.P,U1,44,PB4*%
%TO.N,/SS*%
X17890000Y22161000D03*
%TD*%
D18*
%TO.P,C3,1*%
%TO.N,VCC*%
X13180000Y26416000D03*
%TO.P,C3,2*%
%TO.N,GND*%
X12220000Y26416000D03*
%TD*%
D23*
%TO.P,J1,1,Pin_1*%
%TO.N,GND*%
X1828800Y6451600D03*
D24*
%TO.P,J1,2,Pin_2*%
%TO.N,VCC*%
X1828800Y5181600D03*
%TO.P,J1,3,Pin_3*%
%TO.N,/plusBAT*%
X1828800Y3911600D03*
%TD*%
D25*
%TO.P,AE1,*%
%TO.N,*%
X2049000Y38861500D03*
X4049000Y38861500D03*
X4049000Y33861500D03*
X6049000Y38861500D03*
X6049000Y33861500D03*
X8049000Y38861500D03*
X8049000Y33861500D03*
X10049000Y38861500D03*
X10049000Y33861500D03*
X12049000Y38861500D03*
X12049000Y33861500D03*
X14049000Y38861500D03*
X14049000Y33861500D03*
X16049000Y38861500D03*
X16049000Y33861500D03*
X18049000Y38861500D03*
X18049000Y33861500D03*
X20049000Y38861500D03*
X20049000Y33861500D03*
D26*
%TO.P,AE1,1,A*%
%TO.N,Net-(AE1-A)*%
X2049000Y27161500D03*
%TD*%
D23*
%TO.P,J5,1,Pin_1*%
%TO.N,/C3*%
X4978400Y8382000D03*
D24*
%TO.P,J5,2,Pin_2*%
%TO.N,/C4*%
X6248400Y8382000D03*
%TO.P,J5,3,Pin_3*%
%TO.N,/C5*%
X7518400Y8382000D03*
%TD*%
D23*
%TO.P,J6,1,Pin_1*%
%TO.N,/B3*%
X20167600Y26009600D03*
%TD*%
D27*
%TO.P,J2,1,Pin_1*%
%TO.N,/DTR*%
X2328000Y11176000D03*
X1778000Y10626000D03*
X1778000Y11726000D03*
D28*
X1228000Y11176000D03*
D27*
%TO.P,J2,2,Pin_2*%
%TO.N,/TXD0*%
X2328000Y13716000D03*
D29*
X1778000Y13166000D03*
D27*
X1778000Y14266000D03*
X1228000Y13716000D03*
%TO.P,J2,3,Pin_3*%
%TO.N,/RXD0*%
X2328000Y16256000D03*
D29*
X1778000Y15706000D03*
D27*
X1778000Y16806000D03*
X1228000Y16256000D03*
%TO.P,J2,4,Pin_4*%
%TO.N,VCC*%
X2328000Y18796000D03*
D29*
X1778000Y18246000D03*
D27*
X1778000Y19346000D03*
X1228000Y18796000D03*
%TO.P,J2,5,Pin_5*%
%TO.N,/CTS*%
X2328000Y21336000D03*
D29*
X1778000Y20786000D03*
D27*
X1778000Y21886000D03*
X1228000Y21336000D03*
%TO.P,J2,6,Pin_6*%
%TO.N,GND*%
X2328000Y23876000D03*
D29*
X1778000Y23326000D03*
D27*
X1778000Y24426000D03*
X1228000Y23876000D03*
%TD*%
D23*
%TO.P,J4,1,Pin_1*%
%TO.N,/A7*%
X20167600Y1371600D03*
D24*
%TO.P,J4,2,Pin_2*%
%TO.N,/A6*%
X20167600Y2641600D03*
%TO.P,J4,3,Pin_3*%
%TO.N,/A5*%
X20167600Y3911600D03*
%TO.P,J4,4,Pin_4*%
%TO.N,/A4*%
X20167600Y5181600D03*
%TO.P,J4,5,Pin_5*%
%TO.N,/SCL*%
X20167600Y6451600D03*
%TO.P,J4,6,Pin_6*%
%TO.N,/SDA*%
X20167600Y7721600D03*
%TO.P,J4,7,Pin_7*%
%TO.N,/A3*%
X20167600Y8991600D03*
%TO.P,J4,8,Pin_8*%
%TO.N,/A2*%
X20167600Y10261600D03*
%TD*%
D30*
%TO.P,C7,1*%
%TO.N,VCC*%
X4985000Y18294000D03*
%TO.P,C7,2*%
%TO.N,GND*%
X4985000Y17334000D03*
%TD*%
D31*
%TO.P,JP2,1,A*%
%TO.N,/CONFIG*%
X20193000Y13701000D03*
%TO.P,JP2,2,B*%
%TO.N,GND*%
X20193000Y15001000D03*
%TD*%
%TO.P,JP1,1,A*%
%TO.N,GND*%
X20193000Y21575000D03*
%TO.P,JP1,2,B*%
%TO.N,/RSETB*%
X20193000Y22875000D03*
%TD*%
D32*
%TO.P,R3,1*%
%TO.N,Net-(U1-PA0)*%
X16865600Y10568400D03*
%TO.P,R3,2*%
%TO.N,/plusBAT*%
X16865600Y9548400D03*
%TD*%
D33*
%TO.P,TP2,1,1*%
%TO.N,/plusBAT*%
X1270000Y1727200D03*
%TD*%
D34*
%TO.P,L2,1,1*%
%TO.N,Net-(AE1-A)*%
X1882000Y26416000D03*
%TO.P,L2,2,2*%
%TO.N,GND*%
X912000Y26416000D03*
%TD*%
D35*
%TO.P,NT1,1,1*%
%TO.N,GND*%
X3810000Y25544400D03*
%TO.P,NT1,2,2*%
%TO.N,/CTS*%
X3810000Y24544400D03*
%TD*%
D33*
%TO.P,TP1,1,1*%
%TO.N,GND*%
X1270000Y8636000D03*
%TD*%
D36*
%TO.N,GND*%
X11957454Y13615936D03*
X14224000Y16891000D03*
X12943781Y10146292D03*
X3979911Y20404089D03*
X12700000Y8382000D03*
X6259600Y13081000D03*
X11811000Y19558000D03*
X19431000Y19177000D03*
X5969000Y11684000D03*
X11747500Y17716500D03*
X2413000Y25527000D03*
X9271000Y13716000D03*
X6350000Y23622000D03*
X4345247Y16549501D03*
X12700000Y7239000D03*
X11811000Y22352000D03*
%TO.N,/SS*%
X16474855Y20670249D03*
%TO.N,/D2*%
X9779000Y19558000D03*
%TO.N,/SCL*%
X16044911Y15070089D03*
X17932400Y13157200D03*
%TO.N,/SDA*%
X16154400Y14020800D03*
X20574000Y12090400D03*
%TO.N,/MOSI*%
X16282502Y22098000D03*
%TO.N,/SCK*%
X4318000Y15350001D03*
X3827500Y17653000D03*
X15875355Y19048111D03*
%TO.N,/MISO*%
X16964502Y23368000D03*
%TO.N,VCC*%
X4699000Y10795000D03*
X4064001Y18668999D03*
%TO.N,/plusBAT*%
X14351000Y4826000D03*
X16865600Y8686800D03*
X12828000Y4700000D03*
X8763000Y3937000D03*
%TO.N,/CONFIG*%
X19558000Y12141200D03*
X14986000Y13716000D03*
%TO.N,/RSETB*%
X3859055Y12227500D03*
X19304922Y24235517D03*
X4734500Y25237500D03*
%TO.N,/TXD0*%
X2923399Y12866436D03*
X7747000Y19050000D03*
X5210925Y16153427D03*
X5334000Y12827000D03*
%TO.N,/ANT*%
X6477000Y26543000D03*
%TO.N,/B3*%
X17881600Y24739598D03*
X17847833Y26090400D03*
%TD*%
D37*
%TO.N,GND*%
X19613386Y18133000D02*
X20193000Y17553386D01*
X5098501Y23834499D02*
X6137501Y23834499D01*
X12190000Y11145000D02*
X12506000Y10829000D01*
X11688000Y10829000D02*
X11561000Y10702000D01*
X12220000Y25400000D02*
X12220000Y23891000D01*
X1828800Y8077200D02*
X1270000Y8636000D01*
X12115000Y23786000D02*
X12115000Y22661000D01*
X19431000Y19177000D02*
X19431000Y20813000D01*
X12220000Y23891000D02*
X12190000Y23861000D01*
X4345247Y16694247D02*
X4345247Y16549501D01*
X912000Y25713007D02*
X1106007Y25519000D01*
D38*
X10525000Y3760000D02*
X10525000Y5750000D01*
D37*
X2405000Y25519000D02*
X2413000Y25527000D01*
X4953000Y20165000D02*
X4219000Y20165000D01*
X12115000Y22661000D02*
X11806000Y22352000D01*
X11392000Y17361000D02*
X11747500Y17716500D01*
X10541000Y14986000D02*
X14224000Y14986000D01*
X12220000Y26416000D02*
X12220000Y25400000D01*
X12190000Y12461000D02*
X12190000Y13383390D01*
X19429000Y18133000D02*
X19613386Y18133000D01*
X17890000Y18161000D02*
X19401000Y18161000D01*
X3810000Y25544400D02*
X2430400Y25544400D01*
X11625000Y6917000D02*
X11625000Y7994000D01*
X20193000Y17553386D02*
X20193000Y15001000D01*
X12462000Y8144000D02*
X12700000Y8382000D01*
D38*
X10775000Y6000000D02*
X11625000Y6000000D01*
D37*
X4219000Y20165000D02*
X3979911Y20404089D01*
X12190000Y12461000D02*
X12190000Y11145000D01*
X19431000Y19177000D02*
X19431000Y18135000D01*
X912000Y26416000D02*
X912000Y25713007D01*
X12506000Y10829000D02*
X12506000Y10584073D01*
X4953000Y23980000D02*
X5098501Y23834499D01*
X5969000Y11684000D02*
X5969000Y12319000D01*
X11806000Y22352000D02*
X11811000Y22352000D01*
X11811000Y22352000D02*
X11811000Y19558000D01*
X11625000Y6000000D02*
X11625000Y6917000D01*
D38*
X10525000Y5750000D02*
X10775000Y6000000D01*
D37*
X1106007Y25519000D02*
X2405000Y25519000D01*
X6490000Y17361000D02*
X5012000Y17361000D01*
X19431000Y20813000D02*
X20193000Y21575000D01*
X12190000Y13383390D02*
X11957454Y13615936D01*
X5969000Y12319000D02*
X6259600Y12609600D01*
X2430400Y25544400D02*
X2413000Y25527000D01*
X1778000Y24892000D02*
X2413000Y25527000D01*
X1828800Y6451600D02*
X1828800Y8077200D01*
X6259600Y12609600D02*
X6259600Y13081000D01*
X9271000Y13716000D02*
X10541000Y14986000D01*
X12700000Y8382000D02*
X12700000Y7239000D01*
X4985000Y17334000D02*
X4345247Y16694247D01*
X12506000Y10829000D02*
X11688000Y10829000D01*
X11475000Y8144000D02*
X12462000Y8144000D01*
X1778000Y24426000D02*
X1778000Y24892000D01*
X12190000Y23861000D02*
X12115000Y23786000D01*
X14224000Y14986000D02*
X14224000Y16891000D01*
X12506000Y10584073D02*
X12943781Y10146292D01*
D38*
X11475000Y2810000D02*
X10525000Y3760000D01*
D37*
X6490000Y17361000D02*
X11392000Y17361000D01*
X6137501Y23834499D02*
X6350000Y23622000D01*
D39*
%TO.N,Net-(AE1-A)*%
X2413000Y26416000D02*
X2822000Y26416000D01*
X1882000Y26416000D02*
X2413000Y26416000D01*
D40*
X2049000Y26780000D02*
X2049000Y27062000D01*
X2049000Y27161500D02*
X2049000Y26306000D01*
D39*
X2822000Y26416000D02*
X2949000Y26543000D01*
D40*
%TO.N,/SS*%
X17193324Y22161000D02*
X16474855Y21442531D01*
X16474855Y21442531D02*
X16474855Y20670249D01*
X17890000Y22161000D02*
X17193324Y22161000D01*
%TO.N,/D2*%
X8190000Y21147000D02*
X9779000Y19558000D01*
X8190000Y23861000D02*
X8190000Y21147000D01*
%TO.N,/SCL*%
X17932400Y11716191D02*
X18226800Y11421791D01*
X13810199Y17890001D02*
X14637801Y17890001D01*
X17932400Y13157200D02*
X17932400Y11716191D01*
X12388697Y16468499D02*
X13810199Y17890001D01*
X18226800Y11421791D02*
X18226800Y7020800D01*
X16044911Y16482891D02*
X16044911Y15070089D01*
X14637801Y17890001D02*
X16044911Y16482891D01*
X6582501Y16468499D02*
X12388697Y16468499D01*
X18226800Y7020800D02*
X18796000Y6451600D01*
X18796000Y6451600D02*
X20167600Y6451600D01*
%TO.N,/SDA*%
X15856900Y14318300D02*
X16154400Y14020800D01*
X14472322Y17490500D02*
X15371930Y16590892D01*
X13975678Y17490500D02*
X14472322Y17490500D01*
X20929600Y7721600D02*
X21018400Y7810400D01*
X12246178Y15761000D02*
X13975678Y17490500D01*
X15371930Y14318300D02*
X15856900Y14318300D01*
X6490000Y15761000D02*
X12246178Y15761000D01*
X15371930Y16590892D02*
X15371930Y14318300D01*
X21018400Y7810400D02*
X21018400Y11646000D01*
X21018400Y11646000D02*
X20574000Y12090400D01*
X20167600Y7721600D02*
X20929600Y7721600D01*
%TO.N,Net-(U1-AREF)*%
X12990000Y11305000D02*
X13466000Y10829000D01*
X12990000Y12461000D02*
X12990000Y11305000D01*
%TO.N,Net-(U1-AVCC)*%
X9789600Y10702000D02*
X9603200Y10515600D01*
X10601000Y10702000D02*
X9789600Y10702000D01*
X11390000Y11407112D02*
X11333858Y11407112D01*
X11333858Y11407112D02*
X10628746Y10702000D01*
X11390000Y12461000D02*
X11390000Y11407112D01*
%TO.N,Net-(D1-A)*%
X4951000Y22100000D02*
X4951000Y23008000D01*
%TO.N,/MOSI*%
X16190000Y22190502D02*
X16282502Y22098000D01*
X16190000Y23861000D02*
X16190000Y22190502D01*
%TO.N,/SCK*%
X14590000Y22748000D02*
X15875355Y21462645D01*
X15875355Y21462645D02*
X15875355Y19048111D01*
X14590000Y23861000D02*
X14590000Y22748000D01*
X4318000Y15350001D02*
X3745747Y15922254D01*
X3745747Y15922254D02*
X3745747Y17571247D01*
X3745747Y17571247D02*
X3827500Y17653000D01*
%TO.N,/MISO*%
X16765000Y24911000D02*
X15490000Y24911000D01*
X15490000Y24911000D02*
X15390000Y24811000D01*
X16964502Y23368000D02*
X16964502Y24711498D01*
X16964502Y24711498D02*
X16765000Y24911000D01*
X15390000Y24811000D02*
X15390000Y23861000D01*
D37*
%TO.N,VCC*%
X4985000Y18383000D02*
X4381501Y18986499D01*
X6490000Y18161000D02*
X5118000Y18161000D01*
X3078000Y14872954D02*
X3078000Y18046000D01*
X12700000Y18923000D02*
X12802498Y18820502D01*
X19241000Y17361000D02*
X19429000Y17173000D01*
X12700000Y22256756D02*
X12990000Y22546756D01*
X5118000Y18161000D02*
X4985000Y18294000D01*
X4584500Y13366454D02*
X3078000Y14872954D01*
X13827000Y6702000D02*
X13827000Y8812000D01*
X13286000Y9353000D02*
X9575000Y9353000D01*
X12700000Y22256756D02*
X12700000Y18923000D01*
X13305000Y25525000D02*
X13180000Y25400000D01*
D38*
X9425000Y6704000D02*
X3529000Y6704000D01*
D37*
X12790496Y18808500D02*
X12802498Y18820502D01*
X4699000Y11176000D02*
X4699000Y10795000D01*
X8583200Y10515600D02*
X8547000Y10479400D01*
X14865412Y18820502D02*
X16324914Y17361000D01*
X4699000Y10795000D02*
X4699000Y10002600D01*
X9575000Y9353000D02*
X9575000Y8144000D01*
D38*
X11625000Y5350000D02*
X12475000Y5350000D01*
D37*
X3937000Y19205000D02*
X4953000Y19205000D01*
X2328000Y18796000D02*
X3937000Y18796000D01*
X17890000Y17361000D02*
X19241000Y17361000D01*
X4584500Y12516546D02*
X4584500Y13366454D01*
X3937000Y18796000D02*
X4064001Y18668999D01*
X3529000Y8832600D02*
X3529000Y6704000D01*
X11569500Y18808500D02*
X12790496Y18808500D01*
X4600002Y19205000D02*
X4381501Y18986499D01*
X4953000Y19205000D02*
X4600002Y19205000D01*
X5080000Y11557000D02*
X4699000Y11176000D01*
X4985000Y18294000D02*
X4985000Y18383000D01*
X2535906Y5181600D02*
X3529000Y6174694D01*
D38*
X12475000Y5350000D02*
X13827000Y6702000D01*
D37*
X16324914Y17361000D02*
X17890000Y17361000D01*
X13180000Y25400000D02*
X12990000Y25210000D01*
X13180000Y26416000D02*
X13180000Y25400000D01*
X3937000Y19205000D02*
X3937000Y18796000D01*
X3529000Y6174694D02*
X3529000Y6704000D01*
D38*
X9454000Y9253000D02*
X9370000Y9337000D01*
D37*
X6490000Y18161000D02*
X10922000Y18161000D01*
X5080000Y11557000D02*
X5080000Y12021046D01*
X14224000Y25525000D02*
X13305000Y25525000D01*
X12802498Y18820502D02*
X14865412Y18820502D01*
X5080000Y12021046D02*
X4584500Y12516546D01*
X9425000Y6704000D02*
X9425000Y7994000D01*
X9370000Y9337000D02*
X8547000Y10160000D01*
X3078000Y18046000D02*
X2328000Y18796000D01*
X4953000Y19205000D02*
X4953000Y18326000D01*
X8547000Y10479400D02*
X8547000Y10160000D01*
X9425000Y6000000D02*
X9425000Y6704000D01*
X1828800Y5181600D02*
X2535906Y5181600D01*
X10922000Y18161000D02*
X11569500Y18808500D01*
X4699000Y10002600D02*
X3529000Y8832600D01*
X4381501Y18986499D02*
X4064001Y18668999D01*
X13827000Y8812000D02*
X13286000Y9353000D01*
X12990000Y25210000D02*
X12990000Y23861000D01*
X12990000Y22546756D02*
X12990000Y23861000D01*
%TO.N,/plusBAT*%
X9575000Y2810000D02*
X9575000Y3860000D01*
X2463800Y1727200D02*
X1828800Y2362200D01*
D39*
X6433000Y679000D02*
X6207000Y905000D01*
D37*
X1828800Y2362200D02*
X1828800Y3911600D01*
X9575000Y4550000D02*
X9425000Y4700000D01*
X8763000Y3937000D02*
X9498000Y3937000D01*
X9498000Y3937000D02*
X9575000Y3860000D01*
X14556000Y778000D02*
X14556000Y4367000D01*
D40*
X16865600Y9548400D02*
X16865600Y8686800D01*
D37*
X1270000Y1803400D02*
X1828800Y2362200D01*
X9603000Y651000D02*
X9575000Y679000D01*
D39*
X9575000Y2810000D02*
X9575000Y679000D01*
X6207000Y905000D02*
X6207000Y1821000D01*
D37*
X9575000Y3860000D02*
X9575000Y4550000D01*
X14429000Y651000D02*
X14556000Y778000D01*
X9425000Y4599000D02*
X8763000Y3937000D01*
X2463800Y1727200D02*
X1270000Y1727200D01*
X3512000Y679000D02*
X2463800Y1727200D01*
X14556000Y4367000D02*
X14223000Y4700000D01*
X9603000Y651000D02*
X14429000Y651000D01*
D38*
X3512000Y679000D02*
X6433000Y679000D01*
D37*
X9425000Y4700000D02*
X9425000Y4599000D01*
D38*
X11625000Y4700000D02*
X14223000Y4700000D01*
D39*
X9575000Y679000D02*
X6433000Y679000D01*
D40*
%TO.N,/CONFIG*%
X10594436Y14215436D02*
X12205776Y14215436D01*
X9790000Y12461000D02*
X9790000Y13411000D01*
X12705212Y13716000D02*
X14986000Y13716000D01*
X19830162Y13701000D02*
X19830162Y12413362D01*
X9790000Y13411000D02*
X10594436Y14215436D01*
X12205776Y14215436D02*
X12705212Y13716000D01*
X19830162Y12413362D02*
X19558000Y12141200D01*
%TO.N,/DTR*%
X1778000Y10160000D02*
X1778000Y10626000D01*
X2032000Y9906000D02*
X1778000Y10160000D01*
X3810000Y10541000D02*
X3175000Y9906000D01*
X3175000Y9906000D02*
X2032000Y9906000D01*
%TO.N,/RSETB*%
X19943000Y22875000D02*
X19943000Y23597439D01*
X14844000Y25209817D02*
X14844000Y25385000D01*
X14899400Y25440400D02*
X18100039Y25440400D01*
X18100039Y25440400D02*
X19304922Y24235517D01*
X11640000Y25400000D02*
X7620000Y25400000D01*
X14844000Y25385000D02*
X14899400Y25440400D01*
X3810000Y12178445D02*
X3859055Y12227500D01*
X13743000Y27026000D02*
X11897746Y27026000D01*
X19943000Y23597439D02*
X19304922Y24235517D01*
X14603000Y26545000D02*
X14224000Y26545000D01*
X4953000Y25019000D02*
X4734500Y25237500D01*
X13790000Y24811000D02*
X13890000Y24911000D01*
X11640000Y26768254D02*
X11640000Y25400000D01*
X7620000Y25400000D02*
X7239000Y25019000D01*
X14545183Y24911000D02*
X14844000Y25209817D01*
X13890000Y24911000D02*
X14545183Y24911000D01*
X11897746Y27026000D02*
X11640000Y26768254D01*
X14844000Y26304000D02*
X14603000Y26545000D01*
X13790000Y23861000D02*
X13790000Y24811000D01*
X3810000Y11529000D02*
X3810000Y12178445D01*
X7239000Y25019000D02*
X4953000Y25019000D01*
X14224000Y26545000D02*
X13743000Y27026000D01*
X14844000Y25385000D02*
X14844000Y26304000D01*
%TO.N,/RXD0*%
X9790000Y24811000D02*
X9790000Y23861000D01*
X4639638Y24619499D02*
X7404479Y24619499D01*
X1778000Y16806000D02*
X1228000Y16806000D01*
X2175255Y19955255D02*
X4318000Y22098000D01*
X628000Y19297000D02*
X1286255Y19955255D01*
X7404479Y24619499D02*
X7785479Y25000499D01*
X1228000Y16806000D02*
X628000Y17406000D01*
X1286255Y19955255D02*
X2175255Y19955255D01*
X7785479Y25000499D02*
X9600501Y25000499D01*
X9600501Y25000499D02*
X9790000Y24811000D01*
X4318000Y24297861D02*
X4639638Y24619499D01*
X4318000Y22098000D02*
X4318000Y24297861D01*
X628000Y17406000D02*
X628000Y19297000D01*
%TO.N,/TXD0*%
X8990000Y21436000D02*
X10414000Y20012000D01*
X2923399Y12866436D02*
X2923399Y13120601D01*
X10414000Y18923000D02*
X7874000Y18923000D01*
X7874000Y18923000D02*
X7747000Y19050000D01*
X5210925Y12950075D02*
X5334000Y12827000D01*
X2923399Y13120601D02*
X2328000Y13716000D01*
X10414000Y20012000D02*
X10414000Y18923000D01*
X5210925Y16153427D02*
X5210925Y12950075D01*
X8990000Y23861000D02*
X8990000Y21436000D01*
%TO.N,Net-(U1-PA0)*%
X16774400Y16395400D02*
X16774400Y10659600D01*
X17890000Y16561000D02*
X16940000Y16561000D01*
X16940000Y16561000D02*
X16774400Y16395400D01*
%TO.N,Net-(U1-PD4)*%
X5232000Y21361000D02*
X4951000Y21080000D01*
X6490000Y21361000D02*
X5232000Y21361000D01*
D38*
%TO.N,/L*%
X6207000Y5191000D02*
X6207000Y3921000D01*
X9425000Y5350000D02*
X6366000Y5350000D01*
X6366000Y5350000D02*
X6207000Y5191000D01*
D39*
%TO.N,/ANT*%
X6477000Y26543000D02*
X3909000Y26543000D01*
D40*
%TO.N,/CTS*%
X2328000Y21886000D02*
X1778000Y21886000D01*
X3810000Y24544400D02*
X3810000Y23368000D01*
X3810000Y23368000D02*
X2328000Y21886000D01*
%TO.N,/A4*%
X16154400Y7416800D02*
X16154400Y7112000D01*
X18084800Y5181600D02*
X20167600Y5181600D01*
X16154400Y7112000D02*
X18084800Y5181600D01*
X16190000Y7452400D02*
X16154400Y7416800D01*
X16190000Y12461000D02*
X16190000Y7452400D01*
%TO.N,/A2*%
X17890000Y14961000D02*
X18840000Y14961000D01*
X18857200Y11922761D02*
X19026800Y11753161D01*
X18806400Y12075161D02*
X18857200Y12024361D01*
X18958800Y14842200D02*
X18958800Y12715239D01*
X18857200Y12024361D02*
X18857200Y11922761D01*
X18806400Y12562839D02*
X18806400Y12075161D01*
X18958800Y12715239D02*
X18806400Y12562839D01*
X19456400Y10261600D02*
X20167600Y10261600D01*
X19026800Y10691200D02*
X19456400Y10261600D01*
X18840000Y14961000D02*
X18958800Y14842200D01*
X19026800Y11753161D02*
X19026800Y10691200D01*
%TO.N,/A5*%
X15390000Y6911200D02*
X15390000Y12461000D01*
X18389600Y3911600D02*
X15390000Y6911200D01*
X20167600Y3911600D02*
X18389600Y3911600D01*
%TO.N,/A3*%
X18626800Y11587476D02*
X18626800Y9618000D01*
X18406400Y11807876D02*
X18626800Y11587476D01*
X17890000Y14161000D02*
X18558800Y13492200D01*
X18558800Y12880924D02*
X18406400Y12728525D01*
X18406400Y12728525D02*
X18406400Y11807876D01*
X18558800Y13492200D02*
X18558800Y12880924D01*
X18626800Y9618000D02*
X19253200Y8991600D01*
X19253200Y8991600D02*
X20167600Y8991600D01*
%TO.N,/A7*%
X14535200Y6336714D02*
X19449514Y1422400D01*
X13790000Y11441134D02*
X14535200Y10695934D01*
X14535200Y10695934D02*
X14535200Y6336714D01*
X13790000Y12461000D02*
X13790000Y11441134D01*
X19449514Y1422400D02*
X20116800Y1422400D01*
%TO.N,/A6*%
X14990000Y6447600D02*
X18796000Y2641600D01*
X14990000Y10806820D02*
X14990000Y6447600D01*
X14590000Y12461000D02*
X14590000Y11206820D01*
X14590000Y11206820D02*
X14990000Y10806820D01*
X18796000Y2641600D02*
X20167600Y2641600D01*
%TO.N,/C4*%
X7315200Y10922000D02*
X6248400Y9855200D01*
X8190000Y12461000D02*
X7315200Y11586200D01*
X7315200Y11586200D02*
X7315200Y10922000D01*
X6248400Y9855200D02*
X6248400Y8382000D01*
%TO.N,/C3*%
X6909600Y11380000D02*
X4978400Y9448800D01*
X4978400Y9448800D02*
X4978400Y8382000D01*
X6490000Y14161000D02*
X6909600Y13741400D01*
X6909600Y13741400D02*
X6909600Y11380000D01*
%TO.N,/C5*%
X8990000Y11511000D02*
X8705800Y11226800D01*
X7518400Y10464800D02*
X7518400Y8382000D01*
X8990000Y12461000D02*
X8990000Y11511000D01*
X8280400Y11226800D02*
X7518400Y10464800D01*
X8705800Y11226800D02*
X8280400Y11226800D01*
%TO.N,/B3*%
X18940000Y21461000D02*
X18940000Y23681198D01*
X18940000Y23681198D02*
X17881600Y24739598D01*
X20167600Y26009600D02*
X17928633Y26009600D01*
X17928633Y26009600D02*
X17847833Y26090400D01*
X18840000Y21361000D02*
X18940000Y21461000D01*
X17890000Y21361000D02*
X18840000Y21361000D01*
%TD*%
%TA.AperFunction,Conductor*%
%TO.N,/L*%
G36*
X8207763Y5178232D02*
G01*
X8211131Y5170100D01*
X8207763Y5161968D01*
X8207324Y5161552D01*
X7721600Y4724400D01*
X7721600Y4382500D01*
X7718232Y4374368D01*
X7710100Y4371000D01*
X6412300Y4371000D01*
X6404168Y4374368D01*
X6400800Y4382500D01*
X6400800Y5170100D01*
X6404168Y5178232D01*
X6412300Y5181600D01*
X8199631Y5181600D01*
X8207763Y5178232D01*
G37*
%TD.AperFunction*%
%TD*%
%TA.AperFunction,Conductor*%
%TO.N,/plusBAT*%
G36*
X9902632Y4949632D02*
G01*
X9906000Y4941500D01*
X9906000Y3523785D01*
X9849622Y3535000D01*
X9829001Y3535000D01*
X9829000Y3534999D01*
X9829000Y2085001D01*
X9829001Y2085000D01*
X9849622Y2085000D01*
X9906000Y2096214D01*
X9906000Y406400D01*
X2596839Y406400D01*
X2588707Y409768D01*
X2587372Y411371D01*
X2358837Y742746D01*
X1790387Y1566999D01*
X4707000Y1566999D01*
X4707000Y1371001D01*
X4707001Y1371000D01*
X5952999Y1371000D01*
X5953000Y1371001D01*
X5953000Y1566999D01*
X6461000Y1566999D01*
X6461000Y1371001D01*
X6461001Y1371000D01*
X7706999Y1371000D01*
X7707000Y1371001D01*
X7707000Y1566999D01*
X7706999Y1567000D01*
X6461001Y1567000D01*
X6461000Y1566999D01*
X5953000Y1566999D01*
X5952999Y1567000D01*
X4707001Y1567000D01*
X4707000Y1566999D01*
X1790387Y1566999D01*
X1574800Y1879600D01*
X1574800Y1981200D01*
X1769999Y1981200D01*
X1770000Y1981201D01*
X1770000Y2227199D01*
X1769999Y2227200D01*
X1586300Y2227200D01*
X1578168Y2230568D01*
X1574800Y2238700D01*
X1574800Y2274500D01*
X1578168Y2282632D01*
X1586300Y2286000D01*
X4695500Y2286000D01*
X4703632Y2282632D01*
X4707000Y2274500D01*
X4707000Y2075001D01*
X4707001Y2075000D01*
X7706999Y2075000D01*
X7707000Y2075001D01*
X7707000Y2274500D01*
X7710368Y2282632D01*
X7718500Y2286000D01*
X8508999Y2286000D01*
X8509000Y2286000D01*
X8509000Y2555999D01*
X9075000Y2555999D01*
X9075000Y2310377D01*
X9089504Y2237457D01*
X9089506Y2237453D01*
X9144758Y2154761D01*
X9144761Y2154758D01*
X9227453Y2099506D01*
X9227457Y2099504D01*
X9300378Y2085000D01*
X9320999Y2085000D01*
X9321000Y2085001D01*
X9321000Y2555999D01*
X9320999Y2556000D01*
X9075001Y2556000D01*
X9075000Y2555999D01*
X8509000Y2555999D01*
X8509000Y3309622D01*
X9075000Y3309622D01*
X9075000Y3064001D01*
X9075001Y3064000D01*
X9320999Y3064000D01*
X9321000Y3064001D01*
X9321000Y3534999D01*
X9320999Y3535000D01*
X9300378Y3535000D01*
X9227457Y3520495D01*
X9227453Y3520493D01*
X9144761Y3465241D01*
X9144758Y3465238D01*
X9089506Y3382546D01*
X9089504Y3382542D01*
X9075000Y3309622D01*
X8509000Y3309622D01*
X8509000Y4938000D01*
X8512368Y4946132D01*
X8520500Y4949500D01*
X9819869Y4949500D01*
X9819871Y4949501D01*
X9844988Y4952414D01*
X9845661Y4952597D01*
X9848679Y4953000D01*
X9894500Y4953000D01*
X9902632Y4949632D01*
G37*
%TD.AperFunction*%
%TD*%
%TA.AperFunction,Conductor*%
%TO.N,GND*%
G36*
X10906000Y3826000D02*
G01*
X13193000Y3826000D01*
X13261121Y3805998D01*
X13307614Y3752342D01*
X13319000Y3700000D01*
X13319000Y2047000D01*
X13298998Y1978879D01*
X13245342Y1932386D01*
X13193000Y1921000D01*
X10524000Y1921000D01*
X10455879Y1941002D01*
X10409386Y1994658D01*
X10398000Y2047000D01*
X10398000Y6240000D01*
X10418002Y6308121D01*
X10471658Y6354614D01*
X10524000Y6366000D01*
X10906000Y6366000D01*
X10906000Y3826000D01*
G37*
%TD.AperFunction*%
%TD*%
%TA.AperFunction,Conductor*%
%TO.N,/plusBAT*%
G36*
X14912121Y4948998D02*
G01*
X14958614Y4895342D01*
X14970000Y4843000D01*
X14970000Y523000D01*
X14949998Y454879D01*
X14896342Y408386D01*
X14844000Y397000D01*
X9697591Y397000D01*
X9665577Y406400D01*
X9636000Y406400D01*
X9636000Y3572000D01*
X9906000Y3572000D01*
X9906000Y3571999D01*
X9912233Y3565765D01*
X9959121Y3551998D01*
X10005614Y3498342D01*
X10017000Y3446000D01*
X10017000Y1540000D01*
X13700000Y1540000D01*
X13700000Y4207000D01*
X11286000Y4207000D01*
X11217879Y4227002D01*
X11171386Y4280658D01*
X11160000Y4333000D01*
X11160000Y4823500D01*
X11180002Y4891621D01*
X11233658Y4938114D01*
X11286000Y4949500D01*
X12527727Y4949500D01*
X12584482Y4964707D01*
X12617092Y4969000D01*
X14844000Y4969000D01*
X14912121Y4948998D01*
G37*
%TD.AperFunction*%
%TD*%
%TA.AperFunction,Conductor*%
%TO.N,VCC*%
G36*
X10467121Y9647998D02*
G01*
X10513614Y9594342D01*
X10525000Y9542000D01*
X10525000Y7061558D01*
X10504998Y6993437D01*
X10477717Y6963173D01*
X9890000Y6493000D01*
X9890000Y6492998D01*
X9890000Y5876499D01*
X9869998Y5808378D01*
X9816342Y5761885D01*
X9764003Y5750499D01*
X9502791Y5750499D01*
X9502788Y5750500D01*
X9477727Y5750500D01*
X9000000Y5750500D01*
X8931879Y5770502D01*
X8885386Y5824158D01*
X8874000Y5876500D01*
X8874000Y9542000D01*
X8894002Y9610121D01*
X8947658Y9656614D01*
X9000000Y9668000D01*
X10399000Y9668000D01*
X10467121Y9647998D01*
G37*
%TD.AperFunction*%
%TD*%
%TA.AperFunction,Conductor*%
%TO.N,GND*%
G36*
X13115328Y8882498D02*
G01*
X13136302Y8865595D01*
X13339595Y8662302D01*
X13373621Y8599990D01*
X13376500Y8573207D01*
X13376500Y6870082D01*
X13356498Y6801961D01*
X13339595Y6780987D01*
X12346012Y5787405D01*
X12283700Y5753379D01*
X12256917Y5750500D01*
X11562122Y5750500D01*
X11562110Y5750499D01*
X11230136Y5750499D01*
X11205009Y5747585D01*
X11191761Y5741735D01*
X11140868Y5731000D01*
X10906000Y5731000D01*
X10906000Y8776500D01*
X10926002Y8844621D01*
X10979658Y8891114D01*
X11032000Y8902500D01*
X13047207Y8902500D01*
X13115328Y8882498D01*
G37*
%TD.AperFunction*%
%TD*%
M02*
