%TF.GenerationSoftware,KiCad,Pcbnew,6.0.11-2627ca5db0~126~ubuntu22.04.1*%
%TF.CreationDate,2024-01-21T13:51:20+01:00*%
%TF.ProjectId,HB_Stamp_ATMega1284P_FUEL4EP,48425f53-7461-46d7-905f-41544d656761,1.2*%
%TF.SameCoordinates,Original*%
%TF.FileFunction,Copper,L1,Top*%
%TF.FilePolarity,Positive*%
%FSLAX46Y46*%
G04 Gerber Fmt 4.6, Leading zero omitted, Abs format (unit mm)*
G04 Created by KiCad (PCBNEW 6.0.11-2627ca5db0~126~ubuntu22.04.1) date 2024-01-21 13:51:20*
%MOMM*%
%LPD*%
G01*
G04 APERTURE LIST*
G04 Aperture macros list*
%AMRoundRect*
0 Rectangle with rounded corners*
0 $1 Rounding radius*
0 $2 $3 $4 $5 $6 $7 $8 $9 X,Y pos of 4 corners*
0 Add a 4 corners polygon primitive as box body*
4,1,4,$2,$3,$4,$5,$6,$7,$8,$9,$2,$3,0*
0 Add four circle primitives for the rounded corners*
1,1,$1+$1,$2,$3*
1,1,$1+$1,$4,$5*
1,1,$1+$1,$6,$7*
1,1,$1+$1,$8,$9*
0 Add four rect primitives between the rounded corners*
20,1,$1+$1,$2,$3,$4,$5,0*
20,1,$1+$1,$4,$5,$6,$7,0*
20,1,$1+$1,$6,$7,$8,$9,0*
20,1,$1+$1,$8,$9,$2,$3,0*%
%AMOutline4P*
0 Free polygon, 4 corners , with rotation*
0 The origin of the aperture is its center*
0 number of corners: always 4*
0 $1 to $8 corner X, Y*
0 $9 Rotation angle, in degrees counterclockwise*
0 create outline with 4 corners*
4,1,4,$1,$2,$3,$4,$5,$6,$7,$8,$1,$2,$9*%
G04 Aperture macros list end*
%TA.AperFunction,EtchedComponent*%
%ADD10C,1.000000*%
%TD*%
%TA.AperFunction,SMDPad,CuDef*%
%ADD11RoundRect,0.147500X-0.172500X0.147500X-0.172500X-0.147500X0.172500X-0.147500X0.172500X0.147500X0*%
%TD*%
%TA.AperFunction,SMDPad,CuDef*%
%ADD12RoundRect,0.140000X0.170000X-0.140000X0.170000X0.140000X-0.170000X0.140000X-0.170000X-0.140000X0*%
%TD*%
%TA.AperFunction,SMDPad,CuDef*%
%ADD13RoundRect,0.135000X0.185000X-0.135000X0.185000X0.135000X-0.185000X0.135000X-0.185000X-0.135000X0*%
%TD*%
%TA.AperFunction,SMDPad,CuDef*%
%ADD14RoundRect,0.140000X-0.140000X-0.170000X0.140000X-0.170000X0.140000X0.170000X-0.140000X0.170000X0*%
%TD*%
%TA.AperFunction,SMDPad,CuDef*%
%ADD15RoundRect,0.135000X-0.135000X-0.185000X0.135000X-0.185000X0.135000X0.185000X-0.135000X0.185000X0*%
%TD*%
%TA.AperFunction,SMDPad,CuDef*%
%ADD16RoundRect,0.250000X-0.250000X-0.475000X0.250000X-0.475000X0.250000X0.475000X-0.250000X0.475000X0*%
%TD*%
%TA.AperFunction,SMDPad,CuDef*%
%ADD17RoundRect,0.140000X0.140000X0.170000X-0.140000X0.170000X-0.140000X-0.170000X0.140000X-0.170000X0*%
%TD*%
%TA.AperFunction,SMDPad,CuDef*%
%ADD18R,3.000000X0.900000*%
%TD*%
%TA.AperFunction,SMDPad,CuDef*%
%ADD19R,0.900000X0.400000*%
%TD*%
%TA.AperFunction,SMDPad,CuDef*%
%ADD20R,0.550000X1.500000*%
%TD*%
%TA.AperFunction,SMDPad,CuDef*%
%ADD21R,1.500000X0.550000*%
%TD*%
%TA.AperFunction,ComponentPad*%
%ADD22R,1.700000X1.700000*%
%TD*%
%TA.AperFunction,ComponentPad*%
%ADD23O,1.700000X1.700000*%
%TD*%
%TA.AperFunction,ComponentPad*%
%ADD24C,1.000000*%
%TD*%
%TA.AperFunction,SMDPad,CuDef*%
%ADD25Outline4P,-0.350000X-0.400000X0.350000X-0.400000X0.050000X0.400000X-0.050000X0.400000X180.000000*%
%TD*%
%TA.AperFunction,SMDPad,CuDef*%
%ADD26C,0.500000*%
%TD*%
%TA.AperFunction,SMDPad,CuDef*%
%ADD27RoundRect,0.140000X-0.170000X0.140000X-0.170000X-0.140000X0.170000X-0.140000X0.170000X0.140000X0*%
%TD*%
%TA.AperFunction,SMDPad,CuDef*%
%ADD28R,1.000000X1.000000*%
%TD*%
%TA.AperFunction,SMDPad,CuDef*%
%ADD29R,1.500000X1.000000*%
%TD*%
%TA.AperFunction,SMDPad,CuDef*%
%ADD30R,1.700000X1.700000*%
%TD*%
%TA.AperFunction,SMDPad,CuDef*%
%ADD31O,1.700000X1.700000*%
%TD*%
%TA.AperFunction,SMDPad,CuDef*%
%ADD32RoundRect,0.135000X0.135000X0.185000X-0.135000X0.185000X-0.135000X-0.185000X0.135000X-0.185000X0*%
%TD*%
%TA.AperFunction,SMDPad,CuDef*%
%ADD33RoundRect,0.147500X0.172500X-0.147500X0.172500X0.147500X-0.172500X0.147500X-0.172500X-0.147500X0*%
%TD*%
%TA.AperFunction,SMDPad,CuDef*%
%ADD34RoundRect,0.135000X-0.185000X0.135000X-0.185000X-0.135000X0.185000X-0.135000X0.185000X0.135000X0*%
%TD*%
%TA.AperFunction,SMDPad,CuDef*%
%ADD35RoundRect,0.147500X0.147500X0.172500X-0.147500X0.172500X-0.147500X-0.172500X0.147500X-0.172500X0*%
%TD*%
%TA.AperFunction,ViaPad*%
%ADD36C,0.600000*%
%TD*%
%TA.AperFunction,Conductor*%
%ADD37C,0.500000*%
%TD*%
%TA.AperFunction,Conductor*%
%ADD38C,0.400000*%
%TD*%
%TA.AperFunction,Conductor*%
%ADD39C,0.200000*%
%TD*%
%TA.AperFunction,Conductor*%
%ADD40C,0.600000*%
%TD*%
G04 APERTURE END LIST*
D10*
%TO.C,AE1*%
X4049000Y38861500D02*
X4049000Y33861500D01*
X18049000Y38861500D02*
X18049000Y33861500D01*
X14049000Y38861500D02*
X14049000Y33861500D01*
X12049000Y38861500D02*
X12049000Y33861500D01*
X8049000Y38861500D02*
X8049000Y33861500D01*
X16049000Y38861500D02*
X16049000Y33861500D01*
X20049000Y38861500D02*
X20049000Y33861500D01*
X10049000Y38861500D02*
X10049000Y33861500D01*
X6049000Y38861500D02*
X6049000Y33861500D01*
X2049000Y27861500D02*
X2049000Y38861500D01*
%TO.C,NT1*%
G36*
X4060000Y24511000D02*
G01*
X3560000Y24511000D01*
X3560000Y25511000D01*
X4060000Y25511000D01*
X4060000Y24511000D01*
G37*
%TD*%
D11*
%TO.P,D1,1,K*%
%TO.N,GND*%
X4953000Y23980000D03*
%TO.P,D1,2,A*%
%TO.N,Net-(D1-Pad2)*%
X4953000Y23010000D03*
%TD*%
D12*
%TO.P,C1,1*%
%TO.N,/DTR*%
X3810000Y10569000D03*
%TO.P,C1,2*%
%TO.N,/RSETB*%
X3810000Y11529000D03*
%TD*%
D13*
%TO.P,R4,1*%
%TO.N,Net-(R4-Pad1)*%
X4951000Y21080000D03*
%TO.P,R4,2*%
%TO.N,Net-(D1-Pad2)*%
X4951000Y22100000D03*
%TD*%
%TO.P,R1,1*%
%TO.N,VCC*%
X14224000Y25525000D03*
%TO.P,R1,2*%
%TO.N,/RSETB*%
X14224000Y26545000D03*
%TD*%
D14*
%TO.P,C2,1*%
%TO.N,GND*%
X12506000Y10829000D03*
%TO.P,C2,2*%
%TO.N,Net-(C2-Pad2)*%
X13466000Y10829000D03*
%TD*%
D12*
%TO.P,C4,1*%
%TO.N,VCC*%
X19429000Y17173000D03*
%TO.P,C4,2*%
%TO.N,GND*%
X19429000Y18133000D03*
%TD*%
D14*
%TO.P,C6,1*%
%TO.N,GND*%
X12220000Y25400000D03*
%TO.P,C6,2*%
%TO.N,VCC*%
X13180000Y25400000D03*
%TD*%
%TO.P,C8,1*%
%TO.N,Net-(C8-Pad1)*%
X10601000Y10702000D03*
%TO.P,C8,2*%
%TO.N,GND*%
X11561000Y10702000D03*
%TD*%
D15*
%TO.P,R2,1*%
%TO.N,VCC*%
X8539000Y10956000D03*
%TO.P,R2,2*%
%TO.N,Net-(C8-Pad1)*%
X9559000Y10956000D03*
%TD*%
%TO.P,R6,1*%
%TO.N,/SCL*%
X16254000Y3810000D03*
%TO.P,R6,2*%
%TO.N,GND*%
X17274000Y3810000D03*
%TD*%
D16*
%TO.P,C5,1*%
%TO.N,/plusBAT*%
X9575000Y2810000D03*
%TO.P,C5,2*%
%TO.N,GND*%
X11475000Y2810000D03*
%TD*%
D12*
%TO.P,C11,1*%
%TO.N,VCC*%
X4953000Y19205000D03*
%TO.P,C11,2*%
%TO.N,GND*%
X4953000Y20165000D03*
%TD*%
%TO.P,C12,1*%
%TO.N,VCC*%
X3937000Y19205000D03*
%TO.P,C12,2*%
%TO.N,GND*%
X3937000Y20165000D03*
%TD*%
D17*
%TO.P,C13,1*%
%TO.N,/ANT*%
X3909000Y26543000D03*
%TO.P,C13,2*%
%TO.N,Net-(AE1-Pad1)*%
X2949000Y26543000D03*
%TD*%
D18*
%TO.P,L1,1,1*%
%TO.N,/plusBAT*%
X6207000Y1821000D03*
%TO.P,L1,2,2*%
%TO.N,/L*%
X6207000Y3921000D03*
%TD*%
D19*
%TO.P,U2,1,VIN*%
%TO.N,/plusBAT*%
X11625000Y4700000D03*
%TO.P,U2,2,FB*%
%TO.N,VCC*%
X11625000Y5350000D03*
%TO.P,U2,3,GND*%
%TO.N,GND*%
X11625000Y6000000D03*
%TO.P,U2,4,VOUT*%
%TO.N,VCC*%
X9425000Y6000000D03*
%TO.P,U2,5,L*%
%TO.N,/L*%
X9425000Y5350000D03*
%TO.P,U2,6,EN*%
%TO.N,/plusBAT*%
X9425000Y4700000D03*
%TD*%
D16*
%TO.P,C9,1*%
%TO.N,VCC*%
X9575000Y8144000D03*
%TO.P,C9,2*%
%TO.N,GND*%
X11475000Y8144000D03*
%TD*%
D20*
%TO.P,U1,1,PB5*%
%TO.N,/MOSI*%
X16190000Y23861000D03*
%TO.P,U1,2,PB6*%
%TO.N,/MISO*%
X15390000Y23861000D03*
%TO.P,U1,3,PB7*%
%TO.N,/SCK*%
X14590000Y23861000D03*
%TO.P,U1,4,~{RESET}*%
%TO.N,/RSETB*%
X13790000Y23861000D03*
%TO.P,U1,5,VCC*%
%TO.N,VCC*%
X12990000Y23861000D03*
%TO.P,U1,6,GND*%
%TO.N,GND*%
X12190000Y23861000D03*
%TO.P,U1,7,XTAL2*%
%TO.N,unconnected-(U1-Pad7)*%
X11390000Y23861000D03*
%TO.P,U1,8,XTAL1*%
%TO.N,unconnected-(U1-Pad8)*%
X10590000Y23861000D03*
%TO.P,U1,9,PD0*%
%TO.N,/RXD0*%
X9790000Y23861000D03*
%TO.P,U1,10,PD1*%
%TO.N,/TXD0*%
X8990000Y23861000D03*
%TO.P,U1,11,PD2*%
%TO.N,/D2*%
X8190000Y23861000D03*
D21*
%TO.P,U1,12,PD3*%
%TO.N,unconnected-(U1-Pad12)*%
X6490000Y22161000D03*
%TO.P,U1,13,PD4*%
%TO.N,Net-(R4-Pad1)*%
X6490000Y21361000D03*
%TO.P,U1,14,PD5*%
%TO.N,unconnected-(U1-Pad14)*%
X6490000Y20561000D03*
%TO.P,U1,15,PD6*%
%TO.N,unconnected-(U1-Pad15)*%
X6490000Y19761000D03*
%TO.P,U1,16,PD7*%
%TO.N,unconnected-(U1-Pad16)*%
X6490000Y18961000D03*
%TO.P,U1,17,VCC*%
%TO.N,VCC*%
X6490000Y18161000D03*
%TO.P,U1,18,GND*%
%TO.N,GND*%
X6490000Y17361000D03*
%TO.P,U1,19,PC0*%
%TO.N,/SCL*%
X6490000Y16561000D03*
%TO.P,U1,20,PC1*%
%TO.N,/SDA*%
X6490000Y15761000D03*
%TO.P,U1,21,PC2*%
%TO.N,unconnected-(U1-Pad21)*%
X6490000Y14961000D03*
%TO.P,U1,22,PC3*%
%TO.N,unconnected-(U1-Pad22)*%
X6490000Y14161000D03*
D20*
%TO.P,U1,23,PC4*%
%TO.N,Net-(J7-Pad1)*%
X8190000Y12461000D03*
%TO.P,U1,24,PC5*%
%TO.N,unconnected-(U1-Pad24)*%
X8990000Y12461000D03*
%TO.P,U1,25,PC6*%
%TO.N,/CONFIG*%
X9790000Y12461000D03*
%TO.P,U1,26,PC7*%
%TO.N,unconnected-(U1-Pad26)*%
X10590000Y12461000D03*
%TO.P,U1,27,AVCC*%
%TO.N,Net-(C8-Pad1)*%
X11390000Y12461000D03*
%TO.P,U1,28,GND*%
%TO.N,GND*%
X12190000Y12461000D03*
%TO.P,U1,29,AREF*%
%TO.N,Net-(C2-Pad2)*%
X12990000Y12461000D03*
%TO.P,U1,30,PA7*%
%TO.N,unconnected-(U1-Pad30)*%
X13790000Y12461000D03*
%TO.P,U1,31,PA6*%
%TO.N,unconnected-(U1-Pad31)*%
X14590000Y12461000D03*
%TO.P,U1,32,PA5*%
%TO.N,Net-(J5-Pad1)*%
X15390000Y12461000D03*
%TO.P,U1,33,PA4*%
%TO.N,unconnected-(U1-Pad33)*%
X16190000Y12461000D03*
D21*
%TO.P,U1,34,PA3*%
%TO.N,unconnected-(U1-Pad34)*%
X17890000Y14161000D03*
%TO.P,U1,35,PA2*%
%TO.N,unconnected-(U1-Pad35)*%
X17890000Y14961000D03*
%TO.P,U1,36,PA1*%
%TO.N,unconnected-(U1-Pad36)*%
X17890000Y15761000D03*
%TO.P,U1,37,PA0*%
%TO.N,Net-(R3-Pad1)*%
X17890000Y16561000D03*
%TO.P,U1,38,VCC*%
%TO.N,VCC*%
X17890000Y17361000D03*
%TO.P,U1,39,GND*%
%TO.N,GND*%
X17890000Y18161000D03*
%TO.P,U1,40,PB0*%
%TO.N,unconnected-(U1-Pad40)*%
X17890000Y18961000D03*
%TO.P,U1,41,PB1*%
%TO.N,unconnected-(U1-Pad41)*%
X17890000Y19761000D03*
%TO.P,U1,42,PB2*%
%TO.N,unconnected-(U1-Pad42)*%
X17890000Y20561000D03*
%TO.P,U1,43,PB3*%
%TO.N,Net-(J6-Pad1)*%
X17890000Y21361000D03*
%TO.P,U1,44,PB4*%
%TO.N,/SS*%
X17890000Y22161000D03*
%TD*%
D17*
%TO.P,C3,1*%
%TO.N,VCC*%
X13180000Y26416000D03*
%TO.P,C3,2*%
%TO.N,GND*%
X12220000Y26416000D03*
%TD*%
D22*
%TO.P,J1,1,Pin_1*%
%TO.N,GND*%
X1778000Y7493000D03*
D23*
%TO.P,J1,2,Pin_2*%
%TO.N,VCC*%
X1778000Y4953000D03*
%TO.P,J1,3,Pin_3*%
%TO.N,/plusBAT*%
X1778000Y2413000D03*
%TD*%
D24*
%TO.P,AE1,*%
%TO.N,*%
X6049000Y38861500D03*
X20049000Y38861500D03*
X16049000Y33861500D03*
X8049000Y38861500D03*
X4049000Y33861500D03*
X10049000Y38861500D03*
X14049000Y38861500D03*
X12049000Y38861500D03*
X18049000Y33861500D03*
X16049000Y38861500D03*
X2049000Y38861500D03*
X14049000Y33861500D03*
X18049000Y38861500D03*
X20049000Y33861500D03*
X12049000Y33861500D03*
X8049000Y33861500D03*
X10049000Y33861500D03*
X4049000Y38861500D03*
X6049000Y33861500D03*
D25*
%TO.P,AE1,1,A*%
%TO.N,Net-(AE1-Pad1)*%
X2049000Y27161500D03*
%TD*%
D22*
%TO.P,J7,1,Pin_1*%
%TO.N,Net-(J7-Pad1)*%
X6731000Y8382000D03*
%TD*%
D26*
%TO.P,NT1,1,1*%
%TO.N,GND*%
X3810000Y25511000D03*
%TO.P,NT1,2,2*%
%TO.N,/CTS*%
X3810000Y24511000D03*
%TD*%
D27*
%TO.P,C14,1*%
%TO.N,/VDDA*%
X17272000Y1750000D03*
%TO.P,C14,2*%
%TO.N,GND*%
X17272000Y790000D03*
%TD*%
D22*
%TO.P,J4,1,Pin_1*%
%TO.N,/VDDA*%
X19812000Y2032000D03*
D23*
%TO.P,J4,2,Pin_2*%
%TO.N,GND*%
X19812000Y4572000D03*
%TO.P,J4,3,Pin_3*%
%TO.N,/SCL*%
X19812000Y7112000D03*
%TO.P,J4,4,Pin_4*%
%TO.N,/SDA*%
X19812000Y9652000D03*
%TD*%
D27*
%TO.P,C7,1*%
%TO.N,VCC*%
X4985000Y18294000D03*
%TO.P,C7,2*%
%TO.N,GND*%
X4985000Y17334000D03*
%TD*%
D28*
%TO.P,J6,1,Pin_1*%
%TO.N,Net-(J6-Pad1)*%
X20574000Y25400000D03*
%TD*%
D29*
%TO.P,JP2,1,A*%
%TO.N,/CONFIG*%
X20193000Y13701000D03*
%TO.P,JP2,2,B*%
%TO.N,GND*%
X20193000Y15001000D03*
%TD*%
%TO.P,JP1,1,A*%
%TO.N,GND*%
X20193000Y21575000D03*
%TO.P,JP1,2,B*%
%TO.N,/RSETB*%
X20193000Y22875000D03*
%TD*%
D30*
%TO.P,J2,1,Pin_1*%
%TO.N,/DTR*%
X1778000Y11176000D03*
D31*
%TO.P,J2,2,Pin_2*%
%TO.N,/TXD0*%
X1778000Y13716000D03*
%TO.P,J2,3,Pin_3*%
%TO.N,/RXD0*%
X1778000Y16256000D03*
%TO.P,J2,4,Pin_4*%
%TO.N,VCC*%
X1778000Y18796000D03*
%TO.P,J2,5,Pin_5*%
%TO.N,/CTS*%
X1778000Y21336000D03*
%TO.P,J2,6,Pin_6*%
%TO.N,GND*%
X1778000Y23876000D03*
%TD*%
D22*
%TO.P,J5,1,Pin_1*%
%TO.N,Net-(J5-Pad1)*%
X16129000Y8382000D03*
%TD*%
D32*
%TO.P,R3,1*%
%TO.N,Net-(R3-Pad1)*%
X17528000Y10922000D03*
%TO.P,R3,2*%
%TO.N,/plusBAT*%
X16508000Y10922000D03*
%TD*%
D33*
%TO.P,FB1,1*%
%TO.N,VCC*%
X16256000Y785000D03*
%TO.P,FB1,2*%
%TO.N,/VDDA*%
X16256000Y1755000D03*
%TD*%
D34*
%TO.P,R5,1*%
%TO.N,/SDA*%
X17272000Y5844000D03*
%TO.P,R5,2*%
%TO.N,GND*%
X17272000Y4824000D03*
%TD*%
D35*
%TO.P,L2,1,1*%
%TO.N,Net-(AE1-Pad1)*%
X1882000Y26416000D03*
%TO.P,L2,2,2*%
%TO.N,GND*%
X912000Y26416000D03*
%TD*%
D14*
%TO.P,C10,1*%
%TO.N,/VDDA*%
X16284000Y2794000D03*
%TO.P,C10,2*%
%TO.N,GND*%
X17244000Y2794000D03*
%TD*%
D36*
%TO.N,GND*%
X11957454Y13615936D03*
X14224000Y16891000D03*
X18131000Y732000D03*
X12943781Y10146292D03*
X3683000Y20701000D03*
X12700000Y8382000D03*
X6477000Y13081000D03*
X11811000Y19558000D03*
X19431000Y19177000D03*
X5969000Y11684000D03*
X11747500Y17716500D03*
X2413000Y25527000D03*
X18034000Y3810000D03*
X9271000Y13716000D03*
X6350000Y23622000D03*
X4345247Y16549501D03*
X12700000Y7239000D03*
X11811000Y22352000D03*
%TO.N,/SS*%
X16474855Y20670249D03*
%TO.N,/D2*%
X9779000Y19558000D03*
%TO.N,/SCL*%
X16044911Y15070089D03*
X18542000Y13335000D03*
%TO.N,/SDA*%
X15371930Y14318300D03*
X19304000Y12065000D03*
%TO.N,/MOSI*%
X16282502Y22098000D03*
%TO.N,/SCK*%
X4318000Y15350001D03*
X3810000Y17653000D03*
X15875355Y19048111D03*
%TO.N,/MISO*%
X16964502Y23368000D03*
%TO.N,VCC*%
X4699000Y10795000D03*
X4064001Y18668999D03*
%TO.N,/plusBAT*%
X14351000Y4826000D03*
X15621000Y6223000D03*
X12828000Y4700000D03*
X8763000Y3937000D03*
%TO.N,/CONFIG*%
X18229662Y12100500D03*
X16129000Y13716000D03*
%TO.N,/RSETB*%
X3859055Y12227500D03*
X19059500Y23758500D03*
X4734500Y25237500D03*
%TO.N,/TXD0*%
X2923399Y12866436D03*
X7747000Y19050000D03*
X5210925Y16153427D03*
X5334000Y12827000D03*
%TO.N,Net-(J6-Pad1)*%
X18796000Y25654000D03*
X17907000Y24384000D03*
%TO.N,Net-(J7-Pad1)*%
X6731000Y11176000D03*
%TO.N,/ANT*%
X6477000Y26543000D03*
%TD*%
D37*
%TO.N,GND*%
X19613386Y18133000D02*
X20193000Y17553386D01*
X5098501Y23834499D02*
X6137501Y23834499D01*
X12190000Y11145000D02*
X12506000Y10829000D01*
X11688000Y10829000D02*
X11561000Y10702000D01*
X17330000Y732000D02*
X18131000Y732000D01*
X12220000Y25400000D02*
X12220000Y23891000D01*
X18796000Y4572000D02*
X18034000Y3810000D01*
X12115000Y23786000D02*
X12115000Y22661000D01*
X19431000Y19177000D02*
X19431000Y20813000D01*
X17274000Y3810000D02*
X17274000Y2824000D01*
X12220000Y23891000D02*
X12190000Y23861000D01*
X17272000Y4824000D02*
X17272000Y3812000D01*
X4345247Y16694247D02*
X4345247Y16549501D01*
X912000Y25713007D02*
X1106007Y25519000D01*
X3810000Y25265000D02*
X2675000Y25265000D01*
D38*
X10525000Y3760000D02*
X10525000Y5750000D01*
D37*
X2921000Y25511000D02*
X2675000Y25265000D01*
X21209000Y3175000D02*
X19812000Y4572000D01*
X21179000Y732000D02*
X21209000Y762000D01*
X2405000Y25519000D02*
X2413000Y25527000D01*
X12115000Y22661000D02*
X11806000Y22352000D01*
X21209000Y762000D02*
X21209000Y3175000D01*
X11392000Y17361000D02*
X11747500Y17716500D01*
X10541000Y14986000D02*
X14224000Y14986000D01*
X12220000Y26416000D02*
X12220000Y25400000D01*
X12190000Y12461000D02*
X12190000Y13383390D01*
X19429000Y18133000D02*
X19613386Y18133000D01*
X17890000Y18161000D02*
X19401000Y18161000D01*
X11625000Y6917000D02*
X11625000Y7994000D01*
X17272000Y790000D02*
X17330000Y732000D01*
X20193000Y17553386D02*
X20193000Y15001000D01*
X12462000Y8144000D02*
X12700000Y8382000D01*
D38*
X10775000Y6000000D02*
X11625000Y6000000D01*
D37*
X12190000Y12461000D02*
X12190000Y11145000D01*
X19431000Y19177000D02*
X19431000Y18135000D01*
X912000Y26416000D02*
X912000Y25713007D01*
X12506000Y10829000D02*
X12506000Y10584073D01*
X4953000Y23980000D02*
X5098501Y23834499D01*
X3794000Y25527000D02*
X3810000Y25511000D01*
X11806000Y22352000D02*
X11811000Y22352000D01*
X4953000Y20165000D02*
X4219000Y20165000D01*
X11811000Y22352000D02*
X11811000Y19558000D01*
X2413000Y24511000D02*
X1778000Y23876000D01*
X11625000Y6000000D02*
X11625000Y6917000D01*
D38*
X10525000Y5750000D02*
X10775000Y6000000D01*
D37*
X1106007Y25519000D02*
X2405000Y25519000D01*
X2413000Y25527000D02*
X2413000Y24511000D01*
X5969000Y11684000D02*
X5969000Y12319000D01*
X19812000Y4572000D02*
X18796000Y4572000D01*
X6490000Y17361000D02*
X5012000Y17361000D01*
X2675000Y25265000D02*
X2413000Y25527000D01*
X19431000Y20813000D02*
X20193000Y21575000D01*
X12190000Y13383390D02*
X11957454Y13615936D01*
X2413000Y25527000D02*
X3794000Y25527000D01*
X3810000Y25511000D02*
X2921000Y25511000D01*
X5969000Y12319000D02*
X6477000Y12827000D01*
X9271000Y13716000D02*
X10541000Y14986000D01*
X12700000Y8382000D02*
X12700000Y7239000D01*
X4219000Y20165000D02*
X3683000Y20701000D01*
X4985000Y17334000D02*
X4345247Y16694247D01*
X12506000Y10829000D02*
X11688000Y10829000D01*
X11475000Y8144000D02*
X12462000Y8144000D01*
X12190000Y23861000D02*
X12115000Y23786000D01*
X14224000Y14986000D02*
X14224000Y16891000D01*
X18131000Y732000D02*
X21179000Y732000D01*
X12506000Y10584073D02*
X12943781Y10146292D01*
D38*
X11475000Y2810000D02*
X10525000Y3760000D01*
D37*
X17274000Y3810000D02*
X18034000Y3810000D01*
X6490000Y17361000D02*
X11392000Y17361000D01*
X6137501Y23834499D02*
X6350000Y23622000D01*
X6477000Y12827000D02*
X6477000Y13081000D01*
D39*
%TO.N,Net-(D1-Pad2)*%
X4951000Y22100000D02*
X4951000Y23008000D01*
%TO.N,/SS*%
X17193324Y22161000D02*
X16474855Y21442531D01*
X16474855Y21442531D02*
X16474855Y20670249D01*
X17890000Y22161000D02*
X17193324Y22161000D01*
%TO.N,/D2*%
X8190000Y21147000D02*
X9779000Y19558000D01*
X8190000Y23861000D02*
X8190000Y21147000D01*
%TO.N,/SCL*%
X16254000Y5761183D02*
X16254000Y3810000D01*
X18662000Y8262000D02*
X18662000Y10723183D01*
X13810199Y17890001D02*
X14637801Y17890001D01*
X12388697Y16468499D02*
X13810199Y17890001D01*
X16044911Y16482891D02*
X16044911Y15070089D01*
X16925316Y6432499D02*
X16254000Y5761183D01*
X14637801Y17890001D02*
X16044911Y16482891D01*
X17447183Y11938000D02*
X17447183Y12240183D01*
X6582501Y16468499D02*
X12388697Y16468499D01*
X19812000Y7112000D02*
X18662000Y8262000D01*
X19132499Y6432499D02*
X16925316Y6432499D01*
X18662000Y10723183D02*
X17447183Y11938000D01*
X17447183Y12240183D02*
X18542000Y13335000D01*
X19812000Y7112000D02*
X19132499Y6432499D01*
%TO.N,/SDA*%
X14472322Y17490500D02*
X15371930Y16590892D01*
X13975678Y17490500D02*
X14472322Y17490500D01*
X12246178Y15761000D02*
X13975678Y17490500D01*
X19812000Y9652000D02*
X20962000Y8502000D01*
X20962000Y5976000D02*
X20948000Y5962000D01*
X6490000Y15761000D02*
X12246178Y15761000D01*
X15371930Y16590892D02*
X15371930Y14318300D01*
X19812000Y9652000D02*
X19812000Y11557000D01*
X18267960Y5962000D02*
X18149960Y5844000D01*
X20948000Y5962000D02*
X18267960Y5962000D01*
X20962000Y8502000D02*
X20962000Y5976000D01*
X19812000Y11557000D02*
X19304000Y12065000D01*
X18149960Y5844000D02*
X17272000Y5844000D01*
D37*
%TO.N,/VDDA*%
X17272000Y1750000D02*
X19530000Y1750000D01*
X16256000Y1755000D02*
X17267000Y1755000D01*
X16284000Y2794000D02*
X16284000Y1783000D01*
D39*
%TO.N,/MOSI*%
X16190000Y22190502D02*
X16282502Y22098000D01*
X16190000Y23861000D02*
X16190000Y22190502D01*
%TO.N,/SCK*%
X3810000Y17653000D02*
X3745747Y17588747D01*
X14590000Y22748000D02*
X15875355Y21462645D01*
X15875355Y21462645D02*
X15875355Y19048111D01*
X14590000Y23861000D02*
X14590000Y22748000D01*
X3745747Y17588747D02*
X3745747Y15922254D01*
X3745747Y15922254D02*
X4318000Y15350001D01*
%TO.N,/MISO*%
X16765000Y24911000D02*
X15490000Y24911000D01*
X15490000Y24911000D02*
X15390000Y24811000D01*
X16964502Y23368000D02*
X16964502Y24711498D01*
X16964502Y24711498D02*
X16765000Y24911000D01*
X15390000Y24811000D02*
X15390000Y23861000D01*
D37*
%TO.N,VCC*%
X3078000Y17325046D02*
X1778000Y18625046D01*
X3937000Y18796000D02*
X4064001Y18668999D01*
X4985000Y18383000D02*
X4381501Y18986499D01*
X5080000Y11557000D02*
X5080000Y12021046D01*
X6490000Y18161000D02*
X5118000Y18161000D01*
X12700000Y18923000D02*
X12802498Y18820502D01*
X19241000Y17361000D02*
X19429000Y17173000D01*
X15486000Y5326000D02*
X15478000Y5334000D01*
X12700000Y22256756D02*
X12990000Y22546756D01*
X5118000Y18161000D02*
X4985000Y18294000D01*
X5080000Y11513046D02*
X5080000Y11557000D01*
X13827000Y6702000D02*
X13827000Y8812000D01*
X13286000Y9353000D02*
X9575000Y9353000D01*
X12700000Y22256756D02*
X12700000Y18923000D01*
X4064001Y18668999D02*
X1905001Y18668999D01*
X16256000Y785000D02*
X16061007Y785000D01*
X4584500Y13366454D02*
X3078000Y14872954D01*
X15486000Y1360007D02*
X15486000Y5326000D01*
X13305000Y25525000D02*
X13180000Y25400000D01*
D38*
X9425000Y6704000D02*
X3529000Y6704000D01*
D37*
X12790496Y18808500D02*
X12802498Y18820502D01*
X6477000Y10160000D02*
X5702500Y10934500D01*
X4699000Y11176000D02*
X4699000Y10795000D01*
X14865412Y18820502D02*
X16324914Y17361000D01*
X9575000Y9353000D02*
X9575000Y8144000D01*
D38*
X11625000Y5350000D02*
X12475000Y5350000D01*
D37*
X3937000Y19205000D02*
X4953000Y19205000D01*
X15478000Y5334000D02*
X15195000Y5334000D01*
X17890000Y17361000D02*
X19241000Y17361000D01*
X11569500Y18808500D02*
X12790496Y18808500D01*
X4600002Y19205000D02*
X4381501Y18986499D01*
X4953000Y19205000D02*
X4600002Y19205000D01*
X5080000Y11557000D02*
X4699000Y11176000D01*
X8539000Y10956000D02*
X8539000Y10168000D01*
X4985000Y18294000D02*
X4985000Y18383000D01*
D38*
X12475000Y5350000D02*
X13827000Y6702000D01*
D37*
X16061007Y785000D02*
X15486000Y1360007D01*
X16324914Y17361000D02*
X17890000Y17361000D01*
X13180000Y25400000D02*
X12990000Y25210000D01*
X5702500Y10934500D02*
X5658546Y10934500D01*
X13180000Y26416000D02*
X13180000Y25400000D01*
X3937000Y19205000D02*
X3937000Y18796000D01*
D38*
X9454000Y9253000D02*
X9370000Y9337000D01*
D37*
X6490000Y18161000D02*
X10922000Y18161000D01*
D38*
X3529000Y6704000D02*
X1778000Y4953000D01*
D37*
X14224000Y25525000D02*
X13305000Y25525000D01*
X12802498Y18820502D02*
X14865412Y18820502D01*
X9425000Y6704000D02*
X9425000Y7994000D01*
X4584500Y12516546D02*
X4584500Y13366454D01*
X9370000Y9337000D02*
X8547000Y10160000D01*
X4953000Y19205000D02*
X4953000Y18326000D01*
X5658546Y10934500D02*
X5080000Y11513046D01*
X15195000Y5334000D02*
X13827000Y6702000D01*
X8547000Y10160000D02*
X6477000Y10160000D01*
X5080000Y12021046D02*
X4584500Y12516546D01*
X9425000Y6000000D02*
X9425000Y6704000D01*
X10922000Y18161000D02*
X11569500Y18808500D01*
X8539000Y10168000D02*
X8547000Y10160000D01*
X4381501Y18986499D02*
X4064001Y18668999D01*
X13827000Y8812000D02*
X13286000Y9353000D01*
X12990000Y25210000D02*
X12990000Y23861000D01*
X12990000Y22546756D02*
X12990000Y23861000D01*
X3078000Y14872954D02*
X3078000Y17325046D01*
X4953000Y18326000D02*
X4985000Y18294000D01*
%TO.N,/plusBAT*%
X9575000Y2810000D02*
X9575000Y3860000D01*
D39*
X17679000Y6832000D02*
X16230000Y6832000D01*
D40*
X6433000Y679000D02*
X6207000Y905000D01*
D37*
X9575000Y4550000D02*
X9425000Y4700000D01*
X8763000Y3937000D02*
X9498000Y3937000D01*
D39*
X16230000Y6832000D02*
X15621000Y6223000D01*
D37*
X9498000Y3937000D02*
X9575000Y3860000D01*
X14556000Y778000D02*
X14556000Y4367000D01*
X9603000Y651000D02*
X9575000Y679000D01*
D40*
X9575000Y2810000D02*
X9575000Y679000D01*
X6207000Y905000D02*
X6207000Y1821000D01*
D39*
X17679000Y9932000D02*
X17679000Y6832000D01*
D37*
X9575000Y3860000D02*
X9575000Y4550000D01*
X14429000Y651000D02*
X14556000Y778000D01*
X9425000Y4599000D02*
X8763000Y3937000D01*
D39*
X17498000Y9932000D02*
X17679000Y9932000D01*
D38*
X1778000Y2413000D02*
X3512000Y679000D01*
D37*
X14556000Y4367000D02*
X14223000Y4700000D01*
X9603000Y651000D02*
X14429000Y651000D01*
D38*
X3512000Y679000D02*
X6433000Y679000D01*
D37*
X9425000Y4700000D02*
X9425000Y4599000D01*
D38*
X11625000Y4700000D02*
X14223000Y4700000D01*
D40*
X9575000Y679000D02*
X6433000Y679000D01*
D39*
X16508000Y10922000D02*
X17498000Y9932000D01*
%TO.N,/CONFIG*%
X12705212Y13716000D02*
X16129000Y13716000D01*
X12205776Y14215436D02*
X12705212Y13716000D01*
X9790000Y13411000D02*
X10594436Y14215436D01*
X10594436Y14215436D02*
X12205776Y14215436D01*
X9790000Y12461000D02*
X9790000Y13411000D01*
X19830162Y13701000D02*
X18229662Y12100500D01*
%TO.N,/DTR*%
X1778000Y10160000D02*
X1778000Y11176000D01*
X2032000Y9906000D02*
X1778000Y10160000D01*
X3810000Y10541000D02*
X3175000Y9906000D01*
X3175000Y9906000D02*
X2032000Y9906000D01*
%TO.N,/RSETB*%
X18710178Y24892000D02*
X18217178Y25385000D01*
X14844000Y25209817D02*
X14844000Y25385000D01*
X18710178Y24107822D02*
X18710178Y24892000D01*
X19059500Y23758500D02*
X18710178Y24107822D01*
X11640000Y25400000D02*
X7620000Y25400000D01*
X3810000Y12178445D02*
X3859055Y12227500D01*
X13743000Y27026000D02*
X11897746Y27026000D01*
X14603000Y26545000D02*
X14224000Y26545000D01*
X19943000Y22875000D02*
X19059500Y23758500D01*
X4953000Y25019000D02*
X4734500Y25237500D01*
X13790000Y24811000D02*
X13890000Y24911000D01*
X11640000Y26768254D02*
X11640000Y25400000D01*
X7620000Y25400000D02*
X7239000Y25019000D01*
X14545183Y24911000D02*
X14844000Y25209817D01*
X13890000Y24911000D02*
X14545183Y24911000D01*
X11897746Y27026000D02*
X11640000Y26768254D01*
X14844000Y26304000D02*
X14603000Y26545000D01*
X18217178Y25385000D02*
X14844000Y25385000D01*
X13790000Y23861000D02*
X13790000Y24811000D01*
X3810000Y11529000D02*
X3810000Y12178445D01*
X7239000Y25019000D02*
X4953000Y25019000D01*
X14224000Y26545000D02*
X13743000Y27026000D01*
X14844000Y25385000D02*
X14844000Y26304000D01*
%TO.N,/RXD0*%
X7785479Y25000499D02*
X9600501Y25000499D01*
X1541654Y20186000D02*
X2254346Y20186000D01*
X4318000Y24297861D02*
X4639638Y24619499D01*
X7404479Y24619499D02*
X7785479Y25000499D01*
X2254346Y20186000D02*
X4318000Y22249654D01*
X628000Y19272346D02*
X1541654Y20186000D01*
X4318000Y22249654D02*
X4318000Y24297861D01*
X4639638Y24619499D02*
X7404479Y24619499D01*
X9790000Y24811000D02*
X9790000Y23861000D01*
X9600501Y25000499D02*
X9790000Y24811000D01*
X1778000Y16256000D02*
X628000Y17406000D01*
X628000Y17406000D02*
X628000Y19272346D01*
%TO.N,/TXD0*%
X8990000Y21436000D02*
X10414000Y20012000D01*
X10414000Y18923000D02*
X7874000Y18923000D01*
X7874000Y18923000D02*
X7747000Y19050000D01*
X5210925Y12950075D02*
X5334000Y12827000D01*
X10414000Y20012000D02*
X10414000Y18923000D01*
X5210925Y16153427D02*
X5210925Y12950075D01*
X8990000Y23861000D02*
X8990000Y21436000D01*
X2073835Y13716000D02*
X2923399Y12866436D01*
%TO.N,Net-(J5-Pad1)*%
X15390000Y9121000D02*
X15390000Y12461000D01*
%TO.N,Net-(J6-Pad1)*%
X17907000Y24384000D02*
X17907000Y23495000D01*
X19050000Y25400000D02*
X18796000Y25654000D01*
X18666000Y22736000D02*
X18940000Y22736000D01*
X18940000Y22736000D02*
X18940000Y21586000D01*
X20574000Y25400000D02*
X19050000Y25400000D01*
X18940000Y21586000D02*
X18715000Y21361000D01*
X17907000Y23495000D02*
X18666000Y22736000D01*
X18715000Y21361000D02*
X17890000Y21361000D01*
D38*
%TO.N,/L*%
X6207000Y5191000D02*
X6207000Y3921000D01*
X9425000Y5350000D02*
X6366000Y5350000D01*
X6366000Y5350000D02*
X6207000Y5191000D01*
D39*
%TO.N,Net-(J7-Pad1)*%
X6731000Y11811000D02*
X6731000Y11176000D01*
X7381000Y12461000D02*
X6731000Y11811000D01*
X8190000Y12461000D02*
X7381000Y12461000D01*
D40*
%TO.N,Net-(AE1-Pad1)*%
X2413000Y26416000D02*
X2822000Y26416000D01*
X1882000Y26416000D02*
X2413000Y26416000D01*
D39*
X2049000Y26780000D02*
X2049000Y27062000D01*
X2049000Y27161500D02*
X2049000Y26306000D01*
D40*
X2822000Y26416000D02*
X2949000Y26543000D01*
D39*
%TO.N,Net-(R3-Pad1)*%
X16799500Y11650500D02*
X17528000Y10922000D01*
X16799500Y16420500D02*
X16799500Y11650500D01*
X16940000Y16561000D02*
X16799500Y16420500D01*
X17890000Y16561000D02*
X16940000Y16561000D01*
%TO.N,Net-(R4-Pad1)*%
X5232000Y21361000D02*
X4951000Y21080000D01*
X6490000Y21361000D02*
X5232000Y21361000D01*
D40*
%TO.N,/ANT*%
X6477000Y26543000D02*
X3909000Y26543000D01*
D39*
%TO.N,/CTS*%
X3810000Y23368000D02*
X1778000Y21336000D01*
X3810000Y24265000D02*
X3810000Y23368000D01*
%TO.N,Net-(C2-Pad2)*%
X12990000Y11305000D02*
X13466000Y10829000D01*
X12990000Y12461000D02*
X12990000Y11305000D01*
%TO.N,Net-(C8-Pad1)*%
X11390000Y11407112D02*
X11333858Y11407112D01*
X10601000Y10702000D02*
X9813000Y10702000D01*
X11333858Y11407112D02*
X10628746Y10702000D01*
X9813000Y10702000D02*
X9559000Y10956000D01*
X11390000Y12461000D02*
X11390000Y11407112D01*
%TD*%
%TA.AperFunction,Conductor*%
%TO.N,/plusBAT*%
G36*
X9567121Y4929498D02*
G01*
X9613614Y4875842D01*
X9625000Y4823500D01*
X9625000Y4518115D01*
X9629475Y4502876D01*
X9630865Y4501671D01*
X9638548Y4500000D01*
X9780000Y4500000D01*
X9848121Y4479998D01*
X9894614Y4426342D01*
X9906000Y4374000D01*
X9906000Y3646612D01*
X9885998Y3578491D01*
X9835593Y3534815D01*
X9830671Y3529135D01*
X9829000Y3521452D01*
X9829000Y2103115D01*
X9833475Y2087876D01*
X9834865Y2086671D01*
X9842548Y2085000D01*
X9843437Y2085000D01*
X9855694Y2086207D01*
X9866415Y2088340D01*
X9906000Y2084799D01*
X9906000Y889000D01*
X9636000Y883490D01*
X6119424Y811723D01*
X3736691Y763096D01*
X3668176Y781704D01*
X3645025Y799975D01*
X3055885Y1389115D01*
X4707000Y1389115D01*
X4711475Y1373876D01*
X4712865Y1372671D01*
X4720548Y1371000D01*
X5934885Y1371000D01*
X5950124Y1375475D01*
X5951329Y1376865D01*
X5953000Y1384548D01*
X5953000Y1389115D01*
X6461000Y1389115D01*
X6465475Y1373876D01*
X6466865Y1372671D01*
X6474548Y1371000D01*
X7688885Y1371000D01*
X7704124Y1375475D01*
X7705329Y1376865D01*
X7707000Y1384548D01*
X7707000Y1548885D01*
X7702525Y1564124D01*
X7701135Y1565329D01*
X7693452Y1567000D01*
X6479115Y1567000D01*
X6463876Y1562525D01*
X6462671Y1561135D01*
X6461000Y1553452D01*
X6461000Y1389115D01*
X5953000Y1389115D01*
X5953000Y1548885D01*
X5948525Y1564124D01*
X5947135Y1565329D01*
X5939452Y1567000D01*
X4725115Y1567000D01*
X4709876Y1562525D01*
X4708671Y1561135D01*
X4707000Y1553452D01*
X4707000Y1389115D01*
X3055885Y1389115D01*
X2561579Y1883421D01*
X2527553Y1945733D01*
X2532618Y2016548D01*
X2541555Y2035517D01*
X2555492Y2059657D01*
X2560830Y2071646D01*
X2602189Y2198936D01*
X2642262Y2257542D01*
X2707659Y2285179D01*
X2722022Y2286000D01*
X4581000Y2286000D01*
X4649121Y2265998D01*
X4695614Y2212342D01*
X4707000Y2160000D01*
X4707000Y2093115D01*
X4711475Y2077876D01*
X4712865Y2076671D01*
X4720548Y2075000D01*
X7688885Y2075000D01*
X7704124Y2079475D01*
X7705329Y2080865D01*
X7707000Y2088548D01*
X7707000Y2160000D01*
X7727002Y2228121D01*
X7780658Y2274614D01*
X7833000Y2286000D01*
X8509000Y2286000D01*
X8509000Y2316563D01*
X9075000Y2316563D01*
X9076207Y2304309D01*
X9087085Y2249623D01*
X9096398Y2227138D01*
X9137867Y2165076D01*
X9155076Y2147867D01*
X9217138Y2106398D01*
X9239623Y2097085D01*
X9294309Y2086207D01*
X9303809Y2085271D01*
X9318124Y2089475D01*
X9319329Y2090865D01*
X9321000Y2098548D01*
X9321000Y2537885D01*
X9316525Y2553124D01*
X9315135Y2554329D01*
X9307452Y2556000D01*
X9093115Y2556000D01*
X9077876Y2551525D01*
X9076671Y2550135D01*
X9075000Y2542452D01*
X9075000Y2316563D01*
X8509000Y2316563D01*
X8509000Y3082115D01*
X9075000Y3082115D01*
X9079475Y3066876D01*
X9080865Y3065671D01*
X9088548Y3064000D01*
X9302885Y3064000D01*
X9318124Y3068475D01*
X9319329Y3069865D01*
X9321000Y3077548D01*
X9321000Y3516885D01*
X9316525Y3532124D01*
X9315135Y3533329D01*
X9307452Y3535000D01*
X9306563Y3535000D01*
X9294309Y3533793D01*
X9239623Y3522915D01*
X9217138Y3513602D01*
X9155076Y3472133D01*
X9137867Y3454924D01*
X9096398Y3392862D01*
X9087085Y3370377D01*
X9076207Y3315691D01*
X9075000Y3303437D01*
X9075000Y3082115D01*
X8509000Y3082115D01*
X8509000Y4823500D01*
X8529002Y4891621D01*
X8582658Y4938114D01*
X8635000Y4949500D01*
X9499000Y4949500D01*
X9567121Y4929498D01*
G37*
%TD.AperFunction*%
%TD*%
%TA.AperFunction,Conductor*%
%TO.N,GND*%
G36*
X10906000Y3826000D02*
G01*
X13193000Y3826000D01*
X13261121Y3805998D01*
X13307614Y3752342D01*
X13319000Y3700000D01*
X13319000Y2047000D01*
X13298998Y1978879D01*
X13245342Y1932386D01*
X13193000Y1921000D01*
X10524000Y1921000D01*
X10455879Y1941002D01*
X10409386Y1994658D01*
X10398000Y2047000D01*
X10398000Y6240000D01*
X10418002Y6308121D01*
X10471658Y6354614D01*
X10524000Y6366000D01*
X10906000Y6366000D01*
X10906000Y3826000D01*
G37*
%TD.AperFunction*%
%TD*%
%TA.AperFunction,Conductor*%
%TO.N,/plusBAT*%
G36*
X14912121Y4948998D02*
G01*
X14958614Y4895342D01*
X14970000Y4843000D01*
X14970000Y523000D01*
X14949998Y454879D01*
X14896342Y408386D01*
X14844000Y397000D01*
X9762000Y397000D01*
X9693879Y417002D01*
X9647386Y470658D01*
X9636000Y523000D01*
X9636000Y3572000D01*
X9918485Y3572000D01*
X9980095Y3538359D01*
X10014120Y3476047D01*
X10017000Y3449263D01*
X10017000Y1540000D01*
X13700000Y1540000D01*
X13700000Y4207000D01*
X11286000Y4207000D01*
X11217879Y4227002D01*
X11171386Y4280658D01*
X11160000Y4333000D01*
X11160000Y4823500D01*
X11180002Y4891621D01*
X11233658Y4938114D01*
X11286000Y4949500D01*
X12538433Y4949500D01*
X12547864Y4952564D01*
X12547868Y4952565D01*
X12559353Y4956297D01*
X12578578Y4960913D01*
X12590507Y4962802D01*
X12590509Y4962803D01*
X12600304Y4964354D01*
X12600349Y4964377D01*
X12629539Y4969000D01*
X14844000Y4969000D01*
X14912121Y4948998D01*
G37*
%TD.AperFunction*%
%TD*%
%TA.AperFunction,Conductor*%
%TO.N,VCC*%
G36*
X10467121Y9647998D02*
G01*
X10513614Y9594342D01*
X10525000Y9542000D01*
X10525000Y7061559D01*
X10504998Y6993438D01*
X10477712Y6963170D01*
X9904145Y6504316D01*
X9890000Y6493000D01*
X9890000Y5876500D01*
X9869998Y5808379D01*
X9816342Y5761886D01*
X9764000Y5750500D01*
X9000000Y5750500D01*
X8931879Y5770502D01*
X8885386Y5824158D01*
X8874000Y5876500D01*
X8874000Y9542000D01*
X8894002Y9610121D01*
X8947658Y9656614D01*
X9000000Y9668000D01*
X10399000Y9668000D01*
X10467121Y9647998D01*
G37*
%TD.AperFunction*%
%TD*%
%TA.AperFunction,Conductor*%
%TO.N,GND*%
G36*
X13115328Y8882498D02*
G01*
X13136302Y8865595D01*
X13339595Y8662302D01*
X13373621Y8599990D01*
X13376500Y8573207D01*
X13376500Y6870083D01*
X13356498Y6801962D01*
X13339595Y6780988D01*
X12346012Y5787405D01*
X12283700Y5753379D01*
X12256917Y5750500D01*
X11155252Y5750500D01*
X11096769Y5738867D01*
X11095997Y5738351D01*
X11059040Y5731000D01*
X10906000Y5731000D01*
X10906000Y8776500D01*
X10926002Y8844621D01*
X10979658Y8891114D01*
X11032000Y8902500D01*
X13047207Y8902500D01*
X13115328Y8882498D01*
G37*
%TD.AperFunction*%
%TD*%
M02*
