%TF.GenerationSoftware,KiCad,Pcbnew,8.0.9-8.0.9-0~ubuntu22.04.1*%
%TF.CreationDate,2025-02-27T10:41:37+01:00*%
%TF.ProjectId,HB_Stamp_ATMega1284P_FUEL4EP,48425f53-7461-46d7-905f-41544d656761,1.5*%
%TF.SameCoordinates,Original*%
%TF.FileFunction,Other,Comment*%
%FSLAX46Y46*%
G04 Gerber Fmt 4.6, Leading zero omitted, Abs format (unit mm)*
G04 Created by KiCad (PCBNEW 8.0.9-8.0.9-0~ubuntu22.04.1) date 2025-02-27 10:41:37*
%MOMM*%
%LPD*%
G01*
G04 APERTURE LIST*
%ADD10C,0.150000*%
G04 APERTURE END LIST*
D10*
X7477570Y28406680D02*
X7477570Y28930490D01*
X7477570Y28930490D02*
X7429951Y29025728D01*
X7429951Y29025728D02*
X7334713Y29073347D01*
X7334713Y29073347D02*
X7144237Y29073347D01*
X7144237Y29073347D02*
X7048999Y29025728D01*
X7477570Y28454300D02*
X7382332Y28406680D01*
X7382332Y28406680D02*
X7144237Y28406680D01*
X7144237Y28406680D02*
X7048999Y28454300D01*
X7048999Y28454300D02*
X7001380Y28549538D01*
X7001380Y28549538D02*
X7001380Y28644776D01*
X7001380Y28644776D02*
X7048999Y28740014D01*
X7048999Y28740014D02*
X7144237Y28787633D01*
X7144237Y28787633D02*
X7382332Y28787633D01*
X7382332Y28787633D02*
X7477570Y28835252D01*
X7953761Y29073347D02*
X7953761Y28406680D01*
X7953761Y28978109D02*
X8001380Y29025728D01*
X8001380Y29025728D02*
X8096618Y29073347D01*
X8096618Y29073347D02*
X8239475Y29073347D01*
X8239475Y29073347D02*
X8334713Y29025728D01*
X8334713Y29025728D02*
X8382332Y28930490D01*
X8382332Y28930490D02*
X8382332Y28406680D01*
X8763285Y29073347D02*
X9001380Y28406680D01*
X9239475Y29073347D02*
X9001380Y28406680D01*
X9001380Y28406680D02*
X8906142Y28168585D01*
X8906142Y28168585D02*
X8858523Y28120966D01*
X8858523Y28120966D02*
X8763285Y28073347D01*
X10382333Y28406680D02*
X10382333Y29406680D01*
X10382333Y29406680D02*
X10763285Y29406680D01*
X10763285Y29406680D02*
X10858523Y29359061D01*
X10858523Y29359061D02*
X10906142Y29311442D01*
X10906142Y29311442D02*
X10953761Y29216204D01*
X10953761Y29216204D02*
X10953761Y29073347D01*
X10953761Y29073347D02*
X10906142Y28978109D01*
X10906142Y28978109D02*
X10858523Y28930490D01*
X10858523Y28930490D02*
X10763285Y28882871D01*
X10763285Y28882871D02*
X10382333Y28882871D01*
X11953761Y28501919D02*
X11906142Y28454300D01*
X11906142Y28454300D02*
X11763285Y28406680D01*
X11763285Y28406680D02*
X11668047Y28406680D01*
X11668047Y28406680D02*
X11525190Y28454300D01*
X11525190Y28454300D02*
X11429952Y28549538D01*
X11429952Y28549538D02*
X11382333Y28644776D01*
X11382333Y28644776D02*
X11334714Y28835252D01*
X11334714Y28835252D02*
X11334714Y28978109D01*
X11334714Y28978109D02*
X11382333Y29168585D01*
X11382333Y29168585D02*
X11429952Y29263823D01*
X11429952Y29263823D02*
X11525190Y29359061D01*
X11525190Y29359061D02*
X11668047Y29406680D01*
X11668047Y29406680D02*
X11763285Y29406680D01*
X11763285Y29406680D02*
X11906142Y29359061D01*
X11906142Y29359061D02*
X11953761Y29311442D01*
X12715666Y28930490D02*
X12858523Y28882871D01*
X12858523Y28882871D02*
X12906142Y28835252D01*
X12906142Y28835252D02*
X12953761Y28740014D01*
X12953761Y28740014D02*
X12953761Y28597157D01*
X12953761Y28597157D02*
X12906142Y28501919D01*
X12906142Y28501919D02*
X12858523Y28454300D01*
X12858523Y28454300D02*
X12763285Y28406680D01*
X12763285Y28406680D02*
X12382333Y28406680D01*
X12382333Y28406680D02*
X12382333Y29406680D01*
X12382333Y29406680D02*
X12715666Y29406680D01*
X12715666Y29406680D02*
X12810904Y29359061D01*
X12810904Y29359061D02*
X12858523Y29311442D01*
X12858523Y29311442D02*
X12906142Y29216204D01*
X12906142Y29216204D02*
X12906142Y29120966D01*
X12906142Y29120966D02*
X12858523Y29025728D01*
X12858523Y29025728D02*
X12810904Y28978109D01*
X12810904Y28978109D02*
X12715666Y28930490D01*
X12715666Y28930490D02*
X12382333Y28930490D01*
X14287095Y28406680D02*
X14191857Y28454300D01*
X14191857Y28454300D02*
X14144238Y28549538D01*
X14144238Y28549538D02*
X14144238Y29406680D01*
X15096619Y28406680D02*
X15096619Y28930490D01*
X15096619Y28930490D02*
X15049000Y29025728D01*
X15049000Y29025728D02*
X14953762Y29073347D01*
X14953762Y29073347D02*
X14763286Y29073347D01*
X14763286Y29073347D02*
X14668048Y29025728D01*
X15096619Y28454300D02*
X15001381Y28406680D01*
X15001381Y28406680D02*
X14763286Y28406680D01*
X14763286Y28406680D02*
X14668048Y28454300D01*
X14668048Y28454300D02*
X14620429Y28549538D01*
X14620429Y28549538D02*
X14620429Y28644776D01*
X14620429Y28644776D02*
X14668048Y28740014D01*
X14668048Y28740014D02*
X14763286Y28787633D01*
X14763286Y28787633D02*
X15001381Y28787633D01*
X15001381Y28787633D02*
X15096619Y28835252D01*
X15477572Y29073347D02*
X15715667Y28406680D01*
X15953762Y29073347D02*
X15715667Y28406680D01*
X15715667Y28406680D02*
X15620429Y28168585D01*
X15620429Y28168585D02*
X15572810Y28120966D01*
X15572810Y28120966D02*
X15477572Y28073347D01*
X16715667Y28454300D02*
X16620429Y28406680D01*
X16620429Y28406680D02*
X16429953Y28406680D01*
X16429953Y28406680D02*
X16334715Y28454300D01*
X16334715Y28454300D02*
X16287096Y28549538D01*
X16287096Y28549538D02*
X16287096Y28930490D01*
X16287096Y28930490D02*
X16334715Y29025728D01*
X16334715Y29025728D02*
X16429953Y29073347D01*
X16429953Y29073347D02*
X16620429Y29073347D01*
X16620429Y29073347D02*
X16715667Y29025728D01*
X16715667Y29025728D02*
X16763286Y28930490D01*
X16763286Y28930490D02*
X16763286Y28835252D01*
X16763286Y28835252D02*
X16287096Y28740014D01*
X17191858Y28406680D02*
X17191858Y29073347D01*
X17191858Y28882871D02*
X17239477Y28978109D01*
X17239477Y28978109D02*
X17287096Y29025728D01*
X17287096Y29025728D02*
X17382334Y29073347D01*
X17382334Y29073347D02*
X17477572Y29073347D01*
X17810906Y28501919D02*
X17858525Y28454300D01*
X17858525Y28454300D02*
X17810906Y28406680D01*
X17810906Y28406680D02*
X17763287Y28454300D01*
X17763287Y28454300D02*
X17810906Y28501919D01*
X17810906Y28501919D02*
X17810906Y28406680D01*
X5287094Y30406680D02*
X5287094Y30930490D01*
X5287094Y30930490D02*
X5239475Y31025728D01*
X5239475Y31025728D02*
X5144237Y31073347D01*
X5144237Y31073347D02*
X4953761Y31073347D01*
X4953761Y31073347D02*
X4858523Y31025728D01*
X5287094Y30454300D02*
X5191856Y30406680D01*
X5191856Y30406680D02*
X4953761Y30406680D01*
X4953761Y30406680D02*
X4858523Y30454300D01*
X4858523Y30454300D02*
X4810904Y30549538D01*
X4810904Y30549538D02*
X4810904Y30644776D01*
X4810904Y30644776D02*
X4858523Y30740014D01*
X4858523Y30740014D02*
X4953761Y30787633D01*
X4953761Y30787633D02*
X5191856Y30787633D01*
X5191856Y30787633D02*
X5287094Y30835252D01*
X5763285Y31073347D02*
X5763285Y30406680D01*
X5763285Y30978109D02*
X5810904Y31025728D01*
X5810904Y31025728D02*
X5906142Y31073347D01*
X5906142Y31073347D02*
X6048999Y31073347D01*
X6048999Y31073347D02*
X6144237Y31025728D01*
X6144237Y31025728D02*
X6191856Y30930490D01*
X6191856Y30930490D02*
X6191856Y30406680D01*
X6572809Y31073347D02*
X6810904Y30406680D01*
X7048999Y31073347D02*
X6810904Y30406680D01*
X6810904Y30406680D02*
X6715666Y30168585D01*
X6715666Y30168585D02*
X6668047Y30120966D01*
X6668047Y30120966D02*
X6572809Y30073347D01*
X8620428Y30454300D02*
X8525190Y30406680D01*
X8525190Y30406680D02*
X8334714Y30406680D01*
X8334714Y30406680D02*
X8239476Y30454300D01*
X8239476Y30454300D02*
X8191857Y30501919D01*
X8191857Y30501919D02*
X8144238Y30597157D01*
X8144238Y30597157D02*
X8144238Y30882871D01*
X8144238Y30882871D02*
X8191857Y30978109D01*
X8191857Y30978109D02*
X8239476Y31025728D01*
X8239476Y31025728D02*
X8334714Y31073347D01*
X8334714Y31073347D02*
X8525190Y31073347D01*
X8525190Y31073347D02*
X8620428Y31025728D01*
X9191857Y30406680D02*
X9096619Y30454300D01*
X9096619Y30454300D02*
X9049000Y30501919D01*
X9049000Y30501919D02*
X9001381Y30597157D01*
X9001381Y30597157D02*
X9001381Y30882871D01*
X9001381Y30882871D02*
X9049000Y30978109D01*
X9049000Y30978109D02*
X9096619Y31025728D01*
X9096619Y31025728D02*
X9191857Y31073347D01*
X9191857Y31073347D02*
X9334714Y31073347D01*
X9334714Y31073347D02*
X9429952Y31025728D01*
X9429952Y31025728D02*
X9477571Y30978109D01*
X9477571Y30978109D02*
X9525190Y30882871D01*
X9525190Y30882871D02*
X9525190Y30597157D01*
X9525190Y30597157D02*
X9477571Y30501919D01*
X9477571Y30501919D02*
X9429952Y30454300D01*
X9429952Y30454300D02*
X9334714Y30406680D01*
X9334714Y30406680D02*
X9191857Y30406680D01*
X9953762Y30406680D02*
X9953762Y31073347D01*
X9953762Y30978109D02*
X10001381Y31025728D01*
X10001381Y31025728D02*
X10096619Y31073347D01*
X10096619Y31073347D02*
X10239476Y31073347D01*
X10239476Y31073347D02*
X10334714Y31025728D01*
X10334714Y31025728D02*
X10382333Y30930490D01*
X10382333Y30930490D02*
X10382333Y30406680D01*
X10382333Y30930490D02*
X10429952Y31025728D01*
X10429952Y31025728D02*
X10525190Y31073347D01*
X10525190Y31073347D02*
X10668047Y31073347D01*
X10668047Y31073347D02*
X10763286Y31025728D01*
X10763286Y31025728D02*
X10810905Y30930490D01*
X10810905Y30930490D02*
X10810905Y30406680D01*
X11287095Y31073347D02*
X11287095Y30073347D01*
X11287095Y31025728D02*
X11382333Y31073347D01*
X11382333Y31073347D02*
X11572809Y31073347D01*
X11572809Y31073347D02*
X11668047Y31025728D01*
X11668047Y31025728D02*
X11715666Y30978109D01*
X11715666Y30978109D02*
X11763285Y30882871D01*
X11763285Y30882871D02*
X11763285Y30597157D01*
X11763285Y30597157D02*
X11715666Y30501919D01*
X11715666Y30501919D02*
X11668047Y30454300D01*
X11668047Y30454300D02*
X11572809Y30406680D01*
X11572809Y30406680D02*
X11382333Y30406680D01*
X11382333Y30406680D02*
X11287095Y30454300D01*
X12334714Y30406680D02*
X12239476Y30454300D01*
X12239476Y30454300D02*
X12191857Y30501919D01*
X12191857Y30501919D02*
X12144238Y30597157D01*
X12144238Y30597157D02*
X12144238Y30882871D01*
X12144238Y30882871D02*
X12191857Y30978109D01*
X12191857Y30978109D02*
X12239476Y31025728D01*
X12239476Y31025728D02*
X12334714Y31073347D01*
X12334714Y31073347D02*
X12477571Y31073347D01*
X12477571Y31073347D02*
X12572809Y31025728D01*
X12572809Y31025728D02*
X12620428Y30978109D01*
X12620428Y30978109D02*
X12668047Y30882871D01*
X12668047Y30882871D02*
X12668047Y30597157D01*
X12668047Y30597157D02*
X12620428Y30501919D01*
X12620428Y30501919D02*
X12572809Y30454300D01*
X12572809Y30454300D02*
X12477571Y30406680D01*
X12477571Y30406680D02*
X12334714Y30406680D01*
X13096619Y31073347D02*
X13096619Y30406680D01*
X13096619Y30978109D02*
X13144238Y31025728D01*
X13144238Y31025728D02*
X13239476Y31073347D01*
X13239476Y31073347D02*
X13382333Y31073347D01*
X13382333Y31073347D02*
X13477571Y31025728D01*
X13477571Y31025728D02*
X13525190Y30930490D01*
X13525190Y30930490D02*
X13525190Y30406680D01*
X14382333Y30454300D02*
X14287095Y30406680D01*
X14287095Y30406680D02*
X14096619Y30406680D01*
X14096619Y30406680D02*
X14001381Y30454300D01*
X14001381Y30454300D02*
X13953762Y30549538D01*
X13953762Y30549538D02*
X13953762Y30930490D01*
X13953762Y30930490D02*
X14001381Y31025728D01*
X14001381Y31025728D02*
X14096619Y31073347D01*
X14096619Y31073347D02*
X14287095Y31073347D01*
X14287095Y31073347D02*
X14382333Y31025728D01*
X14382333Y31025728D02*
X14429952Y30930490D01*
X14429952Y30930490D02*
X14429952Y30835252D01*
X14429952Y30835252D02*
X13953762Y30740014D01*
X14858524Y31073347D02*
X14858524Y30406680D01*
X14858524Y30978109D02*
X14906143Y31025728D01*
X14906143Y31025728D02*
X15001381Y31073347D01*
X15001381Y31073347D02*
X15144238Y31073347D01*
X15144238Y31073347D02*
X15239476Y31025728D01*
X15239476Y31025728D02*
X15287095Y30930490D01*
X15287095Y30930490D02*
X15287095Y30406680D01*
X15620429Y31073347D02*
X16001381Y31073347D01*
X15763286Y31406680D02*
X15763286Y30549538D01*
X15763286Y30549538D02*
X15810905Y30454300D01*
X15810905Y30454300D02*
X15906143Y30406680D01*
X15906143Y30406680D02*
X16001381Y30406680D01*
X16287096Y30454300D02*
X16382334Y30406680D01*
X16382334Y30406680D02*
X16572810Y30406680D01*
X16572810Y30406680D02*
X16668048Y30454300D01*
X16668048Y30454300D02*
X16715667Y30549538D01*
X16715667Y30549538D02*
X16715667Y30597157D01*
X16715667Y30597157D02*
X16668048Y30692395D01*
X16668048Y30692395D02*
X16572810Y30740014D01*
X16572810Y30740014D02*
X16429953Y30740014D01*
X16429953Y30740014D02*
X16334715Y30787633D01*
X16334715Y30787633D02*
X16287096Y30882871D01*
X16287096Y30882871D02*
X16287096Y30930490D01*
X16287096Y30930490D02*
X16334715Y31025728D01*
X16334715Y31025728D02*
X16429953Y31073347D01*
X16429953Y31073347D02*
X16572810Y31073347D01*
X16572810Y31073347D02*
X16668048Y31025728D01*
X18049001Y30406680D02*
X17953763Y30454300D01*
X17953763Y30454300D02*
X17906144Y30501919D01*
X17906144Y30501919D02*
X17858525Y30597157D01*
X17858525Y30597157D02*
X17858525Y30882871D01*
X17858525Y30882871D02*
X17906144Y30978109D01*
X17906144Y30978109D02*
X17953763Y31025728D01*
X17953763Y31025728D02*
X18049001Y31073347D01*
X18049001Y31073347D02*
X18191858Y31073347D01*
X18191858Y31073347D02*
X18287096Y31025728D01*
X18287096Y31025728D02*
X18334715Y30978109D01*
X18334715Y30978109D02*
X18382334Y30882871D01*
X18382334Y30882871D02*
X18382334Y30597157D01*
X18382334Y30597157D02*
X18334715Y30501919D01*
X18334715Y30501919D02*
X18287096Y30454300D01*
X18287096Y30454300D02*
X18191858Y30406680D01*
X18191858Y30406680D02*
X18049001Y30406680D01*
X18810906Y31073347D02*
X18810906Y30406680D01*
X18810906Y30978109D02*
X18858525Y31025728D01*
X18858525Y31025728D02*
X18953763Y31073347D01*
X18953763Y31073347D02*
X19096620Y31073347D01*
X19096620Y31073347D02*
X19191858Y31025728D01*
X19191858Y31025728D02*
X19239477Y30930490D01*
X19239477Y30930490D02*
X19239477Y30406680D01*
X5977571Y35406680D02*
X5977571Y36406680D01*
X6548999Y35406680D02*
X6120428Y35978109D01*
X6548999Y36406680D02*
X5977571Y35835252D01*
X6977571Y35930490D02*
X7310904Y35930490D01*
X7453761Y35406680D02*
X6977571Y35406680D01*
X6977571Y35406680D02*
X6977571Y36406680D01*
X6977571Y36406680D02*
X7453761Y36406680D01*
X7882333Y35930490D02*
X8215666Y35930490D01*
X8358523Y35406680D02*
X7882333Y35406680D01*
X7882333Y35406680D02*
X7882333Y36406680D01*
X7882333Y36406680D02*
X8358523Y36406680D01*
X8787095Y35406680D02*
X8787095Y36406680D01*
X8787095Y36406680D02*
X9168047Y36406680D01*
X9168047Y36406680D02*
X9263285Y36359061D01*
X9263285Y36359061D02*
X9310904Y36311442D01*
X9310904Y36311442D02*
X9358523Y36216204D01*
X9358523Y36216204D02*
X9358523Y36073347D01*
X9358523Y36073347D02*
X9310904Y35978109D01*
X9310904Y35978109D02*
X9263285Y35930490D01*
X9263285Y35930490D02*
X9168047Y35882871D01*
X9168047Y35882871D02*
X8787095Y35882871D01*
X9787095Y35787633D02*
X10549000Y35787633D01*
X11215666Y36406680D02*
X11406142Y36406680D01*
X11406142Y36406680D02*
X11501380Y36359061D01*
X11501380Y36359061D02*
X11596618Y36263823D01*
X11596618Y36263823D02*
X11644237Y36073347D01*
X11644237Y36073347D02*
X11644237Y35740014D01*
X11644237Y35740014D02*
X11596618Y35549538D01*
X11596618Y35549538D02*
X11501380Y35454300D01*
X11501380Y35454300D02*
X11406142Y35406680D01*
X11406142Y35406680D02*
X11215666Y35406680D01*
X11215666Y35406680D02*
X11120428Y35454300D01*
X11120428Y35454300D02*
X11025190Y35549538D01*
X11025190Y35549538D02*
X10977571Y35740014D01*
X10977571Y35740014D02*
X10977571Y36073347D01*
X10977571Y36073347D02*
X11025190Y36263823D01*
X11025190Y36263823D02*
X11120428Y36359061D01*
X11120428Y36359061D02*
X11215666Y36406680D01*
X12072809Y36406680D02*
X12072809Y35597157D01*
X12072809Y35597157D02*
X12120428Y35501919D01*
X12120428Y35501919D02*
X12168047Y35454300D01*
X12168047Y35454300D02*
X12263285Y35406680D01*
X12263285Y35406680D02*
X12453761Y35406680D01*
X12453761Y35406680D02*
X12548999Y35454300D01*
X12548999Y35454300D02*
X12596618Y35501919D01*
X12596618Y35501919D02*
X12644237Y35597157D01*
X12644237Y35597157D02*
X12644237Y36406680D01*
X12977571Y36406680D02*
X13548999Y36406680D01*
X13263285Y35406680D02*
X13263285Y36406680D01*
X14549000Y36406680D02*
X15215666Y36406680D01*
X15215666Y36406680D02*
X14549000Y35406680D01*
X14549000Y35406680D02*
X15215666Y35406680D01*
X15787095Y36406680D02*
X15977571Y36406680D01*
X15977571Y36406680D02*
X16072809Y36359061D01*
X16072809Y36359061D02*
X16168047Y36263823D01*
X16168047Y36263823D02*
X16215666Y36073347D01*
X16215666Y36073347D02*
X16215666Y35740014D01*
X16215666Y35740014D02*
X16168047Y35549538D01*
X16168047Y35549538D02*
X16072809Y35454300D01*
X16072809Y35454300D02*
X15977571Y35406680D01*
X15977571Y35406680D02*
X15787095Y35406680D01*
X15787095Y35406680D02*
X15691857Y35454300D01*
X15691857Y35454300D02*
X15596619Y35549538D01*
X15596619Y35549538D02*
X15549000Y35740014D01*
X15549000Y35740014D02*
X15549000Y36073347D01*
X15549000Y36073347D02*
X15596619Y36263823D01*
X15596619Y36263823D02*
X15691857Y36359061D01*
X15691857Y36359061D02*
X15787095Y36406680D01*
X16644238Y35406680D02*
X16644238Y36406680D01*
X16644238Y36406680D02*
X17215666Y35406680D01*
X17215666Y35406680D02*
X17215666Y36406680D01*
X17691857Y35930490D02*
X18025190Y35930490D01*
X18168047Y35406680D02*
X17691857Y35406680D01*
X17691857Y35406680D02*
X17691857Y36406680D01*
X17691857Y36406680D02*
X18168047Y36406680D01*
X4382332Y32406680D02*
X4382332Y33406680D01*
X4382332Y33406680D02*
X4953760Y32406680D01*
X4953760Y32406680D02*
X4953760Y33406680D01*
X5572808Y32406680D02*
X5477570Y32454300D01*
X5477570Y32454300D02*
X5429951Y32501919D01*
X5429951Y32501919D02*
X5382332Y32597157D01*
X5382332Y32597157D02*
X5382332Y32882871D01*
X5382332Y32882871D02*
X5429951Y32978109D01*
X5429951Y32978109D02*
X5477570Y33025728D01*
X5477570Y33025728D02*
X5572808Y33073347D01*
X5572808Y33073347D02*
X5715665Y33073347D01*
X5715665Y33073347D02*
X5810903Y33025728D01*
X5810903Y33025728D02*
X5858522Y32978109D01*
X5858522Y32978109D02*
X5906141Y32882871D01*
X5906141Y32882871D02*
X5906141Y32597157D01*
X5906141Y32597157D02*
X5858522Y32501919D01*
X5858522Y32501919D02*
X5810903Y32454300D01*
X5810903Y32454300D02*
X5715665Y32406680D01*
X5715665Y32406680D02*
X5572808Y32406680D01*
X7096618Y32406680D02*
X7096618Y33073347D01*
X7096618Y32978109D02*
X7144237Y33025728D01*
X7144237Y33025728D02*
X7239475Y33073347D01*
X7239475Y33073347D02*
X7382332Y33073347D01*
X7382332Y33073347D02*
X7477570Y33025728D01*
X7477570Y33025728D02*
X7525189Y32930490D01*
X7525189Y32930490D02*
X7525189Y32406680D01*
X7525189Y32930490D02*
X7572808Y33025728D01*
X7572808Y33025728D02*
X7668046Y33073347D01*
X7668046Y33073347D02*
X7810903Y33073347D01*
X7810903Y33073347D02*
X7906142Y33025728D01*
X7906142Y33025728D02*
X7953761Y32930490D01*
X7953761Y32930490D02*
X7953761Y32406680D01*
X8810903Y32454300D02*
X8715665Y32406680D01*
X8715665Y32406680D02*
X8525189Y32406680D01*
X8525189Y32406680D02*
X8429951Y32454300D01*
X8429951Y32454300D02*
X8382332Y32549538D01*
X8382332Y32549538D02*
X8382332Y32930490D01*
X8382332Y32930490D02*
X8429951Y33025728D01*
X8429951Y33025728D02*
X8525189Y33073347D01*
X8525189Y33073347D02*
X8715665Y33073347D01*
X8715665Y33073347D02*
X8810903Y33025728D01*
X8810903Y33025728D02*
X8858522Y32930490D01*
X8858522Y32930490D02*
X8858522Y32835252D01*
X8858522Y32835252D02*
X8382332Y32740014D01*
X9144237Y33073347D02*
X9525189Y33073347D01*
X9287094Y33406680D02*
X9287094Y32549538D01*
X9287094Y32549538D02*
X9334713Y32454300D01*
X9334713Y32454300D02*
X9429951Y32406680D01*
X9429951Y32406680D02*
X9525189Y32406680D01*
X10287094Y32406680D02*
X10287094Y32930490D01*
X10287094Y32930490D02*
X10239475Y33025728D01*
X10239475Y33025728D02*
X10144237Y33073347D01*
X10144237Y33073347D02*
X9953761Y33073347D01*
X9953761Y33073347D02*
X9858523Y33025728D01*
X10287094Y32454300D02*
X10191856Y32406680D01*
X10191856Y32406680D02*
X9953761Y32406680D01*
X9953761Y32406680D02*
X9858523Y32454300D01*
X9858523Y32454300D02*
X9810904Y32549538D01*
X9810904Y32549538D02*
X9810904Y32644776D01*
X9810904Y32644776D02*
X9858523Y32740014D01*
X9858523Y32740014D02*
X9953761Y32787633D01*
X9953761Y32787633D02*
X10191856Y32787633D01*
X10191856Y32787633D02*
X10287094Y32835252D01*
X10906142Y32406680D02*
X10810904Y32454300D01*
X10810904Y32454300D02*
X10763285Y32549538D01*
X10763285Y32549538D02*
X10763285Y33406680D01*
X11334714Y32454300D02*
X11334714Y32406680D01*
X11334714Y32406680D02*
X11287095Y32311442D01*
X11287095Y32311442D02*
X11239476Y32263823D01*
X12382333Y33073347D02*
X12763285Y33073347D01*
X12525190Y33406680D02*
X12525190Y32549538D01*
X12525190Y32549538D02*
X12572809Y32454300D01*
X12572809Y32454300D02*
X12668047Y32406680D01*
X12668047Y32406680D02*
X12763285Y32406680D01*
X13096619Y32406680D02*
X13096619Y33073347D01*
X13096619Y32882871D02*
X13144238Y32978109D01*
X13144238Y32978109D02*
X13191857Y33025728D01*
X13191857Y33025728D02*
X13287095Y33073347D01*
X13287095Y33073347D02*
X13382333Y33073347D01*
X14144238Y32406680D02*
X14144238Y32930490D01*
X14144238Y32930490D02*
X14096619Y33025728D01*
X14096619Y33025728D02*
X14001381Y33073347D01*
X14001381Y33073347D02*
X13810905Y33073347D01*
X13810905Y33073347D02*
X13715667Y33025728D01*
X14144238Y32454300D02*
X14049000Y32406680D01*
X14049000Y32406680D02*
X13810905Y32406680D01*
X13810905Y32406680D02*
X13715667Y32454300D01*
X13715667Y32454300D02*
X13668048Y32549538D01*
X13668048Y32549538D02*
X13668048Y32644776D01*
X13668048Y32644776D02*
X13715667Y32740014D01*
X13715667Y32740014D02*
X13810905Y32787633D01*
X13810905Y32787633D02*
X14049000Y32787633D01*
X14049000Y32787633D02*
X14144238Y32835252D01*
X15049000Y32454300D02*
X14953762Y32406680D01*
X14953762Y32406680D02*
X14763286Y32406680D01*
X14763286Y32406680D02*
X14668048Y32454300D01*
X14668048Y32454300D02*
X14620429Y32501919D01*
X14620429Y32501919D02*
X14572810Y32597157D01*
X14572810Y32597157D02*
X14572810Y32882871D01*
X14572810Y32882871D02*
X14620429Y32978109D01*
X14620429Y32978109D02*
X14668048Y33025728D01*
X14668048Y33025728D02*
X14763286Y33073347D01*
X14763286Y33073347D02*
X14953762Y33073347D01*
X14953762Y33073347D02*
X15049000Y33025728D01*
X15858524Y32454300D02*
X15763286Y32406680D01*
X15763286Y32406680D02*
X15572810Y32406680D01*
X15572810Y32406680D02*
X15477572Y32454300D01*
X15477572Y32454300D02*
X15429953Y32549538D01*
X15429953Y32549538D02*
X15429953Y32930490D01*
X15429953Y32930490D02*
X15477572Y33025728D01*
X15477572Y33025728D02*
X15572810Y33073347D01*
X15572810Y33073347D02*
X15763286Y33073347D01*
X15763286Y33073347D02*
X15858524Y33025728D01*
X15858524Y33025728D02*
X15906143Y32930490D01*
X15906143Y32930490D02*
X15906143Y32835252D01*
X15906143Y32835252D02*
X15429953Y32740014D01*
X16287096Y32454300D02*
X16382334Y32406680D01*
X16382334Y32406680D02*
X16572810Y32406680D01*
X16572810Y32406680D02*
X16668048Y32454300D01*
X16668048Y32454300D02*
X16715667Y32549538D01*
X16715667Y32549538D02*
X16715667Y32597157D01*
X16715667Y32597157D02*
X16668048Y32692395D01*
X16668048Y32692395D02*
X16572810Y32740014D01*
X16572810Y32740014D02*
X16429953Y32740014D01*
X16429953Y32740014D02*
X16334715Y32787633D01*
X16334715Y32787633D02*
X16287096Y32882871D01*
X16287096Y32882871D02*
X16287096Y32930490D01*
X16287096Y32930490D02*
X16334715Y33025728D01*
X16334715Y33025728D02*
X16429953Y33073347D01*
X16429953Y33073347D02*
X16572810Y33073347D01*
X16572810Y33073347D02*
X16668048Y33025728D01*
X18049001Y32406680D02*
X17953763Y32454300D01*
X17953763Y32454300D02*
X17906144Y32501919D01*
X17906144Y32501919D02*
X17858525Y32597157D01*
X17858525Y32597157D02*
X17858525Y32882871D01*
X17858525Y32882871D02*
X17906144Y32978109D01*
X17906144Y32978109D02*
X17953763Y33025728D01*
X17953763Y33025728D02*
X18049001Y33073347D01*
X18049001Y33073347D02*
X18191858Y33073347D01*
X18191858Y33073347D02*
X18287096Y33025728D01*
X18287096Y33025728D02*
X18334715Y32978109D01*
X18334715Y32978109D02*
X18382334Y32882871D01*
X18382334Y32882871D02*
X18382334Y32597157D01*
X18382334Y32597157D02*
X18334715Y32501919D01*
X18334715Y32501919D02*
X18287096Y32454300D01*
X18287096Y32454300D02*
X18191858Y32406680D01*
X18191858Y32406680D02*
X18049001Y32406680D01*
X18810906Y32406680D02*
X18810906Y33073347D01*
X18810906Y32882871D02*
X18858525Y32978109D01*
X18858525Y32978109D02*
X18906144Y33025728D01*
X18906144Y33025728D02*
X19001382Y33073347D01*
X19001382Y33073347D02*
X19096620Y33073347D01*
M02*
