%TF.GenerationSoftware,KiCad,Pcbnew,6.0.11-2627ca5db0~126~ubuntu22.04.1*%
%TF.CreationDate,2024-01-13T12:23:50+01:00*%
%TF.ProjectId,HB_Stamp_ATMega1284P_FUEL4EP,48425f53-7461-46d7-905f-41544d656761,1.0*%
%TF.SameCoordinates,Original*%
%TF.FileFunction,Copper,L2,Bot*%
%TF.FilePolarity,Positive*%
%FSLAX46Y46*%
G04 Gerber Fmt 4.6, Leading zero omitted, Abs format (unit mm)*
G04 Created by KiCad (PCBNEW 6.0.11-2627ca5db0~126~ubuntu22.04.1) date 2024-01-13 12:23:50*
%MOMM*%
%LPD*%
G01*
G04 APERTURE LIST*
%TA.AperFunction,EtchedComponent*%
%ADD10C,1.000000*%
%TD*%
%TA.AperFunction,ComponentPad*%
%ADD11R,1.700000X1.700000*%
%TD*%
%TA.AperFunction,ComponentPad*%
%ADD12O,1.700000X1.700000*%
%TD*%
%TA.AperFunction,ComponentPad*%
%ADD13C,1.000000*%
%TD*%
%TA.AperFunction,SMDPad,CuDef*%
%ADD14R,1.500000X0.800000*%
%TD*%
%TA.AperFunction,SMDPad,CuDef*%
%ADD15R,0.800000X1.500000*%
%TD*%
%TA.AperFunction,SMDPad,CuDef*%
%ADD16R,1.700000X1.700000*%
%TD*%
%TA.AperFunction,SMDPad,CuDef*%
%ADD17O,1.700000X1.700000*%
%TD*%
%TA.AperFunction,ViaPad*%
%ADD18C,0.600000*%
%TD*%
%TA.AperFunction,Conductor*%
%ADD19C,0.500000*%
%TD*%
%TA.AperFunction,Conductor*%
%ADD20C,0.200000*%
%TD*%
%TA.AperFunction,Conductor*%
%ADD21C,0.400000*%
%TD*%
G04 APERTURE END LIST*
D10*
%TO.C,AE1*%
X14049000Y38861500D02*
X15049000Y37861500D01*
X16049000Y38861500D02*
X17049000Y37861500D01*
X13049000Y34861500D02*
X14049000Y33861500D01*
X19049000Y37861500D02*
X19049000Y34861500D01*
X17049000Y34861500D02*
X18049000Y33861500D01*
X11049000Y37861500D02*
X11049000Y34861500D01*
X7049000Y37861500D02*
X7049000Y34861500D01*
X11049000Y34861500D02*
X12049000Y33861500D01*
X18049000Y38861500D02*
X19049000Y37861500D01*
X13049000Y37861500D02*
X13049000Y34861500D01*
X19049000Y34861500D02*
X20049000Y33861500D01*
X3049000Y37861500D02*
X3049000Y34861500D01*
X8049000Y38861500D02*
X9049000Y37861500D01*
X4049000Y38861500D02*
X5049000Y37861500D01*
X15049000Y37861500D02*
X15049000Y34861500D01*
X5049000Y37861500D02*
X5049000Y34861500D01*
X9049000Y37861500D02*
X9049000Y34861500D01*
X3049000Y34861500D02*
X4049000Y33861500D01*
X2049000Y38861500D02*
X3049000Y37861500D01*
X5049000Y34861500D02*
X6049000Y33861500D01*
X10049000Y38861500D02*
X11049000Y37861500D01*
X15049000Y34861500D02*
X16049000Y33861500D01*
X17049000Y37861500D02*
X17049000Y34861500D01*
X9049000Y34861500D02*
X10049000Y33861500D01*
X12049000Y38861500D02*
X13049000Y37861500D01*
X6049000Y38861500D02*
X7049000Y37861500D01*
X7049000Y34861500D02*
X8049000Y33861500D01*
%TD*%
D11*
%TO.P,J1,1,Pin_1*%
%TO.N,GND*%
X1778000Y7493000D03*
D12*
%TO.P,J1,2,Pin_2*%
%TO.N,VCC*%
X1778000Y4953000D03*
%TO.P,J1,3,Pin_3*%
%TO.N,/plusBAT*%
X1778000Y2413000D03*
%TD*%
D13*
%TO.P,AE1,*%
%TO.N,*%
X14049000Y33861500D03*
X10049000Y38861500D03*
X10049000Y33861500D03*
X18049000Y33861500D03*
X4049000Y38861500D03*
X20049000Y38861500D03*
X20049000Y33861500D03*
X16049000Y33861500D03*
X6049000Y33861500D03*
X2049000Y38861500D03*
X6049000Y38861500D03*
X12049000Y33861500D03*
X8049000Y38861500D03*
X4049000Y33861500D03*
X16049000Y38861500D03*
X8049000Y33861500D03*
X14049000Y38861500D03*
X12049000Y38861500D03*
X18049000Y38861500D03*
%TD*%
D11*
%TO.P,J7,1,Pin_1*%
%TO.N,Net-(J7-Pad1)*%
X6731000Y8382000D03*
%TD*%
%TO.P,J4,1,Pin_1*%
%TO.N,/SDA*%
X19812000Y9652000D03*
D12*
%TO.P,J4,2,Pin_2*%
%TO.N,/SCL*%
X19812000Y7112000D03*
%TO.P,J4,3,Pin_3*%
%TO.N,/VDDA*%
X19812000Y4572000D03*
%TO.P,J4,4,Pin_4*%
%TO.N,GND*%
X19812000Y2032000D03*
%TD*%
D11*
%TO.P,J5,1,Pin_1*%
%TO.N,Net-(J5-Pad1)*%
X16129000Y8382000D03*
%TD*%
D14*
%TO.P,Module1,1A,SCK*%
%TO.N,/SCK*%
X15033000Y18669000D03*
D15*
%TO.P,Module1,1B,ANT*%
%TO.N,/ANT*%
X7493000Y26209000D03*
D14*
%TO.P,Module1,1C,VCC*%
%TO.N,VCC*%
X5033000Y18669000D03*
D15*
%TO.P,Module1,1D,GD02*%
%TO.N,unconnected-(Module1-Pad1D)*%
X7493000Y16209000D03*
D14*
%TO.P,Module1,2A,~{CSN}*%
%TO.N,/SS*%
X15033000Y19939000D03*
D15*
%TO.P,Module1,2B,GND*%
%TO.N,GND*%
X8763000Y26209000D03*
D14*
%TO.P,Module1,2C,GND*%
X5033000Y19939000D03*
D15*
%TO.P,Module1,2D,NC*%
%TO.N,unconnected-(Module1-Pad2D)*%
X8763000Y16209000D03*
D14*
%TO.P,Module1,3A,MOSI*%
%TO.N,/MOSI*%
X15033000Y21209000D03*
D15*
%TO.P,Module1,3B,NC*%
%TO.N,unconnected-(Module1-Pad3B)*%
X10033000Y26209000D03*
D14*
%TO.P,Module1,3C,NC*%
%TO.N,unconnected-(Module1-Pad3C)*%
X5033000Y21209000D03*
D15*
%TO.P,Module1,3D,GD00*%
%TO.N,/D2*%
X10033000Y16209000D03*
D14*
%TO.P,Module1,4A,MISO/GD01*%
%TO.N,/MISO*%
X15033000Y22479000D03*
D15*
%TO.P,Module1,4B,NC*%
%TO.N,unconnected-(Module1-Pad4B)*%
X11303000Y26209000D03*
D14*
%TO.P,Module1,4C,NC*%
%TO.N,unconnected-(Module1-Pad4C)*%
X5033000Y22479000D03*
D15*
%TO.P,Module1,4D,NC*%
%TO.N,unconnected-(Module1-Pad4D)*%
X11303000Y16209000D03*
D14*
%TO.P,Module1,5A,NC*%
%TO.N,unconnected-(Module1-Pad5A)*%
X15033000Y23749000D03*
D15*
%TO.P,Module1,5B,NC*%
%TO.N,unconnected-(Module1-Pad5B)*%
X12573000Y26209000D03*
D14*
%TO.P,Module1,5C,NC*%
%TO.N,unconnected-(Module1-Pad5C)*%
X5033000Y23749000D03*
D15*
%TO.P,Module1,5D,GND*%
%TO.N,GND*%
X12573000Y16209000D03*
%TD*%
D16*
%TO.P,J3,1,Pin_1*%
%TO.N,VCC*%
X1778000Y23876000D03*
D17*
%TO.P,J3,2,Pin_2*%
%TO.N,GND*%
X1778000Y21336000D03*
%TO.P,J3,3,Pin_3*%
%TO.N,/MOSI*%
X1778000Y18796000D03*
%TO.P,J3,4,Pin_4*%
%TO.N,/SCK*%
X1778000Y16256000D03*
%TO.P,J3,5,Pin_5*%
%TO.N,/MISO*%
X1778000Y13716000D03*
%TO.P,J3,6,Pin_6*%
%TO.N,/RSETB*%
X1778000Y11176000D03*
%TD*%
D18*
%TO.N,GND*%
X11578977Y20171023D03*
X12943781Y10146292D03*
X3683000Y20701000D03*
X12700000Y8382000D03*
X12192000Y18796000D03*
X19431000Y19177000D03*
X2413000Y25527000D03*
X18034000Y3810000D03*
X6350000Y23622000D03*
X4445000Y16256000D03*
X12700000Y7239000D03*
X11049000Y22352000D03*
%TO.N,/SS*%
X16256000Y19939000D03*
%TO.N,/D2*%
X10922814Y18232000D03*
X10922000Y19431000D03*
X9271000Y19812000D03*
%TO.N,/SCL*%
X16044911Y15070089D03*
X18542000Y13335000D03*
%TO.N,/SDA*%
X15346411Y14371589D03*
X19304000Y12065000D03*
%TO.N,/MOSI*%
X16282502Y22098000D03*
%TO.N,/SCK*%
X13716000Y19558000D03*
%TO.N,/MISO*%
X16964502Y23368000D03*
%TO.N,VCC*%
X4064001Y18668999D03*
%TO.N,/plusBAT*%
X14351000Y4826000D03*
X15621000Y6223000D03*
X12828000Y4700000D03*
X8763000Y3937000D03*
%TO.N,/CONFIG*%
X18229662Y12100500D03*
X16129000Y13716000D03*
%TO.N,/RSETB*%
X19059500Y23758500D03*
%TO.N,Net-(J6-Pad1)*%
X18796000Y25654000D03*
X17907000Y24384000D03*
%TO.N,Net-(J7-Pad1)*%
X6731000Y11176000D03*
%TO.N,/ANT*%
X5715000Y26416000D03*
%TD*%
D19*
%TO.N,GND*%
X5033000Y19939000D02*
X4253000Y19939000D01*
X4253000Y19939000D02*
X3683000Y20509000D01*
X3683000Y20509000D02*
X3683000Y20701000D01*
D20*
%TO.N,/SS*%
X15033000Y19939000D02*
X16256000Y19939000D01*
%TO.N,/D2*%
X10541000Y19812000D02*
X10922000Y19431000D01*
X10033000Y16209000D02*
X10033000Y17342186D01*
X10033000Y17342186D02*
X10922814Y18232000D01*
X9271000Y19812000D02*
X10541000Y19812000D01*
%TO.N,/SCL*%
X18542000Y13335000D02*
X16806911Y15070089D01*
X16806911Y15070089D02*
X16044911Y15070089D01*
%TO.N,/SDA*%
X16263411Y14470589D02*
X15445411Y14470589D01*
X16263411Y14470589D02*
X18034000Y12700000D01*
X15445411Y14470589D02*
X15346411Y14371589D01*
X19304000Y12065000D02*
X18669000Y12700000D01*
X18669000Y12700000D02*
X18034000Y12700000D01*
%TO.N,/MOSI*%
X9732178Y17946000D02*
X10645678Y18859500D01*
X10673678Y18831500D02*
X11170322Y18831500D01*
X10645678Y18859500D02*
X10673678Y18831500D01*
X2628000Y17946000D02*
X9732178Y17946000D01*
X12735500Y20695322D02*
X12735500Y20396678D01*
X13249178Y21209000D02*
X15033000Y21209000D01*
X16256000Y22098000D02*
X16282502Y22098000D01*
X11170322Y18831500D02*
X12735500Y20396678D01*
X12735500Y20695322D02*
X13249178Y21209000D01*
X16256000Y21952000D02*
X16256000Y22098000D01*
X1778000Y18796000D02*
X2628000Y17946000D01*
X15513000Y21209000D02*
X16256000Y21952000D01*
%TO.N,/SCK*%
X3810000Y14224000D02*
X13081000Y14224000D01*
X13716000Y19558000D02*
X14605000Y18669000D01*
X13081000Y14224000D02*
X15983000Y17126000D01*
X1778000Y16256000D02*
X3810000Y14224000D01*
X15983000Y17126000D02*
X15983000Y18069000D01*
X15983000Y18069000D02*
X15383000Y18669000D01*
%TO.N,/MISO*%
X16882002Y22346322D02*
X16882002Y17390002D01*
X15251500Y22697500D02*
X16530824Y22697500D01*
X16764000Y23368000D02*
X16964502Y23368000D01*
X16764000Y22733000D02*
X16764000Y23368000D01*
X16530824Y22697500D02*
X16629662Y22598662D01*
X13208000Y13716000D02*
X1778000Y13716000D01*
X16629662Y22598662D02*
X16764000Y22733000D01*
X16629662Y22598662D02*
X16882002Y22346322D01*
X16882002Y17390002D02*
X13208000Y13716000D01*
D21*
%TO.N,VCC*%
X3672768Y18668999D02*
X4064001Y18668999D01*
X2275767Y20066000D02*
X3672768Y18668999D01*
X1016000Y20066000D02*
X2275767Y20066000D01*
D19*
X5033000Y18669000D02*
X4064001Y18668999D01*
D21*
X1016000Y20066000D02*
X528000Y20554000D01*
X528000Y20554000D02*
X528000Y22626000D01*
X528000Y22626000D02*
X1778000Y23876000D01*
D19*
%TO.N,/plusBAT*%
X8763000Y3937000D02*
X12065000Y3937000D01*
D20*
X14351000Y4953000D02*
X14351000Y4826000D01*
X15621000Y6223000D02*
X14351000Y4953000D01*
D19*
X12065000Y3937000D02*
X12828000Y4700000D01*
D20*
%TO.N,/CONFIG*%
X16129000Y13716000D02*
X17744500Y12100500D01*
X17744500Y12100500D02*
X18229662Y12100500D01*
%TO.N,/RSETB*%
X3556000Y12954000D02*
X13081000Y12954000D01*
X1778000Y11176000D02*
X3556000Y12954000D01*
X17399000Y22098000D02*
X19059500Y23758500D01*
X13081000Y12954000D02*
X17399000Y17272000D01*
X17399000Y17272000D02*
X17399000Y22098000D01*
%TO.N,Net-(J6-Pad1)*%
X18796000Y25654000D02*
X17907000Y24765000D01*
X17907000Y24765000D02*
X17907000Y24384000D01*
%TO.N,Net-(J7-Pad1)*%
X6731000Y11176000D02*
X6731000Y8382000D01*
%TO.N,/ANT*%
X5922000Y26209000D02*
X5715000Y26416000D01*
X7493000Y26209000D02*
X5922000Y26209000D01*
%TD*%
%TA.AperFunction,Conductor*%
%TO.N,GND*%
G36*
X21532087Y27030651D02*
G01*
X21578900Y26977275D01*
X21590601Y26924848D01*
X21666900Y10901923D01*
X21716397Y507600D01*
X21696719Y439385D01*
X21643285Y392637D01*
X21590398Y381000D01*
X507000Y381000D01*
X438879Y401002D01*
X392386Y454658D01*
X381000Y507000D01*
X381000Y2427738D01*
X722520Y2427738D01*
X723036Y2421594D01*
X734089Y2289973D01*
X739759Y2222447D01*
X796544Y2024414D01*
X799359Y2018937D01*
X799360Y2018934D01*
X820247Y1978293D01*
X890712Y1841182D01*
X1018677Y1679730D01*
X1175564Y1546209D01*
X1355398Y1445703D01*
X1450238Y1414887D01*
X1545471Y1383944D01*
X1545475Y1383943D01*
X1551329Y1382041D01*
X1755894Y1357649D01*
X1762029Y1358121D01*
X1762031Y1358121D01*
X1818039Y1362431D01*
X1961300Y1373454D01*
X1967230Y1375110D01*
X1967232Y1375110D01*
X2153797Y1427200D01*
X2153796Y1427200D01*
X2159725Y1428855D01*
X2165214Y1431628D01*
X2165220Y1431630D01*
X2338116Y1518967D01*
X2343610Y1521742D01*
X2348719Y1525733D01*
X2501101Y1644787D01*
X2505951Y1648576D01*
X2605611Y1764034D01*
X18480257Y1764034D01*
X18510565Y1629554D01*
X18513645Y1619725D01*
X18593770Y1422397D01*
X18598413Y1413206D01*
X18709694Y1231612D01*
X18715777Y1223301D01*
X18855213Y1062333D01*
X18862580Y1055117D01*
X19026434Y919084D01*
X19034881Y913169D01*
X19218756Y805721D01*
X19228042Y801271D01*
X19427001Y725297D01*
X19436899Y722421D01*
X19540250Y701394D01*
X19554299Y702590D01*
X19558000Y712935D01*
X19558000Y713483D01*
X20066000Y713483D01*
X20070064Y699641D01*
X20083478Y697607D01*
X20090184Y698466D01*
X20100262Y700608D01*
X20304255Y761809D01*
X20313842Y765567D01*
X20505095Y859261D01*
X20513945Y864536D01*
X20687328Y988208D01*
X20695200Y994861D01*
X20846052Y1145188D01*
X20852730Y1153035D01*
X20977003Y1325980D01*
X20982313Y1334817D01*
X21076670Y1525733D01*
X21080469Y1535328D01*
X21142377Y1739090D01*
X21144555Y1749163D01*
X21145986Y1760038D01*
X21143775Y1774222D01*
X21130617Y1778000D01*
X20084115Y1778000D01*
X20068876Y1773525D01*
X20067671Y1772135D01*
X20066000Y1764452D01*
X20066000Y713483D01*
X19558000Y713483D01*
X19558000Y1759885D01*
X19553525Y1775124D01*
X19552135Y1776329D01*
X19544452Y1778000D01*
X18495225Y1778000D01*
X18481694Y1774027D01*
X18480257Y1764034D01*
X2605611Y1764034D01*
X2614237Y1774027D01*
X2636540Y1799866D01*
X2636540Y1799867D01*
X2640564Y1804528D01*
X2661387Y1841182D01*
X2739276Y1978293D01*
X2742323Y1983656D01*
X2807351Y2179137D01*
X2822344Y2297817D01*
X18476389Y2297817D01*
X18477912Y2289393D01*
X18490292Y2286000D01*
X21130344Y2286000D01*
X21143875Y2289973D01*
X21145180Y2299053D01*
X21103214Y2466125D01*
X21099894Y2475876D01*
X21014972Y2671186D01*
X21010105Y2680261D01*
X20894426Y2859074D01*
X20888136Y2867243D01*
X20744806Y3024760D01*
X20737273Y3031785D01*
X20570139Y3163778D01*
X20561552Y3169483D01*
X20375117Y3272401D01*
X20365705Y3276631D01*
X20174031Y3344507D01*
X20116495Y3386101D01*
X20090579Y3452199D01*
X20104513Y3521815D01*
X20153872Y3572846D01*
X20182206Y3584638D01*
X20187790Y3586197D01*
X20187799Y3586200D01*
X20193725Y3587855D01*
X20199214Y3590628D01*
X20199220Y3590630D01*
X20345779Y3664663D01*
X20377610Y3680742D01*
X20539951Y3807576D01*
X20638125Y3921312D01*
X20670540Y3958866D01*
X20670540Y3958867D01*
X20674564Y3963528D01*
X20688870Y3988710D01*
X20743477Y4084837D01*
X20776323Y4142656D01*
X20841351Y4338137D01*
X20867171Y4542526D01*
X20867477Y4564414D01*
X20867534Y4568478D01*
X20867534Y4568482D01*
X20867583Y4572000D01*
X20847480Y4777030D01*
X20787935Y4974251D01*
X20691218Y5156151D01*
X20587939Y5282783D01*
X20564906Y5311025D01*
X20564903Y5311028D01*
X20561011Y5315800D01*
X20554173Y5321457D01*
X20407025Y5443189D01*
X20407021Y5443191D01*
X20402275Y5447118D01*
X20221055Y5545103D01*
X20024254Y5606023D01*
X20018129Y5606667D01*
X20018128Y5606667D01*
X19825498Y5626913D01*
X19825496Y5626913D01*
X19819369Y5627557D01*
X19732529Y5619654D01*
X19620342Y5609445D01*
X19620339Y5609444D01*
X19614203Y5608886D01*
X19416572Y5550720D01*
X19234002Y5455274D01*
X19229201Y5451414D01*
X19229198Y5451412D01*
X19218971Y5443189D01*
X19073447Y5326185D01*
X18941024Y5168370D01*
X18938056Y5162972D01*
X18938053Y5162967D01*
X18893012Y5081037D01*
X18841776Y4987838D01*
X18779484Y4791468D01*
X18778798Y4785351D01*
X18778797Y4785347D01*
X18765207Y4664186D01*
X18756520Y4586738D01*
X18759937Y4546051D01*
X18772536Y4396015D01*
X18773759Y4381447D01*
X18775458Y4375522D01*
X18820131Y4219730D01*
X18830544Y4183414D01*
X18833359Y4177937D01*
X18833360Y4177934D01*
X18894501Y4058967D01*
X18924712Y4000182D01*
X19052677Y3838730D01*
X19057370Y3834736D01*
X19057371Y3834735D01*
X19106644Y3792801D01*
X19209564Y3705209D01*
X19389398Y3604703D01*
X19454437Y3583571D01*
X19513042Y3543498D01*
X19540680Y3478102D01*
X19528574Y3408145D01*
X19480568Y3355838D01*
X19454646Y3343973D01*
X19288868Y3289788D01*
X19279359Y3285791D01*
X19090463Y3187458D01*
X19081738Y3181964D01*
X18911433Y3054095D01*
X18903726Y3047252D01*
X18756590Y2893283D01*
X18750104Y2885273D01*
X18630098Y2709351D01*
X18625000Y2700377D01*
X18535338Y2507217D01*
X18531775Y2497530D01*
X18476389Y2297817D01*
X2822344Y2297817D01*
X2833171Y2383526D01*
X2833583Y2413000D01*
X2813480Y2618030D01*
X2753935Y2815251D01*
X2657218Y2997151D01*
X2583859Y3087098D01*
X2530906Y3152025D01*
X2530903Y3152028D01*
X2527011Y3156800D01*
X2387274Y3272401D01*
X2373025Y3284189D01*
X2373021Y3284191D01*
X2368275Y3288118D01*
X2187055Y3386103D01*
X1990254Y3447023D01*
X1984129Y3447667D01*
X1984128Y3447667D01*
X1791498Y3467913D01*
X1791496Y3467913D01*
X1785369Y3468557D01*
X1698529Y3460654D01*
X1586342Y3450445D01*
X1586339Y3450444D01*
X1580203Y3449886D01*
X1382572Y3391720D01*
X1200002Y3296274D01*
X1195201Y3292414D01*
X1195198Y3292412D01*
X1057828Y3181964D01*
X1039447Y3167185D01*
X907024Y3009370D01*
X904056Y3003972D01*
X904053Y3003967D01*
X897315Y2991710D01*
X807776Y2828838D01*
X745484Y2632468D01*
X744798Y2626351D01*
X744797Y2626347D01*
X726826Y2466125D01*
X722520Y2427738D01*
X381000Y2427738D01*
X381000Y6166178D01*
X401002Y6234299D01*
X454658Y6280792D01*
X524932Y6290896D01*
X582565Y6267004D01*
X674351Y6198214D01*
X689946Y6189676D01*
X810394Y6144522D01*
X825649Y6140895D01*
X876514Y6135369D01*
X883328Y6135000D01*
X1258432Y6135000D01*
X1326553Y6114998D01*
X1373046Y6061342D01*
X1383150Y5991068D01*
X1353656Y5926488D01*
X1316812Y5897341D01*
X1200002Y5836274D01*
X1195201Y5832414D01*
X1195198Y5832412D01*
X1055259Y5719898D01*
X1039447Y5707185D01*
X907024Y5549370D01*
X904056Y5543972D01*
X904053Y5543967D01*
X810743Y5374235D01*
X807776Y5368838D01*
X745484Y5172468D01*
X744798Y5166351D01*
X744797Y5166347D01*
X725380Y4993235D01*
X722520Y4967738D01*
X723036Y4961594D01*
X735460Y4813646D01*
X739759Y4762447D01*
X741458Y4756522D01*
X794369Y4572000D01*
X796544Y4564414D01*
X799359Y4558937D01*
X799360Y4558934D01*
X875597Y4410593D01*
X890712Y4381182D01*
X1018677Y4219730D01*
X1023370Y4215736D01*
X1023371Y4215735D01*
X1102362Y4148509D01*
X1175564Y4086209D01*
X1355398Y3985703D01*
X1437994Y3958866D01*
X1545471Y3923944D01*
X1545475Y3923943D01*
X1551329Y3922041D01*
X1755894Y3897649D01*
X1762029Y3898121D01*
X1762031Y3898121D01*
X1818039Y3902431D01*
X1961300Y3913454D01*
X1967230Y3915110D01*
X1967232Y3915110D01*
X2067756Y3943177D01*
X8257391Y3943177D01*
X8258555Y3934275D01*
X8258555Y3934272D01*
X8261339Y3912982D01*
X8275980Y3801021D01*
X8333720Y3669797D01*
X8339497Y3662924D01*
X8339498Y3662923D01*
X8415317Y3572725D01*
X8425970Y3560052D01*
X8433447Y3555075D01*
X8536465Y3486500D01*
X8545313Y3480610D01*
X8682157Y3437858D01*
X8691129Y3437694D01*
X8691132Y3437693D01*
X8756463Y3436496D01*
X8825499Y3435230D01*
X8834533Y3437693D01*
X8955155Y3470578D01*
X8955158Y3470579D01*
X8963817Y3472940D01*
X8969546Y3476458D01*
X9018042Y3486500D01*
X12030780Y3486500D01*
X12045589Y3485627D01*
X12079310Y3481636D01*
X12088574Y3483328D01*
X12088575Y3483328D01*
X12137001Y3492172D01*
X12140904Y3492822D01*
X12189645Y3500150D01*
X12189646Y3500150D01*
X12198962Y3501551D01*
X12205475Y3504679D01*
X12212573Y3505975D01*
X12264647Y3533025D01*
X12268137Y3534768D01*
X12321079Y3560191D01*
X12326365Y3565077D01*
X12326413Y3565110D01*
X12332788Y3568421D01*
X12337828Y3572725D01*
X12375055Y3609952D01*
X12378621Y3613382D01*
X12413641Y3645754D01*
X12420556Y3652146D01*
X12424249Y3658505D01*
X12429766Y3664663D01*
X12966968Y4201865D01*
X13012634Y4228363D01*
X13011919Y4230015D01*
X13020153Y4233578D01*
X13028817Y4235940D01*
X13036467Y4240637D01*
X13036469Y4240638D01*
X13079789Y4267237D01*
X13150991Y4310955D01*
X13247200Y4417246D01*
X13309710Y4546267D01*
X13333496Y4687646D01*
X13333647Y4700000D01*
X13322616Y4777030D01*
X13314718Y4832177D01*
X13845391Y4832177D01*
X13846555Y4823275D01*
X13846555Y4823272D01*
X13852602Y4777030D01*
X13863980Y4690021D01*
X13867597Y4681801D01*
X13915911Y4572000D01*
X13921720Y4558797D01*
X13927497Y4551924D01*
X13927498Y4551923D01*
X13939045Y4538186D01*
X14013970Y4449052D01*
X14021447Y4444075D01*
X14124432Y4375522D01*
X14133313Y4369610D01*
X14270157Y4326858D01*
X14279129Y4326694D01*
X14279132Y4326693D01*
X14344463Y4325496D01*
X14413499Y4324230D01*
X14422533Y4326693D01*
X14543158Y4359579D01*
X14543160Y4359580D01*
X14551817Y4361940D01*
X14673991Y4436955D01*
X14770200Y4543246D01*
X14832710Y4672267D01*
X14856496Y4813646D01*
X14856647Y4826000D01*
X14839566Y4945270D01*
X14849708Y5015537D01*
X14875198Y5052227D01*
X15185937Y5362965D01*
X15508845Y5685873D01*
X15571157Y5719898D01*
X15600249Y5722756D01*
X15635688Y5722107D01*
X15683499Y5721230D01*
X15692163Y5723592D01*
X15813158Y5756579D01*
X15813160Y5756580D01*
X15821817Y5758940D01*
X15943991Y5833955D01*
X16040200Y5940246D01*
X16096597Y6056649D01*
X16098795Y6061186D01*
X16098795Y6061187D01*
X16102710Y6069267D01*
X16126496Y6210646D01*
X16126572Y6216864D01*
X16126588Y6218141D01*
X16126588Y6218146D01*
X16126647Y6223000D01*
X16116924Y6290896D01*
X16107596Y6356032D01*
X16107595Y6356035D01*
X16106323Y6364918D01*
X16046984Y6495428D01*
X16021164Y6525394D01*
X15959260Y6597237D01*
X15959257Y6597240D01*
X15953400Y6604037D01*
X15833095Y6682015D01*
X15695739Y6723093D01*
X15686763Y6723148D01*
X15686762Y6723148D01*
X15626555Y6723516D01*
X15552376Y6723969D01*
X15414529Y6684572D01*
X15293280Y6608070D01*
X15198377Y6500612D01*
X15137447Y6370837D01*
X15128210Y6311510D01*
X15117419Y6242202D01*
X15115391Y6229177D01*
X15117179Y6215507D01*
X15117383Y6213948D01*
X15106384Y6143808D01*
X15081542Y6108513D01*
X14330134Y5357105D01*
X14275664Y5325051D01*
X14226589Y5311025D01*
X14144529Y5287572D01*
X14023280Y5211070D01*
X14017338Y5204342D01*
X14017337Y5204341D01*
X14012180Y5198502D01*
X13928377Y5103612D01*
X13867447Y4973837D01*
X13862999Y4945268D01*
X13846908Y4841918D01*
X13845391Y4832177D01*
X13314718Y4832177D01*
X13314596Y4833032D01*
X13314595Y4833035D01*
X13313323Y4841918D01*
X13305736Y4858606D01*
X13276218Y4923526D01*
X13253984Y4972428D01*
X13216839Y5015537D01*
X13166260Y5074237D01*
X13166257Y5074240D01*
X13160400Y5081037D01*
X13040095Y5159015D01*
X12902739Y5200093D01*
X12893763Y5200148D01*
X12893762Y5200148D01*
X12833555Y5200516D01*
X12759376Y5200969D01*
X12621529Y5161572D01*
X12500280Y5085070D01*
X12405377Y4977612D01*
X12395468Y4956506D01*
X12358872Y4878561D01*
X12333912Y4843015D01*
X11915302Y4424405D01*
X11852990Y4390379D01*
X11826207Y4387500D01*
X9018192Y4387500D01*
X8975364Y4396916D01*
X8975095Y4396015D01*
X8837739Y4437093D01*
X8828763Y4437148D01*
X8828762Y4437148D01*
X8768555Y4437516D01*
X8694376Y4437969D01*
X8556529Y4398572D01*
X8435280Y4322070D01*
X8429338Y4315342D01*
X8429337Y4315341D01*
X8421316Y4306259D01*
X8340377Y4214612D01*
X8279447Y4084837D01*
X8278066Y4075965D01*
X8259834Y3958866D01*
X8257391Y3943177D01*
X2067756Y3943177D01*
X2123948Y3958866D01*
X2159725Y3968855D01*
X2165214Y3971628D01*
X2165220Y3971630D01*
X2338116Y4058967D01*
X2343610Y4061742D01*
X2373171Y4084837D01*
X2501101Y4184787D01*
X2505951Y4188576D01*
X2521411Y4206486D01*
X2636540Y4339866D01*
X2636540Y4339867D01*
X2640564Y4344528D01*
X2650456Y4361940D01*
X2681874Y4417246D01*
X2742323Y4523656D01*
X2807351Y4719137D01*
X2833171Y4923526D01*
X2833583Y4953000D01*
X2813480Y5158030D01*
X2753935Y5355251D01*
X2657218Y5537151D01*
X2535923Y5685873D01*
X2530906Y5692025D01*
X2530903Y5692028D01*
X2527011Y5696800D01*
X2509786Y5711050D01*
X2373025Y5824189D01*
X2373021Y5824191D01*
X2368275Y5828118D01*
X2240255Y5897338D01*
X2238726Y5898165D01*
X2188317Y5948160D01*
X2172940Y6017471D01*
X2197476Y6084093D01*
X2254136Y6126874D01*
X2298655Y6135001D01*
X2672669Y6135001D01*
X2679490Y6135371D01*
X2730352Y6140895D01*
X2745604Y6144521D01*
X2866054Y6189676D01*
X2881649Y6198214D01*
X2983724Y6274715D01*
X2996285Y6287276D01*
X3072786Y6389351D01*
X3081324Y6404946D01*
X3126478Y6525394D01*
X3130105Y6540649D01*
X3135631Y6591514D01*
X3136000Y6598328D01*
X3136000Y7126738D01*
X18756520Y7126738D01*
X18773759Y6921447D01*
X18830544Y6723414D01*
X18833359Y6717937D01*
X18833360Y6717934D01*
X18894829Y6598328D01*
X18924712Y6540182D01*
X19052677Y6378730D01*
X19057370Y6374736D01*
X19057371Y6374735D01*
X19059308Y6373087D01*
X19209564Y6245209D01*
X19214942Y6242203D01*
X19214944Y6242202D01*
X19299481Y6194956D01*
X19389398Y6144703D01*
X19480820Y6114998D01*
X19579471Y6082944D01*
X19579475Y6082943D01*
X19585329Y6081041D01*
X19789894Y6056649D01*
X19796029Y6057121D01*
X19796031Y6057121D01*
X19852039Y6061431D01*
X19995300Y6072454D01*
X20001230Y6074110D01*
X20001232Y6074110D01*
X20187797Y6126200D01*
X20187796Y6126200D01*
X20193725Y6127855D01*
X20199214Y6130628D01*
X20199220Y6130630D01*
X20372116Y6217967D01*
X20377610Y6220742D01*
X20386665Y6227816D01*
X20462770Y6287276D01*
X20539951Y6347576D01*
X20560030Y6370837D01*
X20670540Y6498866D01*
X20670540Y6498867D01*
X20674564Y6503528D01*
X20695387Y6540182D01*
X20728418Y6598328D01*
X20776323Y6682656D01*
X20841351Y6878137D01*
X20867171Y7082526D01*
X20867583Y7112000D01*
X20847480Y7317030D01*
X20787935Y7514251D01*
X20691218Y7696151D01*
X20617859Y7786098D01*
X20564906Y7851025D01*
X20564903Y7851028D01*
X20561011Y7855800D01*
X20543786Y7870050D01*
X20407025Y7983189D01*
X20407021Y7983191D01*
X20402275Y7987118D01*
X20221055Y8085103D01*
X20024254Y8146023D01*
X20018129Y8146667D01*
X20018128Y8146667D01*
X19825498Y8166913D01*
X19825496Y8166913D01*
X19819369Y8167557D01*
X19732529Y8159654D01*
X19620342Y8149445D01*
X19620339Y8149444D01*
X19614203Y8148886D01*
X19416572Y8090720D01*
X19234002Y7995274D01*
X19229201Y7991414D01*
X19229198Y7991412D01*
X19218971Y7983189D01*
X19073447Y7866185D01*
X18941024Y7708370D01*
X18938056Y7702972D01*
X18938053Y7702967D01*
X18931315Y7690710D01*
X18841776Y7527838D01*
X18779484Y7331468D01*
X18778798Y7325351D01*
X18778797Y7325347D01*
X18767080Y7220885D01*
X18756520Y7126738D01*
X3136000Y7126738D01*
X3136000Y7220885D01*
X3131525Y7236124D01*
X3130135Y7237329D01*
X3122452Y7239000D01*
X1650000Y7239000D01*
X1581879Y7259002D01*
X1535386Y7312658D01*
X1524000Y7365000D01*
X1524000Y7512252D01*
X5680500Y7512252D01*
X5692133Y7453769D01*
X5736448Y7387448D01*
X5802769Y7343133D01*
X5814938Y7340712D01*
X5814939Y7340712D01*
X5831887Y7337341D01*
X5861252Y7331500D01*
X7600748Y7331500D01*
X7630113Y7337341D01*
X7647061Y7340712D01*
X7647062Y7340712D01*
X7659231Y7343133D01*
X7725552Y7387448D01*
X7769867Y7453769D01*
X7781500Y7512252D01*
X15078500Y7512252D01*
X15090133Y7453769D01*
X15134448Y7387448D01*
X15200769Y7343133D01*
X15212938Y7340712D01*
X15212939Y7340712D01*
X15229887Y7337341D01*
X15259252Y7331500D01*
X16998748Y7331500D01*
X17028113Y7337341D01*
X17045061Y7340712D01*
X17045062Y7340712D01*
X17057231Y7343133D01*
X17123552Y7387448D01*
X17167867Y7453769D01*
X17179500Y7512252D01*
X17179500Y8782252D01*
X18761500Y8782252D01*
X18762707Y8776184D01*
X18766051Y8759375D01*
X18773133Y8723769D01*
X18817448Y8657448D01*
X18883769Y8613133D01*
X18895938Y8610712D01*
X18895939Y8610712D01*
X18936184Y8602707D01*
X18942252Y8601500D01*
X20681748Y8601500D01*
X20687816Y8602707D01*
X20728061Y8610712D01*
X20728062Y8610712D01*
X20740231Y8613133D01*
X20806552Y8657448D01*
X20850867Y8723769D01*
X20857950Y8759375D01*
X20861293Y8776184D01*
X20862500Y8782252D01*
X20862500Y10521748D01*
X20850867Y10580231D01*
X20806552Y10646552D01*
X20740231Y10690867D01*
X20728062Y10693288D01*
X20728061Y10693288D01*
X20687816Y10701293D01*
X20681748Y10702500D01*
X18942252Y10702500D01*
X18936184Y10701293D01*
X18895939Y10693288D01*
X18895938Y10693288D01*
X18883769Y10690867D01*
X18817448Y10646552D01*
X18773133Y10580231D01*
X18761500Y10521748D01*
X18761500Y8782252D01*
X17179500Y8782252D01*
X17179500Y9251748D01*
X17167867Y9310231D01*
X17123552Y9376552D01*
X17057231Y9420867D01*
X17045062Y9423288D01*
X17045061Y9423288D01*
X17004816Y9431293D01*
X16998748Y9432500D01*
X15259252Y9432500D01*
X15253184Y9431293D01*
X15212939Y9423288D01*
X15212938Y9423288D01*
X15200769Y9420867D01*
X15134448Y9376552D01*
X15090133Y9310231D01*
X15078500Y9251748D01*
X15078500Y7512252D01*
X7781500Y7512252D01*
X7781500Y9251748D01*
X7769867Y9310231D01*
X7725552Y9376552D01*
X7659231Y9420867D01*
X7647062Y9423288D01*
X7647061Y9423288D01*
X7606816Y9431293D01*
X7600748Y9432500D01*
X7157500Y9432500D01*
X7089379Y9452502D01*
X7042886Y9506158D01*
X7031500Y9558500D01*
X7031500Y10713551D01*
X7051502Y10781672D01*
X7064085Y10798106D01*
X7144176Y10886589D01*
X7144181Y10886596D01*
X7150200Y10893246D01*
X7212710Y11022267D01*
X7236496Y11163646D01*
X7236647Y11176000D01*
X7216323Y11317918D01*
X7156984Y11448428D01*
X7138598Y11469766D01*
X7069260Y11550237D01*
X7069257Y11550240D01*
X7063400Y11557037D01*
X6943095Y11635015D01*
X6805739Y11676093D01*
X6796763Y11676148D01*
X6796762Y11676148D01*
X6736555Y11676516D01*
X6662376Y11676969D01*
X6524529Y11637572D01*
X6403280Y11561070D01*
X6308377Y11453612D01*
X6247447Y11323837D01*
X6246066Y11314965D01*
X6227678Y11196863D01*
X6225391Y11182177D01*
X6226555Y11173275D01*
X6226555Y11173272D01*
X6227814Y11163646D01*
X6243980Y11040021D01*
X6301720Y10908797D01*
X6307497Y10901924D01*
X6307498Y10901923D01*
X6314792Y10893246D01*
X6388689Y10805335D01*
X6393970Y10799052D01*
X6393063Y10798290D01*
X6425934Y10745347D01*
X6430500Y10711735D01*
X6430500Y9558500D01*
X6410498Y9490379D01*
X6356842Y9443886D01*
X6304500Y9432500D01*
X5861252Y9432500D01*
X5855184Y9431293D01*
X5814939Y9423288D01*
X5814938Y9423288D01*
X5802769Y9420867D01*
X5736448Y9376552D01*
X5692133Y9310231D01*
X5680500Y9251748D01*
X5680500Y7512252D01*
X1524000Y7512252D01*
X1524000Y7765115D01*
X2032000Y7765115D01*
X2036475Y7749876D01*
X2037865Y7748671D01*
X2045548Y7747000D01*
X3117884Y7747000D01*
X3133123Y7751475D01*
X3134328Y7752865D01*
X3135999Y7760548D01*
X3135999Y8387669D01*
X3135629Y8394490D01*
X3130105Y8445352D01*
X3126479Y8460604D01*
X3081324Y8581054D01*
X3072786Y8596649D01*
X2996285Y8698724D01*
X2983724Y8711285D01*
X2881649Y8787786D01*
X2866054Y8796324D01*
X2745606Y8841478D01*
X2730351Y8845105D01*
X2679486Y8850631D01*
X2672672Y8851000D01*
X2050115Y8851000D01*
X2034876Y8846525D01*
X2033671Y8845135D01*
X2032000Y8837452D01*
X2032000Y7765115D01*
X1524000Y7765115D01*
X1524000Y8832884D01*
X1519525Y8848123D01*
X1518135Y8849328D01*
X1510452Y8850999D01*
X883331Y8850999D01*
X876510Y8850629D01*
X825648Y8845105D01*
X810396Y8841479D01*
X689946Y8796324D01*
X674351Y8787786D01*
X582565Y8718996D01*
X516058Y8694148D01*
X446676Y8709201D01*
X396446Y8759375D01*
X381000Y8819822D01*
X381000Y19830417D01*
X401002Y19898538D01*
X454658Y19945031D01*
X524932Y19955135D01*
X589512Y19925641D01*
X596095Y19919512D01*
X770644Y19744963D01*
X770648Y19744960D01*
X777658Y19737950D01*
X786494Y19733448D01*
X786495Y19733447D01*
X797259Y19727962D01*
X814116Y19717632D01*
X831910Y19704704D01*
X852832Y19697906D01*
X871093Y19690342D01*
X881861Y19684855D01*
X881865Y19684854D01*
X890696Y19680354D01*
X900487Y19678803D01*
X909921Y19675738D01*
X909344Y19673961D01*
X962604Y19648710D01*
X1000128Y19588440D01*
X999111Y19517450D01*
X975260Y19473690D01*
X907024Y19392370D01*
X904056Y19386972D01*
X904053Y19386967D01*
X813904Y19222984D01*
X807776Y19211838D01*
X745484Y19015468D01*
X744798Y19009351D01*
X744797Y19009347D01*
X723207Y18816863D01*
X722520Y18810738D01*
X739759Y18605447D01*
X741458Y18599522D01*
X771868Y18493471D01*
X796544Y18407414D01*
X799359Y18401937D01*
X799360Y18401934D01*
X887897Y18229659D01*
X890712Y18224182D01*
X1018677Y18062730D01*
X1023370Y18058736D01*
X1023371Y18058735D01*
X1152021Y17949246D01*
X1175564Y17929209D01*
X1180942Y17926203D01*
X1180944Y17926202D01*
X1241535Y17892339D01*
X1355398Y17828703D01*
X1450238Y17797887D01*
X1545471Y17766944D01*
X1545475Y17766943D01*
X1551329Y17765041D01*
X1755894Y17740649D01*
X1762029Y17741121D01*
X1762031Y17741121D01*
X1818039Y17745431D01*
X1961300Y17756454D01*
X1967230Y17758110D01*
X1967232Y17758110D01*
X2142028Y17806914D01*
X2159725Y17811855D01*
X2196211Y17830285D01*
X2266031Y17843145D01*
X2331722Y17816216D01*
X2342115Y17806914D01*
X2378481Y17770548D01*
X2380237Y17768514D01*
X2382575Y17763731D01*
X2391104Y17755819D01*
X2391105Y17755818D01*
X2418477Y17730427D01*
X2421882Y17727147D01*
X2435277Y17713752D01*
X2439247Y17711028D01*
X2441895Y17708703D01*
X2449428Y17701715D01*
X2464646Y17687599D01*
X2475453Y17683287D01*
X2479438Y17680768D01*
X2490247Y17674996D01*
X2494552Y17673089D01*
X2504146Y17666507D01*
X2528099Y17660823D01*
X2528136Y17660814D01*
X2545732Y17655249D01*
X2568622Y17646117D01*
X2574915Y17645500D01*
X2577997Y17645500D01*
X2581067Y17645350D01*
X2581056Y17645134D01*
X2592431Y17643802D01*
X2601745Y17643347D01*
X2613066Y17640660D01*
X2624595Y17642229D01*
X2624596Y17642229D01*
X2640173Y17644349D01*
X2657164Y17645500D01*
X9641711Y17645500D01*
X9709832Y17625498D01*
X9756325Y17571842D01*
X9766429Y17501568D01*
X9758166Y17472830D01*
X9753508Y17466040D01*
X9750822Y17454721D01*
X9750821Y17454719D01*
X9747817Y17442059D01*
X9742252Y17424462D01*
X9736412Y17409824D01*
X9733117Y17401564D01*
X9732500Y17395271D01*
X9732500Y17392192D01*
X9732350Y17389119D01*
X9732134Y17389130D01*
X9730802Y17377755D01*
X9730346Y17368440D01*
X9727660Y17357120D01*
X9729229Y17345591D01*
X9729229Y17345590D01*
X9731349Y17330013D01*
X9732500Y17313022D01*
X9732500Y17284835D01*
X9712498Y17216714D01*
X9658842Y17170221D01*
X9619065Y17159500D01*
X9613252Y17159500D01*
X9607184Y17158293D01*
X9566939Y17150288D01*
X9566938Y17150288D01*
X9554769Y17147867D01*
X9488448Y17103552D01*
X9484202Y17097197D01*
X9424783Y17064751D01*
X9353968Y17069816D01*
X9312126Y17096707D01*
X9307552Y17103552D01*
X9241231Y17147867D01*
X9229062Y17150288D01*
X9229061Y17150288D01*
X9188816Y17158293D01*
X9182748Y17159500D01*
X8343252Y17159500D01*
X8337184Y17158293D01*
X8296939Y17150288D01*
X8296938Y17150288D01*
X8284769Y17147867D01*
X8218448Y17103552D01*
X8214202Y17097197D01*
X8154783Y17064751D01*
X8083968Y17069816D01*
X8042126Y17096707D01*
X8037552Y17103552D01*
X7971231Y17147867D01*
X7959062Y17150288D01*
X7959061Y17150288D01*
X7918816Y17158293D01*
X7912748Y17159500D01*
X7073252Y17159500D01*
X7067184Y17158293D01*
X7026939Y17150288D01*
X7026938Y17150288D01*
X7014769Y17147867D01*
X6948448Y17103552D01*
X6904133Y17037231D01*
X6901712Y17025062D01*
X6901712Y17025061D01*
X6895738Y16995025D01*
X6892500Y16978748D01*
X6892500Y15439252D01*
X6904133Y15380769D01*
X6948448Y15314448D01*
X7014769Y15270133D01*
X7026938Y15267712D01*
X7026939Y15267712D01*
X7067184Y15259707D01*
X7073252Y15258500D01*
X7912748Y15258500D01*
X7918816Y15259707D01*
X7959061Y15267712D01*
X7959062Y15267712D01*
X7971231Y15270133D01*
X8037552Y15314448D01*
X8041798Y15320803D01*
X8101217Y15353249D01*
X8172032Y15348184D01*
X8213874Y15321293D01*
X8218448Y15314448D01*
X8284769Y15270133D01*
X8296938Y15267712D01*
X8296939Y15267712D01*
X8337184Y15259707D01*
X8343252Y15258500D01*
X9182748Y15258500D01*
X9188816Y15259707D01*
X9229061Y15267712D01*
X9229062Y15267712D01*
X9241231Y15270133D01*
X9307552Y15314448D01*
X9311798Y15320803D01*
X9371217Y15353249D01*
X9442032Y15348184D01*
X9483874Y15321293D01*
X9488448Y15314448D01*
X9554769Y15270133D01*
X9566938Y15267712D01*
X9566939Y15267712D01*
X9607184Y15259707D01*
X9613252Y15258500D01*
X10452748Y15258500D01*
X10458816Y15259707D01*
X10499061Y15267712D01*
X10499062Y15267712D01*
X10511231Y15270133D01*
X10577552Y15314448D01*
X10581798Y15320803D01*
X10641217Y15353249D01*
X10712032Y15348184D01*
X10753874Y15321293D01*
X10758448Y15314448D01*
X10824769Y15270133D01*
X10836938Y15267712D01*
X10836939Y15267712D01*
X10877184Y15259707D01*
X10883252Y15258500D01*
X11625354Y15258500D01*
X11693475Y15238498D01*
X11726180Y15208065D01*
X11804715Y15103276D01*
X11817276Y15090715D01*
X11919351Y15014214D01*
X11934946Y15005676D01*
X12055394Y14960522D01*
X12070649Y14956895D01*
X12121514Y14951369D01*
X12128328Y14951000D01*
X12300885Y14951000D01*
X12316124Y14955475D01*
X12317329Y14956865D01*
X12319000Y14964548D01*
X12319000Y16481115D01*
X12827000Y16481115D01*
X12831475Y16465876D01*
X12832865Y16464671D01*
X12840548Y16463000D01*
X13462884Y16463000D01*
X13478123Y16467475D01*
X13479328Y16468865D01*
X13480999Y16476548D01*
X13480999Y17003669D01*
X13480629Y17010490D01*
X13475105Y17061352D01*
X13471479Y17076604D01*
X13426324Y17197054D01*
X13417786Y17212649D01*
X13341285Y17314724D01*
X13328724Y17327285D01*
X13226649Y17403786D01*
X13211054Y17412324D01*
X13090606Y17457478D01*
X13075351Y17461105D01*
X13024486Y17466631D01*
X13017672Y17467000D01*
X12845115Y17467000D01*
X12829876Y17462525D01*
X12828671Y17461135D01*
X12827000Y17453452D01*
X12827000Y16481115D01*
X12319000Y16481115D01*
X12319000Y17448884D01*
X12314525Y17464123D01*
X12313135Y17465328D01*
X12305452Y17466999D01*
X12128331Y17466999D01*
X12121510Y17466629D01*
X12070648Y17461105D01*
X12055396Y17457479D01*
X11934946Y17412324D01*
X11919351Y17403786D01*
X11817276Y17327285D01*
X11804715Y17314724D01*
X11726180Y17209935D01*
X11669321Y17167420D01*
X11625354Y17159500D01*
X10883252Y17159500D01*
X10877184Y17158293D01*
X10836939Y17150288D01*
X10836938Y17150288D01*
X10824769Y17147867D01*
X10758448Y17103552D01*
X10754202Y17097197D01*
X10694783Y17064751D01*
X10623968Y17069816D01*
X10582126Y17096707D01*
X10577552Y17103552D01*
X10511231Y17147867D01*
X10505171Y17149072D01*
X10453250Y17190913D01*
X10430829Y17258277D01*
X10448387Y17327068D01*
X10467654Y17351869D01*
X10810657Y17694872D01*
X10872969Y17728898D01*
X10902061Y17731756D01*
X10939525Y17731070D01*
X10985313Y17730230D01*
X10993977Y17732592D01*
X11114972Y17765579D01*
X11114974Y17765580D01*
X11123631Y17767940D01*
X11245805Y17842955D01*
X11342014Y17949246D01*
X11395061Y18058735D01*
X11400609Y18070186D01*
X11400609Y18070187D01*
X11404524Y18078267D01*
X11428310Y18219646D01*
X11428461Y18232000D01*
X11415836Y18320158D01*
X11409410Y18365032D01*
X11409409Y18365035D01*
X11408137Y18373918D01*
X11361377Y18476762D01*
X11351391Y18547051D01*
X11375781Y18605178D01*
X11392230Y18626810D01*
X11403432Y18639639D01*
X12910952Y20147159D01*
X12912986Y20148915D01*
X12917769Y20151253D01*
X12951073Y20187155D01*
X12954353Y20190560D01*
X12967748Y20203955D01*
X12970472Y20207925D01*
X12972797Y20210573D01*
X12985992Y20224797D01*
X12985994Y20224800D01*
X12993901Y20233324D01*
X12998211Y20244128D01*
X13000733Y20248117D01*
X13006494Y20258905D01*
X13008411Y20263230D01*
X13014992Y20272824D01*
X13019802Y20293091D01*
X13020683Y20296805D01*
X13026248Y20314402D01*
X13032088Y20329040D01*
X13032089Y20329043D01*
X13035383Y20337300D01*
X13036000Y20343593D01*
X13036000Y20346672D01*
X13036150Y20349745D01*
X13036366Y20349734D01*
X13037698Y20361109D01*
X13038154Y20370424D01*
X13040840Y20381744D01*
X13037151Y20408851D01*
X13036000Y20425842D01*
X13036000Y20518660D01*
X13056002Y20586781D01*
X13072905Y20607756D01*
X13336746Y20871596D01*
X13399058Y20905621D01*
X13425841Y20908500D01*
X13957165Y20908500D01*
X14025286Y20888498D01*
X14071779Y20834842D01*
X14082500Y20795065D01*
X14082500Y20789252D01*
X14083707Y20783184D01*
X14090625Y20748407D01*
X14094133Y20730769D01*
X14138448Y20664448D01*
X14144803Y20660202D01*
X14177249Y20600783D01*
X14172184Y20529968D01*
X14145293Y20488126D01*
X14138448Y20483552D01*
X14094133Y20417231D01*
X14091712Y20405062D01*
X14091712Y20405061D01*
X14088814Y20390490D01*
X14082500Y20358748D01*
X14082500Y20140034D01*
X14062498Y20071913D01*
X14008842Y20025420D01*
X13938568Y20015316D01*
X13920398Y20019317D01*
X13870409Y20034267D01*
X13790739Y20058093D01*
X13781763Y20058148D01*
X13781762Y20058148D01*
X13721555Y20058516D01*
X13647376Y20058969D01*
X13509529Y20019572D01*
X13388280Y19943070D01*
X13382338Y19936342D01*
X13382337Y19936341D01*
X13377751Y19931148D01*
X13293377Y19835612D01*
X13232447Y19705837D01*
X13226525Y19667801D01*
X13214169Y19588440D01*
X13210391Y19564177D01*
X13211555Y19555275D01*
X13211555Y19555272D01*
X13216501Y19517450D01*
X13228980Y19422021D01*
X13232597Y19413801D01*
X13280944Y19303925D01*
X13286720Y19290797D01*
X13292497Y19283924D01*
X13292498Y19283923D01*
X13360320Y19203239D01*
X13378970Y19181052D01*
X13386447Y19176075D01*
X13455921Y19129829D01*
X13498313Y19101610D01*
X13635157Y19058858D01*
X13644129Y19058694D01*
X13644132Y19058693D01*
X13723491Y19057239D01*
X13742233Y19056895D01*
X13809975Y19035648D01*
X13829018Y19020011D01*
X14045595Y18803434D01*
X14079621Y18741122D01*
X14082500Y18714339D01*
X14082500Y18249252D01*
X14083707Y18243184D01*
X14090723Y18207914D01*
X14094133Y18190769D01*
X14101026Y18180453D01*
X14112545Y18163214D01*
X14138448Y18124448D01*
X14204769Y18080133D01*
X14216938Y18077712D01*
X14216939Y18077712D01*
X14254776Y18070186D01*
X14263252Y18068500D01*
X15506339Y18068500D01*
X15574460Y18048498D01*
X15595434Y18031595D01*
X15645595Y17981434D01*
X15679621Y17919122D01*
X15682500Y17892339D01*
X15682500Y17302662D01*
X15662498Y17234541D01*
X15645595Y17213567D01*
X14368914Y15936885D01*
X13689889Y15257860D01*
X13627577Y15223835D01*
X13556762Y15228899D01*
X13499926Y15271446D01*
X13475115Y15337966D01*
X13475531Y15360562D01*
X13480631Y15407512D01*
X13481000Y15414328D01*
X13481000Y15936885D01*
X13476525Y15952124D01*
X13475135Y15953329D01*
X13467452Y15955000D01*
X12845115Y15955000D01*
X12829876Y15950525D01*
X12828671Y15949135D01*
X12827000Y15941452D01*
X12827000Y14969116D01*
X12831475Y14953877D01*
X12832865Y14952672D01*
X12840548Y14951001D01*
X13017669Y14951001D01*
X13024490Y14951371D01*
X13071441Y14956470D01*
X13141323Y14943941D01*
X13193338Y14895619D01*
X13210971Y14826847D01*
X13188623Y14759459D01*
X13174141Y14742112D01*
X12993434Y14561405D01*
X12931122Y14527379D01*
X12904339Y14524500D01*
X3986661Y14524500D01*
X3918540Y14544502D01*
X3897566Y14561405D01*
X2769211Y15689760D01*
X2735185Y15752072D01*
X2740250Y15822887D01*
X2740425Y15823314D01*
X2742323Y15826656D01*
X2754059Y15861934D01*
X2784061Y15952124D01*
X2807351Y16022137D01*
X2833171Y16226526D01*
X2833583Y16256000D01*
X2813480Y16461030D01*
X2753935Y16658251D01*
X2657218Y16840151D01*
X2539232Y16984816D01*
X2530906Y16995025D01*
X2530903Y16995028D01*
X2527011Y16999800D01*
X2509786Y17014050D01*
X2373025Y17127189D01*
X2373021Y17127191D01*
X2368275Y17131118D01*
X2194540Y17225056D01*
X2192474Y17226173D01*
X2187055Y17229103D01*
X1990254Y17290023D01*
X1984129Y17290667D01*
X1984128Y17290667D01*
X1791498Y17310913D01*
X1791496Y17310913D01*
X1785369Y17311557D01*
X1698529Y17303654D01*
X1586342Y17293445D01*
X1586339Y17293444D01*
X1580203Y17292886D01*
X1382572Y17234720D01*
X1200002Y17139274D01*
X1195201Y17135414D01*
X1195198Y17135412D01*
X1059832Y17026575D01*
X1039447Y17010185D01*
X907024Y16852370D01*
X904056Y16846972D01*
X904053Y16846967D01*
X897315Y16834710D01*
X807776Y16671838D01*
X745484Y16475468D01*
X744798Y16469351D01*
X744797Y16469347D01*
X723207Y16276863D01*
X722520Y16270738D01*
X739759Y16065447D01*
X741458Y16059522D01*
X776624Y15936885D01*
X796544Y15867414D01*
X799359Y15861937D01*
X799360Y15861934D01*
X853545Y15756501D01*
X890712Y15684182D01*
X1018677Y15522730D01*
X1023370Y15518736D01*
X1023371Y15518735D01*
X1116764Y15439252D01*
X1175564Y15389209D01*
X1180942Y15386203D01*
X1180944Y15386202D01*
X1226822Y15360562D01*
X1355398Y15288703D01*
X1444638Y15259707D01*
X1545471Y15226944D01*
X1545475Y15226943D01*
X1551329Y15225041D01*
X1755894Y15200649D01*
X1762029Y15201121D01*
X1762031Y15201121D01*
X1818039Y15205431D01*
X1961300Y15216454D01*
X1967230Y15218110D01*
X1967232Y15218110D01*
X2109600Y15257860D01*
X2159725Y15271855D01*
X2196211Y15290285D01*
X2266031Y15303145D01*
X2331722Y15276216D01*
X2342115Y15266914D01*
X3377434Y14231595D01*
X3411460Y14169283D01*
X3406395Y14098468D01*
X3363848Y14041632D01*
X3297328Y14016821D01*
X3288339Y14016500D01*
X2878231Y14016500D01*
X2810110Y14036502D01*
X2763617Y14090158D01*
X2757608Y14106085D01*
X2755715Y14112355D01*
X2753935Y14118251D01*
X2657218Y14300151D01*
X2583859Y14390098D01*
X2530906Y14455025D01*
X2530903Y14455028D01*
X2527011Y14459800D01*
X2509786Y14474050D01*
X2373025Y14587189D01*
X2373021Y14587191D01*
X2368275Y14591118D01*
X2187055Y14689103D01*
X1990254Y14750023D01*
X1984129Y14750667D01*
X1984128Y14750667D01*
X1791498Y14770913D01*
X1791496Y14770913D01*
X1785369Y14771557D01*
X1698529Y14763654D01*
X1586342Y14753445D01*
X1586339Y14753444D01*
X1580203Y14752886D01*
X1382572Y14694720D01*
X1200002Y14599274D01*
X1195201Y14595414D01*
X1195198Y14595412D01*
X1044254Y14474050D01*
X1039447Y14470185D01*
X907024Y14312370D01*
X904056Y14306972D01*
X904053Y14306967D01*
X828361Y14169283D01*
X807776Y14131838D01*
X745484Y13935468D01*
X744798Y13929351D01*
X744797Y13929347D01*
X728073Y13780241D01*
X722520Y13730738D01*
X739759Y13525447D01*
X741458Y13519522D01*
X794369Y13335000D01*
X796544Y13327414D01*
X799359Y13321937D01*
X799360Y13321934D01*
X883254Y13158693D01*
X890712Y13144182D01*
X1018677Y12982730D01*
X1023370Y12978736D01*
X1023371Y12978735D01*
X1136719Y12882269D01*
X1175564Y12849209D01*
X1355398Y12748703D01*
X1450238Y12717887D01*
X1545471Y12686944D01*
X1545475Y12686943D01*
X1551329Y12685041D01*
X1755894Y12660649D01*
X1762029Y12661121D01*
X1762031Y12661121D01*
X1818039Y12665431D01*
X1961300Y12676454D01*
X1967230Y12678110D01*
X1967232Y12678110D01*
X2104844Y12716532D01*
X2159725Y12731855D01*
X2165214Y12734628D01*
X2165220Y12734630D01*
X2338116Y12821967D01*
X2343610Y12824742D01*
X2505951Y12951576D01*
X2587105Y13045594D01*
X2636540Y13102866D01*
X2636540Y13102867D01*
X2640564Y13107528D01*
X2661387Y13144182D01*
X2697065Y13206988D01*
X2742323Y13286656D01*
X2754295Y13322646D01*
X2756500Y13329273D01*
X2796982Y13387597D01*
X2862571Y13414776D01*
X2876058Y13415500D01*
X3287411Y13415500D01*
X3355532Y13395498D01*
X3402025Y13341842D01*
X3412129Y13271568D01*
X3382635Y13206988D01*
X3368581Y13195040D01*
X3369173Y13194387D01*
X3360555Y13186572D01*
X3350652Y13180468D01*
X3343611Y13171208D01*
X3334094Y13158693D01*
X3322893Y13145865D01*
X2827650Y12650621D01*
X2343734Y12166705D01*
X2281422Y12132680D01*
X2210607Y12137744D01*
X2194717Y12144961D01*
X2192480Y12146170D01*
X2192478Y12146171D01*
X2187055Y12149103D01*
X1990254Y12210023D01*
X1984129Y12210667D01*
X1984128Y12210667D01*
X1791498Y12230913D01*
X1791496Y12230913D01*
X1785369Y12231557D01*
X1698529Y12223654D01*
X1586342Y12213445D01*
X1586339Y12213444D01*
X1580203Y12212886D01*
X1382572Y12154720D01*
X1200002Y12059274D01*
X1195201Y12055414D01*
X1195198Y12055412D01*
X1060071Y11946767D01*
X1039447Y11930185D01*
X907024Y11772370D01*
X904056Y11766972D01*
X904053Y11766967D01*
X816996Y11608610D01*
X807776Y11591838D01*
X745484Y11395468D01*
X744798Y11389351D01*
X744797Y11389347D01*
X723207Y11196863D01*
X722520Y11190738D01*
X723036Y11184594D01*
X737346Y11014186D01*
X739759Y10985447D01*
X741458Y10979522D01*
X791237Y10805923D01*
X796544Y10787414D01*
X799359Y10781937D01*
X799360Y10781934D01*
X865395Y10653443D01*
X890712Y10604182D01*
X1018677Y10442730D01*
X1175564Y10309209D01*
X1355398Y10208703D01*
X1450238Y10177887D01*
X1545471Y10146944D01*
X1545475Y10146943D01*
X1551329Y10145041D01*
X1755894Y10120649D01*
X1762029Y10121121D01*
X1762031Y10121121D01*
X1818039Y10125431D01*
X1961300Y10136454D01*
X1967230Y10138110D01*
X1967232Y10138110D01*
X2153797Y10190200D01*
X2153796Y10190200D01*
X2159725Y10191855D01*
X2165214Y10194628D01*
X2165220Y10194630D01*
X2338116Y10281967D01*
X2343610Y10284742D01*
X2505951Y10411576D01*
X2640564Y10567528D01*
X2647781Y10580231D01*
X2689371Y10653443D01*
X2742323Y10746656D01*
X2807351Y10942137D01*
X2833171Y11146526D01*
X2833583Y11176000D01*
X2813480Y11381030D01*
X2753935Y11578251D01*
X2751044Y11583689D01*
X2751042Y11583693D01*
X2746083Y11593019D01*
X2731763Y11662556D01*
X2757310Y11728797D01*
X2768239Y11741268D01*
X3643566Y12616595D01*
X3705878Y12650621D01*
X3732661Y12653500D01*
X13028634Y12653500D01*
X13031307Y12653304D01*
X13036342Y12651575D01*
X13047964Y12652011D01*
X13047966Y12652011D01*
X13085255Y12653411D01*
X13089981Y12653500D01*
X13108948Y12653500D01*
X13113683Y12654382D01*
X13117209Y12654610D01*
X13120949Y12654751D01*
X13148208Y12655774D01*
X13158893Y12660364D01*
X13163493Y12661401D01*
X13175214Y12664962D01*
X13179617Y12666661D01*
X13191053Y12668791D01*
X13212041Y12681728D01*
X13228411Y12690231D01*
X13242888Y12696451D01*
X13242892Y12696453D01*
X13251063Y12699964D01*
X13255949Y12703978D01*
X13258134Y12706163D01*
X13260397Y12708215D01*
X13260542Y12708055D01*
X13269549Y12715175D01*
X13276444Y12721427D01*
X13286348Y12727532D01*
X13302916Y12749320D01*
X13314110Y12762139D01*
X14707207Y14155236D01*
X14769519Y14189262D01*
X14840334Y14184197D01*
X14897170Y14141650D01*
X14911630Y14116889D01*
X14917131Y14104386D01*
X15009381Y13994641D01*
X15016858Y13989664D01*
X15098275Y13935468D01*
X15128724Y13915199D01*
X15265568Y13872447D01*
X15274540Y13872283D01*
X15274543Y13872282D01*
X15339874Y13871085D01*
X15408910Y13869819D01*
X15469358Y13886299D01*
X15540340Y13884920D01*
X15599309Y13845383D01*
X15627541Y13780241D01*
X15626999Y13745353D01*
X15624772Y13731052D01*
X15624772Y13731046D01*
X15623391Y13722177D01*
X15641980Y13580021D01*
X15699720Y13448797D01*
X15705497Y13441924D01*
X15705498Y13441923D01*
X15736026Y13405606D01*
X15791970Y13339052D01*
X15911313Y13259610D01*
X15919888Y13256931D01*
X15927669Y13254500D01*
X16048157Y13216858D01*
X16057129Y13216694D01*
X16057132Y13216693D01*
X16136491Y13215239D01*
X16155233Y13214895D01*
X16222975Y13193648D01*
X16242018Y13178011D01*
X17494981Y11925048D01*
X17496737Y11923014D01*
X17499075Y11918231D01*
X17507604Y11910319D01*
X17507605Y11910318D01*
X17534977Y11884927D01*
X17538382Y11881647D01*
X17551777Y11868252D01*
X17555747Y11865528D01*
X17558395Y11863203D01*
X17572619Y11850008D01*
X17572622Y11850006D01*
X17581146Y11842099D01*
X17591950Y11837789D01*
X17595939Y11835267D01*
X17606727Y11829506D01*
X17611052Y11827589D01*
X17620646Y11821008D01*
X17631965Y11818322D01*
X17631967Y11818321D01*
X17644627Y11815317D01*
X17662224Y11809752D01*
X17676862Y11803912D01*
X17676865Y11803911D01*
X17685122Y11800617D01*
X17691415Y11800000D01*
X17694494Y11800000D01*
X17697567Y11799850D01*
X17697556Y11799634D01*
X17708931Y11798302D01*
X17718246Y11797846D01*
X17729566Y11795160D01*
X17741095Y11796729D01*
X17741096Y11796729D01*
X17753101Y11798363D01*
X17823296Y11787730D01*
X17866542Y11754589D01*
X17892632Y11723552D01*
X18011975Y11644110D01*
X18148819Y11601358D01*
X18157791Y11601194D01*
X18157794Y11601193D01*
X18223125Y11599996D01*
X18292161Y11598730D01*
X18301195Y11601193D01*
X18421820Y11634079D01*
X18421822Y11634080D01*
X18430479Y11636440D01*
X18552653Y11711455D01*
X18648862Y11817746D01*
X18652294Y11824829D01*
X18706538Y11869764D01*
X18777018Y11878307D01*
X18840929Y11847389D01*
X18865603Y11813161D01*
X18866362Y11813634D01*
X18871103Y11806017D01*
X18874720Y11797797D01*
X18880497Y11790924D01*
X18880498Y11790923D01*
X18947298Y11711455D01*
X18966970Y11688052D01*
X19086313Y11608610D01*
X19223157Y11565858D01*
X19232129Y11565694D01*
X19232132Y11565693D01*
X19297463Y11564496D01*
X19366499Y11563230D01*
X19375533Y11565693D01*
X19496158Y11598579D01*
X19496160Y11598580D01*
X19504817Y11600940D01*
X19626991Y11675955D01*
X19723200Y11782246D01*
X19764616Y11867728D01*
X19781795Y11903186D01*
X19781795Y11903187D01*
X19785710Y11911267D01*
X19809496Y12052646D01*
X19809647Y12065000D01*
X19797342Y12150925D01*
X19790596Y12198032D01*
X19790595Y12198035D01*
X19789323Y12206918D01*
X19729984Y12337428D01*
X19711598Y12358766D01*
X19642260Y12439237D01*
X19642257Y12439240D01*
X19636400Y12446037D01*
X19516095Y12524015D01*
X19378739Y12565093D01*
X19369763Y12565148D01*
X19369762Y12565148D01*
X19330987Y12565385D01*
X19279694Y12565698D01*
X19211698Y12586116D01*
X19191370Y12602601D01*
X18941696Y12852275D01*
X18907670Y12914587D01*
X18912735Y12985402D01*
X18937375Y13025924D01*
X18961200Y13052246D01*
X19012773Y13158693D01*
X19019795Y13173186D01*
X19019795Y13173187D01*
X19023710Y13181267D01*
X19047496Y13322646D01*
X19047647Y13335000D01*
X19032335Y13441923D01*
X19028596Y13468032D01*
X19028595Y13468035D01*
X19027323Y13476918D01*
X18967984Y13607428D01*
X18935357Y13645293D01*
X18880260Y13709237D01*
X18880257Y13709240D01*
X18874400Y13716037D01*
X18754095Y13794015D01*
X18616739Y13835093D01*
X18607763Y13835148D01*
X18607762Y13835148D01*
X18568987Y13835385D01*
X18517694Y13835698D01*
X18449698Y13856116D01*
X18429370Y13872601D01*
X17056430Y15245541D01*
X17054674Y15247575D01*
X17052336Y15252358D01*
X17036645Y15266914D01*
X17016434Y15285662D01*
X17013029Y15288942D01*
X16999634Y15302337D01*
X16995664Y15305061D01*
X16993016Y15307386D01*
X16978792Y15320581D01*
X16978789Y15320583D01*
X16970265Y15328490D01*
X16959461Y15332800D01*
X16955472Y15335322D01*
X16944684Y15341083D01*
X16940359Y15343000D01*
X16930765Y15349581D01*
X16919446Y15352267D01*
X16919444Y15352268D01*
X16906784Y15355272D01*
X16889187Y15360837D01*
X16874549Y15366677D01*
X16874546Y15366678D01*
X16866289Y15369972D01*
X16859996Y15370589D01*
X16856917Y15370589D01*
X16853844Y15370739D01*
X16853855Y15370955D01*
X16842480Y15372287D01*
X16833165Y15372743D01*
X16821845Y15375429D01*
X16810316Y15373860D01*
X16810315Y15373860D01*
X16794738Y15371740D01*
X16777747Y15370589D01*
X16504460Y15370589D01*
X16436339Y15390591D01*
X16409007Y15414341D01*
X16383170Y15444326D01*
X16377311Y15451126D01*
X16280947Y15513586D01*
X16234663Y15567422D01*
X16224832Y15637734D01*
X16254576Y15702200D01*
X16260384Y15708413D01*
X17574452Y17022481D01*
X17576486Y17024237D01*
X17581269Y17026575D01*
X17600724Y17047547D01*
X17614573Y17062477D01*
X17617853Y17065882D01*
X17631248Y17079277D01*
X17633972Y17083247D01*
X17636297Y17085895D01*
X17649492Y17100119D01*
X17649494Y17100122D01*
X17657401Y17108646D01*
X17661711Y17119450D01*
X17664233Y17123439D01*
X17669994Y17134227D01*
X17671911Y17138552D01*
X17678492Y17148146D01*
X17681187Y17159500D01*
X17684183Y17172127D01*
X17689748Y17189724D01*
X17695588Y17204362D01*
X17695589Y17204365D01*
X17698883Y17212622D01*
X17699500Y17218915D01*
X17699500Y17221994D01*
X17699650Y17225067D01*
X17699866Y17225056D01*
X17701198Y17236431D01*
X17701654Y17245746D01*
X17704340Y17257066D01*
X17700651Y17284173D01*
X17699500Y17301164D01*
X17699500Y21921339D01*
X17719502Y21989460D01*
X17736405Y22010434D01*
X18947343Y23221372D01*
X19009655Y23255398D01*
X19038747Y23258256D01*
X19076211Y23257570D01*
X19121999Y23256730D01*
X19130663Y23259092D01*
X19251658Y23292079D01*
X19251660Y23292080D01*
X19260317Y23294440D01*
X19382491Y23369455D01*
X19400685Y23389555D01*
X19472678Y23469093D01*
X19478700Y23475746D01*
X19541210Y23604767D01*
X19564996Y23746146D01*
X19565147Y23758500D01*
X19549680Y23866502D01*
X19546096Y23891532D01*
X19546095Y23891535D01*
X19544823Y23900418D01*
X19537021Y23917579D01*
X19498814Y24001609D01*
X19485484Y24030928D01*
X19467098Y24052266D01*
X19397760Y24132737D01*
X19397757Y24132740D01*
X19391900Y24139537D01*
X19271595Y24217515D01*
X19134239Y24258593D01*
X19125263Y24258648D01*
X19125262Y24258648D01*
X19065055Y24259016D01*
X18990876Y24259469D01*
X18853029Y24220072D01*
X18731780Y24143570D01*
X18636877Y24036112D01*
X18575947Y23906337D01*
X18553891Y23764677D01*
X18555883Y23749446D01*
X18544884Y23679309D01*
X18520042Y23644014D01*
X17894031Y23018002D01*
X17344554Y22468525D01*
X17282242Y22434500D01*
X17211427Y22439564D01*
X17154591Y22482111D01*
X17139693Y22507878D01*
X17139548Y22508215D01*
X17139547Y22508216D01*
X17136038Y22516384D01*
X17132025Y22521271D01*
X17129830Y22523466D01*
X17127772Y22525736D01*
X17127934Y22525883D01*
X17120837Y22534861D01*
X17114573Y22541769D01*
X17108470Y22551670D01*
X17099212Y22558710D01*
X17093183Y22565359D01*
X17062243Y22629259D01*
X17063869Y22673586D01*
X17063883Y22673622D01*
X17064500Y22679915D01*
X17064500Y22682995D01*
X17064650Y22686067D01*
X17064866Y22686056D01*
X17066198Y22697431D01*
X17066653Y22706745D01*
X17069340Y22718066D01*
X17065651Y22745173D01*
X17064500Y22762164D01*
X17064500Y22780206D01*
X17084502Y22848327D01*
X17138158Y22894820D01*
X17155776Y22901197D01*
X17156658Y22901579D01*
X17165319Y22903940D01*
X17287493Y22978955D01*
X17383702Y23085246D01*
X17446212Y23214267D01*
X17469998Y23355646D01*
X17470149Y23368000D01*
X17459253Y23444083D01*
X17451098Y23501032D01*
X17451097Y23501035D01*
X17449825Y23509918D01*
X17390486Y23640428D01*
X17303525Y23741351D01*
X17302762Y23742237D01*
X17302759Y23742240D01*
X17296902Y23749037D01*
X17176597Y23827015D01*
X17039241Y23868093D01*
X17030265Y23868148D01*
X17030264Y23868148D01*
X16970057Y23868516D01*
X16895878Y23868969D01*
X16758031Y23829572D01*
X16636782Y23753070D01*
X16541879Y23645612D01*
X16480949Y23515837D01*
X16479569Y23506973D01*
X16479568Y23506970D01*
X16471144Y23452866D01*
X16469073Y23442465D01*
X16467412Y23435636D01*
X16464117Y23427378D01*
X16463500Y23421085D01*
X16463500Y23418005D01*
X16463350Y23414933D01*
X16463234Y23414939D01*
X16462935Y23408817D01*
X16459754Y23397832D01*
X16460719Y23386687D01*
X16460277Y23383196D01*
X16460275Y23383053D01*
X16458893Y23374177D01*
X16461943Y23350851D01*
X16462436Y23347084D01*
X16463500Y23330746D01*
X16463500Y23124000D01*
X16443498Y23055879D01*
X16389842Y23009386D01*
X16337500Y22998000D01*
X16021872Y22998000D01*
X15953751Y23018002D01*
X15907258Y23071658D01*
X15897154Y23141932D01*
X15924894Y23202672D01*
X15927552Y23204448D01*
X15971867Y23270769D01*
X15976576Y23294440D01*
X15982293Y23323184D01*
X15983500Y23329252D01*
X15983500Y24168748D01*
X15971867Y24227231D01*
X15952631Y24256020D01*
X15934443Y24283239D01*
X15927552Y24293552D01*
X15861231Y24337867D01*
X15849062Y24340288D01*
X15849061Y24340288D01*
X15808816Y24348293D01*
X15802748Y24349500D01*
X14263252Y24349500D01*
X14257184Y24348293D01*
X14216939Y24340288D01*
X14216938Y24340288D01*
X14204769Y24337867D01*
X14138448Y24293552D01*
X14131557Y24283239D01*
X14113370Y24256020D01*
X14094133Y24227231D01*
X14082500Y24168748D01*
X14082500Y23329252D01*
X14083707Y23323184D01*
X14089425Y23294440D01*
X14094133Y23270769D01*
X14138448Y23204448D01*
X14144803Y23200202D01*
X14177249Y23140783D01*
X14172184Y23069968D01*
X14145293Y23028126D01*
X14138448Y23023552D01*
X14094133Y22957231D01*
X14082500Y22898748D01*
X14082500Y22059252D01*
X14094133Y22000769D01*
X14138448Y21934448D01*
X14144803Y21930202D01*
X14177249Y21870783D01*
X14172184Y21799968D01*
X14145293Y21758126D01*
X14138448Y21753552D01*
X14094133Y21687231D01*
X14082500Y21628748D01*
X14082500Y21623006D01*
X14055976Y21557318D01*
X13998021Y21516308D01*
X13957165Y21509500D01*
X13301544Y21509500D01*
X13298871Y21509696D01*
X13293836Y21511425D01*
X13282214Y21510989D01*
X13282212Y21510989D01*
X13244922Y21509589D01*
X13240196Y21509500D01*
X13221230Y21509500D01*
X13216495Y21508619D01*
X13212968Y21508390D01*
X13208432Y21508220D01*
X13181969Y21507226D01*
X13171282Y21502634D01*
X13166670Y21501595D01*
X13154978Y21498043D01*
X13150561Y21496339D01*
X13139125Y21494209D01*
X13118139Y21481273D01*
X13101767Y21472769D01*
X13087290Y21466549D01*
X13087286Y21466547D01*
X13079115Y21463036D01*
X13074229Y21459022D01*
X13072044Y21456837D01*
X13069781Y21454785D01*
X13069636Y21454945D01*
X13060629Y21447825D01*
X13053734Y21441573D01*
X13043830Y21435468D01*
X13027262Y21413680D01*
X13016068Y21400861D01*
X12560048Y20944841D01*
X12558014Y20943085D01*
X12553231Y20940747D01*
X12545319Y20932218D01*
X12545318Y20932217D01*
X12519927Y20904845D01*
X12516647Y20901440D01*
X12503252Y20888045D01*
X12500528Y20884075D01*
X12498203Y20881427D01*
X12485008Y20867203D01*
X12485006Y20867200D01*
X12477099Y20858676D01*
X12472789Y20847872D01*
X12470267Y20843883D01*
X12464506Y20833095D01*
X12462589Y20828770D01*
X12456008Y20819176D01*
X12453322Y20807857D01*
X12453321Y20807855D01*
X12450317Y20795195D01*
X12444752Y20777598D01*
X12435617Y20754700D01*
X12435000Y20748407D01*
X12435000Y20745328D01*
X12434850Y20742255D01*
X12434634Y20742266D01*
X12433302Y20730891D01*
X12432846Y20721576D01*
X12430160Y20710256D01*
X12431729Y20698727D01*
X12431729Y20698726D01*
X12433849Y20683149D01*
X12435000Y20666158D01*
X12435000Y20573339D01*
X12414998Y20505218D01*
X12398095Y20484244D01*
X11560705Y19646854D01*
X11498393Y19612828D01*
X11427578Y19617893D01*
X11370742Y19660440D01*
X11356909Y19683799D01*
X11351702Y19695252D01*
X11351700Y19695255D01*
X11347984Y19703428D01*
X11312195Y19744963D01*
X11260260Y19805237D01*
X11260257Y19805240D01*
X11254400Y19812037D01*
X11134095Y19890015D01*
X10996739Y19931093D01*
X10987763Y19931148D01*
X10987762Y19931148D01*
X10948987Y19931385D01*
X10897694Y19931698D01*
X10829698Y19952116D01*
X10809370Y19968601D01*
X10790519Y19987452D01*
X10788763Y19989486D01*
X10786425Y19994269D01*
X10750523Y20027573D01*
X10747118Y20030853D01*
X10733723Y20044248D01*
X10729753Y20046972D01*
X10727105Y20049297D01*
X10712881Y20062492D01*
X10712878Y20062494D01*
X10704354Y20070401D01*
X10693550Y20074711D01*
X10689561Y20077233D01*
X10678773Y20082994D01*
X10674448Y20084911D01*
X10664854Y20091492D01*
X10653535Y20094178D01*
X10653533Y20094179D01*
X10640873Y20097183D01*
X10623276Y20102748D01*
X10608638Y20108588D01*
X10608635Y20108589D01*
X10600378Y20111883D01*
X10594085Y20112500D01*
X10591006Y20112500D01*
X10587933Y20112650D01*
X10587944Y20112866D01*
X10576569Y20114198D01*
X10567254Y20114654D01*
X10555934Y20117340D01*
X10544405Y20115771D01*
X10544404Y20115771D01*
X10528827Y20113651D01*
X10511836Y20112500D01*
X9730549Y20112500D01*
X9662428Y20132502D01*
X9635096Y20156252D01*
X9609259Y20186237D01*
X9603400Y20193037D01*
X9483095Y20271015D01*
X9345739Y20312093D01*
X9336763Y20312148D01*
X9336762Y20312148D01*
X9276555Y20312516D01*
X9202376Y20312969D01*
X9064529Y20273572D01*
X8943280Y20197070D01*
X8937338Y20190342D01*
X8937337Y20190341D01*
X8910349Y20159783D01*
X8848377Y20089612D01*
X8787447Y19959837D01*
X8784209Y19939037D01*
X8767297Y19830417D01*
X8765391Y19818177D01*
X8783980Y19676021D01*
X8787597Y19667801D01*
X8833193Y19564177D01*
X8841720Y19544797D01*
X8847497Y19537924D01*
X8847498Y19537923D01*
X8878026Y19501606D01*
X8933970Y19435052D01*
X9053313Y19355610D01*
X9190157Y19312858D01*
X9199129Y19312694D01*
X9199132Y19312693D01*
X9264463Y19311496D01*
X9333499Y19310230D01*
X9342533Y19312693D01*
X9463158Y19345579D01*
X9463160Y19345580D01*
X9471817Y19347940D01*
X9593991Y19422955D01*
X9604941Y19435052D01*
X9636623Y19470054D01*
X9697166Y19507136D01*
X9730039Y19511500D01*
X10296076Y19511500D01*
X10364197Y19491498D01*
X10410690Y19437842D01*
X10421012Y19401838D01*
X10434980Y19295021D01*
X10438597Y19286801D01*
X10466677Y19222984D01*
X10475805Y19152577D01*
X10447799Y19091162D01*
X10427197Y19066653D01*
X10419841Y19058634D01*
X9644612Y18283405D01*
X9582300Y18249379D01*
X9555517Y18246500D01*
X6109500Y18246500D01*
X6041379Y18266502D01*
X5994886Y18320158D01*
X5983500Y18372500D01*
X5983500Y18991354D01*
X6003502Y19059475D01*
X6033935Y19092180D01*
X6138724Y19170715D01*
X6151285Y19183276D01*
X6227786Y19285351D01*
X6236324Y19300946D01*
X6281478Y19421394D01*
X6285105Y19436649D01*
X6290631Y19487514D01*
X6291000Y19494328D01*
X6291000Y19666885D01*
X6286525Y19682124D01*
X6285135Y19683329D01*
X6277452Y19685000D01*
X3793116Y19685000D01*
X3777877Y19680525D01*
X3776672Y19679135D01*
X3775001Y19671452D01*
X3775001Y19494331D01*
X3775370Y19487512D01*
X3779960Y19445259D01*
X3767431Y19375377D01*
X3719110Y19323362D01*
X3650338Y19305728D01*
X3582950Y19328075D01*
X3565602Y19342558D01*
X2724455Y20183705D01*
X2709488Y20211115D01*
X3775000Y20211115D01*
X3779475Y20195876D01*
X3780865Y20194671D01*
X3788548Y20193000D01*
X6272884Y20193000D01*
X6288123Y20197475D01*
X6289328Y20198865D01*
X6290999Y20206548D01*
X6290999Y20383669D01*
X6290629Y20390490D01*
X6285105Y20441352D01*
X6281479Y20456604D01*
X6236324Y20577054D01*
X6227786Y20592649D01*
X6151285Y20694724D01*
X6138724Y20707285D01*
X6033935Y20785820D01*
X5991420Y20842679D01*
X5983500Y20886646D01*
X5983500Y21628748D01*
X5971867Y21687231D01*
X5927552Y21753552D01*
X5921197Y21757798D01*
X5888751Y21817217D01*
X5893816Y21888032D01*
X5920707Y21929874D01*
X5927552Y21934448D01*
X5971867Y22000769D01*
X5983500Y22059252D01*
X5983500Y22898748D01*
X5971867Y22957231D01*
X5927552Y23023552D01*
X5921197Y23027798D01*
X5888751Y23087217D01*
X5893816Y23158032D01*
X5920707Y23199874D01*
X5927552Y23204448D01*
X5971867Y23270769D01*
X5976576Y23294440D01*
X5982293Y23323184D01*
X5983500Y23329252D01*
X5983500Y24168748D01*
X5971867Y24227231D01*
X5952631Y24256020D01*
X5934443Y24283239D01*
X5927552Y24293552D01*
X5861231Y24337867D01*
X5849062Y24340288D01*
X5849061Y24340288D01*
X5808816Y24348293D01*
X5802748Y24349500D01*
X4263252Y24349500D01*
X4257184Y24348293D01*
X4216939Y24340288D01*
X4216938Y24340288D01*
X4204769Y24337867D01*
X4138448Y24293552D01*
X4131557Y24283239D01*
X4113370Y24256020D01*
X4094133Y24227231D01*
X4082500Y24168748D01*
X4082500Y23329252D01*
X4083707Y23323184D01*
X4089425Y23294440D01*
X4094133Y23270769D01*
X4138448Y23204448D01*
X4144803Y23200202D01*
X4177249Y23140783D01*
X4172184Y23069968D01*
X4145293Y23028126D01*
X4138448Y23023552D01*
X4094133Y22957231D01*
X4082500Y22898748D01*
X4082500Y22059252D01*
X4094133Y22000769D01*
X4138448Y21934448D01*
X4144803Y21930202D01*
X4177249Y21870783D01*
X4172184Y21799968D01*
X4145293Y21758126D01*
X4138448Y21753552D01*
X4094133Y21687231D01*
X4082500Y21628748D01*
X4082500Y20886646D01*
X4062498Y20818525D01*
X4032065Y20785820D01*
X3927276Y20707285D01*
X3914715Y20694724D01*
X3838214Y20592649D01*
X3829676Y20577054D01*
X3784522Y20456606D01*
X3780895Y20441351D01*
X3775369Y20390486D01*
X3775000Y20383672D01*
X3775000Y20211115D01*
X2709488Y20211115D01*
X2690429Y20246017D01*
X2695494Y20316832D01*
X2724609Y20362050D01*
X2812057Y20449195D01*
X2818730Y20457035D01*
X2943003Y20629980D01*
X2948313Y20638817D01*
X3042670Y20829733D01*
X3046469Y20839328D01*
X3108377Y21043090D01*
X3110555Y21053163D01*
X3111986Y21064038D01*
X3109775Y21078222D01*
X3096617Y21082000D01*
X1650000Y21082000D01*
X1581879Y21102002D01*
X1535386Y21155658D01*
X1524000Y21208000D01*
X1524000Y21464000D01*
X1544002Y21532121D01*
X1597658Y21578614D01*
X1650000Y21590000D01*
X3096344Y21590000D01*
X3109875Y21593973D01*
X3111180Y21603053D01*
X3069214Y21770125D01*
X3065894Y21779876D01*
X2980972Y21975186D01*
X2976105Y21984261D01*
X2860426Y22163074D01*
X2854136Y22171243D01*
X2710806Y22328760D01*
X2703273Y22335785D01*
X2536139Y22467778D01*
X2527552Y22473483D01*
X2341117Y22576401D01*
X2331705Y22580631D01*
X2331435Y22580727D01*
X2331341Y22580795D01*
X2326989Y22582751D01*
X2327393Y22583649D01*
X2273899Y22622321D01*
X2247983Y22688419D01*
X2261917Y22758035D01*
X2311276Y22809066D01*
X2373495Y22825500D01*
X2647748Y22825500D01*
X2653816Y22826707D01*
X2694061Y22834712D01*
X2694062Y22834712D01*
X2706231Y22837133D01*
X2772552Y22881448D01*
X2816867Y22947769D01*
X2828500Y23006252D01*
X2828500Y24390177D01*
X17401391Y24390177D01*
X17402555Y24381275D01*
X17402555Y24381272D01*
X17403814Y24371646D01*
X17419980Y24248021D01*
X17477720Y24116797D01*
X17483497Y24109924D01*
X17483498Y24109923D01*
X17549900Y24030928D01*
X17569970Y24007052D01*
X17689313Y23927610D01*
X17826157Y23884858D01*
X17835129Y23884694D01*
X17835132Y23884693D01*
X17900463Y23883496D01*
X17969499Y23882230D01*
X17978533Y23884693D01*
X18099158Y23917579D01*
X18099160Y23917580D01*
X18107817Y23919940D01*
X18229991Y23994955D01*
X18326200Y24101246D01*
X18361844Y24174816D01*
X18384795Y24222186D01*
X18384795Y24222187D01*
X18388710Y24230267D01*
X18412496Y24371646D01*
X18412647Y24384000D01*
X18392323Y24525918D01*
X18388610Y24534084D01*
X18388609Y24534088D01*
X18334877Y24652266D01*
X18324891Y24722557D01*
X18354492Y24787089D01*
X18360483Y24793512D01*
X18683843Y25116872D01*
X18746155Y25150898D01*
X18775247Y25153756D01*
X18812711Y25153070D01*
X18858499Y25152230D01*
X18867163Y25154592D01*
X18988158Y25187579D01*
X18988160Y25187580D01*
X18996817Y25189940D01*
X19118991Y25264955D01*
X19163790Y25314448D01*
X19209178Y25364593D01*
X19215200Y25371246D01*
X19277710Y25500267D01*
X19301496Y25641646D01*
X19301647Y25654000D01*
X19281323Y25795918D01*
X19221984Y25926428D01*
X19195701Y25956931D01*
X19134260Y26028237D01*
X19134257Y26028240D01*
X19128400Y26035037D01*
X19008095Y26113015D01*
X18870739Y26154093D01*
X18861763Y26154148D01*
X18861762Y26154148D01*
X18801555Y26154516D01*
X18727376Y26154969D01*
X18589529Y26115572D01*
X18468280Y26039070D01*
X18373377Y25931612D01*
X18312447Y25801837D01*
X18290391Y25660177D01*
X18292179Y25646507D01*
X18292383Y25644948D01*
X18281384Y25574808D01*
X18256542Y25539513D01*
X17731548Y25014519D01*
X17729514Y25012763D01*
X17724731Y25010425D01*
X17716819Y25001896D01*
X17716818Y25001895D01*
X17691427Y24974523D01*
X17688147Y24971118D01*
X17674752Y24957723D01*
X17672028Y24953753D01*
X17669703Y24951105D01*
X17656508Y24936881D01*
X17656506Y24936878D01*
X17648599Y24928354D01*
X17644289Y24917550D01*
X17641767Y24913561D01*
X17636006Y24902773D01*
X17634089Y24898448D01*
X17627508Y24888854D01*
X17624822Y24877535D01*
X17624821Y24877533D01*
X17621817Y24864873D01*
X17616252Y24847276D01*
X17607117Y24824378D01*
X17606810Y24821243D01*
X17576296Y24771705D01*
X17579280Y24769070D01*
X17484377Y24661612D01*
X17423447Y24531837D01*
X17401391Y24390177D01*
X2828500Y24390177D01*
X2828500Y24745748D01*
X2816867Y24804231D01*
X2772552Y24870552D01*
X2706231Y24914867D01*
X2694062Y24917288D01*
X2694061Y24917288D01*
X2653816Y24925293D01*
X2647748Y24926500D01*
X908252Y24926500D01*
X902184Y24925293D01*
X861939Y24917288D01*
X861938Y24917288D01*
X849769Y24914867D01*
X783448Y24870552D01*
X739133Y24804231D01*
X727500Y24745748D01*
X727500Y23444083D01*
X707498Y23375962D01*
X690595Y23354988D01*
X596095Y23260488D01*
X533783Y23226462D01*
X462968Y23231527D01*
X406132Y23274074D01*
X381321Y23340594D01*
X381000Y23349583D01*
X381000Y26798752D01*
X401002Y26866873D01*
X454658Y26913366D01*
X506246Y26924750D01*
X870490Y26926931D01*
X5241416Y26953104D01*
X5309655Y26933510D01*
X5356468Y26880134D01*
X5366993Y26809921D01*
X5336612Y26743699D01*
X5292377Y26693612D01*
X5231447Y26563837D01*
X5230066Y26554965D01*
X5212633Y26442998D01*
X5209391Y26422177D01*
X5210555Y26413275D01*
X5210555Y26413272D01*
X5218686Y26351099D01*
X5227980Y26280021D01*
X5285720Y26148797D01*
X5291497Y26141924D01*
X5291498Y26141923D01*
X5313635Y26115588D01*
X5377970Y26039052D01*
X5497313Y25959610D01*
X5634157Y25916858D01*
X5643129Y25916694D01*
X5643132Y25916693D01*
X5707118Y25915520D01*
X5777499Y25914230D01*
X5786162Y25916592D01*
X5795068Y25917701D01*
X5795461Y25914547D01*
X5845490Y25913574D01*
X5845719Y25914515D01*
X5849944Y25913487D01*
X5850764Y25913471D01*
X5852388Y25912892D01*
X5854367Y25912411D01*
X5862622Y25909117D01*
X5868915Y25908500D01*
X5871994Y25908500D01*
X5875067Y25908350D01*
X5875056Y25908134D01*
X5886431Y25906802D01*
X5895746Y25906346D01*
X5907066Y25903660D01*
X5918595Y25905229D01*
X5918596Y25905229D01*
X5934173Y25907349D01*
X5951164Y25908500D01*
X6766500Y25908500D01*
X6834621Y25888498D01*
X6881114Y25834842D01*
X6892500Y25782500D01*
X6892500Y25439252D01*
X6904133Y25380769D01*
X6948448Y25314448D01*
X7014769Y25270133D01*
X7026938Y25267712D01*
X7026939Y25267712D01*
X7064409Y25260259D01*
X7073252Y25258500D01*
X7815354Y25258500D01*
X7883475Y25238498D01*
X7916180Y25208065D01*
X7994715Y25103276D01*
X8007276Y25090715D01*
X8109351Y25014214D01*
X8124946Y25005676D01*
X8245394Y24960522D01*
X8260649Y24956895D01*
X8311514Y24951369D01*
X8318328Y24951000D01*
X8490885Y24951000D01*
X8506124Y24955475D01*
X8507329Y24956865D01*
X8509000Y24964548D01*
X8509000Y26337000D01*
X8529002Y26405121D01*
X8582658Y26451614D01*
X8635000Y26463000D01*
X8891000Y26463000D01*
X8959121Y26442998D01*
X9005614Y26389342D01*
X9017000Y26337000D01*
X9017000Y24969116D01*
X9021475Y24953877D01*
X9022865Y24952672D01*
X9030548Y24951001D01*
X9207669Y24951001D01*
X9214490Y24951371D01*
X9265352Y24956895D01*
X9280604Y24960521D01*
X9401054Y25005676D01*
X9416649Y25014214D01*
X9518724Y25090715D01*
X9531285Y25103276D01*
X9609820Y25208065D01*
X9666679Y25250580D01*
X9710646Y25258500D01*
X10452748Y25258500D01*
X10461591Y25260259D01*
X10499061Y25267712D01*
X10499062Y25267712D01*
X10511231Y25270133D01*
X10577552Y25314448D01*
X10581798Y25320803D01*
X10641217Y25353249D01*
X10712032Y25348184D01*
X10753874Y25321293D01*
X10758448Y25314448D01*
X10824769Y25270133D01*
X10836938Y25267712D01*
X10836939Y25267712D01*
X10874409Y25260259D01*
X10883252Y25258500D01*
X11722748Y25258500D01*
X11731591Y25260259D01*
X11769061Y25267712D01*
X11769062Y25267712D01*
X11781231Y25270133D01*
X11847552Y25314448D01*
X11851798Y25320803D01*
X11911217Y25353249D01*
X11982032Y25348184D01*
X12023874Y25321293D01*
X12028448Y25314448D01*
X12094769Y25270133D01*
X12106938Y25267712D01*
X12106939Y25267712D01*
X12144409Y25260259D01*
X12153252Y25258500D01*
X12992748Y25258500D01*
X13001591Y25260259D01*
X13039061Y25267712D01*
X13039062Y25267712D01*
X13051231Y25270133D01*
X13117552Y25314448D01*
X13161867Y25380769D01*
X13173500Y25439252D01*
X13173500Y26875354D01*
X13193502Y26943475D01*
X13247158Y26989968D01*
X13298745Y27001352D01*
X21463849Y27050245D01*
X21532087Y27030651D01*
G37*
%TD.AperFunction*%
%TD*%
M02*
