M48
; DRILL file {KiCad 6.0.11-2627ca5db0~126~ubuntu22.04.1} date Fr 09 Feb 2024 09:05:25 CET
; FORMAT={-:-/ absolute / inch / decimal}
; #@! TF.CreationDate,2024-02-09T09:05:25+01:00
; #@! TF.GenerationSoftware,Kicad,Pcbnew,6.0.11-2627ca5db0~126~ubuntu22.04.1
; #@! TF.FileFunction,Plated,1,2,PTH
FMAT,2
INCH
; #@! TA.AperFunction,Plated,PTH,ViaDrill
T1C0.0157
; #@! TA.AperFunction,Plated,PTH,ComponentDrill
T2C0.0157
; #@! TA.AperFunction,Plated,PTH,ComponentDrill
T3C0.0394
%
G90
G05
T1
X0.095Y1.005
X0.1151Y0.5066
X0.145Y0.815
X0.15Y0.695
X0.1519Y0.4814
X0.16Y0.735
X0.17Y0.6043
X0.1711Y0.6516
X0.185Y0.425
X0.1864Y0.9936
X0.2052Y0.636
X0.21Y0.505
X0.235Y0.46
X0.25Y0.93
X0.255Y1.045
X0.255Y0.515
X0.265Y0.44
X0.305Y0.75
X0.345Y0.155
X0.365Y0.54
X0.385Y0.77
X0.4625Y0.6975
X0.465Y0.88
X0.465Y0.77
X0.4708Y0.5361
X0.5Y0.33
X0.5Y0.285
X0.505Y0.185
X0.5096Y0.3995
X0.56Y0.665
X0.565Y0.19
X0.6052Y0.5637
X0.615Y0.245
X0.625Y0.7499
X0.6317Y0.5933
X0.635Y0.54
X0.641Y0.87
X0.6486Y0.8138
X0.6679Y0.92
X0.705Y0.96
X0.71Y0.135
X0.7138Y0.0288
X0.7177Y0.4764
X0.73Y0.525
X0.74Y1.01
X0.7504Y0.9354
X0.76Y0.475
X0.765Y0.755
T2
X0.0807Y1.53
X0.1594Y1.53
X0.1594Y1.3331
X0.2381Y1.53
X0.2381Y1.3331
X0.3169Y1.53
X0.3169Y1.3331
X0.3956Y1.53
X0.3956Y1.3331
X0.4744Y1.53
X0.4744Y1.3331
X0.5531Y1.53
X0.5531Y1.3331
X0.6319Y1.53
X0.6319Y1.3331
X0.7106Y1.53
X0.7106Y1.3331
X0.7893Y1.53
X0.7893Y1.3331
T3
X0.07Y0.295
X0.07Y0.195
X0.07Y0.095
X0.265Y0.33
X0.635Y0.33
X0.78Y0.38
X0.78Y0.28
X0.78Y0.18
X0.78Y0.08
T0
M30
