%TF.GenerationSoftware,KiCad,Pcbnew,6.0.11-2627ca5db0~126~ubuntu22.04.1*%
%TF.CreationDate,2024-02-09T10:20:24+01:00*%
%TF.ProjectId,I2C_Module_SHT45_BME280_FUEL4EP,4932435f-4d6f-4647-956c-655f53485434,V1.2*%
%TF.SameCoordinates,Original*%
%TF.FileFunction,Legend,Top*%
%TF.FilePolarity,Positive*%
%FSLAX46Y46*%
G04 Gerber Fmt 4.6, Leading zero omitted, Abs format (unit mm)*
G04 Created by KiCad (PCBNEW 6.0.11-2627ca5db0~126~ubuntu22.04.1) date 2024-02-09 10:20:24*
%MOMM*%
%LPD*%
G01*
G04 APERTURE LIST*
G04 Aperture macros list*
%AMRoundRect*
0 Rectangle with rounded corners*
0 $1 Rounding radius*
0 $2 $3 $4 $5 $6 $7 $8 $9 X,Y pos of 4 corners*
0 Add a 4 corners polygon primitive as box body*
4,1,4,$2,$3,$4,$5,$6,$7,$8,$9,$2,$3,0*
0 Add four circle primitives for the rounded corners*
1,1,$1+$1,$2,$3*
1,1,$1+$1,$4,$5*
1,1,$1+$1,$6,$7*
1,1,$1+$1,$8,$9*
0 Add four rect primitives between the rounded corners*
20,1,$1+$1,$2,$3,$4,$5,0*
20,1,$1+$1,$4,$5,$6,$7,0*
20,1,$1+$1,$6,$7,$8,$9,0*
20,1,$1+$1,$8,$9,$2,$3,0*%
G04 Aperture macros list end*
%ADD10C,0.176200*%
%ADD11C,0.150000*%
%ADD12C,0.100000*%
%ADD13C,0.152400*%
%ADD14C,0.120000*%
%ADD15RoundRect,0.225000X0.250000X-0.225000X0.250000X0.225000X-0.250000X0.225000X-0.250000X-0.225000X0*%
%ADD16RoundRect,0.147500X-0.147500X-0.172500X0.147500X-0.172500X0.147500X0.172500X-0.147500X0.172500X0*%
%ADD17R,0.500000X0.350000*%
%ADD18R,1.000000X1.500000*%
%ADD19RoundRect,0.225000X0.225000X0.250000X-0.225000X0.250000X-0.225000X-0.250000X0.225000X-0.250000X0*%
%ADD20RoundRect,0.135000X0.135000X0.185000X-0.135000X0.185000X-0.135000X-0.185000X0.135000X-0.185000X0*%
%ADD21RoundRect,0.135000X-0.185000X0.135000X-0.185000X-0.135000X0.185000X-0.135000X0.185000X0.135000X0*%
%ADD22RoundRect,0.102000X-0.250000X-0.150000X0.250000X-0.150000X0.250000X0.150000X-0.250000X0.150000X0*%
%ADD23RoundRect,0.225000X-0.225000X-0.250000X0.225000X-0.250000X0.225000X0.250000X-0.225000X0.250000X0*%
%ADD24R,1.700000X1.700000*%
%ADD25O,1.700000X1.700000*%
G04 APERTURE END LIST*
D10*
X17688100Y3900000D02*
G75*
G03*
X17688100Y3900000I-88100J0D01*
G01*
X9888100Y3100000D02*
G75*
G03*
X9888100Y3100000I-88100J0D01*
G01*
D11*
X4219666Y6736666D02*
X4319666Y6703333D01*
X4486333Y6703333D01*
X4553000Y6736666D01*
X4586333Y6770000D01*
X4619666Y6836666D01*
X4619666Y6903333D01*
X4586333Y6970000D01*
X4553000Y7003333D01*
X4486333Y7036666D01*
X4353000Y7070000D01*
X4286333Y7103333D01*
X4253000Y7136666D01*
X4219666Y7203333D01*
X4219666Y7270000D01*
X4253000Y7336666D01*
X4286333Y7370000D01*
X4353000Y7403333D01*
X4519666Y7403333D01*
X4619666Y7370000D01*
X5319666Y6770000D02*
X5286333Y6736666D01*
X5186333Y6703333D01*
X5119666Y6703333D01*
X5019666Y6736666D01*
X4953000Y6803333D01*
X4919666Y6870000D01*
X4886333Y7003333D01*
X4886333Y7103333D01*
X4919666Y7236666D01*
X4953000Y7303333D01*
X5019666Y7370000D01*
X5119666Y7403333D01*
X5186333Y7403333D01*
X5286333Y7370000D01*
X5319666Y7336666D01*
X5953000Y6703333D02*
X5619666Y6703333D01*
X5619666Y7403333D01*
X24550000Y9276666D02*
X24650000Y9243333D01*
X24816666Y9243333D01*
X24883333Y9276666D01*
X24916666Y9310000D01*
X24950000Y9376666D01*
X24950000Y9443333D01*
X24916666Y9510000D01*
X24883333Y9543333D01*
X24816666Y9576666D01*
X24683333Y9610000D01*
X24616666Y9643333D01*
X24583333Y9676666D01*
X24550000Y9743333D01*
X24550000Y9810000D01*
X24583333Y9876666D01*
X24616666Y9910000D01*
X24683333Y9943333D01*
X24850000Y9943333D01*
X24950000Y9910000D01*
X25250000Y9243333D02*
X25250000Y9943333D01*
X25416666Y9943333D01*
X25516666Y9910000D01*
X25583333Y9843333D01*
X25616666Y9776666D01*
X25650000Y9643333D01*
X25650000Y9543333D01*
X25616666Y9410000D01*
X25583333Y9343333D01*
X25516666Y9276666D01*
X25416666Y9243333D01*
X25250000Y9243333D01*
X25916666Y9443333D02*
X26250000Y9443333D01*
X25850000Y9243333D02*
X26083333Y9943333D01*
X26316666Y9243333D01*
D12*
X19761047Y12751619D02*
X19832476Y12727809D01*
X19951523Y12727809D01*
X19999142Y12751619D01*
X20022952Y12775428D01*
X20046761Y12823047D01*
X20046761Y12870666D01*
X20022952Y12918285D01*
X19999142Y12942095D01*
X19951523Y12965904D01*
X19856285Y12989714D01*
X19808666Y13013523D01*
X19784857Y13037333D01*
X19761047Y13084952D01*
X19761047Y13132571D01*
X19784857Y13180190D01*
X19808666Y13204000D01*
X19856285Y13227809D01*
X19975333Y13227809D01*
X20046761Y13204000D01*
X20261047Y12727809D02*
X20261047Y13227809D01*
X20261047Y12989714D02*
X20546761Y12989714D01*
X20546761Y12727809D02*
X20546761Y13227809D01*
X20713428Y13227809D02*
X20999142Y13227809D01*
X20856285Y12727809D02*
X20856285Y13227809D01*
X21380095Y13061142D02*
X21380095Y12727809D01*
X21261047Y13251619D02*
X21142000Y12894476D01*
X21451523Y12894476D01*
X21880095Y13227809D02*
X21642000Y13227809D01*
X21618190Y12989714D01*
X21642000Y13013523D01*
X21689619Y13037333D01*
X21808666Y13037333D01*
X21856285Y13013523D01*
X21880095Y12989714D01*
X21903904Y12942095D01*
X21903904Y12823047D01*
X21880095Y12775428D01*
X21856285Y12751619D01*
X21808666Y12727809D01*
X21689619Y12727809D01*
X21642000Y12751619D01*
X21618190Y12775428D01*
X22499142Y12727809D02*
X22499142Y13227809D01*
X22713428Y13180190D02*
X22737238Y13204000D01*
X22784857Y13227809D01*
X22903904Y13227809D01*
X22951523Y13204000D01*
X22975333Y13180190D01*
X22999142Y13132571D01*
X22999142Y13084952D01*
X22975333Y13013523D01*
X22689619Y12727809D01*
X22999142Y12727809D01*
X23499142Y12775428D02*
X23475333Y12751619D01*
X23403904Y12727809D01*
X23356285Y12727809D01*
X23284857Y12751619D01*
X23237238Y12799238D01*
X23213428Y12846857D01*
X23189619Y12942095D01*
X23189619Y13013523D01*
X23213428Y13108761D01*
X23237238Y13156380D01*
X23284857Y13204000D01*
X23356285Y13227809D01*
X23403904Y13227809D01*
X23475333Y13204000D01*
X23499142Y13180190D01*
X24308666Y12727809D02*
X24308666Y12989714D01*
X24284857Y13037333D01*
X24237238Y13061142D01*
X24142000Y13061142D01*
X24094380Y13037333D01*
X24308666Y12751619D02*
X24261047Y12727809D01*
X24142000Y12727809D01*
X24094380Y12751619D01*
X24070571Y12799238D01*
X24070571Y12846857D01*
X24094380Y12894476D01*
X24142000Y12918285D01*
X24261047Y12918285D01*
X24308666Y12942095D01*
X24761047Y12727809D02*
X24761047Y13227809D01*
X24761047Y12751619D02*
X24713428Y12727809D01*
X24618190Y12727809D01*
X24570571Y12751619D01*
X24546761Y12775428D01*
X24522952Y12823047D01*
X24522952Y12965904D01*
X24546761Y13013523D01*
X24570571Y13037333D01*
X24618190Y13061142D01*
X24713428Y13061142D01*
X24761047Y13037333D01*
X25213428Y12727809D02*
X25213428Y13227809D01*
X25213428Y12751619D02*
X25165809Y12727809D01*
X25070571Y12727809D01*
X25022952Y12751619D01*
X24999142Y12775428D01*
X24975333Y12823047D01*
X24975333Y12965904D01*
X24999142Y13013523D01*
X25022952Y13037333D01*
X25070571Y13061142D01*
X25165809Y13061142D01*
X25213428Y13037333D01*
X25451523Y12727809D02*
X25451523Y13061142D01*
X25451523Y12965904D02*
X25475333Y13013523D01*
X25499142Y13037333D01*
X25546761Y13061142D01*
X25594380Y13061142D01*
X25951523Y12751619D02*
X25903904Y12727809D01*
X25808666Y12727809D01*
X25761047Y12751619D01*
X25737238Y12799238D01*
X25737238Y12989714D01*
X25761047Y13037333D01*
X25808666Y13061142D01*
X25903904Y13061142D01*
X25951523Y13037333D01*
X25975333Y12989714D01*
X25975333Y12942095D01*
X25737238Y12894476D01*
X26165809Y12751619D02*
X26213428Y12727809D01*
X26308666Y12727809D01*
X26356285Y12751619D01*
X26380095Y12799238D01*
X26380095Y12823047D01*
X26356285Y12870666D01*
X26308666Y12894476D01*
X26237238Y12894476D01*
X26189619Y12918285D01*
X26165809Y12965904D01*
X26165809Y12989714D01*
X26189619Y13037333D01*
X26237238Y13061142D01*
X26308666Y13061142D01*
X26356285Y13037333D01*
X26570571Y12751619D02*
X26618190Y12727809D01*
X26713428Y12727809D01*
X26761047Y12751619D01*
X26784857Y12799238D01*
X26784857Y12823047D01*
X26761047Y12870666D01*
X26713428Y12894476D01*
X26642000Y12894476D01*
X26594380Y12918285D01*
X26570571Y12965904D01*
X26570571Y12989714D01*
X26594380Y13037333D01*
X26642000Y13061142D01*
X26713428Y13061142D01*
X26761047Y13037333D01*
X27380095Y12727809D02*
X27380095Y13061142D01*
X27380095Y13227809D02*
X27356285Y13204000D01*
X27380095Y13180190D01*
X27403904Y13204000D01*
X27380095Y13227809D01*
X27380095Y13180190D01*
X27594380Y12751619D02*
X27641999Y12727809D01*
X27737238Y12727809D01*
X27784857Y12751619D01*
X27808666Y12799238D01*
X27808666Y12823047D01*
X27784857Y12870666D01*
X27737238Y12894476D01*
X27665809Y12894476D01*
X27618190Y12918285D01*
X27594380Y12965904D01*
X27594380Y12989714D01*
X27618190Y13037333D01*
X27665809Y13061142D01*
X27737238Y13061142D01*
X27784857Y13037333D01*
X28499142Y13227809D02*
X28546761Y13227809D01*
X28594380Y13204000D01*
X28618190Y13180190D01*
X28641999Y13132571D01*
X28665809Y13037333D01*
X28665809Y12918285D01*
X28641999Y12823047D01*
X28618190Y12775428D01*
X28594380Y12751619D01*
X28546761Y12727809D01*
X28499142Y12727809D01*
X28451523Y12751619D01*
X28427714Y12775428D01*
X28403904Y12823047D01*
X28380095Y12918285D01*
X28380095Y13037333D01*
X28403904Y13132571D01*
X28427714Y13180190D01*
X28451523Y13204000D01*
X28499142Y13227809D01*
X28832476Y12727809D02*
X29094380Y13061142D01*
X28832476Y13061142D02*
X29094380Y12727809D01*
X29499142Y13061142D02*
X29499142Y12727809D01*
X29380095Y13251619D02*
X29261047Y12894476D01*
X29570571Y12894476D01*
X29975333Y13061142D02*
X29975333Y12727809D01*
X29856285Y13251619D02*
X29737238Y12894476D01*
X30046761Y12894476D01*
D11*
X17600000Y4716666D02*
X17700000Y4683333D01*
X17866666Y4683333D01*
X17933333Y4716666D01*
X17966666Y4750000D01*
X18000000Y4816666D01*
X18000000Y4883333D01*
X17966666Y4950000D01*
X17933333Y4983333D01*
X17866666Y5016666D01*
X17733333Y5050000D01*
X17666666Y5083333D01*
X17633333Y5116666D01*
X17600000Y5183333D01*
X17600000Y5250000D01*
X17633333Y5316666D01*
X17666666Y5350000D01*
X17733333Y5383333D01*
X17900000Y5383333D01*
X18000000Y5350000D01*
X18300000Y4683333D02*
X18300000Y5383333D01*
X18300000Y5050000D02*
X18700000Y5050000D01*
X18700000Y4683333D02*
X18700000Y5383333D01*
X18933333Y5383333D02*
X19333333Y5383333D01*
X19133333Y4683333D02*
X19133333Y5383333D01*
X19866666Y5150000D02*
X19866666Y4683333D01*
X19700000Y5416666D02*
X19533333Y4916666D01*
X19966666Y4916666D01*
X20566666Y5383333D02*
X20233333Y5383333D01*
X20200000Y5050000D01*
X20233333Y5083333D01*
X20300000Y5116666D01*
X20466666Y5116666D01*
X20533333Y5083333D01*
X20566666Y5050000D01*
X20600000Y4983333D01*
X20600000Y4816666D01*
X20566666Y4750000D01*
X20533333Y4716666D01*
X20466666Y4683333D01*
X20300000Y4683333D01*
X20233333Y4716666D01*
X20200000Y4750000D01*
X24866666Y4830000D02*
X24800000Y4863333D01*
X24700000Y4863333D01*
X24600000Y4830000D01*
X24533333Y4763333D01*
X24500000Y4696666D01*
X24466666Y4563333D01*
X24466666Y4463333D01*
X24500000Y4330000D01*
X24533333Y4263333D01*
X24600000Y4196666D01*
X24700000Y4163333D01*
X24766666Y4163333D01*
X24866666Y4196666D01*
X24900000Y4230000D01*
X24900000Y4463333D01*
X24766666Y4463333D01*
X25200000Y4163333D02*
X25200000Y4863333D01*
X25600000Y4163333D01*
X25600000Y4863333D01*
X25933333Y4163333D02*
X25933333Y4863333D01*
X26100000Y4863333D01*
X26200000Y4830000D01*
X26266666Y4763333D01*
X26300000Y4696666D01*
X26333333Y4563333D01*
X26333333Y4463333D01*
X26300000Y4330000D01*
X26266666Y4263333D01*
X26200000Y4196666D01*
X26100000Y4163333D01*
X25933333Y4163333D01*
X4519666Y4830000D02*
X4453000Y4863333D01*
X4353000Y4863333D01*
X4253000Y4830000D01*
X4186333Y4763333D01*
X4153000Y4696666D01*
X4119666Y4563333D01*
X4119666Y4463333D01*
X4153000Y4330000D01*
X4186333Y4263333D01*
X4253000Y4196666D01*
X4353000Y4163333D01*
X4419666Y4163333D01*
X4519666Y4196666D01*
X4553000Y4230000D01*
X4553000Y4463333D01*
X4419666Y4463333D01*
X4853000Y4163333D02*
X4853000Y4863333D01*
X5253000Y4163333D01*
X5253000Y4863333D01*
X5586333Y4163333D02*
X5586333Y4863333D01*
X5753000Y4863333D01*
X5853000Y4830000D01*
X5919666Y4763333D01*
X5953000Y4696666D01*
X5986333Y4563333D01*
X5986333Y4463333D01*
X5953000Y4330000D01*
X5919666Y4263333D01*
X5853000Y4196666D01*
X5753000Y4163333D01*
X5586333Y4163333D01*
X24566666Y6736666D02*
X24666666Y6703333D01*
X24833333Y6703333D01*
X24900000Y6736666D01*
X24933333Y6770000D01*
X24966666Y6836666D01*
X24966666Y6903333D01*
X24933333Y6970000D01*
X24900000Y7003333D01*
X24833333Y7036666D01*
X24700000Y7070000D01*
X24633333Y7103333D01*
X24600000Y7136666D01*
X24566666Y7203333D01*
X24566666Y7270000D01*
X24600000Y7336666D01*
X24633333Y7370000D01*
X24700000Y7403333D01*
X24866666Y7403333D01*
X24966666Y7370000D01*
X25666666Y6770000D02*
X25633333Y6736666D01*
X25533333Y6703333D01*
X25466666Y6703333D01*
X25366666Y6736666D01*
X25300000Y6803333D01*
X25266666Y6870000D01*
X25233333Y7003333D01*
X25233333Y7103333D01*
X25266666Y7236666D01*
X25300000Y7303333D01*
X25366666Y7370000D01*
X25466666Y7403333D01*
X25533333Y7403333D01*
X25633333Y7370000D01*
X25666666Y7336666D01*
X26300000Y6703333D02*
X25966666Y6703333D01*
X25966666Y7403333D01*
X4119666Y2323333D02*
X4353000Y1623333D01*
X4586333Y2323333D01*
X5219666Y1690000D02*
X5186333Y1656666D01*
X5086333Y1623333D01*
X5019666Y1623333D01*
X4919666Y1656666D01*
X4853000Y1723333D01*
X4819666Y1790000D01*
X4786333Y1923333D01*
X4786333Y2023333D01*
X4819666Y2156666D01*
X4853000Y2223333D01*
X4919666Y2290000D01*
X5019666Y2323333D01*
X5086333Y2323333D01*
X5186333Y2290000D01*
X5219666Y2256666D01*
X5919666Y1690000D02*
X5886333Y1656666D01*
X5786333Y1623333D01*
X5719666Y1623333D01*
X5619666Y1656666D01*
X5553000Y1723333D01*
X5519666Y1790000D01*
X5486333Y1923333D01*
X5486333Y2023333D01*
X5519666Y2156666D01*
X5553000Y2223333D01*
X5619666Y2290000D01*
X5719666Y2323333D01*
X5786333Y2323333D01*
X5886333Y2290000D01*
X5919666Y2256666D01*
D12*
X23058666Y15602619D02*
X23011047Y15578809D01*
X22915809Y15578809D01*
X22868190Y15602619D01*
X22844380Y15626428D01*
X22820571Y15674047D01*
X22820571Y15816904D01*
X22844380Y15864523D01*
X22868190Y15888333D01*
X22915809Y15912142D01*
X23011047Y15912142D01*
X23058666Y15888333D01*
X23487238Y15912142D02*
X23487238Y15578809D01*
X23272952Y15912142D02*
X23272952Y15650238D01*
X23296761Y15602619D01*
X23344380Y15578809D01*
X23415809Y15578809D01*
X23463428Y15602619D01*
X23487238Y15626428D01*
X23653904Y15912142D02*
X23844380Y15912142D01*
X23725333Y16078809D02*
X23725333Y15650238D01*
X23749142Y15602619D01*
X23796761Y15578809D01*
X23844380Y15578809D01*
X24534857Y16078809D02*
X24534857Y15721666D01*
X24511047Y15650238D01*
X24463428Y15602619D01*
X24392000Y15578809D01*
X24344380Y15578809D01*
X24772952Y15578809D02*
X24772952Y16078809D01*
X24963428Y16078809D01*
X25011047Y16055000D01*
X25034857Y16031190D01*
X25058666Y15983571D01*
X25058666Y15912142D01*
X25034857Y15864523D01*
X25011047Y15840714D01*
X24963428Y15816904D01*
X24772952Y15816904D01*
X25534857Y15578809D02*
X25249142Y15578809D01*
X25392000Y15578809D02*
X25392000Y16078809D01*
X25344380Y16007380D01*
X25296761Y15959761D01*
X25249142Y15935952D01*
X26058666Y15912142D02*
X26249142Y15912142D01*
X26130095Y15578809D02*
X26130095Y16007380D01*
X26153904Y16055000D01*
X26201523Y16078809D01*
X26249142Y16078809D01*
X26487238Y15578809D02*
X26439619Y15602619D01*
X26415809Y15626428D01*
X26392000Y15674047D01*
X26392000Y15816904D01*
X26415809Y15864523D01*
X26439619Y15888333D01*
X26487238Y15912142D01*
X26558666Y15912142D01*
X26606285Y15888333D01*
X26630095Y15864523D01*
X26653904Y15816904D01*
X26653904Y15674047D01*
X26630095Y15626428D01*
X26606285Y15602619D01*
X26558666Y15578809D01*
X26487238Y15578809D01*
X26868190Y15578809D02*
X26868190Y15912142D01*
X26868190Y15816904D02*
X26892000Y15864523D01*
X26915809Y15888333D01*
X26963428Y15912142D01*
X27011047Y15912142D01*
X20153904Y15035714D02*
X20225333Y15011904D01*
X20249142Y14988095D01*
X20272952Y14940476D01*
X20272952Y14869047D01*
X20249142Y14821428D01*
X20225333Y14797619D01*
X20177714Y14773809D01*
X19987238Y14773809D01*
X19987238Y15273809D01*
X20153904Y15273809D01*
X20201523Y15250000D01*
X20225333Y15226190D01*
X20249142Y15178571D01*
X20249142Y15130952D01*
X20225333Y15083333D01*
X20201523Y15059523D01*
X20153904Y15035714D01*
X19987238Y15035714D01*
X20487238Y14773809D02*
X20487238Y15273809D01*
X20653904Y14916666D01*
X20820571Y15273809D01*
X20820571Y14773809D01*
X21058666Y15035714D02*
X21225333Y15035714D01*
X21296761Y14773809D02*
X21058666Y14773809D01*
X21058666Y15273809D01*
X21296761Y15273809D01*
X21487238Y15226190D02*
X21511047Y15250000D01*
X21558666Y15273809D01*
X21677714Y15273809D01*
X21725333Y15250000D01*
X21749142Y15226190D01*
X21772952Y15178571D01*
X21772952Y15130952D01*
X21749142Y15059523D01*
X21463428Y14773809D01*
X21772952Y14773809D01*
X22058666Y15059523D02*
X22011047Y15083333D01*
X21987238Y15107142D01*
X21963428Y15154761D01*
X21963428Y15178571D01*
X21987238Y15226190D01*
X22011047Y15250000D01*
X22058666Y15273809D01*
X22153904Y15273809D01*
X22201523Y15250000D01*
X22225333Y15226190D01*
X22249142Y15178571D01*
X22249142Y15154761D01*
X22225333Y15107142D01*
X22201523Y15083333D01*
X22153904Y15059523D01*
X22058666Y15059523D01*
X22011047Y15035714D01*
X21987238Y15011904D01*
X21963428Y14964285D01*
X21963428Y14869047D01*
X21987238Y14821428D01*
X22011047Y14797619D01*
X22058666Y14773809D01*
X22153904Y14773809D01*
X22201523Y14797619D01*
X22225333Y14821428D01*
X22249142Y14869047D01*
X22249142Y14964285D01*
X22225333Y15011904D01*
X22201523Y15035714D01*
X22153904Y15059523D01*
X22558666Y15273809D02*
X22606285Y15273809D01*
X22653904Y15250000D01*
X22677714Y15226190D01*
X22701523Y15178571D01*
X22725333Y15083333D01*
X22725333Y14964285D01*
X22701523Y14869047D01*
X22677714Y14821428D01*
X22653904Y14797619D01*
X22606285Y14773809D01*
X22558666Y14773809D01*
X22511047Y14797619D01*
X22487238Y14821428D01*
X22463428Y14869047D01*
X22439619Y14964285D01*
X22439619Y15083333D01*
X22463428Y15178571D01*
X22487238Y15226190D01*
X22511047Y15250000D01*
X22558666Y15273809D01*
X23320571Y14773809D02*
X23320571Y15273809D01*
X23534857Y15226190D02*
X23558666Y15250000D01*
X23606285Y15273809D01*
X23725333Y15273809D01*
X23772952Y15250000D01*
X23796761Y15226190D01*
X23820571Y15178571D01*
X23820571Y15130952D01*
X23796761Y15059523D01*
X23511047Y14773809D01*
X23820571Y14773809D01*
X24320571Y14821428D02*
X24296761Y14797619D01*
X24225333Y14773809D01*
X24177714Y14773809D01*
X24106285Y14797619D01*
X24058666Y14845238D01*
X24034857Y14892857D01*
X24011047Y14988095D01*
X24011047Y15059523D01*
X24034857Y15154761D01*
X24058666Y15202380D01*
X24106285Y15250000D01*
X24177714Y15273809D01*
X24225333Y15273809D01*
X24296761Y15250000D01*
X24320571Y15226190D01*
X25130095Y14773809D02*
X25130095Y15035714D01*
X25106285Y15083333D01*
X25058666Y15107142D01*
X24963428Y15107142D01*
X24915809Y15083333D01*
X25130095Y14797619D02*
X25082476Y14773809D01*
X24963428Y14773809D01*
X24915809Y14797619D01*
X24892000Y14845238D01*
X24892000Y14892857D01*
X24915809Y14940476D01*
X24963428Y14964285D01*
X25082476Y14964285D01*
X25130095Y14988095D01*
X25582476Y14773809D02*
X25582476Y15273809D01*
X25582476Y14797619D02*
X25534857Y14773809D01*
X25439619Y14773809D01*
X25392000Y14797619D01*
X25368190Y14821428D01*
X25344380Y14869047D01*
X25344380Y15011904D01*
X25368190Y15059523D01*
X25392000Y15083333D01*
X25439619Y15107142D01*
X25534857Y15107142D01*
X25582476Y15083333D01*
X26034857Y14773809D02*
X26034857Y15273809D01*
X26034857Y14797619D02*
X25987238Y14773809D01*
X25892000Y14773809D01*
X25844380Y14797619D01*
X25820571Y14821428D01*
X25796761Y14869047D01*
X25796761Y15011904D01*
X25820571Y15059523D01*
X25844380Y15083333D01*
X25892000Y15107142D01*
X25987238Y15107142D01*
X26034857Y15083333D01*
X26272952Y14773809D02*
X26272952Y15107142D01*
X26272952Y15011904D02*
X26296761Y15059523D01*
X26320571Y15083333D01*
X26368190Y15107142D01*
X26415809Y15107142D01*
X26772952Y14797619D02*
X26725333Y14773809D01*
X26630095Y14773809D01*
X26582476Y14797619D01*
X26558666Y14845238D01*
X26558666Y15035714D01*
X26582476Y15083333D01*
X26630095Y15107142D01*
X26725333Y15107142D01*
X26772952Y15083333D01*
X26796761Y15035714D01*
X26796761Y14988095D01*
X26558666Y14940476D01*
X26987238Y14797619D02*
X27034857Y14773809D01*
X27130095Y14773809D01*
X27177714Y14797619D01*
X27201523Y14845238D01*
X27201523Y14869047D01*
X27177714Y14916666D01*
X27130095Y14940476D01*
X27058666Y14940476D01*
X27011047Y14964285D01*
X26987238Y15011904D01*
X26987238Y15035714D01*
X27011047Y15083333D01*
X27058666Y15107142D01*
X27130095Y15107142D01*
X27177714Y15083333D01*
X27392000Y14797619D02*
X27439619Y14773809D01*
X27534857Y14773809D01*
X27582476Y14797619D01*
X27606285Y14845238D01*
X27606285Y14869047D01*
X27582476Y14916666D01*
X27534857Y14940476D01*
X27463428Y14940476D01*
X27415809Y14964285D01*
X27392000Y15011904D01*
X27392000Y15035714D01*
X27415809Y15083333D01*
X27463428Y15107142D01*
X27534857Y15107142D01*
X27582476Y15083333D01*
X28296761Y15273809D02*
X28344380Y15273809D01*
X28392000Y15250000D01*
X28415809Y15226190D01*
X28439619Y15178571D01*
X28463428Y15083333D01*
X28463428Y14964285D01*
X28439619Y14869047D01*
X28415809Y14821428D01*
X28392000Y14797619D01*
X28344380Y14773809D01*
X28296761Y14773809D01*
X28249142Y14797619D01*
X28225333Y14821428D01*
X28201523Y14869047D01*
X28177714Y14964285D01*
X28177714Y15083333D01*
X28201523Y15178571D01*
X28225333Y15226190D01*
X28249142Y15250000D01*
X28296761Y15273809D01*
X28630095Y14773809D02*
X28892000Y15107142D01*
X28630095Y15107142D02*
X28892000Y14773809D01*
X29034857Y15273809D02*
X29368190Y15273809D01*
X29153904Y14773809D01*
X29511047Y15273809D02*
X29844380Y15273809D01*
X29630095Y14773809D01*
X22296761Y13968809D02*
X22296761Y14468809D01*
X22296761Y13992619D02*
X22249142Y13968809D01*
X22153904Y13968809D01*
X22106285Y13992619D01*
X22082476Y14016428D01*
X22058666Y14064047D01*
X22058666Y14206904D01*
X22082476Y14254523D01*
X22106285Y14278333D01*
X22153904Y14302142D01*
X22249142Y14302142D01*
X22296761Y14278333D01*
X22725333Y13992619D02*
X22677714Y13968809D01*
X22582476Y13968809D01*
X22534857Y13992619D01*
X22511047Y14040238D01*
X22511047Y14230714D01*
X22534857Y14278333D01*
X22582476Y14302142D01*
X22677714Y14302142D01*
X22725333Y14278333D01*
X22749142Y14230714D01*
X22749142Y14183095D01*
X22511047Y14135476D01*
X22892000Y14302142D02*
X23082476Y14302142D01*
X22963428Y13968809D02*
X22963428Y14397380D01*
X22987238Y14445000D01*
X23034857Y14468809D01*
X23082476Y14468809D01*
X23463428Y13968809D02*
X23463428Y14230714D01*
X23439619Y14278333D01*
X23392000Y14302142D01*
X23296761Y14302142D01*
X23249142Y14278333D01*
X23463428Y13992619D02*
X23415809Y13968809D01*
X23296761Y13968809D01*
X23249142Y13992619D01*
X23225333Y14040238D01*
X23225333Y14087857D01*
X23249142Y14135476D01*
X23296761Y14159285D01*
X23415809Y14159285D01*
X23463428Y14183095D01*
X23915809Y14302142D02*
X23915809Y13968809D01*
X23701523Y14302142D02*
X23701523Y14040238D01*
X23725333Y13992619D01*
X23772952Y13968809D01*
X23844380Y13968809D01*
X23892000Y13992619D01*
X23915809Y14016428D01*
X24225333Y13968809D02*
X24177714Y13992619D01*
X24153904Y14040238D01*
X24153904Y14468809D01*
X24344380Y14302142D02*
X24534857Y14302142D01*
X24415809Y14468809D02*
X24415809Y14040238D01*
X24439619Y13992619D01*
X24487238Y13968809D01*
X24534857Y13968809D01*
X25082476Y13968809D02*
X25082476Y14302142D01*
X25082476Y14468809D02*
X25058666Y14445000D01*
X25082476Y14421190D01*
X25106285Y14445000D01*
X25082476Y14468809D01*
X25082476Y14421190D01*
X25296761Y13992619D02*
X25344380Y13968809D01*
X25439619Y13968809D01*
X25487238Y13992619D01*
X25511047Y14040238D01*
X25511047Y14064047D01*
X25487238Y14111666D01*
X25439619Y14135476D01*
X25368190Y14135476D01*
X25320571Y14159285D01*
X25296761Y14206904D01*
X25296761Y14230714D01*
X25320571Y14278333D01*
X25368190Y14302142D01*
X25439619Y14302142D01*
X25487238Y14278333D01*
X26201523Y14468809D02*
X26249142Y14468809D01*
X26296761Y14445000D01*
X26320571Y14421190D01*
X26344380Y14373571D01*
X26368190Y14278333D01*
X26368190Y14159285D01*
X26344380Y14064047D01*
X26320571Y14016428D01*
X26296761Y13992619D01*
X26249142Y13968809D01*
X26201523Y13968809D01*
X26153904Y13992619D01*
X26130095Y14016428D01*
X26106285Y14064047D01*
X26082476Y14159285D01*
X26082476Y14278333D01*
X26106285Y14373571D01*
X26130095Y14421190D01*
X26153904Y14445000D01*
X26201523Y14468809D01*
X26534857Y13968809D02*
X26796761Y14302142D01*
X26534857Y14302142D02*
X26796761Y13968809D01*
X26939619Y14468809D02*
X27272952Y14468809D01*
X27058666Y13968809D01*
X27677714Y14468809D02*
X27582476Y14468809D01*
X27534857Y14445000D01*
X27511047Y14421190D01*
X27463428Y14349761D01*
X27439619Y14254523D01*
X27439619Y14064047D01*
X27463428Y14016428D01*
X27487238Y13992619D01*
X27534857Y13968809D01*
X27630095Y13968809D01*
X27677714Y13992619D01*
X27701523Y14016428D01*
X27725333Y14064047D01*
X27725333Y14183095D01*
X27701523Y14230714D01*
X27677714Y14254523D01*
X27630095Y14278333D01*
X27534857Y14278333D01*
X27487238Y14254523D01*
X27463428Y14230714D01*
X27439619Y14183095D01*
D11*
X9763333Y6146000D02*
X9863333Y6112666D01*
X9896666Y6079333D01*
X9929999Y6012666D01*
X9929999Y5912666D01*
X9896666Y5846000D01*
X9863333Y5812666D01*
X9796666Y5779333D01*
X9529999Y5779333D01*
X9529999Y6479333D01*
X9763333Y6479333D01*
X9829999Y6446000D01*
X9863333Y6412666D01*
X9896666Y6346000D01*
X9896666Y6279333D01*
X9863333Y6212666D01*
X9829999Y6179333D01*
X9763333Y6146000D01*
X9529999Y6146000D01*
X10229999Y5779333D02*
X10229999Y6479333D01*
X10463333Y5979333D01*
X10696666Y6479333D01*
X10696666Y5779333D01*
X11029999Y6146000D02*
X11263333Y6146000D01*
X11363333Y5779333D02*
X11029999Y5779333D01*
X11029999Y6479333D01*
X11363333Y6479333D01*
X11629999Y6412666D02*
X11663333Y6446000D01*
X11729999Y6479333D01*
X11896666Y6479333D01*
X11963333Y6446000D01*
X11996666Y6412666D01*
X12029999Y6346000D01*
X12029999Y6279333D01*
X11996666Y6179333D01*
X11596666Y5779333D01*
X12029999Y5779333D01*
X12429999Y6179333D02*
X12363333Y6212666D01*
X12329999Y6246000D01*
X12296666Y6312666D01*
X12296666Y6346000D01*
X12329999Y6412666D01*
X12363333Y6446000D01*
X12429999Y6479333D01*
X12563333Y6479333D01*
X12629999Y6446000D01*
X12663333Y6412666D01*
X12696666Y6346000D01*
X12696666Y6312666D01*
X12663333Y6246000D01*
X12629999Y6212666D01*
X12563333Y6179333D01*
X12429999Y6179333D01*
X12363333Y6146000D01*
X12329999Y6112666D01*
X12296666Y6046000D01*
X12296666Y5912666D01*
X12329999Y5846000D01*
X12363333Y5812666D01*
X12429999Y5779333D01*
X12563333Y5779333D01*
X12629999Y5812666D01*
X12663333Y5846000D01*
X12696666Y5912666D01*
X12696666Y6046000D01*
X12663333Y6112666D01*
X12629999Y6146000D01*
X12563333Y6179333D01*
X13129999Y6479333D02*
X13196666Y6479333D01*
X13263333Y6446000D01*
X13296666Y6412666D01*
X13329999Y6346000D01*
X13363333Y6212666D01*
X13363333Y6046000D01*
X13329999Y5912666D01*
X13296666Y5846000D01*
X13263333Y5812666D01*
X13196666Y5779333D01*
X13129999Y5779333D01*
X13063333Y5812666D01*
X13029999Y5846000D01*
X12996666Y5912666D01*
X12963333Y6046000D01*
X12963333Y6212666D01*
X12996666Y6346000D01*
X13029999Y6412666D01*
X13063333Y6446000D01*
X13129999Y6479333D01*
X4203000Y9276666D02*
X4303000Y9243333D01*
X4469666Y9243333D01*
X4536333Y9276666D01*
X4569666Y9310000D01*
X4603000Y9376666D01*
X4603000Y9443333D01*
X4569666Y9510000D01*
X4536333Y9543333D01*
X4469666Y9576666D01*
X4336333Y9610000D01*
X4269666Y9643333D01*
X4236333Y9676666D01*
X4203000Y9743333D01*
X4203000Y9810000D01*
X4236333Y9876666D01*
X4269666Y9910000D01*
X4336333Y9943333D01*
X4503000Y9943333D01*
X4603000Y9910000D01*
X4903000Y9243333D02*
X4903000Y9943333D01*
X5069666Y9943333D01*
X5169666Y9910000D01*
X5236333Y9843333D01*
X5269666Y9776666D01*
X5303000Y9643333D01*
X5303000Y9543333D01*
X5269666Y9410000D01*
X5236333Y9343333D01*
X5169666Y9276666D01*
X5069666Y9243333D01*
X4903000Y9243333D01*
X5569666Y9443333D02*
X5903000Y9443333D01*
X5503000Y9243333D02*
X5736333Y9943333D01*
X5969666Y9243333D01*
X24466666Y2323333D02*
X24700000Y1623333D01*
X24933333Y2323333D01*
X25566666Y1690000D02*
X25533333Y1656666D01*
X25433333Y1623333D01*
X25366666Y1623333D01*
X25266666Y1656666D01*
X25200000Y1723333D01*
X25166666Y1790000D01*
X25133333Y1923333D01*
X25133333Y2023333D01*
X25166666Y2156666D01*
X25200000Y2223333D01*
X25266666Y2290000D01*
X25366666Y2323333D01*
X25433333Y2323333D01*
X25533333Y2290000D01*
X25566666Y2256666D01*
X26266666Y1690000D02*
X26233333Y1656666D01*
X26133333Y1623333D01*
X26066666Y1623333D01*
X25966666Y1656666D01*
X25900000Y1723333D01*
X25866666Y1790000D01*
X25833333Y1923333D01*
X25833333Y2023333D01*
X25866666Y2156666D01*
X25900000Y2223333D01*
X25966666Y2290000D01*
X26066666Y2323333D01*
X26133333Y2323333D01*
X26233333Y2290000D01*
X26266666Y2256666D01*
D13*
X769047Y15132095D02*
X769047Y15665428D01*
X769047Y15589238D02*
X807142Y15627333D01*
X883333Y15665428D01*
X997619Y15665428D01*
X1073809Y15627333D01*
X1111904Y15551142D01*
X1111904Y15132095D01*
X1111904Y15551142D02*
X1150000Y15627333D01*
X1226190Y15665428D01*
X1340476Y15665428D01*
X1416666Y15627333D01*
X1454761Y15551142D01*
X1454761Y15132095D01*
X2178571Y15132095D02*
X2178571Y15551142D01*
X2140476Y15627333D01*
X2064285Y15665428D01*
X1911904Y15665428D01*
X1835714Y15627333D01*
X2178571Y15170190D02*
X2102380Y15132095D01*
X1911904Y15132095D01*
X1835714Y15170190D01*
X1797619Y15246380D01*
X1797619Y15322571D01*
X1835714Y15398761D01*
X1911904Y15436857D01*
X2102380Y15436857D01*
X2178571Y15474952D01*
X2483333Y15132095D02*
X2902380Y15665428D01*
X2483333Y15665428D02*
X2902380Y15132095D01*
X3207142Y15208285D02*
X3245238Y15170190D01*
X3207142Y15132095D01*
X3169047Y15170190D01*
X3207142Y15208285D01*
X3207142Y15132095D01*
X4083333Y15932095D02*
X4349999Y15132095D01*
X4616666Y15932095D01*
X5340476Y15208285D02*
X5302380Y15170190D01*
X5188095Y15132095D01*
X5111904Y15132095D01*
X4997619Y15170190D01*
X4921428Y15246380D01*
X4883333Y15322571D01*
X4845238Y15474952D01*
X4845238Y15589238D01*
X4883333Y15741619D01*
X4921428Y15817809D01*
X4997619Y15894000D01*
X5111904Y15932095D01*
X5188095Y15932095D01*
X5302380Y15894000D01*
X5340476Y15855904D01*
X6140476Y15208285D02*
X6102380Y15170190D01*
X5988095Y15132095D01*
X5911904Y15132095D01*
X5797619Y15170190D01*
X5721428Y15246380D01*
X5683333Y15322571D01*
X5645238Y15474952D01*
X5645238Y15589238D01*
X5683333Y15741619D01*
X5721428Y15817809D01*
X5797619Y15894000D01*
X5911904Y15932095D01*
X5988095Y15932095D01*
X6102380Y15894000D01*
X6140476Y15855904D01*
X7092857Y15132095D02*
X7092857Y15665428D01*
X7092857Y15932095D02*
X7054761Y15894000D01*
X7092857Y15855904D01*
X7130952Y15894000D01*
X7092857Y15932095D01*
X7092857Y15855904D01*
X7435714Y15170190D02*
X7511904Y15132095D01*
X7664285Y15132095D01*
X7740476Y15170190D01*
X7778571Y15246380D01*
X7778571Y15284476D01*
X7740476Y15360666D01*
X7664285Y15398761D01*
X7549999Y15398761D01*
X7473809Y15436857D01*
X7435714Y15513047D01*
X7435714Y15551142D01*
X7473809Y15627333D01*
X7549999Y15665428D01*
X7664285Y15665428D01*
X7740476Y15627333D01*
X8654761Y15932095D02*
X9150000Y15932095D01*
X8883333Y15627333D01*
X8997619Y15627333D01*
X9073809Y15589238D01*
X9111904Y15551142D01*
X9150000Y15474952D01*
X9150000Y15284476D01*
X9111904Y15208285D01*
X9073809Y15170190D01*
X8997619Y15132095D01*
X8769047Y15132095D01*
X8692857Y15170190D01*
X8654761Y15208285D01*
X9492857Y15208285D02*
X9530952Y15170190D01*
X9492857Y15132095D01*
X9454761Y15170190D01*
X9492857Y15208285D01*
X9492857Y15132095D01*
X9797619Y15932095D02*
X10292857Y15932095D01*
X10026190Y15627333D01*
X10140476Y15627333D01*
X10216666Y15589238D01*
X10254761Y15551142D01*
X10292857Y15474952D01*
X10292857Y15284476D01*
X10254761Y15208285D01*
X10216666Y15170190D01*
X10140476Y15132095D01*
X9911904Y15132095D01*
X9835714Y15170190D01*
X9797619Y15208285D01*
X10521428Y15932095D02*
X10788095Y15132095D01*
X11054761Y15932095D01*
X11930952Y15208285D02*
X11969047Y15170190D01*
X11930952Y15132095D01*
X11892857Y15170190D01*
X11930952Y15208285D01*
X11930952Y15132095D01*
X11930952Y15436857D02*
X11892857Y15894000D01*
X11930952Y15932095D01*
X11969047Y15894000D01*
X11930952Y15436857D01*
X11930952Y15932095D01*
D11*
%TO.C,C1*%
X12696000Y13083333D02*
X12729333Y13050000D01*
X12762666Y12950000D01*
X12762666Y12883333D01*
X12729333Y12783333D01*
X12662666Y12716666D01*
X12596000Y12683333D01*
X12462666Y12650000D01*
X12362666Y12650000D01*
X12229333Y12683333D01*
X12162666Y12716666D01*
X12096000Y12783333D01*
X12062666Y12883333D01*
X12062666Y12950000D01*
X12096000Y13050000D01*
X12129333Y13083333D01*
X12762666Y13750000D02*
X12762666Y13350000D01*
X12762666Y13550000D02*
X12062666Y13550000D01*
X12162666Y13483333D01*
X12229333Y13416666D01*
X12262666Y13350000D01*
%TO.C,FB1*%
X7816666Y10050000D02*
X7583333Y10050000D01*
X7583333Y9683333D02*
X7583333Y10383333D01*
X7916666Y10383333D01*
X8416666Y10050000D02*
X8516666Y10016666D01*
X8550000Y9983333D01*
X8583333Y9916666D01*
X8583333Y9816666D01*
X8550000Y9750000D01*
X8516666Y9716666D01*
X8450000Y9683333D01*
X8183333Y9683333D01*
X8183333Y10383333D01*
X8416666Y10383333D01*
X8483333Y10350000D01*
X8516666Y10316666D01*
X8550000Y10250000D01*
X8550000Y10183333D01*
X8516666Y10116666D01*
X8483333Y10083333D01*
X8416666Y10050000D01*
X8183333Y10050000D01*
X9250000Y9683333D02*
X8850000Y9683333D01*
X9050000Y9683333D02*
X9050000Y10383333D01*
X8983333Y10283333D01*
X8916666Y10216666D01*
X8850000Y10183333D01*
%TO.C,U1*%
X9116666Y3866666D02*
X9683333Y3866666D01*
X9750000Y3900000D01*
X9783333Y3933333D01*
X9816666Y4000000D01*
X9816666Y4133333D01*
X9783333Y4200000D01*
X9750000Y4233333D01*
X9683333Y4266666D01*
X9116666Y4266666D01*
X9816666Y4966666D02*
X9816666Y4566666D01*
X9816666Y4766666D02*
X9116666Y4766666D01*
X9216666Y4700000D01*
X9283333Y4633333D01*
X9316666Y4566666D01*
%TO.C,JP1*%
X14402666Y12956333D02*
X14402666Y12456333D01*
X14369333Y12356333D01*
X14302666Y12289666D01*
X14202666Y12256333D01*
X14136000Y12256333D01*
X14736000Y12256333D02*
X14736000Y12956333D01*
X15002666Y12956333D01*
X15069333Y12923000D01*
X15102666Y12889666D01*
X15136000Y12823000D01*
X15136000Y12723000D01*
X15102666Y12656333D01*
X15069333Y12623000D01*
X15002666Y12589666D01*
X14736000Y12589666D01*
X15802666Y12256333D02*
X15402666Y12256333D01*
X15602666Y12256333D02*
X15602666Y12956333D01*
X15536000Y12856333D01*
X15469333Y12789666D01*
X15402666Y12756333D01*
%TO.C,C3*%
X14583333Y7850000D02*
X14550000Y7816666D01*
X14450000Y7783333D01*
X14383333Y7783333D01*
X14283333Y7816666D01*
X14216666Y7883333D01*
X14183333Y7950000D01*
X14150000Y8083333D01*
X14150000Y8183333D01*
X14183333Y8316666D01*
X14216666Y8383333D01*
X14283333Y8450000D01*
X14383333Y8483333D01*
X14450000Y8483333D01*
X14550000Y8450000D01*
X14583333Y8416666D01*
X14816666Y8483333D02*
X15250000Y8483333D01*
X15016666Y8216666D01*
X15116666Y8216666D01*
X15183333Y8183333D01*
X15216666Y8150000D01*
X15250000Y8083333D01*
X15250000Y7916666D01*
X15216666Y7850000D01*
X15183333Y7816666D01*
X15116666Y7783333D01*
X14916666Y7783333D01*
X14850000Y7816666D01*
X14816666Y7850000D01*
%TO.C,R1*%
X9027333Y8304333D02*
X8794000Y8637666D01*
X8627333Y8304333D02*
X8627333Y9004333D01*
X8894000Y9004333D01*
X8960666Y8971000D01*
X8994000Y8937666D01*
X9027333Y8871000D01*
X9027333Y8771000D01*
X8994000Y8704333D01*
X8960666Y8671000D01*
X8894000Y8637666D01*
X8627333Y8637666D01*
X9694000Y8304333D02*
X9294000Y8304333D01*
X9494000Y8304333D02*
X9494000Y9004333D01*
X9427333Y8904333D01*
X9360666Y8837666D01*
X9294000Y8804333D01*
%TO.C,R3*%
X17516666Y9483333D02*
X17183333Y9250000D01*
X17516666Y9083333D02*
X16816666Y9083333D01*
X16816666Y9350000D01*
X16850000Y9416666D01*
X16883333Y9450000D01*
X16950000Y9483333D01*
X17050000Y9483333D01*
X17116666Y9450000D01*
X17150000Y9416666D01*
X17183333Y9350000D01*
X17183333Y9083333D01*
X16816666Y9716666D02*
X16816666Y10150000D01*
X17083333Y9916666D01*
X17083333Y10016666D01*
X17116666Y10083333D01*
X17150000Y10116666D01*
X17216666Y10150000D01*
X17383333Y10150000D01*
X17450000Y10116666D01*
X17483333Y10083333D01*
X17516666Y10016666D01*
X17516666Y9816666D01*
X17483333Y9750000D01*
X17450000Y9716666D01*
%TO.C,U2*%
X18466666Y1983333D02*
X18466666Y1416666D01*
X18500000Y1350000D01*
X18533333Y1316666D01*
X18600000Y1283333D01*
X18733333Y1283333D01*
X18800000Y1316666D01*
X18833333Y1350000D01*
X18866666Y1416666D01*
X18866666Y1983333D01*
X19166666Y1916666D02*
X19200000Y1950000D01*
X19266666Y1983333D01*
X19433333Y1983333D01*
X19500000Y1950000D01*
X19533333Y1916666D01*
X19566666Y1850000D01*
X19566666Y1783333D01*
X19533333Y1683333D01*
X19133333Y1283333D01*
X19566666Y1283333D01*
%TO.C,C4*%
X9850000Y1661333D02*
X9883333Y1628000D01*
X9916666Y1528000D01*
X9916666Y1461333D01*
X9883333Y1361333D01*
X9816666Y1294666D01*
X9750000Y1261333D01*
X9616666Y1228000D01*
X9516666Y1228000D01*
X9383333Y1261333D01*
X9316666Y1294666D01*
X9250000Y1361333D01*
X9216666Y1461333D01*
X9216666Y1528000D01*
X9250000Y1628000D01*
X9283333Y1661333D01*
X9450000Y2261333D02*
X9916666Y2261333D01*
X9183333Y2094666D02*
X9683333Y1928000D01*
X9683333Y2361333D01*
%TO.C,R2*%
X9027333Y7104333D02*
X8794000Y7437666D01*
X8627333Y7104333D02*
X8627333Y7804333D01*
X8894000Y7804333D01*
X8960666Y7771000D01*
X8994000Y7737666D01*
X9027333Y7671000D01*
X9027333Y7571000D01*
X8994000Y7504333D01*
X8960666Y7471000D01*
X8894000Y7437666D01*
X8627333Y7437666D01*
X9294000Y7737666D02*
X9327333Y7771000D01*
X9394000Y7804333D01*
X9560666Y7804333D01*
X9627333Y7771000D01*
X9660666Y7737666D01*
X9694000Y7671000D01*
X9694000Y7604333D01*
X9660666Y7504333D01*
X9260666Y7104333D01*
X9694000Y7104333D01*
%TO.C,C2*%
X21383333Y6650000D02*
X21350000Y6616666D01*
X21250000Y6583333D01*
X21183333Y6583333D01*
X21083333Y6616666D01*
X21016666Y6683333D01*
X20983333Y6750000D01*
X20950000Y6883333D01*
X20950000Y6983333D01*
X20983333Y7116666D01*
X21016666Y7183333D01*
X21083333Y7250000D01*
X21183333Y7283333D01*
X21250000Y7283333D01*
X21350000Y7250000D01*
X21383333Y7216666D01*
X21650000Y7216666D02*
X21683333Y7250000D01*
X21750000Y7283333D01*
X21916666Y7283333D01*
X21983333Y7250000D01*
X22016666Y7216666D01*
X22050000Y7150000D01*
X22050000Y7083333D01*
X22016666Y6983333D01*
X21616666Y6583333D01*
X22050000Y6583333D01*
D14*
%TO.C,C1*%
X11790000Y10609420D02*
X11790000Y10890580D01*
X12810000Y10609420D02*
X12810000Y10890580D01*
D12*
%TO.C,U1*%
X10200000Y5300000D02*
X10200000Y5450000D01*
X12900000Y2750000D02*
X12750000Y2750000D01*
X12900000Y5450000D02*
X12900000Y5300000D01*
X10350000Y2750000D02*
X10100000Y2750000D01*
X10200000Y5450000D02*
X10350000Y5450000D01*
X12910000Y2750000D02*
X12910000Y2900000D01*
X12900000Y5450000D02*
X12750000Y5450000D01*
D14*
%TO.C,JP1*%
X16310000Y11985000D02*
X16310000Y9985000D01*
X16310000Y9985000D02*
X13510000Y9985000D01*
X13510000Y11985000D02*
X16310000Y11985000D01*
X13510000Y9985000D02*
X13510000Y11985000D01*
%TO.C,C3*%
X12440580Y7590000D02*
X12159420Y7590000D01*
X12440580Y8610000D02*
X12159420Y8610000D01*
%TO.C,R1*%
X7265641Y9016000D02*
X6958359Y9016000D01*
X7265641Y8256000D02*
X6958359Y8256000D01*
%TO.C,R3*%
X16720000Y11453641D02*
X16720000Y11146359D01*
X17480000Y11453641D02*
X17480000Y11146359D01*
D12*
%TO.C,U2*%
X18425000Y2575000D02*
X19825000Y2575000D01*
X18425000Y4075000D02*
X19825000Y4075000D01*
X18175000Y4125000D02*
G75*
G03*
X18175000Y4125000I-50000J0D01*
G01*
D14*
%TO.C,C4*%
X11409420Y2310000D02*
X11690580Y2310000D01*
X11409420Y1290000D02*
X11690580Y1290000D01*
%TO.C,R2*%
X7285641Y7801000D02*
X6978359Y7801000D01*
X7285641Y7041000D02*
X6978359Y7041000D01*
%TO.C,C2*%
X18909420Y7510000D02*
X19190580Y7510000D01*
X18909420Y6490000D02*
X19190580Y6490000D01*
%TD*%
%LPC*%
D15*
%TO.C,C1*%
X12300000Y9975000D03*
X12300000Y11525000D03*
%TD*%
D16*
%TO.C,FB1*%
X10015000Y10000000D03*
X10985000Y10000000D03*
%TD*%
D17*
%TO.C,U1*%
X10525000Y3125000D03*
X10525000Y3775000D03*
X10525000Y4425000D03*
X10525000Y5075000D03*
X12575000Y5075000D03*
X12575000Y4425000D03*
X12575000Y3775000D03*
X12575000Y3125000D03*
%TD*%
D18*
%TO.C,JP1*%
X14260000Y10985000D03*
X15560000Y10985000D03*
%TD*%
D19*
%TO.C,C3*%
X13075000Y8100000D03*
X11525000Y8100000D03*
%TD*%
D20*
%TO.C,R1*%
X7622000Y8636000D03*
X6602000Y8636000D03*
%TD*%
D21*
%TO.C,R3*%
X17100000Y11810000D03*
X17100000Y10790000D03*
%TD*%
D22*
%TO.C,U2*%
X18425000Y3725000D03*
X18425000Y2925000D03*
X19825000Y2925000D03*
X19825000Y3725000D03*
%TD*%
D23*
%TO.C,C4*%
X10775000Y1800000D03*
X12325000Y1800000D03*
%TD*%
D20*
%TO.C,R2*%
X7642000Y7421000D03*
X6622000Y7421000D03*
%TD*%
D23*
%TO.C,C2*%
X18275000Y7000000D03*
X19825000Y7000000D03*
%TD*%
D24*
%TO.C,J1*%
X2500000Y2000000D03*
D25*
X2500000Y4540000D03*
X2500000Y7080000D03*
X2500000Y9620000D03*
%TD*%
D24*
%TO.C,J2*%
X27900000Y2000000D03*
D25*
X27900000Y4540000D03*
X27900000Y7080000D03*
X27900000Y9620000D03*
%TD*%
M02*
