%TF.GenerationSoftware,KiCad,Pcbnew,8.0.5-8.0.5-0~ubuntu22.04.1*%
%TF.CreationDate,2024-10-02T10:02:37+02:00*%
%TF.ProjectId,I2C_Module_SHT45_BME280_FUEL4EP,4932435f-4d6f-4647-956c-655f53485434,V1.5*%
%TF.SameCoordinates,Original*%
%TF.FileFunction,Copper,L2,Bot*%
%TF.FilePolarity,Positive*%
%FSLAX46Y46*%
G04 Gerber Fmt 4.6, Leading zero omitted, Abs format (unit mm)*
G04 Created by KiCad (PCBNEW 8.0.5-8.0.5-0~ubuntu22.04.1) date 2024-10-02 10:02:37*
%MOMM*%
%LPD*%
G01*
G04 APERTURE LIST*
%TA.AperFunction,ComponentPad*%
%ADD10R,1.700000X1.700000*%
%TD*%
%TA.AperFunction,ComponentPad*%
%ADD11O,1.700000X1.700000*%
%TD*%
%TA.AperFunction,ViaPad*%
%ADD12C,0.600000*%
%TD*%
%TA.AperFunction,Conductor*%
%ADD13C,0.400000*%
%TD*%
%TA.AperFunction,Conductor*%
%ADD14C,0.250000*%
%TD*%
G04 APERTURE END LIST*
D10*
%TO.P,J1,1,Pin_1*%
%TO.N,VCC*%
X2500000Y2000000D03*
D11*
%TO.P,J1,2,Pin_2*%
%TO.N,GND*%
X2500000Y4540000D03*
%TO.P,J1,3,Pin_3*%
%TO.N,/SCL*%
X2500000Y7080000D03*
%TO.P,J1,4,Pin_4*%
%TO.N,/SDA*%
X2500000Y9620000D03*
%TD*%
D10*
%TO.P,J2,1,Pin_1*%
%TO.N,VCC*%
X27900000Y2000000D03*
D11*
%TO.P,J2,2,Pin_2*%
%TO.N,GND*%
X27900000Y4540000D03*
%TO.P,J2,3,Pin_3*%
%TO.N,/SCL*%
X27900000Y7080000D03*
%TO.P,J2,4,Pin_4*%
%TO.N,/SDA*%
X27900000Y9620000D03*
%TD*%
D12*
%TO.N,VCC*%
X18160998Y8636000D03*
X11925000Y6675000D03*
X21422500Y7696884D03*
X15368742Y6831258D03*
%TO.N,GND*%
X4250000Y6290000D03*
X17846047Y6875504D03*
X12252178Y11675500D03*
X26180000Y6260000D03*
X5300000Y8200000D03*
X14019014Y8491742D03*
X9500500Y11500500D03*
X9700000Y6500000D03*
X24410000Y8030000D03*
X22800000Y8900000D03*
X10801062Y9036062D03*
%TO.N,/SCL*%
X8857217Y14300000D03*
X7500000Y11400000D03*
X8900000Y7600000D03*
X10900000Y14300000D03*
X17780000Y4826000D03*
X20575000Y5600000D03*
%TO.N,/SDA*%
X19151600Y9296400D03*
X20421600Y15099503D03*
X5300000Y10700000D03*
X8786493Y15096368D03*
X10900000Y15099503D03*
X8100000Y9800002D03*
%TO.N,VDDA*%
X10985000Y10597577D03*
X11000000Y12000000D03*
X12900000Y9400000D03*
X15395802Y8104198D03*
%TD*%
D13*
%TO.N,VCC*%
X12081258Y6831258D02*
X11925000Y6675000D01*
X19100114Y7696884D02*
X18160998Y8636000D01*
X21422500Y7696884D02*
X19100114Y7696884D01*
X15368742Y6831258D02*
X12081258Y6831258D01*
D14*
%TO.N,/SCL*%
X7500000Y11400000D02*
X8900000Y10000000D01*
X10900000Y14300000D02*
X8857217Y14300000D01*
X17780000Y4826000D02*
X18554000Y5600000D01*
X8900000Y10000000D02*
X8900000Y7600000D01*
X18554000Y5600000D02*
X20575000Y5600000D01*
%TO.N,/SDA*%
X19608800Y9296400D02*
X20421600Y10109200D01*
X5300000Y10700000D02*
X7200000Y10700000D01*
X7200000Y10700000D02*
X8100000Y9800002D01*
X10900000Y15099503D02*
X10896865Y15096368D01*
X20421600Y10109200D02*
X20421600Y15099503D01*
X19151600Y9296400D02*
X19608800Y9296400D01*
X10896865Y15096368D02*
X8786493Y15096368D01*
D13*
%TO.N,VDDA*%
X11000000Y12000000D02*
X11000000Y10619423D01*
X14100000Y9400000D02*
X15395802Y8104198D01*
X11000000Y10619423D02*
X11000000Y10612577D01*
X11000000Y10619423D02*
X10981577Y10601000D01*
X11000000Y10612577D02*
X10985000Y10597577D01*
X12900000Y9400000D02*
X14100000Y9400000D01*
%TD*%
%TA.AperFunction,Conductor*%
%TO.N,GND*%
G36*
X30142121Y16679998D02*
G01*
X30188614Y16626342D01*
X30200000Y16574000D01*
X30200000Y426000D01*
X30179998Y357879D01*
X30126342Y311386D01*
X30074000Y300000D01*
X24126000Y300000D01*
X24057879Y320002D01*
X24011386Y373658D01*
X24000000Y426000D01*
X24000000Y6300000D01*
X21016903Y6300000D01*
X20949867Y6319313D01*
X20940509Y6325191D01*
X20928015Y6333043D01*
X20756047Y6393217D01*
X20575000Y6413616D01*
X20393953Y6393217D01*
X20221985Y6333043D01*
X20221982Y6333041D01*
X20200133Y6319313D01*
X20133097Y6300000D01*
X16216475Y6300000D01*
X16148354Y6320002D01*
X16101861Y6373658D01*
X16091757Y6443932D01*
X16100108Y6471332D01*
X16099448Y6471564D01*
X16107282Y6493953D01*
X16161959Y6650211D01*
X16182358Y6831258D01*
X16161959Y7012305D01*
X16101785Y7184273D01*
X16004853Y7338539D01*
X15978289Y7365102D01*
X15944264Y7427413D01*
X15949328Y7498229D01*
X15978287Y7543291D01*
X16031913Y7596917D01*
X16031915Y7596919D01*
X16128843Y7751179D01*
X16128844Y7751182D01*
X16128845Y7751183D01*
X16189019Y7923151D01*
X16209418Y8104198D01*
X16189019Y8285245D01*
X16128845Y8457213D01*
X16031913Y8611479D01*
X16007392Y8636000D01*
X17347382Y8636000D01*
X17367781Y8454953D01*
X17367781Y8454950D01*
X17367782Y8454949D01*
X17427955Y8282984D01*
X17427956Y8282981D01*
X17524885Y8128720D01*
X17524886Y8128718D01*
X17653716Y7999888D01*
X17653718Y7999887D01*
X17807980Y7902958D01*
X17910185Y7867194D01*
X17957664Y7837361D01*
X18648474Y7146554D01*
X18648476Y7146553D01*
X18729046Y7092718D01*
X18764514Y7069019D01*
X18837952Y7038600D01*
X18893450Y7015612D01*
X18893451Y7015611D01*
X19030330Y6988384D01*
X19030333Y6988384D01*
X20994125Y6988384D01*
X21061163Y6969070D01*
X21069484Y6963841D01*
X21241449Y6903668D01*
X21241450Y6903667D01*
X21241453Y6903667D01*
X21422500Y6883268D01*
X21603547Y6903667D01*
X21775515Y6963841D01*
X21775518Y6963842D01*
X21929779Y7060771D01*
X21929781Y7060772D01*
X22058611Y7189602D01*
X22058612Y7189604D01*
X22155541Y7343865D01*
X22155542Y7343868D01*
X22155543Y7343869D01*
X22215717Y7515837D01*
X22236116Y7696884D01*
X22215717Y7877931D01*
X22155543Y8049899D01*
X22058611Y8204165D01*
X21929781Y8332995D01*
X21775515Y8429927D01*
X21603547Y8490101D01*
X21422500Y8510500D01*
X21241453Y8490101D01*
X21069485Y8429927D01*
X21069482Y8429925D01*
X21061163Y8424698D01*
X20994125Y8405384D01*
X19690559Y8405384D01*
X19622438Y8425386D01*
X19575945Y8479042D01*
X19565841Y8549316D01*
X19595335Y8613896D01*
X19623524Y8638072D01*
X19639589Y8648166D01*
X19682041Y8665057D01*
X19748528Y8678282D01*
X19793585Y8687245D01*
X19793586Y8687245D01*
X19793588Y8687246D01*
X19827356Y8701233D01*
X19908875Y8735000D01*
X20012633Y8804329D01*
X20828305Y9620000D01*
X26536844Y9620000D01*
X26552957Y9425546D01*
X26555437Y9395624D01*
X26610702Y9177387D01*
X26610703Y9177386D01*
X26701141Y8971206D01*
X26824275Y8782734D01*
X26824279Y8782729D01*
X26976762Y8617091D01*
X27123111Y8503183D01*
X27154424Y8478811D01*
X27154431Y8478807D01*
X27187680Y8460814D01*
X27238071Y8410800D01*
X27253423Y8341484D01*
X27228862Y8274871D01*
X27187680Y8239186D01*
X27154424Y8221189D01*
X27060054Y8147737D01*
X26976762Y8082908D01*
X26824279Y7917270D01*
X26824275Y7917265D01*
X26703755Y7732794D01*
X26701140Y7728791D01*
X26644648Y7600000D01*
X26610703Y7522613D01*
X26610702Y7522612D01*
X26555437Y7304375D01*
X26555436Y7304370D01*
X26555436Y7304368D01*
X26536844Y7080000D01*
X26555401Y6856050D01*
X26555437Y6855624D01*
X26610702Y6637387D01*
X26610703Y6637386D01*
X26701141Y6431206D01*
X26824275Y6242734D01*
X26824279Y6242729D01*
X26976762Y6077091D01*
X27154424Y5938811D01*
X27154430Y5938807D01*
X27188207Y5920528D01*
X27238597Y5870515D01*
X27253949Y5801198D01*
X27229388Y5734585D01*
X27188207Y5698902D01*
X27154704Y5680771D01*
X27154698Y5680767D01*
X26977097Y5542534D01*
X26824674Y5376958D01*
X26701580Y5188548D01*
X26611179Y4982456D01*
X26611176Y4982449D01*
X26563455Y4794000D01*
X27469297Y4794000D01*
X27434075Y4732993D01*
X27400000Y4605826D01*
X27400000Y4474174D01*
X27434075Y4347007D01*
X27469297Y4286000D01*
X26563456Y4286000D01*
X26563455Y4285999D01*
X26611176Y4097550D01*
X26611179Y4097543D01*
X26701580Y3891451D01*
X26824674Y3703041D01*
X26967981Y3547367D01*
X26999401Y3483701D01*
X26991414Y3413156D01*
X26946554Y3358127D01*
X26919312Y3343975D01*
X26803796Y3300889D01*
X26803792Y3300887D01*
X26686738Y3213261D01*
X26599112Y3096207D01*
X26599110Y3096202D01*
X26548011Y2959204D01*
X26548009Y2959196D01*
X26541500Y2898649D01*
X26541500Y1101350D01*
X26548009Y1040803D01*
X26548011Y1040795D01*
X26599110Y903797D01*
X26599112Y903792D01*
X26686738Y786738D01*
X26803792Y699112D01*
X26803797Y699110D01*
X26940795Y648011D01*
X26940803Y648009D01*
X27001350Y641500D01*
X27001362Y641500D01*
X28798649Y641500D01*
X28859196Y648009D01*
X28859204Y648011D01*
X28996202Y699110D01*
X28996207Y699112D01*
X29113261Y786738D01*
X29200887Y903792D01*
X29200889Y903797D01*
X29251988Y1040795D01*
X29251990Y1040803D01*
X29258499Y1101350D01*
X29258500Y1101367D01*
X29258500Y2898632D01*
X29258499Y2898649D01*
X29251990Y2959196D01*
X29251988Y2959204D01*
X29244960Y2978045D01*
X29200889Y3096204D01*
X29113261Y3213261D01*
X28996204Y3300889D01*
X28880684Y3343976D01*
X28823852Y3386521D01*
X28799041Y3453042D01*
X28814133Y3522416D01*
X28832018Y3547367D01*
X28975325Y3703041D01*
X29098419Y3891451D01*
X29188820Y4097543D01*
X29188823Y4097550D01*
X29236544Y4285999D01*
X29236544Y4286000D01*
X28330703Y4286000D01*
X28365925Y4347007D01*
X28400000Y4474174D01*
X28400000Y4605826D01*
X28365925Y4732993D01*
X28330703Y4794000D01*
X29236544Y4794000D01*
X29188823Y4982449D01*
X29188820Y4982456D01*
X29098419Y5188548D01*
X28975325Y5376958D01*
X28822902Y5542534D01*
X28645301Y5680767D01*
X28611793Y5698901D01*
X28561403Y5748914D01*
X28546050Y5818230D01*
X28570610Y5884844D01*
X28611792Y5920528D01*
X28645576Y5938811D01*
X28774155Y6038889D01*
X28823237Y6077091D01*
X28975720Y6242729D01*
X28975724Y6242734D01*
X29098858Y6431206D01*
X29098860Y6431209D01*
X29189296Y6637384D01*
X29244564Y6855632D01*
X29263156Y7080000D01*
X29244564Y7304368D01*
X29189296Y7522616D01*
X29098860Y7728791D01*
X28975722Y7917268D01*
X28823240Y8082906D01*
X28645576Y8221189D01*
X28612319Y8239186D01*
X28561929Y8289198D01*
X28546576Y8358515D01*
X28571136Y8425128D01*
X28612320Y8460814D01*
X28645569Y8478807D01*
X28645570Y8478808D01*
X28645576Y8478811D01*
X28741382Y8553381D01*
X28823237Y8617091D01*
X28975720Y8782729D01*
X28975724Y8782734D01*
X29098858Y8971206D01*
X29098860Y8971209D01*
X29189296Y9177384D01*
X29213285Y9272112D01*
X29244562Y9395624D01*
X29244564Y9395632D01*
X29263156Y9620000D01*
X29244564Y9844368D01*
X29189296Y10062616D01*
X29098860Y10268791D01*
X28975722Y10457268D01*
X28823240Y10622906D01*
X28645576Y10761189D01*
X28447574Y10868342D01*
X28234635Y10941444D01*
X28012569Y10978500D01*
X27787431Y10978500D01*
X27565365Y10941444D01*
X27464227Y10906723D01*
X27352428Y10868343D01*
X27352427Y10868342D01*
X27352426Y10868342D01*
X27154424Y10761189D01*
X27031331Y10665381D01*
X26976762Y10622908D01*
X26824279Y10457270D01*
X26824275Y10457265D01*
X26701141Y10268793D01*
X26701140Y10268791D01*
X26611263Y10063889D01*
X26610703Y10062613D01*
X26610702Y10062612D01*
X26555437Y9844375D01*
X26555436Y9844370D01*
X26555436Y9844368D01*
X26536844Y9620000D01*
X20828305Y9620000D01*
X20913672Y9705367D01*
X20983001Y9809125D01*
X21030755Y9924415D01*
X21055100Y10046806D01*
X21055100Y10171594D01*
X21055100Y14551765D01*
X21074413Y14618801D01*
X21154641Y14746484D01*
X21154642Y14746487D01*
X21154643Y14746488D01*
X21214817Y14918456D01*
X21235216Y15099503D01*
X21214817Y15280550D01*
X21154643Y15452518D01*
X21057711Y15606784D01*
X20928881Y15735614D01*
X20774615Y15832546D01*
X20602647Y15892720D01*
X20421600Y15913119D01*
X20240553Y15892720D01*
X20068585Y15832546D01*
X20068582Y15832544D01*
X20068581Y15832544D01*
X19914320Y15735615D01*
X19914318Y15735614D01*
X19785488Y15606784D01*
X19785487Y15606782D01*
X19688558Y15452521D01*
X19688557Y15452518D01*
X19628383Y15280550D01*
X19607984Y15099503D01*
X19628383Y14918456D01*
X19628383Y14918453D01*
X19628384Y14918452D01*
X19688557Y14746487D01*
X19688558Y14746484D01*
X19768787Y14618801D01*
X19788100Y14551765D01*
X19788100Y10423794D01*
X19768098Y10355673D01*
X19751195Y10334699D01*
X19517130Y10100634D01*
X19454818Y10066608D01*
X19386423Y10070799D01*
X19332647Y10089617D01*
X19151600Y10110016D01*
X18970553Y10089617D01*
X18798585Y10029443D01*
X18798582Y10029441D01*
X18798581Y10029441D01*
X18644320Y9932512D01*
X18644318Y9932511D01*
X18515488Y9803681D01*
X18515487Y9803679D01*
X18418558Y9649418D01*
X18374713Y9524117D01*
X18333334Y9466426D01*
X18267334Y9440263D01*
X18241683Y9440524D01*
X18160998Y9449616D01*
X17979951Y9429217D01*
X17807983Y9369043D01*
X17807980Y9369041D01*
X17807979Y9369041D01*
X17653718Y9272112D01*
X17653716Y9272111D01*
X17524886Y9143281D01*
X17524885Y9143279D01*
X17427956Y8989018D01*
X17427955Y8989015D01*
X17367781Y8817047D01*
X17347382Y8636000D01*
X16007392Y8636000D01*
X15903083Y8740309D01*
X15748817Y8837241D01*
X15646612Y8873003D01*
X15599133Y8902835D01*
X14551643Y9950328D01*
X14435601Y10027865D01*
X14336062Y10069095D01*
X14306662Y10081273D01*
X14212127Y10100077D01*
X14169782Y10108500D01*
X14169781Y10108500D01*
X13328375Y10108500D01*
X13261337Y10127814D01*
X13260911Y10128081D01*
X13253015Y10133043D01*
X13081047Y10193217D01*
X12900000Y10213616D01*
X12718953Y10193217D01*
X12546985Y10133043D01*
X12546982Y10133041D01*
X12546981Y10133041D01*
X12392720Y10036112D01*
X12392718Y10036111D01*
X12263888Y9907281D01*
X12263887Y9907279D01*
X12166958Y9753018D01*
X12166957Y9753015D01*
X12120048Y9618955D01*
X12106783Y9581047D01*
X12086384Y9400000D01*
X12106783Y9218953D01*
X12106783Y9218950D01*
X12106784Y9218949D01*
X12166957Y9046984D01*
X12166958Y9046981D01*
X12263887Y8892720D01*
X12263888Y8892718D01*
X12392718Y8763888D01*
X12392720Y8763887D01*
X12546981Y8666958D01*
X12546984Y8666957D01*
X12718949Y8606784D01*
X12718950Y8606783D01*
X12718953Y8606783D01*
X12900000Y8586384D01*
X13081047Y8606783D01*
X13094468Y8611479D01*
X13253015Y8666957D01*
X13261337Y8672186D01*
X13328375Y8691500D01*
X13754339Y8691500D01*
X13822460Y8671498D01*
X13843429Y8654599D01*
X14223158Y8274871D01*
X14597163Y7900866D01*
X14626996Y7853387D01*
X14662760Y7751180D01*
X14674313Y7732794D01*
X14693619Y7664473D01*
X14672924Y7596560D01*
X14618797Y7550616D01*
X14567626Y7539758D01*
X12151039Y7539758D01*
X12011476Y7539758D01*
X11943036Y7526144D01*
X11884295Y7514460D01*
X11874595Y7512531D01*
X11840949Y7498594D01*
X11840941Y7498590D01*
X11840923Y7498583D01*
X11792884Y7478684D01*
X11758769Y7469886D01*
X11743958Y7468218D01*
X11743954Y7468217D01*
X11743953Y7468217D01*
X11743950Y7468216D01*
X11743946Y7468215D01*
X11712948Y7457368D01*
X11571985Y7408043D01*
X11571982Y7408041D01*
X11571981Y7408041D01*
X11417720Y7311112D01*
X11417718Y7311111D01*
X11288888Y7182281D01*
X11288887Y7182279D01*
X11191958Y7028018D01*
X11191957Y7028015D01*
X11131783Y6856047D01*
X11111384Y6675000D01*
X11131783Y6493953D01*
X11131783Y6493950D01*
X11131784Y6493949D01*
X11140999Y6467615D01*
X11144618Y6396710D01*
X11109329Y6335105D01*
X11046336Y6302359D01*
X11022070Y6300000D01*
X6400000Y6300000D01*
X6400000Y426000D01*
X6379998Y357879D01*
X6326342Y311386D01*
X6274000Y300000D01*
X426000Y300000D01*
X357879Y320002D01*
X311386Y373658D01*
X300000Y426000D01*
X300000Y9620000D01*
X1136844Y9620000D01*
X1152957Y9425546D01*
X1155437Y9395624D01*
X1210702Y9177387D01*
X1210703Y9177386D01*
X1301141Y8971206D01*
X1424275Y8782734D01*
X1424279Y8782729D01*
X1576762Y8617091D01*
X1723111Y8503183D01*
X1754424Y8478811D01*
X1754431Y8478807D01*
X1787680Y8460814D01*
X1838071Y8410800D01*
X1853423Y8341484D01*
X1828862Y8274871D01*
X1787680Y8239186D01*
X1754424Y8221189D01*
X1660054Y8147737D01*
X1576762Y8082908D01*
X1424279Y7917270D01*
X1424275Y7917265D01*
X1303755Y7732794D01*
X1301140Y7728791D01*
X1244648Y7600000D01*
X1210703Y7522613D01*
X1210702Y7522612D01*
X1155437Y7304375D01*
X1155436Y7304370D01*
X1155436Y7304368D01*
X1136844Y7080000D01*
X1155401Y6856050D01*
X1155437Y6855624D01*
X1210702Y6637387D01*
X1210703Y6637386D01*
X1301141Y6431206D01*
X1424275Y6242734D01*
X1424279Y6242729D01*
X1576762Y6077091D01*
X1754424Y5938811D01*
X1754430Y5938807D01*
X1788207Y5920528D01*
X1838597Y5870515D01*
X1853949Y5801198D01*
X1829388Y5734585D01*
X1788207Y5698902D01*
X1754704Y5680771D01*
X1754698Y5680767D01*
X1577097Y5542534D01*
X1424674Y5376958D01*
X1301580Y5188548D01*
X1211179Y4982456D01*
X1211176Y4982449D01*
X1163455Y4794000D01*
X2069297Y4794000D01*
X2034075Y4732993D01*
X2000000Y4605826D01*
X2000000Y4474174D01*
X2034075Y4347007D01*
X2069297Y4286000D01*
X1163456Y4286000D01*
X1163455Y4285999D01*
X1211176Y4097550D01*
X1211179Y4097543D01*
X1301580Y3891451D01*
X1424674Y3703041D01*
X1567981Y3547367D01*
X1599401Y3483701D01*
X1591414Y3413156D01*
X1546554Y3358127D01*
X1519312Y3343975D01*
X1403796Y3300889D01*
X1403792Y3300887D01*
X1286738Y3213261D01*
X1199112Y3096207D01*
X1199110Y3096202D01*
X1148011Y2959204D01*
X1148009Y2959196D01*
X1141500Y2898649D01*
X1141500Y1101350D01*
X1148009Y1040803D01*
X1148011Y1040795D01*
X1199110Y903797D01*
X1199112Y903792D01*
X1286738Y786738D01*
X1403792Y699112D01*
X1403797Y699110D01*
X1540795Y648011D01*
X1540803Y648009D01*
X1601350Y641500D01*
X1601362Y641500D01*
X3398649Y641500D01*
X3459196Y648009D01*
X3459204Y648011D01*
X3596202Y699110D01*
X3596207Y699112D01*
X3713261Y786738D01*
X3800887Y903792D01*
X3800889Y903797D01*
X3851988Y1040795D01*
X3851990Y1040803D01*
X3858499Y1101350D01*
X3858500Y1101367D01*
X3858500Y2898632D01*
X3858499Y2898649D01*
X3851990Y2959196D01*
X3851988Y2959204D01*
X3844960Y2978045D01*
X3800889Y3096204D01*
X3713261Y3213261D01*
X3596204Y3300889D01*
X3480684Y3343976D01*
X3423852Y3386521D01*
X3399041Y3453042D01*
X3414133Y3522416D01*
X3432018Y3547367D01*
X3575325Y3703041D01*
X3698419Y3891451D01*
X3788820Y4097543D01*
X3788823Y4097550D01*
X3836544Y4285999D01*
X3836544Y4286000D01*
X2930703Y4286000D01*
X2965925Y4347007D01*
X3000000Y4474174D01*
X3000000Y4605826D01*
X2965925Y4732993D01*
X2930703Y4794000D01*
X3836544Y4794000D01*
X3788823Y4982449D01*
X3788820Y4982456D01*
X3698419Y5188548D01*
X3575325Y5376958D01*
X3422902Y5542534D01*
X3245301Y5680767D01*
X3211793Y5698901D01*
X3161403Y5748914D01*
X3146050Y5818230D01*
X3170610Y5884844D01*
X3211792Y5920528D01*
X3245576Y5938811D01*
X3374155Y6038889D01*
X3423237Y6077091D01*
X3575720Y6242729D01*
X3575724Y6242734D01*
X3698858Y6431206D01*
X3698860Y6431209D01*
X3789296Y6637384D01*
X3844564Y6855632D01*
X3863156Y7080000D01*
X3844564Y7304368D01*
X3789296Y7522616D01*
X3698860Y7728791D01*
X3575722Y7917268D01*
X3423240Y8082906D01*
X3245576Y8221189D01*
X3212319Y8239186D01*
X3161929Y8289198D01*
X3146576Y8358515D01*
X3171136Y8425128D01*
X3212320Y8460814D01*
X3245569Y8478807D01*
X3245570Y8478808D01*
X3245576Y8478811D01*
X3341382Y8553381D01*
X3423237Y8617091D01*
X3575720Y8782729D01*
X3575724Y8782734D01*
X3698858Y8971206D01*
X3698860Y8971209D01*
X3789296Y9177384D01*
X3813285Y9272112D01*
X3844562Y9395624D01*
X3844564Y9395632D01*
X3863156Y9620000D01*
X3844564Y9844368D01*
X3789296Y10062616D01*
X3698860Y10268791D01*
X3575722Y10457268D01*
X3423240Y10622906D01*
X3324191Y10700000D01*
X4486384Y10700000D01*
X4506783Y10518953D01*
X4506783Y10518950D01*
X4506784Y10518949D01*
X4566957Y10346984D01*
X4566958Y10346981D01*
X4663887Y10192720D01*
X4663888Y10192718D01*
X4792718Y10063888D01*
X4792720Y10063887D01*
X4946981Y9966958D01*
X4946984Y9966957D01*
X5118949Y9906784D01*
X5118950Y9906783D01*
X5118953Y9906783D01*
X5300000Y9886384D01*
X5481047Y9906783D01*
X5482465Y9907279D01*
X5653015Y9966957D01*
X5653017Y9966958D01*
X5780701Y10047187D01*
X5847737Y10066500D01*
X6885406Y10066500D01*
X6953527Y10046498D01*
X6974496Y10029599D01*
X7139561Y9864535D01*
X7265657Y9738439D01*
X7299682Y9676127D01*
X7301768Y9663454D01*
X7306781Y9618963D01*
X7306784Y9618949D01*
X7366957Y9446986D01*
X7366958Y9446983D01*
X7463887Y9292722D01*
X7463888Y9292720D01*
X7592718Y9163890D01*
X7592720Y9163889D01*
X7746981Y9066960D01*
X7746984Y9066959D01*
X7918949Y9006786D01*
X7918950Y9006785D01*
X7918953Y9006785D01*
X8100000Y8986386D01*
X8100001Y8986386D01*
X8100003Y8986386D01*
X8126397Y8989359D01*
X8196328Y8977108D01*
X8248535Y8928993D01*
X8266500Y8864151D01*
X8266500Y8147737D01*
X8247187Y8080701D01*
X8166958Y7953017D01*
X8166957Y7953015D01*
X8106783Y7781047D01*
X8086384Y7600000D01*
X8106783Y7418953D01*
X8106783Y7418950D01*
X8106784Y7418949D01*
X8166957Y7246984D01*
X8166958Y7246981D01*
X8263887Y7092720D01*
X8263888Y7092718D01*
X8392718Y6963888D01*
X8392720Y6963887D01*
X8546981Y6866958D01*
X8546984Y6866957D01*
X8718949Y6806784D01*
X8718950Y6806783D01*
X8718953Y6806783D01*
X8900000Y6786384D01*
X9081047Y6806783D01*
X9221845Y6856050D01*
X9253015Y6866957D01*
X9253018Y6866958D01*
X9407279Y6963887D01*
X9407281Y6963888D01*
X9536111Y7092718D01*
X9536112Y7092720D01*
X9633041Y7246981D01*
X9633042Y7246984D01*
X9633043Y7246985D01*
X9693217Y7418953D01*
X9713616Y7600000D01*
X9693217Y7781047D01*
X9633043Y7953015D01*
X9572165Y8049902D01*
X9552813Y8080701D01*
X9533500Y8147737D01*
X9533500Y10062392D01*
X9533500Y10062394D01*
X9509155Y10184785D01*
X9461400Y10300075D01*
X9392071Y10403833D01*
X9303833Y10492071D01*
X9198327Y10597577D01*
X10171384Y10597577D01*
X10191783Y10416530D01*
X10191783Y10416527D01*
X10191784Y10416526D01*
X10251957Y10244561D01*
X10251958Y10244558D01*
X10348887Y10090297D01*
X10348888Y10090295D01*
X10477718Y9961465D01*
X10477720Y9961464D01*
X10631981Y9864535D01*
X10631984Y9864534D01*
X10803949Y9804361D01*
X10803950Y9804360D01*
X10803953Y9804360D01*
X10985000Y9783961D01*
X11166047Y9804360D01*
X11338015Y9864534D01*
X11338018Y9864535D01*
X11492279Y9961464D01*
X11492281Y9961465D01*
X11621111Y10090295D01*
X11621112Y10090297D01*
X11718041Y10244558D01*
X11718042Y10244561D01*
X11718043Y10244562D01*
X11778217Y10416530D01*
X11798616Y10597577D01*
X11778217Y10778624D01*
X11721244Y10941444D01*
X11715706Y10957272D01*
X11717897Y10958038D01*
X11708500Y10999167D01*
X11708500Y11571624D01*
X11727812Y11638658D01*
X11733040Y11646979D01*
X11733042Y11646984D01*
X11733043Y11646985D01*
X11793217Y11818953D01*
X11813616Y12000000D01*
X11793217Y12181047D01*
X11733043Y12353015D01*
X11636111Y12507281D01*
X11507281Y12636111D01*
X11353015Y12733043D01*
X11181047Y12793217D01*
X11000000Y12813616D01*
X10818953Y12793217D01*
X10646985Y12733043D01*
X10646982Y12733041D01*
X10646981Y12733041D01*
X10492720Y12636112D01*
X10492718Y12636111D01*
X10363888Y12507281D01*
X10363887Y12507279D01*
X10266958Y12353018D01*
X10266957Y12353015D01*
X10206783Y12181047D01*
X10186384Y12000000D01*
X10206783Y11818953D01*
X10206783Y11818950D01*
X10206784Y11818949D01*
X10266957Y11646984D01*
X10266959Y11646979D01*
X10272188Y11638658D01*
X10291500Y11571624D01*
X10291500Y11049824D01*
X10272187Y10982787D01*
X10251956Y10950591D01*
X10223176Y10868341D01*
X10191783Y10778624D01*
X10171384Y10597577D01*
X9198327Y10597577D01*
X8334340Y11461562D01*
X8300318Y11523871D01*
X8298230Y11536550D01*
X8294278Y11571624D01*
X8293217Y11581047D01*
X8233043Y11753015D01*
X8136111Y11907281D01*
X8007281Y12036111D01*
X7853015Y12133043D01*
X7681047Y12193217D01*
X7500000Y12213616D01*
X7318953Y12193217D01*
X7146985Y12133043D01*
X7146982Y12133041D01*
X7146981Y12133041D01*
X6992720Y12036112D01*
X6992718Y12036111D01*
X6863888Y11907281D01*
X6863887Y11907279D01*
X6766958Y11753018D01*
X6766957Y11753015D01*
X6729854Y11646979D01*
X6706783Y11581047D01*
X6691498Y11445390D01*
X6663995Y11379939D01*
X6605471Y11339747D01*
X6566291Y11333500D01*
X5847737Y11333500D01*
X5780701Y11352813D01*
X5705602Y11400000D01*
X5653015Y11433043D01*
X5481047Y11493217D01*
X5300000Y11513616D01*
X5118953Y11493217D01*
X4946985Y11433043D01*
X4946982Y11433041D01*
X4946981Y11433041D01*
X4792720Y11336112D01*
X4792718Y11336111D01*
X4663888Y11207281D01*
X4663887Y11207279D01*
X4566958Y11053018D01*
X4566957Y11053015D01*
X4506783Y10881047D01*
X4486384Y10700000D01*
X3324191Y10700000D01*
X3245576Y10761189D01*
X3047574Y10868342D01*
X2834635Y10941444D01*
X2612569Y10978500D01*
X2387431Y10978500D01*
X2165365Y10941444D01*
X2064227Y10906723D01*
X1952428Y10868343D01*
X1952427Y10868342D01*
X1952426Y10868342D01*
X1754424Y10761189D01*
X1631331Y10665381D01*
X1576762Y10622908D01*
X1424279Y10457270D01*
X1424275Y10457265D01*
X1301141Y10268793D01*
X1301140Y10268791D01*
X1211263Y10063889D01*
X1210703Y10062613D01*
X1210702Y10062612D01*
X1155437Y9844375D01*
X1155436Y9844370D01*
X1155436Y9844368D01*
X1136844Y9620000D01*
X300000Y9620000D01*
X300000Y15096368D01*
X7972877Y15096368D01*
X7993276Y14915321D01*
X7993276Y14915318D01*
X7993277Y14915317D01*
X8053449Y14743353D01*
X8053451Y14743350D01*
X8086898Y14690118D01*
X8106203Y14621796D01*
X8099139Y14581469D01*
X8064000Y14481047D01*
X8043601Y14300000D01*
X8064000Y14118953D01*
X8064000Y14118950D01*
X8064001Y14118949D01*
X8124174Y13946984D01*
X8124175Y13946981D01*
X8221104Y13792720D01*
X8221105Y13792718D01*
X8349935Y13663888D01*
X8349937Y13663887D01*
X8504198Y13566958D01*
X8504201Y13566957D01*
X8676166Y13506784D01*
X8676167Y13506783D01*
X8676170Y13506783D01*
X8857217Y13486384D01*
X9038264Y13506783D01*
X9210232Y13566957D01*
X9210234Y13566958D01*
X9337918Y13647187D01*
X9404954Y13666500D01*
X10352263Y13666500D01*
X10419299Y13647187D01*
X10546982Y13566958D01*
X10546984Y13566957D01*
X10718949Y13506784D01*
X10718950Y13506783D01*
X10718953Y13506783D01*
X10900000Y13486384D01*
X11081047Y13506783D01*
X11253015Y13566957D01*
X11253018Y13566958D01*
X11407279Y13663887D01*
X11407281Y13663888D01*
X11536111Y13792718D01*
X11536112Y13792720D01*
X11633041Y13946981D01*
X11633042Y13946984D01*
X11633043Y13946985D01*
X11693217Y14118953D01*
X11713616Y14300000D01*
X11693217Y14481047D01*
X11633043Y14653015D01*
X11633039Y14653020D01*
X11631250Y14658135D01*
X11627630Y14729040D01*
X11631250Y14741366D01*
X11633042Y14746487D01*
X11633043Y14746488D01*
X11693217Y14918456D01*
X11713616Y15099503D01*
X11693217Y15280550D01*
X11633043Y15452518D01*
X11536111Y15606784D01*
X11407281Y15735614D01*
X11253015Y15832546D01*
X11081047Y15892720D01*
X10900000Y15913119D01*
X10718953Y15892720D01*
X10546985Y15832546D01*
X10546982Y15832544D01*
X10546981Y15832544D01*
X10414309Y15749181D01*
X10347273Y15729868D01*
X9334230Y15729868D01*
X9267194Y15749181D01*
X9208300Y15786185D01*
X9139508Y15829411D01*
X8967540Y15889585D01*
X8786493Y15909984D01*
X8605446Y15889585D01*
X8433478Y15829411D01*
X8433475Y15829409D01*
X8433474Y15829409D01*
X8279213Y15732480D01*
X8279211Y15732479D01*
X8150381Y15603649D01*
X8150380Y15603647D01*
X8053451Y15449386D01*
X8053450Y15449383D01*
X7993276Y15277415D01*
X7972877Y15096368D01*
X300000Y15096368D01*
X300000Y16574000D01*
X320002Y16642121D01*
X373658Y16688614D01*
X426000Y16700000D01*
X30074000Y16700000D01*
X30142121Y16679998D01*
G37*
%TD.AperFunction*%
%TD*%
M02*
