G04 #@! TF.GenerationSoftware,KiCad,Pcbnew,5.1.10-88a1d61d58~88~ubuntu18.04.1*
G04 #@! TF.CreationDate,2021-10-17T09:44:06+02:00*
G04 #@! TF.ProjectId,HB-UNI-SEN-BATT_E07-868MS10_FUEL4EP,48422d55-4e49-42d5-9345-4e2d42415454,rev?*
G04 #@! TF.SameCoordinates,Original*
G04 #@! TF.FileFunction,Soldermask,Bot*
G04 #@! TF.FilePolarity,Negative*
%FSLAX46Y46*%
G04 Gerber Fmt 4.6, Leading zero omitted, Abs format (unit mm)*
G04 Created by KiCad (PCBNEW 5.1.10-88a1d61d58~88~ubuntu18.04.1) date 2021-10-17 09:44:06*
%MOMM*%
%LPD*%
G01*
G04 APERTURE LIST*
%ADD10O,1.700000X1.700000*%
%ADD11R,1.700000X1.700000*%
%ADD12O,1.350000X1.350000*%
%ADD13R,1.350000X1.350000*%
%ADD14R,2.000000X2.000000*%
%ADD15C,2.000000*%
%ADD16C,2.640000*%
%ADD17C,3.000000*%
%ADD18C,1.000000*%
%ADD19C,0.700000*%
%ADD20C,4.400000*%
%ADD21R,1.000000X1.500000*%
%ADD22O,1.600000X1.600000*%
%ADD23C,1.600000*%
%ADD24O,1.717500X1.800000*%
%ADD25R,1.717500X1.800000*%
%ADD26C,1.800000*%
%ADD27R,1.800000X1.800000*%
%ADD28C,1.200000*%
%ADD29R,1.200000X1.200000*%
G04 APERTURE END LIST*
D10*
X171069000Y-81343500D03*
X168529000Y-81343500D03*
D11*
X165989000Y-81343500D03*
D12*
X141901700Y-130670300D03*
X139901700Y-130670300D03*
X137901700Y-130670300D03*
X135901700Y-130670300D03*
X133901700Y-130670300D03*
X131901700Y-130670300D03*
X129901700Y-130670300D03*
D13*
X127901700Y-130670300D03*
D14*
X112420000Y-138900000D03*
D15*
X112420000Y-86910000D03*
D16*
X118415000Y-89670000D03*
X106425000Y-136150000D03*
D14*
X164490000Y-86860000D03*
D15*
X164490000Y-138850000D03*
D16*
X158495000Y-136090000D03*
X170485000Y-89610000D03*
D17*
X123800000Y-115470000D03*
D18*
X123800000Y-117750000D03*
X140260000Y-116310000D03*
X140260000Y-117580000D03*
X140260000Y-118850000D03*
X140260000Y-120120000D03*
X140260000Y-121390000D03*
X140260000Y-122660000D03*
X140260000Y-123930000D03*
X140260000Y-125200000D03*
D19*
X162272800Y-148477200D03*
X161000000Y-147950000D03*
X159727200Y-148477200D03*
X159200000Y-149750000D03*
X159727200Y-151022800D03*
X161000000Y-151550000D03*
X162272800Y-151022800D03*
X162800000Y-149750000D03*
D20*
X161000000Y-149750000D03*
D19*
X117272800Y-148477200D03*
X116000000Y-147950000D03*
X114727200Y-148477200D03*
X114200000Y-149750000D03*
X114727200Y-151022800D03*
X116000000Y-151550000D03*
X117272800Y-151022800D03*
X117800000Y-149750000D03*
D20*
X116000000Y-149750000D03*
D19*
X162272800Y-79977200D03*
X161000000Y-79450000D03*
X159727200Y-79977200D03*
X159200000Y-81250000D03*
X159727200Y-82522800D03*
X161000000Y-83050000D03*
X162272800Y-82522800D03*
X162800000Y-81250000D03*
D20*
X161000000Y-81250000D03*
D19*
X117272800Y-79977200D03*
X116000000Y-79450000D03*
X114727200Y-79977200D03*
X114200000Y-81250000D03*
X114727200Y-82522800D03*
X116000000Y-83050000D03*
X117272800Y-82522800D03*
X117800000Y-81250000D03*
D20*
X116000000Y-81250000D03*
D15*
X153185000Y-93345000D03*
X153185000Y-97845000D03*
X146685000Y-93345000D03*
X146685000Y-97845000D03*
D21*
X109200000Y-149225000D03*
X110500000Y-149225000D03*
D22*
X147320000Y-125095000D03*
D23*
X147320000Y-122555000D03*
D22*
X151130000Y-125095000D03*
D23*
X151130000Y-122555000D03*
D22*
X116840000Y-144780000D03*
D23*
X119380000Y-144780000D03*
D22*
X146050000Y-89535000D03*
D23*
X146050000Y-86995000D03*
D24*
X112530000Y-144780000D03*
X110240000Y-144780000D03*
D25*
X107950000Y-144780000D03*
D26*
X146050000Y-83820000D03*
D27*
X146050000Y-81280000D03*
D28*
X147955000Y-130405000D03*
D29*
X147955000Y-128905000D03*
D26*
X139700000Y-80010000D03*
X137160000Y-80010000D03*
X134620000Y-80010000D03*
X132080000Y-80010000D03*
X129540000Y-80010000D03*
X127000000Y-80010000D03*
X128270000Y-110490000D03*
X130810000Y-110490000D03*
X133350000Y-110490000D03*
X138430000Y-91440000D03*
X138430000Y-93980000D03*
X125730000Y-110490000D03*
X125730000Y-107950000D03*
X125730000Y-105410000D03*
X125730000Y-102870000D03*
X125730000Y-100330000D03*
X125730000Y-97790000D03*
X125730000Y-95250000D03*
X125730000Y-92710000D03*
X125730000Y-90170000D03*
X125730000Y-87630000D03*
X125730000Y-85090000D03*
X125730000Y-82550000D03*
X140970000Y-82550000D03*
X140970000Y-85090000D03*
X140970000Y-87630000D03*
X140970000Y-90170000D03*
X140970000Y-92710000D03*
X140970000Y-95250000D03*
X140970000Y-97790000D03*
X140970000Y-100330000D03*
X140970000Y-102870000D03*
X140970000Y-105410000D03*
X140970000Y-107950000D03*
X140970000Y-110490000D03*
X138430000Y-110490000D03*
X135890000Y-110490000D03*
X138430000Y-88900000D03*
X138430000Y-86360000D03*
D10*
X151130000Y-140970000D03*
X151130000Y-143510000D03*
X151130000Y-146050000D03*
D11*
X151130000Y-148590000D03*
D10*
X140970000Y-140970000D03*
X140970000Y-143510000D03*
X140970000Y-146050000D03*
D11*
X140970000Y-148590000D03*
D10*
X135890000Y-140970000D03*
X135890000Y-143510000D03*
X135890000Y-146050000D03*
D11*
X135890000Y-148590000D03*
D10*
X125730000Y-140970000D03*
X125730000Y-143510000D03*
X125730000Y-146050000D03*
D11*
X125730000Y-148590000D03*
D10*
X170180000Y-144780000D03*
X167640000Y-144780000D03*
X165100000Y-144780000D03*
X162560000Y-144780000D03*
X160020000Y-144780000D03*
D11*
X157480000Y-144780000D03*
D10*
X152400000Y-106680000D03*
D11*
X152400000Y-104140000D03*
D10*
X147320000Y-106680000D03*
D11*
X147320000Y-104140000D03*
D10*
X152400000Y-116205000D03*
D11*
X152400000Y-113665000D03*
D10*
X147320000Y-116205000D03*
D11*
X147320000Y-113665000D03*
M02*
