G04 #@! TF.GenerationSoftware,KiCad,Pcbnew,5.1.10-88a1d61d58~88~ubuntu18.04.1*
G04 #@! TF.CreationDate,2021-10-13T19:09:58+02:00*
G04 #@! TF.ProjectId,HB-UNI-SEN-BATT_E07-868MS10_FUEL4EP,48422d55-4e49-42d5-9345-4e2d42415454,rev?*
G04 #@! TF.SameCoordinates,Original*
G04 #@! TF.FileFunction,Legend,Top*
G04 #@! TF.FilePolarity,Positive*
%FSLAX46Y46*%
G04 Gerber Fmt 4.6, Leading zero omitted, Abs format (unit mm)*
G04 Created by KiCad (PCBNEW 5.1.10-88a1d61d58~88~ubuntu18.04.1) date 2021-10-13 19:09:58*
%MOMM*%
%LPD*%
G01*
G04 APERTURE LIST*
%ADD10C,0.152400*%
%ADD11C,0.100000*%
%ADD12C,0.150000*%
%ADD13C,0.300000*%
%ADD14C,0.200000*%
%ADD15C,0.120000*%
%ADD16C,0.800000*%
%ADD17C,0.010000*%
%ADD18O,1.350000X1.350000*%
%ADD19R,1.350000X1.350000*%
%ADD20R,2.000000X2.000000*%
%ADD21C,2.000000*%
%ADD22C,2.640000*%
%ADD23C,3.000000*%
%ADD24R,2.170000X1.000000*%
%ADD25C,1.000000*%
%ADD26C,0.700000*%
%ADD27C,4.400000*%
%ADD28R,1.500000X1.000000*%
%ADD29O,1.600000X1.600000*%
%ADD30C,1.600000*%
%ADD31O,1.717500X1.800000*%
%ADD32R,1.717500X1.800000*%
%ADD33C,1.800000*%
%ADD34R,1.800000X1.800000*%
%ADD35C,1.200000*%
%ADD36R,1.200000X1.200000*%
%ADD37O,1.700000X1.700000*%
%ADD38R,1.700000X1.700000*%
G04 APERTURE END LIST*
D10*
X148638985Y-96315590D02*
X148561576Y-96354295D01*
X148406757Y-96354295D01*
X148329347Y-96315590D01*
X148290642Y-96276885D01*
X148251938Y-96199476D01*
X148251938Y-95967247D01*
X148290642Y-95889838D01*
X148329347Y-95851133D01*
X148406757Y-95812428D01*
X148561576Y-95812428D01*
X148638985Y-95851133D01*
X149103442Y-96354295D02*
X149026033Y-96315590D01*
X148987328Y-96276885D01*
X148948623Y-96199476D01*
X148948623Y-95967247D01*
X148987328Y-95889838D01*
X149026033Y-95851133D01*
X149103442Y-95812428D01*
X149219557Y-95812428D01*
X149296966Y-95851133D01*
X149335671Y-95889838D01*
X149374376Y-95967247D01*
X149374376Y-96199476D01*
X149335671Y-96276885D01*
X149296966Y-96315590D01*
X149219557Y-96354295D01*
X149103442Y-96354295D01*
X149722719Y-95812428D02*
X149722719Y-96354295D01*
X149722719Y-95889838D02*
X149761423Y-95851133D01*
X149838833Y-95812428D01*
X149954947Y-95812428D01*
X150032357Y-95851133D01*
X150071061Y-95928542D01*
X150071061Y-96354295D01*
X150341995Y-95812428D02*
X150651633Y-95812428D01*
X150458109Y-96354295D02*
X150458109Y-95657609D01*
X150496814Y-95580200D01*
X150574223Y-95541495D01*
X150651633Y-95541495D01*
X150922566Y-96354295D02*
X150922566Y-95812428D01*
X150922566Y-95541495D02*
X150883861Y-95580200D01*
X150922566Y-95618904D01*
X150961271Y-95580200D01*
X150922566Y-95541495D01*
X150922566Y-95618904D01*
X151657957Y-95812428D02*
X151657957Y-96470409D01*
X151619252Y-96547819D01*
X151580547Y-96586523D01*
X151503138Y-96625228D01*
X151387023Y-96625228D01*
X151309614Y-96586523D01*
X151657957Y-96315590D02*
X151580547Y-96354295D01*
X151425728Y-96354295D01*
X151348319Y-96315590D01*
X151309614Y-96276885D01*
X151270909Y-96199476D01*
X151270909Y-95967247D01*
X151309614Y-95889838D01*
X151348319Y-95851133D01*
X151425728Y-95812428D01*
X151580547Y-95812428D01*
X151657957Y-95851133D01*
X130181047Y-129056190D02*
X130103638Y-129094895D01*
X129948819Y-129094895D01*
X129871409Y-129056190D01*
X129832704Y-128978780D01*
X129832704Y-128669142D01*
X129871409Y-128591733D01*
X129948819Y-128553028D01*
X130103638Y-128553028D01*
X130181047Y-128591733D01*
X130219752Y-128669142D01*
X130219752Y-128746552D01*
X129832704Y-128823961D01*
X130568095Y-129094895D02*
X130568095Y-128282095D01*
X130877733Y-128282095D01*
X130955142Y-128320800D01*
X130993847Y-128359504D01*
X131032552Y-128436914D01*
X131032552Y-128553028D01*
X130993847Y-128630438D01*
X130955142Y-128669142D01*
X130877733Y-128707847D01*
X130568095Y-128707847D01*
X131729238Y-129094895D02*
X131729238Y-128669142D01*
X131690533Y-128591733D01*
X131613123Y-128553028D01*
X131458304Y-128553028D01*
X131380895Y-128591733D01*
X131729238Y-129056190D02*
X131651828Y-129094895D01*
X131458304Y-129094895D01*
X131380895Y-129056190D01*
X131342190Y-128978780D01*
X131342190Y-128901371D01*
X131380895Y-128823961D01*
X131458304Y-128785257D01*
X131651828Y-128785257D01*
X131729238Y-128746552D01*
X132116285Y-128553028D02*
X132116285Y-129365828D01*
X132116285Y-128591733D02*
X132193695Y-128553028D01*
X132348514Y-128553028D01*
X132425923Y-128591733D01*
X132464628Y-128630438D01*
X132503333Y-128707847D01*
X132503333Y-128940076D01*
X132464628Y-129017485D01*
X132425923Y-129056190D01*
X132348514Y-129094895D01*
X132193695Y-129094895D01*
X132116285Y-129056190D01*
X133161314Y-129056190D02*
X133083904Y-129094895D01*
X132929085Y-129094895D01*
X132851676Y-129056190D01*
X132812971Y-128978780D01*
X132812971Y-128669142D01*
X132851676Y-128591733D01*
X132929085Y-128553028D01*
X133083904Y-128553028D01*
X133161314Y-128591733D01*
X133200019Y-128669142D01*
X133200019Y-128746552D01*
X132812971Y-128823961D01*
X133548361Y-129094895D02*
X133548361Y-128553028D01*
X133548361Y-128707847D02*
X133587066Y-128630438D01*
X133625771Y-128591733D01*
X133703180Y-128553028D01*
X133780590Y-128553028D01*
X135019142Y-129056190D02*
X134941733Y-129094895D01*
X134786914Y-129094895D01*
X134709504Y-129056190D01*
X134670800Y-129017485D01*
X134632095Y-128940076D01*
X134632095Y-128707847D01*
X134670800Y-128630438D01*
X134709504Y-128591733D01*
X134786914Y-128553028D01*
X134941733Y-128553028D01*
X135019142Y-128591733D01*
X135483600Y-129094895D02*
X135406190Y-129056190D01*
X135367485Y-129017485D01*
X135328780Y-128940076D01*
X135328780Y-128707847D01*
X135367485Y-128630438D01*
X135406190Y-128591733D01*
X135483600Y-128553028D01*
X135599714Y-128553028D01*
X135677123Y-128591733D01*
X135715828Y-128630438D01*
X135754533Y-128707847D01*
X135754533Y-128940076D01*
X135715828Y-129017485D01*
X135677123Y-129056190D01*
X135599714Y-129094895D01*
X135483600Y-129094895D01*
X136102876Y-128553028D02*
X136102876Y-129094895D01*
X136102876Y-128630438D02*
X136141580Y-128591733D01*
X136218990Y-128553028D01*
X136335104Y-128553028D01*
X136412514Y-128591733D01*
X136451219Y-128669142D01*
X136451219Y-129094895D01*
X136838266Y-128553028D02*
X136838266Y-129094895D01*
X136838266Y-128630438D02*
X136876971Y-128591733D01*
X136954380Y-128553028D01*
X137070495Y-128553028D01*
X137147904Y-128591733D01*
X137186609Y-128669142D01*
X137186609Y-129094895D01*
X137883295Y-129056190D02*
X137805885Y-129094895D01*
X137651066Y-129094895D01*
X137573657Y-129056190D01*
X137534952Y-128978780D01*
X137534952Y-128669142D01*
X137573657Y-128591733D01*
X137651066Y-128553028D01*
X137805885Y-128553028D01*
X137883295Y-128591733D01*
X137922000Y-128669142D01*
X137922000Y-128746552D01*
X137534952Y-128823961D01*
X138618685Y-129056190D02*
X138541276Y-129094895D01*
X138386457Y-129094895D01*
X138309047Y-129056190D01*
X138270342Y-129017485D01*
X138231638Y-128940076D01*
X138231638Y-128707847D01*
X138270342Y-128630438D01*
X138309047Y-128591733D01*
X138386457Y-128553028D01*
X138541276Y-128553028D01*
X138618685Y-128591733D01*
X138850914Y-128553028D02*
X139160552Y-128553028D01*
X138967028Y-128282095D02*
X138967028Y-128978780D01*
X139005733Y-129056190D01*
X139083142Y-129094895D01*
X139160552Y-129094895D01*
X139547600Y-129094895D02*
X139470190Y-129056190D01*
X139431485Y-129017485D01*
X139392780Y-128940076D01*
X139392780Y-128707847D01*
X139431485Y-128630438D01*
X139470190Y-128591733D01*
X139547600Y-128553028D01*
X139663714Y-128553028D01*
X139741123Y-128591733D01*
X139779828Y-128630438D01*
X139818533Y-128707847D01*
X139818533Y-128940076D01*
X139779828Y-129017485D01*
X139741123Y-129056190D01*
X139663714Y-129094895D01*
X139547600Y-129094895D01*
X140166876Y-129094895D02*
X140166876Y-128553028D01*
X140166876Y-128707847D02*
X140205580Y-128630438D01*
X140244285Y-128591733D01*
X140321695Y-128553028D01*
X140399104Y-128553028D01*
D11*
X141109800Y-131967328D02*
X141309800Y-132567328D01*
X141509800Y-131967328D01*
X142052657Y-132510185D02*
X142024085Y-132538757D01*
X141938371Y-132567328D01*
X141881228Y-132567328D01*
X141795514Y-132538757D01*
X141738371Y-132481614D01*
X141709800Y-132424471D01*
X141681228Y-132310185D01*
X141681228Y-132224471D01*
X141709800Y-132110185D01*
X141738371Y-132053042D01*
X141795514Y-131995900D01*
X141881228Y-131967328D01*
X141938371Y-131967328D01*
X142024085Y-131995900D01*
X142052657Y-132024471D01*
X142652657Y-132510185D02*
X142624085Y-132538757D01*
X142538371Y-132567328D01*
X142481228Y-132567328D01*
X142395514Y-132538757D01*
X142338371Y-132481614D01*
X142309800Y-132424471D01*
X142281228Y-132310185D01*
X142281228Y-132224471D01*
X142309800Y-132110185D01*
X142338371Y-132053042D01*
X142395514Y-131995900D01*
X142481228Y-131967328D01*
X142538371Y-131967328D01*
X142624085Y-131995900D01*
X142652657Y-132024471D01*
X139522257Y-131995900D02*
X139465114Y-131967328D01*
X139379400Y-131967328D01*
X139293685Y-131995900D01*
X139236542Y-132053042D01*
X139207971Y-132110185D01*
X139179400Y-132224471D01*
X139179400Y-132310185D01*
X139207971Y-132424471D01*
X139236542Y-132481614D01*
X139293685Y-132538757D01*
X139379400Y-132567328D01*
X139436542Y-132567328D01*
X139522257Y-132538757D01*
X139550828Y-132510185D01*
X139550828Y-132310185D01*
X139436542Y-132310185D01*
X139807971Y-132567328D02*
X139807971Y-131967328D01*
X140150828Y-132567328D01*
X140150828Y-131967328D01*
X140436542Y-132567328D02*
X140436542Y-131967328D01*
X140579400Y-131967328D01*
X140665114Y-131995900D01*
X140722257Y-132053042D01*
X140750828Y-132110185D01*
X140779400Y-132224471D01*
X140779400Y-132310185D01*
X140750828Y-132424471D01*
X140722257Y-132481614D01*
X140665114Y-132538757D01*
X140579400Y-132567328D01*
X140436542Y-132567328D01*
X136915642Y-132541928D02*
X136915642Y-131941928D01*
X137115642Y-132370500D01*
X137315642Y-131941928D01*
X137315642Y-132541928D01*
X137715642Y-131941928D02*
X137829928Y-131941928D01*
X137887071Y-131970500D01*
X137944214Y-132027642D01*
X137972785Y-132141928D01*
X137972785Y-132341928D01*
X137944214Y-132456214D01*
X137887071Y-132513357D01*
X137829928Y-132541928D01*
X137715642Y-132541928D01*
X137658500Y-132513357D01*
X137601357Y-132456214D01*
X137572785Y-132341928D01*
X137572785Y-132141928D01*
X137601357Y-132027642D01*
X137658500Y-131970500D01*
X137715642Y-131941928D01*
X138201357Y-132513357D02*
X138287071Y-132541928D01*
X138429928Y-132541928D01*
X138487071Y-132513357D01*
X138515642Y-132484785D01*
X138544214Y-132427642D01*
X138544214Y-132370500D01*
X138515642Y-132313357D01*
X138487071Y-132284785D01*
X138429928Y-132256214D01*
X138315642Y-132227642D01*
X138258500Y-132199071D01*
X138229928Y-132170500D01*
X138201357Y-132113357D01*
X138201357Y-132056214D01*
X138229928Y-131999071D01*
X138258500Y-131970500D01*
X138315642Y-131941928D01*
X138458500Y-131941928D01*
X138544214Y-131970500D01*
X138801357Y-132541928D02*
X138801357Y-131941928D01*
X135042371Y-132513357D02*
X135128085Y-132541928D01*
X135270942Y-132541928D01*
X135328085Y-132513357D01*
X135356657Y-132484785D01*
X135385228Y-132427642D01*
X135385228Y-132370500D01*
X135356657Y-132313357D01*
X135328085Y-132284785D01*
X135270942Y-132256214D01*
X135156657Y-132227642D01*
X135099514Y-132199071D01*
X135070942Y-132170500D01*
X135042371Y-132113357D01*
X135042371Y-132056214D01*
X135070942Y-131999071D01*
X135099514Y-131970500D01*
X135156657Y-131941928D01*
X135299514Y-131941928D01*
X135385228Y-131970500D01*
X135985228Y-132484785D02*
X135956657Y-132513357D01*
X135870942Y-132541928D01*
X135813800Y-132541928D01*
X135728085Y-132513357D01*
X135670942Y-132456214D01*
X135642371Y-132399071D01*
X135613800Y-132284785D01*
X135613800Y-132199071D01*
X135642371Y-132084785D01*
X135670942Y-132027642D01*
X135728085Y-131970500D01*
X135813800Y-131941928D01*
X135870942Y-131941928D01*
X135956657Y-131970500D01*
X135985228Y-131999071D01*
X136242371Y-132541928D02*
X136242371Y-131941928D01*
X136585228Y-132541928D02*
X136328085Y-132199071D01*
X136585228Y-131941928D02*
X136242371Y-132284785D01*
X133415142Y-132580028D02*
X133415142Y-131980028D01*
X133558000Y-131980028D01*
X133643714Y-132008600D01*
X133700857Y-132065742D01*
X133729428Y-132122885D01*
X133758000Y-132237171D01*
X133758000Y-132322885D01*
X133729428Y-132437171D01*
X133700857Y-132494314D01*
X133643714Y-132551457D01*
X133558000Y-132580028D01*
X133415142Y-132580028D01*
X134300857Y-131980028D02*
X134015142Y-131980028D01*
X133986571Y-132265742D01*
X134015142Y-132237171D01*
X134072285Y-132208600D01*
X134215142Y-132208600D01*
X134272285Y-132237171D01*
X134300857Y-132265742D01*
X134329428Y-132322885D01*
X134329428Y-132465742D01*
X134300857Y-132522885D01*
X134272285Y-132551457D01*
X134215142Y-132580028D01*
X134072285Y-132580028D01*
X134015142Y-132551457D01*
X133986571Y-132522885D01*
X130908542Y-132554628D02*
X130908542Y-131954628D01*
X131108542Y-132383200D01*
X131308542Y-131954628D01*
X131308542Y-132554628D01*
X131594257Y-132554628D02*
X131594257Y-131954628D01*
X131851400Y-132526057D02*
X131937114Y-132554628D01*
X132079971Y-132554628D01*
X132137114Y-132526057D01*
X132165685Y-132497485D01*
X132194257Y-132440342D01*
X132194257Y-132383200D01*
X132165685Y-132326057D01*
X132137114Y-132297485D01*
X132079971Y-132268914D01*
X131965685Y-132240342D01*
X131908542Y-132211771D01*
X131879971Y-132183200D01*
X131851400Y-132126057D01*
X131851400Y-132068914D01*
X131879971Y-132011771D01*
X131908542Y-131983200D01*
X131965685Y-131954628D01*
X132108542Y-131954628D01*
X132194257Y-131983200D01*
X132565685Y-131954628D02*
X132679971Y-131954628D01*
X132737114Y-131983200D01*
X132794257Y-132040342D01*
X132822828Y-132154628D01*
X132822828Y-132354628D01*
X132794257Y-132468914D01*
X132737114Y-132526057D01*
X132679971Y-132554628D01*
X132565685Y-132554628D01*
X132508542Y-132526057D01*
X132451400Y-132468914D01*
X132422828Y-132354628D01*
X132422828Y-132154628D01*
X132451400Y-132040342D01*
X132508542Y-131983200D01*
X132565685Y-131954628D01*
X129363842Y-132554628D02*
X129363842Y-131954628D01*
X129506700Y-131954628D01*
X129592414Y-131983200D01*
X129649557Y-132040342D01*
X129678128Y-132097485D01*
X129706700Y-132211771D01*
X129706700Y-132297485D01*
X129678128Y-132411771D01*
X129649557Y-132468914D01*
X129592414Y-132526057D01*
X129506700Y-132554628D01*
X129363842Y-132554628D01*
X130220985Y-131954628D02*
X130106700Y-131954628D01*
X130049557Y-131983200D01*
X130020985Y-132011771D01*
X129963842Y-132097485D01*
X129935271Y-132211771D01*
X129935271Y-132440342D01*
X129963842Y-132497485D01*
X129992414Y-132526057D01*
X130049557Y-132554628D01*
X130163842Y-132554628D01*
X130220985Y-132526057D01*
X130249557Y-132497485D01*
X130278128Y-132440342D01*
X130278128Y-132297485D01*
X130249557Y-132240342D01*
X130220985Y-132211771D01*
X130163842Y-132183200D01*
X130049557Y-132183200D01*
X129992414Y-132211771D01*
X129963842Y-132240342D01*
X129935271Y-132297485D01*
X127484242Y-132554628D02*
X127484242Y-131954628D01*
X127627100Y-131954628D01*
X127712814Y-131983200D01*
X127769957Y-132040342D01*
X127798528Y-132097485D01*
X127827100Y-132211771D01*
X127827100Y-132297485D01*
X127798528Y-132411771D01*
X127769957Y-132468914D01*
X127712814Y-132526057D01*
X127627100Y-132554628D01*
X127484242Y-132554628D01*
X128027100Y-131954628D02*
X128427100Y-131954628D01*
X128169957Y-132554628D01*
D12*
X164683000Y-150290966D02*
X164683000Y-149590966D01*
X164983000Y-150257633D02*
X165083000Y-150290966D01*
X165249666Y-150290966D01*
X165316333Y-150257633D01*
X165349666Y-150224300D01*
X165383000Y-150157633D01*
X165383000Y-150090966D01*
X165349666Y-150024300D01*
X165316333Y-149990966D01*
X165249666Y-149957633D01*
X165116333Y-149924300D01*
X165049666Y-149890966D01*
X165016333Y-149857633D01*
X164983000Y-149790966D01*
X164983000Y-149724300D01*
X165016333Y-149657633D01*
X165049666Y-149624300D01*
X165116333Y-149590966D01*
X165283000Y-149590966D01*
X165383000Y-149624300D01*
X165683000Y-150290966D02*
X165683000Y-149590966D01*
X165949666Y-149590966D01*
X166016333Y-149624300D01*
X166049666Y-149657633D01*
X166083000Y-149724300D01*
X166083000Y-149824300D01*
X166049666Y-149890966D01*
X166016333Y-149924300D01*
X165949666Y-149957633D01*
X165683000Y-149957633D01*
X166916333Y-149824300D02*
X166916333Y-150524300D01*
X166916333Y-149857633D02*
X166983000Y-149824300D01*
X167116333Y-149824300D01*
X167183000Y-149857633D01*
X167216333Y-149890966D01*
X167249666Y-149957633D01*
X167249666Y-150157633D01*
X167216333Y-150224300D01*
X167183000Y-150257633D01*
X167116333Y-150290966D01*
X166983000Y-150290966D01*
X166916333Y-150257633D01*
X167549666Y-150290966D02*
X167549666Y-149824300D01*
X167549666Y-149957633D02*
X167583000Y-149890966D01*
X167616333Y-149857633D01*
X167683000Y-149824300D01*
X167749666Y-149824300D01*
X168083000Y-150290966D02*
X168016333Y-150257633D01*
X167983000Y-150224300D01*
X167949666Y-150157633D01*
X167949666Y-149957633D01*
X167983000Y-149890966D01*
X168016333Y-149857633D01*
X168083000Y-149824300D01*
X168183000Y-149824300D01*
X168249666Y-149857633D01*
X168283000Y-149890966D01*
X168316333Y-149957633D01*
X168316333Y-150157633D01*
X168283000Y-150224300D01*
X168249666Y-150257633D01*
X168183000Y-150290966D01*
X168083000Y-150290966D01*
X168916333Y-149824300D02*
X168916333Y-150390966D01*
X168883000Y-150457633D01*
X168849666Y-150490966D01*
X168783000Y-150524300D01*
X168683000Y-150524300D01*
X168616333Y-150490966D01*
X168916333Y-150257633D02*
X168849666Y-150290966D01*
X168716333Y-150290966D01*
X168649666Y-150257633D01*
X168616333Y-150224300D01*
X168583000Y-150157633D01*
X168583000Y-149957633D01*
X168616333Y-149890966D01*
X168649666Y-149857633D01*
X168716333Y-149824300D01*
X168849666Y-149824300D01*
X168916333Y-149857633D01*
X169249666Y-150290966D02*
X169249666Y-149824300D01*
X169249666Y-149957633D02*
X169283000Y-149890966D01*
X169316333Y-149857633D01*
X169383000Y-149824300D01*
X169449666Y-149824300D01*
X169983000Y-150290966D02*
X169983000Y-149924300D01*
X169949666Y-149857633D01*
X169883000Y-149824300D01*
X169749666Y-149824300D01*
X169683000Y-149857633D01*
X169983000Y-150257633D02*
X169916333Y-150290966D01*
X169749666Y-150290966D01*
X169683000Y-150257633D01*
X169649666Y-150190966D01*
X169649666Y-150124300D01*
X169683000Y-150057633D01*
X169749666Y-150024300D01*
X169916333Y-150024300D01*
X169983000Y-149990966D01*
X170316333Y-150290966D02*
X170316333Y-149824300D01*
X170316333Y-149890966D02*
X170349666Y-149857633D01*
X170416333Y-149824300D01*
X170516333Y-149824300D01*
X170583000Y-149857633D01*
X170616333Y-149924300D01*
X170616333Y-150290966D01*
X170616333Y-149924300D02*
X170649666Y-149857633D01*
X170716333Y-149824300D01*
X170816333Y-149824300D01*
X170883000Y-149857633D01*
X170916333Y-149924300D01*
X170916333Y-150290966D01*
X171249666Y-150290966D02*
X171249666Y-149824300D01*
X171249666Y-149890966D02*
X171283000Y-149857633D01*
X171349666Y-149824300D01*
X171449666Y-149824300D01*
X171516333Y-149857633D01*
X171549666Y-149924300D01*
X171549666Y-150290966D01*
X171549666Y-149924300D02*
X171583000Y-149857633D01*
X171649666Y-149824300D01*
X171749666Y-149824300D01*
X171816333Y-149857633D01*
X171849666Y-149924300D01*
X171849666Y-150290966D01*
X172449666Y-150257633D02*
X172383000Y-150290966D01*
X172249666Y-150290966D01*
X172183000Y-150257633D01*
X172149666Y-150190966D01*
X172149666Y-149924300D01*
X172183000Y-149857633D01*
X172249666Y-149824300D01*
X172383000Y-149824300D01*
X172449666Y-149857633D01*
X172483000Y-149924300D01*
X172483000Y-149990966D01*
X172149666Y-150057633D01*
X172783000Y-150290966D02*
X172783000Y-149824300D01*
X172783000Y-149957633D02*
X172816333Y-149890966D01*
X172849666Y-149857633D01*
X172916333Y-149824300D01*
X172983000Y-149824300D01*
D11*
X149907142Y-85242857D02*
X149850000Y-85271428D01*
X149735714Y-85271428D01*
X149678571Y-85242857D01*
X149650000Y-85214285D01*
X149621428Y-85157142D01*
X149621428Y-84985714D01*
X149650000Y-84928571D01*
X149678571Y-84900000D01*
X149735714Y-84871428D01*
X149850000Y-84871428D01*
X149907142Y-84900000D01*
X150421428Y-84871428D02*
X150421428Y-85271428D01*
X150164285Y-84871428D02*
X150164285Y-85185714D01*
X150192857Y-85242857D01*
X150250000Y-85271428D01*
X150335714Y-85271428D01*
X150392857Y-85242857D01*
X150421428Y-85214285D01*
X150621428Y-84871428D02*
X150850000Y-84871428D01*
X150707142Y-84671428D02*
X150707142Y-85185714D01*
X150735714Y-85242857D01*
X150792857Y-85271428D01*
X150850000Y-85271428D01*
X151678571Y-84671428D02*
X151678571Y-85100000D01*
X151650000Y-85185714D01*
X151592857Y-85242857D01*
X151507142Y-85271428D01*
X151450000Y-85271428D01*
X151964285Y-85271428D02*
X151964285Y-84671428D01*
X152192857Y-84671428D01*
X152250000Y-84700000D01*
X152278571Y-84728571D01*
X152307142Y-84785714D01*
X152307142Y-84871428D01*
X152278571Y-84928571D01*
X152250000Y-84957142D01*
X152192857Y-84985714D01*
X151964285Y-84985714D01*
X152535714Y-84728571D02*
X152564285Y-84700000D01*
X152621428Y-84671428D01*
X152764285Y-84671428D01*
X152821428Y-84700000D01*
X152850000Y-84728571D01*
X152878571Y-84785714D01*
X152878571Y-84842857D01*
X152850000Y-84928571D01*
X152507142Y-85271428D01*
X152878571Y-85271428D01*
X149150000Y-85871428D02*
X149378571Y-85871428D01*
X149235714Y-86271428D02*
X149235714Y-85757142D01*
X149264285Y-85700000D01*
X149321428Y-85671428D01*
X149378571Y-85671428D01*
X149664285Y-86271428D02*
X149607142Y-86242857D01*
X149578571Y-86214285D01*
X149550000Y-86157142D01*
X149550000Y-85985714D01*
X149578571Y-85928571D01*
X149607142Y-85900000D01*
X149664285Y-85871428D01*
X149750000Y-85871428D01*
X149807142Y-85900000D01*
X149835714Y-85928571D01*
X149864285Y-85985714D01*
X149864285Y-86157142D01*
X149835714Y-86214285D01*
X149807142Y-86242857D01*
X149750000Y-86271428D01*
X149664285Y-86271428D01*
X150121428Y-86271428D02*
X150121428Y-85871428D01*
X150121428Y-85985714D02*
X150150000Y-85928571D01*
X150178571Y-85900000D01*
X150235714Y-85871428D01*
X150292857Y-85871428D01*
X151207142Y-86271428D02*
X151207142Y-85957142D01*
X151178571Y-85900000D01*
X151121428Y-85871428D01*
X151007142Y-85871428D01*
X150950000Y-85900000D01*
X151207142Y-86242857D02*
X151150000Y-86271428D01*
X151007142Y-86271428D01*
X150950000Y-86242857D01*
X150921428Y-86185714D01*
X150921428Y-86128571D01*
X150950000Y-86071428D01*
X151007142Y-86042857D01*
X151150000Y-86042857D01*
X151207142Y-86014285D01*
X151750000Y-86242857D02*
X151692857Y-86271428D01*
X151578571Y-86271428D01*
X151521428Y-86242857D01*
X151492857Y-86214285D01*
X151464285Y-86157142D01*
X151464285Y-85985714D01*
X151492857Y-85928571D01*
X151521428Y-85900000D01*
X151578571Y-85871428D01*
X151692857Y-85871428D01*
X151750000Y-85900000D01*
X152264285Y-86242857D02*
X152207142Y-86271428D01*
X152092857Y-86271428D01*
X152035714Y-86242857D01*
X152007142Y-86214285D01*
X151978571Y-86157142D01*
X151978571Y-85985714D01*
X152007142Y-85928571D01*
X152035714Y-85900000D01*
X152092857Y-85871428D01*
X152207142Y-85871428D01*
X152264285Y-85900000D01*
X152778571Y-85871428D02*
X152778571Y-86271428D01*
X152521428Y-85871428D02*
X152521428Y-86185714D01*
X152550000Y-86242857D01*
X152607142Y-86271428D01*
X152692857Y-86271428D01*
X152750000Y-86242857D01*
X152778571Y-86214285D01*
X153035714Y-86242857D02*
X153092857Y-86271428D01*
X153207142Y-86271428D01*
X153264285Y-86242857D01*
X153292857Y-86185714D01*
X153292857Y-86157142D01*
X153264285Y-86100000D01*
X153207142Y-86071428D01*
X153121428Y-86071428D01*
X153064285Y-86042857D01*
X153035714Y-85985714D01*
X153035714Y-85957142D01*
X153064285Y-85900000D01*
X153121428Y-85871428D01*
X153207142Y-85871428D01*
X153264285Y-85900000D01*
D12*
X166254585Y-83691361D02*
X166159347Y-83738980D01*
X165968871Y-83738980D01*
X165873633Y-83691361D01*
X165826014Y-83643742D01*
X165778395Y-83548504D01*
X165778395Y-83262790D01*
X165826014Y-83167552D01*
X165873633Y-83119933D01*
X165968871Y-83072314D01*
X166159347Y-83072314D01*
X166254585Y-83119933D01*
X166683157Y-83738980D02*
X166683157Y-82738980D01*
X167111728Y-83738980D02*
X167111728Y-83215171D01*
X167064109Y-83119933D01*
X166968871Y-83072314D01*
X166826014Y-83072314D01*
X166730776Y-83119933D01*
X166683157Y-83167552D01*
X168016490Y-83738980D02*
X168016490Y-83215171D01*
X167968871Y-83119933D01*
X167873633Y-83072314D01*
X167683157Y-83072314D01*
X167587919Y-83119933D01*
X168016490Y-83691361D02*
X167921252Y-83738980D01*
X167683157Y-83738980D01*
X167587919Y-83691361D01*
X167540300Y-83596123D01*
X167540300Y-83500885D01*
X167587919Y-83405647D01*
X167683157Y-83358028D01*
X167921252Y-83358028D01*
X168016490Y-83310409D01*
X168492680Y-83738980D02*
X168492680Y-83072314D01*
X168492680Y-83262790D02*
X168540300Y-83167552D01*
X168587919Y-83119933D01*
X168683157Y-83072314D01*
X168778395Y-83072314D01*
X169540300Y-83072314D02*
X169540300Y-83881838D01*
X169492680Y-83977076D01*
X169445061Y-84024695D01*
X169349823Y-84072314D01*
X169206966Y-84072314D01*
X169111728Y-84024695D01*
X169540300Y-83691361D02*
X169445061Y-83738980D01*
X169254585Y-83738980D01*
X169159347Y-83691361D01*
X169111728Y-83643742D01*
X169064109Y-83548504D01*
X169064109Y-83262790D01*
X169111728Y-83167552D01*
X169159347Y-83119933D01*
X169254585Y-83072314D01*
X169445061Y-83072314D01*
X169540300Y-83119933D01*
X170397442Y-83691361D02*
X170302204Y-83738980D01*
X170111728Y-83738980D01*
X170016490Y-83691361D01*
X169968871Y-83596123D01*
X169968871Y-83215171D01*
X170016490Y-83119933D01*
X170111728Y-83072314D01*
X170302204Y-83072314D01*
X170397442Y-83119933D01*
X170445061Y-83215171D01*
X170445061Y-83310409D01*
X169968871Y-83405647D01*
X171635538Y-83072314D02*
X171635538Y-84072314D01*
X171635538Y-83119933D02*
X171730776Y-83072314D01*
X171921252Y-83072314D01*
X172016490Y-83119933D01*
X172064109Y-83167552D01*
X172111728Y-83262790D01*
X172111728Y-83548504D01*
X172064109Y-83643742D01*
X172016490Y-83691361D01*
X171921252Y-83738980D01*
X171730776Y-83738980D01*
X171635538Y-83691361D01*
X172540300Y-83738980D02*
X172540300Y-83072314D01*
X172540300Y-82738980D02*
X172492680Y-82786600D01*
X172540300Y-82834219D01*
X172587919Y-82786600D01*
X172540300Y-82738980D01*
X172540300Y-82834219D01*
X173016490Y-83072314D02*
X173016490Y-83738980D01*
X173016490Y-83167552D02*
X173064109Y-83119933D01*
X173159347Y-83072314D01*
X173302204Y-83072314D01*
X173397442Y-83119933D01*
X173445061Y-83215171D01*
X173445061Y-83738980D01*
X173873633Y-83691361D02*
X173968871Y-83738980D01*
X174159347Y-83738980D01*
X174254585Y-83691361D01*
X174302204Y-83596123D01*
X174302204Y-83548504D01*
X174254585Y-83453266D01*
X174159347Y-83405647D01*
X174016490Y-83405647D01*
X173921252Y-83358028D01*
X173873633Y-83262790D01*
X173873633Y-83215171D01*
X173921252Y-83119933D01*
X174016490Y-83072314D01*
X174159347Y-83072314D01*
X174254585Y-83119933D01*
X168369047Y-79571428D02*
X169130952Y-79571428D01*
X165869047Y-79571428D02*
X166630952Y-79571428D01*
X166250000Y-79952380D02*
X166250000Y-79190476D01*
X147828047Y-80716428D02*
X148589952Y-80716428D01*
X147955047Y-84653428D02*
X148716952Y-84653428D01*
X148336000Y-85034380D02*
X148336000Y-84272476D01*
D13*
X128442857Y-119182142D02*
X128300000Y-119253571D01*
X128014285Y-119253571D01*
X127871428Y-119182142D01*
X127800000Y-119039285D01*
X127800000Y-118467857D01*
X127871428Y-118325000D01*
X128014285Y-118253571D01*
X128300000Y-118253571D01*
X128442857Y-118325000D01*
X128514285Y-118467857D01*
X128514285Y-118610714D01*
X127800000Y-118753571D01*
X129657142Y-118467857D02*
X129871428Y-118539285D01*
X129942857Y-118610714D01*
X130014285Y-118753571D01*
X130014285Y-118967857D01*
X129942857Y-119110714D01*
X129871428Y-119182142D01*
X129728571Y-119253571D01*
X129157142Y-119253571D01*
X129157142Y-117753571D01*
X129657142Y-117753571D01*
X129800000Y-117825000D01*
X129871428Y-117896428D01*
X129942857Y-118039285D01*
X129942857Y-118182142D01*
X129871428Y-118325000D01*
X129800000Y-118396428D01*
X129657142Y-118467857D01*
X129157142Y-118467857D01*
X130514285Y-118253571D02*
X130871428Y-119253571D01*
X131228571Y-118253571D02*
X130871428Y-119253571D01*
X130728571Y-119610714D01*
X130657142Y-119682142D01*
X130514285Y-119753571D01*
X131585714Y-118253571D02*
X132157142Y-118253571D01*
X131800000Y-117753571D02*
X131800000Y-119039285D01*
X131871428Y-119182142D01*
X132014285Y-119253571D01*
X132157142Y-119253571D01*
X133228571Y-119182142D02*
X133085714Y-119253571D01*
X132800000Y-119253571D01*
X132657142Y-119182142D01*
X132585714Y-119039285D01*
X132585714Y-118467857D01*
X132657142Y-118325000D01*
X132800000Y-118253571D01*
X133085714Y-118253571D01*
X133228571Y-118325000D01*
X133300000Y-118467857D01*
X133300000Y-118610714D01*
X132585714Y-118753571D01*
X122728571Y-121017857D02*
X123228571Y-121017857D01*
X123442857Y-121803571D02*
X122728571Y-121803571D01*
X122728571Y-120303571D01*
X123442857Y-120303571D01*
X124371428Y-120303571D02*
X124514285Y-120303571D01*
X124657142Y-120375000D01*
X124728571Y-120446428D01*
X124800000Y-120589285D01*
X124871428Y-120875000D01*
X124871428Y-121232142D01*
X124800000Y-121517857D01*
X124728571Y-121660714D01*
X124657142Y-121732142D01*
X124514285Y-121803571D01*
X124371428Y-121803571D01*
X124228571Y-121732142D01*
X124157142Y-121660714D01*
X124085714Y-121517857D01*
X124014285Y-121232142D01*
X124014285Y-120875000D01*
X124085714Y-120589285D01*
X124157142Y-120446428D01*
X124228571Y-120375000D01*
X124371428Y-120303571D01*
X125371428Y-120303571D02*
X126371428Y-120303571D01*
X125728571Y-121803571D01*
X126942857Y-121232142D02*
X128085714Y-121232142D01*
X129014285Y-120946428D02*
X128871428Y-120875000D01*
X128800000Y-120803571D01*
X128728571Y-120660714D01*
X128728571Y-120589285D01*
X128800000Y-120446428D01*
X128871428Y-120375000D01*
X129014285Y-120303571D01*
X129300000Y-120303571D01*
X129442857Y-120375000D01*
X129514285Y-120446428D01*
X129585714Y-120589285D01*
X129585714Y-120660714D01*
X129514285Y-120803571D01*
X129442857Y-120875000D01*
X129300000Y-120946428D01*
X129014285Y-120946428D01*
X128871428Y-121017857D01*
X128800000Y-121089285D01*
X128728571Y-121232142D01*
X128728571Y-121517857D01*
X128800000Y-121660714D01*
X128871428Y-121732142D01*
X129014285Y-121803571D01*
X129300000Y-121803571D01*
X129442857Y-121732142D01*
X129514285Y-121660714D01*
X129585714Y-121517857D01*
X129585714Y-121232142D01*
X129514285Y-121089285D01*
X129442857Y-121017857D01*
X129300000Y-120946428D01*
X130871428Y-120303571D02*
X130585714Y-120303571D01*
X130442857Y-120375000D01*
X130371428Y-120446428D01*
X130228571Y-120660714D01*
X130157142Y-120946428D01*
X130157142Y-121517857D01*
X130228571Y-121660714D01*
X130300000Y-121732142D01*
X130442857Y-121803571D01*
X130728571Y-121803571D01*
X130871428Y-121732142D01*
X130942857Y-121660714D01*
X131014285Y-121517857D01*
X131014285Y-121160714D01*
X130942857Y-121017857D01*
X130871428Y-120946428D01*
X130728571Y-120875000D01*
X130442857Y-120875000D01*
X130300000Y-120946428D01*
X130228571Y-121017857D01*
X130157142Y-121160714D01*
X131871428Y-120946428D02*
X131728571Y-120875000D01*
X131657142Y-120803571D01*
X131585714Y-120660714D01*
X131585714Y-120589285D01*
X131657142Y-120446428D01*
X131728571Y-120375000D01*
X131871428Y-120303571D01*
X132157142Y-120303571D01*
X132300000Y-120375000D01*
X132371428Y-120446428D01*
X132442857Y-120589285D01*
X132442857Y-120660714D01*
X132371428Y-120803571D01*
X132300000Y-120875000D01*
X132157142Y-120946428D01*
X131871428Y-120946428D01*
X131728571Y-121017857D01*
X131657142Y-121089285D01*
X131585714Y-121232142D01*
X131585714Y-121517857D01*
X131657142Y-121660714D01*
X131728571Y-121732142D01*
X131871428Y-121803571D01*
X132157142Y-121803571D01*
X132300000Y-121732142D01*
X132371428Y-121660714D01*
X132442857Y-121517857D01*
X132442857Y-121232142D01*
X132371428Y-121089285D01*
X132300000Y-121017857D01*
X132157142Y-120946428D01*
X133085714Y-121803571D02*
X133085714Y-120303571D01*
X133585714Y-121375000D01*
X134085714Y-120303571D01*
X134085714Y-121803571D01*
X134728571Y-121732142D02*
X134942857Y-121803571D01*
X135300000Y-121803571D01*
X135442857Y-121732142D01*
X135514285Y-121660714D01*
X135585714Y-121517857D01*
X135585714Y-121375000D01*
X135514285Y-121232142D01*
X135442857Y-121160714D01*
X135300000Y-121089285D01*
X135014285Y-121017857D01*
X134871428Y-120946428D01*
X134800000Y-120875000D01*
X134728571Y-120732142D01*
X134728571Y-120589285D01*
X134800000Y-120446428D01*
X134871428Y-120375000D01*
X135014285Y-120303571D01*
X135371428Y-120303571D01*
X135585714Y-120375000D01*
X137014285Y-121803571D02*
X136157142Y-121803571D01*
X136585714Y-121803571D02*
X136585714Y-120303571D01*
X136442857Y-120517857D01*
X136300000Y-120660714D01*
X136157142Y-120732142D01*
X137942857Y-120303571D02*
X138085714Y-120303571D01*
X138228571Y-120375000D01*
X138300000Y-120446428D01*
X138371428Y-120589285D01*
X138442857Y-120875000D01*
X138442857Y-121232142D01*
X138371428Y-121517857D01*
X138300000Y-121660714D01*
X138228571Y-121732142D01*
X138085714Y-121803571D01*
X137942857Y-121803571D01*
X137800000Y-121732142D01*
X137728571Y-121660714D01*
X137657142Y-121517857D01*
X137585714Y-121232142D01*
X137585714Y-120875000D01*
X137657142Y-120589285D01*
X137728571Y-120446428D01*
X137800000Y-120375000D01*
X137942857Y-120303571D01*
X144585714Y-136568571D02*
X144585714Y-135068571D01*
X145228571Y-135211428D02*
X145300000Y-135140000D01*
X145442857Y-135068571D01*
X145800000Y-135068571D01*
X145942857Y-135140000D01*
X146014285Y-135211428D01*
X146085714Y-135354285D01*
X146085714Y-135497142D01*
X146014285Y-135711428D01*
X145157142Y-136568571D01*
X146085714Y-136568571D01*
X147585714Y-136425714D02*
X147514285Y-136497142D01*
X147300000Y-136568571D01*
X147157142Y-136568571D01*
X146942857Y-136497142D01*
X146800000Y-136354285D01*
X146728571Y-136211428D01*
X146657142Y-135925714D01*
X146657142Y-135711428D01*
X146728571Y-135425714D01*
X146800000Y-135282857D01*
X146942857Y-135140000D01*
X147157142Y-135068571D01*
X147300000Y-135068571D01*
X147514285Y-135140000D01*
X147585714Y-135211428D01*
X129345714Y-136568571D02*
X129345714Y-135068571D01*
X129988571Y-135211428D02*
X130060000Y-135140000D01*
X130202857Y-135068571D01*
X130560000Y-135068571D01*
X130702857Y-135140000D01*
X130774285Y-135211428D01*
X130845714Y-135354285D01*
X130845714Y-135497142D01*
X130774285Y-135711428D01*
X129917142Y-136568571D01*
X130845714Y-136568571D01*
X132345714Y-136425714D02*
X132274285Y-136497142D01*
X132060000Y-136568571D01*
X131917142Y-136568571D01*
X131702857Y-136497142D01*
X131560000Y-136354285D01*
X131488571Y-136211428D01*
X131417142Y-135925714D01*
X131417142Y-135711428D01*
X131488571Y-135425714D01*
X131560000Y-135282857D01*
X131702857Y-135140000D01*
X131917142Y-135068571D01*
X132060000Y-135068571D01*
X132274285Y-135140000D01*
X132345714Y-135211428D01*
D12*
X169935125Y-147586936D02*
X170049609Y-147162672D01*
X169611876Y-147263687D02*
X170248272Y-146768712D01*
X170463772Y-146984211D01*
X170487342Y-147061656D01*
X170483975Y-147112164D01*
X170450303Y-147186242D01*
X170359389Y-147256953D01*
X170271843Y-147277156D01*
X170214601Y-147273788D01*
X170130421Y-147243484D01*
X169914922Y-147027985D01*
X170180929Y-147778865D02*
X170231436Y-147883247D01*
X170366123Y-148017934D01*
X170450303Y-148048239D01*
X170507545Y-148051606D01*
X170595091Y-148031403D01*
X170655701Y-147984262D01*
X170689372Y-147910185D01*
X170692739Y-147859677D01*
X170669169Y-147782232D01*
X170591724Y-147650912D01*
X170568154Y-147573467D01*
X170571521Y-147522959D01*
X170605193Y-147448882D01*
X170665802Y-147401741D01*
X170753349Y-147381538D01*
X170810591Y-147384905D01*
X170894770Y-147415210D01*
X171029457Y-147549897D01*
X171079965Y-147654279D01*
X171049660Y-148108848D02*
X171238222Y-148297410D01*
X170985684Y-148637494D02*
X170716310Y-148368120D01*
X171352706Y-147873146D01*
X171622080Y-148142520D01*
X171783704Y-148304144D02*
X172106953Y-148627393D01*
X171308933Y-148960743D02*
X171945329Y-148465768D01*
X167071876Y-147263687D02*
X167708272Y-146768712D01*
X167442266Y-147310827D01*
X168085396Y-147145836D01*
X167449000Y-147640810D01*
X167718374Y-147910185D02*
X168354770Y-147415210D01*
X167991115Y-148129051D02*
X168041623Y-148233433D01*
X168176310Y-148368120D01*
X168260489Y-148398425D01*
X168317731Y-148401792D01*
X168405278Y-148381589D01*
X168465887Y-148334449D01*
X168499559Y-148260371D01*
X168502926Y-148209863D01*
X168479355Y-148132418D01*
X168401910Y-148001098D01*
X168378340Y-147923653D01*
X168381707Y-147873146D01*
X168415379Y-147799068D01*
X168475988Y-147751927D01*
X168563535Y-147731724D01*
X168620777Y-147735091D01*
X168704956Y-147765396D01*
X168839643Y-147900083D01*
X168890151Y-148004465D01*
X169270642Y-148331081D02*
X169378391Y-148438831D01*
X169401961Y-148516276D01*
X169395227Y-148617291D01*
X169300946Y-148738510D01*
X169088814Y-148903501D01*
X168940658Y-148970845D01*
X168826175Y-148964110D01*
X168741995Y-148933806D01*
X168634246Y-148826056D01*
X168610675Y-148748611D01*
X168617410Y-148647596D01*
X168711691Y-148526378D01*
X168923823Y-148361386D01*
X169071978Y-148294042D01*
X169186462Y-148300777D01*
X169270642Y-148331081D01*
X164723805Y-147401741D02*
X164774313Y-147506123D01*
X164909000Y-147640810D01*
X164993179Y-147671115D01*
X165050421Y-147674482D01*
X165137968Y-147654279D01*
X165198577Y-147607139D01*
X165232249Y-147533061D01*
X165235616Y-147482553D01*
X165212046Y-147405108D01*
X165134601Y-147273788D01*
X165111030Y-147196343D01*
X165114398Y-147145836D01*
X165148069Y-147071758D01*
X165208678Y-147024617D01*
X165296225Y-147004414D01*
X165353467Y-147007782D01*
X165437646Y-147038086D01*
X165572333Y-147172773D01*
X165622841Y-147277156D01*
X165643044Y-148267105D02*
X165585802Y-148263738D01*
X165474685Y-148206496D01*
X165420810Y-148152621D01*
X165370303Y-148048239D01*
X165377037Y-147947223D01*
X165410709Y-147873146D01*
X165504990Y-147751927D01*
X165595904Y-147681217D01*
X165744059Y-147613873D01*
X165831606Y-147593670D01*
X165946090Y-147600404D01*
X166057207Y-147657646D01*
X166111081Y-147711521D01*
X166161589Y-147815904D01*
X166158222Y-147866411D01*
X165824872Y-148556682D02*
X166461268Y-148061707D01*
X166148120Y-148879931D02*
X166269339Y-148354652D01*
X166784516Y-148384956D02*
X166097613Y-148344550D01*
X161991876Y-147263687D02*
X162628272Y-146768712D01*
X162362266Y-147310827D01*
X163005396Y-147145836D01*
X162369000Y-147640810D01*
X163382520Y-147522959D02*
X163490269Y-147630709D01*
X163513839Y-147708154D01*
X163507105Y-147809169D01*
X163412824Y-147930388D01*
X163200692Y-148095379D01*
X163052536Y-148162723D01*
X162938052Y-148155988D01*
X162853873Y-148125684D01*
X162746123Y-148017934D01*
X162722553Y-147940489D01*
X162729288Y-147839474D01*
X162823569Y-147718256D01*
X163035701Y-147553264D01*
X163183856Y-147485920D01*
X163298340Y-147492655D01*
X163382520Y-147522959D01*
X163234364Y-148452300D02*
X163284872Y-148556682D01*
X163419559Y-148691369D01*
X163503738Y-148721674D01*
X163560980Y-148725041D01*
X163648526Y-148704838D01*
X163709136Y-148657697D01*
X163742807Y-148583620D01*
X163746175Y-148533112D01*
X163722604Y-148455667D01*
X163645159Y-148324347D01*
X163621589Y-148246902D01*
X163624956Y-148196394D01*
X163658628Y-148122317D01*
X163719237Y-148075176D01*
X163806784Y-148054973D01*
X163864026Y-148058340D01*
X163948205Y-148088645D01*
X164082892Y-148223332D01*
X164133400Y-148327714D01*
X163769745Y-149041555D02*
X164406141Y-148546581D01*
X158045218Y-148094095D02*
X157967773Y-148117666D01*
X157886961Y-148198478D01*
X157829719Y-148309595D01*
X157822985Y-148424079D01*
X157843188Y-148511625D01*
X157910531Y-148659781D01*
X157981242Y-148750695D01*
X158102460Y-148844975D01*
X158176538Y-148878647D01*
X158277553Y-148885382D01*
X158381936Y-148834874D01*
X158435810Y-148780999D01*
X158493052Y-148669882D01*
X158496420Y-148612640D01*
X158331428Y-148400508D01*
X158223678Y-148508258D01*
X158785997Y-148430813D02*
X158291022Y-147794417D01*
X159109246Y-148107564D01*
X158614271Y-147471168D01*
X159378620Y-147838190D02*
X158883645Y-147201794D01*
X159018332Y-147067107D01*
X159122714Y-147016599D01*
X159223729Y-147023334D01*
X159297807Y-147057005D01*
X159419026Y-147151286D01*
X159489736Y-147242200D01*
X159557080Y-147390356D01*
X159577283Y-147477902D01*
X159570549Y-147592386D01*
X159513307Y-147703503D01*
X159378620Y-147838190D01*
X155793399Y-148387040D02*
X156476936Y-148834874D01*
X156170523Y-148009916D01*
X157130168Y-148073892D02*
X157126800Y-148131134D01*
X157069559Y-148242251D01*
X157015684Y-148296126D01*
X156911301Y-148346634D01*
X156810286Y-148339899D01*
X156736208Y-148306227D01*
X156614990Y-148211947D01*
X156544279Y-148121033D01*
X156476936Y-147972877D01*
X156456733Y-147885331D01*
X156463467Y-147770847D01*
X156520709Y-147659730D01*
X156574584Y-147605855D01*
X156678966Y-147555347D01*
X156729474Y-147558715D01*
X157695853Y-147508207D02*
X157692486Y-147565449D01*
X157635244Y-147676566D01*
X157581369Y-147730440D01*
X157476987Y-147780948D01*
X157375971Y-147774214D01*
X157301894Y-147740542D01*
X157180675Y-147646261D01*
X157109965Y-147555347D01*
X157042621Y-147407192D01*
X157022418Y-147319645D01*
X157029152Y-147205161D01*
X157086394Y-147094044D01*
X157140269Y-147040170D01*
X157244652Y-146989662D01*
X157295159Y-146993029D01*
X151914717Y-102033333D02*
X152295669Y-102033333D01*
X151809955Y-102261904D02*
X152176622Y-101461904D01*
X152343288Y-102261904D01*
X152633764Y-101461904D02*
X153129002Y-101461904D01*
X152824241Y-101766666D01*
X152938526Y-101766666D01*
X153009955Y-101804761D01*
X153043288Y-101842857D01*
X153071860Y-101919047D01*
X153048050Y-102109523D01*
X153000431Y-102185714D01*
X152957574Y-102223809D01*
X152876622Y-102261904D01*
X152648050Y-102261904D01*
X152576622Y-102223809D01*
X152543288Y-102185714D01*
X146864717Y-102003333D02*
X147245669Y-102003333D01*
X146759955Y-102231904D02*
X147126622Y-101431904D01*
X147293288Y-102231904D01*
X147612336Y-101508095D02*
X147655193Y-101470000D01*
X147736145Y-101431904D01*
X147926622Y-101431904D01*
X147998050Y-101470000D01*
X148031383Y-101508095D01*
X148059955Y-101584285D01*
X148050431Y-101660476D01*
X147998050Y-101774761D01*
X147483764Y-102231904D01*
X147979002Y-102231904D01*
X151774717Y-111653333D02*
X152155669Y-111653333D01*
X151669955Y-111881904D02*
X152036622Y-111081904D01*
X152203288Y-111881904D01*
X152889002Y-111881904D02*
X152431860Y-111881904D01*
X152660431Y-111881904D02*
X152760431Y-111081904D01*
X152669955Y-111196190D01*
X152584241Y-111272380D01*
X152503288Y-111310476D01*
X146694717Y-111653333D02*
X147075669Y-111653333D01*
X146589955Y-111881904D02*
X146956622Y-111081904D01*
X147123288Y-111881904D01*
X147642336Y-111081904D02*
X147718526Y-111081904D01*
X147789955Y-111120000D01*
X147823288Y-111158095D01*
X147851860Y-111234285D01*
X147870907Y-111386666D01*
X147847098Y-111577142D01*
X147789955Y-111729523D01*
X147742336Y-111805714D01*
X147699479Y-111843809D01*
X147618526Y-111881904D01*
X147542336Y-111881904D01*
X147470907Y-111843809D01*
X147437574Y-111805714D01*
X147409002Y-111729523D01*
X147389955Y-111577142D01*
X147413764Y-111386666D01*
X147470907Y-111234285D01*
X147518526Y-111158095D01*
X147561383Y-111120000D01*
X147642336Y-111081904D01*
X146723288Y-108820000D02*
X146651860Y-108781904D01*
X146537574Y-108781904D01*
X146418526Y-108820000D01*
X146332812Y-108896190D01*
X146285193Y-108972380D01*
X146228050Y-109124761D01*
X146213764Y-109239047D01*
X146232812Y-109391428D01*
X146261383Y-109467619D01*
X146328050Y-109543809D01*
X146437574Y-109581904D01*
X146513764Y-109581904D01*
X146632812Y-109543809D01*
X146675669Y-109505714D01*
X146709002Y-109239047D01*
X146556622Y-109239047D01*
X147009002Y-109581904D02*
X147109002Y-108781904D01*
X147466145Y-109581904D01*
X147566145Y-108781904D01*
X147847098Y-109581904D02*
X147947098Y-108781904D01*
X148137574Y-108781904D01*
X148247098Y-108820000D01*
X148313764Y-108896190D01*
X148342336Y-108972380D01*
X148361383Y-109124761D01*
X148347098Y-109239047D01*
X148289955Y-109391428D01*
X148242336Y-109467619D01*
X148156622Y-109543809D01*
X148037574Y-109581904D01*
X147847098Y-109581904D01*
X151803288Y-108820000D02*
X151731860Y-108781904D01*
X151617574Y-108781904D01*
X151498526Y-108820000D01*
X151412812Y-108896190D01*
X151365193Y-108972380D01*
X151308050Y-109124761D01*
X151293764Y-109239047D01*
X151312812Y-109391428D01*
X151341383Y-109467619D01*
X151408050Y-109543809D01*
X151517574Y-109581904D01*
X151593764Y-109581904D01*
X151712812Y-109543809D01*
X151755669Y-109505714D01*
X151789002Y-109239047D01*
X151636622Y-109239047D01*
X152089002Y-109581904D02*
X152189002Y-108781904D01*
X152546145Y-109581904D01*
X152646145Y-108781904D01*
X152927098Y-109581904D02*
X153027098Y-108781904D01*
X153217574Y-108781904D01*
X153327098Y-108820000D01*
X153393764Y-108896190D01*
X153422336Y-108972380D01*
X153441383Y-109124761D01*
X153427098Y-109239047D01*
X153369955Y-109391428D01*
X153322336Y-109467619D01*
X153236622Y-109543809D01*
X153117574Y-109581904D01*
X152927098Y-109581904D01*
X151803288Y-118345000D02*
X151731860Y-118306904D01*
X151617574Y-118306904D01*
X151498526Y-118345000D01*
X151412812Y-118421190D01*
X151365193Y-118497380D01*
X151308050Y-118649761D01*
X151293764Y-118764047D01*
X151312812Y-118916428D01*
X151341383Y-118992619D01*
X151408050Y-119068809D01*
X151517574Y-119106904D01*
X151593764Y-119106904D01*
X151712812Y-119068809D01*
X151755669Y-119030714D01*
X151789002Y-118764047D01*
X151636622Y-118764047D01*
X152089002Y-119106904D02*
X152189002Y-118306904D01*
X152546145Y-119106904D01*
X152646145Y-118306904D01*
X152927098Y-119106904D02*
X153027098Y-118306904D01*
X153217574Y-118306904D01*
X153327098Y-118345000D01*
X153393764Y-118421190D01*
X153422336Y-118497380D01*
X153441383Y-118649761D01*
X153427098Y-118764047D01*
X153369955Y-118916428D01*
X153322336Y-118992619D01*
X153236622Y-119068809D01*
X153117574Y-119106904D01*
X152927098Y-119106904D01*
X146723288Y-118345000D02*
X146651860Y-118306904D01*
X146537574Y-118306904D01*
X146418526Y-118345000D01*
X146332812Y-118421190D01*
X146285193Y-118497380D01*
X146228050Y-118649761D01*
X146213764Y-118764047D01*
X146232812Y-118916428D01*
X146261383Y-118992619D01*
X146328050Y-119068809D01*
X146437574Y-119106904D01*
X146513764Y-119106904D01*
X146632812Y-119068809D01*
X146675669Y-119030714D01*
X146709002Y-118764047D01*
X146556622Y-118764047D01*
X147009002Y-119106904D02*
X147109002Y-118306904D01*
X147466145Y-119106904D01*
X147566145Y-118306904D01*
X147847098Y-119106904D02*
X147947098Y-118306904D01*
X148137574Y-118306904D01*
X148247098Y-118345000D01*
X148313764Y-118421190D01*
X148342336Y-118497380D01*
X148361383Y-118649761D01*
X148347098Y-118764047D01*
X148289955Y-118916428D01*
X148242336Y-118992619D01*
X148156622Y-119068809D01*
X148037574Y-119106904D01*
X147847098Y-119106904D01*
X146905907Y-148151904D02*
X147072574Y-148951904D01*
X147439241Y-148151904D01*
X148072574Y-148875714D02*
X148029717Y-148913809D01*
X147910669Y-148951904D01*
X147834479Y-148951904D01*
X147724955Y-148913809D01*
X147658288Y-148837619D01*
X147629717Y-148761428D01*
X147610669Y-148609047D01*
X147624955Y-148494761D01*
X147682098Y-148342380D01*
X147729717Y-148266190D01*
X147815431Y-148190000D01*
X147934479Y-148151904D01*
X148010669Y-148151904D01*
X148120193Y-148190000D01*
X148153526Y-148228095D01*
X148872574Y-148875714D02*
X148829717Y-148913809D01*
X148710669Y-148951904D01*
X148634479Y-148951904D01*
X148524955Y-148913809D01*
X148458288Y-148837619D01*
X148429717Y-148761428D01*
X148410669Y-148609047D01*
X148424955Y-148494761D01*
X148482098Y-148342380D01*
X148529717Y-148266190D01*
X148615431Y-148190000D01*
X148734479Y-148151904D01*
X148810669Y-148151904D01*
X148920193Y-148190000D01*
X148953526Y-148228095D01*
X147358288Y-145650000D02*
X147286860Y-145611904D01*
X147172574Y-145611904D01*
X147053526Y-145650000D01*
X146967812Y-145726190D01*
X146920193Y-145802380D01*
X146863050Y-145954761D01*
X146848764Y-146069047D01*
X146867812Y-146221428D01*
X146896383Y-146297619D01*
X146963050Y-146373809D01*
X147072574Y-146411904D01*
X147148764Y-146411904D01*
X147267812Y-146373809D01*
X147310669Y-146335714D01*
X147344002Y-146069047D01*
X147191622Y-146069047D01*
X147644002Y-146411904D02*
X147744002Y-145611904D01*
X148101145Y-146411904D01*
X148201145Y-145611904D01*
X148482098Y-146411904D02*
X148582098Y-145611904D01*
X148772574Y-145611904D01*
X148882098Y-145650000D01*
X148948764Y-145726190D01*
X148977336Y-145802380D01*
X148996383Y-145954761D01*
X148982098Y-146069047D01*
X148924955Y-146221428D01*
X148877336Y-146297619D01*
X148791622Y-146373809D01*
X148672574Y-146411904D01*
X148482098Y-146411904D01*
X146924955Y-143833809D02*
X147034479Y-143871904D01*
X147224955Y-143871904D01*
X147305907Y-143833809D01*
X147348764Y-143795714D01*
X147396383Y-143719523D01*
X147405907Y-143643333D01*
X147377336Y-143567142D01*
X147344002Y-143529047D01*
X147272574Y-143490952D01*
X147124955Y-143452857D01*
X147053526Y-143414761D01*
X147020193Y-143376666D01*
X146991622Y-143300476D01*
X147001145Y-143224285D01*
X147048764Y-143148095D01*
X147091622Y-143110000D01*
X147172574Y-143071904D01*
X147363050Y-143071904D01*
X147472574Y-143110000D01*
X148186860Y-143795714D02*
X148144002Y-143833809D01*
X148024955Y-143871904D01*
X147948764Y-143871904D01*
X147839241Y-143833809D01*
X147772574Y-143757619D01*
X147744002Y-143681428D01*
X147724955Y-143529047D01*
X147739241Y-143414761D01*
X147796383Y-143262380D01*
X147844002Y-143186190D01*
X147929717Y-143110000D01*
X148048764Y-143071904D01*
X148124955Y-143071904D01*
X148234479Y-143110000D01*
X148267812Y-143148095D01*
X148901145Y-143871904D02*
X148520193Y-143871904D01*
X148620193Y-143071904D01*
X146905907Y-141293809D02*
X147015431Y-141331904D01*
X147205907Y-141331904D01*
X147286860Y-141293809D01*
X147329717Y-141255714D01*
X147377336Y-141179523D01*
X147386860Y-141103333D01*
X147358288Y-141027142D01*
X147324955Y-140989047D01*
X147253526Y-140950952D01*
X147105907Y-140912857D01*
X147034479Y-140874761D01*
X147001145Y-140836666D01*
X146972574Y-140760476D01*
X146982098Y-140684285D01*
X147029717Y-140608095D01*
X147072574Y-140570000D01*
X147153526Y-140531904D01*
X147344002Y-140531904D01*
X147453526Y-140570000D01*
X147701145Y-141331904D02*
X147801145Y-140531904D01*
X147991622Y-140531904D01*
X148101145Y-140570000D01*
X148167812Y-140646190D01*
X148196383Y-140722380D01*
X148215431Y-140874761D01*
X148201145Y-140989047D01*
X148144002Y-141141428D01*
X148096383Y-141217619D01*
X148010669Y-141293809D01*
X147891622Y-141331904D01*
X147701145Y-141331904D01*
X148491622Y-141103333D02*
X148872574Y-141103333D01*
X148386860Y-141331904D02*
X148753526Y-140531904D01*
X148920193Y-141331904D01*
X143095907Y-148151904D02*
X143262574Y-148951904D01*
X143629241Y-148151904D01*
X144262574Y-148875714D02*
X144219717Y-148913809D01*
X144100669Y-148951904D01*
X144024479Y-148951904D01*
X143914955Y-148913809D01*
X143848288Y-148837619D01*
X143819717Y-148761428D01*
X143800669Y-148609047D01*
X143814955Y-148494761D01*
X143872098Y-148342380D01*
X143919717Y-148266190D01*
X144005431Y-148190000D01*
X144124479Y-148151904D01*
X144200669Y-148151904D01*
X144310193Y-148190000D01*
X144343526Y-148228095D01*
X145062574Y-148875714D02*
X145019717Y-148913809D01*
X144900669Y-148951904D01*
X144824479Y-148951904D01*
X144714955Y-148913809D01*
X144648288Y-148837619D01*
X144619717Y-148761428D01*
X144600669Y-148609047D01*
X144614955Y-148494761D01*
X144672098Y-148342380D01*
X144719717Y-148266190D01*
X144805431Y-148190000D01*
X144924479Y-148151904D01*
X145000669Y-148151904D01*
X145110193Y-148190000D01*
X145143526Y-148228095D01*
X143548288Y-145650000D02*
X143476860Y-145611904D01*
X143362574Y-145611904D01*
X143243526Y-145650000D01*
X143157812Y-145726190D01*
X143110193Y-145802380D01*
X143053050Y-145954761D01*
X143038764Y-146069047D01*
X143057812Y-146221428D01*
X143086383Y-146297619D01*
X143153050Y-146373809D01*
X143262574Y-146411904D01*
X143338764Y-146411904D01*
X143457812Y-146373809D01*
X143500669Y-146335714D01*
X143534002Y-146069047D01*
X143381622Y-146069047D01*
X143834002Y-146411904D02*
X143934002Y-145611904D01*
X144291145Y-146411904D01*
X144391145Y-145611904D01*
X144672098Y-146411904D02*
X144772098Y-145611904D01*
X144962574Y-145611904D01*
X145072098Y-145650000D01*
X145138764Y-145726190D01*
X145167336Y-145802380D01*
X145186383Y-145954761D01*
X145172098Y-146069047D01*
X145114955Y-146221428D01*
X145067336Y-146297619D01*
X144981622Y-146373809D01*
X144862574Y-146411904D01*
X144672098Y-146411904D01*
X143114955Y-143833809D02*
X143224479Y-143871904D01*
X143414955Y-143871904D01*
X143495907Y-143833809D01*
X143538764Y-143795714D01*
X143586383Y-143719523D01*
X143595907Y-143643333D01*
X143567336Y-143567142D01*
X143534002Y-143529047D01*
X143462574Y-143490952D01*
X143314955Y-143452857D01*
X143243526Y-143414761D01*
X143210193Y-143376666D01*
X143181622Y-143300476D01*
X143191145Y-143224285D01*
X143238764Y-143148095D01*
X143281622Y-143110000D01*
X143362574Y-143071904D01*
X143553050Y-143071904D01*
X143662574Y-143110000D01*
X144376860Y-143795714D02*
X144334002Y-143833809D01*
X144214955Y-143871904D01*
X144138764Y-143871904D01*
X144029241Y-143833809D01*
X143962574Y-143757619D01*
X143934002Y-143681428D01*
X143914955Y-143529047D01*
X143929241Y-143414761D01*
X143986383Y-143262380D01*
X144034002Y-143186190D01*
X144119717Y-143110000D01*
X144238764Y-143071904D01*
X144314955Y-143071904D01*
X144424479Y-143110000D01*
X144457812Y-143148095D01*
X145091145Y-143871904D02*
X144710193Y-143871904D01*
X144810193Y-143071904D01*
X143095907Y-141293809D02*
X143205431Y-141331904D01*
X143395907Y-141331904D01*
X143476860Y-141293809D01*
X143519717Y-141255714D01*
X143567336Y-141179523D01*
X143576860Y-141103333D01*
X143548288Y-141027142D01*
X143514955Y-140989047D01*
X143443526Y-140950952D01*
X143295907Y-140912857D01*
X143224479Y-140874761D01*
X143191145Y-140836666D01*
X143162574Y-140760476D01*
X143172098Y-140684285D01*
X143219717Y-140608095D01*
X143262574Y-140570000D01*
X143343526Y-140531904D01*
X143534002Y-140531904D01*
X143643526Y-140570000D01*
X143891145Y-141331904D02*
X143991145Y-140531904D01*
X144181622Y-140531904D01*
X144291145Y-140570000D01*
X144357812Y-140646190D01*
X144386383Y-140722380D01*
X144405431Y-140874761D01*
X144391145Y-140989047D01*
X144334002Y-141141428D01*
X144286383Y-141217619D01*
X144200669Y-141293809D01*
X144081622Y-141331904D01*
X143891145Y-141331904D01*
X144681622Y-141103333D02*
X145062574Y-141103333D01*
X144576860Y-141331904D02*
X144943526Y-140531904D01*
X145110193Y-141331904D01*
X131665907Y-141293809D02*
X131775431Y-141331904D01*
X131965907Y-141331904D01*
X132046860Y-141293809D01*
X132089717Y-141255714D01*
X132137336Y-141179523D01*
X132146860Y-141103333D01*
X132118288Y-141027142D01*
X132084955Y-140989047D01*
X132013526Y-140950952D01*
X131865907Y-140912857D01*
X131794479Y-140874761D01*
X131761145Y-140836666D01*
X131732574Y-140760476D01*
X131742098Y-140684285D01*
X131789717Y-140608095D01*
X131832574Y-140570000D01*
X131913526Y-140531904D01*
X132104002Y-140531904D01*
X132213526Y-140570000D01*
X132461145Y-141331904D02*
X132561145Y-140531904D01*
X132751622Y-140531904D01*
X132861145Y-140570000D01*
X132927812Y-140646190D01*
X132956383Y-140722380D01*
X132975431Y-140874761D01*
X132961145Y-140989047D01*
X132904002Y-141141428D01*
X132856383Y-141217619D01*
X132770669Y-141293809D01*
X132651622Y-141331904D01*
X132461145Y-141331904D01*
X133251622Y-141103333D02*
X133632574Y-141103333D01*
X133146860Y-141331904D02*
X133513526Y-140531904D01*
X133680193Y-141331904D01*
X131684955Y-143833809D02*
X131794479Y-143871904D01*
X131984955Y-143871904D01*
X132065907Y-143833809D01*
X132108764Y-143795714D01*
X132156383Y-143719523D01*
X132165907Y-143643333D01*
X132137336Y-143567142D01*
X132104002Y-143529047D01*
X132032574Y-143490952D01*
X131884955Y-143452857D01*
X131813526Y-143414761D01*
X131780193Y-143376666D01*
X131751622Y-143300476D01*
X131761145Y-143224285D01*
X131808764Y-143148095D01*
X131851622Y-143110000D01*
X131932574Y-143071904D01*
X132123050Y-143071904D01*
X132232574Y-143110000D01*
X132946860Y-143795714D02*
X132904002Y-143833809D01*
X132784955Y-143871904D01*
X132708764Y-143871904D01*
X132599241Y-143833809D01*
X132532574Y-143757619D01*
X132504002Y-143681428D01*
X132484955Y-143529047D01*
X132499241Y-143414761D01*
X132556383Y-143262380D01*
X132604002Y-143186190D01*
X132689717Y-143110000D01*
X132808764Y-143071904D01*
X132884955Y-143071904D01*
X132994479Y-143110000D01*
X133027812Y-143148095D01*
X133661145Y-143871904D02*
X133280193Y-143871904D01*
X133380193Y-143071904D01*
X132118288Y-145650000D02*
X132046860Y-145611904D01*
X131932574Y-145611904D01*
X131813526Y-145650000D01*
X131727812Y-145726190D01*
X131680193Y-145802380D01*
X131623050Y-145954761D01*
X131608764Y-146069047D01*
X131627812Y-146221428D01*
X131656383Y-146297619D01*
X131723050Y-146373809D01*
X131832574Y-146411904D01*
X131908764Y-146411904D01*
X132027812Y-146373809D01*
X132070669Y-146335714D01*
X132104002Y-146069047D01*
X131951622Y-146069047D01*
X132404002Y-146411904D02*
X132504002Y-145611904D01*
X132861145Y-146411904D01*
X132961145Y-145611904D01*
X133242098Y-146411904D02*
X133342098Y-145611904D01*
X133532574Y-145611904D01*
X133642098Y-145650000D01*
X133708764Y-145726190D01*
X133737336Y-145802380D01*
X133756383Y-145954761D01*
X133742098Y-146069047D01*
X133684955Y-146221428D01*
X133637336Y-146297619D01*
X133551622Y-146373809D01*
X133432574Y-146411904D01*
X133242098Y-146411904D01*
X131665907Y-148151904D02*
X131832574Y-148951904D01*
X132199241Y-148151904D01*
X132832574Y-148875714D02*
X132789717Y-148913809D01*
X132670669Y-148951904D01*
X132594479Y-148951904D01*
X132484955Y-148913809D01*
X132418288Y-148837619D01*
X132389717Y-148761428D01*
X132370669Y-148609047D01*
X132384955Y-148494761D01*
X132442098Y-148342380D01*
X132489717Y-148266190D01*
X132575431Y-148190000D01*
X132694479Y-148151904D01*
X132770669Y-148151904D01*
X132880193Y-148190000D01*
X132913526Y-148228095D01*
X133632574Y-148875714D02*
X133589717Y-148913809D01*
X133470669Y-148951904D01*
X133394479Y-148951904D01*
X133284955Y-148913809D01*
X133218288Y-148837619D01*
X133189717Y-148761428D01*
X133170669Y-148609047D01*
X133184955Y-148494761D01*
X133242098Y-148342380D01*
X133289717Y-148266190D01*
X133375431Y-148190000D01*
X133494479Y-148151904D01*
X133570669Y-148151904D01*
X133680193Y-148190000D01*
X133713526Y-148228095D01*
X127855907Y-148151904D02*
X128022574Y-148951904D01*
X128389241Y-148151904D01*
X129022574Y-148875714D02*
X128979717Y-148913809D01*
X128860669Y-148951904D01*
X128784479Y-148951904D01*
X128674955Y-148913809D01*
X128608288Y-148837619D01*
X128579717Y-148761428D01*
X128560669Y-148609047D01*
X128574955Y-148494761D01*
X128632098Y-148342380D01*
X128679717Y-148266190D01*
X128765431Y-148190000D01*
X128884479Y-148151904D01*
X128960669Y-148151904D01*
X129070193Y-148190000D01*
X129103526Y-148228095D01*
X129822574Y-148875714D02*
X129779717Y-148913809D01*
X129660669Y-148951904D01*
X129584479Y-148951904D01*
X129474955Y-148913809D01*
X129408288Y-148837619D01*
X129379717Y-148761428D01*
X129360669Y-148609047D01*
X129374955Y-148494761D01*
X129432098Y-148342380D01*
X129479717Y-148266190D01*
X129565431Y-148190000D01*
X129684479Y-148151904D01*
X129760669Y-148151904D01*
X129870193Y-148190000D01*
X129903526Y-148228095D01*
X128308288Y-145650000D02*
X128236860Y-145611904D01*
X128122574Y-145611904D01*
X128003526Y-145650000D01*
X127917812Y-145726190D01*
X127870193Y-145802380D01*
X127813050Y-145954761D01*
X127798764Y-146069047D01*
X127817812Y-146221428D01*
X127846383Y-146297619D01*
X127913050Y-146373809D01*
X128022574Y-146411904D01*
X128098764Y-146411904D01*
X128217812Y-146373809D01*
X128260669Y-146335714D01*
X128294002Y-146069047D01*
X128141622Y-146069047D01*
X128594002Y-146411904D02*
X128694002Y-145611904D01*
X129051145Y-146411904D01*
X129151145Y-145611904D01*
X129432098Y-146411904D02*
X129532098Y-145611904D01*
X129722574Y-145611904D01*
X129832098Y-145650000D01*
X129898764Y-145726190D01*
X129927336Y-145802380D01*
X129946383Y-145954761D01*
X129932098Y-146069047D01*
X129874955Y-146221428D01*
X129827336Y-146297619D01*
X129741622Y-146373809D01*
X129622574Y-146411904D01*
X129432098Y-146411904D01*
X127874955Y-143833809D02*
X127984479Y-143871904D01*
X128174955Y-143871904D01*
X128255907Y-143833809D01*
X128298764Y-143795714D01*
X128346383Y-143719523D01*
X128355907Y-143643333D01*
X128327336Y-143567142D01*
X128294002Y-143529047D01*
X128222574Y-143490952D01*
X128074955Y-143452857D01*
X128003526Y-143414761D01*
X127970193Y-143376666D01*
X127941622Y-143300476D01*
X127951145Y-143224285D01*
X127998764Y-143148095D01*
X128041622Y-143110000D01*
X128122574Y-143071904D01*
X128313050Y-143071904D01*
X128422574Y-143110000D01*
X129136860Y-143795714D02*
X129094002Y-143833809D01*
X128974955Y-143871904D01*
X128898764Y-143871904D01*
X128789241Y-143833809D01*
X128722574Y-143757619D01*
X128694002Y-143681428D01*
X128674955Y-143529047D01*
X128689241Y-143414761D01*
X128746383Y-143262380D01*
X128794002Y-143186190D01*
X128879717Y-143110000D01*
X128998764Y-143071904D01*
X129074955Y-143071904D01*
X129184479Y-143110000D01*
X129217812Y-143148095D01*
X129851145Y-143871904D02*
X129470193Y-143871904D01*
X129570193Y-143071904D01*
X127855907Y-141293809D02*
X127965431Y-141331904D01*
X128155907Y-141331904D01*
X128236860Y-141293809D01*
X128279717Y-141255714D01*
X128327336Y-141179523D01*
X128336860Y-141103333D01*
X128308288Y-141027142D01*
X128274955Y-140989047D01*
X128203526Y-140950952D01*
X128055907Y-140912857D01*
X127984479Y-140874761D01*
X127951145Y-140836666D01*
X127922574Y-140760476D01*
X127932098Y-140684285D01*
X127979717Y-140608095D01*
X128022574Y-140570000D01*
X128103526Y-140531904D01*
X128294002Y-140531904D01*
X128403526Y-140570000D01*
X128651145Y-141331904D02*
X128751145Y-140531904D01*
X128941622Y-140531904D01*
X129051145Y-140570000D01*
X129117812Y-140646190D01*
X129146383Y-140722380D01*
X129165431Y-140874761D01*
X129151145Y-140989047D01*
X129094002Y-141141428D01*
X129046383Y-141217619D01*
X128960669Y-141293809D01*
X128841622Y-141331904D01*
X128651145Y-141331904D01*
X129441622Y-141103333D02*
X129822574Y-141103333D01*
X129336860Y-141331904D02*
X129703526Y-140531904D01*
X129870193Y-141331904D01*
D14*
X138430000Y-133350000D02*
X123190000Y-133350000D01*
X123190000Y-133350000D02*
X123190000Y-151130000D01*
X123190000Y-151130000D02*
X138430000Y-151130000D01*
X138430000Y-151130000D02*
X138430000Y-133350000D01*
X153670000Y-151130000D02*
X153670000Y-133350000D01*
X138430000Y-151130000D02*
X153670000Y-151130000D01*
X138430000Y-133350000D02*
X138430000Y-151130000D01*
X153670000Y-133350000D02*
X138430000Y-133350000D01*
D15*
X126841700Y-131730300D02*
X126841700Y-130670300D01*
X127901700Y-131730300D02*
X126841700Y-131730300D01*
X128901700Y-131730300D02*
X128901700Y-129610300D01*
X128901700Y-129610300D02*
X142961700Y-129610300D01*
X128901700Y-131730300D02*
X142961700Y-131730300D01*
X142961700Y-131730300D02*
X142961700Y-129610300D01*
X110360000Y-90590000D02*
X114360000Y-90590000D01*
X115360000Y-89590000D02*
X109360000Y-89590000D01*
X108360000Y-88590000D02*
X116360000Y-88590000D01*
X111360000Y-91590000D02*
X113360000Y-91590000D01*
X103855000Y-84280000D02*
X120985000Y-84280000D01*
X120985000Y-84280000D02*
X120985000Y-141520000D01*
X120985000Y-141520000D02*
X103855000Y-141520000D01*
X103855000Y-141520000D02*
X103855000Y-84280000D01*
X104820000Y-140800000D02*
X120020000Y-140800000D01*
X120020000Y-140800000D02*
X120020000Y-122800000D01*
X104820000Y-85000000D02*
X120020000Y-85000000D01*
X104820000Y-140800000D02*
X104820000Y-122800000D01*
X104820000Y-103000000D02*
X104820000Y-85000000D01*
X120020000Y-103000000D02*
X120020000Y-85000000D01*
X106820000Y-120800000D02*
X106820000Y-105000000D01*
X118020000Y-105000000D02*
X118020000Y-120800000D01*
X120020000Y-122800000D02*
G75*
G02*
X118020000Y-120800000I0J2000000D01*
G01*
X118020000Y-105000000D02*
G75*
G02*
X120020000Y-103000000I2000000J0D01*
G01*
X104820000Y-103000000D02*
G75*
G02*
X106820000Y-105000000I0J-2000000D01*
G01*
X106820000Y-120800000D02*
G75*
G02*
X104820000Y-122800000I-2000000J0D01*
G01*
X166550000Y-135170000D02*
X162550000Y-135170000D01*
X161550000Y-136170000D02*
X167550000Y-136170000D01*
X168550000Y-137170000D02*
X160550000Y-137170000D01*
X165550000Y-134170000D02*
X163550000Y-134170000D01*
X173055000Y-141480000D02*
X155925000Y-141480000D01*
X155925000Y-141480000D02*
X155925000Y-84240000D01*
X155925000Y-84240000D02*
X173055000Y-84240000D01*
X173055000Y-84240000D02*
X173055000Y-141480000D01*
X172090000Y-84960000D02*
X156890000Y-84960000D01*
X156890000Y-84960000D02*
X156890000Y-102960000D01*
X172090000Y-140760000D02*
X156890000Y-140760000D01*
X172090000Y-84960000D02*
X172090000Y-102960000D01*
X172090000Y-122760000D02*
X172090000Y-140760000D01*
X156890000Y-122760000D02*
X156890000Y-140760000D01*
X170090000Y-104960000D02*
X170090000Y-120760000D01*
X158890000Y-120760000D02*
X158890000Y-104960000D01*
X156890000Y-102960000D02*
G75*
G02*
X158890000Y-104960000I0J-2000000D01*
G01*
X158890000Y-120760000D02*
G75*
G02*
X156890000Y-122760000I-2000000J0D01*
G01*
X172090000Y-122760000D02*
G75*
G02*
X170090000Y-120760000I0J2000000D01*
G01*
X170090000Y-104960000D02*
G75*
G02*
X172090000Y-102960000I2000000J0D01*
G01*
X125381139Y-115470000D02*
G75*
G03*
X125381139Y-115470000I-1581139J0D01*
G01*
X141530000Y-113900000D02*
X141530000Y-115700000D01*
X141530000Y-127200000D02*
X141530000Y-125800000D01*
X141530000Y-127200000D02*
X122230000Y-127200000D01*
X122230000Y-127200000D02*
X122230000Y-113900000D01*
X122230000Y-113900000D02*
X141530000Y-113900000D01*
D16*
X124330000Y-125400000D02*
G75*
G03*
X124330000Y-125400000I-400000J0D01*
G01*
D17*
G36*
X114584312Y-106209548D02*
G01*
X114625462Y-106011275D01*
X114637223Y-105972053D01*
X114726488Y-105748400D01*
X114845744Y-105539651D01*
X114991676Y-105349534D01*
X115160969Y-105181776D01*
X115350308Y-105040104D01*
X115556376Y-104928245D01*
X115571794Y-104921431D01*
X115791758Y-104844110D01*
X116021675Y-104797539D01*
X116256356Y-104781301D01*
X116490611Y-104794982D01*
X116719251Y-104838168D01*
X116937086Y-104910442D01*
X117138927Y-105011390D01*
X117202500Y-105051842D01*
X117390499Y-105199518D01*
X117555048Y-105371038D01*
X117694516Y-105562485D01*
X117807273Y-105769941D01*
X117891687Y-105989492D01*
X117946128Y-106217219D01*
X117968963Y-106449207D01*
X117958563Y-106681539D01*
X117936684Y-106814786D01*
X117867314Y-107061183D01*
X117766971Y-107288750D01*
X117636071Y-107496853D01*
X117475030Y-107684853D01*
X117284264Y-107852113D01*
X117235947Y-107887783D01*
X117034507Y-108009938D01*
X116817448Y-108101444D01*
X116589383Y-108161776D01*
X116354923Y-108190409D01*
X116238593Y-108188641D01*
X116238593Y-107882572D01*
X116446538Y-107870738D01*
X116651799Y-107826092D01*
X116851129Y-107748416D01*
X117041280Y-107637496D01*
X117118910Y-107579925D01*
X117275609Y-107433303D01*
X117410442Y-107261635D01*
X117519028Y-107071670D01*
X117596981Y-106870160D01*
X117609867Y-106823857D01*
X117635972Y-106679230D01*
X117646701Y-106516996D01*
X117642064Y-106351947D01*
X117622073Y-106198876D01*
X117609329Y-106142581D01*
X117557458Y-105989449D01*
X117482836Y-105830059D01*
X117392765Y-105678485D01*
X117311597Y-105568807D01*
X117161264Y-105415184D01*
X116990698Y-105289824D01*
X116803611Y-105193725D01*
X116603716Y-105127890D01*
X116394726Y-105093317D01*
X116180353Y-105091008D01*
X115964311Y-105121961D01*
X115811748Y-105164746D01*
X115637824Y-105237973D01*
X115477429Y-105336239D01*
X115323287Y-105464267D01*
X115270286Y-105516151D01*
X115126997Y-105684396D01*
X115016805Y-105865355D01*
X114938596Y-106061537D01*
X114891257Y-106275449D01*
X114878054Y-106400447D01*
X114880118Y-106623940D01*
X114916944Y-106839153D01*
X114987550Y-107043454D01*
X115090951Y-107234208D01*
X115226166Y-107408782D01*
X115272288Y-107457106D01*
X115444934Y-107606097D01*
X115631135Y-107723355D01*
X115827644Y-107808664D01*
X116031212Y-107861809D01*
X116238593Y-107882572D01*
X116238593Y-108188641D01*
X116118677Y-108186817D01*
X115885259Y-108150476D01*
X115659279Y-108080859D01*
X115633143Y-108070352D01*
X115412588Y-107960716D01*
X115210959Y-107822852D01*
X115031273Y-107659913D01*
X114876549Y-107475054D01*
X114749804Y-107271427D01*
X114654055Y-107052187D01*
X114651314Y-107044305D01*
X114600102Y-106850616D01*
X114571771Y-106639843D01*
X114566461Y-106422613D01*
X114584312Y-106209548D01*
G37*
X114584312Y-106209548D02*
X114625462Y-106011275D01*
X114637223Y-105972053D01*
X114726488Y-105748400D01*
X114845744Y-105539651D01*
X114991676Y-105349534D01*
X115160969Y-105181776D01*
X115350308Y-105040104D01*
X115556376Y-104928245D01*
X115571794Y-104921431D01*
X115791758Y-104844110D01*
X116021675Y-104797539D01*
X116256356Y-104781301D01*
X116490611Y-104794982D01*
X116719251Y-104838168D01*
X116937086Y-104910442D01*
X117138927Y-105011390D01*
X117202500Y-105051842D01*
X117390499Y-105199518D01*
X117555048Y-105371038D01*
X117694516Y-105562485D01*
X117807273Y-105769941D01*
X117891687Y-105989492D01*
X117946128Y-106217219D01*
X117968963Y-106449207D01*
X117958563Y-106681539D01*
X117936684Y-106814786D01*
X117867314Y-107061183D01*
X117766971Y-107288750D01*
X117636071Y-107496853D01*
X117475030Y-107684853D01*
X117284264Y-107852113D01*
X117235947Y-107887783D01*
X117034507Y-108009938D01*
X116817448Y-108101444D01*
X116589383Y-108161776D01*
X116354923Y-108190409D01*
X116238593Y-108188641D01*
X116238593Y-107882572D01*
X116446538Y-107870738D01*
X116651799Y-107826092D01*
X116851129Y-107748416D01*
X117041280Y-107637496D01*
X117118910Y-107579925D01*
X117275609Y-107433303D01*
X117410442Y-107261635D01*
X117519028Y-107071670D01*
X117596981Y-106870160D01*
X117609867Y-106823857D01*
X117635972Y-106679230D01*
X117646701Y-106516996D01*
X117642064Y-106351947D01*
X117622073Y-106198876D01*
X117609329Y-106142581D01*
X117557458Y-105989449D01*
X117482836Y-105830059D01*
X117392765Y-105678485D01*
X117311597Y-105568807D01*
X117161264Y-105415184D01*
X116990698Y-105289824D01*
X116803611Y-105193725D01*
X116603716Y-105127890D01*
X116394726Y-105093317D01*
X116180353Y-105091008D01*
X115964311Y-105121961D01*
X115811748Y-105164746D01*
X115637824Y-105237973D01*
X115477429Y-105336239D01*
X115323287Y-105464267D01*
X115270286Y-105516151D01*
X115126997Y-105684396D01*
X115016805Y-105865355D01*
X114938596Y-106061537D01*
X114891257Y-106275449D01*
X114878054Y-106400447D01*
X114880118Y-106623940D01*
X114916944Y-106839153D01*
X114987550Y-107043454D01*
X115090951Y-107234208D01*
X115226166Y-107408782D01*
X115272288Y-107457106D01*
X115444934Y-107606097D01*
X115631135Y-107723355D01*
X115827644Y-107808664D01*
X116031212Y-107861809D01*
X116238593Y-107882572D01*
X116238593Y-108188641D01*
X116118677Y-108186817D01*
X115885259Y-108150476D01*
X115659279Y-108080859D01*
X115633143Y-108070352D01*
X115412588Y-107960716D01*
X115210959Y-107822852D01*
X115031273Y-107659913D01*
X114876549Y-107475054D01*
X114749804Y-107271427D01*
X114654055Y-107052187D01*
X114651314Y-107044305D01*
X114600102Y-106850616D01*
X114571771Y-106639843D01*
X114566461Y-106422613D01*
X114584312Y-106209548D01*
G36*
X114573740Y-102636143D02*
G01*
X114612254Y-102403079D01*
X114681186Y-102179769D01*
X114771776Y-101986833D01*
X114907559Y-101779738D01*
X115068907Y-101596370D01*
X115252913Y-101438970D01*
X115456671Y-101309774D01*
X115677273Y-101211024D01*
X115845390Y-101159912D01*
X115985681Y-101134681D01*
X116147520Y-101120853D01*
X116318210Y-101118435D01*
X116485057Y-101127432D01*
X116635362Y-101147849D01*
X116689225Y-101159515D01*
X116912520Y-101230871D01*
X117116300Y-101330740D01*
X117304705Y-101461523D01*
X117467600Y-101610780D01*
X117634306Y-101806204D01*
X117767926Y-102015784D01*
X117869542Y-102241457D01*
X117929217Y-102437722D01*
X117947202Y-102538577D01*
X117959235Y-102662780D01*
X117964997Y-102797834D01*
X117964170Y-102931241D01*
X117956436Y-103050505D01*
X117946588Y-103119685D01*
X117887328Y-103351131D01*
X117801066Y-103562754D01*
X117685249Y-103759209D01*
X117537321Y-103945147D01*
X117435764Y-104050044D01*
X117251506Y-104208286D01*
X117058922Y-104332870D01*
X116853741Y-104426197D01*
X116666289Y-104482731D01*
X116556727Y-104501917D01*
X116423881Y-104514317D01*
X116279675Y-104519754D01*
X116272607Y-104519671D01*
X116272607Y-104211167D01*
X116428655Y-104204215D01*
X116569429Y-104183128D01*
X116594413Y-104177241D01*
X116798893Y-104107204D01*
X116991730Y-104004823D01*
X117167767Y-103873454D01*
X117321846Y-103716456D01*
X117344066Y-103689246D01*
X117427798Y-103577706D01*
X117491164Y-103476587D01*
X117541442Y-103372813D01*
X117584699Y-103256932D01*
X117634973Y-103052990D01*
X117654120Y-102838685D01*
X117641855Y-102622769D01*
X117610751Y-102460643D01*
X117544796Y-102271461D01*
X117447656Y-102089039D01*
X117324171Y-101919259D01*
X117179184Y-101768003D01*
X117017536Y-101641153D01*
X116864403Y-101553937D01*
X116739954Y-101500362D01*
X116624559Y-101463582D01*
X116506070Y-101441035D01*
X116372342Y-101430159D01*
X116268143Y-101428125D01*
X116123101Y-101431493D01*
X116001094Y-101444246D01*
X115889453Y-101469301D01*
X115775509Y-101509572D01*
X115646592Y-101567975D01*
X115634353Y-101573960D01*
X115556167Y-101614333D01*
X115491933Y-101653441D01*
X115432107Y-101698448D01*
X115367143Y-101756517D01*
X115289639Y-101832654D01*
X115199968Y-101926642D01*
X115131951Y-102007690D01*
X115078449Y-102084943D01*
X115040206Y-102152250D01*
X114951140Y-102360218D01*
X114895986Y-102576631D01*
X114875044Y-102797434D01*
X114888611Y-103018577D01*
X114936987Y-103236007D01*
X114955982Y-103293345D01*
X115039450Y-103476559D01*
X115153950Y-103649753D01*
X115294614Y-103808183D01*
X115456574Y-103947102D01*
X115634961Y-104061764D01*
X115824907Y-104147424D01*
X115836211Y-104151415D01*
X115964047Y-104184347D01*
X116113625Y-104204404D01*
X116272607Y-104211167D01*
X116272607Y-104519671D01*
X116136033Y-104518052D01*
X116004880Y-104509036D01*
X115904842Y-104493989D01*
X115678721Y-104427876D01*
X115463389Y-104329181D01*
X115262646Y-104200928D01*
X115080295Y-104046142D01*
X114920137Y-103867847D01*
X114785976Y-103669069D01*
X114726965Y-103556978D01*
X114642255Y-103339379D01*
X114588585Y-103109742D01*
X114565798Y-102873514D01*
X114573740Y-102636143D01*
G37*
X114573740Y-102636143D02*
X114612254Y-102403079D01*
X114681186Y-102179769D01*
X114771776Y-101986833D01*
X114907559Y-101779738D01*
X115068907Y-101596370D01*
X115252913Y-101438970D01*
X115456671Y-101309774D01*
X115677273Y-101211024D01*
X115845390Y-101159912D01*
X115985681Y-101134681D01*
X116147520Y-101120853D01*
X116318210Y-101118435D01*
X116485057Y-101127432D01*
X116635362Y-101147849D01*
X116689225Y-101159515D01*
X116912520Y-101230871D01*
X117116300Y-101330740D01*
X117304705Y-101461523D01*
X117467600Y-101610780D01*
X117634306Y-101806204D01*
X117767926Y-102015784D01*
X117869542Y-102241457D01*
X117929217Y-102437722D01*
X117947202Y-102538577D01*
X117959235Y-102662780D01*
X117964997Y-102797834D01*
X117964170Y-102931241D01*
X117956436Y-103050505D01*
X117946588Y-103119685D01*
X117887328Y-103351131D01*
X117801066Y-103562754D01*
X117685249Y-103759209D01*
X117537321Y-103945147D01*
X117435764Y-104050044D01*
X117251506Y-104208286D01*
X117058922Y-104332870D01*
X116853741Y-104426197D01*
X116666289Y-104482731D01*
X116556727Y-104501917D01*
X116423881Y-104514317D01*
X116279675Y-104519754D01*
X116272607Y-104519671D01*
X116272607Y-104211167D01*
X116428655Y-104204215D01*
X116569429Y-104183128D01*
X116594413Y-104177241D01*
X116798893Y-104107204D01*
X116991730Y-104004823D01*
X117167767Y-103873454D01*
X117321846Y-103716456D01*
X117344066Y-103689246D01*
X117427798Y-103577706D01*
X117491164Y-103476587D01*
X117541442Y-103372813D01*
X117584699Y-103256932D01*
X117634973Y-103052990D01*
X117654120Y-102838685D01*
X117641855Y-102622769D01*
X117610751Y-102460643D01*
X117544796Y-102271461D01*
X117447656Y-102089039D01*
X117324171Y-101919259D01*
X117179184Y-101768003D01*
X117017536Y-101641153D01*
X116864403Y-101553937D01*
X116739954Y-101500362D01*
X116624559Y-101463582D01*
X116506070Y-101441035D01*
X116372342Y-101430159D01*
X116268143Y-101428125D01*
X116123101Y-101431493D01*
X116001094Y-101444246D01*
X115889453Y-101469301D01*
X115775509Y-101509572D01*
X115646592Y-101567975D01*
X115634353Y-101573960D01*
X115556167Y-101614333D01*
X115491933Y-101653441D01*
X115432107Y-101698448D01*
X115367143Y-101756517D01*
X115289639Y-101832654D01*
X115199968Y-101926642D01*
X115131951Y-102007690D01*
X115078449Y-102084943D01*
X115040206Y-102152250D01*
X114951140Y-102360218D01*
X114895986Y-102576631D01*
X114875044Y-102797434D01*
X114888611Y-103018577D01*
X114936987Y-103236007D01*
X114955982Y-103293345D01*
X115039450Y-103476559D01*
X115153950Y-103649753D01*
X115294614Y-103808183D01*
X115456574Y-103947102D01*
X115634961Y-104061764D01*
X115824907Y-104147424D01*
X115836211Y-104151415D01*
X115964047Y-104184347D01*
X116113625Y-104204404D01*
X116272607Y-104211167D01*
X116272607Y-104519671D01*
X116136033Y-104518052D01*
X116004880Y-104509036D01*
X115904842Y-104493989D01*
X115678721Y-104427876D01*
X115463389Y-104329181D01*
X115262646Y-104200928D01*
X115080295Y-104046142D01*
X114920137Y-103867847D01*
X114785976Y-103669069D01*
X114726965Y-103556978D01*
X114642255Y-103339379D01*
X114588585Y-103109742D01*
X114565798Y-102873514D01*
X114573740Y-102636143D01*
G36*
X114572048Y-98995503D02*
G01*
X114609157Y-98760036D01*
X114676043Y-98533759D01*
X114772012Y-98322162D01*
X114833755Y-98218874D01*
X114984803Y-98019901D01*
X115159231Y-97847523D01*
X115354674Y-97703435D01*
X115568767Y-97589330D01*
X115799145Y-97506903D01*
X115844017Y-97495098D01*
X115987181Y-97469172D01*
X116151654Y-97455149D01*
X116324642Y-97453034D01*
X116493350Y-97462830D01*
X116644984Y-97484545D01*
X116690896Y-97494772D01*
X116911014Y-97564977D01*
X117111150Y-97662282D01*
X117296302Y-97789616D01*
X117471468Y-97949904D01*
X117475952Y-97954556D01*
X117621149Y-98120822D01*
X117736251Y-98288135D01*
X117826649Y-98465117D01*
X117876876Y-98595724D01*
X117937526Y-98824989D01*
X117967256Y-99062059D01*
X117965379Y-99298262D01*
X117945000Y-99457857D01*
X117886381Y-99683169D01*
X117795550Y-99899193D01*
X117675774Y-100102176D01*
X117530321Y-100288369D01*
X117362458Y-100454020D01*
X117175453Y-100595378D01*
X116972574Y-100708692D01*
X116794286Y-100778817D01*
X116679110Y-100812542D01*
X116573330Y-100835240D01*
X116465805Y-100848227D01*
X116345390Y-100852817D01*
X116262653Y-100851391D01*
X116262653Y-100546114D01*
X116439028Y-100537568D01*
X116595411Y-100510672D01*
X116744643Y-100462522D01*
X116857786Y-100411621D01*
X117056105Y-100294253D01*
X117227745Y-100152369D01*
X117373399Y-99985274D01*
X117493761Y-99792274D01*
X117512654Y-99755015D01*
X117563919Y-99643396D01*
X117600444Y-99543375D01*
X117624190Y-99444907D01*
X117637115Y-99337948D01*
X117641182Y-99212452D01*
X117639701Y-99104072D01*
X117635462Y-98988217D01*
X117628873Y-98899579D01*
X117618794Y-98829111D01*
X117604087Y-98767764D01*
X117592897Y-98732535D01*
X117528043Y-98567548D01*
X117451601Y-98424386D01*
X117356262Y-98291326D01*
X117234717Y-98156648D01*
X117232105Y-98153995D01*
X117150668Y-98075663D01*
X117076668Y-98012539D01*
X117014215Y-97967568D01*
X116967421Y-97943693D01*
X116940396Y-97943858D01*
X116939619Y-97944569D01*
X116927732Y-97965290D01*
X116904544Y-98012543D01*
X116873012Y-98079718D01*
X116836097Y-98160208D01*
X116796758Y-98247405D01*
X116757955Y-98334700D01*
X116722646Y-98415484D01*
X116693792Y-98483151D01*
X116674352Y-98531091D01*
X116667286Y-98552653D01*
X116682531Y-98566537D01*
X116719726Y-98583542D01*
X116724635Y-98585300D01*
X116823238Y-98638131D01*
X116908617Y-98720592D01*
X116976175Y-98827069D01*
X117019775Y-98945792D01*
X117041694Y-99031500D01*
X117167454Y-99033624D01*
X117293214Y-99035747D01*
X117293214Y-99231072D01*
X117034660Y-99241642D01*
X117022589Y-99348334D01*
X117001440Y-99443325D01*
X116961814Y-99548090D01*
X116910683Y-99646539D01*
X116865597Y-99710634D01*
X116828461Y-99754769D01*
X116707841Y-99634149D01*
X116587222Y-99513529D01*
X116626367Y-99471860D01*
X116676820Y-99400156D01*
X116714262Y-99311567D01*
X116737079Y-99215703D01*
X116743657Y-99122174D01*
X116732382Y-99040592D01*
X116707629Y-98987917D01*
X116679061Y-98958228D01*
X116642767Y-98944294D01*
X116584737Y-98940786D01*
X116583720Y-98940786D01*
X116529130Y-98942891D01*
X116497513Y-98953860D01*
X116475605Y-98980677D01*
X116463102Y-99004286D01*
X116438646Y-99055145D01*
X116403905Y-99130455D01*
X116360654Y-99226127D01*
X116310670Y-99338074D01*
X116255728Y-99462207D01*
X116197603Y-99594440D01*
X116138071Y-99730685D01*
X116078907Y-99866855D01*
X116021887Y-99998860D01*
X115968787Y-100122615D01*
X115921382Y-100234031D01*
X115881448Y-100329020D01*
X115850760Y-100403495D01*
X115831094Y-100453369D01*
X115824225Y-100474554D01*
X115824300Y-100474921D01*
X115850329Y-100490406D01*
X115904686Y-100506154D01*
X115979442Y-100520877D01*
X116066675Y-100533288D01*
X116158456Y-100542101D01*
X116246861Y-100546026D01*
X116262653Y-100546114D01*
X116262653Y-100851391D01*
X116200944Y-100850327D01*
X116191368Y-100849984D01*
X115961914Y-100829955D01*
X115755014Y-100786013D01*
X115563979Y-100715731D01*
X115495202Y-100678271D01*
X115495202Y-100310370D01*
X115511931Y-100294834D01*
X115536615Y-100254278D01*
X115563932Y-100197456D01*
X115564139Y-100196978D01*
X115591798Y-100133509D01*
X115628991Y-100048871D01*
X115670452Y-99955024D01*
X115703920Y-99879626D01*
X115794776Y-99675466D01*
X115722787Y-99638740D01*
X115634738Y-99573521D01*
X115564984Y-99477212D01*
X115513778Y-99350204D01*
X115498355Y-99290036D01*
X115490755Y-99263921D01*
X115476700Y-99249003D01*
X115447547Y-99242150D01*
X115394657Y-99240231D01*
X115360654Y-99240143D01*
X115234000Y-99240143D01*
X115234000Y-99040572D01*
X115486356Y-99040572D01*
X115497508Y-98972536D01*
X115516662Y-98889886D01*
X115546024Y-98801556D01*
X115580534Y-98720686D01*
X115615133Y-98660416D01*
X115620297Y-98653615D01*
X115660357Y-98603617D01*
X115876463Y-98822379D01*
X115834717Y-98908304D01*
X115800182Y-99000987D01*
X115784011Y-99093525D01*
X115785488Y-99179078D01*
X115803896Y-99250805D01*
X115838519Y-99301866D01*
X115878204Y-99323440D01*
X115919064Y-99327080D01*
X115941973Y-99319550D01*
X115952779Y-99299780D01*
X115976267Y-99250925D01*
X116010610Y-99177097D01*
X116053976Y-99082404D01*
X116104538Y-98970954D01*
X116160464Y-98846858D01*
X116219927Y-98714225D01*
X116281096Y-98577163D01*
X116342142Y-98439782D01*
X116401236Y-98306191D01*
X116456547Y-98180499D01*
X116506248Y-98066816D01*
X116548508Y-97969250D01*
X116581498Y-97891911D01*
X116603388Y-97838909D01*
X116612349Y-97814351D01*
X116612469Y-97813508D01*
X116597183Y-97795258D01*
X116562964Y-97782171D01*
X116400735Y-97759989D01*
X116222093Y-97757473D01*
X116040588Y-97773826D01*
X115869770Y-97808247D01*
X115808069Y-97826697D01*
X115635202Y-97901659D01*
X115467790Y-98007428D01*
X115311628Y-98138527D01*
X115172512Y-98289478D01*
X115056238Y-98454805D01*
X114974693Y-98614252D01*
X114908972Y-98816208D01*
X114875900Y-99027457D01*
X114875022Y-99242437D01*
X114905881Y-99455585D01*
X114968022Y-99661339D01*
X115060989Y-99854134D01*
X115078688Y-99883399D01*
X115117976Y-99939043D01*
X115171620Y-100005006D01*
X115234270Y-100075806D01*
X115300576Y-100145956D01*
X115365187Y-100209972D01*
X115422754Y-100262369D01*
X115467925Y-100297662D01*
X115495202Y-100310370D01*
X115495202Y-100678271D01*
X115382123Y-100616681D01*
X115213302Y-100494957D01*
X115052592Y-100348261D01*
X114908384Y-100181717D01*
X114785939Y-100002682D01*
X114690517Y-99818511D01*
X114646319Y-99702154D01*
X114589936Y-99472051D01*
X114565410Y-99234671D01*
X114572048Y-98995503D01*
G37*
X114572048Y-98995503D02*
X114609157Y-98760036D01*
X114676043Y-98533759D01*
X114772012Y-98322162D01*
X114833755Y-98218874D01*
X114984803Y-98019901D01*
X115159231Y-97847523D01*
X115354674Y-97703435D01*
X115568767Y-97589330D01*
X115799145Y-97506903D01*
X115844017Y-97495098D01*
X115987181Y-97469172D01*
X116151654Y-97455149D01*
X116324642Y-97453034D01*
X116493350Y-97462830D01*
X116644984Y-97484545D01*
X116690896Y-97494772D01*
X116911014Y-97564977D01*
X117111150Y-97662282D01*
X117296302Y-97789616D01*
X117471468Y-97949904D01*
X117475952Y-97954556D01*
X117621149Y-98120822D01*
X117736251Y-98288135D01*
X117826649Y-98465117D01*
X117876876Y-98595724D01*
X117937526Y-98824989D01*
X117967256Y-99062059D01*
X117965379Y-99298262D01*
X117945000Y-99457857D01*
X117886381Y-99683169D01*
X117795550Y-99899193D01*
X117675774Y-100102176D01*
X117530321Y-100288369D01*
X117362458Y-100454020D01*
X117175453Y-100595378D01*
X116972574Y-100708692D01*
X116794286Y-100778817D01*
X116679110Y-100812542D01*
X116573330Y-100835240D01*
X116465805Y-100848227D01*
X116345390Y-100852817D01*
X116262653Y-100851391D01*
X116262653Y-100546114D01*
X116439028Y-100537568D01*
X116595411Y-100510672D01*
X116744643Y-100462522D01*
X116857786Y-100411621D01*
X117056105Y-100294253D01*
X117227745Y-100152369D01*
X117373399Y-99985274D01*
X117493761Y-99792274D01*
X117512654Y-99755015D01*
X117563919Y-99643396D01*
X117600444Y-99543375D01*
X117624190Y-99444907D01*
X117637115Y-99337948D01*
X117641182Y-99212452D01*
X117639701Y-99104072D01*
X117635462Y-98988217D01*
X117628873Y-98899579D01*
X117618794Y-98829111D01*
X117604087Y-98767764D01*
X117592897Y-98732535D01*
X117528043Y-98567548D01*
X117451601Y-98424386D01*
X117356262Y-98291326D01*
X117234717Y-98156648D01*
X117232105Y-98153995D01*
X117150668Y-98075663D01*
X117076668Y-98012539D01*
X117014215Y-97967568D01*
X116967421Y-97943693D01*
X116940396Y-97943858D01*
X116939619Y-97944569D01*
X116927732Y-97965290D01*
X116904544Y-98012543D01*
X116873012Y-98079718D01*
X116836097Y-98160208D01*
X116796758Y-98247405D01*
X116757955Y-98334700D01*
X116722646Y-98415484D01*
X116693792Y-98483151D01*
X116674352Y-98531091D01*
X116667286Y-98552653D01*
X116682531Y-98566537D01*
X116719726Y-98583542D01*
X116724635Y-98585300D01*
X116823238Y-98638131D01*
X116908617Y-98720592D01*
X116976175Y-98827069D01*
X117019775Y-98945792D01*
X117041694Y-99031500D01*
X117167454Y-99033624D01*
X117293214Y-99035747D01*
X117293214Y-99231072D01*
X117034660Y-99241642D01*
X117022589Y-99348334D01*
X117001440Y-99443325D01*
X116961814Y-99548090D01*
X116910683Y-99646539D01*
X116865597Y-99710634D01*
X116828461Y-99754769D01*
X116707841Y-99634149D01*
X116587222Y-99513529D01*
X116626367Y-99471860D01*
X116676820Y-99400156D01*
X116714262Y-99311567D01*
X116737079Y-99215703D01*
X116743657Y-99122174D01*
X116732382Y-99040592D01*
X116707629Y-98987917D01*
X116679061Y-98958228D01*
X116642767Y-98944294D01*
X116584737Y-98940786D01*
X116583720Y-98940786D01*
X116529130Y-98942891D01*
X116497513Y-98953860D01*
X116475605Y-98980677D01*
X116463102Y-99004286D01*
X116438646Y-99055145D01*
X116403905Y-99130455D01*
X116360654Y-99226127D01*
X116310670Y-99338074D01*
X116255728Y-99462207D01*
X116197603Y-99594440D01*
X116138071Y-99730685D01*
X116078907Y-99866855D01*
X116021887Y-99998860D01*
X115968787Y-100122615D01*
X115921382Y-100234031D01*
X115881448Y-100329020D01*
X115850760Y-100403495D01*
X115831094Y-100453369D01*
X115824225Y-100474554D01*
X115824300Y-100474921D01*
X115850329Y-100490406D01*
X115904686Y-100506154D01*
X115979442Y-100520877D01*
X116066675Y-100533288D01*
X116158456Y-100542101D01*
X116246861Y-100546026D01*
X116262653Y-100546114D01*
X116262653Y-100851391D01*
X116200944Y-100850327D01*
X116191368Y-100849984D01*
X115961914Y-100829955D01*
X115755014Y-100786013D01*
X115563979Y-100715731D01*
X115495202Y-100678271D01*
X115495202Y-100310370D01*
X115511931Y-100294834D01*
X115536615Y-100254278D01*
X115563932Y-100197456D01*
X115564139Y-100196978D01*
X115591798Y-100133509D01*
X115628991Y-100048871D01*
X115670452Y-99955024D01*
X115703920Y-99879626D01*
X115794776Y-99675466D01*
X115722787Y-99638740D01*
X115634738Y-99573521D01*
X115564984Y-99477212D01*
X115513778Y-99350204D01*
X115498355Y-99290036D01*
X115490755Y-99263921D01*
X115476700Y-99249003D01*
X115447547Y-99242150D01*
X115394657Y-99240231D01*
X115360654Y-99240143D01*
X115234000Y-99240143D01*
X115234000Y-99040572D01*
X115486356Y-99040572D01*
X115497508Y-98972536D01*
X115516662Y-98889886D01*
X115546024Y-98801556D01*
X115580534Y-98720686D01*
X115615133Y-98660416D01*
X115620297Y-98653615D01*
X115660357Y-98603617D01*
X115876463Y-98822379D01*
X115834717Y-98908304D01*
X115800182Y-99000987D01*
X115784011Y-99093525D01*
X115785488Y-99179078D01*
X115803896Y-99250805D01*
X115838519Y-99301866D01*
X115878204Y-99323440D01*
X115919064Y-99327080D01*
X115941973Y-99319550D01*
X115952779Y-99299780D01*
X115976267Y-99250925D01*
X116010610Y-99177097D01*
X116053976Y-99082404D01*
X116104538Y-98970954D01*
X116160464Y-98846858D01*
X116219927Y-98714225D01*
X116281096Y-98577163D01*
X116342142Y-98439782D01*
X116401236Y-98306191D01*
X116456547Y-98180499D01*
X116506248Y-98066816D01*
X116548508Y-97969250D01*
X116581498Y-97891911D01*
X116603388Y-97838909D01*
X116612349Y-97814351D01*
X116612469Y-97813508D01*
X116597183Y-97795258D01*
X116562964Y-97782171D01*
X116400735Y-97759989D01*
X116222093Y-97757473D01*
X116040588Y-97773826D01*
X115869770Y-97808247D01*
X115808069Y-97826697D01*
X115635202Y-97901659D01*
X115467790Y-98007428D01*
X115311628Y-98138527D01*
X115172512Y-98289478D01*
X115056238Y-98454805D01*
X114974693Y-98614252D01*
X114908972Y-98816208D01*
X114875900Y-99027457D01*
X114875022Y-99242437D01*
X114905881Y-99455585D01*
X114968022Y-99661339D01*
X115060989Y-99854134D01*
X115078688Y-99883399D01*
X115117976Y-99939043D01*
X115171620Y-100005006D01*
X115234270Y-100075806D01*
X115300576Y-100145956D01*
X115365187Y-100209972D01*
X115422754Y-100262369D01*
X115467925Y-100297662D01*
X115495202Y-100310370D01*
X115495202Y-100678271D01*
X115382123Y-100616681D01*
X115213302Y-100494957D01*
X115052592Y-100348261D01*
X114908384Y-100181717D01*
X114785939Y-100002682D01*
X114690517Y-99818511D01*
X114646319Y-99702154D01*
X114589936Y-99472051D01*
X114565410Y-99234671D01*
X114572048Y-98995503D01*
G36*
X114572065Y-95329158D02*
G01*
X114611510Y-95084011D01*
X114648091Y-94949357D01*
X114735062Y-94730738D01*
X114854316Y-94525393D01*
X115003223Y-94336704D01*
X115179156Y-94168055D01*
X115357007Y-94037117D01*
X115558405Y-93928079D01*
X115775126Y-93849231D01*
X116002417Y-93800539D01*
X116235521Y-93781971D01*
X116469682Y-93793492D01*
X116700144Y-93835069D01*
X116922153Y-93906670D01*
X117130951Y-94008260D01*
X117198698Y-94050024D01*
X117379568Y-94188835D01*
X117543309Y-94355614D01*
X117685725Y-94544429D01*
X117802615Y-94749345D01*
X117889782Y-94964427D01*
X117919753Y-95069218D01*
X117950578Y-95236846D01*
X117965724Y-95418223D01*
X117964879Y-95599739D01*
X117947733Y-95767783D01*
X117937012Y-95824660D01*
X117871211Y-96058513D01*
X117779022Y-96270912D01*
X117657644Y-96466819D01*
X117504278Y-96651194D01*
X117426054Y-96729835D01*
X117235678Y-96888265D01*
X117030431Y-97013632D01*
X116810879Y-97105709D01*
X116577589Y-97164270D01*
X116331130Y-97189089D01*
X116272240Y-97190000D01*
X116257953Y-97189165D01*
X116257953Y-96878746D01*
X116396854Y-96875242D01*
X116520671Y-96861280D01*
X116551355Y-96855341D01*
X116754650Y-96793355D01*
X116945355Y-96700087D01*
X117120200Y-96579103D01*
X117275918Y-96433967D01*
X117409241Y-96268245D01*
X117516900Y-96085502D01*
X117595626Y-95889302D01*
X117642153Y-95683211D01*
X117644872Y-95662501D01*
X117653679Y-95504650D01*
X117645219Y-95335222D01*
X117620751Y-95173797D01*
X117610751Y-95130929D01*
X117545399Y-94943122D01*
X117448982Y-94760378D01*
X117326679Y-94589565D01*
X117183665Y-94437551D01*
X117025117Y-94311206D01*
X116963739Y-94272448D01*
X116783659Y-94186438D01*
X116585649Y-94127184D01*
X116377345Y-94095689D01*
X116166381Y-94092957D01*
X115960390Y-94119993D01*
X115904256Y-94133134D01*
X115714423Y-94200107D01*
X115532592Y-94298666D01*
X115364402Y-94424184D01*
X115215493Y-94572040D01*
X115091504Y-94737608D01*
X115026973Y-94852481D01*
X114967244Y-94982715D01*
X114925740Y-95097540D01*
X114899564Y-95209557D01*
X114885817Y-95331368D01*
X114881600Y-95475576D01*
X114881587Y-95484572D01*
X114888808Y-95661205D01*
X114912423Y-95815752D01*
X114955180Y-95959749D01*
X115019827Y-96104731D01*
X115037158Y-96137715D01*
X115153579Y-96317183D01*
X115298706Y-96479951D01*
X115467062Y-96621495D01*
X115653172Y-96737292D01*
X115851559Y-96822820D01*
X115876562Y-96831035D01*
X115985226Y-96856189D01*
X116116551Y-96872244D01*
X116257953Y-96878746D01*
X116257953Y-97189165D01*
X116027568Y-97175698D01*
X115801369Y-97131745D01*
X115589134Y-97056570D01*
X115386355Y-96948604D01*
X115202196Y-96817303D01*
X115021335Y-96650217D01*
X114869266Y-96462942D01*
X114746881Y-96258488D01*
X114655075Y-96039871D01*
X114594741Y-95810101D01*
X114566773Y-95572193D01*
X114572065Y-95329158D01*
G37*
X114572065Y-95329158D02*
X114611510Y-95084011D01*
X114648091Y-94949357D01*
X114735062Y-94730738D01*
X114854316Y-94525393D01*
X115003223Y-94336704D01*
X115179156Y-94168055D01*
X115357007Y-94037117D01*
X115558405Y-93928079D01*
X115775126Y-93849231D01*
X116002417Y-93800539D01*
X116235521Y-93781971D01*
X116469682Y-93793492D01*
X116700144Y-93835069D01*
X116922153Y-93906670D01*
X117130951Y-94008260D01*
X117198698Y-94050024D01*
X117379568Y-94188835D01*
X117543309Y-94355614D01*
X117685725Y-94544429D01*
X117802615Y-94749345D01*
X117889782Y-94964427D01*
X117919753Y-95069218D01*
X117950578Y-95236846D01*
X117965724Y-95418223D01*
X117964879Y-95599739D01*
X117947733Y-95767783D01*
X117937012Y-95824660D01*
X117871211Y-96058513D01*
X117779022Y-96270912D01*
X117657644Y-96466819D01*
X117504278Y-96651194D01*
X117426054Y-96729835D01*
X117235678Y-96888265D01*
X117030431Y-97013632D01*
X116810879Y-97105709D01*
X116577589Y-97164270D01*
X116331130Y-97189089D01*
X116272240Y-97190000D01*
X116257953Y-97189165D01*
X116257953Y-96878746D01*
X116396854Y-96875242D01*
X116520671Y-96861280D01*
X116551355Y-96855341D01*
X116754650Y-96793355D01*
X116945355Y-96700087D01*
X117120200Y-96579103D01*
X117275918Y-96433967D01*
X117409241Y-96268245D01*
X117516900Y-96085502D01*
X117595626Y-95889302D01*
X117642153Y-95683211D01*
X117644872Y-95662501D01*
X117653679Y-95504650D01*
X117645219Y-95335222D01*
X117620751Y-95173797D01*
X117610751Y-95130929D01*
X117545399Y-94943122D01*
X117448982Y-94760378D01*
X117326679Y-94589565D01*
X117183665Y-94437551D01*
X117025117Y-94311206D01*
X116963739Y-94272448D01*
X116783659Y-94186438D01*
X116585649Y-94127184D01*
X116377345Y-94095689D01*
X116166381Y-94092957D01*
X115960390Y-94119993D01*
X115904256Y-94133134D01*
X115714423Y-94200107D01*
X115532592Y-94298666D01*
X115364402Y-94424184D01*
X115215493Y-94572040D01*
X115091504Y-94737608D01*
X115026973Y-94852481D01*
X114967244Y-94982715D01*
X114925740Y-95097540D01*
X114899564Y-95209557D01*
X114885817Y-95331368D01*
X114881600Y-95475576D01*
X114881587Y-95484572D01*
X114888808Y-95661205D01*
X114912423Y-95815752D01*
X114955180Y-95959749D01*
X115019827Y-96104731D01*
X115037158Y-96137715D01*
X115153579Y-96317183D01*
X115298706Y-96479951D01*
X115467062Y-96621495D01*
X115653172Y-96737292D01*
X115851559Y-96822820D01*
X115876562Y-96831035D01*
X115985226Y-96856189D01*
X116116551Y-96872244D01*
X116257953Y-96878746D01*
X116257953Y-97189165D01*
X116027568Y-97175698D01*
X115801369Y-97131745D01*
X115589134Y-97056570D01*
X115386355Y-96948604D01*
X115202196Y-96817303D01*
X115021335Y-96650217D01*
X114869266Y-96462942D01*
X114746881Y-96258488D01*
X114655075Y-96039871D01*
X114594741Y-95810101D01*
X114566773Y-95572193D01*
X114572065Y-95329158D01*
G36*
X115749561Y-106843953D02*
G01*
X115767161Y-106757446D01*
X115769965Y-106749031D01*
X115794033Y-106700535D01*
X115831797Y-106644831D01*
X115876057Y-106590408D01*
X115919610Y-106545751D01*
X115955254Y-106519348D01*
X115968027Y-106515644D01*
X115985674Y-106530520D01*
X116013724Y-106569301D01*
X116045912Y-106623252D01*
X116104896Y-106730645D01*
X116050903Y-106769091D01*
X115995917Y-106828835D01*
X115969761Y-106904000D01*
X115975180Y-106984781D01*
X115983639Y-107009283D01*
X116021686Y-107072088D01*
X116077723Y-107113801D01*
X116158057Y-107138060D01*
X116220165Y-107145720D01*
X116336167Y-107145108D01*
X116427082Y-107121607D01*
X116496926Y-107074001D01*
X116512478Y-107057111D01*
X116548108Y-106991622D01*
X116559361Y-106916913D01*
X116547538Y-106843584D01*
X116513942Y-106782234D01*
X116474782Y-106750213D01*
X116444672Y-106728724D01*
X116434365Y-106701887D01*
X116444242Y-106662118D01*
X116474686Y-106601833D01*
X116483015Y-106587104D01*
X116534602Y-106496780D01*
X116619845Y-106571814D01*
X116702843Y-106658971D01*
X116755228Y-106751414D01*
X116781957Y-106859562D01*
X116787288Y-106923643D01*
X116788034Y-106996805D01*
X116784665Y-107063044D01*
X116778499Y-107105072D01*
X116731018Y-107218229D01*
X116654686Y-107316183D01*
X116556046Y-107391717D01*
X116490452Y-107422688D01*
X116367926Y-107452380D01*
X116233503Y-107458053D01*
X116102453Y-107439748D01*
X116042805Y-107421555D01*
X115953958Y-107373897D01*
X115871320Y-107303931D01*
X115804638Y-107221605D01*
X115763659Y-107136867D01*
X115763568Y-107136564D01*
X115747494Y-107049851D01*
X115742915Y-106946868D01*
X115749561Y-106843953D01*
G37*
X115749561Y-106843953D02*
X115767161Y-106757446D01*
X115769965Y-106749031D01*
X115794033Y-106700535D01*
X115831797Y-106644831D01*
X115876057Y-106590408D01*
X115919610Y-106545751D01*
X115955254Y-106519348D01*
X115968027Y-106515644D01*
X115985674Y-106530520D01*
X116013724Y-106569301D01*
X116045912Y-106623252D01*
X116104896Y-106730645D01*
X116050903Y-106769091D01*
X115995917Y-106828835D01*
X115969761Y-106904000D01*
X115975180Y-106984781D01*
X115983639Y-107009283D01*
X116021686Y-107072088D01*
X116077723Y-107113801D01*
X116158057Y-107138060D01*
X116220165Y-107145720D01*
X116336167Y-107145108D01*
X116427082Y-107121607D01*
X116496926Y-107074001D01*
X116512478Y-107057111D01*
X116548108Y-106991622D01*
X116559361Y-106916913D01*
X116547538Y-106843584D01*
X116513942Y-106782234D01*
X116474782Y-106750213D01*
X116444672Y-106728724D01*
X116434365Y-106701887D01*
X116444242Y-106662118D01*
X116474686Y-106601833D01*
X116483015Y-106587104D01*
X116534602Y-106496780D01*
X116619845Y-106571814D01*
X116702843Y-106658971D01*
X116755228Y-106751414D01*
X116781957Y-106859562D01*
X116787288Y-106923643D01*
X116788034Y-106996805D01*
X116784665Y-107063044D01*
X116778499Y-107105072D01*
X116731018Y-107218229D01*
X116654686Y-107316183D01*
X116556046Y-107391717D01*
X116490452Y-107422688D01*
X116367926Y-107452380D01*
X116233503Y-107458053D01*
X116102453Y-107439748D01*
X116042805Y-107421555D01*
X115953958Y-107373897D01*
X115871320Y-107303931D01*
X115804638Y-107221605D01*
X115763659Y-107136867D01*
X115763568Y-107136564D01*
X115747494Y-107049851D01*
X115742915Y-106946868D01*
X115749561Y-106843953D01*
G36*
X115744204Y-105925138D02*
G01*
X115758754Y-105818550D01*
X115786007Y-105726924D01*
X115802349Y-105693669D01*
X115840177Y-105639115D01*
X115884834Y-105588988D01*
X115928907Y-105550081D01*
X115964981Y-105529184D01*
X115981937Y-105529165D01*
X115997341Y-105549131D01*
X116022670Y-105592001D01*
X116048770Y-105641358D01*
X116100729Y-105744357D01*
X116056347Y-105777776D01*
X116017634Y-105817814D01*
X115984273Y-105869336D01*
X115982779Y-105872397D01*
X115965370Y-105947499D01*
X115978713Y-106023094D01*
X116019468Y-106087866D01*
X116054756Y-106116265D01*
X116142561Y-106152204D01*
X116242552Y-106165591D01*
X116343932Y-106157294D01*
X116435902Y-106128182D01*
X116506867Y-106079925D01*
X116538969Y-106041400D01*
X116554281Y-105999968D01*
X116558413Y-105939733D01*
X116558429Y-105933860D01*
X116555564Y-105874027D01*
X116542248Y-105833513D01*
X116511400Y-105795506D01*
X116492382Y-105777066D01*
X116426335Y-105714776D01*
X116468826Y-105624054D01*
X116494896Y-105572190D01*
X116516765Y-105535268D01*
X116526124Y-105524183D01*
X116551789Y-105527781D01*
X116591255Y-105554432D01*
X116637528Y-105597453D01*
X116683616Y-105650161D01*
X116722524Y-105705872D01*
X116730114Y-105719126D01*
X116770178Y-105824046D01*
X116789238Y-105944788D01*
X116786033Y-106066730D01*
X116767493Y-106152572D01*
X116713284Y-106262540D01*
X116628930Y-106353645D01*
X116527249Y-106418378D01*
X116468917Y-106444270D01*
X116415976Y-106459545D01*
X116354803Y-106466834D01*
X116271776Y-106468772D01*
X116266534Y-106468776D01*
X116183801Y-106467255D01*
X116123821Y-106460852D01*
X116073127Y-106446806D01*
X116018247Y-106422354D01*
X116003301Y-106414807D01*
X115899219Y-106344396D01*
X115817783Y-106253868D01*
X115765076Y-106150323D01*
X115758640Y-106129130D01*
X115743714Y-106033170D01*
X115744204Y-105925138D01*
G37*
X115744204Y-105925138D02*
X115758754Y-105818550D01*
X115786007Y-105726924D01*
X115802349Y-105693669D01*
X115840177Y-105639115D01*
X115884834Y-105588988D01*
X115928907Y-105550081D01*
X115964981Y-105529184D01*
X115981937Y-105529165D01*
X115997341Y-105549131D01*
X116022670Y-105592001D01*
X116048770Y-105641358D01*
X116100729Y-105744357D01*
X116056347Y-105777776D01*
X116017634Y-105817814D01*
X115984273Y-105869336D01*
X115982779Y-105872397D01*
X115965370Y-105947499D01*
X115978713Y-106023094D01*
X116019468Y-106087866D01*
X116054756Y-106116265D01*
X116142561Y-106152204D01*
X116242552Y-106165591D01*
X116343932Y-106157294D01*
X116435902Y-106128182D01*
X116506867Y-106079925D01*
X116538969Y-106041400D01*
X116554281Y-105999968D01*
X116558413Y-105939733D01*
X116558429Y-105933860D01*
X116555564Y-105874027D01*
X116542248Y-105833513D01*
X116511400Y-105795506D01*
X116492382Y-105777066D01*
X116426335Y-105714776D01*
X116468826Y-105624054D01*
X116494896Y-105572190D01*
X116516765Y-105535268D01*
X116526124Y-105524183D01*
X116551789Y-105527781D01*
X116591255Y-105554432D01*
X116637528Y-105597453D01*
X116683616Y-105650161D01*
X116722524Y-105705872D01*
X116730114Y-105719126D01*
X116770178Y-105824046D01*
X116789238Y-105944788D01*
X116786033Y-106066730D01*
X116767493Y-106152572D01*
X116713284Y-106262540D01*
X116628930Y-106353645D01*
X116527249Y-106418378D01*
X116468917Y-106444270D01*
X116415976Y-106459545D01*
X116354803Y-106466834D01*
X116271776Y-106468772D01*
X116266534Y-106468776D01*
X116183801Y-106467255D01*
X116123821Y-106460852D01*
X116073127Y-106446806D01*
X116018247Y-106422354D01*
X116003301Y-106414807D01*
X115899219Y-106344396D01*
X115817783Y-106253868D01*
X115765076Y-106150323D01*
X115758640Y-106129130D01*
X115743714Y-106033170D01*
X115744204Y-105925138D01*
G36*
X115742335Y-102684775D02*
G01*
X115743542Y-102582561D01*
X115745925Y-102507467D01*
X115749789Y-102454911D01*
X115755437Y-102420315D01*
X115763174Y-102399096D01*
X115770510Y-102389225D01*
X115785294Y-102379373D01*
X115810400Y-102372020D01*
X115850604Y-102366826D01*
X115910681Y-102363449D01*
X115995407Y-102361547D01*
X116109559Y-102360780D01*
X116169653Y-102360715D01*
X116540286Y-102360715D01*
X116540286Y-102560286D01*
X117374857Y-102560286D01*
X117374857Y-103086429D01*
X116540286Y-103086429D01*
X116540286Y-103286000D01*
X116171169Y-103286000D01*
X116045306Y-103285741D01*
X115950727Y-103284688D01*
X115882434Y-103282423D01*
X115835429Y-103278533D01*
X115804711Y-103272602D01*
X115785283Y-103264213D01*
X115772144Y-103252952D01*
X115772026Y-103252822D01*
X115762071Y-103237759D01*
X115754549Y-103214354D01*
X115749132Y-103177890D01*
X115745495Y-103123652D01*
X115743312Y-103046921D01*
X115742256Y-102942983D01*
X115742000Y-102818689D01*
X115742335Y-102684775D01*
G37*
X115742335Y-102684775D02*
X115743542Y-102582561D01*
X115745925Y-102507467D01*
X115749789Y-102454911D01*
X115755437Y-102420315D01*
X115763174Y-102399096D01*
X115770510Y-102389225D01*
X115785294Y-102379373D01*
X115810400Y-102372020D01*
X115850604Y-102366826D01*
X115910681Y-102363449D01*
X115995407Y-102361547D01*
X116109559Y-102360780D01*
X116169653Y-102360715D01*
X116540286Y-102360715D01*
X116540286Y-102560286D01*
X117374857Y-102560286D01*
X117374857Y-103086429D01*
X116540286Y-103086429D01*
X116540286Y-103286000D01*
X116171169Y-103286000D01*
X116045306Y-103285741D01*
X115950727Y-103284688D01*
X115882434Y-103282423D01*
X115835429Y-103278533D01*
X115804711Y-103272602D01*
X115785283Y-103264213D01*
X115772144Y-103252952D01*
X115772026Y-103252822D01*
X115762071Y-103237759D01*
X115754549Y-103214354D01*
X115749132Y-103177890D01*
X115745495Y-103123652D01*
X115743312Y-103046921D01*
X115742256Y-102942983D01*
X115742000Y-102818689D01*
X115742335Y-102684775D01*
G36*
X115168794Y-102758829D02*
G01*
X115198599Y-102681066D01*
X115226972Y-102644833D01*
X115292539Y-102602485D01*
X115373013Y-102583920D01*
X115457491Y-102588425D01*
X115535067Y-102615287D01*
X115594836Y-102663794D01*
X115598939Y-102669155D01*
X115629028Y-102734456D01*
X115642477Y-102816263D01*
X115637044Y-102897774D01*
X115632075Y-102917466D01*
X115599222Y-102983336D01*
X115545437Y-103025596D01*
X115466536Y-103046664D01*
X115402515Y-103050143D01*
X115335692Y-103048325D01*
X115292382Y-103040276D01*
X115259889Y-103022101D01*
X115233939Y-102998444D01*
X115186675Y-102928279D01*
X115164890Y-102844821D01*
X115168794Y-102758829D01*
G37*
X115168794Y-102758829D02*
X115198599Y-102681066D01*
X115226972Y-102644833D01*
X115292539Y-102602485D01*
X115373013Y-102583920D01*
X115457491Y-102588425D01*
X115535067Y-102615287D01*
X115594836Y-102663794D01*
X115598939Y-102669155D01*
X115629028Y-102734456D01*
X115642477Y-102816263D01*
X115637044Y-102897774D01*
X115632075Y-102917466D01*
X115599222Y-102983336D01*
X115545437Y-103025596D01*
X115466536Y-103046664D01*
X115402515Y-103050143D01*
X115335692Y-103048325D01*
X115292382Y-103040276D01*
X115259889Y-103022101D01*
X115233939Y-102998444D01*
X115186675Y-102928279D01*
X115164890Y-102844821D01*
X115168794Y-102758829D01*
G36*
X115380908Y-95368337D02*
G01*
X115400343Y-95243964D01*
X115414392Y-95191156D01*
X115479606Y-95041637D01*
X115574163Y-94910543D01*
X115694748Y-94800483D01*
X115838048Y-94714063D01*
X116000749Y-94653891D01*
X116130132Y-94628003D01*
X116324657Y-94617367D01*
X116507556Y-94638329D01*
X116675875Y-94690170D01*
X116826658Y-94772173D01*
X116876424Y-94809218D01*
X117002147Y-94932895D01*
X117098440Y-95076019D01*
X117163961Y-95235060D01*
X117197365Y-95406488D01*
X117197307Y-95586772D01*
X117191412Y-95636285D01*
X117151754Y-95789537D01*
X117081164Y-95927840D01*
X116983294Y-96047239D01*
X116861792Y-96143777D01*
X116720308Y-96213496D01*
X116635536Y-96238920D01*
X116540286Y-96261442D01*
X116540286Y-95833594D01*
X116619810Y-95813569D01*
X116696170Y-95778628D01*
X116764618Y-95719733D01*
X116813550Y-95648027D01*
X116825773Y-95615775D01*
X116833324Y-95570393D01*
X116838232Y-95505399D01*
X116839337Y-95455570D01*
X116824945Y-95346939D01*
X116780985Y-95256344D01*
X116705288Y-95180268D01*
X116645772Y-95141286D01*
X116535879Y-95093757D01*
X116411405Y-95065108D01*
X116279910Y-95054767D01*
X116148952Y-95062163D01*
X116026091Y-95086724D01*
X115918885Y-95127879D01*
X115834895Y-95185054D01*
X115816429Y-95204013D01*
X115760796Y-95293517D01*
X115731851Y-95399675D01*
X115730474Y-95513630D01*
X115757548Y-95626528D01*
X115771194Y-95658538D01*
X115814748Y-95719282D01*
X115878185Y-95772353D01*
X115947629Y-95807274D01*
X115977479Y-95814320D01*
X116011802Y-95811873D01*
X116028275Y-95785904D01*
X116031908Y-95769769D01*
X116036749Y-95750016D01*
X116045016Y-95741582D01*
X116061068Y-95747334D01*
X116089262Y-95770141D01*
X116133959Y-95812869D01*
X116199516Y-95878386D01*
X116204265Y-95883162D01*
X116367172Y-96047000D01*
X116204265Y-96210880D01*
X116041357Y-96374761D01*
X116032286Y-96315202D01*
X116022169Y-96276850D01*
X115999703Y-96253536D01*
X115954267Y-96235478D01*
X115941571Y-96231661D01*
X115774692Y-96168012D01*
X115637130Y-96083387D01*
X115528090Y-95977054D01*
X115446777Y-95848281D01*
X115403555Y-95736686D01*
X115382237Y-95628679D01*
X115374781Y-95501236D01*
X115380908Y-95368337D01*
G37*
X115380908Y-95368337D02*
X115400343Y-95243964D01*
X115414392Y-95191156D01*
X115479606Y-95041637D01*
X115574163Y-94910543D01*
X115694748Y-94800483D01*
X115838048Y-94714063D01*
X116000749Y-94653891D01*
X116130132Y-94628003D01*
X116324657Y-94617367D01*
X116507556Y-94638329D01*
X116675875Y-94690170D01*
X116826658Y-94772173D01*
X116876424Y-94809218D01*
X117002147Y-94932895D01*
X117098440Y-95076019D01*
X117163961Y-95235060D01*
X117197365Y-95406488D01*
X117197307Y-95586772D01*
X117191412Y-95636285D01*
X117151754Y-95789537D01*
X117081164Y-95927840D01*
X116983294Y-96047239D01*
X116861792Y-96143777D01*
X116720308Y-96213496D01*
X116635536Y-96238920D01*
X116540286Y-96261442D01*
X116540286Y-95833594D01*
X116619810Y-95813569D01*
X116696170Y-95778628D01*
X116764618Y-95719733D01*
X116813550Y-95648027D01*
X116825773Y-95615775D01*
X116833324Y-95570393D01*
X116838232Y-95505399D01*
X116839337Y-95455570D01*
X116824945Y-95346939D01*
X116780985Y-95256344D01*
X116705288Y-95180268D01*
X116645772Y-95141286D01*
X116535879Y-95093757D01*
X116411405Y-95065108D01*
X116279910Y-95054767D01*
X116148952Y-95062163D01*
X116026091Y-95086724D01*
X115918885Y-95127879D01*
X115834895Y-95185054D01*
X115816429Y-95204013D01*
X115760796Y-95293517D01*
X115731851Y-95399675D01*
X115730474Y-95513630D01*
X115757548Y-95626528D01*
X115771194Y-95658538D01*
X115814748Y-95719282D01*
X115878185Y-95772353D01*
X115947629Y-95807274D01*
X115977479Y-95814320D01*
X116011802Y-95811873D01*
X116028275Y-95785904D01*
X116031908Y-95769769D01*
X116036749Y-95750016D01*
X116045016Y-95741582D01*
X116061068Y-95747334D01*
X116089262Y-95770141D01*
X116133959Y-95812869D01*
X116199516Y-95878386D01*
X116204265Y-95883162D01*
X116367172Y-96047000D01*
X116204265Y-96210880D01*
X116041357Y-96374761D01*
X116032286Y-96315202D01*
X116022169Y-96276850D01*
X115999703Y-96253536D01*
X115954267Y-96235478D01*
X115941571Y-96231661D01*
X115774692Y-96168012D01*
X115637130Y-96083387D01*
X115528090Y-95977054D01*
X115446777Y-95848281D01*
X115403555Y-95736686D01*
X115382237Y-95628679D01*
X115374781Y-95501236D01*
X115380908Y-95368337D01*
D15*
X147685000Y-98845000D02*
X152185000Y-98845000D01*
X146435000Y-94845000D02*
X146435000Y-96345000D01*
X152185000Y-92345000D02*
X147685000Y-92345000D01*
X153435000Y-96345000D02*
X153435000Y-94845000D01*
X150257000Y-86850000D02*
X152257000Y-86850000D01*
X150257000Y-89650000D02*
X150257000Y-86850000D01*
X152257000Y-89650000D02*
X150257000Y-89650000D01*
X152257000Y-86850000D02*
X152257000Y-89650000D01*
X148690000Y-122555000D02*
G75*
G03*
X148690000Y-122555000I-1370000J0D01*
G01*
X147320000Y-123925000D02*
X147320000Y-123995000D01*
X152500000Y-122555000D02*
G75*
G03*
X152500000Y-122555000I-1370000J0D01*
G01*
X151130000Y-123925000D02*
X151130000Y-123995000D01*
X120750000Y-144780000D02*
G75*
G03*
X120750000Y-144780000I-1370000J0D01*
G01*
X118010000Y-144780000D02*
X117940000Y-144780000D01*
X147420000Y-86995000D02*
G75*
G03*
X147420000Y-86995000I-1370000J0D01*
G01*
X146050000Y-88365000D02*
X146050000Y-88435000D01*
X106830000Y-143390000D02*
X113650000Y-143390000D01*
X106830000Y-145930000D02*
X113650000Y-145930000D01*
X106830000Y-143390000D02*
X106830000Y-145930000D01*
X113650000Y-143390000D02*
X113650000Y-145930000D01*
X106830000Y-144129000D02*
X106941000Y-144129000D01*
X108959000Y-144129000D02*
X109232000Y-144129000D01*
X111249000Y-144129000D02*
X111522000Y-144129000D01*
X113539000Y-144129000D02*
X113650000Y-144129000D01*
X147286000Y-80990000D02*
X147130000Y-80990000D01*
X144970000Y-80990000D02*
X144814000Y-80990000D01*
X144970163Y-83591130D02*
G75*
G02*
X144970000Y-81509039I1079837J1041130D01*
G01*
X147129837Y-83591130D02*
G75*
G03*
X147130000Y-81509039I-1079837J1041130D01*
G01*
X144971392Y-84222335D02*
G75*
G02*
X144814484Y-80990000I1078608J1672335D01*
G01*
X147128608Y-84222335D02*
G75*
G03*
X147285516Y-80990000I-1078608J1672335D01*
G01*
X150075000Y-129655000D02*
G75*
G03*
X150075000Y-129655000I-2120000J0D01*
G01*
X147115000Y-129655000D02*
X145875000Y-129655000D01*
X150035000Y-129655000D02*
X148795000Y-129655000D01*
X147115000Y-129695000D02*
X145875000Y-129695000D01*
X150035000Y-129695000D02*
X148795000Y-129695000D01*
X147115000Y-129735000D02*
X145876000Y-129735000D01*
X150034000Y-129735000D02*
X148795000Y-129735000D01*
X150032000Y-129775000D02*
X148795000Y-129775000D01*
X147115000Y-129775000D02*
X145878000Y-129775000D01*
X150029000Y-129815000D02*
X148795000Y-129815000D01*
X147115000Y-129815000D02*
X145881000Y-129815000D01*
X150026000Y-129855000D02*
X148795000Y-129855000D01*
X147115000Y-129855000D02*
X145884000Y-129855000D01*
X150022000Y-129895000D02*
X148795000Y-129895000D01*
X147115000Y-129895000D02*
X145888000Y-129895000D01*
X150017000Y-129935000D02*
X148795000Y-129935000D01*
X147115000Y-129935000D02*
X145893000Y-129935000D01*
X150011000Y-129975000D02*
X148795000Y-129975000D01*
X147115000Y-129975000D02*
X145899000Y-129975000D01*
X150005000Y-130015000D02*
X148795000Y-130015000D01*
X147115000Y-130015000D02*
X145905000Y-130015000D01*
X149997000Y-130055000D02*
X148795000Y-130055000D01*
X147115000Y-130055000D02*
X145913000Y-130055000D01*
X149989000Y-130095000D02*
X148795000Y-130095000D01*
X147115000Y-130095000D02*
X145921000Y-130095000D01*
X149980000Y-130135000D02*
X148795000Y-130135000D01*
X147115000Y-130135000D02*
X145930000Y-130135000D01*
X149971000Y-130175000D02*
X148795000Y-130175000D01*
X147115000Y-130175000D02*
X145939000Y-130175000D01*
X149960000Y-130215000D02*
X148795000Y-130215000D01*
X147115000Y-130215000D02*
X145950000Y-130215000D01*
X149949000Y-130255000D02*
X148795000Y-130255000D01*
X147115000Y-130255000D02*
X145961000Y-130255000D01*
X149937000Y-130295000D02*
X148795000Y-130295000D01*
X147115000Y-130295000D02*
X145973000Y-130295000D01*
X149923000Y-130335000D02*
X148795000Y-130335000D01*
X147115000Y-130335000D02*
X145987000Y-130335000D01*
X149909000Y-130376000D02*
X148795000Y-130376000D01*
X147115000Y-130376000D02*
X146001000Y-130376000D01*
X149895000Y-130416000D02*
X148795000Y-130416000D01*
X147115000Y-130416000D02*
X146015000Y-130416000D01*
X149879000Y-130456000D02*
X148795000Y-130456000D01*
X147115000Y-130456000D02*
X146031000Y-130456000D01*
X149862000Y-130496000D02*
X148795000Y-130496000D01*
X147115000Y-130496000D02*
X146048000Y-130496000D01*
X149844000Y-130536000D02*
X148795000Y-130536000D01*
X147115000Y-130536000D02*
X146066000Y-130536000D01*
X149825000Y-130576000D02*
X148795000Y-130576000D01*
X147115000Y-130576000D02*
X146085000Y-130576000D01*
X149806000Y-130616000D02*
X148795000Y-130616000D01*
X147115000Y-130616000D02*
X146104000Y-130616000D01*
X149785000Y-130656000D02*
X148795000Y-130656000D01*
X147115000Y-130656000D02*
X146125000Y-130656000D01*
X149763000Y-130696000D02*
X148795000Y-130696000D01*
X147115000Y-130696000D02*
X146147000Y-130696000D01*
X149740000Y-130736000D02*
X148795000Y-130736000D01*
X147115000Y-130736000D02*
X146170000Y-130736000D01*
X149715000Y-130776000D02*
X148795000Y-130776000D01*
X147115000Y-130776000D02*
X146195000Y-130776000D01*
X149690000Y-130816000D02*
X148795000Y-130816000D01*
X147115000Y-130816000D02*
X146220000Y-130816000D01*
X149663000Y-130856000D02*
X148795000Y-130856000D01*
X147115000Y-130856000D02*
X146247000Y-130856000D01*
X149635000Y-130896000D02*
X148795000Y-130896000D01*
X147115000Y-130896000D02*
X146275000Y-130896000D01*
X149605000Y-130936000D02*
X148795000Y-130936000D01*
X147115000Y-130936000D02*
X146305000Y-130936000D01*
X149574000Y-130976000D02*
X148795000Y-130976000D01*
X147115000Y-130976000D02*
X146336000Y-130976000D01*
X149542000Y-131016000D02*
X148795000Y-131016000D01*
X147115000Y-131016000D02*
X146368000Y-131016000D01*
X149507000Y-131056000D02*
X148795000Y-131056000D01*
X147115000Y-131056000D02*
X146403000Y-131056000D01*
X149471000Y-131096000D02*
X148795000Y-131096000D01*
X147115000Y-131096000D02*
X146439000Y-131096000D01*
X149433000Y-131136000D02*
X148795000Y-131136000D01*
X147115000Y-131136000D02*
X146477000Y-131136000D01*
X149393000Y-131176000D02*
X148795000Y-131176000D01*
X147115000Y-131176000D02*
X146517000Y-131176000D01*
X149351000Y-131216000D02*
X148795000Y-131216000D01*
X147115000Y-131216000D02*
X146559000Y-131216000D01*
X149306000Y-131256000D02*
X146604000Y-131256000D01*
X149259000Y-131296000D02*
X146651000Y-131296000D01*
X149209000Y-131336000D02*
X146701000Y-131336000D01*
X149155000Y-131376000D02*
X146755000Y-131376000D01*
X149097000Y-131416000D02*
X146813000Y-131416000D01*
X149035000Y-131456000D02*
X146875000Y-131456000D01*
X148968000Y-131496000D02*
X146942000Y-131496000D01*
X148895000Y-131536000D02*
X147015000Y-131536000D01*
X148814000Y-131576000D02*
X147096000Y-131576000D01*
X148723000Y-131616000D02*
X147187000Y-131616000D01*
X148619000Y-131656000D02*
X147291000Y-131656000D01*
X148492000Y-131696000D02*
X147418000Y-131696000D01*
X148325000Y-131736000D02*
X147585000Y-131736000D01*
X149150000Y-127385199D02*
X149150000Y-127785199D01*
X149350000Y-127585199D02*
X148950000Y-127585199D01*
X139065000Y-91440000D02*
G75*
G03*
X139065000Y-91440000I-635000J0D01*
G01*
X139065000Y-93980000D02*
G75*
G03*
X139065000Y-93980000I-635000J0D01*
G01*
X130810000Y-90360000D02*
X134366000Y-90360000D01*
X130810000Y-94361000D02*
X134366000Y-94361000D01*
X138397000Y-97282000D02*
X128397000Y-97282000D01*
X138430000Y-107315000D02*
X138397000Y-97315000D01*
X128430000Y-107315000D02*
X128397000Y-97315000D01*
X138430000Y-107315000D02*
X128430000Y-107315000D01*
D12*
X124460000Y-111760000D02*
X142240000Y-111760000D01*
X124460000Y-78740000D02*
X124460000Y-111760000D01*
X142240000Y-78740000D02*
X124460000Y-78740000D01*
X142240000Y-111760000D02*
X142240000Y-78740000D01*
X129159000Y-86233000D02*
X129159000Y-88773000D01*
X134239000Y-86233000D02*
X129159000Y-86233000D01*
X134239000Y-88773000D02*
X134239000Y-86233000D01*
X129159000Y-88773000D02*
X134239000Y-88773000D01*
X127635000Y-80010000D02*
G75*
G03*
X127635000Y-80010000I-635000J0D01*
G01*
X130175000Y-80010000D02*
G75*
G03*
X130175000Y-80010000I-635000J0D01*
G01*
X132715000Y-80010000D02*
G75*
G03*
X132715000Y-80010000I-635000J0D01*
G01*
X135255000Y-80010000D02*
G75*
G03*
X135255000Y-80010000I-635000J0D01*
G01*
X137795000Y-80010000D02*
G75*
G03*
X137795000Y-80010000I-635000J0D01*
G01*
X140335000Y-80010000D02*
G75*
G03*
X140335000Y-80010000I-635000J0D01*
G01*
D15*
X134366000Y-90360000D02*
G75*
G02*
X134366000Y-94360000I0J-2000000D01*
G01*
X130810000Y-94360000D02*
G75*
G02*
X130810000Y-90360000I0J2000000D01*
G01*
X170120000Y-82580000D02*
X170120000Y-79920000D01*
X167520000Y-82580000D02*
X170120000Y-82580000D01*
X167520000Y-79920000D02*
X170120000Y-79920000D01*
X167520000Y-82580000D02*
X167520000Y-79920000D01*
X166250000Y-82580000D02*
X164920000Y-82580000D01*
X164920000Y-82580000D02*
X164920000Y-81250000D01*
X152460000Y-139640000D02*
X149800000Y-139640000D01*
X152460000Y-147320000D02*
X152460000Y-139640000D01*
X149800000Y-147320000D02*
X149800000Y-139640000D01*
X152460000Y-147320000D02*
X149800000Y-147320000D01*
X152460000Y-148590000D02*
X152460000Y-149920000D01*
X152460000Y-149920000D02*
X151130000Y-149920000D01*
X142300000Y-139640000D02*
X139640000Y-139640000D01*
X142300000Y-147320000D02*
X142300000Y-139640000D01*
X139640000Y-147320000D02*
X139640000Y-139640000D01*
X142300000Y-147320000D02*
X139640000Y-147320000D01*
X142300000Y-148590000D02*
X142300000Y-149920000D01*
X142300000Y-149920000D02*
X140970000Y-149920000D01*
X137220000Y-139640000D02*
X134560000Y-139640000D01*
X137220000Y-147320000D02*
X137220000Y-139640000D01*
X134560000Y-147320000D02*
X134560000Y-139640000D01*
X137220000Y-147320000D02*
X134560000Y-147320000D01*
X137220000Y-148590000D02*
X137220000Y-149920000D01*
X137220000Y-149920000D02*
X135890000Y-149920000D01*
X127060000Y-139640000D02*
X124400000Y-139640000D01*
X127060000Y-147320000D02*
X127060000Y-139640000D01*
X124400000Y-147320000D02*
X124400000Y-139640000D01*
X127060000Y-147320000D02*
X124400000Y-147320000D01*
X127060000Y-148590000D02*
X127060000Y-149920000D01*
X127060000Y-149920000D02*
X125730000Y-149920000D01*
X171510000Y-146110000D02*
X171510000Y-143450000D01*
X158750000Y-146110000D02*
X171510000Y-146110000D01*
X158750000Y-143450000D02*
X171510000Y-143450000D01*
X158750000Y-146110000D02*
X158750000Y-143450000D01*
X157480000Y-146110000D02*
X156150000Y-146110000D01*
X156150000Y-146110000D02*
X156150000Y-144780000D01*
X151070000Y-108010000D02*
X153730000Y-108010000D01*
X151070000Y-105410000D02*
X151070000Y-108010000D01*
X153730000Y-105410000D02*
X153730000Y-108010000D01*
X151070000Y-105410000D02*
X153730000Y-105410000D01*
X151070000Y-104140000D02*
X151070000Y-102810000D01*
X151070000Y-102810000D02*
X152400000Y-102810000D01*
X145990000Y-108010000D02*
X148650000Y-108010000D01*
X145990000Y-105410000D02*
X145990000Y-108010000D01*
X148650000Y-105410000D02*
X148650000Y-108010000D01*
X145990000Y-105410000D02*
X148650000Y-105410000D01*
X145990000Y-104140000D02*
X145990000Y-102810000D01*
X145990000Y-102810000D02*
X147320000Y-102810000D01*
X151070000Y-117535000D02*
X153730000Y-117535000D01*
X151070000Y-114935000D02*
X151070000Y-117535000D01*
X153730000Y-114935000D02*
X153730000Y-117535000D01*
X151070000Y-114935000D02*
X153730000Y-114935000D01*
X151070000Y-113665000D02*
X151070000Y-112335000D01*
X151070000Y-112335000D02*
X152400000Y-112335000D01*
X145990000Y-117535000D02*
X148650000Y-117535000D01*
X145990000Y-114935000D02*
X145990000Y-117535000D01*
X148650000Y-114935000D02*
X148650000Y-117535000D01*
X145990000Y-114935000D02*
X148650000Y-114935000D01*
X145990000Y-113665000D02*
X145990000Y-112335000D01*
X145990000Y-112335000D02*
X147320000Y-112335000D01*
D12*
X125294080Y-131479823D02*
X126008366Y-131479823D01*
X126151223Y-131527442D01*
X126246461Y-131622680D01*
X126294080Y-131765538D01*
X126294080Y-131860776D01*
X126294080Y-130479823D02*
X126294080Y-131051252D01*
X126294080Y-130765538D02*
X125294080Y-130765538D01*
X125436938Y-130860776D01*
X125532176Y-130956014D01*
X125579795Y-131051252D01*
X126294080Y-129527442D02*
X126294080Y-130098871D01*
X126294080Y-129813157D02*
X125294080Y-129813157D01*
X125436938Y-129908395D01*
X125532176Y-130003633D01*
X125579795Y-130098871D01*
X102928571Y-139705714D02*
X102976190Y-139562857D01*
X103023809Y-139515238D01*
X103119047Y-139467619D01*
X103261904Y-139467619D01*
X103357142Y-139515238D01*
X103404761Y-139562857D01*
X103452380Y-139658095D01*
X103452380Y-140039047D01*
X102452380Y-140039047D01*
X102452380Y-139705714D01*
X102500000Y-139610476D01*
X102547619Y-139562857D01*
X102642857Y-139515238D01*
X102738095Y-139515238D01*
X102833333Y-139562857D01*
X102880952Y-139610476D01*
X102928571Y-139705714D01*
X102928571Y-140039047D01*
X102452380Y-139181904D02*
X102452380Y-138610476D01*
X103452380Y-138896190D02*
X102452380Y-138896190D01*
X102547619Y-138324761D02*
X102500000Y-138277142D01*
X102452380Y-138181904D01*
X102452380Y-137943809D01*
X102500000Y-137848571D01*
X102547619Y-137800952D01*
X102642857Y-137753333D01*
X102738095Y-137753333D01*
X102880952Y-137800952D01*
X103452380Y-138372380D01*
X103452380Y-137753333D01*
X112846980Y-120537720D02*
X111846980Y-120537720D01*
X112846980Y-119966291D02*
X112275552Y-120394862D01*
X111846980Y-119966291D02*
X112418409Y-120537720D01*
X112799361Y-119156767D02*
X112846980Y-119252005D01*
X112846980Y-119442481D01*
X112799361Y-119537720D01*
X112704123Y-119585339D01*
X112323171Y-119585339D01*
X112227933Y-119537720D01*
X112180314Y-119442481D01*
X112180314Y-119252005D01*
X112227933Y-119156767D01*
X112323171Y-119109148D01*
X112418409Y-119109148D01*
X112513647Y-119585339D01*
X112180314Y-118775815D02*
X112846980Y-118537720D01*
X112180314Y-118299624D02*
X112846980Y-118537720D01*
X113085076Y-118632958D01*
X113132695Y-118680577D01*
X113180314Y-118775815D01*
X112799361Y-117966291D02*
X112846980Y-117871053D01*
X112846980Y-117680577D01*
X112799361Y-117585339D01*
X112704123Y-117537720D01*
X112656504Y-117537720D01*
X112561266Y-117585339D01*
X112513647Y-117680577D01*
X112513647Y-117823434D01*
X112466028Y-117918672D01*
X112370790Y-117966291D01*
X112323171Y-117966291D01*
X112227933Y-117918672D01*
X112180314Y-117823434D01*
X112180314Y-117680577D01*
X112227933Y-117585339D01*
X112180314Y-117252005D02*
X112180314Y-116871053D01*
X111846980Y-117109148D02*
X112704123Y-117109148D01*
X112799361Y-117061529D01*
X112846980Y-116966291D01*
X112846980Y-116871053D01*
X112846980Y-116394862D02*
X112799361Y-116490100D01*
X112751742Y-116537720D01*
X112656504Y-116585339D01*
X112370790Y-116585339D01*
X112275552Y-116537720D01*
X112227933Y-116490100D01*
X112180314Y-116394862D01*
X112180314Y-116252005D01*
X112227933Y-116156767D01*
X112275552Y-116109148D01*
X112370790Y-116061529D01*
X112656504Y-116061529D01*
X112751742Y-116109148D01*
X112799361Y-116156767D01*
X112846980Y-116252005D01*
X112846980Y-116394862D01*
X112180314Y-115632958D02*
X112846980Y-115632958D01*
X112275552Y-115632958D02*
X112227933Y-115585339D01*
X112180314Y-115490100D01*
X112180314Y-115347243D01*
X112227933Y-115252005D01*
X112323171Y-115204386D01*
X112846980Y-115204386D01*
X112799361Y-114347243D02*
X112846980Y-114442481D01*
X112846980Y-114632958D01*
X112799361Y-114728196D01*
X112704123Y-114775815D01*
X112323171Y-114775815D01*
X112227933Y-114728196D01*
X112180314Y-114632958D01*
X112180314Y-114442481D01*
X112227933Y-114347243D01*
X112323171Y-114299624D01*
X112418409Y-114299624D01*
X112513647Y-114775815D01*
X111942219Y-113156767D02*
X111894600Y-113109148D01*
X111846980Y-113013910D01*
X111846980Y-112775815D01*
X111894600Y-112680577D01*
X111942219Y-112632958D01*
X112037457Y-112585339D01*
X112132695Y-112585339D01*
X112275552Y-112632958D01*
X112846980Y-113204386D01*
X112846980Y-112585339D01*
X112180314Y-111728196D02*
X112846980Y-111728196D01*
X111799361Y-111966291D02*
X112513647Y-112204386D01*
X112513647Y-111585339D01*
X111846980Y-110775815D02*
X111846980Y-110966291D01*
X111894600Y-111061529D01*
X111942219Y-111109148D01*
X112085076Y-111204386D01*
X112275552Y-111252005D01*
X112656504Y-111252005D01*
X112751742Y-111204386D01*
X112799361Y-111156767D01*
X112846980Y-111061529D01*
X112846980Y-110871053D01*
X112799361Y-110775815D01*
X112751742Y-110728196D01*
X112656504Y-110680577D01*
X112418409Y-110680577D01*
X112323171Y-110728196D01*
X112275552Y-110775815D01*
X112227933Y-110871053D01*
X112227933Y-111061529D01*
X112275552Y-111156767D01*
X112323171Y-111204386D01*
X112418409Y-111252005D01*
X111846980Y-110061529D02*
X111846980Y-109966291D01*
X111894600Y-109871053D01*
X111942219Y-109823434D01*
X112037457Y-109775815D01*
X112227933Y-109728196D01*
X112466028Y-109728196D01*
X112656504Y-109775815D01*
X112751742Y-109823434D01*
X112799361Y-109871053D01*
X112846980Y-109966291D01*
X112846980Y-110061529D01*
X112799361Y-110156767D01*
X112751742Y-110204386D01*
X112656504Y-110252005D01*
X112466028Y-110299624D01*
X112227933Y-110299624D01*
X112037457Y-110252005D01*
X111942219Y-110204386D01*
X111894600Y-110156767D01*
X111846980Y-110061529D01*
X112846980Y-108013910D02*
X112846980Y-108585339D01*
X112846980Y-108299624D02*
X111846980Y-108299624D01*
X111989838Y-108394862D01*
X112085076Y-108490100D01*
X112132695Y-108585339D01*
X112846980Y-107680577D02*
X112180314Y-107156767D01*
X112180314Y-107680577D02*
X112846980Y-107156767D01*
X112561266Y-106823434D02*
X112561266Y-106347243D01*
X112846980Y-106918672D02*
X111846980Y-106585339D01*
X112846980Y-106252005D01*
X112561266Y-105966291D02*
X112561266Y-105490100D01*
X112846980Y-106061529D02*
X111846980Y-105728196D01*
X112846980Y-105394862D01*
X112431428Y-142680952D02*
X112431428Y-141919047D01*
X112812380Y-142300000D02*
X112050476Y-142300000D01*
X111979047Y-83601428D02*
X112740952Y-83601428D01*
X173838571Y-87625714D02*
X173886190Y-87482857D01*
X173933809Y-87435238D01*
X174029047Y-87387619D01*
X174171904Y-87387619D01*
X174267142Y-87435238D01*
X174314761Y-87482857D01*
X174362380Y-87578095D01*
X174362380Y-87959047D01*
X173362380Y-87959047D01*
X173362380Y-87625714D01*
X173410000Y-87530476D01*
X173457619Y-87482857D01*
X173552857Y-87435238D01*
X173648095Y-87435238D01*
X173743333Y-87482857D01*
X173790952Y-87530476D01*
X173838571Y-87625714D01*
X173838571Y-87959047D01*
X173362380Y-87101904D02*
X173362380Y-86530476D01*
X174362380Y-86816190D02*
X173362380Y-86816190D01*
X174362380Y-85673333D02*
X174362380Y-86244761D01*
X174362380Y-85959047D02*
X173362380Y-85959047D01*
X173505238Y-86054285D01*
X173600476Y-86149523D01*
X173648095Y-86244761D01*
X164967780Y-120222280D02*
X163967780Y-120222280D01*
X164967780Y-119650851D02*
X164396352Y-120079422D01*
X163967780Y-119650851D02*
X164539209Y-120222280D01*
X164920161Y-118841327D02*
X164967780Y-118936565D01*
X164967780Y-119127041D01*
X164920161Y-119222280D01*
X164824923Y-119269899D01*
X164443971Y-119269899D01*
X164348733Y-119222280D01*
X164301114Y-119127041D01*
X164301114Y-118936565D01*
X164348733Y-118841327D01*
X164443971Y-118793708D01*
X164539209Y-118793708D01*
X164634447Y-119269899D01*
X164301114Y-118460375D02*
X164967780Y-118222280D01*
X164301114Y-117984184D02*
X164967780Y-118222280D01*
X165205876Y-118317518D01*
X165253495Y-118365137D01*
X165301114Y-118460375D01*
X164920161Y-117650851D02*
X164967780Y-117555613D01*
X164967780Y-117365137D01*
X164920161Y-117269899D01*
X164824923Y-117222280D01*
X164777304Y-117222280D01*
X164682066Y-117269899D01*
X164634447Y-117365137D01*
X164634447Y-117507994D01*
X164586828Y-117603232D01*
X164491590Y-117650851D01*
X164443971Y-117650851D01*
X164348733Y-117603232D01*
X164301114Y-117507994D01*
X164301114Y-117365137D01*
X164348733Y-117269899D01*
X164301114Y-116936565D02*
X164301114Y-116555613D01*
X163967780Y-116793708D02*
X164824923Y-116793708D01*
X164920161Y-116746089D01*
X164967780Y-116650851D01*
X164967780Y-116555613D01*
X164967780Y-116079422D02*
X164920161Y-116174660D01*
X164872542Y-116222280D01*
X164777304Y-116269899D01*
X164491590Y-116269899D01*
X164396352Y-116222280D01*
X164348733Y-116174660D01*
X164301114Y-116079422D01*
X164301114Y-115936565D01*
X164348733Y-115841327D01*
X164396352Y-115793708D01*
X164491590Y-115746089D01*
X164777304Y-115746089D01*
X164872542Y-115793708D01*
X164920161Y-115841327D01*
X164967780Y-115936565D01*
X164967780Y-116079422D01*
X164301114Y-115317518D02*
X164967780Y-115317518D01*
X164396352Y-115317518D02*
X164348733Y-115269899D01*
X164301114Y-115174660D01*
X164301114Y-115031803D01*
X164348733Y-114936565D01*
X164443971Y-114888946D01*
X164967780Y-114888946D01*
X164920161Y-114031803D02*
X164967780Y-114127041D01*
X164967780Y-114317518D01*
X164920161Y-114412756D01*
X164824923Y-114460375D01*
X164443971Y-114460375D01*
X164348733Y-114412756D01*
X164301114Y-114317518D01*
X164301114Y-114127041D01*
X164348733Y-114031803D01*
X164443971Y-113984184D01*
X164539209Y-113984184D01*
X164634447Y-114460375D01*
X164063019Y-112841327D02*
X164015400Y-112793708D01*
X163967780Y-112698470D01*
X163967780Y-112460375D01*
X164015400Y-112365137D01*
X164063019Y-112317518D01*
X164158257Y-112269899D01*
X164253495Y-112269899D01*
X164396352Y-112317518D01*
X164967780Y-112888946D01*
X164967780Y-112269899D01*
X164301114Y-111412756D02*
X164967780Y-111412756D01*
X163920161Y-111650851D02*
X164634447Y-111888946D01*
X164634447Y-111269899D01*
X163967780Y-110460375D02*
X163967780Y-110650851D01*
X164015400Y-110746089D01*
X164063019Y-110793708D01*
X164205876Y-110888946D01*
X164396352Y-110936565D01*
X164777304Y-110936565D01*
X164872542Y-110888946D01*
X164920161Y-110841327D01*
X164967780Y-110746089D01*
X164967780Y-110555613D01*
X164920161Y-110460375D01*
X164872542Y-110412756D01*
X164777304Y-110365137D01*
X164539209Y-110365137D01*
X164443971Y-110412756D01*
X164396352Y-110460375D01*
X164348733Y-110555613D01*
X164348733Y-110746089D01*
X164396352Y-110841327D01*
X164443971Y-110888946D01*
X164539209Y-110936565D01*
X163967780Y-109746089D02*
X163967780Y-109650851D01*
X164015400Y-109555613D01*
X164063019Y-109507994D01*
X164158257Y-109460375D01*
X164348733Y-109412756D01*
X164586828Y-109412756D01*
X164777304Y-109460375D01*
X164872542Y-109507994D01*
X164920161Y-109555613D01*
X164967780Y-109650851D01*
X164967780Y-109746089D01*
X164920161Y-109841327D01*
X164872542Y-109888946D01*
X164777304Y-109936565D01*
X164586828Y-109984184D01*
X164348733Y-109984184D01*
X164158257Y-109936565D01*
X164063019Y-109888946D01*
X164015400Y-109841327D01*
X163967780Y-109746089D01*
X164967780Y-107698470D02*
X164967780Y-108269899D01*
X164967780Y-107984184D02*
X163967780Y-107984184D01*
X164110638Y-108079422D01*
X164205876Y-108174660D01*
X164253495Y-108269899D01*
X164967780Y-107365137D02*
X164301114Y-106841327D01*
X164301114Y-107365137D02*
X164967780Y-106841327D01*
X164682066Y-106507994D02*
X164682066Y-106031803D01*
X164967780Y-106603232D02*
X163967780Y-106269899D01*
X164967780Y-105936565D01*
X164682066Y-105650851D02*
X164682066Y-105174660D01*
X164967780Y-105746089D02*
X163967780Y-105412756D01*
X164967780Y-105079422D01*
X164621428Y-83840952D02*
X164621428Y-83079047D01*
X165002380Y-83460000D02*
X164240476Y-83460000D01*
X164169047Y-142301428D02*
X164930952Y-142301428D01*
X148501266Y-94702261D02*
X148644123Y-94749880D01*
X148882219Y-94749880D01*
X148977457Y-94702261D01*
X149025076Y-94654642D01*
X149072695Y-94559404D01*
X149072695Y-94464166D01*
X149025076Y-94368928D01*
X148977457Y-94321309D01*
X148882219Y-94273690D01*
X148691742Y-94226071D01*
X148596504Y-94178452D01*
X148548885Y-94130833D01*
X148501266Y-94035595D01*
X148501266Y-93940357D01*
X148548885Y-93845119D01*
X148596504Y-93797500D01*
X148691742Y-93749880D01*
X148929838Y-93749880D01*
X149072695Y-93797500D01*
X149406028Y-93749880D02*
X149644123Y-94749880D01*
X149834600Y-94035595D01*
X150025076Y-94749880D01*
X150263171Y-93749880D01*
X151167933Y-94749880D02*
X150596504Y-94749880D01*
X150882219Y-94749880D02*
X150882219Y-93749880D01*
X150786980Y-93892738D01*
X150691742Y-93987976D01*
X150596504Y-94035595D01*
X153202380Y-89083333D02*
X153916666Y-89083333D01*
X154059523Y-89130952D01*
X154154761Y-89226190D01*
X154202380Y-89369047D01*
X154202380Y-89464285D01*
X154202380Y-88607142D02*
X153202380Y-88607142D01*
X153202380Y-88226190D01*
X153250000Y-88130952D01*
X153297619Y-88083333D01*
X153392857Y-88035714D01*
X153535714Y-88035714D01*
X153630952Y-88083333D01*
X153678571Y-88130952D01*
X153726190Y-88226190D01*
X153726190Y-88607142D01*
X153297619Y-87654761D02*
X153250000Y-87607142D01*
X153202380Y-87511904D01*
X153202380Y-87273809D01*
X153250000Y-87178571D01*
X153297619Y-87130952D01*
X153392857Y-87083333D01*
X153488095Y-87083333D01*
X153630952Y-87130952D01*
X154202380Y-87702380D01*
X154202380Y-87083333D01*
X149452380Y-124666666D02*
X148976190Y-125000000D01*
X149452380Y-125238095D02*
X148452380Y-125238095D01*
X148452380Y-124857142D01*
X148500000Y-124761904D01*
X148547619Y-124714285D01*
X148642857Y-124666666D01*
X148785714Y-124666666D01*
X148880952Y-124714285D01*
X148928571Y-124761904D01*
X148976190Y-124857142D01*
X148976190Y-125238095D01*
X148452380Y-123761904D02*
X148452380Y-124238095D01*
X148928571Y-124285714D01*
X148880952Y-124238095D01*
X148833333Y-124142857D01*
X148833333Y-123904761D01*
X148880952Y-123809523D01*
X148928571Y-123761904D01*
X149023809Y-123714285D01*
X149261904Y-123714285D01*
X149357142Y-123761904D01*
X149404761Y-123809523D01*
X149452380Y-123904761D01*
X149452380Y-124142857D01*
X149404761Y-124238095D01*
X149357142Y-124285714D01*
X153202380Y-124666666D02*
X152726190Y-125000000D01*
X153202380Y-125238095D02*
X152202380Y-125238095D01*
X152202380Y-124857142D01*
X152250000Y-124761904D01*
X152297619Y-124714285D01*
X152392857Y-124666666D01*
X152535714Y-124666666D01*
X152630952Y-124714285D01*
X152678571Y-124761904D01*
X152726190Y-124857142D01*
X152726190Y-125238095D01*
X152535714Y-123809523D02*
X153202380Y-123809523D01*
X152154761Y-124047619D02*
X152869047Y-124285714D01*
X152869047Y-123666666D01*
X117943333Y-147602380D02*
X117610000Y-147126190D01*
X117371904Y-147602380D02*
X117371904Y-146602380D01*
X117752857Y-146602380D01*
X117848095Y-146650000D01*
X117895714Y-146697619D01*
X117943333Y-146792857D01*
X117943333Y-146935714D01*
X117895714Y-147030952D01*
X117848095Y-147078571D01*
X117752857Y-147126190D01*
X117371904Y-147126190D01*
X118276666Y-146602380D02*
X118895714Y-146602380D01*
X118562380Y-146983333D01*
X118705238Y-146983333D01*
X118800476Y-147030952D01*
X118848095Y-147078571D01*
X118895714Y-147173809D01*
X118895714Y-147411904D01*
X118848095Y-147507142D01*
X118800476Y-147554761D01*
X118705238Y-147602380D01*
X118419523Y-147602380D01*
X118324285Y-147554761D01*
X118276666Y-147507142D01*
X148872380Y-88431666D02*
X148396190Y-88765000D01*
X148872380Y-89003095D02*
X147872380Y-89003095D01*
X147872380Y-88622142D01*
X147920000Y-88526904D01*
X147967619Y-88479285D01*
X148062857Y-88431666D01*
X148205714Y-88431666D01*
X148300952Y-88479285D01*
X148348571Y-88526904D01*
X148396190Y-88622142D01*
X148396190Y-89003095D01*
X148872380Y-87479285D02*
X148872380Y-88050714D01*
X148872380Y-87765000D02*
X147872380Y-87765000D01*
X148015238Y-87860238D01*
X148110476Y-87955476D01*
X148158095Y-88050714D01*
X110144761Y-142937619D02*
X110049523Y-142890000D01*
X109954285Y-142794761D01*
X109811428Y-142651904D01*
X109716190Y-142604285D01*
X109620952Y-142604285D01*
X109668571Y-142842380D02*
X109573333Y-142794761D01*
X109478095Y-142699523D01*
X109430476Y-142509047D01*
X109430476Y-142175714D01*
X109478095Y-141985238D01*
X109573333Y-141890000D01*
X109668571Y-141842380D01*
X109859047Y-141842380D01*
X109954285Y-141890000D01*
X110049523Y-141985238D01*
X110097142Y-142175714D01*
X110097142Y-142509047D01*
X110049523Y-142699523D01*
X109954285Y-142794761D01*
X109859047Y-142842380D01*
X109668571Y-142842380D01*
X111049523Y-142842380D02*
X110478095Y-142842380D01*
X110763809Y-142842380D02*
X110763809Y-141842380D01*
X110668571Y-141985238D01*
X110573333Y-142080476D01*
X110478095Y-142128095D01*
X149842380Y-83168095D02*
X148842380Y-83168095D01*
X148842380Y-82930000D01*
X148890000Y-82787142D01*
X148985238Y-82691904D01*
X149080476Y-82644285D01*
X149270952Y-82596666D01*
X149413809Y-82596666D01*
X149604285Y-82644285D01*
X149699523Y-82691904D01*
X149794761Y-82787142D01*
X149842380Y-82930000D01*
X149842380Y-83168095D01*
X149842380Y-81644285D02*
X149842380Y-82215714D01*
X149842380Y-81930000D02*
X148842380Y-81930000D01*
X148985238Y-82025238D01*
X149080476Y-82120476D01*
X149128095Y-82215714D01*
X151562142Y-129821666D02*
X151609761Y-129869285D01*
X151657380Y-130012142D01*
X151657380Y-130107380D01*
X151609761Y-130250238D01*
X151514523Y-130345476D01*
X151419285Y-130393095D01*
X151228809Y-130440714D01*
X151085952Y-130440714D01*
X150895476Y-130393095D01*
X150800238Y-130345476D01*
X150705000Y-130250238D01*
X150657380Y-130107380D01*
X150657380Y-130012142D01*
X150705000Y-129869285D01*
X150752619Y-129821666D01*
X151657380Y-128869285D02*
X151657380Y-129440714D01*
X151657380Y-129155000D02*
X150657380Y-129155000D01*
X150800238Y-129250238D01*
X150895476Y-129345476D01*
X150943095Y-129440714D01*
D11*
X137235380Y-94587142D02*
X137259190Y-94515714D01*
X137259190Y-94396666D01*
X137235380Y-94349047D01*
X137211571Y-94325238D01*
X137163952Y-94301428D01*
X137116333Y-94301428D01*
X137068714Y-94325238D01*
X137044904Y-94349047D01*
X137021095Y-94396666D01*
X136997285Y-94491904D01*
X136973476Y-94539523D01*
X136949666Y-94563333D01*
X136902047Y-94587142D01*
X136854428Y-94587142D01*
X136806809Y-94563333D01*
X136783000Y-94539523D01*
X136759190Y-94491904D01*
X136759190Y-94372857D01*
X136783000Y-94301428D01*
X137259190Y-94087142D02*
X136759190Y-94087142D01*
X136759190Y-93968095D01*
X136783000Y-93896666D01*
X136830619Y-93849047D01*
X136878238Y-93825238D01*
X136973476Y-93801428D01*
X137044904Y-93801428D01*
X137140142Y-93825238D01*
X137187761Y-93849047D01*
X137235380Y-93896666D01*
X137259190Y-93968095D01*
X137259190Y-94087142D01*
X137116333Y-93610952D02*
X137116333Y-93372857D01*
X137259190Y-93658571D02*
X136759190Y-93491904D01*
X137259190Y-93325238D01*
X137235380Y-92035238D02*
X137259190Y-91963809D01*
X137259190Y-91844761D01*
X137235380Y-91797142D01*
X137211571Y-91773333D01*
X137163952Y-91749523D01*
X137116333Y-91749523D01*
X137068714Y-91773333D01*
X137044904Y-91797142D01*
X137021095Y-91844761D01*
X136997285Y-91940000D01*
X136973476Y-91987619D01*
X136949666Y-92011428D01*
X136902047Y-92035238D01*
X136854428Y-92035238D01*
X136806809Y-92011428D01*
X136783000Y-91987619D01*
X136759190Y-91940000D01*
X136759190Y-91820952D01*
X136783000Y-91749523D01*
X137211571Y-91249523D02*
X137235380Y-91273333D01*
X137259190Y-91344761D01*
X137259190Y-91392380D01*
X137235380Y-91463809D01*
X137187761Y-91511428D01*
X137140142Y-91535238D01*
X137044904Y-91559047D01*
X136973476Y-91559047D01*
X136878238Y-91535238D01*
X136830619Y-91511428D01*
X136783000Y-91463809D01*
X136759190Y-91392380D01*
X136759190Y-91344761D01*
X136783000Y-91273333D01*
X136806809Y-91249523D01*
X137259190Y-90797142D02*
X137259190Y-91035238D01*
X136759190Y-91035238D01*
D12*
X130435333Y-106177857D02*
X130435333Y-105796904D01*
X130663904Y-106254047D02*
X129863904Y-105987380D01*
X130663904Y-105720714D01*
X129863904Y-105568333D02*
X129863904Y-105111190D01*
X130663904Y-105339761D02*
X129863904Y-105339761D01*
X130663904Y-104844523D02*
X129863904Y-104844523D01*
X130435333Y-104577857D01*
X129863904Y-104311190D01*
X130663904Y-104311190D01*
X130625809Y-103625476D02*
X130663904Y-103701666D01*
X130663904Y-103854047D01*
X130625809Y-103930238D01*
X130549619Y-103968333D01*
X130244857Y-103968333D01*
X130168666Y-103930238D01*
X130130571Y-103854047D01*
X130130571Y-103701666D01*
X130168666Y-103625476D01*
X130244857Y-103587380D01*
X130321047Y-103587380D01*
X130397238Y-103968333D01*
X130130571Y-102901666D02*
X130778190Y-102901666D01*
X130854380Y-102939761D01*
X130892476Y-102977857D01*
X130930571Y-103054047D01*
X130930571Y-103168333D01*
X130892476Y-103244523D01*
X130625809Y-102901666D02*
X130663904Y-102977857D01*
X130663904Y-103130238D01*
X130625809Y-103206428D01*
X130587714Y-103244523D01*
X130511523Y-103282619D01*
X130282952Y-103282619D01*
X130206761Y-103244523D01*
X130168666Y-103206428D01*
X130130571Y-103130238D01*
X130130571Y-102977857D01*
X130168666Y-102901666D01*
X130663904Y-102177857D02*
X130244857Y-102177857D01*
X130168666Y-102215952D01*
X130130571Y-102292142D01*
X130130571Y-102444523D01*
X130168666Y-102520714D01*
X130625809Y-102177857D02*
X130663904Y-102254047D01*
X130663904Y-102444523D01*
X130625809Y-102520714D01*
X130549619Y-102558809D01*
X130473428Y-102558809D01*
X130397238Y-102520714D01*
X130359142Y-102444523D01*
X130359142Y-102254047D01*
X130321047Y-102177857D01*
X130663904Y-101377857D02*
X130663904Y-101835000D01*
X130663904Y-101606428D02*
X129863904Y-101606428D01*
X129978190Y-101682619D01*
X130054380Y-101758809D01*
X130092476Y-101835000D01*
X129940095Y-101073095D02*
X129902000Y-101035000D01*
X129863904Y-100958809D01*
X129863904Y-100768333D01*
X129902000Y-100692142D01*
X129940095Y-100654047D01*
X130016285Y-100615952D01*
X130092476Y-100615952D01*
X130206761Y-100654047D01*
X130663904Y-101111190D01*
X130663904Y-100615952D01*
X130206761Y-100158809D02*
X130168666Y-100235000D01*
X130130571Y-100273095D01*
X130054380Y-100311190D01*
X130016285Y-100311190D01*
X129940095Y-100273095D01*
X129902000Y-100235000D01*
X129863904Y-100158809D01*
X129863904Y-100006428D01*
X129902000Y-99930238D01*
X129940095Y-99892142D01*
X130016285Y-99854047D01*
X130054380Y-99854047D01*
X130130571Y-99892142D01*
X130168666Y-99930238D01*
X130206761Y-100006428D01*
X130206761Y-100158809D01*
X130244857Y-100235000D01*
X130282952Y-100273095D01*
X130359142Y-100311190D01*
X130511523Y-100311190D01*
X130587714Y-100273095D01*
X130625809Y-100235000D01*
X130663904Y-100158809D01*
X130663904Y-100006428D01*
X130625809Y-99930238D01*
X130587714Y-99892142D01*
X130511523Y-99854047D01*
X130359142Y-99854047D01*
X130282952Y-99892142D01*
X130244857Y-99930238D01*
X130206761Y-100006428D01*
X130130571Y-99168333D02*
X130663904Y-99168333D01*
X129825809Y-99358809D02*
X130397238Y-99549285D01*
X130397238Y-99054047D01*
X130663904Y-98749285D02*
X129863904Y-98749285D01*
X129863904Y-98444523D01*
X129902000Y-98368333D01*
X129940095Y-98330238D01*
X130016285Y-98292142D01*
X130130571Y-98292142D01*
X130206761Y-98330238D01*
X130244857Y-98368333D01*
X130282952Y-98444523D01*
X130282952Y-98749285D01*
X136860000Y-83007142D02*
X136831428Y-83064285D01*
X136831428Y-83150000D01*
X136860000Y-83235714D01*
X136917142Y-83292857D01*
X136974285Y-83321428D01*
X137088571Y-83350000D01*
X137174285Y-83350000D01*
X137288571Y-83321428D01*
X137345714Y-83292857D01*
X137402857Y-83235714D01*
X137431428Y-83150000D01*
X137431428Y-83092857D01*
X137402857Y-83007142D01*
X137374285Y-82978571D01*
X137174285Y-82978571D01*
X137174285Y-83092857D01*
X137431428Y-82721428D02*
X136831428Y-82721428D01*
X137431428Y-82378571D01*
X136831428Y-82378571D01*
X137431428Y-82092857D02*
X136831428Y-82092857D01*
X136831428Y-81950000D01*
X136860000Y-81864285D01*
X136917142Y-81807142D01*
X136974285Y-81778571D01*
X137088571Y-81750000D01*
X137174285Y-81750000D01*
X137288571Y-81778571D01*
X137345714Y-81807142D01*
X137402857Y-81864285D01*
X137431428Y-81950000D01*
X137431428Y-82092857D01*
X138765000Y-83007142D02*
X138736428Y-83064285D01*
X138736428Y-83150000D01*
X138765000Y-83235714D01*
X138822142Y-83292857D01*
X138879285Y-83321428D01*
X138993571Y-83350000D01*
X139079285Y-83350000D01*
X139193571Y-83321428D01*
X139250714Y-83292857D01*
X139307857Y-83235714D01*
X139336428Y-83150000D01*
X139336428Y-83092857D01*
X139307857Y-83007142D01*
X139279285Y-82978571D01*
X139079285Y-82978571D01*
X139079285Y-83092857D01*
X139336428Y-82721428D02*
X138736428Y-82721428D01*
X139336428Y-82378571D01*
X138736428Y-82378571D01*
X139336428Y-82092857D02*
X138736428Y-82092857D01*
X138736428Y-81950000D01*
X138765000Y-81864285D01*
X138822142Y-81807142D01*
X138879285Y-81778571D01*
X138993571Y-81750000D01*
X139079285Y-81750000D01*
X139193571Y-81778571D01*
X139250714Y-81807142D01*
X139307857Y-81864285D01*
X139336428Y-81950000D01*
X139336428Y-82092857D01*
X127906428Y-83235714D02*
X127306428Y-83235714D01*
X127306428Y-83092857D01*
X127335000Y-83007142D01*
X127392142Y-82950000D01*
X127449285Y-82921428D01*
X127563571Y-82892857D01*
X127649285Y-82892857D01*
X127763571Y-82921428D01*
X127820714Y-82950000D01*
X127877857Y-83007142D01*
X127906428Y-83092857D01*
X127906428Y-83235714D01*
X127306428Y-82721428D02*
X127306428Y-82378571D01*
X127906428Y-82550000D02*
X127306428Y-82550000D01*
X127906428Y-81835714D02*
X127620714Y-82035714D01*
X127906428Y-82178571D02*
X127306428Y-82178571D01*
X127306428Y-81950000D01*
X127335000Y-81892857D01*
X127363571Y-81864285D01*
X127420714Y-81835714D01*
X127506428Y-81835714D01*
X127563571Y-81864285D01*
X127592142Y-81892857D01*
X127620714Y-81950000D01*
X127620714Y-82178571D01*
X129211428Y-83592857D02*
X129211428Y-83250000D01*
X129811428Y-83421428D02*
X129211428Y-83421428D01*
X129211428Y-83107142D02*
X129811428Y-82707142D01*
X129211428Y-82707142D02*
X129811428Y-83107142D01*
X129811428Y-82478571D02*
X129211428Y-82478571D01*
X129211428Y-82335714D01*
X129240000Y-82250000D01*
X129297142Y-82192857D01*
X129354285Y-82164285D01*
X129468571Y-82135714D01*
X129554285Y-82135714D01*
X129668571Y-82164285D01*
X129725714Y-82192857D01*
X129782857Y-82250000D01*
X129811428Y-82335714D01*
X129811428Y-82478571D01*
X129211428Y-81764285D02*
X129211428Y-81707142D01*
X129240000Y-81650000D01*
X129268571Y-81621428D01*
X129325714Y-81592857D01*
X129440000Y-81564285D01*
X129582857Y-81564285D01*
X129697142Y-81592857D01*
X129754285Y-81621428D01*
X129782857Y-81650000D01*
X129811428Y-81707142D01*
X129811428Y-81764285D01*
X129782857Y-81821428D01*
X129754285Y-81850000D01*
X129697142Y-81878571D01*
X129582857Y-81907142D01*
X129440000Y-81907142D01*
X129325714Y-81878571D01*
X129268571Y-81850000D01*
X129240000Y-81821428D01*
X129211428Y-81764285D01*
X132351428Y-83235714D02*
X132065714Y-83435714D01*
X132351428Y-83578571D02*
X131751428Y-83578571D01*
X131751428Y-83350000D01*
X131780000Y-83292857D01*
X131808571Y-83264285D01*
X131865714Y-83235714D01*
X131951428Y-83235714D01*
X132008571Y-83264285D01*
X132037142Y-83292857D01*
X132065714Y-83350000D01*
X132065714Y-83578571D01*
X131751428Y-83035714D02*
X132351428Y-82635714D01*
X131751428Y-82635714D02*
X132351428Y-83035714D01*
X132351428Y-82407142D02*
X131751428Y-82407142D01*
X131751428Y-82264285D01*
X131780000Y-82178571D01*
X131837142Y-82121428D01*
X131894285Y-82092857D01*
X132008571Y-82064285D01*
X132094285Y-82064285D01*
X132208571Y-82092857D01*
X132265714Y-82121428D01*
X132322857Y-82178571D01*
X132351428Y-82264285D01*
X132351428Y-82407142D01*
X131751428Y-81692857D02*
X131751428Y-81635714D01*
X131780000Y-81578571D01*
X131808571Y-81550000D01*
X131865714Y-81521428D01*
X131980000Y-81492857D01*
X132122857Y-81492857D01*
X132237142Y-81521428D01*
X132294285Y-81550000D01*
X132322857Y-81578571D01*
X132351428Y-81635714D01*
X132351428Y-81692857D01*
X132322857Y-81750000D01*
X132294285Y-81778571D01*
X132237142Y-81807142D01*
X132122857Y-81835714D01*
X131980000Y-81835714D01*
X131865714Y-81807142D01*
X131808571Y-81778571D01*
X131780000Y-81750000D01*
X131751428Y-81692857D01*
X134291428Y-83350000D02*
X134891428Y-83150000D01*
X134291428Y-82950000D01*
X134834285Y-82407142D02*
X134862857Y-82435714D01*
X134891428Y-82521428D01*
X134891428Y-82578571D01*
X134862857Y-82664285D01*
X134805714Y-82721428D01*
X134748571Y-82750000D01*
X134634285Y-82778571D01*
X134548571Y-82778571D01*
X134434285Y-82750000D01*
X134377142Y-82721428D01*
X134320000Y-82664285D01*
X134291428Y-82578571D01*
X134291428Y-82521428D01*
X134320000Y-82435714D01*
X134348571Y-82407142D01*
X134834285Y-81807142D02*
X134862857Y-81835714D01*
X134891428Y-81921428D01*
X134891428Y-81978571D01*
X134862857Y-82064285D01*
X134805714Y-82121428D01*
X134748571Y-82150000D01*
X134634285Y-82178571D01*
X134548571Y-82178571D01*
X134434285Y-82150000D01*
X134377142Y-82121428D01*
X134320000Y-82064285D01*
X134291428Y-81978571D01*
X134291428Y-81921428D01*
X134320000Y-81835714D01*
X134348571Y-81807142D01*
X170702380Y-81559523D02*
X171416666Y-81559523D01*
X171559523Y-81607142D01*
X171654761Y-81702380D01*
X171702380Y-81845238D01*
X171702380Y-81940476D01*
X171702380Y-80559523D02*
X171702380Y-81130952D01*
X171702380Y-80845238D02*
X170702380Y-80845238D01*
X170845238Y-80940476D01*
X170940476Y-81035714D01*
X170988095Y-81130952D01*
X170702380Y-79940476D02*
X170702380Y-79845238D01*
X170750000Y-79750000D01*
X170797619Y-79702380D01*
X170892857Y-79654761D01*
X171083333Y-79607142D01*
X171321428Y-79607142D01*
X171511904Y-79654761D01*
X171607142Y-79702380D01*
X171654761Y-79750000D01*
X171702380Y-79845238D01*
X171702380Y-79940476D01*
X171654761Y-80035714D01*
X171607142Y-80083333D01*
X171511904Y-80130952D01*
X171321428Y-80178571D01*
X171083333Y-80178571D01*
X170892857Y-80130952D01*
X170797619Y-80083333D01*
X170750000Y-80035714D01*
X170702380Y-79940476D01*
X151186666Y-137302380D02*
X151186666Y-138016666D01*
X151139047Y-138159523D01*
X151043809Y-138254761D01*
X150900952Y-138302380D01*
X150805714Y-138302380D01*
X151710476Y-138302380D02*
X151900952Y-138302380D01*
X151996190Y-138254761D01*
X152043809Y-138207142D01*
X152139047Y-138064285D01*
X152186666Y-137873809D01*
X152186666Y-137492857D01*
X152139047Y-137397619D01*
X152091428Y-137350000D01*
X151996190Y-137302380D01*
X151805714Y-137302380D01*
X151710476Y-137350000D01*
X151662857Y-137397619D01*
X151615238Y-137492857D01*
X151615238Y-137730952D01*
X151662857Y-137826190D01*
X151710476Y-137873809D01*
X151805714Y-137921428D01*
X151996190Y-137921428D01*
X152091428Y-137873809D01*
X152139047Y-137826190D01*
X152186666Y-137730952D01*
X140326666Y-137082380D02*
X140326666Y-137796666D01*
X140279047Y-137939523D01*
X140183809Y-138034761D01*
X140040952Y-138082380D01*
X139945714Y-138082380D01*
X140945714Y-137510952D02*
X140850476Y-137463333D01*
X140802857Y-137415714D01*
X140755238Y-137320476D01*
X140755238Y-137272857D01*
X140802857Y-137177619D01*
X140850476Y-137130000D01*
X140945714Y-137082380D01*
X141136190Y-137082380D01*
X141231428Y-137130000D01*
X141279047Y-137177619D01*
X141326666Y-137272857D01*
X141326666Y-137320476D01*
X141279047Y-137415714D01*
X141231428Y-137463333D01*
X141136190Y-137510952D01*
X140945714Y-137510952D01*
X140850476Y-137558571D01*
X140802857Y-137606190D01*
X140755238Y-137701428D01*
X140755238Y-137891904D01*
X140802857Y-137987142D01*
X140850476Y-138034761D01*
X140945714Y-138082380D01*
X141136190Y-138082380D01*
X141231428Y-138034761D01*
X141279047Y-137987142D01*
X141326666Y-137891904D01*
X141326666Y-137701428D01*
X141279047Y-137606190D01*
X141231428Y-137558571D01*
X141136190Y-137510952D01*
X135416666Y-137192380D02*
X135416666Y-137906666D01*
X135369047Y-138049523D01*
X135273809Y-138144761D01*
X135130952Y-138192380D01*
X135035714Y-138192380D01*
X135797619Y-137192380D02*
X136464285Y-137192380D01*
X136035714Y-138192380D01*
X125436666Y-137052380D02*
X125436666Y-137766666D01*
X125389047Y-137909523D01*
X125293809Y-138004761D01*
X125150952Y-138052380D01*
X125055714Y-138052380D01*
X126341428Y-137052380D02*
X126150952Y-137052380D01*
X126055714Y-137100000D01*
X126008095Y-137147619D01*
X125912857Y-137290476D01*
X125865238Y-137480952D01*
X125865238Y-137861904D01*
X125912857Y-137957142D01*
X125960476Y-138004761D01*
X126055714Y-138052380D01*
X126246190Y-138052380D01*
X126341428Y-138004761D01*
X126389047Y-137957142D01*
X126436666Y-137861904D01*
X126436666Y-137623809D01*
X126389047Y-137528571D01*
X126341428Y-137480952D01*
X126246190Y-137433333D01*
X126055714Y-137433333D01*
X125960476Y-137480952D01*
X125912857Y-137528571D01*
X125865238Y-137623809D01*
X154602380Y-145113333D02*
X155316666Y-145113333D01*
X155459523Y-145160952D01*
X155554761Y-145256190D01*
X155602380Y-145399047D01*
X155602380Y-145494285D01*
X154602380Y-144160952D02*
X154602380Y-144637142D01*
X155078571Y-144684761D01*
X155030952Y-144637142D01*
X154983333Y-144541904D01*
X154983333Y-144303809D01*
X155030952Y-144208571D01*
X155078571Y-144160952D01*
X155173809Y-144113333D01*
X155411904Y-144113333D01*
X155507142Y-144160952D01*
X155554761Y-144208571D01*
X155602380Y-144303809D01*
X155602380Y-144541904D01*
X155554761Y-144637142D01*
X155507142Y-144684761D01*
X152166666Y-103452380D02*
X152166666Y-104166666D01*
X152119047Y-104309523D01*
X152023809Y-104404761D01*
X151880952Y-104452380D01*
X151785714Y-104452380D01*
X153071428Y-103785714D02*
X153071428Y-104452380D01*
X152833333Y-103404761D02*
X152595238Y-104119047D01*
X153214285Y-104119047D01*
X146986666Y-103452380D02*
X146986666Y-104166666D01*
X146939047Y-104309523D01*
X146843809Y-104404761D01*
X146700952Y-104452380D01*
X146605714Y-104452380D01*
X147367619Y-103452380D02*
X147986666Y-103452380D01*
X147653333Y-103833333D01*
X147796190Y-103833333D01*
X147891428Y-103880952D01*
X147939047Y-103928571D01*
X147986666Y-104023809D01*
X147986666Y-104261904D01*
X147939047Y-104357142D01*
X147891428Y-104404761D01*
X147796190Y-104452380D01*
X147510476Y-104452380D01*
X147415238Y-104404761D01*
X147367619Y-104357142D01*
X151916666Y-112952380D02*
X151916666Y-113666666D01*
X151869047Y-113809523D01*
X151773809Y-113904761D01*
X151630952Y-113952380D01*
X151535714Y-113952380D01*
X152345238Y-113047619D02*
X152392857Y-113000000D01*
X152488095Y-112952380D01*
X152726190Y-112952380D01*
X152821428Y-113000000D01*
X152869047Y-113047619D01*
X152916666Y-113142857D01*
X152916666Y-113238095D01*
X152869047Y-113380952D01*
X152297619Y-113952380D01*
X152916666Y-113952380D01*
X146986666Y-112952380D02*
X146986666Y-113666666D01*
X146939047Y-113809523D01*
X146843809Y-113904761D01*
X146700952Y-113952380D01*
X146605714Y-113952380D01*
X147986666Y-113952380D02*
X147415238Y-113952380D01*
X147700952Y-113952380D02*
X147700952Y-112952380D01*
X147605714Y-113095238D01*
X147510476Y-113190476D01*
X147415238Y-113238095D01*
%LPC*%
D18*
X141901700Y-130670300D03*
X139901700Y-130670300D03*
X137901700Y-130670300D03*
X135901700Y-130670300D03*
X133901700Y-130670300D03*
X131901700Y-130670300D03*
X129901700Y-130670300D03*
D19*
X127901700Y-130670300D03*
D20*
X112420000Y-138900000D03*
D21*
X112420000Y-86910000D03*
D22*
X118415000Y-89670000D03*
X106425000Y-136150000D03*
D20*
X164490000Y-86860000D03*
D21*
X164490000Y-138850000D03*
D22*
X158495000Y-136090000D03*
X170485000Y-89610000D03*
D23*
X123800000Y-115470000D03*
D24*
X122715000Y-117750000D03*
D25*
X123800000Y-117750000D03*
D24*
X141345000Y-116310000D03*
X141345000Y-117580000D03*
X141345000Y-118850000D03*
X141345000Y-120120000D03*
X141345000Y-121390000D03*
X141345000Y-122660000D03*
X141345000Y-123930000D03*
X141345000Y-125200000D03*
D25*
X140260000Y-116310000D03*
X140260000Y-117580000D03*
X140260000Y-118850000D03*
X140260000Y-120120000D03*
X140260000Y-121390000D03*
X140260000Y-122660000D03*
X140260000Y-123930000D03*
X140260000Y-125200000D03*
D26*
X162272800Y-148477200D03*
X161000000Y-147950000D03*
X159727200Y-148477200D03*
X159200000Y-149750000D03*
X159727200Y-151022800D03*
X161000000Y-151550000D03*
X162272800Y-151022800D03*
X162800000Y-149750000D03*
D27*
X161000000Y-149750000D03*
D26*
X117272800Y-148477200D03*
X116000000Y-147950000D03*
X114727200Y-148477200D03*
X114200000Y-149750000D03*
X114727200Y-151022800D03*
X116000000Y-151550000D03*
X117272800Y-151022800D03*
X117800000Y-149750000D03*
D27*
X116000000Y-149750000D03*
D26*
X162272800Y-79977200D03*
X161000000Y-79450000D03*
X159727200Y-79977200D03*
X159200000Y-81250000D03*
X159727200Y-82522800D03*
X161000000Y-83050000D03*
X162272800Y-82522800D03*
X162800000Y-81250000D03*
D27*
X161000000Y-81250000D03*
D26*
X117272800Y-79977200D03*
X116000000Y-79450000D03*
X114727200Y-79977200D03*
X114200000Y-81250000D03*
X114727200Y-82522800D03*
X116000000Y-83050000D03*
X117272800Y-82522800D03*
X117800000Y-81250000D03*
D27*
X116000000Y-81250000D03*
D21*
X153185000Y-93345000D03*
X153185000Y-97845000D03*
X146685000Y-93345000D03*
X146685000Y-97845000D03*
D28*
X151257000Y-88900000D03*
X151257000Y-87600000D03*
D29*
X147320000Y-125095000D03*
D30*
X147320000Y-122555000D03*
D29*
X151130000Y-125095000D03*
D30*
X151130000Y-122555000D03*
D29*
X116840000Y-144780000D03*
D30*
X119380000Y-144780000D03*
D29*
X146050000Y-89535000D03*
D30*
X146050000Y-86995000D03*
D31*
X112530000Y-144780000D03*
X110240000Y-144780000D03*
D32*
X107950000Y-144780000D03*
D33*
X146050000Y-83820000D03*
D34*
X146050000Y-81280000D03*
D35*
X147955000Y-130405000D03*
D36*
X147955000Y-128905000D03*
D33*
X139700000Y-80010000D03*
X137160000Y-80010000D03*
X134620000Y-80010000D03*
X132080000Y-80010000D03*
X129540000Y-80010000D03*
X127000000Y-80010000D03*
X128270000Y-110490000D03*
X130810000Y-110490000D03*
X133350000Y-110490000D03*
X138430000Y-91440000D03*
X138430000Y-93980000D03*
X125730000Y-110490000D03*
X125730000Y-107950000D03*
X125730000Y-105410000D03*
X125730000Y-102870000D03*
X125730000Y-100330000D03*
X125730000Y-97790000D03*
X125730000Y-95250000D03*
X125730000Y-92710000D03*
X125730000Y-90170000D03*
X125730000Y-87630000D03*
X125730000Y-85090000D03*
X125730000Y-82550000D03*
X140970000Y-82550000D03*
X140970000Y-85090000D03*
X140970000Y-87630000D03*
X140970000Y-90170000D03*
X140970000Y-92710000D03*
X140970000Y-95250000D03*
X140970000Y-97790000D03*
X140970000Y-100330000D03*
X140970000Y-102870000D03*
X140970000Y-105410000D03*
X140970000Y-107950000D03*
X140970000Y-110490000D03*
X138430000Y-110490000D03*
X135890000Y-110490000D03*
X138430000Y-88900000D03*
X138430000Y-86360000D03*
D37*
X168790000Y-81250000D03*
D38*
X166250000Y-81250000D03*
D37*
X151130000Y-140970000D03*
X151130000Y-143510000D03*
X151130000Y-146050000D03*
D38*
X151130000Y-148590000D03*
D37*
X140970000Y-140970000D03*
X140970000Y-143510000D03*
X140970000Y-146050000D03*
D38*
X140970000Y-148590000D03*
D37*
X135890000Y-140970000D03*
X135890000Y-143510000D03*
X135890000Y-146050000D03*
D38*
X135890000Y-148590000D03*
D37*
X125730000Y-140970000D03*
X125730000Y-143510000D03*
X125730000Y-146050000D03*
D38*
X125730000Y-148590000D03*
D37*
X170180000Y-144780000D03*
X167640000Y-144780000D03*
X165100000Y-144780000D03*
X162560000Y-144780000D03*
X160020000Y-144780000D03*
D38*
X157480000Y-144780000D03*
D37*
X152400000Y-106680000D03*
D38*
X152400000Y-104140000D03*
D37*
X147320000Y-106680000D03*
D38*
X147320000Y-104140000D03*
D37*
X152400000Y-116205000D03*
D38*
X152400000Y-113665000D03*
D37*
X147320000Y-116205000D03*
D38*
X147320000Y-113665000D03*
M02*
