%TF.GenerationSoftware,KiCad,Pcbnew,8.0.5-8.0.5-0~ubuntu22.04.1*%
%TF.CreationDate,2024-09-26T15:08:05+02:00*%
%TF.ProjectId,HB-UNI-SEN-BATT_ATMega1284P_E07-868MS10_FUEL4EP,48422d55-4e49-42d5-9345-4e2d42415454,1.5*%
%TF.SameCoordinates,Original*%
%TF.FileFunction,Soldermask,Bot*%
%TF.FilePolarity,Negative*%
%FSLAX46Y46*%
G04 Gerber Fmt 4.6, Leading zero omitted, Abs format (unit mm)*
G04 Created by KiCad (PCBNEW 8.0.5-8.0.5-0~ubuntu22.04.1) date 2024-09-26 15:08:05*
%MOMM*%
%LPD*%
G01*
G04 APERTURE LIST*
%ADD10R,1.350000X1.350000*%
%ADD11O,1.350000X1.350000*%
%ADD12R,1.700000X1.700000*%
%ADD13O,1.700000X1.700000*%
%ADD14R,1.717500X1.800000*%
%ADD15O,1.717500X1.800000*%
%ADD16R,1.000000X1.500000*%
%ADD17C,1.000000*%
%ADD18C,3.000000*%
%ADD19C,4.400000*%
%ADD20C,0.700000*%
%ADD21C,2.640000*%
%ADD22C,2.000000*%
%ADD23R,2.000000X2.000000*%
%ADD24C,5.000000*%
G04 APERTURE END LIST*
D10*
%TO.C,J11*%
X28667000Y21250000D03*
D11*
X30667000Y21250000D03*
X32667000Y21250000D03*
X34667000Y21250000D03*
X36667000Y21250000D03*
X38667000Y21250000D03*
X40667000Y21250000D03*
X42667000Y21250000D03*
%TD*%
D12*
%TO.C,J7*%
X34890000Y1997000D03*
D13*
X34890000Y4537000D03*
X34890000Y7077000D03*
X34890000Y9617000D03*
%TD*%
D12*
%TO.C,J3*%
X44796000Y44097500D03*
D13*
X47336000Y44097500D03*
%TD*%
D12*
%TO.C,J4*%
X44796000Y47780500D03*
D13*
X47336000Y47780500D03*
%TD*%
D12*
%TO.C,J5*%
X56480000Y8220000D03*
D13*
X59020000Y8220000D03*
X61560000Y8220000D03*
X64100000Y8220000D03*
X66640000Y8220000D03*
X69180000Y8220000D03*
%TD*%
D14*
%TO.C,Q1*%
X6950000Y8220000D03*
D15*
X9240000Y8220000D03*
X11530000Y8220000D03*
%TD*%
D12*
%TO.C,J10*%
X64989000Y71656500D03*
D13*
X67529000Y71656500D03*
X70069000Y71656500D03*
%TD*%
D16*
%TO.C,JP1*%
X9500000Y3775000D03*
X8200000Y3775000D03*
%TD*%
D17*
%TO.C,Module1*%
X22800000Y35250000D03*
X39260000Y27800000D03*
D18*
X22800000Y37530000D03*
D17*
X39260000Y29070000D03*
X39260000Y30340000D03*
X39260000Y31610000D03*
X39260000Y32880000D03*
X39260000Y34150000D03*
X39260000Y35420000D03*
X39260000Y36690000D03*
%TD*%
D12*
%TO.C,J8*%
X39970000Y1997000D03*
D13*
X39970000Y4537000D03*
X39970000Y7077000D03*
X39970000Y9617000D03*
%TD*%
D19*
%TO.C,H2*%
X60000000Y71750000D03*
D20*
X61800000Y71750000D03*
X61272800Y70477200D03*
X60000000Y69950000D03*
X58727200Y70477200D03*
X58200000Y71750000D03*
X58727200Y73022800D03*
X60000000Y73550000D03*
X61272800Y73022800D03*
%TD*%
D19*
%TO.C,H4*%
X60000000Y3250000D03*
D20*
X61800000Y3250000D03*
X61272800Y1977200D03*
X60000000Y1450000D03*
X58727200Y1977200D03*
X58200000Y3250000D03*
X58727200Y4522800D03*
X60000000Y5050000D03*
X61272800Y4522800D03*
%TD*%
D19*
%TO.C,H1*%
X15000000Y71750000D03*
D20*
X16800000Y71750000D03*
X16272800Y70477200D03*
X15000000Y69950000D03*
X13727200Y70477200D03*
X13200000Y71750000D03*
X13727200Y73022800D03*
X15000000Y73550000D03*
X16272800Y73022800D03*
%TD*%
D19*
%TO.C,H3*%
X15000000Y3250000D03*
D20*
X16800000Y3250000D03*
X16272800Y1977200D03*
X15000000Y1450000D03*
X13727200Y1977200D03*
X13200000Y3250000D03*
X13727200Y4522800D03*
X15000000Y5050000D03*
X16272800Y4522800D03*
%TD*%
D21*
%TO.C,BT2*%
X5425000Y16650000D03*
X17415000Y63130000D03*
D22*
X11420000Y65890000D03*
D23*
X11420000Y13900000D03*
%TD*%
D12*
%TO.C,J12*%
X28070100Y72139100D03*
D13*
X30610100Y72139100D03*
X33150100Y72139100D03*
X35690100Y72139100D03*
X38230100Y72139100D03*
X40770100Y72139100D03*
%TD*%
D21*
%TO.C,BT1*%
X69485000Y63390000D03*
X57495000Y16910000D03*
D22*
X63490000Y14150000D03*
D23*
X63490000Y66140000D03*
%TD*%
D12*
%TO.C,J1*%
X41400000Y64989000D03*
D13*
X41400000Y67529000D03*
%TD*%
D12*
%TO.C,J6*%
X24730000Y2000000D03*
D13*
X24730000Y4540000D03*
X24730000Y7080000D03*
X24730000Y9620000D03*
%TD*%
D12*
%TO.C,J2*%
X41400000Y58385000D03*
D13*
X41400000Y60925000D03*
%TD*%
D12*
%TO.C,J9*%
X50130000Y2000000D03*
D13*
X50130000Y4540000D03*
X50130000Y7080000D03*
X50130000Y9620000D03*
%TD*%
D24*
%TO.C,H5*%
X23510800Y62800000D03*
%TD*%
%TO.C,H6*%
X23510800Y19800000D03*
%TD*%
%TO.C,H7*%
X51510800Y62800000D03*
%TD*%
%TO.C,H8*%
X51510800Y19800000D03*
%TD*%
M02*
