%TF.GenerationSoftware,KiCad,Pcbnew,8.0.5-8.0.5-0~ubuntu22.04.1*%
%TF.CreationDate,2024-09-29T18:13:14+02:00*%
%TF.ProjectId,HB-UNI-SEN-BATT_ATMega1284P_E07-868MS10_FUEL4EP,48422d55-4e49-42d5-9345-4e2d42415454,1.5*%
%TF.SameCoordinates,Original*%
%TF.FileFunction,Copper,L2,Bot*%
%TF.FilePolarity,Positive*%
%FSLAX46Y46*%
G04 Gerber Fmt 4.6, Leading zero omitted, Abs format (unit mm)*
G04 Created by KiCad (PCBNEW 8.0.5-8.0.5-0~ubuntu22.04.1) date 2024-09-29 18:13:14*
%MOMM*%
%LPD*%
G01*
G04 APERTURE LIST*
%TA.AperFunction,ComponentPad*%
%ADD10R,1.700000X1.700000*%
%TD*%
%TA.AperFunction,ComponentPad*%
%ADD11O,1.700000X1.700000*%
%TD*%
%TA.AperFunction,ComponentPad*%
%ADD12R,1.717500X1.800000*%
%TD*%
%TA.AperFunction,ComponentPad*%
%ADD13O,1.717500X1.800000*%
%TD*%
%TA.AperFunction,SMDPad,CuDef*%
%ADD14R,1.000000X1.500000*%
%TD*%
%TA.AperFunction,ComponentPad*%
%ADD15C,1.000000*%
%TD*%
%TA.AperFunction,ComponentPad*%
%ADD16C,3.000000*%
%TD*%
%TA.AperFunction,ComponentPad*%
%ADD17C,0.700000*%
%TD*%
%TA.AperFunction,ComponentPad*%
%ADD18C,4.400000*%
%TD*%
%TA.AperFunction,ComponentPad*%
%ADD19R,2.000000X2.000000*%
%TD*%
%TA.AperFunction,ComponentPad*%
%ADD20C,2.000000*%
%TD*%
%TA.AperFunction,ComponentPad*%
%ADD21R,1.350000X1.350000*%
%TD*%
%TA.AperFunction,ComponentPad*%
%ADD22O,1.350000X1.350000*%
%TD*%
%TA.AperFunction,ComponentPad*%
%ADD23C,5.000000*%
%TD*%
%TA.AperFunction,ViaPad*%
%ADD24C,1.000000*%
%TD*%
%TA.AperFunction,ViaPad*%
%ADD25C,0.800000*%
%TD*%
%TA.AperFunction,ViaPad*%
%ADD26C,0.600000*%
%TD*%
%TA.AperFunction,Conductor*%
%ADD27C,0.200000*%
%TD*%
%TA.AperFunction,Conductor*%
%ADD28C,0.250000*%
%TD*%
%TA.AperFunction,Conductor*%
%ADD29C,0.500000*%
%TD*%
%TA.AperFunction,Conductor*%
%ADD30C,0.400000*%
%TD*%
%TA.AperFunction,Conductor*%
%ADD31C,1.000000*%
%TD*%
G04 APERTURE END LIST*
D10*
%TO.P,J7,1,Pin_1*%
%TO.N,VCC*%
X34890000Y1997000D03*
D11*
%TO.P,J7,2,Pin_2*%
%TO.N,GND*%
X34890000Y4537000D03*
%TO.P,J7,3,Pin_3*%
%TO.N,/SCL*%
X34890000Y7077000D03*
%TO.P,J7,4,Pin_4*%
%TO.N,/SDA*%
X34890000Y9617000D03*
%TD*%
D10*
%TO.P,J3,1,Pin_1*%
%TO.N,/A1*%
X44796000Y44097500D03*
D11*
%TO.P,J3,2,Pin_2*%
%TO.N,GND*%
X47336000Y44097500D03*
%TD*%
D10*
%TO.P,J4,1,Pin_1*%
%TO.N,/A3*%
X44796000Y47780500D03*
D11*
%TO.P,J4,2,Pin_2*%
%TO.N,GND*%
X47336000Y47780500D03*
%TD*%
D10*
%TO.P,J5,1,Pin_1*%
%TO.N,VCC*%
X56480000Y8220000D03*
D11*
%TO.P,J5,2,Pin_2*%
%TO.N,/minusBAT*%
X59020000Y8220000D03*
%TO.P,J5,3,Pin_3*%
%TO.N,/MOSI*%
X61560000Y8220000D03*
%TO.P,J5,4,Pin_4*%
%TO.N,/SCK*%
X64100000Y8220000D03*
%TO.P,J5,5,Pin_5*%
%TO.N,/MISO*%
X66640000Y8220000D03*
%TO.P,J5,6,Pin_6*%
%TO.N,/RSETB*%
X69180000Y8220000D03*
%TD*%
D12*
%TO.P,Q1,1,G*%
%TO.N,Net-(Q1-G)*%
X6950000Y8220000D03*
D13*
%TO.P,Q1,2,D*%
%TO.N,/minusBAT*%
X9240000Y8220000D03*
%TO.P,Q1,3,S*%
%TO.N,GND*%
X11530000Y8220000D03*
%TD*%
D10*
%TO.P,J10,1,Pin_1*%
%TO.N,VCC*%
X64989000Y71656500D03*
D11*
%TO.P,J10,2,Pin_2*%
%TO.N,/plusBAT*%
X67529000Y71656500D03*
%TO.P,J10,3,Pin_3*%
%TO.N,/minusBAT*%
X70069000Y71656500D03*
%TD*%
D14*
%TO.P,JP1,1,A*%
%TO.N,/minusBAT*%
X9500000Y3775000D03*
%TO.P,JP1,2,B*%
%TO.N,GND*%
X8200000Y3775000D03*
%TD*%
D15*
%TO.P,Module1,1A,GND*%
%TO.N,GND*%
X22800000Y35250000D03*
%TO.P,Module1,1C,VCC*%
%TO.N,VCC*%
X39260000Y27800000D03*
D16*
%TO.P,Module1,2A,ANT*%
%TO.N,unconnected-(Module1-ANT-Pad2A)*%
X22800000Y37530000D03*
D15*
%TO.P,Module1,2C,GDO0*%
%TO.N,/D2*%
X39260000Y29070000D03*
%TO.P,Module1,3C,~{CSN}*%
%TO.N,/SS*%
X39260000Y30340000D03*
%TO.P,Module1,4C,SCK*%
%TO.N,/SCK*%
X39260000Y31610000D03*
%TO.P,Module1,5C,MOSI*%
%TO.N,/MOSI*%
X39260000Y32880000D03*
%TO.P,Module1,6C,MISO/GDO1*%
%TO.N,/MISO*%
X39260000Y34150000D03*
%TO.P,Module1,7C,GDO2*%
%TO.N,unconnected-(Module1-GDO2-Pad7C)_1*%
X39260000Y35420000D03*
%TO.P,Module1,8C,GND*%
%TO.N,GND*%
X39260000Y36690000D03*
%TD*%
D10*
%TO.P,J8,1,Pin_1*%
%TO.N,VCC*%
X39970000Y1997000D03*
D11*
%TO.P,J8,2,Pin_2*%
%TO.N,GND*%
X39970000Y4537000D03*
%TO.P,J8,3,Pin_3*%
%TO.N,/SCL*%
X39970000Y7077000D03*
%TO.P,J8,4,Pin_4*%
%TO.N,/SDA*%
X39970000Y9617000D03*
%TD*%
D17*
%TO.P,H2,1*%
%TO.N,N/C*%
X58200000Y71750000D03*
X58727200Y73022800D03*
X58727200Y70477200D03*
X60000000Y73550000D03*
D18*
X60000000Y71750000D03*
D17*
X60000000Y69950000D03*
X61272800Y73022800D03*
X61272800Y70477200D03*
X61800000Y71750000D03*
%TD*%
%TO.P,H4,1*%
%TO.N,N/C*%
X58200000Y3250000D03*
X58727200Y4522800D03*
X58727200Y1977200D03*
X60000000Y5050000D03*
D18*
X60000000Y3250000D03*
D17*
X60000000Y1450000D03*
X61272800Y4522800D03*
X61272800Y1977200D03*
X61800000Y3250000D03*
%TD*%
%TO.P,H1,1*%
%TO.N,N/C*%
X13200000Y71750000D03*
X13727200Y73022800D03*
X13727200Y70477200D03*
X15000000Y73550000D03*
D18*
X15000000Y71750000D03*
D17*
X15000000Y69950000D03*
X16272800Y73022800D03*
X16272800Y70477200D03*
X16800000Y71750000D03*
%TD*%
%TO.P,H3,1*%
%TO.N,N/C*%
X13200000Y3250000D03*
X13727200Y4522800D03*
X13727200Y1977200D03*
X15000000Y5050000D03*
D18*
X15000000Y3250000D03*
D17*
X15000000Y1450000D03*
X16272800Y4522800D03*
X16272800Y1977200D03*
X16800000Y3250000D03*
%TD*%
D19*
%TO.P,BT2,1,+*%
%TO.N,/conBAT*%
X11420000Y13900000D03*
D20*
%TO.P,BT2,2,-*%
%TO.N,/minusBAT*%
X11420000Y65890000D03*
%TD*%
D10*
%TO.P,J12,1,Pin_1*%
%TO.N,/DTR*%
X28070100Y72139100D03*
D11*
%TO.P,J12,2,Pin_2*%
%TO.N,/TXD0*%
X30610100Y72139100D03*
%TO.P,J12,3,Pin_3*%
%TO.N,/RXD0*%
X33150100Y72139100D03*
%TO.P,J12,4,Pin_4*%
%TO.N,VCC*%
X35690100Y72139100D03*
%TO.P,J12,5,Pin_5*%
%TO.N,GND*%
X38230100Y72139100D03*
%TO.P,J12,6,Pin_6*%
X40770100Y72139100D03*
%TD*%
D19*
%TO.P,BT1,1,+*%
%TO.N,/plusBAT*%
X63490000Y66140000D03*
D20*
%TO.P,BT1,2,-*%
%TO.N,/conBAT*%
X63490000Y14150000D03*
%TD*%
D21*
%TO.P,J11,1,Pin_1*%
%TO.N,/D7*%
X28667000Y21250000D03*
D22*
%TO.P,J11,2,Pin_2*%
%TO.N,/D6*%
X30667000Y21250000D03*
%TO.P,J11,3,Pin_3*%
%TO.N,/MISO*%
X32667000Y21250000D03*
%TO.P,J11,4,Pin_4*%
%TO.N,/D5*%
X34667000Y21250000D03*
%TO.P,J11,5,Pin_5*%
%TO.N,/SCK*%
X36667000Y21250000D03*
%TO.P,J11,6,Pin_6*%
%TO.N,/MOSI*%
X38667000Y21250000D03*
%TO.P,J11,7,Pin_7*%
%TO.N,GND*%
X40667000Y21250000D03*
%TO.P,J11,8,Pin_8*%
%TO.N,VCC*%
X42667000Y21250000D03*
%TD*%
D10*
%TO.P,J1,1,Pin_1*%
%TO.N,/PB0_T0*%
X41400000Y64989000D03*
D11*
%TO.P,J1,2,Pin_2*%
%TO.N,GND*%
X41400000Y67529000D03*
%TD*%
D10*
%TO.P,J6,1,Pin_1*%
%TO.N,VCC*%
X24730000Y2000000D03*
D11*
%TO.P,J6,2,Pin_2*%
%TO.N,GND*%
X24730000Y4540000D03*
%TO.P,J6,3,Pin_3*%
%TO.N,/SCL*%
X24730000Y7080000D03*
%TO.P,J6,4,Pin_4*%
%TO.N,/SDA*%
X24730000Y9620000D03*
%TD*%
D10*
%TO.P,J2,1,Pin_1*%
%TO.N,/PB1_T1*%
X41400000Y58385000D03*
D11*
%TO.P,J2,2,Pin_2*%
%TO.N,GND*%
X41400000Y60925000D03*
%TD*%
D10*
%TO.P,J9,1,Pin_1*%
%TO.N,VCC*%
X50130000Y2000000D03*
D11*
%TO.P,J9,2,Pin_2*%
%TO.N,GND*%
X50130000Y4540000D03*
%TO.P,J9,3,Pin_3*%
%TO.N,/SCL*%
X50130000Y7080000D03*
%TO.P,J9,4,Pin_4*%
%TO.N,/SDA*%
X50130000Y9620000D03*
%TD*%
D23*
%TO.P,H5,1*%
%TO.N,N/C*%
X23510800Y62800000D03*
%TD*%
%TO.P,H6,1*%
%TO.N,N/C*%
X23510800Y19800000D03*
%TD*%
%TO.P,H7,1*%
%TO.N,N/C*%
X51510800Y62800000D03*
%TD*%
%TO.P,H8,1*%
%TO.N,N/C*%
X51510800Y19800000D03*
%TD*%
D24*
%TO.N,GND*%
X54956000Y55210000D03*
D25*
X47336000Y23764800D03*
D26*
X41176500Y52479500D03*
X30572000Y48669500D03*
X32822962Y55448238D03*
D24*
X55083000Y48987000D03*
X55083000Y50638000D03*
D25*
X10658400Y17567200D03*
X45405600Y17618000D03*
D26*
X31651500Y62893500D03*
X5172000Y72609000D03*
D24*
X54956000Y56480000D03*
D26*
X32416000Y59779500D03*
X51878600Y73375000D03*
X31651500Y64481000D03*
X21809000Y73371000D03*
X38065000Y65624000D03*
D24*
X54956000Y57877000D03*
D26*
%TO.N,/SS*%
X37239500Y53432000D03*
X36998006Y40986000D03*
%TO.N,/D2*%
X31461000Y55354698D03*
X38192000Y40922500D03*
X31461000Y49354700D03*
X38192000Y42681890D03*
%TO.N,/A0*%
X42446500Y48733000D03*
X40160500Y48733000D03*
%TO.N,/A1*%
X42510004Y44859500D03*
X40097000Y44922998D03*
%TO.N,/A3*%
X44732500Y50892000D03*
X42891000Y50892000D03*
%TO.N,/MOSI*%
X42340000Y25370000D03*
X35969500Y40986000D03*
X36096500Y54067000D03*
%TO.N,/SCK*%
X43070000Y26040000D03*
X34763000Y40986000D03*
X34636000Y54067000D03*
X43070000Y31510000D03*
%TO.N,/MISO*%
X35969500Y39970000D03*
X44097500Y26635000D03*
X35345499Y52162000D03*
%TO.N,VCC*%
X57851600Y68468800D03*
X30064000Y50892000D03*
X55235400Y68468800D03*
X30082364Y54593364D03*
X34534400Y68875200D03*
X37074400Y68875200D03*
D24*
%TO.N,/minusBAT*%
X66779700Y65319200D03*
%TO.N,/plusBAT*%
X55210000Y52162000D03*
X51146000Y51527000D03*
D26*
%TO.N,/D5*%
X33683500Y53432000D03*
X33937500Y40033500D03*
%TO.N,/D6*%
X33073997Y40986000D03*
X33274000Y52504700D03*
%TO.N,/D7*%
X28679800Y51704700D03*
X28382602Y49077988D03*
%TO.N,/CONFIG*%
X25117301Y44154699D03*
X28089199Y44154699D03*
X15420000Y66982000D03*
X18800000Y66982000D03*
%TO.N,/PB0_T0*%
X40287500Y52987500D03*
X43145000Y63909500D03*
X43145000Y62068000D03*
X40220565Y55108282D03*
%TD*%
D27*
%TO.N,/SS*%
X36998006Y53190506D02*
X37239500Y53432000D01*
X36998006Y40986000D02*
X36998006Y53190506D01*
%TO.N,/D2*%
X31461000Y49354700D02*
X31461000Y55354698D01*
X38192000Y40922500D02*
X38192000Y42681890D01*
%TO.N,/A0*%
X42446500Y48733000D02*
X40160500Y48733000D01*
%TO.N,/A1*%
X42510004Y44859500D02*
X40160498Y44859500D01*
X40160498Y44859500D02*
X40097000Y44922998D01*
%TO.N,/A3*%
X44732500Y50892000D02*
X42891000Y50892000D01*
%TO.N,/MOSI*%
X64790001Y10815001D02*
X64790001Y15116053D01*
X52989802Y25365000D02*
X52854801Y25500001D01*
X52854801Y25500001D02*
X43418003Y25500001D01*
D28*
X62195000Y8220000D02*
X64608000Y10633000D01*
X42340000Y25370000D02*
X42340000Y32890000D01*
D27*
X43418003Y25500001D02*
X43288002Y25370000D01*
X35969500Y53940000D02*
X36096500Y54067000D01*
X43288002Y25370000D02*
X42340000Y25370000D01*
D28*
X64608000Y10633000D02*
X64735000Y10760000D01*
D27*
X54541054Y25365000D02*
X52989802Y25365000D01*
X64608000Y10633000D02*
X64790001Y10815001D01*
D28*
X42340000Y32890000D02*
X39220000Y32890000D01*
D27*
X35969500Y40986000D02*
X35969500Y53940000D01*
X64790001Y15116053D02*
X54541054Y25365000D01*
%TO.N,/SCK*%
X34636000Y54067000D02*
X34636000Y53241500D01*
X55176054Y26000000D02*
X43110000Y26000000D01*
X34745499Y41003501D02*
X34763000Y40986000D01*
D28*
X43070000Y31510000D02*
X43070000Y26040000D01*
D27*
X34745499Y53132001D02*
X34745499Y41003501D01*
D28*
X65370000Y9490000D02*
X64100000Y8220000D01*
D27*
X65370000Y15806054D02*
X55176054Y26000000D01*
X34636000Y53241500D02*
X34745499Y53132001D01*
X43110000Y26000000D02*
X43070000Y26040000D01*
X65370000Y9490000D02*
X65370000Y15806054D01*
%TO.N,/MISO*%
X35363001Y41274001D02*
X35369499Y41267503D01*
X66767000Y15078000D02*
X66767000Y8347000D01*
D28*
X43700000Y34170000D02*
X39280000Y34170000D01*
X44080000Y26830000D02*
X44080000Y33790000D01*
D27*
X35363001Y52144498D02*
X35363001Y41274001D01*
D28*
X44080000Y33790000D02*
X43700000Y34170000D01*
D27*
X35345499Y52162000D02*
X35363001Y52144498D01*
X35369499Y41267503D02*
X35369499Y40570001D01*
X35369499Y40570001D02*
X35969500Y39970000D01*
X55210000Y26635000D02*
X44275000Y26635000D01*
X55210000Y26635000D02*
X66767000Y15078000D01*
X44275000Y26635000D02*
X44080000Y26830000D01*
D29*
%TO.N,VCC*%
X37074400Y68875200D02*
X34534400Y68875200D01*
D30*
X57851600Y68468800D02*
X55235400Y68468800D01*
D31*
X30082364Y54593364D02*
X30082364Y50973864D01*
%TO.N,/minusBAT*%
X9500000Y6000000D02*
X9250000Y6250000D01*
X18007000Y10260000D02*
X20696990Y12949990D01*
X70069000Y71656500D02*
X70069000Y68608500D01*
X7750000Y11750000D02*
X7750000Y62220300D01*
X9250000Y8166650D02*
X9250000Y6250000D01*
X7800800Y62220300D02*
X11458500Y65878000D01*
X59020000Y10645700D02*
X59020000Y8194600D01*
X9240000Y8220000D02*
X9240000Y10260000D01*
X56715710Y12949990D02*
X59020000Y10645700D01*
X7750000Y62220300D02*
X7800800Y62220300D01*
X9500000Y3775000D02*
X9500000Y6000000D01*
X9240000Y10260000D02*
X18007000Y10260000D01*
X20696990Y12949990D02*
X56715710Y12949990D01*
X70069000Y68608500D02*
X66779700Y65319200D01*
X9240000Y10260000D02*
X7750000Y11750000D01*
D30*
%TO.N,/plusBAT*%
X55146500Y52098500D02*
X55210000Y52162000D01*
D31*
X67529000Y69815000D02*
X63592000Y65878000D01*
X51717500Y52098500D02*
X55146500Y52098500D01*
X51146000Y51527000D02*
X51717500Y52098500D01*
X67529000Y71656500D02*
X67529000Y69815000D01*
D27*
%TO.N,/D5*%
X33683500Y52983202D02*
X33937500Y52729202D01*
X33683500Y53432000D02*
X33683500Y52983202D01*
X33937500Y52729202D02*
X33937500Y40033500D01*
%TO.N,/D6*%
X33274000Y52504700D02*
X33273999Y41274001D01*
X33273999Y41274001D02*
X33273999Y41186002D01*
X33273999Y41186002D02*
X33073997Y40986000D01*
%TO.N,/D7*%
X28679800Y51280436D02*
X29013101Y50947135D01*
X29013101Y49816699D02*
X28246902Y49050500D01*
X28679800Y51704700D02*
X28679800Y51280436D01*
X29013101Y50947135D02*
X29013101Y49816699D01*
X28246902Y49050500D02*
X28355114Y49050500D01*
X28355114Y49050500D02*
X28382602Y49077988D01*
%TO.N,/CONFIG*%
X18800000Y66982000D02*
X15420000Y66982000D01*
X28089199Y44154699D02*
X25117301Y44154699D01*
%TO.N,/PB0_T0*%
X40287500Y52987500D02*
X40287500Y55019500D01*
X43145000Y62068000D02*
X43145000Y63909500D01*
D31*
%TO.N,/conBAT*%
X57412770Y13950000D02*
X57212770Y14150000D01*
X63490000Y13950000D02*
X57412770Y13950000D01*
X57212770Y14150000D02*
X11673500Y14150000D01*
%TD*%
%TA.AperFunction,Conductor*%
%TO.N,GND*%
G36*
X40304175Y72332093D02*
G01*
X40270100Y72204926D01*
X40270100Y72073274D01*
X40304175Y71946107D01*
X40339397Y71885100D01*
X38660803Y71885100D01*
X38696025Y71946107D01*
X38730100Y72073274D01*
X38730100Y72204926D01*
X38696025Y72332093D01*
X38660803Y72393100D01*
X40339397Y72393100D01*
X40304175Y72332093D01*
G37*
%TD.AperFunction*%
%TA.AperFunction,Conductor*%
G36*
X13532725Y74239998D02*
G01*
X13579218Y74186342D01*
X13589322Y74116068D01*
X13559828Y74051488D01*
X13529789Y74026172D01*
X13458587Y73983128D01*
X13458584Y73983126D01*
X13200649Y73781047D01*
X13200647Y73781045D01*
X13200641Y73781040D01*
X12968959Y73549358D01*
X12968954Y73549352D01*
X12968953Y73549351D01*
X12883272Y73439987D01*
X12766871Y73291412D01*
X12597356Y73011003D01*
X12462880Y72712207D01*
X12365396Y72399370D01*
X12306333Y72077070D01*
X12306332Y72077067D01*
X12286549Y71750001D01*
X12286549Y71749998D01*
X12306332Y71422932D01*
X12306333Y71422929D01*
X12365396Y71100629D01*
X12462880Y70787792D01*
X12597356Y70488996D01*
X12766871Y70208587D01*
X12968954Y69950647D01*
X12968959Y69950641D01*
X13200641Y69718959D01*
X13200647Y69718954D01*
X13458587Y69516871D01*
X13738996Y69347356D01*
X14037792Y69212880D01*
X14350629Y69115396D01*
X14672929Y69056333D01*
X14672932Y69056332D01*
X14999999Y69036549D01*
X15000000Y69036549D01*
X15000001Y69036549D01*
X15327067Y69056332D01*
X15327070Y69056333D01*
X15649370Y69115396D01*
X15962207Y69212880D01*
X16261003Y69347356D01*
X16541412Y69516871D01*
X16734844Y69668415D01*
X16799351Y69718953D01*
X16799352Y69718954D01*
X16799358Y69718959D01*
X17031040Y69950641D01*
X17031045Y69950647D01*
X17233128Y70208587D01*
X17402643Y70488996D01*
X17537119Y70787792D01*
X17546426Y70817657D01*
X17634603Y71100629D01*
X17693667Y71422930D01*
X17713451Y71750000D01*
X17693667Y72077070D01*
X17634603Y72399371D01*
X17537121Y72712203D01*
X17450422Y72904841D01*
X17402643Y73011003D01*
X17386474Y73037749D01*
X26711600Y73037749D01*
X26711600Y71240450D01*
X26718109Y71179903D01*
X26718111Y71179895D01*
X26769210Y71042897D01*
X26769212Y71042892D01*
X26856838Y70925838D01*
X26973892Y70838212D01*
X26973897Y70838210D01*
X27110895Y70787111D01*
X27110903Y70787109D01*
X27171450Y70780600D01*
X27171462Y70780600D01*
X28968749Y70780600D01*
X29029296Y70787109D01*
X29029304Y70787111D01*
X29166302Y70838210D01*
X29166307Y70838212D01*
X29283361Y70925838D01*
X29370987Y71042892D01*
X29370989Y71042897D01*
X29380835Y71069293D01*
X29415099Y71161157D01*
X29457646Y71217993D01*
X29524166Y71242803D01*
X29593540Y71227711D01*
X29625854Y71202463D01*
X29686862Y71136191D01*
X29864524Y70997911D01*
X29864526Y70997910D01*
X30062526Y70890758D01*
X30062528Y70890756D01*
X30275460Y70817657D01*
X30275469Y70817655D01*
X30349311Y70805333D01*
X30497531Y70780600D01*
X30497535Y70780600D01*
X30722665Y70780600D01*
X30722669Y70780600D01*
X30900576Y70810287D01*
X30944730Y70817655D01*
X30944732Y70817655D01*
X30944735Y70817656D01*
X30944739Y70817657D01*
X31157671Y70890756D01*
X31157672Y70890757D01*
X31157674Y70890758D01*
X31355676Y70997911D01*
X31487647Y71100629D01*
X31533337Y71136191D01*
X31533682Y71136565D01*
X31594346Y71202463D01*
X31685820Y71301829D01*
X31686025Y71302142D01*
X31774617Y71437743D01*
X31828621Y71483831D01*
X31898969Y71493406D01*
X31963326Y71463429D01*
X31985583Y71437743D01*
X32074379Y71301829D01*
X32226862Y71136191D01*
X32404524Y70997911D01*
X32404526Y70997910D01*
X32602526Y70890758D01*
X32602528Y70890756D01*
X32815460Y70817657D01*
X32815469Y70817655D01*
X32889311Y70805333D01*
X33037531Y70780600D01*
X33037535Y70780600D01*
X33262665Y70780600D01*
X33262669Y70780600D01*
X33440576Y70810287D01*
X33484730Y70817655D01*
X33484732Y70817655D01*
X33484735Y70817656D01*
X33484739Y70817657D01*
X33697671Y70890756D01*
X33697672Y70890757D01*
X33697674Y70890758D01*
X33895676Y70997911D01*
X34027647Y71100629D01*
X34073337Y71136191D01*
X34073682Y71136565D01*
X34134346Y71202463D01*
X34225820Y71301829D01*
X34226025Y71302142D01*
X34314617Y71437743D01*
X34368621Y71483831D01*
X34438969Y71493406D01*
X34503326Y71463429D01*
X34525583Y71437743D01*
X34614379Y71301829D01*
X34766862Y71136191D01*
X34944524Y70997911D01*
X34944526Y70997910D01*
X35142526Y70890758D01*
X35142528Y70890756D01*
X35355460Y70817657D01*
X35355469Y70817655D01*
X35429311Y70805333D01*
X35577531Y70780600D01*
X35577535Y70780600D01*
X35802665Y70780600D01*
X35802669Y70780600D01*
X35980576Y70810287D01*
X36024730Y70817655D01*
X36024732Y70817655D01*
X36024735Y70817656D01*
X36024739Y70817657D01*
X36237671Y70890756D01*
X36237672Y70890757D01*
X36237674Y70890758D01*
X36435676Y70997911D01*
X36567647Y71100629D01*
X36613337Y71136191D01*
X36613682Y71136565D01*
X36674346Y71202463D01*
X36765820Y71301829D01*
X36765824Y71301834D01*
X36815984Y71378611D01*
X36854916Y71438201D01*
X36908918Y71484288D01*
X36979266Y71493864D01*
X37043623Y71463887D01*
X37065880Y71438201D01*
X37154770Y71302145D01*
X37307197Y71136565D01*
X37484798Y70998332D01*
X37484799Y70998331D01*
X37682728Y70891217D01*
X37682730Y70891216D01*
X37895587Y70818143D01*
X37895598Y70818140D01*
X37976099Y70804706D01*
X37976100Y70804707D01*
X37976100Y71708397D01*
X38037107Y71673175D01*
X38164274Y71639100D01*
X38295926Y71639100D01*
X38423093Y71673175D01*
X38484100Y71708397D01*
X38484100Y70804706D01*
X38564601Y70818140D01*
X38564612Y70818143D01*
X38777469Y70891216D01*
X38777471Y70891217D01*
X38975400Y70998331D01*
X38975401Y70998332D01*
X39153002Y71136565D01*
X39305425Y71302142D01*
X39394617Y71438659D01*
X39448621Y71484747D01*
X39518969Y71494322D01*
X39583326Y71464344D01*
X39605583Y71438659D01*
X39694774Y71302142D01*
X39847197Y71136565D01*
X40024798Y70998332D01*
X40024799Y70998331D01*
X40222728Y70891217D01*
X40222730Y70891216D01*
X40435587Y70818143D01*
X40435598Y70818140D01*
X40516099Y70804706D01*
X40516100Y70804707D01*
X40516100Y71708397D01*
X40577107Y71673175D01*
X40704274Y71639100D01*
X40835926Y71639100D01*
X40963093Y71673175D01*
X41024100Y71708397D01*
X41024100Y70804706D01*
X41104601Y70818140D01*
X41104612Y70818143D01*
X41317469Y70891216D01*
X41317471Y70891217D01*
X41515400Y70998331D01*
X41515401Y70998332D01*
X41693002Y71136565D01*
X41845425Y71302141D01*
X41968519Y71490551D01*
X42058920Y71696643D01*
X42058923Y71696650D01*
X42106644Y71885099D01*
X42106644Y71885100D01*
X41200803Y71885100D01*
X41236025Y71946107D01*
X41270100Y72073274D01*
X41270100Y72204926D01*
X41236025Y72332093D01*
X41200803Y72393100D01*
X42106644Y72393100D01*
X42058923Y72581549D01*
X42058920Y72581556D01*
X41968519Y72787648D01*
X41845425Y72976058D01*
X41693002Y73141634D01*
X41515401Y73279867D01*
X41515400Y73279868D01*
X41317471Y73386982D01*
X41317469Y73386983D01*
X41104616Y73460055D01*
X41104607Y73460057D01*
X41024100Y73473490D01*
X41024100Y72569802D01*
X40963093Y72605025D01*
X40835926Y72639100D01*
X40704274Y72639100D01*
X40577107Y72605025D01*
X40516100Y72569802D01*
X40516100Y73473491D01*
X40435592Y73460057D01*
X40435583Y73460055D01*
X40222730Y73386983D01*
X40222728Y73386982D01*
X40024799Y73279868D01*
X40024798Y73279867D01*
X39847197Y73141634D01*
X39694772Y72976055D01*
X39605583Y72839541D01*
X39551579Y72793452D01*
X39481232Y72783877D01*
X39416874Y72813854D01*
X39394617Y72839541D01*
X39305427Y72976055D01*
X39153002Y73141634D01*
X38975401Y73279867D01*
X38975400Y73279868D01*
X38777471Y73386982D01*
X38777469Y73386983D01*
X38564616Y73460055D01*
X38564607Y73460057D01*
X38484100Y73473490D01*
X38484100Y72569802D01*
X38423093Y72605025D01*
X38295926Y72639100D01*
X38164274Y72639100D01*
X38037107Y72605025D01*
X37976100Y72569802D01*
X37976100Y73473491D01*
X37895592Y73460057D01*
X37895583Y73460055D01*
X37682730Y73386983D01*
X37682728Y73386982D01*
X37484799Y73279868D01*
X37484798Y73279867D01*
X37307197Y73141634D01*
X37154774Y72976058D01*
X37065882Y72839998D01*
X37011878Y72793910D01*
X36941530Y72784335D01*
X36877173Y72814312D01*
X36854916Y72839999D01*
X36854617Y72840456D01*
X36778222Y72957389D01*
X36765824Y72976365D01*
X36765820Y72976370D01*
X36709316Y73037749D01*
X36613340Y73142006D01*
X36435676Y73280289D01*
X36237674Y73387442D01*
X36024735Y73460544D01*
X35802669Y73497600D01*
X35577531Y73497600D01*
X35355465Y73460544D01*
X35254327Y73425823D01*
X35142528Y73387443D01*
X35142527Y73387442D01*
X35142526Y73387442D01*
X34944524Y73280289D01*
X34821431Y73184481D01*
X34766862Y73142008D01*
X34614379Y72976370D01*
X34614375Y72976365D01*
X34567648Y72904843D01*
X34525581Y72840454D01*
X34471580Y72794368D01*
X34401232Y72784792D01*
X34336875Y72814769D01*
X34314619Y72840453D01*
X34231215Y72968112D01*
X34225824Y72976365D01*
X34225820Y72976370D01*
X34169316Y73037749D01*
X34073340Y73142006D01*
X33895676Y73280289D01*
X33697674Y73387442D01*
X33484735Y73460544D01*
X33262669Y73497600D01*
X33037531Y73497600D01*
X32815465Y73460544D01*
X32714327Y73425823D01*
X32602528Y73387443D01*
X32602527Y73387442D01*
X32602526Y73387442D01*
X32404524Y73280289D01*
X32281431Y73184481D01*
X32226862Y73142008D01*
X32074379Y72976370D01*
X32074375Y72976365D01*
X32027648Y72904843D01*
X31985581Y72840454D01*
X31931580Y72794368D01*
X31861232Y72784792D01*
X31796875Y72814769D01*
X31774619Y72840453D01*
X31691215Y72968112D01*
X31685824Y72976365D01*
X31685820Y72976370D01*
X31629316Y73037749D01*
X31533340Y73142006D01*
X31355676Y73280289D01*
X31157674Y73387442D01*
X30944735Y73460544D01*
X30722669Y73497600D01*
X30497531Y73497600D01*
X30275465Y73460544D01*
X30174327Y73425823D01*
X30062528Y73387443D01*
X30062527Y73387442D01*
X30062526Y73387442D01*
X29864524Y73280289D01*
X29741431Y73184481D01*
X29686862Y73142008D01*
X29686860Y73142006D01*
X29625853Y73075736D01*
X29565002Y73039166D01*
X29494037Y73041301D01*
X29435492Y73081463D01*
X29415100Y73117037D01*
X29370989Y73235304D01*
X29283361Y73352361D01*
X29236500Y73387441D01*
X29166307Y73439987D01*
X29166306Y73439987D01*
X29166304Y73439989D01*
X29029301Y73491089D01*
X29029299Y73491089D01*
X29029296Y73491090D01*
X28968749Y73497599D01*
X28968745Y73497599D01*
X28968738Y73497600D01*
X27171462Y73497600D01*
X27171455Y73497599D01*
X27171450Y73497599D01*
X27110903Y73491090D01*
X27110895Y73491088D01*
X27033303Y73462147D01*
X26973896Y73439989D01*
X26973894Y73439988D01*
X26973892Y73439987D01*
X26856838Y73352361D01*
X26769212Y73235307D01*
X26769210Y73235302D01*
X26718111Y73098304D01*
X26718109Y73098296D01*
X26711600Y73037749D01*
X17386474Y73037749D01*
X17267045Y73235307D01*
X17233126Y73291416D01*
X17031047Y73549351D01*
X16799351Y73781047D01*
X16541416Y73983126D01*
X16517244Y73997738D01*
X16470211Y74026172D01*
X16422263Y74078531D01*
X16410233Y74148501D01*
X16437942Y74213867D01*
X16496592Y74253876D01*
X16535396Y74260000D01*
X58464604Y74260000D01*
X58532725Y74239998D01*
X58579218Y74186342D01*
X58589322Y74116068D01*
X58559828Y74051488D01*
X58529789Y74026172D01*
X58458587Y73983128D01*
X58458584Y73983126D01*
X58200649Y73781047D01*
X58200647Y73781045D01*
X58200641Y73781040D01*
X57968959Y73549358D01*
X57968954Y73549352D01*
X57968953Y73549351D01*
X57883272Y73439987D01*
X57766871Y73291412D01*
X57597356Y73011003D01*
X57462880Y72712207D01*
X57365396Y72399370D01*
X57306333Y72077070D01*
X57306332Y72077067D01*
X57286549Y71750001D01*
X57286549Y71749998D01*
X57306332Y71422932D01*
X57306333Y71422929D01*
X57365396Y71100629D01*
X57462880Y70787792D01*
X57597356Y70488996D01*
X57766871Y70208587D01*
X57968954Y69950647D01*
X57968959Y69950641D01*
X58200641Y69718959D01*
X58200647Y69718954D01*
X58458587Y69516871D01*
X58738996Y69347356D01*
X59037792Y69212880D01*
X59350629Y69115396D01*
X59672929Y69056333D01*
X59672932Y69056332D01*
X59999999Y69036549D01*
X60000000Y69036549D01*
X60000001Y69036549D01*
X60327067Y69056332D01*
X60327070Y69056333D01*
X60649370Y69115396D01*
X60962207Y69212880D01*
X61261003Y69347356D01*
X61541412Y69516871D01*
X61734844Y69668415D01*
X61799351Y69718953D01*
X61799352Y69718954D01*
X61799358Y69718959D01*
X62031040Y69950641D01*
X62031045Y69950647D01*
X62233128Y70208587D01*
X62402643Y70488996D01*
X62537119Y70787792D01*
X62546426Y70817657D01*
X62634603Y71100629D01*
X62693667Y71422930D01*
X62713451Y71750000D01*
X62693667Y72077070D01*
X62634603Y72399371D01*
X62537121Y72712203D01*
X62450422Y72904841D01*
X62402643Y73011003D01*
X62267045Y73235307D01*
X62233126Y73291416D01*
X62031047Y73549351D01*
X61799351Y73781047D01*
X61541416Y73983126D01*
X61517244Y73997738D01*
X61470211Y74026172D01*
X61422263Y74078531D01*
X61410233Y74148501D01*
X61437942Y74213867D01*
X61496592Y74253876D01*
X61535396Y74260000D01*
X71069294Y74260000D01*
X71125694Y74246672D01*
X71345682Y74136553D01*
X71353576Y74132243D01*
X71774938Y73882238D01*
X71782505Y73877375D01*
X72184956Y73597948D01*
X72192156Y73592558D01*
X72573640Y73285139D01*
X72580438Y73279249D01*
X72939029Y72945389D01*
X72945389Y72939029D01*
X73279249Y72580438D01*
X73285139Y72573640D01*
X73592558Y72192156D01*
X73597948Y72184956D01*
X73877375Y71782505D01*
X73882238Y71774938D01*
X74132243Y71353576D01*
X74136553Y71345682D01*
X74246672Y71125693D01*
X74260000Y71069293D01*
X74260000Y3930705D01*
X74246672Y3874306D01*
X74177010Y3735140D01*
X74136553Y3654317D01*
X74132243Y3646423D01*
X73882238Y3225061D01*
X73877375Y3217494D01*
X73667979Y2915906D01*
X73597948Y2815043D01*
X73592562Y2807848D01*
X73423717Y2598324D01*
X73285139Y2426359D01*
X73279249Y2419561D01*
X72945389Y2060970D01*
X72939031Y2054612D01*
X72736213Y1865782D01*
X72580438Y1720750D01*
X72573644Y1714863D01*
X72192147Y1407434D01*
X72184965Y1402058D01*
X71921246Y1218954D01*
X71782505Y1122624D01*
X71774942Y1117764D01*
X71409262Y900796D01*
X71353576Y867756D01*
X71345686Y863448D01*
X70907554Y644134D01*
X70899397Y640409D01*
X70894787Y638500D01*
X70824993Y609591D01*
X70776776Y600000D01*
X61298366Y600000D01*
X61230245Y620002D01*
X61183752Y673658D01*
X61173648Y743932D01*
X61203142Y808512D01*
X61246654Y840899D01*
X61261002Y847356D01*
X61541412Y1016871D01*
X61571959Y1040803D01*
X61799351Y1218953D01*
X61799352Y1218954D01*
X61799358Y1218959D01*
X62031040Y1450641D01*
X62031045Y1450647D01*
X62233128Y1708587D01*
X62402643Y1988996D01*
X62537119Y2287792D01*
X62610394Y2522938D01*
X62634603Y2600629D01*
X62693667Y2922930D01*
X62711708Y3221191D01*
X62713451Y3249998D01*
X62713451Y3250001D01*
X62706888Y3358500D01*
X62693667Y3577070D01*
X62634603Y3899371D01*
X62537121Y4212203D01*
X62419218Y4474174D01*
X62402643Y4511003D01*
X62320242Y4647308D01*
X62233126Y4791416D01*
X62031047Y5049351D01*
X61799351Y5281047D01*
X61541416Y5483126D01*
X61397308Y5570242D01*
X61261003Y5652643D01*
X60962207Y5787119D01*
X60962203Y5787121D01*
X60649371Y5884603D01*
X60327070Y5943667D01*
X60081767Y5958505D01*
X60000001Y5963451D01*
X59999999Y5963451D01*
X59890976Y5956856D01*
X59672930Y5943667D01*
X59350629Y5884603D01*
X59037797Y5787121D01*
X59037793Y5787119D01*
X59037792Y5787119D01*
X58738996Y5652643D01*
X58510110Y5514275D01*
X58458584Y5483126D01*
X58200649Y5281047D01*
X58200647Y5281045D01*
X58200641Y5281040D01*
X57968959Y5049358D01*
X57968954Y5049352D01*
X57968953Y5049351D01*
X57766874Y4791416D01*
X57766871Y4791412D01*
X57597356Y4511003D01*
X57462880Y4212207D01*
X57365396Y3899370D01*
X57306333Y3577070D01*
X57306332Y3577067D01*
X57286549Y3250001D01*
X57286549Y3249998D01*
X57306332Y2922932D01*
X57306333Y2922929D01*
X57365396Y2600629D01*
X57462880Y2287792D01*
X57597356Y1988996D01*
X57766871Y1708587D01*
X57968954Y1450647D01*
X57968959Y1450641D01*
X58200641Y1218959D01*
X58200647Y1218954D01*
X58458587Y1016871D01*
X58738997Y847356D01*
X58753346Y840899D01*
X58807256Y794702D01*
X58827632Y726692D01*
X58808005Y658463D01*
X58754605Y611676D01*
X58701634Y600000D01*
X51455186Y600000D01*
X51387065Y620002D01*
X51340572Y673658D01*
X51330468Y743932D01*
X51354318Y801509D01*
X51430887Y903792D01*
X51430889Y903797D01*
X51481988Y1040795D01*
X51481990Y1040803D01*
X51488499Y1101350D01*
X51488500Y1101367D01*
X51488500Y2898632D01*
X51488499Y2898649D01*
X51481990Y2959196D01*
X51481988Y2959204D01*
X51467068Y2999204D01*
X51430889Y3096204D01*
X51343261Y3213261D01*
X51226204Y3300889D01*
X51110684Y3343976D01*
X51053852Y3386521D01*
X51029041Y3453042D01*
X51044133Y3522416D01*
X51062018Y3547367D01*
X51205325Y3703041D01*
X51328419Y3891451D01*
X51418820Y4097543D01*
X51418823Y4097550D01*
X51466544Y4285999D01*
X51466544Y4286000D01*
X50560703Y4286000D01*
X50595925Y4347007D01*
X50630000Y4474174D01*
X50630000Y4605826D01*
X50595925Y4732993D01*
X50560703Y4794000D01*
X51466544Y4794000D01*
X51418823Y4982449D01*
X51418820Y4982456D01*
X51328419Y5188548D01*
X51205325Y5376958D01*
X51052902Y5542534D01*
X50875301Y5680767D01*
X50841793Y5698901D01*
X50791403Y5748914D01*
X50776050Y5818230D01*
X50800610Y5884844D01*
X50841792Y5920528D01*
X50875576Y5938811D01*
X50971382Y6013381D01*
X51053237Y6077091D01*
X51205720Y6242729D01*
X51205724Y6242734D01*
X51328858Y6431206D01*
X51328860Y6431209D01*
X51419296Y6637384D01*
X51421992Y6648028D01*
X51474562Y6855624D01*
X51474564Y6855632D01*
X51493156Y7080000D01*
X51474564Y7304368D01*
X51419296Y7522616D01*
X51328860Y7728791D01*
X51205722Y7917268D01*
X51053240Y8082906D01*
X50875576Y8221189D01*
X50842319Y8239186D01*
X50791929Y8289198D01*
X50776576Y8358515D01*
X50801136Y8425128D01*
X50842320Y8460814D01*
X50875569Y8478807D01*
X50875570Y8478808D01*
X50875576Y8478811D01*
X51007255Y8581302D01*
X51053237Y8617091D01*
X51205720Y8782729D01*
X51205724Y8782734D01*
X51328858Y8971206D01*
X51328860Y8971209D01*
X51419296Y9177384D01*
X51421563Y9186334D01*
X51474562Y9395624D01*
X51474564Y9395632D01*
X51493156Y9620000D01*
X51474564Y9844368D01*
X51419296Y10062616D01*
X51328860Y10268791D01*
X51205722Y10457268D01*
X51053240Y10622906D01*
X50875576Y10761189D01*
X50677574Y10868342D01*
X50464635Y10941444D01*
X50242569Y10978500D01*
X50017431Y10978500D01*
X49795365Y10941444D01*
X49694227Y10906723D01*
X49582428Y10868343D01*
X49582427Y10868342D01*
X49582426Y10868342D01*
X49384424Y10761189D01*
X49261331Y10665381D01*
X49206762Y10622908D01*
X49054279Y10457270D01*
X49054275Y10457265D01*
X48931141Y10268793D01*
X48840703Y10062613D01*
X48840702Y10062612D01*
X48785437Y9844375D01*
X48785436Y9844370D01*
X48785436Y9844368D01*
X48766844Y9620000D01*
X48777531Y9491025D01*
X48785437Y9395624D01*
X48840702Y9177387D01*
X48840703Y9177386D01*
X48931141Y8971206D01*
X49054275Y8782734D01*
X49054279Y8782729D01*
X49206762Y8617091D01*
X49384424Y8478811D01*
X49389969Y8475810D01*
X49417680Y8460814D01*
X49468071Y8410800D01*
X49483423Y8341484D01*
X49458862Y8274871D01*
X49417680Y8239186D01*
X49384424Y8221189D01*
X49261331Y8125381D01*
X49206762Y8082908D01*
X49054279Y7917270D01*
X49054275Y7917265D01*
X48931141Y7728793D01*
X48931140Y7728791D01*
X48850364Y7544637D01*
X48840703Y7522613D01*
X48840702Y7522612D01*
X48785437Y7304375D01*
X48785436Y7304370D01*
X48785436Y7304368D01*
X48766844Y7080000D01*
X48784410Y6868009D01*
X48785437Y6855624D01*
X48840702Y6637387D01*
X48840703Y6637386D01*
X48931141Y6431206D01*
X49054275Y6242734D01*
X49054279Y6242729D01*
X49206762Y6077091D01*
X49384424Y5938811D01*
X49384430Y5938807D01*
X49418207Y5920528D01*
X49468597Y5870515D01*
X49483949Y5801198D01*
X49459388Y5734585D01*
X49418207Y5698902D01*
X49384704Y5680771D01*
X49384698Y5680767D01*
X49207097Y5542534D01*
X49054674Y5376958D01*
X48931580Y5188548D01*
X48841179Y4982456D01*
X48841176Y4982449D01*
X48793455Y4794000D01*
X49699297Y4794000D01*
X49664075Y4732993D01*
X49630000Y4605826D01*
X49630000Y4474174D01*
X49664075Y4347007D01*
X49699297Y4286000D01*
X48793456Y4286000D01*
X48793455Y4285999D01*
X48841176Y4097550D01*
X48841179Y4097543D01*
X48931580Y3891451D01*
X49054674Y3703041D01*
X49197981Y3547367D01*
X49229401Y3483701D01*
X49221414Y3413156D01*
X49176554Y3358127D01*
X49149312Y3343975D01*
X49033796Y3300889D01*
X49033792Y3300887D01*
X48916738Y3213261D01*
X48829112Y3096207D01*
X48829110Y3096202D01*
X48778011Y2959204D01*
X48778009Y2959196D01*
X48771500Y2898649D01*
X48771500Y1101350D01*
X48778009Y1040803D01*
X48778011Y1040795D01*
X48829110Y903797D01*
X48829112Y903792D01*
X48905682Y801509D01*
X48930493Y734989D01*
X48915402Y665615D01*
X48865200Y615413D01*
X48804814Y600000D01*
X41297432Y600000D01*
X41229311Y620002D01*
X41182818Y673658D01*
X41172714Y743932D01*
X41196564Y801509D01*
X41270887Y900792D01*
X41270889Y900797D01*
X41321988Y1037795D01*
X41321990Y1037803D01*
X41328499Y1098350D01*
X41328500Y1098367D01*
X41328500Y2895632D01*
X41328499Y2895649D01*
X41321990Y2956196D01*
X41321988Y2956204D01*
X41314454Y2976402D01*
X41270889Y3093204D01*
X41183261Y3210261D01*
X41066204Y3297889D01*
X40950684Y3340976D01*
X40893852Y3383521D01*
X40869041Y3450042D01*
X40884133Y3519416D01*
X40902018Y3544367D01*
X41045325Y3700041D01*
X41168419Y3888451D01*
X41258820Y4094543D01*
X41258823Y4094550D01*
X41306544Y4282999D01*
X41306544Y4283000D01*
X40400703Y4283000D01*
X40435925Y4344007D01*
X40470000Y4471174D01*
X40470000Y4602826D01*
X40435925Y4729993D01*
X40400703Y4791000D01*
X41306544Y4791000D01*
X41258823Y4979449D01*
X41258820Y4979456D01*
X41168419Y5185548D01*
X41045325Y5373958D01*
X40892902Y5539534D01*
X40715301Y5677767D01*
X40681793Y5695901D01*
X40631403Y5745914D01*
X40616050Y5815230D01*
X40640610Y5881844D01*
X40681792Y5917528D01*
X40715576Y5935811D01*
X40811382Y6010381D01*
X40893237Y6074091D01*
X40916473Y6099331D01*
X40963735Y6150671D01*
X41045720Y6239729D01*
X41045724Y6239734D01*
X41168858Y6428206D01*
X41168860Y6428209D01*
X41259296Y6634384D01*
X41260057Y6637387D01*
X41314562Y6852624D01*
X41314564Y6852632D01*
X41333156Y7077000D01*
X41314564Y7301368D01*
X41259296Y7519616D01*
X41168860Y7725791D01*
X41045722Y7914268D01*
X40893240Y8079906D01*
X40715576Y8218189D01*
X40682319Y8236186D01*
X40631929Y8286198D01*
X40616576Y8355515D01*
X40641136Y8422128D01*
X40682320Y8457814D01*
X40715569Y8475807D01*
X40715570Y8475808D01*
X40715576Y8475811D01*
X40820796Y8557708D01*
X40893237Y8614091D01*
X41045720Y8779729D01*
X41045724Y8779734D01*
X41168858Y8968206D01*
X41168860Y8968209D01*
X41259296Y9174384D01*
X41260057Y9177387D01*
X41314562Y9392624D01*
X41314564Y9392632D01*
X41333156Y9617000D01*
X41314564Y9841368D01*
X41259296Y10059616D01*
X41168860Y10265791D01*
X41045722Y10454268D01*
X40893240Y10619906D01*
X40715576Y10758189D01*
X40517574Y10865342D01*
X40304635Y10938444D01*
X40082569Y10975500D01*
X39857431Y10975500D01*
X39635365Y10938444D01*
X39534227Y10903723D01*
X39422428Y10865343D01*
X39422427Y10865342D01*
X39422426Y10865342D01*
X39224424Y10758189D01*
X39101331Y10662381D01*
X39046762Y10619908D01*
X38894279Y10454270D01*
X38894275Y10454265D01*
X38773101Y10268793D01*
X38771140Y10265791D01*
X38770737Y10264871D01*
X38680703Y10059613D01*
X38680702Y10059612D01*
X38625437Y9841375D01*
X38625436Y9841370D01*
X38625436Y9841368D01*
X38606844Y9617000D01*
X38625187Y9395632D01*
X38625437Y9392624D01*
X38680702Y9174387D01*
X38680703Y9174386D01*
X38771141Y8968206D01*
X38894275Y8779734D01*
X38894279Y8779729D01*
X39046762Y8614091D01*
X39220570Y8478811D01*
X39224424Y8475811D01*
X39227770Y8474000D01*
X39257680Y8457814D01*
X39308071Y8407800D01*
X39323423Y8338484D01*
X39298862Y8271871D01*
X39257680Y8236186D01*
X39224424Y8218189D01*
X39133721Y8147591D01*
X39046762Y8079908D01*
X38894279Y7914270D01*
X38894275Y7914265D01*
X38773101Y7728793D01*
X38771140Y7725791D01*
X38703334Y7571206D01*
X38680703Y7519613D01*
X38680702Y7519612D01*
X38625437Y7301375D01*
X38625436Y7301370D01*
X38625436Y7301368D01*
X38606844Y7077000D01*
X38625187Y6855632D01*
X38625437Y6852624D01*
X38680702Y6634387D01*
X38680703Y6634386D01*
X38771141Y6428206D01*
X38894275Y6239734D01*
X38894279Y6239729D01*
X39046762Y6074091D01*
X39224424Y5935811D01*
X39224430Y5935807D01*
X39258207Y5917528D01*
X39308597Y5867515D01*
X39323949Y5798198D01*
X39299388Y5731585D01*
X39258207Y5695902D01*
X39224704Y5677771D01*
X39224698Y5677767D01*
X39047097Y5539534D01*
X38894674Y5373958D01*
X38771580Y5185548D01*
X38681179Y4979456D01*
X38681176Y4979449D01*
X38633455Y4791000D01*
X39539297Y4791000D01*
X39504075Y4729993D01*
X39470000Y4602826D01*
X39470000Y4471174D01*
X39504075Y4344007D01*
X39539297Y4283000D01*
X38633456Y4283000D01*
X38633455Y4282999D01*
X38681176Y4094550D01*
X38681179Y4094543D01*
X38771580Y3888451D01*
X38894674Y3700041D01*
X39037981Y3544367D01*
X39069401Y3480701D01*
X39061414Y3410156D01*
X39016554Y3355127D01*
X38989312Y3340975D01*
X38873796Y3297889D01*
X38873792Y3297887D01*
X38756738Y3210261D01*
X38669112Y3093207D01*
X38669110Y3093202D01*
X38618011Y2956204D01*
X38618009Y2956196D01*
X38611500Y2895649D01*
X38611500Y1098350D01*
X38618009Y1037803D01*
X38618011Y1037795D01*
X38669110Y900797D01*
X38669112Y900792D01*
X38743436Y801509D01*
X38768247Y734989D01*
X38753156Y665615D01*
X38702954Y615413D01*
X38642568Y600000D01*
X36217432Y600000D01*
X36149311Y620002D01*
X36102818Y673658D01*
X36092714Y743932D01*
X36116564Y801509D01*
X36190887Y900792D01*
X36190889Y900797D01*
X36241988Y1037795D01*
X36241990Y1037803D01*
X36248499Y1098350D01*
X36248500Y1098367D01*
X36248500Y2895632D01*
X36248499Y2895649D01*
X36241990Y2956196D01*
X36241988Y2956204D01*
X36234454Y2976402D01*
X36190889Y3093204D01*
X36103261Y3210261D01*
X35986204Y3297889D01*
X35870684Y3340976D01*
X35813852Y3383521D01*
X35789041Y3450042D01*
X35804133Y3519416D01*
X35822018Y3544367D01*
X35965325Y3700041D01*
X36088419Y3888451D01*
X36178820Y4094543D01*
X36178823Y4094550D01*
X36226544Y4282999D01*
X36226544Y4283000D01*
X35320703Y4283000D01*
X35355925Y4344007D01*
X35390000Y4471174D01*
X35390000Y4602826D01*
X35355925Y4729993D01*
X35320703Y4791000D01*
X36226544Y4791000D01*
X36178823Y4979449D01*
X36178820Y4979456D01*
X36088419Y5185548D01*
X35965325Y5373958D01*
X35812902Y5539534D01*
X35635301Y5677767D01*
X35601793Y5695901D01*
X35551403Y5745914D01*
X35536050Y5815230D01*
X35560610Y5881844D01*
X35601792Y5917528D01*
X35635576Y5935811D01*
X35731382Y6010381D01*
X35813237Y6074091D01*
X35836473Y6099331D01*
X35883735Y6150671D01*
X35965720Y6239729D01*
X35965724Y6239734D01*
X36088858Y6428206D01*
X36088860Y6428209D01*
X36179296Y6634384D01*
X36180057Y6637387D01*
X36234562Y6852624D01*
X36234564Y6852632D01*
X36253156Y7077000D01*
X36234564Y7301368D01*
X36179296Y7519616D01*
X36088860Y7725791D01*
X35965722Y7914268D01*
X35813240Y8079906D01*
X35635576Y8218189D01*
X35602319Y8236186D01*
X35551929Y8286198D01*
X35536576Y8355515D01*
X35561136Y8422128D01*
X35602320Y8457814D01*
X35635569Y8475807D01*
X35635570Y8475808D01*
X35635576Y8475811D01*
X35740796Y8557708D01*
X35813237Y8614091D01*
X35965720Y8779729D01*
X35965724Y8779734D01*
X36088858Y8968206D01*
X36088860Y8968209D01*
X36179296Y9174384D01*
X36180057Y9177387D01*
X36234562Y9392624D01*
X36234564Y9392632D01*
X36253156Y9617000D01*
X36234564Y9841368D01*
X36179296Y10059616D01*
X36088860Y10265791D01*
X35965722Y10454268D01*
X35813240Y10619906D01*
X35635576Y10758189D01*
X35437574Y10865342D01*
X35224635Y10938444D01*
X35002569Y10975500D01*
X34777431Y10975500D01*
X34555365Y10938444D01*
X34454227Y10903723D01*
X34342428Y10865343D01*
X34342427Y10865342D01*
X34342426Y10865342D01*
X34144424Y10758189D01*
X34021331Y10662381D01*
X33966762Y10619908D01*
X33814279Y10454270D01*
X33814275Y10454265D01*
X33693101Y10268793D01*
X33691140Y10265791D01*
X33690737Y10264871D01*
X33600703Y10059613D01*
X33600702Y10059612D01*
X33545437Y9841375D01*
X33545436Y9841370D01*
X33545436Y9841368D01*
X33526844Y9617000D01*
X33545187Y9395632D01*
X33545437Y9392624D01*
X33600702Y9174387D01*
X33600703Y9174386D01*
X33691141Y8968206D01*
X33814275Y8779734D01*
X33814279Y8779729D01*
X33966762Y8614091D01*
X34140570Y8478811D01*
X34144424Y8475811D01*
X34147770Y8474000D01*
X34177680Y8457814D01*
X34228071Y8407800D01*
X34243423Y8338484D01*
X34218862Y8271871D01*
X34177680Y8236186D01*
X34144424Y8218189D01*
X34053721Y8147591D01*
X33966762Y8079908D01*
X33814279Y7914270D01*
X33814275Y7914265D01*
X33693101Y7728793D01*
X33691140Y7725791D01*
X33623334Y7571206D01*
X33600703Y7519613D01*
X33600702Y7519612D01*
X33545437Y7301375D01*
X33545436Y7301370D01*
X33545436Y7301368D01*
X33526844Y7077000D01*
X33545187Y6855632D01*
X33545437Y6852624D01*
X33600702Y6634387D01*
X33600703Y6634386D01*
X33691141Y6428206D01*
X33814275Y6239734D01*
X33814279Y6239729D01*
X33966762Y6074091D01*
X34144424Y5935811D01*
X34144430Y5935807D01*
X34178207Y5917528D01*
X34228597Y5867515D01*
X34243949Y5798198D01*
X34219388Y5731585D01*
X34178207Y5695902D01*
X34144704Y5677771D01*
X34144698Y5677767D01*
X33967097Y5539534D01*
X33814674Y5373958D01*
X33691580Y5185548D01*
X33601179Y4979456D01*
X33601176Y4979449D01*
X33553455Y4791000D01*
X34459297Y4791000D01*
X34424075Y4729993D01*
X34390000Y4602826D01*
X34390000Y4471174D01*
X34424075Y4344007D01*
X34459297Y4283000D01*
X33553456Y4283000D01*
X33553455Y4282999D01*
X33601176Y4094550D01*
X33601179Y4094543D01*
X33691580Y3888451D01*
X33814674Y3700041D01*
X33957981Y3544367D01*
X33989401Y3480701D01*
X33981414Y3410156D01*
X33936554Y3355127D01*
X33909312Y3340975D01*
X33793796Y3297889D01*
X33793792Y3297887D01*
X33676738Y3210261D01*
X33589112Y3093207D01*
X33589110Y3093202D01*
X33538011Y2956204D01*
X33538009Y2956196D01*
X33531500Y2895649D01*
X33531500Y1098350D01*
X33538009Y1037803D01*
X33538011Y1037795D01*
X33589110Y900797D01*
X33589112Y900792D01*
X33663436Y801509D01*
X33688247Y734989D01*
X33673156Y665615D01*
X33622954Y615413D01*
X33562568Y600000D01*
X26055186Y600000D01*
X25987065Y620002D01*
X25940572Y673658D01*
X25930468Y743932D01*
X25954318Y801509D01*
X26030887Y903792D01*
X26030889Y903797D01*
X26081988Y1040795D01*
X26081990Y1040803D01*
X26088499Y1101350D01*
X26088500Y1101367D01*
X26088500Y2898632D01*
X26088499Y2898649D01*
X26081990Y2959196D01*
X26081988Y2959204D01*
X26067068Y2999204D01*
X26030889Y3096204D01*
X25943261Y3213261D01*
X25826204Y3300889D01*
X25710684Y3343976D01*
X25653852Y3386521D01*
X25629041Y3453042D01*
X25644133Y3522416D01*
X25662018Y3547367D01*
X25805325Y3703041D01*
X25928419Y3891451D01*
X26018820Y4097543D01*
X26018823Y4097550D01*
X26066544Y4285999D01*
X26066544Y4286000D01*
X25160703Y4286000D01*
X25195925Y4347007D01*
X25230000Y4474174D01*
X25230000Y4605826D01*
X25195925Y4732993D01*
X25160703Y4794000D01*
X26066544Y4794000D01*
X26018823Y4982449D01*
X26018820Y4982456D01*
X25928419Y5188548D01*
X25805325Y5376958D01*
X25652902Y5542534D01*
X25475301Y5680767D01*
X25441793Y5698901D01*
X25391403Y5748914D01*
X25376050Y5818230D01*
X25400610Y5884844D01*
X25441792Y5920528D01*
X25475576Y5938811D01*
X25571382Y6013381D01*
X25653237Y6077091D01*
X25805720Y6242729D01*
X25805724Y6242734D01*
X25928858Y6431206D01*
X25928860Y6431209D01*
X26019296Y6637384D01*
X26021992Y6648028D01*
X26074562Y6855624D01*
X26074564Y6855632D01*
X26093156Y7080000D01*
X26074564Y7304368D01*
X26019296Y7522616D01*
X25928860Y7728791D01*
X25805722Y7917268D01*
X25653240Y8082906D01*
X25475576Y8221189D01*
X25442319Y8239186D01*
X25391929Y8289198D01*
X25376576Y8358515D01*
X25401136Y8425128D01*
X25442320Y8460814D01*
X25475569Y8478807D01*
X25475570Y8478808D01*
X25475576Y8478811D01*
X25607255Y8581302D01*
X25653237Y8617091D01*
X25805720Y8782729D01*
X25805724Y8782734D01*
X25928858Y8971206D01*
X25928860Y8971209D01*
X26019296Y9177384D01*
X26021563Y9186334D01*
X26074562Y9395624D01*
X26074564Y9395632D01*
X26093156Y9620000D01*
X26074564Y9844368D01*
X26019296Y10062616D01*
X25928860Y10268791D01*
X25805722Y10457268D01*
X25653240Y10622906D01*
X25475576Y10761189D01*
X25277574Y10868342D01*
X25064635Y10941444D01*
X24842569Y10978500D01*
X24617431Y10978500D01*
X24395365Y10941444D01*
X24294227Y10906723D01*
X24182428Y10868343D01*
X24182427Y10868342D01*
X24182426Y10868342D01*
X23984424Y10761189D01*
X23861331Y10665381D01*
X23806762Y10622908D01*
X23654279Y10457270D01*
X23654275Y10457265D01*
X23531141Y10268793D01*
X23440703Y10062613D01*
X23440702Y10062612D01*
X23385437Y9844375D01*
X23385436Y9844370D01*
X23385436Y9844368D01*
X23366844Y9620000D01*
X23377531Y9491025D01*
X23385437Y9395624D01*
X23440702Y9177387D01*
X23440703Y9177386D01*
X23531141Y8971206D01*
X23654275Y8782734D01*
X23654279Y8782729D01*
X23806762Y8617091D01*
X23984424Y8478811D01*
X23989969Y8475810D01*
X24017680Y8460814D01*
X24068071Y8410800D01*
X24083423Y8341484D01*
X24058862Y8274871D01*
X24017680Y8239186D01*
X23984424Y8221189D01*
X23861331Y8125381D01*
X23806762Y8082908D01*
X23654279Y7917270D01*
X23654275Y7917265D01*
X23531141Y7728793D01*
X23531140Y7728791D01*
X23450364Y7544637D01*
X23440703Y7522613D01*
X23440702Y7522612D01*
X23385437Y7304375D01*
X23385436Y7304370D01*
X23385436Y7304368D01*
X23366844Y7080000D01*
X23384410Y6868009D01*
X23385437Y6855624D01*
X23440702Y6637387D01*
X23440703Y6637386D01*
X23531141Y6431206D01*
X23654275Y6242734D01*
X23654279Y6242729D01*
X23806762Y6077091D01*
X23984424Y5938811D01*
X23984430Y5938807D01*
X24018207Y5920528D01*
X24068597Y5870515D01*
X24083949Y5801198D01*
X24059388Y5734585D01*
X24018207Y5698902D01*
X23984704Y5680771D01*
X23984698Y5680767D01*
X23807097Y5542534D01*
X23654674Y5376958D01*
X23531580Y5188548D01*
X23441179Y4982456D01*
X23441176Y4982449D01*
X23393455Y4794000D01*
X24299297Y4794000D01*
X24264075Y4732993D01*
X24230000Y4605826D01*
X24230000Y4474174D01*
X24264075Y4347007D01*
X24299297Y4286000D01*
X23393456Y4286000D01*
X23393455Y4285999D01*
X23441176Y4097550D01*
X23441179Y4097543D01*
X23531580Y3891451D01*
X23654674Y3703041D01*
X23797981Y3547367D01*
X23829401Y3483701D01*
X23821414Y3413156D01*
X23776554Y3358127D01*
X23749312Y3343975D01*
X23633796Y3300889D01*
X23633792Y3300887D01*
X23516738Y3213261D01*
X23429112Y3096207D01*
X23429110Y3096202D01*
X23378011Y2959204D01*
X23378009Y2959196D01*
X23371500Y2898649D01*
X23371500Y1101350D01*
X23378009Y1040803D01*
X23378011Y1040795D01*
X23429110Y903797D01*
X23429112Y903792D01*
X23505682Y801509D01*
X23530493Y734989D01*
X23515402Y665615D01*
X23465200Y615413D01*
X23404814Y600000D01*
X16298366Y600000D01*
X16230245Y620002D01*
X16183752Y673658D01*
X16173648Y743932D01*
X16203142Y808512D01*
X16246654Y840899D01*
X16261002Y847356D01*
X16541412Y1016871D01*
X16571959Y1040803D01*
X16799351Y1218953D01*
X16799352Y1218954D01*
X16799358Y1218959D01*
X17031040Y1450641D01*
X17031045Y1450647D01*
X17233128Y1708587D01*
X17402643Y1988996D01*
X17537119Y2287792D01*
X17610394Y2522938D01*
X17634603Y2600629D01*
X17693667Y2922930D01*
X17711708Y3221191D01*
X17713451Y3249998D01*
X17713451Y3250001D01*
X17706888Y3358500D01*
X17693667Y3577070D01*
X17634603Y3899371D01*
X17537121Y4212203D01*
X17419218Y4474174D01*
X17402643Y4511003D01*
X17320242Y4647308D01*
X17233126Y4791416D01*
X17031047Y5049351D01*
X16799351Y5281047D01*
X16541416Y5483126D01*
X16397308Y5570242D01*
X16261003Y5652643D01*
X15962207Y5787119D01*
X15962203Y5787121D01*
X15649371Y5884603D01*
X15327070Y5943667D01*
X15081767Y5958505D01*
X15000001Y5963451D01*
X14999999Y5963451D01*
X14890976Y5956856D01*
X14672930Y5943667D01*
X14350629Y5884603D01*
X14037797Y5787121D01*
X14037793Y5787119D01*
X14037792Y5787119D01*
X13738996Y5652643D01*
X13510110Y5514275D01*
X13458584Y5483126D01*
X13200649Y5281047D01*
X13200647Y5281045D01*
X13200641Y5281040D01*
X12968959Y5049358D01*
X12968954Y5049352D01*
X12968953Y5049351D01*
X12766874Y4791416D01*
X12766871Y4791412D01*
X12597356Y4511003D01*
X12462880Y4212207D01*
X12365396Y3899370D01*
X12306333Y3577070D01*
X12306332Y3577067D01*
X12286549Y3250001D01*
X12286549Y3249998D01*
X12306332Y2922932D01*
X12306333Y2922929D01*
X12365396Y2600629D01*
X12462880Y2287792D01*
X12597356Y1988996D01*
X12766871Y1708587D01*
X12968954Y1450647D01*
X12968959Y1450641D01*
X13200641Y1218959D01*
X13200647Y1218954D01*
X13458587Y1016871D01*
X13738997Y847356D01*
X13753346Y840899D01*
X13807256Y794702D01*
X13827632Y726692D01*
X13808005Y658463D01*
X13754605Y611676D01*
X13701634Y600000D01*
X4223224Y600000D01*
X4175008Y609590D01*
X4169972Y611676D01*
X4100579Y640419D01*
X4092456Y644129D01*
X3654301Y863454D01*
X3646439Y867746D01*
X3225044Y1117771D01*
X3217511Y1122613D01*
X2815020Y1402067D01*
X2807865Y1407423D01*
X2426341Y1714875D01*
X2419577Y1720735D01*
X2060953Y2054626D01*
X2054626Y2060953D01*
X1720735Y2419577D01*
X1714875Y2426341D01*
X1407423Y2807865D01*
X1402067Y2815020D01*
X1290018Y2976402D01*
X7192000Y2976402D01*
X7198505Y2915906D01*
X7249555Y2779035D01*
X7249555Y2779034D01*
X7337095Y2662095D01*
X7454034Y2574555D01*
X7590906Y2523505D01*
X7651402Y2517000D01*
X7946000Y2517000D01*
X7946000Y3521000D01*
X7192000Y3521000D01*
X7192000Y2976402D01*
X1290018Y2976402D01*
X1122613Y3217511D01*
X1117771Y3225044D01*
X867746Y3646439D01*
X863454Y3654301D01*
X644134Y4092445D01*
X640414Y4100591D01*
X609590Y4175006D01*
X600000Y4223223D01*
X600000Y4573597D01*
X7192000Y4573597D01*
X7192000Y4029000D01*
X7946000Y4029000D01*
X7946000Y5033000D01*
X7651415Y5033000D01*
X7651402Y5032999D01*
X7590906Y5026494D01*
X7454035Y4975444D01*
X7454034Y4975444D01*
X7337095Y4887904D01*
X7249555Y4770965D01*
X7249555Y4770964D01*
X7198505Y4634093D01*
X7192000Y4573597D01*
X600000Y4573597D01*
X600000Y16773601D01*
X3854500Y16773601D01*
X3854500Y16773597D01*
X3854500Y16526402D01*
X3893172Y16282234D01*
X3969559Y16047140D01*
X4081790Y15826875D01*
X4227092Y15626885D01*
X4227094Y15626882D01*
X4401882Y15452094D01*
X4401885Y15452092D01*
X4601875Y15306790D01*
X4822140Y15194559D01*
X5057234Y15118172D01*
X5057239Y15118171D01*
X5057240Y15118171D01*
X5301399Y15079500D01*
X5301402Y15079500D01*
X5548598Y15079500D01*
X5548601Y15079500D01*
X5792760Y15118171D01*
X5792761Y15118171D01*
X5792765Y15118172D01*
X6027859Y15194559D01*
X6162694Y15263261D01*
X6248121Y15306788D01*
X6448112Y15452090D01*
X6448114Y15452092D01*
X6448117Y15452094D01*
X6526405Y15530382D01*
X6588717Y15564408D01*
X6659532Y15559343D01*
X6716368Y15516796D01*
X6741179Y15450276D01*
X6741500Y15441287D01*
X6741500Y11650668D01*
X6780256Y11455829D01*
X6780257Y11455828D01*
X6849534Y11288581D01*
X6849534Y11288580D01*
X6856279Y11272294D01*
X6856281Y11272291D01*
X6966643Y11107123D01*
X6966649Y11107116D01*
X8194595Y9879171D01*
X8228621Y9816859D01*
X8231500Y9790076D01*
X8231500Y9686514D01*
X8211498Y9618393D01*
X8157842Y9571900D01*
X8087568Y9561796D01*
X8061466Y9568459D01*
X8054956Y9570886D01*
X8054954Y9570889D01*
X7917951Y9621989D01*
X7917946Y9621990D01*
X7857399Y9628499D01*
X7857395Y9628499D01*
X7857388Y9628500D01*
X6042612Y9628500D01*
X6042605Y9628499D01*
X6042600Y9628499D01*
X5982053Y9621990D01*
X5982045Y9621988D01*
X5904125Y9592924D01*
X5845046Y9570889D01*
X5845044Y9570888D01*
X5845042Y9570887D01*
X5727988Y9483261D01*
X5640362Y9366207D01*
X5640360Y9366202D01*
X5589261Y9229204D01*
X5589259Y9229196D01*
X5582750Y9168649D01*
X5582750Y7271350D01*
X5589259Y7210803D01*
X5589261Y7210795D01*
X5640360Y7073797D01*
X5640362Y7073792D01*
X5727988Y6956738D01*
X5845042Y6869112D01*
X5845047Y6869110D01*
X5982045Y6818011D01*
X5982053Y6818009D01*
X6042600Y6811500D01*
X6042612Y6811500D01*
X7857399Y6811500D01*
X7917946Y6818009D01*
X7917954Y6818011D01*
X8054951Y6869109D01*
X8055120Y6869202D01*
X8055307Y6869242D01*
X8063397Y6872260D01*
X8063831Y6871096D01*
X8124495Y6884289D01*
X8191014Y6859475D01*
X8233558Y6802637D01*
X8241500Y6758611D01*
X8241500Y6150668D01*
X8280256Y5955831D01*
X8280257Y5955827D01*
X8303104Y5900671D01*
X8356279Y5772296D01*
X8470086Y5601972D01*
X8467740Y5600404D01*
X8490682Y5546088D01*
X8491500Y5531751D01*
X8491500Y5122691D01*
X8471498Y5054570D01*
X8454595Y5033596D01*
X8454000Y5033001D01*
X8454000Y2517000D01*
X8748597Y2517000D01*
X8809096Y2523505D01*
X8816766Y2525318D01*
X8817328Y2522938D01*
X8876082Y2527133D01*
X8887319Y2523833D01*
X8890804Y2523009D01*
X8951350Y2516500D01*
X8951362Y2516500D01*
X10048649Y2516500D01*
X10109196Y2523009D01*
X10109204Y2523011D01*
X10246202Y2574110D01*
X10246207Y2574112D01*
X10363261Y2661738D01*
X10450887Y2778792D01*
X10450889Y2778797D01*
X10450978Y2779034D01*
X10494467Y2895632D01*
X10501988Y2915795D01*
X10501990Y2915803D01*
X10508499Y2976350D01*
X10508500Y2976367D01*
X10508500Y6099327D01*
X10508500Y6099329D01*
X10469744Y6294169D01*
X10393721Y6477704D01*
X10283353Y6642881D01*
X10279914Y6648028D01*
X10282303Y6649624D01*
X10259351Y6703630D01*
X10258500Y6718248D01*
X10258500Y7213550D01*
X10278502Y7281671D01*
X10282548Y7287589D01*
X10283112Y7288366D01*
X10283357Y7288703D01*
X10339570Y7332069D01*
X10410305Y7338160D01*
X10473104Y7305042D01*
X10487237Y7288736D01*
X10487499Y7288374D01*
X10487506Y7288366D01*
X10639616Y7136256D01*
X10639619Y7136254D01*
X10813663Y7009803D01*
X11005348Y6912134D01*
X11005354Y6912131D01*
X11209945Y6845655D01*
X11209962Y6845651D01*
X11275998Y6835191D01*
X11276000Y6835192D01*
X11276000Y7731561D01*
X11317708Y7707482D01*
X11457591Y7670000D01*
X11602409Y7670000D01*
X11742292Y7707482D01*
X11784000Y7731561D01*
X11784000Y6835192D01*
X11784001Y6835191D01*
X11850037Y6845651D01*
X11850054Y6845655D01*
X12054645Y6912131D01*
X12054651Y6912134D01*
X12246336Y7009803D01*
X12420380Y7136254D01*
X12420383Y7136256D01*
X12572493Y7288366D01*
X12572495Y7288369D01*
X12698946Y7462413D01*
X12796615Y7654098D01*
X12796618Y7654104D01*
X12863094Y7858697D01*
X12880089Y7966000D01*
X12018438Y7966000D01*
X12042518Y8007708D01*
X12080000Y8147591D01*
X12080000Y8292409D01*
X12042518Y8432292D01*
X12018438Y8474000D01*
X12880089Y8474000D01*
X12863094Y8581302D01*
X12796618Y8785895D01*
X12796615Y8785901D01*
X12698946Y8977586D01*
X12645290Y9051439D01*
X12621431Y9118307D01*
X12637512Y9187459D01*
X12688426Y9236939D01*
X12747226Y9251500D01*
X18106331Y9251500D01*
X18301169Y9290256D01*
X18301174Y9290258D01*
X18400011Y9331198D01*
X18484704Y9366279D01*
X18649881Y9476647D01*
X18790353Y9617119D01*
X21077819Y11904585D01*
X21140131Y11938611D01*
X21166914Y11941490D01*
X56245786Y11941490D01*
X56313907Y11921488D01*
X56334881Y11904585D01*
X57974595Y10264871D01*
X58008621Y10202559D01*
X58011500Y10175776D01*
X58011500Y9386713D01*
X57991498Y9318592D01*
X57937842Y9272099D01*
X57867568Y9261995D01*
X57802988Y9291489D01*
X57784632Y9311204D01*
X57693261Y9433261D01*
X57576207Y9520887D01*
X57576206Y9520887D01*
X57576204Y9520889D01*
X57439201Y9571989D01*
X57439199Y9571989D01*
X57439196Y9571990D01*
X57378649Y9578499D01*
X57378645Y9578499D01*
X57378638Y9578500D01*
X55581362Y9578500D01*
X55581355Y9578499D01*
X55581350Y9578499D01*
X55520803Y9571990D01*
X55520795Y9571988D01*
X55468263Y9552394D01*
X55383796Y9520889D01*
X55383794Y9520888D01*
X55383792Y9520887D01*
X55266738Y9433261D01*
X55179112Y9316207D01*
X55179110Y9316202D01*
X55128011Y9179204D01*
X55128009Y9179196D01*
X55121500Y9118649D01*
X55121500Y7321350D01*
X55128009Y7260803D01*
X55128011Y7260795D01*
X55179110Y7123797D01*
X55179112Y7123792D01*
X55266738Y7006738D01*
X55383792Y6919112D01*
X55383797Y6919110D01*
X55520795Y6868011D01*
X55520803Y6868009D01*
X55581350Y6861500D01*
X55581362Y6861500D01*
X57378649Y6861500D01*
X57439196Y6868009D01*
X57439204Y6868011D01*
X57576202Y6919110D01*
X57576207Y6919112D01*
X57693261Y7006738D01*
X57780887Y7123792D01*
X57780889Y7123797D01*
X57785536Y7136254D01*
X57800265Y7175744D01*
X57824999Y7242057D01*
X57867546Y7298893D01*
X57934066Y7323703D01*
X58003440Y7308611D01*
X58035754Y7283363D01*
X58096762Y7217091D01*
X58272896Y7080000D01*
X58274424Y7078811D01*
X58407602Y7006739D01*
X58472426Y6971658D01*
X58472428Y6971656D01*
X58685360Y6898557D01*
X58685369Y6898555D01*
X58759211Y6886233D01*
X58907431Y6861500D01*
X58907435Y6861500D01*
X59132565Y6861500D01*
X59132569Y6861500D01*
X59310476Y6891187D01*
X59354630Y6898555D01*
X59354632Y6898555D01*
X59354635Y6898556D01*
X59354639Y6898557D01*
X59567571Y6971656D01*
X59567572Y6971657D01*
X59567574Y6971658D01*
X59765576Y7078811D01*
X59861382Y7153381D01*
X59943237Y7217091D01*
X60095720Y7382729D01*
X60184517Y7518643D01*
X60238521Y7564731D01*
X60308869Y7574306D01*
X60373226Y7544329D01*
X60395483Y7518643D01*
X60484279Y7382729D01*
X60636762Y7217091D01*
X60812896Y7080000D01*
X60814424Y7078811D01*
X60947602Y7006739D01*
X61012426Y6971658D01*
X61012428Y6971656D01*
X61225360Y6898557D01*
X61225369Y6898555D01*
X61299211Y6886233D01*
X61447431Y6861500D01*
X61447435Y6861500D01*
X61672565Y6861500D01*
X61672569Y6861500D01*
X61850476Y6891187D01*
X61894630Y6898555D01*
X61894632Y6898555D01*
X61894635Y6898556D01*
X61894639Y6898557D01*
X62107571Y6971656D01*
X62107572Y6971657D01*
X62107574Y6971658D01*
X62305576Y7078811D01*
X62401382Y7153381D01*
X62483237Y7217091D01*
X62635720Y7382729D01*
X62724517Y7518643D01*
X62778521Y7564731D01*
X62848869Y7574306D01*
X62913226Y7544329D01*
X62935483Y7518643D01*
X63024279Y7382729D01*
X63176762Y7217091D01*
X63352896Y7080000D01*
X63354424Y7078811D01*
X63487602Y7006739D01*
X63552426Y6971658D01*
X63552428Y6971656D01*
X63765360Y6898557D01*
X63765369Y6898555D01*
X63839211Y6886233D01*
X63987431Y6861500D01*
X63987435Y6861500D01*
X64212565Y6861500D01*
X64212569Y6861500D01*
X64390476Y6891187D01*
X64434630Y6898555D01*
X64434632Y6898555D01*
X64434635Y6898556D01*
X64434639Y6898557D01*
X64647571Y6971656D01*
X64647572Y6971657D01*
X64647574Y6971658D01*
X64845576Y7078811D01*
X64941382Y7153381D01*
X65023237Y7217091D01*
X65175720Y7382729D01*
X65264517Y7518643D01*
X65318521Y7564731D01*
X65388869Y7574306D01*
X65453226Y7544329D01*
X65475483Y7518643D01*
X65564279Y7382729D01*
X65716762Y7217091D01*
X65892896Y7080000D01*
X65894424Y7078811D01*
X66027602Y7006739D01*
X66092426Y6971658D01*
X66092428Y6971656D01*
X66305360Y6898557D01*
X66305369Y6898555D01*
X66379211Y6886233D01*
X66527431Y6861500D01*
X66527435Y6861500D01*
X66752565Y6861500D01*
X66752569Y6861500D01*
X66930476Y6891187D01*
X66974630Y6898555D01*
X66974632Y6898555D01*
X66974635Y6898556D01*
X66974639Y6898557D01*
X67187571Y6971656D01*
X67187572Y6971657D01*
X67187574Y6971658D01*
X67385576Y7078811D01*
X67481382Y7153381D01*
X67563237Y7217091D01*
X67715720Y7382729D01*
X67804517Y7518643D01*
X67858521Y7564731D01*
X67928869Y7574306D01*
X67993226Y7544329D01*
X68015483Y7518643D01*
X68104279Y7382729D01*
X68256762Y7217091D01*
X68432896Y7080000D01*
X68434424Y7078811D01*
X68567602Y7006739D01*
X68632426Y6971658D01*
X68632428Y6971656D01*
X68845360Y6898557D01*
X68845369Y6898555D01*
X68919211Y6886233D01*
X69067431Y6861500D01*
X69067435Y6861500D01*
X69292565Y6861500D01*
X69292569Y6861500D01*
X69470476Y6891187D01*
X69514630Y6898555D01*
X69514632Y6898555D01*
X69514635Y6898556D01*
X69514639Y6898557D01*
X69727571Y6971656D01*
X69727572Y6971657D01*
X69727574Y6971658D01*
X69925576Y7078811D01*
X70021382Y7153381D01*
X70103237Y7217091D01*
X70255720Y7382729D01*
X70255724Y7382734D01*
X70378858Y7571206D01*
X70378860Y7571209D01*
X70469296Y7777384D01*
X70524564Y7995632D01*
X70543156Y8220000D01*
X70524564Y8444368D01*
X70469296Y8662616D01*
X70378860Y8868791D01*
X70255722Y9057268D01*
X70103240Y9222906D01*
X69925576Y9361189D01*
X69727574Y9468342D01*
X69514635Y9541444D01*
X69292569Y9578500D01*
X69067431Y9578500D01*
X68845365Y9541444D01*
X68777690Y9518211D01*
X68632428Y9468343D01*
X68632427Y9468342D01*
X68632426Y9468342D01*
X68434424Y9361189D01*
X68311331Y9265381D01*
X68256762Y9222908D01*
X68104279Y9057270D01*
X68104275Y9057265D01*
X68052388Y8977845D01*
X68015481Y8921354D01*
X67961480Y8875268D01*
X67891132Y8865692D01*
X67826775Y8895669D01*
X67804519Y8921353D01*
X67715722Y9057268D01*
X67563240Y9222906D01*
X67555159Y9229196D01*
X67424109Y9331198D01*
X67382638Y9388823D01*
X67375500Y9430629D01*
X67375500Y15158109D01*
X67375500Y15158111D01*
X67334032Y15312872D01*
X67334032Y15312873D01*
X67253921Y15451628D01*
X55583627Y27121922D01*
X55444873Y27202032D01*
X55314384Y27236996D01*
X55314379Y27236997D01*
X55314378Y27236998D01*
X55298202Y27241332D01*
X55290111Y27243500D01*
X55290109Y27243500D01*
X44839500Y27243500D01*
X44771379Y27263502D01*
X44724886Y27317158D01*
X44713500Y27369500D01*
X44713500Y33852392D01*
X44713500Y33852394D01*
X44689155Y33974785D01*
X44641400Y34090075D01*
X44572071Y34193833D01*
X44483833Y34282071D01*
X44103833Y34662071D01*
X44000075Y34731400D01*
X43884785Y34779155D01*
X43762394Y34803500D01*
X43762393Y34803500D01*
X40284219Y34803500D01*
X40216098Y34823502D01*
X40169605Y34877158D01*
X40159501Y34947432D01*
X40173097Y34988896D01*
X40196240Y35032195D01*
X40196241Y35032196D01*
X40253908Y35222299D01*
X40273380Y35420000D01*
X40270662Y35447595D01*
X40253909Y35617694D01*
X40253908Y35617695D01*
X40253908Y35617701D01*
X40196241Y35807804D01*
X40102595Y35983004D01*
X40102585Y35983014D01*
X40100964Y35985443D01*
X40100500Y35986921D01*
X40099677Y35988463D01*
X40099969Y35988619D01*
X40079744Y36053194D01*
X40098522Y36121663D01*
X40100960Y36125456D01*
X40102175Y36127274D01*
X40195774Y36302385D01*
X40195780Y36302400D01*
X40253414Y36492393D01*
X40253416Y36492404D01*
X40272877Y36689996D01*
X40272877Y36690003D01*
X40253416Y36887595D01*
X40253414Y36887606D01*
X40195776Y37077608D01*
X40195775Y37077612D01*
X40129957Y37200746D01*
X39585000Y36655789D01*
X39585000Y36732787D01*
X39562851Y36815445D01*
X39520064Y36889554D01*
X39459554Y36950064D01*
X39385445Y36992851D01*
X39302787Y37015000D01*
X39217213Y37015000D01*
X39134555Y36992851D01*
X39060446Y36950064D01*
X38999936Y36889554D01*
X38957149Y36815445D01*
X38935000Y36732787D01*
X38935000Y36655787D01*
X38390042Y37200746D01*
X38324223Y37077608D01*
X38266585Y36887606D01*
X38266583Y36887595D01*
X38247123Y36690003D01*
X38247123Y36689996D01*
X38266583Y36492404D01*
X38266585Y36492393D01*
X38324219Y36302400D01*
X38324225Y36302385D01*
X38417826Y36127271D01*
X38419046Y36125446D01*
X38419390Y36124345D01*
X38420742Y36121817D01*
X38420262Y36121560D01*
X38440255Y36057691D01*
X38421466Y35989226D01*
X38419041Y35985453D01*
X38417406Y35983007D01*
X38323759Y35807804D01*
X38272134Y35637617D01*
X38266090Y35617694D01*
X38246620Y35420003D01*
X38246620Y35419996D01*
X38266090Y35222305D01*
X38323759Y35032195D01*
X38417407Y34856991D01*
X38418740Y34854997D01*
X38419116Y34853793D01*
X38420323Y34851537D01*
X38419894Y34851308D01*
X38439952Y34787243D01*
X38421166Y34718777D01*
X38418740Y34715003D01*
X38417407Y34713008D01*
X38323759Y34537804D01*
X38266090Y34347694D01*
X38246620Y34150003D01*
X38246620Y34149996D01*
X38266090Y33952305D01*
X38323759Y33762195D01*
X38417407Y33586991D01*
X38418740Y33584997D01*
X38419116Y33583793D01*
X38420323Y33581537D01*
X38419894Y33581308D01*
X38439952Y33517243D01*
X38421166Y33448777D01*
X38418740Y33445003D01*
X38417407Y33443008D01*
X38323759Y33267804D01*
X38266090Y33077694D01*
X38246620Y32880003D01*
X38246620Y32879996D01*
X38266090Y32682305D01*
X38323759Y32492195D01*
X38417407Y32316991D01*
X38418740Y32314997D01*
X38419116Y32313793D01*
X38420323Y32311537D01*
X38419894Y32311308D01*
X38439952Y32247243D01*
X38421166Y32178777D01*
X38418740Y32175003D01*
X38417407Y32173008D01*
X38323759Y31997804D01*
X38266090Y31807694D01*
X38246620Y31610003D01*
X38246620Y31609996D01*
X38266090Y31412305D01*
X38323759Y31222195D01*
X38417407Y31046991D01*
X38418740Y31044997D01*
X38419116Y31043793D01*
X38420323Y31041537D01*
X38419894Y31041308D01*
X38439952Y30977243D01*
X38421166Y30908777D01*
X38418740Y30905003D01*
X38417407Y30903008D01*
X38323759Y30727804D01*
X38266090Y30537694D01*
X38246620Y30340003D01*
X38246620Y30339996D01*
X38266090Y30142305D01*
X38323759Y29952195D01*
X38417407Y29776991D01*
X38418740Y29774997D01*
X38419116Y29773793D01*
X38420323Y29771537D01*
X38419894Y29771308D01*
X38439952Y29707243D01*
X38421166Y29638777D01*
X38418740Y29635003D01*
X38417407Y29633008D01*
X38323759Y29457804D01*
X38266090Y29267694D01*
X38246620Y29070003D01*
X38246620Y29069996D01*
X38266090Y28872305D01*
X38323759Y28682195D01*
X38417407Y28506991D01*
X38418740Y28504997D01*
X38419116Y28503793D01*
X38420323Y28501537D01*
X38419894Y28501308D01*
X38439952Y28437243D01*
X38421166Y28368777D01*
X38418740Y28365003D01*
X38417407Y28363008D01*
X38323759Y28187804D01*
X38266090Y27997694D01*
X38246620Y27800003D01*
X38246620Y27799996D01*
X38266090Y27602305D01*
X38323759Y27412195D01*
X38417405Y27236996D01*
X38543432Y27083432D01*
X38696995Y26957405D01*
X38872195Y26863759D01*
X39062305Y26806090D01*
X39259997Y26786620D01*
X39260000Y26786620D01*
X39260003Y26786620D01*
X39457694Y26806090D01*
X39647804Y26863759D01*
X39823004Y26957405D01*
X39976568Y27083432D01*
X40102595Y27236996D01*
X40196241Y27412196D01*
X40253908Y27602299D01*
X40273380Y27800000D01*
X40253908Y27997701D01*
X40196241Y28187804D01*
X40102595Y28363004D01*
X40102584Y28363017D01*
X40101265Y28364993D01*
X40100887Y28366198D01*
X40099677Y28368463D01*
X40100106Y28368692D01*
X40080047Y28432744D01*
X40098827Y28501212D01*
X40101265Y28505007D01*
X40102587Y28506987D01*
X40102595Y28506996D01*
X40196241Y28682196D01*
X40253908Y28872299D01*
X40273380Y29070000D01*
X40253908Y29267701D01*
X40196241Y29457804D01*
X40102595Y29633004D01*
X40102584Y29633017D01*
X40101265Y29634993D01*
X40100887Y29636198D01*
X40099677Y29638463D01*
X40100106Y29638692D01*
X40080047Y29702744D01*
X40098827Y29771212D01*
X40101265Y29775007D01*
X40102587Y29776987D01*
X40102595Y29776996D01*
X40196241Y29952196D01*
X40253908Y30142299D01*
X40273380Y30340000D01*
X40253908Y30537701D01*
X40196241Y30727804D01*
X40102595Y30903004D01*
X40102584Y30903017D01*
X40101265Y30904993D01*
X40100887Y30906198D01*
X40099677Y30908463D01*
X40100106Y30908692D01*
X40080047Y30972744D01*
X40098827Y31041212D01*
X40101265Y31045007D01*
X40102587Y31046987D01*
X40102595Y31046996D01*
X40196241Y31222196D01*
X40253908Y31412299D01*
X40273380Y31610000D01*
X40253908Y31807701D01*
X40196241Y31997804D01*
X40157060Y32071105D01*
X40142589Y32140610D01*
X40167992Y32206906D01*
X40225205Y32248944D01*
X40268183Y32256500D01*
X41580500Y32256500D01*
X41648621Y32236498D01*
X41695114Y32182842D01*
X41706500Y32130500D01*
X41706500Y25917737D01*
X41687187Y25850701D01*
X41606958Y25723017D01*
X41606957Y25723015D01*
X41546783Y25551047D01*
X41526384Y25370000D01*
X41546783Y25188953D01*
X41546783Y25188950D01*
X41546784Y25188949D01*
X41606957Y25016984D01*
X41606958Y25016981D01*
X41703887Y24862720D01*
X41703888Y24862718D01*
X41832718Y24733888D01*
X41832720Y24733887D01*
X41986981Y24636958D01*
X41986984Y24636957D01*
X42158949Y24576784D01*
X42158950Y24576783D01*
X42158953Y24576783D01*
X42340000Y24556384D01*
X42521047Y24576783D01*
X42693015Y24636957D01*
X42693018Y24636958D01*
X42847274Y24733883D01*
X42847430Y24734008D01*
X42847549Y24734056D01*
X42853273Y24737653D01*
X42853902Y24736650D01*
X42913159Y24760845D01*
X42925994Y24761500D01*
X43368112Y24761500D01*
X43368113Y24761500D01*
X43504214Y24797968D01*
X43504214Y24797967D01*
X43504215Y24797968D01*
X43522872Y24802966D01*
X43522878Y24802969D01*
X43646980Y24874620D01*
X43709980Y24891501D01*
X52559165Y24891501D01*
X52622165Y24874620D01*
X52754924Y24797970D01*
X52754929Y24797968D01*
X52812161Y24782633D01*
X52812161Y24782632D01*
X52889081Y24762022D01*
X52909691Y24756500D01*
X52909692Y24756500D01*
X53069912Y24756500D01*
X54236815Y24756500D01*
X54304936Y24736498D01*
X54325910Y24719595D01*
X63213287Y15832216D01*
X63247313Y15769904D01*
X63242248Y15699089D01*
X63199701Y15642253D01*
X63153609Y15620604D01*
X63022406Y15589105D01*
X62803037Y15498240D01*
X62600584Y15374176D01*
X62600582Y15374174D01*
X62600580Y15374173D01*
X62420030Y15219969D01*
X62265826Y15039419D01*
X62265818Y15039408D01*
X62253107Y15018665D01*
X62200460Y14971034D01*
X62145675Y14958500D01*
X57856238Y14958500D01*
X57788117Y14978502D01*
X57786236Y14979735D01*
X57774060Y14987869D01*
X57690474Y15043721D01*
X57604096Y15079500D01*
X57561626Y15097091D01*
X57506347Y15141640D01*
X57483926Y15209003D01*
X57501484Y15277794D01*
X57553447Y15326173D01*
X57609846Y15339500D01*
X57618598Y15339500D01*
X57618601Y15339500D01*
X57862760Y15378171D01*
X57862761Y15378171D01*
X57862765Y15378172D01*
X58097859Y15454559D01*
X58246670Y15530382D01*
X58318121Y15566788D01*
X58518112Y15712090D01*
X58518114Y15712092D01*
X58518117Y15712094D01*
X58692905Y15886882D01*
X58692907Y15886885D01*
X58692910Y15886888D01*
X58838212Y16086879D01*
X58950439Y16307137D01*
X59026829Y16542240D01*
X59065500Y16786399D01*
X59065500Y17033601D01*
X59026829Y17277760D01*
X58950439Y17512863D01*
X58838212Y17733121D01*
X58692910Y17933112D01*
X58518112Y18107910D01*
X58318121Y18253212D01*
X58097863Y18365439D01*
X57862760Y18441829D01*
X57618601Y18480500D01*
X57371399Y18480500D01*
X57127240Y18441829D01*
X56892137Y18365439D01*
X56671879Y18253212D01*
X56471888Y18107910D01*
X56471885Y18107907D01*
X56471882Y18107905D01*
X56297094Y17933117D01*
X56297092Y17933114D01*
X56297090Y17933112D01*
X56151788Y17733121D01*
X56121213Y17673114D01*
X56039559Y17512859D01*
X55963172Y17277765D01*
X55963171Y17277761D01*
X55963171Y17277760D01*
X55924500Y17033601D01*
X55924500Y17033597D01*
X55924500Y16786402D01*
X55963172Y16542234D01*
X56039559Y16307140D01*
X56151790Y16086875D01*
X56297092Y15886885D01*
X56297094Y15886882D01*
X56471882Y15712094D01*
X56471885Y15712092D01*
X56671875Y15566790D01*
X56892138Y15454560D01*
X57046722Y15404333D01*
X57105327Y15364259D01*
X57132964Y15298863D01*
X57120857Y15228906D01*
X57072851Y15176600D01*
X57007785Y15158500D01*
X12924755Y15158500D01*
X12856634Y15178502D01*
X12823887Y15208991D01*
X12783261Y15263261D01*
X12666207Y15350887D01*
X12666206Y15350887D01*
X12666204Y15350889D01*
X12529201Y15401989D01*
X12529199Y15401989D01*
X12529196Y15401990D01*
X12468649Y15408499D01*
X12468645Y15408499D01*
X12468638Y15408500D01*
X10371362Y15408500D01*
X10371355Y15408499D01*
X10371350Y15408499D01*
X10310803Y15401990D01*
X10310795Y15401988D01*
X10246944Y15378172D01*
X10173796Y15350889D01*
X10173794Y15350888D01*
X10173792Y15350887D01*
X10056738Y15263261D01*
X9969112Y15146207D01*
X9969110Y15146202D01*
X9918011Y15009204D01*
X9918009Y15009196D01*
X9911500Y14948649D01*
X9911500Y12851350D01*
X9918009Y12790803D01*
X9918011Y12790795D01*
X9969110Y12653797D01*
X9969112Y12653792D01*
X10056738Y12536738D01*
X10173792Y12449112D01*
X10173797Y12449110D01*
X10310795Y12398011D01*
X10310803Y12398009D01*
X10371350Y12391500D01*
X10371362Y12391500D01*
X12468649Y12391500D01*
X12529196Y12398009D01*
X12529204Y12398011D01*
X12666202Y12449110D01*
X12666207Y12449112D01*
X12783261Y12536738D01*
X12870887Y12653792D01*
X12870889Y12653797D01*
X12871512Y12655465D01*
X12899863Y12731477D01*
X12921988Y12790795D01*
X12921990Y12790803D01*
X12928499Y12851350D01*
X12928500Y12851367D01*
X12928500Y13015500D01*
X12948502Y13083621D01*
X13002158Y13130114D01*
X13054500Y13141500D01*
X19158076Y13141500D01*
X19226197Y13121498D01*
X19272690Y13067842D01*
X19282794Y12997568D01*
X19253300Y12932988D01*
X19247171Y12926405D01*
X17626171Y11305405D01*
X17563859Y11271379D01*
X17537076Y11268500D01*
X9709924Y11268500D01*
X9641803Y11288502D01*
X9620829Y11305405D01*
X8795405Y12130829D01*
X8761379Y12193141D01*
X8758500Y12219924D01*
X8758500Y19800000D01*
X20497201Y19800000D01*
X20517577Y19450153D01*
X20517577Y19450147D01*
X20578433Y19105015D01*
X20678944Y18769286D01*
X20678946Y18769280D01*
X20817744Y18447511D01*
X20817753Y18447493D01*
X20992968Y18144011D01*
X20992978Y18143995D01*
X21202250Y17862894D01*
X21442748Y17607983D01*
X21442754Y17607977D01*
X21711196Y17382726D01*
X22003998Y17190148D01*
X22317178Y17032863D01*
X22317183Y17032861D01*
X22646481Y16913006D01*
X22646486Y16913005D01*
X22987492Y16832184D01*
X22987498Y16832183D01*
X23335572Y16791500D01*
X23335575Y16791500D01*
X23686028Y16791500D01*
X24034101Y16832183D01*
X24034107Y16832184D01*
X24187761Y16868601D01*
X24375110Y16913004D01*
X24375113Y16913005D01*
X24375118Y16913006D01*
X24704416Y17032861D01*
X24704421Y17032863D01*
X24704422Y17032863D01*
X24704426Y17032865D01*
X25017600Y17190147D01*
X25310397Y17382722D01*
X25310403Y17382726D01*
X25578845Y17607977D01*
X25578851Y17607983D01*
X25578857Y17607988D01*
X25819351Y17862896D01*
X26028625Y18144000D01*
X26203850Y18447499D01*
X26342657Y18769288D01*
X26443167Y19105016D01*
X26504022Y19450143D01*
X26524399Y19800000D01*
X48497201Y19800000D01*
X48517577Y19450153D01*
X48517577Y19450147D01*
X48578433Y19105015D01*
X48678944Y18769286D01*
X48678946Y18769280D01*
X48817744Y18447511D01*
X48817753Y18447493D01*
X48992968Y18144011D01*
X48992978Y18143995D01*
X49202250Y17862894D01*
X49442748Y17607983D01*
X49442754Y17607977D01*
X49711196Y17382726D01*
X50003998Y17190148D01*
X50317178Y17032863D01*
X50317183Y17032861D01*
X50646481Y16913006D01*
X50646486Y16913005D01*
X50987492Y16832184D01*
X50987498Y16832183D01*
X51335572Y16791500D01*
X51335575Y16791500D01*
X51686028Y16791500D01*
X52034101Y16832183D01*
X52034107Y16832184D01*
X52187761Y16868601D01*
X52375110Y16913004D01*
X52375113Y16913005D01*
X52375118Y16913006D01*
X52704416Y17032861D01*
X52704421Y17032863D01*
X52704422Y17032863D01*
X52704426Y17032865D01*
X53017600Y17190147D01*
X53310397Y17382722D01*
X53310403Y17382726D01*
X53578845Y17607977D01*
X53578851Y17607983D01*
X53578857Y17607988D01*
X53819351Y17862896D01*
X54028625Y18144000D01*
X54203850Y18447499D01*
X54342657Y18769288D01*
X54443167Y19105016D01*
X54504022Y19450143D01*
X54524399Y19800000D01*
X54504022Y20149857D01*
X54443167Y20494984D01*
X54342657Y20830712D01*
X54203850Y21152501D01*
X54028625Y21456000D01*
X53819351Y21737104D01*
X53578857Y21992012D01*
X53365302Y22171207D01*
X53310403Y22217273D01*
X53310402Y22217273D01*
X53310397Y22217278D01*
X53017600Y22409853D01*
X52704426Y22567135D01*
X52375110Y22686996D01*
X52034106Y22767816D01*
X51816555Y22793243D01*
X51686028Y22808500D01*
X51686025Y22808500D01*
X51335575Y22808500D01*
X51335572Y22808500D01*
X51186397Y22791064D01*
X50987494Y22767816D01*
X50646490Y22686996D01*
X50646482Y22686993D01*
X50646481Y22686993D01*
X50481832Y22627065D01*
X50317174Y22567135D01*
X50004000Y22409853D01*
X49711203Y22217278D01*
X49711200Y22217276D01*
X49711196Y22217273D01*
X49442754Y21992022D01*
X49442749Y21992017D01*
X49442743Y21992012D01*
X49202249Y21737104D01*
X48992975Y21456000D01*
X48992968Y21455989D01*
X48992968Y21455988D01*
X48817753Y21152506D01*
X48817744Y21152488D01*
X48687263Y20850000D01*
X48678943Y20830712D01*
X48587199Y20524263D01*
X48578433Y20494984D01*
X48517577Y20149852D01*
X48517577Y20149846D01*
X48497201Y19800000D01*
X26524399Y19800000D01*
X26504022Y20149857D01*
X26443167Y20494984D01*
X26342657Y20830712D01*
X26203850Y21152501D01*
X26028625Y21456000D01*
X25819351Y21737104D01*
X25596182Y21973649D01*
X27483500Y21973649D01*
X27483500Y20526350D01*
X27490009Y20465803D01*
X27490011Y20465795D01*
X27541110Y20328797D01*
X27541112Y20328792D01*
X27628738Y20211738D01*
X27745792Y20124112D01*
X27745797Y20124110D01*
X27882795Y20073011D01*
X27882803Y20073009D01*
X27943350Y20066500D01*
X27943362Y20066500D01*
X29390649Y20066500D01*
X29451196Y20073009D01*
X29451204Y20073011D01*
X29588202Y20124110D01*
X29588207Y20124112D01*
X29705261Y20211738D01*
X29761587Y20286981D01*
X29818423Y20329528D01*
X29889238Y20334592D01*
X29947333Y20304594D01*
X29950721Y20301505D01*
X29950731Y20301498D01*
X30137205Y20186038D01*
X30137214Y20186033D01*
X30341725Y20106804D01*
X30418247Y20092499D01*
X30557333Y20066500D01*
X30557336Y20066500D01*
X30776664Y20066500D01*
X30776667Y20066500D01*
X30953853Y20099622D01*
X30992274Y20106804D01*
X31196785Y20186033D01*
X31196789Y20186035D01*
X31196791Y20186036D01*
X31238303Y20211739D01*
X31383274Y20301501D01*
X31545365Y20449267D01*
X31566451Y20477189D01*
X31623465Y20519496D01*
X31694301Y20524263D01*
X31756470Y20489976D01*
X31767549Y20477189D01*
X31788634Y20449267D01*
X31950725Y20301501D01*
X32137205Y20186038D01*
X32137214Y20186033D01*
X32341725Y20106804D01*
X32418247Y20092499D01*
X32557333Y20066500D01*
X32557336Y20066500D01*
X32776664Y20066500D01*
X32776667Y20066500D01*
X32953853Y20099622D01*
X32992274Y20106804D01*
X33196785Y20186033D01*
X33196789Y20186035D01*
X33196791Y20186036D01*
X33238303Y20211739D01*
X33383274Y20301501D01*
X33545365Y20449267D01*
X33566451Y20477189D01*
X33623465Y20519496D01*
X33694301Y20524263D01*
X33756470Y20489976D01*
X33767549Y20477189D01*
X33788634Y20449267D01*
X33950725Y20301501D01*
X34137205Y20186038D01*
X34137214Y20186033D01*
X34341725Y20106804D01*
X34418247Y20092499D01*
X34557333Y20066500D01*
X34557336Y20066500D01*
X34776664Y20066500D01*
X34776667Y20066500D01*
X34953853Y20099622D01*
X34992274Y20106804D01*
X35196785Y20186033D01*
X35196789Y20186035D01*
X35196791Y20186036D01*
X35238303Y20211739D01*
X35383274Y20301501D01*
X35545365Y20449267D01*
X35566451Y20477189D01*
X35623465Y20519496D01*
X35694301Y20524263D01*
X35756470Y20489976D01*
X35767549Y20477189D01*
X35788634Y20449267D01*
X35950725Y20301501D01*
X36137205Y20186038D01*
X36137214Y20186033D01*
X36341725Y20106804D01*
X36418247Y20092499D01*
X36557333Y20066500D01*
X36557336Y20066500D01*
X36776664Y20066500D01*
X36776667Y20066500D01*
X36953853Y20099622D01*
X36992274Y20106804D01*
X37196785Y20186033D01*
X37196789Y20186035D01*
X37196791Y20186036D01*
X37238303Y20211739D01*
X37383274Y20301501D01*
X37545365Y20449267D01*
X37566451Y20477189D01*
X37623465Y20519496D01*
X37694301Y20524263D01*
X37756470Y20489976D01*
X37767549Y20477189D01*
X37788634Y20449267D01*
X37950725Y20301501D01*
X38137205Y20186038D01*
X38137214Y20186033D01*
X38341725Y20106804D01*
X38418247Y20092499D01*
X38557333Y20066500D01*
X38557336Y20066500D01*
X38776664Y20066500D01*
X38776667Y20066500D01*
X38953853Y20099622D01*
X38992274Y20106804D01*
X39196785Y20186033D01*
X39196789Y20186035D01*
X39196791Y20186036D01*
X39238303Y20211739D01*
X39383274Y20301501D01*
X39545364Y20449266D01*
X39557852Y20465803D01*
X39566764Y20477604D01*
X39623777Y20519911D01*
X39694613Y20524678D01*
X39756782Y20490391D01*
X39767863Y20477604D01*
X39789011Y20449599D01*
X39951026Y20301902D01*
X40137432Y20186485D01*
X40137439Y20186482D01*
X40341863Y20107287D01*
X40413000Y20093989D01*
X40413000Y20938314D01*
X40421394Y20929920D01*
X40512606Y20877259D01*
X40614339Y20850000D01*
X40719661Y20850000D01*
X40821394Y20877259D01*
X40912606Y20929920D01*
X40921000Y20938314D01*
X40921000Y20093989D01*
X40992136Y20107287D01*
X41196560Y20186482D01*
X41196567Y20186485D01*
X41382973Y20301902D01*
X41544996Y20449607D01*
X41566137Y20477602D01*
X41623151Y20519910D01*
X41693987Y20524677D01*
X41756156Y20490390D01*
X41767236Y20477604D01*
X41788378Y20449607D01*
X41788637Y20449265D01*
X41950725Y20301501D01*
X42137205Y20186038D01*
X42137214Y20186033D01*
X42341725Y20106804D01*
X42418247Y20092499D01*
X42557333Y20066500D01*
X42557336Y20066500D01*
X42776664Y20066500D01*
X42776667Y20066500D01*
X42953853Y20099622D01*
X42992274Y20106804D01*
X43196785Y20186033D01*
X43196789Y20186035D01*
X43196791Y20186036D01*
X43266560Y20229235D01*
X43383275Y20301502D01*
X43383278Y20301504D01*
X43545362Y20449263D01*
X43677541Y20624297D01*
X43677543Y20624299D01*
X43775309Y20820639D01*
X43835332Y21031601D01*
X43855570Y21250000D01*
X43835332Y21468399D01*
X43775309Y21679361D01*
X43677543Y21875701D01*
X43545364Y22050734D01*
X43508659Y22084195D01*
X43383278Y22198495D01*
X43383275Y22198497D01*
X43383273Y22198499D01*
X43196791Y22313964D01*
X43094529Y22353580D01*
X42992274Y22393195D01*
X42992272Y22393195D01*
X42992268Y22393197D01*
X42776667Y22433500D01*
X42557333Y22433500D01*
X42341732Y22393197D01*
X42341728Y22393195D01*
X42341725Y22393195D01*
X42137214Y22313966D01*
X42137209Y22313964D01*
X42009081Y22234630D01*
X41950725Y22198498D01*
X41869681Y22124616D01*
X41788636Y22050734D01*
X41767234Y22022393D01*
X41710221Y21980088D01*
X41639385Y21975321D01*
X41577216Y22009608D01*
X41566133Y22022399D01*
X41544990Y22050397D01*
X41382973Y22198097D01*
X41196566Y22313514D01*
X40992131Y22392713D01*
X40921000Y22406009D01*
X40921000Y21561686D01*
X40912606Y21570080D01*
X40821394Y21622741D01*
X40719661Y21650000D01*
X40614339Y21650000D01*
X40512606Y21622741D01*
X40421394Y21570080D01*
X40413000Y21561686D01*
X40413000Y22406009D01*
X40341868Y22392713D01*
X40137434Y22313514D01*
X40137432Y22313514D01*
X39951026Y22198097D01*
X39789006Y22050396D01*
X39767864Y22022398D01*
X39710851Y21980090D01*
X39640014Y21975322D01*
X39577845Y22009607D01*
X39566762Y22022399D01*
X39545364Y22050735D01*
X39383278Y22198495D01*
X39383275Y22198497D01*
X39383273Y22198499D01*
X39196791Y22313964D01*
X39094529Y22353580D01*
X38992274Y22393195D01*
X38992272Y22393195D01*
X38992268Y22393197D01*
X38776667Y22433500D01*
X38557333Y22433500D01*
X38341732Y22393197D01*
X38341728Y22393195D01*
X38341725Y22393195D01*
X38137214Y22313966D01*
X38137209Y22313964D01*
X37981056Y22217278D01*
X37950724Y22198497D01*
X37950721Y22198495D01*
X37788638Y22050737D01*
X37767551Y22022813D01*
X37710537Y21980505D01*
X37639701Y21975737D01*
X37577532Y22010023D01*
X37566449Y22022813D01*
X37545618Y22050397D01*
X37545364Y22050734D01*
X37508659Y22084195D01*
X37383278Y22198495D01*
X37383275Y22198497D01*
X37383273Y22198499D01*
X37196791Y22313964D01*
X37094529Y22353580D01*
X36992274Y22393195D01*
X36992272Y22393195D01*
X36992268Y22393197D01*
X36776667Y22433500D01*
X36557333Y22433500D01*
X36341732Y22393197D01*
X36341728Y22393195D01*
X36341725Y22393195D01*
X36137214Y22313966D01*
X36137209Y22313964D01*
X35981056Y22217278D01*
X35950724Y22198497D01*
X35950721Y22198495D01*
X35788638Y22050737D01*
X35767551Y22022813D01*
X35710537Y21980505D01*
X35639701Y21975737D01*
X35577532Y22010023D01*
X35566449Y22022813D01*
X35545618Y22050397D01*
X35545364Y22050734D01*
X35508659Y22084195D01*
X35383278Y22198495D01*
X35383275Y22198497D01*
X35383273Y22198499D01*
X35196791Y22313964D01*
X35094529Y22353580D01*
X34992274Y22393195D01*
X34992272Y22393195D01*
X34992268Y22393197D01*
X34776667Y22433500D01*
X34557333Y22433500D01*
X34341732Y22393197D01*
X34341728Y22393195D01*
X34341725Y22393195D01*
X34137214Y22313966D01*
X34137209Y22313964D01*
X33981056Y22217278D01*
X33950724Y22198497D01*
X33950721Y22198495D01*
X33788638Y22050737D01*
X33767551Y22022813D01*
X33710537Y21980505D01*
X33639701Y21975737D01*
X33577532Y22010023D01*
X33566449Y22022813D01*
X33545618Y22050397D01*
X33545364Y22050734D01*
X33508659Y22084195D01*
X33383278Y22198495D01*
X33383275Y22198497D01*
X33383273Y22198499D01*
X33196791Y22313964D01*
X33094529Y22353580D01*
X32992274Y22393195D01*
X32992272Y22393195D01*
X32992268Y22393197D01*
X32776667Y22433500D01*
X32557333Y22433500D01*
X32341732Y22393197D01*
X32341728Y22393195D01*
X32341725Y22393195D01*
X32137214Y22313966D01*
X32137209Y22313964D01*
X31981056Y22217278D01*
X31950724Y22198497D01*
X31950721Y22198495D01*
X31788638Y22050737D01*
X31767551Y22022813D01*
X31710537Y21980505D01*
X31639701Y21975737D01*
X31577532Y22010023D01*
X31566449Y22022813D01*
X31545618Y22050397D01*
X31545364Y22050734D01*
X31508659Y22084195D01*
X31383278Y22198495D01*
X31383275Y22198497D01*
X31383273Y22198499D01*
X31196791Y22313964D01*
X31094529Y22353580D01*
X30992274Y22393195D01*
X30992272Y22393195D01*
X30992268Y22393197D01*
X30776667Y22433500D01*
X30557333Y22433500D01*
X30341732Y22393197D01*
X30341728Y22393195D01*
X30341725Y22393195D01*
X30137214Y22313966D01*
X30137209Y22313964D01*
X29950727Y22198499D01*
X29950726Y22198498D01*
X29947345Y22195416D01*
X29883530Y22164302D01*
X29813023Y22172628D01*
X29761589Y22213015D01*
X29705261Y22288261D01*
X29588204Y22375889D01*
X29451201Y22426989D01*
X29451199Y22426989D01*
X29451196Y22426990D01*
X29390649Y22433499D01*
X29390645Y22433499D01*
X29390638Y22433500D01*
X27943362Y22433500D01*
X27943355Y22433499D01*
X27943350Y22433499D01*
X27882803Y22426990D01*
X27882795Y22426988D01*
X27826550Y22406009D01*
X27745796Y22375889D01*
X27745794Y22375888D01*
X27745792Y22375887D01*
X27628738Y22288261D01*
X27541112Y22171207D01*
X27541110Y22171202D01*
X27490011Y22034204D01*
X27490009Y22034196D01*
X27483500Y21973649D01*
X25596182Y21973649D01*
X25578857Y21992012D01*
X25365302Y22171207D01*
X25310403Y22217273D01*
X25310402Y22217273D01*
X25310397Y22217278D01*
X25017600Y22409853D01*
X24704426Y22567135D01*
X24375110Y22686996D01*
X24034106Y22767816D01*
X23816555Y22793243D01*
X23686028Y22808500D01*
X23686025Y22808500D01*
X23335575Y22808500D01*
X23335572Y22808500D01*
X23186397Y22791064D01*
X22987494Y22767816D01*
X22646490Y22686996D01*
X22646482Y22686993D01*
X22646481Y22686993D01*
X22481832Y22627065D01*
X22317174Y22567135D01*
X22004000Y22409853D01*
X21711203Y22217278D01*
X21711200Y22217276D01*
X21711196Y22217273D01*
X21442754Y21992022D01*
X21442749Y21992017D01*
X21442743Y21992012D01*
X21202249Y21737104D01*
X20992975Y21456000D01*
X20992968Y21455989D01*
X20992968Y21455988D01*
X20817753Y21152506D01*
X20817744Y21152488D01*
X20687263Y20850000D01*
X20678943Y20830712D01*
X20587199Y20524263D01*
X20578433Y20494984D01*
X20517577Y20149852D01*
X20517577Y20149846D01*
X20497201Y19800000D01*
X8758500Y19800000D01*
X8758500Y34380042D01*
X22289251Y34380042D01*
X22289252Y34380041D01*
X22412385Y34314225D01*
X22412400Y34314219D01*
X22602393Y34256585D01*
X22602404Y34256583D01*
X22799997Y34237123D01*
X22800003Y34237123D01*
X22997595Y34256583D01*
X22997606Y34256585D01*
X23187608Y34314223D01*
X23310746Y34380042D01*
X22800000Y34890790D01*
X22799999Y34890790D01*
X22289251Y34380042D01*
X8758500Y34380042D01*
X8758500Y37530004D01*
X20786807Y37530004D01*
X20786807Y37529995D01*
X20805556Y37255883D01*
X20805557Y37255877D01*
X20861460Y36986853D01*
X20861462Y36986845D01*
X20953477Y36727941D01*
X21079892Y36483971D01*
X21238343Y36259498D01*
X21425886Y36058688D01*
X21639028Y35885284D01*
X21639030Y35885282D01*
X21639031Y35885282D01*
X21809120Y35781849D01*
X21856930Y35729365D01*
X21868775Y35659364D01*
X21864225Y35637617D01*
X21806585Y35447606D01*
X21806583Y35447595D01*
X21787123Y35250003D01*
X21787123Y35249996D01*
X21806583Y35052404D01*
X21806585Y35052393D01*
X21864219Y34862400D01*
X21864225Y34862385D01*
X21930041Y34739252D01*
X22475000Y35284211D01*
X22475000Y35207213D01*
X22497149Y35124555D01*
X22539936Y35050446D01*
X22600446Y34989936D01*
X22674555Y34947149D01*
X22757213Y34925000D01*
X22842787Y34925000D01*
X22925445Y34947149D01*
X22999554Y34989936D01*
X23060064Y35050446D01*
X23102851Y35124555D01*
X23125000Y35207213D01*
X23125000Y35284209D01*
X23669956Y34739252D01*
X23735776Y34862391D01*
X23793414Y35052393D01*
X23793416Y35052404D01*
X23812877Y35249996D01*
X23812877Y35250003D01*
X23793416Y35447595D01*
X23793414Y35447603D01*
X23735774Y35637615D01*
X23735140Y35708609D01*
X23772988Y35768676D01*
X23790880Y35781849D01*
X23790882Y35781850D01*
X23960969Y35885282D01*
X24174111Y36058686D01*
X24361657Y36259498D01*
X24491362Y36443249D01*
X24520107Y36483971D01*
X24520107Y36483972D01*
X24520111Y36483977D01*
X24646523Y36727942D01*
X24738538Y36986847D01*
X24794442Y37255870D01*
X24813193Y37530000D01*
X24811144Y37559956D01*
X38749252Y37559956D01*
X39260000Y37049210D01*
X39260001Y37049210D01*
X39770747Y37559956D01*
X39647612Y37625775D01*
X39647608Y37625776D01*
X39457606Y37683414D01*
X39457595Y37683416D01*
X39260003Y37702877D01*
X39259997Y37702877D01*
X39062404Y37683416D01*
X39062393Y37683414D01*
X38872391Y37625776D01*
X38749252Y37559956D01*
X24811144Y37559956D01*
X24794442Y37804130D01*
X24738538Y38073153D01*
X24646523Y38332058D01*
X24520111Y38576023D01*
X24361657Y38800502D01*
X24174111Y39001314D01*
X23960969Y39174718D01*
X23726200Y39317484D01*
X23474177Y39426953D01*
X23209596Y39501085D01*
X23066945Y39520692D01*
X22937395Y39538499D01*
X22937385Y39538500D01*
X22662615Y39538500D01*
X22662604Y39538499D01*
X22485504Y39514156D01*
X22390404Y39501085D01*
X22125823Y39426953D01*
X21957807Y39353973D01*
X21911564Y39333887D01*
X21873800Y39317484D01*
X21639031Y39174718D01*
X21425889Y39001314D01*
X21238343Y38800502D01*
X21147797Y38672227D01*
X21079892Y38576028D01*
X20953477Y38332058D01*
X20861462Y38073154D01*
X20861460Y38073146D01*
X20836217Y37951670D01*
X20805558Y37804130D01*
X20805557Y37804125D01*
X20805557Y37804122D01*
X20805556Y37804116D01*
X20786807Y37530004D01*
X8758500Y37530004D01*
X8758500Y40986000D01*
X32260381Y40986000D01*
X32280780Y40804953D01*
X32280780Y40804950D01*
X32280781Y40804949D01*
X32340954Y40632984D01*
X32340955Y40632981D01*
X32437884Y40478720D01*
X32437885Y40478718D01*
X32566715Y40349888D01*
X32566717Y40349887D01*
X32720978Y40252958D01*
X32720981Y40252957D01*
X32814499Y40220234D01*
X32892950Y40192783D01*
X33007628Y40179862D01*
X33013503Y40179200D01*
X33078956Y40151696D01*
X33119149Y40093172D01*
X33124603Y40039890D01*
X33123884Y40033506D01*
X33123884Y40033502D01*
X33123884Y40033500D01*
X33144283Y39852453D01*
X33144283Y39852450D01*
X33144284Y39852449D01*
X33204457Y39680484D01*
X33204458Y39680481D01*
X33301387Y39526220D01*
X33301388Y39526218D01*
X33430218Y39397388D01*
X33430220Y39397387D01*
X33584481Y39300458D01*
X33584484Y39300457D01*
X33756449Y39240284D01*
X33756450Y39240283D01*
X33756453Y39240283D01*
X33937500Y39219884D01*
X34118547Y39240283D01*
X34290515Y39300457D01*
X34290518Y39300458D01*
X34444779Y39397387D01*
X34444781Y39397388D01*
X34573611Y39526218D01*
X34573612Y39526220D01*
X34670541Y39680481D01*
X34670542Y39680484D01*
X34670543Y39680485D01*
X34730717Y39852453D01*
X34751116Y40033500D01*
X34751115Y40033502D01*
X34751626Y40038032D01*
X34779130Y40103485D01*
X34837653Y40143678D01*
X34908617Y40145851D01*
X34965929Y40113020D01*
X35130666Y39948283D01*
X35164692Y39885971D01*
X35166778Y39873298D01*
X35176282Y39788957D01*
X35176283Y39788950D01*
X35236457Y39616984D01*
X35236458Y39616981D01*
X35333387Y39462720D01*
X35333388Y39462718D01*
X35462218Y39333888D01*
X35462220Y39333887D01*
X35616481Y39236958D01*
X35616484Y39236957D01*
X35788449Y39176784D01*
X35788450Y39176783D01*
X35788453Y39176783D01*
X35969500Y39156384D01*
X36150547Y39176783D01*
X36322515Y39236957D01*
X36322518Y39236958D01*
X36476779Y39333887D01*
X36476781Y39333888D01*
X36605611Y39462718D01*
X36605612Y39462720D01*
X36702541Y39616981D01*
X36702542Y39616984D01*
X36702543Y39616985D01*
X36762717Y39788953D01*
X36783116Y39970000D01*
X36774946Y40042506D01*
X36787195Y40112435D01*
X36835307Y40164643D01*
X36904008Y40182552D01*
X36914260Y40181819D01*
X36998004Y40172384D01*
X36998006Y40172384D01*
X37179053Y40192783D01*
X37351021Y40252957D01*
X37351024Y40252958D01*
X37491403Y40341164D01*
X37559724Y40360470D01*
X37627637Y40339775D01*
X37647533Y40323574D01*
X37684721Y40286386D01*
X37838981Y40189458D01*
X37838984Y40189457D01*
X38010949Y40129284D01*
X38010950Y40129283D01*
X38010953Y40129283D01*
X38192000Y40108884D01*
X38373047Y40129283D01*
X38545015Y40189457D01*
X38545018Y40189458D01*
X38699279Y40286387D01*
X38699281Y40286388D01*
X38828111Y40415218D01*
X38828112Y40415220D01*
X38925041Y40569481D01*
X38925042Y40569484D01*
X38925043Y40569485D01*
X38985217Y40741453D01*
X39005616Y40922500D01*
X38985217Y41103547D01*
X38925043Y41275515D01*
X38828111Y41429781D01*
X38828104Y41429787D01*
X38827999Y41429921D01*
X38827952Y41430034D01*
X38824347Y41435773D01*
X38825351Y41436404D01*
X38801156Y41495648D01*
X38800500Y41508493D01*
X38800500Y42095896D01*
X38820502Y42164017D01*
X38827992Y42174460D01*
X38828116Y42174615D01*
X38925041Y42328871D01*
X38925042Y42328874D01*
X38925043Y42328875D01*
X38985217Y42500843D01*
X39005616Y42681890D01*
X38985217Y42862937D01*
X38925043Y43034905D01*
X38828111Y43189171D01*
X38699281Y43318001D01*
X38545015Y43414933D01*
X38373047Y43475107D01*
X38192000Y43495506D01*
X38010953Y43475107D01*
X37838985Y43414933D01*
X37799542Y43390149D01*
X37731223Y43370843D01*
X37663309Y43391537D01*
X37617365Y43445664D01*
X37606506Y43496836D01*
X37606506Y44922998D01*
X39283384Y44922998D01*
X39303783Y44741951D01*
X39303783Y44741948D01*
X39303784Y44741947D01*
X39363957Y44569982D01*
X39363958Y44569979D01*
X39460887Y44415718D01*
X39460888Y44415716D01*
X39589718Y44286886D01*
X39589720Y44286885D01*
X39743981Y44189956D01*
X39743984Y44189955D01*
X39915949Y44129782D01*
X39915950Y44129781D01*
X39915953Y44129781D01*
X40097000Y44109382D01*
X40278047Y44129781D01*
X40278050Y44129782D01*
X40450014Y44189954D01*
X40503223Y44223388D01*
X40516431Y44231687D01*
X40583467Y44251000D01*
X41924010Y44251000D01*
X41992131Y44230998D01*
X42002574Y44223508D01*
X42002729Y44223383D01*
X42156985Y44126458D01*
X42156988Y44126457D01*
X42328953Y44066284D01*
X42328954Y44066283D01*
X42328957Y44066283D01*
X42510004Y44045884D01*
X42691051Y44066283D01*
X42863019Y44126457D01*
X42863022Y44126458D01*
X43017283Y44223387D01*
X43017285Y44223388D01*
X43146115Y44352218D01*
X43146116Y44352220D01*
X43204813Y44445634D01*
X43257992Y44492672D01*
X43328159Y44503492D01*
X43393037Y44474659D01*
X43432028Y44415327D01*
X43437500Y44378598D01*
X43437500Y43198850D01*
X43444009Y43138303D01*
X43444011Y43138295D01*
X43495110Y43001297D01*
X43495112Y43001292D01*
X43582738Y42884238D01*
X43699792Y42796612D01*
X43699797Y42796610D01*
X43836795Y42745511D01*
X43836803Y42745509D01*
X43897350Y42739000D01*
X43897362Y42739000D01*
X45694649Y42739000D01*
X45755196Y42745509D01*
X45755204Y42745511D01*
X45892202Y42796610D01*
X45892207Y42796612D01*
X46009261Y42884238D01*
X46096887Y43001292D01*
X46096889Y43001296D01*
X46141195Y43120083D01*
X46183741Y43176919D01*
X46250262Y43201729D01*
X46319636Y43186637D01*
X46351951Y43161388D01*
X46413096Y43094965D01*
X46590698Y42956732D01*
X46590699Y42956731D01*
X46788628Y42849617D01*
X46788630Y42849616D01*
X47001487Y42776543D01*
X47001498Y42776540D01*
X47081999Y42763106D01*
X47082000Y42763107D01*
X47082000Y43666797D01*
X47143007Y43631575D01*
X47270174Y43597500D01*
X47401826Y43597500D01*
X47528993Y43631575D01*
X47590000Y43666797D01*
X47590000Y42763106D01*
X47670501Y42776540D01*
X47670512Y42776543D01*
X47883369Y42849616D01*
X47883371Y42849617D01*
X48081300Y42956731D01*
X48081301Y42956732D01*
X48258902Y43094965D01*
X48411325Y43260541D01*
X48534419Y43448951D01*
X48624820Y43655043D01*
X48624823Y43655050D01*
X48672544Y43843499D01*
X48672544Y43843500D01*
X47766703Y43843500D01*
X47801925Y43904507D01*
X47836000Y44031674D01*
X47836000Y44163326D01*
X47801925Y44290493D01*
X47766703Y44351500D01*
X48672544Y44351500D01*
X48624823Y44539949D01*
X48624820Y44539956D01*
X48534419Y44746048D01*
X48411325Y44934458D01*
X48258902Y45100034D01*
X48081301Y45238267D01*
X48081300Y45238268D01*
X47883371Y45345382D01*
X47883369Y45345383D01*
X47670516Y45418455D01*
X47670507Y45418457D01*
X47590000Y45431890D01*
X47590000Y44528202D01*
X47528993Y44563425D01*
X47401826Y44597500D01*
X47270174Y44597500D01*
X47143007Y44563425D01*
X47082000Y44528202D01*
X47082000Y45431891D01*
X47001492Y45418457D01*
X47001483Y45418455D01*
X46788630Y45345383D01*
X46788628Y45345382D01*
X46590699Y45238268D01*
X46590698Y45238267D01*
X46413097Y45100034D01*
X46351952Y45033612D01*
X46291099Y44997041D01*
X46220135Y44999174D01*
X46161589Y45039335D01*
X46141197Y45074910D01*
X46096889Y45193704D01*
X46009261Y45310761D01*
X45892204Y45398389D01*
X45755201Y45449489D01*
X45755199Y45449489D01*
X45755196Y45449490D01*
X45694649Y45455999D01*
X45694645Y45455999D01*
X45694638Y45456000D01*
X43897362Y45456000D01*
X43897355Y45455999D01*
X43897350Y45455999D01*
X43836803Y45449490D01*
X43836795Y45449488D01*
X43785290Y45430277D01*
X43699796Y45398389D01*
X43699794Y45398388D01*
X43699792Y45398387D01*
X43582738Y45310761D01*
X43495112Y45193707D01*
X43495110Y45193702D01*
X43490288Y45180775D01*
X43447740Y45123940D01*
X43381219Y45099132D01*
X43311845Y45114225D01*
X43261645Y45164429D01*
X43253311Y45183181D01*
X43243047Y45212515D01*
X43146115Y45366781D01*
X43017285Y45495611D01*
X42863019Y45592543D01*
X42691051Y45652717D01*
X42510004Y45673116D01*
X42328957Y45652717D01*
X42156989Y45592543D01*
X42156986Y45592541D01*
X42156985Y45592541D01*
X42002729Y45495616D01*
X42002574Y45495492D01*
X42002454Y45495443D01*
X41996731Y45491847D01*
X41996101Y45492849D01*
X41936845Y45468655D01*
X41924010Y45468000D01*
X40747580Y45468000D01*
X40679459Y45488002D01*
X40658489Y45504900D01*
X40604281Y45559109D01*
X40450015Y45656041D01*
X40278047Y45716215D01*
X40097000Y45736614D01*
X39915953Y45716215D01*
X39743985Y45656041D01*
X39743982Y45656039D01*
X39743981Y45656039D01*
X39589720Y45559110D01*
X39589718Y45559109D01*
X39460888Y45430279D01*
X39460887Y45430277D01*
X39363958Y45276016D01*
X39363957Y45276013D01*
X39310745Y45123940D01*
X39303783Y45104045D01*
X39283384Y44922998D01*
X37606506Y44922998D01*
X37606506Y48733000D01*
X39346884Y48733000D01*
X39367283Y48551953D01*
X39367283Y48551950D01*
X39367284Y48551949D01*
X39427457Y48379984D01*
X39427458Y48379981D01*
X39524387Y48225720D01*
X39524388Y48225718D01*
X39653218Y48096888D01*
X39653220Y48096887D01*
X39807481Y47999958D01*
X39807484Y47999957D01*
X39979449Y47939784D01*
X39979450Y47939783D01*
X39979453Y47939783D01*
X40160500Y47919384D01*
X40341547Y47939783D01*
X40513515Y47999957D01*
X40513518Y47999958D01*
X40667774Y48096883D01*
X40667930Y48097008D01*
X40668049Y48097056D01*
X40673773Y48100653D01*
X40674402Y48099650D01*
X40733659Y48123845D01*
X40746494Y48124500D01*
X41860506Y48124500D01*
X41928627Y48104498D01*
X41939070Y48097008D01*
X41939225Y48096883D01*
X42093481Y47999958D01*
X42093484Y47999957D01*
X42265449Y47939784D01*
X42265450Y47939783D01*
X42265453Y47939783D01*
X42446500Y47919384D01*
X42627547Y47939783D01*
X42799515Y47999957D01*
X42799518Y47999958D01*
X42953779Y48096887D01*
X42953781Y48096888D01*
X43082611Y48225718D01*
X43082612Y48225720D01*
X43179541Y48379981D01*
X43179542Y48379984D01*
X43179543Y48379985D01*
X43192571Y48417217D01*
X43233950Y48474908D01*
X43299950Y48501071D01*
X43369617Y48487397D01*
X43420833Y48438229D01*
X43437500Y48375601D01*
X43437500Y46881850D01*
X43444009Y46821303D01*
X43444011Y46821295D01*
X43495110Y46684297D01*
X43495112Y46684292D01*
X43582738Y46567238D01*
X43699792Y46479612D01*
X43699797Y46479610D01*
X43836795Y46428511D01*
X43836803Y46428509D01*
X43897350Y46422000D01*
X43897362Y46422000D01*
X45694649Y46422000D01*
X45755196Y46428509D01*
X45755204Y46428511D01*
X45892202Y46479610D01*
X45892207Y46479612D01*
X46009261Y46567238D01*
X46096887Y46684292D01*
X46096889Y46684296D01*
X46141195Y46803083D01*
X46183741Y46859919D01*
X46250262Y46884729D01*
X46319636Y46869637D01*
X46351951Y46844388D01*
X46413096Y46777965D01*
X46590698Y46639732D01*
X46590699Y46639731D01*
X46788628Y46532617D01*
X46788630Y46532616D01*
X47001487Y46459543D01*
X47001498Y46459540D01*
X47081999Y46446106D01*
X47082000Y46446107D01*
X47082000Y47349797D01*
X47143007Y47314575D01*
X47270174Y47280500D01*
X47401826Y47280500D01*
X47528993Y47314575D01*
X47590000Y47349797D01*
X47590000Y46446106D01*
X47670501Y46459540D01*
X47670512Y46459543D01*
X47883369Y46532616D01*
X47883371Y46532617D01*
X48081300Y46639731D01*
X48081301Y46639732D01*
X48258902Y46777965D01*
X48411325Y46943541D01*
X48534419Y47131951D01*
X48624820Y47338043D01*
X48624823Y47338050D01*
X48672544Y47526499D01*
X48672544Y47526500D01*
X47766703Y47526500D01*
X47801925Y47587507D01*
X47836000Y47714674D01*
X47836000Y47846326D01*
X47801925Y47973493D01*
X47766703Y48034500D01*
X48672544Y48034500D01*
X48624823Y48222949D01*
X48624820Y48222956D01*
X48534419Y48429048D01*
X48411325Y48617458D01*
X48258902Y48783034D01*
X48081301Y48921267D01*
X48081300Y48921268D01*
X47883371Y49028382D01*
X47883369Y49028383D01*
X47670516Y49101455D01*
X47670507Y49101457D01*
X47590000Y49114890D01*
X47590000Y48211202D01*
X47528993Y48246425D01*
X47401826Y48280500D01*
X47270174Y48280500D01*
X47143007Y48246425D01*
X47082000Y48211202D01*
X47082000Y49114891D01*
X47001492Y49101457D01*
X47001483Y49101455D01*
X46788630Y49028383D01*
X46788628Y49028382D01*
X46590699Y48921268D01*
X46590698Y48921267D01*
X46413097Y48783034D01*
X46351952Y48716612D01*
X46291099Y48680041D01*
X46220135Y48682174D01*
X46161589Y48722335D01*
X46141197Y48757910D01*
X46096889Y48876704D01*
X46009261Y48993761D01*
X45963012Y49028383D01*
X45892207Y49081387D01*
X45892206Y49081387D01*
X45892204Y49081389D01*
X45755201Y49132489D01*
X45755199Y49132489D01*
X45755196Y49132490D01*
X45694649Y49138999D01*
X45694645Y49138999D01*
X45694638Y49139000D01*
X43897362Y49139000D01*
X43897355Y49138999D01*
X43897350Y49138999D01*
X43836803Y49132490D01*
X43836795Y49132488D01*
X43758875Y49103424D01*
X43699796Y49081389D01*
X43699794Y49081388D01*
X43699792Y49081387D01*
X43582738Y48993761D01*
X43495112Y48876707D01*
X43495112Y48876706D01*
X43486435Y48853443D01*
X43443887Y48796608D01*
X43377366Y48771799D01*
X43307992Y48786892D01*
X43257791Y48837095D01*
X43243173Y48883367D01*
X43239717Y48914047D01*
X43179543Y49086015D01*
X43082611Y49240281D01*
X42953781Y49369111D01*
X42799515Y49466043D01*
X42627547Y49526217D01*
X42446500Y49546616D01*
X42265453Y49526217D01*
X42093485Y49466043D01*
X42093482Y49466041D01*
X42093481Y49466041D01*
X41939225Y49369116D01*
X41939070Y49368992D01*
X41938950Y49368943D01*
X41933227Y49365347D01*
X41932597Y49366349D01*
X41873341Y49342155D01*
X41860506Y49341500D01*
X40746494Y49341500D01*
X40678373Y49361502D01*
X40667930Y49368992D01*
X40667783Y49369108D01*
X40667781Y49369111D01*
X40667777Y49369113D01*
X40667774Y49369116D01*
X40513518Y49466041D01*
X40513515Y49466043D01*
X40341547Y49526217D01*
X40160500Y49546616D01*
X39979453Y49526217D01*
X39807485Y49466043D01*
X39807482Y49466041D01*
X39807481Y49466041D01*
X39653220Y49369112D01*
X39653218Y49369111D01*
X39524388Y49240281D01*
X39524387Y49240279D01*
X39427458Y49086018D01*
X39427457Y49086015D01*
X39367283Y48914047D01*
X39346884Y48733000D01*
X37606506Y48733000D01*
X37606506Y50892000D01*
X42077384Y50892000D01*
X42097783Y50710953D01*
X42097783Y50710950D01*
X42097784Y50710949D01*
X42157957Y50538984D01*
X42157958Y50538981D01*
X42254887Y50384720D01*
X42254888Y50384718D01*
X42383718Y50255888D01*
X42383720Y50255887D01*
X42537981Y50158958D01*
X42537984Y50158957D01*
X42709949Y50098784D01*
X42709950Y50098783D01*
X42709953Y50098783D01*
X42891000Y50078384D01*
X43072047Y50098783D01*
X43244015Y50158957D01*
X43244018Y50158958D01*
X43398274Y50255883D01*
X43398430Y50256008D01*
X43398549Y50256056D01*
X43404273Y50259653D01*
X43404902Y50258650D01*
X43464159Y50282845D01*
X43476994Y50283500D01*
X44146506Y50283500D01*
X44214627Y50263498D01*
X44225070Y50256008D01*
X44225225Y50255883D01*
X44379481Y50158958D01*
X44379484Y50158957D01*
X44551449Y50098784D01*
X44551450Y50098783D01*
X44551453Y50098783D01*
X44732500Y50078384D01*
X44913547Y50098783D01*
X45085515Y50158957D01*
X45085518Y50158958D01*
X45239779Y50255887D01*
X45239781Y50255888D01*
X45368611Y50384718D01*
X45368612Y50384720D01*
X45465541Y50538981D01*
X45465542Y50538984D01*
X45465543Y50538985D01*
X45525717Y50710953D01*
X45546116Y50892000D01*
X45525717Y51073047D01*
X45465543Y51245015D01*
X45368611Y51399281D01*
X45240891Y51527001D01*
X50132620Y51527001D01*
X50132620Y51526998D01*
X50136893Y51483615D01*
X50137500Y51471264D01*
X50137500Y51427663D01*
X50146004Y51384913D01*
X50147818Y51372684D01*
X50152090Y51329305D01*
X50164748Y51287575D01*
X50167750Y51275588D01*
X50176254Y51232836D01*
X50176257Y51232828D01*
X50192937Y51192560D01*
X50197102Y51180918D01*
X50209757Y51139197D01*
X50230312Y51100741D01*
X50235596Y51089569D01*
X50252278Y51049297D01*
X50252279Y51049295D01*
X50276494Y51013053D01*
X50282848Y51002453D01*
X50303404Y50963997D01*
X50303410Y50963988D01*
X50331066Y50930289D01*
X50338430Y50920361D01*
X50362647Y50884119D01*
X50362648Y50884117D01*
X50393470Y50853294D01*
X50401769Y50844137D01*
X50429431Y50810431D01*
X50463137Y50782769D01*
X50472294Y50774470D01*
X50503117Y50743648D01*
X50503119Y50743647D01*
X50539361Y50719430D01*
X50549289Y50712066D01*
X50582988Y50684410D01*
X50582997Y50684404D01*
X50621453Y50663848D01*
X50632053Y50657494D01*
X50668295Y50633279D01*
X50668297Y50633278D01*
X50708569Y50616596D01*
X50719741Y50611312D01*
X50758197Y50590757D01*
X50799918Y50578102D01*
X50811555Y50573938D01*
X50822274Y50569498D01*
X50851828Y50557257D01*
X50851836Y50557254D01*
X50894588Y50548750D01*
X50906575Y50545748D01*
X50948305Y50533090D01*
X50991684Y50528818D01*
X51003913Y50527004D01*
X51046663Y50518500D01*
X51046671Y50518500D01*
X51090266Y50518500D01*
X51102614Y50517893D01*
X51117867Y50516390D01*
X51145998Y50513620D01*
X51146000Y50513620D01*
X51146002Y50513620D01*
X51174132Y50516390D01*
X51189385Y50517893D01*
X51201734Y50518500D01*
X51245329Y50518500D01*
X51288089Y50527005D01*
X51300319Y50528819D01*
X51343695Y50533090D01*
X51385424Y50545748D01*
X51397411Y50548751D01*
X51440168Y50557256D01*
X51480454Y50573943D01*
X51492079Y50578102D01*
X51518194Y50586024D01*
X51533795Y50590756D01*
X51533797Y50590757D01*
X51533804Y50590759D01*
X51572256Y50611312D01*
X51583420Y50616592D01*
X51623705Y50633279D01*
X51623707Y50633280D01*
X51659946Y50657494D01*
X51670548Y50663849D01*
X51709004Y50684405D01*
X51742709Y50712066D01*
X51752641Y50719432D01*
X51788880Y50743646D01*
X51788882Y50743648D01*
X51819704Y50774470D01*
X51828857Y50782766D01*
X51830508Y50784121D01*
X51862568Y50810432D01*
X51890239Y50844149D01*
X51898532Y50853298D01*
X52098329Y51053095D01*
X52160641Y51087121D01*
X52187424Y51090000D01*
X55245831Y51090000D01*
X55440669Y51128756D01*
X55440674Y51128758D01*
X55512808Y51158637D01*
X55624204Y51204779D01*
X55789381Y51315147D01*
X55883696Y51409462D01*
X55892857Y51417766D01*
X55904926Y51427671D01*
X55926568Y51445432D01*
X56052595Y51598996D01*
X56146241Y51774196D01*
X56203908Y51964299D01*
X56207143Y51997139D01*
X56223380Y52161996D01*
X56223380Y52162003D01*
X56203909Y52359694D01*
X56203908Y52359695D01*
X56203908Y52359701D01*
X56146241Y52549804D01*
X56052595Y52725004D01*
X55926568Y52878568D01*
X55773004Y53004595D01*
X55597804Y53098241D01*
X55407701Y53155908D01*
X55407695Y53155908D01*
X55407694Y53155909D01*
X55210003Y53175380D01*
X55209997Y53175380D01*
X55012302Y53155909D01*
X54868958Y53112426D01*
X54832382Y53107000D01*
X51618171Y53107000D01*
X51423331Y53068244D01*
X51239796Y52992221D01*
X51074619Y52881853D01*
X51074616Y52881850D01*
X50472298Y52279532D01*
X50463149Y52271239D01*
X50429432Y52243568D01*
X50403509Y52211981D01*
X50401766Y52209857D01*
X50393470Y52200704D01*
X50366650Y52173884D01*
X50362646Y52169880D01*
X50338432Y52133641D01*
X50331066Y52123709D01*
X50303405Y52090004D01*
X50282849Y52051548D01*
X50276494Y52040946D01*
X50252280Y52004707D01*
X50252279Y52004705D01*
X50235592Y51964420D01*
X50230312Y51953256D01*
X50209759Y51914804D01*
X50209756Y51914797D01*
X50209756Y51914795D01*
X50197105Y51873088D01*
X50192943Y51861454D01*
X50176256Y51821168D01*
X50167752Y51778415D01*
X50164748Y51766424D01*
X50152090Y51724695D01*
X50147819Y51681319D01*
X50146005Y51669085D01*
X50137500Y51626329D01*
X50137500Y51582734D01*
X50136893Y51570383D01*
X50132620Y51527001D01*
X45240891Y51527001D01*
X45239781Y51528111D01*
X45085515Y51625043D01*
X44913547Y51685217D01*
X44732500Y51705616D01*
X44551453Y51685217D01*
X44379485Y51625043D01*
X44379482Y51625041D01*
X44379481Y51625041D01*
X44225225Y51528116D01*
X44225070Y51527992D01*
X44224950Y51527943D01*
X44219227Y51524347D01*
X44218597Y51525349D01*
X44159341Y51501155D01*
X44146506Y51500500D01*
X43476994Y51500500D01*
X43408873Y51520502D01*
X43398430Y51527992D01*
X43398283Y51528108D01*
X43398281Y51528111D01*
X43398277Y51528113D01*
X43398274Y51528116D01*
X43244018Y51625041D01*
X43244015Y51625043D01*
X43072047Y51685217D01*
X42891000Y51705616D01*
X42709953Y51685217D01*
X42537985Y51625043D01*
X42537982Y51625041D01*
X42537981Y51625041D01*
X42383720Y51528112D01*
X42383718Y51528111D01*
X42254888Y51399281D01*
X42254887Y51399279D01*
X42157958Y51245018D01*
X42157957Y51245015D01*
X42107474Y51100741D01*
X42097783Y51073047D01*
X42077384Y50892000D01*
X37606506Y50892000D01*
X37606506Y52638110D01*
X37626508Y52706231D01*
X37665469Y52744797D01*
X37746784Y52795891D01*
X37875611Y52924718D01*
X37875612Y52924720D01*
X37972541Y53078981D01*
X37972542Y53078984D01*
X37972543Y53078985D01*
X38032717Y53250953D01*
X38053116Y53432000D01*
X38032717Y53613047D01*
X37972543Y53785015D01*
X37875611Y53939281D01*
X37746781Y54068111D01*
X37592515Y54165043D01*
X37420547Y54225217D01*
X37239500Y54245616D01*
X37058453Y54225217D01*
X37034170Y54216720D01*
X36963266Y54213101D01*
X36901660Y54248390D01*
X36873626Y54294034D01*
X36859084Y54335591D01*
X36829543Y54420015D01*
X36732611Y54574281D01*
X36603781Y54703111D01*
X36449515Y54800043D01*
X36277547Y54860217D01*
X36096500Y54880616D01*
X35915453Y54860217D01*
X35743485Y54800043D01*
X35743482Y54800041D01*
X35743481Y54800041D01*
X35589220Y54703112D01*
X35589218Y54703111D01*
X35455385Y54569278D01*
X35452971Y54571691D01*
X35407615Y54539305D01*
X35336703Y54535835D01*
X35277659Y54569822D01*
X35277115Y54569278D01*
X35143281Y54703111D01*
X35143279Y54703112D01*
X35060281Y54755263D01*
X34989015Y54800043D01*
X34817047Y54860217D01*
X34636000Y54880616D01*
X34454953Y54860217D01*
X34282985Y54800043D01*
X34282982Y54800041D01*
X34282981Y54800041D01*
X34128720Y54703112D01*
X34128718Y54703111D01*
X33999888Y54574281D01*
X33999887Y54574279D01*
X33902958Y54420018D01*
X33902958Y54420017D01*
X33869109Y54323284D01*
X33827730Y54265593D01*
X33761730Y54239430D01*
X33736075Y54239691D01*
X33683500Y54245616D01*
X33502453Y54225217D01*
X33330485Y54165043D01*
X33330482Y54165041D01*
X33330481Y54165041D01*
X33176220Y54068112D01*
X33176218Y54068111D01*
X33047388Y53939281D01*
X33047387Y53939279D01*
X32950458Y53785018D01*
X32950457Y53785015D01*
X32890283Y53613047D01*
X32876958Y53494781D01*
X32869884Y53431999D01*
X32884838Y53299273D01*
X32872588Y53229341D01*
X32826666Y53178479D01*
X32766720Y53140812D01*
X32766718Y53140811D01*
X32637888Y53011981D01*
X32637887Y53011979D01*
X32540958Y52857718D01*
X32540957Y52857715D01*
X32480783Y52685747D01*
X32460384Y52504700D01*
X32480783Y52323653D01*
X32480783Y52323650D01*
X32480784Y52323649D01*
X32540957Y52151684D01*
X32540958Y52151682D01*
X32637889Y51997416D01*
X32638015Y51997260D01*
X32638064Y51997139D01*
X32641653Y51991428D01*
X32640652Y51990799D01*
X32664845Y51931528D01*
X32665499Y51918707D01*
X32665499Y41753817D01*
X32645497Y41685696D01*
X32606537Y41647132D01*
X32566716Y41622111D01*
X32566713Y41622108D01*
X32566711Y41622107D01*
X32437885Y41493281D01*
X32437884Y41493279D01*
X32340955Y41339018D01*
X32340954Y41339015D01*
X32318736Y41275518D01*
X32280780Y41167047D01*
X32260381Y40986000D01*
X8758500Y40986000D01*
X8758500Y44154699D01*
X24303685Y44154699D01*
X24324084Y43973652D01*
X24324084Y43973649D01*
X24324085Y43973648D01*
X24384258Y43801683D01*
X24384259Y43801680D01*
X24481188Y43647419D01*
X24481189Y43647417D01*
X24610019Y43518587D01*
X24610021Y43518586D01*
X24764282Y43421657D01*
X24764285Y43421656D01*
X24936250Y43361483D01*
X24936251Y43361482D01*
X24936254Y43361482D01*
X25117301Y43341083D01*
X25298348Y43361482D01*
X25470316Y43421656D01*
X25470319Y43421657D01*
X25624575Y43518582D01*
X25624731Y43518707D01*
X25624850Y43518755D01*
X25630574Y43522352D01*
X25631203Y43521349D01*
X25690460Y43545544D01*
X25703295Y43546199D01*
X27503205Y43546199D01*
X27571326Y43526197D01*
X27581769Y43518707D01*
X27581924Y43518582D01*
X27736180Y43421657D01*
X27736183Y43421656D01*
X27908148Y43361483D01*
X27908149Y43361482D01*
X27908152Y43361482D01*
X28089199Y43341083D01*
X28270246Y43361482D01*
X28442214Y43421656D01*
X28442217Y43421657D01*
X28596478Y43518586D01*
X28596480Y43518587D01*
X28725310Y43647417D01*
X28725311Y43647419D01*
X28822240Y43801680D01*
X28822241Y43801683D01*
X28822242Y43801684D01*
X28882416Y43973652D01*
X28902815Y44154699D01*
X28882416Y44335746D01*
X28822242Y44507714D01*
X28725310Y44661980D01*
X28596480Y44790810D01*
X28442214Y44887742D01*
X28270246Y44947916D01*
X28089199Y44968315D01*
X27908152Y44947916D01*
X27736184Y44887742D01*
X27736181Y44887740D01*
X27736180Y44887740D01*
X27581924Y44790815D01*
X27581769Y44790691D01*
X27581649Y44790642D01*
X27575926Y44787046D01*
X27575296Y44788048D01*
X27516040Y44763854D01*
X27503205Y44763199D01*
X25703295Y44763199D01*
X25635174Y44783201D01*
X25624731Y44790691D01*
X25624584Y44790807D01*
X25624582Y44790810D01*
X25624578Y44790812D01*
X25624575Y44790815D01*
X25470319Y44887740D01*
X25470316Y44887742D01*
X25298348Y44947916D01*
X25117301Y44968315D01*
X24936254Y44947916D01*
X24764286Y44887742D01*
X24764283Y44887740D01*
X24764282Y44887740D01*
X24610021Y44790811D01*
X24610019Y44790810D01*
X24481189Y44661980D01*
X24481188Y44661978D01*
X24384259Y44507717D01*
X24384258Y44507714D01*
X24329597Y44351500D01*
X24324084Y44335746D01*
X24303685Y44154699D01*
X8758500Y44154699D01*
X8758500Y49077988D01*
X27568986Y49077988D01*
X27589385Y48896941D01*
X27589385Y48896938D01*
X27589386Y48896937D01*
X27649559Y48724972D01*
X27649560Y48724969D01*
X27746489Y48570708D01*
X27746490Y48570706D01*
X27875320Y48441876D01*
X27875322Y48441875D01*
X28029583Y48344946D01*
X28029586Y48344945D01*
X28201551Y48284772D01*
X28201552Y48284771D01*
X28201555Y48284771D01*
X28382602Y48264372D01*
X28563649Y48284771D01*
X28735617Y48344945D01*
X28735620Y48344946D01*
X28889881Y48441875D01*
X28889883Y48441876D01*
X29018713Y48570706D01*
X29018714Y48570708D01*
X29115643Y48724969D01*
X29115644Y48724972D01*
X29115645Y48724973D01*
X29175819Y48896941D01*
X29196218Y49077988D01*
X29196218Y49077990D01*
X29196218Y49085065D01*
X29198963Y49085065D01*
X29209050Y49142688D01*
X29232919Y49175969D01*
X29382317Y49325367D01*
X29382340Y49325388D01*
X29500016Y49443064D01*
X29500019Y49443068D01*
X29500022Y49443071D01*
X29547613Y49525501D01*
X29580133Y49581826D01*
X29608177Y49686488D01*
X29621601Y49736588D01*
X29621601Y49884764D01*
X29641603Y49952885D01*
X29695259Y49999378D01*
X29765533Y50009482D01*
X29784167Y50005341D01*
X29788184Y50004122D01*
X29983032Y49965364D01*
X29983035Y49965364D01*
X30181695Y49965364D01*
X30376533Y50004120D01*
X30376538Y50004122D01*
X30560068Y50080143D01*
X30560072Y50080145D01*
X30656499Y50144575D01*
X30724252Y50165790D01*
X30792718Y50147007D01*
X30840161Y50094189D01*
X30852500Y50039810D01*
X30852500Y49940693D01*
X30832498Y49872572D01*
X30825001Y49862121D01*
X30824883Y49861973D01*
X30727958Y49707718D01*
X30727957Y49707715D01*
X30667783Y49535747D01*
X30647384Y49354700D01*
X30667783Y49173653D01*
X30667783Y49173650D01*
X30667784Y49173649D01*
X30727957Y49001684D01*
X30727958Y49001681D01*
X30824887Y48847420D01*
X30824888Y48847418D01*
X30953718Y48718588D01*
X30953720Y48718587D01*
X31107981Y48621658D01*
X31107984Y48621657D01*
X31279949Y48561484D01*
X31279950Y48561483D01*
X31279953Y48561483D01*
X31461000Y48541084D01*
X31642047Y48561483D01*
X31814015Y48621657D01*
X31814018Y48621658D01*
X31968279Y48718587D01*
X31968281Y48718588D01*
X32097111Y48847418D01*
X32097112Y48847420D01*
X32194041Y49001681D01*
X32194042Y49001684D01*
X32194043Y49001685D01*
X32254217Y49173653D01*
X32274616Y49354700D01*
X32254217Y49535747D01*
X32194043Y49707715D01*
X32097111Y49861981D01*
X32097104Y49861987D01*
X32096999Y49862121D01*
X32096952Y49862234D01*
X32093347Y49867973D01*
X32094351Y49868604D01*
X32070156Y49927848D01*
X32069500Y49940693D01*
X32069500Y54768704D01*
X32089502Y54836825D01*
X32096992Y54847268D01*
X32097116Y54847423D01*
X32194041Y55001679D01*
X32194042Y55001682D01*
X32194043Y55001683D01*
X32231343Y55108282D01*
X39406949Y55108282D01*
X39427348Y54927235D01*
X39427348Y54927232D01*
X39427349Y54927231D01*
X39487522Y54755266D01*
X39487523Y54755263D01*
X39584452Y54601002D01*
X39584453Y54601000D01*
X39642095Y54543359D01*
X39676121Y54481047D01*
X39679000Y54454264D01*
X39679000Y53573493D01*
X39658998Y53505372D01*
X39651501Y53494921D01*
X39651383Y53494773D01*
X39554458Y53340518D01*
X39554457Y53340515D01*
X39494283Y53168547D01*
X39473884Y52987500D01*
X39494283Y52806453D01*
X39494283Y52806450D01*
X39494284Y52806449D01*
X39554457Y52634484D01*
X39554458Y52634481D01*
X39651387Y52480220D01*
X39651388Y52480218D01*
X39780218Y52351388D01*
X39780220Y52351387D01*
X39934481Y52254458D01*
X39934484Y52254457D01*
X40106449Y52194284D01*
X40106450Y52194283D01*
X40106453Y52194283D01*
X40287500Y52173884D01*
X40468547Y52194283D01*
X40499398Y52205078D01*
X40640515Y52254457D01*
X40640518Y52254458D01*
X40794779Y52351387D01*
X40794781Y52351388D01*
X40923611Y52480218D01*
X40923612Y52480220D01*
X41020541Y52634481D01*
X41020542Y52634484D01*
X41020543Y52634485D01*
X41080717Y52806453D01*
X41101116Y52987500D01*
X41080717Y53168547D01*
X41020543Y53340515D01*
X40923611Y53494781D01*
X40923604Y53494787D01*
X40923499Y53494921D01*
X40923452Y53495034D01*
X40919847Y53500773D01*
X40920851Y53501404D01*
X40896656Y53560648D01*
X40896000Y53573493D01*
X40896000Y54627284D01*
X40915312Y54694319D01*
X40953607Y54755266D01*
X40953608Y54755267D01*
X41013782Y54927235D01*
X41034181Y55108282D01*
X41013782Y55289329D01*
X40953608Y55461297D01*
X40856676Y55615563D01*
X40727846Y55744393D01*
X40573580Y55841325D01*
X40401612Y55901499D01*
X40220565Y55921898D01*
X40039518Y55901499D01*
X39867550Y55841325D01*
X39867547Y55841323D01*
X39867546Y55841323D01*
X39713285Y55744394D01*
X39713283Y55744393D01*
X39584453Y55615563D01*
X39584452Y55615561D01*
X39487523Y55461300D01*
X39487522Y55461297D01*
X39450222Y55354698D01*
X39427348Y55289329D01*
X39406949Y55108282D01*
X32231343Y55108282D01*
X32254217Y55173651D01*
X32274616Y55354698D01*
X32254217Y55535745D01*
X32194043Y55707713D01*
X32097111Y55861979D01*
X31968281Y55990809D01*
X31814015Y56087741D01*
X31642047Y56147915D01*
X31461000Y56168314D01*
X31279953Y56147915D01*
X31107985Y56087741D01*
X31107982Y56087739D01*
X31107981Y56087739D01*
X30953720Y55990810D01*
X30953718Y55990809D01*
X30824888Y55861979D01*
X30824887Y55861977D01*
X30727958Y55707716D01*
X30727957Y55707713D01*
X30683293Y55580071D01*
X30641915Y55522379D01*
X30575914Y55496217D01*
X30516147Y55505277D01*
X30376533Y55563108D01*
X30181693Y55601864D01*
X29983035Y55601864D01*
X29788195Y55563108D01*
X29604660Y55487085D01*
X29439483Y55376717D01*
X29299011Y55236245D01*
X29188643Y55071068D01*
X29188643Y55071067D01*
X29112622Y54887538D01*
X29112620Y54887533D01*
X29073864Y54692695D01*
X29073864Y52600959D01*
X29053862Y52532838D01*
X29000206Y52486345D01*
X28929932Y52476241D01*
X28906250Y52482029D01*
X28860847Y52497917D01*
X28679800Y52518316D01*
X28498753Y52497917D01*
X28326785Y52437743D01*
X28326782Y52437741D01*
X28326781Y52437741D01*
X28172520Y52340812D01*
X28172518Y52340811D01*
X28043688Y52211981D01*
X28043687Y52211979D01*
X27946758Y52057718D01*
X27946757Y52057715D01*
X27886583Y51885747D01*
X27866184Y51704700D01*
X27886583Y51523653D01*
X27886583Y51523650D01*
X27886584Y51523649D01*
X27946757Y51351684D01*
X27946758Y51351682D01*
X28043688Y51197419D01*
X28058599Y51182508D01*
X28091207Y51126027D01*
X28112765Y51045570D01*
X28112770Y51045558D01*
X28192875Y50906812D01*
X28192883Y50906802D01*
X28367696Y50731990D01*
X28401722Y50669678D01*
X28404601Y50642895D01*
X28404601Y50120937D01*
X28384599Y50052816D01*
X28367696Y50031842D01*
X28230358Y49894504D01*
X28182878Y49864670D01*
X28175171Y49861973D01*
X28029587Y49811031D01*
X28029584Y49811029D01*
X28029583Y49811029D01*
X27875322Y49714100D01*
X27875320Y49714099D01*
X27746490Y49585269D01*
X27746489Y49585267D01*
X27649560Y49431006D01*
X27649559Y49431003D01*
X27622860Y49354700D01*
X27589385Y49259035D01*
X27568986Y49077988D01*
X8758500Y49077988D01*
X8758500Y61699576D01*
X8778502Y61767697D01*
X8795405Y61788671D01*
X10260335Y63253601D01*
X15844500Y63253601D01*
X15844500Y63006399D01*
X15879227Y62787140D01*
X15883172Y62762234D01*
X15959559Y62527140D01*
X16071790Y62306875D01*
X16217092Y62106885D01*
X16217094Y62106882D01*
X16391882Y61932094D01*
X16391885Y61932092D01*
X16591875Y61786790D01*
X16812140Y61674559D01*
X17047234Y61598172D01*
X17047239Y61598171D01*
X17047240Y61598171D01*
X17291399Y61559500D01*
X17291402Y61559500D01*
X17538598Y61559500D01*
X17538601Y61559500D01*
X17782760Y61598171D01*
X17782761Y61598171D01*
X17782765Y61598172D01*
X18017859Y61674559D01*
X18017863Y61674561D01*
X18238121Y61786788D01*
X18438112Y61932090D01*
X18438114Y61932092D01*
X18438117Y61932094D01*
X18612905Y62106882D01*
X18612907Y62106885D01*
X18612910Y62106888D01*
X18758212Y62306879D01*
X18870439Y62527137D01*
X18946829Y62762240D01*
X18952810Y62800000D01*
X20497201Y62800000D01*
X20517577Y62450153D01*
X20517577Y62450147D01*
X20578433Y62105015D01*
X20595865Y62046788D01*
X20673703Y61786790D01*
X20678944Y61769286D01*
X20678946Y61769280D01*
X20817744Y61447511D01*
X20817753Y61447493D01*
X20992968Y61144011D01*
X20992978Y61143995D01*
X21202250Y60862894D01*
X21442748Y60607983D01*
X21442754Y60607977D01*
X21711196Y60382726D01*
X22003998Y60190148D01*
X22317178Y60032863D01*
X22317183Y60032861D01*
X22646481Y59913006D01*
X22646486Y59913005D01*
X22646489Y59913004D01*
X22646490Y59913004D01*
X22680182Y59905018D01*
X22987492Y59832184D01*
X22987498Y59832183D01*
X23335572Y59791500D01*
X23335575Y59791500D01*
X23686028Y59791500D01*
X24034101Y59832183D01*
X24034107Y59832184D01*
X24188182Y59868701D01*
X24375110Y59913004D01*
X24375113Y59913005D01*
X24375118Y59913006D01*
X24704416Y60032861D01*
X24704421Y60032863D01*
X24704422Y60032863D01*
X24704426Y60032865D01*
X25017600Y60190147D01*
X25310397Y60382722D01*
X25310403Y60382726D01*
X25578845Y60607977D01*
X25578851Y60607983D01*
X25578857Y60607988D01*
X25819351Y60862896D01*
X26028625Y61144000D01*
X26203850Y61447499D01*
X26342657Y61769288D01*
X26443167Y62105016D01*
X26504022Y62450143D01*
X26524399Y62800000D01*
X26504022Y63149857D01*
X26443167Y63494984D01*
X26342657Y63830712D01*
X26203850Y64152501D01*
X26028625Y64456000D01*
X25819351Y64737104D01*
X25578857Y64992012D01*
X25327369Y65203037D01*
X25310403Y65217273D01*
X25310402Y65217273D01*
X25310397Y65217278D01*
X25017600Y65409853D01*
X24704426Y65567135D01*
X24375110Y65686996D01*
X24034106Y65767816D01*
X23816555Y65793243D01*
X23686028Y65808500D01*
X23686025Y65808500D01*
X23335575Y65808500D01*
X23335572Y65808500D01*
X23186397Y65791064D01*
X22987494Y65767816D01*
X22646490Y65686996D01*
X22646482Y65686993D01*
X22646481Y65686993D01*
X22481832Y65627065D01*
X22317174Y65567135D01*
X22004000Y65409853D01*
X21711203Y65217278D01*
X21711200Y65217276D01*
X21711196Y65217273D01*
X21442754Y64992022D01*
X21442749Y64992017D01*
X21442743Y64992012D01*
X21202249Y64737104D01*
X20992975Y64456000D01*
X20992968Y64455989D01*
X20992968Y64455988D01*
X20817753Y64152506D01*
X20817744Y64152488D01*
X20705722Y63892792D01*
X20678943Y63830712D01*
X20598639Y63562476D01*
X20578433Y63494984D01*
X20517577Y63149852D01*
X20517577Y63149846D01*
X20497201Y62800000D01*
X18952810Y62800000D01*
X18985500Y63006399D01*
X18985500Y63253601D01*
X18946829Y63497760D01*
X18870439Y63732863D01*
X18758212Y63953121D01*
X18612910Y64153112D01*
X18438112Y64327910D01*
X18238121Y64473212D01*
X18017863Y64585439D01*
X17782760Y64661829D01*
X17538601Y64700500D01*
X17291399Y64700500D01*
X17047240Y64661829D01*
X17047234Y64661827D01*
X16819727Y64587905D01*
X16812137Y64585439D01*
X16591879Y64473212D01*
X16391888Y64327910D01*
X16391885Y64327907D01*
X16391882Y64327905D01*
X16217094Y64153117D01*
X16217092Y64153114D01*
X16217090Y64153112D01*
X16071788Y63953121D01*
X15981407Y63775738D01*
X15959559Y63732859D01*
X15883172Y63497765D01*
X15883171Y63497761D01*
X15883171Y63497760D01*
X15844500Y63253601D01*
X10260335Y63253601D01*
X11347587Y64340853D01*
X11409899Y64374879D01*
X11426794Y64377369D01*
X11656711Y64395465D01*
X11730237Y64413117D01*
X11887592Y64450894D01*
X12106961Y64541759D01*
X12113247Y64545611D01*
X12309416Y64665824D01*
X12309417Y64665825D01*
X12309419Y64665826D01*
X12489969Y64820030D01*
X12644173Y65000580D01*
X12644174Y65000582D01*
X12644176Y65000584D01*
X12768240Y65203037D01*
X12859105Y65422406D01*
X12914535Y65653289D01*
X12932979Y65887632D01*
X40041500Y65887632D01*
X40041500Y64090350D01*
X40048009Y64029803D01*
X40048011Y64029795D01*
X40099110Y63892797D01*
X40099112Y63892792D01*
X40186738Y63775738D01*
X40303792Y63688112D01*
X40303797Y63688110D01*
X40440795Y63637011D01*
X40440803Y63637009D01*
X40501350Y63630500D01*
X42297142Y63630500D01*
X42365263Y63610498D01*
X42407900Y63562293D01*
X42408192Y63562476D01*
X42409303Y63560707D01*
X42410664Y63559169D01*
X42411956Y63556484D01*
X42508883Y63402225D01*
X42509008Y63402070D01*
X42509056Y63401950D01*
X42512653Y63396227D01*
X42511650Y63395597D01*
X42535845Y63336341D01*
X42536500Y63323506D01*
X42536500Y62653993D01*
X42516498Y62585872D01*
X42509001Y62575421D01*
X42508883Y62575273D01*
X42411958Y62421018D01*
X42411957Y62421015D01*
X42351783Y62249047D01*
X42341290Y62155921D01*
X42313787Y62090470D01*
X42255263Y62050277D01*
X42184300Y62048105D01*
X42149910Y62063334D01*
X42149885Y62063287D01*
X42149289Y62063609D01*
X42147163Y62064551D01*
X42145299Y62065768D01*
X41947371Y62172882D01*
X41947369Y62172883D01*
X41734516Y62245955D01*
X41734507Y62245957D01*
X41654000Y62259390D01*
X41654000Y61355702D01*
X41592993Y61390925D01*
X41465826Y61425000D01*
X41334174Y61425000D01*
X41207007Y61390925D01*
X41146000Y61355702D01*
X41146000Y62259391D01*
X41065492Y62245957D01*
X41065483Y62245955D01*
X40852630Y62172883D01*
X40852628Y62172882D01*
X40654699Y62065768D01*
X40654698Y62065767D01*
X40477097Y61927534D01*
X40324674Y61761958D01*
X40201580Y61573548D01*
X40111179Y61367456D01*
X40111176Y61367449D01*
X40063455Y61179000D01*
X40969297Y61179000D01*
X40934075Y61117993D01*
X40900000Y60990826D01*
X40900000Y60859174D01*
X40934075Y60732007D01*
X40969297Y60671000D01*
X40063456Y60671000D01*
X40063455Y60670999D01*
X40111176Y60482550D01*
X40111179Y60482543D01*
X40201580Y60276451D01*
X40324674Y60088041D01*
X40467981Y59932367D01*
X40499401Y59868701D01*
X40491414Y59798156D01*
X40446554Y59743127D01*
X40419312Y59728975D01*
X40303796Y59685889D01*
X40303792Y59685887D01*
X40186738Y59598261D01*
X40099112Y59481207D01*
X40099110Y59481202D01*
X40048011Y59344204D01*
X40048009Y59344196D01*
X40041500Y59283649D01*
X40041500Y57486350D01*
X40048009Y57425803D01*
X40048011Y57425795D01*
X40099110Y57288797D01*
X40099112Y57288792D01*
X40186738Y57171738D01*
X40303792Y57084112D01*
X40303797Y57084110D01*
X40440795Y57033011D01*
X40440803Y57033009D01*
X40501350Y57026500D01*
X40501362Y57026500D01*
X42298649Y57026500D01*
X42359196Y57033009D01*
X42359204Y57033011D01*
X42496202Y57084110D01*
X42496207Y57084112D01*
X42613261Y57171738D01*
X42700887Y57288792D01*
X42700889Y57288797D01*
X42751988Y57425795D01*
X42751990Y57425803D01*
X42758499Y57486350D01*
X42758500Y57486367D01*
X42758500Y59283632D01*
X42758499Y59283649D01*
X42751990Y59344196D01*
X42751988Y59344204D01*
X42744960Y59363045D01*
X42700889Y59481204D01*
X42613261Y59598261D01*
X42496204Y59685889D01*
X42380684Y59728976D01*
X42323852Y59771521D01*
X42299041Y59838042D01*
X42314133Y59907416D01*
X42332018Y59932367D01*
X42475325Y60088041D01*
X42598419Y60276451D01*
X42688820Y60482543D01*
X42688823Y60482550D01*
X42736544Y60670999D01*
X42736544Y60671000D01*
X41830703Y60671000D01*
X41865925Y60732007D01*
X41900000Y60859174D01*
X41900000Y60990826D01*
X41865925Y61117993D01*
X41830703Y61179000D01*
X42736544Y61179000D01*
X42747207Y61192699D01*
X42748046Y61215044D01*
X42788645Y61273287D01*
X42854287Y61300336D01*
X42909138Y61293963D01*
X42963950Y61274784D01*
X42963953Y61274783D01*
X43145000Y61254384D01*
X43326047Y61274783D01*
X43380861Y61293963D01*
X43498015Y61334957D01*
X43498018Y61334958D01*
X43652279Y61431887D01*
X43652281Y61431888D01*
X43781111Y61560718D01*
X43781112Y61560720D01*
X43878041Y61714981D01*
X43878042Y61714984D01*
X43878043Y61714985D01*
X43938217Y61886953D01*
X43958616Y62068000D01*
X43938217Y62249047D01*
X43878043Y62421015D01*
X43781111Y62575281D01*
X43781104Y62575287D01*
X43780999Y62575421D01*
X43780952Y62575534D01*
X43777347Y62581273D01*
X43778351Y62581904D01*
X43754156Y62641148D01*
X43753500Y62653993D01*
X43753500Y62800000D01*
X48497201Y62800000D01*
X48517577Y62450153D01*
X48517577Y62450147D01*
X48578433Y62105015D01*
X48595865Y62046788D01*
X48673703Y61786790D01*
X48678944Y61769286D01*
X48678946Y61769280D01*
X48817744Y61447511D01*
X48817753Y61447493D01*
X48992968Y61144011D01*
X48992978Y61143995D01*
X49202250Y60862894D01*
X49442748Y60607983D01*
X49442754Y60607977D01*
X49711196Y60382726D01*
X50003998Y60190148D01*
X50317178Y60032863D01*
X50317183Y60032861D01*
X50646481Y59913006D01*
X50646486Y59913005D01*
X50646489Y59913004D01*
X50646490Y59913004D01*
X50680182Y59905018D01*
X50987492Y59832184D01*
X50987498Y59832183D01*
X51335572Y59791500D01*
X51335575Y59791500D01*
X51686028Y59791500D01*
X52034101Y59832183D01*
X52034107Y59832184D01*
X52188182Y59868701D01*
X52375110Y59913004D01*
X52375113Y59913005D01*
X52375118Y59913006D01*
X52704416Y60032861D01*
X52704421Y60032863D01*
X52704422Y60032863D01*
X52704426Y60032865D01*
X53017600Y60190147D01*
X53310397Y60382722D01*
X53310403Y60382726D01*
X53578845Y60607977D01*
X53578851Y60607983D01*
X53578857Y60607988D01*
X53819351Y60862896D01*
X54028625Y61144000D01*
X54203850Y61447499D01*
X54342657Y61769288D01*
X54443167Y62105016D01*
X54504022Y62450143D01*
X54524399Y62800000D01*
X54504022Y63149857D01*
X54443167Y63494984D01*
X54437593Y63513601D01*
X67914500Y63513601D01*
X67914500Y63266399D01*
X67932960Y63149846D01*
X67953172Y63022234D01*
X68029559Y62787140D01*
X68141790Y62566875D01*
X68287092Y62366885D01*
X68287094Y62366882D01*
X68461882Y62192094D01*
X68461885Y62192092D01*
X68661875Y62046790D01*
X68882140Y61934559D01*
X69117234Y61858172D01*
X69117239Y61858171D01*
X69117240Y61858171D01*
X69361399Y61819500D01*
X69361402Y61819500D01*
X69608598Y61819500D01*
X69608601Y61819500D01*
X69852760Y61858171D01*
X69852761Y61858171D01*
X69852765Y61858172D01*
X70087859Y61934559D01*
X70087863Y61934561D01*
X70308121Y62046788D01*
X70508112Y62192090D01*
X70508114Y62192092D01*
X70508117Y62192094D01*
X70682905Y62366882D01*
X70682907Y62366885D01*
X70682910Y62366888D01*
X70828212Y62566879D01*
X70940439Y62787137D01*
X71016829Y63022240D01*
X71055500Y63266399D01*
X71055500Y63513601D01*
X71016829Y63757760D01*
X70940439Y63992863D01*
X70828212Y64213121D01*
X70682910Y64413112D01*
X70508112Y64587910D01*
X70308121Y64733212D01*
X70087863Y64845439D01*
X69852760Y64921829D01*
X69608601Y64960500D01*
X69361399Y64960500D01*
X69117240Y64921829D01*
X68882137Y64845439D01*
X68661879Y64733212D01*
X68461888Y64587910D01*
X68461885Y64587907D01*
X68461882Y64587905D01*
X68287094Y64413117D01*
X68287092Y64413114D01*
X68287090Y64413112D01*
X68141788Y64213121D01*
X68079239Y64090362D01*
X68029559Y63992859D01*
X67953172Y63757765D01*
X67953171Y63757761D01*
X67953171Y63757760D01*
X67914500Y63513601D01*
X54437593Y63513601D01*
X54342657Y63830712D01*
X54203850Y64152501D01*
X54028625Y64456000D01*
X53819351Y64737104D01*
X53578857Y64992012D01*
X53327369Y65203037D01*
X53310403Y65217273D01*
X53310402Y65217273D01*
X53310397Y65217278D01*
X53017600Y65409853D01*
X52704426Y65567135D01*
X52375110Y65686996D01*
X52034106Y65767816D01*
X51816555Y65793243D01*
X51686028Y65808500D01*
X51686025Y65808500D01*
X51335575Y65808500D01*
X51335572Y65808500D01*
X51186397Y65791064D01*
X50987494Y65767816D01*
X50646490Y65686996D01*
X50646482Y65686993D01*
X50646481Y65686993D01*
X50481832Y65627065D01*
X50317174Y65567135D01*
X50004000Y65409853D01*
X49711203Y65217278D01*
X49711200Y65217276D01*
X49711196Y65217273D01*
X49442754Y64992022D01*
X49442749Y64992017D01*
X49442743Y64992012D01*
X49202249Y64737104D01*
X48992975Y64456000D01*
X48992968Y64455989D01*
X48992968Y64455988D01*
X48817753Y64152506D01*
X48817744Y64152488D01*
X48705722Y63892792D01*
X48678943Y63830712D01*
X48598639Y63562476D01*
X48578433Y63494984D01*
X48517577Y63149852D01*
X48517577Y63149846D01*
X48497201Y62800000D01*
X43753500Y62800000D01*
X43753500Y63323506D01*
X43773502Y63391627D01*
X43780992Y63402070D01*
X43781116Y63402225D01*
X43878041Y63556481D01*
X43878042Y63556484D01*
X43878043Y63556485D01*
X43938217Y63728453D01*
X43958616Y63909500D01*
X43938217Y64090547D01*
X43878043Y64262515D01*
X43781111Y64416781D01*
X43652281Y64545611D01*
X43498015Y64642543D01*
X43326047Y64702717D01*
X43145000Y64723116D01*
X42963953Y64702717D01*
X42928674Y64690372D01*
X42926115Y64689477D01*
X42855210Y64685858D01*
X42793605Y64721147D01*
X42760859Y64784140D01*
X42758500Y64808406D01*
X42758500Y65887632D01*
X42758498Y65887661D01*
X42751990Y65948196D01*
X42751988Y65948204D01*
X42733684Y65997278D01*
X42700889Y66085204D01*
X42613261Y66202261D01*
X42496204Y66289889D01*
X42380684Y66332976D01*
X42323852Y66375521D01*
X42299041Y66442042D01*
X42314133Y66511416D01*
X42332018Y66536367D01*
X42475325Y66692041D01*
X42598419Y66880451D01*
X42688820Y67086543D01*
X42688823Y67086550D01*
X42714678Y67188649D01*
X61981500Y67188649D01*
X61981500Y65091350D01*
X61988009Y65030803D01*
X61988011Y65030795D01*
X62039110Y64893797D01*
X62039112Y64893792D01*
X62126738Y64776738D01*
X62243792Y64689112D01*
X62243797Y64689110D01*
X62380795Y64638011D01*
X62380803Y64638009D01*
X62441350Y64631500D01*
X62441362Y64631500D01*
X64538649Y64631500D01*
X64599196Y64638009D01*
X64599204Y64638011D01*
X64736202Y64689110D01*
X64736207Y64689112D01*
X64853261Y64776738D01*
X64940887Y64893792D01*
X64940889Y64893797D01*
X64954914Y64931397D01*
X64980719Y65000582D01*
X64991988Y65030795D01*
X64991990Y65030803D01*
X64998499Y65091350D01*
X64998500Y65091367D01*
X64998500Y65806075D01*
X65018502Y65874196D01*
X65035405Y65895170D01*
X68312351Y69172116D01*
X68312354Y69172119D01*
X68422722Y69337296D01*
X68476477Y69467075D01*
X68498744Y69520831D01*
X68537500Y69715671D01*
X68537500Y70697043D01*
X68557502Y70765164D01*
X68570799Y70782380D01*
X68604714Y70819222D01*
X68604720Y70819229D01*
X68693517Y70955143D01*
X68747521Y71001231D01*
X68817869Y71010806D01*
X68882226Y70980829D01*
X68904483Y70955143D01*
X68993279Y70819229D01*
X68993285Y70819222D01*
X69027201Y70782380D01*
X69058622Y70718715D01*
X69060500Y70697043D01*
X69060500Y69078424D01*
X69040498Y69010303D01*
X69023595Y68989329D01*
X66105998Y66071732D01*
X66096849Y66063439D01*
X66063132Y66035768D01*
X66036821Y66003708D01*
X66035466Y66002057D01*
X66027170Y65992904D01*
X65996347Y65962081D01*
X65996346Y65962080D01*
X65972132Y65925841D01*
X65964766Y65915909D01*
X65937105Y65882204D01*
X65916549Y65843748D01*
X65910194Y65833146D01*
X65885980Y65796907D01*
X65885979Y65796905D01*
X65869292Y65756620D01*
X65864012Y65745456D01*
X65843459Y65707004D01*
X65843456Y65706997D01*
X65843456Y65706995D01*
X65830805Y65665288D01*
X65826643Y65653654D01*
X65826492Y65653289D01*
X65809956Y65613368D01*
X65801452Y65570615D01*
X65798448Y65558624D01*
X65785790Y65516895D01*
X65781519Y65473519D01*
X65779705Y65461285D01*
X65771200Y65418529D01*
X65771200Y65374934D01*
X65770593Y65362583D01*
X65766320Y65319201D01*
X65766320Y65319198D01*
X65770593Y65275815D01*
X65771200Y65263464D01*
X65771200Y65219863D01*
X65779704Y65177113D01*
X65781518Y65164884D01*
X65785790Y65121505D01*
X65798448Y65079775D01*
X65801450Y65067788D01*
X65809954Y65025036D01*
X65809957Y65025028D01*
X65826637Y64984760D01*
X65830802Y64973118D01*
X65843457Y64931397D01*
X65864012Y64892941D01*
X65869296Y64881769D01*
X65885978Y64841497D01*
X65885979Y64841495D01*
X65910194Y64805253D01*
X65916548Y64794653D01*
X65937104Y64756197D01*
X65937110Y64756188D01*
X65964766Y64722489D01*
X65972130Y64712561D01*
X65996347Y64676319D01*
X65996348Y64676317D01*
X66027170Y64645494D01*
X66035469Y64636337D01*
X66063131Y64602631D01*
X66096837Y64574969D01*
X66105994Y64566670D01*
X66136817Y64535848D01*
X66136819Y64535847D01*
X66173061Y64511630D01*
X66182989Y64504266D01*
X66216688Y64476610D01*
X66216697Y64476604D01*
X66255153Y64456048D01*
X66265753Y64449694D01*
X66301995Y64425479D01*
X66301997Y64425478D01*
X66342269Y64408796D01*
X66353441Y64403512D01*
X66391897Y64382957D01*
X66433618Y64370302D01*
X66445255Y64366138D01*
X66455974Y64361698D01*
X66485528Y64349457D01*
X66485536Y64349454D01*
X66528288Y64340950D01*
X66540275Y64337948D01*
X66582005Y64325290D01*
X66625384Y64321018D01*
X66637613Y64319204D01*
X66680363Y64310700D01*
X66680371Y64310700D01*
X66723966Y64310700D01*
X66736314Y64310093D01*
X66751567Y64308590D01*
X66779698Y64305820D01*
X66779700Y64305820D01*
X66779702Y64305820D01*
X66807832Y64308590D01*
X66823085Y64310093D01*
X66835434Y64310700D01*
X66879029Y64310700D01*
X66921789Y64319205D01*
X66934019Y64321019D01*
X66977395Y64325290D01*
X67019124Y64337948D01*
X67031111Y64340951D01*
X67073868Y64349456D01*
X67114154Y64366143D01*
X67125779Y64370302D01*
X67156078Y64379493D01*
X67167495Y64382956D01*
X67167497Y64382957D01*
X67167504Y64382959D01*
X67205956Y64403512D01*
X67217120Y64408792D01*
X67257405Y64425479D01*
X67257407Y64425480D01*
X67293646Y64449694D01*
X67304248Y64456049D01*
X67342704Y64476605D01*
X67376409Y64504266D01*
X67386341Y64511632D01*
X67422580Y64535846D01*
X67432346Y64545612D01*
X67453404Y64566670D01*
X67462557Y64574966D01*
X67475318Y64585439D01*
X67496268Y64602632D01*
X67523939Y64636349D01*
X67532232Y64645498D01*
X70852351Y67965616D01*
X70852354Y67965619D01*
X70962722Y68130797D01*
X71038744Y68314332D01*
X71077500Y68509172D01*
X71077500Y68707829D01*
X71077500Y70697043D01*
X71097502Y70765164D01*
X71110799Y70782380D01*
X71144714Y70819222D01*
X71144724Y70819234D01*
X71267858Y71007706D01*
X71267860Y71007709D01*
X71358296Y71213884D01*
X71361798Y71227711D01*
X71413562Y71432124D01*
X71413564Y71432132D01*
X71432156Y71656500D01*
X71413564Y71880868D01*
X71358296Y72099116D01*
X71267860Y72305291D01*
X71144722Y72493768D01*
X70992240Y72659406D01*
X70814576Y72797689D01*
X70616574Y72904842D01*
X70403635Y72977944D01*
X70181569Y73015000D01*
X69956431Y73015000D01*
X69734365Y72977944D01*
X69639533Y72945388D01*
X69521428Y72904843D01*
X69521427Y72904842D01*
X69521426Y72904842D01*
X69323424Y72797689D01*
X69213598Y72712207D01*
X69145762Y72659408D01*
X68993279Y72493770D01*
X68993275Y72493765D01*
X68937607Y72408558D01*
X68904481Y72357854D01*
X68850480Y72311768D01*
X68780132Y72302192D01*
X68715775Y72332169D01*
X68693519Y72357853D01*
X68604722Y72493768D01*
X68452240Y72659406D01*
X68274576Y72797689D01*
X68076574Y72904842D01*
X67863635Y72977944D01*
X67641569Y73015000D01*
X67416431Y73015000D01*
X67194365Y72977944D01*
X67099533Y72945388D01*
X66981428Y72904843D01*
X66981427Y72904842D01*
X66981426Y72904842D01*
X66783424Y72797689D01*
X66673598Y72712207D01*
X66605762Y72659408D01*
X66605760Y72659406D01*
X66544753Y72593136D01*
X66483902Y72556566D01*
X66412937Y72558701D01*
X66354392Y72598863D01*
X66334000Y72634437D01*
X66289889Y72752704D01*
X66202261Y72869761D01*
X66155400Y72904841D01*
X66085207Y72957387D01*
X66085206Y72957387D01*
X66085204Y72957389D01*
X65948201Y73008489D01*
X65948199Y73008489D01*
X65948196Y73008490D01*
X65887649Y73014999D01*
X65887645Y73014999D01*
X65887638Y73015000D01*
X64090362Y73015000D01*
X64090355Y73014999D01*
X64090350Y73014999D01*
X64029803Y73008490D01*
X64029795Y73008488D01*
X63951875Y72979424D01*
X63892796Y72957389D01*
X63892794Y72957388D01*
X63892792Y72957387D01*
X63775738Y72869761D01*
X63688112Y72752707D01*
X63688110Y72752702D01*
X63637011Y72615704D01*
X63637009Y72615696D01*
X63630500Y72555149D01*
X63630500Y70757850D01*
X63637009Y70697303D01*
X63637011Y70697295D01*
X63688110Y70560297D01*
X63688112Y70560292D01*
X63775738Y70443238D01*
X63892792Y70355612D01*
X63892797Y70355610D01*
X64029795Y70304511D01*
X64029803Y70304509D01*
X64090350Y70298000D01*
X64090362Y70298000D01*
X65887649Y70298000D01*
X65948196Y70304509D01*
X65948204Y70304511D01*
X66085202Y70355610D01*
X66085207Y70355612D01*
X66202261Y70443238D01*
X66293632Y70565295D01*
X66350468Y70607842D01*
X66421284Y70612906D01*
X66483596Y70578881D01*
X66517621Y70516569D01*
X66520500Y70489786D01*
X66520500Y70284924D01*
X66500498Y70216803D01*
X66483595Y70195829D01*
X63973171Y67685405D01*
X63910859Y67651379D01*
X63884076Y67648500D01*
X62441362Y67648500D01*
X62441355Y67648499D01*
X62441350Y67648499D01*
X62380803Y67641990D01*
X62380795Y67641988D01*
X62316783Y67618112D01*
X62243796Y67590889D01*
X62243794Y67590888D01*
X62243792Y67590887D01*
X62126738Y67503261D01*
X62039112Y67386207D01*
X62039110Y67386202D01*
X61988011Y67249204D01*
X61988009Y67249196D01*
X61981500Y67188649D01*
X42714678Y67188649D01*
X42736544Y67274999D01*
X42736544Y67275000D01*
X41830703Y67275000D01*
X41865925Y67336007D01*
X41900000Y67463174D01*
X41900000Y67594826D01*
X41865925Y67721993D01*
X41830703Y67783000D01*
X42736544Y67783000D01*
X42688823Y67971449D01*
X42688820Y67971456D01*
X42598419Y68177548D01*
X42475325Y68365958D01*
X42380653Y68468800D01*
X54421784Y68468800D01*
X54442183Y68287753D01*
X54442183Y68287750D01*
X54442184Y68287749D01*
X54502357Y68115784D01*
X54502358Y68115781D01*
X54599287Y67961520D01*
X54599288Y67961518D01*
X54728118Y67832688D01*
X54728120Y67832687D01*
X54882381Y67735758D01*
X54882384Y67735757D01*
X55054349Y67675584D01*
X55054350Y67675583D01*
X55054353Y67675583D01*
X55235400Y67655184D01*
X55416447Y67675583D01*
X55588415Y67735757D01*
X55596737Y67740986D01*
X55663775Y67760300D01*
X57423225Y67760300D01*
X57490263Y67740986D01*
X57498584Y67735757D01*
X57670549Y67675584D01*
X57670550Y67675583D01*
X57670553Y67675583D01*
X57851600Y67655184D01*
X58032647Y67675583D01*
X58204615Y67735757D01*
X58204618Y67735758D01*
X58358879Y67832687D01*
X58358881Y67832688D01*
X58487711Y67961518D01*
X58487712Y67961520D01*
X58584641Y68115781D01*
X58584642Y68115784D01*
X58584643Y68115785D01*
X58644817Y68287753D01*
X58665216Y68468800D01*
X58644817Y68649847D01*
X58584643Y68821815D01*
X58487711Y68976081D01*
X58358881Y69104911D01*
X58204615Y69201843D01*
X58032647Y69262017D01*
X57851600Y69282416D01*
X57670553Y69262017D01*
X57498585Y69201843D01*
X57498582Y69201841D01*
X57490263Y69196614D01*
X57423225Y69177300D01*
X55663775Y69177300D01*
X55596737Y69196614D01*
X55596311Y69196881D01*
X55588415Y69201843D01*
X55416447Y69262017D01*
X55235400Y69282416D01*
X55054353Y69262017D01*
X54882385Y69201843D01*
X54882382Y69201841D01*
X54882381Y69201841D01*
X54728120Y69104912D01*
X54728118Y69104911D01*
X54599288Y68976081D01*
X54599287Y68976079D01*
X54502358Y68821818D01*
X54502357Y68821815D01*
X54442183Y68649847D01*
X54421784Y68468800D01*
X42380653Y68468800D01*
X42322902Y68531534D01*
X42145301Y68669767D01*
X42145300Y68669768D01*
X41947371Y68776882D01*
X41947369Y68776883D01*
X41734516Y68849955D01*
X41734507Y68849957D01*
X41654000Y68863390D01*
X41654000Y67959702D01*
X41592993Y67994925D01*
X41465826Y68029000D01*
X41334174Y68029000D01*
X41207007Y67994925D01*
X41146000Y67959702D01*
X41146000Y68863391D01*
X41065492Y68849957D01*
X41065483Y68849955D01*
X40852630Y68776883D01*
X40852628Y68776882D01*
X40654699Y68669768D01*
X40654698Y68669767D01*
X40477097Y68531534D01*
X40324674Y68365958D01*
X40201580Y68177548D01*
X40111179Y67971456D01*
X40111176Y67971449D01*
X40063455Y67783000D01*
X40969297Y67783000D01*
X40934075Y67721993D01*
X40900000Y67594826D01*
X40900000Y67463174D01*
X40934075Y67336007D01*
X40969297Y67275000D01*
X40063456Y67275000D01*
X40063455Y67274999D01*
X40111176Y67086550D01*
X40111179Y67086543D01*
X40201580Y66880451D01*
X40324674Y66692041D01*
X40467981Y66536367D01*
X40499401Y66472701D01*
X40491414Y66402156D01*
X40446554Y66347127D01*
X40419312Y66332975D01*
X40303796Y66289889D01*
X40303792Y66289887D01*
X40186738Y66202261D01*
X40099112Y66085207D01*
X40099110Y66085202D01*
X40048011Y65948204D01*
X40048009Y65948196D01*
X40041502Y65887661D01*
X40041500Y65887632D01*
X12932979Y65887632D01*
X12933165Y65890000D01*
X12914535Y66126711D01*
X12859105Y66357594D01*
X12768240Y66576963D01*
X12644176Y66779416D01*
X12489969Y66959969D01*
X12464174Y66982000D01*
X14606384Y66982000D01*
X14626783Y66800953D01*
X14626783Y66800950D01*
X14626784Y66800949D01*
X14686957Y66628984D01*
X14686958Y66628981D01*
X14783887Y66474720D01*
X14783888Y66474718D01*
X14912718Y66345888D01*
X14912720Y66345887D01*
X15066981Y66248958D01*
X15066984Y66248957D01*
X15238949Y66188784D01*
X15238950Y66188783D01*
X15238953Y66188783D01*
X15420000Y66168384D01*
X15601047Y66188783D01*
X15773015Y66248957D01*
X15773018Y66248958D01*
X15927274Y66345883D01*
X15927430Y66346008D01*
X15927549Y66346056D01*
X15933273Y66349653D01*
X15933902Y66348650D01*
X15993159Y66372845D01*
X16005994Y66373500D01*
X18214006Y66373500D01*
X18282127Y66353498D01*
X18292570Y66346008D01*
X18292725Y66345883D01*
X18446981Y66248958D01*
X18446984Y66248957D01*
X18618949Y66188784D01*
X18618950Y66188783D01*
X18618953Y66188783D01*
X18800000Y66168384D01*
X18981047Y66188783D01*
X19153015Y66248957D01*
X19153018Y66248958D01*
X19307279Y66345887D01*
X19307281Y66345888D01*
X19436111Y66474718D01*
X19436112Y66474720D01*
X19533041Y66628981D01*
X19533042Y66628984D01*
X19533043Y66628985D01*
X19593217Y66800953D01*
X19613616Y66982000D01*
X19593217Y67163047D01*
X19533043Y67335015D01*
X19436111Y67489281D01*
X19307281Y67618111D01*
X19153015Y67715043D01*
X18981047Y67775217D01*
X18800000Y67795616D01*
X18618953Y67775217D01*
X18446985Y67715043D01*
X18446982Y67715041D01*
X18446981Y67715041D01*
X18292725Y67618116D01*
X18292570Y67617992D01*
X18292450Y67617943D01*
X18286727Y67614347D01*
X18286097Y67615349D01*
X18226841Y67591155D01*
X18214006Y67590500D01*
X16005994Y67590500D01*
X15937873Y67610502D01*
X15927430Y67617992D01*
X15927283Y67618108D01*
X15927281Y67618111D01*
X15927277Y67618113D01*
X15927274Y67618116D01*
X15773018Y67715041D01*
X15773015Y67715043D01*
X15601047Y67775217D01*
X15420000Y67795616D01*
X15238953Y67775217D01*
X15066985Y67715043D01*
X15066982Y67715041D01*
X15066981Y67715041D01*
X14912720Y67618112D01*
X14912718Y67618111D01*
X14783888Y67489281D01*
X14783887Y67489279D01*
X14686958Y67335018D01*
X14686957Y67335015D01*
X14626783Y67163047D01*
X14606384Y66982000D01*
X12464174Y66982000D01*
X12309416Y67114176D01*
X12106963Y67238240D01*
X11887594Y67329105D01*
X11656711Y67384535D01*
X11420000Y67403165D01*
X11183289Y67384535D01*
X10952406Y67329105D01*
X10733037Y67238240D01*
X10530584Y67114176D01*
X10530582Y67114174D01*
X10530580Y67114173D01*
X10350030Y66959969D01*
X10195826Y66779419D01*
X10195825Y66779417D01*
X10195824Y66779416D01*
X10103639Y66628984D01*
X10071759Y66576961D01*
X9980894Y66357592D01*
X9943603Y66202261D01*
X9925465Y66126711D01*
X9918308Y66035768D01*
X9906835Y65889998D01*
X9912304Y65820500D01*
X9897707Y65751020D01*
X9875787Y65721521D01*
X7268991Y63114725D01*
X7249898Y63099055D01*
X7107119Y63003653D01*
X6966647Y62863181D01*
X6856279Y62698004D01*
X6816882Y62602892D01*
X6780258Y62514474D01*
X6780256Y62514469D01*
X6741500Y62319631D01*
X6741500Y17858713D01*
X6721498Y17790592D01*
X6667842Y17744099D01*
X6597568Y17733995D01*
X6532988Y17763489D01*
X6526405Y17769618D01*
X6448117Y17847905D01*
X6448112Y17847910D01*
X6248121Y17993212D01*
X6027863Y18105439D01*
X5792760Y18181829D01*
X5548601Y18220500D01*
X5301399Y18220500D01*
X5057240Y18181829D01*
X5057234Y18181827D01*
X4829727Y18107905D01*
X4822137Y18105439D01*
X4601879Y17993212D01*
X4401888Y17847910D01*
X4401885Y17847907D01*
X4401882Y17847905D01*
X4227094Y17673117D01*
X4227092Y17673114D01*
X4227090Y17673112D01*
X4081788Y17473121D01*
X3982249Y17277765D01*
X3969559Y17252859D01*
X3893172Y17017765D01*
X3893171Y17017761D01*
X3893171Y17017760D01*
X3854500Y16773601D01*
X600000Y16773601D01*
X600000Y68875200D01*
X33720784Y68875200D01*
X33741183Y68694153D01*
X33741183Y68694150D01*
X33741184Y68694149D01*
X33801357Y68522184D01*
X33801358Y68522181D01*
X33898287Y68367920D01*
X33898288Y68367918D01*
X34027118Y68239088D01*
X34027120Y68239087D01*
X34181381Y68142158D01*
X34181384Y68142157D01*
X34353349Y68081984D01*
X34353350Y68081983D01*
X34353353Y68081983D01*
X34534400Y68061584D01*
X34715447Y68081983D01*
X34794455Y68109629D01*
X34836070Y68116700D01*
X36772730Y68116700D01*
X36814345Y68109629D01*
X36893349Y68081984D01*
X36893350Y68081983D01*
X36893353Y68081983D01*
X37074400Y68061584D01*
X37255447Y68081983D01*
X37352037Y68115781D01*
X37427415Y68142157D01*
X37427418Y68142158D01*
X37581679Y68239087D01*
X37581681Y68239088D01*
X37710511Y68367918D01*
X37710512Y68367920D01*
X37807441Y68522181D01*
X37807442Y68522184D01*
X37807443Y68522185D01*
X37867617Y68694153D01*
X37888016Y68875200D01*
X37867617Y69056247D01*
X37807443Y69228215D01*
X37710511Y69382481D01*
X37581681Y69511311D01*
X37427415Y69608243D01*
X37255447Y69668417D01*
X37074400Y69688816D01*
X36893353Y69668417D01*
X36814345Y69640771D01*
X36772730Y69633700D01*
X34836070Y69633700D01*
X34794455Y69640771D01*
X34715447Y69668417D01*
X34534400Y69688816D01*
X34353353Y69668417D01*
X34181385Y69608243D01*
X34181382Y69608241D01*
X34181381Y69608241D01*
X34027120Y69511312D01*
X34027118Y69511311D01*
X33898288Y69382481D01*
X33898287Y69382479D01*
X33801358Y69228218D01*
X33801357Y69228215D01*
X33741183Y69056247D01*
X33720784Y68875200D01*
X600000Y68875200D01*
X600000Y70776773D01*
X609591Y70824990D01*
X640407Y70899389D01*
X644135Y70907554D01*
X863448Y71345686D01*
X867756Y71353575D01*
X908906Y71422930D01*
X1117765Y71774942D01*
X1122625Y71782505D01*
X1190925Y71880875D01*
X1402059Y72184965D01*
X1407435Y72192147D01*
X1714864Y72573644D01*
X1720751Y72580438D01*
X1721786Y72581549D01*
X2054613Y72939030D01*
X2060971Y72945388D01*
X2160162Y73037738D01*
X2419562Y73279249D01*
X2426359Y73285138D01*
X2552741Y73386983D01*
X2807848Y73592561D01*
X2815043Y73597947D01*
X2815045Y73597948D01*
X3217494Y73877374D01*
X3225061Y73882237D01*
X3646424Y74132243D01*
X3654318Y74136553D01*
X3874307Y74246672D01*
X3930707Y74260000D01*
X13464604Y74260000D01*
X13532725Y74239998D01*
G37*
%TD.AperFunction*%
%TD*%
M02*
