%TF.GenerationSoftware,KiCad,Pcbnew,8.0.5-8.0.5-0~ubuntu22.04.1*%
%TF.CreationDate,2024-09-26T15:08:05+02:00*%
%TF.ProjectId,HB-UNI-SEN-BATT_ATMega1284P_E07-868MS10_FUEL4EP,48422d55-4e49-42d5-9345-4e2d42415454,1.5*%
%TF.SameCoordinates,Original*%
%TF.FileFunction,Copper,L1,Top*%
%TF.FilePolarity,Positive*%
%FSLAX46Y46*%
G04 Gerber Fmt 4.6, Leading zero omitted, Abs format (unit mm)*
G04 Created by KiCad (PCBNEW 8.0.5-8.0.5-0~ubuntu22.04.1) date 2024-09-26 15:08:05*
%MOMM*%
%LPD*%
G01*
G04 APERTURE LIST*
G04 Aperture macros list*
%AMRoundRect*
0 Rectangle with rounded corners*
0 $1 Rounding radius*
0 $2 $3 $4 $5 $6 $7 $8 $9 X,Y pos of 4 corners*
0 Add a 4 corners polygon primitive as box body*
4,1,4,$2,$3,$4,$5,$6,$7,$8,$9,$2,$3,0*
0 Add four circle primitives for the rounded corners*
1,1,$1+$1,$2,$3*
1,1,$1+$1,$4,$5*
1,1,$1+$1,$6,$7*
1,1,$1+$1,$8,$9*
0 Add four rect primitives between the rounded corners*
20,1,$1+$1,$2,$3,$4,$5,0*
20,1,$1+$1,$4,$5,$6,$7,0*
20,1,$1+$1,$6,$7,$8,$9,0*
20,1,$1+$1,$8,$9,$2,$3,0*%
G04 Aperture macros list end*
%TA.AperFunction,EtchedComponent*%
%ADD10C,0.000000*%
%TD*%
%TA.AperFunction,ComponentPad*%
%ADD11R,1.350000X1.350000*%
%TD*%
%TA.AperFunction,ComponentPad*%
%ADD12O,1.350000X1.350000*%
%TD*%
%TA.AperFunction,SMDPad,CuDef*%
%ADD13RoundRect,0.250000X-0.325000X-0.450000X0.325000X-0.450000X0.325000X0.450000X-0.325000X0.450000X0*%
%TD*%
%TA.AperFunction,ComponentPad*%
%ADD14R,1.700000X1.700000*%
%TD*%
%TA.AperFunction,ComponentPad*%
%ADD15O,1.700000X1.700000*%
%TD*%
%TA.AperFunction,SMDPad,CuDef*%
%ADD16RoundRect,0.250000X0.412500X0.650000X-0.412500X0.650000X-0.412500X-0.650000X0.412500X-0.650000X0*%
%TD*%
%TA.AperFunction,SMDPad,CuDef*%
%ADD17RoundRect,0.250000X-0.450000X0.350000X-0.450000X-0.350000X0.450000X-0.350000X0.450000X0.350000X0*%
%TD*%
%TA.AperFunction,SMDPad,CuDef*%
%ADD18RoundRect,0.250000X-0.350000X-0.450000X0.350000X-0.450000X0.350000X0.450000X-0.350000X0.450000X0*%
%TD*%
%TA.AperFunction,SMDPad,CuDef*%
%ADD19RoundRect,0.250000X0.350000X0.450000X-0.350000X0.450000X-0.350000X-0.450000X0.350000X-0.450000X0*%
%TD*%
%TA.AperFunction,ComponentPad*%
%ADD20R,1.717500X1.800000*%
%TD*%
%TA.AperFunction,ComponentPad*%
%ADD21O,1.717500X1.800000*%
%TD*%
%TA.AperFunction,SMDPad,CuDef*%
%ADD22R,2.170000X1.000000*%
%TD*%
%TA.AperFunction,ComponentPad*%
%ADD23C,1.000000*%
%TD*%
%TA.AperFunction,ComponentPad*%
%ADD24C,3.000000*%
%TD*%
%TA.AperFunction,SMDPad,CuDef*%
%ADD25R,1.500000X1.000000*%
%TD*%
%TA.AperFunction,ComponentPad*%
%ADD26C,4.400000*%
%TD*%
%TA.AperFunction,ComponentPad*%
%ADD27C,0.700000*%
%TD*%
%TA.AperFunction,ComponentPad*%
%ADD28C,2.000000*%
%TD*%
%TA.AperFunction,ComponentPad*%
%ADD29R,2.000000X2.000000*%
%TD*%
%TA.AperFunction,SMDPad,CuDef*%
%ADD30RoundRect,0.250000X0.250000X0.475000X-0.250000X0.475000X-0.250000X-0.475000X0.250000X-0.475000X0*%
%TD*%
%TA.AperFunction,SMDPad,CuDef*%
%ADD31RoundRect,0.250000X-0.250000X-0.475000X0.250000X-0.475000X0.250000X0.475000X-0.250000X0.475000X0*%
%TD*%
%TA.AperFunction,SMDPad,CuDef*%
%ADD32R,3.500000X2.400000*%
%TD*%
%TA.AperFunction,SMDPad,CuDef*%
%ADD33RoundRect,0.250000X0.650000X-0.412500X0.650000X0.412500X-0.650000X0.412500X-0.650000X-0.412500X0*%
%TD*%
%TA.AperFunction,SMDPad,CuDef*%
%ADD34R,1.000000X0.750000*%
%TD*%
%TA.AperFunction,SMDPad,CuDef*%
%ADD35R,3.000000X0.900000*%
%TD*%
%TA.AperFunction,SMDPad,CuDef*%
%ADD36RoundRect,0.100000X0.350000X0.100000X-0.350000X0.100000X-0.350000X-0.100000X0.350000X-0.100000X0*%
%TD*%
%TA.AperFunction,SMDPad,CuDef*%
%ADD37RoundRect,0.250000X0.450000X-0.350000X0.450000X0.350000X-0.450000X0.350000X-0.450000X-0.350000X0*%
%TD*%
%TA.AperFunction,SMDPad,CuDef*%
%ADD38R,0.550000X1.500000*%
%TD*%
%TA.AperFunction,SMDPad,CuDef*%
%ADD39R,1.500000X0.550000*%
%TD*%
%TA.AperFunction,SMDPad,CuDef*%
%ADD40RoundRect,0.250000X0.475000X-0.250000X0.475000X0.250000X-0.475000X0.250000X-0.475000X-0.250000X0*%
%TD*%
%TA.AperFunction,ComponentPad*%
%ADD41C,5.000000*%
%TD*%
%TA.AperFunction,ViaPad*%
%ADD42C,1.000000*%
%TD*%
%TA.AperFunction,ViaPad*%
%ADD43C,0.800000*%
%TD*%
%TA.AperFunction,ViaPad*%
%ADD44C,0.600000*%
%TD*%
%TA.AperFunction,Conductor*%
%ADD45C,0.500000*%
%TD*%
%TA.AperFunction,Conductor*%
%ADD46C,0.600000*%
%TD*%
%TA.AperFunction,Conductor*%
%ADD47C,0.200000*%
%TD*%
%TA.AperFunction,Conductor*%
%ADD48C,1.000000*%
%TD*%
%TA.AperFunction,Conductor*%
%ADD49C,0.400000*%
%TD*%
%TA.AperFunction,Conductor*%
%ADD50C,0.250000*%
%TD*%
G04 APERTURE END LIST*
D10*
%TA.AperFunction,EtchedComponent*%
%TO.C,JP2*%
G36*
X46937500Y65818500D02*
G01*
X46337500Y65818500D01*
X46337500Y66318500D01*
X46937500Y66318500D01*
X46937500Y65818500D01*
G37*
%TD.AperFunction*%
%TD*%
D11*
%TO.P,J11,1,Pin_1*%
%TO.N,/D7*%
X28667000Y21250000D03*
D12*
%TO.P,J11,2,Pin_2*%
%TO.N,/D6*%
X30667000Y21250000D03*
%TO.P,J11,3,Pin_3*%
%TO.N,/MISO*%
X32667000Y21250000D03*
%TO.P,J11,4,Pin_4*%
%TO.N,/D5*%
X34667000Y21250000D03*
%TO.P,J11,5,Pin_5*%
%TO.N,/SCK*%
X36667000Y21250000D03*
%TO.P,J11,6,Pin_6*%
%TO.N,/MOSI*%
X38667000Y21250000D03*
%TO.P,J11,7,Pin_7*%
%TO.N,GND*%
X40667000Y21250000D03*
%TO.P,J11,8,Pin_8*%
%TO.N,VCC*%
X42667000Y21250000D03*
%TD*%
D13*
%TO.P,D1,1,K*%
%TO.N,GND*%
X8138500Y72799500D03*
%TO.P,D1,2,A*%
%TO.N,Net-(D1-A)*%
X10188500Y72799500D03*
%TD*%
D14*
%TO.P,J7,1,Pin_1*%
%TO.N,VCC*%
X34890000Y1997000D03*
D15*
%TO.P,J7,2,Pin_2*%
%TO.N,GND*%
X34890000Y4537000D03*
%TO.P,J7,3,Pin_3*%
%TO.N,/SCL*%
X34890000Y7077000D03*
%TO.P,J7,4,Pin_4*%
%TO.N,/SDA*%
X34890000Y9617000D03*
%TD*%
D14*
%TO.P,J3,1,Pin_1*%
%TO.N,/A1*%
X44796000Y44097500D03*
D15*
%TO.P,J3,2,Pin_2*%
%TO.N,GND*%
X47336000Y44097500D03*
%TD*%
D14*
%TO.P,J4,1,Pin_1*%
%TO.N,/A3*%
X44796000Y47780500D03*
D15*
%TO.P,J4,2,Pin_2*%
%TO.N,GND*%
X47336000Y47780500D03*
%TD*%
D14*
%TO.P,J5,1,Pin_1*%
%TO.N,VCC*%
X56480000Y8220000D03*
D15*
%TO.P,J5,2,Pin_2*%
%TO.N,/minusBAT*%
X59020000Y8220000D03*
%TO.P,J5,3,Pin_3*%
%TO.N,/MOSI*%
X61560000Y8220000D03*
%TO.P,J5,4,Pin_4*%
%TO.N,/SCK*%
X64100000Y8220000D03*
%TO.P,J5,5,Pin_5*%
%TO.N,/MISO*%
X66640000Y8220000D03*
%TO.P,J5,6,Pin_6*%
%TO.N,/RSETB*%
X69180000Y8220000D03*
%TD*%
D16*
%TO.P,C1,1*%
%TO.N,VCC*%
X45850500Y36414000D03*
%TO.P,C1,2*%
%TO.N,GND*%
X42725500Y36414000D03*
%TD*%
D17*
%TO.P,R4,1*%
%TO.N,VCC*%
X22190000Y50749000D03*
%TO.P,R4,2*%
%TO.N,/SCL*%
X22190000Y48749000D03*
%TD*%
%TO.P,R5,1*%
%TO.N,VCC*%
X24984000Y50765000D03*
%TO.P,R5,2*%
%TO.N,/SDA*%
X24984000Y48765000D03*
%TD*%
D18*
%TO.P,R1,1*%
%TO.N,Net-(U1-PD4)*%
X8172500Y70704000D03*
%TO.P,R1,2*%
%TO.N,Net-(D1-A)*%
X10172500Y70704000D03*
%TD*%
D19*
%TO.P,R3,1*%
%TO.N,VCC*%
X17941600Y8181900D03*
%TO.P,R3,2*%
%TO.N,Net-(Q1-G)*%
X15941600Y8181900D03*
%TD*%
D20*
%TO.P,Q1,1,G*%
%TO.N,Net-(Q1-G)*%
X6950000Y8220000D03*
D21*
%TO.P,Q1,2,D*%
%TO.N,/minusBAT*%
X9240000Y8220000D03*
%TO.P,Q1,3,S*%
%TO.N,GND*%
X11530000Y8220000D03*
%TD*%
D14*
%TO.P,J10,1,Pin_1*%
%TO.N,VCC*%
X64989000Y71656500D03*
D15*
%TO.P,J10,2,Pin_2*%
%TO.N,/plusBAT*%
X67529000Y71656500D03*
%TO.P,J10,3,Pin_3*%
%TO.N,/minusBAT*%
X70069000Y71656500D03*
%TD*%
D22*
%TO.P,Module1,1A,GND*%
%TO.N,GND*%
X21715000Y35250000D03*
D23*
X22800000Y35250000D03*
D22*
%TO.P,Module1,1C,VCC*%
%TO.N,VCC*%
X40345000Y27800000D03*
D23*
X39260000Y27800000D03*
D24*
%TO.P,Module1,2A,ANT*%
%TO.N,unconnected-(Module1-ANT-Pad2A)*%
X22800000Y37530000D03*
D22*
%TO.P,Module1,2C,GDO0*%
%TO.N,/D2*%
X40345000Y29070000D03*
D23*
X39260000Y29070000D03*
%TO.P,Module1,3C,~{CSN}*%
%TO.N,/SS*%
X39260000Y30340000D03*
D22*
X40345000Y30340000D03*
%TO.P,Module1,4C,SCK*%
%TO.N,/SCK*%
X40345000Y31610000D03*
D23*
X39260000Y31610000D03*
D22*
%TO.P,Module1,5C,MOSI*%
%TO.N,/MOSI*%
X40345000Y32880000D03*
D23*
X39260000Y32880000D03*
D22*
%TO.P,Module1,6C,MISO/GDO1*%
%TO.N,/MISO*%
X40345000Y34150000D03*
D23*
X39260000Y34150000D03*
D22*
%TO.P,Module1,7C,GDO2*%
%TO.N,unconnected-(Module1-GDO2-Pad7C)_1*%
X40345000Y35420000D03*
D23*
X39260000Y35420000D03*
D22*
%TO.P,Module1,8C,GND*%
%TO.N,GND*%
X40345000Y36690000D03*
D23*
X39260000Y36690000D03*
%TD*%
D25*
%TO.P,JP2,1,A*%
%TO.N,/plusBAT*%
X46637500Y66718500D03*
%TO.P,JP2,2,B*%
%TO.N,VCC*%
X46637500Y65418500D03*
%TD*%
D14*
%TO.P,J8,1,Pin_1*%
%TO.N,VCC*%
X39970000Y1997000D03*
D15*
%TO.P,J8,2,Pin_2*%
%TO.N,GND*%
X39970000Y4537000D03*
%TO.P,J8,3,Pin_3*%
%TO.N,/SCL*%
X39970000Y7077000D03*
%TO.P,J8,4,Pin_4*%
%TO.N,/SDA*%
X39970000Y9617000D03*
%TD*%
D26*
%TO.P,H2,1*%
%TO.N,N/C*%
X60000000Y71750000D03*
D27*
X61800000Y71750000D03*
X61272800Y70477200D03*
X60000000Y69950000D03*
X58727200Y70477200D03*
X58200000Y71750000D03*
X58727200Y73022800D03*
X60000000Y73550000D03*
X61272800Y73022800D03*
%TD*%
D26*
%TO.P,H4,1*%
%TO.N,N/C*%
X60000000Y3250000D03*
D27*
X61800000Y3250000D03*
X61272800Y1977200D03*
X60000000Y1450000D03*
X58727200Y1977200D03*
X58200000Y3250000D03*
X58727200Y4522800D03*
X60000000Y5050000D03*
X61272800Y4522800D03*
%TD*%
D26*
%TO.P,H1,1*%
%TO.N,N/C*%
X15000000Y71750000D03*
D27*
X16800000Y71750000D03*
X16272800Y70477200D03*
X15000000Y69950000D03*
X13727200Y70477200D03*
X13200000Y71750000D03*
X13727200Y73022800D03*
X15000000Y73550000D03*
X16272800Y73022800D03*
%TD*%
D26*
%TO.P,H3,1*%
%TO.N,N/C*%
X15000000Y3250000D03*
D27*
X16800000Y3250000D03*
X16272800Y1977200D03*
X15000000Y1450000D03*
X13727200Y1977200D03*
X13200000Y3250000D03*
X13727200Y4522800D03*
X15000000Y5050000D03*
X16272800Y4522800D03*
%TD*%
D28*
%TO.P,BT2,2,-*%
%TO.N,/minusBAT*%
X11420000Y65890000D03*
D29*
%TO.P,BT2,1,+*%
%TO.N,/conBAT*%
X11420000Y13900000D03*
%TD*%
D30*
%TO.P,C2,1*%
%TO.N,GND*%
X31168900Y42950000D03*
%TO.P,C2,2*%
%TO.N,/VAVCC*%
X29268900Y42950000D03*
%TD*%
%TO.P,C4,1*%
%TO.N,VCC*%
X34316000Y58639000D03*
%TO.P,C4,2*%
%TO.N,GND*%
X32416000Y58639000D03*
%TD*%
D31*
%TO.P,C6,1*%
%TO.N,Net-(U1-XTAL1)*%
X28542500Y64481000D03*
%TO.P,C6,2*%
%TO.N,GND*%
X30442500Y64481000D03*
%TD*%
D30*
%TO.P,C8,1*%
%TO.N,Net-(U1-AREF)*%
X34801100Y43106900D03*
%TO.P,C8,2*%
%TO.N,GND*%
X32901100Y43106900D03*
%TD*%
D14*
%TO.P,J12,1,Pin_1*%
%TO.N,/DTR*%
X28070100Y72139100D03*
D15*
%TO.P,J12,2,Pin_2*%
%TO.N,/TXD0*%
X30610100Y72139100D03*
%TO.P,J12,3,Pin_3*%
%TO.N,/RXD0*%
X33150100Y72139100D03*
%TO.P,J12,4,Pin_4*%
%TO.N,VCC*%
X35690100Y72139100D03*
%TO.P,J12,5,Pin_5*%
%TO.N,GND*%
X38230100Y72139100D03*
%TO.P,J12,6,Pin_6*%
X40770100Y72139100D03*
%TD*%
D19*
%TO.P,R2,1*%
%TO.N,VCC*%
X33315200Y69129200D03*
%TO.P,R2,2*%
%TO.N,/RSETB*%
X31315200Y69129200D03*
%TD*%
%TO.P,R6,1*%
%TO.N,VCC*%
X31143500Y41000000D03*
%TO.P,R6,2*%
%TO.N,/VAVCC*%
X29143500Y41000000D03*
%TD*%
D32*
%TO.P,Y1,1,1*%
%TO.N,Net-(U1-XTAL1)*%
X29051500Y61560000D03*
%TO.P,Y1,2,2*%
%TO.N,Net-(U1-XTAL2)*%
X34251500Y61560000D03*
%TD*%
D33*
%TO.P,C5,1*%
%TO.N,VCC*%
X38065000Y60962300D03*
%TO.P,C5,2*%
%TO.N,GND*%
X38065000Y64087300D03*
%TD*%
D34*
%TO.P,SW2,A*%
%TO.N,GND*%
X48500000Y73375000D03*
%TO.P,SW2,B,e*%
X54500000Y73375000D03*
%TO.P,SW2,C*%
%TO.N,/RSETB*%
X48500000Y69625000D03*
%TO.P,SW2,D*%
X54500000Y69625000D03*
%TD*%
%TO.P,SW1,A*%
%TO.N,/CONFIG*%
X24800000Y69625000D03*
%TO.P,SW1,B,e*%
X18800000Y69625000D03*
%TO.P,SW1,C*%
%TO.N,GND*%
X24800000Y73375000D03*
%TO.P,SW1,D*%
X18800000Y73375000D03*
%TD*%
D28*
%TO.P,BT1,2,-*%
%TO.N,/conBAT*%
X63490000Y14150000D03*
D29*
%TO.P,BT1,1,+*%
%TO.N,/plusBAT*%
X63490000Y66140000D03*
%TD*%
D31*
%TO.P,C11,1*%
%TO.N,/plusBAT*%
X52080680Y48946360D03*
%TO.P,C11,2*%
%TO.N,GND*%
X53980680Y48946360D03*
%TD*%
%TO.P,C12,1*%
%TO.N,/Vout*%
X52101000Y55789120D03*
%TO.P,C12,2*%
%TO.N,GND*%
X54001000Y55789120D03*
%TD*%
%TO.P,C13,1*%
%TO.N,/Vout*%
X52101000Y57795720D03*
%TO.P,C13,2*%
%TO.N,GND*%
X54001000Y57795720D03*
%TD*%
D25*
%TO.P,JP3,1,A*%
%TO.N,/Vout*%
X46688300Y61811700D03*
%TO.P,JP3,2,B*%
%TO.N,VCC*%
X46688300Y63111700D03*
%TD*%
D35*
%TO.P,L1,1,1*%
%TO.N,/plusBAT*%
X48733000Y51316000D03*
%TO.P,L1,2,2*%
%TO.N,Net-(U2-L)*%
X48733000Y53416000D03*
%TD*%
D36*
%TO.P,U2,1,VIN*%
%TO.N,/plusBAT*%
X54214500Y52718500D03*
%TO.P,U2,2,FB*%
%TO.N,/Vout*%
X54214500Y53368500D03*
%TO.P,U2,3,GND*%
%TO.N,GND*%
X54214500Y54018500D03*
%TO.P,U2,4,VOUT*%
%TO.N,/Vout*%
X52014500Y54018500D03*
%TO.P,U2,5,L*%
%TO.N,Net-(U2-L)*%
X52014500Y53368500D03*
%TO.P,U2,6,EN*%
%TO.N,/plusBAT*%
X52014500Y52718500D03*
%TD*%
D19*
%TO.P,R8,1*%
%TO.N,/plusBAT*%
X46558000Y57115000D03*
%TO.P,R8,2*%
%TO.N,/A0*%
X44558000Y57115000D03*
%TD*%
D37*
%TO.P,R7,1*%
%TO.N,/A0*%
X42616680Y53615640D03*
%TO.P,R7,2*%
%TO.N,/A2*%
X42616680Y55615640D03*
%TD*%
D14*
%TO.P,J1,1,Pin_1*%
%TO.N,/PB0_T0*%
X41400000Y64989000D03*
D15*
%TO.P,J1,2,Pin_2*%
%TO.N,GND*%
X41400000Y67529000D03*
%TD*%
D14*
%TO.P,J6,1,Pin_1*%
%TO.N,VCC*%
X24730000Y2000000D03*
D15*
%TO.P,J6,2,Pin_2*%
%TO.N,GND*%
X24730000Y4540000D03*
%TO.P,J6,3,Pin_3*%
%TO.N,/SCL*%
X24730000Y7080000D03*
%TO.P,J6,4,Pin_4*%
%TO.N,/SDA*%
X24730000Y9620000D03*
%TD*%
D31*
%TO.P,C10,1*%
%TO.N,/plusBAT*%
X52080680Y50942800D03*
%TO.P,C10,2*%
%TO.N,GND*%
X53980680Y50942800D03*
%TD*%
D30*
%TO.P,C9,1*%
%TO.N,/RSETB*%
X29474800Y69129200D03*
%TO.P,C9,2*%
%TO.N,/DTR*%
X27574800Y69129200D03*
%TD*%
%TO.P,C7,1*%
%TO.N,Net-(U1-XTAL2)*%
X34697000Y64481000D03*
%TO.P,C7,2*%
%TO.N,GND*%
X32797000Y64481000D03*
%TD*%
D38*
%TO.P,U1,1,PB5*%
%TO.N,/MOSI*%
X36832600Y56604700D03*
%TO.P,U1,2,PB6*%
%TO.N,/MISO*%
X36032600Y56604700D03*
%TO.P,U1,3,PB7*%
%TO.N,/SCK*%
X35232600Y56604700D03*
%TO.P,U1,4,~{RESET}*%
%TO.N,/RSETB*%
X34432600Y56604700D03*
%TO.P,U1,5,VCC*%
%TO.N,VCC*%
X33632600Y56604700D03*
%TO.P,U1,6,GND*%
%TO.N,GND*%
X32832600Y56604700D03*
%TO.P,U1,7,XTAL2*%
%TO.N,Net-(U1-XTAL2)*%
X32032600Y56604700D03*
%TO.P,U1,8,XTAL1*%
%TO.N,Net-(U1-XTAL1)*%
X31232600Y56604700D03*
%TO.P,U1,9,PD0*%
%TO.N,/RXD0*%
X30432600Y56604700D03*
%TO.P,U1,10,PD1*%
%TO.N,/TXD0*%
X29632600Y56604700D03*
%TO.P,U1,11,PD2*%
%TO.N,/D2*%
X28832600Y56604700D03*
D39*
%TO.P,U1,12,PD3*%
%TO.N,unconnected-(U1-PD3-Pad12)*%
X27132600Y54904700D03*
%TO.P,U1,13,PD4*%
%TO.N,Net-(U1-PD4)*%
X27132600Y54104700D03*
%TO.P,U1,14,PD5*%
%TO.N,/D5*%
X27132600Y53304700D03*
%TO.P,U1,15,PD6*%
%TO.N,/D6*%
X27132600Y52504700D03*
%TO.P,U1,16,PD7*%
%TO.N,/D7*%
X27132600Y51704700D03*
%TO.P,U1,17,VCC*%
%TO.N,VCC*%
X27132600Y50904700D03*
%TO.P,U1,18,GND*%
%TO.N,GND*%
X27132600Y50104700D03*
%TO.P,U1,19,PC0*%
%TO.N,/SCL*%
X27132600Y49304700D03*
%TO.P,U1,20,PC1*%
%TO.N,/SDA*%
X27132600Y48504700D03*
%TO.P,U1,21,PC2*%
%TO.N,unconnected-(U1-PC2-Pad21)*%
X27132600Y47704700D03*
%TO.P,U1,22,PC3*%
%TO.N,unconnected-(U1-PC3-Pad22)*%
X27132600Y46904700D03*
D38*
%TO.P,U1,23,PC4*%
%TO.N,unconnected-(U1-PC4-Pad23)*%
X28832600Y45204700D03*
%TO.P,U1,24,PC5*%
%TO.N,unconnected-(U1-PC5-Pad24)*%
X29632600Y45204700D03*
%TO.P,U1,25,PC6*%
%TO.N,/CONFIG*%
X30432600Y45204700D03*
%TO.P,U1,26,PC7*%
%TO.N,unconnected-(U1-PC7-Pad26)*%
X31232600Y45204700D03*
%TO.P,U1,27,AVCC*%
%TO.N,/VAVCC*%
X32032600Y45204700D03*
%TO.P,U1,28,GND*%
%TO.N,GND*%
X32832600Y45204700D03*
%TO.P,U1,29,AREF*%
%TO.N,Net-(U1-AREF)*%
X33632600Y45204700D03*
%TO.P,U1,30,PA7*%
%TO.N,unconnected-(U1-PA7-Pad30)*%
X34432600Y45204700D03*
%TO.P,U1,31,PA6*%
%TO.N,unconnected-(U1-PA6-Pad31)*%
X35232600Y45204700D03*
%TO.P,U1,32,PA5*%
%TO.N,unconnected-(U1-PA5-Pad32)*%
X36032600Y45204700D03*
%TO.P,U1,33,PA4*%
%TO.N,unconnected-(U1-PA4-Pad33)*%
X36832600Y45204700D03*
D39*
%TO.P,U1,34,PA3*%
%TO.N,unconnected-(U1-PA3-Pad34)*%
X38532600Y46904700D03*
%TO.P,U1,35,PA2*%
%TO.N,unconnected-(U1-PA2-Pad35)*%
X38532600Y47704700D03*
%TO.P,U1,36,PA1*%
%TO.N,/A1*%
X38532600Y48504700D03*
%TO.P,U1,37,PA0*%
%TO.N,/A0*%
X38532600Y49304700D03*
%TO.P,U1,38,VCC*%
%TO.N,VCC*%
X38532600Y50104700D03*
%TO.P,U1,39,GND*%
%TO.N,GND*%
X38532600Y50904700D03*
%TO.P,U1,40,PB0*%
%TO.N,/PB0_T0*%
X38532600Y51704700D03*
%TO.P,U1,41,PB1*%
%TO.N,/PB1_T1*%
X38532600Y52504700D03*
%TO.P,U1,42,PB2*%
%TO.N,/A3*%
X38532600Y53304700D03*
%TO.P,U1,43,PB3*%
%TO.N,/A2*%
X38532600Y54104700D03*
%TO.P,U1,44,PB4*%
%TO.N,/SS*%
X38532600Y54904700D03*
%TD*%
D40*
%TO.P,C3,1*%
%TO.N,VCC*%
X41176500Y49751500D03*
%TO.P,C3,2*%
%TO.N,GND*%
X41176500Y51651500D03*
%TD*%
D14*
%TO.P,J2,1,Pin_1*%
%TO.N,/PB1_T1*%
X41400000Y58385000D03*
D15*
%TO.P,J2,2,Pin_2*%
%TO.N,GND*%
X41400000Y60925000D03*
%TD*%
D14*
%TO.P,J9,1,Pin_1*%
%TO.N,VCC*%
X50130000Y2000000D03*
D15*
%TO.P,J9,2,Pin_2*%
%TO.N,GND*%
X50130000Y4540000D03*
%TO.P,J9,3,Pin_3*%
%TO.N,/SCL*%
X50130000Y7080000D03*
%TO.P,J9,4,Pin_4*%
%TO.N,/SDA*%
X50130000Y9620000D03*
%TD*%
D41*
%TO.P,H5,1*%
%TO.N,N/C*%
X23510800Y62800000D03*
%TD*%
%TO.P,H6,1*%
%TO.N,N/C*%
X23510800Y19800000D03*
%TD*%
%TO.P,H7,1*%
%TO.N,N/C*%
X51510800Y62800000D03*
%TD*%
%TO.P,H8,1*%
%TO.N,N/C*%
X51510800Y19800000D03*
%TD*%
D42*
%TO.N,GND*%
X54956000Y55210000D03*
D43*
X47336000Y23764800D03*
D44*
X41176500Y52479500D03*
X30572000Y48669500D03*
X32822962Y55448238D03*
D42*
X55083000Y48987000D03*
X55083000Y50638000D03*
D43*
X10658400Y17567200D03*
X45405600Y17618000D03*
D44*
X31651500Y62893500D03*
X5172000Y72609000D03*
D42*
X54956000Y56480000D03*
D44*
X32416000Y59779500D03*
X51878600Y73375000D03*
X31651500Y64481000D03*
X21809000Y73371000D03*
X38065000Y65624000D03*
D42*
X54956000Y57877000D03*
D44*
%TO.N,/SS*%
X37239500Y53432000D03*
X36998006Y40986000D03*
%TO.N,/D2*%
X31461000Y55354698D03*
X38192000Y40922500D03*
X31461000Y49354700D03*
X38192000Y42681890D03*
%TO.N,/A0*%
X42446500Y48733000D03*
X40160500Y48733000D03*
%TO.N,/A1*%
X42510004Y44859500D03*
X40097000Y44922998D03*
%TO.N,/A3*%
X44732500Y50892000D03*
X42891000Y50892000D03*
%TO.N,/MOSI*%
X42340000Y25370000D03*
X35969500Y40986000D03*
X36096500Y54067000D03*
%TO.N,/SCK*%
X43070000Y26040000D03*
X34763000Y40986000D03*
X34636000Y54067000D03*
X43070000Y31510000D03*
%TO.N,/MISO*%
X35969500Y39970000D03*
X44097500Y26635000D03*
X35345499Y52162000D03*
%TO.N,VCC*%
X57851600Y68468800D03*
X30064000Y50892000D03*
X55235400Y68468800D03*
X30082364Y54593364D03*
X34534400Y68875200D03*
X37074400Y68875200D03*
D42*
%TO.N,/minusBAT*%
X66779700Y65319200D03*
%TO.N,/plusBAT*%
X55210000Y52162000D03*
X51146000Y51527000D03*
D44*
%TO.N,/D5*%
X33683500Y53432000D03*
X33937500Y40033500D03*
%TO.N,/D6*%
X33073997Y40986000D03*
X33274000Y52504700D03*
%TO.N,/D7*%
X28679800Y51704700D03*
X28382602Y49077988D03*
%TO.N,/CONFIG*%
X25117301Y44154699D03*
X28089199Y44154699D03*
X15420000Y66982000D03*
X18800000Y66982000D03*
%TO.N,/PB0_T0*%
X40287500Y52987500D03*
X43145000Y63909500D03*
X43145000Y62068000D03*
X40220565Y55108282D03*
%TD*%
D45*
%TO.N,GND*%
X54448000Y50638000D02*
X54194000Y50892000D01*
X8138500Y72799500D02*
X5362500Y72799500D01*
X55083000Y50638000D02*
X54448000Y50638000D01*
X18796300Y73375000D02*
X21813000Y73375000D01*
X30563150Y48678350D02*
X30572000Y48669500D01*
X32832600Y46454700D02*
X30563150Y48724150D01*
X54500000Y73375000D02*
X51878600Y73375000D01*
X38065000Y64087300D02*
X38065000Y65624000D01*
X32832600Y45204700D02*
X32832600Y46454700D01*
D46*
X24730000Y4540000D02*
X34887000Y4540000D01*
D45*
X30563150Y48724150D02*
X30563150Y48678350D01*
X40554200Y50904700D02*
X41176500Y51527000D01*
D46*
X51480000Y5890000D02*
X51480000Y11543600D01*
D45*
X54001000Y55789120D02*
X54001000Y54260000D01*
X54956000Y57877000D02*
X53940000Y57877000D01*
X31588000Y64481000D02*
X31651500Y64481000D01*
X30563150Y48724150D02*
X29182600Y50104700D01*
X32832600Y56604700D02*
X32832600Y58219900D01*
X5362500Y72799500D02*
X5172000Y72609000D01*
X54001000Y57795720D02*
X54001000Y55784000D01*
X29182600Y50104700D02*
X27132600Y50104700D01*
D46*
X11530000Y8220000D02*
X9701200Y6391200D01*
D47*
X54232280Y54021040D02*
X53582280Y54021040D01*
D46*
X34890000Y4537000D02*
X39970000Y4537000D01*
D45*
X54956000Y56480000D02*
X54321000Y55845000D01*
D46*
X51480000Y11543600D02*
X45405600Y17618000D01*
D47*
X53582280Y54021040D02*
X52924000Y53362760D01*
D45*
X31651500Y64481000D02*
X31651500Y62893500D01*
X31588000Y64481000D02*
X32794500Y64481000D01*
X38532600Y50904700D02*
X40554200Y50904700D01*
X55083000Y48987000D02*
X54067000Y48987000D01*
D46*
X4511600Y6391200D02*
X4511600Y11420400D01*
D45*
X21813000Y73375000D02*
X21809000Y73371000D01*
X32832600Y56604700D02*
X32832600Y55457876D01*
D47*
X52924000Y52035000D02*
X54067000Y50892000D01*
D46*
X4511600Y11420400D02*
X10658400Y17567200D01*
D45*
X54956000Y55210000D02*
X54321000Y55845000D01*
D48*
X40345000Y36690000D02*
X42792800Y36690000D01*
D45*
X51878600Y73375000D02*
X48432200Y73375000D01*
X30442500Y64481000D02*
X31588000Y64481000D01*
D47*
X52924000Y53362760D02*
X52924000Y52035000D01*
D46*
X47336000Y44097500D02*
X47336000Y23764800D01*
D45*
X41176500Y51651500D02*
X41176500Y52479500D01*
D46*
X39970000Y4537000D02*
X50127000Y4537000D01*
X50127000Y4537000D02*
X50130000Y4540000D01*
D45*
X32901100Y43106900D02*
X32901100Y45006900D01*
X32416000Y58639000D02*
X32416000Y59779500D01*
D46*
X50130000Y4540000D02*
X51480000Y5890000D01*
D45*
X32901100Y43106900D02*
X31359400Y43106900D01*
X21813000Y73375000D02*
X24853000Y73375000D01*
D46*
X9701200Y6391200D02*
X4511600Y6391200D01*
D49*
X54270200Y50841200D02*
X54331160Y50780240D01*
D46*
X34887000Y4540000D02*
X34890000Y4537000D01*
D45*
X32832600Y55457876D02*
X32822962Y55448238D01*
X32832600Y58219900D02*
X32477000Y58575500D01*
D47*
%TO.N,Net-(U1-XTAL1)*%
X29051500Y59778500D02*
X31270500Y57559500D01*
X31270500Y57559500D02*
X31270500Y56670500D01*
X28542500Y64481000D02*
X28542500Y62129000D01*
X29051500Y61560000D02*
X29051500Y59778500D01*
%TO.N,/SS*%
X42470334Y38509500D02*
X39474506Y38509500D01*
X39474506Y38509500D02*
X36998006Y40986000D01*
X37239500Y54561600D02*
X37239500Y53432000D01*
X42788002Y30340000D02*
X43688010Y31240008D01*
X38532600Y54904700D02*
X37582600Y54904700D01*
X37582600Y54904700D02*
X37239500Y54561600D01*
X39260000Y30340000D02*
X42788002Y30340000D01*
X43688010Y37291824D02*
X42470334Y38509500D01*
X43688010Y31240008D02*
X43688010Y37291824D01*
%TO.N,/D2*%
X38192000Y42681890D02*
X38192000Y45410302D01*
X29317600Y55354698D02*
X28857500Y55814798D01*
X44088020Y37457513D02*
X40623033Y40922500D01*
X42083700Y29070000D02*
X44088020Y31074319D01*
X38192000Y45410302D02*
X34170802Y49431500D01*
X40345000Y29070000D02*
X42083700Y29070000D01*
X44088020Y31074319D02*
X44088020Y37457513D01*
X28857500Y55814798D02*
X28857500Y56607000D01*
X31461000Y49431500D02*
X31461000Y49354700D01*
X34170802Y49431500D02*
X31461000Y49431500D01*
X31461000Y55354698D02*
X29317600Y55354698D01*
X40623033Y40922500D02*
X38192000Y40922500D01*
%TO.N,/SCL*%
X23122010Y49665010D02*
X22190000Y48733000D01*
X22063000Y48860000D02*
X25717302Y45205698D01*
X25661824Y49665010D02*
X23122010Y49665010D01*
X20221500Y11588500D02*
X24730000Y7080000D01*
X20221500Y23554702D02*
X20221500Y11588500D01*
X24730000Y7080000D02*
X34887000Y7080000D01*
X25717302Y29050504D02*
X20221500Y23554702D01*
X27132600Y49304700D02*
X26022134Y49304700D01*
X25717302Y45205698D02*
X25717302Y29050504D01*
X26022134Y49304700D02*
X25661824Y49665010D01*
X34890000Y7077000D02*
X50130000Y7077000D01*
%TO.N,/SDA*%
X27132600Y48504700D02*
X25212300Y48504700D01*
X24107700Y9604300D02*
X35512300Y9604300D01*
X40097000Y9617000D02*
X50003000Y9617000D01*
X26698500Y11588500D02*
X24730000Y9620000D01*
X24984000Y48733000D02*
X24984000Y47488298D01*
X34890000Y9617000D02*
X40097000Y9617000D01*
X24984000Y47488298D02*
X26698500Y45773798D01*
X26698500Y45773798D02*
X26698500Y11588500D01*
D50*
%TO.N,/A0*%
X43780000Y50066500D02*
X42446500Y48733000D01*
X44558000Y55556960D02*
X42616680Y53615640D01*
X43780000Y52452320D02*
X43780000Y50066500D01*
X42616680Y53615640D02*
X43780000Y52452320D01*
X44558000Y57115000D02*
X44558000Y55556960D01*
D47*
X39588800Y49304700D02*
X38532600Y49304700D01*
X39588800Y49304700D02*
X40160500Y48733000D01*
%TO.N,/A1*%
X44034000Y44859500D02*
X44669000Y44224500D01*
X42510004Y44859500D02*
X44034000Y44859500D01*
X38532600Y48504700D02*
X39482600Y48504700D01*
X40097000Y47890300D02*
X40097000Y44922998D01*
X39482600Y48504700D02*
X40097000Y47890300D01*
%TO.N,/A2*%
X39970000Y54067000D02*
X38509500Y54067000D01*
X40462000Y54559000D02*
X39970000Y54067000D01*
X41732000Y54559000D02*
X42827500Y55654500D01*
X41732000Y54559000D02*
X40462000Y54559000D01*
%TO.N,/A3*%
X42891000Y51653002D02*
X42891000Y50892000D01*
X40956501Y53587501D02*
X42891000Y51653002D01*
X39691598Y53279600D02*
X39999499Y53587501D01*
X38547600Y53279600D02*
X39691598Y53279600D01*
X44732500Y50892000D02*
X44732500Y47907500D01*
X39999499Y53587501D02*
X40956501Y53587501D01*
%TO.N,/MOSI*%
X42340000Y24877500D02*
X38636500Y21174000D01*
X36832600Y55593298D02*
X36096500Y54857198D01*
X35369499Y36570501D02*
X35369499Y40385999D01*
X42340000Y25370000D02*
X42340000Y24877500D01*
X39060000Y32880000D02*
X35369499Y36570501D01*
X40345000Y32880000D02*
X39060000Y32880000D01*
X36832600Y56604700D02*
X36832600Y55593298D01*
X36096500Y54857198D02*
X36096500Y54067000D01*
X35369499Y40385999D02*
X35969500Y40986000D01*
%TO.N,/SCK*%
X43070000Y26040000D02*
X41026000Y26040000D01*
X35144000Y55751098D02*
X35144000Y56353000D01*
X41026000Y26040000D02*
X36668000Y21682000D01*
X34572500Y31905500D02*
X34572500Y40986000D01*
X39258800Y31638800D02*
X34839200Y31638800D01*
X34636000Y55243098D02*
X34636000Y54067000D01*
X34636000Y55243098D02*
X35144000Y55751098D01*
X43070000Y31510000D02*
X40302000Y31510000D01*
X34839200Y31638800D02*
X34572500Y31905500D01*
%TO.N,/MISO*%
X35271000Y52162000D02*
X35345499Y52162000D01*
X35642001Y21668003D02*
X35642001Y20781999D01*
X40803998Y26830000D02*
X35642001Y21668003D01*
X36363200Y39576300D02*
X35969500Y39970000D01*
X33693501Y20274999D02*
X32731000Y21237500D01*
X36363200Y36972800D02*
X39208000Y34128000D01*
X44080000Y26830000D02*
X40803998Y26830000D01*
X36363200Y36972800D02*
X36363200Y39576300D01*
X35642001Y20781999D02*
X35135001Y20274999D01*
X35135001Y20274999D02*
X33693501Y20274999D01*
X35271000Y55078098D02*
X35271000Y52162000D01*
X36160000Y55967098D02*
X35271000Y55078098D01*
%TO.N,Net-(U1-XTAL2)*%
X32301500Y61560000D02*
X31461000Y60719500D01*
X31461000Y60719500D02*
X31461000Y57941302D01*
X34697000Y64481000D02*
X34697000Y62129000D01*
X31969000Y57433302D02*
X31969000Y56797500D01*
X34251500Y61560000D02*
X32301500Y61560000D01*
X31461000Y57941302D02*
X31969000Y57433302D01*
D49*
%TO.N,VCC*%
X64989000Y71593000D02*
X61864800Y68468800D01*
D45*
X45847500Y27800000D02*
X45850500Y27803000D01*
X38065000Y60962300D02*
X38065000Y61992602D01*
X34261144Y41931890D02*
X40979390Y41931890D01*
X44887200Y63111700D02*
X39642100Y63111700D01*
X40884300Y50104700D02*
X41176500Y49812500D01*
X42667000Y21250000D02*
X45697500Y21250000D01*
X33366000Y69815000D02*
X33366000Y69180000D01*
D49*
X33110044Y54593364D02*
X33023366Y54593364D01*
D45*
X38532600Y50104700D02*
X40884300Y50104700D01*
D49*
X41228004Y46130204D02*
X45565706Y46130204D01*
D48*
X41228004Y46130204D02*
X41228004Y42180504D01*
D45*
X30064000Y50892000D02*
X27066800Y50892000D01*
X24222000Y1997000D02*
X17999000Y8220000D01*
X46688300Y63111700D02*
X44887200Y63111700D01*
D49*
X45487499Y67538501D02*
X45487499Y65898499D01*
D45*
X35017000Y1997000D02*
X24730000Y1997000D01*
X45850500Y20183000D02*
X45850500Y21403000D01*
X45850500Y27803000D02*
X45850500Y21403000D01*
D48*
X41228004Y46839996D02*
X41228004Y46130204D01*
D45*
X33582601Y55065921D02*
X33582601Y54989721D01*
X33632600Y56604700D02*
X33632600Y55817528D01*
D48*
X40979390Y41931890D02*
X42718239Y41931890D01*
X45850500Y36414000D02*
X45850500Y27803000D01*
X34318500Y58639000D02*
X35779000Y58639000D01*
D45*
X44887200Y63111700D02*
X45184010Y62814890D01*
X34065255Y41736001D02*
X34261144Y41931890D01*
D48*
X41435486Y49492514D02*
X41435486Y47150486D01*
D45*
X41228004Y42180504D02*
X40979390Y41931890D01*
D49*
X45558000Y60911700D02*
X45184010Y61285690D01*
D45*
X36714990Y63342612D02*
X36714990Y68515790D01*
X33186244Y54593364D02*
X33110044Y54593364D01*
D49*
X46637500Y65418500D02*
X46637500Y63223700D01*
D45*
X31143500Y41000000D02*
X31879501Y41736001D01*
X33632600Y55817528D02*
X33582601Y55767529D01*
X41176500Y46891500D02*
X41228004Y46839996D01*
D48*
X41435486Y47150486D02*
X41176500Y46891500D01*
D45*
X56480000Y8220000D02*
X50130000Y1870000D01*
D49*
X45184010Y61285690D02*
X45184010Y62914890D01*
D45*
X38532600Y50104700D02*
X30851300Y50104700D01*
X38065000Y61992602D02*
X36714990Y63342612D01*
D49*
X55235400Y68468800D02*
X46417798Y68468800D01*
D45*
X34534400Y68875200D02*
X33366000Y68875200D01*
D49*
X46046001Y50568449D02*
X45558000Y51056450D01*
D45*
X30064000Y50892000D02*
X30851300Y50104700D01*
X45697500Y21250000D02*
X45850500Y21403000D01*
D49*
X45558000Y51056450D02*
X45558000Y60911700D01*
D45*
X22190000Y50749000D02*
X24968000Y50749000D01*
D48*
X35779000Y58639000D02*
X38065000Y60925000D01*
D49*
X45487499Y65898499D02*
X46041398Y65344600D01*
X46417798Y68468800D02*
X45487499Y67538501D01*
D45*
X50003000Y1997000D02*
X35017000Y1997000D01*
D49*
X45565706Y46130204D02*
X46046001Y46610499D01*
D45*
X33582601Y54989721D02*
X33186244Y54593364D01*
X33023366Y54593364D02*
X30082364Y54593364D01*
X35690100Y72139100D02*
X33366000Y69815000D01*
X36714990Y68515790D02*
X37074400Y68875200D01*
D48*
X40345000Y27800000D02*
X45847500Y27800000D01*
D45*
X31879501Y41736001D02*
X34065255Y41736001D01*
D49*
X33582601Y55078599D02*
X33582601Y55065921D01*
D45*
X33632600Y57953100D02*
X34318500Y58639000D01*
D49*
X61864800Y68468800D02*
X57851600Y68468800D01*
D48*
X41176500Y49751500D02*
X41435486Y49492514D01*
X42718239Y41931890D02*
X45850500Y38799629D01*
D45*
X33632600Y56604700D02*
X33632600Y57953100D01*
X56480000Y9553500D02*
X45850500Y20183000D01*
X27132600Y50904700D02*
X25377700Y50904700D01*
X56480000Y8220000D02*
X56480000Y9553500D01*
D48*
X45850500Y38799629D02*
X45850500Y36414000D01*
D45*
X39642100Y63111700D02*
X38192000Y61661600D01*
X33582601Y55767529D02*
X33582601Y55078599D01*
D49*
X46046001Y46610499D02*
X46046001Y50568449D01*
D47*
%TO.N,Net-(U1-AREF)*%
X34801100Y43106900D02*
X33620000Y44288000D01*
X33620000Y44288000D02*
X33620000Y45177000D01*
D48*
%TO.N,/minusBAT*%
X61179000Y14554398D02*
X61179000Y59769300D01*
X61179000Y59769300D02*
X66728900Y65319200D01*
X66728900Y65319200D02*
X66779700Y65319200D01*
X59020000Y8220000D02*
X59020000Y12395398D01*
X59020000Y12395398D02*
X61179000Y14554398D01*
%TO.N,/plusBAT*%
X63490000Y65940000D02*
X61890000Y65940000D01*
X61890000Y65940000D02*
X56683200Y60733200D01*
X46533000Y52253800D02*
X46533000Y57090000D01*
X55791952Y47521350D02*
X53337170Y47521350D01*
D49*
X54650960Y52721040D02*
X55210000Y52162000D01*
D47*
X56336732Y52135572D02*
X56683200Y52482040D01*
D48*
X52162000Y50892000D02*
X47894800Y50892000D01*
D49*
X54232280Y52721040D02*
X54650960Y52721040D01*
D50*
X52014500Y52718500D02*
X52014500Y52395500D01*
D48*
X56683200Y52482040D02*
X56683200Y48412598D01*
X53337170Y47521350D02*
X52162000Y48696520D01*
D49*
X54489000Y52670000D02*
X54041600Y52670000D01*
D48*
X56683200Y60733200D02*
X56683200Y52797000D01*
X56363160Y52162000D02*
X56683200Y52482040D01*
X51146000Y51527000D02*
X51781000Y50892000D01*
D49*
X49964900Y50803100D02*
X48948900Y50803100D01*
D48*
X56683200Y52797000D02*
X56683200Y52482040D01*
X56683200Y48412598D02*
X55791952Y47521350D01*
D49*
X56556200Y52670000D02*
X56683200Y52797000D01*
D48*
X55210000Y52162000D02*
X56363160Y52162000D01*
D50*
X52014500Y52395500D02*
X51146000Y51527000D01*
D49*
X54489000Y52670000D02*
X54295600Y52670000D01*
X46637500Y66718500D02*
X62726100Y66718500D01*
D48*
X52162000Y48696520D02*
X52162000Y50892000D01*
X47894800Y50892000D02*
X46533000Y52253800D01*
D47*
%TO.N,Net-(D1-A)*%
X10188500Y72799500D02*
X10188500Y70831000D01*
%TO.N,/D5*%
X33937500Y21999500D02*
X34699500Y21237500D01*
X33556200Y53304700D02*
X33683500Y53432000D01*
X33937500Y40033500D02*
X33937500Y21999500D01*
X27132600Y53304700D02*
X33556200Y53304700D01*
%TO.N,/D6*%
X30699000Y36795000D02*
X30699000Y21301000D01*
X27132600Y52504700D02*
X33274000Y52504700D01*
X33073997Y40986000D02*
X33073997Y39169997D01*
X33073997Y39169997D02*
X30699000Y36795000D01*
%TO.N,/D7*%
X28382602Y49077988D02*
X28382602Y46319704D01*
X27489198Y22415302D02*
X28667000Y21237500D01*
X27489198Y45426300D02*
X27489198Y22415302D01*
X27132600Y51704700D02*
X28679800Y51704700D01*
X28382602Y46319704D02*
X27489198Y45426300D01*
%TO.N,/CONFIG*%
X30432600Y44439698D02*
X30147601Y44154699D01*
X30432600Y45204700D02*
X30432600Y44439698D01*
X15420000Y66982000D02*
X15420000Y48391000D01*
X19656301Y44154699D02*
X15420000Y48391000D01*
X18800000Y69625000D02*
X18800000Y66982000D01*
X30147601Y44154699D02*
X28089199Y44154699D01*
X18796300Y69625000D02*
X24819400Y69625000D01*
X25117301Y44154699D02*
X19656301Y44154699D01*
%TO.N,/DTR*%
X28032000Y69751500D02*
X28032000Y69497500D01*
X28070100Y72139100D02*
X28070100Y69789600D01*
X28070100Y69789600D02*
X28032000Y69751500D01*
%TO.N,/RSETB*%
X23140003Y70300001D02*
X26129103Y73289101D01*
X30014198Y53813000D02*
X28347497Y55479701D01*
X71593000Y10442500D02*
X69370500Y8220000D01*
X25412799Y55479701D02*
X19884989Y61007511D01*
X19884989Y61007511D02*
X19884989Y64341908D01*
X29493111Y73689111D02*
X29460099Y73656099D01*
X39620099Y71587099D02*
X39620099Y72451103D01*
X28347497Y55479701D02*
X25412799Y55479701D01*
X26129103Y73289101D02*
X29446097Y73289101D01*
X39620099Y72451103D02*
X38382091Y73689111D01*
X70513500Y67592500D02*
X71593000Y66513000D01*
X29474800Y69129200D02*
X29474800Y71572398D01*
X34445500Y56607000D02*
X34445500Y55852598D01*
X41582198Y69625000D02*
X39620099Y71587099D01*
X29460099Y73656099D02*
X29460099Y73275099D01*
X41582198Y69625000D02*
X55464500Y69625000D01*
X57497000Y67592500D02*
X70513500Y67592500D01*
X71593000Y66513000D02*
X71593000Y10442500D01*
X29446097Y73289101D02*
X29460099Y73275099D01*
X31315200Y69129200D02*
X29098596Y69129200D01*
X34445500Y55852598D02*
X34132612Y55539710D01*
X33183713Y53813000D02*
X30014198Y53813000D01*
X34132612Y55539710D02*
X34132612Y54761899D01*
X17999996Y66226901D02*
X17999996Y70239997D01*
X29460099Y73275099D02*
X29460099Y69656901D01*
X17999996Y70239997D02*
X18059999Y70300001D01*
X19884989Y64341908D02*
X17999996Y66226901D01*
X18059999Y70300001D02*
X23140003Y70300001D01*
X34132612Y54761899D02*
X33183713Y53813000D01*
X55464500Y69625000D02*
X57497000Y67592500D01*
X38382091Y73689111D02*
X29493111Y73689111D01*
%TO.N,/RXD0*%
X29334792Y58467510D02*
X30445000Y57357302D01*
X26662099Y65015333D02*
X26662099Y59246901D01*
X30445000Y57357302D02*
X30445000Y57115000D01*
X28667766Y67021000D02*
X26662099Y65015333D01*
X27441490Y58467510D02*
X29334792Y58467510D01*
X34001000Y67021000D02*
X28667766Y67021000D01*
X34300101Y73289101D02*
X36242101Y73289101D01*
X36840101Y72691101D02*
X36840101Y69808715D01*
X26662099Y59246901D02*
X27441490Y58467510D01*
X33150100Y72139100D02*
X34300101Y73289101D01*
X36840101Y69808715D02*
X36788715Y69808715D01*
X36788715Y69808715D02*
X34001000Y67021000D01*
X36242101Y73289101D02*
X36840101Y72691101D01*
%TO.N,/TXD0*%
X29619500Y57382802D02*
X28934802Y58067500D01*
X21134499Y68949999D02*
X24769501Y68949999D01*
X29619500Y56607000D02*
X29619500Y57382802D01*
X28934802Y58067500D02*
X23523500Y58067500D01*
X25615310Y68104190D02*
X24769501Y68949999D01*
X32215210Y68251396D02*
X32068004Y68104190D01*
X23523500Y58067500D02*
X20285000Y61306000D01*
X30610100Y71412134D02*
X32215210Y69807024D01*
X20285000Y68100500D02*
X21134499Y68949999D01*
X32068004Y68104190D02*
X25615310Y68104190D01*
X32215210Y68251396D02*
X32215210Y69807024D01*
X20285000Y61306000D02*
X20285000Y68100500D01*
%TO.N,Net-(Q1-G)*%
X14087400Y10125000D02*
X8867700Y10125000D01*
X15941600Y8270800D02*
X14087400Y10125000D01*
X8867700Y10125000D02*
X6886500Y8143800D01*
%TO.N,Net-(U1-PD4)*%
X19459500Y64201698D02*
X16983000Y66678198D01*
X10379000Y68481500D02*
X8156500Y70704000D01*
X19459500Y60243100D02*
X19459500Y64201698D01*
X16983000Y66678198D02*
X16983000Y68481500D01*
X25572100Y54130500D02*
X19459500Y60243100D01*
X16983000Y68481500D02*
X10379000Y68481500D01*
X27079500Y54130500D02*
X25572100Y54130500D01*
%TO.N,/Vout*%
X55793411Y53974411D02*
X55793411Y58918400D01*
X55139000Y53320000D02*
X55793411Y53974411D01*
X52101000Y57795720D02*
X52101000Y54128000D01*
X55793411Y58918400D02*
X53203400Y58918400D01*
X52101000Y57795720D02*
X50709120Y57795720D01*
X53203400Y58918400D02*
X52487120Y58202120D01*
D48*
X50688800Y57775400D02*
X46726400Y61737800D01*
D47*
X50709120Y57795720D02*
X50688800Y57775400D01*
X54489000Y53320000D02*
X55139000Y53320000D01*
%TO.N,/VAVCC*%
X31724812Y44131910D02*
X30690511Y44131910D01*
X32032600Y44439698D02*
X31724812Y44131910D01*
X32032600Y45204700D02*
X32032600Y44439698D01*
X30690511Y44131910D02*
X29322601Y42764000D01*
X29268900Y42950000D02*
X29268900Y41016400D01*
%TO.N,/PB1_T1*%
X36639499Y53143999D02*
X36639499Y53784499D01*
X37240498Y52543000D02*
X37938000Y52543000D01*
X36839490Y55000490D02*
X40224000Y58385000D01*
X37240498Y52543000D02*
X36639499Y53143999D01*
X36839490Y53984490D02*
X36839490Y55000490D01*
X41240000Y58385000D02*
X40224000Y58385000D01*
X36639499Y53784499D02*
X36839490Y53984490D01*
%TO.N,/PB0_T0*%
X39482600Y51704700D02*
X40287500Y52509600D01*
X40287500Y52509600D02*
X40287500Y52987500D01*
X43145000Y63909500D02*
X41938500Y65116000D01*
X43145000Y57807699D02*
X40445583Y55108282D01*
X38532600Y51704700D02*
X39482600Y51704700D01*
X43145000Y62068000D02*
X43145000Y57807699D01*
%TD*%
%TA.AperFunction,Conductor*%
%TO.N,GND*%
G36*
X55112972Y58491998D02*
G01*
X55114743Y58490838D01*
X55407892Y58295405D01*
X55453477Y58240976D01*
X55464000Y58190567D01*
X55464000Y54381558D01*
X55443998Y54313437D01*
X55416717Y54283173D01*
X54863510Y53840608D01*
X54797825Y53813675D01*
X54784802Y53813000D01*
X53813000Y53813000D01*
X53559000Y53686000D01*
X53559000Y53685999D01*
X53559000Y52288998D01*
X53812998Y52035000D01*
X53813000Y52035000D01*
X54126567Y52035000D01*
X54194688Y52014998D01*
X54231405Y51978892D01*
X54426838Y51685743D01*
X54447982Y51617968D01*
X54448000Y51615851D01*
X54448000Y51146000D01*
X55411810Y51146000D01*
X55479931Y51125998D01*
X55500905Y51109095D01*
X55681095Y50928905D01*
X55715121Y50866593D01*
X55718000Y50839810D01*
X55718000Y48531190D01*
X55697998Y48463069D01*
X55681095Y48442095D01*
X55500905Y48261905D01*
X55438593Y48227879D01*
X55411810Y48225000D01*
X53715745Y48225000D01*
X53659396Y48238302D01*
X53580638Y48277681D01*
X53547892Y48301284D01*
X53468905Y48380271D01*
X53434879Y48442583D01*
X53432000Y48469366D01*
X53432000Y51399999D01*
X53432000Y51400000D01*
X52590579Y52241420D01*
X52556556Y52303731D01*
X52561620Y52374546D01*
X52590581Y52419609D01*
X52616704Y52445732D01*
X52616705Y52445734D01*
X52616706Y52445735D01*
X52662085Y52548509D01*
X52665000Y52573635D01*
X52664999Y52734500D01*
X52685001Y52802620D01*
X52738656Y52849113D01*
X52790999Y52860500D01*
X52797000Y52860500D01*
X52797000Y53760809D01*
X52817002Y53828930D01*
X52833905Y53849904D01*
X53304999Y54320998D01*
X53305000Y54321000D01*
X53305000Y57960351D01*
X53305016Y57962383D01*
X53308696Y58190567D01*
X53309039Y58211867D01*
X53330137Y58279654D01*
X53345928Y58298928D01*
X53522095Y58475095D01*
X53584407Y58509121D01*
X53611190Y58512000D01*
X55044851Y58512000D01*
X55112972Y58491998D01*
G37*
%TD.AperFunction*%
%TD*%
%TA.AperFunction,Conductor*%
%TO.N,Net-(U2-L)*%
G36*
X50961121Y54681998D02*
G01*
X51007614Y54628342D01*
X51019000Y54576000D01*
X51019000Y53812998D01*
X51209498Y53622500D01*
X51209500Y53622500D01*
X51573566Y53622500D01*
X51588088Y53621660D01*
X51619630Y53618000D01*
X52353500Y53618000D01*
X52421621Y53597998D01*
X52468114Y53544342D01*
X52479500Y53492000D01*
X52479500Y53244999D01*
X52459498Y53176878D01*
X52405842Y53130385D01*
X52353504Y53118999D01*
X51619636Y53118999D01*
X51594509Y53116085D01*
X51594508Y53116084D01*
X51588077Y53115339D01*
X51573562Y53114500D01*
X51336500Y53114500D01*
X50989952Y52825710D01*
X50924817Y52797467D01*
X50910671Y52796515D01*
X47883649Y52763777D01*
X47826613Y52776737D01*
X47303823Y53034244D01*
X47251553Y53082287D01*
X47233500Y53147275D01*
X47233500Y54576000D01*
X47253502Y54644121D01*
X47307158Y54690614D01*
X47359500Y54702000D01*
X50893000Y54702000D01*
X50961121Y54681998D01*
G37*
%TD.AperFunction*%
%TD*%
%TA.AperFunction,Conductor*%
%TO.N,GND*%
G36*
X32219032Y60948395D02*
G01*
X32275868Y60905848D01*
X32300679Y60839328D01*
X32301000Y60830339D01*
X32301000Y60340249D01*
X32312632Y60281771D01*
X32312633Y60281768D01*
X32356948Y60215448D01*
X32423268Y60171133D01*
X32423271Y60171132D01*
X32481749Y60159500D01*
X35868320Y60159500D01*
X35936441Y60139498D01*
X35982934Y60085842D01*
X35993038Y60015568D01*
X35963544Y59950988D01*
X35954976Y59942030D01*
X35688448Y59689530D01*
X35625239Y59657201D01*
X35601792Y59655000D01*
X31887500Y59655000D01*
X31819379Y59675002D01*
X31772886Y59728658D01*
X31761500Y59781000D01*
X31761500Y60542839D01*
X31781502Y60610960D01*
X31798405Y60631934D01*
X32085905Y60919434D01*
X32148217Y60953460D01*
X32219032Y60948395D01*
G37*
%TD.AperFunction*%
%TA.AperFunction,Conductor*%
G36*
X35412857Y65751415D02*
G01*
X35480804Y65730832D01*
X35497243Y65718005D01*
X36223953Y65047196D01*
X36260442Y64986294D01*
X36264490Y64954611D01*
X36264490Y63283302D01*
X36282707Y63215314D01*
X36287000Y63182704D01*
X36287000Y63046103D01*
X36266998Y62977982D01*
X36213342Y62931489D01*
X36143068Y62921385D01*
X36090997Y62941339D01*
X36079731Y62948867D01*
X36021248Y62960500D01*
X36021247Y62960500D01*
X35123500Y62960500D01*
X35055379Y62980502D01*
X35008886Y63034158D01*
X34997500Y63086500D01*
X34997500Y63456985D01*
X35017502Y63525106D01*
X35071158Y63571599D01*
X35081885Y63575914D01*
X35159881Y63603206D01*
X35159885Y63603208D01*
X35269150Y63683849D01*
X35349791Y63793114D01*
X35349793Y63793118D01*
X35394644Y63921295D01*
X35394645Y63921299D01*
X35394646Y63921301D01*
X35397500Y63951734D01*
X35397500Y65010266D01*
X35394646Y65040699D01*
X35349793Y65168882D01*
X35269150Y65278150D01*
X35159882Y65358793D01*
X35031699Y65403646D01*
X35001266Y65406500D01*
X34392734Y65406500D01*
X34362301Y65403646D01*
X34362295Y65403644D01*
X34234118Y65358793D01*
X34234114Y65358791D01*
X34124849Y65278150D01*
X34044208Y65168885D01*
X34044206Y65168881D01*
X33999355Y65040704D01*
X33999354Y65040700D01*
X33996500Y65010266D01*
X33996500Y63951733D01*
X33999354Y63921299D01*
X33999355Y63921295D01*
X34044206Y63793118D01*
X34044208Y63793114D01*
X34124849Y63683849D01*
X34234114Y63603208D01*
X34234118Y63603206D01*
X34312115Y63575914D01*
X34369807Y63534536D01*
X34395969Y63468535D01*
X34396500Y63456985D01*
X34396500Y63086500D01*
X34376498Y63018379D01*
X34322842Y62971886D01*
X34270500Y62960500D01*
X32481752Y62960500D01*
X32423269Y62948867D01*
X32356948Y62904552D01*
X32312633Y62838231D01*
X32312632Y62838228D01*
X32301000Y62779750D01*
X32301000Y61967649D01*
X32280998Y61899528D01*
X32227342Y61853035D01*
X32207615Y61845944D01*
X32185511Y61840021D01*
X32116989Y61800460D01*
X31276489Y60959960D01*
X31217095Y60900566D01*
X31154783Y60866540D01*
X31083968Y60871605D01*
X31027132Y60914152D01*
X31002321Y60980672D01*
X31002000Y60989661D01*
X31002000Y62779746D01*
X31002000Y62779748D01*
X30990367Y62838231D01*
X30946052Y62904552D01*
X30879731Y62948867D01*
X30821248Y62960500D01*
X30821247Y62960500D01*
X28969000Y62960500D01*
X28900879Y62980502D01*
X28854386Y63034158D01*
X28843000Y63086500D01*
X28843000Y63456985D01*
X28863002Y63525106D01*
X28916658Y63571599D01*
X28927385Y63575914D01*
X29005381Y63603206D01*
X29005385Y63603208D01*
X29114650Y63683849D01*
X29195291Y63793114D01*
X29195293Y63793118D01*
X29240144Y63921295D01*
X29240145Y63921299D01*
X29240146Y63921301D01*
X29243000Y63951734D01*
X29243000Y65010266D01*
X29240146Y65040699D01*
X29195293Y65168882D01*
X29114650Y65278150D01*
X29005382Y65358793D01*
X28877199Y65403646D01*
X28846766Y65406500D01*
X28238234Y65406500D01*
X28207801Y65403646D01*
X28207795Y65403644D01*
X28079618Y65358793D01*
X28079614Y65358791D01*
X27970349Y65278150D01*
X27889708Y65168885D01*
X27889706Y65168881D01*
X27844855Y65040704D01*
X27844854Y65040700D01*
X27842000Y65010266D01*
X27842000Y63951733D01*
X27844854Y63921299D01*
X27844855Y63921295D01*
X27889706Y63793118D01*
X27889708Y63793114D01*
X27970349Y63683849D01*
X28079614Y63603208D01*
X28079618Y63603206D01*
X28157615Y63575914D01*
X28215307Y63534536D01*
X28241469Y63468535D01*
X28242000Y63456985D01*
X28242000Y63086500D01*
X28221998Y63018379D01*
X28168342Y62971886D01*
X28116000Y62960500D01*
X27281752Y62960500D01*
X27230081Y62950222D01*
X27159368Y62956550D01*
X27103301Y63000104D01*
X27079681Y63067056D01*
X27079500Y63073801D01*
X27079500Y64687358D01*
X27099502Y64755479D01*
X27111020Y64770722D01*
X27958175Y65730832D01*
X27993950Y65771377D01*
X28054019Y65809223D01*
X28089507Y65814008D01*
X35412857Y65751415D01*
G37*
%TD.AperFunction*%
%TD*%
%TA.AperFunction,Conductor*%
%TO.N,/plusBAT*%
G36*
X57184121Y52903998D02*
G01*
X57230614Y52850342D01*
X57242000Y52798000D01*
X57242000Y48146351D01*
X57221998Y48078230D01*
X57209655Y48062061D01*
X56136539Y46869710D01*
X56076101Y46832457D01*
X56042884Y46828000D01*
X52976190Y46828000D01*
X52908069Y46848002D01*
X52887095Y46864905D01*
X51563905Y48188095D01*
X51529879Y48250407D01*
X51527000Y48277190D01*
X51527000Y49114000D01*
X47462000Y49114000D01*
X47393879Y49134002D01*
X47347386Y49187658D01*
X47336000Y49240000D01*
X47336000Y51907394D01*
X47356002Y51975515D01*
X47409658Y52022008D01*
X47463595Y52033384D01*
X52301246Y51972148D01*
X52369108Y51951285D01*
X52388746Y51935254D01*
X53014096Y51309903D01*
X53048120Y51247593D01*
X53051000Y51220810D01*
X53051000Y48415500D01*
X53559000Y47780500D01*
X55591000Y47971000D01*
X55671423Y48078230D01*
X55971999Y48478999D01*
X55972000Y48479000D01*
X55972000Y51019000D01*
X55591000Y51400000D01*
X54828000Y51400000D01*
X54759879Y51420002D01*
X54713386Y51473658D01*
X54702000Y51526000D01*
X54702000Y51780998D01*
X54702000Y51781000D01*
X54321000Y52289000D01*
X53992190Y52289000D01*
X53924069Y52309002D01*
X53903095Y52325905D01*
X53849905Y52379095D01*
X53815879Y52441407D01*
X53813000Y52468190D01*
X53813000Y52798000D01*
X53833002Y52866121D01*
X53886658Y52912614D01*
X53939000Y52924000D01*
X57116000Y52924000D01*
X57184121Y52903998D01*
G37*
%TD.AperFunction*%
%TD*%
%TA.AperFunction,Conductor*%
%TO.N,/Vout*%
G36*
X48154812Y61688751D02*
G01*
X48157370Y61686474D01*
X51209498Y58893000D01*
X51209500Y58893000D01*
X52986451Y58893000D01*
X53054572Y58872998D01*
X53101065Y58819342D01*
X53112434Y58764968D01*
X53073533Y56353000D01*
X53051000Y54955976D01*
X53051000Y54636624D01*
X53030998Y54568503D01*
X53002356Y54537166D01*
X52479500Y54130500D01*
X52479500Y54002500D01*
X52459498Y53934379D01*
X52405842Y53887886D01*
X52353500Y53876500D01*
X51579190Y53876500D01*
X51511069Y53896502D01*
X51490095Y53913405D01*
X51436905Y53966595D01*
X51402879Y54028907D01*
X51400000Y54055690D01*
X51400000Y56352998D01*
X51400000Y56353000D01*
X46892292Y60585848D01*
X46856325Y60647060D01*
X46859162Y60718000D01*
X46899901Y60776145D01*
X46965608Y60803034D01*
X46978543Y60803700D01*
X47486897Y60803700D01*
X47547393Y60810205D01*
X47684264Y60861255D01*
X47684265Y60861255D01*
X47801204Y60948795D01*
X47888744Y61065734D01*
X47888744Y61065735D01*
X47939794Y61202606D01*
X47946299Y61263102D01*
X47946300Y61263114D01*
X47946300Y61593527D01*
X47966302Y61661648D01*
X48019958Y61708141D01*
X48090232Y61718245D01*
X48154812Y61688751D01*
G37*
%TD.AperFunction*%
%TD*%
M02*
