M48
; DRILL file {KiCad 6.0.11-2627ca5db0~126~ubuntu22.04.1} date Mo 24 Jul 2023 12:12:12 CEST
; FORMAT={-:-/ absolute / inch / decimal}
; #@! TF.CreationDate,2023-07-24T12:12:12+02:00
; #@! TF.GenerationSoftware,Kicad,Pcbnew,6.0.11-2627ca5db0~126~ubuntu22.04.1
; #@! TF.FileFunction,Plated,1,2,PTH
FMAT,2
INCH
; #@! TA.AperFunction,Plated,PTH,ViaDrill
T1C0.0157
; #@! TA.AperFunction,Plated,PTH,ComponentDrill
T2C0.0157
; #@! TA.AperFunction,Plated,PTH,ComponentDrill
T3C0.0256
; #@! TA.AperFunction,Plated,PTH,ComponentDrill
T4C0.0315
; #@! TA.AperFunction,Plated,PTH,ComponentDrill
T5C0.0394
; #@! TA.AperFunction,Plated,PTH,ComponentDrill
T6C0.0402
; #@! TA.AperFunction,Plated,PTH,ComponentDrill
T7C0.0433
; #@! TA.AperFunction,Plated,PTH,ComponentDrill
T8C0.0866
; #@! TA.AperFunction,Plated,PTH,ComponentDrill
T9C0.1063
; #@! TA.AperFunction,Plated,PTH,ComponentDrill
T10C0.1220
%
G90
G05
T1
X0.243Y-0.1335
X0.459Y-2.3005
X0.6465Y-0.355
X0.7795Y-0.355
X0.898Y-0.1035
X1.0282Y-1.2538
X1.1452Y-1.2538
X1.1568Y-1.0599
X1.1685Y-0.9565
X1.223Y-0.9885
X1.2237Y-0.8428
X1.243Y-1.076
X1.278Y-0.8128
X1.278Y-1.049
X1.2855Y-0.4535
X1.2855Y-0.516
X1.3156Y-0.6386
X1.3316Y-0.8091
X1.3415Y-1.3785
X1.3494Y-0.925
X1.3655Y-0.8885
X1.3755Y-1.416
X1.399Y-0.2805
X1.403Y-0.8635
X1.408Y-1.3785
X1.4309Y-0.9385
X1.4555Y-1.3785
X1.4555Y-1.4185
X1.4605Y-0.8635
X1.496Y-1.3785
X1.499Y-0.2805
X1.5055Y-0.8885
X1.538Y-0.4085
X1.543Y-1.3117
X1.543Y-1.381
X1.618Y-1.2235
X1.6205Y-1.0735
X1.6229Y-0.8225
X1.6255Y-0.906
X1.6605Y-0.926
X1.7063Y-1.9933
X1.7105Y-1.0735
X1.713Y-1.226
X1.728Y-0.9885
X1.735Y-1.7516
X1.735Y-1.9669
X1.738Y-0.476
X1.738Y-0.5485
X1.7755Y-1.9435
X1.8005Y-0.9885
X1.827Y-2.2985
X1.903Y-2.0565
X2.053Y-0.9635
X2.0818Y-0.1033
X2.203Y-0.7135
X2.203Y-0.7685
X2.203Y-0.8185
X2.208Y-0.9985
X2.208Y-1.0635
X2.213Y-0.9385
X2.214Y-0.2965
X2.317Y-0.2965
X2.6685Y-0.4205
T2
X0.5591Y-0.1673
X0.5591Y-2.8642
X0.5798Y-0.1172
X0.5798Y-0.2174
X0.5798Y-2.8141
X0.5798Y-2.9143
X0.6299Y-0.0965
X0.6299Y-0.2382
X0.6299Y-2.7933
X0.6299Y-2.935
X0.68Y-0.1172
X0.68Y-0.2174
X0.68Y-2.8141
X0.68Y-2.9143
X0.7008Y-0.1673
X0.7008Y-2.8642
X2.3307Y-0.1673
X2.3307Y-2.8642
X2.3515Y-0.1172
X2.3515Y-0.2174
X2.3515Y-2.8141
X2.3515Y-2.9143
X2.4016Y-0.0965
X2.4016Y-0.2382
X2.4016Y-2.7933
X2.4016Y-2.935
X2.4517Y-0.1172
X2.4517Y-0.2174
X2.4517Y-2.8141
X2.4517Y-2.9143
X2.4724Y-0.1673
X2.4724Y-2.8642
T3
X0.937Y-1.6043
X1.585Y-1.5476
X1.585Y-1.5976
X1.585Y-1.6476
X1.585Y-1.6976
X1.585Y-1.7476
X1.585Y-1.7976
X1.585Y-1.8476
X1.585Y-1.8976
T4
X1.168Y-2.1555
X1.2467Y-2.1555
X1.3255Y-2.1555
X1.4042Y-2.1555
X1.483Y-2.1555
X1.5617Y-2.1555
X1.6404Y-2.1555
X1.7192Y-2.1555
T5
X1.013Y-2.6134
X1.013Y-2.7134
X1.013Y-2.8134
X1.013Y-2.9134
X1.1445Y-0.152
X1.2445Y-0.152
X1.3445Y-0.152
X1.413Y-2.6135
X1.413Y-2.7135
X1.413Y-2.8135
X1.413Y-2.9135
X1.4445Y-0.152
X1.5445Y-0.152
X1.613Y-2.6135
X1.613Y-2.7135
X1.613Y-2.8135
X1.613Y-2.9135
X1.6445Y-0.152
X1.6693Y-0.3335
X1.6693Y-0.4335
X1.6693Y-0.5935
X1.6693Y-0.6935
X1.803Y-1.111
X1.803Y-1.256
X1.903Y-1.111
X1.903Y-1.256
X2.013Y-2.6134
X2.013Y-2.7134
X2.013Y-2.8134
X2.013Y-2.9134
X2.263Y-2.6685
X2.363Y-2.6685
X2.463Y-2.6685
X2.563Y-2.6685
X2.598Y-0.171
X2.663Y-2.6685
X2.698Y-0.171
X2.763Y-2.6685
X2.798Y-0.171
T6
X0.489Y-0.398
X0.489Y-2.4449
X2.539Y-0.3882
X2.539Y-2.435
T7
X0.313Y-2.6685
X0.4031Y-2.6685
X0.4933Y-2.6685
T8
X0.6299Y-0.1673
X0.6299Y-2.8642
X2.4016Y-0.1673
X2.4016Y-2.8642
T9
X0.937Y-1.5146
T10
X0.965Y-0.5197
X0.965Y-2.2126
X2.0674Y-0.5197
X2.0674Y-2.2126
T0
M30
