%TF.GenerationSoftware,KiCad,Pcbnew,6.0.11-2627ca5db0~126~ubuntu22.04.1*%
%TF.CreationDate,2023-08-29T09:14:04+02:00*%
%TF.ProjectId,CC1101_868MHz_RF_Modul_FUEL4EP,43433131-3031-45f3-9836-384d487a5f52,1.2*%
%TF.SameCoordinates,Original*%
%TF.FileFunction,Legend,Top*%
%TF.FilePolarity,Positive*%
%FSLAX46Y46*%
G04 Gerber Fmt 4.6, Leading zero omitted, Abs format (unit mm)*
G04 Created by KiCad (PCBNEW 6.0.11-2627ca5db0~126~ubuntu22.04.1) date 2023-08-29 09:14:04*
%MOMM*%
%LPD*%
G01*
G04 APERTURE LIST*
G04 Aperture macros list*
%AMRoundRect*
0 Rectangle with rounded corners*
0 $1 Rounding radius*
0 $2 $3 $4 $5 $6 $7 $8 $9 X,Y pos of 4 corners*
0 Add a 4 corners polygon primitive as box body*
4,1,4,$2,$3,$4,$5,$6,$7,$8,$9,$2,$3,0*
0 Add four circle primitives for the rounded corners*
1,1,$1+$1,$2,$3*
1,1,$1+$1,$4,$5*
1,1,$1+$1,$6,$7*
1,1,$1+$1,$8,$9*
0 Add four rect primitives between the rounded corners*
20,1,$1+$1,$2,$3,$4,$5,0*
20,1,$1+$1,$4,$5,$6,$7,0*
20,1,$1+$1,$6,$7,$8,$9,0*
20,1,$1+$1,$8,$9,$2,$3,0*%
G04 Aperture macros list end*
%ADD10C,0.050000*%
%ADD11C,0.120000*%
%ADD12RoundRect,0.147500X-0.147500X-0.172500X0.147500X-0.172500X0.147500X0.172500X-0.147500X0.172500X0*%
%ADD13RoundRect,0.140000X0.140000X0.170000X-0.140000X0.170000X-0.140000X-0.170000X0.140000X-0.170000X0*%
%ADD14RoundRect,0.140000X-0.140000X-0.170000X0.140000X-0.170000X0.140000X0.170000X-0.140000X0.170000X0*%
%ADD15RoundRect,0.250000X-0.600000X-0.250000X0.600000X-0.250000X0.600000X0.250000X-0.600000X0.250000X0*%
%ADD16RoundRect,0.147500X-0.172500X0.147500X-0.172500X-0.147500X0.172500X-0.147500X0.172500X0.147500X0*%
%ADD17RoundRect,0.140000X0.170000X-0.140000X0.170000X0.140000X-0.170000X0.140000X-0.170000X-0.140000X0*%
%ADD18R,1.800000X1.500000*%
%ADD19RoundRect,0.140000X-0.170000X0.140000X-0.170000X-0.140000X0.170000X-0.140000X0.170000X0.140000X0*%
%ADD20RoundRect,0.135000X0.135000X0.185000X-0.135000X0.185000X-0.135000X-0.185000X0.135000X-0.185000X0*%
%ADD21R,1.400000X1.200000*%
%ADD22R,1.700000X1.000000*%
%ADD23RoundRect,0.062500X-0.425000X-0.062500X0.425000X-0.062500X0.425000X0.062500X-0.425000X0.062500X0*%
%ADD24RoundRect,0.062500X-0.062500X-0.425000X0.062500X-0.425000X0.062500X0.425000X-0.062500X0.425000X0*%
%ADD25R,2.400000X2.400000*%
G04 APERTURE END LIST*
D10*
X16908333Y796428D02*
X16908333Y891666D01*
X16965476Y777380D02*
X16765476Y844047D01*
X16965476Y910714D01*
X16965476Y977380D02*
X16765476Y977380D01*
X16965476Y1091666D01*
X16765476Y1091666D01*
X16765476Y1158333D02*
X16765476Y1272619D01*
X16965476Y1215476D02*
X16765476Y1215476D01*
X16791000Y2895619D02*
X16781476Y2876571D01*
X16781476Y2848000D01*
X16791000Y2819428D01*
X16810047Y2800380D01*
X16829095Y2790857D01*
X16867190Y2781333D01*
X16895761Y2781333D01*
X16933857Y2790857D01*
X16952904Y2800380D01*
X16971952Y2819428D01*
X16981476Y2848000D01*
X16981476Y2867047D01*
X16971952Y2895619D01*
X16962428Y2905142D01*
X16895761Y2905142D01*
X16895761Y2867047D01*
X16981476Y2990857D02*
X16781476Y2990857D01*
X16981476Y3105142D01*
X16781476Y3105142D01*
X16981476Y3200380D02*
X16781476Y3200380D01*
X16781476Y3248000D01*
X16791000Y3276571D01*
X16810047Y3295619D01*
X16829095Y3305142D01*
X16867190Y3314666D01*
X16895761Y3314666D01*
X16933857Y3305142D01*
X16952904Y3295619D01*
X16971952Y3276571D01*
X16981476Y3248000D01*
X16981476Y3200380D01*
X10227047Y978571D02*
X10217523Y969047D01*
X10188952Y959523D01*
X10169904Y959523D01*
X10141333Y969047D01*
X10122285Y988095D01*
X10112761Y1007142D01*
X10103238Y1045238D01*
X10103238Y1073809D01*
X10112761Y1111904D01*
X10122285Y1130952D01*
X10141333Y1150000D01*
X10169904Y1159523D01*
X10188952Y1159523D01*
X10217523Y1150000D01*
X10227047Y1140476D01*
X10427047Y978571D02*
X10417523Y969047D01*
X10388952Y959523D01*
X10369904Y959523D01*
X10341333Y969047D01*
X10322285Y988095D01*
X10312761Y1007142D01*
X10303238Y1045238D01*
X10303238Y1073809D01*
X10312761Y1111904D01*
X10322285Y1130952D01*
X10341333Y1150000D01*
X10369904Y1159523D01*
X10388952Y1159523D01*
X10417523Y1150000D01*
X10427047Y1140476D01*
X10617523Y959523D02*
X10503238Y959523D01*
X10560380Y959523D02*
X10560380Y1159523D01*
X10541333Y1130952D01*
X10522285Y1111904D01*
X10503238Y1102380D01*
X10808000Y959523D02*
X10693714Y959523D01*
X10750857Y959523D02*
X10750857Y1159523D01*
X10731809Y1130952D01*
X10712761Y1111904D01*
X10693714Y1102380D01*
X10931809Y1159523D02*
X10950857Y1159523D01*
X10969904Y1150000D01*
X10979428Y1140476D01*
X10988952Y1121428D01*
X10998476Y1083333D01*
X10998476Y1035714D01*
X10988952Y997619D01*
X10979428Y978571D01*
X10969904Y969047D01*
X10950857Y959523D01*
X10931809Y959523D01*
X10912761Y969047D01*
X10903238Y978571D01*
X10893714Y997619D01*
X10884190Y1035714D01*
X10884190Y1083333D01*
X10893714Y1121428D01*
X10903238Y1140476D01*
X10912761Y1150000D01*
X10931809Y1159523D01*
X11188952Y959523D02*
X11074666Y959523D01*
X11131809Y959523D02*
X11131809Y1159523D01*
X11112761Y1130952D01*
X11093714Y1111904D01*
X11074666Y1102380D01*
X11227047Y940476D02*
X11379428Y940476D01*
X11455619Y1073809D02*
X11436571Y1083333D01*
X11427047Y1092857D01*
X11417523Y1111904D01*
X11417523Y1121428D01*
X11427047Y1140476D01*
X11436571Y1150000D01*
X11455619Y1159523D01*
X11493714Y1159523D01*
X11512761Y1150000D01*
X11522285Y1140476D01*
X11531809Y1121428D01*
X11531809Y1111904D01*
X11522285Y1092857D01*
X11512761Y1083333D01*
X11493714Y1073809D01*
X11455619Y1073809D01*
X11436571Y1064285D01*
X11427047Y1054761D01*
X11417523Y1035714D01*
X11417523Y997619D01*
X11427047Y978571D01*
X11436571Y969047D01*
X11455619Y959523D01*
X11493714Y959523D01*
X11512761Y969047D01*
X11522285Y978571D01*
X11531809Y997619D01*
X11531809Y1035714D01*
X11522285Y1054761D01*
X11512761Y1064285D01*
X11493714Y1073809D01*
X11703238Y1159523D02*
X11665142Y1159523D01*
X11646095Y1150000D01*
X11636571Y1140476D01*
X11617523Y1111904D01*
X11608000Y1073809D01*
X11608000Y997619D01*
X11617523Y978571D01*
X11627047Y969047D01*
X11646095Y959523D01*
X11684190Y959523D01*
X11703238Y969047D01*
X11712761Y978571D01*
X11722285Y997619D01*
X11722285Y1045238D01*
X11712761Y1064285D01*
X11703238Y1073809D01*
X11684190Y1083333D01*
X11646095Y1083333D01*
X11627047Y1073809D01*
X11617523Y1064285D01*
X11608000Y1045238D01*
X11836571Y1073809D02*
X11817523Y1083333D01*
X11808000Y1092857D01*
X11798476Y1111904D01*
X11798476Y1121428D01*
X11808000Y1140476D01*
X11817523Y1150000D01*
X11836571Y1159523D01*
X11874666Y1159523D01*
X11893714Y1150000D01*
X11903238Y1140476D01*
X11912761Y1121428D01*
X11912761Y1111904D01*
X11903238Y1092857D01*
X11893714Y1083333D01*
X11874666Y1073809D01*
X11836571Y1073809D01*
X11817523Y1064285D01*
X11808000Y1054761D01*
X11798476Y1035714D01*
X11798476Y997619D01*
X11808000Y978571D01*
X11817523Y969047D01*
X11836571Y959523D01*
X11874666Y959523D01*
X11893714Y969047D01*
X11903238Y978571D01*
X11912761Y997619D01*
X11912761Y1035714D01*
X11903238Y1054761D01*
X11893714Y1064285D01*
X11874666Y1073809D01*
X11998476Y959523D02*
X11998476Y1159523D01*
X12065142Y1016666D01*
X12131809Y1159523D01*
X12131809Y959523D01*
X12227047Y959523D02*
X12227047Y1159523D01*
X12227047Y1064285D02*
X12341333Y1064285D01*
X12341333Y959523D02*
X12341333Y1159523D01*
X12417523Y1092857D02*
X12522285Y1092857D01*
X12417523Y959523D01*
X12522285Y959523D01*
X12550857Y940476D02*
X12703238Y940476D01*
X12865142Y959523D02*
X12798476Y1054761D01*
X12750857Y959523D02*
X12750857Y1159523D01*
X12827047Y1159523D01*
X12846095Y1150000D01*
X12855619Y1140476D01*
X12865142Y1121428D01*
X12865142Y1092857D01*
X12855619Y1073809D01*
X12846095Y1064285D01*
X12827047Y1054761D01*
X12750857Y1054761D01*
X13017523Y1064285D02*
X12950857Y1064285D01*
X12950857Y959523D02*
X12950857Y1159523D01*
X13046095Y1159523D01*
X13074666Y940476D02*
X13227047Y940476D01*
X13274666Y959523D02*
X13274666Y1159523D01*
X13341333Y1016666D01*
X13408000Y1159523D01*
X13408000Y959523D01*
X13531809Y959523D02*
X13512761Y969047D01*
X13503238Y978571D01*
X13493714Y997619D01*
X13493714Y1054761D01*
X13503238Y1073809D01*
X13512761Y1083333D01*
X13531809Y1092857D01*
X13560380Y1092857D01*
X13579428Y1083333D01*
X13588952Y1073809D01*
X13598476Y1054761D01*
X13598476Y997619D01*
X13588952Y978571D01*
X13579428Y969047D01*
X13560380Y959523D01*
X13531809Y959523D01*
X13769904Y959523D02*
X13769904Y1159523D01*
X13769904Y969047D02*
X13750857Y959523D01*
X13712761Y959523D01*
X13693714Y969047D01*
X13684190Y978571D01*
X13674666Y997619D01*
X13674666Y1054761D01*
X13684190Y1073809D01*
X13693714Y1083333D01*
X13712761Y1092857D01*
X13750857Y1092857D01*
X13769904Y1083333D01*
X13950857Y1092857D02*
X13950857Y959523D01*
X13865142Y1092857D02*
X13865142Y988095D01*
X13874666Y969047D01*
X13893714Y959523D01*
X13922285Y959523D01*
X13941333Y969047D01*
X13950857Y978571D01*
X14074666Y959523D02*
X14055619Y969047D01*
X14046095Y988095D01*
X14046095Y1159523D01*
X14103238Y940476D02*
X14255619Y940476D01*
X14369904Y1064285D02*
X14303238Y1064285D01*
X14303238Y959523D02*
X14303238Y1159523D01*
X14398476Y1159523D01*
X14474666Y1159523D02*
X14474666Y997619D01*
X14484190Y978571D01*
X14493714Y969047D01*
X14512761Y959523D01*
X14550857Y959523D01*
X14569904Y969047D01*
X14579428Y978571D01*
X14588952Y997619D01*
X14588952Y1159523D01*
X14684190Y1064285D02*
X14750857Y1064285D01*
X14779428Y959523D02*
X14684190Y959523D01*
X14684190Y1159523D01*
X14779428Y1159523D01*
X14960380Y959523D02*
X14865142Y959523D01*
X14865142Y1159523D01*
X15112761Y1092857D02*
X15112761Y959523D01*
X15065142Y1169047D02*
X15017523Y1026190D01*
X15141333Y1026190D01*
X15217523Y1064285D02*
X15284190Y1064285D01*
X15312761Y959523D02*
X15217523Y959523D01*
X15217523Y1159523D01*
X15312761Y1159523D01*
X15398476Y959523D02*
X15398476Y1159523D01*
X15474666Y1159523D01*
X15493714Y1150000D01*
X15503238Y1140476D01*
X15512761Y1121428D01*
X15512761Y1092857D01*
X15503238Y1073809D01*
X15493714Y1064285D01*
X15474666Y1054761D01*
X15398476Y1054761D01*
X15722285Y1159523D02*
X15788952Y959523D01*
X15855619Y1159523D01*
X16027047Y959523D02*
X15912761Y959523D01*
X15969904Y959523D02*
X15969904Y1159523D01*
X15950857Y1130952D01*
X15931809Y1111904D01*
X15912761Y1102380D01*
X16112761Y978571D02*
X16122285Y969047D01*
X16112761Y959523D01*
X16103238Y969047D01*
X16112761Y978571D01*
X16112761Y959523D01*
X16198476Y1140476D02*
X16208000Y1150000D01*
X16227047Y1159523D01*
X16274666Y1159523D01*
X16293714Y1150000D01*
X16303238Y1140476D01*
X16312761Y1121428D01*
X16312761Y1102380D01*
X16303238Y1073809D01*
X16188952Y959523D01*
X16312761Y959523D01*
X11603238Y561333D02*
X11593714Y570857D01*
X11574666Y599428D01*
X11565142Y618476D01*
X11555619Y647047D01*
X11546095Y694666D01*
X11546095Y732761D01*
X11555619Y780380D01*
X11565142Y808952D01*
X11574666Y828000D01*
X11593714Y856571D01*
X11603238Y866095D01*
X11793714Y656571D02*
X11784190Y647047D01*
X11755619Y637523D01*
X11736571Y637523D01*
X11708000Y647047D01*
X11688952Y666095D01*
X11679428Y685142D01*
X11669904Y723238D01*
X11669904Y751809D01*
X11679428Y789904D01*
X11688952Y808952D01*
X11708000Y828000D01*
X11736571Y837523D01*
X11755619Y837523D01*
X11784190Y828000D01*
X11793714Y818476D01*
X11860380Y561333D02*
X11869904Y570857D01*
X11888952Y599428D01*
X11898476Y618476D01*
X11908000Y647047D01*
X11917523Y694666D01*
X11917523Y732761D01*
X11908000Y780380D01*
X11898476Y808952D01*
X11888952Y828000D01*
X11869904Y856571D01*
X11860380Y866095D01*
X12231809Y742285D02*
X12165142Y742285D01*
X12165142Y637523D02*
X12165142Y837523D01*
X12260380Y837523D01*
X12336571Y837523D02*
X12336571Y675619D01*
X12346095Y656571D01*
X12355619Y647047D01*
X12374666Y637523D01*
X12412761Y637523D01*
X12431809Y647047D01*
X12441333Y656571D01*
X12450857Y675619D01*
X12450857Y837523D01*
X12546095Y742285D02*
X12612761Y742285D01*
X12641333Y637523D02*
X12546095Y637523D01*
X12546095Y837523D01*
X12641333Y837523D01*
X12822285Y637523D02*
X12727047Y637523D01*
X12727047Y837523D01*
X12974666Y770857D02*
X12974666Y637523D01*
X12927047Y847047D02*
X12879428Y704190D01*
X13003238Y704190D01*
X13079428Y742285D02*
X13146095Y742285D01*
X13174666Y637523D02*
X13079428Y637523D01*
X13079428Y837523D01*
X13174666Y837523D01*
X13260380Y637523D02*
X13260380Y837523D01*
X13336571Y837523D01*
X13355619Y828000D01*
X13365142Y818476D01*
X13374666Y799428D01*
X13374666Y770857D01*
X13365142Y751809D01*
X13355619Y742285D01*
X13336571Y732761D01*
X13260380Y732761D01*
X13650857Y837523D02*
X13669904Y837523D01*
X13688952Y828000D01*
X13698476Y818476D01*
X13708000Y799428D01*
X13717523Y761333D01*
X13717523Y713714D01*
X13708000Y675619D01*
X13698476Y656571D01*
X13688952Y647047D01*
X13669904Y637523D01*
X13650857Y637523D01*
X13631809Y647047D01*
X13622285Y656571D01*
X13612761Y675619D01*
X13603238Y713714D01*
X13603238Y761333D01*
X13612761Y799428D01*
X13622285Y818476D01*
X13631809Y828000D01*
X13650857Y837523D01*
X13831809Y751809D02*
X13812761Y761333D01*
X13803238Y770857D01*
X13793714Y789904D01*
X13793714Y799428D01*
X13803238Y818476D01*
X13812761Y828000D01*
X13831809Y837523D01*
X13869904Y837523D01*
X13888952Y828000D01*
X13898476Y818476D01*
X13908000Y799428D01*
X13908000Y789904D01*
X13898476Y770857D01*
X13888952Y761333D01*
X13869904Y751809D01*
X13831809Y751809D01*
X13812761Y742285D01*
X13803238Y732761D01*
X13793714Y713714D01*
X13793714Y675619D01*
X13803238Y656571D01*
X13812761Y647047D01*
X13831809Y637523D01*
X13869904Y637523D01*
X13888952Y647047D01*
X13898476Y656571D01*
X13908000Y675619D01*
X13908000Y713714D01*
X13898476Y732761D01*
X13888952Y742285D01*
X13869904Y751809D01*
X14136571Y847047D02*
X13965142Y589904D01*
X14193714Y818476D02*
X14203238Y828000D01*
X14222285Y837523D01*
X14269904Y837523D01*
X14288952Y828000D01*
X14298476Y818476D01*
X14308000Y799428D01*
X14308000Y780380D01*
X14298476Y751809D01*
X14184190Y637523D01*
X14308000Y637523D01*
X14431809Y837523D02*
X14450857Y837523D01*
X14469904Y828000D01*
X14479428Y818476D01*
X14488952Y799428D01*
X14498476Y761333D01*
X14498476Y713714D01*
X14488952Y675619D01*
X14479428Y656571D01*
X14469904Y647047D01*
X14450857Y637523D01*
X14431809Y637523D01*
X14412761Y647047D01*
X14403238Y656571D01*
X14393714Y675619D01*
X14384190Y713714D01*
X14384190Y761333D01*
X14393714Y799428D01*
X14403238Y818476D01*
X14412761Y828000D01*
X14431809Y837523D01*
X14574666Y818476D02*
X14584190Y828000D01*
X14603238Y837523D01*
X14650857Y837523D01*
X14669904Y828000D01*
X14679428Y818476D01*
X14688952Y799428D01*
X14688952Y780380D01*
X14679428Y751809D01*
X14565142Y637523D01*
X14688952Y637523D01*
X14755619Y837523D02*
X14879428Y837523D01*
X14812761Y761333D01*
X14841333Y761333D01*
X14860380Y751809D01*
X14869904Y742285D01*
X14879428Y723238D01*
X14879428Y675619D01*
X14869904Y656571D01*
X14860380Y647047D01*
X14841333Y637523D01*
X14784190Y637523D01*
X14765142Y647047D01*
X14755619Y656571D01*
%TO.C,L1*%
X12285666Y9434523D02*
X12190428Y9434523D01*
X12190428Y9634523D01*
X12457095Y9434523D02*
X12342809Y9434523D01*
X12399952Y9434523D02*
X12399952Y9634523D01*
X12380904Y9605952D01*
X12361857Y9586904D01*
X12342809Y9577380D01*
%TO.C,C14*%
X7364428Y12374571D02*
X7354904Y12365047D01*
X7326333Y12355523D01*
X7307285Y12355523D01*
X7278714Y12365047D01*
X7259666Y12384095D01*
X7250142Y12403142D01*
X7240619Y12441238D01*
X7240619Y12469809D01*
X7250142Y12507904D01*
X7259666Y12526952D01*
X7278714Y12546000D01*
X7307285Y12555523D01*
X7326333Y12555523D01*
X7354904Y12546000D01*
X7364428Y12536476D01*
X7554904Y12355523D02*
X7440619Y12355523D01*
X7497761Y12355523D02*
X7497761Y12555523D01*
X7478714Y12526952D01*
X7459666Y12507904D01*
X7440619Y12498380D01*
X7726333Y12488857D02*
X7726333Y12355523D01*
X7678714Y12565047D02*
X7631095Y12422190D01*
X7754904Y12422190D01*
%TO.C,L7*%
X14954666Y1672523D02*
X14859428Y1672523D01*
X14859428Y1872523D01*
X15002285Y1872523D02*
X15135619Y1872523D01*
X15049904Y1672523D01*
%TO.C,L3*%
X16390476Y6697666D02*
X16390476Y6602428D01*
X16190476Y6602428D01*
X16190476Y6745285D02*
X16190476Y6869095D01*
X16266666Y6802428D01*
X16266666Y6831000D01*
X16276190Y6850047D01*
X16285714Y6859571D01*
X16304761Y6869095D01*
X16352380Y6869095D01*
X16371428Y6859571D01*
X16380952Y6850047D01*
X16390476Y6831000D01*
X16390476Y6773857D01*
X16380952Y6754809D01*
X16371428Y6745285D01*
%TO.C,L2*%
X12285666Y7148523D02*
X12190428Y7148523D01*
X12190428Y7348523D01*
X12342809Y7329476D02*
X12352333Y7339000D01*
X12371380Y7348523D01*
X12419000Y7348523D01*
X12438047Y7339000D01*
X12447571Y7329476D01*
X12457095Y7310428D01*
X12457095Y7291380D01*
X12447571Y7262809D01*
X12333285Y7148523D01*
X12457095Y7148523D01*
%TO.C,C5*%
X17190866Y7167571D02*
X17181342Y7158047D01*
X17152771Y7148523D01*
X17133723Y7148523D01*
X17105152Y7158047D01*
X17086104Y7177095D01*
X17076580Y7196142D01*
X17067057Y7234238D01*
X17067057Y7262809D01*
X17076580Y7300904D01*
X17086104Y7319952D01*
X17105152Y7339000D01*
X17133723Y7348523D01*
X17152771Y7348523D01*
X17181342Y7339000D01*
X17190866Y7329476D01*
X17371819Y7348523D02*
X17276580Y7348523D01*
X17267057Y7253285D01*
X17276580Y7262809D01*
X17295628Y7272333D01*
X17343247Y7272333D01*
X17362295Y7262809D01*
X17371819Y7253285D01*
X17381342Y7234238D01*
X17381342Y7186619D01*
X17371819Y7167571D01*
X17362295Y7158047D01*
X17343247Y7148523D01*
X17295628Y7148523D01*
X17276580Y7158047D01*
X17267057Y7167571D01*
%TO.C,C3*%
X16327428Y5554666D02*
X16336952Y5545142D01*
X16346476Y5516571D01*
X16346476Y5497523D01*
X16336952Y5468952D01*
X16317904Y5449904D01*
X16298857Y5440380D01*
X16260761Y5430857D01*
X16232190Y5430857D01*
X16194095Y5440380D01*
X16175047Y5449904D01*
X16156000Y5468952D01*
X16146476Y5497523D01*
X16146476Y5516571D01*
X16156000Y5545142D01*
X16165523Y5554666D01*
X16146476Y5621333D02*
X16146476Y5745142D01*
X16222666Y5678476D01*
X16222666Y5707047D01*
X16232190Y5726095D01*
X16241714Y5735619D01*
X16260761Y5745142D01*
X16308380Y5745142D01*
X16327428Y5735619D01*
X16336952Y5726095D01*
X16346476Y5707047D01*
X16346476Y5649904D01*
X16336952Y5630857D01*
X16327428Y5621333D01*
%TO.C,JC5*%
X2283333Y6319523D02*
X2283333Y6176666D01*
X2273809Y6148095D01*
X2254761Y6129047D01*
X2226190Y6119523D01*
X2207142Y6119523D01*
X2492857Y6138571D02*
X2483333Y6129047D01*
X2454761Y6119523D01*
X2435714Y6119523D01*
X2407142Y6129047D01*
X2388095Y6148095D01*
X2378571Y6167142D01*
X2369047Y6205238D01*
X2369047Y6233809D01*
X2378571Y6271904D01*
X2388095Y6290952D01*
X2407142Y6310000D01*
X2435714Y6319523D01*
X2454761Y6319523D01*
X2483333Y6310000D01*
X2492857Y6300476D01*
X2673809Y6319523D02*
X2578571Y6319523D01*
X2569047Y6224285D01*
X2578571Y6233809D01*
X2597619Y6243333D01*
X2645238Y6243333D01*
X2664285Y6233809D01*
X2673809Y6224285D01*
X2683333Y6205238D01*
X2683333Y6157619D01*
X2673809Y6138571D01*
X2664285Y6129047D01*
X2645238Y6119523D01*
X2597619Y6119523D01*
X2578571Y6129047D01*
X2569047Y6138571D01*
%TO.C,L6*%
X17490476Y5591666D02*
X17490476Y5496428D01*
X17290476Y5496428D01*
X17290476Y5744047D02*
X17290476Y5705952D01*
X17300000Y5686904D01*
X17309523Y5677380D01*
X17338095Y5658333D01*
X17376190Y5648809D01*
X17452380Y5648809D01*
X17471428Y5658333D01*
X17480952Y5667857D01*
X17490476Y5686904D01*
X17490476Y5725000D01*
X17480952Y5744047D01*
X17471428Y5753571D01*
X17452380Y5763095D01*
X17404761Y5763095D01*
X17385714Y5753571D01*
X17376190Y5744047D01*
X17366666Y5725000D01*
X17366666Y5686904D01*
X17376190Y5667857D01*
X17385714Y5658333D01*
X17404761Y5648809D01*
%TO.C,C2*%
X13682666Y7167571D02*
X13673142Y7158047D01*
X13644571Y7148523D01*
X13625523Y7148523D01*
X13596952Y7158047D01*
X13577904Y7177095D01*
X13568380Y7196142D01*
X13558857Y7234238D01*
X13558857Y7262809D01*
X13568380Y7300904D01*
X13577904Y7319952D01*
X13596952Y7339000D01*
X13625523Y7348523D01*
X13644571Y7348523D01*
X13673142Y7339000D01*
X13682666Y7329476D01*
X13758857Y7329476D02*
X13768380Y7339000D01*
X13787428Y7348523D01*
X13835047Y7348523D01*
X13854095Y7339000D01*
X13863619Y7329476D01*
X13873142Y7310428D01*
X13873142Y7291380D01*
X13863619Y7262809D01*
X13749333Y7148523D01*
X13873142Y7148523D01*
%TO.C,JA1*%
X16790476Y3847619D02*
X16933333Y3847619D01*
X16961904Y3838095D01*
X16980952Y3819047D01*
X16990476Y3790476D01*
X16990476Y3771428D01*
X16933333Y3933333D02*
X16933333Y4028571D01*
X16990476Y3914285D02*
X16790476Y3980952D01*
X16990476Y4047619D01*
X16990476Y4219047D02*
X16990476Y4104761D01*
X16990476Y4161904D02*
X16790476Y4161904D01*
X16819047Y4142857D01*
X16838095Y4123809D01*
X16847619Y4104761D01*
%TO.C,JC8*%
X2283333Y2509523D02*
X2283333Y2366666D01*
X2273809Y2338095D01*
X2254761Y2319047D01*
X2226190Y2309523D01*
X2207142Y2309523D01*
X2492857Y2328571D02*
X2483333Y2319047D01*
X2454761Y2309523D01*
X2435714Y2309523D01*
X2407142Y2319047D01*
X2388095Y2338095D01*
X2378571Y2357142D01*
X2369047Y2395238D01*
X2369047Y2423809D01*
X2378571Y2461904D01*
X2388095Y2480952D01*
X2407142Y2500000D01*
X2435714Y2509523D01*
X2454761Y2509523D01*
X2483333Y2500000D01*
X2492857Y2490476D01*
X2607142Y2423809D02*
X2588095Y2433333D01*
X2578571Y2442857D01*
X2569047Y2461904D01*
X2569047Y2471428D01*
X2578571Y2490476D01*
X2588095Y2500000D01*
X2607142Y2509523D01*
X2645238Y2509523D01*
X2664285Y2500000D01*
X2673809Y2490476D01*
X2683333Y2471428D01*
X2683333Y2461904D01*
X2673809Y2442857D01*
X2664285Y2433333D01*
X2645238Y2423809D01*
X2607142Y2423809D01*
X2588095Y2414285D01*
X2578571Y2404761D01*
X2569047Y2385714D01*
X2569047Y2347619D01*
X2578571Y2328571D01*
X2588095Y2319047D01*
X2607142Y2309523D01*
X2645238Y2309523D01*
X2664285Y2319047D01*
X2673809Y2328571D01*
X2683333Y2347619D01*
X2683333Y2385714D01*
X2673809Y2404761D01*
X2664285Y2414285D01*
X2645238Y2423809D01*
%TO.C,C7*%
X16476666Y4754571D02*
X16467142Y4745047D01*
X16438571Y4735523D01*
X16419523Y4735523D01*
X16390952Y4745047D01*
X16371904Y4764095D01*
X16362380Y4783142D01*
X16352857Y4821238D01*
X16352857Y4849809D01*
X16362380Y4887904D01*
X16371904Y4906952D01*
X16390952Y4926000D01*
X16419523Y4935523D01*
X16438571Y4935523D01*
X16467142Y4926000D01*
X16476666Y4916476D01*
X16543333Y4935523D02*
X16676666Y4935523D01*
X16590952Y4735523D01*
%TO.C,C16*%
X6294428Y6094428D02*
X6303952Y6084904D01*
X6313476Y6056333D01*
X6313476Y6037285D01*
X6303952Y6008714D01*
X6284904Y5989666D01*
X6265857Y5980142D01*
X6227761Y5970619D01*
X6199190Y5970619D01*
X6161095Y5980142D01*
X6142047Y5989666D01*
X6123000Y6008714D01*
X6113476Y6037285D01*
X6113476Y6056333D01*
X6123000Y6084904D01*
X6132523Y6094428D01*
X6313476Y6284904D02*
X6313476Y6170619D01*
X6313476Y6227761D02*
X6113476Y6227761D01*
X6142047Y6208714D01*
X6161095Y6189666D01*
X6170619Y6170619D01*
X6113476Y6456333D02*
X6113476Y6418238D01*
X6123000Y6399190D01*
X6132523Y6389666D01*
X6161095Y6370619D01*
X6199190Y6361095D01*
X6275380Y6361095D01*
X6294428Y6370619D01*
X6303952Y6380142D01*
X6313476Y6399190D01*
X6313476Y6437285D01*
X6303952Y6456333D01*
X6294428Y6465857D01*
X6275380Y6475380D01*
X6227761Y6475380D01*
X6208714Y6465857D01*
X6199190Y6456333D01*
X6189666Y6437285D01*
X6189666Y6399190D01*
X6199190Y6380142D01*
X6208714Y6370619D01*
X6227761Y6361095D01*
%TO.C,R1*%
X9745666Y12355523D02*
X9679000Y12450761D01*
X9631380Y12355523D02*
X9631380Y12555523D01*
X9707571Y12555523D01*
X9726619Y12546000D01*
X9736142Y12536476D01*
X9745666Y12517428D01*
X9745666Y12488857D01*
X9736142Y12469809D01*
X9726619Y12460285D01*
X9707571Y12450761D01*
X9631380Y12450761D01*
X9936142Y12355523D02*
X9821857Y12355523D01*
X9879000Y12355523D02*
X9879000Y12555523D01*
X9859952Y12526952D01*
X9840904Y12507904D01*
X9821857Y12498380D01*
%TO.C,C15*%
X11152628Y5271428D02*
X11162152Y5261904D01*
X11171676Y5233333D01*
X11171676Y5214285D01*
X11162152Y5185714D01*
X11143104Y5166666D01*
X11124057Y5157142D01*
X11085961Y5147619D01*
X11057390Y5147619D01*
X11019295Y5157142D01*
X11000247Y5166666D01*
X10981200Y5185714D01*
X10971676Y5214285D01*
X10971676Y5233333D01*
X10981200Y5261904D01*
X10990723Y5271428D01*
X11171676Y5461904D02*
X11171676Y5347619D01*
X11171676Y5404761D02*
X10971676Y5404761D01*
X11000247Y5385714D01*
X11019295Y5366666D01*
X11028819Y5347619D01*
X10971676Y5642857D02*
X10971676Y5547619D01*
X11066914Y5538095D01*
X11057390Y5547619D01*
X11047866Y5566666D01*
X11047866Y5614285D01*
X11057390Y5633333D01*
X11066914Y5642857D01*
X11085961Y5652380D01*
X11133580Y5652380D01*
X11152628Y5642857D01*
X11162152Y5633333D01*
X11171676Y5614285D01*
X11171676Y5566666D01*
X11162152Y5547619D01*
X11152628Y5538095D01*
%TO.C,C17*%
X13471428Y6046428D02*
X13480952Y6036904D01*
X13490476Y6008333D01*
X13490476Y5989285D01*
X13480952Y5960714D01*
X13461904Y5941666D01*
X13442857Y5932142D01*
X13404761Y5922619D01*
X13376190Y5922619D01*
X13338095Y5932142D01*
X13319047Y5941666D01*
X13300000Y5960714D01*
X13290476Y5989285D01*
X13290476Y6008333D01*
X13300000Y6036904D01*
X13309523Y6046428D01*
X13490476Y6236904D02*
X13490476Y6122619D01*
X13490476Y6179761D02*
X13290476Y6179761D01*
X13319047Y6160714D01*
X13338095Y6141666D01*
X13347619Y6122619D01*
X13290476Y6303571D02*
X13290476Y6436904D01*
X13490476Y6351190D01*
%TO.C,JA2*%
X16790476Y1522619D02*
X16933333Y1522619D01*
X16961904Y1513095D01*
X16980952Y1494047D01*
X16990476Y1465476D01*
X16990476Y1446428D01*
X16933333Y1608333D02*
X16933333Y1703571D01*
X16990476Y1589285D02*
X16790476Y1655952D01*
X16990476Y1722619D01*
X16809523Y1779761D02*
X16800000Y1789285D01*
X16790476Y1808333D01*
X16790476Y1855952D01*
X16800000Y1875000D01*
X16809523Y1884523D01*
X16828571Y1894047D01*
X16847619Y1894047D01*
X16876190Y1884523D01*
X16990476Y1770238D01*
X16990476Y1894047D01*
%TO.C,L4*%
X14716666Y8384523D02*
X14621428Y8384523D01*
X14621428Y8584523D01*
X14869047Y8517857D02*
X14869047Y8384523D01*
X14821428Y8594047D02*
X14773809Y8451190D01*
X14897619Y8451190D01*
%TO.C,Y1*%
X7651761Y639761D02*
X7651761Y544523D01*
X7585095Y744523D02*
X7651761Y639761D01*
X7718428Y744523D01*
X7889857Y544523D02*
X7775571Y544523D01*
X7832714Y544523D02*
X7832714Y744523D01*
X7813666Y715952D01*
X7794619Y696904D01*
X7775571Y687380D01*
%TO.C,C13*%
X5278428Y7491428D02*
X5287952Y7481904D01*
X5297476Y7453333D01*
X5297476Y7434285D01*
X5287952Y7405714D01*
X5268904Y7386666D01*
X5249857Y7377142D01*
X5211761Y7367619D01*
X5183190Y7367619D01*
X5145095Y7377142D01*
X5126047Y7386666D01*
X5107000Y7405714D01*
X5097476Y7434285D01*
X5097476Y7453333D01*
X5107000Y7481904D01*
X5116523Y7491428D01*
X5297476Y7681904D02*
X5297476Y7567619D01*
X5297476Y7624761D02*
X5097476Y7624761D01*
X5126047Y7605714D01*
X5145095Y7586666D01*
X5154619Y7567619D01*
X5097476Y7748571D02*
X5097476Y7872380D01*
X5173666Y7805714D01*
X5173666Y7834285D01*
X5183190Y7853333D01*
X5192714Y7862857D01*
X5211761Y7872380D01*
X5259380Y7872380D01*
X5278428Y7862857D01*
X5287952Y7853333D01*
X5297476Y7834285D01*
X5297476Y7777142D01*
X5287952Y7758095D01*
X5278428Y7748571D01*
%TO.C,C10*%
X5205428Y12374571D02*
X5195904Y12365047D01*
X5167333Y12355523D01*
X5148285Y12355523D01*
X5119714Y12365047D01*
X5100666Y12384095D01*
X5091142Y12403142D01*
X5081619Y12441238D01*
X5081619Y12469809D01*
X5091142Y12507904D01*
X5100666Y12526952D01*
X5119714Y12546000D01*
X5148285Y12555523D01*
X5167333Y12555523D01*
X5195904Y12546000D01*
X5205428Y12536476D01*
X5395904Y12355523D02*
X5281619Y12355523D01*
X5338761Y12355523D02*
X5338761Y12555523D01*
X5319714Y12526952D01*
X5300666Y12507904D01*
X5281619Y12498380D01*
X5519714Y12555523D02*
X5538761Y12555523D01*
X5557809Y12546000D01*
X5567333Y12536476D01*
X5576857Y12517428D01*
X5586380Y12479333D01*
X5586380Y12431714D01*
X5576857Y12393619D01*
X5567333Y12374571D01*
X5557809Y12365047D01*
X5538761Y12355523D01*
X5519714Y12355523D01*
X5500666Y12365047D01*
X5491142Y12374571D01*
X5481619Y12393619D01*
X5472095Y12431714D01*
X5472095Y12479333D01*
X5481619Y12517428D01*
X5491142Y12536476D01*
X5500666Y12546000D01*
X5519714Y12555523D01*
%TO.C,C4*%
X14691666Y7353571D02*
X14682142Y7344047D01*
X14653571Y7334523D01*
X14634523Y7334523D01*
X14605952Y7344047D01*
X14586904Y7363095D01*
X14577380Y7382142D01*
X14567857Y7420238D01*
X14567857Y7448809D01*
X14577380Y7486904D01*
X14586904Y7505952D01*
X14605952Y7525000D01*
X14634523Y7534523D01*
X14653571Y7534523D01*
X14682142Y7525000D01*
X14691666Y7515476D01*
X14863095Y7467857D02*
X14863095Y7334523D01*
X14815476Y7544047D02*
X14767857Y7401190D01*
X14891666Y7401190D01*
%TO.C,JC6*%
X2283333Y5049523D02*
X2283333Y4906666D01*
X2273809Y4878095D01*
X2254761Y4859047D01*
X2226190Y4849523D01*
X2207142Y4849523D01*
X2492857Y4868571D02*
X2483333Y4859047D01*
X2454761Y4849523D01*
X2435714Y4849523D01*
X2407142Y4859047D01*
X2388095Y4878095D01*
X2378571Y4897142D01*
X2369047Y4935238D01*
X2369047Y4963809D01*
X2378571Y5001904D01*
X2388095Y5020952D01*
X2407142Y5040000D01*
X2435714Y5049523D01*
X2454761Y5049523D01*
X2483333Y5040000D01*
X2492857Y5030476D01*
X2664285Y5049523D02*
X2626190Y5049523D01*
X2607142Y5040000D01*
X2597619Y5030476D01*
X2578571Y5001904D01*
X2569047Y4963809D01*
X2569047Y4887619D01*
X2578571Y4868571D01*
X2588095Y4859047D01*
X2607142Y4849523D01*
X2645238Y4849523D01*
X2664285Y4859047D01*
X2673809Y4868571D01*
X2683333Y4887619D01*
X2683333Y4935238D01*
X2673809Y4954285D01*
X2664285Y4963809D01*
X2645238Y4973333D01*
X2607142Y4973333D01*
X2588095Y4963809D01*
X2578571Y4954285D01*
X2569047Y4935238D01*
%TO.C,FB1*%
X358333Y12589285D02*
X291666Y12589285D01*
X291666Y12484523D02*
X291666Y12684523D01*
X386904Y12684523D01*
X529761Y12589285D02*
X558333Y12579761D01*
X567857Y12570238D01*
X577380Y12551190D01*
X577380Y12522619D01*
X567857Y12503571D01*
X558333Y12494047D01*
X539285Y12484523D01*
X463095Y12484523D01*
X463095Y12684523D01*
X529761Y12684523D01*
X548809Y12675000D01*
X558333Y12665476D01*
X567857Y12646428D01*
X567857Y12627380D01*
X558333Y12608333D01*
X548809Y12598809D01*
X529761Y12589285D01*
X463095Y12589285D01*
X767857Y12484523D02*
X653571Y12484523D01*
X710714Y12484523D02*
X710714Y12684523D01*
X691666Y12655952D01*
X672619Y12636904D01*
X653571Y12627380D01*
%TO.C,C12*%
X12021428Y11753571D02*
X12011904Y11744047D01*
X11983333Y11734523D01*
X11964285Y11734523D01*
X11935714Y11744047D01*
X11916666Y11763095D01*
X11907142Y11782142D01*
X11897619Y11820238D01*
X11897619Y11848809D01*
X11907142Y11886904D01*
X11916666Y11905952D01*
X11935714Y11925000D01*
X11964285Y11934523D01*
X11983333Y11934523D01*
X12011904Y11925000D01*
X12021428Y11915476D01*
X12211904Y11734523D02*
X12097619Y11734523D01*
X12154761Y11734523D02*
X12154761Y11934523D01*
X12135714Y11905952D01*
X12116666Y11886904D01*
X12097619Y11877380D01*
X12288095Y11915476D02*
X12297619Y11925000D01*
X12316666Y11934523D01*
X12364285Y11934523D01*
X12383333Y11925000D01*
X12392857Y11915476D01*
X12402380Y11896428D01*
X12402380Y11877380D01*
X12392857Y11848809D01*
X12278571Y11734523D01*
X12402380Y11734523D01*
%TO.C,JC3*%
X2283333Y8859523D02*
X2283333Y8716666D01*
X2273809Y8688095D01*
X2254761Y8669047D01*
X2226190Y8659523D01*
X2207142Y8659523D01*
X2492857Y8678571D02*
X2483333Y8669047D01*
X2454761Y8659523D01*
X2435714Y8659523D01*
X2407142Y8669047D01*
X2388095Y8688095D01*
X2378571Y8707142D01*
X2369047Y8745238D01*
X2369047Y8773809D01*
X2378571Y8811904D01*
X2388095Y8830952D01*
X2407142Y8850000D01*
X2435714Y8859523D01*
X2454761Y8859523D01*
X2483333Y8850000D01*
X2492857Y8840476D01*
X2559523Y8859523D02*
X2683333Y8859523D01*
X2616666Y8783333D01*
X2645238Y8783333D01*
X2664285Y8773809D01*
X2673809Y8764285D01*
X2683333Y8745238D01*
X2683333Y8697619D01*
X2673809Y8678571D01*
X2664285Y8669047D01*
X2645238Y8659523D01*
X2588095Y8659523D01*
X2569047Y8669047D01*
X2559523Y8678571D01*
%TO.C,JC2*%
X2283333Y10129523D02*
X2283333Y9986666D01*
X2273809Y9958095D01*
X2254761Y9939047D01*
X2226190Y9929523D01*
X2207142Y9929523D01*
X2492857Y9948571D02*
X2483333Y9939047D01*
X2454761Y9929523D01*
X2435714Y9929523D01*
X2407142Y9939047D01*
X2388095Y9958095D01*
X2378571Y9977142D01*
X2369047Y10015238D01*
X2369047Y10043809D01*
X2378571Y10081904D01*
X2388095Y10100952D01*
X2407142Y10120000D01*
X2435714Y10129523D01*
X2454761Y10129523D01*
X2483333Y10120000D01*
X2492857Y10110476D01*
X2569047Y10110476D02*
X2578571Y10120000D01*
X2597619Y10129523D01*
X2645238Y10129523D01*
X2664285Y10120000D01*
X2673809Y10110476D01*
X2683333Y10091428D01*
X2683333Y10072380D01*
X2673809Y10043809D01*
X2559523Y9929523D01*
X2683333Y9929523D01*
%TO.C,JC1*%
X2383333Y11349523D02*
X2383333Y11206666D01*
X2373809Y11178095D01*
X2354761Y11159047D01*
X2326190Y11149523D01*
X2307142Y11149523D01*
X2592857Y11168571D02*
X2583333Y11159047D01*
X2554761Y11149523D01*
X2535714Y11149523D01*
X2507142Y11159047D01*
X2488095Y11178095D01*
X2478571Y11197142D01*
X2469047Y11235238D01*
X2469047Y11263809D01*
X2478571Y11301904D01*
X2488095Y11320952D01*
X2507142Y11340000D01*
X2535714Y11349523D01*
X2554761Y11349523D01*
X2583333Y11340000D01*
X2592857Y11330476D01*
X2783333Y11149523D02*
X2669047Y11149523D01*
X2726190Y11149523D02*
X2726190Y11349523D01*
X2707142Y11320952D01*
X2688095Y11301904D01*
X2669047Y11292380D01*
%TO.C,L5*%
X17210866Y9561523D02*
X17115628Y9561523D01*
X17115628Y9761523D01*
X17372771Y9761523D02*
X17277533Y9761523D01*
X17268009Y9666285D01*
X17277533Y9675809D01*
X17296580Y9685333D01*
X17344200Y9685333D01*
X17363247Y9675809D01*
X17372771Y9666285D01*
X17382295Y9647238D01*
X17382295Y9599619D01*
X17372771Y9580571D01*
X17363247Y9571047D01*
X17344200Y9561523D01*
X17296580Y9561523D01*
X17277533Y9571047D01*
X17268009Y9580571D01*
%TO.C,C11*%
X13246428Y10253571D02*
X13236904Y10244047D01*
X13208333Y10234523D01*
X13189285Y10234523D01*
X13160714Y10244047D01*
X13141666Y10263095D01*
X13132142Y10282142D01*
X13122619Y10320238D01*
X13122619Y10348809D01*
X13132142Y10386904D01*
X13141666Y10405952D01*
X13160714Y10425000D01*
X13189285Y10434523D01*
X13208333Y10434523D01*
X13236904Y10425000D01*
X13246428Y10415476D01*
X13436904Y10234523D02*
X13322619Y10234523D01*
X13379761Y10234523D02*
X13379761Y10434523D01*
X13360714Y10405952D01*
X13341666Y10386904D01*
X13322619Y10377380D01*
X13627380Y10234523D02*
X13513095Y10234523D01*
X13570238Y10234523D02*
X13570238Y10434523D01*
X13551190Y10405952D01*
X13532142Y10386904D01*
X13513095Y10377380D01*
%TO.C,C8*%
X6062666Y4627571D02*
X6053142Y4618047D01*
X6024571Y4608523D01*
X6005523Y4608523D01*
X5976952Y4618047D01*
X5957904Y4637095D01*
X5948380Y4656142D01*
X5938857Y4694238D01*
X5938857Y4722809D01*
X5948380Y4760904D01*
X5957904Y4779952D01*
X5976952Y4799000D01*
X6005523Y4808523D01*
X6024571Y4808523D01*
X6053142Y4799000D01*
X6062666Y4789476D01*
X6176952Y4722809D02*
X6157904Y4732333D01*
X6148380Y4741857D01*
X6138857Y4760904D01*
X6138857Y4770428D01*
X6148380Y4789476D01*
X6157904Y4799000D01*
X6176952Y4808523D01*
X6215047Y4808523D01*
X6234095Y4799000D01*
X6243619Y4789476D01*
X6253142Y4770428D01*
X6253142Y4760904D01*
X6243619Y4741857D01*
X6234095Y4732333D01*
X6215047Y4722809D01*
X6176952Y4722809D01*
X6157904Y4713285D01*
X6148380Y4703761D01*
X6138857Y4684714D01*
X6138857Y4646619D01*
X6148380Y4627571D01*
X6157904Y4618047D01*
X6176952Y4608523D01*
X6215047Y4608523D01*
X6234095Y4618047D01*
X6243619Y4627571D01*
X6253142Y4646619D01*
X6253142Y4684714D01*
X6243619Y4703761D01*
X6234095Y4713285D01*
X6215047Y4722809D01*
%TO.C,C1*%
X15206666Y10596571D02*
X15197142Y10587047D01*
X15168571Y10577523D01*
X15149523Y10577523D01*
X15120952Y10587047D01*
X15101904Y10606095D01*
X15092380Y10625142D01*
X15082857Y10663238D01*
X15082857Y10691809D01*
X15092380Y10729904D01*
X15101904Y10748952D01*
X15120952Y10768000D01*
X15149523Y10777523D01*
X15168571Y10777523D01*
X15197142Y10768000D01*
X15206666Y10758476D01*
X15397142Y10577523D02*
X15282857Y10577523D01*
X15340000Y10577523D02*
X15340000Y10777523D01*
X15320952Y10748952D01*
X15301904Y10729904D01*
X15282857Y10720380D01*
%TO.C,C6*%
X14676428Y4157666D02*
X14685952Y4148142D01*
X14695476Y4119571D01*
X14695476Y4100523D01*
X14685952Y4071952D01*
X14666904Y4052904D01*
X14647857Y4043380D01*
X14609761Y4033857D01*
X14581190Y4033857D01*
X14543095Y4043380D01*
X14524047Y4052904D01*
X14505000Y4071952D01*
X14495476Y4100523D01*
X14495476Y4119571D01*
X14505000Y4148142D01*
X14514523Y4157666D01*
X14495476Y4329095D02*
X14495476Y4291000D01*
X14505000Y4271952D01*
X14514523Y4262428D01*
X14543095Y4243380D01*
X14581190Y4233857D01*
X14657380Y4233857D01*
X14676428Y4243380D01*
X14685952Y4252904D01*
X14695476Y4271952D01*
X14695476Y4310047D01*
X14685952Y4329095D01*
X14676428Y4338619D01*
X14657380Y4348142D01*
X14609761Y4348142D01*
X14590714Y4338619D01*
X14581190Y4329095D01*
X14571666Y4310047D01*
X14571666Y4271952D01*
X14581190Y4252904D01*
X14590714Y4243380D01*
X14609761Y4233857D01*
%TO.C,C9*%
X10716666Y4853571D02*
X10707142Y4844047D01*
X10678571Y4834523D01*
X10659523Y4834523D01*
X10630952Y4844047D01*
X10611904Y4863095D01*
X10602380Y4882142D01*
X10592857Y4920238D01*
X10592857Y4948809D01*
X10602380Y4986904D01*
X10611904Y5005952D01*
X10630952Y5025000D01*
X10659523Y5034523D01*
X10678571Y5034523D01*
X10707142Y5025000D01*
X10716666Y5015476D01*
X10811904Y4834523D02*
X10850000Y4834523D01*
X10869047Y4844047D01*
X10878571Y4853571D01*
X10897619Y4882142D01*
X10907142Y4920238D01*
X10907142Y4996428D01*
X10897619Y5015476D01*
X10888095Y5025000D01*
X10869047Y5034523D01*
X10830952Y5034523D01*
X10811904Y5025000D01*
X10802380Y5015476D01*
X10792857Y4996428D01*
X10792857Y4948809D01*
X10802380Y4929761D01*
X10811904Y4920238D01*
X10830952Y4910714D01*
X10869047Y4910714D01*
X10888095Y4920238D01*
X10897619Y4929761D01*
X10907142Y4948809D01*
%TO.C,JC4*%
X2283333Y7589523D02*
X2283333Y7446666D01*
X2273809Y7418095D01*
X2254761Y7399047D01*
X2226190Y7389523D01*
X2207142Y7389523D01*
X2492857Y7408571D02*
X2483333Y7399047D01*
X2454761Y7389523D01*
X2435714Y7389523D01*
X2407142Y7399047D01*
X2388095Y7418095D01*
X2378571Y7437142D01*
X2369047Y7475238D01*
X2369047Y7503809D01*
X2378571Y7541904D01*
X2388095Y7560952D01*
X2407142Y7580000D01*
X2435714Y7589523D01*
X2454761Y7589523D01*
X2483333Y7580000D01*
X2492857Y7570476D01*
X2664285Y7522857D02*
X2664285Y7389523D01*
X2616666Y7599047D02*
X2569047Y7456190D01*
X2692857Y7456190D01*
%TO.C,U1*%
X10007619Y6332523D02*
X10007619Y6170619D01*
X10017142Y6151571D01*
X10026666Y6142047D01*
X10045714Y6132523D01*
X10083809Y6132523D01*
X10102857Y6142047D01*
X10112380Y6151571D01*
X10121904Y6170619D01*
X10121904Y6332523D01*
X10321904Y6132523D02*
X10207619Y6132523D01*
X10264761Y6132523D02*
X10264761Y6332523D01*
X10245714Y6303952D01*
X10226666Y6284904D01*
X10207619Y6275380D01*
%TO.C,JC7*%
X2283333Y3779523D02*
X2283333Y3636666D01*
X2273809Y3608095D01*
X2254761Y3589047D01*
X2226190Y3579523D01*
X2207142Y3579523D01*
X2492857Y3598571D02*
X2483333Y3589047D01*
X2454761Y3579523D01*
X2435714Y3579523D01*
X2407142Y3589047D01*
X2388095Y3608095D01*
X2378571Y3627142D01*
X2369047Y3665238D01*
X2369047Y3693809D01*
X2378571Y3731904D01*
X2388095Y3750952D01*
X2407142Y3770000D01*
X2435714Y3779523D01*
X2454761Y3779523D01*
X2483333Y3770000D01*
X2492857Y3760476D01*
X2559523Y3779523D02*
X2692857Y3779523D01*
X2607142Y3579523D01*
D11*
%TO.C,C14*%
X8235836Y12171000D02*
X8020164Y12171000D01*
X8235836Y11451000D02*
X8020164Y11451000D01*
%TO.C,C5*%
X17332036Y8285200D02*
X17116364Y8285200D01*
X17332036Y7565200D02*
X17116364Y7565200D01*
%TO.C,C3*%
X15052764Y5973800D02*
X15268436Y5973800D01*
X15052764Y5253800D02*
X15268436Y5253800D01*
%TO.C,C2*%
X14089000Y8276964D02*
X14089000Y8492636D01*
X13369000Y8276964D02*
X13369000Y8492636D01*
%TO.C,C7*%
X15840000Y3702164D02*
X15840000Y3917836D01*
X16560000Y3702164D02*
X16560000Y3917836D01*
%TO.C,C16*%
X5075600Y6356236D02*
X5075600Y6140564D01*
X5795600Y6356236D02*
X5795600Y6140564D01*
%TO.C,R1*%
X10440641Y11431000D02*
X10133359Y11431000D01*
X10440641Y12191000D02*
X10133359Y12191000D01*
%TO.C,C15*%
X11365000Y5857836D02*
X11365000Y5642164D01*
X12085000Y5857836D02*
X12085000Y5642164D01*
%TO.C,C17*%
X13085000Y5857836D02*
X13085000Y5642164D01*
X12365000Y5857836D02*
X12365000Y5642164D01*
%TO.C,Y1*%
X5823200Y4190000D02*
X5823200Y890000D01*
X5823200Y890000D02*
X9823200Y890000D01*
%TO.C,C13*%
X4110400Y7741436D02*
X4110400Y7525764D01*
X4830400Y7741436D02*
X4830400Y7525764D01*
%TO.C,C10*%
X5765164Y12171000D02*
X5980836Y12171000D01*
X5765164Y11451000D02*
X5980836Y11451000D01*
%TO.C,C4*%
X15052764Y7539800D02*
X15268436Y7539800D01*
X15052764Y8259800D02*
X15268436Y8259800D01*
%TO.C,C12*%
X12042164Y11510000D02*
X12257836Y11510000D01*
X12042164Y10790000D02*
X12257836Y10790000D01*
%TO.C,C11*%
X12017164Y10485000D02*
X12232836Y10485000D01*
X12017164Y9765000D02*
X12232836Y9765000D01*
%TO.C,C8*%
X7308964Y4466000D02*
X7524636Y4466000D01*
X7308964Y5186000D02*
X7524636Y5186000D01*
%TO.C,C1*%
X15052764Y10342600D02*
X15268436Y10342600D01*
X15052764Y9622600D02*
X15268436Y9622600D01*
%TO.C,C6*%
X14880000Y3702164D02*
X14880000Y3917836D01*
X15600000Y3702164D02*
X15600000Y3917836D01*
%TO.C,C9*%
X9832836Y4441000D02*
X9617164Y4441000D01*
X9832836Y5161000D02*
X9617164Y5161000D01*
%TO.C,U1*%
X10689000Y10812800D02*
X10689000Y10087800D01*
X9964000Y6592800D02*
X10689000Y6592800D01*
X7194000Y10812800D02*
X6469000Y10812800D01*
X6469000Y6592800D02*
X6469000Y7317800D01*
X9964000Y10812800D02*
X10689000Y10812800D01*
X7194000Y6592800D02*
X6469000Y6592800D01*
X10689000Y6592800D02*
X10689000Y7317800D01*
%TD*%
%LPC*%
D12*
%TO.C,L1*%
X11794000Y8892800D03*
X12764000Y8892800D03*
%TD*%
D13*
%TO.C,C14*%
X8608000Y11811000D03*
X7648000Y11811000D03*
%TD*%
D12*
%TO.C,L7*%
X15263000Y2413000D03*
X16233000Y2413000D03*
%TD*%
%TO.C,L3*%
X14695600Y6731400D03*
X15665600Y6731400D03*
%TD*%
%TO.C,L2*%
X11794000Y7902800D03*
X12764000Y7902800D03*
%TD*%
D13*
%TO.C,C5*%
X17704200Y7925200D03*
X16744200Y7925200D03*
%TD*%
D14*
%TO.C,C3*%
X14680600Y5613800D03*
X15640600Y5613800D03*
%TD*%
D15*
%TO.C,JC5*%
X950000Y5810000D03*
%TD*%
D16*
%TO.C,L6*%
X16750000Y6735000D03*
X16750000Y5765000D03*
%TD*%
D17*
%TO.C,C2*%
X13729000Y7904800D03*
X13729000Y8864800D03*
%TD*%
D18*
%TO.C,JA1*%
X18000000Y3550000D03*
%TD*%
D15*
%TO.C,JC8*%
X950000Y2000000D03*
%TD*%
D17*
%TO.C,C7*%
X16200000Y3330000D03*
X16200000Y4290000D03*
%TD*%
D19*
%TO.C,C16*%
X5435600Y6728400D03*
X5435600Y5768400D03*
%TD*%
D20*
%TO.C,R1*%
X10797000Y11811000D03*
X9777000Y11811000D03*
%TD*%
D19*
%TO.C,C15*%
X11725000Y6230000D03*
X11725000Y5270000D03*
%TD*%
%TO.C,C17*%
X12725000Y6230000D03*
X12725000Y5270000D03*
%TD*%
D18*
%TO.C,JA2*%
X18000000Y1270000D03*
%TD*%
D12*
%TO.C,L4*%
X14695600Y8966600D03*
X15665600Y8966600D03*
%TD*%
D21*
%TO.C,Y1*%
X6723200Y1690000D03*
X8923200Y1690000D03*
X8923200Y3390000D03*
X6723200Y3390000D03*
%TD*%
D19*
%TO.C,C13*%
X4470400Y8113600D03*
X4470400Y7153600D03*
%TD*%
D14*
%TO.C,C10*%
X5393000Y11811000D03*
X6353000Y11811000D03*
%TD*%
%TO.C,C4*%
X14680600Y7899800D03*
X15640600Y7899800D03*
%TD*%
D15*
%TO.C,JC6*%
X950000Y4540000D03*
%TD*%
D12*
%TO.C,FB1*%
X1340000Y12275000D03*
X2310000Y12275000D03*
%TD*%
D14*
%TO.C,C12*%
X11670000Y11150000D03*
X12630000Y11150000D03*
%TD*%
D15*
%TO.C,JC3*%
X950000Y8350000D03*
%TD*%
%TO.C,JC2*%
X950000Y9620000D03*
%TD*%
D22*
%TO.C,JC1*%
X950000Y10890000D03*
%TD*%
D12*
%TO.C,L5*%
X16759200Y8941200D03*
X17729200Y8941200D03*
%TD*%
D14*
%TO.C,C11*%
X11645000Y10125000D03*
X12605000Y10125000D03*
%TD*%
%TO.C,C8*%
X6936800Y4826000D03*
X7896800Y4826000D03*
%TD*%
%TO.C,C1*%
X14680600Y9982600D03*
X15640600Y9982600D03*
%TD*%
D17*
%TO.C,C6*%
X15240000Y3330000D03*
X15240000Y4290000D03*
%TD*%
D13*
%TO.C,C9*%
X10205000Y4801000D03*
X9245000Y4801000D03*
%TD*%
D15*
%TO.C,JC4*%
X950000Y7080000D03*
%TD*%
D23*
%TO.C,U1*%
X6691500Y9702800D03*
X6691500Y9202800D03*
X6691500Y8702800D03*
X6691500Y8202800D03*
X6691500Y7702800D03*
D24*
X7579000Y6815300D03*
X8079000Y6815300D03*
X8579000Y6815300D03*
X9079000Y6815300D03*
X9579000Y6815300D03*
D23*
X10466500Y7702800D03*
X10466500Y8202800D03*
X10466500Y8702800D03*
X10466500Y9202800D03*
X10466500Y9702800D03*
D24*
X9579000Y10590300D03*
X9079000Y10590300D03*
X8579000Y10590300D03*
X8079000Y10590300D03*
X7579000Y10590300D03*
D25*
X8579000Y8702800D03*
%TD*%
D15*
%TO.C,JC7*%
X950000Y3270000D03*
%TD*%
M02*
