G04 #@! TF.GenerationSoftware,KiCad,Pcbnew,5.1.12-84ad8e8a86~92~ubuntu18.04.1*
G04 #@! TF.CreationDate,2021-11-21T15:48:55+01:00*
G04 #@! TF.ProjectId,HB-UNI-SenAct-4-4-SC_DS_FUEL4EP_PCB,48422d55-4e49-42d5-9365-6e4163742d34,rev?*
G04 #@! TF.SameCoordinates,Original*
G04 #@! TF.FileFunction,Soldermask,Bot*
G04 #@! TF.FilePolarity,Negative*
%FSLAX46Y46*%
G04 Gerber Fmt 4.6, Leading zero omitted, Abs format (unit mm)*
G04 Created by KiCad (PCBNEW 5.1.12-84ad8e8a86~92~ubuntu18.04.1) date 2021-11-21 15:48:55*
%MOMM*%
%LPD*%
G01*
G04 APERTURE LIST*
%ADD10C,1.100000*%
%ADD11R,1.500000X1.524000*%
%ADD12C,5.800000*%
%ADD13O,3.251200X1.625600*%
%ADD14O,1.400000X1.400000*%
%ADD15C,1.400000*%
%ADD16O,1.700000X1.700000*%
%ADD17R,1.700000X1.700000*%
%ADD18C,2.000000*%
%ADD19C,1.498600*%
%ADD20R,1.498600X1.498600*%
%ADD21O,1.800000X1.800000*%
%ADD22R,1.800000X1.800000*%
%ADD23O,1.717500X1.800000*%
%ADD24R,1.717500X1.800000*%
%ADD25C,2.082800*%
%ADD26C,3.000000*%
%ADD27C,1.350000*%
%ADD28C,1.800000*%
%ADD29O,2.200000X2.200000*%
%ADD30R,2.200000X2.200000*%
%ADD31C,1.600000*%
%ADD32R,1.600000X1.600000*%
G04 APERTURE END LIST*
D10*
X43650000Y-13740000D03*
X69850000Y-13740000D03*
X69850000Y-2540000D03*
X43650000Y-2540000D03*
D11*
X43150000Y-9410000D03*
X43150000Y-6870000D03*
X70350000Y-9410000D03*
X70350000Y-6870000D03*
D12*
X82000000Y-4000000D03*
X82000000Y-59000000D03*
X4000000Y-59000000D03*
X4000000Y-3980000D03*
D13*
X83439000Y-11303000D03*
X83439000Y-13843000D03*
X83439000Y-16383000D03*
D14*
X39370000Y-57150000D03*
D15*
X39370000Y-52070000D03*
D14*
X77724000Y-13970000D03*
D15*
X77724000Y-19050000D03*
D14*
X79819500Y-21018500D03*
D15*
X79819500Y-26098500D03*
D14*
X49530000Y-57150000D03*
D15*
X49530000Y-52070000D03*
D14*
X46990000Y-57150000D03*
D15*
X46990000Y-52070000D03*
D14*
X44450000Y-57150000D03*
D15*
X44450000Y-52070000D03*
D14*
X41910000Y-57150000D03*
D15*
X41910000Y-52070000D03*
D16*
X36830000Y-61093000D03*
X39370000Y-61093000D03*
X41910000Y-61093000D03*
X44450000Y-61093000D03*
X46990000Y-61093000D03*
X49530000Y-61093000D03*
D17*
X52070000Y-61093000D03*
D18*
X1850000Y-41910000D03*
X6350000Y-41910000D03*
X1850000Y-48410000D03*
X6350000Y-48410000D03*
D14*
X26670000Y-7620000D03*
D15*
X26670000Y-2540000D03*
D14*
X55880000Y-27940000D03*
D15*
X60960000Y-27940000D03*
D14*
X60198000Y-24511000D03*
D15*
X55118000Y-24511000D03*
D14*
X55880000Y-17780000D03*
D15*
X60960000Y-17780000D03*
D14*
X31940500Y-15113000D03*
D15*
X26860500Y-15113000D03*
D14*
X66040000Y-22860000D03*
D15*
X66040000Y-17780000D03*
D14*
X20955000Y-8445500D03*
D15*
X20955000Y-13525500D03*
D14*
X6350000Y-38100000D03*
D15*
X6350000Y-33020000D03*
D19*
X49276000Y-29337000D03*
X48006000Y-26797000D03*
D20*
X46736000Y-29337000D03*
D21*
X60960000Y-21590000D03*
X58420000Y-21590000D03*
D22*
X55880000Y-21590000D03*
D23*
X74673000Y-20320000D03*
X72383000Y-20320000D03*
D24*
X70093000Y-20320000D03*
D25*
X58917000Y-36201000D03*
X58917000Y-38741000D03*
X58917000Y-46361000D03*
X58917000Y-48901000D03*
X58917000Y-43821000D03*
X48757000Y-36201000D03*
X48757000Y-38741000D03*
X48757000Y-46361000D03*
X48757000Y-48901000D03*
X48757000Y-43821000D03*
X48757000Y-41281000D03*
X58917000Y-41281000D03*
D26*
X83735000Y-42480000D03*
D27*
X83735000Y-44980000D03*
X83735000Y-39980000D03*
X65735000Y-46480000D03*
X65735000Y-44480000D03*
X65735000Y-42480000D03*
X65735000Y-40480000D03*
X65735000Y-38480000D03*
X65735000Y-36480000D03*
X65735000Y-34480000D03*
X65735000Y-48480000D03*
D28*
X40640000Y-35560000D03*
X40640000Y-33020000D03*
X40640000Y-30480000D03*
X38100000Y-30480000D03*
X35560000Y-30480000D03*
X33020000Y-30480000D03*
X30480000Y-30480000D03*
X27940000Y-30480000D03*
X25400000Y-30480000D03*
X22860000Y-30480000D03*
X20320000Y-30480000D03*
X17780000Y-30480000D03*
X15240000Y-30480000D03*
X12700000Y-30480000D03*
X12700000Y-45720000D03*
X15240000Y-45720000D03*
X17780000Y-45720000D03*
X20320000Y-45720000D03*
X22860000Y-45720000D03*
X25400000Y-45720000D03*
X27940000Y-45720000D03*
X30480000Y-45720000D03*
X33020000Y-45720000D03*
X35560000Y-45720000D03*
X38100000Y-45720000D03*
X40640000Y-45720000D03*
X24130000Y-33020000D03*
X21590000Y-33020000D03*
X40640000Y-38100000D03*
X10160000Y-44450000D03*
X10160000Y-41910000D03*
X10160000Y-39370000D03*
X10160000Y-36830000D03*
X10160000Y-34290000D03*
X10160000Y-31750000D03*
D16*
X3048000Y-13970000D03*
X3048000Y-16510000D03*
D17*
X3048000Y-19050000D03*
D16*
X2921000Y-26670000D03*
D17*
X2921000Y-24130000D03*
D16*
X24130000Y-22860000D03*
X21590000Y-22860000D03*
X19050000Y-22860000D03*
X16510000Y-22860000D03*
X13970000Y-22860000D03*
D17*
X11430000Y-22860000D03*
D16*
X59690000Y-60960000D03*
X62230000Y-60960000D03*
X64770000Y-60960000D03*
X67310000Y-60960000D03*
X69850000Y-60960000D03*
D17*
X72390000Y-60960000D03*
D16*
X29210000Y-60960000D03*
X26670000Y-60960000D03*
X24130000Y-60960000D03*
X21590000Y-60960000D03*
X19050000Y-60960000D03*
D17*
X16510000Y-60960000D03*
D16*
X83820000Y-26670000D03*
D17*
X83820000Y-24130000D03*
D12*
X75951000Y-54362000D03*
X9657000Y-54235000D03*
X9657000Y-8261000D03*
X75697000Y-8261000D03*
D29*
X39243000Y-9271000D03*
D30*
X31623000Y-9271000D03*
D29*
X63627000Y-56515000D03*
D30*
X71247000Y-56515000D03*
D29*
X63627000Y-53213000D03*
D30*
X71247000Y-53213000D03*
D29*
X53340000Y-31750000D03*
D30*
X60960000Y-31750000D03*
D28*
X3810000Y-34290000D03*
D22*
X1270000Y-34290000D03*
D31*
X15240000Y-15240000D03*
D32*
X15240000Y-17240000D03*
D18*
X14431000Y-26416000D03*
X19431000Y-26416000D03*
D31*
X64810000Y-27940000D03*
D32*
X67310000Y-27940000D03*
M02*
