M48
; DRILL file {KiCad 6.0.11-2627ca5db0~126~ubuntu22.04.1} date So 27 Aug 2023 19:56:32 CEST
; FORMAT={-:-/ absolute / inch / decimal}
; #@! TF.CreationDate,2023-08-27T19:56:32+02:00
; #@! TF.GenerationSoftware,Kicad,Pcbnew,6.0.11-2627ca5db0~126~ubuntu22.04.1
; #@! TF.FileFunction,Plated,1,2,PTH
FMAT,2
INCH
; #@! TA.AperFunction,Plated,PTH,ComponentDrill
T1C0.0079
; #@! TA.AperFunction,Plated,PTH,ViaDrill
T2C0.0157
; #@! TA.AperFunction,Plated,PTH,ComponentDrill
T3C0.0256
; #@! TA.AperFunction,Plated,PTH,ComponentDrill
T4C0.0295
; #@! TA.AperFunction,Plated,PTH,ComponentDrill
T5C0.0315
%
G90
G05
T1
X0.3004Y0.38
X0.3004Y0.3426
X0.3004Y0.3052
X0.3378Y0.38
X0.3378Y0.3426
X0.3378Y0.3052
X0.3752Y0.38
X0.3752Y0.3426
X0.3752Y0.3052
T2
X0.03Y0.48
X0.05Y0.04
X0.07Y0.48
X0.0854Y0.308
X0.0965Y0.2244
X0.1074Y0.1
X0.11Y0.48
X0.11Y0.04
X0.134Y0.446
X0.14Y0.14
X0.17Y0.1
X0.17Y0.04
X0.1711Y0.1796
X0.1808Y0.4409
X0.21Y0.43
X0.21Y0.13
X0.21Y0.07
X0.215Y0.18
X0.2171Y0.3195
X0.26Y0.02
X0.2689Y0.241
X0.275Y0.445
X0.3103Y0.2315
X0.35Y0.02
X0.3594Y0.2334
X0.385Y0.425
X0.4Y0.07
X0.424Y0.234
X0.43Y0.17
X0.43Y0.13
X0.43Y0.09
X0.43Y0.02
X0.4535Y0.2709
X0.455Y0.39
X0.455Y0.06
X0.48Y0.17
X0.48Y0.13
X0.48Y0.09
X0.492Y0.268
X0.5Y0.39
X0.51Y0.06
X0.53Y0.268
X0.53Y0.17
X0.53Y0.13
X0.53Y0.09
X0.54Y0.48
X0.54Y0.44
X0.54Y0.39
X0.54Y0.22
X0.56Y0.06
X0.58Y0.48
X0.58Y0.44
X0.615Y0.02
X0.62Y0.48
X0.62Y0.44
X0.65Y0.02
X0.66Y0.48
X0.66Y0.44
X0.66Y0.4
X0.7Y0.48
X0.7Y0.44
X0.7Y0.4
X0.718Y0.24
X0.718Y0.198
X0.72Y0.28
X0.73Y0.35
X0.73Y0.31
T3
X0.0Y0.4287
X0.0Y0.3787
X0.0Y0.3287
X0.0Y0.2787
X0.0Y0.2287
X0.0Y0.1787
X0.0Y0.1287
X0.0Y0.0787
T4
X0.0512Y0.4287
X0.0512Y0.3787
X0.0512Y0.3287
X0.0512Y0.2787
X0.0512Y0.2287
X0.0512Y0.1787
X0.0512Y0.1287
X0.0512Y0.0787
T5
X0.7047Y0.1398
X0.7047Y0.05
X0.748Y0.1398
X0.748Y0.05
T0
M30
