%TF.GenerationSoftware,KiCad,Pcbnew,6.0.11-2627ca5db0~126~ubuntu22.04.1*%
%TF.CreationDate,2023-09-29T08:59:02+02:00*%
%TF.ProjectId,CC1101_868MHz_RF_Modul_FUEL4EP,43433131-3031-45f3-9836-384d487a5f52,1.6*%
%TF.SameCoordinates,Original*%
%TF.FileFunction,Legend,Top*%
%TF.FilePolarity,Positive*%
%FSLAX46Y46*%
G04 Gerber Fmt 4.6, Leading zero omitted, Abs format (unit mm)*
G04 Created by KiCad (PCBNEW 6.0.11-2627ca5db0~126~ubuntu22.04.1) date 2023-09-29 08:59:02*
%MOMM*%
%LPD*%
G01*
G04 APERTURE LIST*
G04 Aperture macros list*
%AMRoundRect*
0 Rectangle with rounded corners*
0 $1 Rounding radius*
0 $2 $3 $4 $5 $6 $7 $8 $9 X,Y pos of 4 corners*
0 Add a 4 corners polygon primitive as box body*
4,1,4,$2,$3,$4,$5,$6,$7,$8,$9,$2,$3,0*
0 Add four circle primitives for the rounded corners*
1,1,$1+$1,$2,$3*
1,1,$1+$1,$4,$5*
1,1,$1+$1,$6,$7*
1,1,$1+$1,$8,$9*
0 Add four rect primitives between the rounded corners*
20,1,$1+$1,$2,$3,$4,$5,0*
20,1,$1+$1,$4,$5,$6,$7,0*
20,1,$1+$1,$6,$7,$8,$9,0*
20,1,$1+$1,$8,$9,$2,$3,0*%
G04 Aperture macros list end*
%ADD10C,0.176200*%
%ADD11C,0.150000*%
%ADD12C,0.120000*%
%ADD13RoundRect,0.147500X-0.147500X-0.172500X0.147500X-0.172500X0.147500X0.172500X-0.147500X0.172500X0*%
%ADD14RoundRect,0.140000X0.140000X0.170000X-0.140000X0.170000X-0.140000X-0.170000X0.140000X-0.170000X0*%
%ADD15RoundRect,0.140000X-0.140000X-0.170000X0.140000X-0.170000X0.140000X0.170000X-0.140000X0.170000X0*%
%ADD16RoundRect,0.250000X-0.600000X-0.250000X0.600000X-0.250000X0.600000X0.250000X-0.600000X0.250000X0*%
%ADD17RoundRect,0.147500X-0.172500X0.147500X-0.172500X-0.147500X0.172500X-0.147500X0.172500X0.147500X0*%
%ADD18RoundRect,0.140000X0.170000X-0.140000X0.170000X0.140000X-0.170000X0.140000X-0.170000X-0.140000X0*%
%ADD19R,1.800000X1.500000*%
%ADD20RoundRect,0.140000X-0.170000X0.140000X-0.170000X-0.140000X0.170000X-0.140000X0.170000X0.140000X0*%
%ADD21RoundRect,0.135000X0.135000X0.185000X-0.135000X0.185000X-0.135000X-0.185000X0.135000X-0.185000X0*%
%ADD22R,1.400000X1.200000*%
%ADD23RoundRect,0.225000X-0.250000X0.225000X-0.250000X-0.225000X0.250000X-0.225000X0.250000X0.225000X0*%
%ADD24R,1.700000X1.000000*%
%ADD25RoundRect,0.062500X-0.425000X-0.062500X0.425000X-0.062500X0.425000X0.062500X-0.425000X0.062500X0*%
%ADD26RoundRect,0.062500X-0.062500X-0.425000X0.062500X-0.425000X0.062500X0.425000X-0.062500X0.425000X0*%
%ADD27R,2.400000X2.400000*%
G04 APERTURE END LIST*
D10*
X5538100Y1025000D02*
G75*
G03*
X5538100Y1025000I-88100J0D01*
G01*
X6288100Y10225000D02*
G75*
G03*
X6288100Y10225000I-88100J0D01*
G01*
D11*
X15339285Y1075000D02*
X15625000Y1075000D01*
X15282142Y903571D02*
X15482142Y1503571D01*
X15682142Y903571D01*
X15882142Y903571D02*
X15882142Y1503571D01*
X16225000Y903571D01*
X16225000Y1503571D01*
X16425000Y1503571D02*
X16767857Y1503571D01*
X16596428Y903571D02*
X16596428Y1503571D01*
D12*
%TO.C,C14*%
X8106236Y11476400D02*
X7890564Y11476400D01*
X8106236Y12196400D02*
X7890564Y12196400D01*
%TO.C,C5*%
X17332036Y8285200D02*
X17116364Y8285200D01*
X17332036Y7565200D02*
X17116364Y7565200D01*
%TO.C,C3*%
X15052764Y5973800D02*
X15268436Y5973800D01*
X15052764Y5253800D02*
X15268436Y5253800D01*
%TO.C,C2*%
X13369000Y8276964D02*
X13369000Y8492636D01*
X14089000Y8276964D02*
X14089000Y8492636D01*
%TO.C,C7*%
X15840000Y3702164D02*
X15840000Y3917836D01*
X16560000Y3702164D02*
X16560000Y3917836D01*
%TO.C,C16*%
X4373200Y6000636D02*
X4373200Y5784964D01*
X3653200Y6000636D02*
X3653200Y5784964D01*
%TO.C,R1*%
X10008841Y12216400D02*
X9701559Y12216400D01*
X10008841Y11456400D02*
X9701559Y11456400D01*
%TO.C,C15*%
X11324000Y5693164D02*
X11324000Y5908836D01*
X12044000Y5693164D02*
X12044000Y5908836D01*
%TO.C,C17*%
X13060000Y5693164D02*
X13060000Y5908836D01*
X12340000Y5693164D02*
X12340000Y5908836D01*
%TO.C,Y1*%
X5823200Y890000D02*
X9823200Y890000D01*
X5823200Y4190000D02*
X5823200Y890000D01*
%TO.C,C13*%
X5717000Y6871580D02*
X5717000Y6590420D01*
X4697000Y6871580D02*
X4697000Y6590420D01*
%TO.C,C10*%
X5765164Y11451000D02*
X5980836Y11451000D01*
X5765164Y12171000D02*
X5980836Y12171000D01*
%TO.C,C4*%
X15052764Y8259800D02*
X15268436Y8259800D01*
X15052764Y7539800D02*
X15268436Y7539800D01*
%TO.C,C12*%
X11842636Y12171000D02*
X11626964Y12171000D01*
X11842636Y11451000D02*
X11626964Y11451000D01*
%TO.C,C11*%
X12017164Y9765000D02*
X12232836Y9765000D01*
X12017164Y10485000D02*
X12232836Y10485000D01*
%TO.C,C8*%
X7308964Y4364400D02*
X7524636Y4364400D01*
X7308964Y5084400D02*
X7524636Y5084400D01*
%TO.C,C1*%
X15052764Y10342600D02*
X15268436Y10342600D01*
X15052764Y9622600D02*
X15268436Y9622600D01*
%TO.C,C6*%
X14880000Y3702164D02*
X14880000Y3917836D01*
X15600000Y3702164D02*
X15600000Y3917836D01*
%TO.C,C9*%
X9734436Y4364400D02*
X9518764Y4364400D01*
X9734436Y5084400D02*
X9518764Y5084400D01*
%TO.C,U1*%
X6469000Y6592800D02*
X6469000Y7317800D01*
X10689000Y6592800D02*
X10689000Y7317800D01*
X9964000Y10812800D02*
X10689000Y10812800D01*
X7194000Y6592800D02*
X6469000Y6592800D01*
X7194000Y10812800D02*
X6469000Y10812800D01*
X9964000Y6592800D02*
X10689000Y6592800D01*
X10689000Y10812800D02*
X10689000Y10087800D01*
%TD*%
%LPC*%
D13*
%TO.C,L1*%
X11794000Y8892800D03*
X12764000Y8892800D03*
%TD*%
D14*
%TO.C,C14*%
X8478400Y11836400D03*
X7518400Y11836400D03*
%TD*%
D13*
%TO.C,L7*%
X15263000Y2413000D03*
X16233000Y2413000D03*
%TD*%
%TO.C,L3*%
X14695600Y6731400D03*
X15665600Y6731400D03*
%TD*%
%TO.C,L2*%
X11794000Y7902800D03*
X12764000Y7902800D03*
%TD*%
D14*
%TO.C,C5*%
X17704200Y7925200D03*
X16744200Y7925200D03*
%TD*%
D15*
%TO.C,C3*%
X14680600Y5613800D03*
X15640600Y5613800D03*
%TD*%
D16*
%TO.C,JC5*%
X950000Y5810000D03*
%TD*%
D17*
%TO.C,L6*%
X16750000Y6735000D03*
X16750000Y5765000D03*
%TD*%
D18*
%TO.C,C2*%
X13729000Y7904800D03*
X13729000Y8864800D03*
%TD*%
D19*
%TO.C,JA1*%
X18000000Y3550000D03*
%TD*%
D16*
%TO.C,JC8*%
X950000Y2000000D03*
%TD*%
D18*
%TO.C,C7*%
X16200000Y3330000D03*
X16200000Y4290000D03*
%TD*%
D20*
%TO.C,C16*%
X4013200Y6372800D03*
X4013200Y5412800D03*
%TD*%
D21*
%TO.C,R1*%
X10365200Y11836400D03*
X9345200Y11836400D03*
%TD*%
D18*
%TO.C,C15*%
X11684000Y5321000D03*
X11684000Y6281000D03*
%TD*%
%TO.C,C17*%
X12700000Y5321000D03*
X12700000Y6281000D03*
%TD*%
D19*
%TO.C,JA2*%
X18000000Y1270000D03*
%TD*%
D13*
%TO.C,L4*%
X14695600Y8966600D03*
X15665600Y8966600D03*
%TD*%
D22*
%TO.C,Y1*%
X6723200Y1690000D03*
X8923200Y1690000D03*
X8923200Y3390000D03*
X6723200Y3390000D03*
%TD*%
D23*
%TO.C,C13*%
X5207000Y7506000D03*
X5207000Y5956000D03*
%TD*%
D15*
%TO.C,C10*%
X5393000Y11811000D03*
X6353000Y11811000D03*
%TD*%
%TO.C,C4*%
X14680600Y7899800D03*
X15640600Y7899800D03*
%TD*%
D16*
%TO.C,JC6*%
X950000Y4540000D03*
%TD*%
D13*
%TO.C,FB1*%
X1340000Y12275000D03*
X2310000Y12275000D03*
%TD*%
D14*
%TO.C,C12*%
X12214800Y11811000D03*
X11254800Y11811000D03*
%TD*%
D16*
%TO.C,JC3*%
X950000Y8350000D03*
%TD*%
%TO.C,JC2*%
X950000Y9620000D03*
%TD*%
D24*
%TO.C,JC1*%
X950000Y10890000D03*
%TD*%
D13*
%TO.C,L5*%
X16759200Y8941200D03*
X17729200Y8941200D03*
%TD*%
D15*
%TO.C,C11*%
X11645000Y10125000D03*
X12605000Y10125000D03*
%TD*%
%TO.C,C8*%
X6936800Y4724400D03*
X7896800Y4724400D03*
%TD*%
%TO.C,C1*%
X14680600Y9982600D03*
X15640600Y9982600D03*
%TD*%
D18*
%TO.C,C6*%
X15240000Y3330000D03*
X15240000Y4290000D03*
%TD*%
D14*
%TO.C,C9*%
X10106600Y4724400D03*
X9146600Y4724400D03*
%TD*%
D16*
%TO.C,JC4*%
X950000Y7080000D03*
%TD*%
D25*
%TO.C,U1*%
X6691500Y9702800D03*
X6691500Y9202800D03*
X6691500Y8702800D03*
X6691500Y8202800D03*
X6691500Y7702800D03*
D26*
X7579000Y6815300D03*
X8079000Y6815300D03*
X8579000Y6815300D03*
X9079000Y6815300D03*
X9579000Y6815300D03*
D25*
X10466500Y7702800D03*
X10466500Y8202800D03*
X10466500Y8702800D03*
X10466500Y9202800D03*
X10466500Y9702800D03*
D26*
X9579000Y10590300D03*
X9079000Y10590300D03*
X8579000Y10590300D03*
X8079000Y10590300D03*
X7579000Y10590300D03*
D27*
X8579000Y8702800D03*
%TD*%
D16*
%TO.C,JC7*%
X950000Y3270000D03*
%TD*%
M02*
