%TF.GenerationSoftware,KiCad,Pcbnew,6.0.11-2627ca5db0~126~ubuntu22.04.1*%
%TF.CreationDate,2023-08-25T11:10:15+02:00*%
%TF.ProjectId,CC1101_868MHz_RF_Modul_FUEL4EP,43433131-3031-45f3-9836-384d487a5f52,1.0*%
%TF.SameCoordinates,Original*%
%TF.FileFunction,Copper,L1,Top*%
%TF.FilePolarity,Positive*%
%FSLAX46Y46*%
G04 Gerber Fmt 4.6, Leading zero omitted, Abs format (unit mm)*
G04 Created by KiCad (PCBNEW 6.0.11-2627ca5db0~126~ubuntu22.04.1) date 2023-08-25 11:10:15*
%MOMM*%
%LPD*%
G01*
G04 APERTURE LIST*
G04 Aperture macros list*
%AMRoundRect*
0 Rectangle with rounded corners*
0 $1 Rounding radius*
0 $2 $3 $4 $5 $6 $7 $8 $9 X,Y pos of 4 corners*
0 Add a 4 corners polygon primitive as box body*
4,1,4,$2,$3,$4,$5,$6,$7,$8,$9,$2,$3,0*
0 Add four circle primitives for the rounded corners*
1,1,$1+$1,$2,$3*
1,1,$1+$1,$4,$5*
1,1,$1+$1,$6,$7*
1,1,$1+$1,$8,$9*
0 Add four rect primitives between the rounded corners*
20,1,$1+$1,$2,$3,$4,$5,0*
20,1,$1+$1,$4,$5,$6,$7,0*
20,1,$1+$1,$6,$7,$8,$9,0*
20,1,$1+$1,$8,$9,$2,$3,0*%
G04 Aperture macros list end*
%TA.AperFunction,SMDPad,CuDef*%
%ADD10RoundRect,0.147500X-0.147500X-0.172500X0.147500X-0.172500X0.147500X0.172500X-0.147500X0.172500X0*%
%TD*%
%TA.AperFunction,SMDPad,CuDef*%
%ADD11RoundRect,0.140000X0.140000X0.170000X-0.140000X0.170000X-0.140000X-0.170000X0.140000X-0.170000X0*%
%TD*%
%TA.AperFunction,SMDPad,CuDef*%
%ADD12RoundRect,0.147500X-0.172500X0.147500X-0.172500X-0.147500X0.172500X-0.147500X0.172500X0.147500X0*%
%TD*%
%TA.AperFunction,SMDPad,CuDef*%
%ADD13RoundRect,0.140000X-0.140000X-0.170000X0.140000X-0.170000X0.140000X0.170000X-0.140000X0.170000X0*%
%TD*%
%TA.AperFunction,CastellatedPad*%
%ADD14O,2.200000X0.800000*%
%TD*%
%TA.AperFunction,CastellatedPad*%
%ADD15O,0.800000X0.800000*%
%TD*%
%TA.AperFunction,SMDPad,CuDef*%
%ADD16RoundRect,0.140000X0.170000X-0.140000X0.170000X0.140000X-0.170000X0.140000X-0.170000X-0.140000X0*%
%TD*%
%TA.AperFunction,CastellatedPad*%
%ADD17R,2.300000X1.500000*%
%TD*%
%TA.AperFunction,CastellatedPad*%
%ADD18R,1.300000X1.500000*%
%TD*%
%TA.AperFunction,SMDPad,CuDef*%
%ADD19RoundRect,0.140000X-0.170000X0.140000X-0.170000X-0.140000X0.170000X-0.140000X0.170000X0.140000X0*%
%TD*%
%TA.AperFunction,SMDPad,CuDef*%
%ADD20RoundRect,0.135000X0.135000X0.185000X-0.135000X0.185000X-0.135000X-0.185000X0.135000X-0.185000X0*%
%TD*%
%TA.AperFunction,SMDPad,CuDef*%
%ADD21R,1.400000X1.200000*%
%TD*%
%TA.AperFunction,CastellatedPad*%
%ADD22R,0.800000X0.800000*%
%TD*%
%TA.AperFunction,CastellatedPad*%
%ADD23R,2.200000X0.800000*%
%TD*%
%TA.AperFunction,SMDPad,CuDef*%
%ADD24RoundRect,0.062500X-0.425000X-0.062500X0.425000X-0.062500X0.425000X0.062500X-0.425000X0.062500X0*%
%TD*%
%TA.AperFunction,SMDPad,CuDef*%
%ADD25RoundRect,0.062500X-0.062500X-0.425000X0.062500X-0.425000X0.062500X0.425000X-0.062500X0.425000X0*%
%TD*%
%TA.AperFunction,ComponentPad*%
%ADD26C,0.500000*%
%TD*%
%TA.AperFunction,SMDPad,CuDef*%
%ADD27R,2.400000X2.400000*%
%TD*%
%TA.AperFunction,ViaPad*%
%ADD28C,0.600000*%
%TD*%
%TA.AperFunction,Conductor*%
%ADD29C,0.250000*%
%TD*%
%TA.AperFunction,Conductor*%
%ADD30C,0.200000*%
%TD*%
%TA.AperFunction,Conductor*%
%ADD31C,0.500000*%
%TD*%
G04 APERTURE END LIST*
D10*
%TO.P,L1,1,1*%
%TO.N,Net-(L1-Pad1)*%
X11794000Y8892800D03*
%TO.P,L1,2,2*%
%TO.N,Net-(C1-Pad1)*%
X12764000Y8892800D03*
%TD*%
D11*
%TO.P,C14,1*%
%TO.N,VDDA*%
X8608000Y11811000D03*
%TO.P,C14,2*%
%TO.N,GND*%
X7648000Y11811000D03*
%TD*%
D12*
%TO.P,L7,1,1*%
%TO.N,Net-(C6-Pad1)*%
X15189200Y2618600D03*
%TO.P,L7,2,2*%
%TO.N,Net-(C7-Pad1)*%
X15189200Y1648600D03*
%TD*%
D10*
%TO.P,L3,1,1*%
%TO.N,Net-(C2-Pad1)*%
X14695600Y6731400D03*
%TO.P,L3,2,2*%
%TO.N,Net-(C3-Pad2)*%
X15665600Y6731400D03*
%TD*%
%TO.P,L2,1,1*%
%TO.N,Net-(L2-Pad1)*%
X11794000Y7902800D03*
%TO.P,L2,2,2*%
%TO.N,Net-(C2-Pad1)*%
X12764000Y7902800D03*
%TD*%
D11*
%TO.P,C5,1*%
%TO.N,GND*%
X17704200Y7925200D03*
%TO.P,C5,2*%
%TO.N,Net-(C5-Pad2)*%
X16744200Y7925200D03*
%TD*%
D13*
%TO.P,C3,1*%
%TO.N,GND*%
X14680600Y5613800D03*
%TO.P,C3,2*%
%TO.N,Net-(C3-Pad2)*%
X15640600Y5613800D03*
%TD*%
D14*
%TO.P,JC5,1,Pin_1*%
%TO.N,/MOSI*%
X700000Y5810000D03*
D15*
X1400000Y5810000D03*
%TD*%
D12*
%TO.P,L6,1,1*%
%TO.N,Net-(C5-Pad2)*%
X17141800Y6556000D03*
%TO.P,L6,2,2*%
%TO.N,Net-(C6-Pad2)*%
X17141800Y5586000D03*
%TD*%
D16*
%TO.P,C2,1*%
%TO.N,Net-(C2-Pad1)*%
X13729000Y7904800D03*
%TO.P,C2,2*%
%TO.N,Net-(C1-Pad1)*%
X13729000Y8864800D03*
%TD*%
D17*
%TO.P,JA1,1,Pin_1*%
%TO.N,GND*%
X18400000Y3550000D03*
D18*
X17900000Y3550000D03*
%TD*%
D14*
%TO.P,JC8,1,Pin_1*%
%TO.N,GND*%
X700000Y2000000D03*
D15*
X1400000Y2000000D03*
%TD*%
D16*
%TO.P,C7,1*%
%TO.N,Net-(C7-Pad1)*%
X16256000Y3076000D03*
%TO.P,C7,2*%
%TO.N,Net-(C6-Pad2)*%
X16256000Y4036000D03*
%TD*%
D19*
%TO.P,C16,1*%
%TO.N,Net-(C16-Pad1)*%
X5435600Y6728400D03*
%TO.P,C16,2*%
%TO.N,GND*%
X5435600Y5768400D03*
%TD*%
D20*
%TO.P,R1,1*%
%TO.N,GND*%
X10797000Y11811000D03*
%TO.P,R1,2*%
%TO.N,Net-(R1-Pad2)*%
X9777000Y11811000D03*
%TD*%
D19*
%TO.P,C15,1*%
%TO.N,VDDA*%
X11692800Y5814000D03*
%TO.P,C15,2*%
%TO.N,GND*%
X11692800Y4854000D03*
%TD*%
%TO.P,C17,1*%
%TO.N,VDDA*%
X12801600Y5814000D03*
%TO.P,C17,2*%
%TO.N,GND*%
X12801600Y4854000D03*
%TD*%
D18*
%TO.P,JA2,1,Pin_1*%
%TO.N,Net-(C7-Pad1)*%
X17900000Y1270000D03*
D17*
X18400000Y1270000D03*
%TD*%
D10*
%TO.P,L4,1,1*%
%TO.N,Net-(C1-Pad1)*%
X14695600Y8966600D03*
%TO.P,L4,2,2*%
%TO.N,Net-(C4-Pad2)*%
X15665600Y8966600D03*
%TD*%
D21*
%TO.P,Y1,1,1*%
%TO.N,Net-(C8-Pad2)*%
X6723200Y1690000D03*
%TO.P,Y1,2,2*%
%TO.N,GND*%
X8923200Y1690000D03*
%TO.P,Y1,3,3*%
%TO.N,Net-(C9-Pad2)*%
X8923200Y3390000D03*
%TO.P,Y1,4,4*%
%TO.N,GND*%
X6723200Y3390000D03*
%TD*%
D19*
%TO.P,C13,1*%
%TO.N,VDDA*%
X4470400Y8113600D03*
%TO.P,C13,2*%
%TO.N,GND*%
X4470400Y7153600D03*
%TD*%
D13*
%TO.P,C10,1*%
%TO.N,VDDA*%
X5393000Y11811000D03*
%TO.P,C10,2*%
%TO.N,GND*%
X6353000Y11811000D03*
%TD*%
%TO.P,C4,1*%
%TO.N,Net-(C2-Pad1)*%
X14680600Y7899800D03*
%TO.P,C4,2*%
%TO.N,Net-(C4-Pad2)*%
X15640600Y7899800D03*
%TD*%
D15*
%TO.P,JC6,1,Pin_1*%
%TO.N,/MISO{slash}GDO1*%
X1400000Y4540000D03*
D14*
X700000Y4540000D03*
%TD*%
D13*
%TO.P,C12,1*%
%TO.N,VDDA*%
X11712000Y12090400D03*
%TO.P,C12,2*%
%TO.N,GND*%
X12672000Y12090400D03*
%TD*%
D14*
%TO.P,JC3,1,Pin_1*%
%TO.N,/~{CS}*%
X700000Y8350000D03*
D15*
X1400000Y8350000D03*
%TD*%
%TO.P,JC2,1,Pin_1*%
%TO.N,/GDO0*%
X1400000Y9620000D03*
D14*
X700000Y9620000D03*
%TD*%
D22*
%TO.P,JC1,1,Pin_1*%
%TO.N,VDDA*%
X1400000Y10890000D03*
D23*
X700000Y10890000D03*
%TD*%
D10*
%TO.P,L5,1,1*%
%TO.N,Net-(C4-Pad2)*%
X16759200Y8941200D03*
%TO.P,L5,2,2*%
%TO.N,Net-(C5-Pad2)*%
X17729200Y8941200D03*
%TD*%
D13*
%TO.P,C11,1*%
%TO.N,VDDA*%
X11712000Y11023600D03*
%TO.P,C11,2*%
%TO.N,GND*%
X12672000Y11023600D03*
%TD*%
%TO.P,C8,1*%
%TO.N,GND*%
X6936800Y4826000D03*
%TO.P,C8,2*%
%TO.N,Net-(C8-Pad2)*%
X7896800Y4826000D03*
%TD*%
%TO.P,C1,1*%
%TO.N,Net-(C1-Pad1)*%
X14680600Y9982600D03*
%TO.P,C1,2*%
%TO.N,GND*%
X15640600Y9982600D03*
%TD*%
D16*
%TO.P,C6,1*%
%TO.N,Net-(C6-Pad1)*%
X15189200Y3634800D03*
%TO.P,C6,2*%
%TO.N,Net-(C6-Pad2)*%
X15189200Y4594800D03*
%TD*%
D11*
%TO.P,C9,1*%
%TO.N,GND*%
X10205000Y4801000D03*
%TO.P,C9,2*%
%TO.N,Net-(C9-Pad2)*%
X9245000Y4801000D03*
%TD*%
D15*
%TO.P,JC4,1,Pin_1*%
%TO.N,/SCK*%
X1400000Y7080000D03*
D14*
X700000Y7080000D03*
%TD*%
D24*
%TO.P,U1,1,SCLK*%
%TO.N,/SCK*%
X6691500Y9702800D03*
%TO.P,U1,2,SO/GDO1*%
%TO.N,/MISO{slash}GDO1*%
X6691500Y9202800D03*
%TO.P,U1,3,GDO2*%
%TO.N,/GDO2*%
X6691500Y8702800D03*
%TO.P,U1,4,DVDD*%
%TO.N,VDDA*%
X6691500Y8202800D03*
%TO.P,U1,5,DCOUPL*%
%TO.N,Net-(C16-Pad1)*%
X6691500Y7702800D03*
D25*
%TO.P,U1,6,GDO0*%
%TO.N,/GDO0*%
X7579000Y6815300D03*
%TO.P,U1,7,~{CS}*%
%TO.N,/~{CS}*%
X8079000Y6815300D03*
%TO.P,U1,8,XOSC_Q1*%
%TO.N,Net-(C8-Pad2)*%
X8579000Y6815300D03*
%TO.P,U1,9,AVDD1*%
%TO.N,VDDA*%
X9079000Y6815300D03*
%TO.P,U1,10,XOSC_Q2*%
%TO.N,Net-(C9-Pad2)*%
X9579000Y6815300D03*
D24*
%TO.P,U1,11,AVDD2*%
%TO.N,VDDA*%
X10466500Y7702800D03*
%TO.P,U1,12,RF_P*%
%TO.N,Net-(L2-Pad1)*%
X10466500Y8202800D03*
%TO.P,U1,13,RF_N*%
%TO.N,Net-(L1-Pad1)*%
X10466500Y8702800D03*
%TO.P,U1,14,AVDD3*%
%TO.N,VDDA*%
X10466500Y9202800D03*
%TO.P,U1,15,AVDD4*%
X10466500Y9702800D03*
D25*
%TO.P,U1,16,GND1*%
%TO.N,GND*%
X9579000Y10590300D03*
%TO.P,U1,17,RBIAS*%
%TO.N,Net-(R1-Pad2)*%
X9079000Y10590300D03*
%TO.P,U1,18,DGUARD*%
%TO.N,VDDA*%
X8579000Y10590300D03*
%TO.P,U1,19,GND2*%
%TO.N,GND*%
X8079000Y10590300D03*
%TO.P,U1,20,SI*%
%TO.N,/MOSI*%
X7579000Y10590300D03*
D26*
%TO.P,U1,21,GND3*%
%TO.N,GND*%
X7629000Y8702800D03*
X8579000Y8702800D03*
X7629000Y7752800D03*
X9529000Y9652800D03*
X7629000Y9652800D03*
X9529000Y8702800D03*
X8579000Y9652800D03*
X8579000Y7752800D03*
D27*
X8579000Y8702800D03*
D26*
X9529000Y7752800D03*
%TD*%
D14*
%TO.P,JC7,1,Pin_1*%
%TO.N,/GDO2*%
X700000Y3270000D03*
D15*
X1400000Y3270000D03*
%TD*%
D28*
%TO.N,GND*%
X14224000Y1524000D03*
X762000Y12192000D03*
X14732000Y12192000D03*
X12954000Y1524000D03*
X4318000Y1016000D03*
X6604000Y508000D03*
X8890000Y508000D03*
X6985000Y11303000D03*
X4318000Y2540000D03*
X3556000Y3556000D03*
X10922000Y2286000D03*
X2794000Y1016000D03*
X18542000Y8890000D03*
X2794000Y12192000D03*
X12192000Y2286000D03*
X5461000Y4572000D03*
X17780000Y11176000D03*
X10922000Y3302000D03*
X10922000Y508000D03*
X13462000Y6807200D03*
X13462000Y2286000D03*
X16764000Y10160000D03*
X12496800Y6807200D03*
X15748000Y12192000D03*
X9780000Y10794000D03*
X10922000Y4318000D03*
X16764000Y11176000D03*
X5334000Y3302000D03*
X18542000Y7874000D03*
X16383000Y1778000D03*
X13716000Y9906000D03*
X18237200Y5029200D03*
X14732000Y11176000D03*
X15748000Y11176000D03*
X17780000Y10160000D03*
X16764000Y12192000D03*
X2540000Y5334000D03*
X13716000Y11176000D03*
X12700000Y9906000D03*
X5334000Y10922000D03*
X18237200Y6096000D03*
X11557000Y9906000D03*
X18288000Y7112000D03*
X1778000Y12192000D03*
X2727589Y2540000D03*
X13462000Y3302000D03*
X13462000Y4318000D03*
X4346102Y4561781D03*
X13716000Y12192000D03*
X11519100Y6879745D03*
X10160000Y1778000D03*
X13716000Y5588000D03*
X17780000Y12192000D03*
X1270000Y1016000D03*
X15621000Y508000D03*
X16510000Y508000D03*
X5334000Y1778000D03*
X11557000Y1524000D03*
X4592391Y11199563D03*
X12192000Y4318000D03*
X12192000Y3302000D03*
%TO.N,/GDO0*%
X6829400Y6121800D03*
%TO.N,/MOSI*%
X2169500Y7823200D03*
%TO.N,/~{CS}*%
X7880500Y5881339D03*
%TO.N,VDDA*%
X5514282Y8114709D03*
X9129500Y5929100D03*
X3403600Y11328400D03*
X10769600Y5943600D03*
%TD*%
D29*
%TO.N,GND*%
X8079000Y9799247D02*
X8225447Y9652800D01*
X8079000Y10590300D02*
X8079000Y9799247D01*
X9780000Y10794000D02*
X10797000Y11811000D01*
X9579000Y10590300D02*
X9579000Y9702800D01*
X9579000Y10593000D02*
X9780000Y10794000D01*
X13563600Y11023600D02*
X13716000Y11176000D01*
X8079000Y10590300D02*
X8079000Y11380000D01*
X12672000Y11023600D02*
X13563600Y11023600D01*
X8079000Y11380000D02*
X7648000Y11811000D01*
%TO.N,Net-(C1-Pad1)*%
X13729000Y8864800D02*
X14593800Y8864800D01*
X12764000Y8892800D02*
X13701000Y8892800D01*
X14695600Y8966600D02*
X14695600Y9967600D01*
%TO.N,Net-(C2-Pad1)*%
X14680600Y7899800D02*
X14680600Y6746400D01*
X13729000Y7904800D02*
X14675600Y7904800D01*
X12764000Y7902800D02*
X13727000Y7902800D01*
%TO.N,Net-(C3-Pad2)*%
X15665600Y6731400D02*
X15665600Y5638800D01*
%TO.N,Net-(C4-Pad2)*%
X15773800Y8950400D02*
X16750000Y8950400D01*
X15640600Y7899800D02*
X15640600Y8941600D01*
%TO.N,Net-(C5-Pad2)*%
X16744200Y6953600D02*
X17141800Y6556000D01*
X16744200Y7925200D02*
X16744200Y6953600D01*
X17729200Y8922984D02*
X16744200Y7937984D01*
%TO.N,Net-(C6-Pad1)*%
X15189200Y3634800D02*
X15189200Y2618600D01*
%TO.N,Net-(C6-Pad2)*%
X17141800Y5586000D02*
X17141800Y4921800D01*
X16256000Y4036000D02*
X15697200Y4594800D01*
X17141800Y4921800D02*
X16256000Y4036000D01*
X15697200Y4594800D02*
X15189200Y4594800D01*
%TO.N,Net-(C7-Pad1)*%
X16256000Y3014000D02*
X18000000Y1270000D01*
X16256000Y2697184D02*
X16256000Y3076000D01*
X15207416Y1648600D02*
X16256000Y2697184D01*
%TO.N,Net-(C8-Pad2)*%
X8559111Y5616311D02*
X7743800Y4801000D01*
X8505000Y6187777D02*
X8505000Y5670423D01*
X8505000Y5670423D02*
X8559111Y5616311D01*
X8579000Y6815300D02*
X8579000Y6261777D01*
D30*
X7896800Y4826000D02*
X7896800Y2663600D01*
D29*
X8579000Y6261777D02*
X8505000Y6187777D01*
D30*
X7896800Y2663600D02*
X6923200Y1690000D01*
D29*
%TO.N,/SCK*%
X3453020Y9702800D02*
X2794000Y9043780D01*
X6691500Y9702800D02*
X3453020Y9702800D01*
X2375177Y7080000D02*
X1400000Y7080000D01*
X2794000Y9043780D02*
X2794000Y7498823D01*
X2794000Y7498823D02*
X2375177Y7080000D01*
%TO.N,/GDO0*%
X6885500Y6121800D02*
X6829400Y6121800D01*
X7579000Y6815300D02*
X6885500Y6121800D01*
%TO.N,/MOSI*%
X5947170Y10590300D02*
X5516870Y10160000D01*
X3274530Y10160000D02*
X2169500Y9054970D01*
X2169500Y9054970D02*
X2169500Y7823200D01*
X5516870Y10160000D02*
X3274530Y10160000D01*
X7579000Y10590300D02*
X5947170Y10590300D01*
%TO.N,/GDO2*%
X5673901Y8753299D02*
X4142490Y8753299D01*
X5724400Y8702800D02*
X5673901Y8753299D01*
X4142490Y8753299D02*
X3759200Y8370009D01*
X3759200Y8370009D02*
X3759200Y4775200D01*
X2254000Y3270000D02*
X1400000Y3270000D01*
X6691500Y8702800D02*
X5724400Y8702800D01*
X3759200Y4775200D02*
X2254000Y3270000D01*
%TO.N,Net-(C9-Pad2)*%
X9754000Y6187777D02*
X9754000Y5670423D01*
X9579000Y6362777D02*
X9754000Y6187777D01*
D30*
X8923200Y3390000D02*
X8923200Y4479200D01*
X8923200Y4479200D02*
X9245000Y4801000D01*
D29*
X9579000Y5495423D02*
X9579000Y5135000D01*
X9579000Y6815300D02*
X9579000Y6362777D01*
X9579000Y5135000D02*
X9245000Y4801000D01*
X9754000Y5670423D02*
X9579000Y5495423D01*
%TO.N,Net-(L1-Pad1)*%
X10466500Y8702800D02*
X11604000Y8702800D01*
X11604000Y8702800D02*
X11794000Y8892800D01*
%TO.N,Net-(L2-Pad1)*%
X11494000Y8202800D02*
X11794000Y7902800D01*
X10466500Y8202800D02*
X11494000Y8202800D01*
%TO.N,Net-(R1-Pad2)*%
X9079000Y10590300D02*
X9079000Y11125808D01*
X9079000Y11125808D02*
X9764192Y11811000D01*
%TO.N,/~{CS}*%
X8055499Y6791799D02*
X8055499Y6056338D01*
X8079000Y6815300D02*
X8055499Y6791799D01*
X8055499Y6056338D02*
X7880500Y5881339D01*
D31*
%TO.N,VDDA*%
X3683000Y11938000D02*
X3838200Y12093200D01*
D29*
X9079000Y6815300D02*
X9079000Y5907000D01*
D31*
X3683000Y11607800D02*
X3683000Y11938000D01*
X10769600Y7399700D02*
X10541000Y7628300D01*
D29*
X9093200Y5892800D02*
X9129500Y5929100D01*
X10466500Y9702800D02*
X10466500Y9202800D01*
X5602373Y8202800D02*
X5514282Y8114709D01*
D31*
X5978614Y12581000D02*
X9025000Y12581000D01*
D29*
X6691500Y8202800D02*
X5602373Y8202800D01*
D30*
X11642000Y5814000D02*
X10899200Y5814000D01*
D29*
X4572000Y8100000D02*
X5499573Y8100000D01*
D31*
X2965200Y10890000D02*
X3403600Y11328400D01*
X8862000Y11811000D02*
X8862000Y12418000D01*
X5393000Y11995386D02*
X5978614Y12581000D01*
D30*
X8579000Y10590300D02*
X8579000Y11782000D01*
D31*
X10769600Y5943600D02*
X10769600Y7399700D01*
D29*
X9079000Y5907000D02*
X9093200Y5892800D01*
D31*
X5393000Y11811000D02*
X5393000Y11995386D01*
D30*
X10899200Y5814000D02*
X10769600Y5943600D01*
D31*
X9025000Y12581000D02*
X11221400Y12581000D01*
X11221400Y12581000D02*
X11712000Y12090400D01*
X8862000Y12418000D02*
X9025000Y12581000D01*
X11712000Y12090400D02*
X11712000Y11023600D01*
X10466500Y10212500D02*
X10466500Y9702800D01*
X10466500Y9702800D02*
X10466500Y9277300D01*
D30*
X12750800Y5814000D02*
X11642000Y5814000D01*
D31*
X3403600Y11328400D02*
X3683000Y11607800D01*
X11712000Y11023600D02*
X11277600Y11023600D01*
X1400000Y10890000D02*
X2965200Y10890000D01*
D29*
X5499573Y8100000D02*
X5514282Y8114709D01*
D31*
X11277600Y11023600D02*
X10466500Y10212500D01*
X3838200Y12093200D02*
X5393000Y12093200D01*
D29*
%TO.N,Net-(C16-Pad1)*%
X6200600Y7493400D02*
X5435600Y6728400D01*
X6429200Y7702800D02*
X6219800Y7493400D01*
X6219800Y7493400D02*
X6200600Y7493400D01*
%TO.N,/MISO{slash}GDO1*%
X3639209Y9253299D02*
X3251200Y8865290D01*
X5275200Y9202800D02*
X5224701Y9253299D01*
X3251200Y5029200D02*
X2762000Y4540000D01*
X3251200Y8865290D02*
X3251200Y5029200D01*
X5224701Y9253299D02*
X3639209Y9253299D01*
X6691500Y9202800D02*
X5275200Y9202800D01*
X2762000Y4540000D02*
X1400000Y4540000D01*
%TD*%
%TA.AperFunction,Conductor*%
%TO.N,GND*%
G36*
X11280194Y7858994D02*
G01*
X11298500Y7814800D01*
X11298500Y7697314D01*
X11298831Y7695067D01*
X11298831Y7695064D01*
X11299986Y7687221D01*
X11308569Y7628916D01*
X11359628Y7524920D01*
X11363280Y7521274D01*
X11363281Y7521273D01*
X11437966Y7446718D01*
X11437968Y7446716D01*
X11441621Y7443070D01*
X11446261Y7440802D01*
X11540964Y7394510D01*
X11545706Y7392192D01*
X11550509Y7391491D01*
X11550510Y7391491D01*
X11565523Y7389301D01*
X11613514Y7382300D01*
X11974486Y7382300D01*
X11976733Y7382631D01*
X11976736Y7382631D01*
X12000722Y7386162D01*
X12042884Y7392369D01*
X12146880Y7443428D01*
X12154128Y7450688D01*
X12191414Y7488040D01*
X12228730Y7525421D01*
X12229422Y7526837D01*
X12268681Y7551370D01*
X12315291Y7540612D01*
X12328299Y7527628D01*
X12329628Y7524920D01*
X12333281Y7521273D01*
X12333282Y7521272D01*
X12407966Y7446718D01*
X12407968Y7446716D01*
X12411621Y7443070D01*
X12416261Y7440802D01*
X12510964Y7394510D01*
X12515706Y7392192D01*
X12520509Y7391491D01*
X12520510Y7391491D01*
X12535523Y7389301D01*
X12583514Y7382300D01*
X12944486Y7382300D01*
X12946733Y7382631D01*
X12946736Y7382631D01*
X12970722Y7386162D01*
X13012884Y7392369D01*
X13116880Y7443428D01*
X13123884Y7450444D01*
X13195082Y7521766D01*
X13195084Y7521768D01*
X13198730Y7525421D01*
X13200998Y7530061D01*
X13203998Y7534267D01*
X13206380Y7532568D01*
X13234928Y7557773D01*
X13282672Y7554803D01*
X13299409Y7542851D01*
X13360684Y7481576D01*
X13365639Y7479266D01*
X13365641Y7479264D01*
X13416566Y7455518D01*
X13469513Y7430828D01*
X13486512Y7428590D01*
X13517068Y7424567D01*
X13517074Y7424567D01*
X13519099Y7424300D01*
X13521146Y7424300D01*
X13729565Y7424301D01*
X13938900Y7424301D01*
X13940912Y7424566D01*
X13940915Y7424566D01*
X13983747Y7430204D01*
X13983748Y7430204D01*
X13988487Y7430828D01*
X14015508Y7443428D01*
X14092359Y7479264D01*
X14092361Y7479266D01*
X14097316Y7481576D01*
X14160025Y7544285D01*
X14204219Y7562591D01*
X14248413Y7544285D01*
X14255151Y7536257D01*
X14257376Y7531484D01*
X14336794Y7452066D01*
X14355100Y7407872D01*
X14355100Y7229031D01*
X14336833Y7184875D01*
X14264518Y7112434D01*
X14264516Y7112432D01*
X14260870Y7108779D01*
X14250921Y7088426D01*
X14212412Y7009644D01*
X14209992Y7004694D01*
X14200100Y6936886D01*
X14200100Y6525914D01*
X14200431Y6523668D01*
X14200431Y6523664D01*
X14203377Y6503654D01*
X14210169Y6457516D01*
X14261228Y6353520D01*
X14264880Y6349874D01*
X14264881Y6349873D01*
X14339566Y6275318D01*
X14339568Y6275316D01*
X14343221Y6271670D01*
X14370582Y6258296D01*
X14377210Y6255056D01*
X14408876Y6219202D01*
X14405914Y6171458D01*
X14378137Y6143217D01*
X14310508Y6108759D01*
X14302648Y6103048D01*
X14221352Y6021752D01*
X14215641Y6013891D01*
X14163447Y5911455D01*
X14160443Y5902211D01*
X14146984Y5817234D01*
X14146600Y5812347D01*
X14146600Y5753231D01*
X14150241Y5744441D01*
X14159031Y5740800D01*
X14745100Y5740800D01*
X14789294Y5722494D01*
X14807600Y5678300D01*
X14807600Y5062235D01*
X14808458Y5060164D01*
X14808459Y5012328D01*
X14794910Y4992050D01*
X14735976Y4933116D01*
X14733666Y4928161D01*
X14733664Y4928159D01*
X14723046Y4905388D01*
X14685228Y4824287D01*
X14683300Y4809639D01*
X14680480Y4788219D01*
X14678700Y4774701D01*
X14678701Y4414900D01*
X14678966Y4412888D01*
X14678966Y4412885D01*
X14684246Y4372776D01*
X14685228Y4365313D01*
X14687249Y4360979D01*
X14733664Y4261441D01*
X14733666Y4261439D01*
X14735976Y4256484D01*
X14820884Y4171576D01*
X14825841Y4169264D01*
X14830319Y4166129D01*
X14828465Y4163481D01*
X14853486Y4136170D01*
X14851395Y4088381D01*
X14828740Y4065726D01*
X14830319Y4063471D01*
X14825841Y4060336D01*
X14820884Y4058024D01*
X14735976Y3973116D01*
X14733666Y3968161D01*
X14733664Y3968159D01*
X14717884Y3934318D01*
X14685228Y3864287D01*
X14678700Y3814701D01*
X14678701Y3454900D01*
X14685228Y3405313D01*
X14687249Y3400979D01*
X14733664Y3301441D01*
X14733666Y3301439D01*
X14735976Y3296484D01*
X14820884Y3211576D01*
X14827613Y3208438D01*
X14828672Y3207282D01*
X14830319Y3206129D01*
X14830063Y3205764D01*
X14859930Y3173172D01*
X14863700Y3151794D01*
X14863700Y3117630D01*
X14845394Y3073436D01*
X14828744Y3061527D01*
X14815956Y3055249D01*
X14815952Y3055246D01*
X14811320Y3052972D01*
X14807674Y3049320D01*
X14807673Y3049319D01*
X14733118Y2974634D01*
X14733116Y2974632D01*
X14729470Y2970979D01*
X14720151Y2951915D01*
X14687547Y2885213D01*
X14678592Y2866894D01*
X14668700Y2799086D01*
X14668700Y2438114D01*
X14669031Y2435867D01*
X14669031Y2435864D01*
X14670943Y2422879D01*
X14678769Y2369716D01*
X14729828Y2265720D01*
X14811821Y2183870D01*
X14813237Y2183178D01*
X14837770Y2143919D01*
X14827012Y2097309D01*
X14814028Y2084301D01*
X14811320Y2082972D01*
X14807673Y2079319D01*
X14807672Y2079318D01*
X14733118Y2004634D01*
X14733116Y2004632D01*
X14729470Y2000979D01*
X14678592Y1896894D01*
X14668700Y1829086D01*
X14668700Y1468114D01*
X14678769Y1399716D01*
X14729828Y1295720D01*
X14733480Y1292074D01*
X14733481Y1292073D01*
X14808166Y1217518D01*
X14808168Y1217516D01*
X14811821Y1213870D01*
X14816461Y1211602D01*
X14911164Y1165310D01*
X14915906Y1162992D01*
X14920709Y1162291D01*
X14920710Y1162291D01*
X14941465Y1159263D01*
X14983714Y1153100D01*
X15394686Y1153100D01*
X15396933Y1153431D01*
X15396936Y1153431D01*
X15420922Y1156962D01*
X15463084Y1163169D01*
X15567080Y1214228D01*
X15570727Y1217881D01*
X15645282Y1292566D01*
X15645284Y1292568D01*
X15648930Y1296221D01*
X15690780Y1381836D01*
X15697677Y1395946D01*
X15697677Y1395947D01*
X15699808Y1400306D01*
X15709700Y1468114D01*
X15709700Y1664670D01*
X15728006Y1708864D01*
X16370214Y2351072D01*
X16414408Y2369378D01*
X16458602Y2351072D01*
X17031194Y1778479D01*
X17049500Y1734285D01*
X17049500Y500252D01*
X17061133Y441769D01*
X17105448Y375448D01*
X17110562Y372031D01*
X17166653Y334551D01*
X17166655Y334550D01*
X17171769Y331133D01*
X17177803Y329933D01*
X17177805Y329932D01*
X17227239Y320099D01*
X17227242Y320099D01*
X17230252Y319500D01*
X18784300Y319500D01*
X18828494Y301194D01*
X18846800Y257000D01*
X18846800Y214900D01*
X18828494Y170706D01*
X18784300Y152400D01*
X214900Y152400D01*
X170706Y170706D01*
X152400Y214900D01*
X152400Y1283500D01*
X170706Y1327694D01*
X214900Y1346000D01*
X560569Y1346000D01*
X569359Y1349641D01*
X573000Y1358431D01*
X827000Y1358431D01*
X830641Y1349641D01*
X839431Y1346000D01*
X1260569Y1346000D01*
X1269359Y1349641D01*
X1273000Y1358431D01*
X1273000Y1369277D01*
X1527000Y1369277D01*
X1530641Y1360487D01*
X1536526Y1358049D01*
X1560031Y1361019D01*
X1567594Y1362960D01*
X1589882Y1371785D01*
X1598938Y1374597D01*
X1619492Y1379304D01*
X1626524Y1381836D01*
X1665683Y1401531D01*
X1670758Y1403806D01*
X1713917Y1420894D01*
X1720754Y1424652D01*
X1737109Y1436534D01*
X1745761Y1441805D01*
X1761208Y1449574D01*
X1767444Y1453718D01*
X1803651Y1484642D01*
X1807504Y1487680D01*
X1848069Y1517152D01*
X1853760Y1522496D01*
X1864246Y1535172D01*
X1871813Y1542859D01*
X1882080Y1551628D01*
X1887141Y1557131D01*
X1917166Y1598916D01*
X1919765Y1602284D01*
X1954072Y1643754D01*
X1958253Y1650341D01*
X1963652Y1661815D01*
X1969449Y1671675D01*
X1975113Y1679557D01*
X1978718Y1686115D01*
X1999339Y1737410D01*
X2000777Y1740709D01*
X2025261Y1792740D01*
X2027672Y1800160D01*
X2029340Y1808904D01*
X2032743Y1820505D01*
X2034951Y1825996D01*
X2036886Y1833217D01*
X2040796Y1860693D01*
X2038430Y1869908D01*
X2033201Y1873000D01*
X1539431Y1873000D01*
X1530641Y1869359D01*
X1527000Y1860569D01*
X1527000Y1369277D01*
X1273000Y1369277D01*
X1273000Y1860569D01*
X1269359Y1869359D01*
X1260569Y1873000D01*
X839431Y1873000D01*
X830641Y1869359D01*
X827000Y1860569D01*
X827000Y1358431D01*
X573000Y1358431D01*
X573000Y2064500D01*
X591306Y2108694D01*
X635500Y2127000D01*
X2033961Y2127000D01*
X2042751Y2130641D01*
X2044129Y2133967D01*
X2043555Y2135732D01*
X2040949Y2147537D01*
X2040239Y2153402D01*
X2038453Y2160673D01*
X2017541Y2216014D01*
X2016565Y2218794D01*
X1997676Y2276931D01*
X1994351Y2283997D01*
X1991610Y2288316D01*
X1985914Y2299715D01*
X1985164Y2301699D01*
X1981700Y2308326D01*
X1945953Y2360339D01*
X1944691Y2362249D01*
X1910027Y2416870D01*
X1905055Y2422879D01*
X1904084Y2423791D01*
X1898899Y2429830D01*
X1898800Y2429743D01*
X1891364Y2438179D01*
X1841192Y2482880D01*
X1839985Y2483985D01*
X1790339Y2530606D01*
X1783742Y2535399D01*
X1778882Y2538412D01*
X1772652Y2542742D01*
X1709253Y2576310D01*
X1708388Y2576776D01*
X1645068Y2611587D01*
X1615160Y2648919D01*
X1620409Y2696466D01*
X1651260Y2724098D01*
X1699058Y2743897D01*
X1702841Y2745464D01*
X1828282Y2841718D01*
X1888387Y2920048D01*
X1929813Y2943965D01*
X1937971Y2944500D01*
X2237059Y2944500D01*
X2242506Y2944262D01*
X2282807Y2940736D01*
X2288087Y2942151D01*
X2288089Y2942151D01*
X2321883Y2951207D01*
X2327204Y2952387D01*
X2367045Y2959412D01*
X2371779Y2962145D01*
X2371784Y2962147D01*
X2372513Y2962568D01*
X2387586Y2968812D01*
X2388405Y2969031D01*
X2388407Y2969032D01*
X2393684Y2970446D01*
X2409084Y2981229D01*
X2426822Y2993650D01*
X2431414Y2996575D01*
X2466455Y3016806D01*
X2492464Y3047802D01*
X2496148Y3051822D01*
X3977386Y4533059D01*
X3981406Y4536743D01*
X4008204Y4559229D01*
X4008205Y4559230D01*
X4012394Y4562745D01*
X4032622Y4597781D01*
X4035544Y4602368D01*
X4058754Y4635516D01*
X4060167Y4640791D01*
X4060170Y4640796D01*
X4060390Y4641619D01*
X4066630Y4656684D01*
X4067053Y4657417D01*
X4067053Y4657418D01*
X4069788Y4662155D01*
X4071511Y4671923D01*
X4073896Y4685453D01*
X4076813Y4701991D01*
X4077991Y4707309D01*
X4079806Y4714081D01*
X4088463Y4746393D01*
X4087142Y4761500D01*
X4084938Y4786686D01*
X4084700Y4792133D01*
X4084700Y4965431D01*
X6402800Y4965431D01*
X6406441Y4956641D01*
X6415231Y4953000D01*
X6797369Y4953000D01*
X6806159Y4956641D01*
X6809800Y4965431D01*
X6809800Y5377568D01*
X6806159Y5386358D01*
X6797369Y5389999D01*
X6768254Y5389999D01*
X6763366Y5389614D01*
X6678388Y5376156D01*
X6669147Y5373154D01*
X6566709Y5320959D01*
X6558848Y5315248D01*
X6477552Y5233952D01*
X6471841Y5226091D01*
X6419647Y5123655D01*
X6416643Y5114411D01*
X6403184Y5029434D01*
X6402800Y5024547D01*
X6402800Y4965431D01*
X4084700Y4965431D01*
X4084700Y5599854D01*
X4871601Y5599854D01*
X4871986Y5594966D01*
X4885444Y5509988D01*
X4888446Y5500747D01*
X4940641Y5398309D01*
X4946352Y5390448D01*
X5027648Y5309152D01*
X5035509Y5303441D01*
X5137945Y5251247D01*
X5147189Y5248243D01*
X5232166Y5234784D01*
X5237053Y5234400D01*
X5296169Y5234400D01*
X5304959Y5238041D01*
X5308600Y5246831D01*
X5308600Y5246832D01*
X5562600Y5246832D01*
X5566241Y5238042D01*
X5575031Y5234401D01*
X5634146Y5234401D01*
X5639034Y5234786D01*
X5724012Y5248244D01*
X5733253Y5251246D01*
X5835691Y5303441D01*
X5843552Y5309152D01*
X5924848Y5390448D01*
X5930559Y5398309D01*
X5982753Y5500745D01*
X5985757Y5509989D01*
X5999216Y5594966D01*
X5999600Y5599853D01*
X5999600Y5628969D01*
X5995959Y5637759D01*
X5987169Y5641400D01*
X5575031Y5641400D01*
X5566241Y5637759D01*
X5562600Y5628969D01*
X5562600Y5246832D01*
X5308600Y5246832D01*
X5308600Y5628969D01*
X5304959Y5637759D01*
X5296169Y5641400D01*
X4884032Y5641400D01*
X4875242Y5637759D01*
X4871601Y5628969D01*
X4871601Y5599854D01*
X4084700Y5599854D01*
X4084700Y6579318D01*
X4103006Y6623512D01*
X4147200Y6641818D01*
X4167721Y6636890D01*
X4168071Y6637966D01*
X4181989Y6633443D01*
X4266966Y6619984D01*
X4271853Y6619600D01*
X4330969Y6619600D01*
X4339759Y6623241D01*
X4343400Y6632031D01*
X4343400Y7218100D01*
X4361706Y7262294D01*
X4405900Y7280600D01*
X4534900Y7280600D01*
X4579094Y7262294D01*
X4597400Y7218100D01*
X4597400Y6632032D01*
X4601041Y6623242D01*
X4609831Y6619601D01*
X4668946Y6619601D01*
X4673834Y6619986D01*
X4758812Y6633444D01*
X4768054Y6636446D01*
X4834227Y6670163D01*
X4881915Y6673916D01*
X4918289Y6642849D01*
X4925101Y6614476D01*
X4925101Y6548500D01*
X4925366Y6546488D01*
X4925366Y6546485D01*
X4928370Y6523664D01*
X4931628Y6498913D01*
X4933649Y6494580D01*
X4933649Y6494579D01*
X4980064Y6395041D01*
X4980066Y6395039D01*
X4982376Y6390084D01*
X5043764Y6328696D01*
X5062070Y6284502D01*
X5043764Y6240308D01*
X5036306Y6233938D01*
X5027647Y6227647D01*
X4946352Y6146352D01*
X4940641Y6138491D01*
X4888447Y6036055D01*
X4885443Y6026811D01*
X4871984Y5941834D01*
X4871600Y5936947D01*
X4871600Y5907831D01*
X4875241Y5899041D01*
X4884031Y5895400D01*
X5987168Y5895400D01*
X5995958Y5899041D01*
X5999599Y5907831D01*
X5999599Y5936946D01*
X5999214Y5941834D01*
X5985756Y6026812D01*
X5982754Y6036053D01*
X5930559Y6138491D01*
X5924848Y6146352D01*
X5843553Y6227647D01*
X5834894Y6233938D01*
X5809900Y6274725D01*
X5821066Y6321238D01*
X5827436Y6328696D01*
X5888824Y6390084D01*
X5891134Y6395039D01*
X5891136Y6395041D01*
X5930425Y6479298D01*
X5939572Y6498913D01*
X5942808Y6523492D01*
X5945833Y6546468D01*
X5945833Y6546474D01*
X5946100Y6548499D01*
X5946099Y6752685D01*
X5964405Y6796879D01*
X6158257Y6990730D01*
X6361920Y7194393D01*
X6370259Y7201391D01*
X6392632Y7217057D01*
X6397206Y7219971D01*
X6432255Y7240206D01*
X6458263Y7271201D01*
X6461947Y7275221D01*
X6545721Y7358994D01*
X6589915Y7377300D01*
X6901841Y7377301D01*
X7123965Y7377301D01*
X7168159Y7358995D01*
X7175932Y7349524D01*
X7192457Y7324793D01*
X7200993Y7316257D01*
X7225723Y7299733D01*
X7252299Y7259959D01*
X7253500Y7247766D01*
X7253500Y6976014D01*
X7235194Y6931820D01*
X6943603Y6640229D01*
X6899028Y6621924D01*
X6828115Y6622358D01*
X6765229Y6622742D01*
X6765228Y6622742D01*
X6760776Y6622769D01*
X6622929Y6583372D01*
X6501680Y6506870D01*
X6498737Y6503538D01*
X6498735Y6503536D01*
X6412367Y6405742D01*
X6406777Y6399412D01*
X6345847Y6269637D01*
X6345162Y6265239D01*
X6345162Y6265238D01*
X6342352Y6247188D01*
X6323791Y6127977D01*
X6324368Y6123564D01*
X6324368Y6123562D01*
X6330028Y6080281D01*
X6342380Y5985821D01*
X6344173Y5981746D01*
X6394866Y5866538D01*
X6400120Y5854597D01*
X6402984Y5851190D01*
X6489507Y5748257D01*
X6489510Y5748254D01*
X6492370Y5744852D01*
X6611713Y5665410D01*
X6615964Y5664082D01*
X6744305Y5623986D01*
X6744308Y5623986D01*
X6748557Y5622658D01*
X6753009Y5622576D01*
X6753011Y5622576D01*
X6824042Y5621274D01*
X6891899Y5620030D01*
X7030217Y5657740D01*
X7152391Y5732755D01*
X7180862Y5764209D01*
X7245613Y5835746D01*
X7248600Y5839046D01*
X7261920Y5866538D01*
X7297664Y5898329D01*
X7345417Y5895533D01*
X7377208Y5859789D01*
X7380138Y5847392D01*
X7393480Y5745360D01*
X7395273Y5741285D01*
X7448627Y5620030D01*
X7451220Y5614136D01*
X7454084Y5610729D01*
X7540607Y5507796D01*
X7540610Y5507793D01*
X7543470Y5504391D01*
X7634048Y5444097D01*
X7655955Y5429514D01*
X7682600Y5389787D01*
X7673349Y5342854D01*
X7647736Y5320843D01*
X7563441Y5281536D01*
X7563439Y5281534D01*
X7558484Y5279224D01*
X7497096Y5217836D01*
X7452902Y5199530D01*
X7408708Y5217836D01*
X7402338Y5225294D01*
X7396047Y5233953D01*
X7314752Y5315248D01*
X7306891Y5320959D01*
X7204455Y5373153D01*
X7195211Y5376157D01*
X7110234Y5389616D01*
X7105347Y5390000D01*
X7076231Y5390000D01*
X7067441Y5386359D01*
X7063800Y5377569D01*
X7063800Y4761500D01*
X7045494Y4717306D01*
X7001300Y4699000D01*
X6415232Y4699000D01*
X6406442Y4695359D01*
X6402801Y4686569D01*
X6402801Y4627454D01*
X6403186Y4622566D01*
X6416644Y4537588D01*
X6419646Y4528347D01*
X6471841Y4425909D01*
X6477552Y4418048D01*
X6544907Y4350693D01*
X6563213Y4306499D01*
X6544907Y4262305D01*
X6500713Y4243999D01*
X6001255Y4243999D01*
X5995170Y4243400D01*
X5930132Y4230464D01*
X5918976Y4225843D01*
X5845193Y4176543D01*
X5836657Y4168007D01*
X5787357Y4094225D01*
X5782736Y4083067D01*
X5769799Y4018030D01*
X5769200Y4011946D01*
X5769200Y3529431D01*
X5772841Y3520641D01*
X5781631Y3517000D01*
X6787700Y3517000D01*
X6831894Y3498694D01*
X6850200Y3454500D01*
X6850200Y3325500D01*
X6831894Y3281306D01*
X6787700Y3263000D01*
X5781632Y3263000D01*
X5772842Y3259359D01*
X5769201Y3250569D01*
X5769201Y2768055D01*
X5769800Y2761970D01*
X5782736Y2696932D01*
X5787357Y2685776D01*
X5836657Y2611993D01*
X5845193Y2603457D01*
X5910538Y2559795D01*
X5937114Y2520021D01*
X5927782Y2473105D01*
X5910538Y2455861D01*
X5883764Y2437971D01*
X5883762Y2437969D01*
X5878648Y2434552D01*
X5875231Y2429438D01*
X5838536Y2374521D01*
X5834333Y2368231D01*
X5822700Y2309748D01*
X5822700Y1070252D01*
X5834333Y1011769D01*
X5878648Y945448D01*
X5883762Y942031D01*
X5939853Y904551D01*
X5939855Y904550D01*
X5944969Y901133D01*
X5951003Y899933D01*
X5951005Y899932D01*
X6000439Y890099D01*
X6000442Y890099D01*
X6003452Y889500D01*
X7442948Y889500D01*
X7445958Y890099D01*
X7445961Y890099D01*
X7495395Y899932D01*
X7495397Y899933D01*
X7501431Y901133D01*
X7506545Y904550D01*
X7506547Y904551D01*
X7562638Y942031D01*
X7567752Y945448D01*
X7612067Y1011769D01*
X7623263Y1068055D01*
X7969201Y1068055D01*
X7969800Y1061970D01*
X7982736Y996932D01*
X7987357Y985776D01*
X8036657Y911993D01*
X8045193Y903457D01*
X8118975Y854157D01*
X8130133Y849536D01*
X8195170Y836599D01*
X8201254Y836000D01*
X8783769Y836000D01*
X8792559Y839641D01*
X8796200Y848431D01*
X8796200Y848432D01*
X9050200Y848432D01*
X9053841Y839642D01*
X9062631Y836001D01*
X9645145Y836001D01*
X9651230Y836600D01*
X9716268Y849536D01*
X9727424Y854157D01*
X9801207Y903457D01*
X9809743Y911993D01*
X9859043Y985775D01*
X9863664Y996933D01*
X9876601Y1061970D01*
X9877200Y1068054D01*
X9877200Y1550569D01*
X9873559Y1559359D01*
X9864769Y1563000D01*
X9062631Y1563000D01*
X9053841Y1559359D01*
X9050200Y1550569D01*
X9050200Y848432D01*
X8796200Y848432D01*
X8796200Y1550569D01*
X8792559Y1559359D01*
X8783769Y1563000D01*
X7981632Y1563000D01*
X7972842Y1559359D01*
X7969201Y1550569D01*
X7969201Y1068055D01*
X7623263Y1068055D01*
X7623700Y1070252D01*
X7623700Y1939640D01*
X7642006Y1983834D01*
X7862506Y2204334D01*
X7906700Y2222640D01*
X7950894Y2204334D01*
X7969200Y2160140D01*
X7969200Y1829431D01*
X7972841Y1820641D01*
X7981631Y1817000D01*
X9864768Y1817000D01*
X9873558Y1820641D01*
X9877199Y1829431D01*
X9877199Y2311945D01*
X9876600Y2318030D01*
X9863664Y2383068D01*
X9859043Y2394224D01*
X9809743Y2468007D01*
X9801207Y2476543D01*
X9735862Y2520205D01*
X9709286Y2559979D01*
X9718618Y2606895D01*
X9735862Y2624139D01*
X9762636Y2642029D01*
X9762638Y2642031D01*
X9767752Y2645448D01*
X9812067Y2711769D01*
X9813901Y2720985D01*
X9823101Y2767239D01*
X9823101Y2767242D01*
X9823700Y2770252D01*
X9823700Y4009748D01*
X9814867Y4054156D01*
X9813268Y4062195D01*
X9813267Y4062197D01*
X9812067Y4068231D01*
X9800079Y4086173D01*
X9771169Y4129438D01*
X9767752Y4134552D01*
X9741640Y4152000D01*
X9706547Y4175449D01*
X9706545Y4175450D01*
X9701431Y4178867D01*
X9695397Y4180067D01*
X9695395Y4180068D01*
X9645961Y4189901D01*
X9645958Y4189901D01*
X9642948Y4190500D01*
X9527956Y4190500D01*
X9483762Y4208806D01*
X9465456Y4253000D01*
X9483762Y4297194D01*
X9501542Y4309644D01*
X9578359Y4345464D01*
X9578361Y4345466D01*
X9583316Y4347776D01*
X9644704Y4409164D01*
X9688898Y4427470D01*
X9733092Y4409164D01*
X9739462Y4401706D01*
X9745753Y4393047D01*
X9827048Y4311752D01*
X9834909Y4306041D01*
X9937345Y4253847D01*
X9946589Y4250843D01*
X10031566Y4237384D01*
X10036453Y4237000D01*
X10065569Y4237000D01*
X10074359Y4240641D01*
X10078000Y4249431D01*
X10078000Y4249432D01*
X10332000Y4249432D01*
X10335641Y4240642D01*
X10344431Y4237001D01*
X10373546Y4237001D01*
X10378434Y4237386D01*
X10463412Y4250844D01*
X10472653Y4253846D01*
X10575091Y4306041D01*
X10582952Y4311752D01*
X10664248Y4393048D01*
X10669959Y4400909D01*
X10722153Y4503345D01*
X10725157Y4512589D01*
X10738616Y4597566D01*
X10739000Y4602453D01*
X10739000Y4661569D01*
X10735359Y4670359D01*
X10726569Y4674000D01*
X10344431Y4674000D01*
X10335641Y4670359D01*
X10332000Y4661569D01*
X10332000Y4249432D01*
X10078000Y4249432D01*
X10078000Y4685454D01*
X11128801Y4685454D01*
X11129186Y4680566D01*
X11142644Y4595588D01*
X11145646Y4586347D01*
X11197841Y4483909D01*
X11203552Y4476048D01*
X11284848Y4394752D01*
X11292709Y4389041D01*
X11395145Y4336847D01*
X11404389Y4333843D01*
X11489366Y4320384D01*
X11494253Y4320000D01*
X11553369Y4320000D01*
X11562159Y4323641D01*
X11565800Y4332431D01*
X11565800Y4332432D01*
X11819800Y4332432D01*
X11823441Y4323642D01*
X11832231Y4320001D01*
X11891346Y4320001D01*
X11896234Y4320386D01*
X11981212Y4333844D01*
X11990453Y4336846D01*
X12092891Y4389041D01*
X12100752Y4394752D01*
X12182048Y4476048D01*
X12187757Y4483906D01*
X12191512Y4491275D01*
X12227887Y4522341D01*
X12275575Y4518588D01*
X12302888Y4491275D01*
X12306643Y4483906D01*
X12312352Y4476048D01*
X12393648Y4394752D01*
X12401509Y4389041D01*
X12503945Y4336847D01*
X12513189Y4333843D01*
X12598166Y4320384D01*
X12603053Y4320000D01*
X12662169Y4320000D01*
X12670959Y4323641D01*
X12674600Y4332431D01*
X12674600Y4332432D01*
X12928600Y4332432D01*
X12932241Y4323642D01*
X12941031Y4320001D01*
X13000146Y4320001D01*
X13005034Y4320386D01*
X13090012Y4333844D01*
X13099253Y4336846D01*
X13201691Y4389041D01*
X13209552Y4394752D01*
X13290848Y4476048D01*
X13296559Y4483909D01*
X13348753Y4586345D01*
X13351757Y4595589D01*
X13365216Y4680566D01*
X13365600Y4685453D01*
X13365600Y4714569D01*
X13361959Y4723359D01*
X13353169Y4727000D01*
X12941031Y4727000D01*
X12932241Y4723359D01*
X12928600Y4714569D01*
X12928600Y4332432D01*
X12674600Y4332432D01*
X12674600Y4714569D01*
X12670959Y4723359D01*
X12662169Y4727000D01*
X11832231Y4727000D01*
X11823441Y4723359D01*
X11819800Y4714569D01*
X11819800Y4332432D01*
X11565800Y4332432D01*
X11565800Y4714569D01*
X11562159Y4723359D01*
X11553369Y4727000D01*
X11141232Y4727000D01*
X11132442Y4723359D01*
X11128801Y4714569D01*
X11128801Y4685454D01*
X10078000Y4685454D01*
X10078000Y4940431D01*
X10332000Y4940431D01*
X10335641Y4931641D01*
X10344431Y4928000D01*
X10726568Y4928000D01*
X10735358Y4931641D01*
X10738999Y4940431D01*
X10738999Y4999546D01*
X10738614Y5004434D01*
X10725156Y5089412D01*
X10722154Y5098653D01*
X10669959Y5201091D01*
X10664248Y5208952D01*
X10582952Y5290248D01*
X10575091Y5295959D01*
X10472655Y5348153D01*
X10463411Y5351157D01*
X10378434Y5364616D01*
X10373547Y5365000D01*
X10344431Y5365000D01*
X10335641Y5361359D01*
X10332000Y5352569D01*
X10332000Y4940431D01*
X10078000Y4940431D01*
X10078000Y5352568D01*
X10074359Y5361358D01*
X10065569Y5364999D01*
X10061771Y5364999D01*
X10017577Y5383305D01*
X9999271Y5427499D01*
X10007645Y5458750D01*
X10018973Y5478369D01*
X10027422Y5493004D01*
X10030344Y5497591D01*
X10053554Y5530739D01*
X10054967Y5536014D01*
X10054970Y5536019D01*
X10055190Y5536842D01*
X10061430Y5551907D01*
X10061853Y5552640D01*
X10061853Y5552641D01*
X10064588Y5557378D01*
X10071613Y5597214D01*
X10072791Y5602532D01*
X10081849Y5636338D01*
X10081849Y5636339D01*
X10083263Y5641616D01*
X10082578Y5649452D01*
X10079738Y5681909D01*
X10079500Y5687356D01*
X10079500Y6170847D01*
X10079738Y6176294D01*
X10082787Y6211139D01*
X10082787Y6211141D01*
X10083263Y6216584D01*
X10072790Y6255671D01*
X10071612Y6260989D01*
X10069666Y6272028D01*
X10064588Y6300822D01*
X10061430Y6306293D01*
X10055190Y6321358D01*
X10054970Y6322181D01*
X10054967Y6322186D01*
X10053554Y6327461D01*
X10030344Y6360609D01*
X10027421Y6365198D01*
X10007194Y6400232D01*
X10000628Y6405742D01*
X9976204Y6426236D01*
X9972184Y6429920D01*
X9922806Y6479298D01*
X9904500Y6523492D01*
X9904500Y6843775D01*
X9904499Y6843778D01*
X9904499Y7247766D01*
X9922805Y7291959D01*
X9932276Y7299732D01*
X9957007Y7316257D01*
X9965543Y7324793D01*
X9982067Y7349523D01*
X10021841Y7376099D01*
X10034034Y7377300D01*
X10129276Y7377300D01*
X10175176Y7357220D01*
X10175916Y7356419D01*
X10176725Y7355472D01*
X10300794Y7231403D01*
X10319100Y7187209D01*
X10319100Y6175779D01*
X10313175Y6149218D01*
X10286047Y6091437D01*
X10285362Y6087039D01*
X10285362Y6087038D01*
X10284472Y6081319D01*
X10263991Y5949777D01*
X10264568Y5945364D01*
X10264568Y5945362D01*
X10265669Y5936946D01*
X10282580Y5807621D01*
X10284373Y5803546D01*
X10337895Y5681909D01*
X10340320Y5676397D01*
X10343184Y5672990D01*
X10429707Y5570057D01*
X10429710Y5570054D01*
X10432570Y5566652D01*
X10551913Y5487210D01*
X10564880Y5483159D01*
X10684505Y5445786D01*
X10684508Y5445786D01*
X10688757Y5444458D01*
X10693209Y5444376D01*
X10693211Y5444376D01*
X10764242Y5443074D01*
X10832099Y5441830D01*
X10970417Y5479540D01*
X10977069Y5483624D01*
X11010679Y5504261D01*
X11043382Y5513500D01*
X11182125Y5513500D01*
X11226319Y5495194D01*
X11233623Y5484765D01*
X11234129Y5485119D01*
X11237264Y5480641D01*
X11239576Y5475684D01*
X11300964Y5414296D01*
X11319270Y5370102D01*
X11300964Y5325908D01*
X11293506Y5319538D01*
X11284847Y5313247D01*
X11203552Y5231952D01*
X11197841Y5224091D01*
X11145647Y5121655D01*
X11142643Y5112411D01*
X11129184Y5027434D01*
X11128800Y5022547D01*
X11128800Y4993431D01*
X11132441Y4984641D01*
X11141231Y4981000D01*
X13353168Y4981000D01*
X13361958Y4984641D01*
X13365599Y4993431D01*
X13365599Y5022546D01*
X13365214Y5027434D01*
X13351756Y5112412D01*
X13348754Y5121653D01*
X13296559Y5224091D01*
X13290848Y5231952D01*
X13209553Y5313247D01*
X13200894Y5319538D01*
X13175900Y5360325D01*
X13187066Y5406838D01*
X13193436Y5414296D01*
X13194394Y5415254D01*
X14146601Y5415254D01*
X14146986Y5410366D01*
X14160444Y5325388D01*
X14163446Y5316147D01*
X14215641Y5213709D01*
X14221352Y5205848D01*
X14302648Y5124552D01*
X14310509Y5118841D01*
X14412945Y5066647D01*
X14422189Y5063643D01*
X14507166Y5050184D01*
X14512053Y5049800D01*
X14541169Y5049800D01*
X14549959Y5053441D01*
X14553600Y5062231D01*
X14553600Y5474369D01*
X14549959Y5483159D01*
X14541169Y5486800D01*
X14159032Y5486800D01*
X14150242Y5483159D01*
X14146601Y5474369D01*
X14146601Y5415254D01*
X13194394Y5415254D01*
X13254824Y5475684D01*
X13257134Y5480639D01*
X13257136Y5480641D01*
X13287046Y5544785D01*
X13305572Y5584513D01*
X13312100Y5634099D01*
X13312099Y5993900D01*
X13308649Y6020115D01*
X13306196Y6038747D01*
X13306196Y6038748D01*
X13305572Y6043487D01*
X13296400Y6063156D01*
X13257136Y6147359D01*
X13257134Y6147361D01*
X13254824Y6152316D01*
X13169916Y6237224D01*
X13164961Y6239534D01*
X13164959Y6239536D01*
X13100162Y6269751D01*
X13061087Y6287972D01*
X13044088Y6290210D01*
X13013532Y6294233D01*
X13013526Y6294233D01*
X13011501Y6294500D01*
X13009454Y6294500D01*
X12801035Y6294499D01*
X12591700Y6294499D01*
X12589688Y6294234D01*
X12589685Y6294234D01*
X12546853Y6288596D01*
X12546852Y6288596D01*
X12542113Y6287972D01*
X12537779Y6285951D01*
X12438241Y6239536D01*
X12438239Y6239534D01*
X12433284Y6237224D01*
X12348376Y6152316D01*
X12346064Y6147359D01*
X12342929Y6142881D01*
X12340794Y6144376D01*
X12312293Y6118266D01*
X12290925Y6114500D01*
X12203475Y6114500D01*
X12159281Y6132806D01*
X12151977Y6143235D01*
X12151471Y6142881D01*
X12148336Y6147359D01*
X12146024Y6152316D01*
X12061116Y6237224D01*
X12056161Y6239534D01*
X12056159Y6239536D01*
X11991362Y6269751D01*
X11952287Y6287972D01*
X11935288Y6290210D01*
X11904732Y6294233D01*
X11904726Y6294233D01*
X11902701Y6294500D01*
X11900654Y6294500D01*
X11692235Y6294499D01*
X11482900Y6294499D01*
X11480888Y6294234D01*
X11480885Y6294234D01*
X11438053Y6288596D01*
X11438052Y6288596D01*
X11433313Y6287972D01*
X11324484Y6237224D01*
X11320619Y6233359D01*
X11318448Y6231839D01*
X11271746Y6221486D01*
X11231403Y6247188D01*
X11220100Y6283036D01*
X11220100Y7369227D01*
X11220533Y7376573D01*
X11220707Y7378046D01*
X11224964Y7414011D01*
X11214240Y7472729D01*
X11213932Y7474575D01*
X11205049Y7533662D01*
X11203024Y7537878D01*
X11202427Y7539819D01*
X11202353Y7540120D01*
X11202239Y7540473D01*
X11202120Y7540763D01*
X11201463Y7542681D01*
X11200625Y7547273D01*
X11198475Y7551412D01*
X11198473Y7551418D01*
X11173118Y7600229D01*
X11172241Y7601984D01*
X11167025Y7612847D01*
X11160659Y7626104D01*
X11154500Y7653158D01*
X11154499Y7788128D01*
X11154499Y7791200D01*
X11152230Y7802608D01*
X11161563Y7849524D01*
X11201337Y7876099D01*
X11213529Y7877300D01*
X11236000Y7877300D01*
X11280194Y7858994D01*
G37*
%TD.AperFunction*%
%TA.AperFunction,Conductor*%
G36*
X18828494Y12834094D02*
G01*
X18846800Y12789900D01*
X18846800Y4616500D01*
X18828494Y4572306D01*
X18784300Y4554000D01*
X18539431Y4554000D01*
X18530641Y4550359D01*
X18527000Y4541569D01*
X18527000Y3689431D01*
X18530641Y3680641D01*
X18539431Y3677000D01*
X18781500Y3677000D01*
X18825694Y3658694D01*
X18844000Y3614500D01*
X18844000Y3485500D01*
X18825694Y3441306D01*
X18781500Y3423000D01*
X18539431Y3423000D01*
X18530641Y3419359D01*
X18527000Y3410569D01*
X18527000Y2558432D01*
X18530641Y2549642D01*
X18539431Y2546001D01*
X18784300Y2546001D01*
X18828494Y2527695D01*
X18846800Y2483501D01*
X18846800Y2283000D01*
X18828494Y2238806D01*
X18784300Y2220500D01*
X17535715Y2220500D01*
X17491521Y2238806D01*
X17291021Y2439306D01*
X17272715Y2483500D01*
X17291021Y2527694D01*
X17335215Y2546000D01*
X17760569Y2546000D01*
X17769359Y2549641D01*
X17773000Y2558431D01*
X18027000Y2558431D01*
X18030641Y2549641D01*
X18039431Y2546000D01*
X18260569Y2546001D01*
X18269359Y2549642D01*
X18273000Y2558432D01*
X18273000Y3410569D01*
X18269359Y3419359D01*
X18260569Y3423000D01*
X18039431Y3423000D01*
X18030641Y3419359D01*
X18027000Y3410569D01*
X18027000Y2558431D01*
X17773000Y2558431D01*
X17773000Y3410569D01*
X17769359Y3419359D01*
X17760569Y3423000D01*
X17008432Y3423000D01*
X16999642Y3419359D01*
X16996001Y3410569D01*
X16996001Y2885213D01*
X16977695Y2841019D01*
X16933501Y2822713D01*
X16889307Y2841019D01*
X16784806Y2945520D01*
X16766500Y2989714D01*
X16766499Y3253864D01*
X16766499Y3255900D01*
X16765565Y3263000D01*
X16760596Y3300747D01*
X16760596Y3300748D01*
X16759972Y3305487D01*
X16750640Y3325500D01*
X16711536Y3409359D01*
X16711534Y3409361D01*
X16709224Y3414316D01*
X16624316Y3499224D01*
X16619359Y3501536D01*
X16614881Y3504671D01*
X16616735Y3507319D01*
X16591714Y3534630D01*
X16593805Y3582419D01*
X16616460Y3605074D01*
X16614881Y3607329D01*
X16619359Y3610464D01*
X16624316Y3612776D01*
X16709224Y3697684D01*
X16711534Y3702639D01*
X16711536Y3702641D01*
X16754387Y3794536D01*
X16759972Y3806513D01*
X16766500Y3856099D01*
X16766499Y4060286D01*
X16784805Y4104479D01*
X16889306Y4208980D01*
X16933500Y4227286D01*
X16977694Y4208980D01*
X16996000Y4164786D01*
X16996000Y3689431D01*
X16999641Y3680641D01*
X17008431Y3677000D01*
X17760569Y3677000D01*
X17769359Y3680641D01*
X17773000Y3689431D01*
X18027000Y3689431D01*
X18030641Y3680641D01*
X18039431Y3677000D01*
X18260569Y3677000D01*
X18269359Y3680641D01*
X18273000Y3689431D01*
X18273000Y4541569D01*
X18269359Y4550359D01*
X18260569Y4554000D01*
X18039431Y4554000D01*
X18030641Y4550359D01*
X18027000Y4541569D01*
X18027000Y3689431D01*
X17773000Y3689431D01*
X17773000Y4541568D01*
X17769359Y4550358D01*
X17760569Y4553999D01*
X17385214Y4553999D01*
X17341020Y4572305D01*
X17322714Y4616499D01*
X17341020Y4660693D01*
X17359986Y4679659D01*
X17364006Y4683343D01*
X17390804Y4705829D01*
X17390805Y4705830D01*
X17394994Y4709345D01*
X17415222Y4744381D01*
X17418144Y4748968D01*
X17441354Y4782116D01*
X17442767Y4787391D01*
X17442770Y4787396D01*
X17442990Y4788219D01*
X17449230Y4803284D01*
X17449653Y4804017D01*
X17449653Y4804018D01*
X17452388Y4808755D01*
X17459413Y4848591D01*
X17460591Y4853909D01*
X17464426Y4868220D01*
X17471063Y4892993D01*
X17468387Y4923587D01*
X17467538Y4933286D01*
X17467300Y4938733D01*
X17467300Y5086970D01*
X17485606Y5131164D01*
X17502256Y5143073D01*
X17515044Y5149351D01*
X17515048Y5149354D01*
X17519680Y5151628D01*
X17523327Y5155281D01*
X17597882Y5229966D01*
X17597884Y5229968D01*
X17601530Y5233621D01*
X17626106Y5283897D01*
X17650277Y5333346D01*
X17650277Y5333347D01*
X17652408Y5337706D01*
X17662300Y5405514D01*
X17662300Y5766486D01*
X17652231Y5834884D01*
X17601172Y5938880D01*
X17585851Y5954175D01*
X17522835Y6017080D01*
X17519179Y6020730D01*
X17517763Y6021422D01*
X17493230Y6060681D01*
X17503988Y6107291D01*
X17516972Y6120299D01*
X17519680Y6121628D01*
X17526018Y6127977D01*
X17597882Y6199966D01*
X17597884Y6199968D01*
X17601530Y6203621D01*
X17633685Y6269402D01*
X17650277Y6303346D01*
X17650277Y6303347D01*
X17652408Y6307706D01*
X17662300Y6375514D01*
X17662300Y6736486D01*
X17652231Y6804884D01*
X17601172Y6908880D01*
X17597519Y6912527D01*
X17522834Y6987082D01*
X17522832Y6987084D01*
X17519179Y6990730D01*
X17415094Y7041608D01*
X17410291Y7042309D01*
X17410290Y7042309D01*
X17389535Y7045337D01*
X17347286Y7051500D01*
X17132514Y7051500D01*
X17088320Y7069806D01*
X17088006Y7070120D01*
X17069700Y7114314D01*
X17069700Y7433272D01*
X17088006Y7477466D01*
X17143904Y7533364D01*
X17188098Y7551670D01*
X17232292Y7533364D01*
X17238662Y7525906D01*
X17244953Y7517247D01*
X17326248Y7435952D01*
X17334109Y7430241D01*
X17436545Y7378047D01*
X17445789Y7375043D01*
X17530766Y7361584D01*
X17535653Y7361200D01*
X17564769Y7361200D01*
X17573559Y7364841D01*
X17577200Y7373631D01*
X17577200Y7373632D01*
X17831200Y7373632D01*
X17834841Y7364842D01*
X17843631Y7361201D01*
X17872746Y7361201D01*
X17877634Y7361586D01*
X17962612Y7375044D01*
X17971853Y7378046D01*
X18074291Y7430241D01*
X18082152Y7435952D01*
X18163448Y7517248D01*
X18169159Y7525109D01*
X18221353Y7627545D01*
X18224357Y7636789D01*
X18237816Y7721766D01*
X18238200Y7726653D01*
X18238200Y7785769D01*
X18234559Y7794559D01*
X18225769Y7798200D01*
X17843631Y7798200D01*
X17834841Y7794559D01*
X17831200Y7785769D01*
X17831200Y7373632D01*
X17577200Y7373632D01*
X17577200Y7989700D01*
X17595506Y8033894D01*
X17639700Y8052200D01*
X18225768Y8052200D01*
X18234558Y8055841D01*
X18238199Y8064631D01*
X18238199Y8123746D01*
X18237814Y8128634D01*
X18224356Y8213612D01*
X18221354Y8222853D01*
X18169159Y8325291D01*
X18163448Y8333152D01*
X18092611Y8403989D01*
X18074305Y8448183D01*
X18092572Y8492338D01*
X18141518Y8541370D01*
X18160282Y8560166D01*
X18160284Y8560168D01*
X18163930Y8563821D01*
X18214808Y8667906D01*
X18224700Y8735714D01*
X18224700Y9146686D01*
X18214631Y9215084D01*
X18163572Y9319080D01*
X18153847Y9328788D01*
X18085234Y9397282D01*
X18085232Y9397284D01*
X18081579Y9400930D01*
X18017080Y9432458D01*
X17981854Y9449677D01*
X17981853Y9449677D01*
X17977494Y9451808D01*
X17972691Y9452509D01*
X17972690Y9452509D01*
X17951935Y9455537D01*
X17909686Y9461700D01*
X17548714Y9461700D01*
X17546467Y9461369D01*
X17546464Y9461369D01*
X17533844Y9459511D01*
X17480316Y9451631D01*
X17376320Y9400572D01*
X17372674Y9396920D01*
X17372673Y9396919D01*
X17348831Y9373035D01*
X17294470Y9318579D01*
X17293778Y9317163D01*
X17254519Y9292630D01*
X17207909Y9303388D01*
X17194901Y9316372D01*
X17193572Y9319080D01*
X17183847Y9328788D01*
X17115234Y9397282D01*
X17115232Y9397284D01*
X17111579Y9400930D01*
X17047080Y9432458D01*
X17011854Y9449677D01*
X17011853Y9449677D01*
X17007494Y9451808D01*
X17002691Y9452509D01*
X17002690Y9452509D01*
X16981935Y9455537D01*
X16939686Y9461700D01*
X16578714Y9461700D01*
X16576467Y9461369D01*
X16576464Y9461369D01*
X16563844Y9459511D01*
X16510316Y9451631D01*
X16406320Y9400572D01*
X16402674Y9396920D01*
X16402673Y9396919D01*
X16328118Y9322234D01*
X16328116Y9322232D01*
X16324470Y9318579D01*
X16322202Y9313940D01*
X16322201Y9313938D01*
X16320741Y9310951D01*
X16284885Y9279287D01*
X16264591Y9275900D01*
X16172584Y9275900D01*
X16128390Y9294206D01*
X16116481Y9310855D01*
X16110894Y9322234D01*
X16099972Y9344480D01*
X16096318Y9348128D01*
X16096316Y9348131D01*
X16028997Y9415333D01*
X16010653Y9459511D01*
X16028959Y9503759D01*
X16099848Y9574648D01*
X16105559Y9582509D01*
X16157753Y9684945D01*
X16160757Y9694189D01*
X16174216Y9779166D01*
X16174600Y9784053D01*
X16174600Y9843169D01*
X16170959Y9851959D01*
X16162169Y9855600D01*
X15576100Y9855600D01*
X15531906Y9873906D01*
X15513600Y9918100D01*
X15513600Y10122031D01*
X15767600Y10122031D01*
X15771241Y10113241D01*
X15780031Y10109600D01*
X16162168Y10109600D01*
X16170958Y10113241D01*
X16174599Y10122031D01*
X16174599Y10181146D01*
X16174214Y10186034D01*
X16160756Y10271012D01*
X16157754Y10280253D01*
X16105559Y10382691D01*
X16099848Y10390552D01*
X16018552Y10471848D01*
X16010691Y10477559D01*
X15908255Y10529753D01*
X15899011Y10532757D01*
X15814034Y10546216D01*
X15809147Y10546600D01*
X15780031Y10546600D01*
X15771241Y10542959D01*
X15767600Y10534169D01*
X15767600Y10122031D01*
X15513600Y10122031D01*
X15513600Y10534168D01*
X15509959Y10542958D01*
X15501169Y10546599D01*
X15472054Y10546599D01*
X15467166Y10546214D01*
X15382188Y10532756D01*
X15372947Y10529754D01*
X15270509Y10477559D01*
X15262648Y10471848D01*
X15181353Y10390553D01*
X15175062Y10381894D01*
X15134275Y10356900D01*
X15087762Y10368066D01*
X15080304Y10374436D01*
X15018916Y10435824D01*
X15013961Y10438134D01*
X15013959Y10438136D01*
X14945085Y10470252D01*
X14910087Y10486572D01*
X14893088Y10488810D01*
X14862532Y10492833D01*
X14862526Y10492833D01*
X14860501Y10493100D01*
X14858454Y10493100D01*
X14680116Y10493099D01*
X14500700Y10493099D01*
X14498688Y10492834D01*
X14498685Y10492834D01*
X14455853Y10487196D01*
X14455852Y10487196D01*
X14451113Y10486572D01*
X14446779Y10484551D01*
X14347241Y10438136D01*
X14347239Y10438134D01*
X14342284Y10435824D01*
X14257376Y10350916D01*
X14255066Y10345961D01*
X14255064Y10345959D01*
X14234162Y10301133D01*
X14206628Y10242087D01*
X14200100Y10192501D01*
X14200101Y9772700D01*
X14206628Y9723113D01*
X14208649Y9718779D01*
X14255064Y9619241D01*
X14255066Y9619239D01*
X14257376Y9614284D01*
X14342284Y9529376D01*
X14344253Y9528458D01*
X14369151Y9489376D01*
X14370100Y9478523D01*
X14370100Y9476652D01*
X14351794Y9432458D01*
X14346109Y9427636D01*
X14342720Y9425972D01*
X14316408Y9399614D01*
X14264518Y9347634D01*
X14264516Y9347632D01*
X14260870Y9343979D01*
X14250482Y9322728D01*
X14227244Y9275188D01*
X14191389Y9243522D01*
X14143646Y9246484D01*
X14126899Y9258441D01*
X14097316Y9288024D01*
X14092361Y9290334D01*
X14092359Y9290336D01*
X14030716Y9319080D01*
X13988487Y9338772D01*
X13971488Y9341010D01*
X13940932Y9345033D01*
X13940926Y9345033D01*
X13938901Y9345300D01*
X13936854Y9345300D01*
X13728435Y9345299D01*
X13519100Y9345299D01*
X13517088Y9345034D01*
X13517085Y9345034D01*
X13474253Y9339396D01*
X13474252Y9339396D01*
X13469513Y9338772D01*
X13465179Y9336751D01*
X13365641Y9290336D01*
X13365639Y9290334D01*
X13360684Y9288024D01*
X13309266Y9236606D01*
X13265072Y9218300D01*
X13263030Y9218300D01*
X13218836Y9236606D01*
X13206927Y9253256D01*
X13200649Y9266044D01*
X13200646Y9266048D01*
X13198372Y9270680D01*
X13189750Y9279287D01*
X13120034Y9348882D01*
X13120032Y9348884D01*
X13116379Y9352530D01*
X13074430Y9373035D01*
X13016654Y9401277D01*
X13016653Y9401277D01*
X13012294Y9403408D01*
X13007491Y9404109D01*
X13007490Y9404109D01*
X12986735Y9407137D01*
X12944486Y9413300D01*
X12583514Y9413300D01*
X12581267Y9412969D01*
X12581264Y9412969D01*
X12557278Y9409438D01*
X12515116Y9403231D01*
X12411120Y9352172D01*
X12407474Y9348520D01*
X12407473Y9348519D01*
X12376988Y9317980D01*
X12329270Y9270179D01*
X12328578Y9268763D01*
X12289319Y9244230D01*
X12242709Y9254988D01*
X12229701Y9267972D01*
X12228372Y9270680D01*
X12224718Y9274328D01*
X12150034Y9348882D01*
X12150032Y9348884D01*
X12146379Y9352530D01*
X12104430Y9373035D01*
X12046654Y9401277D01*
X12046653Y9401277D01*
X12042294Y9403408D01*
X12037491Y9404109D01*
X12037490Y9404109D01*
X12016735Y9407137D01*
X11974486Y9413300D01*
X11613514Y9413300D01*
X11611267Y9412969D01*
X11611264Y9412969D01*
X11587278Y9409438D01*
X11545116Y9403231D01*
X11441120Y9352172D01*
X11437474Y9348520D01*
X11437473Y9348519D01*
X11362918Y9273834D01*
X11362916Y9273832D01*
X11359270Y9270179D01*
X11308392Y9166094D01*
X11298500Y9098286D01*
X11298500Y9090800D01*
X11280194Y9046606D01*
X11236000Y9028300D01*
X11213530Y9028300D01*
X11169336Y9046606D01*
X11151030Y9090800D01*
X11152231Y9102994D01*
X11153901Y9111389D01*
X11154500Y9114399D01*
X11154499Y9291200D01*
X11149977Y9313938D01*
X11140441Y9361879D01*
X11139240Y9367917D01*
X11105724Y9418077D01*
X11096392Y9464993D01*
X11105724Y9487523D01*
X11135820Y9532564D01*
X11135821Y9532566D01*
X11139240Y9537683D01*
X11154500Y9614399D01*
X11154499Y9791200D01*
X11150999Y9808800D01*
X11140441Y9861879D01*
X11139240Y9867917D01*
X11081112Y9954912D01*
X11003502Y10006769D01*
X10976927Y10046541D01*
X10986259Y10093458D01*
X10994032Y10102929D01*
X11402614Y10511511D01*
X11446808Y10529817D01*
X11473222Y10523960D01*
X11482513Y10519628D01*
X11499512Y10517390D01*
X11530068Y10513367D01*
X11530074Y10513367D01*
X11532099Y10513100D01*
X11534146Y10513100D01*
X11712484Y10513101D01*
X11891900Y10513101D01*
X11893912Y10513366D01*
X11893915Y10513366D01*
X11936747Y10519004D01*
X11936748Y10519004D01*
X11941487Y10519628D01*
X11950777Y10523960D01*
X12045359Y10568064D01*
X12045361Y10568066D01*
X12050316Y10570376D01*
X12111704Y10631764D01*
X12155898Y10650070D01*
X12200092Y10631764D01*
X12206462Y10624306D01*
X12212753Y10615647D01*
X12294048Y10534352D01*
X12301909Y10528641D01*
X12404345Y10476447D01*
X12413589Y10473443D01*
X12498566Y10459984D01*
X12503453Y10459600D01*
X12532569Y10459600D01*
X12541359Y10463241D01*
X12545000Y10472031D01*
X12545000Y10472032D01*
X12799000Y10472032D01*
X12802641Y10463242D01*
X12811431Y10459601D01*
X12840546Y10459601D01*
X12845434Y10459986D01*
X12930412Y10473444D01*
X12939653Y10476446D01*
X13042091Y10528641D01*
X13049952Y10534352D01*
X13131248Y10615648D01*
X13136959Y10623509D01*
X13189153Y10725945D01*
X13192157Y10735189D01*
X13205616Y10820166D01*
X13206000Y10825053D01*
X13206000Y10884169D01*
X13202359Y10892959D01*
X13193569Y10896600D01*
X12811431Y10896600D01*
X12802641Y10892959D01*
X12799000Y10884169D01*
X12799000Y10472032D01*
X12545000Y10472032D01*
X12545000Y11163031D01*
X12799000Y11163031D01*
X12802641Y11154241D01*
X12811431Y11150600D01*
X13193568Y11150600D01*
X13202358Y11154241D01*
X13205999Y11163031D01*
X13205999Y11222146D01*
X13205614Y11227034D01*
X13192156Y11312012D01*
X13189154Y11321253D01*
X13136959Y11423691D01*
X13131248Y11431552D01*
X13049994Y11512806D01*
X13031688Y11557000D01*
X13049994Y11601194D01*
X13131248Y11682448D01*
X13136959Y11690309D01*
X13189153Y11792745D01*
X13192157Y11801989D01*
X13205616Y11886966D01*
X13206000Y11891853D01*
X13206000Y11950969D01*
X13202359Y11959759D01*
X13193569Y11963400D01*
X12811431Y11963400D01*
X12802641Y11959759D01*
X12799000Y11950969D01*
X12799000Y11163031D01*
X12545000Y11163031D01*
X12545000Y12229831D01*
X12799000Y12229831D01*
X12802641Y12221041D01*
X12811431Y12217400D01*
X13193568Y12217400D01*
X13202358Y12221041D01*
X13205999Y12229831D01*
X13205999Y12288946D01*
X13205614Y12293834D01*
X13192156Y12378812D01*
X13189154Y12388053D01*
X13136959Y12490491D01*
X13131248Y12498352D01*
X13049952Y12579648D01*
X13042091Y12585359D01*
X12939655Y12637553D01*
X12930411Y12640557D01*
X12845434Y12654016D01*
X12840547Y12654400D01*
X12811431Y12654400D01*
X12802641Y12650759D01*
X12799000Y12641969D01*
X12799000Y12229831D01*
X12545000Y12229831D01*
X12545000Y12641968D01*
X12541359Y12650758D01*
X12532569Y12654399D01*
X12503454Y12654399D01*
X12498566Y12654014D01*
X12413588Y12640556D01*
X12404347Y12637554D01*
X12301909Y12585359D01*
X12294048Y12579648D01*
X12212753Y12498353D01*
X12206462Y12489694D01*
X12165675Y12464700D01*
X12119162Y12475866D01*
X12111704Y12482236D01*
X12050316Y12543624D01*
X12045361Y12545934D01*
X12045359Y12545936D01*
X11994434Y12569682D01*
X11941487Y12594372D01*
X11924488Y12596610D01*
X11893932Y12600633D01*
X11893926Y12600633D01*
X11891901Y12600900D01*
X11864491Y12600900D01*
X11820297Y12619206D01*
X11693797Y12745706D01*
X11675491Y12789900D01*
X11693797Y12834094D01*
X11737991Y12852400D01*
X18784300Y12852400D01*
X18828494Y12834094D01*
G37*
%TD.AperFunction*%
%TA.AperFunction,Conductor*%
G36*
X2907394Y7063502D02*
G01*
X2925700Y7019308D01*
X2925700Y5189915D01*
X2907394Y5145721D01*
X2645480Y4883806D01*
X2601286Y4865500D01*
X1937971Y4865500D01*
X1893777Y4883806D01*
X1888386Y4889952D01*
X1886053Y4892993D01*
X1828282Y4968282D01*
X1806963Y4984641D01*
X1713148Y5056627D01*
X1702841Y5064536D01*
X1575559Y5117258D01*
X1541735Y5151082D01*
X1541735Y5198918D01*
X1575559Y5232742D01*
X1699058Y5283897D01*
X1702841Y5285464D01*
X1828282Y5381718D01*
X1924536Y5507159D01*
X1943375Y5552640D01*
X1983476Y5649452D01*
X1983476Y5649453D01*
X1985044Y5653238D01*
X1986647Y5665410D01*
X2005147Y5805936D01*
X2005682Y5810000D01*
X2002406Y5834884D01*
X1985579Y5962699D01*
X1985579Y5962700D01*
X1985044Y5966762D01*
X1980738Y5977159D01*
X1926103Y6109058D01*
X1924536Y6112841D01*
X1828282Y6238282D01*
X1702841Y6334536D01*
X1664627Y6350365D01*
X1603912Y6375514D01*
X1575559Y6387258D01*
X1541735Y6421082D01*
X1541735Y6468918D01*
X1575559Y6502742D01*
X1699058Y6553897D01*
X1702841Y6555464D01*
X1791523Y6623512D01*
X1825036Y6649227D01*
X1825037Y6649228D01*
X1828282Y6651718D01*
X1888387Y6730048D01*
X1929813Y6753965D01*
X1937971Y6754500D01*
X2358236Y6754500D01*
X2363683Y6754262D01*
X2403984Y6750736D01*
X2409264Y6752151D01*
X2409266Y6752151D01*
X2443060Y6761207D01*
X2448381Y6762387D01*
X2488222Y6769412D01*
X2492956Y6772145D01*
X2492961Y6772147D01*
X2493690Y6772568D01*
X2508763Y6778812D01*
X2509582Y6779031D01*
X2509584Y6779032D01*
X2514861Y6780446D01*
X2547999Y6803650D01*
X2552591Y6806575D01*
X2587632Y6826806D01*
X2613640Y6857801D01*
X2617324Y6861821D01*
X2819006Y7063502D01*
X2863200Y7081808D01*
X2907394Y7063502D01*
G37*
%TD.AperFunction*%
%TA.AperFunction,Conductor*%
G36*
X8283588Y10038331D02*
G01*
X8291359Y10028862D01*
X8326888Y9975688D01*
X8332005Y9972269D01*
X8408764Y9920980D01*
X8408766Y9920979D01*
X8413883Y9917560D01*
X8488880Y9902642D01*
X8490599Y9902300D01*
X8490513Y9901869D01*
X8526604Y9884801D01*
X8714411Y9696994D01*
X8732717Y9652800D01*
X8714411Y9608606D01*
X8623194Y9517389D01*
X8579000Y9499083D01*
X8534806Y9517389D01*
X8148725Y9903470D01*
X8130419Y9947664D01*
X8148725Y9991859D01*
X8194334Y10037467D01*
X8195199Y10038332D01*
X8239394Y10056637D01*
X8283588Y10038331D01*
G37*
%TD.AperFunction*%
%TA.AperFunction,Conductor*%
G36*
X7973357Y10076077D02*
G01*
X7982828Y10068304D01*
X8013666Y10037466D01*
X8059275Y9991858D01*
X8077581Y9947664D01*
X8059275Y9903470D01*
X7673194Y9517389D01*
X7629000Y9499083D01*
X7584806Y9517389D01*
X7493589Y9608606D01*
X7475283Y9652800D01*
X7493589Y9696994D01*
X7693310Y9896715D01*
X7725313Y9913820D01*
X7744117Y9917560D01*
X7831112Y9975688D01*
X7886668Y10058834D01*
X7926440Y10085409D01*
X7973357Y10076077D01*
G37*
%TD.AperFunction*%
%TA.AperFunction,Conductor*%
G36*
X10283957Y11481919D02*
G01*
X10313232Y11453648D01*
X10341136Y11398884D01*
X10346847Y11391023D01*
X10427023Y11310847D01*
X10434884Y11305136D01*
X10535909Y11253661D01*
X10545153Y11250657D01*
X10628957Y11237384D01*
X10633844Y11237000D01*
X10703008Y11237000D01*
X10747202Y11218694D01*
X10765508Y11174500D01*
X10747202Y11130306D01*
X10169495Y10552598D01*
X10163994Y10547710D01*
X10141216Y10529753D01*
X10134390Y10524372D01*
X10101267Y10476446D01*
X10100470Y10475293D01*
X10099335Y10473705D01*
X10078524Y10445529D01*
X10068950Y10432567D01*
X10027969Y10407895D01*
X9981544Y10419427D01*
X9960934Y10445783D01*
X9954358Y10461659D01*
X9945569Y10465300D01*
X9716431Y10465300D01*
X9707641Y10461659D01*
X9704000Y10452869D01*
X9704000Y9871300D01*
X9685694Y9827106D01*
X9641500Y9808800D01*
X9516500Y9808800D01*
X9472306Y9827106D01*
X9454000Y9871300D01*
X9454000Y10652800D01*
X9472306Y10696994D01*
X9516500Y10715300D01*
X9945569Y10715300D01*
X9954359Y10718941D01*
X9958000Y10727731D01*
X9958000Y11050343D01*
X9957733Y11054421D01*
X9952556Y11093737D01*
X9949910Y11102817D01*
X9904762Y11199638D01*
X9906718Y11200550D01*
X9898098Y11239401D01*
X9923794Y11279749D01*
X9951492Y11290523D01*
X9974832Y11293596D01*
X10000173Y11296932D01*
X10078428Y11333423D01*
X10102447Y11344623D01*
X10102449Y11344624D01*
X10107404Y11346935D01*
X10191065Y11430596D01*
X10200901Y11451689D01*
X10236167Y11484004D01*
X10283957Y11481919D01*
G37*
%TD.AperFunction*%
%TA.AperFunction,Conductor*%
G36*
X7103783Y12112194D02*
G01*
X7122089Y12068000D01*
X7121319Y12058223D01*
X7114385Y12014446D01*
X7114000Y12009547D01*
X7114000Y11950431D01*
X7117641Y11941641D01*
X7126431Y11938000D01*
X7712500Y11938000D01*
X7756694Y11919694D01*
X7775000Y11875500D01*
X7775000Y11746500D01*
X7756694Y11702306D01*
X7712500Y11684000D01*
X7126432Y11684000D01*
X7117642Y11680359D01*
X7114001Y11671569D01*
X7114001Y11612454D01*
X7114386Y11607566D01*
X7127844Y11522588D01*
X7130846Y11513347D01*
X7183041Y11410909D01*
X7188752Y11403048D01*
X7270048Y11321752D01*
X7277909Y11316041D01*
X7308451Y11300479D01*
X7339518Y11264105D01*
X7335765Y11216417D01*
X7327895Y11205585D01*
X7326888Y11204912D01*
X7268760Y11117917D01*
X7253500Y11041201D01*
X7253500Y10978300D01*
X7235194Y10934106D01*
X7191000Y10915800D01*
X5964103Y10915800D01*
X5958656Y10916038D01*
X5923808Y10919087D01*
X5923806Y10919087D01*
X5918363Y10919563D01*
X5913086Y10918149D01*
X5913085Y10918149D01*
X5879279Y10909091D01*
X5873961Y10907913D01*
X5834125Y10900888D01*
X5829388Y10898153D01*
X5829387Y10898153D01*
X5828654Y10897730D01*
X5813589Y10891490D01*
X5812769Y10891270D01*
X5812768Y10891269D01*
X5807486Y10889854D01*
X5803009Y10886719D01*
X5774348Y10866650D01*
X5769756Y10863725D01*
X5734715Y10843494D01*
X5731200Y10839305D01*
X5708706Y10812498D01*
X5705022Y10808478D01*
X5400350Y10503806D01*
X5356156Y10485500D01*
X3351010Y10485500D01*
X3306816Y10503806D01*
X3288510Y10548000D01*
X3308584Y10593894D01*
X3320756Y10605146D01*
X3323102Y10609185D01*
X3326023Y10612831D01*
X3326324Y10612590D01*
X3331098Y10618795D01*
X3554495Y10842192D01*
X3582251Y10858297D01*
X3600118Y10863168D01*
X3604417Y10864340D01*
X3726591Y10939355D01*
X3822800Y11045646D01*
X3879153Y11161959D01*
X3891205Y11178902D01*
X3980000Y11267697D01*
X3985500Y11272585D01*
X4011444Y11293038D01*
X4015110Y11295928D01*
X4049038Y11345018D01*
X4050172Y11346605D01*
X4082858Y11390857D01*
X4082859Y11390859D01*
X4085634Y11394616D01*
X4087182Y11399024D01*
X4088135Y11400825D01*
X4088290Y11401081D01*
X4088462Y11401417D01*
X4088586Y11401714D01*
X4089472Y11403523D01*
X4092131Y11407369D01*
X4095862Y11419164D01*
X4110121Y11464252D01*
X4110742Y11466115D01*
X4111429Y11468069D01*
X4130519Y11522431D01*
X4130702Y11527095D01*
X4131083Y11529093D01*
X4131235Y11529698D01*
X4131903Y11533127D01*
X4132980Y11536530D01*
X4133260Y11540086D01*
X4133403Y11541898D01*
X4133404Y11541911D01*
X4133500Y11543137D01*
X4133500Y11580200D01*
X4151806Y11624394D01*
X4196000Y11642700D01*
X4852212Y11642700D01*
X4896406Y11624394D01*
X4914177Y11588357D01*
X4918402Y11556259D01*
X4918404Y11556251D01*
X4919028Y11551513D01*
X4921049Y11547179D01*
X4967464Y11447641D01*
X4967466Y11447639D01*
X4969776Y11442684D01*
X5054684Y11357776D01*
X5059639Y11355466D01*
X5059641Y11355464D01*
X5091732Y11340500D01*
X5163513Y11307028D01*
X5180512Y11304790D01*
X5211068Y11300767D01*
X5211074Y11300767D01*
X5213099Y11300500D01*
X5215146Y11300500D01*
X5393484Y11300501D01*
X5572900Y11300501D01*
X5574912Y11300766D01*
X5574915Y11300766D01*
X5617747Y11306404D01*
X5617748Y11306404D01*
X5622487Y11307028D01*
X5641815Y11316041D01*
X5726359Y11355464D01*
X5726361Y11355466D01*
X5731316Y11357776D01*
X5792704Y11419164D01*
X5836898Y11437470D01*
X5881092Y11419164D01*
X5887462Y11411706D01*
X5893753Y11403047D01*
X5975048Y11321752D01*
X5982909Y11316041D01*
X6085345Y11263847D01*
X6094589Y11260843D01*
X6179566Y11247384D01*
X6184453Y11247000D01*
X6213569Y11247000D01*
X6222359Y11250641D01*
X6226000Y11259431D01*
X6226000Y11259432D01*
X6480000Y11259432D01*
X6483641Y11250642D01*
X6492431Y11247001D01*
X6521546Y11247001D01*
X6526434Y11247386D01*
X6611412Y11260844D01*
X6620653Y11263846D01*
X6723091Y11316041D01*
X6730952Y11321752D01*
X6812248Y11403048D01*
X6817959Y11410909D01*
X6870153Y11513345D01*
X6873157Y11522589D01*
X6886616Y11607566D01*
X6887000Y11612453D01*
X6887000Y11671569D01*
X6883359Y11680359D01*
X6874569Y11684000D01*
X6492431Y11684000D01*
X6483641Y11680359D01*
X6480000Y11671569D01*
X6480000Y11259432D01*
X6226000Y11259432D01*
X6226000Y11875500D01*
X6244306Y11919694D01*
X6288500Y11938000D01*
X6874568Y11938000D01*
X6883358Y11941641D01*
X6886999Y11950431D01*
X6886999Y12009546D01*
X6886615Y12014432D01*
X6879679Y12058223D01*
X6890847Y12104737D01*
X6931633Y12129731D01*
X6941410Y12130500D01*
X7059589Y12130500D01*
X7103783Y12112194D01*
G37*
%TD.AperFunction*%
%TA.AperFunction,Conductor*%
G36*
X5506217Y12834094D02*
G01*
X5524523Y12789900D01*
X5506217Y12745706D01*
X5322517Y12562006D01*
X5278323Y12543700D01*
X3868674Y12543700D01*
X3861328Y12544133D01*
X3823890Y12548564D01*
X3819296Y12547725D01*
X3819295Y12547725D01*
X3765199Y12537845D01*
X3763266Y12537524D01*
X3704238Y12528649D01*
X3700021Y12526624D01*
X3698081Y12526027D01*
X3697775Y12525952D01*
X3697441Y12525844D01*
X3697141Y12525721D01*
X3695222Y12525064D01*
X3690627Y12524225D01*
X3686479Y12522070D01*
X3686478Y12522070D01*
X3637716Y12496740D01*
X3635959Y12495862D01*
X3586333Y12472032D01*
X3586331Y12472031D01*
X3582121Y12470009D01*
X3578690Y12466838D01*
X3577006Y12465693D01*
X3576476Y12465377D01*
X3573574Y12463421D01*
X3570412Y12461779D01*
X3565372Y12457475D01*
X3527248Y12419351D01*
X3525479Y12417650D01*
X3482644Y12378054D01*
X3480297Y12374014D01*
X3477377Y12370369D01*
X3477076Y12370610D01*
X3472302Y12364405D01*
X3386000Y12278103D01*
X3380500Y12273215D01*
X3350890Y12249872D01*
X3316970Y12200793D01*
X3315835Y12199205D01*
X3280366Y12151184D01*
X3278818Y12146776D01*
X3277865Y12144975D01*
X3277710Y12144719D01*
X3277538Y12144383D01*
X3277414Y12144086D01*
X3276528Y12142277D01*
X3273869Y12138431D01*
X3272460Y12133976D01*
X3272459Y12133974D01*
X3255879Y12081548D01*
X3255266Y12079709D01*
X3235481Y12023369D01*
X3235298Y12018705D01*
X3234917Y12016707D01*
X3234765Y12016102D01*
X3234097Y12012673D01*
X3233020Y12009270D01*
X3232740Y12005715D01*
X3232740Y12005714D01*
X3232597Y12003902D01*
X3232596Y12003889D01*
X3232500Y12002663D01*
X3232500Y11948738D01*
X3232452Y11946285D01*
X3230162Y11888006D01*
X3231359Y11883492D01*
X3231872Y11878845D01*
X3231489Y11878803D01*
X3232500Y11871041D01*
X3232500Y11845613D01*
X3214194Y11801419D01*
X3197882Y11790187D01*
X3197129Y11789972D01*
X3075880Y11713470D01*
X3072937Y11710138D01*
X3072935Y11710136D01*
X2997211Y11624394D01*
X2980977Y11606012D01*
X2979085Y11601982D01*
X2929750Y11496904D01*
X2917369Y11479272D01*
X2796903Y11358806D01*
X2752709Y11340500D01*
X2040804Y11340500D01*
X1996610Y11358806D01*
X1988837Y11368276D01*
X1947969Y11429438D01*
X1944552Y11434552D01*
X1912569Y11455923D01*
X1883347Y11475449D01*
X1883345Y11475450D01*
X1878231Y11478867D01*
X1872197Y11480067D01*
X1872195Y11480068D01*
X1822761Y11489901D01*
X1822758Y11489901D01*
X1819748Y11490500D01*
X214900Y11490500D01*
X170706Y11508806D01*
X152400Y11553000D01*
X152400Y12789900D01*
X170706Y12834094D01*
X214900Y12852400D01*
X5462023Y12852400D01*
X5506217Y12834094D01*
G37*
%TD.AperFunction*%
%TD*%
M02*
