%TF.GenerationSoftware,KiCad,Pcbnew,8.0.5-8.0.5-0~ubuntu22.04.1*%
%TF.CreationDate,2024-09-30T12:15:54+02:00*%
%TF.ProjectId,CC1101_868MHz_RF_Modul_FUEL4EP,43433131-3031-45f3-9836-384d487a5f52,1.7*%
%TF.SameCoordinates,Original*%
%TF.FileFunction,Copper,L2,Bot*%
%TF.FilePolarity,Positive*%
%FSLAX46Y46*%
G04 Gerber Fmt 4.6, Leading zero omitted, Abs format (unit mm)*
G04 Created by KiCad (PCBNEW 8.0.5-8.0.5-0~ubuntu22.04.1) date 2024-09-30 12:15:54*
%MOMM*%
%LPD*%
G01*
G04 APERTURE LIST*
G04 Aperture macros list*
%AMRoundRect*
0 Rectangle with rounded corners*
0 $1 Rounding radius*
0 $2 $3 $4 $5 $6 $7 $8 $9 X,Y pos of 4 corners*
0 Add a 4 corners polygon primitive as box body*
4,1,4,$2,$3,$4,$5,$6,$7,$8,$9,$2,$3,0*
0 Add four circle primitives for the rounded corners*
1,1,$1+$1,$2,$3*
1,1,$1+$1,$4,$5*
1,1,$1+$1,$6,$7*
1,1,$1+$1,$8,$9*
0 Add four rect primitives between the rounded corners*
20,1,$1+$1,$2,$3,$4,$5,0*
20,1,$1+$1,$4,$5,$6,$7,0*
20,1,$1+$1,$6,$7,$8,$9,0*
20,1,$1+$1,$8,$9,$2,$3,0*%
G04 Aperture macros list end*
%TA.AperFunction,CastellatedPad*%
%ADD10RoundRect,0.250000X-0.600000X-0.250000X0.600000X-0.250000X0.600000X0.250000X-0.600000X0.250000X0*%
%TD*%
%TA.AperFunction,CastellatedPad*%
%ADD11R,1.700000X1.000000*%
%TD*%
%TA.AperFunction,HeatsinkPad*%
%ADD12C,0.500000*%
%TD*%
%TA.AperFunction,HeatsinkPad*%
%ADD13R,2.400000X2.400000*%
%TD*%
%TA.AperFunction,ViaPad*%
%ADD14C,0.600000*%
%TD*%
%TA.AperFunction,Conductor*%
%ADD15C,0.250000*%
%TD*%
%TA.AperFunction,Conductor*%
%ADD16C,0.500000*%
%TD*%
G04 APERTURE END LIST*
D10*
%TO.P,JC5,1,Pin_1*%
%TO.N,/MOSI*%
X950000Y5810000D03*
%TD*%
D11*
%TO.P,JA1,1,Pin_1*%
%TO.N,GND*%
X18050000Y3550000D03*
%TD*%
D10*
%TO.P,JC8,1,Pin_1*%
%TO.N,GND*%
X950000Y2000000D03*
%TD*%
D11*
%TO.P,JA2,1,Pin_1*%
%TO.N,Net-(JA2-Pin_1)*%
X18050000Y1270000D03*
%TD*%
D10*
%TO.P,JC6,1,Pin_1*%
%TO.N,/MISO{slash}GDO1*%
X950000Y4540000D03*
%TD*%
%TO.P,JC3,1,Pin_1*%
%TO.N,/~{CS}*%
X950000Y8350000D03*
%TD*%
%TO.P,JC2,1,Pin_1*%
%TO.N,/GDO0*%
X950000Y9620000D03*
%TD*%
D11*
%TO.P,JC1,1,Pin_1*%
%TO.N,/VDD*%
X950000Y10890000D03*
%TD*%
D10*
%TO.P,JC4,1,Pin_1*%
%TO.N,/SCK*%
X950000Y7080000D03*
%TD*%
D12*
%TO.P,U1,21,GND3*%
%TO.N,GND*%
X7629000Y9652800D03*
X7629000Y8702800D03*
X7629000Y7752800D03*
X8579000Y9652800D03*
X8579000Y8702800D03*
D13*
X8579000Y8702800D03*
D12*
X8579000Y7752800D03*
X9529000Y9652800D03*
X9529000Y8702800D03*
X9529000Y7752800D03*
%TD*%
D10*
%TO.P,JC7,1,Pin_1*%
%TO.N,/GDO2*%
X950000Y3270000D03*
%TD*%
D14*
%TO.N,GND*%
X17780000Y7112000D03*
X3302000Y1524000D03*
X3302000Y508000D03*
X2286000Y1524000D03*
X2286000Y508000D03*
X762000Y508000D03*
X500000Y12050000D03*
X14859000Y12192000D03*
X3302000Y2540000D03*
X4318000Y1524000D03*
X6604000Y508000D03*
X8890000Y508000D03*
X18288000Y11176000D03*
X5334000Y1524000D03*
X18542000Y6096000D03*
X6985000Y11303000D03*
X10414000Y3048000D03*
X18542000Y8890000D03*
X10226239Y7051239D03*
X11176000Y3556000D03*
X15494000Y508000D03*
X5854208Y4498645D03*
X17526000Y11176000D03*
X13208000Y1524000D03*
X4318000Y508000D03*
X17780000Y4826000D03*
X13716000Y6350000D03*
X13475000Y7050000D03*
X18542000Y6858000D03*
X2286000Y2540000D03*
X16764000Y10160000D03*
X12500000Y6985000D03*
X16002000Y12192000D03*
X18542000Y5334000D03*
X5334000Y2540000D03*
X9780000Y10794000D03*
X13208000Y508000D03*
X17780000Y5588000D03*
X10668000Y4699000D03*
X16764000Y11176000D03*
X14224000Y3556000D03*
X10160000Y508000D03*
X4318000Y3556000D03*
X5334000Y3556000D03*
X14224000Y2032000D03*
X18542000Y7874000D03*
X12192000Y3556000D03*
X11176000Y508000D03*
X13335000Y10175000D03*
X13208000Y2540000D03*
X12192000Y1524000D03*
X3556000Y3302000D03*
X4318000Y2540000D03*
X14808200Y11226800D03*
X16002000Y11176000D03*
X14732000Y1524000D03*
X17780000Y6350000D03*
X17526000Y10160000D03*
X16764000Y12192000D03*
X5334000Y508000D03*
X2304199Y5700000D03*
X13030200Y12014200D03*
X18288000Y10160000D03*
X12192000Y508000D03*
X11176000Y2540000D03*
X13792200Y11099800D03*
X7874000Y508000D03*
X6223000Y10922000D03*
X6858000Y7061200D03*
X18288000Y12192000D03*
X13175000Y4450000D03*
X4346102Y4561781D03*
X13868400Y12039600D03*
X11684000Y6985000D03*
X10414000Y2032000D03*
X14732000Y508000D03*
X11176000Y1524000D03*
X13716000Y5588000D03*
X16002000Y1016000D03*
X15494000Y1524000D03*
X17526000Y12192000D03*
X14224000Y2794000D03*
X16510000Y508000D03*
X13208000Y3556000D03*
X1524000Y762000D03*
X2375000Y10775000D03*
X13970000Y1016000D03*
X4592391Y11199563D03*
X10375000Y3875000D03*
X12928600Y11074400D03*
X12225000Y4425000D03*
X12192000Y2540000D03*
X10414000Y1270000D03*
X14224000Y4318000D03*
%TO.N,/GDO0*%
X7041833Y5538480D03*
%TO.N,/MOSI*%
X2261967Y7852614D03*
%TO.N,/~{CS}*%
X7877108Y5586478D03*
%TO.N,VDDA*%
X5505452Y8312053D03*
X3403600Y11328400D03*
X9127372Y5974477D03*
X10823000Y5587998D03*
%TD*%
D15*
%TO.N,/GDO0*%
X2165932Y9620000D02*
X4939781Y6846151D01*
X6061234Y5572299D02*
X7043829Y5572299D01*
X1400000Y9620000D02*
X2165932Y9620000D01*
X4962699Y6697707D02*
X4962699Y6670833D01*
X4939781Y6720625D02*
X4962699Y6697707D01*
X4962699Y6670833D02*
X6061234Y5572299D01*
X4939781Y6846151D02*
X4939781Y6720625D01*
%TO.N,/MOSI*%
X2261967Y6671967D02*
X2261967Y7852614D01*
X1400000Y5810000D02*
X2261967Y6671967D01*
%TO.N,/~{CS}*%
X1400000Y8350000D02*
X1800000Y8750000D01*
X2298643Y8750000D02*
X4490280Y6558363D01*
X7300510Y4913980D02*
X7666333Y5279803D01*
X6783156Y4913980D02*
X7300510Y4913980D01*
X4490280Y6558363D02*
X4490280Y6507562D01*
X6574338Y5122798D02*
X6783156Y4913980D01*
X4490280Y6507562D02*
X5875044Y5122798D01*
X7666333Y5279803D02*
X7666333Y5288773D01*
X7666333Y5288773D02*
X7927343Y5549783D01*
X5875044Y5122798D02*
X6574338Y5122798D01*
X1800000Y8750000D02*
X2298643Y8750000D01*
D16*
%TO.N,VDDA*%
X5514282Y8114709D02*
X5514282Y9217718D01*
X6287200Y6311200D02*
X5505452Y7092948D01*
X9127372Y5974477D02*
X8701049Y6400800D01*
X7168661Y6311200D02*
X6287200Y6311200D01*
X8701049Y6400800D02*
X7258261Y6400800D01*
X5514282Y9217718D02*
X3403600Y11328400D01*
X5505452Y7092948D02*
X5505452Y8312053D01*
X7258261Y6400800D02*
X7168661Y6311200D01*
X9127372Y5974477D02*
X10436521Y5974477D01*
X10436521Y5974477D02*
X10823000Y5587998D01*
%TD*%
%TA.AperFunction,Conductor*%
%TO.N,GND*%
G36*
X18788921Y12832398D02*
G01*
X18835414Y12778742D01*
X18846800Y12726400D01*
X18846800Y4429999D01*
X18826798Y4361878D01*
X18773142Y4315385D01*
X18720800Y4303999D01*
X18177000Y4303999D01*
X18177000Y2796000D01*
X18720800Y2796000D01*
X18788921Y2775998D01*
X18835414Y2722342D01*
X18846800Y2670000D01*
X18846800Y2096500D01*
X18826798Y2028379D01*
X18773142Y1981886D01*
X18720800Y1970500D01*
X17180252Y1970500D01*
X17121769Y1958867D01*
X17055448Y1914552D01*
X17011133Y1848231D01*
X17011132Y1848228D01*
X16999500Y1789750D01*
X16999500Y750249D01*
X17011132Y691771D01*
X17011133Y691768D01*
X17055448Y625448D01*
X17121768Y581133D01*
X17121771Y581132D01*
X17180249Y569500D01*
X18720800Y569500D01*
X18788921Y549498D01*
X18835414Y495842D01*
X18846800Y443500D01*
X18846800Y278400D01*
X18826798Y210279D01*
X18773142Y163786D01*
X18720800Y152400D01*
X278400Y152400D01*
X210279Y172402D01*
X163786Y226058D01*
X152400Y278400D01*
X152400Y1121788D01*
X172402Y1189909D01*
X226058Y1236402D01*
X291866Y1247066D01*
X301772Y1246001D01*
X301795Y1246000D01*
X823000Y1246000D01*
X823000Y2001000D01*
X843002Y2069121D01*
X896658Y2115614D01*
X949000Y2127000D01*
X998047Y2127000D01*
X997149Y2125445D01*
X975000Y2042787D01*
X975000Y1957213D01*
X997149Y1874555D01*
X1039936Y1800446D01*
X1077000Y1763382D01*
X1077000Y1246000D01*
X1598202Y1246000D01*
X1598226Y1246002D01*
X1658232Y1252452D01*
X1658234Y1252452D01*
X1794023Y1303100D01*
X1910047Y1389952D01*
X1996899Y1505976D01*
X2047546Y1641761D01*
X2047548Y1641769D01*
X2053999Y1701777D01*
X2054000Y1701794D01*
X2054000Y1873000D01*
X1601953Y1873000D01*
X1602851Y1874555D01*
X1625000Y1957213D01*
X1625000Y2042787D01*
X1602851Y2125445D01*
X1601953Y2127000D01*
X2053999Y2127000D01*
X2053999Y2298202D01*
X2053997Y2298226D01*
X2047547Y2358232D01*
X2047547Y2358234D01*
X1996900Y2494021D01*
X1914458Y2604153D01*
X1889648Y2670674D01*
X1904740Y2740048D01*
X1913947Y2754483D01*
X1952793Y2807118D01*
X1997644Y2935295D01*
X1997645Y2935299D01*
X1997646Y2935301D01*
X2000500Y2965734D01*
X2000500Y3574266D01*
X1997646Y3604699D01*
X1952793Y3732882D01*
X1880984Y3830179D01*
X1856627Y3896866D01*
X1872189Y3966135D01*
X1880980Y3979814D01*
X1915638Y4026775D01*
X1951247Y4075022D01*
X16946000Y4075022D01*
X16946000Y3677000D01*
X17345801Y3677000D01*
X17325000Y3599370D01*
X17325000Y3500630D01*
X17345801Y3423000D01*
X16946001Y3423000D01*
X16946001Y3024977D01*
X16960737Y2950894D01*
X16960737Y2950892D01*
X17016875Y2866875D01*
X17100893Y2810737D01*
X17100894Y2810736D01*
X17174977Y2796000D01*
X17923000Y2796000D01*
X17923000Y3245736D01*
X17930255Y3249925D01*
X18000075Y3319745D01*
X18049444Y3405255D01*
X18075000Y3500630D01*
X18075000Y3599370D01*
X18049444Y3694745D01*
X18000075Y3780255D01*
X17930255Y3850075D01*
X17923000Y3854263D01*
X17923000Y4303999D01*
X17174986Y4303999D01*
X17174977Y4303998D01*
X17100894Y4289262D01*
X17100892Y4289262D01*
X17016875Y4233124D01*
X16960737Y4149106D01*
X16960736Y4149105D01*
X16946000Y4075022D01*
X1951247Y4075022D01*
X1952793Y4077117D01*
X1952793Y4077118D01*
X1997644Y4205295D01*
X1997645Y4205299D01*
X1997646Y4205301D01*
X2000500Y4235734D01*
X2000500Y4844266D01*
X1997646Y4874699D01*
X1952793Y5002882D01*
X1880984Y5100179D01*
X1856627Y5166866D01*
X1872189Y5236135D01*
X1880980Y5249814D01*
X1927690Y5313104D01*
X1952793Y5347117D01*
X1952793Y5347118D01*
X1997644Y5475295D01*
X1997645Y5475299D01*
X1997646Y5475301D01*
X2000500Y5505734D01*
X2000500Y5897982D01*
X2020502Y5966103D01*
X2037405Y5987077D01*
X2522427Y6472099D01*
X2522432Y6472105D01*
X2524090Y6474977D01*
X2565285Y6546329D01*
X2587467Y6629114D01*
X2587467Y7416980D01*
X2607469Y7485101D01*
X2618242Y7499492D01*
X2687343Y7579240D01*
X2687344Y7579241D01*
X2712822Y7635030D01*
X2759315Y7688686D01*
X2827436Y7708688D01*
X2895557Y7688686D01*
X2916531Y7671783D01*
X4155975Y6432340D01*
X4181288Y6388513D01*
X4183800Y6389554D01*
X4186959Y6381926D01*
X4229812Y6307703D01*
X4229820Y6307693D01*
X5675175Y4862338D01*
X5675185Y4862330D01*
X5749400Y4819482D01*
X5749403Y4819481D01*
X5749405Y4819480D01*
X5832191Y4797298D01*
X6387321Y4797298D01*
X6455442Y4777296D01*
X6476411Y4760397D01*
X6529854Y4706954D01*
X6583292Y4653516D01*
X6583297Y4653512D01*
X6657512Y4610664D01*
X6657515Y4610663D01*
X6657517Y4610662D01*
X6740303Y4588480D01*
X6740305Y4588480D01*
X7343361Y4588480D01*
X7343363Y4588480D01*
X7426149Y4610662D01*
X7426151Y4610663D01*
X7426153Y4610664D01*
X7500368Y4653512D01*
X7500378Y4653520D01*
X7903347Y5056489D01*
X7956944Y5088290D01*
X8087161Y5126525D01*
X8208234Y5204333D01*
X8235791Y5236135D01*
X8302485Y5313105D01*
X8362273Y5444021D01*
X8382755Y5586478D01*
X8362273Y5728935D01*
X8342624Y5771957D01*
X8332520Y5842230D01*
X8362013Y5906812D01*
X8421739Y5945196D01*
X8457238Y5950300D01*
X8462254Y5950300D01*
X8530375Y5930298D01*
X8551351Y5913394D01*
X8634103Y5830640D01*
X8659619Y5793891D01*
X8701996Y5701101D01*
X8796245Y5592332D01*
X8917318Y5514524D01*
X9055411Y5473977D01*
X9199333Y5473977D01*
X9346072Y5517063D01*
X9346532Y5515494D01*
X9385534Y5523977D01*
X10197726Y5523977D01*
X10265847Y5503975D01*
X10286822Y5487071D01*
X10329730Y5444162D01*
X10355247Y5407412D01*
X10397623Y5314623D01*
X10491873Y5205853D01*
X10612946Y5128045D01*
X10751039Y5087498D01*
X10894961Y5087498D01*
X11033053Y5128045D01*
X11154126Y5205853D01*
X11180366Y5236135D01*
X11248377Y5314625D01*
X11308165Y5445541D01*
X11328647Y5587998D01*
X11308165Y5730455D01*
X11248377Y5861371D01*
X11154128Y5970141D01*
X11033053Y6047951D01*
X11017332Y6052566D01*
X10963733Y6084366D01*
X10713135Y6334966D01*
X10610408Y6394276D01*
X10586194Y6400763D01*
X10495830Y6424977D01*
X9385533Y6424977D01*
X9346537Y6433461D01*
X9346076Y6431890D01*
X9337425Y6434429D01*
X9337425Y6434430D01*
X9321704Y6439045D01*
X9268105Y6470845D01*
X8977663Y6761289D01*
X8874936Y6820599D01*
X8850722Y6827086D01*
X8760358Y6851300D01*
X7198952Y6851300D01*
X7122582Y6830836D01*
X7094630Y6823347D01*
X7094631Y6823347D01*
X7094627Y6823346D01*
X7084375Y6820599D01*
X7084372Y6820597D01*
X7084371Y6820597D01*
X7011597Y6778581D01*
X6948597Y6761700D01*
X6525995Y6761700D01*
X6457874Y6781702D01*
X6436900Y6798604D01*
X5992857Y7242646D01*
X5958832Y7304959D01*
X5957450Y7317815D01*
X7373619Y7317815D01*
X7417481Y7289629D01*
X7556530Y7248801D01*
X7556539Y7248800D01*
X7701467Y7248800D01*
X7840524Y7289632D01*
X7884378Y7317815D01*
X8323619Y7317815D01*
X8367481Y7289629D01*
X8506530Y7248801D01*
X8506539Y7248800D01*
X8651467Y7248800D01*
X8790524Y7289632D01*
X8834378Y7317815D01*
X9273619Y7317815D01*
X9317481Y7289629D01*
X9456530Y7248801D01*
X9456539Y7248800D01*
X9601467Y7248800D01*
X9740524Y7289632D01*
X9784378Y7317815D01*
X9529000Y7573195D01*
X9528999Y7573195D01*
X9273619Y7317815D01*
X8834378Y7317815D01*
X8579000Y7573195D01*
X8578999Y7573195D01*
X8323619Y7317815D01*
X7884378Y7317815D01*
X7629000Y7573195D01*
X7628999Y7573195D01*
X7373619Y7317815D01*
X5957450Y7317815D01*
X5955952Y7331742D01*
X5955952Y7752800D01*
X7119817Y7752800D01*
X7140442Y7609346D01*
X7192328Y7495732D01*
X7449395Y7752799D01*
X7429503Y7772691D01*
X7529000Y7772691D01*
X7529000Y7732909D01*
X7544224Y7696155D01*
X7572355Y7668024D01*
X7609109Y7652800D01*
X7648891Y7652800D01*
X7685645Y7668024D01*
X7713776Y7696155D01*
X7729000Y7732909D01*
X7729000Y7752801D01*
X7808605Y7752801D01*
X7808605Y7752799D01*
X8065671Y7495732D01*
X8081629Y7498611D01*
X8126368Y7498611D01*
X8142327Y7495731D01*
X8399395Y7752799D01*
X8379503Y7772691D01*
X8479000Y7772691D01*
X8479000Y7732909D01*
X8494224Y7696155D01*
X8522355Y7668024D01*
X8559109Y7652800D01*
X8598891Y7652800D01*
X8635645Y7668024D01*
X8663776Y7696155D01*
X8679000Y7732909D01*
X8679000Y7752801D01*
X8758605Y7752801D01*
X8758605Y7752799D01*
X9015671Y7495732D01*
X9031629Y7498611D01*
X9076368Y7498611D01*
X9092327Y7495731D01*
X9349395Y7752799D01*
X9329503Y7772691D01*
X9429000Y7772691D01*
X9429000Y7732909D01*
X9444224Y7696155D01*
X9472355Y7668024D01*
X9509109Y7652800D01*
X9548891Y7652800D01*
X9585645Y7668024D01*
X9613776Y7696155D01*
X9629000Y7732909D01*
X9629000Y7752801D01*
X9708605Y7752801D01*
X9708605Y7752799D01*
X9965671Y7495733D01*
X10017557Y7609344D01*
X10038182Y7752800D01*
X10017557Y7896254D01*
X9965671Y8009865D01*
X9965670Y8009866D01*
X9708605Y7752801D01*
X9629000Y7752801D01*
X9629000Y7772691D01*
X9613776Y7809445D01*
X9585645Y7837576D01*
X9548891Y7852800D01*
X9509109Y7852800D01*
X9472355Y7837576D01*
X9444224Y7809445D01*
X9429000Y7772691D01*
X9329503Y7772691D01*
X9092327Y8009865D01*
X9076370Y8006987D01*
X9031628Y8006987D01*
X9015670Y8009866D01*
X8758605Y7752801D01*
X8679000Y7752801D01*
X8679000Y7772691D01*
X8663776Y7809445D01*
X8635645Y7837576D01*
X8598891Y7852800D01*
X8559109Y7852800D01*
X8522355Y7837576D01*
X8494224Y7809445D01*
X8479000Y7772691D01*
X8379503Y7772691D01*
X8142327Y8009865D01*
X8126370Y8006987D01*
X8081628Y8006987D01*
X8065670Y8009866D01*
X7808605Y7752801D01*
X7729000Y7752801D01*
X7729000Y7772691D01*
X7713776Y7809445D01*
X7685645Y7837576D01*
X7648891Y7852800D01*
X7609109Y7852800D01*
X7572355Y7837576D01*
X7544224Y7809445D01*
X7529000Y7772691D01*
X7429503Y7772691D01*
X7192327Y8009865D01*
X7140443Y7896255D01*
X7140442Y7896252D01*
X7119817Y7752800D01*
X5955952Y7752800D01*
X5955952Y8005857D01*
X5960245Y8038467D01*
X5962192Y8045734D01*
X5964782Y8055400D01*
X5964782Y8085615D01*
X5976168Y8137956D01*
X5990616Y8169593D01*
X5990616Y8169594D01*
X5990617Y8169596D01*
X6004739Y8267815D01*
X7373619Y8267815D01*
X7376474Y8241272D01*
X7376474Y8214333D01*
X7373619Y8187784D01*
X7629000Y7932405D01*
X7629001Y7932405D01*
X7884378Y8187782D01*
X7881524Y8214331D01*
X7881524Y8241273D01*
X7884378Y8267815D01*
X8323619Y8267815D01*
X8326474Y8241272D01*
X8326474Y8214333D01*
X8323619Y8187784D01*
X8579000Y7932405D01*
X8579001Y7932405D01*
X8834378Y8187782D01*
X8831524Y8214331D01*
X8831524Y8241273D01*
X8834378Y8267815D01*
X9273619Y8267815D01*
X9276474Y8241272D01*
X9276474Y8214333D01*
X9273619Y8187784D01*
X9529000Y7932405D01*
X9529001Y7932405D01*
X9784378Y8187782D01*
X9781524Y8214331D01*
X9781524Y8241273D01*
X9784378Y8267815D01*
X9529000Y8523195D01*
X9528999Y8523195D01*
X9273619Y8267815D01*
X8834378Y8267815D01*
X8579000Y8523195D01*
X8578999Y8523195D01*
X8323619Y8267815D01*
X7884378Y8267815D01*
X7629000Y8523195D01*
X7628999Y8523195D01*
X7373619Y8267815D01*
X6004739Y8267815D01*
X6011099Y8312053D01*
X5990617Y8454510D01*
X5976168Y8486146D01*
X5964782Y8538489D01*
X5964782Y8702800D01*
X7119817Y8702800D01*
X7140442Y8559346D01*
X7192328Y8445732D01*
X7449395Y8702799D01*
X7429503Y8722691D01*
X7529000Y8722691D01*
X7529000Y8682909D01*
X7544224Y8646155D01*
X7572355Y8618024D01*
X7609109Y8602800D01*
X7648891Y8602800D01*
X7685645Y8618024D01*
X7713776Y8646155D01*
X7729000Y8682909D01*
X7729000Y8702801D01*
X7808605Y8702801D01*
X7808605Y8702799D01*
X8065671Y8445732D01*
X8081629Y8448611D01*
X8126368Y8448611D01*
X8142327Y8445731D01*
X8399395Y8702799D01*
X8379503Y8722691D01*
X8479000Y8722691D01*
X8479000Y8682909D01*
X8494224Y8646155D01*
X8522355Y8618024D01*
X8559109Y8602800D01*
X8598891Y8602800D01*
X8635645Y8618024D01*
X8663776Y8646155D01*
X8679000Y8682909D01*
X8679000Y8702801D01*
X8758605Y8702801D01*
X8758605Y8702799D01*
X9015671Y8445732D01*
X9031629Y8448611D01*
X9076368Y8448611D01*
X9092327Y8445731D01*
X9349395Y8702799D01*
X9329503Y8722691D01*
X9429000Y8722691D01*
X9429000Y8682909D01*
X9444224Y8646155D01*
X9472355Y8618024D01*
X9509109Y8602800D01*
X9548891Y8602800D01*
X9585645Y8618024D01*
X9613776Y8646155D01*
X9629000Y8682909D01*
X9629000Y8702801D01*
X9708605Y8702801D01*
X9708605Y8702799D01*
X9965671Y8445733D01*
X10017557Y8559344D01*
X10038182Y8702800D01*
X10017557Y8846254D01*
X9965671Y8959865D01*
X9965670Y8959866D01*
X9708605Y8702801D01*
X9629000Y8702801D01*
X9629000Y8722691D01*
X9613776Y8759445D01*
X9585645Y8787576D01*
X9548891Y8802800D01*
X9509109Y8802800D01*
X9472355Y8787576D01*
X9444224Y8759445D01*
X9429000Y8722691D01*
X9329503Y8722691D01*
X9092327Y8959865D01*
X9076370Y8956987D01*
X9031628Y8956987D01*
X9015670Y8959866D01*
X8758605Y8702801D01*
X8679000Y8702801D01*
X8679000Y8722691D01*
X8663776Y8759445D01*
X8635645Y8787576D01*
X8598891Y8802800D01*
X8559109Y8802800D01*
X8522355Y8787576D01*
X8494224Y8759445D01*
X8479000Y8722691D01*
X8379503Y8722691D01*
X8142327Y8959865D01*
X8126370Y8956987D01*
X8081628Y8956987D01*
X8065670Y8959866D01*
X7808605Y8702801D01*
X7729000Y8702801D01*
X7729000Y8722691D01*
X7713776Y8759445D01*
X7685645Y8787576D01*
X7648891Y8802800D01*
X7609109Y8802800D01*
X7572355Y8787576D01*
X7544224Y8759445D01*
X7529000Y8722691D01*
X7429503Y8722691D01*
X7192327Y8959865D01*
X7140443Y8846255D01*
X7140442Y8846252D01*
X7119817Y8702800D01*
X5964782Y8702800D01*
X5964782Y9217815D01*
X7373619Y9217815D01*
X7376474Y9191272D01*
X7376474Y9164333D01*
X7373619Y9137784D01*
X7629000Y8882405D01*
X7629001Y8882405D01*
X7884378Y9137782D01*
X7881524Y9164331D01*
X7881524Y9191273D01*
X7884378Y9217815D01*
X8323619Y9217815D01*
X8326474Y9191272D01*
X8326474Y9164333D01*
X8323619Y9137784D01*
X8579000Y8882405D01*
X8579001Y8882405D01*
X8834378Y9137782D01*
X8831524Y9164331D01*
X8831524Y9191273D01*
X8834378Y9217815D01*
X9273619Y9217815D01*
X9276474Y9191272D01*
X9276474Y9164333D01*
X9273619Y9137784D01*
X9529000Y8882405D01*
X9529001Y8882405D01*
X9784378Y9137782D01*
X9781524Y9164331D01*
X9781524Y9191273D01*
X9784378Y9217815D01*
X9529000Y9473195D01*
X9528999Y9473195D01*
X9273619Y9217815D01*
X8834378Y9217815D01*
X8579000Y9473195D01*
X8578999Y9473195D01*
X8323619Y9217815D01*
X7884378Y9217815D01*
X7629000Y9473195D01*
X7628999Y9473195D01*
X7373619Y9217815D01*
X5964782Y9217815D01*
X5964782Y9277025D01*
X5964782Y9277027D01*
X5934081Y9391604D01*
X5934081Y9391605D01*
X5874771Y9494332D01*
X5716303Y9652800D01*
X7119817Y9652800D01*
X7140442Y9509346D01*
X7192328Y9395732D01*
X7449395Y9652799D01*
X7429503Y9672691D01*
X7529000Y9672691D01*
X7529000Y9632909D01*
X7544224Y9596155D01*
X7572355Y9568024D01*
X7609109Y9552800D01*
X7648891Y9552800D01*
X7685645Y9568024D01*
X7713776Y9596155D01*
X7729000Y9632909D01*
X7729000Y9652801D01*
X7808605Y9652801D01*
X7808605Y9652799D01*
X8065671Y9395732D01*
X8081629Y9398611D01*
X8126368Y9398611D01*
X8142327Y9395731D01*
X8399395Y9652799D01*
X8379503Y9672691D01*
X8479000Y9672691D01*
X8479000Y9632909D01*
X8494224Y9596155D01*
X8522355Y9568024D01*
X8559109Y9552800D01*
X8598891Y9552800D01*
X8635645Y9568024D01*
X8663776Y9596155D01*
X8679000Y9632909D01*
X8679000Y9652801D01*
X8758605Y9652801D01*
X8758605Y9652799D01*
X9015671Y9395732D01*
X9031629Y9398611D01*
X9076368Y9398611D01*
X9092327Y9395731D01*
X9349395Y9652799D01*
X9329503Y9672691D01*
X9429000Y9672691D01*
X9429000Y9632909D01*
X9444224Y9596155D01*
X9472355Y9568024D01*
X9509109Y9552800D01*
X9548891Y9552800D01*
X9585645Y9568024D01*
X9613776Y9596155D01*
X9629000Y9632909D01*
X9629000Y9652801D01*
X9708605Y9652801D01*
X9708605Y9652799D01*
X9965671Y9395733D01*
X10017557Y9509344D01*
X10038182Y9652800D01*
X10017557Y9796254D01*
X9965671Y9909865D01*
X9965670Y9909866D01*
X9708605Y9652801D01*
X9629000Y9652801D01*
X9629000Y9672691D01*
X9613776Y9709445D01*
X9585645Y9737576D01*
X9548891Y9752800D01*
X9509109Y9752800D01*
X9472355Y9737576D01*
X9444224Y9709445D01*
X9429000Y9672691D01*
X9329503Y9672691D01*
X9092327Y9909865D01*
X9076370Y9906987D01*
X9031628Y9906987D01*
X9015670Y9909866D01*
X8758605Y9652801D01*
X8679000Y9652801D01*
X8679000Y9672691D01*
X8663776Y9709445D01*
X8635645Y9737576D01*
X8598891Y9752800D01*
X8559109Y9752800D01*
X8522355Y9737576D01*
X8494224Y9709445D01*
X8479000Y9672691D01*
X8379503Y9672691D01*
X8142327Y9909865D01*
X8126370Y9906987D01*
X8081628Y9906987D01*
X8065670Y9909866D01*
X7808605Y9652801D01*
X7729000Y9652801D01*
X7729000Y9672691D01*
X7713776Y9709445D01*
X7685645Y9737576D01*
X7648891Y9752800D01*
X7609109Y9752800D01*
X7572355Y9737576D01*
X7544224Y9709445D01*
X7529000Y9672691D01*
X7429503Y9672691D01*
X7192327Y9909865D01*
X7140443Y9796255D01*
X7140442Y9796252D01*
X7119817Y9652800D01*
X5716303Y9652800D01*
X5281319Y10087784D01*
X7373619Y10087784D01*
X7629000Y9832405D01*
X7629001Y9832405D01*
X7884379Y10087783D01*
X7884378Y10087784D01*
X8323619Y10087784D01*
X8579000Y9832405D01*
X8579001Y9832405D01*
X8834379Y10087783D01*
X8834378Y10087784D01*
X9273619Y10087784D01*
X9529000Y9832405D01*
X9529001Y9832405D01*
X9784379Y10087783D01*
X9784378Y10087784D01*
X9740522Y10115968D01*
X9601469Y10156798D01*
X9601461Y10156800D01*
X9456539Y10156800D01*
X9456532Y10156799D01*
X9317475Y10115967D01*
X9273619Y10087784D01*
X8834378Y10087784D01*
X8790522Y10115968D01*
X8651469Y10156798D01*
X8651461Y10156800D01*
X8506539Y10156800D01*
X8506532Y10156799D01*
X8367475Y10115967D01*
X8323619Y10087784D01*
X7884378Y10087784D01*
X7840522Y10115968D01*
X7701469Y10156798D01*
X7701461Y10156800D01*
X7556539Y10156800D01*
X7556532Y10156799D01*
X7417475Y10115967D01*
X7373619Y10087784D01*
X5281319Y10087784D01*
X3896866Y11472235D01*
X3871353Y11508980D01*
X3828977Y11601773D01*
X3734728Y11710543D01*
X3613653Y11788353D01*
X3475561Y11828900D01*
X3331639Y11828900D01*
X3193547Y11788353D01*
X3133009Y11749448D01*
X3072473Y11710544D01*
X3072472Y11710543D01*
X2978223Y11601773D01*
X2918435Y11470857D01*
X2918057Y11468228D01*
X2897953Y11328400D01*
X2918435Y11185943D01*
X2978223Y11055026D01*
X3072472Y10946256D01*
X3193545Y10868448D01*
X3193551Y10868445D01*
X3209272Y10863829D01*
X3262866Y10832029D01*
X5026877Y9068019D01*
X5060902Y9005707D01*
X5063782Y8978924D01*
X5063782Y8577158D01*
X5052395Y8524816D01*
X5034735Y8486146D01*
X5020287Y8454511D01*
X4999805Y8312053D01*
X5020287Y8169596D01*
X5020287Y8169595D01*
X5043566Y8118623D01*
X5054952Y8066281D01*
X5054952Y7495497D01*
X5034950Y7427376D01*
X4981294Y7380883D01*
X4911020Y7370779D01*
X4846440Y7400273D01*
X4839857Y7406402D01*
X2365800Y9880459D01*
X2365794Y9880465D01*
X2291571Y9923318D01*
X2208785Y9945500D01*
X2208783Y9945500D01*
X2090267Y9945500D01*
X2022146Y9965502D01*
X1975653Y10019158D01*
X1971338Y10029885D01*
X1952793Y10082881D01*
X1952792Y10082883D01*
X1944024Y10094764D01*
X1919665Y10161452D01*
X1935227Y10230722D01*
X1940637Y10239589D01*
X1988866Y10311768D01*
X1988867Y10311769D01*
X2000500Y10370252D01*
X2000500Y11409748D01*
X1988867Y11468231D01*
X1944552Y11534552D01*
X1878231Y11578867D01*
X1819748Y11590500D01*
X278400Y11590500D01*
X210279Y11610502D01*
X163786Y11664158D01*
X152400Y11716500D01*
X152400Y12726400D01*
X172402Y12794521D01*
X226058Y12841014D01*
X278400Y12852400D01*
X18720800Y12852400D01*
X18788921Y12832398D01*
G37*
%TD.AperFunction*%
%TD*%
M02*
