%TF.GenerationSoftware,KiCad,Pcbnew,6.0.11-2627ca5db0~126~ubuntu22.04.1*%
%TF.CreationDate,2023-09-12T08:48:11+02:00*%
%TF.ProjectId,CC1101_868MHz_RF_Modul_FUEL4EP,43433131-3031-45f3-9836-384d487a5f52,1.4*%
%TF.SameCoordinates,Original*%
%TF.FileFunction,Copper,L1,Top*%
%TF.FilePolarity,Positive*%
%FSLAX46Y46*%
G04 Gerber Fmt 4.6, Leading zero omitted, Abs format (unit mm)*
G04 Created by KiCad (PCBNEW 6.0.11-2627ca5db0~126~ubuntu22.04.1) date 2023-09-12 08:48:11*
%MOMM*%
%LPD*%
G01*
G04 APERTURE LIST*
G04 Aperture macros list*
%AMRoundRect*
0 Rectangle with rounded corners*
0 $1 Rounding radius*
0 $2 $3 $4 $5 $6 $7 $8 $9 X,Y pos of 4 corners*
0 Add a 4 corners polygon primitive as box body*
4,1,4,$2,$3,$4,$5,$6,$7,$8,$9,$2,$3,0*
0 Add four circle primitives for the rounded corners*
1,1,$1+$1,$2,$3*
1,1,$1+$1,$4,$5*
1,1,$1+$1,$6,$7*
1,1,$1+$1,$8,$9*
0 Add four rect primitives between the rounded corners*
20,1,$1+$1,$2,$3,$4,$5,0*
20,1,$1+$1,$4,$5,$6,$7,0*
20,1,$1+$1,$6,$7,$8,$9,0*
20,1,$1+$1,$8,$9,$2,$3,0*%
G04 Aperture macros list end*
%TA.AperFunction,SMDPad,CuDef*%
%ADD10RoundRect,0.147500X-0.147500X-0.172500X0.147500X-0.172500X0.147500X0.172500X-0.147500X0.172500X0*%
%TD*%
%TA.AperFunction,SMDPad,CuDef*%
%ADD11RoundRect,0.140000X0.140000X0.170000X-0.140000X0.170000X-0.140000X-0.170000X0.140000X-0.170000X0*%
%TD*%
%TA.AperFunction,SMDPad,CuDef*%
%ADD12RoundRect,0.140000X-0.140000X-0.170000X0.140000X-0.170000X0.140000X0.170000X-0.140000X0.170000X0*%
%TD*%
%TA.AperFunction,CastellatedPad*%
%ADD13RoundRect,0.250000X-0.600000X-0.250000X0.600000X-0.250000X0.600000X0.250000X-0.600000X0.250000X0*%
%TD*%
%TA.AperFunction,SMDPad,CuDef*%
%ADD14RoundRect,0.147500X-0.172500X0.147500X-0.172500X-0.147500X0.172500X-0.147500X0.172500X0.147500X0*%
%TD*%
%TA.AperFunction,SMDPad,CuDef*%
%ADD15RoundRect,0.140000X0.170000X-0.140000X0.170000X0.140000X-0.170000X0.140000X-0.170000X-0.140000X0*%
%TD*%
%TA.AperFunction,CastellatedPad*%
%ADD16R,1.800000X1.500000*%
%TD*%
%TA.AperFunction,SMDPad,CuDef*%
%ADD17RoundRect,0.140000X-0.170000X0.140000X-0.170000X-0.140000X0.170000X-0.140000X0.170000X0.140000X0*%
%TD*%
%TA.AperFunction,SMDPad,CuDef*%
%ADD18RoundRect,0.135000X0.135000X0.185000X-0.135000X0.185000X-0.135000X-0.185000X0.135000X-0.185000X0*%
%TD*%
%TA.AperFunction,SMDPad,CuDef*%
%ADD19R,1.400000X1.200000*%
%TD*%
%TA.AperFunction,CastellatedPad*%
%ADD20R,1.700000X1.000000*%
%TD*%
%TA.AperFunction,SMDPad,CuDef*%
%ADD21RoundRect,0.062500X-0.425000X-0.062500X0.425000X-0.062500X0.425000X0.062500X-0.425000X0.062500X0*%
%TD*%
%TA.AperFunction,SMDPad,CuDef*%
%ADD22RoundRect,0.062500X-0.062500X-0.425000X0.062500X-0.425000X0.062500X0.425000X-0.062500X0.425000X0*%
%TD*%
%TA.AperFunction,ComponentPad*%
%ADD23C,0.500000*%
%TD*%
%TA.AperFunction,SMDPad,CuDef*%
%ADD24R,2.400000X2.400000*%
%TD*%
%TA.AperFunction,ViaPad*%
%ADD25C,0.600000*%
%TD*%
%TA.AperFunction,Conductor*%
%ADD26C,0.250000*%
%TD*%
%TA.AperFunction,Conductor*%
%ADD27C,0.200000*%
%TD*%
%TA.AperFunction,Conductor*%
%ADD28C,0.500000*%
%TD*%
%TA.AperFunction,Conductor*%
%ADD29C,0.600000*%
%TD*%
G04 APERTURE END LIST*
D10*
%TO.P,L1,1,1*%
%TO.N,Net-(L1-Pad1)*%
X11794000Y8892800D03*
%TO.P,L1,2,2*%
%TO.N,Net-(C1-Pad1)*%
X12764000Y8892800D03*
%TD*%
D11*
%TO.P,C14,1*%
%TO.N,VDDA*%
X8608000Y11811000D03*
%TO.P,C14,2*%
%TO.N,GND*%
X7648000Y11811000D03*
%TD*%
D10*
%TO.P,L7,1,1*%
%TO.N,Net-(C6-Pad1)*%
X15263000Y2413000D03*
%TO.P,L7,2,2*%
%TO.N,Net-(C7-Pad1)*%
X16233000Y2413000D03*
%TD*%
%TO.P,L3,1,1*%
%TO.N,Net-(C2-Pad1)*%
X14695600Y6731400D03*
%TO.P,L3,2,2*%
%TO.N,Net-(C3-Pad2)*%
X15665600Y6731400D03*
%TD*%
%TO.P,L2,1,1*%
%TO.N,Net-(L2-Pad1)*%
X11794000Y7902800D03*
%TO.P,L2,2,2*%
%TO.N,Net-(C2-Pad1)*%
X12764000Y7902800D03*
%TD*%
D11*
%TO.P,C5,1*%
%TO.N,GND*%
X17704200Y7925200D03*
%TO.P,C5,2*%
%TO.N,Net-(C5-Pad2)*%
X16744200Y7925200D03*
%TD*%
D12*
%TO.P,C3,1*%
%TO.N,GND*%
X14680600Y5613800D03*
%TO.P,C3,2*%
%TO.N,Net-(C3-Pad2)*%
X15640600Y5613800D03*
%TD*%
D13*
%TO.P,JC5,1,Pin_1*%
%TO.N,/MOSI*%
X950000Y5810000D03*
%TD*%
D14*
%TO.P,L6,1,1*%
%TO.N,Net-(C5-Pad2)*%
X16750000Y6735000D03*
%TO.P,L6,2,2*%
%TO.N,Net-(C6-Pad2)*%
X16750000Y5765000D03*
%TD*%
D15*
%TO.P,C2,1*%
%TO.N,Net-(C2-Pad1)*%
X13729000Y7904800D03*
%TO.P,C2,2*%
%TO.N,Net-(C1-Pad1)*%
X13729000Y8864800D03*
%TD*%
D16*
%TO.P,JA1,1,Pin_1*%
%TO.N,GND*%
X18000000Y3550000D03*
%TD*%
D13*
%TO.P,JC8,1,Pin_1*%
%TO.N,GND*%
X950000Y2000000D03*
%TD*%
D15*
%TO.P,C7,1*%
%TO.N,Net-(C7-Pad1)*%
X16200000Y3330000D03*
%TO.P,C7,2*%
%TO.N,Net-(C6-Pad2)*%
X16200000Y4290000D03*
%TD*%
D17*
%TO.P,C16,1*%
%TO.N,Net-(C16-Pad1)*%
X5435600Y6728400D03*
%TO.P,C16,2*%
%TO.N,GND*%
X5435600Y5768400D03*
%TD*%
D18*
%TO.P,R1,1*%
%TO.N,GND*%
X10797000Y11811000D03*
%TO.P,R1,2*%
%TO.N,Net-(R1-Pad2)*%
X9777000Y11811000D03*
%TD*%
D17*
%TO.P,C15,1*%
%TO.N,VDDA*%
X11725000Y6230000D03*
%TO.P,C15,2*%
%TO.N,GND*%
X11725000Y5270000D03*
%TD*%
%TO.P,C17,1*%
%TO.N,VDDA*%
X12725000Y6230000D03*
%TO.P,C17,2*%
%TO.N,GND*%
X12725000Y5270000D03*
%TD*%
D16*
%TO.P,JA2,1,Pin_1*%
%TO.N,Net-(C7-Pad1)*%
X18000000Y1270000D03*
%TD*%
D10*
%TO.P,L4,1,1*%
%TO.N,Net-(C1-Pad1)*%
X14695600Y8966600D03*
%TO.P,L4,2,2*%
%TO.N,Net-(C4-Pad2)*%
X15665600Y8966600D03*
%TD*%
D19*
%TO.P,Y1,1,1*%
%TO.N,Net-(C8-Pad2)*%
X6723200Y1690000D03*
%TO.P,Y1,2,2*%
%TO.N,GND*%
X8923200Y1690000D03*
%TO.P,Y1,3,3*%
%TO.N,Net-(C9-Pad2)*%
X8923200Y3390000D03*
%TO.P,Y1,4,4*%
%TO.N,GND*%
X6723200Y3390000D03*
%TD*%
D17*
%TO.P,C13,1*%
%TO.N,VDDA*%
X4470400Y8113600D03*
%TO.P,C13,2*%
%TO.N,GND*%
X4470400Y7153600D03*
%TD*%
D12*
%TO.P,C10,1*%
%TO.N,VDDA*%
X5393000Y11811000D03*
%TO.P,C10,2*%
%TO.N,GND*%
X6353000Y11811000D03*
%TD*%
%TO.P,C4,1*%
%TO.N,Net-(C2-Pad1)*%
X14680600Y7899800D03*
%TO.P,C4,2*%
%TO.N,Net-(C4-Pad2)*%
X15640600Y7899800D03*
%TD*%
D13*
%TO.P,JC6,1,Pin_1*%
%TO.N,/MISO{slash}GDO1*%
X950000Y4540000D03*
%TD*%
D10*
%TO.P,FB1,1*%
%TO.N,/VDD*%
X1340000Y12275000D03*
%TO.P,FB1,2*%
%TO.N,VDDA*%
X2310000Y12275000D03*
%TD*%
D12*
%TO.P,C12,1*%
%TO.N,VDDA*%
X11670000Y11150000D03*
%TO.P,C12,2*%
%TO.N,GND*%
X12630000Y11150000D03*
%TD*%
D13*
%TO.P,JC3,1,Pin_1*%
%TO.N,/~{CS}*%
X950000Y8350000D03*
%TD*%
%TO.P,JC2,1,Pin_1*%
%TO.N,/GDO0*%
X950000Y9620000D03*
%TD*%
D20*
%TO.P,JC1,1,Pin_1*%
%TO.N,/VDD*%
X950000Y10890000D03*
%TD*%
D10*
%TO.P,L5,1,1*%
%TO.N,Net-(C4-Pad2)*%
X16759200Y8941200D03*
%TO.P,L5,2,2*%
%TO.N,Net-(C5-Pad2)*%
X17729200Y8941200D03*
%TD*%
D12*
%TO.P,C11,1*%
%TO.N,VDDA*%
X11645000Y10125000D03*
%TO.P,C11,2*%
%TO.N,GND*%
X12605000Y10125000D03*
%TD*%
%TO.P,C8,1*%
%TO.N,GND*%
X6936800Y4826000D03*
%TO.P,C8,2*%
%TO.N,Net-(C8-Pad2)*%
X7896800Y4826000D03*
%TD*%
%TO.P,C1,1*%
%TO.N,Net-(C1-Pad1)*%
X14680600Y9982600D03*
%TO.P,C1,2*%
%TO.N,GND*%
X15640600Y9982600D03*
%TD*%
D15*
%TO.P,C6,1*%
%TO.N,Net-(C6-Pad1)*%
X15240000Y3330000D03*
%TO.P,C6,2*%
%TO.N,Net-(C6-Pad2)*%
X15240000Y4290000D03*
%TD*%
D11*
%TO.P,C9,1*%
%TO.N,GND*%
X10205000Y4801000D03*
%TO.P,C9,2*%
%TO.N,Net-(C9-Pad2)*%
X9245000Y4801000D03*
%TD*%
D13*
%TO.P,JC4,1,Pin_1*%
%TO.N,/SCK*%
X950000Y7080000D03*
%TD*%
D21*
%TO.P,U1,1,SCLK*%
%TO.N,/SCK*%
X6691500Y9702800D03*
%TO.P,U1,2,SO/GDO1*%
%TO.N,/MISO{slash}GDO1*%
X6691500Y9202800D03*
%TO.P,U1,3,GDO2*%
%TO.N,/GDO2*%
X6691500Y8702800D03*
%TO.P,U1,4,DVDD*%
%TO.N,VDDA*%
X6691500Y8202800D03*
%TO.P,U1,5,DCOUPL*%
%TO.N,Net-(C16-Pad1)*%
X6691500Y7702800D03*
D22*
%TO.P,U1,6,GDO0*%
%TO.N,/GDO0*%
X7579000Y6815300D03*
%TO.P,U1,7,~{CS}*%
%TO.N,/~{CS}*%
X8079000Y6815300D03*
%TO.P,U1,8,XOSC_Q1*%
%TO.N,Net-(C8-Pad2)*%
X8579000Y6815300D03*
%TO.P,U1,9,AVDD1*%
%TO.N,VDDA*%
X9079000Y6815300D03*
%TO.P,U1,10,XOSC_Q2*%
%TO.N,Net-(C9-Pad2)*%
X9579000Y6815300D03*
D21*
%TO.P,U1,11,AVDD2*%
%TO.N,VDDA*%
X10466500Y7702800D03*
%TO.P,U1,12,RF_P*%
%TO.N,Net-(L2-Pad1)*%
X10466500Y8202800D03*
%TO.P,U1,13,RF_N*%
%TO.N,Net-(L1-Pad1)*%
X10466500Y8702800D03*
%TO.P,U1,14,AVDD3*%
%TO.N,VDDA*%
X10466500Y9202800D03*
%TO.P,U1,15,AVDD4*%
X10466500Y9702800D03*
D22*
%TO.P,U1,16,GND1*%
%TO.N,GND*%
X9579000Y10590300D03*
%TO.P,U1,17,RBIAS*%
%TO.N,Net-(R1-Pad2)*%
X9079000Y10590300D03*
%TO.P,U1,18,DGUARD*%
%TO.N,VDDA*%
X8579000Y10590300D03*
%TO.P,U1,19,GND2*%
%TO.N,GND*%
X8079000Y10590300D03*
%TO.P,U1,20,SI*%
%TO.N,/MOSI*%
X7579000Y10590300D03*
D23*
%TO.P,U1,21,GND3*%
%TO.N,GND*%
X7629000Y7752800D03*
X9529000Y9652800D03*
X7629000Y9652800D03*
X8579000Y7752800D03*
X8579000Y8702800D03*
X8579000Y9652800D03*
X9529000Y8702800D03*
D24*
X8579000Y8702800D03*
D23*
X7629000Y8702800D03*
X9529000Y7752800D03*
%TD*%
D13*
%TO.P,JC7,1,Pin_1*%
%TO.N,/GDO2*%
X950000Y3270000D03*
%TD*%
D25*
%TO.N,GND*%
X2286000Y2540000D03*
X2286000Y1524000D03*
X2286000Y508000D03*
X3302000Y508000D03*
X5334000Y508000D03*
X4318000Y508000D03*
X3556000Y3302000D03*
X3302000Y1524000D03*
X4318000Y1524000D03*
X3302000Y2540000D03*
X4318000Y2540000D03*
X4318000Y3556000D03*
X5334000Y1524000D03*
X5334000Y2540000D03*
X5334000Y3556000D03*
X17780000Y7112000D03*
X17780000Y5588000D03*
X17780000Y6350000D03*
X13970000Y1016000D03*
X13208000Y508000D03*
X12192000Y508000D03*
X11176000Y508000D03*
X10414000Y1270000D03*
X11176000Y1524000D03*
X12192000Y1524000D03*
X13208000Y1524000D03*
X13208000Y2540000D03*
X12192000Y2540000D03*
X11176000Y2540000D03*
X11176000Y3556000D03*
X12192000Y3556000D03*
X13208000Y3556000D03*
X13716000Y6350000D03*
X18288000Y10160000D03*
X18288000Y11176000D03*
X18288000Y12192000D03*
X13716000Y11176000D03*
X13716000Y12192000D03*
X17780000Y4826000D03*
X18542000Y5334000D03*
X18542000Y6096000D03*
X18542000Y6858000D03*
X4318000Y5588000D03*
X7874000Y508000D03*
X762000Y508000D03*
X10160000Y508000D03*
X15494000Y508000D03*
X14732000Y508000D03*
X14224000Y4318000D03*
X14224000Y3556000D03*
X14224000Y2794000D03*
X14224000Y2032000D03*
X14732000Y1524000D03*
X15494000Y1524000D03*
X16002000Y1016000D03*
X16510000Y508000D03*
X500000Y12050000D03*
X15240000Y12192000D03*
X6604000Y508000D03*
X8890000Y508000D03*
X6985000Y11303000D03*
X10414000Y3048000D03*
X18542000Y8890000D03*
X5334000Y4572000D03*
X17526000Y11176000D03*
X13475000Y7050000D03*
X16764000Y10160000D03*
X12500000Y7025000D03*
X16002000Y12192000D03*
X9780000Y10794000D03*
X11200000Y4475000D03*
X16764000Y11176000D03*
X18542000Y7874000D03*
X13550000Y10175000D03*
X15240000Y11176000D03*
X16002000Y11176000D03*
X17526000Y10160000D03*
X16764000Y12192000D03*
X2423500Y5700000D03*
X14478000Y11176000D03*
X5334000Y10922000D03*
X13175000Y4450000D03*
X4346102Y4561781D03*
X14478000Y12192000D03*
X11550000Y7050000D03*
X12700000Y12200000D03*
X10414000Y2032000D03*
X13716000Y5588000D03*
X17526000Y12192000D03*
X1524000Y762000D03*
X2375000Y10775000D03*
X4592391Y11199563D03*
X10375000Y3875000D03*
X12225000Y4425000D03*
%TO.N,/GDO0*%
X6829400Y6121800D03*
%TO.N,/MOSI*%
X2300000Y7850000D03*
%TO.N,/~{CS}*%
X7880500Y5881339D03*
%TO.N,VDDA*%
X5514282Y8114709D03*
X9129500Y5929100D03*
X3403600Y11328400D03*
X10769600Y5943600D03*
%TD*%
D26*
%TO.N,/GDO2*%
X3823502Y8434311D02*
X3823502Y7125502D01*
X3823502Y7125502D02*
X3556000Y6858000D01*
X3556000Y4572000D02*
X2254000Y3270000D01*
X3556000Y6858000D02*
X3556000Y4572000D01*
%TO.N,/MISO{slash}GDO1*%
X3374001Y7405134D02*
X3048000Y7079133D01*
%TO.N,/GDO2*%
X6691500Y8702800D02*
X6641001Y8753299D01*
%TO.N,/MISO{slash}GDO1*%
X3374001Y8988091D02*
X3374001Y7405134D01*
%TO.N,/GDO2*%
X2254000Y3270000D02*
X1400000Y3270000D01*
X6641001Y8753299D02*
X4142490Y8753299D01*
X4142490Y8753299D02*
X3823502Y8434311D01*
%TO.N,/MISO{slash}GDO1*%
X6691500Y9202800D02*
X3588710Y9202800D01*
X3588710Y9202800D02*
X3374001Y8988091D01*
X3048000Y4826000D02*
X2762000Y4540000D01*
X3048000Y7079133D02*
X3048000Y4826000D01*
X2762000Y4540000D02*
X1400000Y4540000D01*
%TO.N,GND*%
X8079000Y9799247D02*
X8225447Y9652800D01*
X8079000Y10590300D02*
X8079000Y9799247D01*
X9780000Y10794000D02*
X10797000Y11811000D01*
X9579000Y10590300D02*
X9579000Y9702800D01*
X9579000Y10593000D02*
X9780000Y10794000D01*
X8079000Y10590300D02*
X8079000Y11380000D01*
X8079000Y11380000D02*
X7648000Y11811000D01*
%TO.N,Net-(C1-Pad1)*%
X13729000Y8864800D02*
X14593800Y8864800D01*
X12764000Y8892800D02*
X13701000Y8892800D01*
X14695600Y8966600D02*
X14695600Y9967600D01*
%TO.N,Net-(C2-Pad1)*%
X14680600Y7899800D02*
X14680600Y6746400D01*
X13729000Y7904800D02*
X14675600Y7904800D01*
X12764000Y7902800D02*
X13727000Y7902800D01*
%TO.N,Net-(C3-Pad2)*%
X15665600Y6731400D02*
X15665600Y5638800D01*
%TO.N,Net-(C4-Pad2)*%
X15773800Y8950400D02*
X16750000Y8950400D01*
X15640600Y7899800D02*
X15640600Y8941600D01*
%TO.N,Net-(C5-Pad2)*%
X16750000Y6735000D02*
X16750000Y7919400D01*
X17729200Y8922984D02*
X16744200Y7937984D01*
%TO.N,Net-(C6-Pad1)*%
X15240000Y3330000D02*
X15240000Y2436000D01*
%TO.N,Net-(C6-Pad2)*%
X16200000Y4605000D02*
X16750000Y5155000D01*
X15240000Y4290000D02*
X16200000Y4290000D01*
X16200000Y4290000D02*
X16200000Y4605000D01*
X16750000Y5765000D02*
X16750000Y5155000D01*
%TO.N,Net-(C7-Pad1)*%
X16233000Y1817000D02*
X16780000Y1270000D01*
X16200000Y3330000D02*
X16200000Y2446000D01*
X16233000Y2413000D02*
X16233000Y1817000D01*
X16780000Y1270000D02*
X17900000Y1270000D01*
%TO.N,Net-(C8-Pad2)*%
X8559111Y5616311D02*
X7743800Y4801000D01*
X8505000Y6187777D02*
X8505000Y5670423D01*
X8505000Y5670423D02*
X8559111Y5616311D01*
X8579000Y6815300D02*
X8579000Y6261777D01*
D27*
X7896800Y4826000D02*
X7896800Y2663600D01*
D26*
X8579000Y6261777D02*
X8505000Y6187777D01*
D27*
X7896800Y2663600D02*
X6923200Y1690000D01*
D26*
%TO.N,/SCK*%
X2413177Y7080000D02*
X1400000Y7080000D01*
X6691500Y9702800D02*
X3453020Y9702800D01*
X2924500Y9174280D02*
X2924500Y7591323D01*
X2924500Y7591323D02*
X2413177Y7080000D01*
X3453020Y9702800D02*
X2924500Y9174280D01*
%TO.N,/GDO0*%
X6885500Y6121800D02*
X6829400Y6121800D01*
X7579000Y6815300D02*
X6885500Y6121800D01*
%TO.N,/MOSI*%
X5947170Y10590300D02*
X5516870Y10160000D01*
X3274530Y10160000D02*
X2300000Y9185470D01*
X2300000Y9185470D02*
X2300000Y7850000D01*
X5516870Y10160000D02*
X3274530Y10160000D01*
X7579000Y10590300D02*
X5947170Y10590300D01*
%TO.N,Net-(C9-Pad2)*%
X9754000Y6187777D02*
X9754000Y5670423D01*
X9579000Y6362777D02*
X9754000Y6187777D01*
D27*
X8923200Y3390000D02*
X8923200Y4479200D01*
X8923200Y4479200D02*
X9245000Y4801000D01*
D26*
X9579000Y5495423D02*
X9579000Y5135000D01*
X9579000Y6815300D02*
X9579000Y6362777D01*
X9579000Y5135000D02*
X9245000Y4801000D01*
X9754000Y5670423D02*
X9579000Y5495423D01*
%TO.N,Net-(L1-Pad1)*%
X10466500Y8702800D02*
X11604000Y8702800D01*
X11604000Y8702800D02*
X11794000Y8892800D01*
%TO.N,Net-(L2-Pad1)*%
X11494000Y8202800D02*
X11794000Y7902800D01*
X10466500Y8202800D02*
X11494000Y8202800D01*
%TO.N,Net-(R1-Pad2)*%
X9079000Y10590300D02*
X9079000Y11125808D01*
X9079000Y11125808D02*
X9764192Y11811000D01*
%TO.N,/~{CS}*%
X8055499Y6791799D02*
X8055499Y6056338D01*
X8079000Y6815300D02*
X8055499Y6791799D01*
X8055499Y6056338D02*
X7880500Y5881339D01*
D28*
%TO.N,VDDA*%
X11725000Y6230000D02*
X11056000Y6230000D01*
D26*
X11645000Y10125000D02*
X11645000Y9745000D01*
D28*
X3683000Y11938000D02*
X3838200Y12093200D01*
D26*
X9079000Y6815300D02*
X9079000Y5907000D01*
X11645000Y9745000D02*
X11102800Y9202800D01*
D29*
X2310000Y12275000D02*
X3015800Y12275000D01*
D28*
X3683000Y11607800D02*
X3683000Y11938000D01*
X10769600Y7399700D02*
X10541000Y7628300D01*
D26*
X9093200Y5892800D02*
X9129500Y5929100D01*
D29*
X5211200Y12275000D02*
X5393000Y12093200D01*
D28*
X5978614Y12581000D02*
X3321800Y12581000D01*
D26*
X5602373Y8202800D02*
X5514282Y8114709D01*
D28*
X5978614Y12581000D02*
X9025000Y12581000D01*
D26*
X6691500Y8202800D02*
X5602373Y8202800D01*
D28*
X11561500Y11041500D02*
X11670000Y11150000D01*
D26*
X4572000Y8100000D02*
X5499573Y8100000D01*
X11670000Y11150000D02*
X11670000Y10150000D01*
D28*
X10466500Y9702800D02*
X10466500Y10466500D01*
D29*
X2310000Y12275000D02*
X2457000Y12275000D01*
D28*
X11221400Y12581000D02*
X11670000Y12132400D01*
X8862000Y11811000D02*
X8862000Y12418000D01*
X5393000Y11995386D02*
X5978614Y12581000D01*
X11056000Y6230000D02*
X10769600Y5943600D01*
D27*
X8579000Y10590300D02*
X8579000Y11782000D01*
D29*
X2457000Y12275000D02*
X3403600Y11328400D01*
D28*
X10769600Y5943600D02*
X10769600Y7399700D01*
X10466500Y10466500D02*
X11041500Y11041500D01*
X3321800Y12581000D02*
X3015800Y12275000D01*
D29*
X3015800Y12275000D02*
X3683000Y11607800D01*
D26*
X9079000Y5907000D02*
X9093200Y5892800D01*
D28*
X5393000Y11811000D02*
X5393000Y11995386D01*
X9025000Y12581000D02*
X11221400Y12581000D01*
X8862000Y12418000D02*
X9025000Y12581000D01*
X11041500Y11041500D02*
X11561500Y11041500D01*
X3403600Y11328400D02*
X3683000Y11607800D01*
D26*
X11102800Y9202800D02*
X10466500Y9202800D01*
X5499573Y8100000D02*
X5514282Y8114709D01*
D28*
X12725000Y6230000D02*
X11725000Y6230000D01*
X11670000Y12132400D02*
X11670000Y11150000D01*
X3838200Y12093200D02*
X5393000Y12093200D01*
D29*
X3015800Y12275000D02*
X5211200Y12275000D01*
D26*
%TO.N,Net-(C16-Pad1)*%
X6200600Y7493400D02*
X5435600Y6728400D01*
X6429200Y7702800D02*
X6219800Y7493400D01*
X6219800Y7493400D02*
X6200600Y7493400D01*
D29*
%TO.N,/VDD*%
X1300000Y10890000D02*
X1300000Y12235000D01*
X1300000Y12235000D02*
X1340000Y12275000D01*
%TD*%
%TA.AperFunction,Conductor*%
%TO.N,GND*%
G36*
X11280194Y7858994D02*
G01*
X11298500Y7814800D01*
X11298500Y7697314D01*
X11298831Y7695067D01*
X11298831Y7695064D01*
X11300150Y7686105D01*
X11308569Y7628916D01*
X11359628Y7524920D01*
X11363280Y7521274D01*
X11363281Y7521273D01*
X11437966Y7446718D01*
X11437968Y7446716D01*
X11441621Y7443070D01*
X11446261Y7440802D01*
X11540964Y7394510D01*
X11545706Y7392192D01*
X11550509Y7391491D01*
X11550510Y7391491D01*
X11565523Y7389301D01*
X11613514Y7382300D01*
X11974486Y7382300D01*
X11976733Y7382631D01*
X11976736Y7382631D01*
X12000722Y7386162D01*
X12042884Y7392369D01*
X12146880Y7443428D01*
X12154128Y7450688D01*
X12191414Y7488040D01*
X12228730Y7525421D01*
X12229422Y7526837D01*
X12268681Y7551370D01*
X12315291Y7540612D01*
X12328299Y7527628D01*
X12329628Y7524920D01*
X12333281Y7521273D01*
X12333282Y7521272D01*
X12407966Y7446718D01*
X12407968Y7446716D01*
X12411621Y7443070D01*
X12416261Y7440802D01*
X12510964Y7394510D01*
X12515706Y7392192D01*
X12520509Y7391491D01*
X12520510Y7391491D01*
X12535523Y7389301D01*
X12583514Y7382300D01*
X12944486Y7382300D01*
X12946733Y7382631D01*
X12946736Y7382631D01*
X12970722Y7386162D01*
X13012884Y7392369D01*
X13116880Y7443428D01*
X13123884Y7450444D01*
X13195082Y7521766D01*
X13195084Y7521768D01*
X13198730Y7525421D01*
X13200998Y7530061D01*
X13203998Y7534267D01*
X13206380Y7532568D01*
X13234928Y7557773D01*
X13282672Y7554803D01*
X13299409Y7542851D01*
X13360684Y7481576D01*
X13365639Y7479266D01*
X13365641Y7479264D01*
X13405590Y7460636D01*
X13469513Y7430828D01*
X13486512Y7428590D01*
X13517068Y7424567D01*
X13517074Y7424567D01*
X13519099Y7424300D01*
X13521146Y7424300D01*
X13729565Y7424301D01*
X13938900Y7424301D01*
X13940912Y7424566D01*
X13940915Y7424566D01*
X13983747Y7430204D01*
X13983748Y7430204D01*
X13988487Y7430828D01*
X14015508Y7443428D01*
X14092359Y7479264D01*
X14092361Y7479266D01*
X14097316Y7481576D01*
X14160025Y7544285D01*
X14204219Y7562591D01*
X14248413Y7544285D01*
X14255151Y7536257D01*
X14257376Y7531484D01*
X14336794Y7452066D01*
X14355100Y7407872D01*
X14355100Y7229031D01*
X14336833Y7184875D01*
X14264518Y7112434D01*
X14264516Y7112432D01*
X14260870Y7108779D01*
X14252437Y7091527D01*
X14213787Y7012457D01*
X14209992Y7004694D01*
X14209291Y6999891D01*
X14209291Y6999890D01*
X14207855Y6990044D01*
X14200100Y6936886D01*
X14200100Y6525914D01*
X14200431Y6523667D01*
X14200431Y6523664D01*
X14203168Y6505076D01*
X14210169Y6457516D01*
X14261228Y6353520D01*
X14264880Y6349874D01*
X14264881Y6349873D01*
X14339566Y6275318D01*
X14339568Y6275316D01*
X14343221Y6271670D01*
X14370582Y6258296D01*
X14377210Y6255056D01*
X14408876Y6219202D01*
X14405914Y6171458D01*
X14378137Y6143217D01*
X14310508Y6108759D01*
X14302648Y6103048D01*
X14221352Y6021752D01*
X14215641Y6013891D01*
X14163447Y5911455D01*
X14160443Y5902211D01*
X14146984Y5817234D01*
X14146600Y5812347D01*
X14146600Y5753231D01*
X14150241Y5744441D01*
X14159031Y5740800D01*
X14745100Y5740800D01*
X14789294Y5722494D01*
X14807600Y5678300D01*
X14807600Y5062232D01*
X14811241Y5053442D01*
X14820031Y5049801D01*
X14849146Y5049801D01*
X14854034Y5050186D01*
X14939012Y5063644D01*
X14948253Y5066646D01*
X15050691Y5118841D01*
X15058552Y5124552D01*
X15139847Y5205847D01*
X15146138Y5214506D01*
X15186925Y5239500D01*
X15233438Y5228334D01*
X15240896Y5221964D01*
X15302284Y5160576D01*
X15307239Y5158266D01*
X15307241Y5158264D01*
X15347784Y5139359D01*
X15411113Y5109828D01*
X15428112Y5107590D01*
X15458668Y5103567D01*
X15458674Y5103567D01*
X15460699Y5103300D01*
X15462746Y5103300D01*
X15641084Y5103301D01*
X15820500Y5103301D01*
X15822512Y5103566D01*
X15822515Y5103566D01*
X15865347Y5109204D01*
X15865348Y5109204D01*
X15870087Y5109828D01*
X15916865Y5131641D01*
X15973959Y5158264D01*
X15973961Y5158266D01*
X15978916Y5160576D01*
X16063824Y5245484D01*
X16066134Y5250439D01*
X16066136Y5250441D01*
X16094608Y5311500D01*
X16114572Y5354313D01*
X16118791Y5386359D01*
X16120833Y5401868D01*
X16120833Y5401874D01*
X16121100Y5403899D01*
X16121100Y5488298D01*
X16139406Y5532492D01*
X16183600Y5550798D01*
X16227794Y5532492D01*
X16239703Y5515843D01*
X16290628Y5412120D01*
X16294280Y5408474D01*
X16294281Y5408473D01*
X16372621Y5330270D01*
X16371110Y5328756D01*
X16392360Y5294740D01*
X16381594Y5248131D01*
X16374910Y5240237D01*
X15981819Y4847145D01*
X15977799Y4843461D01*
X15946806Y4817455D01*
X15944072Y4812719D01*
X15926576Y4782414D01*
X15923657Y4777832D01*
X15910678Y4759296D01*
X15885897Y4738504D01*
X15836643Y4715537D01*
X15836642Y4715536D01*
X15831684Y4713224D01*
X15764194Y4645734D01*
X15720000Y4627428D01*
X15675806Y4645734D01*
X15608316Y4713224D01*
X15603361Y4715534D01*
X15603359Y4715536D01*
X15538926Y4745581D01*
X15499487Y4763972D01*
X15482488Y4766210D01*
X15451932Y4770233D01*
X15451926Y4770233D01*
X15449901Y4770500D01*
X15447854Y4770500D01*
X15239435Y4770499D01*
X15030100Y4770499D01*
X15028088Y4770234D01*
X15028085Y4770234D01*
X14985253Y4764596D01*
X14985252Y4764596D01*
X14980513Y4763972D01*
X14976179Y4761951D01*
X14876641Y4715536D01*
X14876639Y4715534D01*
X14871684Y4713224D01*
X14786776Y4628316D01*
X14784466Y4623361D01*
X14784464Y4623359D01*
X14780132Y4614068D01*
X14736028Y4519487D01*
X14729500Y4469901D01*
X14729501Y4110100D01*
X14729766Y4108088D01*
X14729766Y4108085D01*
X14733059Y4083067D01*
X14736028Y4060513D01*
X14738049Y4056180D01*
X14738049Y4056179D01*
X14784464Y3956641D01*
X14784466Y3956639D01*
X14786776Y3951684D01*
X14871684Y3866776D01*
X14876641Y3864464D01*
X14881119Y3861329D01*
X14879265Y3858681D01*
X14904286Y3831370D01*
X14902195Y3783581D01*
X14879540Y3760926D01*
X14881119Y3758671D01*
X14876641Y3755536D01*
X14871684Y3753224D01*
X14786776Y3668316D01*
X14784466Y3663361D01*
X14784464Y3663359D01*
X14772309Y3637291D01*
X14736028Y3559487D01*
X14735404Y3554747D01*
X14735404Y3554746D01*
X14730435Y3517000D01*
X14729500Y3509901D01*
X14729501Y3150100D01*
X14736028Y3100513D01*
X14738049Y3096180D01*
X14738049Y3096179D01*
X14784464Y2996641D01*
X14784466Y2996639D01*
X14786776Y2991684D01*
X14863950Y2914510D01*
X14882256Y2870316D01*
X14863988Y2826160D01*
X14831921Y2794037D01*
X14831919Y2794035D01*
X14828270Y2790379D01*
X14818432Y2770252D01*
X14779812Y2691244D01*
X14777392Y2686294D01*
X14767500Y2618486D01*
X14767500Y2207514D01*
X14777569Y2139116D01*
X14828628Y2035120D01*
X14832280Y2031474D01*
X14832281Y2031473D01*
X14906966Y1956918D01*
X14906968Y1956916D01*
X14910621Y1953270D01*
X14915261Y1951002D01*
X15009964Y1904710D01*
X15014706Y1902392D01*
X15019509Y1901691D01*
X15019510Y1901691D01*
X15040265Y1898663D01*
X15082514Y1892500D01*
X15443486Y1892500D01*
X15445733Y1892831D01*
X15445736Y1892831D01*
X15469722Y1896362D01*
X15511884Y1902569D01*
X15615880Y1953628D01*
X15627760Y1965528D01*
X15694080Y2031965D01*
X15697730Y2035621D01*
X15698422Y2037037D01*
X15737681Y2061570D01*
X15784291Y2050812D01*
X15797299Y2037828D01*
X15798628Y2035120D01*
X15880621Y1953270D01*
X15882095Y1952550D01*
X15906643Y1913264D01*
X15907500Y1902949D01*
X15907500Y1833941D01*
X15907262Y1828494D01*
X15903736Y1788193D01*
X15905151Y1782913D01*
X15905151Y1782911D01*
X15914207Y1749117D01*
X15915387Y1743796D01*
X15922412Y1703955D01*
X15925145Y1699221D01*
X15925147Y1699216D01*
X15925568Y1698487D01*
X15931812Y1683414D01*
X15933446Y1677316D01*
X15936580Y1672841D01*
X15936580Y1672840D01*
X15956650Y1644178D01*
X15959575Y1639586D01*
X15979806Y1604545D01*
X15983995Y1601030D01*
X16010802Y1578536D01*
X16014822Y1574852D01*
X16537854Y1051820D01*
X16541538Y1047800D01*
X16567545Y1016806D01*
X16602586Y996575D01*
X16607178Y993650D01*
X16618425Y985775D01*
X16640316Y970446D01*
X16645593Y969032D01*
X16645595Y969031D01*
X16646414Y968812D01*
X16661487Y962568D01*
X16662216Y962147D01*
X16662221Y962145D01*
X16666955Y959412D01*
X16706796Y952387D01*
X16712117Y951207D01*
X16745911Y942151D01*
X16745913Y942151D01*
X16751193Y940736D01*
X16791497Y944262D01*
X16796945Y944500D01*
X16837000Y944500D01*
X16881194Y926194D01*
X16899500Y882000D01*
X16899500Y500252D01*
X16911133Y441769D01*
X16955448Y375448D01*
X16960562Y372031D01*
X17016653Y334551D01*
X17016655Y334550D01*
X17021769Y331133D01*
X17027803Y329933D01*
X17027805Y329932D01*
X17077239Y320099D01*
X17077242Y320099D01*
X17080252Y319500D01*
X18784300Y319500D01*
X18828494Y301194D01*
X18846800Y257000D01*
X18846800Y214900D01*
X18828494Y170706D01*
X18784300Y152400D01*
X214900Y152400D01*
X170706Y170706D01*
X152400Y214900D01*
X152400Y1195604D01*
X170706Y1239798D01*
X214900Y1258104D01*
X233135Y1254799D01*
X233177Y1254977D01*
X236458Y1254197D01*
X236833Y1254129D01*
X236987Y1254071D01*
X244556Y1252272D01*
X300608Y1246183D01*
X303976Y1246000D01*
X810569Y1246000D01*
X819359Y1249641D01*
X823000Y1258431D01*
X823000Y1258432D01*
X1077000Y1258432D01*
X1080641Y1249642D01*
X1089431Y1246001D01*
X1596018Y1246001D01*
X1599388Y1246183D01*
X1655443Y1252272D01*
X1663012Y1254071D01*
X1790351Y1301808D01*
X1798086Y1306043D01*
X1906487Y1387285D01*
X1912715Y1393513D01*
X1993957Y1501914D01*
X1998192Y1509649D01*
X2045930Y1636992D01*
X2047728Y1644556D01*
X2053817Y1700608D01*
X2054000Y1703976D01*
X2054000Y1860569D01*
X2050359Y1869359D01*
X2041569Y1873000D01*
X1089431Y1873000D01*
X1080641Y1869359D01*
X1077000Y1860569D01*
X1077000Y1258432D01*
X823000Y1258432D01*
X823000Y2064500D01*
X841306Y2108694D01*
X885500Y2127000D01*
X2041568Y2127000D01*
X2050358Y2130641D01*
X2053999Y2139431D01*
X2053999Y2296018D01*
X2053817Y2299388D01*
X2047728Y2355443D01*
X2045929Y2363012D01*
X1998192Y2490351D01*
X1993957Y2498086D01*
X1912715Y2606487D01*
X1906487Y2612715D01*
X1893574Y2622393D01*
X1869188Y2663546D01*
X1880784Y2709539D01*
X1949856Y2803055D01*
X1952634Y2806816D01*
X1954182Y2811225D01*
X1954185Y2811230D01*
X1986310Y2902709D01*
X2018225Y2938341D01*
X2045279Y2944500D01*
X2237059Y2944500D01*
X2242506Y2944262D01*
X2282807Y2940736D01*
X2288087Y2942151D01*
X2288089Y2942151D01*
X2321883Y2951207D01*
X2327204Y2952387D01*
X2367045Y2959412D01*
X2371779Y2962145D01*
X2371784Y2962147D01*
X2372513Y2962568D01*
X2387586Y2968812D01*
X2388405Y2969031D01*
X2388407Y2969032D01*
X2393684Y2970446D01*
X2399140Y2974266D01*
X2426822Y2993650D01*
X2431414Y2996575D01*
X2466455Y3016806D01*
X2492464Y3047802D01*
X2496148Y3051822D01*
X3774180Y4329854D01*
X3778200Y4333538D01*
X3805005Y4356030D01*
X3809194Y4359545D01*
X3829425Y4394586D01*
X3832350Y4399178D01*
X3852420Y4427840D01*
X3852420Y4427841D01*
X3855554Y4432316D01*
X3857188Y4438414D01*
X3863432Y4453487D01*
X3863853Y4454216D01*
X3863855Y4454221D01*
X3866588Y4458955D01*
X3873613Y4498796D01*
X3874793Y4504117D01*
X3883849Y4537911D01*
X3883849Y4537913D01*
X3885264Y4543193D01*
X3881738Y4583494D01*
X3881500Y4588941D01*
X3881500Y4965431D01*
X6402800Y4965431D01*
X6406441Y4956641D01*
X6415231Y4953000D01*
X6797369Y4953000D01*
X6806159Y4956641D01*
X6809800Y4965431D01*
X6809800Y5377568D01*
X6806159Y5386358D01*
X6797369Y5389999D01*
X6768254Y5389999D01*
X6763366Y5389614D01*
X6678388Y5376156D01*
X6669147Y5373154D01*
X6566709Y5320959D01*
X6558848Y5315248D01*
X6477552Y5233952D01*
X6471841Y5226091D01*
X6419647Y5123655D01*
X6416643Y5114411D01*
X6403184Y5029434D01*
X6402800Y5024547D01*
X6402800Y4965431D01*
X3881500Y4965431D01*
X3881500Y5599854D01*
X4871601Y5599854D01*
X4871986Y5594966D01*
X4885444Y5509988D01*
X4888446Y5500747D01*
X4940641Y5398309D01*
X4946352Y5390448D01*
X5027648Y5309152D01*
X5035509Y5303441D01*
X5137945Y5251247D01*
X5147189Y5248243D01*
X5232166Y5234784D01*
X5237053Y5234400D01*
X5296169Y5234400D01*
X5304959Y5238041D01*
X5308600Y5246831D01*
X5308600Y5246832D01*
X5562600Y5246832D01*
X5566241Y5238042D01*
X5575031Y5234401D01*
X5634146Y5234401D01*
X5639034Y5234786D01*
X5724012Y5248244D01*
X5733253Y5251246D01*
X5835691Y5303441D01*
X5843552Y5309152D01*
X5924848Y5390448D01*
X5930559Y5398309D01*
X5982753Y5500745D01*
X5985757Y5509989D01*
X5999216Y5594966D01*
X5999600Y5599853D01*
X5999600Y5628969D01*
X5995959Y5637759D01*
X5987169Y5641400D01*
X5575031Y5641400D01*
X5566241Y5637759D01*
X5562600Y5628969D01*
X5562600Y5246832D01*
X5308600Y5246832D01*
X5308600Y5628969D01*
X5304959Y5637759D01*
X5296169Y5641400D01*
X4884032Y5641400D01*
X4875242Y5637759D01*
X4871601Y5628969D01*
X4871601Y5599854D01*
X3881500Y5599854D01*
X3881500Y6697286D01*
X3899806Y6741480D01*
X3913369Y6755043D01*
X3957563Y6773349D01*
X4001757Y6755043D01*
X4062448Y6694352D01*
X4070309Y6688641D01*
X4172745Y6636447D01*
X4181989Y6633443D01*
X4266966Y6619984D01*
X4271853Y6619600D01*
X4330969Y6619600D01*
X4339759Y6623241D01*
X4343400Y6632031D01*
X4343400Y7218100D01*
X4361706Y7262294D01*
X4405900Y7280600D01*
X4534900Y7280600D01*
X4579094Y7262294D01*
X4597400Y7218100D01*
X4597400Y6632032D01*
X4601041Y6623242D01*
X4609831Y6619601D01*
X4668946Y6619601D01*
X4673834Y6619986D01*
X4758812Y6633444D01*
X4768054Y6636446D01*
X4834227Y6670163D01*
X4881915Y6673916D01*
X4918289Y6642849D01*
X4925101Y6614476D01*
X4925101Y6548500D01*
X4931628Y6498913D01*
X4933649Y6494580D01*
X4933649Y6494579D01*
X4980064Y6395041D01*
X4980066Y6395039D01*
X4982376Y6390084D01*
X5043764Y6328696D01*
X5062070Y6284502D01*
X5043764Y6240308D01*
X5036306Y6233938D01*
X5027647Y6227647D01*
X4946352Y6146352D01*
X4940641Y6138491D01*
X4888447Y6036055D01*
X4885443Y6026811D01*
X4871984Y5941834D01*
X4871600Y5936947D01*
X4871600Y5907831D01*
X4875241Y5899041D01*
X4884031Y5895400D01*
X5987168Y5895400D01*
X5995958Y5899041D01*
X5999599Y5907831D01*
X5999599Y5936946D01*
X5999214Y5941834D01*
X5985756Y6026812D01*
X5982754Y6036053D01*
X5930559Y6138491D01*
X5924848Y6146352D01*
X5843553Y6227647D01*
X5834894Y6233938D01*
X5809900Y6274725D01*
X5821066Y6321238D01*
X5827436Y6328696D01*
X5888824Y6390084D01*
X5891134Y6395039D01*
X5891136Y6395041D01*
X5923208Y6463821D01*
X5939572Y6498913D01*
X5942808Y6523492D01*
X5945833Y6546468D01*
X5945833Y6546474D01*
X5946100Y6548499D01*
X5946099Y6752685D01*
X5964405Y6796879D01*
X6157571Y6990044D01*
X6361920Y7194393D01*
X6370259Y7201391D01*
X6392632Y7217057D01*
X6397206Y7219971D01*
X6432255Y7240206D01*
X6458263Y7271201D01*
X6461947Y7275221D01*
X6545721Y7358994D01*
X6589915Y7377300D01*
X6901841Y7377301D01*
X7123965Y7377301D01*
X7168159Y7358995D01*
X7175932Y7349524D01*
X7192457Y7324793D01*
X7200993Y7316257D01*
X7225723Y7299733D01*
X7252299Y7259959D01*
X7253500Y7247766D01*
X7253500Y6976014D01*
X7235194Y6931820D01*
X6943603Y6640229D01*
X6899028Y6621924D01*
X6828115Y6622358D01*
X6765229Y6622742D01*
X6765228Y6622742D01*
X6760776Y6622769D01*
X6622929Y6583372D01*
X6501680Y6506870D01*
X6498737Y6503538D01*
X6498735Y6503536D01*
X6414241Y6407864D01*
X6406777Y6399412D01*
X6345847Y6269637D01*
X6345162Y6265239D01*
X6345162Y6265238D01*
X6341281Y6240308D01*
X6323791Y6127977D01*
X6324368Y6123564D01*
X6324368Y6123562D01*
X6330028Y6080281D01*
X6342380Y5985821D01*
X6344173Y5981746D01*
X6394866Y5866538D01*
X6400120Y5854597D01*
X6402984Y5851190D01*
X6489507Y5748257D01*
X6489510Y5748254D01*
X6492370Y5744852D01*
X6611713Y5665410D01*
X6615964Y5664082D01*
X6744305Y5623986D01*
X6744308Y5623986D01*
X6748557Y5622658D01*
X6753009Y5622576D01*
X6753011Y5622576D01*
X6824042Y5621274D01*
X6891899Y5620030D01*
X7030217Y5657740D01*
X7152391Y5732755D01*
X7173457Y5756028D01*
X7245613Y5835746D01*
X7248600Y5839046D01*
X7261920Y5866538D01*
X7297664Y5898329D01*
X7345417Y5895533D01*
X7377208Y5859789D01*
X7380138Y5847392D01*
X7393480Y5745360D01*
X7395273Y5741285D01*
X7448627Y5620030D01*
X7451220Y5614136D01*
X7454084Y5610729D01*
X7540607Y5507796D01*
X7540610Y5507793D01*
X7543470Y5504391D01*
X7634048Y5444097D01*
X7655955Y5429514D01*
X7682600Y5389787D01*
X7673349Y5342854D01*
X7647736Y5320843D01*
X7563441Y5281536D01*
X7563439Y5281534D01*
X7558484Y5279224D01*
X7497096Y5217836D01*
X7452902Y5199530D01*
X7408708Y5217836D01*
X7402338Y5225294D01*
X7396047Y5233953D01*
X7314752Y5315248D01*
X7306891Y5320959D01*
X7204455Y5373153D01*
X7195211Y5376157D01*
X7110234Y5389616D01*
X7105347Y5390000D01*
X7076231Y5390000D01*
X7067441Y5386359D01*
X7063800Y5377569D01*
X7063800Y4761500D01*
X7045494Y4717306D01*
X7001300Y4699000D01*
X6415232Y4699000D01*
X6406442Y4695359D01*
X6402801Y4686569D01*
X6402801Y4627454D01*
X6403186Y4622566D01*
X6416644Y4537588D01*
X6419646Y4528347D01*
X6471841Y4425909D01*
X6477552Y4418048D01*
X6544907Y4350693D01*
X6563213Y4306499D01*
X6544907Y4262305D01*
X6500713Y4243999D01*
X6001255Y4243999D01*
X5995170Y4243400D01*
X5930132Y4230464D01*
X5918976Y4225843D01*
X5845193Y4176543D01*
X5836657Y4168007D01*
X5787357Y4094225D01*
X5782736Y4083067D01*
X5769799Y4018030D01*
X5769200Y4011946D01*
X5769200Y3529431D01*
X5772841Y3520641D01*
X5781631Y3517000D01*
X6787700Y3517000D01*
X6831894Y3498694D01*
X6850200Y3454500D01*
X6850200Y3325500D01*
X6831894Y3281306D01*
X6787700Y3263000D01*
X5781632Y3263000D01*
X5772842Y3259359D01*
X5769201Y3250569D01*
X5769201Y2768055D01*
X5769800Y2761970D01*
X5782736Y2696932D01*
X5787357Y2685776D01*
X5836657Y2611993D01*
X5845193Y2603457D01*
X5910538Y2559795D01*
X5937114Y2520021D01*
X5927782Y2473105D01*
X5910538Y2455861D01*
X5883764Y2437971D01*
X5883762Y2437969D01*
X5878648Y2434552D01*
X5834333Y2368231D01*
X5822700Y2309748D01*
X5822700Y1070252D01*
X5823299Y1067242D01*
X5823299Y1067239D01*
X5832498Y1020995D01*
X5834333Y1011769D01*
X5837750Y1006655D01*
X5837751Y1006653D01*
X5846440Y993650D01*
X5878648Y945448D01*
X5883762Y942031D01*
X5939853Y904551D01*
X5939855Y904550D01*
X5944969Y901133D01*
X5951003Y899933D01*
X5951005Y899932D01*
X6000439Y890099D01*
X6000442Y890099D01*
X6003452Y889500D01*
X7442948Y889500D01*
X7445958Y890099D01*
X7445961Y890099D01*
X7495395Y899932D01*
X7495397Y899933D01*
X7501431Y901133D01*
X7506545Y904550D01*
X7506547Y904551D01*
X7562638Y942031D01*
X7567752Y945448D01*
X7599960Y993650D01*
X7608649Y1006653D01*
X7608650Y1006655D01*
X7612067Y1011769D01*
X7613903Y1020995D01*
X7623101Y1067239D01*
X7623101Y1067242D01*
X7623263Y1068055D01*
X7969201Y1068055D01*
X7969800Y1061970D01*
X7982736Y996932D01*
X7987357Y985776D01*
X8036657Y911993D01*
X8045193Y903457D01*
X8118975Y854157D01*
X8130133Y849536D01*
X8195170Y836599D01*
X8201254Y836000D01*
X8783769Y836000D01*
X8792559Y839641D01*
X8796200Y848431D01*
X8796200Y848432D01*
X9050200Y848432D01*
X9053841Y839642D01*
X9062631Y836001D01*
X9645145Y836001D01*
X9651230Y836600D01*
X9716268Y849536D01*
X9727424Y854157D01*
X9801207Y903457D01*
X9809743Y911993D01*
X9859043Y985775D01*
X9863664Y996933D01*
X9876601Y1061970D01*
X9877200Y1068054D01*
X9877200Y1550569D01*
X9873559Y1559359D01*
X9864769Y1563000D01*
X9062631Y1563000D01*
X9053841Y1559359D01*
X9050200Y1550569D01*
X9050200Y848432D01*
X8796200Y848432D01*
X8796200Y1550569D01*
X8792559Y1559359D01*
X8783769Y1563000D01*
X7981632Y1563000D01*
X7972842Y1559359D01*
X7969201Y1550569D01*
X7969201Y1068055D01*
X7623263Y1068055D01*
X7623700Y1070252D01*
X7623700Y1939640D01*
X7642006Y1983834D01*
X7862506Y2204334D01*
X7906700Y2222640D01*
X7950894Y2204334D01*
X7969200Y2160140D01*
X7969200Y1829431D01*
X7972841Y1820641D01*
X7981631Y1817000D01*
X9864768Y1817000D01*
X9873558Y1820641D01*
X9877199Y1829431D01*
X9877199Y2311945D01*
X9876600Y2318030D01*
X9863664Y2383068D01*
X9859043Y2394224D01*
X9809743Y2468007D01*
X9801207Y2476543D01*
X9735862Y2520205D01*
X9709286Y2559979D01*
X9718618Y2606895D01*
X9735862Y2624139D01*
X9762636Y2642029D01*
X9762638Y2642031D01*
X9767752Y2645448D01*
X9791835Y2681490D01*
X9808649Y2706653D01*
X9808650Y2706655D01*
X9812067Y2711769D01*
X9823700Y2770252D01*
X9823700Y4009748D01*
X9822053Y4018030D01*
X9813268Y4062195D01*
X9813267Y4062197D01*
X9812067Y4068231D01*
X9803382Y4081230D01*
X9771169Y4129438D01*
X9767752Y4134552D01*
X9717684Y4168007D01*
X9706547Y4175449D01*
X9706545Y4175450D01*
X9701431Y4178867D01*
X9695397Y4180067D01*
X9695395Y4180068D01*
X9645961Y4189901D01*
X9645958Y4189901D01*
X9642948Y4190500D01*
X9527956Y4190500D01*
X9483762Y4208806D01*
X9465456Y4253000D01*
X9483762Y4297194D01*
X9501542Y4309644D01*
X9578359Y4345464D01*
X9578361Y4345466D01*
X9583316Y4347776D01*
X9644704Y4409164D01*
X9688898Y4427470D01*
X9733092Y4409164D01*
X9739462Y4401706D01*
X9745753Y4393047D01*
X9827048Y4311752D01*
X9834909Y4306041D01*
X9937345Y4253847D01*
X9946589Y4250843D01*
X10031566Y4237384D01*
X10036453Y4237000D01*
X10065569Y4237000D01*
X10074359Y4240641D01*
X10078000Y4249431D01*
X10078000Y4249432D01*
X10332000Y4249432D01*
X10335641Y4240642D01*
X10344431Y4237001D01*
X10373546Y4237001D01*
X10378434Y4237386D01*
X10463412Y4250844D01*
X10472653Y4253846D01*
X10575091Y4306041D01*
X10582952Y4311752D01*
X10664248Y4393048D01*
X10669959Y4400909D01*
X10722153Y4503345D01*
X10725157Y4512589D01*
X10738616Y4597566D01*
X10739000Y4602453D01*
X10739000Y4661569D01*
X10735359Y4670359D01*
X10726569Y4674000D01*
X10344431Y4674000D01*
X10335641Y4670359D01*
X10332000Y4661569D01*
X10332000Y4249432D01*
X10078000Y4249432D01*
X10078000Y4940431D01*
X10332000Y4940431D01*
X10335641Y4931641D01*
X10344431Y4928000D01*
X10726568Y4928000D01*
X10735358Y4931641D01*
X10738999Y4940431D01*
X10738999Y4999546D01*
X10738614Y5004434D01*
X10725156Y5089412D01*
X10722154Y5098653D01*
X10720727Y5101454D01*
X11161001Y5101454D01*
X11161386Y5096566D01*
X11174844Y5011588D01*
X11177846Y5002347D01*
X11230041Y4899909D01*
X11235752Y4892048D01*
X11317048Y4810752D01*
X11324909Y4805041D01*
X11427345Y4752847D01*
X11436589Y4749843D01*
X11521566Y4736384D01*
X11526453Y4736000D01*
X11585569Y4736000D01*
X11594359Y4739641D01*
X11598000Y4748431D01*
X11598000Y4748432D01*
X11852000Y4748432D01*
X11855641Y4739642D01*
X11864431Y4736001D01*
X11923546Y4736001D01*
X11928434Y4736386D01*
X12013412Y4749844D01*
X12022653Y4752846D01*
X12125091Y4805041D01*
X12132952Y4810752D01*
X12180806Y4858606D01*
X12225000Y4876912D01*
X12269194Y4858606D01*
X12317048Y4810752D01*
X12324909Y4805041D01*
X12427345Y4752847D01*
X12436589Y4749843D01*
X12521566Y4736384D01*
X12526453Y4736000D01*
X12585569Y4736000D01*
X12594359Y4739641D01*
X12598000Y4748431D01*
X12598000Y4748432D01*
X12852000Y4748432D01*
X12855641Y4739642D01*
X12864431Y4736001D01*
X12923546Y4736001D01*
X12928434Y4736386D01*
X13013412Y4749844D01*
X13022653Y4752846D01*
X13125091Y4805041D01*
X13132952Y4810752D01*
X13214248Y4892048D01*
X13219959Y4899909D01*
X13272153Y5002345D01*
X13275157Y5011589D01*
X13288616Y5096566D01*
X13289000Y5101453D01*
X13289000Y5130569D01*
X13285359Y5139359D01*
X13276569Y5143000D01*
X12864431Y5143000D01*
X12855641Y5139359D01*
X12852000Y5130569D01*
X12852000Y4748432D01*
X12598000Y4748432D01*
X12598000Y5130569D01*
X12594359Y5139359D01*
X12585569Y5143000D01*
X11864431Y5143000D01*
X11855641Y5139359D01*
X11852000Y5130569D01*
X11852000Y4748432D01*
X11598000Y4748432D01*
X11598000Y5130569D01*
X11594359Y5139359D01*
X11585569Y5143000D01*
X11173432Y5143000D01*
X11164642Y5139359D01*
X11161001Y5130569D01*
X11161001Y5101454D01*
X10720727Y5101454D01*
X10669959Y5201091D01*
X10664248Y5208952D01*
X10582952Y5290248D01*
X10575091Y5295959D01*
X10472655Y5348153D01*
X10463411Y5351157D01*
X10378434Y5364616D01*
X10373547Y5365000D01*
X10344431Y5365000D01*
X10335641Y5361359D01*
X10332000Y5352569D01*
X10332000Y4940431D01*
X10078000Y4940431D01*
X10078000Y5352568D01*
X10074359Y5361358D01*
X10065569Y5364999D01*
X10061771Y5364999D01*
X10017577Y5383305D01*
X9999271Y5427499D01*
X10007645Y5458750D01*
X10016815Y5474631D01*
X10027422Y5493004D01*
X10030344Y5497591D01*
X10053554Y5530739D01*
X10054967Y5536014D01*
X10054970Y5536019D01*
X10055190Y5536842D01*
X10061430Y5551907D01*
X10061853Y5552640D01*
X10061853Y5552641D01*
X10064588Y5557378D01*
X10071613Y5597214D01*
X10072791Y5602532D01*
X10081849Y5636338D01*
X10081849Y5636339D01*
X10083263Y5641616D01*
X10081853Y5657740D01*
X10079738Y5681909D01*
X10079500Y5687356D01*
X10079500Y6170847D01*
X10079738Y6176294D01*
X10082787Y6211139D01*
X10082787Y6211141D01*
X10083263Y6216584D01*
X10072790Y6255671D01*
X10071612Y6260989D01*
X10069666Y6272028D01*
X10064588Y6300822D01*
X10061430Y6306293D01*
X10055190Y6321358D01*
X10054970Y6322181D01*
X10054967Y6322186D01*
X10053554Y6327461D01*
X10030344Y6360609D01*
X10027421Y6365198D01*
X10007194Y6400232D01*
X9976204Y6426236D01*
X9972184Y6429920D01*
X9922806Y6479298D01*
X9904500Y6523492D01*
X9904500Y6843775D01*
X9904499Y6843778D01*
X9904499Y7247766D01*
X9922805Y7291959D01*
X9932276Y7299732D01*
X9957007Y7316257D01*
X9965543Y7324793D01*
X9982067Y7349523D01*
X10021841Y7376099D01*
X10034034Y7377300D01*
X10129276Y7377300D01*
X10175176Y7357220D01*
X10175916Y7356419D01*
X10176725Y7355472D01*
X10300794Y7231403D01*
X10319100Y7187209D01*
X10319100Y6175779D01*
X10313175Y6149218D01*
X10286047Y6091437D01*
X10285362Y6087039D01*
X10285362Y6087038D01*
X10284380Y6080728D01*
X10263991Y5949777D01*
X10264568Y5945364D01*
X10264568Y5945362D01*
X10265669Y5936946D01*
X10282580Y5807621D01*
X10284373Y5803546D01*
X10337895Y5681909D01*
X10340320Y5676397D01*
X10343184Y5672990D01*
X10429707Y5570057D01*
X10429710Y5570054D01*
X10432570Y5566652D01*
X10551913Y5487210D01*
X10556164Y5485882D01*
X10684505Y5445786D01*
X10684508Y5445786D01*
X10688757Y5444458D01*
X10693209Y5444376D01*
X10693211Y5444376D01*
X10764242Y5443074D01*
X10832099Y5441830D01*
X10970417Y5479540D01*
X11063743Y5536842D01*
X11072624Y5542295D01*
X11119864Y5549819D01*
X11158589Y5521736D01*
X11167058Y5479256D01*
X11161384Y5443434D01*
X11161000Y5438547D01*
X11161000Y5409431D01*
X11164641Y5400641D01*
X11173431Y5397000D01*
X13276568Y5397000D01*
X13285358Y5400641D01*
X13288999Y5409431D01*
X13288999Y5415254D01*
X14146601Y5415254D01*
X14146986Y5410366D01*
X14160444Y5325388D01*
X14163446Y5316147D01*
X14215641Y5213709D01*
X14221352Y5205848D01*
X14302648Y5124552D01*
X14310509Y5118841D01*
X14412945Y5066647D01*
X14422189Y5063643D01*
X14507166Y5050184D01*
X14512053Y5049800D01*
X14541169Y5049800D01*
X14549959Y5053441D01*
X14553600Y5062231D01*
X14553600Y5474369D01*
X14549959Y5483159D01*
X14541169Y5486800D01*
X14159032Y5486800D01*
X14150242Y5483159D01*
X14146601Y5474369D01*
X14146601Y5415254D01*
X13288999Y5415254D01*
X13288999Y5438546D01*
X13288614Y5443434D01*
X13275156Y5528412D01*
X13272154Y5537653D01*
X13219959Y5640091D01*
X13214248Y5647952D01*
X13132953Y5729247D01*
X13124294Y5735538D01*
X13099300Y5776325D01*
X13110466Y5822838D01*
X13116836Y5830296D01*
X13178224Y5891684D01*
X13180534Y5896639D01*
X13180536Y5896641D01*
X13218082Y5977159D01*
X13228972Y6000513D01*
X13232434Y6026812D01*
X13235233Y6048068D01*
X13235233Y6048074D01*
X13235500Y6050099D01*
X13235499Y6409900D01*
X13228972Y6459487D01*
X13219699Y6479373D01*
X13180536Y6563359D01*
X13180534Y6563361D01*
X13178224Y6568316D01*
X13093316Y6653224D01*
X13088361Y6655534D01*
X13088359Y6655536D01*
X13017364Y6688641D01*
X12984487Y6703972D01*
X12967488Y6706210D01*
X12936932Y6710233D01*
X12936926Y6710233D01*
X12934901Y6710500D01*
X12932854Y6710500D01*
X12724435Y6710499D01*
X12515100Y6710499D01*
X12513088Y6710234D01*
X12513085Y6710234D01*
X12470253Y6704596D01*
X12470252Y6704596D01*
X12465513Y6703972D01*
X12461178Y6701951D01*
X12461176Y6701950D01*
X12427734Y6686356D01*
X12401321Y6680500D01*
X12048679Y6680500D01*
X12022266Y6686356D01*
X11988823Y6701950D01*
X11988824Y6701950D01*
X11984487Y6703972D01*
X11967488Y6706210D01*
X11936932Y6710233D01*
X11936926Y6710233D01*
X11934901Y6710500D01*
X11932854Y6710500D01*
X11724435Y6710499D01*
X11515100Y6710499D01*
X11513088Y6710234D01*
X11513085Y6710234D01*
X11470253Y6704596D01*
X11470252Y6704596D01*
X11465513Y6703972D01*
X11461178Y6701951D01*
X11461176Y6701950D01*
X11427734Y6686356D01*
X11401321Y6680500D01*
X11282600Y6680500D01*
X11238406Y6698806D01*
X11220100Y6743000D01*
X11220100Y7369227D01*
X11220533Y7376573D01*
X11220707Y7378046D01*
X11224964Y7414011D01*
X11214240Y7472729D01*
X11213932Y7474575D01*
X11205049Y7533662D01*
X11203024Y7537878D01*
X11202427Y7539819D01*
X11202353Y7540120D01*
X11202239Y7540473D01*
X11202120Y7540763D01*
X11201463Y7542681D01*
X11200625Y7547273D01*
X11198475Y7551412D01*
X11198473Y7551418D01*
X11173118Y7600229D01*
X11172241Y7601984D01*
X11167025Y7612847D01*
X11160659Y7626104D01*
X11154500Y7653158D01*
X11154499Y7788128D01*
X11154499Y7791200D01*
X11152230Y7802608D01*
X11161563Y7849524D01*
X11201337Y7876099D01*
X11213529Y7877300D01*
X11236000Y7877300D01*
X11280194Y7858994D01*
G37*
%TD.AperFunction*%
%TA.AperFunction,Conductor*%
G36*
X18828494Y12834094D02*
G01*
X18846800Y12789900D01*
X18846800Y4616500D01*
X18828494Y4572306D01*
X18784300Y4554000D01*
X18139431Y4554000D01*
X18130641Y4550359D01*
X18127000Y4541569D01*
X18127000Y2558432D01*
X18130641Y2549642D01*
X18139431Y2546001D01*
X18784300Y2546001D01*
X18828494Y2527695D01*
X18846800Y2483501D01*
X18846800Y2283000D01*
X18828494Y2238806D01*
X18784300Y2220500D01*
X17080252Y2220500D01*
X17077242Y2219901D01*
X17077239Y2219901D01*
X17027805Y2210068D01*
X17027803Y2210067D01*
X17021769Y2208867D01*
X17016655Y2205450D01*
X17016653Y2205449D01*
X16972320Y2175826D01*
X16955448Y2164552D01*
X16952031Y2159438D01*
X16935539Y2134756D01*
X16911133Y2098231D01*
X16909933Y2092197D01*
X16909932Y2092195D01*
X16900099Y2042761D01*
X16899500Y2039748D01*
X16899500Y1761714D01*
X16881194Y1717520D01*
X16837000Y1699214D01*
X16792806Y1717520D01*
X16615458Y1894868D01*
X16597152Y1939062D01*
X16615419Y1983217D01*
X16664079Y2031963D01*
X16664081Y2031965D01*
X16667730Y2035621D01*
X16714177Y2130641D01*
X16716477Y2135346D01*
X16716477Y2135347D01*
X16718608Y2139706D01*
X16728500Y2207514D01*
X16728500Y2618486D01*
X16718431Y2686884D01*
X16673669Y2778055D01*
X16846001Y2778055D01*
X16846600Y2771970D01*
X16859536Y2706932D01*
X16864157Y2695776D01*
X16913457Y2621993D01*
X16921993Y2613457D01*
X16995775Y2564157D01*
X17006933Y2559536D01*
X17071970Y2546599D01*
X17078054Y2546000D01*
X17860569Y2546000D01*
X17869359Y2549641D01*
X17873000Y2558431D01*
X17873000Y3410569D01*
X17869359Y3419359D01*
X17860569Y3423000D01*
X16858432Y3423000D01*
X16849642Y3419359D01*
X16846001Y3410569D01*
X16846001Y2778055D01*
X16673669Y2778055D01*
X16667372Y2790880D01*
X16655176Y2803055D01*
X16604074Y2854068D01*
X16585729Y2898246D01*
X16604035Y2942495D01*
X16653224Y2991684D01*
X16655534Y2996639D01*
X16655536Y2996641D01*
X16701951Y3096180D01*
X16703972Y3100513D01*
X16710500Y3150099D01*
X16710499Y3509900D01*
X16709565Y3517000D01*
X16704596Y3554747D01*
X16704596Y3554748D01*
X16703972Y3559487D01*
X16678643Y3613806D01*
X16655536Y3663359D01*
X16655534Y3663361D01*
X16653224Y3668316D01*
X16632109Y3689431D01*
X16846000Y3689431D01*
X16849641Y3680641D01*
X16858431Y3677000D01*
X17860569Y3677000D01*
X17869359Y3680641D01*
X17873000Y3689431D01*
X17873000Y4541568D01*
X17869359Y4550358D01*
X17860569Y4553999D01*
X17078055Y4553999D01*
X17071970Y4553400D01*
X17006932Y4540464D01*
X16995776Y4535843D01*
X16921993Y4486543D01*
X16913457Y4478007D01*
X16864157Y4404225D01*
X16859536Y4393067D01*
X16846599Y4328030D01*
X16846000Y4321946D01*
X16846000Y3689431D01*
X16632109Y3689431D01*
X16568316Y3753224D01*
X16563359Y3755536D01*
X16558881Y3758671D01*
X16560735Y3761319D01*
X16535714Y3788630D01*
X16537805Y3836419D01*
X16560460Y3859074D01*
X16558881Y3861329D01*
X16563359Y3864464D01*
X16568316Y3866776D01*
X16653224Y3951684D01*
X16655534Y3956639D01*
X16655536Y3956641D01*
X16701951Y4056180D01*
X16703972Y4060513D01*
X16708410Y4094225D01*
X16710233Y4108068D01*
X16710233Y4108074D01*
X16710500Y4110099D01*
X16710499Y4469900D01*
X16708309Y4486543D01*
X16704596Y4514747D01*
X16704596Y4514748D01*
X16703972Y4519487D01*
X16698005Y4532285D01*
X16681393Y4567908D01*
X16679306Y4615698D01*
X16693843Y4638516D01*
X16968186Y4912859D01*
X16972206Y4916543D01*
X16999006Y4939031D01*
X17003194Y4942545D01*
X17005927Y4947278D01*
X17005929Y4947281D01*
X17023427Y4977590D01*
X17026342Y4982166D01*
X17049553Y5015316D01*
X17050968Y5020595D01*
X17050969Y5020598D01*
X17051188Y5021417D01*
X17057427Y5036480D01*
X17057856Y5037223D01*
X17060588Y5041955D01*
X17061972Y5049800D01*
X17067614Y5081805D01*
X17068791Y5087114D01*
X17079263Y5126193D01*
X17075738Y5166486D01*
X17075500Y5171933D01*
X17075500Y5265970D01*
X17093806Y5310164D01*
X17110456Y5322073D01*
X17123244Y5328351D01*
X17123248Y5328354D01*
X17127880Y5330628D01*
X17140085Y5342854D01*
X17206082Y5408966D01*
X17206084Y5408968D01*
X17209730Y5412621D01*
X17246722Y5488298D01*
X17258477Y5512346D01*
X17258477Y5512347D01*
X17260608Y5516706D01*
X17263546Y5536842D01*
X17265850Y5552640D01*
X17270500Y5584514D01*
X17270500Y5945486D01*
X17269869Y5949777D01*
X17261138Y6009079D01*
X17260431Y6013884D01*
X17209372Y6117880D01*
X17202766Y6124475D01*
X17131035Y6196080D01*
X17127379Y6199730D01*
X17125963Y6200422D01*
X17101430Y6239681D01*
X17112188Y6286291D01*
X17125172Y6299299D01*
X17127880Y6300628D01*
X17132420Y6305176D01*
X17206082Y6378966D01*
X17206084Y6378968D01*
X17209730Y6382621D01*
X17260608Y6486706D01*
X17270500Y6554514D01*
X17270500Y6915486D01*
X17268096Y6931820D01*
X17264258Y6957887D01*
X17260431Y6983884D01*
X17209372Y7087880D01*
X17189037Y7108180D01*
X17131034Y7166082D01*
X17131032Y7166084D01*
X17127379Y7169730D01*
X17122738Y7171999D01*
X17122736Y7172000D01*
X17110552Y7177956D01*
X17078887Y7213810D01*
X17075500Y7234106D01*
X17075500Y7439072D01*
X17093806Y7483266D01*
X17143904Y7533364D01*
X17188098Y7551670D01*
X17232292Y7533364D01*
X17238662Y7525906D01*
X17244953Y7517247D01*
X17326248Y7435952D01*
X17334109Y7430241D01*
X17436545Y7378047D01*
X17445789Y7375043D01*
X17530766Y7361584D01*
X17535653Y7361200D01*
X17564769Y7361200D01*
X17573559Y7364841D01*
X17577200Y7373631D01*
X17577200Y7373632D01*
X17831200Y7373632D01*
X17834841Y7364842D01*
X17843631Y7361201D01*
X17872746Y7361201D01*
X17877634Y7361586D01*
X17962612Y7375044D01*
X17971853Y7378046D01*
X18074291Y7430241D01*
X18082152Y7435952D01*
X18163448Y7517248D01*
X18169159Y7525109D01*
X18221353Y7627545D01*
X18224357Y7636789D01*
X18237816Y7721766D01*
X18238200Y7726653D01*
X18238200Y7785769D01*
X18234559Y7794559D01*
X18225769Y7798200D01*
X17843631Y7798200D01*
X17834841Y7794559D01*
X17831200Y7785769D01*
X17831200Y7373632D01*
X17577200Y7373632D01*
X17577200Y7989700D01*
X17595506Y8033894D01*
X17639700Y8052200D01*
X18225768Y8052200D01*
X18234558Y8055841D01*
X18238199Y8064631D01*
X18238199Y8123746D01*
X18237814Y8128634D01*
X18224356Y8213612D01*
X18221354Y8222853D01*
X18169159Y8325291D01*
X18163448Y8333152D01*
X18092611Y8403989D01*
X18074305Y8448183D01*
X18092572Y8492338D01*
X18141518Y8541370D01*
X18160282Y8560166D01*
X18160284Y8560168D01*
X18163930Y8563821D01*
X18193786Y8624900D01*
X18212677Y8663546D01*
X18212677Y8663547D01*
X18214808Y8667906D01*
X18224700Y8735714D01*
X18224700Y9146686D01*
X18214631Y9215084D01*
X18163572Y9319080D01*
X18159918Y9322728D01*
X18085234Y9397282D01*
X18085232Y9397284D01*
X18081579Y9400930D01*
X18012526Y9434684D01*
X17981854Y9449677D01*
X17981853Y9449677D01*
X17977494Y9451808D01*
X17972691Y9452509D01*
X17972690Y9452509D01*
X17951935Y9455537D01*
X17909686Y9461700D01*
X17548714Y9461700D01*
X17546467Y9461369D01*
X17546464Y9461369D01*
X17533844Y9459511D01*
X17480316Y9451631D01*
X17376320Y9400572D01*
X17372674Y9396920D01*
X17372673Y9396919D01*
X17343722Y9367917D01*
X17294470Y9318579D01*
X17293778Y9317163D01*
X17254519Y9292630D01*
X17207909Y9303388D01*
X17194901Y9316372D01*
X17193572Y9319080D01*
X17189918Y9322728D01*
X17115234Y9397282D01*
X17115232Y9397284D01*
X17111579Y9400930D01*
X17042526Y9434684D01*
X17011854Y9449677D01*
X17011853Y9449677D01*
X17007494Y9451808D01*
X17002691Y9452509D01*
X17002690Y9452509D01*
X16981935Y9455537D01*
X16939686Y9461700D01*
X16578714Y9461700D01*
X16576467Y9461369D01*
X16576464Y9461369D01*
X16563844Y9459511D01*
X16510316Y9451631D01*
X16406320Y9400572D01*
X16402674Y9396920D01*
X16402673Y9396919D01*
X16328118Y9322234D01*
X16328116Y9322232D01*
X16324470Y9318579D01*
X16322202Y9313940D01*
X16322201Y9313938D01*
X16320741Y9310951D01*
X16284885Y9279287D01*
X16264591Y9275900D01*
X16172584Y9275900D01*
X16128390Y9294206D01*
X16116481Y9310855D01*
X16110894Y9322234D01*
X16099972Y9344480D01*
X16096318Y9348128D01*
X16096316Y9348131D01*
X16028997Y9415333D01*
X16010653Y9459511D01*
X16028959Y9503759D01*
X16099848Y9574648D01*
X16105559Y9582509D01*
X16157753Y9684945D01*
X16160757Y9694189D01*
X16174216Y9779166D01*
X16174600Y9784053D01*
X16174600Y9843169D01*
X16170959Y9851959D01*
X16162169Y9855600D01*
X15576100Y9855600D01*
X15531906Y9873906D01*
X15513600Y9918100D01*
X15513600Y10122031D01*
X15767600Y10122031D01*
X15771241Y10113241D01*
X15780031Y10109600D01*
X16162168Y10109600D01*
X16170958Y10113241D01*
X16174599Y10122031D01*
X16174599Y10181146D01*
X16174214Y10186034D01*
X16160756Y10271012D01*
X16157754Y10280253D01*
X16105559Y10382691D01*
X16099848Y10390552D01*
X16018552Y10471848D01*
X16010691Y10477559D01*
X15908255Y10529753D01*
X15899011Y10532757D01*
X15814034Y10546216D01*
X15809147Y10546600D01*
X15780031Y10546600D01*
X15771241Y10542959D01*
X15767600Y10534169D01*
X15767600Y10122031D01*
X15513600Y10122031D01*
X15513600Y10534168D01*
X15509959Y10542958D01*
X15501169Y10546599D01*
X15472054Y10546599D01*
X15467166Y10546214D01*
X15382188Y10532756D01*
X15372947Y10529754D01*
X15270509Y10477559D01*
X15262648Y10471848D01*
X15181353Y10390553D01*
X15175062Y10381894D01*
X15134275Y10356900D01*
X15087762Y10368066D01*
X15080304Y10374436D01*
X15018916Y10435824D01*
X15013961Y10438134D01*
X15013959Y10438136D01*
X14959955Y10463318D01*
X14910087Y10486572D01*
X14889639Y10489264D01*
X14862532Y10492833D01*
X14862526Y10492833D01*
X14860501Y10493100D01*
X14858454Y10493100D01*
X14680116Y10493099D01*
X14500700Y10493099D01*
X14498688Y10492834D01*
X14498685Y10492834D01*
X14455853Y10487196D01*
X14455852Y10487196D01*
X14451113Y10486572D01*
X14446779Y10484551D01*
X14347241Y10438136D01*
X14347239Y10438134D01*
X14342284Y10435824D01*
X14257376Y10350916D01*
X14255066Y10345961D01*
X14255064Y10345959D01*
X14246892Y10328434D01*
X14206628Y10242087D01*
X14200100Y10192501D01*
X14200101Y9772700D01*
X14206628Y9723113D01*
X14208649Y9718779D01*
X14255064Y9619241D01*
X14255066Y9619239D01*
X14257376Y9614284D01*
X14342284Y9529376D01*
X14344253Y9528458D01*
X14369151Y9489376D01*
X14370100Y9478523D01*
X14370100Y9476652D01*
X14351794Y9432458D01*
X14346109Y9427636D01*
X14342720Y9425972D01*
X14316408Y9399614D01*
X14264518Y9347634D01*
X14264516Y9347632D01*
X14260870Y9343979D01*
X14251706Y9325231D01*
X14227244Y9275188D01*
X14191389Y9243522D01*
X14143646Y9246484D01*
X14126899Y9258441D01*
X14097316Y9288024D01*
X14092361Y9290334D01*
X14092359Y9290336D01*
X14040654Y9314446D01*
X13988487Y9338772D01*
X13971488Y9341010D01*
X13940932Y9345033D01*
X13940926Y9345033D01*
X13938901Y9345300D01*
X13936854Y9345300D01*
X13728435Y9345299D01*
X13519100Y9345299D01*
X13517088Y9345034D01*
X13517085Y9345034D01*
X13474253Y9339396D01*
X13474252Y9339396D01*
X13469513Y9338772D01*
X13465179Y9336751D01*
X13365641Y9290336D01*
X13365639Y9290334D01*
X13360684Y9288024D01*
X13309266Y9236606D01*
X13265072Y9218300D01*
X13263030Y9218300D01*
X13218836Y9236606D01*
X13206927Y9253256D01*
X13200649Y9266044D01*
X13200646Y9266048D01*
X13198372Y9270680D01*
X13189750Y9279287D01*
X13120034Y9348882D01*
X13120032Y9348884D01*
X13116379Y9352530D01*
X13084652Y9368038D01*
X13016654Y9401277D01*
X13016653Y9401277D01*
X13012294Y9403408D01*
X13007491Y9404109D01*
X13007490Y9404109D01*
X12986735Y9407137D01*
X12944486Y9413300D01*
X12583514Y9413300D01*
X12581267Y9412969D01*
X12581264Y9412969D01*
X12557278Y9409438D01*
X12515116Y9403231D01*
X12411120Y9352172D01*
X12407474Y9348520D01*
X12407473Y9348519D01*
X12376988Y9317980D01*
X12329270Y9270179D01*
X12328578Y9268763D01*
X12289319Y9244230D01*
X12242709Y9254988D01*
X12229701Y9267972D01*
X12228372Y9270680D01*
X12224718Y9274328D01*
X12150034Y9348882D01*
X12150032Y9348884D01*
X12146379Y9352530D01*
X12114652Y9368038D01*
X12046654Y9401277D01*
X12046653Y9401277D01*
X12042294Y9403408D01*
X12037491Y9404109D01*
X12037490Y9404109D01*
X12016735Y9407137D01*
X11974486Y9413300D01*
X11927801Y9413300D01*
X11883607Y9431606D01*
X11865301Y9475800D01*
X11883607Y9519994D01*
X11887626Y9523677D01*
X11894004Y9529029D01*
X11894005Y9529030D01*
X11898194Y9532545D01*
X11918425Y9567586D01*
X11921350Y9572178D01*
X11941420Y9600840D01*
X11941420Y9600841D01*
X11944554Y9605316D01*
X11946188Y9611414D01*
X11952432Y9626487D01*
X11952852Y9627215D01*
X11952853Y9627218D01*
X11955588Y9631955D01*
X11956537Y9637339D01*
X11958026Y9641429D01*
X11980194Y9670320D01*
X11983316Y9671776D01*
X12044704Y9733164D01*
X12088898Y9751470D01*
X12133092Y9733164D01*
X12139462Y9725706D01*
X12145753Y9717047D01*
X12227048Y9635752D01*
X12234909Y9630041D01*
X12337345Y9577847D01*
X12346589Y9574843D01*
X12431566Y9561384D01*
X12436453Y9561000D01*
X12465569Y9561000D01*
X12474359Y9564641D01*
X12478000Y9573431D01*
X12478000Y9573432D01*
X12732000Y9573432D01*
X12735641Y9564642D01*
X12744431Y9561001D01*
X12773546Y9561001D01*
X12778434Y9561386D01*
X12863412Y9574844D01*
X12872653Y9577846D01*
X12975091Y9630041D01*
X12982952Y9635752D01*
X13064248Y9717048D01*
X13069959Y9724909D01*
X13122153Y9827345D01*
X13125157Y9836589D01*
X13138616Y9921566D01*
X13139000Y9926453D01*
X13139000Y9985569D01*
X13135359Y9994359D01*
X13126569Y9998000D01*
X12744431Y9998000D01*
X12735641Y9994359D01*
X12732000Y9985569D01*
X12732000Y9573432D01*
X12478000Y9573432D01*
X12478000Y10264431D01*
X12732000Y10264431D01*
X12735641Y10255641D01*
X12744431Y10252000D01*
X13126568Y10252000D01*
X13135358Y10255641D01*
X13138999Y10264431D01*
X13138999Y10323546D01*
X13138614Y10328434D01*
X13125156Y10413412D01*
X13122154Y10422653D01*
X13069959Y10525091D01*
X13064248Y10532952D01*
X13016394Y10580806D01*
X12998088Y10625000D01*
X13016394Y10669194D01*
X13089248Y10742048D01*
X13094959Y10749909D01*
X13147153Y10852345D01*
X13150157Y10861589D01*
X13163616Y10946566D01*
X13164000Y10951453D01*
X13164000Y11010569D01*
X13160359Y11019359D01*
X13151569Y11023000D01*
X12769431Y11023000D01*
X12760641Y11019359D01*
X12757000Y11010569D01*
X12757000Y10592967D01*
X12738694Y10548773D01*
X12738146Y10548407D01*
X12732000Y10533569D01*
X12732000Y10264431D01*
X12478000Y10264431D01*
X12478000Y10682033D01*
X12496306Y10726227D01*
X12496854Y10726593D01*
X12503000Y10741431D01*
X12503000Y11289431D01*
X12757000Y11289431D01*
X12760641Y11280641D01*
X12769431Y11277000D01*
X13151568Y11277000D01*
X13160358Y11280641D01*
X13163999Y11289431D01*
X13163999Y11348546D01*
X13163614Y11353434D01*
X13150156Y11438412D01*
X13147154Y11447653D01*
X13094959Y11550091D01*
X13089248Y11557952D01*
X13007952Y11639248D01*
X13000091Y11644959D01*
X12897655Y11697153D01*
X12888411Y11700157D01*
X12803434Y11713616D01*
X12798547Y11714000D01*
X12769431Y11714000D01*
X12760641Y11710359D01*
X12757000Y11701569D01*
X12757000Y11289431D01*
X12503000Y11289431D01*
X12503000Y11701568D01*
X12499359Y11710358D01*
X12490569Y11713999D01*
X12461454Y11713999D01*
X12456566Y11713614D01*
X12371588Y11700156D01*
X12362347Y11697154D01*
X12259909Y11644959D01*
X12252048Y11639248D01*
X12227194Y11614394D01*
X12183000Y11596088D01*
X12138806Y11614394D01*
X12120500Y11658588D01*
X12120500Y12101927D01*
X12120933Y12109273D01*
X12124815Y12142073D01*
X12125364Y12146711D01*
X12114639Y12205437D01*
X12114329Y12207294D01*
X12105449Y12266362D01*
X12103424Y12270578D01*
X12102827Y12272519D01*
X12102753Y12272820D01*
X12102639Y12273173D01*
X12102520Y12273463D01*
X12101863Y12275381D01*
X12101025Y12279973D01*
X12098875Y12284112D01*
X12098873Y12284118D01*
X12073524Y12332917D01*
X12072647Y12334672D01*
X12048831Y12384268D01*
X12046809Y12388479D01*
X12043638Y12391909D01*
X12042494Y12393593D01*
X12042163Y12394147D01*
X12040219Y12397031D01*
X12038579Y12400189D01*
X12034275Y12405228D01*
X11996151Y12443352D01*
X11994450Y12445121D01*
X11983272Y12457213D01*
X11954854Y12487956D01*
X11950814Y12490303D01*
X11947169Y12493223D01*
X11947410Y12493524D01*
X11941205Y12498298D01*
X11693797Y12745706D01*
X11675491Y12789900D01*
X11693797Y12834094D01*
X11737991Y12852400D01*
X18784300Y12852400D01*
X18828494Y12834094D01*
G37*
%TD.AperFunction*%
%TA.AperFunction,Conductor*%
G36*
X2707879Y6815469D02*
G01*
X2722500Y6775296D01*
X2722500Y4986714D01*
X2704194Y4942520D01*
X2645480Y4883806D01*
X2601286Y4865500D01*
X2045279Y4865500D01*
X2001085Y4883806D01*
X1986310Y4907291D01*
X1954185Y4998770D01*
X1954182Y4998775D01*
X1952634Y5003184D01*
X1872150Y5112150D01*
X1855123Y5124727D01*
X1830450Y5165708D01*
X1841981Y5212132D01*
X1855123Y5225274D01*
X1855151Y5225294D01*
X1872150Y5237850D01*
X1952634Y5346816D01*
X1954655Y5352569D01*
X1996257Y5471038D01*
X1997519Y5474631D01*
X1999988Y5500747D01*
X2000362Y5504702D01*
X2000362Y5504710D01*
X2000500Y5506166D01*
X2000500Y6113834D01*
X1999820Y6121034D01*
X1998747Y6132375D01*
X1997519Y6145369D01*
X1974506Y6210900D01*
X1954183Y6268774D01*
X1954182Y6268776D01*
X1952634Y6273184D01*
X1872150Y6382150D01*
X1855123Y6394727D01*
X1830450Y6435708D01*
X1841981Y6482132D01*
X1855123Y6495274D01*
X1866468Y6503653D01*
X1872150Y6507850D01*
X1952634Y6616816D01*
X1954182Y6621225D01*
X1954185Y6621230D01*
X1986310Y6712709D01*
X2018225Y6748341D01*
X2045279Y6754500D01*
X2396236Y6754500D01*
X2401683Y6754262D01*
X2441984Y6750736D01*
X2447264Y6752151D01*
X2447266Y6752151D01*
X2481060Y6761207D01*
X2486381Y6762387D01*
X2526222Y6769412D01*
X2530956Y6772145D01*
X2530961Y6772147D01*
X2531690Y6772568D01*
X2546763Y6778812D01*
X2547582Y6779031D01*
X2547584Y6779032D01*
X2552861Y6780446D01*
X2585999Y6803650D01*
X2590591Y6806575D01*
X2625631Y6826806D01*
X2626511Y6825282D01*
X2665449Y6837558D01*
X2707879Y6815469D01*
G37*
%TD.AperFunction*%
%TA.AperFunction,Conductor*%
G36*
X7103783Y12112194D02*
G01*
X7122089Y12068000D01*
X7121319Y12058223D01*
X7114385Y12014446D01*
X7114000Y12009547D01*
X7114000Y11950431D01*
X7117641Y11941641D01*
X7126431Y11938000D01*
X7712500Y11938000D01*
X7756694Y11919694D01*
X7775000Y11875500D01*
X7775000Y11746500D01*
X7756694Y11702306D01*
X7712500Y11684000D01*
X7126432Y11684000D01*
X7117642Y11680359D01*
X7114001Y11671569D01*
X7114001Y11612454D01*
X7114386Y11607566D01*
X7127844Y11522588D01*
X7130846Y11513347D01*
X7183041Y11410909D01*
X7188752Y11403048D01*
X7270048Y11321752D01*
X7277909Y11316041D01*
X7308451Y11300479D01*
X7339518Y11264105D01*
X7335765Y11216417D01*
X7327895Y11205585D01*
X7326888Y11204912D01*
X7323469Y11199795D01*
X7273573Y11125120D01*
X7268760Y11117917D01*
X7253500Y11041201D01*
X7253500Y10978300D01*
X7235194Y10934106D01*
X7191000Y10915800D01*
X5964103Y10915800D01*
X5958656Y10916038D01*
X5923808Y10919087D01*
X5923806Y10919087D01*
X5918363Y10919563D01*
X5913086Y10918149D01*
X5913085Y10918149D01*
X5879279Y10909091D01*
X5873961Y10907913D01*
X5834125Y10900888D01*
X5829388Y10898153D01*
X5829387Y10898153D01*
X5828654Y10897730D01*
X5813589Y10891490D01*
X5812769Y10891270D01*
X5812768Y10891269D01*
X5807486Y10889854D01*
X5803009Y10886719D01*
X5774348Y10866650D01*
X5769756Y10863725D01*
X5734715Y10843494D01*
X5731200Y10839305D01*
X5708706Y10812498D01*
X5705022Y10808478D01*
X5400350Y10503806D01*
X5356156Y10485500D01*
X3291472Y10485500D01*
X3286025Y10485738D01*
X3276492Y10486572D01*
X3245724Y10489264D01*
X3206626Y10478788D01*
X3201350Y10477618D01*
X3161485Y10470588D01*
X3156752Y10467856D01*
X3156748Y10467854D01*
X3156017Y10467432D01*
X3140944Y10461188D01*
X3140125Y10460969D01*
X3140123Y10460968D01*
X3134846Y10459554D01*
X3130371Y10456420D01*
X3130370Y10456420D01*
X3101708Y10436350D01*
X3097116Y10433425D01*
X3062075Y10413194D01*
X3058560Y10409005D01*
X3036066Y10382198D01*
X3032382Y10378178D01*
X2107194Y9452990D01*
X2063000Y9434684D01*
X2018806Y9452990D01*
X2000500Y9497184D01*
X2000500Y9923834D01*
X2000253Y9926453D01*
X1997877Y9951578D01*
X1997519Y9955369D01*
X1961957Y10056637D01*
X1954183Y10078774D01*
X1954182Y10078776D01*
X1952634Y10083184D01*
X1908643Y10142743D01*
X1897111Y10189168D01*
X1924191Y10231842D01*
X1939436Y10242029D01*
X1939438Y10242031D01*
X1944552Y10245448D01*
X1961634Y10271012D01*
X1985449Y10306653D01*
X1985450Y10306655D01*
X1988867Y10311769D01*
X1993469Y10334901D01*
X1999901Y10367239D01*
X1999901Y10367242D01*
X2000500Y10370252D01*
X2000500Y11409748D01*
X1997760Y11423525D01*
X1990068Y11462195D01*
X1990067Y11462197D01*
X1988867Y11468231D01*
X1985131Y11473823D01*
X1947969Y11529438D01*
X1944552Y11534552D01*
X1921297Y11550091D01*
X1883347Y11575449D01*
X1883345Y11575450D01*
X1878231Y11578867D01*
X1872195Y11580068D01*
X1872194Y11580068D01*
X1850807Y11584322D01*
X1811033Y11610898D01*
X1800500Y11645621D01*
X1800500Y11821414D01*
X1818806Y11865608D01*
X1863000Y11883914D01*
X1907156Y11865647D01*
X1953966Y11818918D01*
X1953968Y11818916D01*
X1957621Y11815270D01*
X2061706Y11764392D01*
X2066509Y11763691D01*
X2066510Y11763691D01*
X2087265Y11760663D01*
X2129514Y11754500D01*
X2243798Y11754500D01*
X2287992Y11736194D01*
X3032154Y10992032D01*
X3035803Y10988054D01*
X3066570Y10951452D01*
X3113173Y10920431D01*
X3115983Y10918444D01*
X3160776Y10884873D01*
X3164946Y10883310D01*
X3164951Y10883307D01*
X3167368Y10882401D01*
X3180054Y10875910D01*
X3185913Y10872010D01*
X3222429Y10860602D01*
X3239304Y10855330D01*
X3242605Y10854197D01*
X3290853Y10836110D01*
X3295020Y10834548D01*
X3299457Y10834218D01*
X3299459Y10834218D01*
X3301459Y10834070D01*
X3302036Y10834027D01*
X3316048Y10831354D01*
X3318505Y10830586D01*
X3318508Y10830585D01*
X3322757Y10829258D01*
X3327209Y10829176D01*
X3327211Y10829176D01*
X3378692Y10828232D01*
X3382177Y10828071D01*
X3433550Y10824254D01*
X3437992Y10823924D01*
X3444874Y10825393D01*
X3459065Y10826759D01*
X3460504Y10826733D01*
X3466099Y10826630D01*
X3520094Y10841351D01*
X3523460Y10842169D01*
X3578199Y10853853D01*
X3582120Y10855969D01*
X3582124Y10855970D01*
X3584397Y10857196D01*
X3597626Y10862488D01*
X3598927Y10862843D01*
X3604417Y10864340D01*
X3629733Y10879884D01*
X3652095Y10893614D01*
X3655118Y10895356D01*
X3699827Y10919480D01*
X3704371Y10921932D01*
X3707537Y10925060D01*
X3707544Y10925065D01*
X3709377Y10926876D01*
X3720594Y10935672D01*
X3722796Y10937024D01*
X3722801Y10937028D01*
X3726591Y10939355D01*
X3764135Y10980833D01*
X3766548Y10983354D01*
X3803193Y11019554D01*
X3803194Y11019556D01*
X3806363Y11022686D01*
X3809782Y11028841D01*
X3818078Y11040429D01*
X3819813Y11042345D01*
X3819816Y11042349D01*
X3822800Y11045646D01*
X3846100Y11093737D01*
X3847189Y11095984D01*
X3848798Y11099082D01*
X3863261Y11125120D01*
X3888219Y11149775D01*
X3979855Y11199220D01*
X3979858Y11199222D01*
X3983770Y11201333D01*
X3986933Y11204457D01*
X3986935Y11204459D01*
X4047053Y11263847D01*
X4085763Y11302086D01*
X4155378Y11427417D01*
X4183458Y11551513D01*
X4186035Y11562903D01*
X4186035Y11562904D01*
X4187018Y11567248D01*
X4186742Y11571697D01*
X4186455Y11576333D01*
X4201991Y11621575D01*
X4248835Y11642700D01*
X4852212Y11642700D01*
X4896406Y11624394D01*
X4914177Y11588357D01*
X4918402Y11556259D01*
X4918404Y11556251D01*
X4919028Y11551513D01*
X4921049Y11547179D01*
X4967464Y11447641D01*
X4967466Y11447639D01*
X4969776Y11442684D01*
X5054684Y11357776D01*
X5059639Y11355466D01*
X5059641Y11355464D01*
X5110566Y11331718D01*
X5163513Y11307028D01*
X5180512Y11304790D01*
X5211068Y11300767D01*
X5211074Y11300767D01*
X5213099Y11300500D01*
X5215146Y11300500D01*
X5393484Y11300501D01*
X5572900Y11300501D01*
X5574912Y11300766D01*
X5574915Y11300766D01*
X5617747Y11306404D01*
X5617748Y11306404D01*
X5622487Y11307028D01*
X5641815Y11316041D01*
X5726359Y11355464D01*
X5726361Y11355466D01*
X5731316Y11357776D01*
X5792704Y11419164D01*
X5836898Y11437470D01*
X5881092Y11419164D01*
X5887462Y11411706D01*
X5893753Y11403047D01*
X5975048Y11321752D01*
X5982909Y11316041D01*
X6085345Y11263847D01*
X6094589Y11260843D01*
X6179566Y11247384D01*
X6184453Y11247000D01*
X6213569Y11247000D01*
X6222359Y11250641D01*
X6226000Y11259431D01*
X6226000Y11259432D01*
X6480000Y11259432D01*
X6483641Y11250642D01*
X6492431Y11247001D01*
X6521546Y11247001D01*
X6526434Y11247386D01*
X6611412Y11260844D01*
X6620653Y11263846D01*
X6723091Y11316041D01*
X6730952Y11321752D01*
X6812248Y11403048D01*
X6817959Y11410909D01*
X6870153Y11513345D01*
X6873157Y11522589D01*
X6886616Y11607566D01*
X6887000Y11612453D01*
X6887000Y11671569D01*
X6883359Y11680359D01*
X6874569Y11684000D01*
X6492431Y11684000D01*
X6483641Y11680359D01*
X6480000Y11671569D01*
X6480000Y11259432D01*
X6226000Y11259432D01*
X6226000Y11875500D01*
X6244306Y11919694D01*
X6288500Y11938000D01*
X6874568Y11938000D01*
X6883358Y11941641D01*
X6886999Y11950431D01*
X6886999Y12009546D01*
X6886615Y12014432D01*
X6879679Y12058223D01*
X6890847Y12104737D01*
X6931633Y12129731D01*
X6941410Y12130500D01*
X7059589Y12130500D01*
X7103783Y12112194D01*
G37*
%TD.AperFunction*%
%TA.AperFunction,Conductor*%
G36*
X8283588Y10038331D02*
G01*
X8291359Y10028862D01*
X8326888Y9975688D01*
X8332005Y9972269D01*
X8408764Y9920980D01*
X8408766Y9920979D01*
X8413883Y9917560D01*
X8488880Y9902642D01*
X8490599Y9902300D01*
X8490513Y9901869D01*
X8526604Y9884801D01*
X8714411Y9696994D01*
X8732717Y9652800D01*
X8714411Y9608606D01*
X8623194Y9517389D01*
X8579000Y9499083D01*
X8534806Y9517389D01*
X8148725Y9903470D01*
X8130419Y9947664D01*
X8148725Y9991859D01*
X8194334Y10037467D01*
X8195199Y10038332D01*
X8239394Y10056637D01*
X8283588Y10038331D01*
G37*
%TD.AperFunction*%
%TA.AperFunction,Conductor*%
G36*
X7973357Y10076077D02*
G01*
X7982828Y10068304D01*
X8013666Y10037466D01*
X8059275Y9991858D01*
X8077581Y9947664D01*
X8059275Y9903470D01*
X7673194Y9517389D01*
X7629000Y9499083D01*
X7584806Y9517389D01*
X7493589Y9608606D01*
X7475283Y9652800D01*
X7493589Y9696994D01*
X7693310Y9896715D01*
X7725313Y9913820D01*
X7744117Y9917560D01*
X7831112Y9975688D01*
X7886668Y10058834D01*
X7926440Y10085409D01*
X7973357Y10076077D01*
G37*
%TD.AperFunction*%
%TA.AperFunction,Conductor*%
G36*
X9685694Y10696994D02*
G01*
X9704000Y10652800D01*
X9704000Y9871300D01*
X9685694Y9827106D01*
X9641500Y9808800D01*
X9516500Y9808800D01*
X9472306Y9827106D01*
X9454000Y9871300D01*
X9454000Y10652800D01*
X9472306Y10696994D01*
X9516500Y10715300D01*
X9641500Y10715300D01*
X9685694Y10696994D01*
G37*
%TD.AperFunction*%
%TA.AperFunction,Conductor*%
G36*
X10283957Y11481919D02*
G01*
X10313232Y11453648D01*
X10341136Y11398884D01*
X10346847Y11391023D01*
X10427023Y11310847D01*
X10434884Y11305136D01*
X10512688Y11265493D01*
X10543755Y11229119D01*
X10540002Y11181431D01*
X10528508Y11165611D01*
X10169500Y10806603D01*
X10164000Y10801715D01*
X10134390Y10778372D01*
X10108859Y10741431D01*
X10100470Y10729293D01*
X10099335Y10727705D01*
X10070773Y10689035D01*
X10029792Y10664363D01*
X9983367Y10675895D01*
X9958695Y10716876D01*
X9958000Y10726168D01*
X9958000Y11050343D01*
X9957733Y11054421D01*
X9952556Y11093737D01*
X9949910Y11102817D01*
X9904762Y11199638D01*
X9906718Y11200550D01*
X9898098Y11239401D01*
X9923794Y11279749D01*
X9951492Y11290523D01*
X9974832Y11293596D01*
X10000173Y11296932D01*
X10063268Y11326354D01*
X10102447Y11344623D01*
X10102449Y11344624D01*
X10107404Y11346935D01*
X10191065Y11430596D01*
X10200901Y11451689D01*
X10236167Y11484004D01*
X10283957Y11481919D01*
G37*
%TD.AperFunction*%
%TA.AperFunction,Conductor*%
G36*
X1002966Y12834094D02*
G01*
X1021272Y12789900D01*
X1002966Y12745706D01*
X995154Y12739080D01*
X991759Y12736650D01*
X987120Y12734372D01*
X983470Y12730716D01*
X983469Y12730715D01*
X908918Y12656034D01*
X908916Y12656032D01*
X905270Y12652379D01*
X854392Y12548294D01*
X844500Y12480486D01*
X844500Y12457213D01*
X840522Y12435271D01*
X839249Y12431876D01*
X837303Y12427259D01*
X816447Y12382837D01*
X815762Y12378439D01*
X815762Y12378438D01*
X814294Y12369008D01*
X811060Y12356682D01*
X806148Y12343580D01*
X805356Y12332917D01*
X802511Y12294640D01*
X801939Y12289658D01*
X801077Y12284118D01*
X799500Y12273991D01*
X799500Y12256431D01*
X799328Y12251802D01*
X795524Y12200608D01*
X796453Y12196256D01*
X798123Y12188433D01*
X799500Y12175385D01*
X799500Y11653000D01*
X781194Y11608806D01*
X737000Y11590500D01*
X214900Y11590500D01*
X170706Y11608806D01*
X152400Y11653000D01*
X152400Y12789900D01*
X170706Y12834094D01*
X214900Y12852400D01*
X958772Y12852400D01*
X1002966Y12834094D01*
G37*
%TD.AperFunction*%
%TD*%
M02*
