<svg width="371.33999023437497px" height="124.439990234375px" xmlns="http://www.w3.org/2000/svg" viewBox="64.33000488281252 12.780004882812499 371.33999023437497 124.439990234375" style="background: rgba(0, 0, 0, 0) none repeat scroll 0% 0%;" preserveAspectRatio="xMidYMid"><defs><linearGradient id="editing-rainbow-gradient" x1="0" x2="1" y1="0.5" y2="0.5" gradientUnits="objectBoundingBox"><stop offset="0.00" stop-color="#f00"></stop><stop offset="0.17" stop-color="#f90"></stop><stop offset="0.34" stop-color="#ff4"></stop><stop offset="0.51" stop-color="#9f0"></stop><stop offset="0.68" stop-color="#09f"></stop><stop offset="0.85" stop-color="#00f"></stop><stop offset="1.00" stop-color="#90f"></stop></linearGradient><filter id="editing-rainbow" x="-100%" y="-100%" width="300%" height="300%"><feMorphology operator="dilate" radius="1,2" in="SourceGraphic" result="dilate"></feMorphology><feColorMatrix in="dilate" result="color" type="matrix" values="0.7 0 0 0 0  0 0.7 0 0 0  0 0 0.7 0 0  0 0 0 1 0"></feColorMatrix><feOffset dy="2" result="offset"></feOffset><feGaussianBlur stdDeviation="3"></feGaussianBlur><feOffset dy="3"></feOffset><feColorMatrix result="blur" type="matrix" values="0.7 0 0 0 0  0 0.7 0 0 0  0 0 0.7 0 0  0 0 0 1 0"></feColorMatrix><feMerge><feMergeNode in="blur"></feMergeNode><feMergeNode in="offset"></feMergeNode><feMergeNode in="SourceGraphic"></feMergeNode></feMerge></filter></defs><g filter="url(#editing-rainbow)"><g transform="translate(122.47176849842072, 97.43000030517578)"><path d="M30.21-33.92L30.21-33.92L30.21-33.92Q25.02-33.92 21.25-35.65L21.25-35.65L19.20-25.28L31.55-25.28L31.55-25.28Q31.55-21.89 29.86-19.74L29.86-19.74L29.86-19.74Q28.16-17.60 25.09-17.60L25.09-17.60L25.09-17.60Q21.76-17.60 18.69-18.82L18.69-18.82L18.69-18.82Q18.05-19.07 17.98-19.14L17.98-19.14L14.34 0L0.38 0L8.51-42.24L37.06-42.24L37.06-42.24Q37.06-38.34 35.23-36.13L35.23-36.13L35.23-36.13Q33.41-33.92 30.21-33.92ZM36.67-9.47L36.67-9.47L36.67-9.47Q36.67-11.97 37.31-15.17L37.31-15.17L42.50-42.24L56.64-42.24L51.52-14.98L51.52-14.98Q50.94-11.97 50.94-9.76L50.94-9.76L50.94-9.76Q50.94-7.55 51.87-6.40L51.87-6.40L51.87-6.40Q52.80-5.25 54.53-5.25L54.53-5.25L54.53-5.25Q56.26-5.25 57.34-5.70L57.34-5.70L57.34-5.70Q58.43-6.14 59.33-7.23L59.33-7.23L59.33-7.23Q61.06-9.41 62.14-14.98L62.14-14.98L67.33-42.24L76.99-42.24L71.87-15.04L71.87-15.04Q70.08-5.95 65.15-2.30L65.15-2.30L65.15-2.30Q60.35 1.28 50.88 1.28L50.88 1.28L50.88 1.28Q43.78 1.28 40-1.79L40-1.79L40-1.79Q36.67-4.48 36.67-9.47ZM105.60-9.86L105.60-9.86L105.60-9.86Q106.82-8.32 106.82-5.82L106.82-5.82L106.82-5.82Q106.82-2.37 104.26-0.54L104.26-0.54L104.26-0.54Q101.70 1.28 97.66 1.28L97.66 1.28L97.66 1.28Q95.36 1.28 91.84 0.77L91.84 0.77L91.84 0.77Q84.93-0.32 82.82-0.32L82.82-0.32L82.82-0.32Q80.70-0.32 79.87-0.22L79.87-0.22L79.87-0.22Q79.04-0.13 77.70 0L77.70 0L85.57-42.24L113.15-42.24L113.15-42.24Q113.15-38.34 111.26-36.29L111.26-36.29L111.26-36.29Q109.38-34.24 105.66-34.24L105.66-34.24L105.66-34.24Q101.95-34.24 98.18-35.97L98.18-35.97L96.19-24.77L107.58-24.77L107.58-24.77Q107.58-21.38 105.92-19.49L105.92-19.49L105.92-19.49Q104.26-17.60 101.47-17.60L101.47-17.60L101.47-17.60Q98.69-17.60 96.96-18.24L96.96-18.24L96.96-18.24Q95.23-18.88 95.04-19.07L95.04-19.07L92.74-6.98L92.74-6.98Q94.27-6.78 97.15-6.78L97.15-6.78L97.15-6.78Q102.08-6.78 105.60-9.86ZM139.46-9.86L139.46-9.86L139.46-9.86Q140.67-8.32 140.67-5.34L140.67-5.34L140.67-5.34Q140.67-2.37 138.40-0.54L138.40-0.54L138.40-0.54Q136.13 1.28 132.16 1.28L132.16 1.28L132.16 1.28Q129.86 1.28 126.27 0.77L126.27 0.77L126.27 0.77Q119.23-0.32 117.22-0.32L117.22-0.32L117.22-0.32Q115.20-0.32 114.37-0.22L114.37-0.22L114.37-0.22Q113.54-0.13 112.19 0L112.19 0L119.94-42.24L133.95-42.24L127.55-7.04L127.55-7.04Q128.38-6.91 129.15-6.91L129.15-6.91L130.75-6.91L130.75-6.91Q136.13-6.91 139.46-9.86ZM177.02-16.83L177.02-16.83L177.02-16.83Q177.73-15.49 177.73-12.86L177.73-12.86L177.73-12.86Q177.73-10.24 175.78-8.42L175.78-8.42L175.78-8.42Q173.82-6.59 169.54-6.59L169.54-6.59L169.15-6.59L168.13 0L168.13 0Q166.40 1.28 163.33 1.28L163.33 1.28L163.33 1.28Q159.36 1.28 158.08-1.15L158.08-1.15L158.08-1.15Q157.57-2.05 157.57-2.82L157.57-2.82L157.57-2.82Q157.57-3.71 157.70-4.74L157.70-4.74L158.14-7.17L143.42-8.70L143.42-16.77L167.36-43.58L167.36-43.52L167.42-43.58L176.32-42.62L176.32-42.62Q173.31-30.34 170.75-16.19L170.75-16.19L172.22-16.19L172.22-16.19Q175.87-16.19 177.02-16.83ZM164.16-32.83L150.27-16.64L159.94-16.32L159.94-16.32Q162.05-25.73 164.16-32.83L164.16-32.83ZM208.19-9.86L208.19-9.86L208.19-9.86Q209.41-8.32 209.41-5.82L209.41-5.82L209.41-5.82Q209.41-2.37 206.85-0.54L206.85-0.54L206.85-0.54Q204.29 1.28 200.26 1.28L200.26 1.28L200.26 1.28Q197.95 1.28 194.43 0.77L194.43 0.77L194.43 0.77Q187.52-0.32 185.41-0.32L185.41-0.32L185.41-0.32Q183.30-0.32 182.46-0.22L182.46-0.22L182.46-0.22Q181.63-0.13 180.29 0L180.29 0L188.16-42.24L215.74-42.24L215.74-42.24Q215.74-38.34 213.86-36.29L213.86-36.29L213.86-36.29Q211.97-34.24 208.26-34.24L208.26-34.24L208.26-34.24Q204.54-34.24 200.77-35.97L200.77-35.97L198.78-24.77L210.18-24.77L210.18-24.77Q210.18-21.38 208.51-19.49L208.51-19.49L208.51-19.49Q206.85-17.60 204.06-17.60L204.06-17.60L204.06-17.60Q201.28-17.60 199.55-18.24L199.55-18.24L199.55-18.24Q197.82-18.88 197.63-19.07L197.63-19.07L195.33-6.98L195.33-6.98Q196.86-6.78 199.74-6.78L199.74-6.78L199.74-6.78Q204.67-6.78 208.19-9.86ZM240.32-42.69L240.32-42.69L240.32-42.69Q256-42.69 256-31.62L256-31.62L256-31.62Q256-25.54 252.10-21.89L252.10-21.89L252.10-21.89Q248.26-18.24 241.54-18.24L241.54-18.24L241.54-18.24Q238.40-18.24 235.97-20.03L235.97-20.03L235.97-20.03Q234.82-20.80 234.05-21.82L234.05-21.82L234.05-21.82Q238.72-21.82 241.18-24.67L241.18-24.67L241.18-24.67Q243.65-27.52 243.65-33.09L243.65-33.09L243.65-33.09Q243.65-38.66 238.14-38.66L238.14-38.66L236.61-38.66L236.61-38.66Q236.22-38.66 235.90-38.59L235.90-38.59L228.54 0L214.66 0L222.53-41.92L222.53-41.92Q229.38-42.56 233.34-42.62L233.34-42.62L233.34-42.62Q237.31-42.69 240.32-42.69Z" fill="url(#editing-rainbow-gradient)"></path></g></g><style>text {
  font-size: 64px;
  font-family: Arial Black;
  dominant-baseline: central;
  text-anchor: middle;
}</style></svg>