%TF.GenerationSoftware,KiCad,Pcbnew,8.0.9-8.0.9-0~ubuntu22.04.1*%
%TF.CreationDate,2025-02-27T11:49:03+01:00*%
%TF.ProjectId,HB_Pro_Mini_ATMEGA1284P_FUEL4EP,48425f50-726f-45f4-9d69-6e695f41544d,V1.4*%
%TF.SameCoordinates,Original*%
%TF.FileFunction,Legend,Bot*%
%TF.FilePolarity,Positive*%
%FSLAX46Y46*%
G04 Gerber Fmt 4.6, Leading zero omitted, Abs format (unit mm)*
G04 Created by KiCad (PCBNEW 8.0.9-8.0.9-0~ubuntu22.04.1) date 2025-02-27 11:49:03*
%MOMM*%
%LPD*%
G01*
G04 APERTURE LIST*
%ADD10C,0.152400*%
%ADD11C,0.075000*%
%ADD12C,0.150000*%
%ADD13C,0.010000*%
%ADD14R,1.700000X1.700000*%
%ADD15O,1.700000X1.700000*%
G04 APERTURE END LIST*
D10*
X11979070Y5644991D02*
X11979070Y5144991D01*
X11979070Y5144991D02*
X12012403Y5044991D01*
X12012403Y5044991D02*
X12079070Y4978325D01*
X12079070Y4978325D02*
X12179070Y4944991D01*
X12179070Y4944991D02*
X12245737Y4944991D01*
X11312404Y4944991D02*
X11645737Y4944991D01*
X11645737Y4944991D02*
X11645737Y5644991D01*
X10679070Y5011658D02*
X10712403Y4978325D01*
X10712403Y4978325D02*
X10812403Y4944991D01*
X10812403Y4944991D02*
X10879070Y4944991D01*
X10879070Y4944991D02*
X10979070Y4978325D01*
X10979070Y4978325D02*
X11045737Y5044991D01*
X11045737Y5044991D02*
X11079070Y5111658D01*
X11079070Y5111658D02*
X11112403Y5244991D01*
X11112403Y5244991D02*
X11112403Y5344991D01*
X11112403Y5344991D02*
X11079070Y5478325D01*
X11079070Y5478325D02*
X11045737Y5544991D01*
X11045737Y5544991D02*
X10979070Y5611658D01*
X10979070Y5611658D02*
X10879070Y5644991D01*
X10879070Y5644991D02*
X10812403Y5644991D01*
X10812403Y5644991D02*
X10712403Y5611658D01*
X10712403Y5611658D02*
X10679070Y5578325D01*
X10179070Y5644991D02*
X10179070Y5144991D01*
X10179070Y5144991D02*
X10212403Y5044991D01*
X10212403Y5044991D02*
X10279070Y4978325D01*
X10279070Y4978325D02*
X10379070Y4944991D01*
X10379070Y4944991D02*
X10445737Y4944991D01*
X9512404Y4944991D02*
X9845737Y4944991D01*
X9845737Y4944991D02*
X9845737Y5644991D01*
X8879070Y5011658D02*
X8912403Y4978325D01*
X8912403Y4978325D02*
X9012403Y4944991D01*
X9012403Y4944991D02*
X9079070Y4944991D01*
X9079070Y4944991D02*
X9179070Y4978325D01*
X9179070Y4978325D02*
X9245737Y5044991D01*
X9245737Y5044991D02*
X9279070Y5111658D01*
X9279070Y5111658D02*
X9312403Y5244991D01*
X9312403Y5244991D02*
X9312403Y5344991D01*
X9312403Y5344991D02*
X9279070Y5478325D01*
X9279070Y5478325D02*
X9245737Y5544991D01*
X9245737Y5544991D02*
X9179070Y5611658D01*
X9179070Y5611658D02*
X9079070Y5644991D01*
X9079070Y5644991D02*
X9012403Y5644991D01*
X9012403Y5644991D02*
X8912403Y5611658D01*
X8912403Y5611658D02*
X8879070Y5578325D01*
X8379070Y5644991D02*
X8379070Y5144991D01*
X8379070Y5144991D02*
X8412403Y5044991D01*
X8412403Y5044991D02*
X8479070Y4978325D01*
X8479070Y4978325D02*
X8579070Y4944991D01*
X8579070Y4944991D02*
X8645737Y4944991D01*
X7712404Y4944991D02*
X8045737Y4944991D01*
X8045737Y4944991D02*
X8045737Y5644991D01*
X7079070Y5011658D02*
X7112403Y4978325D01*
X7112403Y4978325D02*
X7212403Y4944991D01*
X7212403Y4944991D02*
X7279070Y4944991D01*
X7279070Y4944991D02*
X7379070Y4978325D01*
X7379070Y4978325D02*
X7445737Y5044991D01*
X7445737Y5044991D02*
X7479070Y5111658D01*
X7479070Y5111658D02*
X7512403Y5244991D01*
X7512403Y5244991D02*
X7512403Y5344991D01*
X7512403Y5344991D02*
X7479070Y5478325D01*
X7479070Y5478325D02*
X7445737Y5544991D01*
X7445737Y5544991D02*
X7379070Y5611658D01*
X7379070Y5611658D02*
X7279070Y5644991D01*
X7279070Y5644991D02*
X7212403Y5644991D01*
X7212403Y5644991D02*
X7112403Y5611658D01*
X7112403Y5611658D02*
X7079070Y5578325D01*
X6579070Y5644991D02*
X6579070Y5144991D01*
X6579070Y5144991D02*
X6612403Y5044991D01*
X6612403Y5044991D02*
X6679070Y4978325D01*
X6679070Y4978325D02*
X6779070Y4944991D01*
X6779070Y4944991D02*
X6845737Y4944991D01*
X5912404Y4944991D02*
X6245737Y4944991D01*
X6245737Y4944991D02*
X6245737Y5644991D01*
X5279070Y5011658D02*
X5312403Y4978325D01*
X5312403Y4978325D02*
X5412403Y4944991D01*
X5412403Y4944991D02*
X5479070Y4944991D01*
X5479070Y4944991D02*
X5579070Y4978325D01*
X5579070Y4978325D02*
X5645737Y5044991D01*
X5645737Y5044991D02*
X5679070Y5111658D01*
X5679070Y5111658D02*
X5712403Y5244991D01*
X5712403Y5244991D02*
X5712403Y5344991D01*
X5712403Y5344991D02*
X5679070Y5478325D01*
X5679070Y5478325D02*
X5645737Y5544991D01*
X5645737Y5544991D02*
X5579070Y5611658D01*
X5579070Y5611658D02*
X5479070Y5644991D01*
X5479070Y5644991D02*
X5412403Y5644991D01*
X5412403Y5644991D02*
X5312403Y5611658D01*
X5312403Y5611658D02*
X5279070Y5578325D01*
X5529191Y7632929D02*
X6229191Y7632929D01*
X5895858Y7632929D02*
X5895858Y8032929D01*
X5529191Y8032929D02*
X6229191Y8032929D01*
X5895858Y8599596D02*
X5862525Y8699596D01*
X5862525Y8699596D02*
X5829191Y8732929D01*
X5829191Y8732929D02*
X5762525Y8766262D01*
X5762525Y8766262D02*
X5662525Y8766262D01*
X5662525Y8766262D02*
X5595858Y8732929D01*
X5595858Y8732929D02*
X5562525Y8699596D01*
X5562525Y8699596D02*
X5529191Y8632929D01*
X5529191Y8632929D02*
X5529191Y8366262D01*
X5529191Y8366262D02*
X6229191Y8366262D01*
X6229191Y8366262D02*
X6229191Y8599596D01*
X6229191Y8599596D02*
X6195858Y8666262D01*
X6195858Y8666262D02*
X6162525Y8699596D01*
X6162525Y8699596D02*
X6095858Y8732929D01*
X6095858Y8732929D02*
X6029191Y8732929D01*
X6029191Y8732929D02*
X5962525Y8699596D01*
X5962525Y8699596D02*
X5929191Y8666262D01*
X5929191Y8666262D02*
X5895858Y8599596D01*
X5895858Y8599596D02*
X5895858Y8366262D01*
X5462525Y8899596D02*
X5462525Y9432929D01*
X5529191Y9599595D02*
X6229191Y9599595D01*
X6229191Y9599595D02*
X6229191Y9866262D01*
X6229191Y9866262D02*
X6195858Y9932929D01*
X6195858Y9932929D02*
X6162525Y9966262D01*
X6162525Y9966262D02*
X6095858Y9999595D01*
X6095858Y9999595D02*
X5995858Y9999595D01*
X5995858Y9999595D02*
X5929191Y9966262D01*
X5929191Y9966262D02*
X5895858Y9932929D01*
X5895858Y9932929D02*
X5862525Y9866262D01*
X5862525Y9866262D02*
X5862525Y9599595D01*
X5529191Y10299595D02*
X5995858Y10299595D01*
X5862525Y10299595D02*
X5929191Y10332929D01*
X5929191Y10332929D02*
X5962525Y10366262D01*
X5962525Y10366262D02*
X5995858Y10432929D01*
X5995858Y10432929D02*
X5995858Y10499595D01*
X5529191Y10832928D02*
X5562525Y10766262D01*
X5562525Y10766262D02*
X5595858Y10732928D01*
X5595858Y10732928D02*
X5662525Y10699595D01*
X5662525Y10699595D02*
X5862525Y10699595D01*
X5862525Y10699595D02*
X5929191Y10732928D01*
X5929191Y10732928D02*
X5962525Y10766262D01*
X5962525Y10766262D02*
X5995858Y10832928D01*
X5995858Y10832928D02*
X5995858Y10932928D01*
X5995858Y10932928D02*
X5962525Y10999595D01*
X5962525Y10999595D02*
X5929191Y11032928D01*
X5929191Y11032928D02*
X5862525Y11066262D01*
X5862525Y11066262D02*
X5662525Y11066262D01*
X5662525Y11066262D02*
X5595858Y11032928D01*
X5595858Y11032928D02*
X5562525Y10999595D01*
X5562525Y10999595D02*
X5529191Y10932928D01*
X5529191Y10932928D02*
X5529191Y10832928D01*
X5462525Y11199595D02*
X5462525Y11732928D01*
X5529191Y11899594D02*
X6229191Y11899594D01*
X6229191Y11899594D02*
X5729191Y12132928D01*
X5729191Y12132928D02*
X6229191Y12366261D01*
X6229191Y12366261D02*
X5529191Y12366261D01*
X5529191Y12699594D02*
X5995858Y12699594D01*
X6229191Y12699594D02*
X6195858Y12666261D01*
X6195858Y12666261D02*
X6162525Y12699594D01*
X6162525Y12699594D02*
X6195858Y12732928D01*
X6195858Y12732928D02*
X6229191Y12699594D01*
X6229191Y12699594D02*
X6162525Y12699594D01*
X5995858Y13032927D02*
X5529191Y13032927D01*
X5929191Y13032927D02*
X5962525Y13066261D01*
X5962525Y13066261D02*
X5995858Y13132927D01*
X5995858Y13132927D02*
X5995858Y13232927D01*
X5995858Y13232927D02*
X5962525Y13299594D01*
X5962525Y13299594D02*
X5895858Y13332927D01*
X5895858Y13332927D02*
X5529191Y13332927D01*
X5529191Y13666260D02*
X5995858Y13666260D01*
X6229191Y13666260D02*
X6195858Y13632927D01*
X6195858Y13632927D02*
X6162525Y13666260D01*
X6162525Y13666260D02*
X6195858Y13699594D01*
X6195858Y13699594D02*
X6229191Y13666260D01*
X6229191Y13666260D02*
X6162525Y13666260D01*
X5462525Y13832927D02*
X5462525Y14366260D01*
X5729191Y14499593D02*
X5729191Y14832926D01*
X5529191Y14432926D02*
X6229191Y14666260D01*
X6229191Y14666260D02*
X5529191Y14899593D01*
X6229191Y15032926D02*
X6229191Y15432926D01*
X5529191Y15232926D02*
X6229191Y15232926D01*
X5529191Y15666259D02*
X6229191Y15666259D01*
X6229191Y15666259D02*
X5729191Y15899593D01*
X5729191Y15899593D02*
X6229191Y16132926D01*
X6229191Y16132926D02*
X5529191Y16132926D01*
X5895858Y16466259D02*
X5895858Y16699593D01*
X5529191Y16799593D02*
X5529191Y16466259D01*
X5529191Y16466259D02*
X6229191Y16466259D01*
X6229191Y16466259D02*
X6229191Y16799593D01*
X6195858Y17466259D02*
X6229191Y17399592D01*
X6229191Y17399592D02*
X6229191Y17299592D01*
X6229191Y17299592D02*
X6195858Y17199592D01*
X6195858Y17199592D02*
X6129191Y17132926D01*
X6129191Y17132926D02*
X6062525Y17099592D01*
X6062525Y17099592D02*
X5929191Y17066259D01*
X5929191Y17066259D02*
X5829191Y17066259D01*
X5829191Y17066259D02*
X5695858Y17099592D01*
X5695858Y17099592D02*
X5629191Y17132926D01*
X5629191Y17132926D02*
X5562525Y17199592D01*
X5562525Y17199592D02*
X5529191Y17299592D01*
X5529191Y17299592D02*
X5529191Y17366259D01*
X5529191Y17366259D02*
X5562525Y17466259D01*
X5562525Y17466259D02*
X5595858Y17499592D01*
X5595858Y17499592D02*
X5829191Y17499592D01*
X5829191Y17499592D02*
X5829191Y17366259D01*
X5729191Y17766259D02*
X5729191Y18099592D01*
X5529191Y17699592D02*
X6229191Y17932926D01*
X6229191Y17932926D02*
X5529191Y18166259D01*
X5529191Y18766259D02*
X5529191Y18366259D01*
X5529191Y18566259D02*
X6229191Y18566259D01*
X6229191Y18566259D02*
X6129191Y18499592D01*
X6129191Y18499592D02*
X6062525Y18432926D01*
X6062525Y18432926D02*
X6029191Y18366259D01*
X6162525Y19032926D02*
X6195858Y19066259D01*
X6195858Y19066259D02*
X6229191Y19132926D01*
X6229191Y19132926D02*
X6229191Y19299593D01*
X6229191Y19299593D02*
X6195858Y19366259D01*
X6195858Y19366259D02*
X6162525Y19399593D01*
X6162525Y19399593D02*
X6095858Y19432926D01*
X6095858Y19432926D02*
X6029191Y19432926D01*
X6029191Y19432926D02*
X5929191Y19399593D01*
X5929191Y19399593D02*
X5529191Y18999593D01*
X5529191Y18999593D02*
X5529191Y19432926D01*
X5929191Y19832926D02*
X5962525Y19766260D01*
X5962525Y19766260D02*
X5995858Y19732926D01*
X5995858Y19732926D02*
X6062525Y19699593D01*
X6062525Y19699593D02*
X6095858Y19699593D01*
X6095858Y19699593D02*
X6162525Y19732926D01*
X6162525Y19732926D02*
X6195858Y19766260D01*
X6195858Y19766260D02*
X6229191Y19832926D01*
X6229191Y19832926D02*
X6229191Y19966260D01*
X6229191Y19966260D02*
X6195858Y20032926D01*
X6195858Y20032926D02*
X6162525Y20066260D01*
X6162525Y20066260D02*
X6095858Y20099593D01*
X6095858Y20099593D02*
X6062525Y20099593D01*
X6062525Y20099593D02*
X5995858Y20066260D01*
X5995858Y20066260D02*
X5962525Y20032926D01*
X5962525Y20032926D02*
X5929191Y19966260D01*
X5929191Y19966260D02*
X5929191Y19832926D01*
X5929191Y19832926D02*
X5895858Y19766260D01*
X5895858Y19766260D02*
X5862525Y19732926D01*
X5862525Y19732926D02*
X5795858Y19699593D01*
X5795858Y19699593D02*
X5662525Y19699593D01*
X5662525Y19699593D02*
X5595858Y19732926D01*
X5595858Y19732926D02*
X5562525Y19766260D01*
X5562525Y19766260D02*
X5529191Y19832926D01*
X5529191Y19832926D02*
X5529191Y19966260D01*
X5529191Y19966260D02*
X5562525Y20032926D01*
X5562525Y20032926D02*
X5595858Y20066260D01*
X5595858Y20066260D02*
X5662525Y20099593D01*
X5662525Y20099593D02*
X5795858Y20099593D01*
X5795858Y20099593D02*
X5862525Y20066260D01*
X5862525Y20066260D02*
X5895858Y20032926D01*
X5895858Y20032926D02*
X5929191Y19966260D01*
X5995858Y20699593D02*
X5529191Y20699593D01*
X6262525Y20532927D02*
X5762525Y20366260D01*
X5762525Y20366260D02*
X5762525Y20799593D01*
X5529191Y21066260D02*
X6229191Y21066260D01*
X6229191Y21066260D02*
X6229191Y21332927D01*
X6229191Y21332927D02*
X6195858Y21399594D01*
X6195858Y21399594D02*
X6162525Y21432927D01*
X6162525Y21432927D02*
X6095858Y21466260D01*
X6095858Y21466260D02*
X5995858Y21466260D01*
X5995858Y21466260D02*
X5929191Y21432927D01*
X5929191Y21432927D02*
X5895858Y21399594D01*
X5895858Y21399594D02*
X5862525Y21332927D01*
X5862525Y21332927D02*
X5862525Y21066260D01*
X5462525Y21599594D02*
X5462525Y22132927D01*
X5895858Y22532927D02*
X5895858Y22299593D01*
X5529191Y22299593D02*
X6229191Y22299593D01*
X6229191Y22299593D02*
X6229191Y22632927D01*
X6229191Y22899593D02*
X5662525Y22899593D01*
X5662525Y22899593D02*
X5595858Y22932927D01*
X5595858Y22932927D02*
X5562525Y22966260D01*
X5562525Y22966260D02*
X5529191Y23032927D01*
X5529191Y23032927D02*
X5529191Y23166260D01*
X5529191Y23166260D02*
X5562525Y23232927D01*
X5562525Y23232927D02*
X5595858Y23266260D01*
X5595858Y23266260D02*
X5662525Y23299593D01*
X5662525Y23299593D02*
X6229191Y23299593D01*
X5895858Y23632926D02*
X5895858Y23866260D01*
X5529191Y23966260D02*
X5529191Y23632926D01*
X5529191Y23632926D02*
X6229191Y23632926D01*
X6229191Y23632926D02*
X6229191Y23966260D01*
X5529191Y24599593D02*
X5529191Y24266259D01*
X5529191Y24266259D02*
X6229191Y24266259D01*
X5995858Y25132926D02*
X5529191Y25132926D01*
X6262525Y24966260D02*
X5762525Y24799593D01*
X5762525Y24799593D02*
X5762525Y25232926D01*
X5895858Y25499593D02*
X5895858Y25732927D01*
X5529191Y25832927D02*
X5529191Y25499593D01*
X5529191Y25499593D02*
X6229191Y25499593D01*
X6229191Y25499593D02*
X6229191Y25832927D01*
X5529191Y26132926D02*
X6229191Y26132926D01*
X6229191Y26132926D02*
X6229191Y26399593D01*
X6229191Y26399593D02*
X6195858Y26466260D01*
X6195858Y26466260D02*
X6162525Y26499593D01*
X6162525Y26499593D02*
X6095858Y26532926D01*
X6095858Y26532926D02*
X5995858Y26532926D01*
X5995858Y26532926D02*
X5929191Y26499593D01*
X5929191Y26499593D02*
X5895858Y26466260D01*
X5895858Y26466260D02*
X5862525Y26399593D01*
X5862525Y26399593D02*
X5862525Y26132926D01*
D11*
X15774915Y30747757D02*
X15832058Y30776328D01*
X15832058Y30776328D02*
X15917772Y30776328D01*
X15917772Y30776328D02*
X16003486Y30747757D01*
X16003486Y30747757D02*
X16060629Y30690614D01*
X16060629Y30690614D02*
X16089200Y30633471D01*
X16089200Y30633471D02*
X16117772Y30519185D01*
X16117772Y30519185D02*
X16117772Y30433471D01*
X16117772Y30433471D02*
X16089200Y30319185D01*
X16089200Y30319185D02*
X16060629Y30262042D01*
X16060629Y30262042D02*
X16003486Y30204900D01*
X16003486Y30204900D02*
X15917772Y30176328D01*
X15917772Y30176328D02*
X15860629Y30176328D01*
X15860629Y30176328D02*
X15774915Y30204900D01*
X15774915Y30204900D02*
X15746343Y30233471D01*
X15746343Y30233471D02*
X15746343Y30433471D01*
X15746343Y30433471D02*
X15860629Y30433471D01*
X15489200Y30176328D02*
X15489200Y30776328D01*
X15489200Y30776328D02*
X15146343Y30176328D01*
X15146343Y30176328D02*
X15146343Y30776328D01*
X14860629Y30176328D02*
X14860629Y30776328D01*
X14860629Y30776328D02*
X14717772Y30776328D01*
X14717772Y30776328D02*
X14632058Y30747757D01*
X14632058Y30747757D02*
X14574915Y30690614D01*
X14574915Y30690614D02*
X14546344Y30633471D01*
X14546344Y30633471D02*
X14517772Y30519185D01*
X14517772Y30519185D02*
X14517772Y30433471D01*
X14517772Y30433471D02*
X14546344Y30319185D01*
X14546344Y30319185D02*
X14574915Y30262042D01*
X14574915Y30262042D02*
X14632058Y30204900D01*
X14632058Y30204900D02*
X14717772Y30176328D01*
X14717772Y30176328D02*
X14860629Y30176328D01*
X13184115Y30722357D02*
X13241258Y30750928D01*
X13241258Y30750928D02*
X13326972Y30750928D01*
X13326972Y30750928D02*
X13412686Y30722357D01*
X13412686Y30722357D02*
X13469829Y30665214D01*
X13469829Y30665214D02*
X13498400Y30608071D01*
X13498400Y30608071D02*
X13526972Y30493785D01*
X13526972Y30493785D02*
X13526972Y30408071D01*
X13526972Y30408071D02*
X13498400Y30293785D01*
X13498400Y30293785D02*
X13469829Y30236642D01*
X13469829Y30236642D02*
X13412686Y30179500D01*
X13412686Y30179500D02*
X13326972Y30150928D01*
X13326972Y30150928D02*
X13269829Y30150928D01*
X13269829Y30150928D02*
X13184115Y30179500D01*
X13184115Y30179500D02*
X13155543Y30208071D01*
X13155543Y30208071D02*
X13155543Y30408071D01*
X13155543Y30408071D02*
X13269829Y30408071D01*
X12898400Y30150928D02*
X12898400Y30750928D01*
X12898400Y30750928D02*
X12555543Y30150928D01*
X12555543Y30150928D02*
X12555543Y30750928D01*
X12269829Y30150928D02*
X12269829Y30750928D01*
X12269829Y30750928D02*
X12126972Y30750928D01*
X12126972Y30750928D02*
X12041258Y30722357D01*
X12041258Y30722357D02*
X11984115Y30665214D01*
X11984115Y30665214D02*
X11955544Y30608071D01*
X11955544Y30608071D02*
X11926972Y30493785D01*
X11926972Y30493785D02*
X11926972Y30408071D01*
X11926972Y30408071D02*
X11955544Y30293785D01*
X11955544Y30293785D02*
X11984115Y30236642D01*
X11984115Y30236642D02*
X12041258Y30179500D01*
X12041258Y30179500D02*
X12126972Y30150928D01*
X12126972Y30150928D02*
X12269829Y30150928D01*
X3236800Y30150928D02*
X3236800Y30750928D01*
X3236800Y30750928D02*
X3093943Y30750928D01*
X3093943Y30750928D02*
X3008229Y30722357D01*
X3008229Y30722357D02*
X2951086Y30665214D01*
X2951086Y30665214D02*
X2922515Y30608071D01*
X2922515Y30608071D02*
X2893943Y30493785D01*
X2893943Y30493785D02*
X2893943Y30408071D01*
X2893943Y30408071D02*
X2922515Y30293785D01*
X2922515Y30293785D02*
X2951086Y30236642D01*
X2951086Y30236642D02*
X3008229Y30179500D01*
X3008229Y30179500D02*
X3093943Y30150928D01*
X3093943Y30150928D02*
X3236800Y30150928D01*
X2722515Y30750928D02*
X2379658Y30750928D01*
X2551086Y30150928D02*
X2551086Y30750928D01*
X1836800Y30150928D02*
X2036800Y30436642D01*
X2179657Y30150928D02*
X2179657Y30750928D01*
X2179657Y30750928D02*
X1951086Y30750928D01*
X1951086Y30750928D02*
X1893943Y30722357D01*
X1893943Y30722357D02*
X1865372Y30693785D01*
X1865372Y30693785D02*
X1836800Y30636642D01*
X1836800Y30636642D02*
X1836800Y30550928D01*
X1836800Y30550928D02*
X1865372Y30493785D01*
X1865372Y30493785D02*
X1893943Y30465214D01*
X1893943Y30465214D02*
X1951086Y30436642D01*
X1951086Y30436642D02*
X2179657Y30436642D01*
X8227943Y30125528D02*
X8427943Y30411242D01*
X8570800Y30125528D02*
X8570800Y30725528D01*
X8570800Y30725528D02*
X8342229Y30725528D01*
X8342229Y30725528D02*
X8285086Y30696957D01*
X8285086Y30696957D02*
X8256515Y30668385D01*
X8256515Y30668385D02*
X8227943Y30611242D01*
X8227943Y30611242D02*
X8227943Y30525528D01*
X8227943Y30525528D02*
X8256515Y30468385D01*
X8256515Y30468385D02*
X8285086Y30439814D01*
X8285086Y30439814D02*
X8342229Y30411242D01*
X8342229Y30411242D02*
X8570800Y30411242D01*
X8027943Y30725528D02*
X7627943Y30125528D01*
X7627943Y30725528D02*
X8027943Y30125528D01*
X7399371Y30125528D02*
X7399371Y30725528D01*
X7399371Y30725528D02*
X7256514Y30725528D01*
X7256514Y30725528D02*
X7170800Y30696957D01*
X7170800Y30696957D02*
X7113657Y30639814D01*
X7113657Y30639814D02*
X7085086Y30582671D01*
X7085086Y30582671D02*
X7056514Y30468385D01*
X7056514Y30468385D02*
X7056514Y30382671D01*
X7056514Y30382671D02*
X7085086Y30268385D01*
X7085086Y30268385D02*
X7113657Y30211242D01*
X7113657Y30211242D02*
X7170800Y30154100D01*
X7170800Y30154100D02*
X7256514Y30125528D01*
X7256514Y30125528D02*
X7399371Y30125528D01*
X6685086Y30725528D02*
X6627943Y30725528D01*
X6627943Y30725528D02*
X6570800Y30696957D01*
X6570800Y30696957D02*
X6542229Y30668385D01*
X6542229Y30668385D02*
X6513657Y30611242D01*
X6513657Y30611242D02*
X6485086Y30496957D01*
X6485086Y30496957D02*
X6485086Y30354100D01*
X6485086Y30354100D02*
X6513657Y30239814D01*
X6513657Y30239814D02*
X6542229Y30182671D01*
X6542229Y30182671D02*
X6570800Y30154100D01*
X6570800Y30154100D02*
X6627943Y30125528D01*
X6627943Y30125528D02*
X6685086Y30125528D01*
X6685086Y30125528D02*
X6742229Y30154100D01*
X6742229Y30154100D02*
X6770800Y30182671D01*
X6770800Y30182671D02*
X6799371Y30239814D01*
X6799371Y30239814D02*
X6827943Y30354100D01*
X6827943Y30354100D02*
X6827943Y30496957D01*
X6827943Y30496957D02*
X6799371Y30611242D01*
X6799371Y30611242D02*
X6770800Y30668385D01*
X6770800Y30668385D02*
X6742229Y30696957D01*
X6742229Y30696957D02*
X6685086Y30725528D01*
D10*
X4755991Y10377729D02*
X4055991Y10611063D01*
X4055991Y10611063D02*
X4755991Y10844396D01*
X4055991Y11444396D02*
X4055991Y11044396D01*
X4055991Y11244396D02*
X4755991Y11244396D01*
X4755991Y11244396D02*
X4655991Y11177729D01*
X4655991Y11177729D02*
X4589325Y11111063D01*
X4589325Y11111063D02*
X4555991Y11044396D01*
X4122658Y11744396D02*
X4089325Y11777730D01*
X4089325Y11777730D02*
X4055991Y11744396D01*
X4055991Y11744396D02*
X4089325Y11711063D01*
X4089325Y11711063D02*
X4122658Y11744396D01*
X4122658Y11744396D02*
X4055991Y11744396D01*
X4755991Y12211063D02*
X4755991Y12277729D01*
X4755991Y12277729D02*
X4722658Y12344396D01*
X4722658Y12344396D02*
X4689325Y12377729D01*
X4689325Y12377729D02*
X4622658Y12411063D01*
X4622658Y12411063D02*
X4489325Y12444396D01*
X4489325Y12444396D02*
X4322658Y12444396D01*
X4322658Y12444396D02*
X4189325Y12411063D01*
X4189325Y12411063D02*
X4122658Y12377729D01*
X4122658Y12377729D02*
X4089325Y12344396D01*
X4089325Y12344396D02*
X4055991Y12277729D01*
X4055991Y12277729D02*
X4055991Y12211063D01*
X4055991Y12211063D02*
X4089325Y12144396D01*
X4089325Y12144396D02*
X4122658Y12111063D01*
X4122658Y12111063D02*
X4189325Y12077729D01*
X4189325Y12077729D02*
X4322658Y12044396D01*
X4322658Y12044396D02*
X4489325Y12044396D01*
X4489325Y12044396D02*
X4622658Y12077729D01*
X4622658Y12077729D02*
X4689325Y12111063D01*
X4689325Y12111063D02*
X4722658Y12144396D01*
X4722658Y12144396D02*
X4755991Y12211063D01*
X3789325Y13477729D02*
X3822658Y13444396D01*
X3822658Y13444396D02*
X3922658Y13377729D01*
X3922658Y13377729D02*
X3989325Y13344396D01*
X3989325Y13344396D02*
X4089325Y13311063D01*
X4089325Y13311063D02*
X4255991Y13277729D01*
X4255991Y13277729D02*
X4389325Y13277729D01*
X4389325Y13277729D02*
X4555991Y13311063D01*
X4555991Y13311063D02*
X4655991Y13344396D01*
X4655991Y13344396D02*
X4722658Y13377729D01*
X4722658Y13377729D02*
X4822658Y13444396D01*
X4822658Y13444396D02*
X4855991Y13477729D01*
X4122658Y14144396D02*
X4089325Y14111063D01*
X4089325Y14111063D02*
X4055991Y14011063D01*
X4055991Y14011063D02*
X4055991Y13944396D01*
X4055991Y13944396D02*
X4089325Y13844396D01*
X4089325Y13844396D02*
X4155991Y13777730D01*
X4155991Y13777730D02*
X4222658Y13744396D01*
X4222658Y13744396D02*
X4355991Y13711063D01*
X4355991Y13711063D02*
X4455991Y13711063D01*
X4455991Y13711063D02*
X4589325Y13744396D01*
X4589325Y13744396D02*
X4655991Y13777730D01*
X4655991Y13777730D02*
X4722658Y13844396D01*
X4722658Y13844396D02*
X4755991Y13944396D01*
X4755991Y13944396D02*
X4755991Y14011063D01*
X4755991Y14011063D02*
X4722658Y14111063D01*
X4722658Y14111063D02*
X4689325Y14144396D01*
X3789325Y14377730D02*
X3822658Y14411063D01*
X3822658Y14411063D02*
X3922658Y14477730D01*
X3922658Y14477730D02*
X3989325Y14511063D01*
X3989325Y14511063D02*
X4089325Y14544396D01*
X4089325Y14544396D02*
X4255991Y14577730D01*
X4255991Y14577730D02*
X4389325Y14577730D01*
X4389325Y14577730D02*
X4555991Y14544396D01*
X4555991Y14544396D02*
X4655991Y14511063D01*
X4655991Y14511063D02*
X4722658Y14477730D01*
X4722658Y14477730D02*
X4822658Y14411063D01*
X4822658Y14411063D02*
X4855991Y14377730D01*
X4422658Y15144397D02*
X4422658Y14911063D01*
X4055991Y14911063D02*
X4755991Y14911063D01*
X4755991Y14911063D02*
X4755991Y15244397D01*
X4755991Y15511063D02*
X4189325Y15511063D01*
X4189325Y15511063D02*
X4122658Y15544397D01*
X4122658Y15544397D02*
X4089325Y15577730D01*
X4089325Y15577730D02*
X4055991Y15644397D01*
X4055991Y15644397D02*
X4055991Y15777730D01*
X4055991Y15777730D02*
X4089325Y15844397D01*
X4089325Y15844397D02*
X4122658Y15877730D01*
X4122658Y15877730D02*
X4189325Y15911063D01*
X4189325Y15911063D02*
X4755991Y15911063D01*
X4422658Y16244396D02*
X4422658Y16477730D01*
X4055991Y16577730D02*
X4055991Y16244396D01*
X4055991Y16244396D02*
X4755991Y16244396D01*
X4755991Y16244396D02*
X4755991Y16577730D01*
X4055991Y17211063D02*
X4055991Y16877729D01*
X4055991Y16877729D02*
X4755991Y16877729D01*
X4522658Y17744396D02*
X4055991Y17744396D01*
X4789325Y17577730D02*
X4289325Y17411063D01*
X4289325Y17411063D02*
X4289325Y17844396D01*
X4422658Y18111063D02*
X4422658Y18344397D01*
X4055991Y18444397D02*
X4055991Y18111063D01*
X4055991Y18111063D02*
X4755991Y18111063D01*
X4755991Y18111063D02*
X4755991Y18444397D01*
X4055991Y18744396D02*
X4755991Y18744396D01*
X4755991Y18744396D02*
X4755991Y19011063D01*
X4755991Y19011063D02*
X4722658Y19077730D01*
X4722658Y19077730D02*
X4689325Y19111063D01*
X4689325Y19111063D02*
X4622658Y19144396D01*
X4622658Y19144396D02*
X4522658Y19144396D01*
X4522658Y19144396D02*
X4455991Y19111063D01*
X4455991Y19111063D02*
X4422658Y19077730D01*
X4422658Y19077730D02*
X4389325Y19011063D01*
X4389325Y19011063D02*
X4389325Y18744396D01*
X4755991Y20111063D02*
X4755991Y20177729D01*
X4755991Y20177729D02*
X4722658Y20244396D01*
X4722658Y20244396D02*
X4689325Y20277729D01*
X4689325Y20277729D02*
X4622658Y20311063D01*
X4622658Y20311063D02*
X4489325Y20344396D01*
X4489325Y20344396D02*
X4322658Y20344396D01*
X4322658Y20344396D02*
X4189325Y20311063D01*
X4189325Y20311063D02*
X4122658Y20277729D01*
X4122658Y20277729D02*
X4089325Y20244396D01*
X4089325Y20244396D02*
X4055991Y20177729D01*
X4055991Y20177729D02*
X4055991Y20111063D01*
X4055991Y20111063D02*
X4089325Y20044396D01*
X4089325Y20044396D02*
X4122658Y20011063D01*
X4122658Y20011063D02*
X4189325Y19977729D01*
X4189325Y19977729D02*
X4322658Y19944396D01*
X4322658Y19944396D02*
X4489325Y19944396D01*
X4489325Y19944396D02*
X4622658Y19977729D01*
X4622658Y19977729D02*
X4689325Y20011063D01*
X4689325Y20011063D02*
X4722658Y20044396D01*
X4722658Y20044396D02*
X4755991Y20111063D01*
X4689325Y20611063D02*
X4722658Y20644396D01*
X4722658Y20644396D02*
X4755991Y20711063D01*
X4755991Y20711063D02*
X4755991Y20877730D01*
X4755991Y20877730D02*
X4722658Y20944396D01*
X4722658Y20944396D02*
X4689325Y20977730D01*
X4689325Y20977730D02*
X4622658Y21011063D01*
X4622658Y21011063D02*
X4555991Y21011063D01*
X4555991Y21011063D02*
X4455991Y20977730D01*
X4455991Y20977730D02*
X4055991Y20577730D01*
X4055991Y20577730D02*
X4055991Y21011063D01*
X4789325Y21811063D02*
X3889325Y21211063D01*
X4689325Y22011063D02*
X4722658Y22044396D01*
X4722658Y22044396D02*
X4755991Y22111063D01*
X4755991Y22111063D02*
X4755991Y22277730D01*
X4755991Y22277730D02*
X4722658Y22344396D01*
X4722658Y22344396D02*
X4689325Y22377730D01*
X4689325Y22377730D02*
X4622658Y22411063D01*
X4622658Y22411063D02*
X4555991Y22411063D01*
X4555991Y22411063D02*
X4455991Y22377730D01*
X4455991Y22377730D02*
X4055991Y21977730D01*
X4055991Y21977730D02*
X4055991Y22411063D01*
X4755991Y22844397D02*
X4755991Y22911063D01*
X4755991Y22911063D02*
X4722658Y22977730D01*
X4722658Y22977730D02*
X4689325Y23011063D01*
X4689325Y23011063D02*
X4622658Y23044397D01*
X4622658Y23044397D02*
X4489325Y23077730D01*
X4489325Y23077730D02*
X4322658Y23077730D01*
X4322658Y23077730D02*
X4189325Y23044397D01*
X4189325Y23044397D02*
X4122658Y23011063D01*
X4122658Y23011063D02*
X4089325Y22977730D01*
X4089325Y22977730D02*
X4055991Y22911063D01*
X4055991Y22911063D02*
X4055991Y22844397D01*
X4055991Y22844397D02*
X4089325Y22777730D01*
X4089325Y22777730D02*
X4122658Y22744397D01*
X4122658Y22744397D02*
X4189325Y22711063D01*
X4189325Y22711063D02*
X4322658Y22677730D01*
X4322658Y22677730D02*
X4489325Y22677730D01*
X4489325Y22677730D02*
X4622658Y22711063D01*
X4622658Y22711063D02*
X4689325Y22744397D01*
X4689325Y22744397D02*
X4722658Y22777730D01*
X4722658Y22777730D02*
X4755991Y22844397D01*
X4689325Y23344397D02*
X4722658Y23377730D01*
X4722658Y23377730D02*
X4755991Y23444397D01*
X4755991Y23444397D02*
X4755991Y23611064D01*
X4755991Y23611064D02*
X4722658Y23677730D01*
X4722658Y23677730D02*
X4689325Y23711064D01*
X4689325Y23711064D02*
X4622658Y23744397D01*
X4622658Y23744397D02*
X4555991Y23744397D01*
X4555991Y23744397D02*
X4455991Y23711064D01*
X4455991Y23711064D02*
X4055991Y23311064D01*
X4055991Y23311064D02*
X4055991Y23744397D01*
X4755991Y24377731D02*
X4755991Y24044397D01*
X4755991Y24044397D02*
X4422658Y24011064D01*
X4422658Y24011064D02*
X4455991Y24044397D01*
X4455991Y24044397D02*
X4489325Y24111064D01*
X4489325Y24111064D02*
X4489325Y24277731D01*
X4489325Y24277731D02*
X4455991Y24344397D01*
X4455991Y24344397D02*
X4422658Y24377731D01*
X4422658Y24377731D02*
X4355991Y24411064D01*
X4355991Y24411064D02*
X4189325Y24411064D01*
X4189325Y24411064D02*
X4122658Y24377731D01*
X4122658Y24377731D02*
X4089325Y24344397D01*
X4089325Y24344397D02*
X4055991Y24277731D01*
X4055991Y24277731D02*
X4055991Y24111064D01*
X4055991Y24111064D02*
X4089325Y24044397D01*
X4089325Y24044397D02*
X4122658Y24011064D01*
D11*
X10917115Y30725528D02*
X10717115Y30125528D01*
X10717115Y30125528D02*
X10517115Y30725528D01*
X9974257Y30182671D02*
X10002829Y30154100D01*
X10002829Y30154100D02*
X10088543Y30125528D01*
X10088543Y30125528D02*
X10145686Y30125528D01*
X10145686Y30125528D02*
X10231400Y30154100D01*
X10231400Y30154100D02*
X10288543Y30211242D01*
X10288543Y30211242D02*
X10317114Y30268385D01*
X10317114Y30268385D02*
X10345686Y30382671D01*
X10345686Y30382671D02*
X10345686Y30468385D01*
X10345686Y30468385D02*
X10317114Y30582671D01*
X10317114Y30582671D02*
X10288543Y30639814D01*
X10288543Y30639814D02*
X10231400Y30696957D01*
X10231400Y30696957D02*
X10145686Y30725528D01*
X10145686Y30725528D02*
X10088543Y30725528D01*
X10088543Y30725528D02*
X10002829Y30696957D01*
X10002829Y30696957D02*
X9974257Y30668385D01*
X9374257Y30182671D02*
X9402829Y30154100D01*
X9402829Y30154100D02*
X9488543Y30125528D01*
X9488543Y30125528D02*
X9545686Y30125528D01*
X9545686Y30125528D02*
X9631400Y30154100D01*
X9631400Y30154100D02*
X9688543Y30211242D01*
X9688543Y30211242D02*
X9717114Y30268385D01*
X9717114Y30268385D02*
X9745686Y30382671D01*
X9745686Y30382671D02*
X9745686Y30468385D01*
X9745686Y30468385D02*
X9717114Y30582671D01*
X9717114Y30582671D02*
X9688543Y30639814D01*
X9688543Y30639814D02*
X9631400Y30696957D01*
X9631400Y30696957D02*
X9545686Y30725528D01*
X9545686Y30725528D02*
X9488543Y30725528D01*
X9488543Y30725528D02*
X9402829Y30696957D01*
X9402829Y30696957D02*
X9374257Y30668385D01*
X6065715Y30750928D02*
X5722858Y30750928D01*
X5894286Y30150928D02*
X5894286Y30750928D01*
X5580000Y30750928D02*
X5180000Y30150928D01*
X5180000Y30750928D02*
X5580000Y30150928D01*
X4951428Y30150928D02*
X4951428Y30750928D01*
X4951428Y30750928D02*
X4808571Y30750928D01*
X4808571Y30750928D02*
X4722857Y30722357D01*
X4722857Y30722357D02*
X4665714Y30665214D01*
X4665714Y30665214D02*
X4637143Y30608071D01*
X4637143Y30608071D02*
X4608571Y30493785D01*
X4608571Y30493785D02*
X4608571Y30408071D01*
X4608571Y30408071D02*
X4637143Y30293785D01*
X4637143Y30293785D02*
X4665714Y30236642D01*
X4665714Y30236642D02*
X4722857Y30179500D01*
X4722857Y30179500D02*
X4808571Y30150928D01*
X4808571Y30150928D02*
X4951428Y30150928D01*
X4237143Y30750928D02*
X4180000Y30750928D01*
X4180000Y30750928D02*
X4122857Y30722357D01*
X4122857Y30722357D02*
X4094286Y30693785D01*
X4094286Y30693785D02*
X4065714Y30636642D01*
X4065714Y30636642D02*
X4037143Y30522357D01*
X4037143Y30522357D02*
X4037143Y30379500D01*
X4037143Y30379500D02*
X4065714Y30265214D01*
X4065714Y30265214D02*
X4094286Y30208071D01*
X4094286Y30208071D02*
X4122857Y30179500D01*
X4122857Y30179500D02*
X4180000Y30150928D01*
X4180000Y30150928D02*
X4237143Y30150928D01*
X4237143Y30150928D02*
X4294286Y30179500D01*
X4294286Y30179500D02*
X4322857Y30208071D01*
X4322857Y30208071D02*
X4351428Y30265214D01*
X4351428Y30265214D02*
X4380000Y30379500D01*
X4380000Y30379500D02*
X4380000Y30522357D01*
X4380000Y30522357D02*
X4351428Y30636642D01*
X4351428Y30636642D02*
X4322857Y30693785D01*
X4322857Y30693785D02*
X4294286Y30722357D01*
X4294286Y30722357D02*
X4237143Y30750928D01*
D12*
X8920133Y3381166D02*
X8920133Y2881166D01*
X8920133Y2881166D02*
X8953466Y2781166D01*
X8953466Y2781166D02*
X9020133Y2714500D01*
X9020133Y2714500D02*
X9120133Y2681166D01*
X9120133Y2681166D02*
X9186800Y2681166D01*
X8286800Y3147833D02*
X8286800Y2681166D01*
X8453467Y3414500D02*
X8620133Y2914500D01*
X8620133Y2914500D02*
X8186800Y2914500D01*
X12628533Y19637166D02*
X12628533Y19137166D01*
X12628533Y19137166D02*
X12661866Y19037166D01*
X12661866Y19037166D02*
X12728533Y18970500D01*
X12728533Y18970500D02*
X12828533Y18937166D01*
X12828533Y18937166D02*
X12895200Y18937166D01*
X11961867Y19637166D02*
X12295200Y19637166D01*
X12295200Y19637166D02*
X12328533Y19303833D01*
X12328533Y19303833D02*
X12295200Y19337166D01*
X12295200Y19337166D02*
X12228533Y19370500D01*
X12228533Y19370500D02*
X12061867Y19370500D01*
X12061867Y19370500D02*
X11995200Y19337166D01*
X11995200Y19337166D02*
X11961867Y19303833D01*
X11961867Y19303833D02*
X11928533Y19237166D01*
X11928533Y19237166D02*
X11928533Y19070500D01*
X11928533Y19070500D02*
X11961867Y19003833D01*
X11961867Y19003833D02*
X11995200Y18970500D01*
X11995200Y18970500D02*
X12061867Y18937166D01*
X12061867Y18937166D02*
X12228533Y18937166D01*
X12228533Y18937166D02*
X12295200Y18970500D01*
X12295200Y18970500D02*
X12328533Y19003833D01*
X2562433Y16743333D02*
X3062433Y16743333D01*
X3062433Y16743333D02*
X3162433Y16776666D01*
X3162433Y16776666D02*
X3229100Y16843333D01*
X3229100Y16843333D02*
X3262433Y16943333D01*
X3262433Y16943333D02*
X3262433Y17010000D01*
X2562433Y16476667D02*
X2562433Y16043333D01*
X2562433Y16043333D02*
X2829100Y16276667D01*
X2829100Y16276667D02*
X2829100Y16176667D01*
X2829100Y16176667D02*
X2862433Y16110000D01*
X2862433Y16110000D02*
X2895766Y16076667D01*
X2895766Y16076667D02*
X2962433Y16043333D01*
X2962433Y16043333D02*
X3129100Y16043333D01*
X3129100Y16043333D02*
X3195766Y16076667D01*
X3195766Y16076667D02*
X3229100Y16110000D01*
X3229100Y16110000D02*
X3262433Y16176667D01*
X3262433Y16176667D02*
X3262433Y16376667D01*
X3262433Y16376667D02*
X3229100Y16443333D01*
X3229100Y16443333D02*
X3195766Y16476667D01*
X14500433Y25074533D02*
X15000433Y25074533D01*
X15000433Y25074533D02*
X15100433Y25107866D01*
X15100433Y25107866D02*
X15167100Y25174533D01*
X15167100Y25174533D02*
X15200433Y25274533D01*
X15200433Y25274533D02*
X15200433Y25341200D01*
X14567100Y24774533D02*
X14533766Y24741200D01*
X14533766Y24741200D02*
X14500433Y24674533D01*
X14500433Y24674533D02*
X14500433Y24507867D01*
X14500433Y24507867D02*
X14533766Y24441200D01*
X14533766Y24441200D02*
X14567100Y24407867D01*
X14567100Y24407867D02*
X14633766Y24374533D01*
X14633766Y24374533D02*
X14700433Y24374533D01*
X14700433Y24374533D02*
X14800433Y24407867D01*
X14800433Y24407867D02*
X15200433Y24807867D01*
X15200433Y24807867D02*
X15200433Y24374533D01*
D13*
%TO.C,LOGO1*%
X9568061Y16253715D02*
X9633628Y16211367D01*
X9662001Y16175134D01*
X9691806Y16097371D01*
X9695710Y16011379D01*
X9673925Y15927921D01*
X9626661Y15857756D01*
X9600711Y15834099D01*
X9568218Y15815924D01*
X9524908Y15807875D01*
X9458085Y15806057D01*
X9394064Y15809536D01*
X9315163Y15830604D01*
X9261378Y15872864D01*
X9228525Y15938734D01*
X9223556Y15958426D01*
X9218123Y16039937D01*
X9231572Y16121744D01*
X9261661Y16187045D01*
X9265764Y16192406D01*
X9325533Y16240913D01*
X9403109Y16267775D01*
X9487587Y16272280D01*
X9568061Y16253715D01*
G36*
X9568061Y16253715D02*
G01*
X9633628Y16211367D01*
X9662001Y16175134D01*
X9691806Y16097371D01*
X9695710Y16011379D01*
X9673925Y15927921D01*
X9626661Y15857756D01*
X9600711Y15834099D01*
X9568218Y15815924D01*
X9524908Y15807875D01*
X9458085Y15806057D01*
X9394064Y15809536D01*
X9315163Y15830604D01*
X9261378Y15872864D01*
X9228525Y15938734D01*
X9223556Y15958426D01*
X9218123Y16039937D01*
X9231572Y16121744D01*
X9261661Y16187045D01*
X9265764Y16192406D01*
X9325533Y16240913D01*
X9403109Y16267775D01*
X9487587Y16272280D01*
X9568061Y16253715D01*
G37*
X8751041Y16495420D02*
X8865193Y16494653D01*
X8949919Y16492751D01*
X9009996Y16489374D01*
X9050200Y16484180D01*
X9075306Y16476827D01*
X9090090Y16466975D01*
X9097426Y16457104D01*
X9105163Y16435885D01*
X9110811Y16401289D01*
X9114675Y16348733D01*
X9117058Y16273639D01*
X9118265Y16171425D01*
X9118600Y16037511D01*
X9118344Y15913217D01*
X9117288Y15809279D01*
X9115105Y15732548D01*
X9111468Y15678310D01*
X9106051Y15641846D01*
X9098529Y15618441D01*
X9088574Y15603378D01*
X9088456Y15603248D01*
X9075317Y15591987D01*
X9055889Y15583598D01*
X9025171Y15577667D01*
X8978166Y15573777D01*
X8909873Y15571512D01*
X8815294Y15570459D01*
X8689431Y15570200D01*
X8320314Y15570200D01*
X8320314Y15769771D01*
X7485743Y15769771D01*
X7485743Y16295914D01*
X8320314Y16295914D01*
X8320314Y16495485D01*
X8690947Y16495485D01*
X8751041Y16495420D01*
G36*
X8751041Y16495420D02*
G01*
X8865193Y16494653D01*
X8949919Y16492751D01*
X9009996Y16489374D01*
X9050200Y16484180D01*
X9075306Y16476827D01*
X9090090Y16466975D01*
X9097426Y16457104D01*
X9105163Y16435885D01*
X9110811Y16401289D01*
X9114675Y16348733D01*
X9117058Y16273639D01*
X9118265Y16171425D01*
X9118600Y16037511D01*
X9118344Y15913217D01*
X9117288Y15809279D01*
X9115105Y15732548D01*
X9111468Y15678310D01*
X9106051Y15641846D01*
X9098529Y15618441D01*
X9088574Y15603378D01*
X9088456Y15603248D01*
X9075317Y15591987D01*
X9055889Y15583598D01*
X9025171Y15577667D01*
X8978166Y15573777D01*
X8909873Y15571512D01*
X8815294Y15570459D01*
X8689431Y15570200D01*
X8320314Y15570200D01*
X8320314Y15769771D01*
X7485743Y15769771D01*
X7485743Y16295914D01*
X8320314Y16295914D01*
X8320314Y16495485D01*
X8690947Y16495485D01*
X8751041Y16495420D01*
G37*
X8377585Y12269096D02*
X8385914Y12254367D01*
X8416358Y12194082D01*
X8426235Y12154313D01*
X8415928Y12127476D01*
X8385818Y12105987D01*
X8346658Y12073966D01*
X8313062Y12012616D01*
X8301239Y11939287D01*
X8312492Y11864578D01*
X8348122Y11799089D01*
X8363674Y11782199D01*
X8433518Y11734593D01*
X8524433Y11711092D01*
X8640435Y11710480D01*
X8702543Y11718140D01*
X8782877Y11742399D01*
X8838914Y11784112D01*
X8876961Y11846917D01*
X8885420Y11871419D01*
X8890839Y11952200D01*
X8864683Y12027365D01*
X8809697Y12087109D01*
X8755704Y12125555D01*
X8814688Y12232948D01*
X8846876Y12286899D01*
X8874926Y12325680D01*
X8892573Y12340556D01*
X8905346Y12336852D01*
X8940990Y12310449D01*
X8984543Y12265792D01*
X9028803Y12211369D01*
X9066567Y12155665D01*
X9090635Y12107169D01*
X9093439Y12098754D01*
X9111039Y12012247D01*
X9117685Y11909332D01*
X9113106Y11806349D01*
X9097032Y11719636D01*
X9096941Y11719333D01*
X9055962Y11634595D01*
X8989280Y11552269D01*
X8906642Y11482303D01*
X8817795Y11434645D01*
X8758147Y11416452D01*
X8627097Y11398147D01*
X8492674Y11403820D01*
X8370148Y11433512D01*
X8304554Y11464483D01*
X8205914Y11540017D01*
X8129582Y11637971D01*
X8082101Y11751128D01*
X8075935Y11793156D01*
X8072566Y11859395D01*
X8073312Y11932557D01*
X8078643Y11996638D01*
X8105372Y12104786D01*
X8157757Y12197229D01*
X8240755Y12284386D01*
X8325998Y12359420D01*
X8377585Y12269096D01*
G36*
X8377585Y12269096D02*
G01*
X8385914Y12254367D01*
X8416358Y12194082D01*
X8426235Y12154313D01*
X8415928Y12127476D01*
X8385818Y12105987D01*
X8346658Y12073966D01*
X8313062Y12012616D01*
X8301239Y11939287D01*
X8312492Y11864578D01*
X8348122Y11799089D01*
X8363674Y11782199D01*
X8433518Y11734593D01*
X8524433Y11711092D01*
X8640435Y11710480D01*
X8702543Y11718140D01*
X8782877Y11742399D01*
X8838914Y11784112D01*
X8876961Y11846917D01*
X8885420Y11871419D01*
X8890839Y11952200D01*
X8864683Y12027365D01*
X8809697Y12087109D01*
X8755704Y12125555D01*
X8814688Y12232948D01*
X8846876Y12286899D01*
X8874926Y12325680D01*
X8892573Y12340556D01*
X8905346Y12336852D01*
X8940990Y12310449D01*
X8984543Y12265792D01*
X9028803Y12211369D01*
X9066567Y12155665D01*
X9090635Y12107169D01*
X9093439Y12098754D01*
X9111039Y12012247D01*
X9117685Y11909332D01*
X9113106Y11806349D01*
X9097032Y11719636D01*
X9096941Y11719333D01*
X9055962Y11634595D01*
X8989280Y11552269D01*
X8906642Y11482303D01*
X8817795Y11434645D01*
X8758147Y11416452D01*
X8627097Y11398147D01*
X8492674Y11403820D01*
X8370148Y11433512D01*
X8304554Y11464483D01*
X8205914Y11540017D01*
X8129582Y11637971D01*
X8082101Y11751128D01*
X8075935Y11793156D01*
X8072566Y11859395D01*
X8073312Y11932557D01*
X8078643Y11996638D01*
X8105372Y12104786D01*
X8157757Y12197229D01*
X8240755Y12284386D01*
X8325998Y12359420D01*
X8377585Y12269096D01*
G37*
X8343835Y13320932D02*
X8365704Y13284010D01*
X8391774Y13232146D01*
X8434265Y13141424D01*
X8368218Y13079134D01*
X8349200Y13060694D01*
X8318352Y13022687D01*
X8305036Y12982173D01*
X8302171Y12922340D01*
X8302187Y12916467D01*
X8306319Y12856232D01*
X8321631Y12814800D01*
X8353733Y12776275D01*
X8424698Y12728018D01*
X8516668Y12698906D01*
X8618048Y12690609D01*
X8718039Y12703996D01*
X8805844Y12739935D01*
X8841132Y12768334D01*
X8881887Y12833106D01*
X8895230Y12908701D01*
X8877821Y12983803D01*
X8876327Y12986864D01*
X8842966Y13038386D01*
X8804253Y13078424D01*
X8759871Y13111843D01*
X8811830Y13214842D01*
X8837930Y13264199D01*
X8863259Y13307069D01*
X8878663Y13327035D01*
X8895619Y13327016D01*
X8931693Y13306119D01*
X8975766Y13267212D01*
X9020423Y13217085D01*
X9058251Y13162531D01*
X9074593Y13129276D01*
X9101846Y13037650D01*
X9116396Y12931062D01*
X9116886Y12823030D01*
X9101960Y12727070D01*
X9095524Y12705877D01*
X9042817Y12602332D01*
X8961381Y12511804D01*
X8857299Y12441393D01*
X8842353Y12433846D01*
X8787473Y12409394D01*
X8736779Y12395348D01*
X8676799Y12388945D01*
X8594066Y12387424D01*
X8588824Y12387428D01*
X8505797Y12389366D01*
X8444624Y12396655D01*
X8391683Y12411930D01*
X8333351Y12437822D01*
X8231670Y12502555D01*
X8147316Y12593660D01*
X8093107Y12703628D01*
X8074567Y12789470D01*
X8071362Y12911412D01*
X8090422Y13032154D01*
X8130486Y13137074D01*
X8138076Y13150328D01*
X8176984Y13206039D01*
X8223072Y13258747D01*
X8269345Y13301768D01*
X8308811Y13328419D01*
X8334476Y13332017D01*
X8343835Y13320932D01*
G36*
X8343835Y13320932D02*
G01*
X8365704Y13284010D01*
X8391774Y13232146D01*
X8434265Y13141424D01*
X8368218Y13079134D01*
X8349200Y13060694D01*
X8318352Y13022687D01*
X8305036Y12982173D01*
X8302171Y12922340D01*
X8302187Y12916467D01*
X8306319Y12856232D01*
X8321631Y12814800D01*
X8353733Y12776275D01*
X8424698Y12728018D01*
X8516668Y12698906D01*
X8618048Y12690609D01*
X8718039Y12703996D01*
X8805844Y12739935D01*
X8841132Y12768334D01*
X8881887Y12833106D01*
X8895230Y12908701D01*
X8877821Y12983803D01*
X8876327Y12986864D01*
X8842966Y13038386D01*
X8804253Y13078424D01*
X8759871Y13111843D01*
X8811830Y13214842D01*
X8837930Y13264199D01*
X8863259Y13307069D01*
X8878663Y13327035D01*
X8895619Y13327016D01*
X8931693Y13306119D01*
X8975766Y13267212D01*
X9020423Y13217085D01*
X9058251Y13162531D01*
X9074593Y13129276D01*
X9101846Y13037650D01*
X9116396Y12931062D01*
X9116886Y12823030D01*
X9101960Y12727070D01*
X9095524Y12705877D01*
X9042817Y12602332D01*
X8961381Y12511804D01*
X8857299Y12441393D01*
X8842353Y12433846D01*
X8787473Y12409394D01*
X8736779Y12395348D01*
X8676799Y12388945D01*
X8594066Y12387424D01*
X8588824Y12387428D01*
X8505797Y12389366D01*
X8444624Y12396655D01*
X8391683Y12411930D01*
X8333351Y12437822D01*
X8231670Y12502555D01*
X8147316Y12593660D01*
X8093107Y12703628D01*
X8074567Y12789470D01*
X8071362Y12911412D01*
X8090422Y13032154D01*
X8130486Y13137074D01*
X8138076Y13150328D01*
X8176984Y13206039D01*
X8223072Y13258747D01*
X8269345Y13301768D01*
X8308811Y13328419D01*
X8334476Y13332017D01*
X8343835Y13320932D01*
G37*
X8730468Y24228197D02*
X8859851Y24202309D01*
X9022552Y24142137D01*
X9165852Y24055717D01*
X9286437Y23945657D01*
X9380994Y23814563D01*
X9446208Y23665044D01*
X9460257Y23612236D01*
X9479692Y23487863D01*
X9485819Y23354964D01*
X9478363Y23227521D01*
X9457045Y23119514D01*
X9413823Y23007919D01*
X9332510Y22879146D01*
X9223470Y22772813D01*
X9085908Y22688188D01*
X8919029Y22624539D01*
X8906333Y22620722D01*
X8860897Y22602664D01*
X8838431Y22579350D01*
X8828314Y22540998D01*
X8819243Y22481439D01*
X8656335Y22645320D01*
X8493428Y22809200D01*
X8656335Y22973038D01*
X8661084Y22977814D01*
X8726641Y23043331D01*
X8771338Y23086059D01*
X8799532Y23108866D01*
X8815584Y23114618D01*
X8823851Y23106184D01*
X8828692Y23086431D01*
X8832325Y23070296D01*
X8848798Y23044327D01*
X8883121Y23041880D01*
X8912971Y23048926D01*
X8982415Y23083847D01*
X9045852Y23136918D01*
X9089406Y23197662D01*
X9103052Y23229672D01*
X9130126Y23342570D01*
X9128749Y23456525D01*
X9099804Y23562683D01*
X9044171Y23652187D01*
X9025705Y23671146D01*
X8941715Y23728321D01*
X8834509Y23769476D01*
X8711648Y23794037D01*
X8580690Y23801433D01*
X8449195Y23791092D01*
X8324721Y23762443D01*
X8214828Y23714914D01*
X8155312Y23675932D01*
X8079615Y23599856D01*
X8035655Y23509261D01*
X8021263Y23400630D01*
X8022368Y23350801D01*
X8027276Y23285807D01*
X8034827Y23240425D01*
X8047050Y23208173D01*
X8095982Y23136467D01*
X8164430Y23077572D01*
X8240790Y23042631D01*
X8320314Y23022606D01*
X8320314Y22594758D01*
X8225064Y22617280D01*
X8140292Y22642704D01*
X7998808Y22712423D01*
X7877306Y22808961D01*
X7779436Y22928360D01*
X7708846Y23066663D01*
X7669188Y23219915D01*
X7663293Y23269428D01*
X7663235Y23449712D01*
X7696639Y23621140D01*
X7762160Y23780181D01*
X7858453Y23923305D01*
X7984176Y24046982D01*
X8033942Y24084027D01*
X8184725Y24166030D01*
X8353044Y24217871D01*
X8535943Y24238833D01*
X8730468Y24228197D01*
G36*
X8730468Y24228197D02*
G01*
X8859851Y24202309D01*
X9022552Y24142137D01*
X9165852Y24055717D01*
X9286437Y23945657D01*
X9380994Y23814563D01*
X9446208Y23665044D01*
X9460257Y23612236D01*
X9479692Y23487863D01*
X9485819Y23354964D01*
X9478363Y23227521D01*
X9457045Y23119514D01*
X9413823Y23007919D01*
X9332510Y22879146D01*
X9223470Y22772813D01*
X9085908Y22688188D01*
X8919029Y22624539D01*
X8906333Y22620722D01*
X8860897Y22602664D01*
X8838431Y22579350D01*
X8828314Y22540998D01*
X8819243Y22481439D01*
X8656335Y22645320D01*
X8493428Y22809200D01*
X8656335Y22973038D01*
X8661084Y22977814D01*
X8726641Y23043331D01*
X8771338Y23086059D01*
X8799532Y23108866D01*
X8815584Y23114618D01*
X8823851Y23106184D01*
X8828692Y23086431D01*
X8832325Y23070296D01*
X8848798Y23044327D01*
X8883121Y23041880D01*
X8912971Y23048926D01*
X8982415Y23083847D01*
X9045852Y23136918D01*
X9089406Y23197662D01*
X9103052Y23229672D01*
X9130126Y23342570D01*
X9128749Y23456525D01*
X9099804Y23562683D01*
X9044171Y23652187D01*
X9025705Y23671146D01*
X8941715Y23728321D01*
X8834509Y23769476D01*
X8711648Y23794037D01*
X8580690Y23801433D01*
X8449195Y23791092D01*
X8324721Y23762443D01*
X8214828Y23714914D01*
X8155312Y23675932D01*
X8079615Y23599856D01*
X8035655Y23509261D01*
X8021263Y23400630D01*
X8022368Y23350801D01*
X8027276Y23285807D01*
X8034827Y23240425D01*
X8047050Y23208173D01*
X8095982Y23136467D01*
X8164430Y23077572D01*
X8240790Y23042631D01*
X8320314Y23022606D01*
X8320314Y22594758D01*
X8225064Y22617280D01*
X8140292Y22642704D01*
X7998808Y22712423D01*
X7877306Y22808961D01*
X7779436Y22928360D01*
X7708846Y23066663D01*
X7669188Y23219915D01*
X7663293Y23269428D01*
X7663235Y23449712D01*
X7696639Y23621140D01*
X7762160Y23780181D01*
X7858453Y23923305D01*
X7984176Y24046982D01*
X8033942Y24084027D01*
X8184725Y24166030D01*
X8353044Y24217871D01*
X8535943Y24238833D01*
X8730468Y24228197D01*
G37*
X8838925Y14058661D02*
X9068842Y14012090D01*
X9288806Y13934769D01*
X9304224Y13927955D01*
X9510292Y13816096D01*
X9699631Y13674424D01*
X9868924Y13506666D01*
X10014856Y13316549D01*
X10134112Y13107800D01*
X10223377Y12884147D01*
X10235138Y12844925D01*
X10276288Y12646652D01*
X10294139Y12433587D01*
X10288829Y12216357D01*
X10260498Y12005584D01*
X10209286Y11811895D01*
X10206545Y11804013D01*
X10110796Y11584773D01*
X9984051Y11381146D01*
X9829327Y11196287D01*
X9649641Y11033348D01*
X9448012Y10895484D01*
X9227457Y10785848D01*
X9201321Y10775341D01*
X8975341Y10705724D01*
X8741923Y10669383D01*
X8622007Y10667559D01*
X8505677Y10665791D01*
X8271217Y10694424D01*
X8043152Y10754756D01*
X7826093Y10846262D01*
X7624653Y10968417D01*
X7576336Y11004087D01*
X7385570Y11171347D01*
X7224529Y11359347D01*
X7093629Y11567450D01*
X6993286Y11795017D01*
X6923916Y12041414D01*
X6902037Y12174661D01*
X6894671Y12339204D01*
X7213899Y12339204D01*
X7224628Y12176970D01*
X7250733Y12032343D01*
X7263619Y11986040D01*
X7341572Y11784530D01*
X7450158Y11594565D01*
X7584991Y11422897D01*
X7741690Y11276275D01*
X7819320Y11218704D01*
X8009471Y11107784D01*
X8208801Y11030108D01*
X8414062Y10985462D01*
X8622007Y10973628D01*
X8829388Y10994391D01*
X9032956Y11047536D01*
X9229465Y11132845D01*
X9415666Y11250103D01*
X9588312Y11399094D01*
X9634434Y11447418D01*
X9769649Y11621992D01*
X9873050Y11812746D01*
X9943656Y12017047D01*
X9980482Y12232260D01*
X9982546Y12455753D01*
X9969343Y12580751D01*
X9922004Y12794663D01*
X9843795Y12990845D01*
X9733603Y13171804D01*
X9590314Y13340049D01*
X9537313Y13391933D01*
X9383171Y13519961D01*
X9222776Y13618227D01*
X9048852Y13691454D01*
X8896289Y13734239D01*
X8680247Y13765192D01*
X8465874Y13762883D01*
X8256884Y13728310D01*
X8056989Y13662475D01*
X7869902Y13566376D01*
X7699336Y13441016D01*
X7549003Y13287393D01*
X7467835Y13177715D01*
X7377764Y13026141D01*
X7303142Y12866751D01*
X7251271Y12713619D01*
X7238527Y12657324D01*
X7218536Y12504253D01*
X7213899Y12339204D01*
X6894671Y12339204D01*
X6891637Y12406993D01*
X6914472Y12638981D01*
X6968913Y12866708D01*
X7053327Y13086259D01*
X7166084Y13293715D01*
X7305552Y13485162D01*
X7470101Y13656682D01*
X7658100Y13804358D01*
X7721673Y13844810D01*
X7923514Y13945758D01*
X8141349Y14018032D01*
X8369989Y14061218D01*
X8604244Y14074899D01*
X8838925Y14058661D01*
G36*
X8838925Y14058661D02*
G01*
X9068842Y14012090D01*
X9288806Y13934769D01*
X9304224Y13927955D01*
X9510292Y13816096D01*
X9699631Y13674424D01*
X9868924Y13506666D01*
X10014856Y13316549D01*
X10134112Y13107800D01*
X10223377Y12884147D01*
X10235138Y12844925D01*
X10276288Y12646652D01*
X10294139Y12433587D01*
X10288829Y12216357D01*
X10260498Y12005584D01*
X10209286Y11811895D01*
X10206545Y11804013D01*
X10110796Y11584773D01*
X9984051Y11381146D01*
X9829327Y11196287D01*
X9649641Y11033348D01*
X9448012Y10895484D01*
X9227457Y10785848D01*
X9201321Y10775341D01*
X8975341Y10705724D01*
X8741923Y10669383D01*
X8622007Y10667559D01*
X8505677Y10665791D01*
X8271217Y10694424D01*
X8043152Y10754756D01*
X7826093Y10846262D01*
X7624653Y10968417D01*
X7576336Y11004087D01*
X7385570Y11171347D01*
X7224529Y11359347D01*
X7093629Y11567450D01*
X6993286Y11795017D01*
X6923916Y12041414D01*
X6902037Y12174661D01*
X6894671Y12339204D01*
X7213899Y12339204D01*
X7224628Y12176970D01*
X7250733Y12032343D01*
X7263619Y11986040D01*
X7341572Y11784530D01*
X7450158Y11594565D01*
X7584991Y11422897D01*
X7741690Y11276275D01*
X7819320Y11218704D01*
X8009471Y11107784D01*
X8208801Y11030108D01*
X8414062Y10985462D01*
X8622007Y10973628D01*
X8829388Y10994391D01*
X9032956Y11047536D01*
X9229465Y11132845D01*
X9415666Y11250103D01*
X9588312Y11399094D01*
X9634434Y11447418D01*
X9769649Y11621992D01*
X9873050Y11812746D01*
X9943656Y12017047D01*
X9980482Y12232260D01*
X9982546Y12455753D01*
X9969343Y12580751D01*
X9922004Y12794663D01*
X9843795Y12990845D01*
X9733603Y13171804D01*
X9590314Y13340049D01*
X9537313Y13391933D01*
X9383171Y13519961D01*
X9222776Y13618227D01*
X9048852Y13691454D01*
X8896289Y13734239D01*
X8680247Y13765192D01*
X8465874Y13762883D01*
X8256884Y13728310D01*
X8056989Y13662475D01*
X7869902Y13566376D01*
X7699336Y13441016D01*
X7549003Y13287393D01*
X7467835Y13177715D01*
X7377764Y13026141D01*
X7303142Y12866751D01*
X7251271Y12713619D01*
X7238527Y12657324D01*
X7218536Y12504253D01*
X7213899Y12339204D01*
X6894671Y12339204D01*
X6891637Y12406993D01*
X6914472Y12638981D01*
X6968913Y12866708D01*
X7053327Y13086259D01*
X7166084Y13293715D01*
X7305552Y13485162D01*
X7470101Y13656682D01*
X7658100Y13804358D01*
X7721673Y13844810D01*
X7923514Y13945758D01*
X8141349Y14018032D01*
X8369989Y14061218D01*
X8604244Y14074899D01*
X8838925Y14058661D01*
G37*
X8858183Y25055661D02*
X9085474Y25006969D01*
X9302195Y24928121D01*
X9503593Y24819083D01*
X9681444Y24688145D01*
X9857377Y24519496D01*
X10006284Y24330807D01*
X10125538Y24125462D01*
X10212509Y23906843D01*
X10249090Y23772189D01*
X10288535Y23527042D01*
X10293827Y23284007D01*
X10265859Y23046099D01*
X10205525Y22816329D01*
X10113719Y22597712D01*
X9991334Y22393258D01*
X9839265Y22205983D01*
X9658404Y22038897D01*
X9474245Y21907596D01*
X9271466Y21799630D01*
X9059231Y21724455D01*
X8833032Y21680502D01*
X8602647Y21667035D01*
X8588360Y21666200D01*
X8529470Y21667111D01*
X8283011Y21691930D01*
X8049721Y21750491D01*
X7830169Y21842568D01*
X7624922Y21967935D01*
X7434546Y22126365D01*
X7356322Y22205006D01*
X7202956Y22389381D01*
X7081578Y22585288D01*
X6989389Y22797687D01*
X6923588Y23031540D01*
X6912867Y23088417D01*
X6895721Y23256461D01*
X6895278Y23351550D01*
X7206921Y23351550D01*
X7215728Y23193699D01*
X7218447Y23172989D01*
X7264974Y22966898D01*
X7343700Y22770698D01*
X7451359Y22587955D01*
X7584682Y22422233D01*
X7740400Y22277097D01*
X7915245Y22156113D01*
X8105950Y22062845D01*
X8309245Y22000859D01*
X8339929Y21994920D01*
X8463746Y21980958D01*
X8602647Y21977454D01*
X8744049Y21983956D01*
X8875374Y22000011D01*
X8984038Y22025165D01*
X9009041Y22033380D01*
X9207428Y22118908D01*
X9393538Y22234705D01*
X9561894Y22376249D01*
X9707021Y22539017D01*
X9823442Y22718485D01*
X9840773Y22751469D01*
X9905420Y22896451D01*
X9948177Y23040448D01*
X9971792Y23194995D01*
X9979013Y23371628D01*
X9979000Y23380624D01*
X9974783Y23524832D01*
X9961036Y23646643D01*
X9934860Y23758660D01*
X9893356Y23873485D01*
X9833627Y24003719D01*
X9769096Y24118592D01*
X9645107Y24284160D01*
X9496198Y24432016D01*
X9328008Y24557534D01*
X9146177Y24656093D01*
X8956344Y24723066D01*
X8900210Y24736207D01*
X8694219Y24763243D01*
X8483255Y24760511D01*
X8274951Y24729016D01*
X8076941Y24669762D01*
X7896861Y24583752D01*
X7835483Y24544994D01*
X7676935Y24418649D01*
X7533921Y24266635D01*
X7411618Y24095822D01*
X7315201Y23913078D01*
X7249849Y23725271D01*
X7239849Y23682403D01*
X7215381Y23520978D01*
X7206921Y23351550D01*
X6895278Y23351550D01*
X6894876Y23437977D01*
X6910022Y23619354D01*
X6940847Y23786982D01*
X6970818Y23891773D01*
X7057985Y24106855D01*
X7174875Y24311771D01*
X7317291Y24500586D01*
X7481032Y24667365D01*
X7661902Y24806176D01*
X7729649Y24847940D01*
X7938447Y24949530D01*
X8160456Y25021131D01*
X8390918Y25062708D01*
X8625079Y25074229D01*
X8858183Y25055661D01*
G36*
X8858183Y25055661D02*
G01*
X9085474Y25006969D01*
X9302195Y24928121D01*
X9503593Y24819083D01*
X9681444Y24688145D01*
X9857377Y24519496D01*
X10006284Y24330807D01*
X10125538Y24125462D01*
X10212509Y23906843D01*
X10249090Y23772189D01*
X10288535Y23527042D01*
X10293827Y23284007D01*
X10265859Y23046099D01*
X10205525Y22816329D01*
X10113719Y22597712D01*
X9991334Y22393258D01*
X9839265Y22205983D01*
X9658404Y22038897D01*
X9474245Y21907596D01*
X9271466Y21799630D01*
X9059231Y21724455D01*
X8833032Y21680502D01*
X8602647Y21667035D01*
X8588360Y21666200D01*
X8529470Y21667111D01*
X8283011Y21691930D01*
X8049721Y21750491D01*
X7830169Y21842568D01*
X7624922Y21967935D01*
X7434546Y22126365D01*
X7356322Y22205006D01*
X7202956Y22389381D01*
X7081578Y22585288D01*
X6989389Y22797687D01*
X6923588Y23031540D01*
X6912867Y23088417D01*
X6895721Y23256461D01*
X6895278Y23351550D01*
X7206921Y23351550D01*
X7215728Y23193699D01*
X7218447Y23172989D01*
X7264974Y22966898D01*
X7343700Y22770698D01*
X7451359Y22587955D01*
X7584682Y22422233D01*
X7740400Y22277097D01*
X7915245Y22156113D01*
X8105950Y22062845D01*
X8309245Y22000859D01*
X8339929Y21994920D01*
X8463746Y21980958D01*
X8602647Y21977454D01*
X8744049Y21983956D01*
X8875374Y22000011D01*
X8984038Y22025165D01*
X9009041Y22033380D01*
X9207428Y22118908D01*
X9393538Y22234705D01*
X9561894Y22376249D01*
X9707021Y22539017D01*
X9823442Y22718485D01*
X9840773Y22751469D01*
X9905420Y22896451D01*
X9948177Y23040448D01*
X9971792Y23194995D01*
X9979013Y23371628D01*
X9979000Y23380624D01*
X9974783Y23524832D01*
X9961036Y23646643D01*
X9934860Y23758660D01*
X9893356Y23873485D01*
X9833627Y24003719D01*
X9769096Y24118592D01*
X9645107Y24284160D01*
X9496198Y24432016D01*
X9328008Y24557534D01*
X9146177Y24656093D01*
X8956344Y24723066D01*
X8900210Y24736207D01*
X8694219Y24763243D01*
X8483255Y24760511D01*
X8274951Y24729016D01*
X8076941Y24669762D01*
X7896861Y24583752D01*
X7835483Y24544994D01*
X7676935Y24418649D01*
X7533921Y24266635D01*
X7411618Y24095822D01*
X7315201Y23913078D01*
X7249849Y23725271D01*
X7239849Y23682403D01*
X7215381Y23520978D01*
X7206921Y23351550D01*
X6895278Y23351550D01*
X6894876Y23437977D01*
X6910022Y23619354D01*
X6940847Y23786982D01*
X6970818Y23891773D01*
X7057985Y24106855D01*
X7174875Y24311771D01*
X7317291Y24500586D01*
X7481032Y24667365D01*
X7661902Y24806176D01*
X7729649Y24847940D01*
X7938447Y24949530D01*
X8160456Y25021131D01*
X8390918Y25062708D01*
X8625079Y25074229D01*
X8858183Y25055661D01*
G37*
X8713080Y17735347D02*
X8874919Y17721519D01*
X9015210Y17696288D01*
X9183327Y17645176D01*
X9403929Y17546426D01*
X9607687Y17417230D01*
X9791693Y17259830D01*
X9953041Y17076462D01*
X10088824Y16869367D01*
X10179414Y16676431D01*
X10248346Y16453121D01*
X10286860Y16220057D01*
X10294802Y15982686D01*
X10272015Y15746458D01*
X10218345Y15516821D01*
X10133635Y15299222D01*
X10074624Y15187131D01*
X9940463Y14988353D01*
X9780305Y14810058D01*
X9597954Y14655272D01*
X9397211Y14527019D01*
X9181879Y14428324D01*
X8955758Y14362211D01*
X8855720Y14347164D01*
X8724567Y14338148D01*
X8587993Y14336529D01*
X8580925Y14336446D01*
X8436719Y14341883D01*
X8303873Y14354283D01*
X8194311Y14373469D01*
X8006859Y14430003D01*
X7801678Y14523330D01*
X7609094Y14647914D01*
X7424836Y14806156D01*
X7323279Y14911053D01*
X7175351Y15096991D01*
X7059534Y15293446D01*
X6973272Y15505069D01*
X6914012Y15736515D01*
X6904164Y15805695D01*
X6896430Y15924959D01*
X6895856Y16017515D01*
X7206480Y16017515D01*
X7225627Y15803210D01*
X7275901Y15599268D01*
X7319158Y15483387D01*
X7369436Y15379613D01*
X7432802Y15278494D01*
X7516534Y15166954D01*
X7538754Y15139744D01*
X7692833Y14982746D01*
X7868870Y14851377D01*
X8061707Y14748996D01*
X8266187Y14678959D01*
X8291171Y14673072D01*
X8431945Y14651985D01*
X8587993Y14645033D01*
X8746975Y14651796D01*
X8896553Y14671853D01*
X9024389Y14704785D01*
X9035693Y14708776D01*
X9225639Y14794436D01*
X9404026Y14909098D01*
X9565986Y15048017D01*
X9706650Y15206447D01*
X9821150Y15379641D01*
X9904618Y15562855D01*
X9923613Y15620193D01*
X9971989Y15837623D01*
X9985556Y16058766D01*
X9964614Y16279569D01*
X9909460Y16495982D01*
X9820394Y16703950D01*
X9782151Y16771257D01*
X9728649Y16848510D01*
X9660632Y16929558D01*
X9570961Y17023546D01*
X9493457Y17099683D01*
X9428493Y17157752D01*
X9368667Y17202759D01*
X9304433Y17241867D01*
X9226247Y17282240D01*
X9214008Y17288225D01*
X9085091Y17346628D01*
X8971147Y17386899D01*
X8859506Y17411954D01*
X8737499Y17424707D01*
X8592457Y17428075D01*
X8488258Y17426041D01*
X8354530Y17415165D01*
X8236041Y17392618D01*
X8120646Y17355838D01*
X7996197Y17302263D01*
X7843064Y17215047D01*
X7681416Y17088197D01*
X7536429Y16936941D01*
X7412944Y16767161D01*
X7315804Y16584739D01*
X7249849Y16395557D01*
X7218745Y16233431D01*
X7206480Y16017515D01*
X6895856Y16017515D01*
X6895603Y16058366D01*
X6901365Y16193420D01*
X6913398Y16317623D01*
X6931383Y16418478D01*
X6991058Y16614743D01*
X7092674Y16840416D01*
X7226294Y17049996D01*
X7393000Y17245420D01*
X7555895Y17394677D01*
X7744300Y17525460D01*
X7948080Y17625329D01*
X8171375Y17696685D01*
X8225238Y17708351D01*
X8375543Y17728768D01*
X8542390Y17737765D01*
X8713080Y17735347D01*
G36*
X8713080Y17735347D02*
G01*
X8874919Y17721519D01*
X9015210Y17696288D01*
X9183327Y17645176D01*
X9403929Y17546426D01*
X9607687Y17417230D01*
X9791693Y17259830D01*
X9953041Y17076462D01*
X10088824Y16869367D01*
X10179414Y16676431D01*
X10248346Y16453121D01*
X10286860Y16220057D01*
X10294802Y15982686D01*
X10272015Y15746458D01*
X10218345Y15516821D01*
X10133635Y15299222D01*
X10074624Y15187131D01*
X9940463Y14988353D01*
X9780305Y14810058D01*
X9597954Y14655272D01*
X9397211Y14527019D01*
X9181879Y14428324D01*
X8955758Y14362211D01*
X8855720Y14347164D01*
X8724567Y14338148D01*
X8587993Y14336529D01*
X8580925Y14336446D01*
X8436719Y14341883D01*
X8303873Y14354283D01*
X8194311Y14373469D01*
X8006859Y14430003D01*
X7801678Y14523330D01*
X7609094Y14647914D01*
X7424836Y14806156D01*
X7323279Y14911053D01*
X7175351Y15096991D01*
X7059534Y15293446D01*
X6973272Y15505069D01*
X6914012Y15736515D01*
X6904164Y15805695D01*
X6896430Y15924959D01*
X6895856Y16017515D01*
X7206480Y16017515D01*
X7225627Y15803210D01*
X7275901Y15599268D01*
X7319158Y15483387D01*
X7369436Y15379613D01*
X7432802Y15278494D01*
X7516534Y15166954D01*
X7538754Y15139744D01*
X7692833Y14982746D01*
X7868870Y14851377D01*
X8061707Y14748996D01*
X8266187Y14678959D01*
X8291171Y14673072D01*
X8431945Y14651985D01*
X8587993Y14645033D01*
X8746975Y14651796D01*
X8896553Y14671853D01*
X9024389Y14704785D01*
X9035693Y14708776D01*
X9225639Y14794436D01*
X9404026Y14909098D01*
X9565986Y15048017D01*
X9706650Y15206447D01*
X9821150Y15379641D01*
X9904618Y15562855D01*
X9923613Y15620193D01*
X9971989Y15837623D01*
X9985556Y16058766D01*
X9964614Y16279569D01*
X9909460Y16495982D01*
X9820394Y16703950D01*
X9782151Y16771257D01*
X9728649Y16848510D01*
X9660632Y16929558D01*
X9570961Y17023546D01*
X9493457Y17099683D01*
X9428493Y17157752D01*
X9368667Y17202759D01*
X9304433Y17241867D01*
X9226247Y17282240D01*
X9214008Y17288225D01*
X9085091Y17346628D01*
X8971147Y17386899D01*
X8859506Y17411954D01*
X8737499Y17424707D01*
X8592457Y17428075D01*
X8488258Y17426041D01*
X8354530Y17415165D01*
X8236041Y17392618D01*
X8120646Y17355838D01*
X7996197Y17302263D01*
X7843064Y17215047D01*
X7681416Y17088197D01*
X7536429Y16936941D01*
X7412944Y16767161D01*
X7315804Y16584739D01*
X7249849Y16395557D01*
X7218745Y16233431D01*
X7206480Y16017515D01*
X6895856Y16017515D01*
X6895603Y16058366D01*
X6901365Y16193420D01*
X6913398Y16317623D01*
X6931383Y16418478D01*
X6991058Y16614743D01*
X7092674Y16840416D01*
X7226294Y17049996D01*
X7393000Y17245420D01*
X7555895Y17394677D01*
X7744300Y17525460D01*
X7948080Y17625329D01*
X8171375Y17696685D01*
X8225238Y17708351D01*
X8375543Y17728768D01*
X8542390Y17737765D01*
X8713080Y17735347D01*
G37*
X8708946Y21401051D02*
X8873419Y21387028D01*
X9016583Y21361102D01*
X9061455Y21349297D01*
X9291833Y21266870D01*
X9505926Y21152765D01*
X9701369Y21008677D01*
X9875797Y20836299D01*
X10026845Y20637326D01*
X10088588Y20534038D01*
X10184557Y20322441D01*
X10251443Y20096164D01*
X10288552Y19860697D01*
X10295190Y19621529D01*
X10270664Y19384149D01*
X10214281Y19154046D01*
X10170083Y19037689D01*
X10074661Y18853518D01*
X9952216Y18674483D01*
X9808008Y18507939D01*
X9647298Y18361243D01*
X9478477Y18239519D01*
X9365398Y18177929D01*
X9296621Y18140469D01*
X9105586Y18070187D01*
X8898686Y18026245D01*
X8669232Y18006216D01*
X8659656Y18005873D01*
X8597947Y18004809D01*
X8515210Y18003383D01*
X8394795Y18007973D01*
X8287270Y18020960D01*
X8181490Y18043658D01*
X8066314Y18077383D01*
X7888026Y18147508D01*
X7685147Y18260822D01*
X7498142Y18402180D01*
X7330279Y18567831D01*
X7184826Y18754024D01*
X7065050Y18957007D01*
X6974219Y19173031D01*
X6915600Y19398343D01*
X6895221Y19557938D01*
X6894539Y19643748D01*
X7219418Y19643748D01*
X7223485Y19518252D01*
X7236410Y19411293D01*
X7260156Y19312825D01*
X7296681Y19212804D01*
X7347946Y19101185D01*
X7366839Y19063926D01*
X7487201Y18870926D01*
X7632855Y18703831D01*
X7804495Y18561947D01*
X8002814Y18444579D01*
X8115957Y18393678D01*
X8265189Y18345528D01*
X8421572Y18318632D01*
X8597947Y18310086D01*
X8613739Y18310174D01*
X8702144Y18314099D01*
X8793925Y18322912D01*
X8881158Y18335323D01*
X8955914Y18350046D01*
X9010271Y18365794D01*
X9036300Y18381279D01*
X9036375Y18381646D01*
X9029506Y18402831D01*
X9009840Y18452705D01*
X8979152Y18527180D01*
X8939218Y18622169D01*
X8891813Y18733585D01*
X8838713Y18857340D01*
X8781693Y18989345D01*
X8722529Y19125515D01*
X8662997Y19261760D01*
X8604872Y19393993D01*
X8549930Y19518126D01*
X8499946Y19630073D01*
X8456695Y19725745D01*
X8421954Y19801055D01*
X8397498Y19851914D01*
X8384995Y19875523D01*
X8363087Y19902340D01*
X8331470Y19913309D01*
X8276880Y19915414D01*
X8275863Y19915414D01*
X8217833Y19911906D01*
X8181539Y19897972D01*
X8152971Y19868283D01*
X8128218Y19815608D01*
X8116943Y19734026D01*
X8123521Y19640497D01*
X8146338Y19544633D01*
X8183780Y19456044D01*
X8234233Y19384340D01*
X8273378Y19342671D01*
X8152759Y19222051D01*
X8032139Y19101431D01*
X7995003Y19145566D01*
X7949917Y19209661D01*
X7898786Y19308110D01*
X7859160Y19412875D01*
X7838011Y19507866D01*
X7825940Y19614558D01*
X7567386Y19625128D01*
X7567386Y19820453D01*
X7693146Y19822576D01*
X7818906Y19824700D01*
X7840825Y19910408D01*
X7884425Y20029131D01*
X7951983Y20135608D01*
X8037362Y20218069D01*
X8135965Y20270900D01*
X8140874Y20272658D01*
X8178069Y20289663D01*
X8193314Y20303547D01*
X8186248Y20325109D01*
X8166808Y20373049D01*
X8137954Y20440716D01*
X8102645Y20521500D01*
X8063842Y20608795D01*
X8024503Y20695992D01*
X7987588Y20776482D01*
X7956056Y20843657D01*
X7932868Y20890910D01*
X7920981Y20911631D01*
X7920204Y20912342D01*
X7893179Y20912507D01*
X7846385Y20888632D01*
X7783932Y20843661D01*
X7709932Y20780537D01*
X7628495Y20702205D01*
X7625883Y20699552D01*
X7504338Y20564874D01*
X7408999Y20431814D01*
X7332557Y20288652D01*
X7267703Y20123665D01*
X7256513Y20088436D01*
X7241806Y20027089D01*
X7231727Y19956621D01*
X7225138Y19867983D01*
X7220899Y19752128D01*
X7219418Y19643748D01*
X6894539Y19643748D01*
X6893344Y19794141D01*
X6923074Y20031211D01*
X6983724Y20260476D01*
X7033951Y20391083D01*
X7124349Y20568065D01*
X7239451Y20735378D01*
X7384648Y20901644D01*
X7389132Y20906296D01*
X7538188Y21042692D01*
X8248131Y21042692D01*
X8248251Y21041849D01*
X8257212Y21017291D01*
X8279102Y20964289D01*
X8312092Y20886950D01*
X8354352Y20789384D01*
X8404053Y20675701D01*
X8459364Y20550009D01*
X8518458Y20416418D01*
X8579504Y20279037D01*
X8640673Y20141975D01*
X8700136Y20009342D01*
X8756062Y19885246D01*
X8806624Y19773796D01*
X8849990Y19679103D01*
X8884333Y19605275D01*
X8907821Y19556420D01*
X8918627Y19536650D01*
X8941536Y19529120D01*
X8982396Y19532760D01*
X9022081Y19554334D01*
X9056704Y19605395D01*
X9075112Y19677122D01*
X9076589Y19762675D01*
X9060418Y19855213D01*
X9025883Y19947896D01*
X8984137Y20033821D01*
X9200243Y20252583D01*
X9240303Y20202585D01*
X9245467Y20195784D01*
X9280066Y20135514D01*
X9314576Y20054644D01*
X9343938Y19966314D01*
X9363092Y19883664D01*
X9374244Y19815628D01*
X9626600Y19815628D01*
X9626600Y19616057D01*
X9499946Y19616057D01*
X9465943Y19615969D01*
X9413053Y19614050D01*
X9383900Y19607197D01*
X9369845Y19592279D01*
X9362245Y19566164D01*
X9346822Y19505996D01*
X9295616Y19378988D01*
X9225862Y19282679D01*
X9137813Y19217460D01*
X9065824Y19180734D01*
X9156680Y18976574D01*
X9190148Y18901176D01*
X9231609Y18807329D01*
X9268802Y18722691D01*
X9296461Y18659222D01*
X9296668Y18658744D01*
X9323985Y18601922D01*
X9348669Y18561366D01*
X9365398Y18545830D01*
X9392675Y18558538D01*
X9437846Y18593831D01*
X9495413Y18646228D01*
X9560024Y18710244D01*
X9626330Y18780394D01*
X9688980Y18851194D01*
X9742624Y18917157D01*
X9781912Y18972801D01*
X9799611Y19002066D01*
X9892578Y19194861D01*
X9954719Y19400615D01*
X9985578Y19613763D01*
X9984700Y19828743D01*
X9951628Y20039992D01*
X9885907Y20241948D01*
X9804362Y20401395D01*
X9688088Y20566722D01*
X9548972Y20717673D01*
X9392810Y20848772D01*
X9225398Y20954541D01*
X9052531Y21029503D01*
X8990830Y21047953D01*
X8820012Y21082374D01*
X8638507Y21098727D01*
X8459865Y21096211D01*
X8297636Y21074029D01*
X8263417Y21060942D01*
X8248131Y21042692D01*
X7538188Y21042692D01*
X7564298Y21066584D01*
X7749450Y21193918D01*
X7949586Y21291223D01*
X8169704Y21361428D01*
X8215616Y21371655D01*
X8367250Y21393370D01*
X8535958Y21403166D01*
X8708946Y21401051D01*
G36*
X8708946Y21401051D02*
G01*
X8873419Y21387028D01*
X9016583Y21361102D01*
X9061455Y21349297D01*
X9291833Y21266870D01*
X9505926Y21152765D01*
X9701369Y21008677D01*
X9875797Y20836299D01*
X10026845Y20637326D01*
X10088588Y20534038D01*
X10184557Y20322441D01*
X10251443Y20096164D01*
X10288552Y19860697D01*
X10295190Y19621529D01*
X10270664Y19384149D01*
X10214281Y19154046D01*
X10170083Y19037689D01*
X10074661Y18853518D01*
X9952216Y18674483D01*
X9808008Y18507939D01*
X9647298Y18361243D01*
X9478477Y18239519D01*
X9365398Y18177929D01*
X9296621Y18140469D01*
X9105586Y18070187D01*
X8898686Y18026245D01*
X8669232Y18006216D01*
X8659656Y18005873D01*
X8597947Y18004809D01*
X8515210Y18003383D01*
X8394795Y18007973D01*
X8287270Y18020960D01*
X8181490Y18043658D01*
X8066314Y18077383D01*
X7888026Y18147508D01*
X7685147Y18260822D01*
X7498142Y18402180D01*
X7330279Y18567831D01*
X7184826Y18754024D01*
X7065050Y18957007D01*
X6974219Y19173031D01*
X6915600Y19398343D01*
X6895221Y19557938D01*
X6894539Y19643748D01*
X7219418Y19643748D01*
X7223485Y19518252D01*
X7236410Y19411293D01*
X7260156Y19312825D01*
X7296681Y19212804D01*
X7347946Y19101185D01*
X7366839Y19063926D01*
X7487201Y18870926D01*
X7632855Y18703831D01*
X7804495Y18561947D01*
X8002814Y18444579D01*
X8115957Y18393678D01*
X8265189Y18345528D01*
X8421572Y18318632D01*
X8597947Y18310086D01*
X8613739Y18310174D01*
X8702144Y18314099D01*
X8793925Y18322912D01*
X8881158Y18335323D01*
X8955914Y18350046D01*
X9010271Y18365794D01*
X9036300Y18381279D01*
X9036375Y18381646D01*
X9029506Y18402831D01*
X9009840Y18452705D01*
X8979152Y18527180D01*
X8939218Y18622169D01*
X8891813Y18733585D01*
X8838713Y18857340D01*
X8781693Y18989345D01*
X8722529Y19125515D01*
X8662997Y19261760D01*
X8604872Y19393993D01*
X8549930Y19518126D01*
X8499946Y19630073D01*
X8456695Y19725745D01*
X8421954Y19801055D01*
X8397498Y19851914D01*
X8384995Y19875523D01*
X8363087Y19902340D01*
X8331470Y19913309D01*
X8276880Y19915414D01*
X8275863Y19915414D01*
X8217833Y19911906D01*
X8181539Y19897972D01*
X8152971Y19868283D01*
X8128218Y19815608D01*
X8116943Y19734026D01*
X8123521Y19640497D01*
X8146338Y19544633D01*
X8183780Y19456044D01*
X8234233Y19384340D01*
X8273378Y19342671D01*
X8152759Y19222051D01*
X8032139Y19101431D01*
X7995003Y19145566D01*
X7949917Y19209661D01*
X7898786Y19308110D01*
X7859160Y19412875D01*
X7838011Y19507866D01*
X7825940Y19614558D01*
X7567386Y19625128D01*
X7567386Y19820453D01*
X7693146Y19822576D01*
X7818906Y19824700D01*
X7840825Y19910408D01*
X7884425Y20029131D01*
X7951983Y20135608D01*
X8037362Y20218069D01*
X8135965Y20270900D01*
X8140874Y20272658D01*
X8178069Y20289663D01*
X8193314Y20303547D01*
X8186248Y20325109D01*
X8166808Y20373049D01*
X8137954Y20440716D01*
X8102645Y20521500D01*
X8063842Y20608795D01*
X8024503Y20695992D01*
X7987588Y20776482D01*
X7956056Y20843657D01*
X7932868Y20890910D01*
X7920981Y20911631D01*
X7920204Y20912342D01*
X7893179Y20912507D01*
X7846385Y20888632D01*
X7783932Y20843661D01*
X7709932Y20780537D01*
X7628495Y20702205D01*
X7625883Y20699552D01*
X7504338Y20564874D01*
X7408999Y20431814D01*
X7332557Y20288652D01*
X7267703Y20123665D01*
X7256513Y20088436D01*
X7241806Y20027089D01*
X7231727Y19956621D01*
X7225138Y19867983D01*
X7220899Y19752128D01*
X7219418Y19643748D01*
X6894539Y19643748D01*
X6893344Y19794141D01*
X6923074Y20031211D01*
X6983724Y20260476D01*
X7033951Y20391083D01*
X7124349Y20568065D01*
X7239451Y20735378D01*
X7384648Y20901644D01*
X7389132Y20906296D01*
X7538188Y21042692D01*
X8248131Y21042692D01*
X8248251Y21041849D01*
X8257212Y21017291D01*
X8279102Y20964289D01*
X8312092Y20886950D01*
X8354352Y20789384D01*
X8404053Y20675701D01*
X8459364Y20550009D01*
X8518458Y20416418D01*
X8579504Y20279037D01*
X8640673Y20141975D01*
X8700136Y20009342D01*
X8756062Y19885246D01*
X8806624Y19773796D01*
X8849990Y19679103D01*
X8884333Y19605275D01*
X8907821Y19556420D01*
X8918627Y19536650D01*
X8941536Y19529120D01*
X8982396Y19532760D01*
X9022081Y19554334D01*
X9056704Y19605395D01*
X9075112Y19677122D01*
X9076589Y19762675D01*
X9060418Y19855213D01*
X9025883Y19947896D01*
X8984137Y20033821D01*
X9200243Y20252583D01*
X9240303Y20202585D01*
X9245467Y20195784D01*
X9280066Y20135514D01*
X9314576Y20054644D01*
X9343938Y19966314D01*
X9363092Y19883664D01*
X9374244Y19815628D01*
X9626600Y19815628D01*
X9626600Y19616057D01*
X9499946Y19616057D01*
X9465943Y19615969D01*
X9413053Y19614050D01*
X9383900Y19607197D01*
X9369845Y19592279D01*
X9362245Y19566164D01*
X9346822Y19505996D01*
X9295616Y19378988D01*
X9225862Y19282679D01*
X9137813Y19217460D01*
X9065824Y19180734D01*
X9156680Y18976574D01*
X9190148Y18901176D01*
X9231609Y18807329D01*
X9268802Y18722691D01*
X9296461Y18659222D01*
X9296668Y18658744D01*
X9323985Y18601922D01*
X9348669Y18561366D01*
X9365398Y18545830D01*
X9392675Y18558538D01*
X9437846Y18593831D01*
X9495413Y18646228D01*
X9560024Y18710244D01*
X9626330Y18780394D01*
X9688980Y18851194D01*
X9742624Y18917157D01*
X9781912Y18972801D01*
X9799611Y19002066D01*
X9892578Y19194861D01*
X9954719Y19400615D01*
X9985578Y19613763D01*
X9984700Y19828743D01*
X9951628Y20039992D01*
X9885907Y20241948D01*
X9804362Y20401395D01*
X9688088Y20566722D01*
X9548972Y20717673D01*
X9392810Y20848772D01*
X9225398Y20954541D01*
X9052531Y21029503D01*
X8990830Y21047953D01*
X8820012Y21082374D01*
X8638507Y21098727D01*
X8459865Y21096211D01*
X8297636Y21074029D01*
X8263417Y21060942D01*
X8248131Y21042692D01*
X7538188Y21042692D01*
X7564298Y21066584D01*
X7749450Y21193918D01*
X7949586Y21291223D01*
X8169704Y21361428D01*
X8215616Y21371655D01*
X8367250Y21393370D01*
X8535958Y21403166D01*
X8708946Y21401051D01*
G37*
%TD*%
%LPC*%
D14*
%TO.C,J1*%
X15240000Y31750000D03*
D15*
X12700000Y31750000D03*
X10160000Y31750000D03*
X7620000Y31750000D03*
X5080000Y31750000D03*
X2540000Y31750000D03*
%TD*%
D14*
%TO.C,J4*%
X13970000Y1270000D03*
D15*
X11430000Y1270000D03*
X8890000Y1270000D03*
X6350000Y1270000D03*
X3810000Y1270000D03*
%TD*%
D14*
%TO.C,J5*%
X13970000Y17780000D03*
D15*
X13970000Y20320000D03*
%TD*%
D14*
%TO.C,J3*%
X1270000Y1270000D03*
D15*
X1270000Y3810000D03*
X1270000Y6350000D03*
X1270000Y8890000D03*
X1270000Y11430000D03*
X1270000Y13970000D03*
X1270000Y16510000D03*
X1270000Y19050000D03*
X1270000Y21590000D03*
X1270000Y24130000D03*
X1270000Y26670000D03*
X1270000Y29210000D03*
%TD*%
D14*
%TO.C,J2*%
X16510000Y29210000D03*
D15*
X16510000Y26670000D03*
X16510000Y24130000D03*
X16510000Y21590000D03*
X16510000Y19050000D03*
X16510000Y16510000D03*
X16510000Y13970000D03*
X16510000Y11430000D03*
X16510000Y8890000D03*
X16510000Y6350000D03*
X16510000Y3810000D03*
X16510000Y1270000D03*
%TD*%
%LPD*%
M02*
