%TF.GenerationSoftware,KiCad,Pcbnew,8.0.9-8.0.9-0~ubuntu22.04.1*%
%TF.CreationDate,2025-05-07T12:48:03+02:00*%
%TF.ProjectId,Adapter_EByte_E07_900MM10S_to_noname_green_RF_module_FUEL4EP,41646170-7465-4725-9f45-427974655f45,1.1*%
%TF.SameCoordinates,Original*%
%TF.FileFunction,Legend,Bot*%
%TF.FilePolarity,Positive*%
%FSLAX46Y46*%
G04 Gerber Fmt 4.6, Leading zero omitted, Abs format (unit mm)*
G04 Created by KiCad (PCBNEW 8.0.9-8.0.9-0~ubuntu22.04.1) date 2025-05-07 12:48:03*
%MOMM*%
%LPD*%
G01*
G04 APERTURE LIST*
G04 Aperture macros list*
%AMRoundRect*
0 Rectangle with rounded corners*
0 $1 Rounding radius*
0 $2 $3 $4 $5 $6 $7 $8 $9 X,Y pos of 4 corners*
0 Add a 4 corners polygon primitive as box body*
4,1,4,$2,$3,$4,$5,$6,$7,$8,$9,$2,$3,0*
0 Add four circle primitives for the rounded corners*
1,1,$1+$1,$2,$3*
1,1,$1+$1,$4,$5*
1,1,$1+$1,$6,$7*
1,1,$1+$1,$8,$9*
0 Add four rect primitives between the rounded corners*
20,1,$1+$1,$2,$3,$4,$5,0*
20,1,$1+$1,$4,$5,$6,$7,0*
20,1,$1+$1,$6,$7,$8,$9,0*
20,1,$1+$1,$8,$9,$2,$3,0*%
G04 Aperture macros list end*
%ADD10C,0.152400*%
%ADD11C,0.125000*%
%ADD12C,0.150000*%
%ADD13C,0.010000*%
%ADD14R,1.400000X1.400000*%
%ADD15RoundRect,0.300000X-0.400000X-0.400000X0.400000X-0.400000X0.400000X0.400000X-0.400000X0.400000X0*%
%ADD16R,1.600000X1.600000*%
G04 APERTURE END LIST*
D10*
X3366403Y13760258D02*
X3433070Y13793591D01*
X3433070Y13793591D02*
X3533070Y13793591D01*
X3533070Y13793591D02*
X3633070Y13760258D01*
X3633070Y13760258D02*
X3699737Y13693591D01*
X3699737Y13693591D02*
X3733070Y13626925D01*
X3733070Y13626925D02*
X3766403Y13493591D01*
X3766403Y13493591D02*
X3766403Y13393591D01*
X3766403Y13393591D02*
X3733070Y13260258D01*
X3733070Y13260258D02*
X3699737Y13193591D01*
X3699737Y13193591D02*
X3633070Y13126925D01*
X3633070Y13126925D02*
X3533070Y13093591D01*
X3533070Y13093591D02*
X3466403Y13093591D01*
X3466403Y13093591D02*
X3366403Y13126925D01*
X3366403Y13126925D02*
X3333070Y13160258D01*
X3333070Y13160258D02*
X3333070Y13393591D01*
X3333070Y13393591D02*
X3466403Y13393591D01*
X3033070Y13093591D02*
X3033070Y13793591D01*
X3033070Y13793591D02*
X2633070Y13093591D01*
X2633070Y13093591D02*
X2633070Y13793591D01*
X2299737Y13093591D02*
X2299737Y13793591D01*
X2299737Y13793591D02*
X2133070Y13793591D01*
X2133070Y13793591D02*
X2033070Y13760258D01*
X2033070Y13760258D02*
X1966404Y13693591D01*
X1966404Y13693591D02*
X1933070Y13626925D01*
X1933070Y13626925D02*
X1899737Y13493591D01*
X1899737Y13493591D02*
X1899737Y13393591D01*
X1899737Y13393591D02*
X1933070Y13260258D01*
X1933070Y13260258D02*
X1966404Y13193591D01*
X1966404Y13193591D02*
X2033070Y13126925D01*
X2033070Y13126925D02*
X2133070Y13093591D01*
X2133070Y13093591D02*
X2299737Y13093591D01*
X3333070Y1160258D02*
X3366403Y1126925D01*
X3366403Y1126925D02*
X3466403Y1093591D01*
X3466403Y1093591D02*
X3533070Y1093591D01*
X3533070Y1093591D02*
X3633070Y1126925D01*
X3633070Y1126925D02*
X3699737Y1193591D01*
X3699737Y1193591D02*
X3733070Y1260258D01*
X3733070Y1260258D02*
X3766403Y1393591D01*
X3766403Y1393591D02*
X3766403Y1493591D01*
X3766403Y1493591D02*
X3733070Y1626925D01*
X3733070Y1626925D02*
X3699737Y1693591D01*
X3699737Y1693591D02*
X3633070Y1760258D01*
X3633070Y1760258D02*
X3533070Y1793591D01*
X3533070Y1793591D02*
X3466403Y1793591D01*
X3466403Y1793591D02*
X3366403Y1760258D01*
X3366403Y1760258D02*
X3333070Y1726925D01*
X3066403Y1126925D02*
X2966403Y1093591D01*
X2966403Y1093591D02*
X2799737Y1093591D01*
X2799737Y1093591D02*
X2733070Y1126925D01*
X2733070Y1126925D02*
X2699737Y1160258D01*
X2699737Y1160258D02*
X2666403Y1226925D01*
X2666403Y1226925D02*
X2666403Y1293591D01*
X2666403Y1293591D02*
X2699737Y1360258D01*
X2699737Y1360258D02*
X2733070Y1393591D01*
X2733070Y1393591D02*
X2799737Y1426925D01*
X2799737Y1426925D02*
X2933070Y1460258D01*
X2933070Y1460258D02*
X2999737Y1493591D01*
X2999737Y1493591D02*
X3033070Y1526925D01*
X3033070Y1526925D02*
X3066403Y1593591D01*
X3066403Y1593591D02*
X3066403Y1660258D01*
X3066403Y1660258D02*
X3033070Y1726925D01*
X3033070Y1726925D02*
X2999737Y1760258D01*
X2999737Y1760258D02*
X2933070Y1793591D01*
X2933070Y1793591D02*
X2766403Y1793591D01*
X2766403Y1793591D02*
X2666403Y1760258D01*
X2366403Y1093591D02*
X2366403Y1793591D01*
X2366403Y1793591D02*
X1966403Y1093591D01*
X1966403Y1093591D02*
X1966403Y1793591D01*
X3866403Y3760258D02*
X3933070Y3793591D01*
X3933070Y3793591D02*
X4033070Y3793591D01*
X4033070Y3793591D02*
X4133070Y3760258D01*
X4133070Y3760258D02*
X4199737Y3693591D01*
X4199737Y3693591D02*
X4233070Y3626925D01*
X4233070Y3626925D02*
X4266403Y3493591D01*
X4266403Y3493591D02*
X4266403Y3393591D01*
X4266403Y3393591D02*
X4233070Y3260258D01*
X4233070Y3260258D02*
X4199737Y3193591D01*
X4199737Y3193591D02*
X4133070Y3126925D01*
X4133070Y3126925D02*
X4033070Y3093591D01*
X4033070Y3093591D02*
X3966403Y3093591D01*
X3966403Y3093591D02*
X3866403Y3126925D01*
X3866403Y3126925D02*
X3833070Y3160258D01*
X3833070Y3160258D02*
X3833070Y3393591D01*
X3833070Y3393591D02*
X3966403Y3393591D01*
X3533070Y3093591D02*
X3533070Y3793591D01*
X3533070Y3793591D02*
X3366403Y3793591D01*
X3366403Y3793591D02*
X3266403Y3760258D01*
X3266403Y3760258D02*
X3199737Y3693591D01*
X3199737Y3693591D02*
X3166403Y3626925D01*
X3166403Y3626925D02*
X3133070Y3493591D01*
X3133070Y3493591D02*
X3133070Y3393591D01*
X3133070Y3393591D02*
X3166403Y3260258D01*
X3166403Y3260258D02*
X3199737Y3193591D01*
X3199737Y3193591D02*
X3266403Y3126925D01*
X3266403Y3126925D02*
X3366403Y3093591D01*
X3366403Y3093591D02*
X3533070Y3093591D01*
X2699737Y3793591D02*
X2566403Y3793591D01*
X2566403Y3793591D02*
X2499737Y3760258D01*
X2499737Y3760258D02*
X2433070Y3693591D01*
X2433070Y3693591D02*
X2399737Y3560258D01*
X2399737Y3560258D02*
X2399737Y3326925D01*
X2399737Y3326925D02*
X2433070Y3193591D01*
X2433070Y3193591D02*
X2499737Y3126925D01*
X2499737Y3126925D02*
X2566403Y3093591D01*
X2566403Y3093591D02*
X2699737Y3093591D01*
X2699737Y3093591D02*
X2766403Y3126925D01*
X2766403Y3126925D02*
X2833070Y3193591D01*
X2833070Y3193591D02*
X2866403Y3326925D01*
X2866403Y3326925D02*
X2866403Y3560258D01*
X2866403Y3560258D02*
X2833070Y3693591D01*
X2833070Y3693591D02*
X2766403Y3760258D01*
X2766403Y3760258D02*
X2699737Y3793591D01*
X1966404Y3793591D02*
X1899737Y3793591D01*
X1899737Y3793591D02*
X1833070Y3760258D01*
X1833070Y3760258D02*
X1799737Y3726925D01*
X1799737Y3726925D02*
X1766404Y3660258D01*
X1766404Y3660258D02*
X1733070Y3526925D01*
X1733070Y3526925D02*
X1733070Y3360258D01*
X1733070Y3360258D02*
X1766404Y3226925D01*
X1766404Y3226925D02*
X1799737Y3160258D01*
X1799737Y3160258D02*
X1833070Y3126925D01*
X1833070Y3126925D02*
X1899737Y3093591D01*
X1899737Y3093591D02*
X1966404Y3093591D01*
X1966404Y3093591D02*
X2033070Y3126925D01*
X2033070Y3126925D02*
X2066404Y3160258D01*
X2066404Y3160258D02*
X2099737Y3226925D01*
X2099737Y3226925D02*
X2133070Y3360258D01*
X2133070Y3360258D02*
X2133070Y3526925D01*
X2133070Y3526925D02*
X2099737Y3660258D01*
X2099737Y3660258D02*
X2066404Y3726925D01*
X2066404Y3726925D02*
X2033070Y3760258D01*
X2033070Y3760258D02*
X1966404Y3793591D01*
X3833070Y15793591D02*
X3599737Y15093591D01*
X3599737Y15093591D02*
X3366403Y15793591D01*
X3133070Y15093591D02*
X3133070Y15793591D01*
X3133070Y15793591D02*
X2966403Y15793591D01*
X2966403Y15793591D02*
X2866403Y15760258D01*
X2866403Y15760258D02*
X2799737Y15693591D01*
X2799737Y15693591D02*
X2766403Y15626925D01*
X2766403Y15626925D02*
X2733070Y15493591D01*
X2733070Y15493591D02*
X2733070Y15393591D01*
X2733070Y15393591D02*
X2766403Y15260258D01*
X2766403Y15260258D02*
X2799737Y15193591D01*
X2799737Y15193591D02*
X2866403Y15126925D01*
X2866403Y15126925D02*
X2966403Y15093591D01*
X2966403Y15093591D02*
X3133070Y15093591D01*
X2433070Y15093591D02*
X2433070Y15793591D01*
X2433070Y15793591D02*
X2266403Y15793591D01*
X2266403Y15793591D02*
X2166403Y15760258D01*
X2166403Y15760258D02*
X2099737Y15693591D01*
X2099737Y15693591D02*
X2066403Y15626925D01*
X2066403Y15626925D02*
X2033070Y15493591D01*
X2033070Y15493591D02*
X2033070Y15393591D01*
X2033070Y15393591D02*
X2066403Y15260258D01*
X2066403Y15260258D02*
X2099737Y15193591D01*
X2099737Y15193591D02*
X2166403Y15126925D01*
X2166403Y15126925D02*
X2266403Y15093591D01*
X2266403Y15093591D02*
X2433070Y15093591D01*
X3866403Y5760258D02*
X3933070Y5793591D01*
X3933070Y5793591D02*
X4033070Y5793591D01*
X4033070Y5793591D02*
X4133070Y5760258D01*
X4133070Y5760258D02*
X4199737Y5693591D01*
X4199737Y5693591D02*
X4233070Y5626925D01*
X4233070Y5626925D02*
X4266403Y5493591D01*
X4266403Y5493591D02*
X4266403Y5393591D01*
X4266403Y5393591D02*
X4233070Y5260258D01*
X4233070Y5260258D02*
X4199737Y5193591D01*
X4199737Y5193591D02*
X4133070Y5126925D01*
X4133070Y5126925D02*
X4033070Y5093591D01*
X4033070Y5093591D02*
X3966403Y5093591D01*
X3966403Y5093591D02*
X3866403Y5126925D01*
X3866403Y5126925D02*
X3833070Y5160258D01*
X3833070Y5160258D02*
X3833070Y5393591D01*
X3833070Y5393591D02*
X3966403Y5393591D01*
X3533070Y5093591D02*
X3533070Y5793591D01*
X3533070Y5793591D02*
X3366403Y5793591D01*
X3366403Y5793591D02*
X3266403Y5760258D01*
X3266403Y5760258D02*
X3199737Y5693591D01*
X3199737Y5693591D02*
X3166403Y5626925D01*
X3166403Y5626925D02*
X3133070Y5493591D01*
X3133070Y5493591D02*
X3133070Y5393591D01*
X3133070Y5393591D02*
X3166403Y5260258D01*
X3166403Y5260258D02*
X3199737Y5193591D01*
X3199737Y5193591D02*
X3266403Y5126925D01*
X3266403Y5126925D02*
X3366403Y5093591D01*
X3366403Y5093591D02*
X3533070Y5093591D01*
X2699737Y5793591D02*
X2566403Y5793591D01*
X2566403Y5793591D02*
X2499737Y5760258D01*
X2499737Y5760258D02*
X2433070Y5693591D01*
X2433070Y5693591D02*
X2399737Y5560258D01*
X2399737Y5560258D02*
X2399737Y5326925D01*
X2399737Y5326925D02*
X2433070Y5193591D01*
X2433070Y5193591D02*
X2499737Y5126925D01*
X2499737Y5126925D02*
X2566403Y5093591D01*
X2566403Y5093591D02*
X2699737Y5093591D01*
X2699737Y5093591D02*
X2766403Y5126925D01*
X2766403Y5126925D02*
X2833070Y5193591D01*
X2833070Y5193591D02*
X2866403Y5326925D01*
X2866403Y5326925D02*
X2866403Y5560258D01*
X2866403Y5560258D02*
X2833070Y5693591D01*
X2833070Y5693591D02*
X2766403Y5760258D01*
X2766403Y5760258D02*
X2699737Y5793591D01*
X2133070Y5726925D02*
X2099737Y5760258D01*
X2099737Y5760258D02*
X2033070Y5793591D01*
X2033070Y5793591D02*
X1866404Y5793591D01*
X1866404Y5793591D02*
X1799737Y5760258D01*
X1799737Y5760258D02*
X1766404Y5726925D01*
X1766404Y5726925D02*
X1733070Y5660258D01*
X1733070Y5660258D02*
X1733070Y5593591D01*
X1733070Y5593591D02*
X1766404Y5493591D01*
X1766404Y5493591D02*
X2166404Y5093591D01*
X2166404Y5093591D02*
X1733070Y5093591D01*
D11*
X17099642Y8135714D02*
X17099642Y7850000D01*
X17271071Y8192857D02*
X16671071Y7992857D01*
X16671071Y7992857D02*
X17271071Y7792857D01*
X17271071Y7592856D02*
X16671071Y7592856D01*
X16671071Y7592856D02*
X17271071Y7249999D01*
X17271071Y7249999D02*
X16671071Y7249999D01*
X16671071Y7050000D02*
X16671071Y6707143D01*
X17271071Y6878571D02*
X16671071Y6878571D01*
D10*
X3766403Y9126925D02*
X3666403Y9093591D01*
X3666403Y9093591D02*
X3499737Y9093591D01*
X3499737Y9093591D02*
X3433070Y9126925D01*
X3433070Y9126925D02*
X3399737Y9160258D01*
X3399737Y9160258D02*
X3366403Y9226925D01*
X3366403Y9226925D02*
X3366403Y9293591D01*
X3366403Y9293591D02*
X3399737Y9360258D01*
X3399737Y9360258D02*
X3433070Y9393591D01*
X3433070Y9393591D02*
X3499737Y9426925D01*
X3499737Y9426925D02*
X3633070Y9460258D01*
X3633070Y9460258D02*
X3699737Y9493591D01*
X3699737Y9493591D02*
X3733070Y9526925D01*
X3733070Y9526925D02*
X3766403Y9593591D01*
X3766403Y9593591D02*
X3766403Y9660258D01*
X3766403Y9660258D02*
X3733070Y9726925D01*
X3733070Y9726925D02*
X3699737Y9760258D01*
X3699737Y9760258D02*
X3633070Y9793591D01*
X3633070Y9793591D02*
X3466403Y9793591D01*
X3466403Y9793591D02*
X3366403Y9760258D01*
X2666403Y9160258D02*
X2699736Y9126925D01*
X2699736Y9126925D02*
X2799736Y9093591D01*
X2799736Y9093591D02*
X2866403Y9093591D01*
X2866403Y9093591D02*
X2966403Y9126925D01*
X2966403Y9126925D02*
X3033070Y9193591D01*
X3033070Y9193591D02*
X3066403Y9260258D01*
X3066403Y9260258D02*
X3099736Y9393591D01*
X3099736Y9393591D02*
X3099736Y9493591D01*
X3099736Y9493591D02*
X3066403Y9626925D01*
X3066403Y9626925D02*
X3033070Y9693591D01*
X3033070Y9693591D02*
X2966403Y9760258D01*
X2966403Y9760258D02*
X2866403Y9793591D01*
X2866403Y9793591D02*
X2799736Y9793591D01*
X2799736Y9793591D02*
X2699736Y9760258D01*
X2699736Y9760258D02*
X2666403Y9726925D01*
X2366403Y9093591D02*
X2366403Y9793591D01*
X1966403Y9093591D02*
X2266403Y9493591D01*
X1966403Y9793591D02*
X2366403Y9393591D01*
X4257070Y11093591D02*
X4257070Y11793591D01*
X4257070Y11793591D02*
X4023737Y11293591D01*
X4023737Y11293591D02*
X3790403Y11793591D01*
X3790403Y11793591D02*
X3790403Y11093591D01*
X3323737Y11793591D02*
X3190403Y11793591D01*
X3190403Y11793591D02*
X3123737Y11760258D01*
X3123737Y11760258D02*
X3057070Y11693591D01*
X3057070Y11693591D02*
X3023737Y11560258D01*
X3023737Y11560258D02*
X3023737Y11326925D01*
X3023737Y11326925D02*
X3057070Y11193591D01*
X3057070Y11193591D02*
X3123737Y11126925D01*
X3123737Y11126925D02*
X3190403Y11093591D01*
X3190403Y11093591D02*
X3323737Y11093591D01*
X3323737Y11093591D02*
X3390403Y11126925D01*
X3390403Y11126925D02*
X3457070Y11193591D01*
X3457070Y11193591D02*
X3490403Y11326925D01*
X3490403Y11326925D02*
X3490403Y11560258D01*
X3490403Y11560258D02*
X3457070Y11693591D01*
X3457070Y11693591D02*
X3390403Y11760258D01*
X3390403Y11760258D02*
X3323737Y11793591D01*
X2757070Y11126925D02*
X2657070Y11093591D01*
X2657070Y11093591D02*
X2490404Y11093591D01*
X2490404Y11093591D02*
X2423737Y11126925D01*
X2423737Y11126925D02*
X2390404Y11160258D01*
X2390404Y11160258D02*
X2357070Y11226925D01*
X2357070Y11226925D02*
X2357070Y11293591D01*
X2357070Y11293591D02*
X2390404Y11360258D01*
X2390404Y11360258D02*
X2423737Y11393591D01*
X2423737Y11393591D02*
X2490404Y11426925D01*
X2490404Y11426925D02*
X2623737Y11460258D01*
X2623737Y11460258D02*
X2690404Y11493591D01*
X2690404Y11493591D02*
X2723737Y11526925D01*
X2723737Y11526925D02*
X2757070Y11593591D01*
X2757070Y11593591D02*
X2757070Y11660258D01*
X2757070Y11660258D02*
X2723737Y11726925D01*
X2723737Y11726925D02*
X2690404Y11760258D01*
X2690404Y11760258D02*
X2623737Y11793591D01*
X2623737Y11793591D02*
X2457070Y11793591D01*
X2457070Y11793591D02*
X2357070Y11760258D01*
X2057070Y11093591D02*
X2057070Y11793591D01*
D11*
X16749642Y5407142D02*
X16721071Y5464285D01*
X16721071Y5464285D02*
X16721071Y5549999D01*
X16721071Y5549999D02*
X16749642Y5635713D01*
X16749642Y5635713D02*
X16806785Y5692856D01*
X16806785Y5692856D02*
X16863928Y5721427D01*
X16863928Y5721427D02*
X16978214Y5749999D01*
X16978214Y5749999D02*
X17063928Y5749999D01*
X17063928Y5749999D02*
X17178214Y5721427D01*
X17178214Y5721427D02*
X17235357Y5692856D01*
X17235357Y5692856D02*
X17292500Y5635713D01*
X17292500Y5635713D02*
X17321071Y5549999D01*
X17321071Y5549999D02*
X17321071Y5492856D01*
X17321071Y5492856D02*
X17292500Y5407142D01*
X17292500Y5407142D02*
X17263928Y5378570D01*
X17263928Y5378570D02*
X17063928Y5378570D01*
X17063928Y5378570D02*
X17063928Y5492856D01*
X17321071Y5121427D02*
X16721071Y5121427D01*
X16721071Y5121427D02*
X17321071Y4778570D01*
X17321071Y4778570D02*
X16721071Y4778570D01*
X17321071Y4492856D02*
X16721071Y4492856D01*
X16721071Y4492856D02*
X16721071Y4349999D01*
X16721071Y4349999D02*
X16749642Y4264285D01*
X16749642Y4264285D02*
X16806785Y4207142D01*
X16806785Y4207142D02*
X16863928Y4178571D01*
X16863928Y4178571D02*
X16978214Y4149999D01*
X16978214Y4149999D02*
X17063928Y4149999D01*
X17063928Y4149999D02*
X17178214Y4178571D01*
X17178214Y4178571D02*
X17235357Y4207142D01*
X17235357Y4207142D02*
X17292500Y4264285D01*
X17292500Y4264285D02*
X17321071Y4349999D01*
X17321071Y4349999D02*
X17321071Y4492856D01*
D10*
X14073984Y9797758D02*
X14112689Y9836462D01*
X14112689Y9836462D02*
X14190098Y9952577D01*
X14190098Y9952577D02*
X14228803Y10029986D01*
X14228803Y10029986D02*
X14267508Y10146101D01*
X14267508Y10146101D02*
X14306213Y10339624D01*
X14306213Y10339624D02*
X14306213Y10494443D01*
X14306213Y10494443D02*
X14267508Y10687967D01*
X14267508Y10687967D02*
X14228803Y10804081D01*
X14228803Y10804081D02*
X14190098Y10881491D01*
X14190098Y10881491D02*
X14112689Y10997605D01*
X14112689Y10997605D02*
X14073984Y11036310D01*
X13299889Y10184805D02*
X13338593Y10146101D01*
X13338593Y10146101D02*
X13454708Y10107396D01*
X13454708Y10107396D02*
X13532117Y10107396D01*
X13532117Y10107396D02*
X13648231Y10146101D01*
X13648231Y10146101D02*
X13725641Y10223510D01*
X13725641Y10223510D02*
X13764346Y10300920D01*
X13764346Y10300920D02*
X13803050Y10455739D01*
X13803050Y10455739D02*
X13803050Y10571853D01*
X13803050Y10571853D02*
X13764346Y10726672D01*
X13764346Y10726672D02*
X13725641Y10804081D01*
X13725641Y10804081D02*
X13648231Y10881491D01*
X13648231Y10881491D02*
X13532117Y10920196D01*
X13532117Y10920196D02*
X13454708Y10920196D01*
X13454708Y10920196D02*
X13338593Y10881491D01*
X13338593Y10881491D02*
X13299889Y10842786D01*
X13028955Y9797758D02*
X12990250Y9836462D01*
X12990250Y9836462D02*
X12912841Y9952577D01*
X12912841Y9952577D02*
X12874136Y10029986D01*
X12874136Y10029986D02*
X12835431Y10146101D01*
X12835431Y10146101D02*
X12796727Y10339624D01*
X12796727Y10339624D02*
X12796727Y10494443D01*
X12796727Y10494443D02*
X12835431Y10687967D01*
X12835431Y10687967D02*
X12874136Y10804081D01*
X12874136Y10804081D02*
X12912841Y10881491D01*
X12912841Y10881491D02*
X12990250Y10997605D01*
X12990250Y10997605D02*
X13028955Y11036310D01*
X11519469Y10533148D02*
X11790403Y10533148D01*
X11790403Y10107396D02*
X11790403Y10920196D01*
X11790403Y10920196D02*
X11403355Y10920196D01*
X11093717Y10920196D02*
X11093717Y10262215D01*
X11093717Y10262215D02*
X11055012Y10184805D01*
X11055012Y10184805D02*
X11016307Y10146101D01*
X11016307Y10146101D02*
X10938898Y10107396D01*
X10938898Y10107396D02*
X10784079Y10107396D01*
X10784079Y10107396D02*
X10706669Y10146101D01*
X10706669Y10146101D02*
X10667964Y10184805D01*
X10667964Y10184805D02*
X10629260Y10262215D01*
X10629260Y10262215D02*
X10629260Y10920196D01*
X10242212Y10533148D02*
X9971278Y10533148D01*
X9855164Y10107396D02*
X10242212Y10107396D01*
X10242212Y10107396D02*
X10242212Y10920196D01*
X10242212Y10920196D02*
X9855164Y10920196D01*
X9119774Y10107396D02*
X9506822Y10107396D01*
X9506822Y10107396D02*
X9506822Y10920196D01*
X8500498Y10649262D02*
X8500498Y10107396D01*
X8694022Y10958901D02*
X8887545Y10378329D01*
X8887545Y10378329D02*
X8384384Y10378329D01*
X8074746Y10533148D02*
X7803812Y10533148D01*
X7687698Y10107396D02*
X8074746Y10107396D01*
X8074746Y10107396D02*
X8074746Y10920196D01*
X8074746Y10920196D02*
X7687698Y10920196D01*
X7339356Y10107396D02*
X7339356Y10920196D01*
X7339356Y10920196D02*
X7029718Y10920196D01*
X7029718Y10920196D02*
X6952308Y10881491D01*
X6952308Y10881491D02*
X6913603Y10842786D01*
X6913603Y10842786D02*
X6874899Y10765377D01*
X6874899Y10765377D02*
X6874899Y10649262D01*
X6874899Y10649262D02*
X6913603Y10571853D01*
X6913603Y10571853D02*
X6952308Y10533148D01*
X6952308Y10533148D02*
X7029718Y10494443D01*
X7029718Y10494443D02*
X7339356Y10494443D01*
X4257070Y7093591D02*
X4257070Y7793591D01*
X4257070Y7793591D02*
X4023737Y7293591D01*
X4023737Y7293591D02*
X3790403Y7793591D01*
X3790403Y7793591D02*
X3790403Y7093591D01*
X3457070Y7093591D02*
X3457070Y7793591D01*
X3157070Y7126925D02*
X3057070Y7093591D01*
X3057070Y7093591D02*
X2890404Y7093591D01*
X2890404Y7093591D02*
X2823737Y7126925D01*
X2823737Y7126925D02*
X2790404Y7160258D01*
X2790404Y7160258D02*
X2757070Y7226925D01*
X2757070Y7226925D02*
X2757070Y7293591D01*
X2757070Y7293591D02*
X2790404Y7360258D01*
X2790404Y7360258D02*
X2823737Y7393591D01*
X2823737Y7393591D02*
X2890404Y7426925D01*
X2890404Y7426925D02*
X3023737Y7460258D01*
X3023737Y7460258D02*
X3090404Y7493591D01*
X3090404Y7493591D02*
X3123737Y7526925D01*
X3123737Y7526925D02*
X3157070Y7593591D01*
X3157070Y7593591D02*
X3157070Y7660258D01*
X3157070Y7660258D02*
X3123737Y7726925D01*
X3123737Y7726925D02*
X3090404Y7760258D01*
X3090404Y7760258D02*
X3023737Y7793591D01*
X3023737Y7793591D02*
X2857070Y7793591D01*
X2857070Y7793591D02*
X2757070Y7760258D01*
X2323737Y7793591D02*
X2190403Y7793591D01*
X2190403Y7793591D02*
X2123737Y7760258D01*
X2123737Y7760258D02*
X2057070Y7693591D01*
X2057070Y7693591D02*
X2023737Y7560258D01*
X2023737Y7560258D02*
X2023737Y7326925D01*
X2023737Y7326925D02*
X2057070Y7193591D01*
X2057070Y7193591D02*
X2123737Y7126925D01*
X2123737Y7126925D02*
X2190403Y7093591D01*
X2190403Y7093591D02*
X2323737Y7093591D01*
X2323737Y7093591D02*
X2390403Y7126925D01*
X2390403Y7126925D02*
X2457070Y7193591D01*
X2457070Y7193591D02*
X2490403Y7326925D01*
X2490403Y7326925D02*
X2490403Y7560258D01*
X2490403Y7560258D02*
X2457070Y7693591D01*
X2457070Y7693591D02*
X2390403Y7760258D01*
X2390403Y7760258D02*
X2323737Y7793591D01*
X14051394Y9270196D02*
X13973984Y9270196D01*
X13973984Y9270196D02*
X13896575Y9231491D01*
X13896575Y9231491D02*
X13857870Y9192786D01*
X13857870Y9192786D02*
X13819165Y9115377D01*
X13819165Y9115377D02*
X13780460Y8960558D01*
X13780460Y8960558D02*
X13780460Y8767034D01*
X13780460Y8767034D02*
X13819165Y8612215D01*
X13819165Y8612215D02*
X13857870Y8534805D01*
X13857870Y8534805D02*
X13896575Y8496101D01*
X13896575Y8496101D02*
X13973984Y8457396D01*
X13973984Y8457396D02*
X14051394Y8457396D01*
X14051394Y8457396D02*
X14128803Y8496101D01*
X14128803Y8496101D02*
X14167508Y8534805D01*
X14167508Y8534805D02*
X14206213Y8612215D01*
X14206213Y8612215D02*
X14244917Y8767034D01*
X14244917Y8767034D02*
X14244917Y8960558D01*
X14244917Y8960558D02*
X14206213Y9115377D01*
X14206213Y9115377D02*
X14167508Y9192786D01*
X14167508Y9192786D02*
X14128803Y9231491D01*
X14128803Y9231491D02*
X14051394Y9270196D01*
X13045070Y9270196D02*
X13432118Y9270196D01*
X13432118Y9270196D02*
X13470822Y8883148D01*
X13470822Y8883148D02*
X13432118Y8921853D01*
X13432118Y8921853D02*
X13354708Y8960558D01*
X13354708Y8960558D02*
X13161184Y8960558D01*
X13161184Y8960558D02*
X13083775Y8921853D01*
X13083775Y8921853D02*
X13045070Y8883148D01*
X13045070Y8883148D02*
X13006365Y8805739D01*
X13006365Y8805739D02*
X13006365Y8612215D01*
X13006365Y8612215D02*
X13045070Y8534805D01*
X13045070Y8534805D02*
X13083775Y8496101D01*
X13083775Y8496101D02*
X13161184Y8457396D01*
X13161184Y8457396D02*
X13354708Y8457396D01*
X13354708Y8457396D02*
X13432118Y8496101D01*
X13432118Y8496101D02*
X13470822Y8534805D01*
X12077451Y9308901D02*
X12774137Y8263872D01*
X11845222Y9192786D02*
X11806518Y9231491D01*
X11806518Y9231491D02*
X11729108Y9270196D01*
X11729108Y9270196D02*
X11535584Y9270196D01*
X11535584Y9270196D02*
X11458175Y9231491D01*
X11458175Y9231491D02*
X11419470Y9192786D01*
X11419470Y9192786D02*
X11380765Y9115377D01*
X11380765Y9115377D02*
X11380765Y9037967D01*
X11380765Y9037967D02*
X11419470Y8921853D01*
X11419470Y8921853D02*
X11883927Y8457396D01*
X11883927Y8457396D02*
X11380765Y8457396D01*
X10877604Y9270196D02*
X10800194Y9270196D01*
X10800194Y9270196D02*
X10722785Y9231491D01*
X10722785Y9231491D02*
X10684080Y9192786D01*
X10684080Y9192786D02*
X10645375Y9115377D01*
X10645375Y9115377D02*
X10606670Y8960558D01*
X10606670Y8960558D02*
X10606670Y8767034D01*
X10606670Y8767034D02*
X10645375Y8612215D01*
X10645375Y8612215D02*
X10684080Y8534805D01*
X10684080Y8534805D02*
X10722785Y8496101D01*
X10722785Y8496101D02*
X10800194Y8457396D01*
X10800194Y8457396D02*
X10877604Y8457396D01*
X10877604Y8457396D02*
X10955013Y8496101D01*
X10955013Y8496101D02*
X10993718Y8534805D01*
X10993718Y8534805D02*
X11032423Y8612215D01*
X11032423Y8612215D02*
X11071127Y8767034D01*
X11071127Y8767034D02*
X11071127Y8960558D01*
X11071127Y8960558D02*
X11032423Y9115377D01*
X11032423Y9115377D02*
X10993718Y9192786D01*
X10993718Y9192786D02*
X10955013Y9231491D01*
X10955013Y9231491D02*
X10877604Y9270196D01*
X10297032Y9192786D02*
X10258328Y9231491D01*
X10258328Y9231491D02*
X10180918Y9270196D01*
X10180918Y9270196D02*
X9987394Y9270196D01*
X9987394Y9270196D02*
X9909985Y9231491D01*
X9909985Y9231491D02*
X9871280Y9192786D01*
X9871280Y9192786D02*
X9832575Y9115377D01*
X9832575Y9115377D02*
X9832575Y9037967D01*
X9832575Y9037967D02*
X9871280Y8921853D01*
X9871280Y8921853D02*
X10335737Y8457396D01*
X10335737Y8457396D02*
X9832575Y8457396D01*
X9097185Y9270196D02*
X9484233Y9270196D01*
X9484233Y9270196D02*
X9522937Y8883148D01*
X9522937Y8883148D02*
X9484233Y8921853D01*
X9484233Y8921853D02*
X9406823Y8960558D01*
X9406823Y8960558D02*
X9213299Y8960558D01*
X9213299Y8960558D02*
X9135890Y8921853D01*
X9135890Y8921853D02*
X9097185Y8883148D01*
X9097185Y8883148D02*
X9058480Y8805739D01*
X9058480Y8805739D02*
X9058480Y8612215D01*
X9058480Y8612215D02*
X9097185Y8534805D01*
X9097185Y8534805D02*
X9135890Y8496101D01*
X9135890Y8496101D02*
X9213299Y8457396D01*
X9213299Y8457396D02*
X9406823Y8457396D01*
X9406823Y8457396D02*
X9484233Y8496101D01*
X9484233Y8496101D02*
X9522937Y8534805D01*
X8206976Y9270196D02*
X7936043Y8457396D01*
X7936043Y8457396D02*
X7665109Y9270196D01*
X6968423Y8457396D02*
X7432880Y8457396D01*
X7200652Y8457396D02*
X7200652Y9270196D01*
X7200652Y9270196D02*
X7278061Y9154081D01*
X7278061Y9154081D02*
X7355471Y9076672D01*
X7355471Y9076672D02*
X7432880Y9037967D01*
X6620081Y8534805D02*
X6581376Y8496101D01*
X6581376Y8496101D02*
X6620081Y8457396D01*
X6620081Y8457396D02*
X6658785Y8496101D01*
X6658785Y8496101D02*
X6620081Y8534805D01*
X6620081Y8534805D02*
X6620081Y8457396D01*
X5807280Y8457396D02*
X6271737Y8457396D01*
X6039509Y8457396D02*
X6039509Y9270196D01*
X6039509Y9270196D02*
X6116918Y9154081D01*
X6116918Y9154081D02*
X6194328Y9076672D01*
X6194328Y9076672D02*
X6271737Y9037967D01*
D11*
X16749642Y10507142D02*
X16721071Y10564285D01*
X16721071Y10564285D02*
X16721071Y10649999D01*
X16721071Y10649999D02*
X16749642Y10735713D01*
X16749642Y10735713D02*
X16806785Y10792856D01*
X16806785Y10792856D02*
X16863928Y10821427D01*
X16863928Y10821427D02*
X16978214Y10849999D01*
X16978214Y10849999D02*
X17063928Y10849999D01*
X17063928Y10849999D02*
X17178214Y10821427D01*
X17178214Y10821427D02*
X17235357Y10792856D01*
X17235357Y10792856D02*
X17292500Y10735713D01*
X17292500Y10735713D02*
X17321071Y10649999D01*
X17321071Y10649999D02*
X17321071Y10592856D01*
X17321071Y10592856D02*
X17292500Y10507142D01*
X17292500Y10507142D02*
X17263928Y10478570D01*
X17263928Y10478570D02*
X17063928Y10478570D01*
X17063928Y10478570D02*
X17063928Y10592856D01*
X17321071Y10221427D02*
X16721071Y10221427D01*
X16721071Y10221427D02*
X17321071Y9878570D01*
X17321071Y9878570D02*
X16721071Y9878570D01*
X17321071Y9592856D02*
X16721071Y9592856D01*
X16721071Y9592856D02*
X16721071Y9449999D01*
X16721071Y9449999D02*
X16749642Y9364285D01*
X16749642Y9364285D02*
X16806785Y9307142D01*
X16806785Y9307142D02*
X16863928Y9278571D01*
X16863928Y9278571D02*
X16978214Y9249999D01*
X16978214Y9249999D02*
X17063928Y9249999D01*
X17063928Y9249999D02*
X17178214Y9278571D01*
X17178214Y9278571D02*
X17235357Y9307142D01*
X17235357Y9307142D02*
X17292500Y9364285D01*
X17292500Y9364285D02*
X17321071Y9449999D01*
X17321071Y9449999D02*
X17321071Y9592856D01*
D12*
X12579886Y16216521D02*
X12294172Y16216521D01*
X12637029Y16045092D02*
X12437029Y16645092D01*
X12437029Y16645092D02*
X12237029Y16045092D01*
X11779886Y16045092D02*
X11779886Y16645092D01*
X11779886Y16073664D02*
X11837028Y16045092D01*
X11837028Y16045092D02*
X11951314Y16045092D01*
X11951314Y16045092D02*
X12008457Y16073664D01*
X12008457Y16073664D02*
X12037028Y16102235D01*
X12037028Y16102235D02*
X12065600Y16159378D01*
X12065600Y16159378D02*
X12065600Y16330806D01*
X12065600Y16330806D02*
X12037028Y16387949D01*
X12037028Y16387949D02*
X12008457Y16416521D01*
X12008457Y16416521D02*
X11951314Y16445092D01*
X11951314Y16445092D02*
X11837028Y16445092D01*
X11837028Y16445092D02*
X11779886Y16416521D01*
X11237029Y16045092D02*
X11237029Y16359378D01*
X11237029Y16359378D02*
X11265600Y16416521D01*
X11265600Y16416521D02*
X11322743Y16445092D01*
X11322743Y16445092D02*
X11437029Y16445092D01*
X11437029Y16445092D02*
X11494171Y16416521D01*
X11237029Y16073664D02*
X11294171Y16045092D01*
X11294171Y16045092D02*
X11437029Y16045092D01*
X11437029Y16045092D02*
X11494171Y16073664D01*
X11494171Y16073664D02*
X11522743Y16130806D01*
X11522743Y16130806D02*
X11522743Y16187949D01*
X11522743Y16187949D02*
X11494171Y16245092D01*
X11494171Y16245092D02*
X11437029Y16273664D01*
X11437029Y16273664D02*
X11294171Y16273664D01*
X11294171Y16273664D02*
X11237029Y16302235D01*
X10951314Y16445092D02*
X10951314Y15845092D01*
X10951314Y16416521D02*
X10894172Y16445092D01*
X10894172Y16445092D02*
X10779886Y16445092D01*
X10779886Y16445092D02*
X10722743Y16416521D01*
X10722743Y16416521D02*
X10694172Y16387949D01*
X10694172Y16387949D02*
X10665600Y16330806D01*
X10665600Y16330806D02*
X10665600Y16159378D01*
X10665600Y16159378D02*
X10694172Y16102235D01*
X10694172Y16102235D02*
X10722743Y16073664D01*
X10722743Y16073664D02*
X10779886Y16045092D01*
X10779886Y16045092D02*
X10894172Y16045092D01*
X10894172Y16045092D02*
X10951314Y16073664D01*
X10494172Y16445092D02*
X10265600Y16445092D01*
X10408457Y16645092D02*
X10408457Y16130806D01*
X10408457Y16130806D02*
X10379886Y16073664D01*
X10379886Y16073664D02*
X10322743Y16045092D01*
X10322743Y16045092D02*
X10265600Y16045092D01*
X9837029Y16073664D02*
X9894172Y16045092D01*
X9894172Y16045092D02*
X10008458Y16045092D01*
X10008458Y16045092D02*
X10065600Y16073664D01*
X10065600Y16073664D02*
X10094172Y16130806D01*
X10094172Y16130806D02*
X10094172Y16359378D01*
X10094172Y16359378D02*
X10065600Y16416521D01*
X10065600Y16416521D02*
X10008458Y16445092D01*
X10008458Y16445092D02*
X9894172Y16445092D01*
X9894172Y16445092D02*
X9837029Y16416521D01*
X9837029Y16416521D02*
X9808458Y16359378D01*
X9808458Y16359378D02*
X9808458Y16302235D01*
X9808458Y16302235D02*
X10094172Y16245092D01*
X9551314Y16045092D02*
X9551314Y16445092D01*
X9551314Y16330806D02*
X9522743Y16387949D01*
X9522743Y16387949D02*
X9494172Y16416521D01*
X9494172Y16416521D02*
X9437029Y16445092D01*
X9437029Y16445092D02*
X9379886Y16445092D01*
X9322743Y15987949D02*
X8865600Y15987949D01*
X16208458Y15393412D02*
X16008458Y15393412D01*
X15922744Y15079126D02*
X16208458Y15079126D01*
X16208458Y15079126D02*
X16208458Y15679126D01*
X16208458Y15679126D02*
X15922744Y15679126D01*
X15665601Y15079126D02*
X15665601Y15679126D01*
X15665601Y15450555D02*
X15608459Y15479126D01*
X15608459Y15479126D02*
X15494173Y15479126D01*
X15494173Y15479126D02*
X15437030Y15450555D01*
X15437030Y15450555D02*
X15408459Y15421983D01*
X15408459Y15421983D02*
X15379887Y15364840D01*
X15379887Y15364840D02*
X15379887Y15193412D01*
X15379887Y15193412D02*
X15408459Y15136269D01*
X15408459Y15136269D02*
X15437030Y15107698D01*
X15437030Y15107698D02*
X15494173Y15079126D01*
X15494173Y15079126D02*
X15608459Y15079126D01*
X15608459Y15079126D02*
X15665601Y15107698D01*
X15179887Y15479126D02*
X15037030Y15079126D01*
X14894173Y15479126D02*
X15037030Y15079126D01*
X15037030Y15079126D02*
X15094173Y14936269D01*
X15094173Y14936269D02*
X15122744Y14907698D01*
X15122744Y14907698D02*
X15179887Y14879126D01*
X14751316Y15479126D02*
X14522744Y15479126D01*
X14665601Y15679126D02*
X14665601Y15164840D01*
X14665601Y15164840D02*
X14637030Y15107698D01*
X14637030Y15107698D02*
X14579887Y15079126D01*
X14579887Y15079126D02*
X14522744Y15079126D01*
X14094173Y15107698D02*
X14151316Y15079126D01*
X14151316Y15079126D02*
X14265602Y15079126D01*
X14265602Y15079126D02*
X14322744Y15107698D01*
X14322744Y15107698D02*
X14351316Y15164840D01*
X14351316Y15164840D02*
X14351316Y15393412D01*
X14351316Y15393412D02*
X14322744Y15450555D01*
X14322744Y15450555D02*
X14265602Y15479126D01*
X14265602Y15479126D02*
X14151316Y15479126D01*
X14151316Y15479126D02*
X14094173Y15450555D01*
X14094173Y15450555D02*
X14065602Y15393412D01*
X14065602Y15393412D02*
X14065602Y15336269D01*
X14065602Y15336269D02*
X14351316Y15279126D01*
X13951316Y15021983D02*
X13494173Y15021983D01*
X13351315Y15393412D02*
X13151315Y15393412D01*
X13065601Y15079126D02*
X13351315Y15079126D01*
X13351315Y15079126D02*
X13351315Y15679126D01*
X13351315Y15679126D02*
X13065601Y15679126D01*
X12694173Y15679126D02*
X12637030Y15679126D01*
X12637030Y15679126D02*
X12579887Y15650555D01*
X12579887Y15650555D02*
X12551316Y15621983D01*
X12551316Y15621983D02*
X12522744Y15564840D01*
X12522744Y15564840D02*
X12494173Y15450555D01*
X12494173Y15450555D02*
X12494173Y15307698D01*
X12494173Y15307698D02*
X12522744Y15193412D01*
X12522744Y15193412D02*
X12551316Y15136269D01*
X12551316Y15136269D02*
X12579887Y15107698D01*
X12579887Y15107698D02*
X12637030Y15079126D01*
X12637030Y15079126D02*
X12694173Y15079126D01*
X12694173Y15079126D02*
X12751316Y15107698D01*
X12751316Y15107698D02*
X12779887Y15136269D01*
X12779887Y15136269D02*
X12808458Y15193412D01*
X12808458Y15193412D02*
X12837030Y15307698D01*
X12837030Y15307698D02*
X12837030Y15450555D01*
X12837030Y15450555D02*
X12808458Y15564840D01*
X12808458Y15564840D02*
X12779887Y15621983D01*
X12779887Y15621983D02*
X12751316Y15650555D01*
X12751316Y15650555D02*
X12694173Y15679126D01*
X12294172Y15679126D02*
X11894172Y15679126D01*
X11894172Y15679126D02*
X12151315Y15079126D01*
X11808458Y15021983D02*
X11351315Y15021983D01*
X11179886Y15079126D02*
X11065600Y15079126D01*
X11065600Y15079126D02*
X11008457Y15107698D01*
X11008457Y15107698D02*
X10979886Y15136269D01*
X10979886Y15136269D02*
X10922743Y15221983D01*
X10922743Y15221983D02*
X10894172Y15336269D01*
X10894172Y15336269D02*
X10894172Y15564840D01*
X10894172Y15564840D02*
X10922743Y15621983D01*
X10922743Y15621983D02*
X10951315Y15650555D01*
X10951315Y15650555D02*
X11008457Y15679126D01*
X11008457Y15679126D02*
X11122743Y15679126D01*
X11122743Y15679126D02*
X11179886Y15650555D01*
X11179886Y15650555D02*
X11208457Y15621983D01*
X11208457Y15621983D02*
X11237029Y15564840D01*
X11237029Y15564840D02*
X11237029Y15421983D01*
X11237029Y15421983D02*
X11208457Y15364840D01*
X11208457Y15364840D02*
X11179886Y15336269D01*
X11179886Y15336269D02*
X11122743Y15307698D01*
X11122743Y15307698D02*
X11008457Y15307698D01*
X11008457Y15307698D02*
X10951315Y15336269D01*
X10951315Y15336269D02*
X10922743Y15364840D01*
X10922743Y15364840D02*
X10894172Y15421983D01*
X10522743Y15679126D02*
X10465600Y15679126D01*
X10465600Y15679126D02*
X10408457Y15650555D01*
X10408457Y15650555D02*
X10379886Y15621983D01*
X10379886Y15621983D02*
X10351314Y15564840D01*
X10351314Y15564840D02*
X10322743Y15450555D01*
X10322743Y15450555D02*
X10322743Y15307698D01*
X10322743Y15307698D02*
X10351314Y15193412D01*
X10351314Y15193412D02*
X10379886Y15136269D01*
X10379886Y15136269D02*
X10408457Y15107698D01*
X10408457Y15107698D02*
X10465600Y15079126D01*
X10465600Y15079126D02*
X10522743Y15079126D01*
X10522743Y15079126D02*
X10579886Y15107698D01*
X10579886Y15107698D02*
X10608457Y15136269D01*
X10608457Y15136269D02*
X10637028Y15193412D01*
X10637028Y15193412D02*
X10665600Y15307698D01*
X10665600Y15307698D02*
X10665600Y15450555D01*
X10665600Y15450555D02*
X10637028Y15564840D01*
X10637028Y15564840D02*
X10608457Y15621983D01*
X10608457Y15621983D02*
X10579886Y15650555D01*
X10579886Y15650555D02*
X10522743Y15679126D01*
X9951314Y15679126D02*
X9894171Y15679126D01*
X9894171Y15679126D02*
X9837028Y15650555D01*
X9837028Y15650555D02*
X9808457Y15621983D01*
X9808457Y15621983D02*
X9779885Y15564840D01*
X9779885Y15564840D02*
X9751314Y15450555D01*
X9751314Y15450555D02*
X9751314Y15307698D01*
X9751314Y15307698D02*
X9779885Y15193412D01*
X9779885Y15193412D02*
X9808457Y15136269D01*
X9808457Y15136269D02*
X9837028Y15107698D01*
X9837028Y15107698D02*
X9894171Y15079126D01*
X9894171Y15079126D02*
X9951314Y15079126D01*
X9951314Y15079126D02*
X10008457Y15107698D01*
X10008457Y15107698D02*
X10037028Y15136269D01*
X10037028Y15136269D02*
X10065599Y15193412D01*
X10065599Y15193412D02*
X10094171Y15307698D01*
X10094171Y15307698D02*
X10094171Y15450555D01*
X10094171Y15450555D02*
X10065599Y15564840D01*
X10065599Y15564840D02*
X10037028Y15621983D01*
X10037028Y15621983D02*
X10008457Y15650555D01*
X10008457Y15650555D02*
X9951314Y15679126D01*
X9494170Y15079126D02*
X9494170Y15679126D01*
X9494170Y15679126D02*
X9294170Y15250555D01*
X9294170Y15250555D02*
X9094170Y15679126D01*
X9094170Y15679126D02*
X9094170Y15079126D01*
X8808456Y15079126D02*
X8808456Y15679126D01*
X8808456Y15679126D02*
X8608456Y15250555D01*
X8608456Y15250555D02*
X8408456Y15679126D01*
X8408456Y15679126D02*
X8408456Y15079126D01*
X7808457Y15079126D02*
X8151314Y15079126D01*
X7979885Y15079126D02*
X7979885Y15679126D01*
X7979885Y15679126D02*
X8037028Y15593412D01*
X8037028Y15593412D02*
X8094171Y15536269D01*
X8094171Y15536269D02*
X8151314Y15507698D01*
X7437028Y15679126D02*
X7379885Y15679126D01*
X7379885Y15679126D02*
X7322742Y15650555D01*
X7322742Y15650555D02*
X7294171Y15621983D01*
X7294171Y15621983D02*
X7265599Y15564840D01*
X7265599Y15564840D02*
X7237028Y15450555D01*
X7237028Y15450555D02*
X7237028Y15307698D01*
X7237028Y15307698D02*
X7265599Y15193412D01*
X7265599Y15193412D02*
X7294171Y15136269D01*
X7294171Y15136269D02*
X7322742Y15107698D01*
X7322742Y15107698D02*
X7379885Y15079126D01*
X7379885Y15079126D02*
X7437028Y15079126D01*
X7437028Y15079126D02*
X7494171Y15107698D01*
X7494171Y15107698D02*
X7522742Y15136269D01*
X7522742Y15136269D02*
X7551313Y15193412D01*
X7551313Y15193412D02*
X7579885Y15307698D01*
X7579885Y15307698D02*
X7579885Y15450555D01*
X7579885Y15450555D02*
X7551313Y15564840D01*
X7551313Y15564840D02*
X7522742Y15621983D01*
X7522742Y15621983D02*
X7494171Y15650555D01*
X7494171Y15650555D02*
X7437028Y15679126D01*
X7008456Y15107698D02*
X6922742Y15079126D01*
X6922742Y15079126D02*
X6779884Y15079126D01*
X6779884Y15079126D02*
X6722742Y15107698D01*
X6722742Y15107698D02*
X6694170Y15136269D01*
X6694170Y15136269D02*
X6665599Y15193412D01*
X6665599Y15193412D02*
X6665599Y15250555D01*
X6665599Y15250555D02*
X6694170Y15307698D01*
X6694170Y15307698D02*
X6722742Y15336269D01*
X6722742Y15336269D02*
X6779884Y15364840D01*
X6779884Y15364840D02*
X6894170Y15393412D01*
X6894170Y15393412D02*
X6951313Y15421983D01*
X6951313Y15421983D02*
X6979884Y15450555D01*
X6979884Y15450555D02*
X7008456Y15507698D01*
X7008456Y15507698D02*
X7008456Y15564840D01*
X7008456Y15564840D02*
X6979884Y15621983D01*
X6979884Y15621983D02*
X6951313Y15650555D01*
X6951313Y15650555D02*
X6894170Y15679126D01*
X6894170Y15679126D02*
X6751313Y15679126D01*
X6751313Y15679126D02*
X6665599Y15650555D01*
X12237029Y14056017D02*
X11779886Y14056017D01*
X11722743Y14513160D02*
X11494171Y14513160D01*
X11637028Y14713160D02*
X11637028Y14198874D01*
X11637028Y14198874D02*
X11608457Y14141732D01*
X11608457Y14141732D02*
X11551314Y14113160D01*
X11551314Y14113160D02*
X11494171Y14113160D01*
X11208457Y14113160D02*
X11265600Y14141732D01*
X11265600Y14141732D02*
X11294171Y14170303D01*
X11294171Y14170303D02*
X11322743Y14227446D01*
X11322743Y14227446D02*
X11322743Y14398874D01*
X11322743Y14398874D02*
X11294171Y14456017D01*
X11294171Y14456017D02*
X11265600Y14484589D01*
X11265600Y14484589D02*
X11208457Y14513160D01*
X11208457Y14513160D02*
X11122743Y14513160D01*
X11122743Y14513160D02*
X11065600Y14484589D01*
X11065600Y14484589D02*
X11037029Y14456017D01*
X11037029Y14456017D02*
X11008457Y14398874D01*
X11008457Y14398874D02*
X11008457Y14227446D01*
X11008457Y14227446D02*
X11037029Y14170303D01*
X11037029Y14170303D02*
X11065600Y14141732D01*
X11065600Y14141732D02*
X11122743Y14113160D01*
X11122743Y14113160D02*
X11208457Y14113160D01*
X10894172Y14056017D02*
X10437029Y14056017D01*
X16208458Y13547194D02*
X16208458Y13147194D01*
X16208458Y13490051D02*
X16179887Y13518623D01*
X16179887Y13518623D02*
X16122744Y13547194D01*
X16122744Y13547194D02*
X16037030Y13547194D01*
X16037030Y13547194D02*
X15979887Y13518623D01*
X15979887Y13518623D02*
X15951316Y13461480D01*
X15951316Y13461480D02*
X15951316Y13147194D01*
X15579887Y13147194D02*
X15637030Y13175766D01*
X15637030Y13175766D02*
X15665601Y13204337D01*
X15665601Y13204337D02*
X15694173Y13261480D01*
X15694173Y13261480D02*
X15694173Y13432908D01*
X15694173Y13432908D02*
X15665601Y13490051D01*
X15665601Y13490051D02*
X15637030Y13518623D01*
X15637030Y13518623D02*
X15579887Y13547194D01*
X15579887Y13547194D02*
X15494173Y13547194D01*
X15494173Y13547194D02*
X15437030Y13518623D01*
X15437030Y13518623D02*
X15408459Y13490051D01*
X15408459Y13490051D02*
X15379887Y13432908D01*
X15379887Y13432908D02*
X15379887Y13261480D01*
X15379887Y13261480D02*
X15408459Y13204337D01*
X15408459Y13204337D02*
X15437030Y13175766D01*
X15437030Y13175766D02*
X15494173Y13147194D01*
X15494173Y13147194D02*
X15579887Y13147194D01*
X15122744Y13547194D02*
X15122744Y13147194D01*
X15122744Y13490051D02*
X15094173Y13518623D01*
X15094173Y13518623D02*
X15037030Y13547194D01*
X15037030Y13547194D02*
X14951316Y13547194D01*
X14951316Y13547194D02*
X14894173Y13518623D01*
X14894173Y13518623D02*
X14865602Y13461480D01*
X14865602Y13461480D02*
X14865602Y13147194D01*
X14322745Y13147194D02*
X14322745Y13461480D01*
X14322745Y13461480D02*
X14351316Y13518623D01*
X14351316Y13518623D02*
X14408459Y13547194D01*
X14408459Y13547194D02*
X14522745Y13547194D01*
X14522745Y13547194D02*
X14579887Y13518623D01*
X14322745Y13175766D02*
X14379887Y13147194D01*
X14379887Y13147194D02*
X14522745Y13147194D01*
X14522745Y13147194D02*
X14579887Y13175766D01*
X14579887Y13175766D02*
X14608459Y13232908D01*
X14608459Y13232908D02*
X14608459Y13290051D01*
X14608459Y13290051D02*
X14579887Y13347194D01*
X14579887Y13347194D02*
X14522745Y13375766D01*
X14522745Y13375766D02*
X14379887Y13375766D01*
X14379887Y13375766D02*
X14322745Y13404337D01*
X14037030Y13147194D02*
X14037030Y13547194D01*
X14037030Y13490051D02*
X14008459Y13518623D01*
X14008459Y13518623D02*
X13951316Y13547194D01*
X13951316Y13547194D02*
X13865602Y13547194D01*
X13865602Y13547194D02*
X13808459Y13518623D01*
X13808459Y13518623D02*
X13779888Y13461480D01*
X13779888Y13461480D02*
X13779888Y13147194D01*
X13779888Y13461480D02*
X13751316Y13518623D01*
X13751316Y13518623D02*
X13694173Y13547194D01*
X13694173Y13547194D02*
X13608459Y13547194D01*
X13608459Y13547194D02*
X13551316Y13518623D01*
X13551316Y13518623D02*
X13522745Y13461480D01*
X13522745Y13461480D02*
X13522745Y13147194D01*
X13008459Y13175766D02*
X13065602Y13147194D01*
X13065602Y13147194D02*
X13179888Y13147194D01*
X13179888Y13147194D02*
X13237030Y13175766D01*
X13237030Y13175766D02*
X13265602Y13232908D01*
X13265602Y13232908D02*
X13265602Y13461480D01*
X13265602Y13461480D02*
X13237030Y13518623D01*
X13237030Y13518623D02*
X13179888Y13547194D01*
X13179888Y13547194D02*
X13065602Y13547194D01*
X13065602Y13547194D02*
X13008459Y13518623D01*
X13008459Y13518623D02*
X12979888Y13461480D01*
X12979888Y13461480D02*
X12979888Y13404337D01*
X12979888Y13404337D02*
X13265602Y13347194D01*
X12865602Y13090051D02*
X12408459Y13090051D01*
X12008459Y13547194D02*
X12008459Y13061480D01*
X12008459Y13061480D02*
X12037030Y13004337D01*
X12037030Y13004337D02*
X12065601Y12975766D01*
X12065601Y12975766D02*
X12122744Y12947194D01*
X12122744Y12947194D02*
X12208459Y12947194D01*
X12208459Y12947194D02*
X12265601Y12975766D01*
X12008459Y13175766D02*
X12065601Y13147194D01*
X12065601Y13147194D02*
X12179887Y13147194D01*
X12179887Y13147194D02*
X12237030Y13175766D01*
X12237030Y13175766D02*
X12265601Y13204337D01*
X12265601Y13204337D02*
X12294173Y13261480D01*
X12294173Y13261480D02*
X12294173Y13432908D01*
X12294173Y13432908D02*
X12265601Y13490051D01*
X12265601Y13490051D02*
X12237030Y13518623D01*
X12237030Y13518623D02*
X12179887Y13547194D01*
X12179887Y13547194D02*
X12065601Y13547194D01*
X12065601Y13547194D02*
X12008459Y13518623D01*
X11722744Y13147194D02*
X11722744Y13547194D01*
X11722744Y13432908D02*
X11694173Y13490051D01*
X11694173Y13490051D02*
X11665602Y13518623D01*
X11665602Y13518623D02*
X11608459Y13547194D01*
X11608459Y13547194D02*
X11551316Y13547194D01*
X11122744Y13175766D02*
X11179887Y13147194D01*
X11179887Y13147194D02*
X11294173Y13147194D01*
X11294173Y13147194D02*
X11351315Y13175766D01*
X11351315Y13175766D02*
X11379887Y13232908D01*
X11379887Y13232908D02*
X11379887Y13461480D01*
X11379887Y13461480D02*
X11351315Y13518623D01*
X11351315Y13518623D02*
X11294173Y13547194D01*
X11294173Y13547194D02*
X11179887Y13547194D01*
X11179887Y13547194D02*
X11122744Y13518623D01*
X11122744Y13518623D02*
X11094173Y13461480D01*
X11094173Y13461480D02*
X11094173Y13404337D01*
X11094173Y13404337D02*
X11379887Y13347194D01*
X10608458Y13175766D02*
X10665601Y13147194D01*
X10665601Y13147194D02*
X10779887Y13147194D01*
X10779887Y13147194D02*
X10837029Y13175766D01*
X10837029Y13175766D02*
X10865601Y13232908D01*
X10865601Y13232908D02*
X10865601Y13461480D01*
X10865601Y13461480D02*
X10837029Y13518623D01*
X10837029Y13518623D02*
X10779887Y13547194D01*
X10779887Y13547194D02*
X10665601Y13547194D01*
X10665601Y13547194D02*
X10608458Y13518623D01*
X10608458Y13518623D02*
X10579887Y13461480D01*
X10579887Y13461480D02*
X10579887Y13404337D01*
X10579887Y13404337D02*
X10865601Y13347194D01*
X10322743Y13547194D02*
X10322743Y13147194D01*
X10322743Y13490051D02*
X10294172Y13518623D01*
X10294172Y13518623D02*
X10237029Y13547194D01*
X10237029Y13547194D02*
X10151315Y13547194D01*
X10151315Y13547194D02*
X10094172Y13518623D01*
X10094172Y13518623D02*
X10065601Y13461480D01*
X10065601Y13461480D02*
X10065601Y13147194D01*
X9922744Y13090051D02*
X9465601Y13090051D01*
X8979886Y13147194D02*
X9179886Y13432908D01*
X9322743Y13147194D02*
X9322743Y13747194D01*
X9322743Y13747194D02*
X9094172Y13747194D01*
X9094172Y13747194D02*
X9037029Y13718623D01*
X9037029Y13718623D02*
X9008458Y13690051D01*
X9008458Y13690051D02*
X8979886Y13632908D01*
X8979886Y13632908D02*
X8979886Y13547194D01*
X8979886Y13547194D02*
X9008458Y13490051D01*
X9008458Y13490051D02*
X9037029Y13461480D01*
X9037029Y13461480D02*
X9094172Y13432908D01*
X9094172Y13432908D02*
X9322743Y13432908D01*
X8522743Y13461480D02*
X8722743Y13461480D01*
X8722743Y13147194D02*
X8722743Y13747194D01*
X8722743Y13747194D02*
X8437029Y13747194D01*
X8351315Y13090051D02*
X7894172Y13090051D01*
X7751314Y13147194D02*
X7751314Y13547194D01*
X7751314Y13490051D02*
X7722743Y13518623D01*
X7722743Y13518623D02*
X7665600Y13547194D01*
X7665600Y13547194D02*
X7579886Y13547194D01*
X7579886Y13547194D02*
X7522743Y13518623D01*
X7522743Y13518623D02*
X7494172Y13461480D01*
X7494172Y13461480D02*
X7494172Y13147194D01*
X7494172Y13461480D02*
X7465600Y13518623D01*
X7465600Y13518623D02*
X7408457Y13547194D01*
X7408457Y13547194D02*
X7322743Y13547194D01*
X7322743Y13547194D02*
X7265600Y13518623D01*
X7265600Y13518623D02*
X7237029Y13461480D01*
X7237029Y13461480D02*
X7237029Y13147194D01*
X6865600Y13147194D02*
X6922743Y13175766D01*
X6922743Y13175766D02*
X6951314Y13204337D01*
X6951314Y13204337D02*
X6979886Y13261480D01*
X6979886Y13261480D02*
X6979886Y13432908D01*
X6979886Y13432908D02*
X6951314Y13490051D01*
X6951314Y13490051D02*
X6922743Y13518623D01*
X6922743Y13518623D02*
X6865600Y13547194D01*
X6865600Y13547194D02*
X6779886Y13547194D01*
X6779886Y13547194D02*
X6722743Y13518623D01*
X6722743Y13518623D02*
X6694172Y13490051D01*
X6694172Y13490051D02*
X6665600Y13432908D01*
X6665600Y13432908D02*
X6665600Y13261480D01*
X6665600Y13261480D02*
X6694172Y13204337D01*
X6694172Y13204337D02*
X6722743Y13175766D01*
X6722743Y13175766D02*
X6779886Y13147194D01*
X6779886Y13147194D02*
X6865600Y13147194D01*
X6151315Y13147194D02*
X6151315Y13747194D01*
X6151315Y13175766D02*
X6208457Y13147194D01*
X6208457Y13147194D02*
X6322743Y13147194D01*
X6322743Y13147194D02*
X6379886Y13175766D01*
X6379886Y13175766D02*
X6408457Y13204337D01*
X6408457Y13204337D02*
X6437029Y13261480D01*
X6437029Y13261480D02*
X6437029Y13432908D01*
X6437029Y13432908D02*
X6408457Y13490051D01*
X6408457Y13490051D02*
X6379886Y13518623D01*
X6379886Y13518623D02*
X6322743Y13547194D01*
X6322743Y13547194D02*
X6208457Y13547194D01*
X6208457Y13547194D02*
X6151315Y13518623D01*
X5608458Y13547194D02*
X5608458Y13147194D01*
X5865600Y13547194D02*
X5865600Y13232908D01*
X5865600Y13232908D02*
X5837029Y13175766D01*
X5837029Y13175766D02*
X5779886Y13147194D01*
X5779886Y13147194D02*
X5694172Y13147194D01*
X5694172Y13147194D02*
X5637029Y13175766D01*
X5637029Y13175766D02*
X5608458Y13204337D01*
X5237029Y13147194D02*
X5294172Y13175766D01*
X5294172Y13175766D02*
X5322743Y13232908D01*
X5322743Y13232908D02*
X5322743Y13747194D01*
X4779886Y13175766D02*
X4837029Y13147194D01*
X4837029Y13147194D02*
X4951315Y13147194D01*
X4951315Y13147194D02*
X5008457Y13175766D01*
X5008457Y13175766D02*
X5037029Y13232908D01*
X5037029Y13232908D02*
X5037029Y13461480D01*
X5037029Y13461480D02*
X5008457Y13518623D01*
X5008457Y13518623D02*
X4951315Y13547194D01*
X4951315Y13547194D02*
X4837029Y13547194D01*
X4837029Y13547194D02*
X4779886Y13518623D01*
X4779886Y13518623D02*
X4751315Y13461480D01*
X4751315Y13461480D02*
X4751315Y13404337D01*
X4751315Y13404337D02*
X5037029Y13347194D01*
X13151315Y12124085D02*
X12694172Y12124085D01*
X12351314Y12495514D02*
X12551314Y12495514D01*
X12551314Y12181228D02*
X12551314Y12781228D01*
X12551314Y12781228D02*
X12265600Y12781228D01*
X12037028Y12781228D02*
X12037028Y12295514D01*
X12037028Y12295514D02*
X12008457Y12238371D01*
X12008457Y12238371D02*
X11979886Y12209800D01*
X11979886Y12209800D02*
X11922743Y12181228D01*
X11922743Y12181228D02*
X11808457Y12181228D01*
X11808457Y12181228D02*
X11751314Y12209800D01*
X11751314Y12209800D02*
X11722743Y12238371D01*
X11722743Y12238371D02*
X11694171Y12295514D01*
X11694171Y12295514D02*
X11694171Y12781228D01*
X11408457Y12495514D02*
X11208457Y12495514D01*
X11122743Y12181228D02*
X11408457Y12181228D01*
X11408457Y12181228D02*
X11408457Y12781228D01*
X11408457Y12781228D02*
X11122743Y12781228D01*
X10579886Y12181228D02*
X10865600Y12181228D01*
X10865600Y12181228D02*
X10865600Y12781228D01*
X10122744Y12581228D02*
X10122744Y12181228D01*
X10265601Y12809800D02*
X10408458Y12381228D01*
X10408458Y12381228D02*
X10037029Y12381228D01*
X9808457Y12495514D02*
X9608457Y12495514D01*
X9522743Y12181228D02*
X9808457Y12181228D01*
X9808457Y12181228D02*
X9808457Y12781228D01*
X9808457Y12781228D02*
X9522743Y12781228D01*
X9265600Y12181228D02*
X9265600Y12781228D01*
X9265600Y12781228D02*
X9037029Y12781228D01*
X9037029Y12781228D02*
X8979886Y12752657D01*
X8979886Y12752657D02*
X8951315Y12724085D01*
X8951315Y12724085D02*
X8922743Y12666942D01*
X8922743Y12666942D02*
X8922743Y12581228D01*
X8922743Y12581228D02*
X8951315Y12524085D01*
X8951315Y12524085D02*
X8979886Y12495514D01*
X8979886Y12495514D02*
X9037029Y12466942D01*
X9037029Y12466942D02*
X9265600Y12466942D01*
D13*
%TO.C,LOGO1*%
X13397774Y1437044D02*
X13417466Y1432075D01*
X13483336Y1399222D01*
X13525596Y1345437D01*
X13546664Y1266536D01*
X13550143Y1202515D01*
X13548325Y1135692D01*
X13540276Y1092382D01*
X13522101Y1059889D01*
X13498444Y1033939D01*
X13428279Y986675D01*
X13344821Y964890D01*
X13258829Y968794D01*
X13181066Y998599D01*
X13144833Y1026972D01*
X13102485Y1092539D01*
X13083920Y1173013D01*
X13088425Y1257491D01*
X13115287Y1335067D01*
X13163794Y1394836D01*
X13169155Y1398939D01*
X13234456Y1429028D01*
X13316263Y1442477D01*
X13397774Y1437044D01*
G36*
X13397774Y1437044D02*
G01*
X13417466Y1432075D01*
X13483336Y1399222D01*
X13525596Y1345437D01*
X13546664Y1266536D01*
X13550143Y1202515D01*
X13548325Y1135692D01*
X13540276Y1092382D01*
X13522101Y1059889D01*
X13498444Y1033939D01*
X13428279Y986675D01*
X13344821Y964890D01*
X13258829Y968794D01*
X13181066Y998599D01*
X13144833Y1026972D01*
X13102485Y1092539D01*
X13083920Y1173013D01*
X13088425Y1257491D01*
X13115287Y1335067D01*
X13163794Y1394836D01*
X13169155Y1398939D01*
X13234456Y1429028D01*
X13316263Y1442477D01*
X13397774Y1437044D01*
G37*
X13586429Y2340286D02*
X13786000Y2340286D01*
X13786000Y1971169D01*
X13785741Y1845306D01*
X13784688Y1750727D01*
X13782423Y1682434D01*
X13778533Y1635429D01*
X13772602Y1604711D01*
X13764213Y1585283D01*
X13752952Y1572144D01*
X13752822Y1572026D01*
X13737759Y1562071D01*
X13714354Y1554549D01*
X13677890Y1549132D01*
X13623652Y1545495D01*
X13546921Y1543312D01*
X13442983Y1542256D01*
X13318689Y1542000D01*
X13184775Y1542335D01*
X13082561Y1543542D01*
X13007467Y1545925D01*
X12954911Y1549789D01*
X12920315Y1555437D01*
X12899096Y1563174D01*
X12889225Y1570510D01*
X12879373Y1585294D01*
X12872020Y1610400D01*
X12866826Y1650604D01*
X12863449Y1710681D01*
X12861547Y1795407D01*
X12860780Y1909559D01*
X12860715Y1969653D01*
X12860715Y2340286D01*
X13060286Y2340286D01*
X13060286Y3174857D01*
X13586429Y3174857D01*
X13586429Y2340286D01*
G36*
X13586429Y2340286D02*
G01*
X13786000Y2340286D01*
X13786000Y1971169D01*
X13785741Y1845306D01*
X13784688Y1750727D01*
X13782423Y1682434D01*
X13778533Y1635429D01*
X13772602Y1604711D01*
X13764213Y1585283D01*
X13752952Y1572144D01*
X13752822Y1572026D01*
X13737759Y1562071D01*
X13714354Y1554549D01*
X13677890Y1549132D01*
X13623652Y1545495D01*
X13546921Y1543312D01*
X13442983Y1542256D01*
X13318689Y1542000D01*
X13184775Y1542335D01*
X13082561Y1543542D01*
X13007467Y1545925D01*
X12954911Y1549789D01*
X12920315Y1555437D01*
X12899096Y1563174D01*
X12889225Y1570510D01*
X12879373Y1585294D01*
X12872020Y1610400D01*
X12866826Y1650604D01*
X12863449Y1710681D01*
X12861547Y1795407D01*
X12860780Y1909559D01*
X12860715Y1969653D01*
X12860715Y2340286D01*
X13060286Y2340286D01*
X13060286Y3174857D01*
X13586429Y3174857D01*
X13586429Y2340286D01*
G37*
X17563044Y2584665D02*
X17605072Y2578499D01*
X17718229Y2531018D01*
X17816183Y2454686D01*
X17891717Y2356046D01*
X17922688Y2290452D01*
X17952380Y2167926D01*
X17958053Y2033503D01*
X17939748Y1902453D01*
X17921555Y1842805D01*
X17873897Y1753958D01*
X17803931Y1671320D01*
X17721605Y1604638D01*
X17636867Y1563659D01*
X17636564Y1563568D01*
X17549851Y1547494D01*
X17446868Y1542915D01*
X17343953Y1549561D01*
X17257446Y1567161D01*
X17249031Y1569965D01*
X17200535Y1594033D01*
X17144831Y1631797D01*
X17090408Y1676057D01*
X17045751Y1719610D01*
X17019348Y1755254D01*
X17015644Y1768027D01*
X17030520Y1785674D01*
X17069301Y1813724D01*
X17123252Y1845912D01*
X17230645Y1904896D01*
X17269091Y1850903D01*
X17328835Y1795917D01*
X17404000Y1769761D01*
X17484781Y1775180D01*
X17509283Y1783639D01*
X17572088Y1821686D01*
X17613801Y1877723D01*
X17638060Y1958057D01*
X17645720Y2020165D01*
X17645108Y2136167D01*
X17621607Y2227082D01*
X17574001Y2296926D01*
X17557111Y2312478D01*
X17491622Y2348108D01*
X17416913Y2359361D01*
X17343584Y2347538D01*
X17282234Y2313942D01*
X17250213Y2274782D01*
X17228724Y2244672D01*
X17201887Y2234365D01*
X17162118Y2244242D01*
X17101833Y2274686D01*
X17087104Y2283015D01*
X16996780Y2334602D01*
X17071814Y2419845D01*
X17158971Y2502843D01*
X17251414Y2555228D01*
X17359562Y2581957D01*
X17423643Y2587288D01*
X17496805Y2588034D01*
X17563044Y2584665D01*
G36*
X17563044Y2584665D02*
G01*
X17605072Y2578499D01*
X17718229Y2531018D01*
X17816183Y2454686D01*
X17891717Y2356046D01*
X17922688Y2290452D01*
X17952380Y2167926D01*
X17958053Y2033503D01*
X17939748Y1902453D01*
X17921555Y1842805D01*
X17873897Y1753958D01*
X17803931Y1671320D01*
X17721605Y1604638D01*
X17636867Y1563659D01*
X17636564Y1563568D01*
X17549851Y1547494D01*
X17446868Y1542915D01*
X17343953Y1549561D01*
X17257446Y1567161D01*
X17249031Y1569965D01*
X17200535Y1594033D01*
X17144831Y1631797D01*
X17090408Y1676057D01*
X17045751Y1719610D01*
X17019348Y1755254D01*
X17015644Y1768027D01*
X17030520Y1785674D01*
X17069301Y1813724D01*
X17123252Y1845912D01*
X17230645Y1904896D01*
X17269091Y1850903D01*
X17328835Y1795917D01*
X17404000Y1769761D01*
X17484781Y1775180D01*
X17509283Y1783639D01*
X17572088Y1821686D01*
X17613801Y1877723D01*
X17638060Y1958057D01*
X17645720Y2020165D01*
X17645108Y2136167D01*
X17621607Y2227082D01*
X17574001Y2296926D01*
X17557111Y2312478D01*
X17491622Y2348108D01*
X17416913Y2359361D01*
X17343584Y2347538D01*
X17282234Y2313942D01*
X17250213Y2274782D01*
X17228724Y2244672D01*
X17201887Y2234365D01*
X17162118Y2244242D01*
X17101833Y2274686D01*
X17087104Y2283015D01*
X16996780Y2334602D01*
X17071814Y2419845D01*
X17158971Y2502843D01*
X17251414Y2555228D01*
X17359562Y2581957D01*
X17423643Y2587288D01*
X17496805Y2588034D01*
X17563044Y2584665D01*
G37*
X16566730Y2586033D02*
X16652572Y2567493D01*
X16762540Y2513284D01*
X16853645Y2428930D01*
X16918378Y2327249D01*
X16944270Y2268917D01*
X16959545Y2215976D01*
X16966834Y2154803D01*
X16968772Y2071776D01*
X16968776Y2066534D01*
X16967255Y1983801D01*
X16960852Y1923821D01*
X16946806Y1873127D01*
X16922354Y1818247D01*
X16914807Y1803301D01*
X16844396Y1699219D01*
X16753868Y1617783D01*
X16650323Y1565076D01*
X16629130Y1558640D01*
X16533170Y1543714D01*
X16425138Y1544204D01*
X16318550Y1558754D01*
X16226924Y1586007D01*
X16193669Y1602349D01*
X16139115Y1640177D01*
X16088988Y1684834D01*
X16050081Y1728907D01*
X16029184Y1764981D01*
X16029165Y1781937D01*
X16049131Y1797341D01*
X16092001Y1822670D01*
X16141358Y1848770D01*
X16244357Y1900729D01*
X16277776Y1856347D01*
X16317814Y1817634D01*
X16369336Y1784273D01*
X16372397Y1782779D01*
X16447499Y1765370D01*
X16523094Y1778713D01*
X16587866Y1819468D01*
X16616265Y1854756D01*
X16652204Y1942561D01*
X16665591Y2042552D01*
X16657294Y2143932D01*
X16628182Y2235902D01*
X16579925Y2306867D01*
X16541400Y2338969D01*
X16499968Y2354281D01*
X16439733Y2358413D01*
X16433860Y2358429D01*
X16374027Y2355564D01*
X16333513Y2342248D01*
X16295506Y2311400D01*
X16277066Y2292382D01*
X16214776Y2226335D01*
X16124054Y2268826D01*
X16072190Y2294896D01*
X16035268Y2316765D01*
X16024183Y2326124D01*
X16027781Y2351789D01*
X16054432Y2391255D01*
X16097453Y2437528D01*
X16150161Y2483616D01*
X16205872Y2522524D01*
X16219126Y2530114D01*
X16324046Y2570178D01*
X16444788Y2589238D01*
X16566730Y2586033D01*
G36*
X16566730Y2586033D02*
G01*
X16652572Y2567493D01*
X16762540Y2513284D01*
X16853645Y2428930D01*
X16918378Y2327249D01*
X16944270Y2268917D01*
X16959545Y2215976D01*
X16966834Y2154803D01*
X16968772Y2071776D01*
X16968776Y2066534D01*
X16967255Y1983801D01*
X16960852Y1923821D01*
X16946806Y1873127D01*
X16922354Y1818247D01*
X16914807Y1803301D01*
X16844396Y1699219D01*
X16753868Y1617783D01*
X16650323Y1565076D01*
X16629130Y1558640D01*
X16533170Y1543714D01*
X16425138Y1544204D01*
X16318550Y1558754D01*
X16226924Y1586007D01*
X16193669Y1602349D01*
X16139115Y1640177D01*
X16088988Y1684834D01*
X16050081Y1728907D01*
X16029184Y1764981D01*
X16029165Y1781937D01*
X16049131Y1797341D01*
X16092001Y1822670D01*
X16141358Y1848770D01*
X16244357Y1900729D01*
X16277776Y1856347D01*
X16317814Y1817634D01*
X16369336Y1784273D01*
X16372397Y1782779D01*
X16447499Y1765370D01*
X16523094Y1778713D01*
X16587866Y1819468D01*
X16616265Y1854756D01*
X16652204Y1942561D01*
X16665591Y2042552D01*
X16657294Y2143932D01*
X16628182Y2235902D01*
X16579925Y2306867D01*
X16541400Y2338969D01*
X16499968Y2354281D01*
X16439733Y2358413D01*
X16433860Y2358429D01*
X16374027Y2355564D01*
X16333513Y2342248D01*
X16295506Y2311400D01*
X16277066Y2292382D01*
X16214776Y2226335D01*
X16124054Y2268826D01*
X16072190Y2294896D01*
X16035268Y2316765D01*
X16024183Y2326124D01*
X16027781Y2351789D01*
X16054432Y2391255D01*
X16097453Y2437528D01*
X16150161Y2483616D01*
X16205872Y2522524D01*
X16219126Y2530114D01*
X16324046Y2570178D01*
X16444788Y2589238D01*
X16566730Y2586033D01*
G37*
X6086772Y2997307D02*
X6136285Y2991412D01*
X6289537Y2951754D01*
X6427840Y2881164D01*
X6547239Y2783294D01*
X6643777Y2661792D01*
X6713496Y2520308D01*
X6738920Y2435536D01*
X6761442Y2340286D01*
X6333594Y2340286D01*
X6313569Y2419810D01*
X6278628Y2496170D01*
X6219733Y2564618D01*
X6148027Y2613550D01*
X6115775Y2625773D01*
X6070393Y2633324D01*
X6005399Y2638232D01*
X5955570Y2639337D01*
X5846939Y2624945D01*
X5756344Y2580985D01*
X5680268Y2505288D01*
X5641286Y2445772D01*
X5593757Y2335879D01*
X5565108Y2211405D01*
X5554767Y2079910D01*
X5562163Y1948952D01*
X5586724Y1826091D01*
X5627879Y1718885D01*
X5685054Y1634895D01*
X5704013Y1616429D01*
X5793517Y1560796D01*
X5899675Y1531851D01*
X6013630Y1530474D01*
X6126528Y1557548D01*
X6158538Y1571194D01*
X6219282Y1614748D01*
X6272353Y1678185D01*
X6307274Y1747629D01*
X6314320Y1777479D01*
X6311873Y1811802D01*
X6285904Y1828275D01*
X6269769Y1831908D01*
X6250016Y1836749D01*
X6241582Y1845016D01*
X6247334Y1861068D01*
X6270141Y1889262D01*
X6312869Y1933959D01*
X6378386Y1999516D01*
X6383162Y2004265D01*
X6547000Y2167172D01*
X6710880Y2004265D01*
X6874761Y1841357D01*
X6815202Y1832286D01*
X6776850Y1822169D01*
X6753536Y1799703D01*
X6735478Y1754267D01*
X6731661Y1741571D01*
X6668012Y1574692D01*
X6583387Y1437130D01*
X6477054Y1328090D01*
X6348281Y1246777D01*
X6236686Y1203555D01*
X6128679Y1182237D01*
X6001236Y1174781D01*
X5868337Y1180908D01*
X5743964Y1200343D01*
X5691156Y1214392D01*
X5541637Y1279606D01*
X5410543Y1374163D01*
X5300483Y1494748D01*
X5214063Y1638048D01*
X5153891Y1800749D01*
X5128003Y1930132D01*
X5117367Y2124657D01*
X5138329Y2307556D01*
X5190170Y2475875D01*
X5272173Y2626658D01*
X5309218Y2676424D01*
X5432895Y2802147D01*
X5576019Y2898440D01*
X5735060Y2963961D01*
X5906488Y2997365D01*
X6086772Y2997307D01*
G36*
X6086772Y2997307D02*
G01*
X6136285Y2991412D01*
X6289537Y2951754D01*
X6427840Y2881164D01*
X6547239Y2783294D01*
X6643777Y2661792D01*
X6713496Y2520308D01*
X6738920Y2435536D01*
X6761442Y2340286D01*
X6333594Y2340286D01*
X6313569Y2419810D01*
X6278628Y2496170D01*
X6219733Y2564618D01*
X6148027Y2613550D01*
X6115775Y2625773D01*
X6070393Y2633324D01*
X6005399Y2638232D01*
X5955570Y2639337D01*
X5846939Y2624945D01*
X5756344Y2580985D01*
X5680268Y2505288D01*
X5641286Y2445772D01*
X5593757Y2335879D01*
X5565108Y2211405D01*
X5554767Y2079910D01*
X5562163Y1948952D01*
X5586724Y1826091D01*
X5627879Y1718885D01*
X5685054Y1634895D01*
X5704013Y1616429D01*
X5793517Y1560796D01*
X5899675Y1531851D01*
X6013630Y1530474D01*
X6126528Y1557548D01*
X6158538Y1571194D01*
X6219282Y1614748D01*
X6272353Y1678185D01*
X6307274Y1747629D01*
X6314320Y1777479D01*
X6311873Y1811802D01*
X6285904Y1828275D01*
X6269769Y1831908D01*
X6250016Y1836749D01*
X6241582Y1845016D01*
X6247334Y1861068D01*
X6270141Y1889262D01*
X6312869Y1933959D01*
X6378386Y1999516D01*
X6383162Y2004265D01*
X6547000Y2167172D01*
X6710880Y2004265D01*
X6874761Y1841357D01*
X6815202Y1832286D01*
X6776850Y1822169D01*
X6753536Y1799703D01*
X6735478Y1754267D01*
X6731661Y1741571D01*
X6668012Y1574692D01*
X6583387Y1437130D01*
X6477054Y1328090D01*
X6348281Y1246777D01*
X6236686Y1203555D01*
X6128679Y1182237D01*
X6001236Y1174781D01*
X5868337Y1180908D01*
X5743964Y1200343D01*
X5691156Y1214392D01*
X5541637Y1279606D01*
X5410543Y1374163D01*
X5300483Y1494748D01*
X5214063Y1638048D01*
X5153891Y1800749D01*
X5128003Y1930132D01*
X5117367Y2124657D01*
X5138329Y2307556D01*
X5190170Y2475875D01*
X5272173Y2626658D01*
X5309218Y2676424D01*
X5432895Y2802147D01*
X5576019Y2898440D01*
X5735060Y2963961D01*
X5906488Y2997365D01*
X6086772Y2997307D01*
G37*
X18686817Y1918677D02*
X18650476Y1685259D01*
X18580859Y1459279D01*
X18570352Y1433143D01*
X18460716Y1212588D01*
X18322852Y1010959D01*
X18159913Y831273D01*
X17975054Y676549D01*
X17771427Y549804D01*
X17552187Y454055D01*
X17544305Y451314D01*
X17350616Y400102D01*
X17139843Y371771D01*
X16922613Y366461D01*
X16709548Y384312D01*
X16511275Y425462D01*
X16472053Y437223D01*
X16248400Y526488D01*
X16039651Y645744D01*
X15849534Y791676D01*
X15681776Y960969D01*
X15540104Y1150308D01*
X15428245Y1356376D01*
X15421431Y1371794D01*
X15344110Y1591758D01*
X15297539Y1821675D01*
X15286560Y1980353D01*
X15591008Y1980353D01*
X15621961Y1764311D01*
X15664746Y1611748D01*
X15737973Y1437824D01*
X15836239Y1277429D01*
X15964267Y1123287D01*
X16016151Y1070286D01*
X16184396Y926997D01*
X16365355Y816805D01*
X16561537Y738596D01*
X16775449Y691257D01*
X16900447Y678054D01*
X17123940Y680118D01*
X17339153Y716944D01*
X17543454Y787550D01*
X17734208Y890951D01*
X17908782Y1026166D01*
X17957106Y1072288D01*
X18106097Y1244934D01*
X18223355Y1431135D01*
X18308664Y1627644D01*
X18361809Y1831212D01*
X18382572Y2038593D01*
X18370738Y2246538D01*
X18326092Y2451799D01*
X18248416Y2651129D01*
X18137496Y2841280D01*
X18079925Y2918910D01*
X17933303Y3075609D01*
X17761635Y3210442D01*
X17571670Y3319028D01*
X17370160Y3396981D01*
X17323857Y3409867D01*
X17179230Y3435972D01*
X17016996Y3446701D01*
X16851947Y3442064D01*
X16698876Y3422073D01*
X16642581Y3409329D01*
X16489449Y3357458D01*
X16330059Y3282836D01*
X16178485Y3192765D01*
X16068807Y3111597D01*
X15915184Y2961264D01*
X15789824Y2790698D01*
X15693725Y2603611D01*
X15627890Y2403716D01*
X15593317Y2194726D01*
X15591008Y1980353D01*
X15286560Y1980353D01*
X15281301Y2056356D01*
X15294982Y2290611D01*
X15338168Y2519251D01*
X15410442Y2737086D01*
X15511390Y2938927D01*
X15551842Y3002500D01*
X15699518Y3190499D01*
X15871038Y3355048D01*
X16062485Y3494516D01*
X16269941Y3607273D01*
X16489492Y3691687D01*
X16717219Y3746128D01*
X16949207Y3768963D01*
X17181539Y3758563D01*
X17314786Y3736684D01*
X17561183Y3667314D01*
X17788750Y3566971D01*
X17996853Y3436071D01*
X18184853Y3275030D01*
X18352113Y3084264D01*
X18387783Y3035947D01*
X18509938Y2834507D01*
X18601444Y2617448D01*
X18661776Y2389383D01*
X18690409Y2154923D01*
X18688641Y2038593D01*
X18686817Y1918677D01*
G36*
X18686817Y1918677D02*
G01*
X18650476Y1685259D01*
X18580859Y1459279D01*
X18570352Y1433143D01*
X18460716Y1212588D01*
X18322852Y1010959D01*
X18159913Y831273D01*
X17975054Y676549D01*
X17771427Y549804D01*
X17552187Y454055D01*
X17544305Y451314D01*
X17350616Y400102D01*
X17139843Y371771D01*
X16922613Y366461D01*
X16709548Y384312D01*
X16511275Y425462D01*
X16472053Y437223D01*
X16248400Y526488D01*
X16039651Y645744D01*
X15849534Y791676D01*
X15681776Y960969D01*
X15540104Y1150308D01*
X15428245Y1356376D01*
X15421431Y1371794D01*
X15344110Y1591758D01*
X15297539Y1821675D01*
X15286560Y1980353D01*
X15591008Y1980353D01*
X15621961Y1764311D01*
X15664746Y1611748D01*
X15737973Y1437824D01*
X15836239Y1277429D01*
X15964267Y1123287D01*
X16016151Y1070286D01*
X16184396Y926997D01*
X16365355Y816805D01*
X16561537Y738596D01*
X16775449Y691257D01*
X16900447Y678054D01*
X17123940Y680118D01*
X17339153Y716944D01*
X17543454Y787550D01*
X17734208Y890951D01*
X17908782Y1026166D01*
X17957106Y1072288D01*
X18106097Y1244934D01*
X18223355Y1431135D01*
X18308664Y1627644D01*
X18361809Y1831212D01*
X18382572Y2038593D01*
X18370738Y2246538D01*
X18326092Y2451799D01*
X18248416Y2651129D01*
X18137496Y2841280D01*
X18079925Y2918910D01*
X17933303Y3075609D01*
X17761635Y3210442D01*
X17571670Y3319028D01*
X17370160Y3396981D01*
X17323857Y3409867D01*
X17179230Y3435972D01*
X17016996Y3446701D01*
X16851947Y3442064D01*
X16698876Y3422073D01*
X16642581Y3409329D01*
X16489449Y3357458D01*
X16330059Y3282836D01*
X16178485Y3192765D01*
X16068807Y3111597D01*
X15915184Y2961264D01*
X15789824Y2790698D01*
X15693725Y2603611D01*
X15627890Y2403716D01*
X15593317Y2194726D01*
X15591008Y1980353D01*
X15286560Y1980353D01*
X15281301Y2056356D01*
X15294982Y2290611D01*
X15338168Y2519251D01*
X15410442Y2737086D01*
X15511390Y2938927D01*
X15551842Y3002500D01*
X15699518Y3190499D01*
X15871038Y3355048D01*
X16062485Y3494516D01*
X16269941Y3607273D01*
X16489492Y3691687D01*
X16717219Y3746128D01*
X16949207Y3768963D01*
X17181539Y3758563D01*
X17314786Y3736684D01*
X17561183Y3667314D01*
X17788750Y3566971D01*
X17996853Y3436071D01*
X18184853Y3275030D01*
X18352113Y3084264D01*
X18387783Y3035947D01*
X18509938Y2834507D01*
X18601444Y2617448D01*
X18661776Y2389383D01*
X18690409Y2154923D01*
X18688641Y2038593D01*
X18686817Y1918677D01*
G37*
X7675698Y1827568D02*
X7631745Y1601369D01*
X7556570Y1389134D01*
X7448604Y1186355D01*
X7317303Y1002196D01*
X7150217Y821335D01*
X6962942Y669266D01*
X6758488Y546881D01*
X6539871Y455075D01*
X6310101Y394741D01*
X6072193Y366773D01*
X5829158Y372065D01*
X5584011Y411510D01*
X5449357Y448091D01*
X5230738Y535062D01*
X5025393Y654316D01*
X4836704Y803223D01*
X4668055Y979156D01*
X4537117Y1157007D01*
X4428079Y1358405D01*
X4349231Y1575126D01*
X4300539Y1802417D01*
X4287478Y1966381D01*
X4592957Y1966381D01*
X4619993Y1760390D01*
X4633134Y1704256D01*
X4700107Y1514423D01*
X4798666Y1332592D01*
X4924184Y1164402D01*
X5072040Y1015493D01*
X5237608Y891504D01*
X5352481Y826973D01*
X5482715Y767244D01*
X5597540Y725740D01*
X5709557Y699564D01*
X5831368Y685817D01*
X5975576Y681600D01*
X5984572Y681587D01*
X6161205Y688808D01*
X6315752Y712423D01*
X6459749Y755180D01*
X6604731Y819827D01*
X6637715Y837158D01*
X6817183Y953579D01*
X6979951Y1098706D01*
X7121495Y1267062D01*
X7237292Y1453172D01*
X7322820Y1651559D01*
X7331035Y1676562D01*
X7356189Y1785226D01*
X7372244Y1916551D01*
X7378746Y2057953D01*
X7375242Y2196854D01*
X7361280Y2320671D01*
X7355341Y2351355D01*
X7293355Y2554650D01*
X7200087Y2745355D01*
X7079103Y2920200D01*
X6933967Y3075918D01*
X6768245Y3209241D01*
X6585502Y3316900D01*
X6389302Y3395626D01*
X6183211Y3442153D01*
X6162501Y3444872D01*
X6004650Y3453679D01*
X5835222Y3445219D01*
X5673797Y3420751D01*
X5630929Y3410751D01*
X5443122Y3345399D01*
X5260378Y3248982D01*
X5089565Y3126679D01*
X4937551Y2983665D01*
X4811206Y2825117D01*
X4772448Y2763739D01*
X4686438Y2583659D01*
X4627184Y2385649D01*
X4595689Y2177345D01*
X4592957Y1966381D01*
X4287478Y1966381D01*
X4281971Y2035521D01*
X4293492Y2269682D01*
X4335069Y2500144D01*
X4406670Y2722153D01*
X4508260Y2930951D01*
X4550024Y2998698D01*
X4688835Y3179568D01*
X4855614Y3343309D01*
X5044429Y3485725D01*
X5249345Y3602615D01*
X5464427Y3689782D01*
X5569218Y3719753D01*
X5736846Y3750578D01*
X5918223Y3765724D01*
X6099739Y3764879D01*
X6267783Y3747733D01*
X6324660Y3737012D01*
X6558513Y3671211D01*
X6770912Y3579022D01*
X6966819Y3457644D01*
X7151194Y3304278D01*
X7229835Y3226054D01*
X7388265Y3035678D01*
X7513632Y2830431D01*
X7605709Y2610879D01*
X7664270Y2377589D01*
X7689089Y2131130D01*
X7690000Y2072240D01*
X7689165Y2057953D01*
X7675698Y1827568D01*
G36*
X7675698Y1827568D02*
G01*
X7631745Y1601369D01*
X7556570Y1389134D01*
X7448604Y1186355D01*
X7317303Y1002196D01*
X7150217Y821335D01*
X6962942Y669266D01*
X6758488Y546881D01*
X6539871Y455075D01*
X6310101Y394741D01*
X6072193Y366773D01*
X5829158Y372065D01*
X5584011Y411510D01*
X5449357Y448091D01*
X5230738Y535062D01*
X5025393Y654316D01*
X4836704Y803223D01*
X4668055Y979156D01*
X4537117Y1157007D01*
X4428079Y1358405D01*
X4349231Y1575126D01*
X4300539Y1802417D01*
X4287478Y1966381D01*
X4592957Y1966381D01*
X4619993Y1760390D01*
X4633134Y1704256D01*
X4700107Y1514423D01*
X4798666Y1332592D01*
X4924184Y1164402D01*
X5072040Y1015493D01*
X5237608Y891504D01*
X5352481Y826973D01*
X5482715Y767244D01*
X5597540Y725740D01*
X5709557Y699564D01*
X5831368Y685817D01*
X5975576Y681600D01*
X5984572Y681587D01*
X6161205Y688808D01*
X6315752Y712423D01*
X6459749Y755180D01*
X6604731Y819827D01*
X6637715Y837158D01*
X6817183Y953579D01*
X6979951Y1098706D01*
X7121495Y1267062D01*
X7237292Y1453172D01*
X7322820Y1651559D01*
X7331035Y1676562D01*
X7356189Y1785226D01*
X7372244Y1916551D01*
X7378746Y2057953D01*
X7375242Y2196854D01*
X7361280Y2320671D01*
X7355341Y2351355D01*
X7293355Y2554650D01*
X7200087Y2745355D01*
X7079103Y2920200D01*
X6933967Y3075918D01*
X6768245Y3209241D01*
X6585502Y3316900D01*
X6389302Y3395626D01*
X6183211Y3442153D01*
X6162501Y3444872D01*
X6004650Y3453679D01*
X5835222Y3445219D01*
X5673797Y3420751D01*
X5630929Y3410751D01*
X5443122Y3345399D01*
X5260378Y3248982D01*
X5089565Y3126679D01*
X4937551Y2983665D01*
X4811206Y2825117D01*
X4772448Y2763739D01*
X4686438Y2583659D01*
X4627184Y2385649D01*
X4595689Y2177345D01*
X4592957Y1966381D01*
X4287478Y1966381D01*
X4281971Y2035521D01*
X4293492Y2269682D01*
X4335069Y2500144D01*
X4406670Y2722153D01*
X4508260Y2930951D01*
X4550024Y2998698D01*
X4688835Y3179568D01*
X4855614Y3343309D01*
X5044429Y3485725D01*
X5249345Y3602615D01*
X5464427Y3689782D01*
X5569218Y3719753D01*
X5736846Y3750578D01*
X5918223Y3765724D01*
X6099739Y3764879D01*
X6267783Y3747733D01*
X6324660Y3737012D01*
X6558513Y3671211D01*
X6770912Y3579022D01*
X6966819Y3457644D01*
X7151194Y3304278D01*
X7229835Y3226054D01*
X7388265Y3035678D01*
X7513632Y2830431D01*
X7605709Y2610879D01*
X7664270Y2377589D01*
X7689089Y2131130D01*
X7690000Y2072240D01*
X7689165Y2057953D01*
X7675698Y1827568D01*
G37*
X15018052Y1936033D02*
X15009036Y1804880D01*
X14993989Y1704842D01*
X14927876Y1478721D01*
X14829181Y1263389D01*
X14700928Y1062646D01*
X14546142Y880295D01*
X14367847Y720137D01*
X14169069Y585976D01*
X14056978Y526965D01*
X13839379Y442255D01*
X13609742Y388585D01*
X13373514Y365798D01*
X13136143Y373740D01*
X12903079Y412254D01*
X12679769Y481186D01*
X12486833Y571776D01*
X12279738Y707559D01*
X12096370Y868907D01*
X11938970Y1052913D01*
X11809774Y1256671D01*
X11711024Y1477273D01*
X11659912Y1645390D01*
X11634681Y1785681D01*
X11620853Y1947520D01*
X11619144Y2068143D01*
X11928125Y2068143D01*
X11931493Y1923101D01*
X11944246Y1801094D01*
X11969301Y1689453D01*
X12009572Y1575509D01*
X12067975Y1446592D01*
X12073960Y1434353D01*
X12114333Y1356167D01*
X12153441Y1291933D01*
X12198448Y1232107D01*
X12256517Y1167143D01*
X12332654Y1089639D01*
X12426642Y999968D01*
X12507690Y931951D01*
X12584943Y878449D01*
X12652250Y840206D01*
X12860218Y751140D01*
X13076631Y695986D01*
X13297434Y675044D01*
X13518577Y688611D01*
X13736007Y736987D01*
X13793345Y755982D01*
X13976559Y839450D01*
X14149753Y953950D01*
X14308183Y1094614D01*
X14447102Y1256574D01*
X14561764Y1434961D01*
X14647424Y1624907D01*
X14651415Y1636211D01*
X14684347Y1764047D01*
X14704404Y1913625D01*
X14711167Y2072607D01*
X14704215Y2228655D01*
X14683128Y2369429D01*
X14677241Y2394413D01*
X14607204Y2598893D01*
X14504823Y2791730D01*
X14373454Y2967767D01*
X14216456Y3121846D01*
X14189246Y3144066D01*
X14077706Y3227798D01*
X13976587Y3291164D01*
X13872813Y3341442D01*
X13756932Y3384699D01*
X13552990Y3434973D01*
X13338685Y3454120D01*
X13122769Y3441855D01*
X12960643Y3410751D01*
X12771461Y3344796D01*
X12589039Y3247656D01*
X12419259Y3124171D01*
X12268003Y2979184D01*
X12141153Y2817536D01*
X12053937Y2664403D01*
X12000362Y2539954D01*
X11963582Y2424559D01*
X11941035Y2306070D01*
X11930159Y2172342D01*
X11928125Y2068143D01*
X11619144Y2068143D01*
X11618435Y2118210D01*
X11627432Y2285057D01*
X11647849Y2435362D01*
X11659515Y2489225D01*
X11730871Y2712520D01*
X11830740Y2916300D01*
X11961523Y3104705D01*
X12110780Y3267600D01*
X12306204Y3434306D01*
X12515784Y3567926D01*
X12741457Y3669542D01*
X12937722Y3729217D01*
X13038577Y3747202D01*
X13162780Y3759235D01*
X13297834Y3764997D01*
X13431241Y3764170D01*
X13550505Y3756436D01*
X13619685Y3746588D01*
X13851131Y3687328D01*
X14062754Y3601066D01*
X14259209Y3485249D01*
X14445147Y3337321D01*
X14550044Y3235764D01*
X14708286Y3051506D01*
X14832870Y2858922D01*
X14926197Y2653741D01*
X14982731Y2466289D01*
X15001917Y2356727D01*
X15014317Y2223881D01*
X15019754Y2079675D01*
X15019671Y2072607D01*
X15018052Y1936033D01*
G36*
X15018052Y1936033D02*
G01*
X15009036Y1804880D01*
X14993989Y1704842D01*
X14927876Y1478721D01*
X14829181Y1263389D01*
X14700928Y1062646D01*
X14546142Y880295D01*
X14367847Y720137D01*
X14169069Y585976D01*
X14056978Y526965D01*
X13839379Y442255D01*
X13609742Y388585D01*
X13373514Y365798D01*
X13136143Y373740D01*
X12903079Y412254D01*
X12679769Y481186D01*
X12486833Y571776D01*
X12279738Y707559D01*
X12096370Y868907D01*
X11938970Y1052913D01*
X11809774Y1256671D01*
X11711024Y1477273D01*
X11659912Y1645390D01*
X11634681Y1785681D01*
X11620853Y1947520D01*
X11619144Y2068143D01*
X11928125Y2068143D01*
X11931493Y1923101D01*
X11944246Y1801094D01*
X11969301Y1689453D01*
X12009572Y1575509D01*
X12067975Y1446592D01*
X12073960Y1434353D01*
X12114333Y1356167D01*
X12153441Y1291933D01*
X12198448Y1232107D01*
X12256517Y1167143D01*
X12332654Y1089639D01*
X12426642Y999968D01*
X12507690Y931951D01*
X12584943Y878449D01*
X12652250Y840206D01*
X12860218Y751140D01*
X13076631Y695986D01*
X13297434Y675044D01*
X13518577Y688611D01*
X13736007Y736987D01*
X13793345Y755982D01*
X13976559Y839450D01*
X14149753Y953950D01*
X14308183Y1094614D01*
X14447102Y1256574D01*
X14561764Y1434961D01*
X14647424Y1624907D01*
X14651415Y1636211D01*
X14684347Y1764047D01*
X14704404Y1913625D01*
X14711167Y2072607D01*
X14704215Y2228655D01*
X14683128Y2369429D01*
X14677241Y2394413D01*
X14607204Y2598893D01*
X14504823Y2791730D01*
X14373454Y2967767D01*
X14216456Y3121846D01*
X14189246Y3144066D01*
X14077706Y3227798D01*
X13976587Y3291164D01*
X13872813Y3341442D01*
X13756932Y3384699D01*
X13552990Y3434973D01*
X13338685Y3454120D01*
X13122769Y3441855D01*
X12960643Y3410751D01*
X12771461Y3344796D01*
X12589039Y3247656D01*
X12419259Y3124171D01*
X12268003Y2979184D01*
X12141153Y2817536D01*
X12053937Y2664403D01*
X12000362Y2539954D01*
X11963582Y2424559D01*
X11941035Y2306070D01*
X11930159Y2172342D01*
X11928125Y2068143D01*
X11619144Y2068143D01*
X11618435Y2118210D01*
X11627432Y2285057D01*
X11647849Y2435362D01*
X11659515Y2489225D01*
X11730871Y2712520D01*
X11830740Y2916300D01*
X11961523Y3104705D01*
X12110780Y3267600D01*
X12306204Y3434306D01*
X12515784Y3567926D01*
X12741457Y3669542D01*
X12937722Y3729217D01*
X13038577Y3747202D01*
X13162780Y3759235D01*
X13297834Y3764997D01*
X13431241Y3764170D01*
X13550505Y3756436D01*
X13619685Y3746588D01*
X13851131Y3687328D01*
X14062754Y3601066D01*
X14259209Y3485249D01*
X14445147Y3337321D01*
X14550044Y3235764D01*
X14708286Y3051506D01*
X14832870Y2858922D01*
X14926197Y2653741D01*
X14982731Y2466289D01*
X15001917Y2356727D01*
X15014317Y2223881D01*
X15019754Y2079675D01*
X15019671Y2072607D01*
X15018052Y1936033D01*
G37*
X11350327Y2000944D02*
X11349984Y1991368D01*
X11329955Y1761914D01*
X11286013Y1555014D01*
X11215731Y1363979D01*
X11178271Y1295202D01*
X11116681Y1182123D01*
X10994957Y1013302D01*
X10848261Y852592D01*
X10681717Y708384D01*
X10502682Y585939D01*
X10318511Y490517D01*
X10202154Y446319D01*
X9972051Y389936D01*
X9734671Y365410D01*
X9495503Y372048D01*
X9260036Y409157D01*
X9033759Y476043D01*
X8822162Y572012D01*
X8718874Y633755D01*
X8519901Y784803D01*
X8347523Y959231D01*
X8203435Y1154674D01*
X8089330Y1368767D01*
X8006903Y1599145D01*
X7995098Y1644017D01*
X7969172Y1787181D01*
X7955149Y1951654D01*
X7954288Y2022093D01*
X8257473Y2022093D01*
X8273826Y1840588D01*
X8308247Y1669770D01*
X8326697Y1608069D01*
X8401659Y1435202D01*
X8507428Y1267790D01*
X8638527Y1111628D01*
X8789478Y972512D01*
X8954805Y856238D01*
X9114252Y774693D01*
X9316208Y708972D01*
X9527457Y675900D01*
X9742437Y675022D01*
X9955585Y705881D01*
X10161339Y768022D01*
X10354134Y860989D01*
X10383399Y878688D01*
X10439043Y917976D01*
X10505006Y971620D01*
X10575806Y1034270D01*
X10645956Y1100576D01*
X10709972Y1165187D01*
X10762369Y1222754D01*
X10797662Y1267925D01*
X10810370Y1295202D01*
X10794834Y1311931D01*
X10754278Y1336615D01*
X10697456Y1363932D01*
X10696978Y1364139D01*
X10633509Y1391798D01*
X10548871Y1428991D01*
X10455024Y1470452D01*
X10379626Y1503920D01*
X10175466Y1594776D01*
X10138740Y1522787D01*
X10073521Y1434738D01*
X9977212Y1364984D01*
X9850204Y1313778D01*
X9790036Y1298355D01*
X9763921Y1290755D01*
X9749003Y1276700D01*
X9742150Y1247547D01*
X9740231Y1194657D01*
X9740143Y1160654D01*
X9740143Y1034000D01*
X9540572Y1034000D01*
X9540572Y1286356D01*
X9472536Y1297508D01*
X9389886Y1316662D01*
X9301556Y1346024D01*
X9220686Y1380534D01*
X9160416Y1415133D01*
X9153615Y1420297D01*
X9103617Y1460357D01*
X9322379Y1676463D01*
X9408304Y1634717D01*
X9500987Y1600182D01*
X9593525Y1584011D01*
X9679078Y1585488D01*
X9750805Y1603896D01*
X9801866Y1638519D01*
X9823440Y1678204D01*
X9827080Y1719064D01*
X9819550Y1741973D01*
X9799780Y1752779D01*
X9750925Y1776267D01*
X9677097Y1810610D01*
X9582404Y1853976D01*
X9470954Y1904538D01*
X9346858Y1960464D01*
X9214225Y2019927D01*
X9077163Y2081096D01*
X8939782Y2142142D01*
X8806191Y2201236D01*
X8680499Y2256547D01*
X8566816Y2306248D01*
X8469250Y2348508D01*
X8391911Y2381498D01*
X8338909Y2403388D01*
X8314351Y2412349D01*
X8313508Y2412469D01*
X8295258Y2397183D01*
X8282171Y2362964D01*
X8259989Y2200735D01*
X8257473Y2022093D01*
X7954288Y2022093D01*
X7953034Y2124642D01*
X7962830Y2293350D01*
X7984545Y2444984D01*
X7994772Y2490896D01*
X8064977Y2711014D01*
X8092402Y2767421D01*
X8443693Y2767421D01*
X8443858Y2740396D01*
X8444569Y2739619D01*
X8465290Y2727732D01*
X8512543Y2704544D01*
X8579718Y2673012D01*
X8660208Y2636097D01*
X8747405Y2596758D01*
X8834700Y2557955D01*
X8915484Y2522646D01*
X8983151Y2493792D01*
X9031091Y2474352D01*
X9052653Y2467286D01*
X9066537Y2482531D01*
X9083542Y2519726D01*
X9085300Y2524635D01*
X9138131Y2623238D01*
X9220592Y2708617D01*
X9327069Y2776175D01*
X9445792Y2819775D01*
X9531500Y2841694D01*
X9533624Y2967454D01*
X9535747Y3093214D01*
X9731072Y3093214D01*
X9741642Y2834660D01*
X9848334Y2822589D01*
X9943325Y2801440D01*
X10048090Y2761814D01*
X10146539Y2710683D01*
X10210634Y2665597D01*
X10254769Y2628461D01*
X10134149Y2507841D01*
X10013529Y2387222D01*
X9971860Y2426367D01*
X9900156Y2476820D01*
X9811567Y2514262D01*
X9715703Y2537079D01*
X9622174Y2543657D01*
X9540592Y2532382D01*
X9487917Y2507629D01*
X9458228Y2479061D01*
X9444294Y2442767D01*
X9440786Y2384737D01*
X9440786Y2383720D01*
X9442891Y2329130D01*
X9453860Y2297513D01*
X9480677Y2275605D01*
X9504286Y2263102D01*
X9555145Y2238646D01*
X9630455Y2203905D01*
X9726127Y2160654D01*
X9838074Y2110670D01*
X9962207Y2055728D01*
X10094440Y1997603D01*
X10230685Y1938071D01*
X10366855Y1878907D01*
X10498860Y1821887D01*
X10622615Y1768787D01*
X10734031Y1721382D01*
X10829020Y1681448D01*
X10903495Y1650760D01*
X10953369Y1631094D01*
X10974554Y1624225D01*
X10974921Y1624300D01*
X10990406Y1650329D01*
X11006154Y1704686D01*
X11020877Y1779442D01*
X11033288Y1866675D01*
X11042101Y1958456D01*
X11046026Y2046861D01*
X11046114Y2062653D01*
X11037568Y2239028D01*
X11010672Y2395411D01*
X10962522Y2544643D01*
X10911621Y2657786D01*
X10794253Y2856105D01*
X10652369Y3027745D01*
X10485274Y3173399D01*
X10292274Y3293761D01*
X10255015Y3312654D01*
X10143396Y3363919D01*
X10043375Y3400444D01*
X9944907Y3424190D01*
X9837948Y3437115D01*
X9712452Y3441182D01*
X9604072Y3439701D01*
X9488217Y3435462D01*
X9399579Y3428873D01*
X9329111Y3418794D01*
X9267764Y3404087D01*
X9232535Y3392897D01*
X9067548Y3328043D01*
X8924386Y3251601D01*
X8791326Y3156262D01*
X8656648Y3034717D01*
X8653995Y3032105D01*
X8575663Y2950668D01*
X8512539Y2876668D01*
X8467568Y2814215D01*
X8443693Y2767421D01*
X8092402Y2767421D01*
X8162282Y2911150D01*
X8289616Y3096302D01*
X8449904Y3271468D01*
X8454556Y3275952D01*
X8620822Y3421149D01*
X8788135Y3536251D01*
X8965117Y3626649D01*
X9095724Y3676876D01*
X9324989Y3737526D01*
X9562059Y3767256D01*
X9798262Y3765379D01*
X9957857Y3745000D01*
X10183169Y3686381D01*
X10399193Y3595550D01*
X10602176Y3475774D01*
X10788369Y3330321D01*
X10954020Y3162458D01*
X11095378Y2975453D01*
X11208692Y2772574D01*
X11278817Y2594286D01*
X11312542Y2479110D01*
X11335240Y2373330D01*
X11348227Y2265805D01*
X11352817Y2145390D01*
X11351391Y2062653D01*
X11350327Y2000944D01*
G36*
X11350327Y2000944D02*
G01*
X11349984Y1991368D01*
X11329955Y1761914D01*
X11286013Y1555014D01*
X11215731Y1363979D01*
X11178271Y1295202D01*
X11116681Y1182123D01*
X10994957Y1013302D01*
X10848261Y852592D01*
X10681717Y708384D01*
X10502682Y585939D01*
X10318511Y490517D01*
X10202154Y446319D01*
X9972051Y389936D01*
X9734671Y365410D01*
X9495503Y372048D01*
X9260036Y409157D01*
X9033759Y476043D01*
X8822162Y572012D01*
X8718874Y633755D01*
X8519901Y784803D01*
X8347523Y959231D01*
X8203435Y1154674D01*
X8089330Y1368767D01*
X8006903Y1599145D01*
X7995098Y1644017D01*
X7969172Y1787181D01*
X7955149Y1951654D01*
X7954288Y2022093D01*
X8257473Y2022093D01*
X8273826Y1840588D01*
X8308247Y1669770D01*
X8326697Y1608069D01*
X8401659Y1435202D01*
X8507428Y1267790D01*
X8638527Y1111628D01*
X8789478Y972512D01*
X8954805Y856238D01*
X9114252Y774693D01*
X9316208Y708972D01*
X9527457Y675900D01*
X9742437Y675022D01*
X9955585Y705881D01*
X10161339Y768022D01*
X10354134Y860989D01*
X10383399Y878688D01*
X10439043Y917976D01*
X10505006Y971620D01*
X10575806Y1034270D01*
X10645956Y1100576D01*
X10709972Y1165187D01*
X10762369Y1222754D01*
X10797662Y1267925D01*
X10810370Y1295202D01*
X10794834Y1311931D01*
X10754278Y1336615D01*
X10697456Y1363932D01*
X10696978Y1364139D01*
X10633509Y1391798D01*
X10548871Y1428991D01*
X10455024Y1470452D01*
X10379626Y1503920D01*
X10175466Y1594776D01*
X10138740Y1522787D01*
X10073521Y1434738D01*
X9977212Y1364984D01*
X9850204Y1313778D01*
X9790036Y1298355D01*
X9763921Y1290755D01*
X9749003Y1276700D01*
X9742150Y1247547D01*
X9740231Y1194657D01*
X9740143Y1160654D01*
X9740143Y1034000D01*
X9540572Y1034000D01*
X9540572Y1286356D01*
X9472536Y1297508D01*
X9389886Y1316662D01*
X9301556Y1346024D01*
X9220686Y1380534D01*
X9160416Y1415133D01*
X9153615Y1420297D01*
X9103617Y1460357D01*
X9322379Y1676463D01*
X9408304Y1634717D01*
X9500987Y1600182D01*
X9593525Y1584011D01*
X9679078Y1585488D01*
X9750805Y1603896D01*
X9801866Y1638519D01*
X9823440Y1678204D01*
X9827080Y1719064D01*
X9819550Y1741973D01*
X9799780Y1752779D01*
X9750925Y1776267D01*
X9677097Y1810610D01*
X9582404Y1853976D01*
X9470954Y1904538D01*
X9346858Y1960464D01*
X9214225Y2019927D01*
X9077163Y2081096D01*
X8939782Y2142142D01*
X8806191Y2201236D01*
X8680499Y2256547D01*
X8566816Y2306248D01*
X8469250Y2348508D01*
X8391911Y2381498D01*
X8338909Y2403388D01*
X8314351Y2412349D01*
X8313508Y2412469D01*
X8295258Y2397183D01*
X8282171Y2362964D01*
X8259989Y2200735D01*
X8257473Y2022093D01*
X7954288Y2022093D01*
X7953034Y2124642D01*
X7962830Y2293350D01*
X7984545Y2444984D01*
X7994772Y2490896D01*
X8064977Y2711014D01*
X8092402Y2767421D01*
X8443693Y2767421D01*
X8443858Y2740396D01*
X8444569Y2739619D01*
X8465290Y2727732D01*
X8512543Y2704544D01*
X8579718Y2673012D01*
X8660208Y2636097D01*
X8747405Y2596758D01*
X8834700Y2557955D01*
X8915484Y2522646D01*
X8983151Y2493792D01*
X9031091Y2474352D01*
X9052653Y2467286D01*
X9066537Y2482531D01*
X9083542Y2519726D01*
X9085300Y2524635D01*
X9138131Y2623238D01*
X9220592Y2708617D01*
X9327069Y2776175D01*
X9445792Y2819775D01*
X9531500Y2841694D01*
X9533624Y2967454D01*
X9535747Y3093214D01*
X9731072Y3093214D01*
X9741642Y2834660D01*
X9848334Y2822589D01*
X9943325Y2801440D01*
X10048090Y2761814D01*
X10146539Y2710683D01*
X10210634Y2665597D01*
X10254769Y2628461D01*
X10134149Y2507841D01*
X10013529Y2387222D01*
X9971860Y2426367D01*
X9900156Y2476820D01*
X9811567Y2514262D01*
X9715703Y2537079D01*
X9622174Y2543657D01*
X9540592Y2532382D01*
X9487917Y2507629D01*
X9458228Y2479061D01*
X9444294Y2442767D01*
X9440786Y2384737D01*
X9440786Y2383720D01*
X9442891Y2329130D01*
X9453860Y2297513D01*
X9480677Y2275605D01*
X9504286Y2263102D01*
X9555145Y2238646D01*
X9630455Y2203905D01*
X9726127Y2160654D01*
X9838074Y2110670D01*
X9962207Y2055728D01*
X10094440Y1997603D01*
X10230685Y1938071D01*
X10366855Y1878907D01*
X10498860Y1821887D01*
X10622615Y1768787D01*
X10734031Y1721382D01*
X10829020Y1681448D01*
X10903495Y1650760D01*
X10953369Y1631094D01*
X10974554Y1624225D01*
X10974921Y1624300D01*
X10990406Y1650329D01*
X11006154Y1704686D01*
X11020877Y1779442D01*
X11033288Y1866675D01*
X11042101Y1958456D01*
X11046026Y2046861D01*
X11046114Y2062653D01*
X11037568Y2239028D01*
X11010672Y2395411D01*
X10962522Y2544643D01*
X10911621Y2657786D01*
X10794253Y2856105D01*
X10652369Y3027745D01*
X10485274Y3173399D01*
X10292274Y3293761D01*
X10255015Y3312654D01*
X10143396Y3363919D01*
X10043375Y3400444D01*
X9944907Y3424190D01*
X9837948Y3437115D01*
X9712452Y3441182D01*
X9604072Y3439701D01*
X9488217Y3435462D01*
X9399579Y3428873D01*
X9329111Y3418794D01*
X9267764Y3404087D01*
X9232535Y3392897D01*
X9067548Y3328043D01*
X8924386Y3251601D01*
X8791326Y3156262D01*
X8656648Y3034717D01*
X8653995Y3032105D01*
X8575663Y2950668D01*
X8512539Y2876668D01*
X8467568Y2814215D01*
X8443693Y2767421D01*
X8092402Y2767421D01*
X8162282Y2911150D01*
X8289616Y3096302D01*
X8449904Y3271468D01*
X8454556Y3275952D01*
X8620822Y3421149D01*
X8788135Y3536251D01*
X8965117Y3626649D01*
X9095724Y3676876D01*
X9324989Y3737526D01*
X9562059Y3767256D01*
X9798262Y3765379D01*
X9957857Y3745000D01*
X10183169Y3686381D01*
X10399193Y3595550D01*
X10602176Y3475774D01*
X10788369Y3330321D01*
X10954020Y3162458D01*
X11095378Y2975453D01*
X11208692Y2772574D01*
X11278817Y2594286D01*
X11312542Y2479110D01*
X11335240Y2373330D01*
X11348227Y2265805D01*
X11352817Y2145390D01*
X11351391Y2062653D01*
X11350327Y2000944D01*
G37*
%TD*%
%LPC*%
D14*
%TO.C,JC1*%
X800000Y15500000D03*
%TD*%
D15*
%TO.C,JC5*%
X800000Y7500000D03*
%TD*%
D16*
%TO.C,JA1*%
X18300000Y4960000D03*
%TD*%
D15*
%TO.C,JC8*%
X800000Y1500000D03*
%TD*%
D16*
%TO.C,JA3*%
X18300000Y10040000D03*
%TD*%
%TO.C,JA2*%
X18300000Y7500000D03*
%TD*%
D15*
%TO.C,JC6*%
X800000Y5500000D03*
%TD*%
%TO.C,JC3*%
X800000Y11500000D03*
%TD*%
%TO.C,JC2*%
X800000Y13500000D03*
%TD*%
%TO.C,JC4*%
X800000Y9500000D03*
%TD*%
%TO.C,JC7*%
X800000Y3500000D03*
%TD*%
%LPD*%
M02*
