M48
; DRILL file {KiCad 8.0.9-8.0.9-0~ubuntu22.04.1} date 2025-05-07T12:48:03+0200
; FORMAT={-:-/ absolute / inch / decimal}
; #@! TF.CreationDate,2025-05-07T12:48:03+02:00
; #@! TF.GenerationSoftware,Kicad,Pcbnew,8.0.9-8.0.9-0~ubuntu22.04.1
; #@! TF.FileFunction,Plated,1,2,PTH
FMAT,2
INCH
; #@! TA.AperFunction,Plated,PTH,ViaDrill
T1C0.0157
; #@! TA.AperFunction,Plated,PTH,ComponentDrill
T2C0.0315
; #@! TA.AperFunction,Plated,PTH,ComponentDrill
T3C0.0354
%
G90
G05
T1
X0.08Y0.3752
X0.0834Y0.2165
X0.095Y0.54
X0.095Y0.49
X0.095Y0.42
X0.1089Y0.5685
X0.11Y0.2774
X0.15Y0.325
X0.1509Y0.375
X0.152Y0.588
X0.16Y0.215
X0.18Y0.435
X0.18Y0.405
X0.1831Y0.6181
X0.21Y0.145
X0.2669Y0.5034
X0.293Y0.527
X0.44Y0.04
X0.445Y0.1
X0.59Y0.31
X0.5925Y0.5177
X0.612Y0.208
X0.6389Y0.5661
X0.72Y0.485
X0.72Y0.105
T2
X0.0315Y0.6102
X0.0315Y0.5315
X0.0315Y0.4528
X0.0315Y0.374
X0.0315Y0.2953
X0.0315Y0.2165
X0.0315Y0.1378
X0.0315Y0.0591
T3
X0.7205Y0.3953
X0.7205Y0.2953
X0.7205Y0.1953
M30
