G04 #@! TF.GenerationSoftware,KiCad,Pcbnew,5.1.10-88a1d61d58~88~ubuntu18.04.1*
G04 #@! TF.CreationDate,2021-10-17T18:28:32+02:00*
G04 #@! TF.ProjectId,HB-UNI-SEN-BATT_ATMega1284P_E07-868MS10_FUEL4EP,48422d55-4e49-42d5-9345-4e2d42415454,rev?*
G04 #@! TF.SameCoordinates,Original*
G04 #@! TF.FileFunction,Soldermask,Bot*
G04 #@! TF.FilePolarity,Negative*
%FSLAX46Y46*%
G04 Gerber Fmt 4.6, Leading zero omitted, Abs format (unit mm)*
G04 Created by KiCad (PCBNEW 5.1.10-88a1d61d58~88~ubuntu18.04.1) date 2021-10-17 18:28:32*
%MOMM*%
%LPD*%
G01*
G04 APERTURE LIST*
%ADD10C,5.000000*%
%ADD11O,1.700000X1.700000*%
%ADD12R,1.700000X1.700000*%
%ADD13O,1.350000X1.350000*%
%ADD14R,1.350000X1.350000*%
%ADD15R,2.000000X2.000000*%
%ADD16C,2.000000*%
%ADD17C,2.640000*%
%ADD18C,3.000000*%
%ADD19C,1.000000*%
%ADD20C,0.700000*%
%ADD21C,4.400000*%
%ADD22R,1.000000X1.500000*%
%ADD23O,1.717500X1.800000*%
%ADD24R,1.717500X1.800000*%
G04 APERTURE END LIST*
D10*
X152510800Y-133200000D03*
X152510800Y-90200000D03*
X124510800Y-133200000D03*
X124510800Y-90200000D03*
D11*
X148336000Y-105219500D03*
D12*
X145796000Y-105219500D03*
D11*
X151130000Y-143380000D03*
X151130000Y-145920000D03*
X151130000Y-148460000D03*
D12*
X151130000Y-151000000D03*
D11*
X142400000Y-92075000D03*
D12*
X142400000Y-94615000D03*
D11*
X142400000Y-85471000D03*
D12*
X142400000Y-88011000D03*
D11*
X171069000Y-81343500D03*
X168529000Y-81343500D03*
D12*
X165989000Y-81343500D03*
D13*
X143667000Y-131750000D03*
X141667000Y-131750000D03*
X139667000Y-131750000D03*
X137667000Y-131750000D03*
X135667000Y-131750000D03*
X133667000Y-131750000D03*
X131667000Y-131750000D03*
D14*
X129667000Y-131750000D03*
D15*
X112420000Y-139100000D03*
D16*
X112420000Y-87110000D03*
D17*
X118415000Y-89870000D03*
X106425000Y-136350000D03*
D15*
X164490000Y-86860000D03*
D16*
X164490000Y-138850000D03*
D17*
X158495000Y-136090000D03*
X170485000Y-89610000D03*
D11*
X141770100Y-80860900D03*
X139230100Y-80860900D03*
X136690100Y-80860900D03*
X134150100Y-80860900D03*
X131610100Y-80860900D03*
D12*
X129070100Y-80860900D03*
D18*
X123800000Y-115470000D03*
D19*
X123800000Y-117750000D03*
X140260000Y-116310000D03*
X140260000Y-117580000D03*
X140260000Y-118850000D03*
X140260000Y-120120000D03*
X140260000Y-121390000D03*
X140260000Y-122660000D03*
X140260000Y-123930000D03*
X140260000Y-125200000D03*
D20*
X162272800Y-148477200D03*
X161000000Y-147950000D03*
X159727200Y-148477200D03*
X159200000Y-149750000D03*
X159727200Y-151022800D03*
X161000000Y-151550000D03*
X162272800Y-151022800D03*
X162800000Y-149750000D03*
D21*
X161000000Y-149750000D03*
D20*
X117272800Y-148477200D03*
X116000000Y-147950000D03*
X114727200Y-148477200D03*
X114200000Y-149750000D03*
X114727200Y-151022800D03*
X116000000Y-151550000D03*
X117272800Y-151022800D03*
X117800000Y-149750000D03*
D21*
X116000000Y-149750000D03*
D20*
X162272800Y-79977200D03*
X161000000Y-79450000D03*
X159727200Y-79977200D03*
X159200000Y-81250000D03*
X159727200Y-82522800D03*
X161000000Y-83050000D03*
X162272800Y-82522800D03*
X162800000Y-81250000D03*
D21*
X161000000Y-81250000D03*
D20*
X117272800Y-79977200D03*
X116000000Y-79450000D03*
X114727200Y-79977200D03*
X114200000Y-81250000D03*
X114727200Y-82522800D03*
X116000000Y-83050000D03*
X117272800Y-82522800D03*
X117800000Y-81250000D03*
D21*
X116000000Y-81250000D03*
D22*
X109200000Y-149225000D03*
X110500000Y-149225000D03*
D23*
X112530000Y-144780000D03*
X110240000Y-144780000D03*
D24*
X107950000Y-144780000D03*
D11*
X140970000Y-143383000D03*
X140970000Y-145923000D03*
X140970000Y-148463000D03*
D12*
X140970000Y-151003000D03*
D11*
X135890000Y-143383000D03*
X135890000Y-145923000D03*
X135890000Y-148463000D03*
D12*
X135890000Y-151003000D03*
D11*
X125730000Y-143380000D03*
X125730000Y-145920000D03*
X125730000Y-148460000D03*
D12*
X125730000Y-151000000D03*
D11*
X170180000Y-144780000D03*
X167640000Y-144780000D03*
X165100000Y-144780000D03*
X162560000Y-144780000D03*
X160020000Y-144780000D03*
D12*
X157480000Y-144780000D03*
D11*
X148336000Y-108902500D03*
D12*
X145796000Y-108902500D03*
M02*
