G04 #@! TF.GenerationSoftware,KiCad,Pcbnew,5.1.12-84ad8e8a86~92~ubuntu18.04.1*
G04 #@! TF.CreationDate,2022-01-10T10:47:56+01:00*
G04 #@! TF.ProjectId,HB-UNI-SEN-BATT_ATMega1284P_E07-868MS10_FUEL4EP,48422d55-4e49-42d5-9345-4e2d42415454,rev?*
G04 #@! TF.SameCoordinates,Original*
G04 #@! TF.FileFunction,Legend,Bot*
G04 #@! TF.FilePolarity,Positive*
%FSLAX46Y46*%
G04 Gerber Fmt 4.6, Leading zero omitted, Abs format (unit mm)*
G04 Created by KiCad (PCBNEW 5.1.12-84ad8e8a86~92~ubuntu18.04.1) date 2022-01-10 10:47:56*
%MOMM*%
%LPD*%
G01*
G04 APERTURE LIST*
%ADD10C,0.200000*%
%ADD11C,0.120000*%
%ADD12C,0.150000*%
%ADD13O,1.717500X1.800000*%
%ADD14R,1.717500X1.800000*%
%ADD15C,5.000000*%
%ADD16O,1.700000X1.700000*%
%ADD17R,1.700000X1.700000*%
%ADD18O,1.350000X1.350000*%
%ADD19R,1.350000X1.350000*%
%ADD20R,2.000000X2.000000*%
%ADD21C,2.000000*%
%ADD22C,2.640000*%
%ADD23C,3.000000*%
%ADD24C,1.000000*%
%ADD25C,0.700000*%
%ADD26C,4.400000*%
%ADD27R,1.000000X1.500000*%
G04 APERTURE END LIST*
D10*
X111617000Y-89404571D02*
X111559857Y-89347428D01*
X111388428Y-89233142D01*
X111274142Y-89176000D01*
X111102714Y-89118857D01*
X110817000Y-89061714D01*
X110588428Y-89061714D01*
X110302714Y-89118857D01*
X110131285Y-89176000D01*
X110017000Y-89233142D01*
X109845571Y-89347428D01*
X109788428Y-89404571D01*
X111102714Y-90376000D02*
X111159857Y-90261714D01*
X111159857Y-90033142D01*
X111102714Y-89918857D01*
X111045571Y-89861714D01*
X110931285Y-89804571D01*
X110588428Y-89804571D01*
X110474142Y-89861714D01*
X110417000Y-89918857D01*
X110359857Y-90033142D01*
X110359857Y-90261714D01*
X110417000Y-90376000D01*
X111617000Y-90776000D02*
X111559857Y-90833142D01*
X111388428Y-90947428D01*
X111274142Y-91004571D01*
X111102714Y-91061714D01*
X110817000Y-91118857D01*
X110588428Y-91118857D01*
X110302714Y-91061714D01*
X110131285Y-91004571D01*
X110017000Y-90947428D01*
X109845571Y-90833142D01*
X109788428Y-90776000D01*
X110531285Y-93004571D02*
X110531285Y-92604571D01*
X111159857Y-92604571D02*
X109959857Y-92604571D01*
X109959857Y-93176000D01*
X109959857Y-93633142D02*
X110931285Y-93633142D01*
X111045571Y-93690285D01*
X111102714Y-93747428D01*
X111159857Y-93861714D01*
X111159857Y-94090285D01*
X111102714Y-94204571D01*
X111045571Y-94261714D01*
X110931285Y-94318857D01*
X109959857Y-94318857D01*
X110531285Y-94890285D02*
X110531285Y-95290285D01*
X111159857Y-95461714D02*
X111159857Y-94890285D01*
X109959857Y-94890285D01*
X109959857Y-95461714D01*
X111159857Y-96547428D02*
X111159857Y-95976000D01*
X109959857Y-95976000D01*
X110359857Y-97461714D02*
X111159857Y-97461714D01*
X109902714Y-97176000D02*
X110759857Y-96890285D01*
X110759857Y-97633142D01*
X110531285Y-98090285D02*
X110531285Y-98490285D01*
X111159857Y-98661714D02*
X111159857Y-98090285D01*
X109959857Y-98090285D01*
X109959857Y-98661714D01*
X111159857Y-99176000D02*
X109959857Y-99176000D01*
X109959857Y-99633142D01*
X110017000Y-99747428D01*
X110074142Y-99804571D01*
X110188428Y-99861714D01*
X110359857Y-99861714D01*
X110474142Y-99804571D01*
X110531285Y-99747428D01*
X110588428Y-99633142D01*
X110588428Y-99176000D01*
X107737357Y-89017285D02*
X108937357Y-89417285D01*
X107737357Y-89817285D01*
X108880214Y-90674428D02*
X108937357Y-90560142D01*
X108937357Y-90331571D01*
X108880214Y-90217285D01*
X108765928Y-90160142D01*
X108308785Y-90160142D01*
X108194500Y-90217285D01*
X108137357Y-90331571D01*
X108137357Y-90560142D01*
X108194500Y-90674428D01*
X108308785Y-90731571D01*
X108423071Y-90731571D01*
X108537357Y-90160142D01*
X108937357Y-91245857D02*
X108137357Y-91245857D01*
X108365928Y-91245857D02*
X108251642Y-91303000D01*
X108194500Y-91360142D01*
X108137357Y-91474428D01*
X108137357Y-91588714D01*
X108880214Y-91931571D02*
X108937357Y-92045857D01*
X108937357Y-92274428D01*
X108880214Y-92388714D01*
X108765928Y-92445857D01*
X108708785Y-92445857D01*
X108594500Y-92388714D01*
X108537357Y-92274428D01*
X108537357Y-92103000D01*
X108480214Y-91988714D01*
X108365928Y-91931571D01*
X108308785Y-91931571D01*
X108194500Y-91988714D01*
X108137357Y-92103000D01*
X108137357Y-92274428D01*
X108194500Y-92388714D01*
X108937357Y-92960142D02*
X108137357Y-92960142D01*
X107737357Y-92960142D02*
X107794500Y-92903000D01*
X107851642Y-92960142D01*
X107794500Y-93017285D01*
X107737357Y-92960142D01*
X107851642Y-92960142D01*
X108937357Y-93703000D02*
X108880214Y-93588714D01*
X108823071Y-93531571D01*
X108708785Y-93474428D01*
X108365928Y-93474428D01*
X108251642Y-93531571D01*
X108194500Y-93588714D01*
X108137357Y-93703000D01*
X108137357Y-93874428D01*
X108194500Y-93988714D01*
X108251642Y-94045857D01*
X108365928Y-94103000D01*
X108708785Y-94103000D01*
X108823071Y-94045857D01*
X108880214Y-93988714D01*
X108937357Y-93874428D01*
X108937357Y-93703000D01*
X108137357Y-94617285D02*
X108937357Y-94617285D01*
X108251642Y-94617285D02*
X108194500Y-94674428D01*
X108137357Y-94788714D01*
X108137357Y-94960142D01*
X108194500Y-95074428D01*
X108308785Y-95131571D01*
X108937357Y-95131571D01*
X108937357Y-97245857D02*
X108937357Y-96560142D01*
X108937357Y-96903000D02*
X107737357Y-96903000D01*
X107908785Y-96788714D01*
X108023071Y-96674428D01*
X108080214Y-96560142D01*
X108823071Y-97760142D02*
X108880214Y-97817285D01*
X108937357Y-97760142D01*
X108880214Y-97703000D01*
X108823071Y-97760142D01*
X108937357Y-97760142D01*
X108937357Y-98960142D02*
X108937357Y-98274428D01*
X108937357Y-98617285D02*
X107737357Y-98617285D01*
X107908785Y-98503000D01*
X108023071Y-98388714D01*
X108080214Y-98274428D01*
X108480214Y-100388714D02*
X108480214Y-101303000D01*
X107737357Y-103017285D02*
X107737357Y-103131571D01*
X107794500Y-103245857D01*
X107851642Y-103303000D01*
X107965928Y-103360142D01*
X108194500Y-103417285D01*
X108480214Y-103417285D01*
X108708785Y-103360142D01*
X108823071Y-103303000D01*
X108880214Y-103245857D01*
X108937357Y-103131571D01*
X108937357Y-103017285D01*
X108880214Y-102903000D01*
X108823071Y-102845857D01*
X108708785Y-102788714D01*
X108480214Y-102731571D01*
X108194500Y-102731571D01*
X107965928Y-102788714D01*
X107851642Y-102845857D01*
X107794500Y-102903000D01*
X107737357Y-103017285D01*
X108937357Y-104560142D02*
X108937357Y-103874428D01*
X108937357Y-104217285D02*
X107737357Y-104217285D01*
X107908785Y-104103000D01*
X108023071Y-103988714D01*
X108080214Y-103874428D01*
X107680214Y-105931571D02*
X109223071Y-104903000D01*
X107851642Y-106274428D02*
X107794500Y-106331571D01*
X107737357Y-106445857D01*
X107737357Y-106731571D01*
X107794500Y-106845857D01*
X107851642Y-106903000D01*
X107965928Y-106960142D01*
X108080214Y-106960142D01*
X108251642Y-106903000D01*
X108937357Y-106217285D01*
X108937357Y-106960142D01*
X107737357Y-107703000D02*
X107737357Y-107817285D01*
X107794500Y-107931571D01*
X107851642Y-107988714D01*
X107965928Y-108045857D01*
X108194500Y-108103000D01*
X108480214Y-108103000D01*
X108708785Y-108045857D01*
X108823071Y-107988714D01*
X108880214Y-107931571D01*
X108937357Y-107817285D01*
X108937357Y-107703000D01*
X108880214Y-107588714D01*
X108823071Y-107531571D01*
X108708785Y-107474428D01*
X108480214Y-107417285D01*
X108194500Y-107417285D01*
X107965928Y-107474428D01*
X107851642Y-107531571D01*
X107794500Y-107588714D01*
X107737357Y-107703000D01*
X107851642Y-108560142D02*
X107794500Y-108617285D01*
X107737357Y-108731571D01*
X107737357Y-109017285D01*
X107794500Y-109131571D01*
X107851642Y-109188714D01*
X107965928Y-109245857D01*
X108080214Y-109245857D01*
X108251642Y-109188714D01*
X108937357Y-108503000D01*
X108937357Y-109245857D01*
X107851642Y-109703000D02*
X107794500Y-109760142D01*
X107737357Y-109874428D01*
X107737357Y-110160142D01*
X107794500Y-110274428D01*
X107851642Y-110331571D01*
X107965928Y-110388714D01*
X108080214Y-110388714D01*
X108251642Y-110331571D01*
X108937357Y-109645857D01*
X108937357Y-110388714D01*
X106536380Y-88950595D02*
X105536380Y-88950595D01*
X106012571Y-88950595D02*
X106012571Y-89522023D01*
X106536380Y-89522023D02*
X105536380Y-89522023D01*
X106012571Y-90331547D02*
X106060190Y-90474404D01*
X106107809Y-90522023D01*
X106203047Y-90569642D01*
X106345904Y-90569642D01*
X106441142Y-90522023D01*
X106488761Y-90474404D01*
X106536380Y-90379166D01*
X106536380Y-89998214D01*
X105536380Y-89998214D01*
X105536380Y-90331547D01*
X105584000Y-90426785D01*
X105631619Y-90474404D01*
X105726857Y-90522023D01*
X105822095Y-90522023D01*
X105917333Y-90474404D01*
X105964952Y-90426785D01*
X106012571Y-90331547D01*
X106012571Y-89998214D01*
X106155428Y-90998214D02*
X106155428Y-91760119D01*
X105536380Y-92236309D02*
X106345904Y-92236309D01*
X106441142Y-92283928D01*
X106488761Y-92331547D01*
X106536380Y-92426785D01*
X106536380Y-92617261D01*
X106488761Y-92712500D01*
X106441142Y-92760119D01*
X106345904Y-92807738D01*
X105536380Y-92807738D01*
X106536380Y-93283928D02*
X105536380Y-93283928D01*
X106536380Y-93855357D01*
X105536380Y-93855357D01*
X106536380Y-94331547D02*
X105536380Y-94331547D01*
X106155428Y-94807738D02*
X106155428Y-95569642D01*
X106488761Y-95998214D02*
X106536380Y-96141071D01*
X106536380Y-96379166D01*
X106488761Y-96474404D01*
X106441142Y-96522023D01*
X106345904Y-96569642D01*
X106250666Y-96569642D01*
X106155428Y-96522023D01*
X106107809Y-96474404D01*
X106060190Y-96379166D01*
X106012571Y-96188690D01*
X105964952Y-96093452D01*
X105917333Y-96045833D01*
X105822095Y-95998214D01*
X105726857Y-95998214D01*
X105631619Y-96045833D01*
X105584000Y-96093452D01*
X105536380Y-96188690D01*
X105536380Y-96426785D01*
X105584000Y-96569642D01*
X106012571Y-96998214D02*
X106012571Y-97331547D01*
X106536380Y-97474404D02*
X106536380Y-96998214D01*
X105536380Y-96998214D01*
X105536380Y-97474404D01*
X106536380Y-97902976D02*
X105536380Y-97902976D01*
X106536380Y-98474404D01*
X105536380Y-98474404D01*
X106488761Y-98902976D02*
X106536380Y-99045833D01*
X106536380Y-99283928D01*
X106488761Y-99379166D01*
X106441142Y-99426785D01*
X106345904Y-99474404D01*
X106250666Y-99474404D01*
X106155428Y-99426785D01*
X106107809Y-99379166D01*
X106060190Y-99283928D01*
X106012571Y-99093452D01*
X105964952Y-98998214D01*
X105917333Y-98950595D01*
X105822095Y-98902976D01*
X105726857Y-98902976D01*
X105631619Y-98950595D01*
X105584000Y-98998214D01*
X105536380Y-99093452D01*
X105536380Y-99331547D01*
X105584000Y-99474404D01*
X106155428Y-99902976D02*
X106155428Y-100664880D01*
X106012571Y-101474404D02*
X106060190Y-101617261D01*
X106107809Y-101664880D01*
X106203047Y-101712500D01*
X106345904Y-101712500D01*
X106441142Y-101664880D01*
X106488761Y-101617261D01*
X106536380Y-101522023D01*
X106536380Y-101141071D01*
X105536380Y-101141071D01*
X105536380Y-101474404D01*
X105584000Y-101569642D01*
X105631619Y-101617261D01*
X105726857Y-101664880D01*
X105822095Y-101664880D01*
X105917333Y-101617261D01*
X105964952Y-101569642D01*
X106012571Y-101474404D01*
X106012571Y-101141071D01*
X106250666Y-102093452D02*
X106250666Y-102569642D01*
X106536380Y-101998214D02*
X105536380Y-102331547D01*
X106536380Y-102664880D01*
X105536380Y-102855357D02*
X105536380Y-103426785D01*
X106536380Y-103141071D02*
X105536380Y-103141071D01*
X105536380Y-103617261D02*
X105536380Y-104188690D01*
X106536380Y-103902976D02*
X105536380Y-103902976D01*
X106631619Y-104283928D02*
X106631619Y-105045833D01*
X106250666Y-105236309D02*
X106250666Y-105712500D01*
X106536380Y-105141071D02*
X105536380Y-105474404D01*
X106536380Y-105807738D01*
X105536380Y-105998214D02*
X105536380Y-106569642D01*
X106536380Y-106283928D02*
X105536380Y-106283928D01*
X106536380Y-106902976D02*
X105536380Y-106902976D01*
X106250666Y-107236309D01*
X105536380Y-107569642D01*
X106536380Y-107569642D01*
X106488761Y-108426785D02*
X106536380Y-108331547D01*
X106536380Y-108141071D01*
X106488761Y-108045833D01*
X106393523Y-107998214D01*
X106012571Y-107998214D01*
X105917333Y-108045833D01*
X105869714Y-108141071D01*
X105869714Y-108331547D01*
X105917333Y-108426785D01*
X106012571Y-108474404D01*
X106107809Y-108474404D01*
X106203047Y-107998214D01*
X105869714Y-109331547D02*
X106679238Y-109331547D01*
X106774476Y-109283928D01*
X106822095Y-109236309D01*
X106869714Y-109141071D01*
X106869714Y-108998214D01*
X106822095Y-108902976D01*
X106488761Y-109331547D02*
X106536380Y-109236309D01*
X106536380Y-109045833D01*
X106488761Y-108950595D01*
X106441142Y-108902976D01*
X106345904Y-108855357D01*
X106060190Y-108855357D01*
X105964952Y-108902976D01*
X105917333Y-108950595D01*
X105869714Y-109045833D01*
X105869714Y-109236309D01*
X105917333Y-109331547D01*
X106536380Y-110236309D02*
X106012571Y-110236309D01*
X105917333Y-110188690D01*
X105869714Y-110093452D01*
X105869714Y-109902976D01*
X105917333Y-109807738D01*
X106488761Y-110236309D02*
X106536380Y-110141071D01*
X106536380Y-109902976D01*
X106488761Y-109807738D01*
X106393523Y-109760119D01*
X106298285Y-109760119D01*
X106203047Y-109807738D01*
X106155428Y-109902976D01*
X106155428Y-110141071D01*
X106107809Y-110236309D01*
X106536380Y-111236309D02*
X106536380Y-110664880D01*
X106536380Y-110950595D02*
X105536380Y-110950595D01*
X105679238Y-110855357D01*
X105774476Y-110760119D01*
X105822095Y-110664880D01*
X105631619Y-111617261D02*
X105584000Y-111664880D01*
X105536380Y-111760119D01*
X105536380Y-111998214D01*
X105584000Y-112093452D01*
X105631619Y-112141071D01*
X105726857Y-112188690D01*
X105822095Y-112188690D01*
X105964952Y-112141071D01*
X106536380Y-111569642D01*
X106536380Y-112188690D01*
X105964952Y-112760119D02*
X105917333Y-112664880D01*
X105869714Y-112617261D01*
X105774476Y-112569642D01*
X105726857Y-112569642D01*
X105631619Y-112617261D01*
X105584000Y-112664880D01*
X105536380Y-112760119D01*
X105536380Y-112950595D01*
X105584000Y-113045833D01*
X105631619Y-113093452D01*
X105726857Y-113141071D01*
X105774476Y-113141071D01*
X105869714Y-113093452D01*
X105917333Y-113045833D01*
X105964952Y-112950595D01*
X105964952Y-112760119D01*
X106012571Y-112664880D01*
X106060190Y-112617261D01*
X106155428Y-112569642D01*
X106345904Y-112569642D01*
X106441142Y-112617261D01*
X106488761Y-112664880D01*
X106536380Y-112760119D01*
X106536380Y-112950595D01*
X106488761Y-113045833D01*
X106441142Y-113093452D01*
X106345904Y-113141071D01*
X106155428Y-113141071D01*
X106060190Y-113093452D01*
X106012571Y-113045833D01*
X105964952Y-112950595D01*
X105869714Y-113998214D02*
X106536380Y-113998214D01*
X105488761Y-113760119D02*
X106203047Y-113522023D01*
X106203047Y-114141071D01*
X106536380Y-114522023D02*
X105536380Y-114522023D01*
X105536380Y-114902976D01*
X105584000Y-114998214D01*
X105631619Y-115045833D01*
X105726857Y-115093452D01*
X105869714Y-115093452D01*
X105964952Y-115045833D01*
X106012571Y-114998214D01*
X106060190Y-114902976D01*
X106060190Y-114522023D01*
X106631619Y-115283928D02*
X106631619Y-116045833D01*
X106012571Y-116283928D02*
X106012571Y-116617261D01*
X106536380Y-116760119D02*
X106536380Y-116283928D01*
X105536380Y-116283928D01*
X105536380Y-116760119D01*
X105536380Y-117379166D02*
X105536380Y-117474404D01*
X105584000Y-117569642D01*
X105631619Y-117617261D01*
X105726857Y-117664880D01*
X105917333Y-117712499D01*
X106155428Y-117712499D01*
X106345904Y-117664880D01*
X106441142Y-117617261D01*
X106488761Y-117569642D01*
X106536380Y-117474404D01*
X106536380Y-117379166D01*
X106488761Y-117283928D01*
X106441142Y-117236309D01*
X106345904Y-117188690D01*
X106155428Y-117141071D01*
X105917333Y-117141071D01*
X105726857Y-117188690D01*
X105631619Y-117236309D01*
X105584000Y-117283928D01*
X105536380Y-117379166D01*
X105536380Y-118045833D02*
X105536380Y-118712499D01*
X106536380Y-118283928D01*
X106155428Y-119093452D02*
X106155428Y-119855357D01*
X105964952Y-120474404D02*
X105917333Y-120379166D01*
X105869714Y-120331547D01*
X105774476Y-120283928D01*
X105726857Y-120283928D01*
X105631619Y-120331547D01*
X105584000Y-120379166D01*
X105536380Y-120474404D01*
X105536380Y-120664880D01*
X105584000Y-120760119D01*
X105631619Y-120807738D01*
X105726857Y-120855357D01*
X105774476Y-120855357D01*
X105869714Y-120807738D01*
X105917333Y-120760119D01*
X105964952Y-120664880D01*
X105964952Y-120474404D01*
X106012571Y-120379166D01*
X106060190Y-120331547D01*
X106155428Y-120283928D01*
X106345904Y-120283928D01*
X106441142Y-120331547D01*
X106488761Y-120379166D01*
X106536380Y-120474404D01*
X106536380Y-120664880D01*
X106488761Y-120760119D01*
X106441142Y-120807738D01*
X106345904Y-120855357D01*
X106155428Y-120855357D01*
X106060190Y-120807738D01*
X106012571Y-120760119D01*
X105964952Y-120664880D01*
X105536380Y-121712499D02*
X105536380Y-121522023D01*
X105584000Y-121426785D01*
X105631619Y-121379166D01*
X105774476Y-121283928D01*
X105964952Y-121236309D01*
X106345904Y-121236309D01*
X106441142Y-121283928D01*
X106488761Y-121331547D01*
X106536380Y-121426785D01*
X106536380Y-121617261D01*
X106488761Y-121712499D01*
X106441142Y-121760119D01*
X106345904Y-121807738D01*
X106107809Y-121807738D01*
X106012571Y-121760119D01*
X105964952Y-121712499D01*
X105917333Y-121617261D01*
X105917333Y-121426785D01*
X105964952Y-121331547D01*
X106012571Y-121283928D01*
X106107809Y-121236309D01*
X105964952Y-122379166D02*
X105917333Y-122283928D01*
X105869714Y-122236309D01*
X105774476Y-122188690D01*
X105726857Y-122188690D01*
X105631619Y-122236309D01*
X105584000Y-122283928D01*
X105536380Y-122379166D01*
X105536380Y-122569642D01*
X105584000Y-122664880D01*
X105631619Y-122712499D01*
X105726857Y-122760119D01*
X105774476Y-122760119D01*
X105869714Y-122712499D01*
X105917333Y-122664880D01*
X105964952Y-122569642D01*
X105964952Y-122379166D01*
X106012571Y-122283928D01*
X106060190Y-122236309D01*
X106155428Y-122188690D01*
X106345904Y-122188690D01*
X106441142Y-122236309D01*
X106488761Y-122283928D01*
X106536380Y-122379166D01*
X106536380Y-122569642D01*
X106488761Y-122664880D01*
X106441142Y-122712499D01*
X106345904Y-122760119D01*
X106155428Y-122760119D01*
X106060190Y-122712499D01*
X106012571Y-122664880D01*
X105964952Y-122569642D01*
X106536380Y-123188690D02*
X105536380Y-123188690D01*
X106250666Y-123522023D01*
X105536380Y-123855357D01*
X106536380Y-123855357D01*
X106488761Y-124283928D02*
X106536380Y-124426785D01*
X106536380Y-124664880D01*
X106488761Y-124760119D01*
X106441142Y-124807738D01*
X106345904Y-124855357D01*
X106250666Y-124855357D01*
X106155428Y-124807738D01*
X106107809Y-124760119D01*
X106060190Y-124664880D01*
X106012571Y-124474404D01*
X105964952Y-124379166D01*
X105917333Y-124331547D01*
X105822095Y-124283928D01*
X105726857Y-124283928D01*
X105631619Y-124331547D01*
X105584000Y-124379166D01*
X105536380Y-124474404D01*
X105536380Y-124712499D01*
X105584000Y-124855357D01*
X106536380Y-125807738D02*
X106536380Y-125236309D01*
X106536380Y-125522023D02*
X105536380Y-125522023D01*
X105679238Y-125426785D01*
X105774476Y-125331547D01*
X105822095Y-125236309D01*
X105536380Y-126426785D02*
X105536380Y-126522023D01*
X105584000Y-126617261D01*
X105631619Y-126664880D01*
X105726857Y-126712499D01*
X105917333Y-126760119D01*
X106155428Y-126760119D01*
X106345904Y-126712499D01*
X106441142Y-126664880D01*
X106488761Y-126617261D01*
X106536380Y-126522023D01*
X106536380Y-126426785D01*
X106488761Y-126331547D01*
X106441142Y-126283928D01*
X106345904Y-126236309D01*
X106155428Y-126188690D01*
X105917333Y-126188690D01*
X105726857Y-126236309D01*
X105631619Y-126283928D01*
X105584000Y-126331547D01*
X105536380Y-126426785D01*
X106631619Y-126950595D02*
X106631619Y-127712499D01*
X106012571Y-128283928D02*
X106012571Y-127950595D01*
X106536380Y-127950595D02*
X105536380Y-127950595D01*
X105536380Y-128426785D01*
X105536380Y-128807738D02*
X106345904Y-128807738D01*
X106441142Y-128855357D01*
X106488761Y-128902976D01*
X106536380Y-128998214D01*
X106536380Y-129188690D01*
X106488761Y-129283928D01*
X106441142Y-129331547D01*
X106345904Y-129379166D01*
X105536380Y-129379166D01*
X106012571Y-129855357D02*
X106012571Y-130188690D01*
X106536380Y-130331547D02*
X106536380Y-129855357D01*
X105536380Y-129855357D01*
X105536380Y-130331547D01*
X106536380Y-131236309D02*
X106536380Y-130760119D01*
X105536380Y-130760119D01*
X105869714Y-131998214D02*
X106536380Y-131998214D01*
X105488761Y-131760119D02*
X106203047Y-131522023D01*
X106203047Y-132141071D01*
X106012571Y-132522023D02*
X106012571Y-132855357D01*
X106536380Y-132998214D02*
X106536380Y-132522023D01*
X105536380Y-132522023D01*
X105536380Y-132998214D01*
X106536380Y-133426785D02*
X105536380Y-133426785D01*
X105536380Y-133807738D01*
X105584000Y-133902976D01*
X105631619Y-133950595D01*
X105726857Y-133998214D01*
X105869714Y-133998214D01*
X105964952Y-133950595D01*
X106012571Y-133902976D01*
X106060190Y-133807738D01*
X106060190Y-133426785D01*
D11*
X111250000Y-150225000D02*
X108450000Y-150225000D01*
X108450000Y-150225000D02*
X108450000Y-148225000D01*
X108450000Y-148225000D02*
X111250000Y-148225000D01*
X111250000Y-148225000D02*
X111250000Y-150225000D01*
D12*
X110683333Y-150477380D02*
X110683333Y-151191666D01*
X110730952Y-151334523D01*
X110826190Y-151429761D01*
X110969047Y-151477380D01*
X111064285Y-151477380D01*
X110207142Y-151477380D02*
X110207142Y-150477380D01*
X109826190Y-150477380D01*
X109730952Y-150525000D01*
X109683333Y-150572619D01*
X109635714Y-150667857D01*
X109635714Y-150810714D01*
X109683333Y-150905952D01*
X109730952Y-150953571D01*
X109826190Y-151001190D01*
X110207142Y-151001190D01*
X108683333Y-151477380D02*
X109254761Y-151477380D01*
X108969047Y-151477380D02*
X108969047Y-150477380D01*
X109064285Y-150620238D01*
X109159523Y-150715476D01*
X109254761Y-150763095D01*
%LPC*%
D13*
X112530000Y-144780000D03*
X110240000Y-144780000D03*
D14*
X107950000Y-144780000D03*
D15*
X152510800Y-133200000D03*
X152510800Y-90200000D03*
X124510800Y-133200000D03*
X124510800Y-90200000D03*
D16*
X148336000Y-105219500D03*
D17*
X145796000Y-105219500D03*
D16*
X151130000Y-143380000D03*
X151130000Y-145920000D03*
X151130000Y-148460000D03*
D17*
X151130000Y-151000000D03*
D16*
X142400000Y-92075000D03*
D17*
X142400000Y-94615000D03*
D16*
X142400000Y-85471000D03*
D17*
X142400000Y-88011000D03*
D16*
X171069000Y-81343500D03*
X168529000Y-81343500D03*
D17*
X165989000Y-81343500D03*
D18*
X143667000Y-131750000D03*
X141667000Y-131750000D03*
X139667000Y-131750000D03*
X137667000Y-131750000D03*
X135667000Y-131750000D03*
X133667000Y-131750000D03*
X131667000Y-131750000D03*
D19*
X129667000Y-131750000D03*
D20*
X112420000Y-139100000D03*
D21*
X112420000Y-87110000D03*
D22*
X118415000Y-89870000D03*
X106425000Y-136350000D03*
D20*
X164490000Y-86860000D03*
D21*
X164490000Y-138850000D03*
D22*
X158495000Y-136090000D03*
X170485000Y-89610000D03*
D16*
X141770100Y-80860900D03*
X139230100Y-80860900D03*
X136690100Y-80860900D03*
X134150100Y-80860900D03*
X131610100Y-80860900D03*
D17*
X129070100Y-80860900D03*
D23*
X123800000Y-115470000D03*
D24*
X123800000Y-117750000D03*
X140260000Y-116310000D03*
X140260000Y-117580000D03*
X140260000Y-118850000D03*
X140260000Y-120120000D03*
X140260000Y-121390000D03*
X140260000Y-122660000D03*
X140260000Y-123930000D03*
X140260000Y-125200000D03*
D25*
X162272800Y-148477200D03*
X161000000Y-147950000D03*
X159727200Y-148477200D03*
X159200000Y-149750000D03*
X159727200Y-151022800D03*
X161000000Y-151550000D03*
X162272800Y-151022800D03*
X162800000Y-149750000D03*
D26*
X161000000Y-149750000D03*
D25*
X117272800Y-148477200D03*
X116000000Y-147950000D03*
X114727200Y-148477200D03*
X114200000Y-149750000D03*
X114727200Y-151022800D03*
X116000000Y-151550000D03*
X117272800Y-151022800D03*
X117800000Y-149750000D03*
D26*
X116000000Y-149750000D03*
D25*
X162272800Y-79977200D03*
X161000000Y-79450000D03*
X159727200Y-79977200D03*
X159200000Y-81250000D03*
X159727200Y-82522800D03*
X161000000Y-83050000D03*
X162272800Y-82522800D03*
X162800000Y-81250000D03*
D26*
X161000000Y-81250000D03*
D25*
X117272800Y-79977200D03*
X116000000Y-79450000D03*
X114727200Y-79977200D03*
X114200000Y-81250000D03*
X114727200Y-82522800D03*
X116000000Y-83050000D03*
X117272800Y-82522800D03*
X117800000Y-81250000D03*
D26*
X116000000Y-81250000D03*
D27*
X109200000Y-149225000D03*
X110500000Y-149225000D03*
D16*
X140970000Y-143383000D03*
X140970000Y-145923000D03*
X140970000Y-148463000D03*
D17*
X140970000Y-151003000D03*
D16*
X135890000Y-143383000D03*
X135890000Y-145923000D03*
X135890000Y-148463000D03*
D17*
X135890000Y-151003000D03*
D16*
X125730000Y-143380000D03*
X125730000Y-145920000D03*
X125730000Y-148460000D03*
D17*
X125730000Y-151000000D03*
D16*
X170180000Y-144780000D03*
X167640000Y-144780000D03*
X165100000Y-144780000D03*
X162560000Y-144780000D03*
X160020000Y-144780000D03*
D17*
X157480000Y-144780000D03*
D16*
X148336000Y-108902500D03*
D17*
X145796000Y-108902500D03*
M02*
