G04 #@! TF.GenerationSoftware,KiCad,Pcbnew,5.1.12-84ad8e8a86~92~ubuntu18.04.1*
G04 #@! TF.CreationDate,2021-11-21T15:17:01+01:00*
G04 #@! TF.ProjectId,HM-LC-Bl1-FM_FUEL4EP_PCB,484d2d4c-432d-4426-9c31-2d464d5f4655,rev?*
G04 #@! TF.SameCoordinates,Original*
G04 #@! TF.FileFunction,Soldermask,Top*
G04 #@! TF.FilePolarity,Negative*
%FSLAX46Y46*%
G04 Gerber Fmt 4.6, Leading zero omitted, Abs format (unit mm)*
G04 Created by KiCad (PCBNEW 5.1.12-84ad8e8a86~92~ubuntu18.04.1) date 2021-11-21 15:17:01*
%MOMM*%
%LPD*%
G01*
G04 APERTURE LIST*
%ADD10C,3.000000*%
%ADD11C,1.350000*%
%ADD12R,1.800000X1.350000*%
%ADD13O,1.700000X1.700000*%
%ADD14R,1.700000X1.700000*%
%ADD15C,3.200000*%
%ADD16R,3.500000X3.500000*%
%ADD17O,1.400000X1.400000*%
%ADD18C,1.400000*%
%ADD19O,2.800000X2.800000*%
%ADD20C,2.800000*%
%ADD21O,2.200000X2.200000*%
%ADD22R,2.200000X2.200000*%
%ADD23C,1.600000*%
%ADD24R,1.600000X1.600000*%
%ADD25C,2.000000*%
%ADD26C,5.800000*%
%ADD27C,2.082800*%
%ADD28C,2.600000*%
%ADD29R,2.600000X2.600000*%
%ADD30C,5.700000*%
%ADD31C,2.200000*%
%ADD32C,2.500000*%
%ADD33R,1.000000X1.500000*%
%ADD34C,1.800000*%
%ADD35C,1.498600*%
%ADD36R,1.498600X1.498600*%
%ADD37C,3.500000*%
%ADD38O,3.251200X1.625600*%
%ADD39R,1.050000X1.500000*%
%ADD40O,1.050000X1.500000*%
%ADD41O,1.800000X1.800000*%
%ADD42R,1.800000X1.800000*%
%ADD43O,1.717500X1.800000*%
%ADD44R,1.717500X1.800000*%
%ADD45O,1.600000X1.600000*%
G04 APERTURE END LIST*
D10*
X76380000Y-55220000D03*
D11*
X76380000Y-57720000D03*
X76380000Y-52720000D03*
D12*
X57380000Y-59220000D03*
X57380000Y-57220000D03*
X57380000Y-55220000D03*
X57380000Y-53220000D03*
X57380000Y-51220000D03*
X57380000Y-49220000D03*
X57380000Y-47220000D03*
D11*
X58380000Y-59220000D03*
X58380000Y-57220000D03*
X58380000Y-55220000D03*
X58380000Y-53220000D03*
X58380000Y-51220000D03*
X58380000Y-49220000D03*
X58380000Y-47220000D03*
D12*
X57380000Y-61220000D03*
D11*
X58380000Y-61220000D03*
D13*
X76962000Y-25654000D03*
X74422000Y-25654000D03*
X71882000Y-25654000D03*
X69342000Y-25654000D03*
X66802000Y-25654000D03*
D14*
X64262000Y-25654000D03*
D15*
X92299000Y12180000D03*
X61999000Y27480000D03*
D16*
X96999000Y10980000D03*
X96999000Y28680000D03*
X57299000Y10980000D03*
X57299000Y28680000D03*
D13*
X92456000Y-31496000D03*
X92456000Y-34036000D03*
D14*
X92456000Y-36576000D03*
D17*
X43180000Y-21590000D03*
D18*
X48260000Y-21590000D03*
D17*
X82550000Y-47625000D03*
D18*
X87630000Y-47625000D03*
D17*
X45720000Y-12065000D03*
D18*
X50800000Y-12065000D03*
D17*
X123444000Y9474200D03*
D18*
X123444000Y14554200D03*
D17*
X112395000Y8890000D03*
D18*
X117475000Y8890000D03*
D17*
X72390000Y-30480000D03*
D18*
X77470000Y-30480000D03*
D17*
X140335000Y13970000D03*
D18*
X140335000Y8890000D03*
D17*
X135128000Y18034000D03*
D18*
X140208000Y18034000D03*
D17*
X87630000Y-31115000D03*
D18*
X82550000Y-31115000D03*
D17*
X92456000Y-27686000D03*
D18*
X92456000Y-22606000D03*
D17*
X67310000Y-36195000D03*
D18*
X67310000Y-31115000D03*
D17*
X55245000Y-34671000D03*
D18*
X60325000Y-34671000D03*
D17*
X50800000Y-31242000D03*
D18*
X50800000Y-26162000D03*
D17*
X63500000Y1270000D03*
D18*
X68580000Y1270000D03*
D17*
X63500000Y5080000D03*
D18*
X68580000Y5080000D03*
D17*
X48260000Y-24130000D03*
D18*
X43180000Y-24130000D03*
D17*
X60960000Y1270000D03*
D18*
X55880000Y1270000D03*
D17*
X60960000Y5080000D03*
D18*
X55880000Y5080000D03*
D17*
X53340000Y-27305000D03*
D18*
X58420000Y-27305000D03*
D17*
X56515000Y-7620000D03*
D18*
X56515000Y-2540000D03*
D17*
X58420000Y-24130000D03*
D18*
X53340000Y-24130000D03*
D17*
X48260000Y-27305000D03*
D18*
X43180000Y-27305000D03*
D19*
X117475000Y16510000D03*
D20*
X102235000Y16510000D03*
D21*
X53340000Y-16510000D03*
D22*
X45720000Y-16510000D03*
D21*
X80264000Y-43180000D03*
D22*
X87884000Y-43180000D03*
D21*
X81788000Y-24765000D03*
D22*
X89408000Y-24765000D03*
D23*
X84455000Y2635000D03*
D24*
X84455000Y635000D03*
D25*
X77390000Y-34925000D03*
X72390000Y-34925000D03*
X77470000Y5080000D03*
X72470000Y5080000D03*
X77470000Y1270000D03*
X72470000Y1270000D03*
D23*
X61595000Y-41910000D03*
D24*
X59095000Y-41910000D03*
D26*
X149860000Y-57658000D03*
D13*
X92075000Y-52705000D03*
X92075000Y-50165000D03*
X92075000Y-47625000D03*
D14*
X92075000Y-45085000D03*
D13*
X97155000Y-8890000D03*
X97155000Y-6350000D03*
D14*
X97155000Y-3810000D03*
D27*
X53213000Y-41071800D03*
X53213000Y-43611800D03*
X53213000Y-51231800D03*
X53213000Y-53771800D03*
X53213000Y-48691800D03*
X43053000Y-41071800D03*
X43053000Y-43611800D03*
X43053000Y-51231800D03*
X43053000Y-53771800D03*
X43053000Y-48691800D03*
X43053000Y-46151800D03*
X53213000Y-46151800D03*
D28*
X86995000Y-57658000D03*
D29*
X81915000Y-57658000D03*
D28*
X120650000Y25400000D03*
D29*
X125730000Y25400000D03*
D28*
X143510000Y25400000D03*
D29*
X148590000Y25400000D03*
D28*
X147320000Y16510000D03*
D29*
X147320000Y11430000D03*
D28*
X132080000Y25400000D03*
D29*
X137160000Y25400000D03*
D26*
X133350000Y13970000D03*
D28*
X104140000Y25400000D03*
X109220000Y25400000D03*
D29*
X114300000Y25400000D03*
D30*
X143075000Y-25455000D03*
X143075000Y-58455000D03*
X98175000Y-58455000D03*
X98175000Y-25455000D03*
D31*
X98425000Y-36455000D03*
X98425000Y-33915000D03*
X98425000Y-31375000D03*
X98425000Y-45085000D03*
X98425000Y-47625000D03*
X98425000Y-50165000D03*
X98425000Y-52705000D03*
D32*
X140825000Y-29455000D03*
X140825000Y-34455000D03*
X140825000Y-39455000D03*
X140825000Y-44455000D03*
X140825000Y-49455000D03*
X140825000Y-54455000D03*
D33*
X101570000Y9525000D03*
X102870000Y9525000D03*
D34*
X60960000Y-13970000D03*
X60960000Y-16510000D03*
X60960000Y-19050000D03*
X63500000Y-19050000D03*
X66040000Y-19050000D03*
X68580000Y-19050000D03*
X71120000Y-19050000D03*
X73660000Y-19050000D03*
X76200000Y-19050000D03*
X78740000Y-19050000D03*
X81280000Y-19050000D03*
X83820000Y-19050000D03*
X86360000Y-19050000D03*
X88900000Y-19050000D03*
X88900000Y-3810000D03*
X86360000Y-3810000D03*
X83820000Y-3810000D03*
X81280000Y-3810000D03*
X78740000Y-3810000D03*
X76200000Y-3810000D03*
X73660000Y-3810000D03*
X71120000Y-3810000D03*
X68580000Y-3810000D03*
X66040000Y-3810000D03*
X63500000Y-3810000D03*
X60960000Y-3810000D03*
X77470000Y-16510000D03*
X80010000Y-16510000D03*
X60960000Y-11430000D03*
X91440000Y-5080000D03*
X91440000Y-7620000D03*
X91440000Y-10160000D03*
X91440000Y-12700000D03*
X91440000Y-15240000D03*
X91440000Y-17780000D03*
D26*
X35560000Y-59690000D03*
X36830000Y26670000D03*
D28*
X35560000Y10160000D03*
D29*
X35560000Y15240000D03*
D28*
X35560000Y-1270000D03*
D29*
X35560000Y3810000D03*
D28*
X35560000Y-40640000D03*
D29*
X35560000Y-35560000D03*
D28*
X35560000Y-52070000D03*
D29*
X35560000Y-46990000D03*
D28*
X35560000Y-29210000D03*
D29*
X35560000Y-24130000D03*
D28*
X45720000Y25400000D03*
D29*
X50800000Y25400000D03*
D28*
X35560000Y-17780000D03*
X35560000Y-12700000D03*
D29*
X35560000Y-7620000D03*
D35*
X75082400Y-39928800D03*
X72542400Y-41198800D03*
D36*
X75082400Y-42468800D03*
D30*
X147850000Y3600000D03*
X147850000Y-17100000D03*
X103350000Y-17100000D03*
X103350000Y3600000D03*
D25*
X118680000Y3350000D03*
X116140000Y3350000D03*
X113600000Y3350000D03*
D37*
X105600000Y-1650000D03*
X105600000Y-6650000D03*
X105600000Y-11650000D03*
X145600000Y-1750000D03*
X145600000Y-6750000D03*
X145600000Y-11750000D03*
D38*
X127711200Y16230600D03*
X127711200Y13690600D03*
X127711200Y11150600D03*
D39*
X109220000Y10160000D03*
D40*
X106680000Y10160000D03*
X107950000Y10160000D03*
D41*
X87630000Y-35560000D03*
X85090000Y-35560000D03*
D42*
X82550000Y-35560000D03*
D43*
X47490000Y-7620000D03*
X49780000Y-7620000D03*
D44*
X52070000Y-7620000D03*
D13*
X47625000Y13335000D03*
X47625000Y10795000D03*
D14*
X47625000Y8255000D03*
D45*
X121056400Y9575800D03*
D24*
X121056400Y17195800D03*
D45*
X86360000Y6096000D03*
D24*
X93980000Y6096000D03*
M02*
