G04 #@! TF.GenerationSoftware,KiCad,Pcbnew,5.1.12-84ad8e8a86~92~ubuntu18.04.1*
G04 #@! TF.CreationDate,2021-11-21T15:17:01+01:00*
G04 #@! TF.ProjectId,HM-LC-Bl1-FM_FUEL4EP_PCB,484d2d4c-432d-4426-9c31-2d464d5f4655,rev?*
G04 #@! TF.SameCoordinates,Original*
G04 #@! TF.FileFunction,Legend,Top*
G04 #@! TF.FilePolarity,Positive*
%FSLAX46Y46*%
G04 Gerber Fmt 4.6, Leading zero omitted, Abs format (unit mm)*
G04 Created by KiCad (PCBNEW 5.1.12-84ad8e8a86~92~ubuntu18.04.1) date 2021-11-21 15:17:01*
%MOMM*%
%LPD*%
G01*
G04 APERTURE LIST*
%ADD10C,0.152400*%
%ADD11C,0.120000*%
%ADD12C,0.150000*%
%ADD13C,0.127000*%
%ADD14C,0.100000*%
%ADD15C,0.010000*%
%ADD16C,3.000000*%
%ADD17C,1.350000*%
%ADD18R,1.800000X1.350000*%
%ADD19O,1.700000X1.700000*%
%ADD20R,1.700000X1.700000*%
%ADD21C,3.200000*%
%ADD22R,3.500000X3.500000*%
%ADD23O,1.400000X1.400000*%
%ADD24C,1.400000*%
%ADD25O,2.800000X2.800000*%
%ADD26C,2.800000*%
%ADD27O,2.200000X2.200000*%
%ADD28R,2.200000X2.200000*%
%ADD29C,1.600000*%
%ADD30R,1.600000X1.600000*%
%ADD31C,2.000000*%
%ADD32C,5.800000*%
%ADD33C,2.082800*%
%ADD34C,2.600000*%
%ADD35R,2.600000X2.600000*%
%ADD36C,5.700000*%
%ADD37C,2.200000*%
%ADD38C,2.500000*%
%ADD39R,1.000000X1.500000*%
%ADD40C,1.800000*%
%ADD41C,1.498600*%
%ADD42R,1.498600X1.498600*%
%ADD43C,3.500000*%
%ADD44O,3.251200X1.625600*%
%ADD45R,1.050000X1.500000*%
%ADD46O,1.050000X1.500000*%
%ADD47O,1.800000X1.800000*%
%ADD48R,1.800000X1.800000*%
%ADD49O,1.717500X1.800000*%
%ADD50R,1.717500X1.800000*%
%ADD51O,1.600000X1.600000*%
G04 APERTURE END LIST*
D10*
X65241714Y-23507095D02*
X65241714Y-22694295D01*
X65590057Y-23468390D02*
X65706171Y-23507095D01*
X65899695Y-23507095D01*
X65977104Y-23468390D01*
X66015809Y-23429685D01*
X66054514Y-23352276D01*
X66054514Y-23274866D01*
X66015809Y-23197457D01*
X65977104Y-23158752D01*
X65899695Y-23120047D01*
X65744876Y-23081342D01*
X65667466Y-23042638D01*
X65628761Y-23003933D01*
X65590057Y-22926523D01*
X65590057Y-22849114D01*
X65628761Y-22771704D01*
X65667466Y-22733000D01*
X65744876Y-22694295D01*
X65938400Y-22694295D01*
X66054514Y-22733000D01*
X66402857Y-23507095D02*
X66402857Y-22694295D01*
X66712495Y-22694295D01*
X66789904Y-22733000D01*
X66828609Y-22771704D01*
X66867314Y-22849114D01*
X66867314Y-22965228D01*
X66828609Y-23042638D01*
X66789904Y-23081342D01*
X66712495Y-23120047D01*
X66402857Y-23120047D01*
X67834933Y-22965228D02*
X67834933Y-23778028D01*
X67834933Y-23003933D02*
X67912342Y-22965228D01*
X68067161Y-22965228D01*
X68144571Y-23003933D01*
X68183276Y-23042638D01*
X68221980Y-23120047D01*
X68221980Y-23352276D01*
X68183276Y-23429685D01*
X68144571Y-23468390D01*
X68067161Y-23507095D01*
X67912342Y-23507095D01*
X67834933Y-23468390D01*
X68570323Y-23507095D02*
X68570323Y-22965228D01*
X68570323Y-23120047D02*
X68609028Y-23042638D01*
X68647733Y-23003933D01*
X68725142Y-22965228D01*
X68802552Y-22965228D01*
X69189600Y-23507095D02*
X69112190Y-23468390D01*
X69073485Y-23429685D01*
X69034780Y-23352276D01*
X69034780Y-23120047D01*
X69073485Y-23042638D01*
X69112190Y-23003933D01*
X69189600Y-22965228D01*
X69305714Y-22965228D01*
X69383123Y-23003933D01*
X69421828Y-23042638D01*
X69460533Y-23120047D01*
X69460533Y-23352276D01*
X69421828Y-23429685D01*
X69383123Y-23468390D01*
X69305714Y-23507095D01*
X69189600Y-23507095D01*
X70157219Y-22965228D02*
X70157219Y-23623209D01*
X70118514Y-23700619D01*
X70079809Y-23739323D01*
X70002400Y-23778028D01*
X69886285Y-23778028D01*
X69808876Y-23739323D01*
X70157219Y-23468390D02*
X70079809Y-23507095D01*
X69924990Y-23507095D01*
X69847580Y-23468390D01*
X69808876Y-23429685D01*
X69770171Y-23352276D01*
X69770171Y-23120047D01*
X69808876Y-23042638D01*
X69847580Y-23003933D01*
X69924990Y-22965228D01*
X70079809Y-22965228D01*
X70157219Y-23003933D01*
X70544266Y-23507095D02*
X70544266Y-22965228D01*
X70544266Y-23120047D02*
X70582971Y-23042638D01*
X70621676Y-23003933D01*
X70699085Y-22965228D01*
X70776495Y-22965228D01*
X71395771Y-23507095D02*
X71395771Y-23081342D01*
X71357066Y-23003933D01*
X71279657Y-22965228D01*
X71124838Y-22965228D01*
X71047428Y-23003933D01*
X71395771Y-23468390D02*
X71318361Y-23507095D01*
X71124838Y-23507095D01*
X71047428Y-23468390D01*
X71008723Y-23390980D01*
X71008723Y-23313571D01*
X71047428Y-23236161D01*
X71124838Y-23197457D01*
X71318361Y-23197457D01*
X71395771Y-23158752D01*
X71782819Y-23507095D02*
X71782819Y-22965228D01*
X71782819Y-23042638D02*
X71821523Y-23003933D01*
X71898933Y-22965228D01*
X72015047Y-22965228D01*
X72092457Y-23003933D01*
X72131161Y-23081342D01*
X72131161Y-23507095D01*
X72131161Y-23081342D02*
X72169866Y-23003933D01*
X72247276Y-22965228D01*
X72363390Y-22965228D01*
X72440800Y-23003933D01*
X72479504Y-23081342D01*
X72479504Y-23507095D01*
X72866552Y-23507095D02*
X72866552Y-22965228D01*
X72866552Y-23042638D02*
X72905257Y-23003933D01*
X72982666Y-22965228D01*
X73098780Y-22965228D01*
X73176190Y-23003933D01*
X73214895Y-23081342D01*
X73214895Y-23507095D01*
X73214895Y-23081342D02*
X73253600Y-23003933D01*
X73331009Y-22965228D01*
X73447123Y-22965228D01*
X73524533Y-23003933D01*
X73563238Y-23081342D01*
X73563238Y-23507095D01*
X74259923Y-23468390D02*
X74182514Y-23507095D01*
X74027695Y-23507095D01*
X73950285Y-23468390D01*
X73911580Y-23390980D01*
X73911580Y-23081342D01*
X73950285Y-23003933D01*
X74027695Y-22965228D01*
X74182514Y-22965228D01*
X74259923Y-23003933D01*
X74298628Y-23081342D01*
X74298628Y-23158752D01*
X73911580Y-23236161D01*
X74646971Y-23507095D02*
X74646971Y-22965228D01*
X74646971Y-23120047D02*
X74685676Y-23042638D01*
X74724380Y-23003933D01*
X74801790Y-22965228D01*
X74879200Y-22965228D01*
X50249666Y8547704D02*
X50520600Y7734904D01*
X50791533Y8547704D01*
X51526923Y7812314D02*
X51488219Y7773609D01*
X51372104Y7734904D01*
X51294695Y7734904D01*
X51178580Y7773609D01*
X51101171Y7851019D01*
X51062466Y7928428D01*
X51023761Y8083247D01*
X51023761Y8199361D01*
X51062466Y8354180D01*
X51101171Y8431590D01*
X51178580Y8509000D01*
X51294695Y8547704D01*
X51372104Y8547704D01*
X51488219Y8509000D01*
X51526923Y8470295D01*
X52339723Y7812314D02*
X52301019Y7773609D01*
X52184904Y7734904D01*
X52107495Y7734904D01*
X51991380Y7773609D01*
X51913971Y7851019D01*
X51875266Y7928428D01*
X51836561Y8083247D01*
X51836561Y8199361D01*
X51875266Y8354180D01*
X51913971Y8431590D01*
X51991380Y8509000D01*
X52107495Y8547704D01*
X52184904Y8547704D01*
X52301019Y8509000D01*
X52339723Y8470295D01*
X49908580Y10686142D02*
X50527857Y10686142D01*
X50218219Y10376504D02*
X50218219Y10995780D01*
X51185838Y10802257D02*
X51301952Y10763552D01*
X51340657Y10724847D01*
X51379361Y10647438D01*
X51379361Y10531323D01*
X51340657Y10453914D01*
X51301952Y10415209D01*
X51224542Y10376504D01*
X50914904Y10376504D01*
X50914904Y11189304D01*
X51185838Y11189304D01*
X51263247Y11150600D01*
X51301952Y11111895D01*
X51340657Y11034485D01*
X51340657Y10957076D01*
X51301952Y10879666D01*
X51263247Y10840961D01*
X51185838Y10802257D01*
X50914904Y10802257D01*
X51689000Y10608733D02*
X52076047Y10608733D01*
X51611590Y10376504D02*
X51882523Y11189304D01*
X52153457Y10376504D01*
X52308276Y11189304D02*
X52772733Y11189304D01*
X52540504Y10376504D02*
X52540504Y11189304D01*
X49908580Y13276942D02*
X50527857Y13276942D01*
X51185838Y13393057D02*
X51301952Y13354352D01*
X51340657Y13315647D01*
X51379361Y13238238D01*
X51379361Y13122123D01*
X51340657Y13044714D01*
X51301952Y13006009D01*
X51224542Y12967304D01*
X50914904Y12967304D01*
X50914904Y13780104D01*
X51185838Y13780104D01*
X51263247Y13741400D01*
X51301952Y13702695D01*
X51340657Y13625285D01*
X51340657Y13547876D01*
X51301952Y13470466D01*
X51263247Y13431761D01*
X51185838Y13393057D01*
X50914904Y13393057D01*
X51689000Y13199533D02*
X52076047Y13199533D01*
X51611590Y12967304D02*
X51882523Y13780104D01*
X52153457Y12967304D01*
X52308276Y13780104D02*
X52772733Y13780104D01*
X52540504Y12967304D02*
X52540504Y13780104D01*
X110419847Y-54928104D02*
X110458552Y-54889400D01*
X110535961Y-54850695D01*
X110729485Y-54850695D01*
X110806895Y-54889400D01*
X110845600Y-54928104D01*
X110884304Y-55005514D01*
X110884304Y-55082923D01*
X110845600Y-55199038D01*
X110381142Y-55663495D01*
X110884304Y-55663495D01*
X111580990Y-55121628D02*
X111580990Y-55663495D01*
X111387466Y-54811990D02*
X111193942Y-55392561D01*
X111697104Y-55392561D01*
X111890628Y-54850695D02*
X112161561Y-55663495D01*
X112432495Y-54850695D01*
X113322704Y-55663495D02*
X113322704Y-55121628D01*
X113322704Y-55276447D02*
X113361409Y-55199038D01*
X113400114Y-55160333D01*
X113477523Y-55121628D01*
X113554933Y-55121628D01*
X113941980Y-55663495D02*
X113864571Y-55624790D01*
X113825866Y-55586085D01*
X113787161Y-55508676D01*
X113787161Y-55276447D01*
X113825866Y-55199038D01*
X113864571Y-55160333D01*
X113941980Y-55121628D01*
X114058095Y-55121628D01*
X114135504Y-55160333D01*
X114174209Y-55199038D01*
X114212914Y-55276447D01*
X114212914Y-55508676D01*
X114174209Y-55586085D01*
X114135504Y-55624790D01*
X114058095Y-55663495D01*
X113941980Y-55663495D01*
X114677371Y-55663495D02*
X114599961Y-55624790D01*
X114561257Y-55547380D01*
X114561257Y-54850695D01*
X115103123Y-55663495D02*
X115025714Y-55624790D01*
X114987009Y-55547380D01*
X114987009Y-54850695D01*
X115412761Y-55663495D02*
X115412761Y-55121628D01*
X115412761Y-54850695D02*
X115374057Y-54889400D01*
X115412761Y-54928104D01*
X115451466Y-54889400D01*
X115412761Y-54850695D01*
X115412761Y-54928104D01*
X115799809Y-55121628D02*
X115799809Y-55663495D01*
X115799809Y-55199038D02*
X115838514Y-55160333D01*
X115915923Y-55121628D01*
X116032038Y-55121628D01*
X116109447Y-55160333D01*
X116148152Y-55237742D01*
X116148152Y-55663495D01*
X116883542Y-55121628D02*
X116883542Y-55779609D01*
X116844838Y-55857019D01*
X116806133Y-55895723D01*
X116728723Y-55934428D01*
X116612609Y-55934428D01*
X116535200Y-55895723D01*
X116883542Y-55624790D02*
X116806133Y-55663495D01*
X116651314Y-55663495D01*
X116573904Y-55624790D01*
X116535200Y-55586085D01*
X116496495Y-55508676D01*
X116496495Y-55276447D01*
X116535200Y-55199038D01*
X116573904Y-55160333D01*
X116651314Y-55121628D01*
X116806133Y-55121628D01*
X116883542Y-55160333D01*
X117851161Y-55624790D02*
X117928571Y-55663495D01*
X118083390Y-55663495D01*
X118160800Y-55624790D01*
X118199504Y-55547380D01*
X118199504Y-55508676D01*
X118160800Y-55431266D01*
X118083390Y-55392561D01*
X117967276Y-55392561D01*
X117889866Y-55353857D01*
X117851161Y-55276447D01*
X117851161Y-55237742D01*
X117889866Y-55160333D01*
X117967276Y-55121628D01*
X118083390Y-55121628D01*
X118160800Y-55160333D01*
X118547847Y-55663495D02*
X118547847Y-54850695D01*
X118896190Y-55663495D02*
X118896190Y-55237742D01*
X118857485Y-55160333D01*
X118780076Y-55121628D01*
X118663961Y-55121628D01*
X118586552Y-55160333D01*
X118547847Y-55199038D01*
X119631580Y-55121628D02*
X119631580Y-55663495D01*
X119283238Y-55121628D02*
X119283238Y-55547380D01*
X119321942Y-55624790D01*
X119399352Y-55663495D01*
X119515466Y-55663495D01*
X119592876Y-55624790D01*
X119631580Y-55586085D01*
X119902514Y-55121628D02*
X120212152Y-55121628D01*
X120018628Y-54850695D02*
X120018628Y-55547380D01*
X120057333Y-55624790D01*
X120134742Y-55663495D01*
X120212152Y-55663495D01*
X120366971Y-55121628D02*
X120676609Y-55121628D01*
X120483085Y-54850695D02*
X120483085Y-55547380D01*
X120521790Y-55624790D01*
X120599200Y-55663495D01*
X120676609Y-55663495D01*
X121257180Y-55624790D02*
X121179771Y-55663495D01*
X121024952Y-55663495D01*
X120947542Y-55624790D01*
X120908838Y-55547380D01*
X120908838Y-55237742D01*
X120947542Y-55160333D01*
X121024952Y-55121628D01*
X121179771Y-55121628D01*
X121257180Y-55160333D01*
X121295885Y-55237742D01*
X121295885Y-55315152D01*
X120908838Y-55392561D01*
X121644228Y-55663495D02*
X121644228Y-55121628D01*
X121644228Y-55276447D02*
X121682933Y-55199038D01*
X121721638Y-55160333D01*
X121799047Y-55121628D01*
X121876457Y-55121628D01*
X123115009Y-55624790D02*
X123037600Y-55663495D01*
X122882780Y-55663495D01*
X122805371Y-55624790D01*
X122766666Y-55586085D01*
X122727961Y-55508676D01*
X122727961Y-55276447D01*
X122766666Y-55199038D01*
X122805371Y-55160333D01*
X122882780Y-55121628D01*
X123037600Y-55121628D01*
X123115009Y-55160333D01*
X123579466Y-55663495D02*
X123502057Y-55624790D01*
X123463352Y-55586085D01*
X123424647Y-55508676D01*
X123424647Y-55276447D01*
X123463352Y-55199038D01*
X123502057Y-55160333D01*
X123579466Y-55121628D01*
X123695580Y-55121628D01*
X123772990Y-55160333D01*
X123811695Y-55199038D01*
X123850400Y-55276447D01*
X123850400Y-55508676D01*
X123811695Y-55586085D01*
X123772990Y-55624790D01*
X123695580Y-55663495D01*
X123579466Y-55663495D01*
X124198742Y-55121628D02*
X124198742Y-55663495D01*
X124198742Y-55199038D02*
X124237447Y-55160333D01*
X124314857Y-55121628D01*
X124430971Y-55121628D01*
X124508380Y-55160333D01*
X124547085Y-55237742D01*
X124547085Y-55663495D01*
X124818019Y-55121628D02*
X125127657Y-55121628D01*
X124934133Y-54850695D02*
X124934133Y-55547380D01*
X124972838Y-55624790D01*
X125050247Y-55663495D01*
X125127657Y-55663495D01*
X125398590Y-55663495D02*
X125398590Y-55121628D01*
X125398590Y-55276447D02*
X125437295Y-55199038D01*
X125476000Y-55160333D01*
X125553409Y-55121628D01*
X125630819Y-55121628D01*
X126017866Y-55663495D02*
X125940457Y-55624790D01*
X125901752Y-55586085D01*
X125863047Y-55508676D01*
X125863047Y-55276447D01*
X125901752Y-55199038D01*
X125940457Y-55160333D01*
X126017866Y-55121628D01*
X126133980Y-55121628D01*
X126211390Y-55160333D01*
X126250095Y-55199038D01*
X126288800Y-55276447D01*
X126288800Y-55508676D01*
X126250095Y-55586085D01*
X126211390Y-55624790D01*
X126133980Y-55663495D01*
X126017866Y-55663495D01*
X126753257Y-55663495D02*
X126675847Y-55624790D01*
X126637142Y-55547380D01*
X126637142Y-54850695D01*
X127566057Y-54850695D02*
X127836990Y-55663495D01*
X128107923Y-54850695D01*
X128804609Y-55663495D02*
X128340152Y-55663495D01*
X128572380Y-55663495D02*
X128572380Y-54850695D01*
X128494971Y-54966809D01*
X128417561Y-55044219D01*
X128340152Y-55082923D01*
X129152952Y-55586085D02*
X129191657Y-55624790D01*
X129152952Y-55663495D01*
X129114247Y-55624790D01*
X129152952Y-55586085D01*
X129152952Y-55663495D01*
X129694819Y-54850695D02*
X129772228Y-54850695D01*
X129849638Y-54889400D01*
X129888342Y-54928104D01*
X129927047Y-55005514D01*
X129965752Y-55160333D01*
X129965752Y-55353857D01*
X129927047Y-55508676D01*
X129888342Y-55586085D01*
X129849638Y-55624790D01*
X129772228Y-55663495D01*
X129694819Y-55663495D01*
X129617409Y-55624790D01*
X129578704Y-55586085D01*
X129540000Y-55508676D01*
X129501295Y-55353857D01*
X129501295Y-55160333D01*
X129540000Y-55005514D01*
X129578704Y-54928104D01*
X129617409Y-54889400D01*
X129694819Y-54850695D01*
X113758133Y-54169733D02*
X113719428Y-54131028D01*
X113642019Y-54014914D01*
X113603314Y-53937504D01*
X113564609Y-53821390D01*
X113525904Y-53627866D01*
X113525904Y-53473047D01*
X113564609Y-53279523D01*
X113603314Y-53163409D01*
X113642019Y-53086000D01*
X113719428Y-52969885D01*
X113758133Y-52931180D01*
X114532228Y-53782685D02*
X114493523Y-53821390D01*
X114377409Y-53860095D01*
X114300000Y-53860095D01*
X114183885Y-53821390D01*
X114106476Y-53743980D01*
X114067771Y-53666571D01*
X114029066Y-53511752D01*
X114029066Y-53395638D01*
X114067771Y-53240819D01*
X114106476Y-53163409D01*
X114183885Y-53086000D01*
X114300000Y-53047295D01*
X114377409Y-53047295D01*
X114493523Y-53086000D01*
X114532228Y-53124704D01*
X114803161Y-54169733D02*
X114841866Y-54131028D01*
X114919276Y-54014914D01*
X114957980Y-53937504D01*
X114996685Y-53821390D01*
X115035390Y-53627866D01*
X115035390Y-53473047D01*
X114996685Y-53279523D01*
X114957980Y-53163409D01*
X114919276Y-53086000D01*
X114841866Y-52969885D01*
X114803161Y-52931180D01*
X116312647Y-53434342D02*
X116041714Y-53434342D01*
X116041714Y-53860095D02*
X116041714Y-53047295D01*
X116428761Y-53047295D01*
X116738400Y-53047295D02*
X116738400Y-53705276D01*
X116777104Y-53782685D01*
X116815809Y-53821390D01*
X116893219Y-53860095D01*
X117048038Y-53860095D01*
X117125447Y-53821390D01*
X117164152Y-53782685D01*
X117202857Y-53705276D01*
X117202857Y-53047295D01*
X117589904Y-53434342D02*
X117860838Y-53434342D01*
X117976952Y-53860095D02*
X117589904Y-53860095D01*
X117589904Y-53047295D01*
X117976952Y-53047295D01*
X118712342Y-53860095D02*
X118325295Y-53860095D01*
X118325295Y-53047295D01*
X119331619Y-53318228D02*
X119331619Y-53860095D01*
X119138095Y-53008590D02*
X118944571Y-53589161D01*
X119447733Y-53589161D01*
X119757371Y-53434342D02*
X120028304Y-53434342D01*
X120144419Y-53860095D02*
X119757371Y-53860095D01*
X119757371Y-53047295D01*
X120144419Y-53047295D01*
X120492761Y-53860095D02*
X120492761Y-53047295D01*
X120802400Y-53047295D01*
X120879809Y-53086000D01*
X120918514Y-53124704D01*
X120957219Y-53202114D01*
X120957219Y-53318228D01*
X120918514Y-53395638D01*
X120879809Y-53434342D01*
X120802400Y-53473047D01*
X120492761Y-53473047D01*
X122969866Y-53860095D02*
X122505409Y-53860095D01*
X122737638Y-53860095D02*
X122737638Y-53047295D01*
X122660228Y-53163409D01*
X122582819Y-53240819D01*
X122505409Y-53279523D01*
X123743961Y-53860095D02*
X123279504Y-53860095D01*
X123511733Y-53860095D02*
X123511733Y-53047295D01*
X123434323Y-53163409D01*
X123356914Y-53240819D01*
X123279504Y-53279523D01*
X124672876Y-53008590D02*
X123976190Y-54053619D01*
X124905104Y-53124704D02*
X124943809Y-53086000D01*
X125021219Y-53047295D01*
X125214742Y-53047295D01*
X125292152Y-53086000D01*
X125330857Y-53124704D01*
X125369561Y-53202114D01*
X125369561Y-53279523D01*
X125330857Y-53395638D01*
X124866400Y-53860095D01*
X125369561Y-53860095D01*
X125872723Y-53047295D02*
X125950133Y-53047295D01*
X126027542Y-53086000D01*
X126066247Y-53124704D01*
X126104952Y-53202114D01*
X126143657Y-53356933D01*
X126143657Y-53550457D01*
X126104952Y-53705276D01*
X126066247Y-53782685D01*
X126027542Y-53821390D01*
X125950133Y-53860095D01*
X125872723Y-53860095D01*
X125795314Y-53821390D01*
X125756609Y-53782685D01*
X125717904Y-53705276D01*
X125679200Y-53550457D01*
X125679200Y-53356933D01*
X125717904Y-53202114D01*
X125756609Y-53124704D01*
X125795314Y-53086000D01*
X125872723Y-53047295D01*
X126453295Y-53124704D02*
X126492000Y-53086000D01*
X126569409Y-53047295D01*
X126762933Y-53047295D01*
X126840342Y-53086000D01*
X126879047Y-53124704D01*
X126917752Y-53202114D01*
X126917752Y-53279523D01*
X126879047Y-53395638D01*
X126414590Y-53860095D01*
X126917752Y-53860095D01*
X127691847Y-53860095D02*
X127227390Y-53860095D01*
X127459619Y-53860095D02*
X127459619Y-53047295D01*
X127382209Y-53163409D01*
X127304800Y-53240819D01*
X127227390Y-53279523D01*
X79475390Y-7145866D02*
X79862438Y-7145866D01*
X79397980Y-7378095D02*
X79668914Y-6565295D01*
X79939847Y-7378095D01*
X80210780Y-7378095D02*
X80210780Y-6836228D01*
X80210780Y-6991047D02*
X80249485Y-6913638D01*
X80288190Y-6874933D01*
X80365600Y-6836228D01*
X80443009Y-6836228D01*
X81062285Y-7378095D02*
X81062285Y-6565295D01*
X81062285Y-7339390D02*
X80984876Y-7378095D01*
X80830057Y-7378095D01*
X80752647Y-7339390D01*
X80713942Y-7300685D01*
X80675238Y-7223276D01*
X80675238Y-6991047D01*
X80713942Y-6913638D01*
X80752647Y-6874933D01*
X80830057Y-6836228D01*
X80984876Y-6836228D01*
X81062285Y-6874933D01*
X81797676Y-6836228D02*
X81797676Y-7378095D01*
X81449333Y-6836228D02*
X81449333Y-7261980D01*
X81488038Y-7339390D01*
X81565447Y-7378095D01*
X81681561Y-7378095D01*
X81758971Y-7339390D01*
X81797676Y-7300685D01*
X82184723Y-7378095D02*
X82184723Y-6836228D01*
X82184723Y-6565295D02*
X82146019Y-6604000D01*
X82184723Y-6642704D01*
X82223428Y-6604000D01*
X82184723Y-6565295D01*
X82184723Y-6642704D01*
X82571771Y-6836228D02*
X82571771Y-7378095D01*
X82571771Y-6913638D02*
X82610476Y-6874933D01*
X82687885Y-6836228D01*
X82804000Y-6836228D01*
X82881409Y-6874933D01*
X82920114Y-6952342D01*
X82920114Y-7378095D01*
X83423276Y-7378095D02*
X83345866Y-7339390D01*
X83307161Y-7300685D01*
X83268457Y-7223276D01*
X83268457Y-6991047D01*
X83307161Y-6913638D01*
X83345866Y-6874933D01*
X83423276Y-6836228D01*
X83539390Y-6836228D01*
X83616800Y-6874933D01*
X83655504Y-6913638D01*
X83694209Y-6991047D01*
X83694209Y-7223276D01*
X83655504Y-7300685D01*
X83616800Y-7339390D01*
X83539390Y-7378095D01*
X83423276Y-7378095D01*
X79223809Y-8749695D02*
X79223809Y-7936895D01*
X79533447Y-7936895D01*
X79610857Y-7975600D01*
X79649561Y-8014304D01*
X79688266Y-8091714D01*
X79688266Y-8207828D01*
X79649561Y-8285238D01*
X79610857Y-8323942D01*
X79533447Y-8362647D01*
X79223809Y-8362647D01*
X80036609Y-8749695D02*
X80036609Y-8207828D01*
X80036609Y-8362647D02*
X80075314Y-8285238D01*
X80114019Y-8246533D01*
X80191428Y-8207828D01*
X80268838Y-8207828D01*
X80655885Y-8749695D02*
X80578476Y-8710990D01*
X80539771Y-8672285D01*
X80501066Y-8594876D01*
X80501066Y-8362647D01*
X80539771Y-8285238D01*
X80578476Y-8246533D01*
X80655885Y-8207828D01*
X80772000Y-8207828D01*
X80849409Y-8246533D01*
X80888114Y-8285238D01*
X80926819Y-8362647D01*
X80926819Y-8594876D01*
X80888114Y-8672285D01*
X80849409Y-8710990D01*
X80772000Y-8749695D01*
X80655885Y-8749695D01*
X81894438Y-8749695D02*
X81894438Y-7936895D01*
X82165371Y-8517466D01*
X82436304Y-7936895D01*
X82436304Y-8749695D01*
X82823352Y-8749695D02*
X82823352Y-8207828D01*
X82823352Y-7936895D02*
X82784647Y-7975600D01*
X82823352Y-8014304D01*
X82862057Y-7975600D01*
X82823352Y-7936895D01*
X82823352Y-8014304D01*
X83210400Y-8207828D02*
X83210400Y-8749695D01*
X83210400Y-8285238D02*
X83249104Y-8246533D01*
X83326514Y-8207828D01*
X83442628Y-8207828D01*
X83520038Y-8246533D01*
X83558742Y-8323942D01*
X83558742Y-8749695D01*
X83945790Y-8749695D02*
X83945790Y-8207828D01*
X83945790Y-7936895D02*
X83907085Y-7975600D01*
X83945790Y-8014304D01*
X83984495Y-7975600D01*
X83945790Y-7936895D01*
X83945790Y-8014304D01*
D11*
X77961139Y-55220000D02*
G75*
G03*
X77961139Y-55220000I-1581139J0D01*
G01*
D12*
X78080000Y-45720000D02*
X78080000Y-62720000D01*
X78080000Y-62720000D02*
X57380000Y-62720000D01*
X57380000Y-45720000D02*
X78080000Y-45720000D01*
X76880000Y-52720000D02*
G75*
G03*
X76880000Y-52720000I-500000J0D01*
G01*
X76880000Y-57720000D02*
G75*
G03*
X76880000Y-57720000I-500000J0D01*
G01*
X57380000Y-45720000D02*
X57380000Y-46220000D01*
X57380000Y-62720000D02*
X57380000Y-62220000D01*
D11*
X78292000Y-26984000D02*
X78292000Y-24324000D01*
X65532000Y-26984000D02*
X78292000Y-26984000D01*
X65532000Y-24324000D02*
X78292000Y-24324000D01*
X65532000Y-26984000D02*
X65532000Y-24324000D01*
X64262000Y-26984000D02*
X62932000Y-26984000D01*
X62932000Y-26984000D02*
X62932000Y-25654000D01*
X55499000Y9180000D02*
X98799000Y9180000D01*
X98799000Y30480000D02*
X98799000Y9180000D01*
X55499000Y30480000D02*
X55499000Y9180000D01*
X55499000Y30480000D02*
X98799000Y30480000D01*
X93786000Y-30166000D02*
X91126000Y-30166000D01*
X93786000Y-35306000D02*
X93786000Y-30166000D01*
X91126000Y-35306000D02*
X91126000Y-30166000D01*
X93786000Y-35306000D02*
X91126000Y-35306000D01*
X93786000Y-36576000D02*
X93786000Y-37906000D01*
X93786000Y-37906000D02*
X92456000Y-37906000D01*
X47640000Y-22510000D02*
X43800000Y-22510000D01*
X47640000Y-20670000D02*
X43800000Y-20670000D01*
X87010000Y-48545000D02*
X83170000Y-48545000D01*
X87010000Y-46705000D02*
X83170000Y-46705000D01*
X50180000Y-12985000D02*
X46340000Y-12985000D01*
X50180000Y-11145000D02*
X46340000Y-11145000D01*
X124364000Y13934200D02*
X124364000Y10094200D01*
X122524000Y13934200D02*
X122524000Y10094200D01*
X116855000Y7970000D02*
X113015000Y7970000D01*
X116855000Y9810000D02*
X113015000Y9810000D01*
X76850000Y-31400000D02*
X73010000Y-31400000D01*
X76850000Y-29560000D02*
X73010000Y-29560000D01*
X139415000Y9510000D02*
X139415000Y13350000D01*
X141255000Y9510000D02*
X141255000Y13350000D01*
X139588000Y17114000D02*
X135748000Y17114000D01*
X139588000Y18954000D02*
X135748000Y18954000D01*
X83170000Y-30195000D02*
X87010000Y-30195000D01*
X83170000Y-32035000D02*
X87010000Y-32035000D01*
X93376000Y-23226000D02*
X93376000Y-27066000D01*
X91536000Y-23226000D02*
X91536000Y-27066000D01*
X68230000Y-31735000D02*
X68230000Y-35575000D01*
X66390000Y-31735000D02*
X66390000Y-35575000D01*
X59705000Y-35591000D02*
X55865000Y-35591000D01*
X59705000Y-33751000D02*
X55865000Y-33751000D01*
X51720000Y-26782000D02*
X51720000Y-30622000D01*
X49880000Y-26782000D02*
X49880000Y-30622000D01*
X67960000Y350000D02*
X64120000Y350000D01*
X67960000Y2190000D02*
X64120000Y2190000D01*
X67960000Y4160000D02*
X64120000Y4160000D01*
X67960000Y6000000D02*
X64120000Y6000000D01*
X43800000Y-23210000D02*
X47640000Y-23210000D01*
X43800000Y-25050000D02*
X47640000Y-25050000D01*
X56500000Y2190000D02*
X60340000Y2190000D01*
X56500000Y350000D02*
X60340000Y350000D01*
X56500000Y6000000D02*
X60340000Y6000000D01*
X56500000Y4160000D02*
X60340000Y4160000D01*
X57800000Y-28225000D02*
X53960000Y-28225000D01*
X57800000Y-26385000D02*
X53960000Y-26385000D01*
X57435000Y-3160000D02*
X57435000Y-7000000D01*
X55595000Y-3160000D02*
X55595000Y-7000000D01*
X53960000Y-23210000D02*
X57800000Y-23210000D01*
X53960000Y-25050000D02*
X57800000Y-25050000D01*
X43800000Y-26385000D02*
X47640000Y-26385000D01*
X43800000Y-28225000D02*
X47640000Y-28225000D01*
X102585000Y18150000D02*
X102585000Y19480000D01*
X102585000Y19480000D02*
X117125000Y19480000D01*
X117125000Y19480000D02*
X117125000Y18150000D01*
X102585000Y14870000D02*
X102585000Y13540000D01*
X102585000Y13540000D02*
X117125000Y13540000D01*
X117125000Y13540000D02*
X117125000Y14870000D01*
X46810000Y-15170000D02*
X46810000Y-15040000D01*
X46810000Y-15040000D02*
X52250000Y-15040000D01*
X52250000Y-15040000D02*
X52250000Y-15170000D01*
X46810000Y-17850000D02*
X46810000Y-17980000D01*
X46810000Y-17980000D02*
X52250000Y-17980000D01*
X52250000Y-17980000D02*
X52250000Y-17850000D01*
X47710000Y-15040000D02*
X47710000Y-17980000D01*
X47830000Y-15040000D02*
X47830000Y-17980000D01*
X47590000Y-15040000D02*
X47590000Y-17980000D01*
X86794000Y-44520000D02*
X86794000Y-44650000D01*
X86794000Y-44650000D02*
X81354000Y-44650000D01*
X81354000Y-44650000D02*
X81354000Y-44520000D01*
X86794000Y-41840000D02*
X86794000Y-41710000D01*
X86794000Y-41710000D02*
X81354000Y-41710000D01*
X81354000Y-41710000D02*
X81354000Y-41840000D01*
X85894000Y-44650000D02*
X85894000Y-41710000D01*
X85774000Y-44650000D02*
X85774000Y-41710000D01*
X86014000Y-44650000D02*
X86014000Y-41710000D01*
X88318000Y-26105000D02*
X88318000Y-26235000D01*
X88318000Y-26235000D02*
X82878000Y-26235000D01*
X82878000Y-26235000D02*
X82878000Y-26105000D01*
X88318000Y-23425000D02*
X88318000Y-23295000D01*
X88318000Y-23295000D02*
X82878000Y-23295000D01*
X82878000Y-23295000D02*
X82878000Y-23425000D01*
X87418000Y-26235000D02*
X87418000Y-23295000D01*
X87298000Y-26235000D02*
X87298000Y-23295000D01*
X87538000Y-26235000D02*
X87538000Y-23295000D01*
X87075000Y1635000D02*
G75*
G03*
X87075000Y1635000I-2620000J0D01*
G01*
X85495000Y1635000D02*
X87035000Y1635000D01*
X81875000Y1635000D02*
X83415000Y1635000D01*
X85495000Y1675000D02*
X87035000Y1675000D01*
X81875000Y1675000D02*
X83415000Y1675000D01*
X81876000Y1715000D02*
X83415000Y1715000D01*
X85495000Y1715000D02*
X87034000Y1715000D01*
X81877000Y1755000D02*
X83415000Y1755000D01*
X85495000Y1755000D02*
X87033000Y1755000D01*
X81879000Y1795000D02*
X83415000Y1795000D01*
X85495000Y1795000D02*
X87031000Y1795000D01*
X81882000Y1835000D02*
X83415000Y1835000D01*
X85495000Y1835000D02*
X87028000Y1835000D01*
X81886000Y1875000D02*
X83415000Y1875000D01*
X85495000Y1875000D02*
X87024000Y1875000D01*
X81890000Y1915000D02*
X83415000Y1915000D01*
X85495000Y1915000D02*
X87020000Y1915000D01*
X81894000Y1955000D02*
X83415000Y1955000D01*
X85495000Y1955000D02*
X87016000Y1955000D01*
X81899000Y1995000D02*
X83415000Y1995000D01*
X85495000Y1995000D02*
X87011000Y1995000D01*
X81905000Y2035000D02*
X83415000Y2035000D01*
X85495000Y2035000D02*
X87005000Y2035000D01*
X81912000Y2075000D02*
X83415000Y2075000D01*
X85495000Y2075000D02*
X86998000Y2075000D01*
X81919000Y2115000D02*
X83415000Y2115000D01*
X85495000Y2115000D02*
X86991000Y2115000D01*
X81927000Y2155000D02*
X83415000Y2155000D01*
X85495000Y2155000D02*
X86983000Y2155000D01*
X81935000Y2195000D02*
X83415000Y2195000D01*
X85495000Y2195000D02*
X86975000Y2195000D01*
X81944000Y2235000D02*
X83415000Y2235000D01*
X85495000Y2235000D02*
X86966000Y2235000D01*
X81954000Y2275000D02*
X83415000Y2275000D01*
X85495000Y2275000D02*
X86956000Y2275000D01*
X81964000Y2315000D02*
X83415000Y2315000D01*
X85495000Y2315000D02*
X86946000Y2315000D01*
X81975000Y2356000D02*
X83415000Y2356000D01*
X85495000Y2356000D02*
X86935000Y2356000D01*
X81987000Y2396000D02*
X83415000Y2396000D01*
X85495000Y2396000D02*
X86923000Y2396000D01*
X82000000Y2436000D02*
X83415000Y2436000D01*
X85495000Y2436000D02*
X86910000Y2436000D01*
X82013000Y2476000D02*
X83415000Y2476000D01*
X85495000Y2476000D02*
X86897000Y2476000D01*
X82027000Y2516000D02*
X83415000Y2516000D01*
X85495000Y2516000D02*
X86883000Y2516000D01*
X82041000Y2556000D02*
X83415000Y2556000D01*
X85495000Y2556000D02*
X86869000Y2556000D01*
X82057000Y2596000D02*
X83415000Y2596000D01*
X85495000Y2596000D02*
X86853000Y2596000D01*
X82073000Y2636000D02*
X83415000Y2636000D01*
X85495000Y2636000D02*
X86837000Y2636000D01*
X82090000Y2676000D02*
X83415000Y2676000D01*
X85495000Y2676000D02*
X86820000Y2676000D01*
X82107000Y2716000D02*
X83415000Y2716000D01*
X85495000Y2716000D02*
X86803000Y2716000D01*
X82126000Y2756000D02*
X83415000Y2756000D01*
X85495000Y2756000D02*
X86784000Y2756000D01*
X82145000Y2796000D02*
X83415000Y2796000D01*
X85495000Y2796000D02*
X86765000Y2796000D01*
X82165000Y2836000D02*
X83415000Y2836000D01*
X85495000Y2836000D02*
X86745000Y2836000D01*
X82187000Y2876000D02*
X83415000Y2876000D01*
X85495000Y2876000D02*
X86723000Y2876000D01*
X82208000Y2916000D02*
X83415000Y2916000D01*
X85495000Y2916000D02*
X86702000Y2916000D01*
X82231000Y2956000D02*
X83415000Y2956000D01*
X85495000Y2956000D02*
X86679000Y2956000D01*
X82255000Y2996000D02*
X83415000Y2996000D01*
X85495000Y2996000D02*
X86655000Y2996000D01*
X82280000Y3036000D02*
X83415000Y3036000D01*
X85495000Y3036000D02*
X86630000Y3036000D01*
X82306000Y3076000D02*
X83415000Y3076000D01*
X85495000Y3076000D02*
X86604000Y3076000D01*
X82333000Y3116000D02*
X83415000Y3116000D01*
X85495000Y3116000D02*
X86577000Y3116000D01*
X82360000Y3156000D02*
X83415000Y3156000D01*
X85495000Y3156000D02*
X86550000Y3156000D01*
X82390000Y3196000D02*
X83415000Y3196000D01*
X85495000Y3196000D02*
X86520000Y3196000D01*
X82420000Y3236000D02*
X83415000Y3236000D01*
X85495000Y3236000D02*
X86490000Y3236000D01*
X82451000Y3276000D02*
X83415000Y3276000D01*
X85495000Y3276000D02*
X86459000Y3276000D01*
X82484000Y3316000D02*
X83415000Y3316000D01*
X85495000Y3316000D02*
X86426000Y3316000D01*
X82518000Y3356000D02*
X83415000Y3356000D01*
X85495000Y3356000D02*
X86392000Y3356000D01*
X82554000Y3396000D02*
X83415000Y3396000D01*
X85495000Y3396000D02*
X86356000Y3396000D01*
X82591000Y3436000D02*
X83415000Y3436000D01*
X85495000Y3436000D02*
X86319000Y3436000D01*
X82629000Y3476000D02*
X83415000Y3476000D01*
X85495000Y3476000D02*
X86281000Y3476000D01*
X82670000Y3516000D02*
X83415000Y3516000D01*
X85495000Y3516000D02*
X86240000Y3516000D01*
X82712000Y3556000D02*
X83415000Y3556000D01*
X85495000Y3556000D02*
X86198000Y3556000D01*
X82756000Y3596000D02*
X83415000Y3596000D01*
X85495000Y3596000D02*
X86154000Y3596000D01*
X82802000Y3636000D02*
X83415000Y3636000D01*
X85495000Y3636000D02*
X86108000Y3636000D01*
X82850000Y3676000D02*
X86060000Y3676000D01*
X82901000Y3716000D02*
X86009000Y3716000D01*
X82955000Y3756000D02*
X85955000Y3756000D01*
X83012000Y3796000D02*
X85898000Y3796000D01*
X83072000Y3836000D02*
X85838000Y3836000D01*
X83136000Y3876000D02*
X85774000Y3876000D01*
X83204000Y3916000D02*
X85706000Y3916000D01*
X83277000Y3956000D02*
X85633000Y3956000D01*
X83357000Y3996000D02*
X85553000Y3996000D01*
X83444000Y4036000D02*
X85466000Y4036000D01*
X83540000Y4076000D02*
X85370000Y4076000D01*
X83650000Y4116000D02*
X85260000Y4116000D01*
X83778000Y4156000D02*
X85132000Y4156000D01*
X83937000Y4196000D02*
X84973000Y4196000D01*
X84171000Y4236000D02*
X84739000Y4236000D01*
X82980000Y-1169775D02*
X82980000Y-669775D01*
X82730000Y-919775D02*
X83230000Y-919775D01*
X71020000Y-33555000D02*
X78760000Y-33555000D01*
X71020000Y-36295000D02*
X78760000Y-36295000D01*
X71020000Y-33555000D02*
X71020000Y-36295000D01*
X78760000Y-33555000D02*
X78760000Y-36295000D01*
X71100000Y6450000D02*
X78840000Y6450000D01*
X71100000Y3710000D02*
X78840000Y3710000D01*
X71100000Y6450000D02*
X71100000Y3710000D01*
X78840000Y6450000D02*
X78840000Y3710000D01*
X71100000Y2640000D02*
X78840000Y2640000D01*
X71100000Y-100000D02*
X78840000Y-100000D01*
X71100000Y2640000D02*
X71100000Y-100000D01*
X78840000Y2640000D02*
X78840000Y-100000D01*
X62965000Y-41910000D02*
G75*
G03*
X62965000Y-41910000I-2620000J0D01*
G01*
X60345000Y-39330000D02*
X60345000Y-44490000D01*
X60385000Y-39330000D02*
X60385000Y-44490000D01*
X60425000Y-39331000D02*
X60425000Y-44489000D01*
X60465000Y-39332000D02*
X60465000Y-44488000D01*
X60505000Y-39334000D02*
X60505000Y-44486000D01*
X60545000Y-39337000D02*
X60545000Y-44483000D01*
X60585000Y-39341000D02*
X60585000Y-40870000D01*
X60585000Y-42950000D02*
X60585000Y-44479000D01*
X60625000Y-39345000D02*
X60625000Y-40870000D01*
X60625000Y-42950000D02*
X60625000Y-44475000D01*
X60665000Y-39349000D02*
X60665000Y-40870000D01*
X60665000Y-42950000D02*
X60665000Y-44471000D01*
X60705000Y-39354000D02*
X60705000Y-40870000D01*
X60705000Y-42950000D02*
X60705000Y-44466000D01*
X60745000Y-39360000D02*
X60745000Y-40870000D01*
X60745000Y-42950000D02*
X60745000Y-44460000D01*
X60785000Y-39367000D02*
X60785000Y-40870000D01*
X60785000Y-42950000D02*
X60785000Y-44453000D01*
X60825000Y-39374000D02*
X60825000Y-40870000D01*
X60825000Y-42950000D02*
X60825000Y-44446000D01*
X60865000Y-39382000D02*
X60865000Y-40870000D01*
X60865000Y-42950000D02*
X60865000Y-44438000D01*
X60905000Y-39390000D02*
X60905000Y-40870000D01*
X60905000Y-42950000D02*
X60905000Y-44430000D01*
X60945000Y-39399000D02*
X60945000Y-40870000D01*
X60945000Y-42950000D02*
X60945000Y-44421000D01*
X60985000Y-39409000D02*
X60985000Y-40870000D01*
X60985000Y-42950000D02*
X60985000Y-44411000D01*
X61025000Y-39419000D02*
X61025000Y-40870000D01*
X61025000Y-42950000D02*
X61025000Y-44401000D01*
X61066000Y-39430000D02*
X61066000Y-40870000D01*
X61066000Y-42950000D02*
X61066000Y-44390000D01*
X61106000Y-39442000D02*
X61106000Y-40870000D01*
X61106000Y-42950000D02*
X61106000Y-44378000D01*
X61146000Y-39455000D02*
X61146000Y-40870000D01*
X61146000Y-42950000D02*
X61146000Y-44365000D01*
X61186000Y-39468000D02*
X61186000Y-40870000D01*
X61186000Y-42950000D02*
X61186000Y-44352000D01*
X61226000Y-39482000D02*
X61226000Y-40870000D01*
X61226000Y-42950000D02*
X61226000Y-44338000D01*
X61266000Y-39496000D02*
X61266000Y-40870000D01*
X61266000Y-42950000D02*
X61266000Y-44324000D01*
X61306000Y-39512000D02*
X61306000Y-40870000D01*
X61306000Y-42950000D02*
X61306000Y-44308000D01*
X61346000Y-39528000D02*
X61346000Y-40870000D01*
X61346000Y-42950000D02*
X61346000Y-44292000D01*
X61386000Y-39545000D02*
X61386000Y-40870000D01*
X61386000Y-42950000D02*
X61386000Y-44275000D01*
X61426000Y-39562000D02*
X61426000Y-40870000D01*
X61426000Y-42950000D02*
X61426000Y-44258000D01*
X61466000Y-39581000D02*
X61466000Y-40870000D01*
X61466000Y-42950000D02*
X61466000Y-44239000D01*
X61506000Y-39600000D02*
X61506000Y-40870000D01*
X61506000Y-42950000D02*
X61506000Y-44220000D01*
X61546000Y-39620000D02*
X61546000Y-40870000D01*
X61546000Y-42950000D02*
X61546000Y-44200000D01*
X61586000Y-39642000D02*
X61586000Y-40870000D01*
X61586000Y-42950000D02*
X61586000Y-44178000D01*
X61626000Y-39663000D02*
X61626000Y-40870000D01*
X61626000Y-42950000D02*
X61626000Y-44157000D01*
X61666000Y-39686000D02*
X61666000Y-40870000D01*
X61666000Y-42950000D02*
X61666000Y-44134000D01*
X61706000Y-39710000D02*
X61706000Y-40870000D01*
X61706000Y-42950000D02*
X61706000Y-44110000D01*
X61746000Y-39735000D02*
X61746000Y-40870000D01*
X61746000Y-42950000D02*
X61746000Y-44085000D01*
X61786000Y-39761000D02*
X61786000Y-40870000D01*
X61786000Y-42950000D02*
X61786000Y-44059000D01*
X61826000Y-39788000D02*
X61826000Y-40870000D01*
X61826000Y-42950000D02*
X61826000Y-44032000D01*
X61866000Y-39815000D02*
X61866000Y-40870000D01*
X61866000Y-42950000D02*
X61866000Y-44005000D01*
X61906000Y-39845000D02*
X61906000Y-40870000D01*
X61906000Y-42950000D02*
X61906000Y-43975000D01*
X61946000Y-39875000D02*
X61946000Y-40870000D01*
X61946000Y-42950000D02*
X61946000Y-43945000D01*
X61986000Y-39906000D02*
X61986000Y-40870000D01*
X61986000Y-42950000D02*
X61986000Y-43914000D01*
X62026000Y-39939000D02*
X62026000Y-40870000D01*
X62026000Y-42950000D02*
X62026000Y-43881000D01*
X62066000Y-39973000D02*
X62066000Y-40870000D01*
X62066000Y-42950000D02*
X62066000Y-43847000D01*
X62106000Y-40009000D02*
X62106000Y-40870000D01*
X62106000Y-42950000D02*
X62106000Y-43811000D01*
X62146000Y-40046000D02*
X62146000Y-40870000D01*
X62146000Y-42950000D02*
X62146000Y-43774000D01*
X62186000Y-40084000D02*
X62186000Y-40870000D01*
X62186000Y-42950000D02*
X62186000Y-43736000D01*
X62226000Y-40125000D02*
X62226000Y-40870000D01*
X62226000Y-42950000D02*
X62226000Y-43695000D01*
X62266000Y-40167000D02*
X62266000Y-40870000D01*
X62266000Y-42950000D02*
X62266000Y-43653000D01*
X62306000Y-40211000D02*
X62306000Y-40870000D01*
X62306000Y-42950000D02*
X62306000Y-43609000D01*
X62346000Y-40257000D02*
X62346000Y-40870000D01*
X62346000Y-42950000D02*
X62346000Y-43563000D01*
X62386000Y-40305000D02*
X62386000Y-40870000D01*
X62386000Y-42950000D02*
X62386000Y-43515000D01*
X62426000Y-40356000D02*
X62426000Y-40870000D01*
X62426000Y-42950000D02*
X62426000Y-43464000D01*
X62466000Y-40410000D02*
X62466000Y-40870000D01*
X62466000Y-42950000D02*
X62466000Y-43410000D01*
X62506000Y-40467000D02*
X62506000Y-40870000D01*
X62506000Y-42950000D02*
X62506000Y-43353000D01*
X62546000Y-40527000D02*
X62546000Y-40870000D01*
X62546000Y-42950000D02*
X62546000Y-43293000D01*
X62586000Y-40591000D02*
X62586000Y-40870000D01*
X62586000Y-42950000D02*
X62586000Y-43229000D01*
X62626000Y-40659000D02*
X62626000Y-40870000D01*
X62626000Y-42950000D02*
X62626000Y-43161000D01*
X62666000Y-40732000D02*
X62666000Y-43088000D01*
X62706000Y-40812000D02*
X62706000Y-43008000D01*
X62746000Y-40899000D02*
X62746000Y-42921000D01*
X62786000Y-40995000D02*
X62786000Y-42825000D01*
X62826000Y-41105000D02*
X62826000Y-42715000D01*
X62866000Y-41233000D02*
X62866000Y-42587000D01*
X62906000Y-41392000D02*
X62906000Y-42428000D01*
X62946000Y-41626000D02*
X62946000Y-42194000D01*
X57540225Y-40435000D02*
X58040225Y-40435000D01*
X57790225Y-40185000D02*
X57790225Y-40685000D01*
X90745000Y-54035000D02*
X93405000Y-54035000D01*
X90745000Y-46355000D02*
X90745000Y-54035000D01*
X93405000Y-46355000D02*
X93405000Y-54035000D01*
X90745000Y-46355000D02*
X93405000Y-46355000D01*
X90745000Y-45085000D02*
X90745000Y-43755000D01*
X90745000Y-43755000D02*
X92075000Y-43755000D01*
X95825000Y-10220000D02*
X98485000Y-10220000D01*
X95825000Y-5080000D02*
X95825000Y-10220000D01*
X98485000Y-5080000D02*
X98485000Y-10220000D01*
X95825000Y-5080000D02*
X98485000Y-5080000D01*
X95825000Y-3810000D02*
X95825000Y-2480000D01*
X95825000Y-2480000D02*
X97155000Y-2480000D01*
D13*
X41783000Y-39801800D02*
X54483000Y-39801800D01*
X41783000Y-55041800D02*
X41783000Y-39801800D01*
X54483000Y-55041800D02*
X41783000Y-55041800D01*
X54483000Y-39801800D02*
X54483000Y-55041800D01*
D11*
X88675000Y-57658000D02*
G75*
G03*
X88675000Y-57658000I-1680000J0D01*
G01*
X79315000Y-61758000D02*
X89595000Y-61758000D01*
X79315000Y-60258000D02*
X89595000Y-60258000D01*
X79315000Y-55357000D02*
X89595000Y-55357000D01*
X79315000Y-52397000D02*
X89595000Y-52397000D01*
X79315000Y-62318000D02*
X89595000Y-62318000D01*
X79315000Y-52397000D02*
X79315000Y-62318000D01*
X89595000Y-52397000D02*
X89595000Y-62318000D01*
X88270000Y-56589000D02*
X88223000Y-56635000D01*
X85961000Y-58897000D02*
X85926000Y-58932000D01*
X88065000Y-56383000D02*
X88030000Y-56419000D01*
X85768000Y-58681000D02*
X85721000Y-58727000D01*
X79075000Y-61818000D02*
X79075000Y-62558000D01*
X79075000Y-62558000D02*
X79575000Y-62558000D01*
X81943805Y-59338253D02*
G75*
G02*
X81231000Y-59193000I-28805J1680253D01*
G01*
X80379574Y-58341042D02*
G75*
G02*
X80380000Y-56974000I1535426J683042D01*
G01*
X81231958Y-56122574D02*
G75*
G02*
X82599000Y-56123000I683042J-1535426D01*
G01*
X83450426Y-56974958D02*
G75*
G02*
X83450000Y-58342000I-1535426J-683042D01*
G01*
X82598318Y-59192756D02*
G75*
G02*
X81915000Y-59338000I-683318J1534756D01*
G01*
X122330000Y25400000D02*
G75*
G03*
X122330000Y25400000I-1680000J0D01*
G01*
X128330000Y29500000D02*
X118050000Y29500000D01*
X128330000Y28000000D02*
X118050000Y28000000D01*
X128330000Y23099000D02*
X118050000Y23099000D01*
X128330000Y20139000D02*
X118050000Y20139000D01*
X128330000Y30060000D02*
X118050000Y30060000D01*
X128330000Y20139000D02*
X128330000Y30060000D01*
X118050000Y20139000D02*
X118050000Y30060000D01*
X119375000Y24331000D02*
X119422000Y24377000D01*
X121684000Y26639000D02*
X121719000Y26674000D01*
X119580000Y24125000D02*
X119615000Y24161000D01*
X121877000Y26423000D02*
X121924000Y26469000D01*
X128570000Y29560000D02*
X128570000Y30300000D01*
X128570000Y30300000D02*
X128070000Y30300000D01*
X125701195Y27080253D02*
G75*
G02*
X126414000Y26935000I28805J-1680253D01*
G01*
X127265426Y26083042D02*
G75*
G02*
X127265000Y24716000I-1535426J-683042D01*
G01*
X126413042Y23864574D02*
G75*
G02*
X125046000Y23865000I-683042J1535426D01*
G01*
X124194574Y24716958D02*
G75*
G02*
X124195000Y26084000I1535426J683042D01*
G01*
X125046682Y26934756D02*
G75*
G02*
X125730000Y27080000I683318J-1534756D01*
G01*
X145190000Y25400000D02*
G75*
G03*
X145190000Y25400000I-1680000J0D01*
G01*
X151190000Y29500000D02*
X140910000Y29500000D01*
X151190000Y28000000D02*
X140910000Y28000000D01*
X151190000Y23099000D02*
X140910000Y23099000D01*
X151190000Y20139000D02*
X140910000Y20139000D01*
X151190000Y30060000D02*
X140910000Y30060000D01*
X151190000Y20139000D02*
X151190000Y30060000D01*
X140910000Y20139000D02*
X140910000Y30060000D01*
X142235000Y24331000D02*
X142282000Y24377000D01*
X144544000Y26639000D02*
X144579000Y26674000D01*
X142440000Y24125000D02*
X142475000Y24161000D01*
X144737000Y26423000D02*
X144784000Y26469000D01*
X151430000Y29560000D02*
X151430000Y30300000D01*
X151430000Y30300000D02*
X150930000Y30300000D01*
X148561195Y27080253D02*
G75*
G02*
X149274000Y26935000I28805J-1680253D01*
G01*
X150125426Y26083042D02*
G75*
G02*
X150125000Y24716000I-1535426J-683042D01*
G01*
X149273042Y23864574D02*
G75*
G02*
X147906000Y23865000I-683042J1535426D01*
G01*
X147054574Y24716958D02*
G75*
G02*
X147055000Y26084000I1535426J683042D01*
G01*
X147906682Y26934756D02*
G75*
G02*
X148590000Y27080000I683318J-1534756D01*
G01*
X149000000Y16510000D02*
G75*
G03*
X149000000Y16510000I-1680000J0D01*
G01*
X151420000Y8830000D02*
X151420000Y19110000D01*
X149920000Y8830000D02*
X149920000Y19110000D01*
X145019000Y8830000D02*
X145019000Y19110000D01*
X142059000Y8830000D02*
X142059000Y19110000D01*
X151980000Y8830000D02*
X151980000Y19110000D01*
X142059000Y8830000D02*
X151980000Y8830000D01*
X142059000Y19110000D02*
X151980000Y19110000D01*
X146251000Y17785000D02*
X146297000Y17738000D01*
X148559000Y15476000D02*
X148594000Y15441000D01*
X146045000Y17580000D02*
X146081000Y17545000D01*
X148343000Y15283000D02*
X148389000Y15236000D01*
X151480000Y8590000D02*
X152220000Y8590000D01*
X152220000Y8590000D02*
X152220000Y9090000D01*
X149000253Y11458805D02*
G75*
G02*
X148855000Y10746000I-1680253J-28805D01*
G01*
X148003042Y9894574D02*
G75*
G02*
X146636000Y9895000I-683042J1535426D01*
G01*
X145784574Y10746958D02*
G75*
G02*
X145785000Y12114000I1535426J683042D01*
G01*
X146636958Y12965426D02*
G75*
G02*
X148004000Y12965000I683042J-1535426D01*
G01*
X148854756Y12113318D02*
G75*
G02*
X149000000Y11430000I-1534756J-683318D01*
G01*
X133760000Y25400000D02*
G75*
G03*
X133760000Y25400000I-1680000J0D01*
G01*
X139760000Y29500000D02*
X129480000Y29500000D01*
X139760000Y28000000D02*
X129480000Y28000000D01*
X139760000Y23099000D02*
X129480000Y23099000D01*
X139760000Y20139000D02*
X129480000Y20139000D01*
X139760000Y30060000D02*
X129480000Y30060000D01*
X139760000Y20139000D02*
X139760000Y30060000D01*
X129480000Y20139000D02*
X129480000Y30060000D01*
X130805000Y24331000D02*
X130852000Y24377000D01*
X133114000Y26639000D02*
X133149000Y26674000D01*
X131010000Y24125000D02*
X131045000Y24161000D01*
X133307000Y26423000D02*
X133354000Y26469000D01*
X140000000Y29560000D02*
X140000000Y30300000D01*
X140000000Y30300000D02*
X139500000Y30300000D01*
X137131195Y27080253D02*
G75*
G02*
X137844000Y26935000I28805J-1680253D01*
G01*
X138695426Y26083042D02*
G75*
G02*
X138695000Y24716000I-1535426J-683042D01*
G01*
X137843042Y23864574D02*
G75*
G02*
X136476000Y23865000I-683042J1535426D01*
G01*
X135624574Y24716958D02*
G75*
G02*
X135625000Y26084000I1535426J683042D01*
G01*
X136476682Y26934756D02*
G75*
G02*
X137160000Y27080000I683318J-1534756D01*
G01*
X110900000Y25400000D02*
G75*
G03*
X110900000Y25400000I-1680000J0D01*
G01*
X105820000Y25400000D02*
G75*
G03*
X105820000Y25400000I-1680000J0D01*
G01*
X116900000Y29500000D02*
X101540000Y29500000D01*
X116900000Y28000000D02*
X101540000Y28000000D01*
X116900000Y23099000D02*
X101540000Y23099000D01*
X116900000Y20139000D02*
X101540000Y20139000D01*
X116900000Y30060000D02*
X101540000Y30060000D01*
X116900000Y20139000D02*
X116900000Y30060000D01*
X101540000Y20139000D02*
X101540000Y30060000D01*
X107945000Y24331000D02*
X107992000Y24377000D01*
X110254000Y26639000D02*
X110289000Y26674000D01*
X108150000Y24125000D02*
X108185000Y24161000D01*
X110447000Y26423000D02*
X110494000Y26469000D01*
X102865000Y24331000D02*
X102912000Y24377000D01*
X105174000Y26639000D02*
X105209000Y26674000D01*
X103070000Y24125000D02*
X103105000Y24161000D01*
X105367000Y26423000D02*
X105414000Y26469000D01*
X117140000Y29560000D02*
X117140000Y30300000D01*
X117140000Y30300000D02*
X116640000Y30300000D01*
X114271195Y27080253D02*
G75*
G02*
X114984000Y26935000I28805J-1680253D01*
G01*
X115835426Y26083042D02*
G75*
G02*
X115835000Y24716000I-1535426J-683042D01*
G01*
X114983042Y23864574D02*
G75*
G02*
X113616000Y23865000I-683042J1535426D01*
G01*
X112764574Y24716958D02*
G75*
G02*
X112765000Y26084000I1535426J683042D01*
G01*
X113616682Y26934756D02*
G75*
G02*
X114300000Y27080000I683318J-1534756D01*
G01*
X95425000Y-61205000D02*
X95425000Y-22705000D01*
X145825000Y-61205000D02*
X95425000Y-61205000D01*
X145825000Y-22705000D02*
X145825000Y-61205000D01*
X95425000Y-22705000D02*
X145825000Y-22705000D01*
X99775000Y-25455000D02*
G75*
G03*
X99775000Y-25455000I-1600000J0D01*
G01*
X99775000Y-58455000D02*
G75*
G03*
X99775000Y-58455000I-1600000J0D01*
G01*
X144675000Y-25455000D02*
G75*
G03*
X144675000Y-25455000I-1600000J0D01*
G01*
X144675000Y-58455000D02*
G75*
G03*
X144675000Y-58455000I-1600000J0D01*
G01*
X138225000Y-27005000D02*
X143225000Y-27005000D01*
X143225000Y-27005000D02*
X143225000Y-57005000D01*
X143225000Y-57005000D02*
X138225000Y-57005000D01*
X138225000Y-57005000D02*
X138225000Y-27005000D01*
X103620000Y10525000D02*
X103620000Y8525000D01*
X100820000Y10525000D02*
X103620000Y10525000D01*
X100820000Y8525000D02*
X100820000Y10525000D01*
X103620000Y8525000D02*
X100820000Y8525000D01*
D12*
X92075000Y-17780000D02*
G75*
G03*
X92075000Y-17780000I-635000J0D01*
G01*
X92075000Y-15240000D02*
G75*
G03*
X92075000Y-15240000I-635000J0D01*
G01*
X92075000Y-12700000D02*
G75*
G03*
X92075000Y-12700000I-635000J0D01*
G01*
X92075000Y-10160000D02*
G75*
G03*
X92075000Y-10160000I-635000J0D01*
G01*
X92075000Y-7620000D02*
G75*
G03*
X92075000Y-7620000I-635000J0D01*
G01*
X92075000Y-5080000D02*
G75*
G03*
X92075000Y-5080000I-635000J0D01*
G01*
X62230000Y-8890000D02*
X62230000Y-13970000D01*
X62230000Y-13970000D02*
X64770000Y-13970000D01*
X64770000Y-13970000D02*
X64770000Y-8890000D01*
X64770000Y-8890000D02*
X62230000Y-8890000D01*
X74930000Y-16510000D02*
X80010000Y-11430000D01*
X80010000Y-11430000D02*
X74930000Y-6350000D01*
X74930000Y-6350000D02*
X69850000Y-11430000D01*
X69850000Y-11430000D02*
X74930000Y-16510000D01*
X59690000Y-20320000D02*
X92710000Y-20320000D01*
X92710000Y-20320000D02*
X92710000Y-2540000D01*
X92710000Y-2540000D02*
X59690000Y-2540000D01*
X59690000Y-2540000D02*
X59690000Y-20320000D01*
D11*
X37240000Y10160000D02*
G75*
G03*
X37240000Y10160000I-1680000J0D01*
G01*
X31460000Y17840000D02*
X31460000Y7560000D01*
X32960000Y17840000D02*
X32960000Y7560000D01*
X37861000Y17840000D02*
X37861000Y7560000D01*
X40821000Y17840000D02*
X40821000Y7560000D01*
X30900000Y17840000D02*
X30900000Y7560000D01*
X40821000Y17840000D02*
X30900000Y17840000D01*
X40821000Y7560000D02*
X30900000Y7560000D01*
X36629000Y8885000D02*
X36583000Y8932000D01*
X34321000Y11194000D02*
X34286000Y11229000D01*
X36835000Y9090000D02*
X36799000Y9125000D01*
X34537000Y11387000D02*
X34491000Y11434000D01*
X31400000Y18080000D02*
X30660000Y18080000D01*
X30660000Y18080000D02*
X30660000Y17580000D01*
X33879747Y15211195D02*
G75*
G02*
X34025000Y15924000I1680253J28805D01*
G01*
X34876958Y16775426D02*
G75*
G02*
X36244000Y16775000I683042J-1535426D01*
G01*
X37095426Y15923042D02*
G75*
G02*
X37095000Y14556000I-1535426J-683042D01*
G01*
X36243042Y13704574D02*
G75*
G02*
X34876000Y13705000I-683042J1535426D01*
G01*
X34025244Y14556682D02*
G75*
G02*
X33880000Y15240000I1534756J683318D01*
G01*
X37240000Y-1270000D02*
G75*
G03*
X37240000Y-1270000I-1680000J0D01*
G01*
X31460000Y6410000D02*
X31460000Y-3870000D01*
X32960000Y6410000D02*
X32960000Y-3870000D01*
X37861000Y6410000D02*
X37861000Y-3870000D01*
X40821000Y6410000D02*
X40821000Y-3870000D01*
X30900000Y6410000D02*
X30900000Y-3870000D01*
X40821000Y6410000D02*
X30900000Y6410000D01*
X40821000Y-3870000D02*
X30900000Y-3870000D01*
X36629000Y-2545000D02*
X36583000Y-2498000D01*
X34321000Y-236000D02*
X34286000Y-201000D01*
X36835000Y-2340000D02*
X36799000Y-2305000D01*
X34537000Y-43000D02*
X34491000Y4000D01*
X31400000Y6650000D02*
X30660000Y6650000D01*
X30660000Y6650000D02*
X30660000Y6150000D01*
X33879747Y3781195D02*
G75*
G02*
X34025000Y4494000I1680253J28805D01*
G01*
X34876958Y5345426D02*
G75*
G02*
X36244000Y5345000I683042J-1535426D01*
G01*
X37095426Y4493042D02*
G75*
G02*
X37095000Y3126000I-1535426J-683042D01*
G01*
X36243042Y2274574D02*
G75*
G02*
X34876000Y2275000I-683042J1535426D01*
G01*
X34025244Y3126682D02*
G75*
G02*
X33880000Y3810000I1534756J683318D01*
G01*
X37240000Y-40640000D02*
G75*
G03*
X37240000Y-40640000I-1680000J0D01*
G01*
X31460000Y-32960000D02*
X31460000Y-43240000D01*
X32960000Y-32960000D02*
X32960000Y-43240000D01*
X37861000Y-32960000D02*
X37861000Y-43240000D01*
X40821000Y-32960000D02*
X40821000Y-43240000D01*
X30900000Y-32960000D02*
X30900000Y-43240000D01*
X40821000Y-32960000D02*
X30900000Y-32960000D01*
X40821000Y-43240000D02*
X30900000Y-43240000D01*
X36629000Y-41915000D02*
X36583000Y-41868000D01*
X34321000Y-39606000D02*
X34286000Y-39571000D01*
X36835000Y-41710000D02*
X36799000Y-41675000D01*
X34537000Y-39413000D02*
X34491000Y-39366000D01*
X31400000Y-32720000D02*
X30660000Y-32720000D01*
X30660000Y-32720000D02*
X30660000Y-33220000D01*
X33879747Y-35588805D02*
G75*
G02*
X34025000Y-34876000I1680253J28805D01*
G01*
X34876958Y-34024574D02*
G75*
G02*
X36244000Y-34025000I683042J-1535426D01*
G01*
X37095426Y-34876958D02*
G75*
G02*
X37095000Y-36244000I-1535426J-683042D01*
G01*
X36243042Y-37095426D02*
G75*
G02*
X34876000Y-37095000I-683042J1535426D01*
G01*
X34025244Y-36243318D02*
G75*
G02*
X33880000Y-35560000I1534756J683318D01*
G01*
X37240000Y-52070000D02*
G75*
G03*
X37240000Y-52070000I-1680000J0D01*
G01*
X31460000Y-44390000D02*
X31460000Y-54670000D01*
X32960000Y-44390000D02*
X32960000Y-54670000D01*
X37861000Y-44390000D02*
X37861000Y-54670000D01*
X40821000Y-44390000D02*
X40821000Y-54670000D01*
X30900000Y-44390000D02*
X30900000Y-54670000D01*
X40821000Y-44390000D02*
X30900000Y-44390000D01*
X40821000Y-54670000D02*
X30900000Y-54670000D01*
X36629000Y-53345000D02*
X36583000Y-53298000D01*
X34321000Y-51036000D02*
X34286000Y-51001000D01*
X36835000Y-53140000D02*
X36799000Y-53105000D01*
X34537000Y-50843000D02*
X34491000Y-50796000D01*
X31400000Y-44150000D02*
X30660000Y-44150000D01*
X30660000Y-44150000D02*
X30660000Y-44650000D01*
X33879747Y-47018805D02*
G75*
G02*
X34025000Y-46306000I1680253J28805D01*
G01*
X34876958Y-45454574D02*
G75*
G02*
X36244000Y-45455000I683042J-1535426D01*
G01*
X37095426Y-46306958D02*
G75*
G02*
X37095000Y-47674000I-1535426J-683042D01*
G01*
X36243042Y-48525426D02*
G75*
G02*
X34876000Y-48525000I-683042J1535426D01*
G01*
X34025244Y-47673318D02*
G75*
G02*
X33880000Y-46990000I1534756J683318D01*
G01*
X37240000Y-29210000D02*
G75*
G03*
X37240000Y-29210000I-1680000J0D01*
G01*
X31460000Y-21530000D02*
X31460000Y-31810000D01*
X32960000Y-21530000D02*
X32960000Y-31810000D01*
X37861000Y-21530000D02*
X37861000Y-31810000D01*
X40821000Y-21530000D02*
X40821000Y-31810000D01*
X30900000Y-21530000D02*
X30900000Y-31810000D01*
X40821000Y-21530000D02*
X30900000Y-21530000D01*
X40821000Y-31810000D02*
X30900000Y-31810000D01*
X36629000Y-30485000D02*
X36583000Y-30438000D01*
X34321000Y-28176000D02*
X34286000Y-28141000D01*
X36835000Y-30280000D02*
X36799000Y-30245000D01*
X34537000Y-27983000D02*
X34491000Y-27936000D01*
X31400000Y-21290000D02*
X30660000Y-21290000D01*
X30660000Y-21290000D02*
X30660000Y-21790000D01*
X33879747Y-24158805D02*
G75*
G02*
X34025000Y-23446000I1680253J28805D01*
G01*
X34876958Y-22594574D02*
G75*
G02*
X36244000Y-22595000I683042J-1535426D01*
G01*
X37095426Y-23446958D02*
G75*
G02*
X37095000Y-24814000I-1535426J-683042D01*
G01*
X36243042Y-25665426D02*
G75*
G02*
X34876000Y-25665000I-683042J1535426D01*
G01*
X34025244Y-24813318D02*
G75*
G02*
X33880000Y-24130000I1534756J683318D01*
G01*
X47400000Y25400000D02*
G75*
G03*
X47400000Y25400000I-1680000J0D01*
G01*
X53400000Y29500000D02*
X43120000Y29500000D01*
X53400000Y28000000D02*
X43120000Y28000000D01*
X53400000Y23099000D02*
X43120000Y23099000D01*
X53400000Y20139000D02*
X43120000Y20139000D01*
X53400000Y30060000D02*
X43120000Y30060000D01*
X53400000Y20139000D02*
X53400000Y30060000D01*
X43120000Y20139000D02*
X43120000Y30060000D01*
X44445000Y24331000D02*
X44492000Y24377000D01*
X46754000Y26639000D02*
X46789000Y26674000D01*
X44650000Y24125000D02*
X44685000Y24161000D01*
X46947000Y26423000D02*
X46994000Y26469000D01*
X53640000Y29560000D02*
X53640000Y30300000D01*
X53640000Y30300000D02*
X53140000Y30300000D01*
X50771195Y27080253D02*
G75*
G02*
X51484000Y26935000I28805J-1680253D01*
G01*
X52335426Y26083042D02*
G75*
G02*
X52335000Y24716000I-1535426J-683042D01*
G01*
X51483042Y23864574D02*
G75*
G02*
X50116000Y23865000I-683042J1535426D01*
G01*
X49264574Y24716958D02*
G75*
G02*
X49265000Y26084000I1535426J683042D01*
G01*
X50116682Y26934756D02*
G75*
G02*
X50800000Y27080000I683318J-1534756D01*
G01*
X37240000Y-12700000D02*
G75*
G03*
X37240000Y-12700000I-1680000J0D01*
G01*
X37240000Y-17780000D02*
G75*
G03*
X37240000Y-17780000I-1680000J0D01*
G01*
X31460000Y-5020000D02*
X31460000Y-20380000D01*
X32960000Y-5020000D02*
X32960000Y-20380000D01*
X37861000Y-5020000D02*
X37861000Y-20380000D01*
X40821000Y-5020000D02*
X40821000Y-20380000D01*
X30900000Y-5020000D02*
X30900000Y-20380000D01*
X40821000Y-5020000D02*
X30900000Y-5020000D01*
X40821000Y-20380000D02*
X30900000Y-20380000D01*
X36629000Y-13975000D02*
X36583000Y-13928000D01*
X34321000Y-11666000D02*
X34286000Y-11631000D01*
X36835000Y-13770000D02*
X36799000Y-13735000D01*
X34537000Y-11473000D02*
X34491000Y-11426000D01*
X36629000Y-19055000D02*
X36583000Y-19008000D01*
X34321000Y-16746000D02*
X34286000Y-16711000D01*
X36835000Y-18850000D02*
X36799000Y-18815000D01*
X34537000Y-16553000D02*
X34491000Y-16506000D01*
X31400000Y-4780000D02*
X30660000Y-4780000D01*
X30660000Y-4780000D02*
X30660000Y-5280000D01*
X33879747Y-7648805D02*
G75*
G02*
X34025000Y-6936000I1680253J28805D01*
G01*
X34876958Y-6084574D02*
G75*
G02*
X36244000Y-6085000I683042J-1535426D01*
G01*
X37095426Y-6936958D02*
G75*
G02*
X37095000Y-8304000I-1535426J-683042D01*
G01*
X36243042Y-9155426D02*
G75*
G02*
X34876000Y-9155000I-683042J1535426D01*
G01*
X34025244Y-8303318D02*
G75*
G02*
X33880000Y-7620000I1534756J683318D01*
G01*
D10*
X75387200Y-41376600D02*
X75387200Y-40970200D01*
D14*
X73812400Y-38608000D02*
G75*
G02*
X74955400Y-38862000I-1360J-2704870D01*
G01*
X74930000Y-43561000D02*
G75*
G02*
X73812400Y-38608000I-1107827J2352617D01*
G01*
D11*
X103000000Y800000D02*
X108000000Y800000D01*
X103000000Y-14200000D02*
X103000000Y800000D01*
X108000000Y800000D02*
X108000000Y-14200000D01*
X108000000Y-14200000D02*
X103000000Y-14200000D01*
X100600000Y-19850000D02*
X100600000Y6350000D01*
X150600000Y-19850000D02*
X100600000Y-19850000D01*
X150600000Y6350000D02*
X150600000Y-19850000D01*
X100600000Y6350000D02*
X150600000Y6350000D01*
X104950000Y3600000D02*
G75*
G03*
X104950000Y3600000I-1600000J0D01*
G01*
X104950000Y-17100000D02*
G75*
G03*
X104950000Y-17100000I-1600000J0D01*
G01*
X149450000Y3600000D02*
G75*
G03*
X149450000Y3600000I-1600000J0D01*
G01*
X149450000Y-17100000D02*
G75*
G03*
X149450000Y-17100000I-1600000J0D01*
G01*
X143000000Y700000D02*
X148000000Y700000D01*
X148000000Y700000D02*
X148000000Y-14300000D01*
X148000000Y-14300000D02*
X143000000Y-14300000D01*
X143000000Y-14300000D02*
X143000000Y700000D01*
D15*
G36*
X125933200Y17119600D02*
G01*
X125933200Y19024600D01*
X126441200Y19024600D01*
X126441200Y17119600D01*
X125933200Y17119600D01*
G37*
X125933200Y17119600D02*
X125933200Y19024600D01*
X126441200Y19024600D01*
X126441200Y17119600D01*
X125933200Y17119600D01*
G36*
X125933200Y14579600D02*
G01*
X125933200Y15341600D01*
X126441200Y15341600D01*
X126441200Y14579600D01*
X125933200Y14579600D01*
G37*
X125933200Y14579600D02*
X125933200Y15341600D01*
X126441200Y15341600D01*
X126441200Y14579600D01*
X125933200Y14579600D01*
G36*
X125933200Y12039600D02*
G01*
X125933200Y12801600D01*
X126441200Y12801600D01*
X126441200Y12039600D01*
X125933200Y12039600D01*
G37*
X125933200Y12039600D02*
X125933200Y12801600D01*
X126441200Y12801600D01*
X126441200Y12039600D01*
X125933200Y12039600D01*
G36*
X125933200Y8356600D02*
G01*
X125933200Y10261600D01*
X126441200Y10261600D01*
X126441200Y8356600D01*
X125933200Y8356600D01*
G37*
X125933200Y8356600D02*
X125933200Y10261600D01*
X126441200Y10261600D01*
X126441200Y8356600D01*
X125933200Y8356600D01*
G36*
X125171200Y8356600D02*
G01*
X125171200Y19024600D01*
X125933200Y19024600D01*
X125933200Y8356600D01*
X125171200Y8356600D01*
G37*
X125171200Y8356600D02*
X125171200Y19024600D01*
X125933200Y19024600D01*
X125933200Y8356600D01*
X125171200Y8356600D01*
D13*
X129133600Y9194800D02*
G75*
G03*
X129133600Y9194800I-254000J0D01*
G01*
X129235200Y8737600D02*
X126314200Y8610600D01*
X129235200Y8737600D02*
X129489200Y8991600D01*
X129489200Y18389600D02*
X129489200Y8991600D01*
X129489200Y18389600D02*
X129235200Y18643600D01*
X126314200Y18770600D02*
X129235200Y18643600D01*
D15*
G36*
X115161052Y-47940512D02*
G01*
X115359325Y-47981662D01*
X115398547Y-47993423D01*
X115622200Y-48082688D01*
X115830949Y-48201944D01*
X116021066Y-48347876D01*
X116188824Y-48517169D01*
X116330496Y-48706508D01*
X116442355Y-48912576D01*
X116449169Y-48927994D01*
X116526490Y-49147958D01*
X116573061Y-49377875D01*
X116589299Y-49612556D01*
X116575618Y-49846811D01*
X116532432Y-50075451D01*
X116460158Y-50293286D01*
X116359210Y-50495127D01*
X116318758Y-50558700D01*
X116171082Y-50746699D01*
X115999562Y-50911248D01*
X115808115Y-51050716D01*
X115600659Y-51163473D01*
X115381108Y-51247887D01*
X115153381Y-51302328D01*
X114921393Y-51325163D01*
X114689061Y-51314763D01*
X114555814Y-51292884D01*
X114309417Y-51223514D01*
X114081850Y-51123171D01*
X113873747Y-50992271D01*
X113685747Y-50831230D01*
X113518487Y-50640464D01*
X113482817Y-50592147D01*
X113360662Y-50390707D01*
X113269156Y-50173648D01*
X113208824Y-49945583D01*
X113180191Y-49711123D01*
X113181959Y-49594793D01*
X113488028Y-49594793D01*
X113499862Y-49802738D01*
X113544508Y-50007999D01*
X113622184Y-50207329D01*
X113733104Y-50397480D01*
X113790675Y-50475110D01*
X113937297Y-50631809D01*
X114108965Y-50766642D01*
X114298930Y-50875228D01*
X114500440Y-50953181D01*
X114546743Y-50966067D01*
X114691370Y-50992172D01*
X114853604Y-51002901D01*
X115018653Y-50998264D01*
X115171724Y-50978273D01*
X115228019Y-50965529D01*
X115381151Y-50913658D01*
X115540541Y-50839036D01*
X115692115Y-50748965D01*
X115801793Y-50667797D01*
X115955416Y-50517464D01*
X116080776Y-50346898D01*
X116176875Y-50159811D01*
X116242710Y-49959916D01*
X116277283Y-49750926D01*
X116279592Y-49536553D01*
X116248639Y-49320511D01*
X116205854Y-49167948D01*
X116132627Y-48994024D01*
X116034361Y-48833629D01*
X115906333Y-48679487D01*
X115854449Y-48626486D01*
X115686204Y-48483197D01*
X115505245Y-48373005D01*
X115309063Y-48294796D01*
X115095151Y-48247457D01*
X114970153Y-48234254D01*
X114746660Y-48236318D01*
X114531447Y-48273144D01*
X114327146Y-48343750D01*
X114136392Y-48447151D01*
X113961818Y-48582366D01*
X113913494Y-48628488D01*
X113764503Y-48801134D01*
X113647245Y-48987335D01*
X113561936Y-49183844D01*
X113508791Y-49387412D01*
X113488028Y-49594793D01*
X113181959Y-49594793D01*
X113183783Y-49474877D01*
X113220124Y-49241459D01*
X113289741Y-49015479D01*
X113300248Y-48989343D01*
X113409884Y-48768788D01*
X113547748Y-48567159D01*
X113710687Y-48387473D01*
X113895546Y-48232749D01*
X114099173Y-48106004D01*
X114318413Y-48010255D01*
X114326295Y-48007514D01*
X114519984Y-47956302D01*
X114730757Y-47927971D01*
X114947987Y-47922661D01*
X115161052Y-47940512D01*
G37*
X115161052Y-47940512D02*
X115359325Y-47981662D01*
X115398547Y-47993423D01*
X115622200Y-48082688D01*
X115830949Y-48201944D01*
X116021066Y-48347876D01*
X116188824Y-48517169D01*
X116330496Y-48706508D01*
X116442355Y-48912576D01*
X116449169Y-48927994D01*
X116526490Y-49147958D01*
X116573061Y-49377875D01*
X116589299Y-49612556D01*
X116575618Y-49846811D01*
X116532432Y-50075451D01*
X116460158Y-50293286D01*
X116359210Y-50495127D01*
X116318758Y-50558700D01*
X116171082Y-50746699D01*
X115999562Y-50911248D01*
X115808115Y-51050716D01*
X115600659Y-51163473D01*
X115381108Y-51247887D01*
X115153381Y-51302328D01*
X114921393Y-51325163D01*
X114689061Y-51314763D01*
X114555814Y-51292884D01*
X114309417Y-51223514D01*
X114081850Y-51123171D01*
X113873747Y-50992271D01*
X113685747Y-50831230D01*
X113518487Y-50640464D01*
X113482817Y-50592147D01*
X113360662Y-50390707D01*
X113269156Y-50173648D01*
X113208824Y-49945583D01*
X113180191Y-49711123D01*
X113181959Y-49594793D01*
X113488028Y-49594793D01*
X113499862Y-49802738D01*
X113544508Y-50007999D01*
X113622184Y-50207329D01*
X113733104Y-50397480D01*
X113790675Y-50475110D01*
X113937297Y-50631809D01*
X114108965Y-50766642D01*
X114298930Y-50875228D01*
X114500440Y-50953181D01*
X114546743Y-50966067D01*
X114691370Y-50992172D01*
X114853604Y-51002901D01*
X115018653Y-50998264D01*
X115171724Y-50978273D01*
X115228019Y-50965529D01*
X115381151Y-50913658D01*
X115540541Y-50839036D01*
X115692115Y-50748965D01*
X115801793Y-50667797D01*
X115955416Y-50517464D01*
X116080776Y-50346898D01*
X116176875Y-50159811D01*
X116242710Y-49959916D01*
X116277283Y-49750926D01*
X116279592Y-49536553D01*
X116248639Y-49320511D01*
X116205854Y-49167948D01*
X116132627Y-48994024D01*
X116034361Y-48833629D01*
X115906333Y-48679487D01*
X115854449Y-48626486D01*
X115686204Y-48483197D01*
X115505245Y-48373005D01*
X115309063Y-48294796D01*
X115095151Y-48247457D01*
X114970153Y-48234254D01*
X114746660Y-48236318D01*
X114531447Y-48273144D01*
X114327146Y-48343750D01*
X114136392Y-48447151D01*
X113961818Y-48582366D01*
X113913494Y-48628488D01*
X113764503Y-48801134D01*
X113647245Y-48987335D01*
X113561936Y-49183844D01*
X113508791Y-49387412D01*
X113488028Y-49594793D01*
X113181959Y-49594793D01*
X113183783Y-49474877D01*
X113220124Y-49241459D01*
X113289741Y-49015479D01*
X113300248Y-48989343D01*
X113409884Y-48768788D01*
X113547748Y-48567159D01*
X113710687Y-48387473D01*
X113895546Y-48232749D01*
X114099173Y-48106004D01*
X114318413Y-48010255D01*
X114326295Y-48007514D01*
X114519984Y-47956302D01*
X114730757Y-47927971D01*
X114947987Y-47922661D01*
X115161052Y-47940512D01*
G36*
X118734457Y-47929940D02*
G01*
X118967521Y-47968454D01*
X119190831Y-48037386D01*
X119383767Y-48127976D01*
X119590862Y-48263759D01*
X119774230Y-48425107D01*
X119931630Y-48609113D01*
X120060826Y-48812871D01*
X120159576Y-49033473D01*
X120210688Y-49201590D01*
X120235919Y-49341881D01*
X120249747Y-49503720D01*
X120252165Y-49674410D01*
X120243168Y-49841257D01*
X120222751Y-49991562D01*
X120211085Y-50045425D01*
X120139729Y-50268720D01*
X120039860Y-50472500D01*
X119909077Y-50660905D01*
X119759820Y-50823800D01*
X119564396Y-50990506D01*
X119354816Y-51124126D01*
X119129143Y-51225742D01*
X118932878Y-51285417D01*
X118832023Y-51303402D01*
X118707820Y-51315435D01*
X118572766Y-51321197D01*
X118439359Y-51320370D01*
X118320095Y-51312636D01*
X118250915Y-51302788D01*
X118019469Y-51243528D01*
X117807846Y-51157266D01*
X117611391Y-51041449D01*
X117425453Y-50893521D01*
X117320556Y-50791964D01*
X117162314Y-50607706D01*
X117037730Y-50415122D01*
X116944403Y-50209941D01*
X116887869Y-50022489D01*
X116868683Y-49912927D01*
X116856283Y-49780081D01*
X116850846Y-49635875D01*
X116850929Y-49628807D01*
X117159433Y-49628807D01*
X117166385Y-49784855D01*
X117187472Y-49925629D01*
X117193359Y-49950613D01*
X117263396Y-50155093D01*
X117365777Y-50347930D01*
X117497146Y-50523967D01*
X117654144Y-50678046D01*
X117681354Y-50700266D01*
X117792894Y-50783998D01*
X117894013Y-50847364D01*
X117997787Y-50897642D01*
X118113668Y-50940899D01*
X118317610Y-50991173D01*
X118531915Y-51010320D01*
X118747831Y-50998055D01*
X118909957Y-50966951D01*
X119099139Y-50900996D01*
X119281561Y-50803856D01*
X119451341Y-50680371D01*
X119602597Y-50535384D01*
X119729447Y-50373736D01*
X119816663Y-50220603D01*
X119870238Y-50096154D01*
X119907018Y-49980759D01*
X119929565Y-49862270D01*
X119940441Y-49728542D01*
X119942475Y-49624343D01*
X119939107Y-49479301D01*
X119926354Y-49357294D01*
X119901299Y-49245653D01*
X119861028Y-49131709D01*
X119802625Y-49002792D01*
X119796640Y-48990553D01*
X119756267Y-48912367D01*
X119717159Y-48848133D01*
X119672152Y-48788307D01*
X119614083Y-48723343D01*
X119537946Y-48645839D01*
X119443958Y-48556168D01*
X119362910Y-48488151D01*
X119285657Y-48434649D01*
X119218350Y-48396406D01*
X119010382Y-48307340D01*
X118793969Y-48252186D01*
X118573166Y-48231244D01*
X118352023Y-48244811D01*
X118134593Y-48293187D01*
X118077255Y-48312182D01*
X117894041Y-48395650D01*
X117720847Y-48510150D01*
X117562417Y-48650814D01*
X117423498Y-48812774D01*
X117308836Y-48991161D01*
X117223176Y-49181107D01*
X117219185Y-49192411D01*
X117186253Y-49320247D01*
X117166196Y-49469825D01*
X117159433Y-49628807D01*
X116850929Y-49628807D01*
X116852548Y-49492233D01*
X116861564Y-49361080D01*
X116876611Y-49261042D01*
X116942724Y-49034921D01*
X117041419Y-48819589D01*
X117169672Y-48618846D01*
X117324458Y-48436495D01*
X117502753Y-48276337D01*
X117701531Y-48142176D01*
X117813622Y-48083165D01*
X118031221Y-47998455D01*
X118260858Y-47944785D01*
X118497086Y-47921998D01*
X118734457Y-47929940D01*
G37*
X118734457Y-47929940D02*
X118967521Y-47968454D01*
X119190831Y-48037386D01*
X119383767Y-48127976D01*
X119590862Y-48263759D01*
X119774230Y-48425107D01*
X119931630Y-48609113D01*
X120060826Y-48812871D01*
X120159576Y-49033473D01*
X120210688Y-49201590D01*
X120235919Y-49341881D01*
X120249747Y-49503720D01*
X120252165Y-49674410D01*
X120243168Y-49841257D01*
X120222751Y-49991562D01*
X120211085Y-50045425D01*
X120139729Y-50268720D01*
X120039860Y-50472500D01*
X119909077Y-50660905D01*
X119759820Y-50823800D01*
X119564396Y-50990506D01*
X119354816Y-51124126D01*
X119129143Y-51225742D01*
X118932878Y-51285417D01*
X118832023Y-51303402D01*
X118707820Y-51315435D01*
X118572766Y-51321197D01*
X118439359Y-51320370D01*
X118320095Y-51312636D01*
X118250915Y-51302788D01*
X118019469Y-51243528D01*
X117807846Y-51157266D01*
X117611391Y-51041449D01*
X117425453Y-50893521D01*
X117320556Y-50791964D01*
X117162314Y-50607706D01*
X117037730Y-50415122D01*
X116944403Y-50209941D01*
X116887869Y-50022489D01*
X116868683Y-49912927D01*
X116856283Y-49780081D01*
X116850846Y-49635875D01*
X116850929Y-49628807D01*
X117159433Y-49628807D01*
X117166385Y-49784855D01*
X117187472Y-49925629D01*
X117193359Y-49950613D01*
X117263396Y-50155093D01*
X117365777Y-50347930D01*
X117497146Y-50523967D01*
X117654144Y-50678046D01*
X117681354Y-50700266D01*
X117792894Y-50783998D01*
X117894013Y-50847364D01*
X117997787Y-50897642D01*
X118113668Y-50940899D01*
X118317610Y-50991173D01*
X118531915Y-51010320D01*
X118747831Y-50998055D01*
X118909957Y-50966951D01*
X119099139Y-50900996D01*
X119281561Y-50803856D01*
X119451341Y-50680371D01*
X119602597Y-50535384D01*
X119729447Y-50373736D01*
X119816663Y-50220603D01*
X119870238Y-50096154D01*
X119907018Y-49980759D01*
X119929565Y-49862270D01*
X119940441Y-49728542D01*
X119942475Y-49624343D01*
X119939107Y-49479301D01*
X119926354Y-49357294D01*
X119901299Y-49245653D01*
X119861028Y-49131709D01*
X119802625Y-49002792D01*
X119796640Y-48990553D01*
X119756267Y-48912367D01*
X119717159Y-48848133D01*
X119672152Y-48788307D01*
X119614083Y-48723343D01*
X119537946Y-48645839D01*
X119443958Y-48556168D01*
X119362910Y-48488151D01*
X119285657Y-48434649D01*
X119218350Y-48396406D01*
X119010382Y-48307340D01*
X118793969Y-48252186D01*
X118573166Y-48231244D01*
X118352023Y-48244811D01*
X118134593Y-48293187D01*
X118077255Y-48312182D01*
X117894041Y-48395650D01*
X117720847Y-48510150D01*
X117562417Y-48650814D01*
X117423498Y-48812774D01*
X117308836Y-48991161D01*
X117223176Y-49181107D01*
X117219185Y-49192411D01*
X117186253Y-49320247D01*
X117166196Y-49469825D01*
X117159433Y-49628807D01*
X116850929Y-49628807D01*
X116852548Y-49492233D01*
X116861564Y-49361080D01*
X116876611Y-49261042D01*
X116942724Y-49034921D01*
X117041419Y-48819589D01*
X117169672Y-48618846D01*
X117324458Y-48436495D01*
X117502753Y-48276337D01*
X117701531Y-48142176D01*
X117813622Y-48083165D01*
X118031221Y-47998455D01*
X118260858Y-47944785D01*
X118497086Y-47921998D01*
X118734457Y-47929940D01*
G36*
X122375097Y-47928248D02*
G01*
X122610564Y-47965357D01*
X122836841Y-48032243D01*
X123048438Y-48128212D01*
X123151726Y-48189955D01*
X123350699Y-48341003D01*
X123523077Y-48515431D01*
X123667165Y-48710874D01*
X123781270Y-48924967D01*
X123863697Y-49155345D01*
X123875502Y-49200217D01*
X123901428Y-49343381D01*
X123915451Y-49507854D01*
X123917566Y-49680842D01*
X123907770Y-49849550D01*
X123886055Y-50001184D01*
X123875828Y-50047096D01*
X123805623Y-50267214D01*
X123708318Y-50467350D01*
X123580984Y-50652502D01*
X123420696Y-50827668D01*
X123416044Y-50832152D01*
X123249778Y-50977349D01*
X123082465Y-51092451D01*
X122905483Y-51182849D01*
X122774876Y-51233076D01*
X122545611Y-51293726D01*
X122308541Y-51323456D01*
X122072338Y-51321579D01*
X121912743Y-51301200D01*
X121687431Y-51242581D01*
X121471407Y-51151750D01*
X121268424Y-51031974D01*
X121082231Y-50886521D01*
X120916580Y-50718658D01*
X120775222Y-50531653D01*
X120661908Y-50328774D01*
X120591783Y-50150486D01*
X120558058Y-50035310D01*
X120535360Y-49929530D01*
X120522373Y-49822005D01*
X120517783Y-49701590D01*
X120519209Y-49618853D01*
X120824486Y-49618853D01*
X120833032Y-49795228D01*
X120859928Y-49951611D01*
X120908078Y-50100843D01*
X120958979Y-50213986D01*
X121076347Y-50412305D01*
X121218231Y-50583945D01*
X121385326Y-50729599D01*
X121578326Y-50849961D01*
X121615585Y-50868854D01*
X121727204Y-50920119D01*
X121827225Y-50956644D01*
X121925693Y-50980390D01*
X122032652Y-50993315D01*
X122158148Y-50997382D01*
X122266528Y-50995901D01*
X122382383Y-50991662D01*
X122471021Y-50985073D01*
X122541489Y-50974994D01*
X122602836Y-50960287D01*
X122638065Y-50949097D01*
X122803052Y-50884243D01*
X122946214Y-50807801D01*
X123079274Y-50712462D01*
X123213952Y-50590917D01*
X123216605Y-50588305D01*
X123294937Y-50506868D01*
X123358061Y-50432868D01*
X123403032Y-50370415D01*
X123426907Y-50323621D01*
X123426742Y-50296596D01*
X123426031Y-50295819D01*
X123405310Y-50283932D01*
X123358057Y-50260744D01*
X123290882Y-50229212D01*
X123210392Y-50192297D01*
X123123195Y-50152958D01*
X123035900Y-50114155D01*
X122955116Y-50078846D01*
X122887449Y-50049992D01*
X122839509Y-50030552D01*
X122817947Y-50023486D01*
X122804063Y-50038731D01*
X122787058Y-50075926D01*
X122785300Y-50080835D01*
X122732469Y-50179438D01*
X122650008Y-50264817D01*
X122543531Y-50332375D01*
X122424808Y-50375975D01*
X122339100Y-50397894D01*
X122336976Y-50523654D01*
X122334853Y-50649414D01*
X122139528Y-50649414D01*
X122128958Y-50390860D01*
X122022266Y-50378789D01*
X121927275Y-50357640D01*
X121822510Y-50318014D01*
X121724061Y-50266883D01*
X121659966Y-50221797D01*
X121615831Y-50184661D01*
X121736451Y-50064041D01*
X121857071Y-49943422D01*
X121898740Y-49982567D01*
X121970444Y-50033020D01*
X122059033Y-50070462D01*
X122154897Y-50093279D01*
X122248426Y-50099857D01*
X122330008Y-50088582D01*
X122382683Y-50063829D01*
X122412372Y-50035261D01*
X122426306Y-49998967D01*
X122429814Y-49940937D01*
X122429814Y-49939920D01*
X122427709Y-49885330D01*
X122416740Y-49853713D01*
X122389923Y-49831805D01*
X122366314Y-49819302D01*
X122315455Y-49794846D01*
X122240145Y-49760105D01*
X122144473Y-49716854D01*
X122032526Y-49666870D01*
X121908393Y-49611928D01*
X121776160Y-49553803D01*
X121639915Y-49494271D01*
X121503745Y-49435107D01*
X121371740Y-49378087D01*
X121247985Y-49324987D01*
X121136569Y-49277582D01*
X121041580Y-49237648D01*
X120967105Y-49206960D01*
X120917231Y-49187294D01*
X120896046Y-49180425D01*
X120895679Y-49180500D01*
X120880194Y-49206529D01*
X120864446Y-49260886D01*
X120849723Y-49335642D01*
X120837312Y-49422875D01*
X120828499Y-49514656D01*
X120824574Y-49603061D01*
X120824486Y-49618853D01*
X120519209Y-49618853D01*
X120520273Y-49557144D01*
X120520616Y-49547568D01*
X120540645Y-49318114D01*
X120584587Y-49111214D01*
X120654869Y-48920179D01*
X120692329Y-48851402D01*
X121060230Y-48851402D01*
X121075766Y-48868131D01*
X121116322Y-48892815D01*
X121173144Y-48920132D01*
X121173622Y-48920339D01*
X121237091Y-48947998D01*
X121321729Y-48985191D01*
X121415576Y-49026652D01*
X121490974Y-49060120D01*
X121695134Y-49150976D01*
X121731860Y-49078987D01*
X121797079Y-48990938D01*
X121893388Y-48921184D01*
X122020396Y-48869978D01*
X122080564Y-48854555D01*
X122106679Y-48846955D01*
X122121597Y-48832900D01*
X122128450Y-48803747D01*
X122130369Y-48750857D01*
X122130457Y-48716854D01*
X122130457Y-48590200D01*
X122330028Y-48590200D01*
X122330028Y-48842556D01*
X122398064Y-48853708D01*
X122480714Y-48872862D01*
X122569044Y-48902224D01*
X122649914Y-48936734D01*
X122710184Y-48971333D01*
X122716985Y-48976497D01*
X122766983Y-49016557D01*
X122548221Y-49232663D01*
X122462296Y-49190917D01*
X122369613Y-49156382D01*
X122277075Y-49140211D01*
X122191522Y-49141688D01*
X122119795Y-49160096D01*
X122068734Y-49194719D01*
X122047160Y-49234404D01*
X122043520Y-49275264D01*
X122051050Y-49298173D01*
X122070820Y-49308979D01*
X122119675Y-49332467D01*
X122193503Y-49366810D01*
X122288196Y-49410176D01*
X122399646Y-49460738D01*
X122523742Y-49516664D01*
X122656375Y-49576127D01*
X122793437Y-49637296D01*
X122930818Y-49698342D01*
X123064409Y-49757436D01*
X123190101Y-49812747D01*
X123303784Y-49862448D01*
X123401350Y-49904708D01*
X123478689Y-49937698D01*
X123531691Y-49959588D01*
X123556249Y-49968549D01*
X123557092Y-49968669D01*
X123575342Y-49953383D01*
X123588429Y-49919164D01*
X123610611Y-49756935D01*
X123613127Y-49578293D01*
X123596774Y-49396788D01*
X123562353Y-49225970D01*
X123543903Y-49164269D01*
X123468941Y-48991402D01*
X123363172Y-48823990D01*
X123232073Y-48667828D01*
X123081122Y-48528712D01*
X122915795Y-48412438D01*
X122756348Y-48330893D01*
X122554392Y-48265172D01*
X122343143Y-48232100D01*
X122128163Y-48231222D01*
X121915015Y-48262081D01*
X121709261Y-48324222D01*
X121516466Y-48417189D01*
X121487201Y-48434888D01*
X121431557Y-48474176D01*
X121365594Y-48527820D01*
X121294794Y-48590470D01*
X121224644Y-48656776D01*
X121160628Y-48721387D01*
X121108231Y-48778954D01*
X121072938Y-48824125D01*
X121060230Y-48851402D01*
X120692329Y-48851402D01*
X120753919Y-48738323D01*
X120875643Y-48569502D01*
X121022339Y-48408792D01*
X121188883Y-48264584D01*
X121367918Y-48142139D01*
X121552089Y-48046717D01*
X121668446Y-48002519D01*
X121898549Y-47946136D01*
X122135929Y-47921610D01*
X122375097Y-47928248D01*
G37*
X122375097Y-47928248D02*
X122610564Y-47965357D01*
X122836841Y-48032243D01*
X123048438Y-48128212D01*
X123151726Y-48189955D01*
X123350699Y-48341003D01*
X123523077Y-48515431D01*
X123667165Y-48710874D01*
X123781270Y-48924967D01*
X123863697Y-49155345D01*
X123875502Y-49200217D01*
X123901428Y-49343381D01*
X123915451Y-49507854D01*
X123917566Y-49680842D01*
X123907770Y-49849550D01*
X123886055Y-50001184D01*
X123875828Y-50047096D01*
X123805623Y-50267214D01*
X123708318Y-50467350D01*
X123580984Y-50652502D01*
X123420696Y-50827668D01*
X123416044Y-50832152D01*
X123249778Y-50977349D01*
X123082465Y-51092451D01*
X122905483Y-51182849D01*
X122774876Y-51233076D01*
X122545611Y-51293726D01*
X122308541Y-51323456D01*
X122072338Y-51321579D01*
X121912743Y-51301200D01*
X121687431Y-51242581D01*
X121471407Y-51151750D01*
X121268424Y-51031974D01*
X121082231Y-50886521D01*
X120916580Y-50718658D01*
X120775222Y-50531653D01*
X120661908Y-50328774D01*
X120591783Y-50150486D01*
X120558058Y-50035310D01*
X120535360Y-49929530D01*
X120522373Y-49822005D01*
X120517783Y-49701590D01*
X120519209Y-49618853D01*
X120824486Y-49618853D01*
X120833032Y-49795228D01*
X120859928Y-49951611D01*
X120908078Y-50100843D01*
X120958979Y-50213986D01*
X121076347Y-50412305D01*
X121218231Y-50583945D01*
X121385326Y-50729599D01*
X121578326Y-50849961D01*
X121615585Y-50868854D01*
X121727204Y-50920119D01*
X121827225Y-50956644D01*
X121925693Y-50980390D01*
X122032652Y-50993315D01*
X122158148Y-50997382D01*
X122266528Y-50995901D01*
X122382383Y-50991662D01*
X122471021Y-50985073D01*
X122541489Y-50974994D01*
X122602836Y-50960287D01*
X122638065Y-50949097D01*
X122803052Y-50884243D01*
X122946214Y-50807801D01*
X123079274Y-50712462D01*
X123213952Y-50590917D01*
X123216605Y-50588305D01*
X123294937Y-50506868D01*
X123358061Y-50432868D01*
X123403032Y-50370415D01*
X123426907Y-50323621D01*
X123426742Y-50296596D01*
X123426031Y-50295819D01*
X123405310Y-50283932D01*
X123358057Y-50260744D01*
X123290882Y-50229212D01*
X123210392Y-50192297D01*
X123123195Y-50152958D01*
X123035900Y-50114155D01*
X122955116Y-50078846D01*
X122887449Y-50049992D01*
X122839509Y-50030552D01*
X122817947Y-50023486D01*
X122804063Y-50038731D01*
X122787058Y-50075926D01*
X122785300Y-50080835D01*
X122732469Y-50179438D01*
X122650008Y-50264817D01*
X122543531Y-50332375D01*
X122424808Y-50375975D01*
X122339100Y-50397894D01*
X122336976Y-50523654D01*
X122334853Y-50649414D01*
X122139528Y-50649414D01*
X122128958Y-50390860D01*
X122022266Y-50378789D01*
X121927275Y-50357640D01*
X121822510Y-50318014D01*
X121724061Y-50266883D01*
X121659966Y-50221797D01*
X121615831Y-50184661D01*
X121736451Y-50064041D01*
X121857071Y-49943422D01*
X121898740Y-49982567D01*
X121970444Y-50033020D01*
X122059033Y-50070462D01*
X122154897Y-50093279D01*
X122248426Y-50099857D01*
X122330008Y-50088582D01*
X122382683Y-50063829D01*
X122412372Y-50035261D01*
X122426306Y-49998967D01*
X122429814Y-49940937D01*
X122429814Y-49939920D01*
X122427709Y-49885330D01*
X122416740Y-49853713D01*
X122389923Y-49831805D01*
X122366314Y-49819302D01*
X122315455Y-49794846D01*
X122240145Y-49760105D01*
X122144473Y-49716854D01*
X122032526Y-49666870D01*
X121908393Y-49611928D01*
X121776160Y-49553803D01*
X121639915Y-49494271D01*
X121503745Y-49435107D01*
X121371740Y-49378087D01*
X121247985Y-49324987D01*
X121136569Y-49277582D01*
X121041580Y-49237648D01*
X120967105Y-49206960D01*
X120917231Y-49187294D01*
X120896046Y-49180425D01*
X120895679Y-49180500D01*
X120880194Y-49206529D01*
X120864446Y-49260886D01*
X120849723Y-49335642D01*
X120837312Y-49422875D01*
X120828499Y-49514656D01*
X120824574Y-49603061D01*
X120824486Y-49618853D01*
X120519209Y-49618853D01*
X120520273Y-49557144D01*
X120520616Y-49547568D01*
X120540645Y-49318114D01*
X120584587Y-49111214D01*
X120654869Y-48920179D01*
X120692329Y-48851402D01*
X121060230Y-48851402D01*
X121075766Y-48868131D01*
X121116322Y-48892815D01*
X121173144Y-48920132D01*
X121173622Y-48920339D01*
X121237091Y-48947998D01*
X121321729Y-48985191D01*
X121415576Y-49026652D01*
X121490974Y-49060120D01*
X121695134Y-49150976D01*
X121731860Y-49078987D01*
X121797079Y-48990938D01*
X121893388Y-48921184D01*
X122020396Y-48869978D01*
X122080564Y-48854555D01*
X122106679Y-48846955D01*
X122121597Y-48832900D01*
X122128450Y-48803747D01*
X122130369Y-48750857D01*
X122130457Y-48716854D01*
X122130457Y-48590200D01*
X122330028Y-48590200D01*
X122330028Y-48842556D01*
X122398064Y-48853708D01*
X122480714Y-48872862D01*
X122569044Y-48902224D01*
X122649914Y-48936734D01*
X122710184Y-48971333D01*
X122716985Y-48976497D01*
X122766983Y-49016557D01*
X122548221Y-49232663D01*
X122462296Y-49190917D01*
X122369613Y-49156382D01*
X122277075Y-49140211D01*
X122191522Y-49141688D01*
X122119795Y-49160096D01*
X122068734Y-49194719D01*
X122047160Y-49234404D01*
X122043520Y-49275264D01*
X122051050Y-49298173D01*
X122070820Y-49308979D01*
X122119675Y-49332467D01*
X122193503Y-49366810D01*
X122288196Y-49410176D01*
X122399646Y-49460738D01*
X122523742Y-49516664D01*
X122656375Y-49576127D01*
X122793437Y-49637296D01*
X122930818Y-49698342D01*
X123064409Y-49757436D01*
X123190101Y-49812747D01*
X123303784Y-49862448D01*
X123401350Y-49904708D01*
X123478689Y-49937698D01*
X123531691Y-49959588D01*
X123556249Y-49968549D01*
X123557092Y-49968669D01*
X123575342Y-49953383D01*
X123588429Y-49919164D01*
X123610611Y-49756935D01*
X123613127Y-49578293D01*
X123596774Y-49396788D01*
X123562353Y-49225970D01*
X123543903Y-49164269D01*
X123468941Y-48991402D01*
X123363172Y-48823990D01*
X123232073Y-48667828D01*
X123081122Y-48528712D01*
X122915795Y-48412438D01*
X122756348Y-48330893D01*
X122554392Y-48265172D01*
X122343143Y-48232100D01*
X122128163Y-48231222D01*
X121915015Y-48262081D01*
X121709261Y-48324222D01*
X121516466Y-48417189D01*
X121487201Y-48434888D01*
X121431557Y-48474176D01*
X121365594Y-48527820D01*
X121294794Y-48590470D01*
X121224644Y-48656776D01*
X121160628Y-48721387D01*
X121108231Y-48778954D01*
X121072938Y-48824125D01*
X121060230Y-48851402D01*
X120692329Y-48851402D01*
X120753919Y-48738323D01*
X120875643Y-48569502D01*
X121022339Y-48408792D01*
X121188883Y-48264584D01*
X121367918Y-48142139D01*
X121552089Y-48046717D01*
X121668446Y-48002519D01*
X121898549Y-47946136D01*
X122135929Y-47921610D01*
X122375097Y-47928248D01*
G36*
X126041442Y-47928265D02*
G01*
X126286589Y-47967710D01*
X126421243Y-48004291D01*
X126639862Y-48091262D01*
X126845207Y-48210516D01*
X127033896Y-48359423D01*
X127202545Y-48535356D01*
X127333483Y-48713207D01*
X127442521Y-48914605D01*
X127521369Y-49131326D01*
X127570061Y-49358617D01*
X127588629Y-49591721D01*
X127577108Y-49825882D01*
X127535531Y-50056344D01*
X127463930Y-50278353D01*
X127362340Y-50487151D01*
X127320576Y-50554898D01*
X127181765Y-50735768D01*
X127014986Y-50899509D01*
X126826171Y-51041925D01*
X126621255Y-51158815D01*
X126406173Y-51245982D01*
X126301382Y-51275953D01*
X126133754Y-51306778D01*
X125952377Y-51321924D01*
X125770861Y-51321079D01*
X125602817Y-51303933D01*
X125545940Y-51293212D01*
X125312087Y-51227411D01*
X125099688Y-51135222D01*
X124903781Y-51013844D01*
X124719406Y-50860478D01*
X124640765Y-50782254D01*
X124482335Y-50591878D01*
X124356968Y-50386631D01*
X124264891Y-50167079D01*
X124206330Y-49933789D01*
X124181511Y-49687330D01*
X124180600Y-49628440D01*
X124181435Y-49614153D01*
X124491854Y-49614153D01*
X124495358Y-49753054D01*
X124509320Y-49876871D01*
X124515259Y-49907555D01*
X124577245Y-50110850D01*
X124670513Y-50301555D01*
X124791497Y-50476400D01*
X124936633Y-50632118D01*
X125102355Y-50765441D01*
X125285098Y-50873100D01*
X125481298Y-50951826D01*
X125687389Y-50998353D01*
X125708099Y-51001072D01*
X125865950Y-51009879D01*
X126035378Y-51001419D01*
X126196803Y-50976951D01*
X126239671Y-50966951D01*
X126427478Y-50901599D01*
X126610222Y-50805182D01*
X126781035Y-50682879D01*
X126933049Y-50539865D01*
X127059394Y-50381317D01*
X127098152Y-50319939D01*
X127184162Y-50139859D01*
X127243416Y-49941849D01*
X127274911Y-49733545D01*
X127277643Y-49522581D01*
X127250607Y-49316590D01*
X127237466Y-49260456D01*
X127170493Y-49070623D01*
X127071934Y-48888792D01*
X126946416Y-48720602D01*
X126798560Y-48571693D01*
X126632992Y-48447704D01*
X126518119Y-48383173D01*
X126387885Y-48323444D01*
X126273060Y-48281940D01*
X126161043Y-48255764D01*
X126039232Y-48242017D01*
X125895024Y-48237800D01*
X125886028Y-48237787D01*
X125709395Y-48245008D01*
X125554848Y-48268623D01*
X125410851Y-48311380D01*
X125265869Y-48376027D01*
X125232885Y-48393358D01*
X125053417Y-48509779D01*
X124890649Y-48654906D01*
X124749105Y-48823262D01*
X124633308Y-49009372D01*
X124547780Y-49207759D01*
X124539565Y-49232762D01*
X124514411Y-49341426D01*
X124498356Y-49472751D01*
X124491854Y-49614153D01*
X124181435Y-49614153D01*
X124194902Y-49383768D01*
X124238855Y-49157569D01*
X124314030Y-48945334D01*
X124421996Y-48742555D01*
X124553297Y-48558396D01*
X124720383Y-48377535D01*
X124907658Y-48225466D01*
X125112112Y-48103081D01*
X125330729Y-48011275D01*
X125560499Y-47950941D01*
X125798407Y-47922973D01*
X126041442Y-47928265D01*
G37*
X126041442Y-47928265D02*
X126286589Y-47967710D01*
X126421243Y-48004291D01*
X126639862Y-48091262D01*
X126845207Y-48210516D01*
X127033896Y-48359423D01*
X127202545Y-48535356D01*
X127333483Y-48713207D01*
X127442521Y-48914605D01*
X127521369Y-49131326D01*
X127570061Y-49358617D01*
X127588629Y-49591721D01*
X127577108Y-49825882D01*
X127535531Y-50056344D01*
X127463930Y-50278353D01*
X127362340Y-50487151D01*
X127320576Y-50554898D01*
X127181765Y-50735768D01*
X127014986Y-50899509D01*
X126826171Y-51041925D01*
X126621255Y-51158815D01*
X126406173Y-51245982D01*
X126301382Y-51275953D01*
X126133754Y-51306778D01*
X125952377Y-51321924D01*
X125770861Y-51321079D01*
X125602817Y-51303933D01*
X125545940Y-51293212D01*
X125312087Y-51227411D01*
X125099688Y-51135222D01*
X124903781Y-51013844D01*
X124719406Y-50860478D01*
X124640765Y-50782254D01*
X124482335Y-50591878D01*
X124356968Y-50386631D01*
X124264891Y-50167079D01*
X124206330Y-49933789D01*
X124181511Y-49687330D01*
X124180600Y-49628440D01*
X124181435Y-49614153D01*
X124491854Y-49614153D01*
X124495358Y-49753054D01*
X124509320Y-49876871D01*
X124515259Y-49907555D01*
X124577245Y-50110850D01*
X124670513Y-50301555D01*
X124791497Y-50476400D01*
X124936633Y-50632118D01*
X125102355Y-50765441D01*
X125285098Y-50873100D01*
X125481298Y-50951826D01*
X125687389Y-50998353D01*
X125708099Y-51001072D01*
X125865950Y-51009879D01*
X126035378Y-51001419D01*
X126196803Y-50976951D01*
X126239671Y-50966951D01*
X126427478Y-50901599D01*
X126610222Y-50805182D01*
X126781035Y-50682879D01*
X126933049Y-50539865D01*
X127059394Y-50381317D01*
X127098152Y-50319939D01*
X127184162Y-50139859D01*
X127243416Y-49941849D01*
X127274911Y-49733545D01*
X127277643Y-49522581D01*
X127250607Y-49316590D01*
X127237466Y-49260456D01*
X127170493Y-49070623D01*
X127071934Y-48888792D01*
X126946416Y-48720602D01*
X126798560Y-48571693D01*
X126632992Y-48447704D01*
X126518119Y-48383173D01*
X126387885Y-48323444D01*
X126273060Y-48281940D01*
X126161043Y-48255764D01*
X126039232Y-48242017D01*
X125895024Y-48237800D01*
X125886028Y-48237787D01*
X125709395Y-48245008D01*
X125554848Y-48268623D01*
X125410851Y-48311380D01*
X125265869Y-48376027D01*
X125232885Y-48393358D01*
X125053417Y-48509779D01*
X124890649Y-48654906D01*
X124749105Y-48823262D01*
X124633308Y-49009372D01*
X124547780Y-49207759D01*
X124539565Y-49232762D01*
X124514411Y-49341426D01*
X124498356Y-49472751D01*
X124491854Y-49614153D01*
X124181435Y-49614153D01*
X124194902Y-49383768D01*
X124238855Y-49157569D01*
X124314030Y-48945334D01*
X124421996Y-48742555D01*
X124553297Y-48558396D01*
X124720383Y-48377535D01*
X124907658Y-48225466D01*
X125112112Y-48103081D01*
X125330729Y-48011275D01*
X125560499Y-47950941D01*
X125798407Y-47922973D01*
X126041442Y-47928265D01*
G36*
X114526647Y-49105761D02*
G01*
X114613154Y-49123361D01*
X114621569Y-49126165D01*
X114670065Y-49150233D01*
X114725769Y-49187997D01*
X114780192Y-49232257D01*
X114824849Y-49275810D01*
X114851252Y-49311454D01*
X114854956Y-49324227D01*
X114840080Y-49341874D01*
X114801299Y-49369924D01*
X114747348Y-49402112D01*
X114639955Y-49461096D01*
X114601509Y-49407103D01*
X114541765Y-49352117D01*
X114466600Y-49325961D01*
X114385819Y-49331380D01*
X114361317Y-49339839D01*
X114298512Y-49377886D01*
X114256799Y-49433923D01*
X114232540Y-49514257D01*
X114224880Y-49576365D01*
X114225492Y-49692367D01*
X114248993Y-49783282D01*
X114296599Y-49853126D01*
X114313489Y-49868678D01*
X114378978Y-49904308D01*
X114453687Y-49915561D01*
X114527016Y-49903738D01*
X114588366Y-49870142D01*
X114620387Y-49830982D01*
X114641876Y-49800872D01*
X114668713Y-49790565D01*
X114708482Y-49800442D01*
X114768767Y-49830886D01*
X114783496Y-49839215D01*
X114873820Y-49890802D01*
X114798786Y-49976045D01*
X114711629Y-50059043D01*
X114619186Y-50111428D01*
X114511038Y-50138157D01*
X114446957Y-50143488D01*
X114373795Y-50144234D01*
X114307556Y-50140865D01*
X114265528Y-50134699D01*
X114152371Y-50087218D01*
X114054417Y-50010886D01*
X113978883Y-49912246D01*
X113947912Y-49846652D01*
X113918220Y-49724126D01*
X113912547Y-49589703D01*
X113930852Y-49458653D01*
X113949045Y-49399005D01*
X113996703Y-49310158D01*
X114066669Y-49227520D01*
X114148995Y-49160838D01*
X114233733Y-49119859D01*
X114234036Y-49119768D01*
X114320749Y-49103694D01*
X114423732Y-49099115D01*
X114526647Y-49105761D01*
G37*
X114526647Y-49105761D02*
X114613154Y-49123361D01*
X114621569Y-49126165D01*
X114670065Y-49150233D01*
X114725769Y-49187997D01*
X114780192Y-49232257D01*
X114824849Y-49275810D01*
X114851252Y-49311454D01*
X114854956Y-49324227D01*
X114840080Y-49341874D01*
X114801299Y-49369924D01*
X114747348Y-49402112D01*
X114639955Y-49461096D01*
X114601509Y-49407103D01*
X114541765Y-49352117D01*
X114466600Y-49325961D01*
X114385819Y-49331380D01*
X114361317Y-49339839D01*
X114298512Y-49377886D01*
X114256799Y-49433923D01*
X114232540Y-49514257D01*
X114224880Y-49576365D01*
X114225492Y-49692367D01*
X114248993Y-49783282D01*
X114296599Y-49853126D01*
X114313489Y-49868678D01*
X114378978Y-49904308D01*
X114453687Y-49915561D01*
X114527016Y-49903738D01*
X114588366Y-49870142D01*
X114620387Y-49830982D01*
X114641876Y-49800872D01*
X114668713Y-49790565D01*
X114708482Y-49800442D01*
X114768767Y-49830886D01*
X114783496Y-49839215D01*
X114873820Y-49890802D01*
X114798786Y-49976045D01*
X114711629Y-50059043D01*
X114619186Y-50111428D01*
X114511038Y-50138157D01*
X114446957Y-50143488D01*
X114373795Y-50144234D01*
X114307556Y-50140865D01*
X114265528Y-50134699D01*
X114152371Y-50087218D01*
X114054417Y-50010886D01*
X113978883Y-49912246D01*
X113947912Y-49846652D01*
X113918220Y-49724126D01*
X113912547Y-49589703D01*
X113930852Y-49458653D01*
X113949045Y-49399005D01*
X113996703Y-49310158D01*
X114066669Y-49227520D01*
X114148995Y-49160838D01*
X114233733Y-49119859D01*
X114234036Y-49119768D01*
X114320749Y-49103694D01*
X114423732Y-49099115D01*
X114526647Y-49105761D01*
G36*
X115445462Y-49100404D02*
G01*
X115552050Y-49114954D01*
X115643676Y-49142207D01*
X115676931Y-49158549D01*
X115731485Y-49196377D01*
X115781612Y-49241034D01*
X115820519Y-49285107D01*
X115841416Y-49321181D01*
X115841435Y-49338137D01*
X115821469Y-49353541D01*
X115778599Y-49378870D01*
X115729242Y-49404970D01*
X115626243Y-49456929D01*
X115592824Y-49412547D01*
X115552786Y-49373834D01*
X115501264Y-49340473D01*
X115498203Y-49338979D01*
X115423101Y-49321570D01*
X115347506Y-49334913D01*
X115282734Y-49375668D01*
X115254335Y-49410956D01*
X115218396Y-49498761D01*
X115205009Y-49598752D01*
X115213306Y-49700132D01*
X115242418Y-49792102D01*
X115290675Y-49863067D01*
X115329200Y-49895169D01*
X115370632Y-49910481D01*
X115430867Y-49914613D01*
X115436740Y-49914629D01*
X115496573Y-49911764D01*
X115537087Y-49898448D01*
X115575094Y-49867600D01*
X115593534Y-49848582D01*
X115655824Y-49782535D01*
X115746546Y-49825026D01*
X115798410Y-49851096D01*
X115835332Y-49872965D01*
X115846417Y-49882324D01*
X115842819Y-49907989D01*
X115816168Y-49947455D01*
X115773147Y-49993728D01*
X115720439Y-50039816D01*
X115664728Y-50078724D01*
X115651474Y-50086314D01*
X115546554Y-50126378D01*
X115425812Y-50145438D01*
X115303870Y-50142233D01*
X115218028Y-50123693D01*
X115108060Y-50069484D01*
X115016955Y-49985130D01*
X114952222Y-49883449D01*
X114926330Y-49825117D01*
X114911055Y-49772176D01*
X114903766Y-49711003D01*
X114901828Y-49627976D01*
X114901824Y-49622734D01*
X114903345Y-49540001D01*
X114909748Y-49480021D01*
X114923794Y-49429327D01*
X114948246Y-49374447D01*
X114955793Y-49359501D01*
X115026204Y-49255419D01*
X115116732Y-49173983D01*
X115220277Y-49121276D01*
X115241470Y-49114840D01*
X115337430Y-49099914D01*
X115445462Y-49100404D01*
G37*
X115445462Y-49100404D02*
X115552050Y-49114954D01*
X115643676Y-49142207D01*
X115676931Y-49158549D01*
X115731485Y-49196377D01*
X115781612Y-49241034D01*
X115820519Y-49285107D01*
X115841416Y-49321181D01*
X115841435Y-49338137D01*
X115821469Y-49353541D01*
X115778599Y-49378870D01*
X115729242Y-49404970D01*
X115626243Y-49456929D01*
X115592824Y-49412547D01*
X115552786Y-49373834D01*
X115501264Y-49340473D01*
X115498203Y-49338979D01*
X115423101Y-49321570D01*
X115347506Y-49334913D01*
X115282734Y-49375668D01*
X115254335Y-49410956D01*
X115218396Y-49498761D01*
X115205009Y-49598752D01*
X115213306Y-49700132D01*
X115242418Y-49792102D01*
X115290675Y-49863067D01*
X115329200Y-49895169D01*
X115370632Y-49910481D01*
X115430867Y-49914613D01*
X115436740Y-49914629D01*
X115496573Y-49911764D01*
X115537087Y-49898448D01*
X115575094Y-49867600D01*
X115593534Y-49848582D01*
X115655824Y-49782535D01*
X115746546Y-49825026D01*
X115798410Y-49851096D01*
X115835332Y-49872965D01*
X115846417Y-49882324D01*
X115842819Y-49907989D01*
X115816168Y-49947455D01*
X115773147Y-49993728D01*
X115720439Y-50039816D01*
X115664728Y-50078724D01*
X115651474Y-50086314D01*
X115546554Y-50126378D01*
X115425812Y-50145438D01*
X115303870Y-50142233D01*
X115218028Y-50123693D01*
X115108060Y-50069484D01*
X115016955Y-49985130D01*
X114952222Y-49883449D01*
X114926330Y-49825117D01*
X114911055Y-49772176D01*
X114903766Y-49711003D01*
X114901828Y-49627976D01*
X114901824Y-49622734D01*
X114903345Y-49540001D01*
X114909748Y-49480021D01*
X114923794Y-49429327D01*
X114948246Y-49374447D01*
X114955793Y-49359501D01*
X115026204Y-49255419D01*
X115116732Y-49173983D01*
X115220277Y-49121276D01*
X115241470Y-49114840D01*
X115337430Y-49099914D01*
X115445462Y-49100404D01*
G36*
X118685825Y-49098535D02*
G01*
X118788039Y-49099742D01*
X118863133Y-49102125D01*
X118915689Y-49105989D01*
X118950285Y-49111637D01*
X118971504Y-49119374D01*
X118981375Y-49126710D01*
X118991227Y-49141494D01*
X118998580Y-49166600D01*
X119003774Y-49206804D01*
X119007151Y-49266881D01*
X119009053Y-49351607D01*
X119009820Y-49465759D01*
X119009885Y-49525853D01*
X119009885Y-49896486D01*
X118810314Y-49896486D01*
X118810314Y-50731057D01*
X118284171Y-50731057D01*
X118284171Y-49896486D01*
X118084600Y-49896486D01*
X118084600Y-49527369D01*
X118084859Y-49401506D01*
X118085912Y-49306927D01*
X118088177Y-49238634D01*
X118092067Y-49191629D01*
X118097998Y-49160911D01*
X118106387Y-49141483D01*
X118117648Y-49128344D01*
X118117778Y-49128226D01*
X118132841Y-49118271D01*
X118156246Y-49110749D01*
X118192710Y-49105332D01*
X118246948Y-49101695D01*
X118323679Y-49099512D01*
X118427617Y-49098456D01*
X118551911Y-49098200D01*
X118685825Y-49098535D01*
G37*
X118685825Y-49098535D02*
X118788039Y-49099742D01*
X118863133Y-49102125D01*
X118915689Y-49105989D01*
X118950285Y-49111637D01*
X118971504Y-49119374D01*
X118981375Y-49126710D01*
X118991227Y-49141494D01*
X118998580Y-49166600D01*
X119003774Y-49206804D01*
X119007151Y-49266881D01*
X119009053Y-49351607D01*
X119009820Y-49465759D01*
X119009885Y-49525853D01*
X119009885Y-49896486D01*
X118810314Y-49896486D01*
X118810314Y-50731057D01*
X118284171Y-50731057D01*
X118284171Y-49896486D01*
X118084600Y-49896486D01*
X118084600Y-49527369D01*
X118084859Y-49401506D01*
X118085912Y-49306927D01*
X118088177Y-49238634D01*
X118092067Y-49191629D01*
X118097998Y-49160911D01*
X118106387Y-49141483D01*
X118117648Y-49128344D01*
X118117778Y-49128226D01*
X118132841Y-49118271D01*
X118156246Y-49110749D01*
X118192710Y-49105332D01*
X118246948Y-49101695D01*
X118323679Y-49099512D01*
X118427617Y-49098456D01*
X118551911Y-49098200D01*
X118685825Y-49098535D01*
G36*
X118611771Y-48524994D02*
G01*
X118689534Y-48554799D01*
X118725767Y-48583172D01*
X118768115Y-48648739D01*
X118786680Y-48729213D01*
X118782175Y-48813691D01*
X118755313Y-48891267D01*
X118706806Y-48951036D01*
X118701445Y-48955139D01*
X118636144Y-48985228D01*
X118554337Y-48998677D01*
X118472826Y-48993244D01*
X118453134Y-48988275D01*
X118387264Y-48955422D01*
X118345004Y-48901637D01*
X118323936Y-48822736D01*
X118320457Y-48758715D01*
X118322275Y-48691892D01*
X118330324Y-48648582D01*
X118348499Y-48616089D01*
X118372156Y-48590139D01*
X118442321Y-48542875D01*
X118525779Y-48521090D01*
X118611771Y-48524994D01*
G37*
X118611771Y-48524994D02*
X118689534Y-48554799D01*
X118725767Y-48583172D01*
X118768115Y-48648739D01*
X118786680Y-48729213D01*
X118782175Y-48813691D01*
X118755313Y-48891267D01*
X118706806Y-48951036D01*
X118701445Y-48955139D01*
X118636144Y-48985228D01*
X118554337Y-48998677D01*
X118472826Y-48993244D01*
X118453134Y-48988275D01*
X118387264Y-48955422D01*
X118345004Y-48901637D01*
X118323936Y-48822736D01*
X118320457Y-48758715D01*
X118322275Y-48691892D01*
X118330324Y-48648582D01*
X118348499Y-48616089D01*
X118372156Y-48590139D01*
X118442321Y-48542875D01*
X118525779Y-48521090D01*
X118611771Y-48524994D01*
G36*
X126002263Y-48737108D02*
G01*
X126126636Y-48756543D01*
X126179444Y-48770592D01*
X126328963Y-48835806D01*
X126460057Y-48930363D01*
X126570117Y-49050948D01*
X126656537Y-49194248D01*
X126716709Y-49356949D01*
X126742597Y-49486332D01*
X126753233Y-49680857D01*
X126732271Y-49863756D01*
X126680430Y-50032075D01*
X126598427Y-50182858D01*
X126561382Y-50232624D01*
X126437705Y-50358347D01*
X126294581Y-50454640D01*
X126135540Y-50520161D01*
X125964112Y-50553565D01*
X125783828Y-50553507D01*
X125734315Y-50547612D01*
X125581063Y-50507954D01*
X125442760Y-50437364D01*
X125323361Y-50339494D01*
X125226823Y-50217992D01*
X125157104Y-50076508D01*
X125131680Y-49991736D01*
X125109158Y-49896486D01*
X125537006Y-49896486D01*
X125557031Y-49976010D01*
X125591972Y-50052370D01*
X125650867Y-50120818D01*
X125722573Y-50169750D01*
X125754825Y-50181973D01*
X125800207Y-50189524D01*
X125865201Y-50194432D01*
X125915030Y-50195537D01*
X126023661Y-50181145D01*
X126114256Y-50137185D01*
X126190332Y-50061488D01*
X126229314Y-50001972D01*
X126276843Y-49892079D01*
X126305492Y-49767605D01*
X126315833Y-49636110D01*
X126308437Y-49505152D01*
X126283876Y-49382291D01*
X126242721Y-49275085D01*
X126185546Y-49191095D01*
X126166587Y-49172629D01*
X126077083Y-49116996D01*
X125970925Y-49088051D01*
X125856970Y-49086674D01*
X125744072Y-49113748D01*
X125712062Y-49127394D01*
X125651318Y-49170948D01*
X125598247Y-49234385D01*
X125563326Y-49303829D01*
X125556280Y-49333679D01*
X125558727Y-49368002D01*
X125584696Y-49384475D01*
X125600831Y-49388108D01*
X125620584Y-49392949D01*
X125629018Y-49401216D01*
X125623266Y-49417268D01*
X125600459Y-49445462D01*
X125557731Y-49490159D01*
X125492214Y-49555716D01*
X125487438Y-49560465D01*
X125323600Y-49723372D01*
X125159720Y-49560465D01*
X124995839Y-49397557D01*
X125055398Y-49388486D01*
X125093750Y-49378369D01*
X125117064Y-49355903D01*
X125135122Y-49310467D01*
X125138939Y-49297771D01*
X125202588Y-49130892D01*
X125287213Y-48993330D01*
X125393546Y-48884290D01*
X125522319Y-48802977D01*
X125633914Y-48759755D01*
X125741921Y-48738437D01*
X125869364Y-48730981D01*
X126002263Y-48737108D01*
G37*
X126002263Y-48737108D02*
X126126636Y-48756543D01*
X126179444Y-48770592D01*
X126328963Y-48835806D01*
X126460057Y-48930363D01*
X126570117Y-49050948D01*
X126656537Y-49194248D01*
X126716709Y-49356949D01*
X126742597Y-49486332D01*
X126753233Y-49680857D01*
X126732271Y-49863756D01*
X126680430Y-50032075D01*
X126598427Y-50182858D01*
X126561382Y-50232624D01*
X126437705Y-50358347D01*
X126294581Y-50454640D01*
X126135540Y-50520161D01*
X125964112Y-50553565D01*
X125783828Y-50553507D01*
X125734315Y-50547612D01*
X125581063Y-50507954D01*
X125442760Y-50437364D01*
X125323361Y-50339494D01*
X125226823Y-50217992D01*
X125157104Y-50076508D01*
X125131680Y-49991736D01*
X125109158Y-49896486D01*
X125537006Y-49896486D01*
X125557031Y-49976010D01*
X125591972Y-50052370D01*
X125650867Y-50120818D01*
X125722573Y-50169750D01*
X125754825Y-50181973D01*
X125800207Y-50189524D01*
X125865201Y-50194432D01*
X125915030Y-50195537D01*
X126023661Y-50181145D01*
X126114256Y-50137185D01*
X126190332Y-50061488D01*
X126229314Y-50001972D01*
X126276843Y-49892079D01*
X126305492Y-49767605D01*
X126315833Y-49636110D01*
X126308437Y-49505152D01*
X126283876Y-49382291D01*
X126242721Y-49275085D01*
X126185546Y-49191095D01*
X126166587Y-49172629D01*
X126077083Y-49116996D01*
X125970925Y-49088051D01*
X125856970Y-49086674D01*
X125744072Y-49113748D01*
X125712062Y-49127394D01*
X125651318Y-49170948D01*
X125598247Y-49234385D01*
X125563326Y-49303829D01*
X125556280Y-49333679D01*
X125558727Y-49368002D01*
X125584696Y-49384475D01*
X125600831Y-49388108D01*
X125620584Y-49392949D01*
X125629018Y-49401216D01*
X125623266Y-49417268D01*
X125600459Y-49445462D01*
X125557731Y-49490159D01*
X125492214Y-49555716D01*
X125487438Y-49560465D01*
X125323600Y-49723372D01*
X125159720Y-49560465D01*
X124995839Y-49397557D01*
X125055398Y-49388486D01*
X125093750Y-49378369D01*
X125117064Y-49355903D01*
X125135122Y-49310467D01*
X125138939Y-49297771D01*
X125202588Y-49130892D01*
X125287213Y-48993330D01*
X125393546Y-48884290D01*
X125522319Y-48802977D01*
X125633914Y-48759755D01*
X125741921Y-48738437D01*
X125869364Y-48730981D01*
X126002263Y-48737108D01*
D11*
X109750000Y12010000D02*
X106150000Y12010000D01*
X106111522Y11998478D02*
G75*
G03*
X107950000Y7560000I1838478J-1838478D01*
G01*
X109788478Y11998478D02*
G75*
G02*
X107950000Y7560000I-1838478J-1838478D01*
G01*
X80970000Y-33440000D02*
X89210000Y-33440000D01*
X80970000Y-36930000D02*
X89210000Y-36930000D01*
X80970000Y-33440000D02*
X80970000Y-36930000D01*
X89210000Y-33440000D02*
X89210000Y-36930000D01*
X83490000Y-33440000D02*
X83490000Y-34510000D01*
X83490000Y-36610000D02*
X83490000Y-36930000D01*
X86691000Y-33440000D02*
X86691000Y-35020000D01*
X86691000Y-36100000D02*
X86691000Y-36930000D01*
X53190000Y-9010000D02*
X46370000Y-9010000D01*
X53190000Y-6470000D02*
X46370000Y-6470000D01*
X53190000Y-9010000D02*
X53190000Y-6470000D01*
X46370000Y-9010000D02*
X46370000Y-6470000D01*
X53190000Y-8271000D02*
X53079000Y-8271000D01*
X51061000Y-8271000D02*
X50788000Y-8271000D01*
X48771000Y-8271000D02*
X48498000Y-8271000D01*
X46481000Y-8271000D02*
X46370000Y-8271000D01*
X48955000Y14665000D02*
X46295000Y14665000D01*
X48955000Y9525000D02*
X48955000Y14665000D01*
X46295000Y9525000D02*
X46295000Y14665000D01*
X48955000Y9525000D02*
X46295000Y9525000D01*
X48955000Y8255000D02*
X48955000Y6925000D01*
X48955000Y6925000D02*
X47625000Y6925000D01*
X122176400Y15505800D02*
X119936400Y15505800D01*
X119936400Y15505800D02*
X119936400Y11265800D01*
X119936400Y11265800D02*
X122176400Y11265800D01*
X122176400Y11265800D02*
X122176400Y15505800D01*
X121056400Y16155800D02*
X121056400Y15505800D01*
X121056400Y10615800D02*
X121056400Y11265800D01*
X122176400Y14785800D02*
X119936400Y14785800D01*
X122176400Y14665800D02*
X119936400Y14665800D01*
X122176400Y14905800D02*
X119936400Y14905800D01*
X92290000Y4976000D02*
X92290000Y7216000D01*
X92290000Y7216000D02*
X88050000Y7216000D01*
X88050000Y7216000D02*
X88050000Y4976000D01*
X88050000Y4976000D02*
X92290000Y4976000D01*
X92940000Y6096000D02*
X92290000Y6096000D01*
X87400000Y6096000D02*
X88050000Y6096000D01*
X91570000Y4976000D02*
X91570000Y7216000D01*
X91450000Y4976000D02*
X91450000Y7216000D01*
X91690000Y4976000D02*
X91690000Y7216000D01*
D12*
X62765714Y-56572380D02*
X62432380Y-56096190D01*
X62194285Y-56572380D02*
X62194285Y-55572380D01*
X62575238Y-55572380D01*
X62670476Y-55620000D01*
X62718095Y-55667619D01*
X62765714Y-55762857D01*
X62765714Y-55905714D01*
X62718095Y-56000952D01*
X62670476Y-56048571D01*
X62575238Y-56096190D01*
X62194285Y-56096190D01*
X63527619Y-56048571D02*
X63194285Y-56048571D01*
X63194285Y-56572380D02*
X63194285Y-55572380D01*
X63670476Y-55572380D01*
X64670476Y-55572380D02*
X65241904Y-55572380D01*
X64956190Y-56572380D02*
X64956190Y-55572380D01*
X65575238Y-56572380D02*
X65575238Y-55905714D01*
X65575238Y-56096190D02*
X65622857Y-56000952D01*
X65670476Y-55953333D01*
X65765714Y-55905714D01*
X65860952Y-55905714D01*
X66622857Y-56572380D02*
X66622857Y-56048571D01*
X66575238Y-55953333D01*
X66480000Y-55905714D01*
X66289523Y-55905714D01*
X66194285Y-55953333D01*
X66622857Y-56524761D02*
X66527619Y-56572380D01*
X66289523Y-56572380D01*
X66194285Y-56524761D01*
X66146666Y-56429523D01*
X66146666Y-56334285D01*
X66194285Y-56239047D01*
X66289523Y-56191428D01*
X66527619Y-56191428D01*
X66622857Y-56143809D01*
X67099047Y-55905714D02*
X67099047Y-56572380D01*
X67099047Y-56000952D02*
X67146666Y-55953333D01*
X67241904Y-55905714D01*
X67384761Y-55905714D01*
X67480000Y-55953333D01*
X67527619Y-56048571D01*
X67527619Y-56572380D01*
X67956190Y-56524761D02*
X68051428Y-56572380D01*
X68241904Y-56572380D01*
X68337142Y-56524761D01*
X68384761Y-56429523D01*
X68384761Y-56381904D01*
X68337142Y-56286666D01*
X68241904Y-56239047D01*
X68099047Y-56239047D01*
X68003809Y-56191428D01*
X67956190Y-56096190D01*
X67956190Y-56048571D01*
X68003809Y-55953333D01*
X68099047Y-55905714D01*
X68241904Y-55905714D01*
X68337142Y-55953333D01*
X69241904Y-56524761D02*
X69146666Y-56572380D01*
X68956190Y-56572380D01*
X68860952Y-56524761D01*
X68813333Y-56477142D01*
X68765714Y-56381904D01*
X68765714Y-56096190D01*
X68813333Y-56000952D01*
X68860952Y-55953333D01*
X68956190Y-55905714D01*
X69146666Y-55905714D01*
X69241904Y-55953333D01*
X70051428Y-56524761D02*
X69956190Y-56572380D01*
X69765714Y-56572380D01*
X69670476Y-56524761D01*
X69622857Y-56429523D01*
X69622857Y-56048571D01*
X69670476Y-55953333D01*
X69765714Y-55905714D01*
X69956190Y-55905714D01*
X70051428Y-55953333D01*
X70099047Y-56048571D01*
X70099047Y-56143809D01*
X69622857Y-56239047D01*
X70527619Y-56572380D02*
X70527619Y-55905714D01*
X70527619Y-55572380D02*
X70480000Y-55620000D01*
X70527619Y-55667619D01*
X70575238Y-55620000D01*
X70527619Y-55572380D01*
X70527619Y-55667619D01*
X70908571Y-55905714D02*
X71146666Y-56572380D01*
X71384761Y-55905714D01*
X72146666Y-56524761D02*
X72051428Y-56572380D01*
X71860952Y-56572380D01*
X71765714Y-56524761D01*
X71718095Y-56429523D01*
X71718095Y-56048571D01*
X71765714Y-55953333D01*
X71860952Y-55905714D01*
X72051428Y-55905714D01*
X72146666Y-55953333D01*
X72194285Y-56048571D01*
X72194285Y-56143809D01*
X71718095Y-56239047D01*
X72622857Y-56572380D02*
X72622857Y-55905714D01*
X72622857Y-56096190D02*
X72670476Y-56000952D01*
X72718095Y-55953333D01*
X72813333Y-55905714D01*
X72908571Y-55905714D01*
X64432380Y-54150952D02*
X64337142Y-54103333D01*
X64289523Y-54055714D01*
X64241904Y-53960476D01*
X64241904Y-53912857D01*
X64289523Y-53817619D01*
X64337142Y-53770000D01*
X64432380Y-53722380D01*
X64622857Y-53722380D01*
X64718095Y-53770000D01*
X64765714Y-53817619D01*
X64813333Y-53912857D01*
X64813333Y-53960476D01*
X64765714Y-54055714D01*
X64718095Y-54103333D01*
X64622857Y-54150952D01*
X64432380Y-54150952D01*
X64337142Y-54198571D01*
X64289523Y-54246190D01*
X64241904Y-54341428D01*
X64241904Y-54531904D01*
X64289523Y-54627142D01*
X64337142Y-54674761D01*
X64432380Y-54722380D01*
X64622857Y-54722380D01*
X64718095Y-54674761D01*
X64765714Y-54627142D01*
X64813333Y-54531904D01*
X64813333Y-54341428D01*
X64765714Y-54246190D01*
X64718095Y-54198571D01*
X64622857Y-54150952D01*
X65670476Y-53722380D02*
X65480000Y-53722380D01*
X65384761Y-53770000D01*
X65337142Y-53817619D01*
X65241904Y-53960476D01*
X65194285Y-54150952D01*
X65194285Y-54531904D01*
X65241904Y-54627142D01*
X65289523Y-54674761D01*
X65384761Y-54722380D01*
X65575238Y-54722380D01*
X65670476Y-54674761D01*
X65718095Y-54627142D01*
X65765714Y-54531904D01*
X65765714Y-54293809D01*
X65718095Y-54198571D01*
X65670476Y-54150952D01*
X65575238Y-54103333D01*
X65384761Y-54103333D01*
X65289523Y-54150952D01*
X65241904Y-54198571D01*
X65194285Y-54293809D01*
X66337142Y-54150952D02*
X66241904Y-54103333D01*
X66194285Y-54055714D01*
X66146666Y-53960476D01*
X66146666Y-53912857D01*
X66194285Y-53817619D01*
X66241904Y-53770000D01*
X66337142Y-53722380D01*
X66527619Y-53722380D01*
X66622857Y-53770000D01*
X66670476Y-53817619D01*
X66718095Y-53912857D01*
X66718095Y-53960476D01*
X66670476Y-54055714D01*
X66622857Y-54103333D01*
X66527619Y-54150952D01*
X66337142Y-54150952D01*
X66241904Y-54198571D01*
X66194285Y-54246190D01*
X66146666Y-54341428D01*
X66146666Y-54531904D01*
X66194285Y-54627142D01*
X66241904Y-54674761D01*
X66337142Y-54722380D01*
X66527619Y-54722380D01*
X66622857Y-54674761D01*
X66670476Y-54627142D01*
X66718095Y-54531904D01*
X66718095Y-54341428D01*
X66670476Y-54246190D01*
X66622857Y-54198571D01*
X66527619Y-54150952D01*
X67146666Y-54722380D02*
X67146666Y-53722380D01*
X67480000Y-54436666D01*
X67813333Y-53722380D01*
X67813333Y-54722380D01*
X68289523Y-54722380D02*
X68289523Y-53722380D01*
X68289523Y-54198571D02*
X68860952Y-54198571D01*
X68860952Y-54722380D02*
X68860952Y-53722380D01*
X69241904Y-54055714D02*
X69765714Y-54055714D01*
X69241904Y-54722380D01*
X69765714Y-54722380D01*
X64984761Y-52727142D02*
X64937142Y-52774761D01*
X64794285Y-52822380D01*
X64699047Y-52822380D01*
X64556190Y-52774761D01*
X64460952Y-52679523D01*
X64413333Y-52584285D01*
X64365714Y-52393809D01*
X64365714Y-52250952D01*
X64413333Y-52060476D01*
X64460952Y-51965238D01*
X64556190Y-51870000D01*
X64699047Y-51822380D01*
X64794285Y-51822380D01*
X64937142Y-51870000D01*
X64984761Y-51917619D01*
X65984761Y-52727142D02*
X65937142Y-52774761D01*
X65794285Y-52822380D01*
X65699047Y-52822380D01*
X65556190Y-52774761D01*
X65460952Y-52679523D01*
X65413333Y-52584285D01*
X65365714Y-52393809D01*
X65365714Y-52250952D01*
X65413333Y-52060476D01*
X65460952Y-51965238D01*
X65556190Y-51870000D01*
X65699047Y-51822380D01*
X65794285Y-51822380D01*
X65937142Y-51870000D01*
X65984761Y-51917619D01*
X66937142Y-52822380D02*
X66365714Y-52822380D01*
X66651428Y-52822380D02*
X66651428Y-51822380D01*
X66556190Y-51965238D01*
X66460952Y-52060476D01*
X66365714Y-52108095D01*
X67889523Y-52822380D02*
X67318095Y-52822380D01*
X67603809Y-52822380D02*
X67603809Y-51822380D01*
X67508571Y-51965238D01*
X67413333Y-52060476D01*
X67318095Y-52108095D01*
X68508571Y-51822380D02*
X68603809Y-51822380D01*
X68699047Y-51870000D01*
X68746666Y-51917619D01*
X68794285Y-52012857D01*
X68841904Y-52203333D01*
X68841904Y-52441428D01*
X68794285Y-52631904D01*
X68746666Y-52727142D01*
X68699047Y-52774761D01*
X68603809Y-52822380D01*
X68508571Y-52822380D01*
X68413333Y-52774761D01*
X68365714Y-52727142D01*
X68318095Y-52631904D01*
X68270476Y-52441428D01*
X68270476Y-52203333D01*
X68318095Y-52012857D01*
X68365714Y-51917619D01*
X68413333Y-51870000D01*
X68508571Y-51822380D01*
X69794285Y-52822380D02*
X69222857Y-52822380D01*
X69508571Y-52822380D02*
X69508571Y-51822380D01*
X69413333Y-51965238D01*
X69318095Y-52060476D01*
X69222857Y-52108095D01*
X61384380Y-25987333D02*
X62098666Y-25987333D01*
X62241523Y-26034952D01*
X62336761Y-26130190D01*
X62384380Y-26273047D01*
X62384380Y-26368285D01*
X61384380Y-25034952D02*
X61384380Y-25511142D01*
X61860571Y-25558761D01*
X61812952Y-25511142D01*
X61765333Y-25415904D01*
X61765333Y-25177809D01*
X61812952Y-25082571D01*
X61860571Y-25034952D01*
X61955809Y-24987333D01*
X62193904Y-24987333D01*
X62289142Y-25034952D01*
X62336761Y-25082571D01*
X62384380Y-25177809D01*
X62384380Y-25415904D01*
X62336761Y-25511142D01*
X62289142Y-25558761D01*
X72541857Y18827619D02*
X72541857Y19827619D01*
X72875190Y19113333D01*
X73208523Y19827619D01*
X73208523Y18827619D01*
X73827571Y18827619D02*
X73732333Y18875238D01*
X73684714Y18922857D01*
X73637095Y19018095D01*
X73637095Y19303809D01*
X73684714Y19399047D01*
X73732333Y19446666D01*
X73827571Y19494285D01*
X73970428Y19494285D01*
X74065666Y19446666D01*
X74113285Y19399047D01*
X74160904Y19303809D01*
X74160904Y19018095D01*
X74113285Y18922857D01*
X74065666Y18875238D01*
X73970428Y18827619D01*
X73827571Y18827619D01*
X75018047Y18827619D02*
X75018047Y19827619D01*
X75018047Y18875238D02*
X74922809Y18827619D01*
X74732333Y18827619D01*
X74637095Y18875238D01*
X74589476Y18922857D01*
X74541857Y19018095D01*
X74541857Y19303809D01*
X74589476Y19399047D01*
X74637095Y19446666D01*
X74732333Y19494285D01*
X74922809Y19494285D01*
X75018047Y19446666D01*
X75922809Y19494285D02*
X75922809Y18827619D01*
X75494238Y19494285D02*
X75494238Y18970476D01*
X75541857Y18875238D01*
X75637095Y18827619D01*
X75779952Y18827619D01*
X75875190Y18875238D01*
X75922809Y18922857D01*
X76541857Y18827619D02*
X76446619Y18875238D01*
X76399000Y18970476D01*
X76399000Y19827619D01*
X77303761Y18875238D02*
X77208523Y18827619D01*
X77018047Y18827619D01*
X76922809Y18875238D01*
X76875190Y18970476D01*
X76875190Y19351428D01*
X76922809Y19446666D01*
X77018047Y19494285D01*
X77208523Y19494285D01*
X77303761Y19446666D01*
X77351380Y19351428D01*
X77351380Y19256190D01*
X76875190Y19160952D01*
X78208523Y19494285D02*
X78208523Y18827619D01*
X77970428Y19875238D02*
X77732333Y19160952D01*
X78351380Y19160952D01*
X95134714Y14127619D02*
X95468047Y13127619D01*
X95801380Y14127619D01*
X96134714Y13127619D02*
X96134714Y14127619D01*
X96610904Y13127619D02*
X96610904Y14127619D01*
X97182333Y13127619D01*
X97182333Y14127619D01*
X97658523Y13508571D02*
X98420428Y13508571D01*
X95134714Y26427619D02*
X95468047Y25427619D01*
X95801380Y26427619D01*
X96134714Y25427619D02*
X96134714Y26427619D01*
X96610904Y25427619D02*
X96610904Y26427619D01*
X97182333Y25427619D01*
X97182333Y26427619D01*
X97658523Y25808571D02*
X98420428Y25808571D01*
X98039476Y25427619D02*
X98039476Y26189523D01*
X55868047Y14227619D02*
X56201380Y13227619D01*
X56534714Y14227619D01*
X57058523Y14227619D02*
X57249000Y14227619D01*
X57344238Y14180000D01*
X57439476Y14084761D01*
X57487095Y13894285D01*
X57487095Y13560952D01*
X57439476Y13370476D01*
X57344238Y13275238D01*
X57249000Y13227619D01*
X57058523Y13227619D01*
X56963285Y13275238D01*
X56868047Y13370476D01*
X56820428Y13560952D01*
X56820428Y13894285D01*
X56868047Y14084761D01*
X56963285Y14180000D01*
X57058523Y14227619D01*
X57915666Y14227619D02*
X57915666Y13418095D01*
X57963285Y13322857D01*
X58010904Y13275238D01*
X58106142Y13227619D01*
X58296619Y13227619D01*
X58391857Y13275238D01*
X58439476Y13322857D01*
X58487095Y13418095D01*
X58487095Y14227619D01*
X58820428Y14227619D02*
X59391857Y14227619D01*
X59106142Y13227619D02*
X59106142Y14227619D01*
X59725190Y13608571D02*
X60487095Y13608571D01*
X55968047Y26177619D02*
X56301380Y25177619D01*
X56634714Y26177619D01*
X57158523Y26177619D02*
X57349000Y26177619D01*
X57444238Y26130000D01*
X57539476Y26034761D01*
X57587095Y25844285D01*
X57587095Y25510952D01*
X57539476Y25320476D01*
X57444238Y25225238D01*
X57349000Y25177619D01*
X57158523Y25177619D01*
X57063285Y25225238D01*
X56968047Y25320476D01*
X56920428Y25510952D01*
X56920428Y25844285D01*
X56968047Y26034761D01*
X57063285Y26130000D01*
X57158523Y26177619D01*
X58015666Y26177619D02*
X58015666Y25368095D01*
X58063285Y25272857D01*
X58110904Y25225238D01*
X58206142Y25177619D01*
X58396619Y25177619D01*
X58491857Y25225238D01*
X58539476Y25272857D01*
X58587095Y25368095D01*
X58587095Y26177619D01*
X58920428Y26177619D02*
X59491857Y26177619D01*
X59206142Y25177619D02*
X59206142Y26177619D01*
X59825190Y25558571D02*
X60587095Y25558571D01*
X60206142Y25177619D02*
X60206142Y25939523D01*
X91646476Y-38358380D02*
X91646476Y-39072666D01*
X91598857Y-39215523D01*
X91503619Y-39310761D01*
X91360761Y-39358380D01*
X91265523Y-39358380D01*
X92646476Y-39358380D02*
X92075047Y-39358380D01*
X92360761Y-39358380D02*
X92360761Y-38358380D01*
X92265523Y-38501238D01*
X92170285Y-38596476D01*
X92075047Y-38644095D01*
X93217904Y-38786952D02*
X93122666Y-38739333D01*
X93075047Y-38691714D01*
X93027428Y-38596476D01*
X93027428Y-38548857D01*
X93075047Y-38453619D01*
X93122666Y-38406000D01*
X93217904Y-38358380D01*
X93408380Y-38358380D01*
X93503619Y-38406000D01*
X93551238Y-38453619D01*
X93598857Y-38548857D01*
X93598857Y-38596476D01*
X93551238Y-38691714D01*
X93503619Y-38739333D01*
X93408380Y-38786952D01*
X93217904Y-38786952D01*
X93122666Y-38834571D01*
X93075047Y-38882190D01*
X93027428Y-38977428D01*
X93027428Y-39167904D01*
X93075047Y-39263142D01*
X93122666Y-39310761D01*
X93217904Y-39358380D01*
X93408380Y-39358380D01*
X93503619Y-39310761D01*
X93551238Y-39263142D01*
X93598857Y-39167904D01*
X93598857Y-38977428D01*
X93551238Y-38882190D01*
X93503619Y-38834571D01*
X93408380Y-38786952D01*
X44975542Y-24582380D02*
X44642209Y-24106190D01*
X44404114Y-24582380D02*
X44404114Y-23582380D01*
X44785066Y-23582380D01*
X44880304Y-23630000D01*
X44927923Y-23677619D01*
X44975542Y-23772857D01*
X44975542Y-23915714D01*
X44927923Y-24010952D01*
X44880304Y-24058571D01*
X44785066Y-24106190D01*
X44404114Y-24106190D01*
X45927923Y-24582380D02*
X45356495Y-24582380D01*
X45642209Y-24582380D02*
X45642209Y-23582380D01*
X45546971Y-23725238D01*
X45451733Y-23820476D01*
X45356495Y-23868095D01*
X46404114Y-24582380D02*
X46594590Y-24582380D01*
X46689828Y-24534761D01*
X46737447Y-24487142D01*
X46832685Y-24344285D01*
X46880304Y-24153809D01*
X46880304Y-23772857D01*
X46832685Y-23677619D01*
X46785066Y-23630000D01*
X46689828Y-23582380D01*
X46499352Y-23582380D01*
X46404114Y-23630000D01*
X46356495Y-23677619D01*
X46308876Y-23772857D01*
X46308876Y-24010952D01*
X46356495Y-24106190D01*
X46404114Y-24153809D01*
X46499352Y-24201428D01*
X46689828Y-24201428D01*
X46785066Y-24153809D01*
X46832685Y-24106190D01*
X46880304Y-24010952D01*
X84447142Y-48255180D02*
X84113809Y-47778990D01*
X83875714Y-48255180D02*
X83875714Y-47255180D01*
X84256666Y-47255180D01*
X84351904Y-47302800D01*
X84399523Y-47350419D01*
X84447142Y-47445657D01*
X84447142Y-47588514D01*
X84399523Y-47683752D01*
X84351904Y-47731371D01*
X84256666Y-47778990D01*
X83875714Y-47778990D01*
X84828095Y-47350419D02*
X84875714Y-47302800D01*
X84970952Y-47255180D01*
X85209047Y-47255180D01*
X85304285Y-47302800D01*
X85351904Y-47350419D01*
X85399523Y-47445657D01*
X85399523Y-47540895D01*
X85351904Y-47683752D01*
X84780476Y-48255180D01*
X85399523Y-48255180D01*
X85732857Y-47255180D02*
X86351904Y-47255180D01*
X86018571Y-47636133D01*
X86161428Y-47636133D01*
X86256666Y-47683752D01*
X86304285Y-47731371D01*
X86351904Y-47826609D01*
X86351904Y-48064704D01*
X86304285Y-48159942D01*
X86256666Y-48207561D01*
X86161428Y-48255180D01*
X85875714Y-48255180D01*
X85780476Y-48207561D01*
X85732857Y-48159942D01*
X47490142Y-12568180D02*
X47156809Y-12091990D01*
X46918714Y-12568180D02*
X46918714Y-11568180D01*
X47299666Y-11568180D01*
X47394904Y-11615800D01*
X47442523Y-11663419D01*
X47490142Y-11758657D01*
X47490142Y-11901514D01*
X47442523Y-11996752D01*
X47394904Y-12044371D01*
X47299666Y-12091990D01*
X46918714Y-12091990D01*
X47871095Y-11663419D02*
X47918714Y-11615800D01*
X48013952Y-11568180D01*
X48252047Y-11568180D01*
X48347285Y-11615800D01*
X48394904Y-11663419D01*
X48442523Y-11758657D01*
X48442523Y-11853895D01*
X48394904Y-11996752D01*
X47823476Y-12568180D01*
X48442523Y-12568180D01*
X48823476Y-11663419D02*
X48871095Y-11615800D01*
X48966333Y-11568180D01*
X49204428Y-11568180D01*
X49299666Y-11615800D01*
X49347285Y-11663419D01*
X49394904Y-11758657D01*
X49394904Y-11853895D01*
X49347285Y-11996752D01*
X48775857Y-12568180D01*
X49394904Y-12568180D01*
X123997980Y11396742D02*
X123521790Y11063409D01*
X123997980Y10825314D02*
X122997980Y10825314D01*
X122997980Y11206266D01*
X123045600Y11301504D01*
X123093219Y11349123D01*
X123188457Y11396742D01*
X123331314Y11396742D01*
X123426552Y11349123D01*
X123474171Y11301504D01*
X123521790Y11206266D01*
X123521790Y10825314D01*
X123093219Y11777695D02*
X123045600Y11825314D01*
X122997980Y11920552D01*
X122997980Y12158647D01*
X123045600Y12253885D01*
X123093219Y12301504D01*
X123188457Y12349123D01*
X123283695Y12349123D01*
X123426552Y12301504D01*
X123997980Y11730076D01*
X123997980Y12349123D01*
X123997980Y13301504D02*
X123997980Y12730076D01*
X123997980Y13015790D02*
X122997980Y13015790D01*
X123140838Y12920552D01*
X123236076Y12825314D01*
X123283695Y12730076D01*
X114444542Y8336019D02*
X114111209Y8812209D01*
X113873114Y8336019D02*
X113873114Y9336019D01*
X114254066Y9336019D01*
X114349304Y9288400D01*
X114396923Y9240780D01*
X114444542Y9145542D01*
X114444542Y9002685D01*
X114396923Y8907447D01*
X114349304Y8859828D01*
X114254066Y8812209D01*
X113873114Y8812209D01*
X114825495Y9240780D02*
X114873114Y9288400D01*
X114968352Y9336019D01*
X115206447Y9336019D01*
X115301685Y9288400D01*
X115349304Y9240780D01*
X115396923Y9145542D01*
X115396923Y9050304D01*
X115349304Y8907447D01*
X114777876Y8336019D01*
X115396923Y8336019D01*
X116015971Y9336019D02*
X116111209Y9336019D01*
X116206447Y9288400D01*
X116254066Y9240780D01*
X116301685Y9145542D01*
X116349304Y8955066D01*
X116349304Y8716971D01*
X116301685Y8526495D01*
X116254066Y8431257D01*
X116206447Y8383638D01*
X116111209Y8336019D01*
X116015971Y8336019D01*
X115920733Y8383638D01*
X115873114Y8431257D01*
X115825495Y8526495D01*
X115777876Y8716971D01*
X115777876Y8955066D01*
X115825495Y9145542D01*
X115873114Y9240780D01*
X115920733Y9288400D01*
X116015971Y9336019D01*
X74210942Y-30881580D02*
X73877609Y-30405390D01*
X73639514Y-30881580D02*
X73639514Y-29881580D01*
X74020466Y-29881580D01*
X74115704Y-29929200D01*
X74163323Y-29976819D01*
X74210942Y-30072057D01*
X74210942Y-30214914D01*
X74163323Y-30310152D01*
X74115704Y-30357771D01*
X74020466Y-30405390D01*
X73639514Y-30405390D01*
X75163323Y-30881580D02*
X74591895Y-30881580D01*
X74877609Y-30881580D02*
X74877609Y-29881580D01*
X74782371Y-30024438D01*
X74687133Y-30119676D01*
X74591895Y-30167295D01*
X75496657Y-29881580D02*
X76163323Y-29881580D01*
X75734752Y-30881580D01*
X140761980Y10583942D02*
X140285790Y10250609D01*
X140761980Y10012514D02*
X139761980Y10012514D01*
X139761980Y10393466D01*
X139809600Y10488704D01*
X139857219Y10536323D01*
X139952457Y10583942D01*
X140095314Y10583942D01*
X140190552Y10536323D01*
X140238171Y10488704D01*
X140285790Y10393466D01*
X140285790Y10012514D01*
X140761980Y11536323D02*
X140761980Y10964895D01*
X140761980Y11250609D02*
X139761980Y11250609D01*
X139904838Y11155371D01*
X140000076Y11060133D01*
X140047695Y10964895D01*
X139761980Y12393466D02*
X139761980Y12202990D01*
X139809600Y12107752D01*
X139857219Y12060133D01*
X140000076Y11964895D01*
X140190552Y11917276D01*
X140571504Y11917276D01*
X140666742Y11964895D01*
X140714361Y12012514D01*
X140761980Y12107752D01*
X140761980Y12298228D01*
X140714361Y12393466D01*
X140666742Y12441085D01*
X140571504Y12488704D01*
X140333409Y12488704D01*
X140238171Y12441085D01*
X140190552Y12393466D01*
X140142933Y12298228D01*
X140142933Y12107752D01*
X140190552Y12012514D01*
X140238171Y11964895D01*
X140333409Y11917276D01*
X136872742Y17607019D02*
X136539409Y18083209D01*
X136301314Y17607019D02*
X136301314Y18607019D01*
X136682266Y18607019D01*
X136777504Y18559400D01*
X136825123Y18511780D01*
X136872742Y18416542D01*
X136872742Y18273685D01*
X136825123Y18178447D01*
X136777504Y18130828D01*
X136682266Y18083209D01*
X136301314Y18083209D01*
X137825123Y17607019D02*
X137253695Y17607019D01*
X137539409Y17607019D02*
X137539409Y18607019D01*
X137444171Y18464161D01*
X137348933Y18368923D01*
X137253695Y18321304D01*
X138729885Y18607019D02*
X138253695Y18607019D01*
X138206076Y18130828D01*
X138253695Y18178447D01*
X138348933Y18226066D01*
X138587028Y18226066D01*
X138682266Y18178447D01*
X138729885Y18130828D01*
X138777504Y18035590D01*
X138777504Y17797495D01*
X138729885Y17702257D01*
X138682266Y17654638D01*
X138587028Y17607019D01*
X138348933Y17607019D01*
X138253695Y17654638D01*
X138206076Y17702257D01*
X84421742Y-31897580D02*
X84088409Y-31421390D01*
X83850314Y-31897580D02*
X83850314Y-30897580D01*
X84231266Y-30897580D01*
X84326504Y-30945200D01*
X84374123Y-30992819D01*
X84421742Y-31088057D01*
X84421742Y-31230914D01*
X84374123Y-31326152D01*
X84326504Y-31373771D01*
X84231266Y-31421390D01*
X83850314Y-31421390D01*
X85374123Y-31897580D02*
X84802695Y-31897580D01*
X85088409Y-31897580D02*
X85088409Y-30897580D01*
X84993171Y-31040438D01*
X84897933Y-31135676D01*
X84802695Y-31183295D01*
X86231266Y-31230914D02*
X86231266Y-31897580D01*
X85993171Y-30849961D02*
X85755076Y-31564247D01*
X86374123Y-31564247D01*
X93035380Y-25788857D02*
X92559190Y-26122190D01*
X93035380Y-26360285D02*
X92035380Y-26360285D01*
X92035380Y-25979333D01*
X92083000Y-25884095D01*
X92130619Y-25836476D01*
X92225857Y-25788857D01*
X92368714Y-25788857D01*
X92463952Y-25836476D01*
X92511571Y-25884095D01*
X92559190Y-25979333D01*
X92559190Y-26360285D01*
X93035380Y-24836476D02*
X93035380Y-25407904D01*
X93035380Y-25122190D02*
X92035380Y-25122190D01*
X92178238Y-25217428D01*
X92273476Y-25312666D01*
X92321095Y-25407904D01*
X92035380Y-24503142D02*
X92035380Y-23884095D01*
X92416333Y-24217428D01*
X92416333Y-24074571D01*
X92463952Y-23979333D01*
X92511571Y-23931714D01*
X92606809Y-23884095D01*
X92844904Y-23884095D01*
X92940142Y-23931714D01*
X92987761Y-23979333D01*
X93035380Y-24074571D01*
X93035380Y-24360285D01*
X92987761Y-24455523D01*
X92940142Y-24503142D01*
X67787780Y-34348657D02*
X67311590Y-34681990D01*
X67787780Y-34920085D02*
X66787780Y-34920085D01*
X66787780Y-34539133D01*
X66835400Y-34443895D01*
X66883019Y-34396276D01*
X66978257Y-34348657D01*
X67121114Y-34348657D01*
X67216352Y-34396276D01*
X67263971Y-34443895D01*
X67311590Y-34539133D01*
X67311590Y-34920085D01*
X67787780Y-33396276D02*
X67787780Y-33967704D01*
X67787780Y-33681990D02*
X66787780Y-33681990D01*
X66930638Y-33777228D01*
X67025876Y-33872466D01*
X67073495Y-33967704D01*
X66883019Y-33015323D02*
X66835400Y-32967704D01*
X66787780Y-32872466D01*
X66787780Y-32634371D01*
X66835400Y-32539133D01*
X66883019Y-32491514D01*
X66978257Y-32443895D01*
X67073495Y-32443895D01*
X67216352Y-32491514D01*
X67787780Y-33062942D01*
X67787780Y-32443895D01*
X57192942Y-35174180D02*
X56859609Y-34697990D01*
X56621514Y-35174180D02*
X56621514Y-34174180D01*
X57002466Y-34174180D01*
X57097704Y-34221800D01*
X57145323Y-34269419D01*
X57192942Y-34364657D01*
X57192942Y-34507514D01*
X57145323Y-34602752D01*
X57097704Y-34650371D01*
X57002466Y-34697990D01*
X56621514Y-34697990D01*
X58145323Y-35174180D02*
X57573895Y-35174180D01*
X57859609Y-35174180D02*
X57859609Y-34174180D01*
X57764371Y-34317038D01*
X57669133Y-34412276D01*
X57573895Y-34459895D01*
X59097704Y-35174180D02*
X58526276Y-35174180D01*
X58811990Y-35174180D02*
X58811990Y-34174180D01*
X58716752Y-34317038D01*
X58621514Y-34412276D01*
X58526276Y-34459895D01*
X51176180Y-29497257D02*
X50699990Y-29830590D01*
X51176180Y-30068685D02*
X50176180Y-30068685D01*
X50176180Y-29687733D01*
X50223800Y-29592495D01*
X50271419Y-29544876D01*
X50366657Y-29497257D01*
X50509514Y-29497257D01*
X50604752Y-29544876D01*
X50652371Y-29592495D01*
X50699990Y-29687733D01*
X50699990Y-30068685D01*
X51176180Y-28544876D02*
X51176180Y-29116304D01*
X51176180Y-28830590D02*
X50176180Y-28830590D01*
X50319038Y-28925828D01*
X50414276Y-29021066D01*
X50461895Y-29116304D01*
X50176180Y-27925828D02*
X50176180Y-27830590D01*
X50223800Y-27735352D01*
X50271419Y-27687733D01*
X50366657Y-27640114D01*
X50557133Y-27592495D01*
X50795228Y-27592495D01*
X50985704Y-27640114D01*
X51080942Y-27687733D01*
X51128561Y-27735352D01*
X51176180Y-27830590D01*
X51176180Y-27925828D01*
X51128561Y-28021066D01*
X51080942Y-28068685D01*
X50985704Y-28116304D01*
X50795228Y-28163923D01*
X50557133Y-28163923D01*
X50366657Y-28116304D01*
X50271419Y-28068685D01*
X50223800Y-28021066D01*
X50176180Y-27925828D01*
X65797133Y766819D02*
X65463800Y1243009D01*
X65225704Y766819D02*
X65225704Y1766819D01*
X65606657Y1766819D01*
X65701895Y1719200D01*
X65749514Y1671580D01*
X65797133Y1576342D01*
X65797133Y1433485D01*
X65749514Y1338247D01*
X65701895Y1290628D01*
X65606657Y1243009D01*
X65225704Y1243009D01*
X66273323Y766819D02*
X66463800Y766819D01*
X66559038Y814438D01*
X66606657Y862057D01*
X66701895Y1004914D01*
X66749514Y1195390D01*
X66749514Y1576342D01*
X66701895Y1671580D01*
X66654276Y1719200D01*
X66559038Y1766819D01*
X66368561Y1766819D01*
X66273323Y1719200D01*
X66225704Y1671580D01*
X66178085Y1576342D01*
X66178085Y1338247D01*
X66225704Y1243009D01*
X66273323Y1195390D01*
X66368561Y1147771D01*
X66559038Y1147771D01*
X66654276Y1195390D01*
X66701895Y1243009D01*
X66749514Y1338247D01*
X65847933Y4500619D02*
X65514600Y4976809D01*
X65276504Y4500619D02*
X65276504Y5500619D01*
X65657457Y5500619D01*
X65752695Y5453000D01*
X65800314Y5405380D01*
X65847933Y5310142D01*
X65847933Y5167285D01*
X65800314Y5072047D01*
X65752695Y5024428D01*
X65657457Y4976809D01*
X65276504Y4976809D01*
X66419361Y5072047D02*
X66324123Y5119666D01*
X66276504Y5167285D01*
X66228885Y5262523D01*
X66228885Y5310142D01*
X66276504Y5405380D01*
X66324123Y5453000D01*
X66419361Y5500619D01*
X66609838Y5500619D01*
X66705076Y5453000D01*
X66752695Y5405380D01*
X66800314Y5310142D01*
X66800314Y5262523D01*
X66752695Y5167285D01*
X66705076Y5119666D01*
X66609838Y5072047D01*
X66419361Y5072047D01*
X66324123Y5024428D01*
X66276504Y4976809D01*
X66228885Y4881571D01*
X66228885Y4691095D01*
X66276504Y4595857D01*
X66324123Y4548238D01*
X66419361Y4500619D01*
X66609838Y4500619D01*
X66705076Y4548238D01*
X66752695Y4595857D01*
X66800314Y4691095D01*
X66800314Y4881571D01*
X66752695Y4976809D01*
X66705076Y5024428D01*
X66609838Y5072047D01*
X45451733Y-22169380D02*
X45118400Y-21693190D01*
X44880304Y-22169380D02*
X44880304Y-21169380D01*
X45261257Y-21169380D01*
X45356495Y-21217000D01*
X45404114Y-21264619D01*
X45451733Y-21359857D01*
X45451733Y-21502714D01*
X45404114Y-21597952D01*
X45356495Y-21645571D01*
X45261257Y-21693190D01*
X44880304Y-21693190D01*
X45785066Y-21169380D02*
X46451733Y-21169380D01*
X46023161Y-22169380D01*
X58253333Y843019D02*
X57920000Y1319209D01*
X57681904Y843019D02*
X57681904Y1843019D01*
X58062857Y1843019D01*
X58158095Y1795400D01*
X58205714Y1747780D01*
X58253333Y1652542D01*
X58253333Y1509685D01*
X58205714Y1414447D01*
X58158095Y1366828D01*
X58062857Y1319209D01*
X57681904Y1319209D01*
X59110476Y1843019D02*
X58920000Y1843019D01*
X58824761Y1795400D01*
X58777142Y1747780D01*
X58681904Y1604923D01*
X58634285Y1414447D01*
X58634285Y1033495D01*
X58681904Y938257D01*
X58729523Y890638D01*
X58824761Y843019D01*
X59015238Y843019D01*
X59110476Y890638D01*
X59158095Y938257D01*
X59205714Y1033495D01*
X59205714Y1271590D01*
X59158095Y1366828D01*
X59110476Y1414447D01*
X59015238Y1462066D01*
X58824761Y1462066D01*
X58729523Y1414447D01*
X58681904Y1366828D01*
X58634285Y1271590D01*
X58278733Y4627619D02*
X57945400Y5103809D01*
X57707304Y4627619D02*
X57707304Y5627619D01*
X58088257Y5627619D01*
X58183495Y5580000D01*
X58231114Y5532380D01*
X58278733Y5437142D01*
X58278733Y5294285D01*
X58231114Y5199047D01*
X58183495Y5151428D01*
X58088257Y5103809D01*
X57707304Y5103809D01*
X59183495Y5627619D02*
X58707304Y5627619D01*
X58659685Y5151428D01*
X58707304Y5199047D01*
X58802542Y5246666D01*
X59040638Y5246666D01*
X59135876Y5199047D01*
X59183495Y5151428D01*
X59231114Y5056190D01*
X59231114Y4818095D01*
X59183495Y4722857D01*
X59135876Y4675238D01*
X59040638Y4627619D01*
X58802542Y4627619D01*
X58707304Y4675238D01*
X58659685Y4722857D01*
X55687933Y-27833580D02*
X55354600Y-27357390D01*
X55116504Y-27833580D02*
X55116504Y-26833580D01*
X55497457Y-26833580D01*
X55592695Y-26881200D01*
X55640314Y-26928819D01*
X55687933Y-27024057D01*
X55687933Y-27166914D01*
X55640314Y-27262152D01*
X55592695Y-27309771D01*
X55497457Y-27357390D01*
X55116504Y-27357390D01*
X56545076Y-27166914D02*
X56545076Y-27833580D01*
X56306980Y-26785961D02*
X56068885Y-27500247D01*
X56687933Y-27500247D01*
X56992780Y-5221266D02*
X56516590Y-5554600D01*
X56992780Y-5792695D02*
X55992780Y-5792695D01*
X55992780Y-5411742D01*
X56040400Y-5316504D01*
X56088019Y-5268885D01*
X56183257Y-5221266D01*
X56326114Y-5221266D01*
X56421352Y-5268885D01*
X56468971Y-5316504D01*
X56516590Y-5411742D01*
X56516590Y-5792695D01*
X55992780Y-4887933D02*
X55992780Y-4268885D01*
X56373733Y-4602219D01*
X56373733Y-4459361D01*
X56421352Y-4364123D01*
X56468971Y-4316504D01*
X56564209Y-4268885D01*
X56802304Y-4268885D01*
X56897542Y-4316504D01*
X56945161Y-4364123D01*
X56992780Y-4459361D01*
X56992780Y-4745076D01*
X56945161Y-4840314D01*
X56897542Y-4887933D01*
X55662533Y-24506180D02*
X55329200Y-24029990D01*
X55091104Y-24506180D02*
X55091104Y-23506180D01*
X55472057Y-23506180D01*
X55567295Y-23553800D01*
X55614914Y-23601419D01*
X55662533Y-23696657D01*
X55662533Y-23839514D01*
X55614914Y-23934752D01*
X55567295Y-23982371D01*
X55472057Y-24029990D01*
X55091104Y-24029990D01*
X56043485Y-23601419D02*
X56091104Y-23553800D01*
X56186342Y-23506180D01*
X56424438Y-23506180D01*
X56519676Y-23553800D01*
X56567295Y-23601419D01*
X56614914Y-23696657D01*
X56614914Y-23791895D01*
X56567295Y-23934752D01*
X55995866Y-24506180D01*
X56614914Y-24506180D01*
X45527933Y-27655780D02*
X45194600Y-27179590D01*
X44956504Y-27655780D02*
X44956504Y-26655780D01*
X45337457Y-26655780D01*
X45432695Y-26703400D01*
X45480314Y-26751019D01*
X45527933Y-26846257D01*
X45527933Y-26989114D01*
X45480314Y-27084352D01*
X45432695Y-27131971D01*
X45337457Y-27179590D01*
X44956504Y-27179590D01*
X46480314Y-27655780D02*
X45908885Y-27655780D01*
X46194600Y-27655780D02*
X46194600Y-26655780D01*
X46099361Y-26798638D01*
X46004123Y-26893876D01*
X45908885Y-26941495D01*
X109593142Y16311619D02*
X109259809Y16787809D01*
X109021714Y16311619D02*
X109021714Y17311619D01*
X109402666Y17311619D01*
X109497904Y17264000D01*
X109545523Y17216380D01*
X109593142Y17121142D01*
X109593142Y16978285D01*
X109545523Y16883047D01*
X109497904Y16835428D01*
X109402666Y16787809D01*
X109021714Y16787809D01*
X110545523Y16311619D02*
X109974095Y16311619D01*
X110259809Y16311619D02*
X110259809Y17311619D01*
X110164571Y17168761D01*
X110069333Y17073523D01*
X109974095Y17025904D01*
X111116952Y16883047D02*
X111021714Y16930666D01*
X110974095Y16978285D01*
X110926476Y17073523D01*
X110926476Y17121142D01*
X110974095Y17216380D01*
X111021714Y17264000D01*
X111116952Y17311619D01*
X111307428Y17311619D01*
X111402666Y17264000D01*
X111450285Y17216380D01*
X111497904Y17121142D01*
X111497904Y17073523D01*
X111450285Y16978285D01*
X111402666Y16930666D01*
X111307428Y16883047D01*
X111116952Y16883047D01*
X111021714Y16835428D01*
X110974095Y16787809D01*
X110926476Y16692571D01*
X110926476Y16502095D01*
X110974095Y16406857D01*
X111021714Y16359238D01*
X111116952Y16311619D01*
X111307428Y16311619D01*
X111402666Y16359238D01*
X111450285Y16406857D01*
X111497904Y16502095D01*
X111497904Y16692571D01*
X111450285Y16787809D01*
X111402666Y16835428D01*
X111307428Y16883047D01*
X48645914Y-16911580D02*
X48645914Y-15911580D01*
X48884009Y-15911580D01*
X49026866Y-15959200D01*
X49122104Y-16054438D01*
X49169723Y-16149676D01*
X49217342Y-16340152D01*
X49217342Y-16483009D01*
X49169723Y-16673485D01*
X49122104Y-16768723D01*
X49026866Y-16863961D01*
X48884009Y-16911580D01*
X48645914Y-16911580D01*
X50169723Y-16911580D02*
X49598295Y-16911580D01*
X49884009Y-16911580D02*
X49884009Y-15911580D01*
X49788771Y-16054438D01*
X49693533Y-16149676D01*
X49598295Y-16197295D01*
X51122104Y-16911580D02*
X50550676Y-16911580D01*
X50836390Y-16911580D02*
X50836390Y-15911580D01*
X50741152Y-16054438D01*
X50645914Y-16149676D01*
X50550676Y-16197295D01*
X45458095Y-14862380D02*
X45458095Y-13862380D01*
X46029523Y-14862380D02*
X45600952Y-14290952D01*
X46029523Y-13862380D02*
X45458095Y-14433809D01*
X82904104Y-43784780D02*
X82904104Y-42784780D01*
X83142200Y-42784780D01*
X83285057Y-42832400D01*
X83380295Y-42927638D01*
X83427914Y-43022876D01*
X83475533Y-43213352D01*
X83475533Y-43356209D01*
X83427914Y-43546685D01*
X83380295Y-43641923D01*
X83285057Y-43737161D01*
X83142200Y-43784780D01*
X82904104Y-43784780D01*
X84332676Y-42784780D02*
X84142200Y-42784780D01*
X84046961Y-42832400D01*
X83999342Y-42880019D01*
X83904104Y-43022876D01*
X83856485Y-43213352D01*
X83856485Y-43594304D01*
X83904104Y-43689542D01*
X83951723Y-43737161D01*
X84046961Y-43784780D01*
X84237438Y-43784780D01*
X84332676Y-43737161D01*
X84380295Y-43689542D01*
X84427914Y-43594304D01*
X84427914Y-43356209D01*
X84380295Y-43260971D01*
X84332676Y-43213352D01*
X84237438Y-43165733D01*
X84046961Y-43165733D01*
X83951723Y-43213352D01*
X83904104Y-43260971D01*
X83856485Y-43356209D01*
X87622095Y-45732380D02*
X87622095Y-44732380D01*
X88193523Y-45732380D02*
X87764952Y-45160952D01*
X88193523Y-44732380D02*
X87622095Y-45303809D01*
X84326504Y-25293580D02*
X84326504Y-24293580D01*
X84564600Y-24293580D01*
X84707457Y-24341200D01*
X84802695Y-24436438D01*
X84850314Y-24531676D01*
X84897933Y-24722152D01*
X84897933Y-24865009D01*
X84850314Y-25055485D01*
X84802695Y-25150723D01*
X84707457Y-25245961D01*
X84564600Y-25293580D01*
X84326504Y-25293580D01*
X85278885Y-24388819D02*
X85326504Y-24341200D01*
X85421742Y-24293580D01*
X85659838Y-24293580D01*
X85755076Y-24341200D01*
X85802695Y-24388819D01*
X85850314Y-24484057D01*
X85850314Y-24579295D01*
X85802695Y-24722152D01*
X85231266Y-25293580D01*
X85850314Y-25293580D01*
X89146095Y-27317380D02*
X89146095Y-26317380D01*
X89717523Y-27317380D02*
X89288952Y-26745952D01*
X89717523Y-26317380D02*
X89146095Y-26888809D01*
X81062142Y1468333D02*
X81109761Y1420714D01*
X81157380Y1277857D01*
X81157380Y1182619D01*
X81109761Y1039761D01*
X81014523Y944523D01*
X80919285Y896904D01*
X80728809Y849285D01*
X80585952Y849285D01*
X80395476Y896904D01*
X80300238Y944523D01*
X80205000Y1039761D01*
X80157380Y1182619D01*
X80157380Y1277857D01*
X80205000Y1420714D01*
X80252619Y1468333D01*
X80157380Y2373095D02*
X80157380Y1896904D01*
X80633571Y1849285D01*
X80585952Y1896904D01*
X80538333Y1992142D01*
X80538333Y2230238D01*
X80585952Y2325476D01*
X80633571Y2373095D01*
X80728809Y2420714D01*
X80966904Y2420714D01*
X81062142Y2373095D01*
X81109761Y2325476D01*
X81157380Y2230238D01*
X81157380Y1992142D01*
X81109761Y1896904D01*
X81062142Y1849285D01*
X74534733Y-35332942D02*
X74487114Y-35380561D01*
X74344257Y-35428180D01*
X74249019Y-35428180D01*
X74106161Y-35380561D01*
X74010923Y-35285323D01*
X73963304Y-35190085D01*
X73915685Y-34999609D01*
X73915685Y-34856752D01*
X73963304Y-34666276D01*
X74010923Y-34571038D01*
X74106161Y-34475800D01*
X74249019Y-34428180D01*
X74344257Y-34428180D01*
X74487114Y-34475800D01*
X74534733Y-34523419D01*
X75391876Y-34761514D02*
X75391876Y-35428180D01*
X75153780Y-34380561D02*
X74915685Y-35094847D01*
X75534733Y-35094847D01*
X74661733Y4849857D02*
X74614114Y4802238D01*
X74471257Y4754619D01*
X74376019Y4754619D01*
X74233161Y4802238D01*
X74137923Y4897476D01*
X74090304Y4992714D01*
X74042685Y5183190D01*
X74042685Y5326047D01*
X74090304Y5516523D01*
X74137923Y5611761D01*
X74233161Y5707000D01*
X74376019Y5754619D01*
X74471257Y5754619D01*
X74614114Y5707000D01*
X74661733Y5659380D01*
X74995066Y5754619D02*
X75614114Y5754619D01*
X75280780Y5373666D01*
X75423638Y5373666D01*
X75518876Y5326047D01*
X75566495Y5278428D01*
X75614114Y5183190D01*
X75614114Y4945095D01*
X75566495Y4849857D01*
X75518876Y4802238D01*
X75423638Y4754619D01*
X75137923Y4754619D01*
X75042685Y4802238D01*
X74995066Y4849857D01*
X74763333Y1065257D02*
X74715714Y1017638D01*
X74572857Y970019D01*
X74477619Y970019D01*
X74334761Y1017638D01*
X74239523Y1112876D01*
X74191904Y1208114D01*
X74144285Y1398590D01*
X74144285Y1541447D01*
X74191904Y1731923D01*
X74239523Y1827161D01*
X74334761Y1922400D01*
X74477619Y1970019D01*
X74572857Y1970019D01*
X74715714Y1922400D01*
X74763333Y1874780D01*
X75144285Y1874780D02*
X75191904Y1922400D01*
X75287142Y1970019D01*
X75525238Y1970019D01*
X75620476Y1922400D01*
X75668095Y1874780D01*
X75715714Y1779542D01*
X75715714Y1684304D01*
X75668095Y1541447D01*
X75096666Y970019D01*
X75715714Y970019D01*
X60178333Y-38517142D02*
X60130714Y-38564761D01*
X59987857Y-38612380D01*
X59892619Y-38612380D01*
X59749761Y-38564761D01*
X59654523Y-38469523D01*
X59606904Y-38374285D01*
X59559285Y-38183809D01*
X59559285Y-38040952D01*
X59606904Y-37850476D01*
X59654523Y-37755238D01*
X59749761Y-37660000D01*
X59892619Y-37612380D01*
X59987857Y-37612380D01*
X60130714Y-37660000D01*
X60178333Y-37707619D01*
X61130714Y-38612380D02*
X60559285Y-38612380D01*
X60845000Y-38612380D02*
X60845000Y-37612380D01*
X60749761Y-37755238D01*
X60654523Y-37850476D01*
X60559285Y-37898095D01*
X148844095Y-53716180D02*
X148844095Y-52716180D01*
X148844095Y-53192371D02*
X149415523Y-53192371D01*
X149415523Y-53716180D02*
X149415523Y-52716180D01*
X150320285Y-53049514D02*
X150320285Y-53716180D01*
X150082190Y-52668561D02*
X149844095Y-53382847D01*
X150463142Y-53382847D01*
X91265476Y-42207380D02*
X91265476Y-42921666D01*
X91217857Y-43064523D01*
X91122619Y-43159761D01*
X90979761Y-43207380D01*
X90884523Y-43207380D01*
X92265476Y-43207380D02*
X91694047Y-43207380D01*
X91979761Y-43207380D02*
X91979761Y-42207380D01*
X91884523Y-42350238D01*
X91789285Y-42445476D01*
X91694047Y-42493095D01*
X93122619Y-42207380D02*
X92932142Y-42207380D01*
X92836904Y-42255000D01*
X92789285Y-42302619D01*
X92694047Y-42445476D01*
X92646428Y-42635952D01*
X92646428Y-43016904D01*
X92694047Y-43112142D01*
X92741666Y-43159761D01*
X92836904Y-43207380D01*
X93027380Y-43207380D01*
X93122619Y-43159761D01*
X93170238Y-43112142D01*
X93217857Y-43016904D01*
X93217857Y-42778809D01*
X93170238Y-42683571D01*
X93122619Y-42635952D01*
X93027380Y-42588333D01*
X92836904Y-42588333D01*
X92741666Y-42635952D01*
X92694047Y-42683571D01*
X92646428Y-42778809D01*
X96345476Y-932380D02*
X96345476Y-1646666D01*
X96297857Y-1789523D01*
X96202619Y-1884761D01*
X96059761Y-1932380D01*
X95964523Y-1932380D01*
X97345476Y-1932380D02*
X96774047Y-1932380D01*
X97059761Y-1932380D02*
X97059761Y-932380D01*
X96964523Y-1075238D01*
X96869285Y-1170476D01*
X96774047Y-1218095D01*
X97678809Y-932380D02*
X98345476Y-932380D01*
X97916904Y-1932380D01*
X48445680Y-51891652D02*
X48445680Y-52367842D01*
X47445680Y-52367842D01*
X48398061Y-51177366D02*
X48445680Y-51272604D01*
X48445680Y-51463080D01*
X48398061Y-51558319D01*
X48302823Y-51605938D01*
X47921871Y-51605938D01*
X47826633Y-51558319D01*
X47779014Y-51463080D01*
X47779014Y-51272604D01*
X47826633Y-51177366D01*
X47921871Y-51129747D01*
X48017109Y-51129747D01*
X48112347Y-51605938D01*
X47779014Y-50796414D02*
X48445680Y-50558319D01*
X47779014Y-50320223D01*
X48398061Y-49558319D02*
X48445680Y-49653557D01*
X48445680Y-49844033D01*
X48398061Y-49939271D01*
X48302823Y-49986890D01*
X47921871Y-49986890D01*
X47826633Y-49939271D01*
X47779014Y-49844033D01*
X47779014Y-49653557D01*
X47826633Y-49558319D01*
X47921871Y-49510700D01*
X48017109Y-49510700D01*
X48112347Y-49986890D01*
X48445680Y-48939271D02*
X48398061Y-49034509D01*
X48302823Y-49082128D01*
X47445680Y-49082128D01*
X48398061Y-47844033D02*
X48445680Y-47748795D01*
X48445680Y-47558319D01*
X48398061Y-47463080D01*
X48302823Y-47415461D01*
X48255204Y-47415461D01*
X48159966Y-47463080D01*
X48112347Y-47558319D01*
X48112347Y-47701176D01*
X48064728Y-47796414D01*
X47969490Y-47844033D01*
X47921871Y-47844033D01*
X47826633Y-47796414D01*
X47779014Y-47701176D01*
X47779014Y-47558319D01*
X47826633Y-47463080D01*
X48445680Y-46986890D02*
X47445680Y-46986890D01*
X48445680Y-46558319D02*
X47921871Y-46558319D01*
X47826633Y-46605938D01*
X47779014Y-46701176D01*
X47779014Y-46844033D01*
X47826633Y-46939271D01*
X47874252Y-46986890D01*
X48445680Y-46082128D02*
X47779014Y-46082128D01*
X47445680Y-46082128D02*
X47493300Y-46129747D01*
X47540919Y-46082128D01*
X47493300Y-46034509D01*
X47445680Y-46082128D01*
X47540919Y-46082128D01*
X47779014Y-45748795D02*
X47779014Y-45367842D01*
X48445680Y-45605938D02*
X47588538Y-45605938D01*
X47493300Y-45558319D01*
X47445680Y-45463080D01*
X47445680Y-45367842D01*
X47779014Y-45177366D02*
X47779014Y-44796414D01*
X47445680Y-45034509D02*
X48302823Y-45034509D01*
X48398061Y-44986890D01*
X48445680Y-44891652D01*
X48445680Y-44796414D01*
X48398061Y-44082128D02*
X48445680Y-44177366D01*
X48445680Y-44367842D01*
X48398061Y-44463080D01*
X48302823Y-44510700D01*
X47921871Y-44510700D01*
X47826633Y-44463080D01*
X47779014Y-44367842D01*
X47779014Y-44177366D01*
X47826633Y-44082128D01*
X47921871Y-44034509D01*
X48017109Y-44034509D01*
X48112347Y-44510700D01*
X48445680Y-43605938D02*
X47779014Y-43605938D01*
X47969490Y-43605938D02*
X47874252Y-43558319D01*
X47826633Y-43510700D01*
X47779014Y-43415461D01*
X47779014Y-43320223D01*
X48398061Y-43034509D02*
X48445680Y-42939271D01*
X48445680Y-42748795D01*
X48398061Y-42653557D01*
X48302823Y-42605938D01*
X48255204Y-42605938D01*
X48159966Y-42653557D01*
X48112347Y-42748795D01*
X48112347Y-42891652D01*
X48064728Y-42986890D01*
X47969490Y-43034509D01*
X47921871Y-43034509D01*
X47826633Y-42986890D01*
X47779014Y-42891652D01*
X47779014Y-42748795D01*
X47826633Y-42653557D01*
D10*
X44625380Y-41439495D02*
X44625380Y-40626695D01*
X44625380Y-41013742D02*
X45089838Y-41013742D01*
X45089838Y-41439495D02*
X45089838Y-40626695D01*
X45360771Y-40626695D02*
X45631704Y-41439495D01*
X45902638Y-40626695D01*
X46521914Y-40897628D02*
X46521914Y-41439495D01*
X46328390Y-40587990D02*
X46134866Y-41168561D01*
X46638028Y-41168561D01*
X44625380Y-43979495D02*
X44625380Y-43166695D01*
X44625380Y-43553742D02*
X45089838Y-43553742D01*
X45089838Y-43979495D02*
X45089838Y-43166695D01*
X45360771Y-43166695D02*
X45631704Y-43979495D01*
X45902638Y-43166695D01*
X46096161Y-43166695D02*
X46599323Y-43166695D01*
X46328390Y-43476333D01*
X46444504Y-43476333D01*
X46521914Y-43515038D01*
X46560619Y-43553742D01*
X46599323Y-43631152D01*
X46599323Y-43824676D01*
X46560619Y-43902085D01*
X46521914Y-43940790D01*
X46444504Y-43979495D01*
X46212276Y-43979495D01*
X46134866Y-43940790D01*
X46096161Y-43902085D01*
X45100723Y-45745400D02*
X45023314Y-45706695D01*
X44907200Y-45706695D01*
X44791085Y-45745400D01*
X44713676Y-45822809D01*
X44674971Y-45900219D01*
X44636266Y-46055038D01*
X44636266Y-46171152D01*
X44674971Y-46325971D01*
X44713676Y-46403380D01*
X44791085Y-46480790D01*
X44907200Y-46519495D01*
X44984609Y-46519495D01*
X45100723Y-46480790D01*
X45139428Y-46442085D01*
X45139428Y-46171152D01*
X44984609Y-46171152D01*
X45487771Y-46519495D02*
X45487771Y-45706695D01*
X45952228Y-46519495D01*
X45952228Y-45706695D01*
X46339276Y-46519495D02*
X46339276Y-45706695D01*
X46532800Y-45706695D01*
X46648914Y-45745400D01*
X46726323Y-45822809D01*
X46765028Y-45900219D01*
X46803733Y-46055038D01*
X46803733Y-46171152D01*
X46765028Y-46325971D01*
X46726323Y-46403380D01*
X46648914Y-46480790D01*
X46532800Y-46519495D01*
X46339276Y-46519495D01*
X44758428Y-49059495D02*
X44758428Y-48246695D01*
X44758428Y-48633742D02*
X45222885Y-48633742D01*
X45222885Y-49059495D02*
X45222885Y-48246695D01*
X45493819Y-48246695D02*
X45764752Y-49059495D01*
X46035685Y-48246695D01*
X50189190Y-41439495D02*
X49802142Y-41439495D01*
X49802142Y-40626695D01*
X50344009Y-40626695D02*
X50614942Y-41439495D01*
X50885876Y-40626695D01*
X51505152Y-40897628D02*
X51505152Y-41439495D01*
X51311628Y-40587990D02*
X51118104Y-41168561D01*
X51621266Y-41168561D01*
X50189190Y-43979495D02*
X49802142Y-43979495D01*
X49802142Y-43166695D01*
X50344009Y-43166695D02*
X50614942Y-43979495D01*
X50885876Y-43166695D01*
X51079400Y-43166695D02*
X51582561Y-43166695D01*
X51311628Y-43476333D01*
X51427742Y-43476333D01*
X51505152Y-43515038D01*
X51543857Y-43553742D01*
X51582561Y-43631152D01*
X51582561Y-43824676D01*
X51543857Y-43902085D01*
X51505152Y-43940790D01*
X51427742Y-43979495D01*
X51195514Y-43979495D01*
X51118104Y-43940790D01*
X51079400Y-43902085D01*
X49799723Y-45745400D02*
X49722314Y-45706695D01*
X49606200Y-45706695D01*
X49490085Y-45745400D01*
X49412676Y-45822809D01*
X49373971Y-45900219D01*
X49335266Y-46055038D01*
X49335266Y-46171152D01*
X49373971Y-46325971D01*
X49412676Y-46403380D01*
X49490085Y-46480790D01*
X49606200Y-46519495D01*
X49683609Y-46519495D01*
X49799723Y-46480790D01*
X49838428Y-46442085D01*
X49838428Y-46171152D01*
X49683609Y-46171152D01*
X50186771Y-46519495D02*
X50186771Y-45706695D01*
X50651228Y-46519495D01*
X50651228Y-45706695D01*
X51038276Y-46519495D02*
X51038276Y-45706695D01*
X51231800Y-45706695D01*
X51347914Y-45745400D01*
X51425323Y-45822809D01*
X51464028Y-45900219D01*
X51502733Y-46055038D01*
X51502733Y-46171152D01*
X51464028Y-46325971D01*
X51425323Y-46403380D01*
X51347914Y-46480790D01*
X51231800Y-46519495D01*
X51038276Y-46519495D01*
X50957238Y-49059495D02*
X50570190Y-49059495D01*
X50570190Y-48246695D01*
X51112057Y-48246695D02*
X51382990Y-49059495D01*
X51653923Y-48246695D01*
X44752380Y-51599495D02*
X44752380Y-50786695D01*
X44752380Y-51173742D02*
X45216838Y-51173742D01*
X45216838Y-51599495D02*
X45216838Y-50786695D01*
X45487771Y-50786695D02*
X45758704Y-51599495D01*
X46029638Y-50786695D01*
X46261866Y-50864104D02*
X46300571Y-50825400D01*
X46377980Y-50786695D01*
X46571504Y-50786695D01*
X46648914Y-50825400D01*
X46687619Y-50864104D01*
X46726323Y-50941514D01*
X46726323Y-51018923D01*
X46687619Y-51135038D01*
X46223161Y-51599495D01*
X46726323Y-51599495D01*
X44625380Y-54139495D02*
X44625380Y-53326695D01*
X44625380Y-53713742D02*
X45089838Y-53713742D01*
X45089838Y-54139495D02*
X45089838Y-53326695D01*
X45360771Y-53326695D02*
X45631704Y-54139495D01*
X45902638Y-53326695D01*
X46599323Y-54139495D02*
X46134866Y-54139495D01*
X46367095Y-54139495D02*
X46367095Y-53326695D01*
X46289685Y-53442809D01*
X46212276Y-53520219D01*
X46134866Y-53558923D01*
X50189190Y-51599495D02*
X49802142Y-51599495D01*
X49802142Y-50786695D01*
X50344009Y-50786695D02*
X50614942Y-51599495D01*
X50885876Y-50786695D01*
X51118104Y-50864104D02*
X51156809Y-50825400D01*
X51234219Y-50786695D01*
X51427742Y-50786695D01*
X51505152Y-50825400D01*
X51543857Y-50864104D01*
X51582561Y-50941514D01*
X51582561Y-51018923D01*
X51543857Y-51135038D01*
X51079400Y-51599495D01*
X51582561Y-51599495D01*
X50189190Y-54139495D02*
X49802142Y-54139495D01*
X49802142Y-53326695D01*
X50344009Y-53326695D02*
X50614942Y-54139495D01*
X50885876Y-53326695D01*
X51582561Y-54139495D02*
X51118104Y-54139495D01*
X51350333Y-54139495D02*
X51350333Y-53326695D01*
X51272923Y-53442809D01*
X51195514Y-53520219D01*
X51118104Y-53558923D01*
D12*
X83645476Y-50850380D02*
X83645476Y-51564666D01*
X83597857Y-51707523D01*
X83502619Y-51802761D01*
X83359761Y-51850380D01*
X83264523Y-51850380D01*
X84645476Y-51850380D02*
X84074047Y-51850380D01*
X84359761Y-51850380D02*
X84359761Y-50850380D01*
X84264523Y-50993238D01*
X84169285Y-51088476D01*
X84074047Y-51136095D01*
X85550238Y-50850380D02*
X85074047Y-50850380D01*
X85026428Y-51326571D01*
X85074047Y-51278952D01*
X85169285Y-51231333D01*
X85407380Y-51231333D01*
X85502619Y-51278952D01*
X85550238Y-51326571D01*
X85597857Y-51421809D01*
X85597857Y-51659904D01*
X85550238Y-51755142D01*
X85502619Y-51802761D01*
X85407380Y-51850380D01*
X85169285Y-51850380D01*
X85074047Y-51802761D01*
X85026428Y-51755142D01*
X122856666Y19687619D02*
X122856666Y18973333D01*
X122809047Y18830476D01*
X122713809Y18735238D01*
X122570952Y18687619D01*
X122475714Y18687619D01*
X123761428Y19687619D02*
X123570952Y19687619D01*
X123475714Y19640000D01*
X123428095Y19592380D01*
X123332857Y19449523D01*
X123285238Y19259047D01*
X123285238Y18878095D01*
X123332857Y18782857D01*
X123380476Y18735238D01*
X123475714Y18687619D01*
X123666190Y18687619D01*
X123761428Y18735238D01*
X123809047Y18782857D01*
X123856666Y18878095D01*
X123856666Y19116190D01*
X123809047Y19211428D01*
X123761428Y19259047D01*
X123666190Y19306666D01*
X123475714Y19306666D01*
X123380476Y19259047D01*
X123332857Y19211428D01*
X123285238Y19116190D01*
X142344876Y22061419D02*
X142344876Y21347133D01*
X142297257Y21204276D01*
X142202019Y21109038D01*
X142059161Y21061419D01*
X141963923Y21061419D01*
X143344876Y21061419D02*
X142773447Y21061419D01*
X143059161Y21061419D02*
X143059161Y22061419D01*
X142963923Y21918561D01*
X142868685Y21823323D01*
X142773447Y21775704D01*
X143678209Y22061419D02*
X144297257Y22061419D01*
X143963923Y21680466D01*
X144106780Y21680466D01*
X144202019Y21632847D01*
X144249638Y21585228D01*
X144297257Y21489990D01*
X144297257Y21251895D01*
X144249638Y21156657D01*
X144202019Y21109038D01*
X144106780Y21061419D01*
X143821066Y21061419D01*
X143725828Y21109038D01*
X143678209Y21156657D01*
X142827476Y8218419D02*
X142827476Y7504133D01*
X142779857Y7361276D01*
X142684619Y7266038D01*
X142541761Y7218419D01*
X142446523Y7218419D01*
X143827476Y7218419D02*
X143256047Y7218419D01*
X143541761Y7218419D02*
X143541761Y8218419D01*
X143446523Y8075561D01*
X143351285Y7980323D01*
X143256047Y7932704D01*
X144684619Y7885085D02*
X144684619Y7218419D01*
X144446523Y8266038D02*
X144208428Y7551752D01*
X144827476Y7551752D01*
X131092676Y19521419D02*
X131092676Y18807133D01*
X131045057Y18664276D01*
X130949819Y18569038D01*
X130806961Y18521419D01*
X130711723Y18521419D01*
X132092676Y18521419D02*
X131521247Y18521419D01*
X131806961Y18521419D02*
X131806961Y19521419D01*
X131711723Y19378561D01*
X131616485Y19283323D01*
X131521247Y19235704D01*
X133045057Y18521419D02*
X132473628Y18521419D01*
X132759342Y18521419D02*
X132759342Y19521419D01*
X132664104Y19378561D01*
X132568866Y19283323D01*
X132473628Y19235704D01*
X130657695Y17124419D02*
X130657695Y18124419D01*
X130657695Y17648228D02*
X131229123Y17648228D01*
X131229123Y17124419D02*
X131229123Y18124419D01*
X131610076Y18124419D02*
X132229123Y18124419D01*
X131895790Y17743466D01*
X132038647Y17743466D01*
X132133885Y17695847D01*
X132181504Y17648228D01*
X132229123Y17552990D01*
X132229123Y17314895D01*
X132181504Y17219657D01*
X132133885Y17172038D01*
X132038647Y17124419D01*
X131752933Y17124419D01*
X131657695Y17172038D01*
X131610076Y17219657D01*
X99495076Y19699219D02*
X99495076Y18984933D01*
X99447457Y18842076D01*
X99352219Y18746838D01*
X99209361Y18699219D01*
X99114123Y18699219D01*
X100495076Y18699219D02*
X99923647Y18699219D01*
X100209361Y18699219D02*
X100209361Y19699219D01*
X100114123Y19556361D01*
X100018885Y19461123D01*
X99923647Y19413504D01*
X100876028Y19603980D02*
X100923647Y19651600D01*
X101018885Y19699219D01*
X101256980Y19699219D01*
X101352219Y19651600D01*
X101399838Y19603980D01*
X101447457Y19508742D01*
X101447457Y19413504D01*
X101399838Y19270647D01*
X100828409Y18699219D01*
X101447457Y18699219D01*
X113497838Y-40314619D02*
X113545457Y-40267000D01*
X113640695Y-40219380D01*
X113878790Y-40219380D01*
X113974028Y-40267000D01*
X114021647Y-40314619D01*
X114069266Y-40409857D01*
X114069266Y-40505095D01*
X114021647Y-40647952D01*
X113450219Y-41219380D01*
X114069266Y-41219380D01*
X115688314Y-41171761D02*
X115593076Y-41219380D01*
X115402600Y-41219380D01*
X115307361Y-41171761D01*
X115259742Y-41124142D01*
X115212123Y-41028904D01*
X115212123Y-40743190D01*
X115259742Y-40647952D01*
X115307361Y-40600333D01*
X115402600Y-40552714D01*
X115593076Y-40552714D01*
X115688314Y-40600333D01*
X116116885Y-41219380D02*
X116116885Y-40219380D01*
X116545457Y-41219380D02*
X116545457Y-40695571D01*
X116497838Y-40600333D01*
X116402600Y-40552714D01*
X116259742Y-40552714D01*
X116164504Y-40600333D01*
X116116885Y-40647952D01*
X117450219Y-41219380D02*
X117450219Y-40695571D01*
X117402600Y-40600333D01*
X117307361Y-40552714D01*
X117116885Y-40552714D01*
X117021647Y-40600333D01*
X117450219Y-41171761D02*
X117354980Y-41219380D01*
X117116885Y-41219380D01*
X117021647Y-41171761D01*
X116974028Y-41076523D01*
X116974028Y-40981285D01*
X117021647Y-40886047D01*
X117116885Y-40838428D01*
X117354980Y-40838428D01*
X117450219Y-40790809D01*
X117926409Y-40552714D02*
X117926409Y-41219380D01*
X117926409Y-40647952D02*
X117974028Y-40600333D01*
X118069266Y-40552714D01*
X118212123Y-40552714D01*
X118307361Y-40600333D01*
X118354980Y-40695571D01*
X118354980Y-41219380D01*
X118831171Y-40552714D02*
X118831171Y-41219380D01*
X118831171Y-40647952D02*
X118878790Y-40600333D01*
X118974028Y-40552714D01*
X119116885Y-40552714D01*
X119212123Y-40600333D01*
X119259742Y-40695571D01*
X119259742Y-41219380D01*
X120116885Y-41171761D02*
X120021647Y-41219380D01*
X119831171Y-41219380D01*
X119735933Y-41171761D01*
X119688314Y-41076523D01*
X119688314Y-40695571D01*
X119735933Y-40600333D01*
X119831171Y-40552714D01*
X120021647Y-40552714D01*
X120116885Y-40600333D01*
X120164504Y-40695571D01*
X120164504Y-40790809D01*
X119688314Y-40886047D01*
X120735933Y-41219380D02*
X120640695Y-41171761D01*
X120593076Y-41076523D01*
X120593076Y-40219380D01*
X121878790Y-41219380D02*
X121878790Y-40552714D01*
X121878790Y-40743190D02*
X121926409Y-40647952D01*
X121974028Y-40600333D01*
X122069266Y-40552714D01*
X122164504Y-40552714D01*
X122878790Y-41171761D02*
X122783552Y-41219380D01*
X122593076Y-41219380D01*
X122497838Y-41171761D01*
X122450219Y-41076523D01*
X122450219Y-40695571D01*
X122497838Y-40600333D01*
X122593076Y-40552714D01*
X122783552Y-40552714D01*
X122878790Y-40600333D01*
X122926409Y-40695571D01*
X122926409Y-40790809D01*
X122450219Y-40886047D01*
X123497838Y-41219380D02*
X123402600Y-41171761D01*
X123354980Y-41076523D01*
X123354980Y-40219380D01*
X124307361Y-41219380D02*
X124307361Y-40695571D01*
X124259742Y-40600333D01*
X124164504Y-40552714D01*
X123974028Y-40552714D01*
X123878790Y-40600333D01*
X124307361Y-41171761D02*
X124212123Y-41219380D01*
X123974028Y-41219380D01*
X123878790Y-41171761D01*
X123831171Y-41076523D01*
X123831171Y-40981285D01*
X123878790Y-40886047D01*
X123974028Y-40838428D01*
X124212123Y-40838428D01*
X124307361Y-40790809D01*
X124688314Y-40552714D02*
X124926409Y-41219380D01*
X125164504Y-40552714D02*
X124926409Y-41219380D01*
X124831171Y-41457476D01*
X124783552Y-41505095D01*
X124688314Y-41552714D01*
X126307361Y-41219380D02*
X126307361Y-40552714D01*
X126307361Y-40647952D02*
X126354980Y-40600333D01*
X126450219Y-40552714D01*
X126593076Y-40552714D01*
X126688314Y-40600333D01*
X126735933Y-40695571D01*
X126735933Y-41219380D01*
X126735933Y-40695571D02*
X126783552Y-40600333D01*
X126878790Y-40552714D01*
X127021647Y-40552714D01*
X127116885Y-40600333D01*
X127164504Y-40695571D01*
X127164504Y-41219380D01*
X127783552Y-41219380D02*
X127688314Y-41171761D01*
X127640695Y-41124142D01*
X127593076Y-41028904D01*
X127593076Y-40743190D01*
X127640695Y-40647952D01*
X127688314Y-40600333D01*
X127783552Y-40552714D01*
X127926409Y-40552714D01*
X128021647Y-40600333D01*
X128069266Y-40647952D01*
X128116885Y-40743190D01*
X128116885Y-41028904D01*
X128069266Y-41124142D01*
X128021647Y-41171761D01*
X127926409Y-41219380D01*
X127783552Y-41219380D01*
X128974028Y-41219380D02*
X128974028Y-40219380D01*
X128974028Y-41171761D02*
X128878790Y-41219380D01*
X128688314Y-41219380D01*
X128593076Y-41171761D01*
X128545457Y-41124142D01*
X128497838Y-41028904D01*
X128497838Y-40743190D01*
X128545457Y-40647952D01*
X128593076Y-40600333D01*
X128688314Y-40552714D01*
X128878790Y-40552714D01*
X128974028Y-40600333D01*
X129878790Y-40552714D02*
X129878790Y-41219380D01*
X129450219Y-40552714D02*
X129450219Y-41076523D01*
X129497838Y-41171761D01*
X129593076Y-41219380D01*
X129735933Y-41219380D01*
X129831171Y-41171761D01*
X129878790Y-41124142D01*
X130497838Y-41219380D02*
X130402600Y-41171761D01*
X130354980Y-41076523D01*
X130354980Y-40219380D01*
X131259742Y-41171761D02*
X131164504Y-41219380D01*
X130974028Y-41219380D01*
X130878790Y-41171761D01*
X130831171Y-41076523D01*
X130831171Y-40695571D01*
X130878790Y-40600333D01*
X130974028Y-40552714D01*
X131164504Y-40552714D01*
X131259742Y-40600333D01*
X131307361Y-40695571D01*
X131307361Y-40790809D01*
X130831171Y-40886047D01*
X101386666Y8272619D02*
X101386666Y7558333D01*
X101339047Y7415476D01*
X101243809Y7320238D01*
X101100952Y7272619D01*
X101005714Y7272619D01*
X101862857Y7272619D02*
X101862857Y8272619D01*
X102243809Y8272619D01*
X102339047Y8225000D01*
X102386666Y8177380D01*
X102434285Y8082142D01*
X102434285Y7939285D01*
X102386666Y7844047D01*
X102339047Y7796428D01*
X102243809Y7748809D01*
X101862857Y7748809D01*
X103386666Y7272619D02*
X102815238Y7272619D01*
X103100952Y7272619D02*
X103100952Y8272619D01*
X103005714Y8129761D01*
X102910476Y8034523D01*
X102815238Y7986904D01*
X88100000Y-12371428D02*
X88300000Y-12971428D01*
X88500000Y-12371428D01*
X89042857Y-12914285D02*
X89014285Y-12942857D01*
X88928571Y-12971428D01*
X88871428Y-12971428D01*
X88785714Y-12942857D01*
X88728571Y-12885714D01*
X88700000Y-12828571D01*
X88671428Y-12714285D01*
X88671428Y-12628571D01*
X88700000Y-12514285D01*
X88728571Y-12457142D01*
X88785714Y-12400000D01*
X88871428Y-12371428D01*
X88928571Y-12371428D01*
X89014285Y-12400000D01*
X89042857Y-12428571D01*
X89642857Y-12914285D02*
X89614285Y-12942857D01*
X89528571Y-12971428D01*
X89471428Y-12971428D01*
X89385714Y-12942857D01*
X89328571Y-12885714D01*
X89300000Y-12828571D01*
X89271428Y-12714285D01*
X89271428Y-12628571D01*
X89300000Y-12514285D01*
X89328571Y-12457142D01*
X89385714Y-12400000D01*
X89471428Y-12371428D01*
X89528571Y-12371428D01*
X89614285Y-12400000D01*
X89642857Y-12428571D01*
X88657142Y-10431428D02*
X88457142Y-10145714D01*
X88314285Y-10431428D02*
X88314285Y-9831428D01*
X88542857Y-9831428D01*
X88600000Y-9860000D01*
X88628571Y-9888571D01*
X88657142Y-9945714D01*
X88657142Y-10031428D01*
X88628571Y-10088571D01*
X88600000Y-10117142D01*
X88542857Y-10145714D01*
X88314285Y-10145714D01*
X88857142Y-9831428D02*
X89257142Y-10431428D01*
X89257142Y-9831428D02*
X88857142Y-10431428D01*
X89485714Y-10431428D02*
X89485714Y-9831428D01*
X88142857Y-7291428D02*
X88485714Y-7291428D01*
X88314285Y-7891428D02*
X88314285Y-7291428D01*
X88628571Y-7291428D02*
X89028571Y-7891428D01*
X89028571Y-7291428D02*
X88628571Y-7891428D01*
X89257142Y-7891428D02*
X89257142Y-7291428D01*
X89400000Y-7291428D01*
X89485714Y-7320000D01*
X89542857Y-7377142D01*
X89571428Y-7434285D01*
X89600000Y-7548571D01*
X89600000Y-7634285D01*
X89571428Y-7748571D01*
X89542857Y-7805714D01*
X89485714Y-7862857D01*
X89400000Y-7891428D01*
X89257142Y-7891428D01*
X88214285Y-5986428D02*
X88214285Y-5386428D01*
X88357142Y-5386428D01*
X88442857Y-5415000D01*
X88500000Y-5472142D01*
X88528571Y-5529285D01*
X88557142Y-5643571D01*
X88557142Y-5729285D01*
X88528571Y-5843571D01*
X88500000Y-5900714D01*
X88442857Y-5957857D01*
X88357142Y-5986428D01*
X88214285Y-5986428D01*
X88728571Y-5386428D02*
X89071428Y-5386428D01*
X88900000Y-5986428D02*
X88900000Y-5386428D01*
X89614285Y-5986428D02*
X89414285Y-5700714D01*
X89271428Y-5986428D02*
X89271428Y-5386428D01*
X89500000Y-5386428D01*
X89557142Y-5415000D01*
X89585714Y-5443571D01*
X89614285Y-5500714D01*
X89614285Y-5586428D01*
X89585714Y-5643571D01*
X89557142Y-5672142D01*
X89500000Y-5700714D01*
X89271428Y-5700714D01*
X88442857Y-16845000D02*
X88385714Y-16816428D01*
X88300000Y-16816428D01*
X88214285Y-16845000D01*
X88157142Y-16902142D01*
X88128571Y-16959285D01*
X88100000Y-17073571D01*
X88100000Y-17159285D01*
X88128571Y-17273571D01*
X88157142Y-17330714D01*
X88214285Y-17387857D01*
X88300000Y-17416428D01*
X88357142Y-17416428D01*
X88442857Y-17387857D01*
X88471428Y-17359285D01*
X88471428Y-17159285D01*
X88357142Y-17159285D01*
X88728571Y-17416428D02*
X88728571Y-16816428D01*
X89071428Y-17416428D01*
X89071428Y-16816428D01*
X89357142Y-17416428D02*
X89357142Y-16816428D01*
X89500000Y-16816428D01*
X89585714Y-16845000D01*
X89642857Y-16902142D01*
X89671428Y-16959285D01*
X89700000Y-17073571D01*
X89700000Y-17159285D01*
X89671428Y-17273571D01*
X89642857Y-17330714D01*
X89585714Y-17387857D01*
X89500000Y-17416428D01*
X89357142Y-17416428D01*
X88442857Y-14940000D02*
X88385714Y-14911428D01*
X88300000Y-14911428D01*
X88214285Y-14940000D01*
X88157142Y-14997142D01*
X88128571Y-15054285D01*
X88100000Y-15168571D01*
X88100000Y-15254285D01*
X88128571Y-15368571D01*
X88157142Y-15425714D01*
X88214285Y-15482857D01*
X88300000Y-15511428D01*
X88357142Y-15511428D01*
X88442857Y-15482857D01*
X88471428Y-15454285D01*
X88471428Y-15254285D01*
X88357142Y-15254285D01*
X88728571Y-15511428D02*
X88728571Y-14911428D01*
X89071428Y-15511428D01*
X89071428Y-14911428D01*
X89357142Y-15511428D02*
X89357142Y-14911428D01*
X89500000Y-14911428D01*
X89585714Y-14940000D01*
X89642857Y-14997142D01*
X89671428Y-15054285D01*
X89700000Y-15168571D01*
X89700000Y-15254285D01*
X89671428Y-15368571D01*
X89642857Y-15425714D01*
X89585714Y-15482857D01*
X89500000Y-15511428D01*
X89357142Y-15511428D01*
X34823495Y-56433980D02*
X34823495Y-55433980D01*
X34823495Y-55910171D02*
X35394923Y-55910171D01*
X35394923Y-56433980D02*
X35394923Y-55433980D01*
X35823495Y-55529219D02*
X35871114Y-55481600D01*
X35966352Y-55433980D01*
X36204447Y-55433980D01*
X36299685Y-55481600D01*
X36347304Y-55529219D01*
X36394923Y-55624457D01*
X36394923Y-55719695D01*
X36347304Y-55862552D01*
X35775876Y-56433980D01*
X36394923Y-56433980D01*
X36068095Y29467619D02*
X36068095Y30467619D01*
X36068095Y29991428D02*
X36639523Y29991428D01*
X36639523Y29467619D02*
X36639523Y30467619D01*
X37639523Y29467619D02*
X37068095Y29467619D01*
X37353809Y29467619D02*
X37353809Y30467619D01*
X37258571Y30324761D01*
X37163333Y30229523D01*
X37068095Y30181904D01*
X41272380Y12366666D02*
X41986666Y12366666D01*
X42129523Y12319047D01*
X42224761Y12223809D01*
X42272380Y12080952D01*
X42272380Y11985714D01*
X41367619Y12795238D02*
X41320000Y12842857D01*
X41272380Y12938095D01*
X41272380Y13176190D01*
X41320000Y13271428D01*
X41367619Y13319047D01*
X41462857Y13366666D01*
X41558095Y13366666D01*
X41700952Y13319047D01*
X42272380Y12747619D01*
X42272380Y13366666D01*
X41272380Y936666D02*
X41986666Y936666D01*
X42129523Y889047D01*
X42224761Y793809D01*
X42272380Y650952D01*
X42272380Y555714D01*
X42272380Y1936666D02*
X42272380Y1365238D01*
X42272380Y1650952D02*
X41272380Y1650952D01*
X41415238Y1555714D01*
X41510476Y1460476D01*
X41558095Y1365238D01*
X41272380Y-38433333D02*
X41986666Y-38433333D01*
X42129523Y-38480952D01*
X42224761Y-38576190D01*
X42272380Y-38719047D01*
X42272380Y-38814285D01*
X42272380Y-37909523D02*
X42272380Y-37719047D01*
X42224761Y-37623809D01*
X42177142Y-37576190D01*
X42034285Y-37480952D01*
X41843809Y-37433333D01*
X41462857Y-37433333D01*
X41367619Y-37480952D01*
X41320000Y-37528571D01*
X41272380Y-37623809D01*
X41272380Y-37814285D01*
X41320000Y-37909523D01*
X41367619Y-37957142D01*
X41462857Y-38004761D01*
X41700952Y-38004761D01*
X41796190Y-37957142D01*
X41843809Y-37909523D01*
X41891428Y-37814285D01*
X41891428Y-37623809D01*
X41843809Y-37528571D01*
X41796190Y-37480952D01*
X41700952Y-37433333D01*
X39101780Y-56492733D02*
X39816066Y-56492733D01*
X39958923Y-56540352D01*
X40054161Y-56635590D01*
X40101780Y-56778447D01*
X40101780Y-56873685D01*
X39530352Y-55873685D02*
X39482733Y-55968923D01*
X39435114Y-56016542D01*
X39339876Y-56064161D01*
X39292257Y-56064161D01*
X39197019Y-56016542D01*
X39149400Y-55968923D01*
X39101780Y-55873685D01*
X39101780Y-55683209D01*
X39149400Y-55587971D01*
X39197019Y-55540352D01*
X39292257Y-55492733D01*
X39339876Y-55492733D01*
X39435114Y-55540352D01*
X39482733Y-55587971D01*
X39530352Y-55683209D01*
X39530352Y-55873685D01*
X39577971Y-55968923D01*
X39625590Y-56016542D01*
X39720828Y-56064161D01*
X39911304Y-56064161D01*
X40006542Y-56016542D01*
X40054161Y-55968923D01*
X40101780Y-55873685D01*
X40101780Y-55683209D01*
X40054161Y-55587971D01*
X40006542Y-55540352D01*
X39911304Y-55492733D01*
X39720828Y-55492733D01*
X39625590Y-55540352D01*
X39577971Y-55587971D01*
X39530352Y-55683209D01*
X41184580Y-26215933D02*
X41898866Y-26215933D01*
X42041723Y-26263552D01*
X42136961Y-26358790D01*
X42184580Y-26501647D01*
X42184580Y-26596885D01*
X41184580Y-25834980D02*
X41184580Y-25168314D01*
X42184580Y-25596885D01*
X47926666Y19687619D02*
X47926666Y18973333D01*
X47879047Y18830476D01*
X47783809Y18735238D01*
X47640952Y18687619D01*
X47545714Y18687619D01*
X48831428Y19354285D02*
X48831428Y18687619D01*
X48593333Y19735238D02*
X48355238Y19020952D01*
X48974285Y19020952D01*
X41272380Y-13033333D02*
X41986666Y-13033333D01*
X42129523Y-13080952D01*
X42224761Y-13176190D01*
X42272380Y-13319047D01*
X42272380Y-13414285D01*
X41272380Y-12652380D02*
X41272380Y-12033333D01*
X41653333Y-12366666D01*
X41653333Y-12223809D01*
X41700952Y-12128571D01*
X41748571Y-12080952D01*
X41843809Y-12033333D01*
X42081904Y-12033333D01*
X42177142Y-12080952D01*
X42224761Y-12128571D01*
X42272380Y-12223809D01*
X42272380Y-12509523D01*
X42224761Y-12604761D01*
X42177142Y-12652380D01*
X70537763Y-40850272D02*
X70459390Y-41007020D01*
X70302642Y-41163767D01*
X70067520Y-41398889D01*
X69989147Y-41555636D01*
X69989147Y-41712384D01*
X70381016Y-41634010D02*
X70302642Y-41790758D01*
X70145894Y-41947505D01*
X69832399Y-42025879D01*
X69283782Y-42025879D01*
X68970287Y-41947505D01*
X68813540Y-41790758D01*
X68735166Y-41634010D01*
X68735166Y-41320515D01*
X68813540Y-41163767D01*
X68970287Y-41007020D01*
X69283782Y-40928646D01*
X69832399Y-40928646D01*
X70145894Y-41007020D01*
X70302642Y-41163767D01*
X70381016Y-41320515D01*
X70381016Y-41634010D01*
X68735166Y-39439544D02*
X68735166Y-40223282D01*
X69518904Y-40301655D01*
X69440530Y-40223282D01*
X69362156Y-40066534D01*
X69362156Y-39674665D01*
X69440530Y-39517917D01*
X69518904Y-39439544D01*
X69675651Y-39361170D01*
X70067520Y-39361170D01*
X70224268Y-39439544D01*
X70302642Y-39517917D01*
X70381016Y-39674665D01*
X70381016Y-40066534D01*
X70302642Y-40223282D01*
X70224268Y-40301655D01*
X114678866Y-6548380D02*
X114107438Y-6548380D01*
X114393152Y-6548380D02*
X114393152Y-5548380D01*
X114297914Y-5691238D01*
X114202676Y-5786476D01*
X114107438Y-5834095D01*
X116297914Y-6500761D02*
X116202676Y-6548380D01*
X116012200Y-6548380D01*
X115916961Y-6500761D01*
X115869342Y-6453142D01*
X115821723Y-6357904D01*
X115821723Y-6072190D01*
X115869342Y-5976952D01*
X115916961Y-5929333D01*
X116012200Y-5881714D01*
X116202676Y-5881714D01*
X116297914Y-5929333D01*
X116726485Y-6548380D02*
X116726485Y-5548380D01*
X117155057Y-6548380D02*
X117155057Y-6024571D01*
X117107438Y-5929333D01*
X117012200Y-5881714D01*
X116869342Y-5881714D01*
X116774104Y-5929333D01*
X116726485Y-5976952D01*
X118059819Y-6548380D02*
X118059819Y-6024571D01*
X118012200Y-5929333D01*
X117916961Y-5881714D01*
X117726485Y-5881714D01*
X117631247Y-5929333D01*
X118059819Y-6500761D02*
X117964580Y-6548380D01*
X117726485Y-6548380D01*
X117631247Y-6500761D01*
X117583628Y-6405523D01*
X117583628Y-6310285D01*
X117631247Y-6215047D01*
X117726485Y-6167428D01*
X117964580Y-6167428D01*
X118059819Y-6119809D01*
X118536009Y-5881714D02*
X118536009Y-6548380D01*
X118536009Y-5976952D02*
X118583628Y-5929333D01*
X118678866Y-5881714D01*
X118821723Y-5881714D01*
X118916961Y-5929333D01*
X118964580Y-6024571D01*
X118964580Y-6548380D01*
X119440771Y-5881714D02*
X119440771Y-6548380D01*
X119440771Y-5976952D02*
X119488390Y-5929333D01*
X119583628Y-5881714D01*
X119726485Y-5881714D01*
X119821723Y-5929333D01*
X119869342Y-6024571D01*
X119869342Y-6548380D01*
X120726485Y-6500761D02*
X120631247Y-6548380D01*
X120440771Y-6548380D01*
X120345533Y-6500761D01*
X120297914Y-6405523D01*
X120297914Y-6024571D01*
X120345533Y-5929333D01*
X120440771Y-5881714D01*
X120631247Y-5881714D01*
X120726485Y-5929333D01*
X120774104Y-6024571D01*
X120774104Y-6119809D01*
X120297914Y-6215047D01*
X121345533Y-6548380D02*
X121250295Y-6500761D01*
X121202676Y-6405523D01*
X121202676Y-5548380D01*
X122488390Y-6548380D02*
X122488390Y-5881714D01*
X122488390Y-6072190D02*
X122536009Y-5976952D01*
X122583628Y-5929333D01*
X122678866Y-5881714D01*
X122774104Y-5881714D01*
X123488390Y-6500761D02*
X123393152Y-6548380D01*
X123202676Y-6548380D01*
X123107438Y-6500761D01*
X123059819Y-6405523D01*
X123059819Y-6024571D01*
X123107438Y-5929333D01*
X123202676Y-5881714D01*
X123393152Y-5881714D01*
X123488390Y-5929333D01*
X123536009Y-6024571D01*
X123536009Y-6119809D01*
X123059819Y-6215047D01*
X124107438Y-6548380D02*
X124012200Y-6500761D01*
X123964580Y-6405523D01*
X123964580Y-5548380D01*
X124916961Y-6548380D02*
X124916961Y-6024571D01*
X124869342Y-5929333D01*
X124774104Y-5881714D01*
X124583628Y-5881714D01*
X124488390Y-5929333D01*
X124916961Y-6500761D02*
X124821723Y-6548380D01*
X124583628Y-6548380D01*
X124488390Y-6500761D01*
X124440771Y-6405523D01*
X124440771Y-6310285D01*
X124488390Y-6215047D01*
X124583628Y-6167428D01*
X124821723Y-6167428D01*
X124916961Y-6119809D01*
X125297914Y-5881714D02*
X125536009Y-6548380D01*
X125774104Y-5881714D02*
X125536009Y-6548380D01*
X125440771Y-6786476D01*
X125393152Y-6834095D01*
X125297914Y-6881714D01*
X126916961Y-6548380D02*
X126916961Y-5881714D01*
X126916961Y-5976952D02*
X126964580Y-5929333D01*
X127059819Y-5881714D01*
X127202676Y-5881714D01*
X127297914Y-5929333D01*
X127345533Y-6024571D01*
X127345533Y-6548380D01*
X127345533Y-6024571D02*
X127393152Y-5929333D01*
X127488390Y-5881714D01*
X127631247Y-5881714D01*
X127726485Y-5929333D01*
X127774104Y-6024571D01*
X127774104Y-6548380D01*
X128393152Y-6548380D02*
X128297914Y-6500761D01*
X128250295Y-6453142D01*
X128202676Y-6357904D01*
X128202676Y-6072190D01*
X128250295Y-5976952D01*
X128297914Y-5929333D01*
X128393152Y-5881714D01*
X128536009Y-5881714D01*
X128631247Y-5929333D01*
X128678866Y-5976952D01*
X128726485Y-6072190D01*
X128726485Y-6357904D01*
X128678866Y-6453142D01*
X128631247Y-6500761D01*
X128536009Y-6548380D01*
X128393152Y-6548380D01*
X129583628Y-6548380D02*
X129583628Y-5548380D01*
X129583628Y-6500761D02*
X129488390Y-6548380D01*
X129297914Y-6548380D01*
X129202676Y-6500761D01*
X129155057Y-6453142D01*
X129107438Y-6357904D01*
X129107438Y-6072190D01*
X129155057Y-5976952D01*
X129202676Y-5929333D01*
X129297914Y-5881714D01*
X129488390Y-5881714D01*
X129583628Y-5929333D01*
X130488390Y-5881714D02*
X130488390Y-6548380D01*
X130059819Y-5881714D02*
X130059819Y-6405523D01*
X130107438Y-6500761D01*
X130202676Y-6548380D01*
X130345533Y-6548380D01*
X130440771Y-6500761D01*
X130488390Y-6453142D01*
X131107438Y-6548380D02*
X131012200Y-6500761D01*
X130964580Y-6405523D01*
X130964580Y-5548380D01*
X131869342Y-6500761D02*
X131774104Y-6548380D01*
X131583628Y-6548380D01*
X131488390Y-6500761D01*
X131440771Y-6405523D01*
X131440771Y-6024571D01*
X131488390Y-5929333D01*
X131583628Y-5881714D01*
X131774104Y-5881714D01*
X131869342Y-5929333D01*
X131916961Y-6024571D01*
X131916961Y-6119809D01*
X131440771Y-6215047D01*
X130849619Y9861561D02*
X130802000Y9766323D01*
X130706761Y9671085D01*
X130563904Y9528228D01*
X130516285Y9432990D01*
X130516285Y9337752D01*
X130754380Y9385371D02*
X130706761Y9290133D01*
X130611523Y9194895D01*
X130421047Y9147276D01*
X130087714Y9147276D01*
X129897238Y9194895D01*
X129802000Y9290133D01*
X129754380Y9385371D01*
X129754380Y9575847D01*
X129802000Y9671085D01*
X129897238Y9766323D01*
X130087714Y9813942D01*
X130421047Y9813942D01*
X130611523Y9766323D01*
X130706761Y9671085D01*
X130754380Y9575847D01*
X130754380Y9385371D01*
X129754380Y10147276D02*
X129754380Y10766323D01*
X130135333Y10432990D01*
X130135333Y10575847D01*
X130182952Y10671085D01*
X130230571Y10718704D01*
X130325809Y10766323D01*
X130563904Y10766323D01*
X130659142Y10718704D01*
X130706761Y10671085D01*
X130754380Y10575847D01*
X130754380Y10290133D01*
X130706761Y10194895D01*
X130659142Y10147276D01*
X110547161Y7123180D02*
X110451923Y7170800D01*
X110356685Y7266038D01*
X110213828Y7408895D01*
X110118590Y7456514D01*
X110023352Y7456514D01*
X110070971Y7218419D02*
X109975733Y7266038D01*
X109880495Y7361276D01*
X109832876Y7551752D01*
X109832876Y7885085D01*
X109880495Y8075561D01*
X109975733Y8170800D01*
X110070971Y8218419D01*
X110261447Y8218419D01*
X110356685Y8170800D01*
X110451923Y8075561D01*
X110499542Y7885085D01*
X110499542Y7551752D01*
X110451923Y7361276D01*
X110356685Y7266038D01*
X110261447Y7218419D01*
X110070971Y7218419D01*
X111356685Y7885085D02*
X111356685Y7218419D01*
X111118590Y8266038D02*
X110880495Y7551752D01*
X111499542Y7551752D01*
X85528161Y-38647619D02*
X85432923Y-38600000D01*
X85337685Y-38504761D01*
X85194828Y-38361904D01*
X85099590Y-38314285D01*
X85004352Y-38314285D01*
X85051971Y-38552380D02*
X84956733Y-38504761D01*
X84861495Y-38409523D01*
X84813876Y-38219047D01*
X84813876Y-37885714D01*
X84861495Y-37695238D01*
X84956733Y-37600000D01*
X85051971Y-37552380D01*
X85242447Y-37552380D01*
X85337685Y-37600000D01*
X85432923Y-37695238D01*
X85480542Y-37885714D01*
X85480542Y-38219047D01*
X85432923Y-38409523D01*
X85337685Y-38504761D01*
X85242447Y-38552380D01*
X85051971Y-38552380D01*
X85861495Y-37647619D02*
X85909114Y-37600000D01*
X86004352Y-37552380D01*
X86242447Y-37552380D01*
X86337685Y-37600000D01*
X86385304Y-37647619D01*
X86432923Y-37742857D01*
X86432923Y-37838095D01*
X86385304Y-37980952D01*
X85813876Y-38552380D01*
X86432923Y-38552380D01*
X49663361Y-5907019D02*
X49568123Y-5859400D01*
X49472885Y-5764161D01*
X49330028Y-5621304D01*
X49234790Y-5573685D01*
X49139552Y-5573685D01*
X49187171Y-5811780D02*
X49091933Y-5764161D01*
X48996695Y-5668923D01*
X48949076Y-5478447D01*
X48949076Y-5145114D01*
X48996695Y-4954638D01*
X49091933Y-4859400D01*
X49187171Y-4811780D01*
X49377647Y-4811780D01*
X49472885Y-4859400D01*
X49568123Y-4954638D01*
X49615742Y-5145114D01*
X49615742Y-5478447D01*
X49568123Y-5668923D01*
X49472885Y-5764161D01*
X49377647Y-5811780D01*
X49187171Y-5811780D01*
X50568123Y-5811780D02*
X49996695Y-5811780D01*
X50282409Y-5811780D02*
X50282409Y-4811780D01*
X50187171Y-4954638D01*
X50091933Y-5049876D01*
X49996695Y-5097495D01*
X46815476Y6472619D02*
X46815476Y5758333D01*
X46767857Y5615476D01*
X46672619Y5520238D01*
X46529761Y5472619D01*
X46434523Y5472619D01*
X47815476Y5472619D02*
X47244047Y5472619D01*
X47529761Y5472619D02*
X47529761Y6472619D01*
X47434523Y6329761D01*
X47339285Y6234523D01*
X47244047Y6186904D01*
X48434523Y6472619D02*
X48529761Y6472619D01*
X48625000Y6425000D01*
X48672619Y6377380D01*
X48720238Y6282142D01*
X48767857Y6091666D01*
X48767857Y5853571D01*
X48720238Y5663095D01*
X48672619Y5567857D01*
X48625000Y5520238D01*
X48529761Y5472619D01*
X48434523Y5472619D01*
X48339285Y5520238D01*
X48291666Y5567857D01*
X48244047Y5663095D01*
X48196428Y5853571D01*
X48196428Y6091666D01*
X48244047Y6282142D01*
X48291666Y6377380D01*
X48339285Y6425000D01*
X48434523Y6472619D01*
X121610380Y11765114D02*
X120610380Y11765114D01*
X120610380Y12003209D01*
X120658000Y12146066D01*
X120753238Y12241304D01*
X120848476Y12288923D01*
X121038952Y12336542D01*
X121181809Y12336542D01*
X121372285Y12288923D01*
X121467523Y12241304D01*
X121562761Y12146066D01*
X121610380Y12003209D01*
X121610380Y11765114D01*
X121610380Y13288923D02*
X121610380Y12717495D01*
X121610380Y13003209D02*
X120610380Y13003209D01*
X120753238Y12907971D01*
X120848476Y12812733D01*
X120896095Y12717495D01*
X120610380Y13907971D02*
X120610380Y14003209D01*
X120658000Y14098447D01*
X120705619Y14146066D01*
X120800857Y14193685D01*
X120991333Y14241304D01*
X121229428Y14241304D01*
X121419904Y14193685D01*
X121515142Y14146066D01*
X121562761Y14098447D01*
X121610380Y14003209D01*
X121610380Y13907971D01*
X121562761Y13812733D01*
X121515142Y13765114D01*
X121419904Y13717495D01*
X121229428Y13669876D01*
X120991333Y13669876D01*
X120800857Y13717495D01*
X120705619Y13765114D01*
X120658000Y13812733D01*
X120610380Y13907971D01*
X123308780Y16933895D02*
X122308780Y16933895D01*
X123308780Y17505323D02*
X122737352Y17076752D01*
X122308780Y17505323D02*
X122880209Y16933895D01*
X88974704Y5567419D02*
X88974704Y6567419D01*
X89212800Y6567419D01*
X89355657Y6519800D01*
X89450895Y6424561D01*
X89498514Y6329323D01*
X89546133Y6138847D01*
X89546133Y5995990D01*
X89498514Y5805514D01*
X89450895Y5710276D01*
X89355657Y5615038D01*
X89212800Y5567419D01*
X88974704Y5567419D01*
X89879466Y6567419D02*
X90546133Y6567419D01*
X90117561Y5567419D01*
X93718095Y3843619D02*
X93718095Y4843619D01*
X94289523Y3843619D02*
X93860952Y4415047D01*
X94289523Y4843619D02*
X93718095Y4272190D01*
%LPC*%
D16*
X76380000Y-55220000D03*
D17*
X76380000Y-57720000D03*
X76380000Y-52720000D03*
D18*
X57380000Y-59220000D03*
X57380000Y-57220000D03*
X57380000Y-55220000D03*
X57380000Y-53220000D03*
X57380000Y-51220000D03*
X57380000Y-49220000D03*
X57380000Y-47220000D03*
D17*
X58380000Y-59220000D03*
X58380000Y-57220000D03*
X58380000Y-55220000D03*
X58380000Y-53220000D03*
X58380000Y-51220000D03*
X58380000Y-49220000D03*
X58380000Y-47220000D03*
D18*
X57380000Y-61220000D03*
D17*
X58380000Y-61220000D03*
D19*
X76962000Y-25654000D03*
X74422000Y-25654000D03*
X71882000Y-25654000D03*
X69342000Y-25654000D03*
X66802000Y-25654000D03*
D20*
X64262000Y-25654000D03*
D21*
X92299000Y12180000D03*
X61999000Y27480000D03*
D22*
X96999000Y10980000D03*
X96999000Y28680000D03*
X57299000Y10980000D03*
X57299000Y28680000D03*
D19*
X92456000Y-31496000D03*
X92456000Y-34036000D03*
D20*
X92456000Y-36576000D03*
D23*
X43180000Y-21590000D03*
D24*
X48260000Y-21590000D03*
D23*
X82550000Y-47625000D03*
D24*
X87630000Y-47625000D03*
D23*
X45720000Y-12065000D03*
D24*
X50800000Y-12065000D03*
D23*
X123444000Y9474200D03*
D24*
X123444000Y14554200D03*
D23*
X112395000Y8890000D03*
D24*
X117475000Y8890000D03*
D23*
X72390000Y-30480000D03*
D24*
X77470000Y-30480000D03*
D23*
X140335000Y13970000D03*
D24*
X140335000Y8890000D03*
D23*
X135128000Y18034000D03*
D24*
X140208000Y18034000D03*
D23*
X87630000Y-31115000D03*
D24*
X82550000Y-31115000D03*
D23*
X92456000Y-27686000D03*
D24*
X92456000Y-22606000D03*
D23*
X67310000Y-36195000D03*
D24*
X67310000Y-31115000D03*
D23*
X55245000Y-34671000D03*
D24*
X60325000Y-34671000D03*
D23*
X50800000Y-31242000D03*
D24*
X50800000Y-26162000D03*
D23*
X63500000Y1270000D03*
D24*
X68580000Y1270000D03*
D23*
X63500000Y5080000D03*
D24*
X68580000Y5080000D03*
D23*
X48260000Y-24130000D03*
D24*
X43180000Y-24130000D03*
D23*
X60960000Y1270000D03*
D24*
X55880000Y1270000D03*
D23*
X60960000Y5080000D03*
D24*
X55880000Y5080000D03*
D23*
X53340000Y-27305000D03*
D24*
X58420000Y-27305000D03*
D23*
X56515000Y-7620000D03*
D24*
X56515000Y-2540000D03*
D23*
X58420000Y-24130000D03*
D24*
X53340000Y-24130000D03*
D23*
X48260000Y-27305000D03*
D24*
X43180000Y-27305000D03*
D25*
X117475000Y16510000D03*
D26*
X102235000Y16510000D03*
D27*
X53340000Y-16510000D03*
D28*
X45720000Y-16510000D03*
D27*
X80264000Y-43180000D03*
D28*
X87884000Y-43180000D03*
D27*
X81788000Y-24765000D03*
D28*
X89408000Y-24765000D03*
D29*
X84455000Y2635000D03*
D30*
X84455000Y635000D03*
D31*
X77390000Y-34925000D03*
X72390000Y-34925000D03*
X77470000Y5080000D03*
X72470000Y5080000D03*
X77470000Y1270000D03*
X72470000Y1270000D03*
D29*
X61595000Y-41910000D03*
D30*
X59095000Y-41910000D03*
D32*
X149860000Y-57658000D03*
D19*
X92075000Y-52705000D03*
X92075000Y-50165000D03*
X92075000Y-47625000D03*
D20*
X92075000Y-45085000D03*
D19*
X97155000Y-8890000D03*
X97155000Y-6350000D03*
D20*
X97155000Y-3810000D03*
D33*
X53213000Y-41071800D03*
X53213000Y-43611800D03*
X53213000Y-51231800D03*
X53213000Y-53771800D03*
X53213000Y-48691800D03*
X43053000Y-41071800D03*
X43053000Y-43611800D03*
X43053000Y-51231800D03*
X43053000Y-53771800D03*
X43053000Y-48691800D03*
X43053000Y-46151800D03*
X53213000Y-46151800D03*
D34*
X86995000Y-57658000D03*
D35*
X81915000Y-57658000D03*
D34*
X120650000Y25400000D03*
D35*
X125730000Y25400000D03*
D34*
X143510000Y25400000D03*
D35*
X148590000Y25400000D03*
D34*
X147320000Y16510000D03*
D35*
X147320000Y11430000D03*
D34*
X132080000Y25400000D03*
D35*
X137160000Y25400000D03*
D32*
X133350000Y13970000D03*
D34*
X104140000Y25400000D03*
X109220000Y25400000D03*
D35*
X114300000Y25400000D03*
D36*
X143075000Y-25455000D03*
X143075000Y-58455000D03*
X98175000Y-58455000D03*
X98175000Y-25455000D03*
D37*
X98425000Y-36455000D03*
X98425000Y-33915000D03*
X98425000Y-31375000D03*
X98425000Y-45085000D03*
X98425000Y-47625000D03*
X98425000Y-50165000D03*
X98425000Y-52705000D03*
D38*
X140825000Y-29455000D03*
X140825000Y-34455000D03*
X140825000Y-39455000D03*
X140825000Y-44455000D03*
X140825000Y-49455000D03*
X140825000Y-54455000D03*
D39*
X101570000Y9525000D03*
X102870000Y9525000D03*
D40*
X60960000Y-13970000D03*
X60960000Y-16510000D03*
X60960000Y-19050000D03*
X63500000Y-19050000D03*
X66040000Y-19050000D03*
X68580000Y-19050000D03*
X71120000Y-19050000D03*
X73660000Y-19050000D03*
X76200000Y-19050000D03*
X78740000Y-19050000D03*
X81280000Y-19050000D03*
X83820000Y-19050000D03*
X86360000Y-19050000D03*
X88900000Y-19050000D03*
X88900000Y-3810000D03*
X86360000Y-3810000D03*
X83820000Y-3810000D03*
X81280000Y-3810000D03*
X78740000Y-3810000D03*
X76200000Y-3810000D03*
X73660000Y-3810000D03*
X71120000Y-3810000D03*
X68580000Y-3810000D03*
X66040000Y-3810000D03*
X63500000Y-3810000D03*
X60960000Y-3810000D03*
X77470000Y-16510000D03*
X80010000Y-16510000D03*
X60960000Y-11430000D03*
X91440000Y-5080000D03*
X91440000Y-7620000D03*
X91440000Y-10160000D03*
X91440000Y-12700000D03*
X91440000Y-15240000D03*
X91440000Y-17780000D03*
D32*
X35560000Y-59690000D03*
X36830000Y26670000D03*
D34*
X35560000Y10160000D03*
D35*
X35560000Y15240000D03*
D34*
X35560000Y-1270000D03*
D35*
X35560000Y3810000D03*
D34*
X35560000Y-40640000D03*
D35*
X35560000Y-35560000D03*
D34*
X35560000Y-52070000D03*
D35*
X35560000Y-46990000D03*
D34*
X35560000Y-29210000D03*
D35*
X35560000Y-24130000D03*
D34*
X45720000Y25400000D03*
D35*
X50800000Y25400000D03*
D34*
X35560000Y-17780000D03*
X35560000Y-12700000D03*
D35*
X35560000Y-7620000D03*
D41*
X75082400Y-39928800D03*
X72542400Y-41198800D03*
D42*
X75082400Y-42468800D03*
D36*
X147850000Y3600000D03*
X147850000Y-17100000D03*
X103350000Y-17100000D03*
X103350000Y3600000D03*
D31*
X118680000Y3350000D03*
X116140000Y3350000D03*
X113600000Y3350000D03*
D43*
X105600000Y-1650000D03*
X105600000Y-6650000D03*
X105600000Y-11650000D03*
X145600000Y-1750000D03*
X145600000Y-6750000D03*
X145600000Y-11750000D03*
D44*
X127711200Y16230600D03*
X127711200Y13690600D03*
X127711200Y11150600D03*
D45*
X109220000Y10160000D03*
D46*
X106680000Y10160000D03*
X107950000Y10160000D03*
D47*
X87630000Y-35560000D03*
X85090000Y-35560000D03*
D48*
X82550000Y-35560000D03*
D49*
X47490000Y-7620000D03*
X49780000Y-7620000D03*
D50*
X52070000Y-7620000D03*
D19*
X47625000Y13335000D03*
X47625000Y10795000D03*
D20*
X47625000Y8255000D03*
D51*
X121056400Y9575800D03*
D30*
X121056400Y17195800D03*
D51*
X86360000Y6096000D03*
D30*
X93980000Y6096000D03*
M02*
