%TF.GenerationSoftware,KiCad,Pcbnew,6.0.11-2627ca5db0~126~ubuntu22.04.1*%
%TF.CreationDate,2023-09-22T11:17:27+02:00*%
%TF.ProjectId,HB-UNI-SEN-BATT_ATMega1284P_E07-900MM10S_FUEL4EP,48422d55-4e49-42d5-9345-4e2d42415454,1.4*%
%TF.SameCoordinates,Original*%
%TF.FileFunction,Paste,Top*%
%TF.FilePolarity,Positive*%
%FSLAX46Y46*%
G04 Gerber Fmt 4.6, Leading zero omitted, Abs format (unit mm)*
G04 Created by KiCad (PCBNEW 6.0.11-2627ca5db0~126~ubuntu22.04.1) date 2023-09-22 11:17:27*
%MOMM*%
%LPD*%
G01*
G04 APERTURE LIST*
G04 Aperture macros list*
%AMRoundRect*
0 Rectangle with rounded corners*
0 $1 Rounding radius*
0 $2 $3 $4 $5 $6 $7 $8 $9 X,Y pos of 4 corners*
0 Add a 4 corners polygon primitive as box body*
4,1,4,$2,$3,$4,$5,$6,$7,$8,$9,$2,$3,0*
0 Add four circle primitives for the rounded corners*
1,1,$1+$1,$2,$3*
1,1,$1+$1,$4,$5*
1,1,$1+$1,$6,$7*
1,1,$1+$1,$8,$9*
0 Add four rect primitives between the rounded corners*
20,1,$1+$1,$2,$3,$4,$5,0*
20,1,$1+$1,$4,$5,$6,$7,0*
20,1,$1+$1,$6,$7,$8,$9,0*
20,1,$1+$1,$8,$9,$2,$3,0*%
G04 Aperture macros list end*
%ADD10RoundRect,0.250000X-0.325000X-0.450000X0.325000X-0.450000X0.325000X0.450000X-0.325000X0.450000X0*%
%ADD11RoundRect,0.140000X-0.140000X-0.170000X0.140000X-0.170000X0.140000X0.170000X-0.140000X0.170000X0*%
%ADD12RoundRect,0.250000X-0.450000X0.350000X-0.450000X-0.350000X0.450000X-0.350000X0.450000X0.350000X0*%
%ADD13RoundRect,0.250000X-0.350000X-0.450000X0.350000X-0.450000X0.350000X0.450000X-0.350000X0.450000X0*%
%ADD14RoundRect,0.250000X0.350000X0.450000X-0.350000X0.450000X-0.350000X-0.450000X0.350000X-0.450000X0*%
%ADD15R,0.800000X1.500000*%
%ADD16R,1.500000X0.800000*%
%ADD17RoundRect,0.250000X0.250000X0.475000X-0.250000X0.475000X-0.250000X-0.475000X0.250000X-0.475000X0*%
%ADD18RoundRect,0.250000X-0.250000X-0.475000X0.250000X-0.475000X0.250000X0.475000X-0.250000X0.475000X0*%
%ADD19R,3.500000X2.400000*%
%ADD20RoundRect,0.250000X0.650000X-0.412500X0.650000X0.412500X-0.650000X0.412500X-0.650000X-0.412500X0*%
%ADD21R,1.000000X0.750000*%
%ADD22R,3.000000X0.900000*%
%ADD23R,0.900000X0.400000*%
%ADD24RoundRect,0.250000X0.450000X-0.350000X0.450000X0.350000X-0.450000X0.350000X-0.450000X-0.350000X0*%
%ADD25R,0.550000X1.500000*%
%ADD26R,1.500000X0.550000*%
%ADD27RoundRect,0.250000X0.475000X-0.250000X0.475000X0.250000X-0.475000X0.250000X-0.475000X-0.250000X0*%
%ADD28RoundRect,0.140000X0.140000X0.170000X-0.140000X0.170000X-0.140000X-0.170000X0.140000X-0.170000X0*%
%ADD29R,1.000000X1.000000*%
%ADD30R,1.050000X2.200000*%
G04 APERTURE END LIST*
D10*
%TO.C,D1*%
X8138500Y72799500D03*
X10188500Y72799500D03*
%TD*%
D11*
%TO.C,C1*%
X31778000Y39370000D03*
X32738000Y39370000D03*
%TD*%
D12*
%TO.C,R4*%
X22190000Y50749000D03*
X22190000Y48749000D03*
%TD*%
%TO.C,R5*%
X24984000Y50765000D03*
X24984000Y48765000D03*
%TD*%
D13*
%TO.C,R1*%
X8172500Y70704000D03*
X10172500Y70704000D03*
%TD*%
D14*
%TO.C,R3*%
X17941600Y8181900D03*
X15941600Y8181900D03*
%TD*%
D15*
%TO.C,Module1*%
X35102800Y27689800D03*
D16*
X27562800Y35229800D03*
D15*
X35102800Y37689800D03*
D16*
X37562800Y35229800D03*
D15*
X33832800Y27689800D03*
D16*
X27562800Y33959800D03*
D15*
X33832800Y37689800D03*
D16*
X37562800Y33959800D03*
D15*
X32562800Y27689800D03*
D16*
X27562800Y32689800D03*
D15*
X32562800Y37689800D03*
D16*
X37562800Y32689800D03*
D15*
X31292800Y27689800D03*
D16*
X27562800Y31419800D03*
D15*
X31292800Y37689800D03*
D16*
X37562800Y31419800D03*
D15*
X30022800Y27689800D03*
D16*
X27562800Y30149800D03*
D15*
X30022800Y37689800D03*
D16*
X37562800Y30149800D03*
%TD*%
D17*
%TO.C,C2*%
X31168900Y42950000D03*
X29268900Y42950000D03*
%TD*%
%TO.C,C4*%
X34316000Y58639000D03*
X32416000Y58639000D03*
%TD*%
D18*
%TO.C,C6*%
X28542500Y64481000D03*
X30442500Y64481000D03*
%TD*%
D17*
%TO.C,C8*%
X34801100Y43106900D03*
X32901100Y43106900D03*
%TD*%
D14*
%TO.C,R2*%
X33315200Y69129200D03*
X31315200Y69129200D03*
%TD*%
%TO.C,R6*%
X31143500Y41000000D03*
X29143500Y41000000D03*
%TD*%
D19*
%TO.C,Y1*%
X29051500Y61560000D03*
X34251500Y61560000D03*
%TD*%
D20*
%TO.C,C5*%
X38065000Y60962300D03*
X38065000Y64087300D03*
%TD*%
D21*
%TO.C,SW2*%
X48500000Y73375000D03*
X54500000Y73375000D03*
X48500000Y69625000D03*
X54500000Y69625000D03*
%TD*%
%TO.C,SW1*%
X24800000Y69625000D03*
X18800000Y69625000D03*
X24800000Y73375000D03*
X18800000Y73375000D03*
%TD*%
D18*
%TO.C,C11*%
X52080680Y48946360D03*
X53980680Y48946360D03*
%TD*%
%TO.C,C12*%
X52101000Y55789120D03*
X54001000Y55789120D03*
%TD*%
%TO.C,C13*%
X52101000Y57795720D03*
X54001000Y57795720D03*
%TD*%
D22*
%TO.C,L1*%
X48733000Y51316000D03*
X48733000Y53416000D03*
%TD*%
D23*
%TO.C,U2*%
X54214500Y52718500D03*
X54214500Y53368500D03*
X54214500Y54018500D03*
X52014500Y54018500D03*
X52014500Y53368500D03*
X52014500Y52718500D03*
%TD*%
D14*
%TO.C,R8*%
X46558000Y57115000D03*
X44558000Y57115000D03*
%TD*%
D24*
%TO.C,R7*%
X42616680Y53615640D03*
X42616680Y55615640D03*
%TD*%
D18*
%TO.C,C10*%
X52080680Y50942800D03*
X53980680Y50942800D03*
%TD*%
D17*
%TO.C,C9*%
X29474800Y69129200D03*
X27574800Y69129200D03*
%TD*%
%TO.C,C7*%
X34697000Y64481000D03*
X32797000Y64481000D03*
%TD*%
D25*
%TO.C,U1*%
X36832600Y56604700D03*
X36032600Y56604700D03*
X35232600Y56604700D03*
X34432600Y56604700D03*
X33632600Y56604700D03*
X32832600Y56604700D03*
X32032600Y56604700D03*
X31232600Y56604700D03*
X30432600Y56604700D03*
X29632600Y56604700D03*
X28832600Y56604700D03*
D26*
X27132600Y54904700D03*
X27132600Y54104700D03*
X27132600Y53304700D03*
X27132600Y52504700D03*
X27132600Y51704700D03*
X27132600Y50904700D03*
X27132600Y50104700D03*
X27132600Y49304700D03*
X27132600Y48504700D03*
X27132600Y47704700D03*
X27132600Y46904700D03*
D25*
X28832600Y45204700D03*
X29632600Y45204700D03*
X30432600Y45204700D03*
X31232600Y45204700D03*
X32032600Y45204700D03*
X32832600Y45204700D03*
X33632600Y45204700D03*
X34432600Y45204700D03*
X35232600Y45204700D03*
X36032600Y45204700D03*
X36832600Y45204700D03*
D26*
X38532600Y46904700D03*
X38532600Y47704700D03*
X38532600Y48504700D03*
X38532600Y49304700D03*
X38532600Y50104700D03*
X38532600Y50904700D03*
X38532600Y51704700D03*
X38532600Y52504700D03*
X38532600Y53304700D03*
X38532600Y54104700D03*
X38532600Y54904700D03*
%TD*%
D27*
%TO.C,C3*%
X41176500Y49751500D03*
X41176500Y51651500D03*
%TD*%
D28*
%TO.C,C14*%
X35786000Y39116000D03*
X34826000Y39116000D03*
%TD*%
D29*
%TO.C,J13*%
X23569600Y35660200D03*
D30*
X25044600Y37160200D03*
D29*
X23569600Y38660200D03*
D30*
X22094600Y37160200D03*
%TD*%
M02*
