%TF.GenerationSoftware,KiCad,Pcbnew,6.0.11-2627ca5db0~126~ubuntu22.04.1*%
%TF.CreationDate,2023-09-13T16:44:58+02:00*%
%TF.ProjectId,HB-UNI-SEN-BATT_ATMega1284P_E07-900MM10S_FUEL4EP,48422d55-4e49-42d5-9345-4e2d42415454,1.4*%
%TF.SameCoordinates,Original*%
%TF.FileFunction,Copper,L1,Top*%
%TF.FilePolarity,Positive*%
%FSLAX46Y46*%
G04 Gerber Fmt 4.6, Leading zero omitted, Abs format (unit mm)*
G04 Created by KiCad (PCBNEW 6.0.11-2627ca5db0~126~ubuntu22.04.1) date 2023-09-13 16:44:58*
%MOMM*%
%LPD*%
G01*
G04 APERTURE LIST*
G04 Aperture macros list*
%AMRoundRect*
0 Rectangle with rounded corners*
0 $1 Rounding radius*
0 $2 $3 $4 $5 $6 $7 $8 $9 X,Y pos of 4 corners*
0 Add a 4 corners polygon primitive as box body*
4,1,4,$2,$3,$4,$5,$6,$7,$8,$9,$2,$3,0*
0 Add four circle primitives for the rounded corners*
1,1,$1+$1,$2,$3*
1,1,$1+$1,$4,$5*
1,1,$1+$1,$6,$7*
1,1,$1+$1,$8,$9*
0 Add four rect primitives between the rounded corners*
20,1,$1+$1,$2,$3,$4,$5,0*
20,1,$1+$1,$4,$5,$6,$7,0*
20,1,$1+$1,$6,$7,$8,$9,0*
20,1,$1+$1,$8,$9,$2,$3,0*%
G04 Aperture macros list end*
%TA.AperFunction,SMDPad,CuDef*%
%ADD10RoundRect,0.250000X-0.325000X-0.450000X0.325000X-0.450000X0.325000X0.450000X-0.325000X0.450000X0*%
%TD*%
%TA.AperFunction,ComponentPad*%
%ADD11R,1.700000X1.700000*%
%TD*%
%TA.AperFunction,ComponentPad*%
%ADD12O,1.700000X1.700000*%
%TD*%
%TA.AperFunction,SMDPad,CuDef*%
%ADD13RoundRect,0.140000X-0.140000X-0.170000X0.140000X-0.170000X0.140000X0.170000X-0.140000X0.170000X0*%
%TD*%
%TA.AperFunction,SMDPad,CuDef*%
%ADD14RoundRect,0.250000X-0.450000X0.350000X-0.450000X-0.350000X0.450000X-0.350000X0.450000X0.350000X0*%
%TD*%
%TA.AperFunction,SMDPad,CuDef*%
%ADD15RoundRect,0.250000X-0.350000X-0.450000X0.350000X-0.450000X0.350000X0.450000X-0.350000X0.450000X0*%
%TD*%
%TA.AperFunction,SMDPad,CuDef*%
%ADD16RoundRect,0.250000X0.350000X0.450000X-0.350000X0.450000X-0.350000X-0.450000X0.350000X-0.450000X0*%
%TD*%
%TA.AperFunction,ComponentPad*%
%ADD17R,1.717500X1.800000*%
%TD*%
%TA.AperFunction,ComponentPad*%
%ADD18O,1.717500X1.800000*%
%TD*%
%TA.AperFunction,SMDPad,CuDef*%
%ADD19R,0.800000X1.500000*%
%TD*%
%TA.AperFunction,SMDPad,CuDef*%
%ADD20R,1.500000X0.800000*%
%TD*%
%TA.AperFunction,SMDPad,CuDef*%
%ADD21R,1.500000X1.000000*%
%TD*%
%TA.AperFunction,ComponentPad*%
%ADD22C,0.700000*%
%TD*%
%TA.AperFunction,ComponentPad*%
%ADD23C,4.400000*%
%TD*%
%TA.AperFunction,ComponentPad*%
%ADD24R,2.000000X2.000000*%
%TD*%
%TA.AperFunction,ComponentPad*%
%ADD25C,2.000000*%
%TD*%
%TA.AperFunction,SMDPad,CuDef*%
%ADD26RoundRect,0.250000X0.250000X0.475000X-0.250000X0.475000X-0.250000X-0.475000X0.250000X-0.475000X0*%
%TD*%
%TA.AperFunction,SMDPad,CuDef*%
%ADD27RoundRect,0.250000X-0.250000X-0.475000X0.250000X-0.475000X0.250000X0.475000X-0.250000X0.475000X0*%
%TD*%
%TA.AperFunction,SMDPad,CuDef*%
%ADD28R,3.500000X2.400000*%
%TD*%
%TA.AperFunction,SMDPad,CuDef*%
%ADD29RoundRect,0.250000X0.650000X-0.412500X0.650000X0.412500X-0.650000X0.412500X-0.650000X-0.412500X0*%
%TD*%
%TA.AperFunction,SMDPad,CuDef*%
%ADD30R,1.000000X0.750000*%
%TD*%
%TA.AperFunction,ComponentPad*%
%ADD31R,1.350000X1.350000*%
%TD*%
%TA.AperFunction,ComponentPad*%
%ADD32O,1.350000X1.350000*%
%TD*%
%TA.AperFunction,SMDPad,CuDef*%
%ADD33R,3.000000X0.900000*%
%TD*%
%TA.AperFunction,SMDPad,CuDef*%
%ADD34R,0.900000X0.400000*%
%TD*%
%TA.AperFunction,SMDPad,CuDef*%
%ADD35RoundRect,0.250000X0.450000X-0.350000X0.450000X0.350000X-0.450000X0.350000X-0.450000X-0.350000X0*%
%TD*%
%TA.AperFunction,SMDPad,CuDef*%
%ADD36R,0.550000X1.500000*%
%TD*%
%TA.AperFunction,SMDPad,CuDef*%
%ADD37R,1.500000X0.550000*%
%TD*%
%TA.AperFunction,SMDPad,CuDef*%
%ADD38RoundRect,0.250000X0.475000X-0.250000X0.475000X0.250000X-0.475000X0.250000X-0.475000X-0.250000X0*%
%TD*%
%TA.AperFunction,ComponentPad*%
%ADD39C,5.000000*%
%TD*%
%TA.AperFunction,SMDPad,CuDef*%
%ADD40RoundRect,0.140000X0.140000X0.170000X-0.140000X0.170000X-0.140000X-0.170000X0.140000X-0.170000X0*%
%TD*%
%TA.AperFunction,ComponentPad*%
%ADD41RoundRect,0.250000X-0.550000X-0.550000X0.550000X-0.550000X0.550000X0.550000X-0.550000X0.550000X0*%
%TD*%
%TA.AperFunction,SMDPad,CuDef*%
%ADD42R,1.000000X1.000000*%
%TD*%
%TA.AperFunction,SMDPad,CuDef*%
%ADD43R,1.050000X2.200000*%
%TD*%
%TA.AperFunction,ViaPad*%
%ADD44C,1.000000*%
%TD*%
%TA.AperFunction,ViaPad*%
%ADD45C,0.800000*%
%TD*%
%TA.AperFunction,ViaPad*%
%ADD46C,0.600000*%
%TD*%
%TA.AperFunction,Conductor*%
%ADD47C,0.500000*%
%TD*%
%TA.AperFunction,Conductor*%
%ADD48C,1.000000*%
%TD*%
%TA.AperFunction,Conductor*%
%ADD49C,0.800000*%
%TD*%
%TA.AperFunction,Conductor*%
%ADD50C,0.600000*%
%TD*%
%TA.AperFunction,Conductor*%
%ADD51C,0.200000*%
%TD*%
%TA.AperFunction,Conductor*%
%ADD52C,0.400000*%
%TD*%
%TA.AperFunction,Conductor*%
%ADD53C,0.250000*%
%TD*%
G04 APERTURE END LIST*
%TO.C,JP2*%
G36*
X46937500Y65818500D02*
G01*
X46337500Y65818500D01*
X46337500Y66318500D01*
X46937500Y66318500D01*
X46937500Y65818500D01*
G37*
%TD*%
D10*
%TO.P,D1,1,K*%
%TO.N,GND*%
X8138500Y72799500D03*
%TO.P,D1,2,A*%
%TO.N,Net-(D1-Pad2)*%
X10188500Y72799500D03*
%TD*%
D11*
%TO.P,J7,1,Pin_1*%
%TO.N,VCC*%
X34890000Y1997000D03*
D12*
%TO.P,J7,2,Pin_2*%
%TO.N,GND*%
X34890000Y4537000D03*
%TO.P,J7,3,Pin_3*%
%TO.N,/SCL*%
X34890000Y7077000D03*
%TO.P,J7,4,Pin_4*%
%TO.N,/SDA*%
X34890000Y9617000D03*
%TD*%
D11*
%TO.P,J3,1,Pin_1*%
%TO.N,/A1*%
X44796000Y44097500D03*
D12*
%TO.P,J3,2,Pin_2*%
%TO.N,GND*%
X47336000Y44097500D03*
%TD*%
D11*
%TO.P,J4,1,Pin_1*%
%TO.N,/A3*%
X44796000Y47780500D03*
D12*
%TO.P,J4,2,Pin_2*%
%TO.N,GND*%
X47336000Y47780500D03*
%TD*%
D11*
%TO.P,J5,1,Pin_1*%
%TO.N,VCC*%
X56480000Y8220000D03*
D12*
%TO.P,J5,2,Pin_2*%
%TO.N,/minusBAT*%
X59020000Y8220000D03*
%TO.P,J5,3,Pin_3*%
%TO.N,/MOSI*%
X61560000Y8220000D03*
%TO.P,J5,4,Pin_4*%
%TO.N,/SCK*%
X64100000Y8220000D03*
%TO.P,J5,5,Pin_5*%
%TO.N,/MISO*%
X66640000Y8220000D03*
%TO.P,J5,6,Pin_6*%
%TO.N,/RSETB*%
X69180000Y8220000D03*
%TD*%
D13*
%TO.P,C1,1*%
%TO.N,VCC*%
X31778000Y39370000D03*
%TO.P,C1,2*%
%TO.N,GND*%
X32738000Y39370000D03*
%TD*%
D14*
%TO.P,R4,1*%
%TO.N,VCC*%
X22190000Y50749000D03*
%TO.P,R4,2*%
%TO.N,/SCL*%
X22190000Y48749000D03*
%TD*%
%TO.P,R5,1*%
%TO.N,VCC*%
X24984000Y50765000D03*
%TO.P,R5,2*%
%TO.N,/SDA*%
X24984000Y48765000D03*
%TD*%
D15*
%TO.P,R1,1*%
%TO.N,Net-(R1-Pad1)*%
X8172500Y70704000D03*
%TO.P,R1,2*%
%TO.N,Net-(D1-Pad2)*%
X10172500Y70704000D03*
%TD*%
D16*
%TO.P,R3,1*%
%TO.N,VCC*%
X17941600Y8181900D03*
%TO.P,R3,2*%
%TO.N,Net-(Q1-Pad1)*%
X15941600Y8181900D03*
%TD*%
D17*
%TO.P,Q1,1,G*%
%TO.N,Net-(Q1-Pad1)*%
X6950000Y8220000D03*
D18*
%TO.P,Q1,2,D*%
%TO.N,/minusBAT*%
X9240000Y8220000D03*
%TO.P,Q1,3,S*%
%TO.N,GND*%
X11530000Y8220000D03*
%TD*%
D11*
%TO.P,J10,1,Pin_1*%
%TO.N,VCC*%
X64989000Y71656500D03*
D12*
%TO.P,J10,2,Pin_2*%
%TO.N,/plusBAT*%
X67529000Y71656500D03*
%TO.P,J10,3,Pin_3*%
%TO.N,/minusBAT*%
X70069000Y71656500D03*
%TD*%
D19*
%TO.P,Module1,1A,SCK*%
%TO.N,/SCK*%
X35102800Y27689800D03*
D20*
%TO.P,Module1,1B,ANT*%
%TO.N,Net-(AE1-Pad1)*%
X27562800Y35229800D03*
D19*
%TO.P,Module1,1C,VCC*%
%TO.N,VCC*%
X35102800Y37689800D03*
D20*
%TO.P,Module1,1D,GD02*%
%TO.N,unconnected-(Module1-Pad1D)*%
X37562800Y35229800D03*
D19*
%TO.P,Module1,2A,~{CSN}*%
%TO.N,/SS*%
X33832800Y27689800D03*
D20*
%TO.P,Module1,2B,GND*%
%TO.N,GND*%
X27562800Y33959800D03*
D19*
%TO.P,Module1,2C,GND*%
X33832800Y37689800D03*
D20*
%TO.P,Module1,2D,NC*%
%TO.N,unconnected-(Module1-Pad2D)*%
X37562800Y33959800D03*
D19*
%TO.P,Module1,3A,MOSI*%
%TO.N,/MOSI*%
X32562800Y27689800D03*
D20*
%TO.P,Module1,3B,NC*%
%TO.N,unconnected-(Module1-Pad3B)*%
X27562800Y32689800D03*
D19*
%TO.P,Module1,3C,NC*%
%TO.N,unconnected-(Module1-Pad3C)*%
X32562800Y37689800D03*
D20*
%TO.P,Module1,3D,GD00*%
%TO.N,/D2*%
X37562800Y32689800D03*
D19*
%TO.P,Module1,4A,MISO/GD01*%
%TO.N,/MISO*%
X31292800Y27689800D03*
D20*
%TO.P,Module1,4B,NC*%
%TO.N,unconnected-(Module1-Pad4B)*%
X27562800Y31419800D03*
D19*
%TO.P,Module1,4C,NC*%
%TO.N,unconnected-(Module1-Pad4C)*%
X31292800Y37689800D03*
D20*
%TO.P,Module1,4D,NC*%
%TO.N,unconnected-(Module1-Pad4D)*%
X37562800Y31419800D03*
D19*
%TO.P,Module1,5A,NC*%
%TO.N,unconnected-(Module1-Pad5A)*%
X30022800Y27689800D03*
D20*
%TO.P,Module1,5B,NC*%
%TO.N,unconnected-(Module1-Pad5B)*%
X27562800Y30149800D03*
D19*
%TO.P,Module1,5C,NC*%
%TO.N,unconnected-(Module1-Pad5C)*%
X30022800Y37689800D03*
D20*
%TO.P,Module1,5D,GND*%
%TO.N,GND*%
X37562800Y30149800D03*
%TD*%
D21*
%TO.P,JP2,1,A*%
%TO.N,/plusBAT*%
X46637500Y66718500D03*
%TO.P,JP2,2,B*%
%TO.N,VCC*%
X46637500Y65418500D03*
%TD*%
D11*
%TO.P,J8,1,Pin_1*%
%TO.N,VCC*%
X39970000Y1997000D03*
D12*
%TO.P,J8,2,Pin_2*%
%TO.N,GND*%
X39970000Y4537000D03*
%TO.P,J8,3,Pin_3*%
%TO.N,/SCL*%
X39970000Y7077000D03*
%TO.P,J8,4,Pin_4*%
%TO.N,/SDA*%
X39970000Y9617000D03*
%TD*%
D22*
%TO.P,H2,1*%
%TO.N,N/C*%
X61272800Y70477200D03*
X58727200Y70477200D03*
X60000000Y69950000D03*
X58200000Y71750000D03*
X61800000Y71750000D03*
X60000000Y73550000D03*
X58727200Y73022800D03*
X61272800Y73022800D03*
D23*
X60000000Y71750000D03*
%TD*%
D22*
%TO.P,H4,1*%
%TO.N,N/C*%
X60000000Y1450000D03*
X58727200Y4522800D03*
X61272800Y1977200D03*
X61800000Y3250000D03*
D23*
X60000000Y3250000D03*
D22*
X58727200Y1977200D03*
X60000000Y5050000D03*
X58200000Y3250000D03*
X61272800Y4522800D03*
%TD*%
%TO.P,H1,1*%
%TO.N,N/C*%
X13727200Y70477200D03*
D23*
X15000000Y71750000D03*
D22*
X16272800Y73022800D03*
X13200000Y71750000D03*
X15000000Y73550000D03*
X16800000Y71750000D03*
X16272800Y70477200D03*
X15000000Y69950000D03*
X13727200Y73022800D03*
%TD*%
D23*
%TO.P,H3,1*%
%TO.N,N/C*%
X15000000Y3250000D03*
D22*
X13200000Y3250000D03*
X13727200Y1977200D03*
X16272800Y4522800D03*
X16800000Y3250000D03*
X15000000Y1450000D03*
X16272800Y1977200D03*
X15000000Y5050000D03*
X13727200Y4522800D03*
%TD*%
D24*
%TO.P,BT2,1,+*%
%TO.N,/conBAT*%
X11420000Y13900000D03*
D25*
%TO.P,BT2,2,-*%
%TO.N,/minusBAT*%
X11420000Y65890000D03*
%TD*%
D26*
%TO.P,C2,1*%
%TO.N,GND*%
X31168900Y42950000D03*
%TO.P,C2,2*%
%TO.N,/VAVCC*%
X29268900Y42950000D03*
%TD*%
%TO.P,C4,1*%
%TO.N,VCC*%
X34316000Y58639000D03*
%TO.P,C4,2*%
%TO.N,GND*%
X32416000Y58639000D03*
%TD*%
D27*
%TO.P,C6,1*%
%TO.N,Net-(C6-Pad1)*%
X28542500Y64481000D03*
%TO.P,C6,2*%
%TO.N,GND*%
X30442500Y64481000D03*
%TD*%
D26*
%TO.P,C8,1*%
%TO.N,Net-(C8-Pad1)*%
X34801100Y43106900D03*
%TO.P,C8,2*%
%TO.N,GND*%
X32901100Y43106900D03*
%TD*%
D11*
%TO.P,J12,1,Pin_1*%
%TO.N,/DTR*%
X28070100Y72139100D03*
D12*
%TO.P,J12,2,Pin_2*%
%TO.N,/TXD0*%
X30610100Y72139100D03*
%TO.P,J12,3,Pin_3*%
%TO.N,/RXD0*%
X33150100Y72139100D03*
%TO.P,J12,4,Pin_4*%
%TO.N,VCC*%
X35690100Y72139100D03*
%TO.P,J12,5,Pin_5*%
%TO.N,GND*%
X38230100Y72139100D03*
%TO.P,J12,6,Pin_6*%
X40770100Y72139100D03*
%TD*%
D16*
%TO.P,R2,1*%
%TO.N,VCC*%
X33315200Y69129200D03*
%TO.P,R2,2*%
%TO.N,/RSETB*%
X31315200Y69129200D03*
%TD*%
%TO.P,R6,1*%
%TO.N,VCC*%
X31143500Y41000000D03*
%TO.P,R6,2*%
%TO.N,/VAVCC*%
X29143500Y41000000D03*
%TD*%
D28*
%TO.P,Y1,1,1*%
%TO.N,Net-(C6-Pad1)*%
X29051500Y61560000D03*
%TO.P,Y1,2,2*%
%TO.N,Net-(C7-Pad1)*%
X34251500Y61560000D03*
%TD*%
D29*
%TO.P,C5,1*%
%TO.N,VCC*%
X38065000Y60962300D03*
%TO.P,C5,2*%
%TO.N,GND*%
X38065000Y64087300D03*
%TD*%
D30*
%TO.P,SW2,A*%
%TO.N,GND*%
X48500000Y73375000D03*
%TO.P,SW2,B,e*%
X54500000Y73375000D03*
%TO.P,SW2,C*%
%TO.N,/RSETB*%
X48500000Y69625000D03*
%TO.P,SW2,D*%
X54500000Y69625000D03*
%TD*%
%TO.P,SW1,A*%
%TO.N,/CONFIG*%
X24800000Y69625000D03*
%TO.P,SW1,B,e*%
X18800000Y69625000D03*
%TO.P,SW1,C*%
%TO.N,GND*%
X24800000Y73375000D03*
%TO.P,SW1,D*%
X18800000Y73375000D03*
%TD*%
D24*
%TO.P,BT1,1,+*%
%TO.N,/plusBAT*%
X63490000Y66140000D03*
D25*
%TO.P,BT1,2,-*%
%TO.N,/conBAT*%
X63490000Y14150000D03*
%TD*%
D31*
%TO.P,J11,1,Pin_1*%
%TO.N,/D7*%
X28667000Y21250000D03*
D32*
%TO.P,J11,2,Pin_2*%
%TO.N,/D6*%
X30667000Y21250000D03*
%TO.P,J11,3,Pin_3*%
%TO.N,/MISO*%
X32667000Y21250000D03*
%TO.P,J11,4,Pin_4*%
%TO.N,/D5*%
X34667000Y21250000D03*
%TO.P,J11,5,Pin_5*%
%TO.N,/SCK*%
X36667000Y21250000D03*
%TO.P,J11,6,Pin_6*%
%TO.N,/MOSI*%
X38667000Y21250000D03*
%TO.P,J11,7,Pin_7*%
%TO.N,GND*%
X40667000Y21250000D03*
%TO.P,J11,8,Pin_8*%
%TO.N,VCC*%
X42667000Y21250000D03*
%TD*%
D27*
%TO.P,C11,1*%
%TO.N,/plusBAT*%
X52080680Y48946360D03*
%TO.P,C11,2*%
%TO.N,GND*%
X53980680Y48946360D03*
%TD*%
%TO.P,C12,1*%
%TO.N,/Vout*%
X52101000Y55789120D03*
%TO.P,C12,2*%
%TO.N,GND*%
X54001000Y55789120D03*
%TD*%
%TO.P,C13,1*%
%TO.N,/Vout*%
X52101000Y57795720D03*
%TO.P,C13,2*%
%TO.N,GND*%
X54001000Y57795720D03*
%TD*%
D21*
%TO.P,JP3,1,A*%
%TO.N,/Vout*%
X46688300Y61811700D03*
%TO.P,JP3,2,B*%
%TO.N,VCC*%
X46688300Y63111700D03*
%TD*%
D33*
%TO.P,L1,1,1*%
%TO.N,/plusBAT*%
X48733000Y51316000D03*
%TO.P,L1,2,2*%
%TO.N,Net-(L1-Pad2)*%
X48733000Y53416000D03*
%TD*%
D34*
%TO.P,U2,1,VIN*%
%TO.N,/plusBAT*%
X54214500Y52718500D03*
%TO.P,U2,2,FB*%
%TO.N,/Vout*%
X54214500Y53368500D03*
%TO.P,U2,3,GND*%
%TO.N,GND*%
X54214500Y54018500D03*
%TO.P,U2,4,VOUT*%
%TO.N,/Vout*%
X52014500Y54018500D03*
%TO.P,U2,5,L*%
%TO.N,Net-(L1-Pad2)*%
X52014500Y53368500D03*
%TO.P,U2,6,EN*%
%TO.N,/plusBAT*%
X52014500Y52718500D03*
%TD*%
D16*
%TO.P,R8,1*%
%TO.N,/plusBAT*%
X46558000Y57115000D03*
%TO.P,R8,2*%
%TO.N,/A0*%
X44558000Y57115000D03*
%TD*%
D35*
%TO.P,R7,1*%
%TO.N,/A0*%
X42616680Y53615640D03*
%TO.P,R7,2*%
%TO.N,/A2*%
X42616680Y55615640D03*
%TD*%
D11*
%TO.P,J1,1,Pin_1*%
%TO.N,/PB0_T0*%
X41400000Y64989000D03*
D12*
%TO.P,J1,2,Pin_2*%
%TO.N,GND*%
X41400000Y67529000D03*
%TD*%
D11*
%TO.P,J6,1,Pin_1*%
%TO.N,VCC*%
X24730000Y2000000D03*
D12*
%TO.P,J6,2,Pin_2*%
%TO.N,GND*%
X24730000Y4540000D03*
%TO.P,J6,3,Pin_3*%
%TO.N,/SCL*%
X24730000Y7080000D03*
%TO.P,J6,4,Pin_4*%
%TO.N,/SDA*%
X24730000Y9620000D03*
%TD*%
D27*
%TO.P,C10,1*%
%TO.N,/plusBAT*%
X52080680Y50942800D03*
%TO.P,C10,2*%
%TO.N,GND*%
X53980680Y50942800D03*
%TD*%
D26*
%TO.P,C9,1*%
%TO.N,/RSETB*%
X29474800Y69129200D03*
%TO.P,C9,2*%
%TO.N,/DTR*%
X27574800Y69129200D03*
%TD*%
%TO.P,C7,1*%
%TO.N,Net-(C7-Pad1)*%
X34697000Y64481000D03*
%TO.P,C7,2*%
%TO.N,GND*%
X32797000Y64481000D03*
%TD*%
D36*
%TO.P,U1,1,PB5*%
%TO.N,/MOSI*%
X36832600Y56604700D03*
%TO.P,U1,2,PB6*%
%TO.N,/MISO*%
X36032600Y56604700D03*
%TO.P,U1,3,PB7*%
%TO.N,/SCK*%
X35232600Y56604700D03*
%TO.P,U1,4,~{RESET}*%
%TO.N,/RSETB*%
X34432600Y56604700D03*
%TO.P,U1,5,VCC*%
%TO.N,VCC*%
X33632600Y56604700D03*
%TO.P,U1,6,GND*%
%TO.N,GND*%
X32832600Y56604700D03*
%TO.P,U1,7,XTAL2*%
%TO.N,Net-(C7-Pad1)*%
X32032600Y56604700D03*
%TO.P,U1,8,XTAL1*%
%TO.N,Net-(C6-Pad1)*%
X31232600Y56604700D03*
%TO.P,U1,9,PD0*%
%TO.N,/RXD0*%
X30432600Y56604700D03*
%TO.P,U1,10,PD1*%
%TO.N,/TXD0*%
X29632600Y56604700D03*
%TO.P,U1,11,PD2*%
%TO.N,/D2*%
X28832600Y56604700D03*
D37*
%TO.P,U1,12,PD3*%
%TO.N,unconnected-(U1-Pad12)*%
X27132600Y54904700D03*
%TO.P,U1,13,PD4*%
%TO.N,Net-(R1-Pad1)*%
X27132600Y54104700D03*
%TO.P,U1,14,PD5*%
%TO.N,/D5*%
X27132600Y53304700D03*
%TO.P,U1,15,PD6*%
%TO.N,/D6*%
X27132600Y52504700D03*
%TO.P,U1,16,PD7*%
%TO.N,/D7*%
X27132600Y51704700D03*
%TO.P,U1,17,VCC*%
%TO.N,VCC*%
X27132600Y50904700D03*
%TO.P,U1,18,GND*%
%TO.N,GND*%
X27132600Y50104700D03*
%TO.P,U1,19,PC0*%
%TO.N,/SCL*%
X27132600Y49304700D03*
%TO.P,U1,20,PC1*%
%TO.N,/SDA*%
X27132600Y48504700D03*
%TO.P,U1,21,PC2*%
%TO.N,unconnected-(U1-Pad21)*%
X27132600Y47704700D03*
%TO.P,U1,22,PC3*%
%TO.N,unconnected-(U1-Pad22)*%
X27132600Y46904700D03*
D36*
%TO.P,U1,23,PC4*%
%TO.N,unconnected-(U1-Pad23)*%
X28832600Y45204700D03*
%TO.P,U1,24,PC5*%
%TO.N,unconnected-(U1-Pad24)*%
X29632600Y45204700D03*
%TO.P,U1,25,PC6*%
%TO.N,/CONFIG*%
X30432600Y45204700D03*
%TO.P,U1,26,PC7*%
%TO.N,unconnected-(U1-Pad26)*%
X31232600Y45204700D03*
%TO.P,U1,27,AVCC*%
%TO.N,/VAVCC*%
X32032600Y45204700D03*
%TO.P,U1,28,GND*%
%TO.N,GND*%
X32832600Y45204700D03*
%TO.P,U1,29,AREF*%
%TO.N,Net-(C8-Pad1)*%
X33632600Y45204700D03*
%TO.P,U1,30,PA7*%
%TO.N,unconnected-(U1-Pad30)*%
X34432600Y45204700D03*
%TO.P,U1,31,PA6*%
%TO.N,unconnected-(U1-Pad31)*%
X35232600Y45204700D03*
%TO.P,U1,32,PA5*%
%TO.N,unconnected-(U1-Pad32)*%
X36032600Y45204700D03*
%TO.P,U1,33,PA4*%
%TO.N,unconnected-(U1-Pad33)*%
X36832600Y45204700D03*
D37*
%TO.P,U1,34,PA3*%
%TO.N,unconnected-(U1-Pad34)*%
X38532600Y46904700D03*
%TO.P,U1,35,PA2*%
%TO.N,unconnected-(U1-Pad35)*%
X38532600Y47704700D03*
%TO.P,U1,36,PA1*%
%TO.N,/A1*%
X38532600Y48504700D03*
%TO.P,U1,37,PA0*%
%TO.N,/A0*%
X38532600Y49304700D03*
%TO.P,U1,38,VCC*%
%TO.N,VCC*%
X38532600Y50104700D03*
%TO.P,U1,39,GND*%
%TO.N,GND*%
X38532600Y50904700D03*
%TO.P,U1,40,PB0*%
%TO.N,/PB0_T0*%
X38532600Y51704700D03*
%TO.P,U1,41,PB1*%
%TO.N,/PB1_T1*%
X38532600Y52504700D03*
%TO.P,U1,42,PB2*%
%TO.N,/A3*%
X38532600Y53304700D03*
%TO.P,U1,43,PB3*%
%TO.N,/A2*%
X38532600Y54104700D03*
%TO.P,U1,44,PB4*%
%TO.N,/SS*%
X38532600Y54904700D03*
%TD*%
D38*
%TO.P,C3,1*%
%TO.N,VCC*%
X41176500Y49751500D03*
%TO.P,C3,2*%
%TO.N,GND*%
X41176500Y51651500D03*
%TD*%
D11*
%TO.P,J2,1,Pin_1*%
%TO.N,/PB1_T1*%
X41400000Y58385000D03*
D12*
%TO.P,J2,2,Pin_2*%
%TO.N,GND*%
X41400000Y60925000D03*
%TD*%
D11*
%TO.P,J9,1,Pin_1*%
%TO.N,VCC*%
X50130000Y2000000D03*
D12*
%TO.P,J9,2,Pin_2*%
%TO.N,GND*%
X50130000Y4540000D03*
%TO.P,J9,3,Pin_3*%
%TO.N,/SCL*%
X50130000Y7080000D03*
%TO.P,J9,4,Pin_4*%
%TO.N,/SDA*%
X50130000Y9620000D03*
%TD*%
D39*
%TO.P,H5,1*%
%TO.N,N/C*%
X23510800Y62800000D03*
%TD*%
%TO.P,H6,1*%
%TO.N,N/C*%
X23510800Y19800000D03*
%TD*%
%TO.P,H7,1*%
%TO.N,N/C*%
X51510800Y62800000D03*
%TD*%
%TO.P,H8,1*%
%TO.N,N/C*%
X51510800Y19800000D03*
%TD*%
D40*
%TO.P,C14,1*%
%TO.N,VCC*%
X35786000Y39116000D03*
%TO.P,C14,2*%
%TO.N,GND*%
X34826000Y39116000D03*
%TD*%
D41*
%TO.P,AE1,1,A*%
%TO.N,Net-(AE1-Pad1)*%
X23622000Y33477200D03*
%TD*%
D42*
%TO.P,J13,1,In*%
%TO.N,Net-(AE1-Pad1)*%
X23569600Y35660200D03*
D43*
%TO.P,J13,2,Ext*%
%TO.N,GND*%
X25044600Y37160200D03*
D42*
X23569600Y38660200D03*
D43*
X22094600Y37160200D03*
%TD*%
D44*
%TO.N,GND*%
X54956000Y55210000D03*
D45*
X47336000Y23764800D03*
D46*
X41176500Y52479500D03*
X33782000Y39141400D03*
X30572000Y48669500D03*
X32822962Y55448238D03*
X21158200Y31623000D03*
D44*
X55083000Y48987000D03*
X55083000Y50638000D03*
D45*
X10658400Y17567200D03*
D46*
X20726400Y38633400D03*
X25946100Y39509700D03*
D45*
X45405600Y17618000D03*
D46*
X31651500Y62893500D03*
X5172000Y72609000D03*
X20726400Y33375600D03*
D44*
X54956000Y56480000D03*
D46*
X20726400Y34721800D03*
X23569600Y40130400D03*
X27178000Y39293800D03*
X24206200Y30962600D03*
X32416000Y59779500D03*
X21640800Y39547800D03*
X51878600Y73375000D03*
X24585800Y38660200D03*
X20726400Y35966400D03*
X31651500Y64481000D03*
X26047700Y38163500D03*
X21809000Y73371000D03*
X24663400Y40157400D03*
X38938200Y30099000D03*
X20726400Y37185600D03*
X22783800Y30962600D03*
X38065000Y65624000D03*
X22453600Y38506400D03*
X25209500Y31534100D03*
X22528200Y40130400D03*
D44*
X54956000Y57877000D03*
D46*
X26170000Y33647000D03*
X26060400Y32385000D03*
%TO.N,/SS*%
X37239500Y53432000D03*
X39758959Y40123936D03*
%TO.N,/D2*%
X31461000Y55354698D03*
X38353999Y39878001D03*
X31461000Y49354700D03*
X38392280Y43030172D03*
%TO.N,/A0*%
X42446500Y48733000D03*
X40160500Y48733000D03*
%TO.N,/A1*%
X42510004Y44859500D03*
X40097000Y44922998D03*
%TO.N,/A3*%
X44732500Y50892000D03*
X42891000Y50892000D03*
%TO.N,/MOSI*%
X39822600Y25344000D03*
X36779200Y40883900D03*
X36096500Y51054000D03*
X36479000Y25370000D03*
%TO.N,/SCK*%
X39157200Y26000000D03*
X34763000Y40986000D03*
X34745499Y51163499D03*
X35280600Y26009600D03*
%TO.N,/MISO*%
X35658856Y41217783D03*
X39878000Y26543000D03*
X35345499Y51855499D03*
%TO.N,VCC*%
X37693600Y37693600D03*
X57851600Y68468800D03*
X30064000Y50892000D03*
X36601400Y37693600D03*
X55235400Y68468800D03*
X30082364Y54593364D03*
X34534400Y68875200D03*
X41021000Y37693600D03*
X37074400Y68875200D03*
X41910000Y38862000D03*
D44*
%TO.N,/minusBAT*%
X66779700Y65319200D03*
%TO.N,/plusBAT*%
X55210000Y52162000D03*
X51146000Y51527000D03*
D46*
%TO.N,/D5*%
X11912600Y24612600D03*
X13741400Y24612600D03*
%TO.N,/D6*%
X11827999Y27624943D03*
X13528100Y27343068D03*
%TO.N,/D7*%
X19050000Y49276000D03*
X19151600Y46329600D03*
D45*
%TO.N,/CONFIG*%
X10896600Y44170600D03*
D46*
X15420000Y66982000D03*
D45*
X14335099Y44154699D03*
D46*
X18800000Y66982000D03*
%TO.N,/PB0_T0*%
X40287500Y52987500D03*
X43145000Y63909500D03*
X43145000Y62068000D03*
X40220565Y55108282D03*
%TD*%
D47*
%TO.N,GND*%
X54448000Y50638000D02*
X54194000Y50892000D01*
D48*
X22223400Y40130400D02*
X22528200Y40130400D01*
D47*
X8138500Y72799500D02*
X5362500Y72799500D01*
D48*
X26047700Y38163500D02*
X26568400Y38684200D01*
D47*
X55083000Y50638000D02*
X54448000Y50638000D01*
X18796300Y73375000D02*
X21813000Y73375000D01*
D49*
X20726400Y35966400D02*
X20726400Y37185600D01*
D47*
X30563150Y48678350D02*
X30572000Y48669500D01*
D49*
X26482800Y33959800D02*
X26170000Y33647000D01*
D47*
X32832600Y46454700D02*
X30563150Y48724150D01*
X54500000Y73375000D02*
X51878600Y73375000D01*
X38065000Y64087300D02*
X38065000Y65624000D01*
D49*
X21158200Y31623000D02*
X20726400Y32054800D01*
D48*
X33832800Y39090600D02*
X33782000Y39141400D01*
D47*
X32832600Y45204700D02*
X32832600Y46454700D01*
D50*
X24730000Y4540000D02*
X34887000Y4540000D01*
D47*
X30563150Y48724150D02*
X30563150Y48678350D01*
D50*
X34826000Y39116000D02*
X33858200Y39116000D01*
D47*
X40554200Y50904700D02*
X41176500Y51527000D01*
D50*
X51480000Y5890000D02*
X51480000Y11543600D01*
D47*
X54001000Y55789120D02*
X54001000Y54260000D01*
X54956000Y57877000D02*
X53940000Y57877000D01*
X31588000Y64481000D02*
X31651500Y64481000D01*
X30563150Y48724150D02*
X29182600Y50104700D01*
D48*
X33832800Y37689800D02*
X33832800Y39090600D01*
D49*
X21818600Y30962600D02*
X21158200Y31623000D01*
D47*
X32832600Y56604700D02*
X32832600Y58219900D01*
X5362500Y72799500D02*
X5172000Y72609000D01*
D48*
X22453600Y38506400D02*
X22094600Y38147400D01*
D47*
X54001000Y57795720D02*
X54001000Y55784000D01*
D48*
X24663400Y40157400D02*
X25298400Y40157400D01*
D47*
X29182600Y50104700D02*
X27132600Y50104700D01*
D50*
X11530000Y8220000D02*
X9701200Y6391200D01*
D51*
X54232280Y54021040D02*
X53582280Y54021040D01*
D50*
X34890000Y4537000D02*
X39970000Y4537000D01*
D47*
X54956000Y56480000D02*
X54321000Y55845000D01*
D48*
X25044600Y38201400D02*
X24585800Y38660200D01*
D50*
X51480000Y11543600D02*
X45405600Y17618000D01*
D49*
X20726400Y33375600D02*
X20726400Y34721800D01*
D51*
X53582280Y54021040D02*
X52924000Y53362760D01*
D48*
X22528200Y40130400D02*
X23569600Y40130400D01*
X22607400Y38660200D02*
X22453600Y38506400D01*
D50*
X33858200Y39116000D02*
X33832800Y39090600D01*
D47*
X31651500Y64481000D02*
X31651500Y62893500D01*
X31588000Y64481000D02*
X32794500Y64481000D01*
X38532600Y50904700D02*
X40554200Y50904700D01*
D49*
X20726400Y32054800D02*
X20726400Y33375600D01*
D48*
X26568400Y38887400D02*
X26568400Y38684200D01*
X38887400Y30149800D02*
X38938200Y30099000D01*
D47*
X55083000Y48987000D02*
X54067000Y48987000D01*
D48*
X25044600Y37160400D02*
X26047700Y38163500D01*
D50*
X4511600Y6391200D02*
X4511600Y11420400D01*
D47*
X21813000Y73375000D02*
X21809000Y73371000D01*
X32832600Y56604700D02*
X32832600Y55457876D01*
D51*
X52924000Y52035000D02*
X54067000Y50892000D01*
D50*
X4511600Y11420400D02*
X10658400Y17567200D01*
D47*
X54956000Y55210000D02*
X54321000Y55845000D01*
D48*
X22094600Y37160200D02*
X20751800Y37160200D01*
D47*
X51878600Y73375000D02*
X48432200Y73375000D01*
D49*
X20726400Y34721800D02*
X20726400Y35966400D01*
D48*
X21640800Y39547800D02*
X22223400Y40130400D01*
D49*
X26060400Y33537400D02*
X26060400Y32385000D01*
D47*
X30442500Y64481000D02*
X31588000Y64481000D01*
D51*
X52924000Y53362760D02*
X52924000Y52035000D01*
D49*
X25209500Y31534100D02*
X24638000Y30962600D01*
D50*
X47336000Y44097500D02*
X47336000Y23764800D01*
D49*
X27562800Y33959800D02*
X26482800Y33959800D01*
D48*
X37562800Y30149800D02*
X38887400Y30149800D01*
D47*
X41176500Y51651500D02*
X41176500Y52479500D01*
D49*
X24638000Y30962600D02*
X24206200Y30962600D01*
D50*
X39970000Y4537000D02*
X50127000Y4537000D01*
D47*
X32901100Y43106900D02*
X32901100Y45006900D01*
D49*
X24206200Y30962600D02*
X22783800Y30962600D01*
D47*
X32416000Y58639000D02*
X32416000Y59779500D01*
D48*
X22094600Y38147400D02*
X22094600Y37160200D01*
X25044600Y37160200D02*
X25044600Y38201400D01*
X20751800Y37160200D02*
X20726400Y37185600D01*
D50*
X50130000Y4540000D02*
X51480000Y5890000D01*
X32966600Y39141400D02*
X32738000Y39370000D01*
D48*
X24585800Y38660200D02*
X23569600Y38660200D01*
X23596600Y40157400D02*
X24663400Y40157400D01*
X25946100Y39509700D02*
X26568400Y38887400D01*
D47*
X32901100Y43106900D02*
X31359400Y43106900D01*
X21813000Y73375000D02*
X24853000Y73375000D01*
D48*
X20726400Y38633400D02*
X21640800Y39547800D01*
D50*
X9701200Y6391200D02*
X4511600Y6391200D01*
D49*
X26170000Y33647000D02*
X26060400Y33537400D01*
X26060400Y32385000D02*
X25209500Y31534100D01*
D48*
X23569600Y38660200D02*
X22607400Y38660200D01*
D50*
X33782000Y39141400D02*
X32966600Y39141400D01*
D48*
X23569600Y38660200D02*
X23569600Y40130400D01*
D49*
X22783800Y30962600D02*
X21818600Y30962600D01*
D51*
X33807400Y39116000D02*
X33782000Y39141400D01*
D48*
X23569600Y40130400D02*
X23596600Y40157400D01*
D52*
X54270200Y50841200D02*
X54331160Y50780240D01*
D48*
X25298400Y40157400D02*
X25946100Y39509700D01*
X20726400Y37185600D02*
X20726400Y38633400D01*
X26568400Y38684200D02*
X27178000Y39293800D01*
D47*
X32832600Y55457876D02*
X32822962Y55448238D01*
X32832600Y58219900D02*
X32477000Y58575500D01*
D51*
%TO.N,Net-(D1-Pad2)*%
X10188500Y72799500D02*
X10188500Y70831000D01*
%TO.N,/SS*%
X39422497Y38381123D02*
X39758959Y38717585D01*
X40137202Y29602356D02*
X40137202Y30868838D01*
X33832800Y27689800D02*
X33832800Y25730200D01*
X39422497Y31583543D02*
X39422497Y38381123D01*
X39758959Y38717585D02*
X39758959Y40123936D01*
X40137202Y30868838D02*
X39422497Y31583543D01*
X36417446Y26162000D02*
X36696846Y26162000D01*
X37239500Y54561600D02*
X37239500Y53432000D01*
X38532600Y54904700D02*
X37582600Y54904700D01*
X37582600Y54904700D02*
X37239500Y54561600D01*
X34417000Y25146000D02*
X35401446Y25146000D01*
X33832800Y25730200D02*
X34417000Y25146000D01*
X36696846Y26162000D02*
X40137202Y29602356D01*
X35401446Y25146000D02*
X36417446Y26162000D01*
%TO.N,/D2*%
X38623495Y39608505D02*
X38353999Y39878001D01*
X29317600Y55354698D02*
X28857500Y55814798D01*
X38392280Y45210022D02*
X38392280Y43030172D01*
X34247602Y49354700D02*
X38392280Y45210022D01*
X28857500Y55814798D02*
X28857500Y56607000D01*
X38623495Y33400495D02*
X38623495Y39608505D01*
X31461000Y49354700D02*
X34247602Y49354700D01*
X37912800Y32689800D02*
X38623495Y33400495D01*
X31461000Y55354698D02*
X29317600Y55354698D01*
%TO.N,/SCL*%
X12664500Y26756276D02*
X12664500Y19145500D01*
X23122010Y49665010D02*
X22190000Y48733000D01*
X22117500Y48676500D02*
X14411900Y48676500D01*
X25661824Y49665010D02*
X23122010Y49665010D01*
X24730000Y7080000D02*
X34887000Y7080000D01*
X27132600Y49304700D02*
X26022134Y49304700D01*
X12664500Y19145500D02*
X24730000Y7080000D01*
X26022134Y49304700D02*
X25661824Y49665010D01*
X14411900Y48676500D02*
X12496800Y46761400D01*
X12496800Y26923976D02*
X12664500Y26756276D01*
X34890000Y7077000D02*
X50130000Y7077000D01*
X12496800Y46761400D02*
X12496800Y26923976D01*
%TO.N,/SDA*%
X27132600Y48504700D02*
X25212300Y48504700D01*
X24107700Y9604300D02*
X35512300Y9604300D01*
X40097000Y9617000D02*
X50003000Y9617000D01*
X12928600Y46532800D02*
X12928600Y27057156D01*
X24984000Y48765000D02*
X24068000Y47849000D01*
X13064001Y21285999D02*
X24730000Y9620000D01*
X14244800Y47849000D02*
X12928600Y46532800D01*
X13064001Y26921755D02*
X13064001Y21285999D01*
X12928600Y27057156D02*
X13064001Y26921755D01*
X34890000Y9617000D02*
X40097000Y9617000D01*
X24068000Y47849000D02*
X14244800Y47849000D01*
D53*
%TO.N,/A0*%
X43780000Y50066500D02*
X42446500Y48733000D01*
X44558000Y55556960D02*
X42616680Y53615640D01*
X43780000Y52452320D02*
X43780000Y50066500D01*
X42616680Y53615640D02*
X43780000Y52452320D01*
X44558000Y57115000D02*
X44558000Y55556960D01*
D51*
X39588800Y49304700D02*
X38532600Y49304700D01*
X39588800Y49304700D02*
X40160500Y48733000D01*
%TO.N,/A1*%
X44034000Y44859500D02*
X44669000Y44224500D01*
X42510004Y44859500D02*
X44034000Y44859500D01*
X38532600Y48504700D02*
X39482600Y48504700D01*
X40097000Y47890300D02*
X40097000Y44922998D01*
X39482600Y48504700D02*
X40097000Y47890300D01*
%TO.N,/A2*%
X39970000Y54067000D02*
X38509500Y54067000D01*
X40462000Y54559000D02*
X39970000Y54067000D01*
X41732000Y54559000D02*
X42827500Y55654500D01*
X41732000Y54559000D02*
X40462000Y54559000D01*
%TO.N,/A3*%
X42891000Y51653002D02*
X42891000Y50892000D01*
X40956501Y53587501D02*
X42891000Y51653002D01*
X39691598Y53279600D02*
X39999499Y53587501D01*
X38547600Y53279600D02*
X39691598Y53279600D01*
X44732500Y50892000D02*
X44732500Y47907500D01*
X39999499Y53587501D02*
X40956501Y53587501D01*
%TO.N,/MOSI*%
X36479000Y25370000D02*
X36479000Y25379174D01*
X36832600Y56604700D02*
X36832600Y55593298D01*
X35636200Y24511000D02*
X36479000Y25353800D01*
X39700964Y41029753D02*
X36925053Y41029753D01*
X36925053Y41029753D02*
X36779200Y40883900D01*
X32562800Y26136600D02*
X34188400Y24511000D01*
X39822600Y22360100D02*
X39822600Y25344000D01*
X39821998Y31749022D02*
X39821998Y38215644D01*
X38636500Y21174000D02*
X39822600Y22360100D01*
X36096500Y54857198D02*
X36096500Y51054000D01*
X40358459Y38752105D02*
X40358459Y40372258D01*
X40358459Y40372258D02*
X39700964Y41029753D01*
X34188400Y24511000D02*
X35636200Y24511000D01*
X36479000Y25379174D02*
X40536703Y29436877D01*
X36832600Y55593298D02*
X36096500Y54857198D01*
X36479000Y25353800D02*
X36479000Y25370000D01*
X40536703Y31034317D02*
X39821998Y31749022D01*
X39821998Y38215644D02*
X40358459Y38752105D01*
X40536703Y29436877D02*
X40536703Y31034317D01*
X32562800Y26136600D02*
X32562800Y27689800D01*
%TO.N,/SCK*%
X35280600Y26009600D02*
X35280600Y27512000D01*
X38036866Y28067000D02*
X39737701Y29767835D01*
X39141400Y25984200D02*
X39157200Y26000000D01*
X39022996Y40056826D02*
X38602321Y40477501D01*
X38602321Y40477501D02*
X38105677Y40477501D01*
X39022996Y31411204D02*
X39022996Y40056826D01*
X39141400Y23724400D02*
X39141400Y25984200D01*
X35144000Y55751098D02*
X34745499Y55352597D01*
X35144000Y56353000D02*
X35144000Y55751098D01*
X39737701Y29767835D02*
X39737701Y30696499D01*
X38105677Y40477501D02*
X37912576Y40284400D01*
X34745499Y55352597D02*
X34745499Y51163499D01*
X35130000Y28067000D02*
X38036866Y28067000D01*
X37912576Y40284400D02*
X35720519Y40284400D01*
X35720519Y40284400D02*
X35018919Y40986000D01*
X36667000Y21250000D02*
X39141400Y23724400D01*
X35018919Y40986000D02*
X34763000Y40986000D01*
X39737701Y30696499D02*
X39022996Y31411204D01*
%TO.N,/MISO*%
X39822000Y41483400D02*
X36530878Y41483400D01*
X36265261Y41217783D02*
X35658856Y41217783D01*
X40780299Y38608965D02*
X40780299Y40525101D01*
X39106403Y27314597D02*
X38979403Y27314597D01*
X37057141Y25019000D02*
X34898141Y22860000D01*
X36530878Y41483400D02*
X36265261Y41217783D01*
X37084000Y25019000D02*
X37057141Y25019000D01*
X38979403Y27314597D02*
X40936204Y29271398D01*
X39878000Y26543000D02*
X39106403Y27314597D01*
X40221499Y38024765D02*
X40246899Y38050165D01*
X37084000Y25419194D02*
X37084000Y25019000D01*
D53*
X31292800Y22624200D02*
X32667000Y21250000D01*
D51*
X40246899Y38075565D02*
X40780299Y38608965D01*
D53*
X31292800Y27689800D02*
X31292800Y22624200D01*
D51*
X35271000Y51929998D02*
X35345499Y51855499D01*
X35271000Y55078098D02*
X35271000Y51929998D01*
X38979403Y27314597D02*
X37084000Y25419194D01*
X36160000Y55967098D02*
X35271000Y55078098D01*
X32667000Y21872000D02*
X32667000Y21250000D01*
X40221499Y31914501D02*
X40221499Y38024765D01*
X40246899Y38050165D02*
X40246899Y38075565D01*
X34898141Y22860000D02*
X33655000Y22860000D01*
X40780299Y40525101D02*
X39822000Y41483400D01*
X40936204Y31199796D02*
X40221499Y31914501D01*
X40936204Y29271398D02*
X40936204Y31199796D01*
X33655000Y22860000D02*
X32667000Y21872000D01*
%TO.N,Net-(Q1-Pad1)*%
X14087400Y10125000D02*
X8867700Y10125000D01*
X15941600Y8270800D02*
X14087400Y10125000D01*
X8867700Y10125000D02*
X6886500Y8143800D01*
D52*
%TO.N,VCC*%
X64989000Y71593000D02*
X61864800Y68468800D01*
D50*
X31963500Y40180000D02*
X31143500Y41000000D01*
D48*
X35966400Y37693600D02*
X35106600Y37693600D01*
D47*
X38065000Y60962300D02*
X38065000Y61992602D01*
D48*
X40979390Y41931890D02*
X41804890Y41931890D01*
X41910000Y38862000D02*
X41910000Y41826780D01*
D47*
X44887200Y63111700D02*
X39642100Y63111700D01*
X40884300Y50104700D02*
X41176500Y49812500D01*
D50*
X32332903Y40180000D02*
X31778000Y39625097D01*
X32332903Y40180000D02*
X32332903Y41674377D01*
D47*
X33366000Y69815000D02*
X33366000Y69180000D01*
D52*
X33110044Y54593364D02*
X33023366Y54593364D01*
D47*
X38532600Y50104700D02*
X40884300Y50104700D01*
D50*
X35786000Y38373000D02*
X35922000Y38373000D01*
D52*
X41228004Y46130204D02*
X45565706Y46130204D01*
D48*
X41228004Y46130204D02*
X41228004Y42180504D01*
X41910000Y38862000D02*
X41910000Y38316300D01*
D47*
X31778000Y41634500D02*
X31778000Y39625097D01*
X30064000Y50892000D02*
X27066800Y50892000D01*
D48*
X42494200Y37732100D02*
X41059500Y37732100D01*
D47*
X24222000Y1997000D02*
X17999000Y8220000D01*
X31143500Y41000000D02*
X32075390Y41931890D01*
X46688300Y63111700D02*
X44887200Y63111700D01*
D48*
X41910000Y41826780D02*
X41804890Y41931890D01*
D52*
X45487499Y67538501D02*
X45487499Y65898499D01*
D51*
X41021000Y37693600D02*
X41059500Y37732100D01*
D47*
X35017000Y1997000D02*
X24730000Y1997000D01*
X32075390Y41931890D02*
X32075390Y40291890D01*
D48*
X41228004Y46839996D02*
X41228004Y46130204D01*
X42667000Y21250000D02*
X41783000Y22134000D01*
X42088600Y37008600D02*
X42718239Y37638239D01*
D47*
X33582601Y55065921D02*
X33582601Y54989721D01*
D48*
X42718239Y41931890D02*
X42718239Y37638239D01*
D47*
X33632600Y56604700D02*
X33632600Y55817528D01*
X40821177Y42090103D02*
X40979390Y41931890D01*
X35309336Y41931890D02*
X35401946Y42024500D01*
D48*
X34318500Y58639000D02*
X35779000Y58639000D01*
D47*
X32075390Y41931890D02*
X31778000Y41634500D01*
D50*
X35786000Y39371097D02*
X34977097Y40180000D01*
D48*
X35106600Y37693600D02*
X35102800Y37689800D01*
D50*
X32332903Y40180000D02*
X31963500Y40180000D01*
D47*
X44887200Y63111700D02*
X45184010Y62814890D01*
D48*
X41435486Y49492514D02*
X41435486Y47150486D01*
X41783000Y22134000D02*
X41783000Y37008600D01*
D47*
X41228004Y42180504D02*
X40979390Y41931890D01*
D52*
X45558000Y60911700D02*
X45184010Y61285690D01*
D47*
X36714990Y63342612D02*
X36714990Y68515790D01*
X33186244Y54593364D02*
X33110044Y54593364D01*
D48*
X41910000Y38316300D02*
X42494200Y37732100D01*
D52*
X46637500Y65418500D02*
X46637500Y63223700D01*
D47*
X33632600Y55817528D02*
X33582601Y55767529D01*
X41176500Y46891500D02*
X41228004Y46839996D01*
D48*
X37693600Y37693600D02*
X35966400Y37693600D01*
X41435486Y47150486D02*
X41176500Y46891500D01*
D47*
X56480000Y8220000D02*
X50130000Y1870000D01*
D52*
X45184010Y61285690D02*
X45184010Y62914890D01*
D47*
X38532600Y50104700D02*
X30851300Y50104700D01*
X38065000Y61992602D02*
X36714990Y63342612D01*
D52*
X55235400Y68468800D02*
X46417798Y68468800D01*
D48*
X41804890Y41931890D02*
X42718239Y41931890D01*
D47*
X34534400Y68875200D02*
X33366000Y68875200D01*
D52*
X46046001Y50568449D02*
X45558000Y51056450D01*
D50*
X31778000Y39370000D02*
X31778000Y40365500D01*
D47*
X30064000Y50892000D02*
X30851300Y50104700D01*
D52*
X45558000Y51056450D02*
X45558000Y60911700D01*
D47*
X22190000Y50749000D02*
X24968000Y50749000D01*
D48*
X35779000Y58639000D02*
X38065000Y60925000D01*
X41783000Y37008600D02*
X41059500Y37732100D01*
D52*
X45487499Y65898499D02*
X46041398Y65344600D01*
D51*
X35786000Y37874000D02*
X35966400Y37693600D01*
D52*
X46417798Y68468800D02*
X45487499Y67538501D01*
D47*
X50003000Y1997000D02*
X35017000Y1997000D01*
D50*
X32332903Y41674377D02*
X32075390Y41931890D01*
D47*
X32075390Y40291890D02*
X31963500Y40180000D01*
D52*
X45565706Y46130204D02*
X46046001Y46610499D01*
D47*
X32075390Y41931890D02*
X35309336Y41931890D01*
D50*
X35786000Y39116000D02*
X35786000Y39371097D01*
D47*
X33582601Y54989721D02*
X33186244Y54593364D01*
X35401946Y42024500D02*
X36294866Y42024500D01*
X33023366Y54593364D02*
X30082364Y54593364D01*
D50*
X31778000Y40365500D02*
X31143500Y41000000D01*
X34977097Y40180000D02*
X32332903Y40180000D01*
D47*
X35690100Y72139100D02*
X33366000Y69815000D01*
X36360469Y42090103D02*
X40821177Y42090103D01*
D50*
X31778000Y39625097D02*
X31778000Y39370000D01*
D47*
X43734000Y20183000D02*
X42667000Y21250000D01*
X36714990Y68515790D02*
X37074400Y68875200D01*
X45850500Y20183000D02*
X43734000Y20183000D01*
D50*
X35786000Y38373000D02*
X35102800Y37689800D01*
D48*
X41783000Y37008600D02*
X42088600Y37008600D01*
D52*
X33582601Y55078599D02*
X33582601Y55065921D01*
D47*
X36294866Y42024500D02*
X36360469Y42090103D01*
X33632600Y57953100D02*
X34318500Y58639000D01*
D52*
X61864800Y68468800D02*
X57851600Y68468800D01*
D48*
X41176500Y49751500D02*
X41435486Y49492514D01*
D47*
X33632600Y56604700D02*
X33632600Y57953100D01*
X56480000Y9553500D02*
X45850500Y20183000D01*
D50*
X35922000Y38373000D02*
X36601400Y37693600D01*
D47*
X27132600Y50904700D02*
X25377700Y50904700D01*
X56480000Y8220000D02*
X56480000Y9553500D01*
X39642100Y63111700D02*
X38192000Y61661600D01*
D50*
X35786000Y39116000D02*
X35786000Y38373000D01*
D47*
X33582601Y55767529D02*
X33582601Y55078599D01*
D52*
X46046001Y46610499D02*
X46046001Y50568449D01*
D48*
%TO.N,/minusBAT*%
X61179000Y14554398D02*
X61179000Y59769300D01*
X61179000Y59769300D02*
X66728900Y65319200D01*
X66728900Y65319200D02*
X66779700Y65319200D01*
X59020000Y8220000D02*
X59020000Y12395398D01*
X59020000Y12395398D02*
X61179000Y14554398D01*
%TO.N,/plusBAT*%
X63490000Y65940000D02*
X61890000Y65940000D01*
X61890000Y65940000D02*
X56683200Y60733200D01*
X46533000Y52253800D02*
X46533000Y57090000D01*
X55791952Y47521350D02*
X53337170Y47521350D01*
D52*
X54650960Y52721040D02*
X55210000Y52162000D01*
D51*
X56336732Y52135572D02*
X56683200Y52482040D01*
D48*
X52162000Y50892000D02*
X47894800Y50892000D01*
D52*
X54232280Y52721040D02*
X54650960Y52721040D01*
D53*
X52014500Y52718500D02*
X52014500Y52395500D01*
D48*
X56683200Y52482040D02*
X56683200Y48412598D01*
X53337170Y47521350D02*
X52162000Y48696520D01*
D52*
X54489000Y52670000D02*
X54041600Y52670000D01*
D48*
X56683200Y60733200D02*
X56683200Y52797000D01*
X56363160Y52162000D02*
X56683200Y52482040D01*
X51146000Y51527000D02*
X51781000Y50892000D01*
D52*
X49964900Y50803100D02*
X48948900Y50803100D01*
D48*
X56683200Y52797000D02*
X56683200Y52482040D01*
X56683200Y48412598D02*
X55791952Y47521350D01*
D52*
X56556200Y52670000D02*
X56683200Y52797000D01*
D48*
X55210000Y52162000D02*
X56363160Y52162000D01*
D53*
X52014500Y52395500D02*
X51146000Y51527000D01*
D52*
X54489000Y52670000D02*
X54295600Y52670000D01*
X46637500Y66718500D02*
X62726100Y66718500D01*
D48*
X52162000Y48696520D02*
X52162000Y50892000D01*
X47894800Y50892000D02*
X46533000Y52253800D01*
D51*
%TO.N,/D5*%
X11176000Y28244800D02*
X11684000Y28752800D01*
X13883900Y53304700D02*
X27132600Y53304700D01*
X11912600Y24612600D02*
X11912600Y26365200D01*
X11176000Y27101800D02*
X11176000Y28244800D01*
X34667000Y21250000D02*
X30017499Y16600499D01*
X30017499Y16600499D02*
X21753501Y16600499D01*
X11684000Y28752800D02*
X11684000Y51104800D01*
X11684000Y51104800D02*
X13883900Y53304700D01*
X11912600Y26365200D02*
X11176000Y27101800D01*
X21753501Y16600499D02*
X13741400Y24612600D01*
%TO.N,/D6*%
X27858000Y20275000D02*
X24892000Y23241000D01*
X30667000Y21250000D02*
X29692000Y20275000D01*
X27132600Y52504700D02*
X13693500Y52504700D01*
X11827999Y28070959D02*
X11827999Y27624943D01*
X13693500Y52504700D02*
X12090400Y50901600D01*
X17592578Y23241000D02*
X13528100Y27305478D01*
X13528100Y27305478D02*
X13528100Y27343068D01*
X12090400Y50901600D02*
X12090400Y28333360D01*
X24892000Y23241000D02*
X17592578Y23241000D01*
X12090400Y28333360D02*
X11827999Y28070959D01*
X29692000Y20275000D02*
X27858000Y20275000D01*
%TO.N,/D7*%
X19151600Y46329600D02*
X13563600Y46329600D01*
X26155500Y23749000D02*
X28667000Y21237500D01*
X13563600Y46329600D02*
X13411200Y46177200D01*
X27132600Y51704700D02*
X21478700Y51704700D01*
X13411200Y28956000D02*
X18618200Y23749000D01*
X13411200Y46177200D02*
X13411200Y28956000D01*
X18618200Y23749000D02*
X26155500Y23749000D01*
X21478700Y51704700D02*
X19050000Y49276000D01*
%TO.N,/CONFIG*%
X30432600Y44439698D02*
X30147601Y44154699D01*
X14335099Y44154699D02*
X30147601Y44154699D01*
X30432600Y45204700D02*
X30432600Y44439698D01*
X10896600Y44170600D02*
X11150600Y44424600D01*
X11150600Y44424600D02*
X11150600Y62712600D01*
X18800000Y69625000D02*
X18800000Y66982000D01*
X18796300Y69625000D02*
X24819400Y69625000D01*
X11150600Y62712600D02*
X15420000Y66982000D01*
%TO.N,Net-(C6-Pad1)*%
X29051500Y59778500D02*
X31270500Y57559500D01*
X31270500Y57559500D02*
X31270500Y56670500D01*
X28542500Y64481000D02*
X28542500Y62129000D01*
X29051500Y61560000D02*
X29051500Y59778500D01*
%TO.N,Net-(C7-Pad1)*%
X32301500Y61560000D02*
X31461000Y60719500D01*
X31461000Y60719500D02*
X31461000Y57941302D01*
X34697000Y64481000D02*
X34697000Y62129000D01*
X31969000Y57433302D02*
X31969000Y56797500D01*
X34251500Y61560000D02*
X32301500Y61560000D01*
X31461000Y57941302D02*
X31969000Y57433302D01*
%TO.N,Net-(C8-Pad1)*%
X34801100Y43106900D02*
X33620000Y44288000D01*
X33620000Y44288000D02*
X33620000Y45177000D01*
%TO.N,/DTR*%
X28032000Y69751500D02*
X28032000Y69497500D01*
X28070100Y72139100D02*
X28070100Y69789600D01*
X28070100Y69789600D02*
X28032000Y69751500D01*
%TO.N,/RSETB*%
X23140003Y70300001D02*
X26129103Y73289101D01*
X30014198Y53813000D02*
X28347497Y55479701D01*
X71593000Y10442500D02*
X69370500Y8220000D01*
X25412799Y55479701D02*
X19884989Y61007511D01*
X19884989Y61007511D02*
X19884989Y64341908D01*
X29493111Y73689111D02*
X29460099Y73656099D01*
X39620099Y71587099D02*
X39620099Y72451103D01*
X28347497Y55479701D02*
X25412799Y55479701D01*
X26129103Y73289101D02*
X29446097Y73289101D01*
X39620099Y72451103D02*
X38382091Y73689111D01*
X70513500Y67592500D02*
X71593000Y66513000D01*
X29474800Y69129200D02*
X29474800Y71572398D01*
X34445500Y56607000D02*
X34445500Y55852598D01*
X41582198Y69625000D02*
X39620099Y71587099D01*
X29460099Y73656099D02*
X29460099Y73275099D01*
X41582198Y69625000D02*
X55464500Y69625000D01*
X57497000Y67592500D02*
X70513500Y67592500D01*
X71593000Y66513000D02*
X71593000Y10442500D01*
X29446097Y73289101D02*
X29460099Y73275099D01*
X31315200Y69129200D02*
X29098596Y69129200D01*
X34445500Y55852598D02*
X34132612Y55539710D01*
X33183713Y53813000D02*
X30014198Y53813000D01*
X34132612Y55539710D02*
X34132612Y54761899D01*
X17999996Y66226901D02*
X17999996Y70239997D01*
X29460099Y73275099D02*
X29460099Y69656901D01*
X17999996Y70239997D02*
X18059999Y70300001D01*
X19884989Y64341908D02*
X17999996Y66226901D01*
X18059999Y70300001D02*
X23140003Y70300001D01*
X34132612Y54761899D02*
X33183713Y53813000D01*
X55464500Y69625000D02*
X57497000Y67592500D01*
X38382091Y73689111D02*
X29493111Y73689111D01*
%TO.N,/RXD0*%
X29334792Y58467510D02*
X30445000Y57357302D01*
X26662099Y65015333D02*
X26662099Y59246901D01*
X30445000Y57357302D02*
X30445000Y57115000D01*
X28667766Y67021000D02*
X26662099Y65015333D01*
X27441490Y58467510D02*
X29334792Y58467510D01*
X34001000Y67021000D02*
X28667766Y67021000D01*
X34300101Y73289101D02*
X36242101Y73289101D01*
X36840101Y72691101D02*
X36840101Y69808715D01*
X26662099Y59246901D02*
X27441490Y58467510D01*
X33150100Y72139100D02*
X34300101Y73289101D01*
X36840101Y69808715D02*
X36788715Y69808715D01*
X36788715Y69808715D02*
X34001000Y67021000D01*
X36242101Y73289101D02*
X36840101Y72691101D01*
%TO.N,/TXD0*%
X29619500Y57382802D02*
X28934802Y58067500D01*
X21134499Y68949999D02*
X24769501Y68949999D01*
X29619500Y56607000D02*
X29619500Y57382802D01*
X28934802Y58067500D02*
X23523500Y58067500D01*
X25615310Y68104190D02*
X24769501Y68949999D01*
X32215210Y68251396D02*
X32068004Y68104190D01*
X23523500Y58067500D02*
X20285000Y61306000D01*
X30610100Y71412134D02*
X32215210Y69807024D01*
X20285000Y68100500D02*
X21134499Y68949999D01*
X32068004Y68104190D02*
X25615310Y68104190D01*
X32215210Y68251396D02*
X32215210Y69807024D01*
X20285000Y61306000D02*
X20285000Y68100500D01*
%TO.N,Net-(R1-Pad1)*%
X19459500Y64201698D02*
X16983000Y66678198D01*
X10379000Y68481500D02*
X8156500Y70704000D01*
X19459500Y60243100D02*
X19459500Y64201698D01*
X16983000Y66678198D02*
X16983000Y68481500D01*
X25572100Y54130500D02*
X19459500Y60243100D01*
X16983000Y68481500D02*
X10379000Y68481500D01*
X27079500Y54130500D02*
X25572100Y54130500D01*
%TO.N,/Vout*%
X55793411Y53974411D02*
X55793411Y58918400D01*
X55139000Y53320000D02*
X55793411Y53974411D01*
X52101000Y57795720D02*
X52101000Y54128000D01*
X55793411Y58918400D02*
X53203400Y58918400D01*
X52101000Y57795720D02*
X50709120Y57795720D01*
X53203400Y58918400D02*
X52487120Y58202120D01*
D48*
X50688800Y57775400D02*
X46726400Y61737800D01*
D51*
X50709120Y57795720D02*
X50688800Y57775400D01*
X54489000Y53320000D02*
X55139000Y53320000D01*
%TO.N,/VAVCC*%
X31724812Y44131910D02*
X30690511Y44131910D01*
X32032600Y44439698D02*
X31724812Y44131910D01*
X32032600Y45204700D02*
X32032600Y44439698D01*
X30690511Y44131910D02*
X29322601Y42764000D01*
X29268900Y42950000D02*
X29268900Y41016400D01*
%TO.N,/PB1_T1*%
X36639499Y53143999D02*
X36639499Y53784499D01*
X37240498Y52543000D02*
X37938000Y52543000D01*
X36839490Y55000490D02*
X40224000Y58385000D01*
X37240498Y52543000D02*
X36639499Y53143999D01*
X36839490Y53984490D02*
X36839490Y55000490D01*
X41240000Y58385000D02*
X40224000Y58385000D01*
X36639499Y53784499D02*
X36839490Y53984490D01*
%TO.N,/PB0_T0*%
X39482600Y51704700D02*
X40287500Y52509600D01*
X40287500Y52509600D02*
X40287500Y52987500D01*
X43145000Y63909500D02*
X41938500Y65116000D01*
X43145000Y57807699D02*
X40445583Y55108282D01*
X38532600Y51704700D02*
X39482600Y51704700D01*
X43145000Y62068000D02*
X43145000Y57807699D01*
%TO.N,Net-(AE1-Pad1)*%
X24000000Y35229800D02*
X23569600Y35660200D01*
X27562800Y35229800D02*
X24000000Y35229800D01*
X23569600Y35660200D02*
X23569600Y33529600D01*
%TD*%
%TA.AperFunction,Conductor*%
%TO.N,GND*%
G36*
X55114743Y58490838D02*
G01*
X55407892Y58295405D01*
X55453477Y58240976D01*
X55464000Y58190567D01*
X55464000Y54381559D01*
X55443998Y54313438D01*
X55416712Y54283170D01*
X54863514Y53840611D01*
X54797825Y53813675D01*
X54784802Y53813000D01*
X53813000Y53813000D01*
X53727102Y53770051D01*
X53704666Y53762366D01*
X53698443Y53759789D01*
X53686269Y53757367D01*
X53675952Y53750474D01*
X53675951Y53750473D01*
X53646870Y53731041D01*
X53633216Y53723108D01*
X53559000Y53686000D01*
X53559000Y52289000D01*
X53813000Y52035000D01*
X54126567Y52035000D01*
X54194688Y52014998D01*
X54231405Y51978892D01*
X54426838Y51685743D01*
X54448000Y51615851D01*
X54448000Y51146000D01*
X55411810Y51146000D01*
X55479931Y51125998D01*
X55500905Y51109095D01*
X55681095Y50928905D01*
X55715121Y50866593D01*
X55718000Y50839810D01*
X55718000Y48531190D01*
X55697998Y48463069D01*
X55681095Y48442095D01*
X55500905Y48261905D01*
X55438593Y48227879D01*
X55411810Y48225000D01*
X53715745Y48225000D01*
X53659396Y48238302D01*
X53580640Y48277680D01*
X53547894Y48301283D01*
X53468905Y48380272D01*
X53434879Y48442584D01*
X53432000Y48469367D01*
X53432000Y51400000D01*
X52620936Y52211064D01*
X52586910Y52273376D01*
X52591975Y52344191D01*
X52610484Y52372991D01*
X52609052Y52373948D01*
X52646474Y52429953D01*
X52653367Y52440269D01*
X52665000Y52498752D01*
X52665000Y52734500D01*
X52685002Y52802621D01*
X52738658Y52849114D01*
X52761864Y52854162D01*
X52761502Y52855396D01*
X52778884Y52860500D01*
X52797000Y52860500D01*
X52797000Y53760810D01*
X52817002Y53828931D01*
X52833905Y53849905D01*
X53305000Y54321000D01*
X53305000Y58205810D01*
X53325002Y58273931D01*
X53341905Y58294905D01*
X53522095Y58475095D01*
X53584407Y58509121D01*
X53611190Y58512000D01*
X55044851Y58512000D01*
X55114743Y58490838D01*
G37*
%TD.AperFunction*%
%TD*%
%TA.AperFunction,Conductor*%
%TO.N,Net-(L1-Pad2)*%
G36*
X50961121Y54681998D02*
G01*
X51007614Y54628342D01*
X51019000Y54576000D01*
X51019000Y53813000D01*
X51209500Y53622500D01*
X51509719Y53622500D01*
X51534300Y53620079D01*
X51544752Y53618000D01*
X52353500Y53618000D01*
X52421621Y53597998D01*
X52468114Y53544342D01*
X52479500Y53492000D01*
X52479500Y53245000D01*
X52459498Y53176879D01*
X52405842Y53130386D01*
X52353500Y53119000D01*
X51544752Y53119000D01*
X51538684Y53117793D01*
X51534300Y53116921D01*
X51509719Y53114500D01*
X51336500Y53114500D01*
X51240193Y53034244D01*
X50989954Y52825712D01*
X50924817Y52797468D01*
X50910654Y52796515D01*
X50537841Y52792483D01*
X47883649Y52763777D01*
X47826613Y52776738D01*
X47511992Y52931708D01*
X47303825Y53034244D01*
X47251553Y53082288D01*
X47233500Y53147276D01*
X47233500Y54576000D01*
X47253502Y54644121D01*
X47307158Y54690614D01*
X47359500Y54702000D01*
X50893000Y54702000D01*
X50961121Y54681998D01*
G37*
%TD.AperFunction*%
%TD*%
%TA.AperFunction,Conductor*%
%TO.N,GND*%
G36*
X32219032Y60948395D02*
G01*
X32275868Y60905848D01*
X32300679Y60839328D01*
X32301000Y60830339D01*
X32301000Y60340252D01*
X32312633Y60281769D01*
X32356948Y60215448D01*
X32423269Y60171133D01*
X32435438Y60168712D01*
X32435439Y60168712D01*
X32475151Y60160813D01*
X32481752Y60159500D01*
X35868320Y60159500D01*
X35936441Y60139498D01*
X35982934Y60085842D01*
X35993038Y60015568D01*
X35963544Y59950988D01*
X35954976Y59942030D01*
X35688448Y59689530D01*
X35625239Y59657201D01*
X35601792Y59655000D01*
X31887500Y59655000D01*
X31819379Y59675002D01*
X31772886Y59728658D01*
X31761500Y59781000D01*
X31761500Y60542839D01*
X31781502Y60610960D01*
X31798405Y60631934D01*
X32085905Y60919434D01*
X32148217Y60953460D01*
X32219032Y60948395D01*
G37*
%TD.AperFunction*%
%TA.AperFunction,Conductor*%
G36*
X32858201Y65773250D02*
G01*
X35412859Y65751416D01*
X35480805Y65730833D01*
X35497241Y65718009D01*
X35834708Y65406500D01*
X36223953Y65047197D01*
X36260442Y64986295D01*
X36264490Y64954612D01*
X36264490Y63376832D01*
X36263617Y63362023D01*
X36259626Y63328302D01*
X36261318Y63319038D01*
X36261318Y63319037D01*
X36270162Y63270611D01*
X36270812Y63266708D01*
X36279541Y63208650D01*
X36282094Y63203334D01*
X36283506Y63197552D01*
X36283965Y63195038D01*
X36282790Y63194823D01*
X36287000Y63169527D01*
X36287000Y63046104D01*
X36266998Y62977983D01*
X36213342Y62931490D01*
X36143068Y62921386D01*
X36101548Y62937297D01*
X36101517Y62937223D01*
X36098764Y62938363D01*
X36090996Y62941340D01*
X36090048Y62941974D01*
X36090045Y62941975D01*
X36079731Y62948867D01*
X36067562Y62951288D01*
X36067561Y62951288D01*
X36027316Y62959293D01*
X36021248Y62960500D01*
X35123500Y62960500D01*
X35055379Y62980502D01*
X35008886Y63034158D01*
X34997500Y63086500D01*
X34997500Y63456940D01*
X35017502Y63525061D01*
X35071158Y63571554D01*
X35081752Y63575823D01*
X35160184Y63603366D01*
X35167754Y63608958D01*
X35167757Y63608959D01*
X35261579Y63678258D01*
X35269150Y63683850D01*
X35281665Y63700794D01*
X35344041Y63785243D01*
X35344042Y63785246D01*
X35349634Y63792816D01*
X35394519Y63920631D01*
X35397500Y63952166D01*
X35397500Y65009834D01*
X35395806Y65027752D01*
X35395242Y65033722D01*
X35395242Y65033723D01*
X35394519Y65041369D01*
X35349634Y65169184D01*
X35344042Y65176754D01*
X35344041Y65176757D01*
X35274742Y65270579D01*
X35269150Y65278150D01*
X35252206Y65290665D01*
X35167757Y65353041D01*
X35167754Y65353042D01*
X35160184Y65358634D01*
X35032369Y65403519D01*
X35024723Y65404242D01*
X35024722Y65404242D01*
X35018752Y65404806D01*
X35000834Y65406500D01*
X34393166Y65406500D01*
X34375248Y65404806D01*
X34369278Y65404242D01*
X34369277Y65404242D01*
X34361631Y65403519D01*
X34233816Y65358634D01*
X34226246Y65353042D01*
X34226243Y65353041D01*
X34141794Y65290665D01*
X34124850Y65278150D01*
X34119258Y65270579D01*
X34049959Y65176757D01*
X34049958Y65176754D01*
X34044366Y65169184D01*
X33999481Y65041369D01*
X33998758Y65033723D01*
X33998758Y65033722D01*
X33998194Y65027752D01*
X33996500Y65009834D01*
X33996500Y63952166D01*
X33999481Y63920631D01*
X34044366Y63792816D01*
X34049958Y63785246D01*
X34049959Y63785243D01*
X34112335Y63700794D01*
X34124850Y63683850D01*
X34132421Y63678258D01*
X34226243Y63608959D01*
X34226246Y63608958D01*
X34233816Y63603366D01*
X34312248Y63575823D01*
X34369894Y63534380D01*
X34395982Y63468350D01*
X34396500Y63456940D01*
X34396500Y63086500D01*
X34376498Y63018379D01*
X34322842Y62971886D01*
X34270500Y62960500D01*
X32481752Y62960500D01*
X32475684Y62959293D01*
X32435439Y62951288D01*
X32435438Y62951288D01*
X32423269Y62948867D01*
X32356948Y62904552D01*
X32312633Y62838231D01*
X32301000Y62779748D01*
X32301000Y61970312D01*
X32280998Y61902191D01*
X32227342Y61855698D01*
X32211869Y61850806D01*
X32202883Y61847339D01*
X32191447Y61845209D01*
X32181546Y61839106D01*
X32181544Y61839105D01*
X32170461Y61832273D01*
X32154079Y61823764D01*
X32150717Y61822319D01*
X32139613Y61817549D01*
X32139611Y61817548D01*
X32131437Y61814036D01*
X32126551Y61810022D01*
X32124371Y61807842D01*
X32122103Y61805785D01*
X32121958Y61805945D01*
X32112951Y61798825D01*
X32106056Y61792573D01*
X32096152Y61786468D01*
X32079584Y61764680D01*
X32068390Y61751861D01*
X31285548Y60969019D01*
X31283514Y60967263D01*
X31278731Y60964925D01*
X31270819Y60956396D01*
X31270818Y60956395D01*
X31245427Y60929023D01*
X31242147Y60925618D01*
X31228752Y60912223D01*
X31226029Y60908253D01*
X31223708Y60905611D01*
X31220382Y60902025D01*
X31159392Y60865681D01*
X31088436Y60868081D01*
X31030041Y60908461D01*
X31002748Y60974001D01*
X31002000Y60987708D01*
X31002000Y62779748D01*
X30990367Y62838231D01*
X30946052Y62904552D01*
X30879731Y62948867D01*
X30867562Y62951288D01*
X30867561Y62951288D01*
X30827316Y62959293D01*
X30821248Y62960500D01*
X28969000Y62960500D01*
X28900879Y62980502D01*
X28854386Y63034158D01*
X28843000Y63086500D01*
X28843000Y63456940D01*
X28863002Y63525061D01*
X28916658Y63571554D01*
X28927252Y63575823D01*
X29005684Y63603366D01*
X29013254Y63608958D01*
X29013257Y63608959D01*
X29107079Y63678258D01*
X29114650Y63683850D01*
X29127165Y63700794D01*
X29189541Y63785243D01*
X29189542Y63785246D01*
X29195134Y63792816D01*
X29240019Y63920631D01*
X29243000Y63952166D01*
X29243000Y65009834D01*
X29241306Y65027752D01*
X29240742Y65033722D01*
X29240742Y65033723D01*
X29240019Y65041369D01*
X29195134Y65169184D01*
X29189542Y65176754D01*
X29189541Y65176757D01*
X29120242Y65270579D01*
X29114650Y65278150D01*
X29097706Y65290665D01*
X29013257Y65353041D01*
X29013254Y65353042D01*
X29005684Y65358634D01*
X28877869Y65403519D01*
X28870223Y65404242D01*
X28870222Y65404242D01*
X28864252Y65404806D01*
X28846334Y65406500D01*
X28238666Y65406500D01*
X28220748Y65404806D01*
X28214778Y65404242D01*
X28214777Y65404242D01*
X28207131Y65403519D01*
X28079316Y65358634D01*
X28071746Y65353042D01*
X28071743Y65353041D01*
X27987294Y65290665D01*
X27970350Y65278150D01*
X27964758Y65270579D01*
X27895459Y65176757D01*
X27895458Y65176754D01*
X27889866Y65169184D01*
X27844981Y65041369D01*
X27844258Y65033723D01*
X27844258Y65033722D01*
X27843694Y65027752D01*
X27842000Y65009834D01*
X27842000Y63952166D01*
X27844981Y63920631D01*
X27889866Y63792816D01*
X27895458Y63785246D01*
X27895459Y63785243D01*
X27957835Y63700794D01*
X27970350Y63683850D01*
X27977921Y63678258D01*
X28071743Y63608959D01*
X28071746Y63608958D01*
X28079316Y63603366D01*
X28157748Y63575823D01*
X28215394Y63534380D01*
X28241482Y63468350D01*
X28242000Y63456940D01*
X28242000Y63086500D01*
X28221998Y63018379D01*
X28168342Y62971886D01*
X28116000Y62960500D01*
X27281752Y62960500D01*
X27230081Y62950222D01*
X27159367Y62956550D01*
X27103300Y63000104D01*
X27079500Y63073801D01*
X27079500Y64687359D01*
X27099502Y64755480D01*
X27111020Y64770723D01*
X27993951Y65771377D01*
X28054020Y65809223D01*
X28089508Y65814008D01*
X32858201Y65773250D01*
G37*
%TD.AperFunction*%
%TD*%
%TA.AperFunction,Conductor*%
%TO.N,/plusBAT*%
G36*
X57184121Y52903998D02*
G01*
X57230614Y52850342D01*
X57242000Y52798000D01*
X57242000Y48146351D01*
X57221998Y48078230D01*
X57209655Y48062061D01*
X56136539Y46869710D01*
X56076101Y46832457D01*
X56042884Y46828000D01*
X52976190Y46828000D01*
X52908069Y46848002D01*
X52887095Y46864905D01*
X51563905Y48188095D01*
X51529879Y48250407D01*
X51527000Y48277190D01*
X51527000Y49114000D01*
X47462000Y49114000D01*
X47393879Y49134002D01*
X47347386Y49187658D01*
X47336000Y49240000D01*
X47336000Y51907395D01*
X47356002Y51975516D01*
X47409658Y52022009D01*
X47463594Y52033385D01*
X52301247Y51972149D01*
X52369108Y51951286D01*
X52388746Y51935254D01*
X53014095Y51309905D01*
X53048121Y51247593D01*
X53051000Y51220810D01*
X53051000Y48415500D01*
X53559000Y47780500D01*
X55591000Y47971000D01*
X55972000Y48479000D01*
X55972000Y51019000D01*
X55591000Y51400000D01*
X54828000Y51400000D01*
X54759879Y51420002D01*
X54713386Y51473658D01*
X54702000Y51526000D01*
X54702000Y51781000D01*
X54586310Y51935254D01*
X54331871Y52274505D01*
X54331872Y52274505D01*
X54321000Y52289000D01*
X53992190Y52289000D01*
X53924069Y52309002D01*
X53903095Y52325905D01*
X53849905Y52379095D01*
X53815879Y52441407D01*
X53813000Y52468190D01*
X53813000Y52798000D01*
X53833002Y52866121D01*
X53886658Y52912614D01*
X53939000Y52924000D01*
X57116000Y52924000D01*
X57184121Y52903998D01*
G37*
%TD.AperFunction*%
%TD*%
%TA.AperFunction,Conductor*%
%TO.N,/Vout*%
G36*
X47482164Y62301998D02*
G01*
X47499113Y62288947D01*
X48656003Y61230099D01*
X51209500Y58893000D01*
X52986451Y58893000D01*
X53054572Y58872998D01*
X53101065Y58819342D01*
X53112435Y58764968D01*
X53051000Y54956000D01*
X53051000Y54636625D01*
X53030998Y54568504D01*
X53002357Y54537167D01*
X52493798Y54141621D01*
X52479500Y54130500D01*
X52479500Y54002500D01*
X52459498Y53934379D01*
X52405842Y53887886D01*
X52353500Y53876500D01*
X51579190Y53876500D01*
X51511069Y53896502D01*
X51490095Y53913405D01*
X51436905Y53966595D01*
X51402879Y54028907D01*
X51400000Y54055690D01*
X51400000Y56353000D01*
X46193000Y61242500D01*
X46065000Y61242500D01*
X45996879Y61262502D01*
X45950386Y61316158D01*
X45939000Y61368500D01*
X45939000Y62196000D01*
X45959002Y62264121D01*
X46012658Y62310614D01*
X46065000Y62322000D01*
X47414043Y62322000D01*
X47482164Y62301998D01*
G37*
%TD.AperFunction*%
%TD*%
M02*
