%TF.GenerationSoftware,KiCad,Pcbnew,8.0.5-8.0.5-0~ubuntu22.04.1*%
%TF.CreationDate,2024-10-01T09:33:11+02:00*%
%TF.ProjectId,HB-UNI-SenAct-4-4-SC_DS_FUEL4EP_PCB,48422d55-4e49-42d5-9365-6e4163742d34,1.7*%
%TF.SameCoordinates,Original*%
%TF.FileFunction,Legend,Top*%
%TF.FilePolarity,Positive*%
%FSLAX46Y46*%
G04 Gerber Fmt 4.6, Leading zero omitted, Abs format (unit mm)*
G04 Created by KiCad (PCBNEW 8.0.5-8.0.5-0~ubuntu22.04.1) date 2024-10-01 09:33:11*
%MOMM*%
%LPD*%
G01*
G04 APERTURE LIST*
%ADD10C,0.152400*%
%ADD11C,0.250000*%
%ADD12C,0.150000*%
%ADD13C,0.120000*%
%ADD14C,0.010000*%
%ADD15C,0.127000*%
%ADD16C,0.100000*%
%ADD17C,2.000000*%
%ADD18R,1.600000X1.600000*%
%ADD19C,1.600000*%
%ADD20R,1.800000X1.800000*%
%ADD21C,1.800000*%
%ADD22R,2.200000X2.200000*%
%ADD23O,2.200000X2.200000*%
%ADD24C,5.800000*%
%ADD25R,1.700000X1.700000*%
%ADD26O,1.700000X1.700000*%
%ADD27R,1.000000X1.500000*%
%ADD28C,1.350000*%
%ADD29R,1.800000X1.350000*%
%ADD30C,3.000000*%
%ADD31R,1.717500X1.800000*%
%ADD32O,1.717500X1.800000*%
%ADD33C,1.400000*%
%ADD34O,1.400000X1.400000*%
%ADD35O,1.600000X1.600000*%
%ADD36O,3.251200X1.625600*%
%ADD37R,1.710000X1.800000*%
%ADD38O,1.710000X1.800000*%
%ADD39C,2.082800*%
%ADD40R,1.000000X1.000000*%
%ADD41R,4.000000X4.000000*%
%ADD42R,1.498600X1.498600*%
%ADD43C,1.498600*%
G04 APERTURE END LIST*
D10*
X59019924Y4376403D02*
X58942514Y4415108D01*
X58942514Y4415108D02*
X58826400Y4415108D01*
X58826400Y4415108D02*
X58710286Y4376403D01*
X58710286Y4376403D02*
X58632876Y4298993D01*
X58632876Y4298993D02*
X58594171Y4221584D01*
X58594171Y4221584D02*
X58555467Y4066765D01*
X58555467Y4066765D02*
X58555467Y3950651D01*
X58555467Y3950651D02*
X58594171Y3795832D01*
X58594171Y3795832D02*
X58632876Y3718422D01*
X58632876Y3718422D02*
X58710286Y3641013D01*
X58710286Y3641013D02*
X58826400Y3602308D01*
X58826400Y3602308D02*
X58903809Y3602308D01*
X58903809Y3602308D02*
X59019924Y3641013D01*
X59019924Y3641013D02*
X59058628Y3679717D01*
X59058628Y3679717D02*
X59058628Y3950651D01*
X59058628Y3950651D02*
X58903809Y3950651D01*
X59406971Y3602308D02*
X59406971Y4415108D01*
X59406971Y4415108D02*
X59871428Y3602308D01*
X59871428Y3602308D02*
X59871428Y4415108D01*
X60258476Y3602308D02*
X60258476Y4415108D01*
X60258476Y4415108D02*
X60452000Y4415108D01*
X60452000Y4415108D02*
X60568114Y4376403D01*
X60568114Y4376403D02*
X60645524Y4298993D01*
X60645524Y4298993D02*
X60684229Y4221584D01*
X60684229Y4221584D02*
X60722933Y4066765D01*
X60722933Y4066765D02*
X60722933Y3950651D01*
X60722933Y3950651D02*
X60684229Y3795832D01*
X60684229Y3795832D02*
X60645524Y3718422D01*
X60645524Y3718422D02*
X60568114Y3641013D01*
X60568114Y3641013D02*
X60452000Y3602308D01*
X60452000Y3602308D02*
X60258476Y3602308D01*
X73891019Y2560908D02*
X74161952Y1748108D01*
X74161952Y1748108D02*
X74432886Y2560908D01*
X74510296Y1670698D02*
X75129572Y1670698D01*
X75323095Y1748108D02*
X75323095Y2289974D01*
X75323095Y2135155D02*
X75361800Y2212565D01*
X75361800Y2212565D02*
X75400505Y2251270D01*
X75400505Y2251270D02*
X75477914Y2289974D01*
X75477914Y2289974D02*
X75555324Y2289974D01*
X76135895Y1786813D02*
X76058486Y1748108D01*
X76058486Y1748108D02*
X75903667Y1748108D01*
X75903667Y1748108D02*
X75826257Y1786813D01*
X75826257Y1786813D02*
X75787553Y1864222D01*
X75787553Y1864222D02*
X75787553Y2173860D01*
X75787553Y2173860D02*
X75826257Y2251270D01*
X75826257Y2251270D02*
X75903667Y2289974D01*
X75903667Y2289974D02*
X76058486Y2289974D01*
X76058486Y2289974D02*
X76135895Y2251270D01*
X76135895Y2251270D02*
X76174600Y2173860D01*
X76174600Y2173860D02*
X76174600Y2096451D01*
X76174600Y2096451D02*
X75787553Y2019041D01*
X76639058Y1748108D02*
X76561648Y1786813D01*
X76561648Y1786813D02*
X76522943Y1864222D01*
X76522943Y1864222D02*
X76522943Y2560908D01*
X77297038Y1748108D02*
X77297038Y2173860D01*
X77297038Y2173860D02*
X77258333Y2251270D01*
X77258333Y2251270D02*
X77180924Y2289974D01*
X77180924Y2289974D02*
X77026105Y2289974D01*
X77026105Y2289974D02*
X76948695Y2251270D01*
X77297038Y1786813D02*
X77219629Y1748108D01*
X77219629Y1748108D02*
X77026105Y1748108D01*
X77026105Y1748108D02*
X76948695Y1786813D01*
X76948695Y1786813D02*
X76909991Y1864222D01*
X76909991Y1864222D02*
X76909991Y1941632D01*
X76909991Y1941632D02*
X76948695Y2019041D01*
X76948695Y2019041D02*
X77026105Y2057746D01*
X77026105Y2057746D02*
X77219629Y2057746D01*
X77219629Y2057746D02*
X77297038Y2096451D01*
X77684085Y1748108D02*
X77684085Y2289974D01*
X77684085Y2560908D02*
X77645381Y2522203D01*
X77645381Y2522203D02*
X77684085Y2483498D01*
X77684085Y2483498D02*
X77722790Y2522203D01*
X77722790Y2522203D02*
X77684085Y2560908D01*
X77684085Y2560908D02*
X77684085Y2483498D01*
X78032429Y1786813D02*
X78109838Y1748108D01*
X78109838Y1748108D02*
X78264657Y1748108D01*
X78264657Y1748108D02*
X78342067Y1786813D01*
X78342067Y1786813D02*
X78380771Y1864222D01*
X78380771Y1864222D02*
X78380771Y1902927D01*
X78380771Y1902927D02*
X78342067Y1980336D01*
X78342067Y1980336D02*
X78264657Y2019041D01*
X78264657Y2019041D02*
X78148543Y2019041D01*
X78148543Y2019041D02*
X78071133Y2057746D01*
X78071133Y2057746D02*
X78032429Y2135155D01*
X78032429Y2135155D02*
X78032429Y2173860D01*
X78032429Y2173860D02*
X78071133Y2251270D01*
X78071133Y2251270D02*
X78148543Y2289974D01*
X78148543Y2289974D02*
X78264657Y2289974D01*
X78264657Y2289974D02*
X78342067Y2251270D01*
X1214361Y29921546D02*
X1833638Y29921546D01*
X31051291Y1210266D02*
X31864091Y1481199D01*
X31864091Y1481199D02*
X31051291Y1752133D01*
X31786682Y2487523D02*
X31825387Y2448819D01*
X31825387Y2448819D02*
X31864091Y2332704D01*
X31864091Y2332704D02*
X31864091Y2255295D01*
X31864091Y2255295D02*
X31825387Y2139181D01*
X31825387Y2139181D02*
X31747977Y2061771D01*
X31747977Y2061771D02*
X31670567Y2023066D01*
X31670567Y2023066D02*
X31515748Y1984362D01*
X31515748Y1984362D02*
X31399634Y1984362D01*
X31399634Y1984362D02*
X31244815Y2023066D01*
X31244815Y2023066D02*
X31167406Y2061771D01*
X31167406Y2061771D02*
X31089996Y2139181D01*
X31089996Y2139181D02*
X31051291Y2255295D01*
X31051291Y2255295D02*
X31051291Y2332704D01*
X31051291Y2332704D02*
X31089996Y2448819D01*
X31089996Y2448819D02*
X31128701Y2487523D01*
X31786682Y3300323D02*
X31825387Y3261619D01*
X31825387Y3261619D02*
X31864091Y3145504D01*
X31864091Y3145504D02*
X31864091Y3068095D01*
X31864091Y3068095D02*
X31825387Y2951981D01*
X31825387Y2951981D02*
X31747977Y2874571D01*
X31747977Y2874571D02*
X31670567Y2835866D01*
X31670567Y2835866D02*
X31515748Y2797162D01*
X31515748Y2797162D02*
X31399634Y2797162D01*
X31399634Y2797162D02*
X31244815Y2835866D01*
X31244815Y2835866D02*
X31167406Y2874571D01*
X31167406Y2874571D02*
X31089996Y2951981D01*
X31089996Y2951981D02*
X31051291Y3068095D01*
X31051291Y3068095D02*
X31051291Y3145504D01*
X31051291Y3145504D02*
X31089996Y3261619D01*
X31089996Y3261619D02*
X31128701Y3300323D01*
D11*
X44704095Y22354761D02*
X44608857Y22402380D01*
X44608857Y22402380D02*
X44466000Y22402380D01*
X44466000Y22402380D02*
X44323143Y22354761D01*
X44323143Y22354761D02*
X44227905Y22259523D01*
X44227905Y22259523D02*
X44180286Y22164285D01*
X44180286Y22164285D02*
X44132667Y21973809D01*
X44132667Y21973809D02*
X44132667Y21830952D01*
X44132667Y21830952D02*
X44180286Y21640476D01*
X44180286Y21640476D02*
X44227905Y21545238D01*
X44227905Y21545238D02*
X44323143Y21450000D01*
X44323143Y21450000D02*
X44466000Y21402380D01*
X44466000Y21402380D02*
X44561238Y21402380D01*
X44561238Y21402380D02*
X44704095Y21450000D01*
X44704095Y21450000D02*
X44751714Y21497619D01*
X44751714Y21497619D02*
X44751714Y21830952D01*
X44751714Y21830952D02*
X44561238Y21830952D01*
X45180286Y21402380D02*
X45180286Y22402380D01*
X45180286Y22402380D02*
X45751714Y21402380D01*
X45751714Y21402380D02*
X45751714Y22402380D01*
X46227905Y21402380D02*
X46227905Y22402380D01*
X46227905Y22402380D02*
X46466000Y22402380D01*
X46466000Y22402380D02*
X46608857Y22354761D01*
X46608857Y22354761D02*
X46704095Y22259523D01*
X46704095Y22259523D02*
X46751714Y22164285D01*
X46751714Y22164285D02*
X46799333Y21973809D01*
X46799333Y21973809D02*
X46799333Y21830952D01*
X46799333Y21830952D02*
X46751714Y21640476D01*
X46751714Y21640476D02*
X46704095Y21545238D01*
X46704095Y21545238D02*
X46608857Y21450000D01*
X46608857Y21450000D02*
X46466000Y21402380D01*
X46466000Y21402380D02*
X46227905Y21402380D01*
D10*
X34101919Y4199208D02*
X34372852Y3386408D01*
X34372852Y3386408D02*
X34643786Y4199208D01*
X34721196Y3308998D02*
X35340472Y3308998D01*
X35533995Y3386408D02*
X35533995Y3928274D01*
X35533995Y3773455D02*
X35572700Y3850865D01*
X35572700Y3850865D02*
X35611405Y3889570D01*
X35611405Y3889570D02*
X35688814Y3928274D01*
X35688814Y3928274D02*
X35766224Y3928274D01*
X36346795Y3425113D02*
X36269386Y3386408D01*
X36269386Y3386408D02*
X36114567Y3386408D01*
X36114567Y3386408D02*
X36037157Y3425113D01*
X36037157Y3425113D02*
X35998453Y3502522D01*
X35998453Y3502522D02*
X35998453Y3812160D01*
X35998453Y3812160D02*
X36037157Y3889570D01*
X36037157Y3889570D02*
X36114567Y3928274D01*
X36114567Y3928274D02*
X36269386Y3928274D01*
X36269386Y3928274D02*
X36346795Y3889570D01*
X36346795Y3889570D02*
X36385500Y3812160D01*
X36385500Y3812160D02*
X36385500Y3734751D01*
X36385500Y3734751D02*
X35998453Y3657341D01*
X36849958Y3386408D02*
X36772548Y3425113D01*
X36772548Y3425113D02*
X36733843Y3502522D01*
X36733843Y3502522D02*
X36733843Y4199208D01*
X37507938Y3386408D02*
X37507938Y3812160D01*
X37507938Y3812160D02*
X37469233Y3889570D01*
X37469233Y3889570D02*
X37391824Y3928274D01*
X37391824Y3928274D02*
X37237005Y3928274D01*
X37237005Y3928274D02*
X37159595Y3889570D01*
X37507938Y3425113D02*
X37430529Y3386408D01*
X37430529Y3386408D02*
X37237005Y3386408D01*
X37237005Y3386408D02*
X37159595Y3425113D01*
X37159595Y3425113D02*
X37120891Y3502522D01*
X37120891Y3502522D02*
X37120891Y3579932D01*
X37120891Y3579932D02*
X37159595Y3657341D01*
X37159595Y3657341D02*
X37237005Y3696046D01*
X37237005Y3696046D02*
X37430529Y3696046D01*
X37430529Y3696046D02*
X37507938Y3734751D01*
X37894985Y3386408D02*
X37894985Y3928274D01*
X37894985Y4199208D02*
X37856281Y4160503D01*
X37856281Y4160503D02*
X37894985Y4121798D01*
X37894985Y4121798D02*
X37933690Y4160503D01*
X37933690Y4160503D02*
X37894985Y4199208D01*
X37894985Y4199208D02*
X37894985Y4121798D01*
X38243329Y3425113D02*
X38320738Y3386408D01*
X38320738Y3386408D02*
X38475557Y3386408D01*
X38475557Y3386408D02*
X38552967Y3425113D01*
X38552967Y3425113D02*
X38591671Y3502522D01*
X38591671Y3502522D02*
X38591671Y3541227D01*
X38591671Y3541227D02*
X38552967Y3618636D01*
X38552967Y3618636D02*
X38475557Y3657341D01*
X38475557Y3657341D02*
X38359443Y3657341D01*
X38359443Y3657341D02*
X38282033Y3696046D01*
X38282033Y3696046D02*
X38243329Y3773455D01*
X38243329Y3773455D02*
X38243329Y3812160D01*
X38243329Y3812160D02*
X38282033Y3889570D01*
X38282033Y3889570D02*
X38359443Y3928274D01*
X38359443Y3928274D02*
X38475557Y3928274D01*
X38475557Y3928274D02*
X38552967Y3889570D01*
X21529525Y4129660D02*
X21645639Y4090955D01*
X21645639Y4090955D02*
X21684344Y4052251D01*
X21684344Y4052251D02*
X21723048Y3974841D01*
X21723048Y3974841D02*
X21723048Y3858727D01*
X21723048Y3858727D02*
X21684344Y3781317D01*
X21684344Y3781317D02*
X21645639Y3742613D01*
X21645639Y3742613D02*
X21568229Y3703908D01*
X21568229Y3703908D02*
X21258591Y3703908D01*
X21258591Y3703908D02*
X21258591Y4516708D01*
X21258591Y4516708D02*
X21529525Y4516708D01*
X21529525Y4516708D02*
X21606934Y4478003D01*
X21606934Y4478003D02*
X21645639Y4439298D01*
X21645639Y4439298D02*
X21684344Y4361889D01*
X21684344Y4361889D02*
X21684344Y4284479D01*
X21684344Y4284479D02*
X21645639Y4207070D01*
X21645639Y4207070D02*
X21606934Y4168365D01*
X21606934Y4168365D02*
X21529525Y4129660D01*
X21529525Y4129660D02*
X21258591Y4129660D01*
X22419734Y4245774D02*
X22419734Y3703908D01*
X22071391Y4245774D02*
X22071391Y3820022D01*
X22071391Y3820022D02*
X22110096Y3742613D01*
X22110096Y3742613D02*
X22187506Y3703908D01*
X22187506Y3703908D02*
X22303620Y3703908D01*
X22303620Y3703908D02*
X22381029Y3742613D01*
X22381029Y3742613D02*
X22419734Y3781317D01*
X22690667Y4245774D02*
X23000305Y4245774D01*
X22806781Y4516708D02*
X22806781Y3820022D01*
X22806781Y3820022D02*
X22845486Y3742613D01*
X22845486Y3742613D02*
X22922896Y3703908D01*
X22922896Y3703908D02*
X23000305Y3703908D01*
X23155124Y4245774D02*
X23464762Y4245774D01*
X23271238Y4516708D02*
X23271238Y3820022D01*
X23271238Y3820022D02*
X23309943Y3742613D01*
X23309943Y3742613D02*
X23387353Y3703908D01*
X23387353Y3703908D02*
X23464762Y3703908D01*
X23851810Y3703908D02*
X23774400Y3742613D01*
X23774400Y3742613D02*
X23735695Y3781317D01*
X23735695Y3781317D02*
X23696991Y3858727D01*
X23696991Y3858727D02*
X23696991Y4090955D01*
X23696991Y4090955D02*
X23735695Y4168365D01*
X23735695Y4168365D02*
X23774400Y4207070D01*
X23774400Y4207070D02*
X23851810Y4245774D01*
X23851810Y4245774D02*
X23967924Y4245774D01*
X23967924Y4245774D02*
X24045333Y4207070D01*
X24045333Y4207070D02*
X24084038Y4168365D01*
X24084038Y4168365D02*
X24122743Y4090955D01*
X24122743Y4090955D02*
X24122743Y3858727D01*
X24122743Y3858727D02*
X24084038Y3781317D01*
X24084038Y3781317D02*
X24045333Y3742613D01*
X24045333Y3742613D02*
X23967924Y3703908D01*
X23967924Y3703908D02*
X23851810Y3703908D01*
X24471085Y4245774D02*
X24471085Y3703908D01*
X24471085Y4168365D02*
X24509790Y4207070D01*
X24509790Y4207070D02*
X24587200Y4245774D01*
X24587200Y4245774D02*
X24703314Y4245774D01*
X24703314Y4245774D02*
X24780723Y4207070D01*
X24780723Y4207070D02*
X24819428Y4129660D01*
X24819428Y4129660D02*
X24819428Y3703908D01*
X25167771Y3742613D02*
X25245180Y3703908D01*
X25245180Y3703908D02*
X25399999Y3703908D01*
X25399999Y3703908D02*
X25477409Y3742613D01*
X25477409Y3742613D02*
X25516113Y3820022D01*
X25516113Y3820022D02*
X25516113Y3858727D01*
X25516113Y3858727D02*
X25477409Y3936136D01*
X25477409Y3936136D02*
X25399999Y3974841D01*
X25399999Y3974841D02*
X25283885Y3974841D01*
X25283885Y3974841D02*
X25206475Y4013546D01*
X25206475Y4013546D02*
X25167771Y4090955D01*
X25167771Y4090955D02*
X25167771Y4129660D01*
X25167771Y4129660D02*
X25206475Y4207070D01*
X25206475Y4207070D02*
X25283885Y4245774D01*
X25283885Y4245774D02*
X25399999Y4245774D01*
X25399999Y4245774D02*
X25477409Y4207070D01*
X901491Y42866266D02*
X1714291Y43137199D01*
X1714291Y43137199D02*
X901491Y43408133D01*
X1636882Y44143523D02*
X1675587Y44104819D01*
X1675587Y44104819D02*
X1714291Y43988704D01*
X1714291Y43988704D02*
X1714291Y43911295D01*
X1714291Y43911295D02*
X1675587Y43795181D01*
X1675587Y43795181D02*
X1598177Y43717771D01*
X1598177Y43717771D02*
X1520767Y43679066D01*
X1520767Y43679066D02*
X1365948Y43640362D01*
X1365948Y43640362D02*
X1249834Y43640362D01*
X1249834Y43640362D02*
X1095015Y43679066D01*
X1095015Y43679066D02*
X1017606Y43717771D01*
X1017606Y43717771D02*
X940196Y43795181D01*
X940196Y43795181D02*
X901491Y43911295D01*
X901491Y43911295D02*
X901491Y43988704D01*
X901491Y43988704D02*
X940196Y44104819D01*
X940196Y44104819D02*
X978901Y44143523D01*
X1636882Y44956323D02*
X1675587Y44917619D01*
X1675587Y44917619D02*
X1714291Y44801504D01*
X1714291Y44801504D02*
X1714291Y44724095D01*
X1714291Y44724095D02*
X1675587Y44607981D01*
X1675587Y44607981D02*
X1598177Y44530571D01*
X1598177Y44530571D02*
X1520767Y44491866D01*
X1520767Y44491866D02*
X1365948Y44453162D01*
X1365948Y44453162D02*
X1249834Y44453162D01*
X1249834Y44453162D02*
X1095015Y44491866D01*
X1095015Y44491866D02*
X1017606Y44530571D01*
X1017606Y44530571D02*
X940196Y44607981D01*
X940196Y44607981D02*
X901491Y44724095D01*
X901491Y44724095D02*
X901491Y44801504D01*
X901491Y44801504D02*
X940196Y44917619D01*
X940196Y44917619D02*
X978901Y44956323D01*
X5012266Y11882708D02*
X5283199Y11069908D01*
X5283199Y11069908D02*
X5554133Y11882708D01*
X6289523Y11147317D02*
X6250819Y11108613D01*
X6250819Y11108613D02*
X6134704Y11069908D01*
X6134704Y11069908D02*
X6057295Y11069908D01*
X6057295Y11069908D02*
X5941181Y11108613D01*
X5941181Y11108613D02*
X5863771Y11186022D01*
X5863771Y11186022D02*
X5825066Y11263432D01*
X5825066Y11263432D02*
X5786362Y11418251D01*
X5786362Y11418251D02*
X5786362Y11534365D01*
X5786362Y11534365D02*
X5825066Y11689184D01*
X5825066Y11689184D02*
X5863771Y11766593D01*
X5863771Y11766593D02*
X5941181Y11844003D01*
X5941181Y11844003D02*
X6057295Y11882708D01*
X6057295Y11882708D02*
X6134704Y11882708D01*
X6134704Y11882708D02*
X6250819Y11844003D01*
X6250819Y11844003D02*
X6289523Y11805298D01*
X7102323Y11147317D02*
X7063619Y11108613D01*
X7063619Y11108613D02*
X6947504Y11069908D01*
X6947504Y11069908D02*
X6870095Y11069908D01*
X6870095Y11069908D02*
X6753981Y11108613D01*
X6753981Y11108613D02*
X6676571Y11186022D01*
X6676571Y11186022D02*
X6637866Y11263432D01*
X6637866Y11263432D02*
X6599162Y11418251D01*
X6599162Y11418251D02*
X6599162Y11534365D01*
X6599162Y11534365D02*
X6637866Y11689184D01*
X6637866Y11689184D02*
X6676571Y11766593D01*
X6676571Y11766593D02*
X6753981Y11844003D01*
X6753981Y11844003D02*
X6870095Y11882708D01*
X6870095Y11882708D02*
X6947504Y11882708D01*
X6947504Y11882708D02*
X7063619Y11844003D01*
X7063619Y11844003D02*
X7102323Y11805298D01*
X4008361Y29921546D02*
X4627638Y29921546D01*
X4317999Y29611908D02*
X4317999Y30231184D01*
X43547695Y3500708D02*
X43160647Y3500708D01*
X43160647Y3500708D02*
X43160647Y4313508D01*
X43818628Y3926460D02*
X44089562Y3926460D01*
X44205676Y3500708D02*
X43818628Y3500708D01*
X43818628Y3500708D02*
X43818628Y4313508D01*
X43818628Y4313508D02*
X44205676Y4313508D01*
X44554018Y3500708D02*
X44554018Y4313508D01*
X44554018Y4313508D02*
X44747542Y4313508D01*
X44747542Y4313508D02*
X44863656Y4274803D01*
X44863656Y4274803D02*
X44941066Y4197393D01*
X44941066Y4197393D02*
X44979771Y4119984D01*
X44979771Y4119984D02*
X45018475Y3965165D01*
X45018475Y3965165D02*
X45018475Y3849051D01*
X45018475Y3849051D02*
X44979771Y3694232D01*
X44979771Y3694232D02*
X44941066Y3616822D01*
X44941066Y3616822D02*
X44863656Y3539413D01*
X44863656Y3539413D02*
X44747542Y3500708D01*
X44747542Y3500708D02*
X44554018Y3500708D01*
X45328114Y3539413D02*
X45405523Y3500708D01*
X45405523Y3500708D02*
X45560342Y3500708D01*
X45560342Y3500708D02*
X45637752Y3539413D01*
X45637752Y3539413D02*
X45676456Y3616822D01*
X45676456Y3616822D02*
X45676456Y3655527D01*
X45676456Y3655527D02*
X45637752Y3732936D01*
X45637752Y3732936D02*
X45560342Y3771641D01*
X45560342Y3771641D02*
X45444228Y3771641D01*
X45444228Y3771641D02*
X45366818Y3810346D01*
X45366818Y3810346D02*
X45328114Y3887755D01*
X45328114Y3887755D02*
X45328114Y3926460D01*
X45328114Y3926460D02*
X45366818Y4003870D01*
X45366818Y4003870D02*
X45444228Y4042574D01*
X45444228Y4042574D02*
X45560342Y4042574D01*
X45560342Y4042574D02*
X45637752Y4003870D01*
X84780361Y51003546D02*
X85399638Y51003546D01*
X7975996Y1420724D02*
X7937291Y1343314D01*
X7937291Y1343314D02*
X7937291Y1227200D01*
X7937291Y1227200D02*
X7975996Y1111086D01*
X7975996Y1111086D02*
X8053406Y1033676D01*
X8053406Y1033676D02*
X8130815Y994971D01*
X8130815Y994971D02*
X8285634Y956267D01*
X8285634Y956267D02*
X8401748Y956267D01*
X8401748Y956267D02*
X8556567Y994971D01*
X8556567Y994971D02*
X8633977Y1033676D01*
X8633977Y1033676D02*
X8711387Y1111086D01*
X8711387Y1111086D02*
X8750091Y1227200D01*
X8750091Y1227200D02*
X8750091Y1304609D01*
X8750091Y1304609D02*
X8711387Y1420724D01*
X8711387Y1420724D02*
X8672682Y1459428D01*
X8672682Y1459428D02*
X8401748Y1459428D01*
X8401748Y1459428D02*
X8401748Y1304609D01*
X8750091Y1807771D02*
X7937291Y1807771D01*
X7937291Y1807771D02*
X8750091Y2272228D01*
X8750091Y2272228D02*
X7937291Y2272228D01*
X8750091Y2659276D02*
X7937291Y2659276D01*
X7937291Y2659276D02*
X7937291Y2852800D01*
X7937291Y2852800D02*
X7975996Y2968914D01*
X7975996Y2968914D02*
X8053406Y3046324D01*
X8053406Y3046324D02*
X8130815Y3085029D01*
X8130815Y3085029D02*
X8285634Y3123733D01*
X8285634Y3123733D02*
X8401748Y3123733D01*
X8401748Y3123733D02*
X8556567Y3085029D01*
X8556567Y3085029D02*
X8633977Y3046324D01*
X8633977Y3046324D02*
X8711387Y2968914D01*
X8711387Y2968914D02*
X8750091Y2852800D01*
X8750091Y2852800D02*
X8750091Y2659276D01*
X5215863Y47264095D02*
X5215863Y47651142D01*
X5448091Y47186685D02*
X4635291Y47457618D01*
X4635291Y47457618D02*
X5448091Y47728552D01*
X5409387Y48347828D02*
X5448091Y48270419D01*
X5448091Y48270419D02*
X5448091Y48115600D01*
X5448091Y48115600D02*
X5409387Y48038190D01*
X5409387Y48038190D02*
X5370682Y47999485D01*
X5370682Y47999485D02*
X5293272Y47960781D01*
X5293272Y47960781D02*
X5061044Y47960781D01*
X5061044Y47960781D02*
X4983634Y47999485D01*
X4983634Y47999485D02*
X4944929Y48038190D01*
X4944929Y48038190D02*
X4906225Y48115600D01*
X4906225Y48115600D02*
X4906225Y48270419D01*
X4906225Y48270419D02*
X4944929Y48347828D01*
X5409387Y49044514D02*
X5448091Y48967105D01*
X5448091Y48967105D02*
X5448091Y48812286D01*
X5448091Y48812286D02*
X5409387Y48734876D01*
X5409387Y48734876D02*
X5370682Y48696171D01*
X5370682Y48696171D02*
X5293272Y48657467D01*
X5293272Y48657467D02*
X5061044Y48657467D01*
X5061044Y48657467D02*
X4983634Y48696171D01*
X4983634Y48696171D02*
X4944929Y48734876D01*
X4944929Y48734876D02*
X4906225Y48812286D01*
X4906225Y48812286D02*
X4906225Y48967105D01*
X4906225Y48967105D02*
X4944929Y49044514D01*
X4906225Y49741200D02*
X5448091Y49741200D01*
X4906225Y49392857D02*
X5331977Y49392857D01*
X5331977Y49392857D02*
X5409387Y49431562D01*
X5409387Y49431562D02*
X5448091Y49508972D01*
X5448091Y49508972D02*
X5448091Y49625086D01*
X5448091Y49625086D02*
X5409387Y49702495D01*
X5409387Y49702495D02*
X5370682Y49741200D01*
X2235200Y26309908D02*
X1964267Y26696955D01*
X1770743Y26309908D02*
X1770743Y27122708D01*
X1770743Y27122708D02*
X2080381Y27122708D01*
X2080381Y27122708D02*
X2157791Y27084003D01*
X2157791Y27084003D02*
X2196496Y27045298D01*
X2196496Y27045298D02*
X2235200Y26967889D01*
X2235200Y26967889D02*
X2235200Y26851774D01*
X2235200Y26851774D02*
X2196496Y26774365D01*
X2196496Y26774365D02*
X2157791Y26735660D01*
X2157791Y26735660D02*
X2080381Y26696955D01*
X2080381Y26696955D02*
X1770743Y26696955D01*
X2544839Y26348613D02*
X2660953Y26309908D01*
X2660953Y26309908D02*
X2854477Y26309908D01*
X2854477Y26309908D02*
X2931886Y26348613D01*
X2931886Y26348613D02*
X2970591Y26387317D01*
X2970591Y26387317D02*
X3009296Y26464727D01*
X3009296Y26464727D02*
X3009296Y26542136D01*
X3009296Y26542136D02*
X2970591Y26619546D01*
X2970591Y26619546D02*
X2931886Y26658251D01*
X2931886Y26658251D02*
X2854477Y26696955D01*
X2854477Y26696955D02*
X2699658Y26735660D01*
X2699658Y26735660D02*
X2622248Y26774365D01*
X2622248Y26774365D02*
X2583543Y26813070D01*
X2583543Y26813070D02*
X2544839Y26890479D01*
X2544839Y26890479D02*
X2544839Y26967889D01*
X2544839Y26967889D02*
X2583543Y27045298D01*
X2583543Y27045298D02*
X2622248Y27084003D01*
X2622248Y27084003D02*
X2699658Y27122708D01*
X2699658Y27122708D02*
X2893181Y27122708D01*
X2893181Y27122708D02*
X3009296Y27084003D01*
X3357638Y26735660D02*
X3628572Y26735660D01*
X3744686Y26309908D02*
X3357638Y26309908D01*
X3357638Y26309908D02*
X3357638Y27122708D01*
X3357638Y27122708D02*
X3744686Y27122708D01*
X3976914Y27122708D02*
X4441371Y27122708D01*
X4209143Y26309908D02*
X4209143Y27122708D01*
X84780361Y44653546D02*
X85399638Y44653546D01*
X85089999Y44343908D02*
X85089999Y44963184D01*
X5702091Y14512610D02*
X4889291Y14512610D01*
X5663387Y14860954D02*
X5702091Y14977068D01*
X5702091Y14977068D02*
X5702091Y15170592D01*
X5702091Y15170592D02*
X5663387Y15248001D01*
X5663387Y15248001D02*
X5624682Y15286706D01*
X5624682Y15286706D02*
X5547272Y15325411D01*
X5547272Y15325411D02*
X5469863Y15325411D01*
X5469863Y15325411D02*
X5392453Y15286706D01*
X5392453Y15286706D02*
X5353748Y15248001D01*
X5353748Y15248001D02*
X5315044Y15170592D01*
X5315044Y15170592D02*
X5276339Y15015773D01*
X5276339Y15015773D02*
X5237634Y14938363D01*
X5237634Y14938363D02*
X5198929Y14899658D01*
X5198929Y14899658D02*
X5121520Y14860954D01*
X5121520Y14860954D02*
X5044110Y14860954D01*
X5044110Y14860954D02*
X4966701Y14899658D01*
X4966701Y14899658D02*
X4927996Y14938363D01*
X4927996Y14938363D02*
X4889291Y15015773D01*
X4889291Y15015773D02*
X4889291Y15209296D01*
X4889291Y15209296D02*
X4927996Y15325411D01*
X5702091Y15673753D02*
X4889291Y15673753D01*
X4889291Y15673753D02*
X4889291Y15983391D01*
X4889291Y15983391D02*
X4927996Y16060801D01*
X4927996Y16060801D02*
X4966701Y16099506D01*
X4966701Y16099506D02*
X5044110Y16138210D01*
X5044110Y16138210D02*
X5160225Y16138210D01*
X5160225Y16138210D02*
X5237634Y16099506D01*
X5237634Y16099506D02*
X5276339Y16060801D01*
X5276339Y16060801D02*
X5315044Y15983391D01*
X5315044Y15983391D02*
X5315044Y15673753D01*
X5702091Y17105829D02*
X4889291Y17105829D01*
X4889291Y17105829D02*
X4889291Y17415467D01*
X4889291Y17415467D02*
X4927996Y17492877D01*
X4927996Y17492877D02*
X4966701Y17531582D01*
X4966701Y17531582D02*
X5044110Y17570286D01*
X5044110Y17570286D02*
X5160225Y17570286D01*
X5160225Y17570286D02*
X5237634Y17531582D01*
X5237634Y17531582D02*
X5276339Y17492877D01*
X5276339Y17492877D02*
X5315044Y17415467D01*
X5315044Y17415467D02*
X5315044Y17105829D01*
X5702091Y17918629D02*
X5160225Y17918629D01*
X5315044Y17918629D02*
X5237634Y17957334D01*
X5237634Y17957334D02*
X5198929Y17996039D01*
X5198929Y17996039D02*
X5160225Y18073448D01*
X5160225Y18073448D02*
X5160225Y18150858D01*
X5702091Y18537906D02*
X5663387Y18460496D01*
X5663387Y18460496D02*
X5624682Y18421791D01*
X5624682Y18421791D02*
X5547272Y18383087D01*
X5547272Y18383087D02*
X5315044Y18383087D01*
X5315044Y18383087D02*
X5237634Y18421791D01*
X5237634Y18421791D02*
X5198929Y18460496D01*
X5198929Y18460496D02*
X5160225Y18537906D01*
X5160225Y18537906D02*
X5160225Y18654020D01*
X5160225Y18654020D02*
X5198929Y18731429D01*
X5198929Y18731429D02*
X5237634Y18770134D01*
X5237634Y18770134D02*
X5315044Y18808839D01*
X5315044Y18808839D02*
X5547272Y18808839D01*
X5547272Y18808839D02*
X5624682Y18770134D01*
X5624682Y18770134D02*
X5663387Y18731429D01*
X5663387Y18731429D02*
X5702091Y18654020D01*
X5702091Y18654020D02*
X5702091Y18537906D01*
X5160225Y19505524D02*
X5818206Y19505524D01*
X5818206Y19505524D02*
X5895615Y19466819D01*
X5895615Y19466819D02*
X5934320Y19428115D01*
X5934320Y19428115D02*
X5973025Y19350705D01*
X5973025Y19350705D02*
X5973025Y19234591D01*
X5973025Y19234591D02*
X5934320Y19157181D01*
X5663387Y19505524D02*
X5702091Y19428115D01*
X5702091Y19428115D02*
X5702091Y19273296D01*
X5702091Y19273296D02*
X5663387Y19195886D01*
X5663387Y19195886D02*
X5624682Y19157181D01*
X5624682Y19157181D02*
X5547272Y19118477D01*
X5547272Y19118477D02*
X5315044Y19118477D01*
X5315044Y19118477D02*
X5237634Y19157181D01*
X5237634Y19157181D02*
X5198929Y19195886D01*
X5198929Y19195886D02*
X5160225Y19273296D01*
X5160225Y19273296D02*
X5160225Y19428115D01*
X5160225Y19428115D02*
X5198929Y19505524D01*
X5702091Y19892571D02*
X5160225Y19892571D01*
X5315044Y19892571D02*
X5237634Y19931276D01*
X5237634Y19931276D02*
X5198929Y19969981D01*
X5198929Y19969981D02*
X5160225Y20047390D01*
X5160225Y20047390D02*
X5160225Y20124800D01*
X5702091Y20744076D02*
X5276339Y20744076D01*
X5276339Y20744076D02*
X5198929Y20705371D01*
X5198929Y20705371D02*
X5160225Y20627962D01*
X5160225Y20627962D02*
X5160225Y20473143D01*
X5160225Y20473143D02*
X5198929Y20395733D01*
X5663387Y20744076D02*
X5702091Y20666667D01*
X5702091Y20666667D02*
X5702091Y20473143D01*
X5702091Y20473143D02*
X5663387Y20395733D01*
X5663387Y20395733D02*
X5585977Y20357029D01*
X5585977Y20357029D02*
X5508567Y20357029D01*
X5508567Y20357029D02*
X5431158Y20395733D01*
X5431158Y20395733D02*
X5392453Y20473143D01*
X5392453Y20473143D02*
X5392453Y20666667D01*
X5392453Y20666667D02*
X5353748Y20744076D01*
X5702091Y21131123D02*
X5160225Y21131123D01*
X5237634Y21131123D02*
X5198929Y21169828D01*
X5198929Y21169828D02*
X5160225Y21247238D01*
X5160225Y21247238D02*
X5160225Y21363352D01*
X5160225Y21363352D02*
X5198929Y21440761D01*
X5198929Y21440761D02*
X5276339Y21479466D01*
X5276339Y21479466D02*
X5702091Y21479466D01*
X5276339Y21479466D02*
X5198929Y21518171D01*
X5198929Y21518171D02*
X5160225Y21595580D01*
X5160225Y21595580D02*
X5160225Y21711695D01*
X5160225Y21711695D02*
X5198929Y21789104D01*
X5198929Y21789104D02*
X5276339Y21827809D01*
X5276339Y21827809D02*
X5702091Y21827809D01*
X5702091Y22214856D02*
X5160225Y22214856D01*
X5237634Y22214856D02*
X5198929Y22253561D01*
X5198929Y22253561D02*
X5160225Y22330971D01*
X5160225Y22330971D02*
X5160225Y22447085D01*
X5160225Y22447085D02*
X5198929Y22524494D01*
X5198929Y22524494D02*
X5276339Y22563199D01*
X5276339Y22563199D02*
X5702091Y22563199D01*
X5276339Y22563199D02*
X5198929Y22601904D01*
X5198929Y22601904D02*
X5160225Y22679313D01*
X5160225Y22679313D02*
X5160225Y22795428D01*
X5160225Y22795428D02*
X5198929Y22872837D01*
X5198929Y22872837D02*
X5276339Y22911542D01*
X5276339Y22911542D02*
X5702091Y22911542D01*
X5663387Y23608227D02*
X5702091Y23530818D01*
X5702091Y23530818D02*
X5702091Y23375999D01*
X5702091Y23375999D02*
X5663387Y23298589D01*
X5663387Y23298589D02*
X5585977Y23259885D01*
X5585977Y23259885D02*
X5276339Y23259885D01*
X5276339Y23259885D02*
X5198929Y23298589D01*
X5198929Y23298589D02*
X5160225Y23375999D01*
X5160225Y23375999D02*
X5160225Y23530818D01*
X5160225Y23530818D02*
X5198929Y23608227D01*
X5198929Y23608227D02*
X5276339Y23646932D01*
X5276339Y23646932D02*
X5353748Y23646932D01*
X5353748Y23646932D02*
X5431158Y23259885D01*
X5702091Y23995275D02*
X5160225Y23995275D01*
X5315044Y23995275D02*
X5237634Y24033980D01*
X5237634Y24033980D02*
X5198929Y24072685D01*
X5198929Y24072685D02*
X5160225Y24150094D01*
X5160225Y24150094D02*
X5160225Y24227504D01*
X64724038Y3957908D02*
X64453105Y4344955D01*
X64259581Y3957908D02*
X64259581Y4770708D01*
X64259581Y4770708D02*
X64569219Y4770708D01*
X64569219Y4770708D02*
X64646629Y4732003D01*
X64646629Y4732003D02*
X64685334Y4693298D01*
X64685334Y4693298D02*
X64724038Y4615889D01*
X64724038Y4615889D02*
X64724038Y4499774D01*
X64724038Y4499774D02*
X64685334Y4422365D01*
X64685334Y4422365D02*
X64646629Y4383660D01*
X64646629Y4383660D02*
X64569219Y4344955D01*
X64569219Y4344955D02*
X64259581Y4344955D01*
X65382019Y3996613D02*
X65304610Y3957908D01*
X65304610Y3957908D02*
X65149791Y3957908D01*
X65149791Y3957908D02*
X65072381Y3996613D01*
X65072381Y3996613D02*
X65033677Y4074022D01*
X65033677Y4074022D02*
X65033677Y4383660D01*
X65033677Y4383660D02*
X65072381Y4461070D01*
X65072381Y4461070D02*
X65149791Y4499774D01*
X65149791Y4499774D02*
X65304610Y4499774D01*
X65304610Y4499774D02*
X65382019Y4461070D01*
X65382019Y4461070D02*
X65420724Y4383660D01*
X65420724Y4383660D02*
X65420724Y4306251D01*
X65420724Y4306251D02*
X65033677Y4228841D01*
X65885182Y3957908D02*
X65807772Y3996613D01*
X65807772Y3996613D02*
X65769067Y4074022D01*
X65769067Y4074022D02*
X65769067Y4770708D01*
X66543162Y3957908D02*
X66543162Y4383660D01*
X66543162Y4383660D02*
X66504457Y4461070D01*
X66504457Y4461070D02*
X66427048Y4499774D01*
X66427048Y4499774D02*
X66272229Y4499774D01*
X66272229Y4499774D02*
X66194819Y4461070D01*
X66543162Y3996613D02*
X66465753Y3957908D01*
X66465753Y3957908D02*
X66272229Y3957908D01*
X66272229Y3957908D02*
X66194819Y3996613D01*
X66194819Y3996613D02*
X66156115Y4074022D01*
X66156115Y4074022D02*
X66156115Y4151432D01*
X66156115Y4151432D02*
X66194819Y4228841D01*
X66194819Y4228841D02*
X66272229Y4267546D01*
X66272229Y4267546D02*
X66465753Y4267546D01*
X66465753Y4267546D02*
X66543162Y4306251D01*
X66852800Y4499774D02*
X67046324Y3957908D01*
X67239847Y4499774D02*
X67046324Y3957908D01*
X67046324Y3957908D02*
X66968914Y3764384D01*
X66968914Y3764384D02*
X66930209Y3725679D01*
X66930209Y3725679D02*
X66852800Y3686974D01*
X67510781Y3996613D02*
X67588190Y3957908D01*
X67588190Y3957908D02*
X67743009Y3957908D01*
X67743009Y3957908D02*
X67820419Y3996613D01*
X67820419Y3996613D02*
X67859123Y4074022D01*
X67859123Y4074022D02*
X67859123Y4112727D01*
X67859123Y4112727D02*
X67820419Y4190136D01*
X67820419Y4190136D02*
X67743009Y4228841D01*
X67743009Y4228841D02*
X67626895Y4228841D01*
X67626895Y4228841D02*
X67549485Y4267546D01*
X67549485Y4267546D02*
X67510781Y4344955D01*
X67510781Y4344955D02*
X67510781Y4383660D01*
X67510781Y4383660D02*
X67549485Y4461070D01*
X67549485Y4461070D02*
X67626895Y4499774D01*
X67626895Y4499774D02*
X67743009Y4499774D01*
X67743009Y4499774D02*
X67820419Y4461070D01*
X51387224Y4287503D02*
X51309814Y4326208D01*
X51309814Y4326208D02*
X51193700Y4326208D01*
X51193700Y4326208D02*
X51077586Y4287503D01*
X51077586Y4287503D02*
X51000176Y4210093D01*
X51000176Y4210093D02*
X50961471Y4132684D01*
X50961471Y4132684D02*
X50922767Y3977865D01*
X50922767Y3977865D02*
X50922767Y3861751D01*
X50922767Y3861751D02*
X50961471Y3706932D01*
X50961471Y3706932D02*
X51000176Y3629522D01*
X51000176Y3629522D02*
X51077586Y3552113D01*
X51077586Y3552113D02*
X51193700Y3513408D01*
X51193700Y3513408D02*
X51271109Y3513408D01*
X51271109Y3513408D02*
X51387224Y3552113D01*
X51387224Y3552113D02*
X51425928Y3590817D01*
X51425928Y3590817D02*
X51425928Y3861751D01*
X51425928Y3861751D02*
X51271109Y3861751D01*
X51774271Y3513408D02*
X51774271Y4326208D01*
X51774271Y4326208D02*
X52238728Y3513408D01*
X52238728Y3513408D02*
X52238728Y4326208D01*
X52625776Y3513408D02*
X52625776Y4326208D01*
X52625776Y4326208D02*
X52819300Y4326208D01*
X52819300Y4326208D02*
X52935414Y4287503D01*
X52935414Y4287503D02*
X53012824Y4210093D01*
X53012824Y4210093D02*
X53051529Y4132684D01*
X53051529Y4132684D02*
X53090233Y3977865D01*
X53090233Y3977865D02*
X53090233Y3861751D01*
X53090233Y3861751D02*
X53051529Y3706932D01*
X53051529Y3706932D02*
X53012824Y3629522D01*
X53012824Y3629522D02*
X52935414Y3552113D01*
X52935414Y3552113D02*
X52819300Y3513408D01*
X52819300Y3513408D02*
X52625776Y3513408D01*
X858761Y49073146D02*
X1478038Y49073146D01*
X79891863Y51836095D02*
X79891863Y52223142D01*
X80124091Y51758685D02*
X79311291Y52029618D01*
X79311291Y52029618D02*
X80124091Y52300552D01*
X80085387Y52919828D02*
X80124091Y52842419D01*
X80124091Y52842419D02*
X80124091Y52687600D01*
X80124091Y52687600D02*
X80085387Y52610190D01*
X80085387Y52610190D02*
X80046682Y52571485D01*
X80046682Y52571485D02*
X79969272Y52532781D01*
X79969272Y52532781D02*
X79737044Y52532781D01*
X79737044Y52532781D02*
X79659634Y52571485D01*
X79659634Y52571485D02*
X79620929Y52610190D01*
X79620929Y52610190D02*
X79582225Y52687600D01*
X79582225Y52687600D02*
X79582225Y52842419D01*
X79582225Y52842419D02*
X79620929Y52919828D01*
X80085387Y53616514D02*
X80124091Y53539105D01*
X80124091Y53539105D02*
X80124091Y53384286D01*
X80124091Y53384286D02*
X80085387Y53306876D01*
X80085387Y53306876D02*
X80046682Y53268171D01*
X80046682Y53268171D02*
X79969272Y53229467D01*
X79969272Y53229467D02*
X79737044Y53229467D01*
X79737044Y53229467D02*
X79659634Y53268171D01*
X79659634Y53268171D02*
X79620929Y53306876D01*
X79620929Y53306876D02*
X79582225Y53384286D01*
X79582225Y53384286D02*
X79582225Y53539105D01*
X79582225Y53539105D02*
X79620929Y53616514D01*
X79582225Y54313200D02*
X80124091Y54313200D01*
X79582225Y53964857D02*
X80007977Y53964857D01*
X80007977Y53964857D02*
X80085387Y54003562D01*
X80085387Y54003562D02*
X80124091Y54080972D01*
X80124091Y54080972D02*
X80124091Y54197086D01*
X80124091Y54197086D02*
X80085387Y54274495D01*
X80085387Y54274495D02*
X80046682Y54313200D01*
X7937291Y3750266D02*
X8750091Y4021199D01*
X8750091Y4021199D02*
X7937291Y4292133D01*
X8672682Y5027523D02*
X8711387Y4988819D01*
X8711387Y4988819D02*
X8750091Y4872704D01*
X8750091Y4872704D02*
X8750091Y4795295D01*
X8750091Y4795295D02*
X8711387Y4679181D01*
X8711387Y4679181D02*
X8633977Y4601771D01*
X8633977Y4601771D02*
X8556567Y4563066D01*
X8556567Y4563066D02*
X8401748Y4524362D01*
X8401748Y4524362D02*
X8285634Y4524362D01*
X8285634Y4524362D02*
X8130815Y4563066D01*
X8130815Y4563066D02*
X8053406Y4601771D01*
X8053406Y4601771D02*
X7975996Y4679181D01*
X7975996Y4679181D02*
X7937291Y4795295D01*
X7937291Y4795295D02*
X7937291Y4872704D01*
X7937291Y4872704D02*
X7975996Y4988819D01*
X7975996Y4988819D02*
X8014701Y5027523D01*
X8672682Y5840323D02*
X8711387Y5801619D01*
X8711387Y5801619D02*
X8750091Y5685504D01*
X8750091Y5685504D02*
X8750091Y5608095D01*
X8750091Y5608095D02*
X8711387Y5491981D01*
X8711387Y5491981D02*
X8633977Y5414571D01*
X8633977Y5414571D02*
X8556567Y5375866D01*
X8556567Y5375866D02*
X8401748Y5337162D01*
X8401748Y5337162D02*
X8285634Y5337162D01*
X8285634Y5337162D02*
X8130815Y5375866D01*
X8130815Y5375866D02*
X8053406Y5414571D01*
X8053406Y5414571D02*
X7975996Y5491981D01*
X7975996Y5491981D02*
X7937291Y5608095D01*
X7937291Y5608095D02*
X7937291Y5685504D01*
X7937291Y5685504D02*
X7975996Y5801619D01*
X7975996Y5801619D02*
X8014701Y5840323D01*
X14260682Y5334743D02*
X14299387Y5296039D01*
X14299387Y5296039D02*
X14338091Y5179924D01*
X14338091Y5179924D02*
X14338091Y5102515D01*
X14338091Y5102515D02*
X14299387Y4986401D01*
X14299387Y4986401D02*
X14221977Y4908991D01*
X14221977Y4908991D02*
X14144567Y4870286D01*
X14144567Y4870286D02*
X13989748Y4831582D01*
X13989748Y4831582D02*
X13873634Y4831582D01*
X13873634Y4831582D02*
X13718815Y4870286D01*
X13718815Y4870286D02*
X13641406Y4908991D01*
X13641406Y4908991D02*
X13563996Y4986401D01*
X13563996Y4986401D02*
X13525291Y5102515D01*
X13525291Y5102515D02*
X13525291Y5179924D01*
X13525291Y5179924D02*
X13563996Y5296039D01*
X13563996Y5296039D02*
X13602701Y5334743D01*
X14338091Y5799201D02*
X14299387Y5721791D01*
X14299387Y5721791D02*
X14260682Y5683086D01*
X14260682Y5683086D02*
X14183272Y5644382D01*
X14183272Y5644382D02*
X13951044Y5644382D01*
X13951044Y5644382D02*
X13873634Y5683086D01*
X13873634Y5683086D02*
X13834929Y5721791D01*
X13834929Y5721791D02*
X13796225Y5799201D01*
X13796225Y5799201D02*
X13796225Y5915315D01*
X13796225Y5915315D02*
X13834929Y5992724D01*
X13834929Y5992724D02*
X13873634Y6031429D01*
X13873634Y6031429D02*
X13951044Y6070134D01*
X13951044Y6070134D02*
X14183272Y6070134D01*
X14183272Y6070134D02*
X14260682Y6031429D01*
X14260682Y6031429D02*
X14299387Y5992724D01*
X14299387Y5992724D02*
X14338091Y5915315D01*
X14338091Y5915315D02*
X14338091Y5799201D01*
X13796225Y6418476D02*
X14338091Y6418476D01*
X13873634Y6418476D02*
X13834929Y6457181D01*
X13834929Y6457181D02*
X13796225Y6534591D01*
X13796225Y6534591D02*
X13796225Y6650705D01*
X13796225Y6650705D02*
X13834929Y6728114D01*
X13834929Y6728114D02*
X13912339Y6766819D01*
X13912339Y6766819D02*
X14338091Y6766819D01*
X13796225Y7037752D02*
X13796225Y7347390D01*
X14338091Y7153866D02*
X13641406Y7153866D01*
X13641406Y7153866D02*
X13563996Y7192571D01*
X13563996Y7192571D02*
X13525291Y7269981D01*
X13525291Y7269981D02*
X13525291Y7347390D01*
X14338091Y7618323D02*
X13796225Y7618323D01*
X13525291Y7618323D02*
X13563996Y7579619D01*
X13563996Y7579619D02*
X13602701Y7618323D01*
X13602701Y7618323D02*
X13563996Y7657028D01*
X13563996Y7657028D02*
X13525291Y7618323D01*
X13525291Y7618323D02*
X13602701Y7618323D01*
X13796225Y8353714D02*
X14454206Y8353714D01*
X14454206Y8353714D02*
X14531615Y8315009D01*
X14531615Y8315009D02*
X14570320Y8276305D01*
X14570320Y8276305D02*
X14609025Y8198895D01*
X14609025Y8198895D02*
X14609025Y8082781D01*
X14609025Y8082781D02*
X14570320Y8005371D01*
X14299387Y8353714D02*
X14338091Y8276305D01*
X14338091Y8276305D02*
X14338091Y8121486D01*
X14338091Y8121486D02*
X14299387Y8044076D01*
X14299387Y8044076D02*
X14260682Y8005371D01*
X14260682Y8005371D02*
X14183272Y7966667D01*
X14183272Y7966667D02*
X13951044Y7966667D01*
X13951044Y7966667D02*
X13873634Y8005371D01*
X13873634Y8005371D02*
X13834929Y8044076D01*
X13834929Y8044076D02*
X13796225Y8121486D01*
X13796225Y8121486D02*
X13796225Y8276305D01*
X13796225Y8276305D02*
X13834929Y8353714D01*
X26530091Y5351675D02*
X26143044Y5080742D01*
X26530091Y4887218D02*
X25717291Y4887218D01*
X25717291Y4887218D02*
X25717291Y5196856D01*
X25717291Y5196856D02*
X25755996Y5274266D01*
X25755996Y5274266D02*
X25794701Y5312971D01*
X25794701Y5312971D02*
X25872110Y5351675D01*
X25872110Y5351675D02*
X25988225Y5351675D01*
X25988225Y5351675D02*
X26065634Y5312971D01*
X26065634Y5312971D02*
X26104339Y5274266D01*
X26104339Y5274266D02*
X26143044Y5196856D01*
X26143044Y5196856D02*
X26143044Y4887218D01*
X26491387Y6009656D02*
X26530091Y5932247D01*
X26530091Y5932247D02*
X26530091Y5777428D01*
X26530091Y5777428D02*
X26491387Y5700018D01*
X26491387Y5700018D02*
X26413977Y5661314D01*
X26413977Y5661314D02*
X26104339Y5661314D01*
X26104339Y5661314D02*
X26026929Y5700018D01*
X26026929Y5700018D02*
X25988225Y5777428D01*
X25988225Y5777428D02*
X25988225Y5932247D01*
X25988225Y5932247D02*
X26026929Y6009656D01*
X26026929Y6009656D02*
X26104339Y6048361D01*
X26104339Y6048361D02*
X26181748Y6048361D01*
X26181748Y6048361D02*
X26259158Y5661314D01*
X26491387Y6358000D02*
X26530091Y6435409D01*
X26530091Y6435409D02*
X26530091Y6590228D01*
X26530091Y6590228D02*
X26491387Y6667638D01*
X26491387Y6667638D02*
X26413977Y6706342D01*
X26413977Y6706342D02*
X26375272Y6706342D01*
X26375272Y6706342D02*
X26297863Y6667638D01*
X26297863Y6667638D02*
X26259158Y6590228D01*
X26259158Y6590228D02*
X26259158Y6474114D01*
X26259158Y6474114D02*
X26220453Y6396704D01*
X26220453Y6396704D02*
X26143044Y6358000D01*
X26143044Y6358000D02*
X26104339Y6358000D01*
X26104339Y6358000D02*
X26026929Y6396704D01*
X26026929Y6396704D02*
X25988225Y6474114D01*
X25988225Y6474114D02*
X25988225Y6590228D01*
X25988225Y6590228D02*
X26026929Y6667638D01*
X26491387Y7364323D02*
X26530091Y7286914D01*
X26530091Y7286914D02*
X26530091Y7132095D01*
X26530091Y7132095D02*
X26491387Y7054685D01*
X26491387Y7054685D02*
X26413977Y7015981D01*
X26413977Y7015981D02*
X26104339Y7015981D01*
X26104339Y7015981D02*
X26026929Y7054685D01*
X26026929Y7054685D02*
X25988225Y7132095D01*
X25988225Y7132095D02*
X25988225Y7286914D01*
X25988225Y7286914D02*
X26026929Y7364323D01*
X26026929Y7364323D02*
X26104339Y7403028D01*
X26104339Y7403028D02*
X26181748Y7403028D01*
X26181748Y7403028D02*
X26259158Y7015981D01*
X25988225Y7635257D02*
X25988225Y7944895D01*
X25717291Y7751371D02*
X26413977Y7751371D01*
X26413977Y7751371D02*
X26491387Y7790076D01*
X26491387Y7790076D02*
X26530091Y7867486D01*
X26530091Y7867486D02*
X26530091Y7944895D01*
X84780361Y47447546D02*
X85399638Y47447546D01*
X84780361Y53797546D02*
X85399638Y53797546D01*
X85089999Y53487908D02*
X85089999Y54107184D01*
X15966924Y4376403D02*
X15889514Y4415108D01*
X15889514Y4415108D02*
X15773400Y4415108D01*
X15773400Y4415108D02*
X15657286Y4376403D01*
X15657286Y4376403D02*
X15579876Y4298993D01*
X15579876Y4298993D02*
X15541171Y4221584D01*
X15541171Y4221584D02*
X15502467Y4066765D01*
X15502467Y4066765D02*
X15502467Y3950651D01*
X15502467Y3950651D02*
X15541171Y3795832D01*
X15541171Y3795832D02*
X15579876Y3718422D01*
X15579876Y3718422D02*
X15657286Y3641013D01*
X15657286Y3641013D02*
X15773400Y3602308D01*
X15773400Y3602308D02*
X15850809Y3602308D01*
X15850809Y3602308D02*
X15966924Y3641013D01*
X15966924Y3641013D02*
X16005628Y3679717D01*
X16005628Y3679717D02*
X16005628Y3950651D01*
X16005628Y3950651D02*
X15850809Y3950651D01*
X16353971Y3602308D02*
X16353971Y4415108D01*
X16353971Y4415108D02*
X16818428Y3602308D01*
X16818428Y3602308D02*
X16818428Y4415108D01*
X17205476Y3602308D02*
X17205476Y4415108D01*
X17205476Y4415108D02*
X17399000Y4415108D01*
X17399000Y4415108D02*
X17515114Y4376403D01*
X17515114Y4376403D02*
X17592524Y4298993D01*
X17592524Y4298993D02*
X17631229Y4221584D01*
X17631229Y4221584D02*
X17669933Y4066765D01*
X17669933Y4066765D02*
X17669933Y3950651D01*
X17669933Y3950651D02*
X17631229Y3795832D01*
X17631229Y3795832D02*
X17592524Y3718422D01*
X17592524Y3718422D02*
X17515114Y3641013D01*
X17515114Y3641013D02*
X17399000Y3602308D01*
X17399000Y3602308D02*
X17205476Y3602308D01*
X79565291Y44958743D02*
X79565291Y44571695D01*
X79565291Y44571695D02*
X79952339Y44532991D01*
X79952339Y44532991D02*
X79913634Y44571695D01*
X79913634Y44571695D02*
X79874929Y44649105D01*
X79874929Y44649105D02*
X79874929Y44842629D01*
X79874929Y44842629D02*
X79913634Y44920038D01*
X79913634Y44920038D02*
X79952339Y44958743D01*
X79952339Y44958743D02*
X80029748Y44997448D01*
X80029748Y44997448D02*
X80223272Y44997448D01*
X80223272Y44997448D02*
X80300682Y44958743D01*
X80300682Y44958743D02*
X80339387Y44920038D01*
X80339387Y44920038D02*
X80378091Y44842629D01*
X80378091Y44842629D02*
X80378091Y44649105D01*
X80378091Y44649105D02*
X80339387Y44571695D01*
X80339387Y44571695D02*
X80300682Y44532991D01*
X79565291Y45229676D02*
X80378091Y45500609D01*
X80378091Y45500609D02*
X79565291Y45771543D01*
X80378091Y46661752D02*
X79565291Y46661752D01*
X79565291Y46661752D02*
X79565291Y46855276D01*
X79565291Y46855276D02*
X79603996Y46971390D01*
X79603996Y46971390D02*
X79681406Y47048800D01*
X79681406Y47048800D02*
X79758815Y47087505D01*
X79758815Y47087505D02*
X79913634Y47126209D01*
X79913634Y47126209D02*
X80029748Y47126209D01*
X80029748Y47126209D02*
X80184567Y47087505D01*
X80184567Y47087505D02*
X80261977Y47048800D01*
X80261977Y47048800D02*
X80339387Y46971390D01*
X80339387Y46971390D02*
X80378091Y46855276D01*
X80378091Y46855276D02*
X80378091Y46661752D01*
X80300682Y47939009D02*
X80339387Y47900305D01*
X80339387Y47900305D02*
X80378091Y47784190D01*
X80378091Y47784190D02*
X80378091Y47706781D01*
X80378091Y47706781D02*
X80339387Y47590667D01*
X80339387Y47590667D02*
X80261977Y47513257D01*
X80261977Y47513257D02*
X80184567Y47474552D01*
X80184567Y47474552D02*
X80029748Y47435848D01*
X80029748Y47435848D02*
X79913634Y47435848D01*
X79913634Y47435848D02*
X79758815Y47474552D01*
X79758815Y47474552D02*
X79681406Y47513257D01*
X79681406Y47513257D02*
X79603996Y47590667D01*
X79603996Y47590667D02*
X79565291Y47706781D01*
X79565291Y47706781D02*
X79565291Y47784190D01*
X79565291Y47784190D02*
X79603996Y47900305D01*
X79603996Y47900305D02*
X79642701Y47939009D01*
D11*
X44132667Y19862380D02*
X44466000Y18862380D01*
X44466000Y18862380D02*
X44799333Y19862380D01*
X45704095Y18957619D02*
X45656476Y18910000D01*
X45656476Y18910000D02*
X45513619Y18862380D01*
X45513619Y18862380D02*
X45418381Y18862380D01*
X45418381Y18862380D02*
X45275524Y18910000D01*
X45275524Y18910000D02*
X45180286Y19005238D01*
X45180286Y19005238D02*
X45132667Y19100476D01*
X45132667Y19100476D02*
X45085048Y19290952D01*
X45085048Y19290952D02*
X45085048Y19433809D01*
X45085048Y19433809D02*
X45132667Y19624285D01*
X45132667Y19624285D02*
X45180286Y19719523D01*
X45180286Y19719523D02*
X45275524Y19814761D01*
X45275524Y19814761D02*
X45418381Y19862380D01*
X45418381Y19862380D02*
X45513619Y19862380D01*
X45513619Y19862380D02*
X45656476Y19814761D01*
X45656476Y19814761D02*
X45704095Y19767142D01*
X46704095Y18957619D02*
X46656476Y18910000D01*
X46656476Y18910000D02*
X46513619Y18862380D01*
X46513619Y18862380D02*
X46418381Y18862380D01*
X46418381Y18862380D02*
X46275524Y18910000D01*
X46275524Y18910000D02*
X46180286Y19005238D01*
X46180286Y19005238D02*
X46132667Y19100476D01*
X46132667Y19100476D02*
X46085048Y19290952D01*
X46085048Y19290952D02*
X46085048Y19433809D01*
X46085048Y19433809D02*
X46132667Y19624285D01*
X46132667Y19624285D02*
X46180286Y19719523D01*
X46180286Y19719523D02*
X46275524Y19814761D01*
X46275524Y19814761D02*
X46418381Y19862380D01*
X46418381Y19862380D02*
X46513619Y19862380D01*
X46513619Y19862380D02*
X46656476Y19814761D01*
X46656476Y19814761D02*
X46704095Y19767142D01*
D10*
X833361Y46609346D02*
X1452638Y46609346D01*
X1142999Y46299708D02*
X1142999Y46918984D01*
D12*
X60698095Y28695180D02*
X60698095Y29695180D01*
X61269523Y28695180D02*
X60840952Y29266609D01*
X61269523Y29695180D02*
X60698095Y29123752D01*
X72966295Y11008580D02*
X72966295Y12008580D01*
X73537723Y11008580D02*
X73109152Y11580009D01*
X73537723Y12008580D02*
X72966295Y11437152D01*
X72991695Y5496780D02*
X72991695Y6496780D01*
X73563123Y5496780D02*
X73134552Y6068209D01*
X73563123Y6496780D02*
X72991695Y5925352D01*
X37724819Y52578095D02*
X36724819Y52578095D01*
X37724819Y53149523D02*
X37153390Y52720952D01*
X36724819Y53149523D02*
X37296247Y52578095D01*
X70120713Y19165180D02*
X69787380Y19641371D01*
X69549285Y19165180D02*
X69549285Y20165180D01*
X69549285Y20165180D02*
X69930237Y20165180D01*
X69930237Y20165180D02*
X70025475Y20117561D01*
X70025475Y20117561D02*
X70073094Y20069942D01*
X70073094Y20069942D02*
X70120713Y19974704D01*
X70120713Y19974704D02*
X70120713Y19831847D01*
X70120713Y19831847D02*
X70073094Y19736609D01*
X70073094Y19736609D02*
X70025475Y19688990D01*
X70025475Y19688990D02*
X69930237Y19641371D01*
X69930237Y19641371D02*
X69549285Y19641371D01*
X70882618Y19688990D02*
X70549285Y19688990D01*
X70549285Y19165180D02*
X70549285Y20165180D01*
X70549285Y20165180D02*
X71025475Y20165180D01*
X72025476Y20165180D02*
X72596904Y20165180D01*
X72311190Y19165180D02*
X72311190Y20165180D01*
X72930238Y19165180D02*
X72930238Y19831847D01*
X72930238Y19641371D02*
X72977857Y19736609D01*
X72977857Y19736609D02*
X73025476Y19784228D01*
X73025476Y19784228D02*
X73120714Y19831847D01*
X73120714Y19831847D02*
X73215952Y19831847D01*
X73977857Y19165180D02*
X73977857Y19688990D01*
X73977857Y19688990D02*
X73930238Y19784228D01*
X73930238Y19784228D02*
X73835000Y19831847D01*
X73835000Y19831847D02*
X73644524Y19831847D01*
X73644524Y19831847D02*
X73549286Y19784228D01*
X73977857Y19212800D02*
X73882619Y19165180D01*
X73882619Y19165180D02*
X73644524Y19165180D01*
X73644524Y19165180D02*
X73549286Y19212800D01*
X73549286Y19212800D02*
X73501667Y19308038D01*
X73501667Y19308038D02*
X73501667Y19403276D01*
X73501667Y19403276D02*
X73549286Y19498514D01*
X73549286Y19498514D02*
X73644524Y19546133D01*
X73644524Y19546133D02*
X73882619Y19546133D01*
X73882619Y19546133D02*
X73977857Y19593752D01*
X74454048Y19831847D02*
X74454048Y19165180D01*
X74454048Y19736609D02*
X74501667Y19784228D01*
X74501667Y19784228D02*
X74596905Y19831847D01*
X74596905Y19831847D02*
X74739762Y19831847D01*
X74739762Y19831847D02*
X74835000Y19784228D01*
X74835000Y19784228D02*
X74882619Y19688990D01*
X74882619Y19688990D02*
X74882619Y19165180D01*
X75311191Y19212800D02*
X75406429Y19165180D01*
X75406429Y19165180D02*
X75596905Y19165180D01*
X75596905Y19165180D02*
X75692143Y19212800D01*
X75692143Y19212800D02*
X75739762Y19308038D01*
X75739762Y19308038D02*
X75739762Y19355657D01*
X75739762Y19355657D02*
X75692143Y19450895D01*
X75692143Y19450895D02*
X75596905Y19498514D01*
X75596905Y19498514D02*
X75454048Y19498514D01*
X75454048Y19498514D02*
X75358810Y19546133D01*
X75358810Y19546133D02*
X75311191Y19641371D01*
X75311191Y19641371D02*
X75311191Y19688990D01*
X75311191Y19688990D02*
X75358810Y19784228D01*
X75358810Y19784228D02*
X75454048Y19831847D01*
X75454048Y19831847D02*
X75596905Y19831847D01*
X75596905Y19831847D02*
X75692143Y19784228D01*
X76596905Y19212800D02*
X76501667Y19165180D01*
X76501667Y19165180D02*
X76311191Y19165180D01*
X76311191Y19165180D02*
X76215953Y19212800D01*
X76215953Y19212800D02*
X76168334Y19260419D01*
X76168334Y19260419D02*
X76120715Y19355657D01*
X76120715Y19355657D02*
X76120715Y19641371D01*
X76120715Y19641371D02*
X76168334Y19736609D01*
X76168334Y19736609D02*
X76215953Y19784228D01*
X76215953Y19784228D02*
X76311191Y19831847D01*
X76311191Y19831847D02*
X76501667Y19831847D01*
X76501667Y19831847D02*
X76596905Y19784228D01*
X77406429Y19212800D02*
X77311191Y19165180D01*
X77311191Y19165180D02*
X77120715Y19165180D01*
X77120715Y19165180D02*
X77025477Y19212800D01*
X77025477Y19212800D02*
X76977858Y19308038D01*
X76977858Y19308038D02*
X76977858Y19688990D01*
X76977858Y19688990D02*
X77025477Y19784228D01*
X77025477Y19784228D02*
X77120715Y19831847D01*
X77120715Y19831847D02*
X77311191Y19831847D01*
X77311191Y19831847D02*
X77406429Y19784228D01*
X77406429Y19784228D02*
X77454048Y19688990D01*
X77454048Y19688990D02*
X77454048Y19593752D01*
X77454048Y19593752D02*
X76977858Y19498514D01*
X77882620Y19165180D02*
X77882620Y19831847D01*
X77882620Y20165180D02*
X77835001Y20117561D01*
X77835001Y20117561D02*
X77882620Y20069942D01*
X77882620Y20069942D02*
X77930239Y20117561D01*
X77930239Y20117561D02*
X77882620Y20165180D01*
X77882620Y20165180D02*
X77882620Y20069942D01*
X78263572Y19831847D02*
X78501667Y19165180D01*
X78501667Y19165180D02*
X78739762Y19831847D01*
X79501667Y19212800D02*
X79406429Y19165180D01*
X79406429Y19165180D02*
X79215953Y19165180D01*
X79215953Y19165180D02*
X79120715Y19212800D01*
X79120715Y19212800D02*
X79073096Y19308038D01*
X79073096Y19308038D02*
X79073096Y19688990D01*
X79073096Y19688990D02*
X79120715Y19784228D01*
X79120715Y19784228D02*
X79215953Y19831847D01*
X79215953Y19831847D02*
X79406429Y19831847D01*
X79406429Y19831847D02*
X79501667Y19784228D01*
X79501667Y19784228D02*
X79549286Y19688990D01*
X79549286Y19688990D02*
X79549286Y19593752D01*
X79549286Y19593752D02*
X79073096Y19498514D01*
X79977858Y19165180D02*
X79977858Y19831847D01*
X79977858Y19641371D02*
X80025477Y19736609D01*
X80025477Y19736609D02*
X80073096Y19784228D01*
X80073096Y19784228D02*
X80168334Y19831847D01*
X80168334Y19831847D02*
X80263572Y19831847D01*
X71787381Y21586609D02*
X71692143Y21634228D01*
X71692143Y21634228D02*
X71644524Y21681847D01*
X71644524Y21681847D02*
X71596905Y21777085D01*
X71596905Y21777085D02*
X71596905Y21824704D01*
X71596905Y21824704D02*
X71644524Y21919942D01*
X71644524Y21919942D02*
X71692143Y21967561D01*
X71692143Y21967561D02*
X71787381Y22015180D01*
X71787381Y22015180D02*
X71977857Y22015180D01*
X71977857Y22015180D02*
X72073095Y21967561D01*
X72073095Y21967561D02*
X72120714Y21919942D01*
X72120714Y21919942D02*
X72168333Y21824704D01*
X72168333Y21824704D02*
X72168333Y21777085D01*
X72168333Y21777085D02*
X72120714Y21681847D01*
X72120714Y21681847D02*
X72073095Y21634228D01*
X72073095Y21634228D02*
X71977857Y21586609D01*
X71977857Y21586609D02*
X71787381Y21586609D01*
X71787381Y21586609D02*
X71692143Y21538990D01*
X71692143Y21538990D02*
X71644524Y21491371D01*
X71644524Y21491371D02*
X71596905Y21396133D01*
X71596905Y21396133D02*
X71596905Y21205657D01*
X71596905Y21205657D02*
X71644524Y21110419D01*
X71644524Y21110419D02*
X71692143Y21062800D01*
X71692143Y21062800D02*
X71787381Y21015180D01*
X71787381Y21015180D02*
X71977857Y21015180D01*
X71977857Y21015180D02*
X72073095Y21062800D01*
X72073095Y21062800D02*
X72120714Y21110419D01*
X72120714Y21110419D02*
X72168333Y21205657D01*
X72168333Y21205657D02*
X72168333Y21396133D01*
X72168333Y21396133D02*
X72120714Y21491371D01*
X72120714Y21491371D02*
X72073095Y21538990D01*
X72073095Y21538990D02*
X71977857Y21586609D01*
X73025476Y22015180D02*
X72835000Y22015180D01*
X72835000Y22015180D02*
X72739762Y21967561D01*
X72739762Y21967561D02*
X72692143Y21919942D01*
X72692143Y21919942D02*
X72596905Y21777085D01*
X72596905Y21777085D02*
X72549286Y21586609D01*
X72549286Y21586609D02*
X72549286Y21205657D01*
X72549286Y21205657D02*
X72596905Y21110419D01*
X72596905Y21110419D02*
X72644524Y21062800D01*
X72644524Y21062800D02*
X72739762Y21015180D01*
X72739762Y21015180D02*
X72930238Y21015180D01*
X72930238Y21015180D02*
X73025476Y21062800D01*
X73025476Y21062800D02*
X73073095Y21110419D01*
X73073095Y21110419D02*
X73120714Y21205657D01*
X73120714Y21205657D02*
X73120714Y21443752D01*
X73120714Y21443752D02*
X73073095Y21538990D01*
X73073095Y21538990D02*
X73025476Y21586609D01*
X73025476Y21586609D02*
X72930238Y21634228D01*
X72930238Y21634228D02*
X72739762Y21634228D01*
X72739762Y21634228D02*
X72644524Y21586609D01*
X72644524Y21586609D02*
X72596905Y21538990D01*
X72596905Y21538990D02*
X72549286Y21443752D01*
X73692143Y21586609D02*
X73596905Y21634228D01*
X73596905Y21634228D02*
X73549286Y21681847D01*
X73549286Y21681847D02*
X73501667Y21777085D01*
X73501667Y21777085D02*
X73501667Y21824704D01*
X73501667Y21824704D02*
X73549286Y21919942D01*
X73549286Y21919942D02*
X73596905Y21967561D01*
X73596905Y21967561D02*
X73692143Y22015180D01*
X73692143Y22015180D02*
X73882619Y22015180D01*
X73882619Y22015180D02*
X73977857Y21967561D01*
X73977857Y21967561D02*
X74025476Y21919942D01*
X74025476Y21919942D02*
X74073095Y21824704D01*
X74073095Y21824704D02*
X74073095Y21777085D01*
X74073095Y21777085D02*
X74025476Y21681847D01*
X74025476Y21681847D02*
X73977857Y21634228D01*
X73977857Y21634228D02*
X73882619Y21586609D01*
X73882619Y21586609D02*
X73692143Y21586609D01*
X73692143Y21586609D02*
X73596905Y21538990D01*
X73596905Y21538990D02*
X73549286Y21491371D01*
X73549286Y21491371D02*
X73501667Y21396133D01*
X73501667Y21396133D02*
X73501667Y21205657D01*
X73501667Y21205657D02*
X73549286Y21110419D01*
X73549286Y21110419D02*
X73596905Y21062800D01*
X73596905Y21062800D02*
X73692143Y21015180D01*
X73692143Y21015180D02*
X73882619Y21015180D01*
X73882619Y21015180D02*
X73977857Y21062800D01*
X73977857Y21062800D02*
X74025476Y21110419D01*
X74025476Y21110419D02*
X74073095Y21205657D01*
X74073095Y21205657D02*
X74073095Y21396133D01*
X74073095Y21396133D02*
X74025476Y21491371D01*
X74025476Y21491371D02*
X73977857Y21538990D01*
X73977857Y21538990D02*
X73882619Y21586609D01*
X74501667Y21015180D02*
X74501667Y22015180D01*
X74501667Y22015180D02*
X74835000Y21300895D01*
X74835000Y21300895D02*
X75168333Y22015180D01*
X75168333Y22015180D02*
X75168333Y21015180D01*
X75644524Y21015180D02*
X75644524Y22015180D01*
X75644524Y21538990D02*
X76215952Y21538990D01*
X76215952Y21015180D02*
X76215952Y22015180D01*
X76596905Y21681847D02*
X77120714Y21681847D01*
X77120714Y21681847D02*
X76596905Y21015180D01*
X76596905Y21015180D02*
X77120714Y21015180D01*
X72339761Y23010419D02*
X72292142Y22962800D01*
X72292142Y22962800D02*
X72149285Y22915180D01*
X72149285Y22915180D02*
X72054047Y22915180D01*
X72054047Y22915180D02*
X71911190Y22962800D01*
X71911190Y22962800D02*
X71815952Y23058038D01*
X71815952Y23058038D02*
X71768333Y23153276D01*
X71768333Y23153276D02*
X71720714Y23343752D01*
X71720714Y23343752D02*
X71720714Y23486609D01*
X71720714Y23486609D02*
X71768333Y23677085D01*
X71768333Y23677085D02*
X71815952Y23772323D01*
X71815952Y23772323D02*
X71911190Y23867561D01*
X71911190Y23867561D02*
X72054047Y23915180D01*
X72054047Y23915180D02*
X72149285Y23915180D01*
X72149285Y23915180D02*
X72292142Y23867561D01*
X72292142Y23867561D02*
X72339761Y23819942D01*
X73339761Y23010419D02*
X73292142Y22962800D01*
X73292142Y22962800D02*
X73149285Y22915180D01*
X73149285Y22915180D02*
X73054047Y22915180D01*
X73054047Y22915180D02*
X72911190Y22962800D01*
X72911190Y22962800D02*
X72815952Y23058038D01*
X72815952Y23058038D02*
X72768333Y23153276D01*
X72768333Y23153276D02*
X72720714Y23343752D01*
X72720714Y23343752D02*
X72720714Y23486609D01*
X72720714Y23486609D02*
X72768333Y23677085D01*
X72768333Y23677085D02*
X72815952Y23772323D01*
X72815952Y23772323D02*
X72911190Y23867561D01*
X72911190Y23867561D02*
X73054047Y23915180D01*
X73054047Y23915180D02*
X73149285Y23915180D01*
X73149285Y23915180D02*
X73292142Y23867561D01*
X73292142Y23867561D02*
X73339761Y23819942D01*
X74292142Y22915180D02*
X73720714Y22915180D01*
X74006428Y22915180D02*
X74006428Y23915180D01*
X74006428Y23915180D02*
X73911190Y23772323D01*
X73911190Y23772323D02*
X73815952Y23677085D01*
X73815952Y23677085D02*
X73720714Y23629466D01*
X75244523Y22915180D02*
X74673095Y22915180D01*
X74958809Y22915180D02*
X74958809Y23915180D01*
X74958809Y23915180D02*
X74863571Y23772323D01*
X74863571Y23772323D02*
X74768333Y23677085D01*
X74768333Y23677085D02*
X74673095Y23629466D01*
X75863571Y23915180D02*
X75958809Y23915180D01*
X75958809Y23915180D02*
X76054047Y23867561D01*
X76054047Y23867561D02*
X76101666Y23819942D01*
X76101666Y23819942D02*
X76149285Y23724704D01*
X76149285Y23724704D02*
X76196904Y23534228D01*
X76196904Y23534228D02*
X76196904Y23296133D01*
X76196904Y23296133D02*
X76149285Y23105657D01*
X76149285Y23105657D02*
X76101666Y23010419D01*
X76101666Y23010419D02*
X76054047Y22962800D01*
X76054047Y22962800D02*
X75958809Y22915180D01*
X75958809Y22915180D02*
X75863571Y22915180D01*
X75863571Y22915180D02*
X75768333Y22962800D01*
X75768333Y22962800D02*
X75720714Y23010419D01*
X75720714Y23010419D02*
X75673095Y23105657D01*
X75673095Y23105657D02*
X75625476Y23296133D01*
X75625476Y23296133D02*
X75625476Y23534228D01*
X75625476Y23534228D02*
X75673095Y23724704D01*
X75673095Y23724704D02*
X75720714Y23819942D01*
X75720714Y23819942D02*
X75768333Y23867561D01*
X75768333Y23867561D02*
X75863571Y23915180D01*
X77149285Y22915180D02*
X76577857Y22915180D01*
X76863571Y22915180D02*
X76863571Y23915180D01*
X76863571Y23915180D02*
X76768333Y23772323D01*
X76768333Y23772323D02*
X76673095Y23677085D01*
X76673095Y23677085D02*
X76577857Y23629466D01*
X12457143Y23360228D02*
X12257143Y23645942D01*
X12114286Y23360228D02*
X12114286Y23960228D01*
X12114286Y23960228D02*
X12342857Y23960228D01*
X12342857Y23960228D02*
X12400000Y23931657D01*
X12400000Y23931657D02*
X12428571Y23903085D01*
X12428571Y23903085D02*
X12457143Y23845942D01*
X12457143Y23845942D02*
X12457143Y23760228D01*
X12457143Y23760228D02*
X12428571Y23703085D01*
X12428571Y23703085D02*
X12400000Y23674514D01*
X12400000Y23674514D02*
X12342857Y23645942D01*
X12342857Y23645942D02*
X12114286Y23645942D01*
X12657143Y23960228D02*
X13057143Y23360228D01*
X13057143Y23960228D02*
X12657143Y23360228D01*
X13285715Y23360228D02*
X13285715Y23960228D01*
X21058952Y19142895D02*
X21535142Y19142895D01*
X20963714Y18857180D02*
X21297047Y19857180D01*
X21297047Y19857180D02*
X21630380Y18857180D01*
X21963714Y18857180D02*
X21963714Y19523847D01*
X21963714Y19333371D02*
X22011333Y19428609D01*
X22011333Y19428609D02*
X22058952Y19476228D01*
X22058952Y19476228D02*
X22154190Y19523847D01*
X22154190Y19523847D02*
X22249428Y19523847D01*
X23011333Y18857180D02*
X23011333Y19857180D01*
X23011333Y18904800D02*
X22916095Y18857180D01*
X22916095Y18857180D02*
X22725619Y18857180D01*
X22725619Y18857180D02*
X22630381Y18904800D01*
X22630381Y18904800D02*
X22582762Y18952419D01*
X22582762Y18952419D02*
X22535143Y19047657D01*
X22535143Y19047657D02*
X22535143Y19333371D01*
X22535143Y19333371D02*
X22582762Y19428609D01*
X22582762Y19428609D02*
X22630381Y19476228D01*
X22630381Y19476228D02*
X22725619Y19523847D01*
X22725619Y19523847D02*
X22916095Y19523847D01*
X22916095Y19523847D02*
X23011333Y19476228D01*
X23916095Y19523847D02*
X23916095Y18857180D01*
X23487524Y19523847D02*
X23487524Y19000038D01*
X23487524Y19000038D02*
X23535143Y18904800D01*
X23535143Y18904800D02*
X23630381Y18857180D01*
X23630381Y18857180D02*
X23773238Y18857180D01*
X23773238Y18857180D02*
X23868476Y18904800D01*
X23868476Y18904800D02*
X23916095Y18952419D01*
X24392286Y18857180D02*
X24392286Y19523847D01*
X24392286Y19857180D02*
X24344667Y19809561D01*
X24344667Y19809561D02*
X24392286Y19761942D01*
X24392286Y19761942D02*
X24439905Y19809561D01*
X24439905Y19809561D02*
X24392286Y19857180D01*
X24392286Y19857180D02*
X24392286Y19761942D01*
X24868476Y19523847D02*
X24868476Y18857180D01*
X24868476Y19428609D02*
X24916095Y19476228D01*
X24916095Y19476228D02*
X25011333Y19523847D01*
X25011333Y19523847D02*
X25154190Y19523847D01*
X25154190Y19523847D02*
X25249428Y19476228D01*
X25249428Y19476228D02*
X25297047Y19380990D01*
X25297047Y19380990D02*
X25297047Y18857180D01*
X25916095Y18857180D02*
X25820857Y18904800D01*
X25820857Y18904800D02*
X25773238Y18952419D01*
X25773238Y18952419D02*
X25725619Y19047657D01*
X25725619Y19047657D02*
X25725619Y19333371D01*
X25725619Y19333371D02*
X25773238Y19428609D01*
X25773238Y19428609D02*
X25820857Y19476228D01*
X25820857Y19476228D02*
X25916095Y19523847D01*
X25916095Y19523847D02*
X26058952Y19523847D01*
X26058952Y19523847D02*
X26154190Y19476228D01*
X26154190Y19476228D02*
X26201809Y19428609D01*
X26201809Y19428609D02*
X26249428Y19333371D01*
X26249428Y19333371D02*
X26249428Y19047657D01*
X26249428Y19047657D02*
X26201809Y18952419D01*
X26201809Y18952419D02*
X26154190Y18904800D01*
X26154190Y18904800D02*
X26058952Y18857180D01*
X26058952Y18857180D02*
X25916095Y18857180D01*
X27439905Y18857180D02*
X27439905Y19857180D01*
X27439905Y19857180D02*
X27820857Y19857180D01*
X27820857Y19857180D02*
X27916095Y19809561D01*
X27916095Y19809561D02*
X27963714Y19761942D01*
X27963714Y19761942D02*
X28011333Y19666704D01*
X28011333Y19666704D02*
X28011333Y19523847D01*
X28011333Y19523847D02*
X27963714Y19428609D01*
X27963714Y19428609D02*
X27916095Y19380990D01*
X27916095Y19380990D02*
X27820857Y19333371D01*
X27820857Y19333371D02*
X27439905Y19333371D01*
X28439905Y18857180D02*
X28439905Y19523847D01*
X28439905Y19333371D02*
X28487524Y19428609D01*
X28487524Y19428609D02*
X28535143Y19476228D01*
X28535143Y19476228D02*
X28630381Y19523847D01*
X28630381Y19523847D02*
X28725619Y19523847D01*
X29201810Y18857180D02*
X29106572Y18904800D01*
X29106572Y18904800D02*
X29058953Y18952419D01*
X29058953Y18952419D02*
X29011334Y19047657D01*
X29011334Y19047657D02*
X29011334Y19333371D01*
X29011334Y19333371D02*
X29058953Y19428609D01*
X29058953Y19428609D02*
X29106572Y19476228D01*
X29106572Y19476228D02*
X29201810Y19523847D01*
X29201810Y19523847D02*
X29344667Y19523847D01*
X29344667Y19523847D02*
X29439905Y19476228D01*
X29439905Y19476228D02*
X29487524Y19428609D01*
X29487524Y19428609D02*
X29535143Y19333371D01*
X29535143Y19333371D02*
X29535143Y19047657D01*
X29535143Y19047657D02*
X29487524Y18952419D01*
X29487524Y18952419D02*
X29439905Y18904800D01*
X29439905Y18904800D02*
X29344667Y18857180D01*
X29344667Y18857180D02*
X29201810Y18857180D01*
X30725620Y18857180D02*
X30725620Y19857180D01*
X30725620Y19857180D02*
X31058953Y19142895D01*
X31058953Y19142895D02*
X31392286Y19857180D01*
X31392286Y19857180D02*
X31392286Y18857180D01*
X31868477Y18857180D02*
X31868477Y19523847D01*
X31868477Y19857180D02*
X31820858Y19809561D01*
X31820858Y19809561D02*
X31868477Y19761942D01*
X31868477Y19761942D02*
X31916096Y19809561D01*
X31916096Y19809561D02*
X31868477Y19857180D01*
X31868477Y19857180D02*
X31868477Y19761942D01*
X32344667Y19523847D02*
X32344667Y18857180D01*
X32344667Y19428609D02*
X32392286Y19476228D01*
X32392286Y19476228D02*
X32487524Y19523847D01*
X32487524Y19523847D02*
X32630381Y19523847D01*
X32630381Y19523847D02*
X32725619Y19476228D01*
X32725619Y19476228D02*
X32773238Y19380990D01*
X32773238Y19380990D02*
X32773238Y18857180D01*
X33249429Y18857180D02*
X33249429Y19523847D01*
X33249429Y19857180D02*
X33201810Y19809561D01*
X33201810Y19809561D02*
X33249429Y19761942D01*
X33249429Y19761942D02*
X33297048Y19809561D01*
X33297048Y19809561D02*
X33249429Y19857180D01*
X33249429Y19857180D02*
X33249429Y19761942D01*
X12242857Y29011657D02*
X12185715Y29040228D01*
X12185715Y29040228D02*
X12100000Y29040228D01*
X12100000Y29040228D02*
X12014286Y29011657D01*
X12014286Y29011657D02*
X11957143Y28954514D01*
X11957143Y28954514D02*
X11928572Y28897371D01*
X11928572Y28897371D02*
X11900000Y28783085D01*
X11900000Y28783085D02*
X11900000Y28697371D01*
X11900000Y28697371D02*
X11928572Y28583085D01*
X11928572Y28583085D02*
X11957143Y28525942D01*
X11957143Y28525942D02*
X12014286Y28468800D01*
X12014286Y28468800D02*
X12100000Y28440228D01*
X12100000Y28440228D02*
X12157143Y28440228D01*
X12157143Y28440228D02*
X12242857Y28468800D01*
X12242857Y28468800D02*
X12271429Y28497371D01*
X12271429Y28497371D02*
X12271429Y28697371D01*
X12271429Y28697371D02*
X12157143Y28697371D01*
X12528572Y28440228D02*
X12528572Y29040228D01*
X12528572Y29040228D02*
X12871429Y28440228D01*
X12871429Y28440228D02*
X12871429Y29040228D01*
X13157143Y28440228D02*
X13157143Y29040228D01*
X13157143Y29040228D02*
X13300000Y29040228D01*
X13300000Y29040228D02*
X13385714Y29011657D01*
X13385714Y29011657D02*
X13442857Y28954514D01*
X13442857Y28954514D02*
X13471428Y28897371D01*
X13471428Y28897371D02*
X13500000Y28783085D01*
X13500000Y28783085D02*
X13500000Y28697371D01*
X13500000Y28697371D02*
X13471428Y28583085D01*
X13471428Y28583085D02*
X13442857Y28525942D01*
X13442857Y28525942D02*
X13385714Y28468800D01*
X13385714Y28468800D02*
X13300000Y28440228D01*
X13300000Y28440228D02*
X13157143Y28440228D01*
X11899999Y26500228D02*
X12099999Y25900228D01*
X12099999Y25900228D02*
X12299999Y26500228D01*
X12842857Y25957371D02*
X12814285Y25928800D01*
X12814285Y25928800D02*
X12728571Y25900228D01*
X12728571Y25900228D02*
X12671428Y25900228D01*
X12671428Y25900228D02*
X12585714Y25928800D01*
X12585714Y25928800D02*
X12528571Y25985942D01*
X12528571Y25985942D02*
X12500000Y26043085D01*
X12500000Y26043085D02*
X12471428Y26157371D01*
X12471428Y26157371D02*
X12471428Y26243085D01*
X12471428Y26243085D02*
X12500000Y26357371D01*
X12500000Y26357371D02*
X12528571Y26414514D01*
X12528571Y26414514D02*
X12585714Y26471657D01*
X12585714Y26471657D02*
X12671428Y26500228D01*
X12671428Y26500228D02*
X12728571Y26500228D01*
X12728571Y26500228D02*
X12814285Y26471657D01*
X12814285Y26471657D02*
X12842857Y26443085D01*
X13442857Y25957371D02*
X13414285Y25928800D01*
X13414285Y25928800D02*
X13328571Y25900228D01*
X13328571Y25900228D02*
X13271428Y25900228D01*
X13271428Y25900228D02*
X13185714Y25928800D01*
X13185714Y25928800D02*
X13128571Y25985942D01*
X13128571Y25985942D02*
X13100000Y26043085D01*
X13100000Y26043085D02*
X13071428Y26157371D01*
X13071428Y26157371D02*
X13071428Y26243085D01*
X13071428Y26243085D02*
X13100000Y26357371D01*
X13100000Y26357371D02*
X13128571Y26414514D01*
X13128571Y26414514D02*
X13185714Y26471657D01*
X13185714Y26471657D02*
X13271428Y26500228D01*
X13271428Y26500228D02*
X13328571Y26500228D01*
X13328571Y26500228D02*
X13414285Y26471657D01*
X13414285Y26471657D02*
X13442857Y26443085D01*
X12242857Y30916657D02*
X12185715Y30945228D01*
X12185715Y30945228D02*
X12100000Y30945228D01*
X12100000Y30945228D02*
X12014286Y30916657D01*
X12014286Y30916657D02*
X11957143Y30859514D01*
X11957143Y30859514D02*
X11928572Y30802371D01*
X11928572Y30802371D02*
X11900000Y30688085D01*
X11900000Y30688085D02*
X11900000Y30602371D01*
X11900000Y30602371D02*
X11928572Y30488085D01*
X11928572Y30488085D02*
X11957143Y30430942D01*
X11957143Y30430942D02*
X12014286Y30373800D01*
X12014286Y30373800D02*
X12100000Y30345228D01*
X12100000Y30345228D02*
X12157143Y30345228D01*
X12157143Y30345228D02*
X12242857Y30373800D01*
X12242857Y30373800D02*
X12271429Y30402371D01*
X12271429Y30402371D02*
X12271429Y30602371D01*
X12271429Y30602371D02*
X12157143Y30602371D01*
X12528572Y30345228D02*
X12528572Y30945228D01*
X12528572Y30945228D02*
X12871429Y30345228D01*
X12871429Y30345228D02*
X12871429Y30945228D01*
X13157143Y30345228D02*
X13157143Y30945228D01*
X13157143Y30945228D02*
X13300000Y30945228D01*
X13300000Y30945228D02*
X13385714Y30916657D01*
X13385714Y30916657D02*
X13442857Y30859514D01*
X13442857Y30859514D02*
X13471428Y30802371D01*
X13471428Y30802371D02*
X13500000Y30688085D01*
X13500000Y30688085D02*
X13500000Y30602371D01*
X13500000Y30602371D02*
X13471428Y30488085D01*
X13471428Y30488085D02*
X13442857Y30430942D01*
X13442857Y30430942D02*
X13385714Y30373800D01*
X13385714Y30373800D02*
X13300000Y30345228D01*
X13300000Y30345228D02*
X13157143Y30345228D01*
X11942856Y21420228D02*
X12285714Y21420228D01*
X12114285Y20820228D02*
X12114285Y21420228D01*
X12428571Y21420228D02*
X12828571Y20820228D01*
X12828571Y21420228D02*
X12428571Y20820228D01*
X13057143Y20820228D02*
X13057143Y21420228D01*
X13057143Y21420228D02*
X13200000Y21420228D01*
X13200000Y21420228D02*
X13285714Y21391657D01*
X13285714Y21391657D02*
X13342857Y21334514D01*
X13342857Y21334514D02*
X13371428Y21277371D01*
X13371428Y21277371D02*
X13400000Y21163085D01*
X13400000Y21163085D02*
X13400000Y21077371D01*
X13400000Y21077371D02*
X13371428Y20963085D01*
X13371428Y20963085D02*
X13342857Y20905942D01*
X13342857Y20905942D02*
X13285714Y20848800D01*
X13285714Y20848800D02*
X13200000Y20820228D01*
X13200000Y20820228D02*
X13057143Y20820228D01*
X12014286Y18915228D02*
X12014286Y19515228D01*
X12014286Y19515228D02*
X12157143Y19515228D01*
X12157143Y19515228D02*
X12242857Y19486657D01*
X12242857Y19486657D02*
X12300000Y19429514D01*
X12300000Y19429514D02*
X12328571Y19372371D01*
X12328571Y19372371D02*
X12357143Y19258085D01*
X12357143Y19258085D02*
X12357143Y19172371D01*
X12357143Y19172371D02*
X12328571Y19058085D01*
X12328571Y19058085D02*
X12300000Y19000942D01*
X12300000Y19000942D02*
X12242857Y18943800D01*
X12242857Y18943800D02*
X12157143Y18915228D01*
X12157143Y18915228D02*
X12014286Y18915228D01*
X12528571Y19515228D02*
X12871429Y19515228D01*
X12700000Y18915228D02*
X12700000Y19515228D01*
X13414286Y18915228D02*
X13214286Y19200942D01*
X13071429Y18915228D02*
X13071429Y19515228D01*
X13071429Y19515228D02*
X13300000Y19515228D01*
X13300000Y19515228D02*
X13357143Y19486657D01*
X13357143Y19486657D02*
X13385714Y19458085D01*
X13385714Y19458085D02*
X13414286Y19400942D01*
X13414286Y19400942D02*
X13414286Y19315228D01*
X13414286Y19315228D02*
X13385714Y19258085D01*
X13385714Y19258085D02*
X13357143Y19229514D01*
X13357143Y19229514D02*
X13300000Y19200942D01*
X13300000Y19200942D02*
X13071429Y19200942D01*
D10*
X50462428Y18810908D02*
X50462428Y19623708D01*
X50462428Y19236660D02*
X50926885Y19236660D01*
X50926885Y18810908D02*
X50926885Y19623708D01*
X51197819Y19623708D02*
X51468752Y18810908D01*
X51468752Y18810908D02*
X51739686Y19623708D01*
X55893190Y13730908D02*
X55506142Y13730908D01*
X55506142Y13730908D02*
X55506142Y14543708D01*
X56048009Y14543708D02*
X56318942Y13730908D01*
X56318942Y13730908D02*
X56589876Y14543708D01*
X57286562Y13730908D02*
X56822105Y13730908D01*
X57054333Y13730908D02*
X57054333Y14543708D01*
X57054333Y14543708D02*
X56976924Y14427593D01*
X56976924Y14427593D02*
X56899514Y14350184D01*
X56899514Y14350184D02*
X56822105Y14311479D01*
X55503724Y22125003D02*
X55426314Y22163708D01*
X55426314Y22163708D02*
X55310200Y22163708D01*
X55310200Y22163708D02*
X55194086Y22125003D01*
X55194086Y22125003D02*
X55116676Y22047593D01*
X55116676Y22047593D02*
X55077971Y21970184D01*
X55077971Y21970184D02*
X55039267Y21815365D01*
X55039267Y21815365D02*
X55039267Y21699251D01*
X55039267Y21699251D02*
X55077971Y21544432D01*
X55077971Y21544432D02*
X55116676Y21467022D01*
X55116676Y21467022D02*
X55194086Y21389613D01*
X55194086Y21389613D02*
X55310200Y21350908D01*
X55310200Y21350908D02*
X55387609Y21350908D01*
X55387609Y21350908D02*
X55503724Y21389613D01*
X55503724Y21389613D02*
X55542428Y21428317D01*
X55542428Y21428317D02*
X55542428Y21699251D01*
X55542428Y21699251D02*
X55387609Y21699251D01*
X55890771Y21350908D02*
X55890771Y22163708D01*
X55890771Y22163708D02*
X56355228Y21350908D01*
X56355228Y21350908D02*
X56355228Y22163708D01*
X56742276Y21350908D02*
X56742276Y22163708D01*
X56742276Y22163708D02*
X56935800Y22163708D01*
X56935800Y22163708D02*
X57051914Y22125003D01*
X57051914Y22125003D02*
X57129324Y22047593D01*
X57129324Y22047593D02*
X57168029Y21970184D01*
X57168029Y21970184D02*
X57206733Y21815365D01*
X57206733Y21815365D02*
X57206733Y21699251D01*
X57206733Y21699251D02*
X57168029Y21544432D01*
X57168029Y21544432D02*
X57129324Y21467022D01*
X57129324Y21467022D02*
X57051914Y21389613D01*
X57051914Y21389613D02*
X56935800Y21350908D01*
X56935800Y21350908D02*
X56742276Y21350908D01*
X55893190Y23890908D02*
X55506142Y23890908D01*
X55506142Y23890908D02*
X55506142Y24703708D01*
X56048009Y24703708D02*
X56318942Y23890908D01*
X56318942Y23890908D02*
X56589876Y24703708D01*
X56783400Y24703708D02*
X57286562Y24703708D01*
X57286562Y24703708D02*
X57015628Y24394070D01*
X57015628Y24394070D02*
X57131743Y24394070D01*
X57131743Y24394070D02*
X57209152Y24355365D01*
X57209152Y24355365D02*
X57247857Y24316660D01*
X57247857Y24316660D02*
X57286562Y24239251D01*
X57286562Y24239251D02*
X57286562Y24045727D01*
X57286562Y24045727D02*
X57247857Y23968317D01*
X57247857Y23968317D02*
X57209152Y23929613D01*
X57209152Y23929613D02*
X57131743Y23890908D01*
X57131743Y23890908D02*
X56899514Y23890908D01*
X56899514Y23890908D02*
X56822105Y23929613D01*
X56822105Y23929613D02*
X56783400Y23968317D01*
X56661238Y18810908D02*
X56274190Y18810908D01*
X56274190Y18810908D02*
X56274190Y19623708D01*
X56816057Y19623708D02*
X57086990Y18810908D01*
X57086990Y18810908D02*
X57357924Y19623708D01*
X50329380Y13730908D02*
X50329380Y14543708D01*
X50329380Y14156660D02*
X50793837Y14156660D01*
X50793837Y13730908D02*
X50793837Y14543708D01*
X51064771Y14543708D02*
X51335704Y13730908D01*
X51335704Y13730908D02*
X51606638Y14543708D01*
X52303324Y13730908D02*
X51838867Y13730908D01*
X52071095Y13730908D02*
X52071095Y14543708D01*
X52071095Y14543708D02*
X51993686Y14427593D01*
X51993686Y14427593D02*
X51916276Y14350184D01*
X51916276Y14350184D02*
X51838867Y14311479D01*
D12*
X54191819Y15010903D02*
X54144200Y14915665D01*
X54144200Y14915665D02*
X54048961Y14868046D01*
X54048961Y14868046D02*
X53191819Y14868046D01*
X54144200Y15772808D02*
X54191819Y15677570D01*
X54191819Y15677570D02*
X54191819Y15487094D01*
X54191819Y15487094D02*
X54144200Y15391856D01*
X54144200Y15391856D02*
X54048961Y15344237D01*
X54048961Y15344237D02*
X53668009Y15344237D01*
X53668009Y15344237D02*
X53572771Y15391856D01*
X53572771Y15391856D02*
X53525152Y15487094D01*
X53525152Y15487094D02*
X53525152Y15677570D01*
X53525152Y15677570D02*
X53572771Y15772808D01*
X53572771Y15772808D02*
X53668009Y15820427D01*
X53668009Y15820427D02*
X53763247Y15820427D01*
X53763247Y15820427D02*
X53858485Y15344237D01*
X53525152Y16153761D02*
X54191819Y16391856D01*
X54191819Y16391856D02*
X53525152Y16629951D01*
X54144200Y17391856D02*
X54191819Y17296618D01*
X54191819Y17296618D02*
X54191819Y17106142D01*
X54191819Y17106142D02*
X54144200Y17010904D01*
X54144200Y17010904D02*
X54048961Y16963285D01*
X54048961Y16963285D02*
X53668009Y16963285D01*
X53668009Y16963285D02*
X53572771Y17010904D01*
X53572771Y17010904D02*
X53525152Y17106142D01*
X53525152Y17106142D02*
X53525152Y17296618D01*
X53525152Y17296618D02*
X53572771Y17391856D01*
X53572771Y17391856D02*
X53668009Y17439475D01*
X53668009Y17439475D02*
X53763247Y17439475D01*
X53763247Y17439475D02*
X53858485Y16963285D01*
X54191819Y18010904D02*
X54144200Y17915666D01*
X54144200Y17915666D02*
X54048961Y17868047D01*
X54048961Y17868047D02*
X53191819Y17868047D01*
X54144200Y19582333D02*
X54191819Y19487095D01*
X54191819Y19487095D02*
X54191819Y19296619D01*
X54191819Y19296619D02*
X54144200Y19201381D01*
X54144200Y19201381D02*
X54096580Y19153762D01*
X54096580Y19153762D02*
X54001342Y19106143D01*
X54001342Y19106143D02*
X53715628Y19106143D01*
X53715628Y19106143D02*
X53620390Y19153762D01*
X53620390Y19153762D02*
X53572771Y19201381D01*
X53572771Y19201381D02*
X53525152Y19296619D01*
X53525152Y19296619D02*
X53525152Y19487095D01*
X53525152Y19487095D02*
X53572771Y19582333D01*
X54191819Y20153762D02*
X54144200Y20058524D01*
X54144200Y20058524D02*
X54096580Y20010905D01*
X54096580Y20010905D02*
X54001342Y19963286D01*
X54001342Y19963286D02*
X53715628Y19963286D01*
X53715628Y19963286D02*
X53620390Y20010905D01*
X53620390Y20010905D02*
X53572771Y20058524D01*
X53572771Y20058524D02*
X53525152Y20153762D01*
X53525152Y20153762D02*
X53525152Y20296619D01*
X53525152Y20296619D02*
X53572771Y20391857D01*
X53572771Y20391857D02*
X53620390Y20439476D01*
X53620390Y20439476D02*
X53715628Y20487095D01*
X53715628Y20487095D02*
X54001342Y20487095D01*
X54001342Y20487095D02*
X54096580Y20439476D01*
X54096580Y20439476D02*
X54144200Y20391857D01*
X54144200Y20391857D02*
X54191819Y20296619D01*
X54191819Y20296619D02*
X54191819Y20153762D01*
X53525152Y20915667D02*
X54191819Y20915667D01*
X53620390Y20915667D02*
X53572771Y20963286D01*
X53572771Y20963286D02*
X53525152Y21058524D01*
X53525152Y21058524D02*
X53525152Y21201381D01*
X53525152Y21201381D02*
X53572771Y21296619D01*
X53572771Y21296619D02*
X53668009Y21344238D01*
X53668009Y21344238D02*
X54191819Y21344238D01*
X53525152Y21725191D02*
X54191819Y21963286D01*
X54191819Y21963286D02*
X53525152Y22201381D01*
X54144200Y22963286D02*
X54191819Y22868048D01*
X54191819Y22868048D02*
X54191819Y22677572D01*
X54191819Y22677572D02*
X54144200Y22582334D01*
X54144200Y22582334D02*
X54048961Y22534715D01*
X54048961Y22534715D02*
X53668009Y22534715D01*
X53668009Y22534715D02*
X53572771Y22582334D01*
X53572771Y22582334D02*
X53525152Y22677572D01*
X53525152Y22677572D02*
X53525152Y22868048D01*
X53525152Y22868048D02*
X53572771Y22963286D01*
X53572771Y22963286D02*
X53668009Y23010905D01*
X53668009Y23010905D02*
X53763247Y23010905D01*
X53763247Y23010905D02*
X53858485Y22534715D01*
X54191819Y23439477D02*
X53525152Y23439477D01*
X53715628Y23439477D02*
X53620390Y23487096D01*
X53620390Y23487096D02*
X53572771Y23534715D01*
X53572771Y23534715D02*
X53525152Y23629953D01*
X53525152Y23629953D02*
X53525152Y23725191D01*
X53525152Y23915668D02*
X53525152Y24296620D01*
X53191819Y24058525D02*
X54048961Y24058525D01*
X54048961Y24058525D02*
X54144200Y24106144D01*
X54144200Y24106144D02*
X54191819Y24201382D01*
X54191819Y24201382D02*
X54191819Y24296620D01*
X54144200Y25010906D02*
X54191819Y24915668D01*
X54191819Y24915668D02*
X54191819Y24725192D01*
X54191819Y24725192D02*
X54144200Y24629954D01*
X54144200Y24629954D02*
X54048961Y24582335D01*
X54048961Y24582335D02*
X53668009Y24582335D01*
X53668009Y24582335D02*
X53572771Y24629954D01*
X53572771Y24629954D02*
X53525152Y24725192D01*
X53525152Y24725192D02*
X53525152Y24915668D01*
X53525152Y24915668D02*
X53572771Y25010906D01*
X53572771Y25010906D02*
X53668009Y25058525D01*
X53668009Y25058525D02*
X53763247Y25058525D01*
X53763247Y25058525D02*
X53858485Y24582335D01*
X54191819Y25487097D02*
X53525152Y25487097D01*
X53715628Y25487097D02*
X53620390Y25534716D01*
X53620390Y25534716D02*
X53572771Y25582335D01*
X53572771Y25582335D02*
X53525152Y25677573D01*
X53525152Y25677573D02*
X53525152Y25772811D01*
D10*
X50329380Y26430908D02*
X50329380Y27243708D01*
X50329380Y26856660D02*
X50793837Y26856660D01*
X50793837Y26430908D02*
X50793837Y27243708D01*
X51064771Y27243708D02*
X51335704Y26430908D01*
X51335704Y26430908D02*
X51606638Y27243708D01*
X52225914Y26972774D02*
X52225914Y26430908D01*
X52032390Y27282413D02*
X51838867Y26701841D01*
X51838867Y26701841D02*
X52342028Y26701841D01*
X50456380Y16270908D02*
X50456380Y17083708D01*
X50456380Y16696660D02*
X50920837Y16696660D01*
X50920837Y16270908D02*
X50920837Y17083708D01*
X51191771Y17083708D02*
X51462704Y16270908D01*
X51462704Y16270908D02*
X51733638Y17083708D01*
X51965867Y17006298D02*
X52004571Y17045003D01*
X52004571Y17045003D02*
X52081981Y17083708D01*
X52081981Y17083708D02*
X52275505Y17083708D01*
X52275505Y17083708D02*
X52352914Y17045003D01*
X52352914Y17045003D02*
X52391619Y17006298D01*
X52391619Y17006298D02*
X52430324Y16928889D01*
X52430324Y16928889D02*
X52430324Y16851479D01*
X52430324Y16851479D02*
X52391619Y16735365D01*
X52391619Y16735365D02*
X51927162Y16270908D01*
X51927162Y16270908D02*
X52430324Y16270908D01*
X55893190Y16270908D02*
X55506142Y16270908D01*
X55506142Y16270908D02*
X55506142Y17083708D01*
X56048009Y17083708D02*
X56318942Y16270908D01*
X56318942Y16270908D02*
X56589876Y17083708D01*
X56822105Y17006298D02*
X56860809Y17045003D01*
X56860809Y17045003D02*
X56938219Y17083708D01*
X56938219Y17083708D02*
X57131743Y17083708D01*
X57131743Y17083708D02*
X57209152Y17045003D01*
X57209152Y17045003D02*
X57247857Y17006298D01*
X57247857Y17006298D02*
X57286562Y16928889D01*
X57286562Y16928889D02*
X57286562Y16851479D01*
X57286562Y16851479D02*
X57247857Y16735365D01*
X57247857Y16735365D02*
X56783400Y16270908D01*
X56783400Y16270908D02*
X57286562Y16270908D01*
X55893190Y26430908D02*
X55506142Y26430908D01*
X55506142Y26430908D02*
X55506142Y27243708D01*
X56048009Y27243708D02*
X56318942Y26430908D01*
X56318942Y26430908D02*
X56589876Y27243708D01*
X57209152Y26972774D02*
X57209152Y26430908D01*
X57015628Y27282413D02*
X56822105Y26701841D01*
X56822105Y26701841D02*
X57325266Y26701841D01*
X50804724Y22125003D02*
X50727314Y22163708D01*
X50727314Y22163708D02*
X50611200Y22163708D01*
X50611200Y22163708D02*
X50495086Y22125003D01*
X50495086Y22125003D02*
X50417676Y22047593D01*
X50417676Y22047593D02*
X50378971Y21970184D01*
X50378971Y21970184D02*
X50340267Y21815365D01*
X50340267Y21815365D02*
X50340267Y21699251D01*
X50340267Y21699251D02*
X50378971Y21544432D01*
X50378971Y21544432D02*
X50417676Y21467022D01*
X50417676Y21467022D02*
X50495086Y21389613D01*
X50495086Y21389613D02*
X50611200Y21350908D01*
X50611200Y21350908D02*
X50688609Y21350908D01*
X50688609Y21350908D02*
X50804724Y21389613D01*
X50804724Y21389613D02*
X50843428Y21428317D01*
X50843428Y21428317D02*
X50843428Y21699251D01*
X50843428Y21699251D02*
X50688609Y21699251D01*
X51191771Y21350908D02*
X51191771Y22163708D01*
X51191771Y22163708D02*
X51656228Y21350908D01*
X51656228Y21350908D02*
X51656228Y22163708D01*
X52043276Y21350908D02*
X52043276Y22163708D01*
X52043276Y22163708D02*
X52236800Y22163708D01*
X52236800Y22163708D02*
X52352914Y22125003D01*
X52352914Y22125003D02*
X52430324Y22047593D01*
X52430324Y22047593D02*
X52469029Y21970184D01*
X52469029Y21970184D02*
X52507733Y21815365D01*
X52507733Y21815365D02*
X52507733Y21699251D01*
X52507733Y21699251D02*
X52469029Y21544432D01*
X52469029Y21544432D02*
X52430324Y21467022D01*
X52430324Y21467022D02*
X52352914Y21389613D01*
X52352914Y21389613D02*
X52236800Y21350908D01*
X52236800Y21350908D02*
X52043276Y21350908D01*
X50329380Y23890908D02*
X50329380Y24703708D01*
X50329380Y24316660D02*
X50793837Y24316660D01*
X50793837Y23890908D02*
X50793837Y24703708D01*
X51064771Y24703708D02*
X51335704Y23890908D01*
X51335704Y23890908D02*
X51606638Y24703708D01*
X51800162Y24703708D02*
X52303324Y24703708D01*
X52303324Y24703708D02*
X52032390Y24394070D01*
X52032390Y24394070D02*
X52148505Y24394070D01*
X52148505Y24394070D02*
X52225914Y24355365D01*
X52225914Y24355365D02*
X52264619Y24316660D01*
X52264619Y24316660D02*
X52303324Y24239251D01*
X52303324Y24239251D02*
X52303324Y24045727D01*
X52303324Y24045727D02*
X52264619Y23968317D01*
X52264619Y23968317D02*
X52225914Y23929613D01*
X52225914Y23929613D02*
X52148505Y23890908D01*
X52148505Y23890908D02*
X51916276Y23890908D01*
X51916276Y23890908D02*
X51838867Y23929613D01*
X51838867Y23929613D02*
X51800162Y23968317D01*
D12*
X53540000Y48305180D02*
X53730476Y48305180D01*
X53730476Y48305180D02*
X53825714Y48257561D01*
X53825714Y48257561D02*
X53920952Y48162323D01*
X53920952Y48162323D02*
X53968571Y47971847D01*
X53968571Y47971847D02*
X53968571Y47638514D01*
X53968571Y47638514D02*
X53920952Y47448038D01*
X53920952Y47448038D02*
X53825714Y47352800D01*
X53825714Y47352800D02*
X53730476Y47305180D01*
X53730476Y47305180D02*
X53540000Y47305180D01*
X53540000Y47305180D02*
X53444762Y47352800D01*
X53444762Y47352800D02*
X53349524Y47448038D01*
X53349524Y47448038D02*
X53301905Y47638514D01*
X53301905Y47638514D02*
X53301905Y47971847D01*
X53301905Y47971847D02*
X53349524Y48162323D01*
X53349524Y48162323D02*
X53444762Y48257561D01*
X53444762Y48257561D02*
X53540000Y48305180D01*
X54397143Y48305180D02*
X54397143Y47495657D01*
X54397143Y47495657D02*
X54444762Y47400419D01*
X54444762Y47400419D02*
X54492381Y47352800D01*
X54492381Y47352800D02*
X54587619Y47305180D01*
X54587619Y47305180D02*
X54778095Y47305180D01*
X54778095Y47305180D02*
X54873333Y47352800D01*
X54873333Y47352800D02*
X54920952Y47400419D01*
X54920952Y47400419D02*
X54968571Y47495657D01*
X54968571Y47495657D02*
X54968571Y48305180D01*
X55301905Y48305180D02*
X55873333Y48305180D01*
X55587619Y47305180D02*
X55587619Y48305180D01*
X49000951Y54290180D02*
X49000951Y55290180D01*
X49000951Y54813990D02*
X49572379Y54813990D01*
X49572379Y54290180D02*
X49572379Y55290180D01*
X49953332Y55290180D02*
X50191427Y54290180D01*
X50191427Y54290180D02*
X50381903Y55004466D01*
X50381903Y55004466D02*
X50572379Y54290180D01*
X50572379Y54290180D02*
X50810475Y55290180D01*
X51191427Y54671133D02*
X51953332Y54671133D01*
X52858093Y55290180D02*
X52667617Y55290180D01*
X52667617Y55290180D02*
X52572379Y55242561D01*
X52572379Y55242561D02*
X52524760Y55194942D01*
X52524760Y55194942D02*
X52429522Y55052085D01*
X52429522Y55052085D02*
X52381903Y54861609D01*
X52381903Y54861609D02*
X52381903Y54480657D01*
X52381903Y54480657D02*
X52429522Y54385419D01*
X52429522Y54385419D02*
X52477141Y54337800D01*
X52477141Y54337800D02*
X52572379Y54290180D01*
X52572379Y54290180D02*
X52762855Y54290180D01*
X52762855Y54290180D02*
X52858093Y54337800D01*
X52858093Y54337800D02*
X52905712Y54385419D01*
X52905712Y54385419D02*
X52953331Y54480657D01*
X52953331Y54480657D02*
X52953331Y54718752D01*
X52953331Y54718752D02*
X52905712Y54813990D01*
X52905712Y54813990D02*
X52858093Y54861609D01*
X52858093Y54861609D02*
X52762855Y54909228D01*
X52762855Y54909228D02*
X52572379Y54909228D01*
X52572379Y54909228D02*
X52477141Y54861609D01*
X52477141Y54861609D02*
X52429522Y54813990D01*
X52429522Y54813990D02*
X52381903Y54718752D01*
X53810474Y55290180D02*
X53619998Y55290180D01*
X53619998Y55290180D02*
X53524760Y55242561D01*
X53524760Y55242561D02*
X53477141Y55194942D01*
X53477141Y55194942D02*
X53381903Y55052085D01*
X53381903Y55052085D02*
X53334284Y54861609D01*
X53334284Y54861609D02*
X53334284Y54480657D01*
X53334284Y54480657D02*
X53381903Y54385419D01*
X53381903Y54385419D02*
X53429522Y54337800D01*
X53429522Y54337800D02*
X53524760Y54290180D01*
X53524760Y54290180D02*
X53715236Y54290180D01*
X53715236Y54290180D02*
X53810474Y54337800D01*
X53810474Y54337800D02*
X53858093Y54385419D01*
X53858093Y54385419D02*
X53905712Y54480657D01*
X53905712Y54480657D02*
X53905712Y54718752D01*
X53905712Y54718752D02*
X53858093Y54813990D01*
X53858093Y54813990D02*
X53810474Y54861609D01*
X53810474Y54861609D02*
X53715236Y54909228D01*
X53715236Y54909228D02*
X53524760Y54909228D01*
X53524760Y54909228D02*
X53429522Y54861609D01*
X53429522Y54861609D02*
X53381903Y54813990D01*
X53381903Y54813990D02*
X53334284Y54718752D01*
X54477141Y54861609D02*
X54381903Y54909228D01*
X54381903Y54909228D02*
X54334284Y54956847D01*
X54334284Y54956847D02*
X54286665Y55052085D01*
X54286665Y55052085D02*
X54286665Y55099704D01*
X54286665Y55099704D02*
X54334284Y55194942D01*
X54334284Y55194942D02*
X54381903Y55242561D01*
X54381903Y55242561D02*
X54477141Y55290180D01*
X54477141Y55290180D02*
X54667617Y55290180D01*
X54667617Y55290180D02*
X54762855Y55242561D01*
X54762855Y55242561D02*
X54810474Y55194942D01*
X54810474Y55194942D02*
X54858093Y55099704D01*
X54858093Y55099704D02*
X54858093Y55052085D01*
X54858093Y55052085D02*
X54810474Y54956847D01*
X54810474Y54956847D02*
X54762855Y54909228D01*
X54762855Y54909228D02*
X54667617Y54861609D01*
X54667617Y54861609D02*
X54477141Y54861609D01*
X54477141Y54861609D02*
X54381903Y54813990D01*
X54381903Y54813990D02*
X54334284Y54766371D01*
X54334284Y54766371D02*
X54286665Y54671133D01*
X54286665Y54671133D02*
X54286665Y54480657D01*
X54286665Y54480657D02*
X54334284Y54385419D01*
X54334284Y54385419D02*
X54381903Y54337800D01*
X54381903Y54337800D02*
X54477141Y54290180D01*
X54477141Y54290180D02*
X54667617Y54290180D01*
X54667617Y54290180D02*
X54762855Y54337800D01*
X54762855Y54337800D02*
X54810474Y54385419D01*
X54810474Y54385419D02*
X54858093Y54480657D01*
X54858093Y54480657D02*
X54858093Y54671133D01*
X54858093Y54671133D02*
X54810474Y54766371D01*
X54810474Y54766371D02*
X54762855Y54813990D01*
X54762855Y54813990D02*
X54667617Y54861609D01*
X56000951Y54337800D02*
X56096189Y54290180D01*
X56096189Y54290180D02*
X56286665Y54290180D01*
X56286665Y54290180D02*
X56381903Y54337800D01*
X56381903Y54337800D02*
X56429522Y54433038D01*
X56429522Y54433038D02*
X56429522Y54480657D01*
X56429522Y54480657D02*
X56381903Y54575895D01*
X56381903Y54575895D02*
X56286665Y54623514D01*
X56286665Y54623514D02*
X56143808Y54623514D01*
X56143808Y54623514D02*
X56048570Y54671133D01*
X56048570Y54671133D02*
X56000951Y54766371D01*
X56000951Y54766371D02*
X56000951Y54813990D01*
X56000951Y54813990D02*
X56048570Y54909228D01*
X56048570Y54909228D02*
X56143808Y54956847D01*
X56143808Y54956847D02*
X56286665Y54956847D01*
X56286665Y54956847D02*
X56381903Y54909228D01*
X56715237Y54956847D02*
X57096189Y54956847D01*
X56858094Y55290180D02*
X56858094Y54433038D01*
X56858094Y54433038D02*
X56905713Y54337800D01*
X56905713Y54337800D02*
X57000951Y54290180D01*
X57000951Y54290180D02*
X57096189Y54290180D01*
X57810475Y54337800D02*
X57715237Y54290180D01*
X57715237Y54290180D02*
X57524761Y54290180D01*
X57524761Y54290180D02*
X57429523Y54337800D01*
X57429523Y54337800D02*
X57381904Y54433038D01*
X57381904Y54433038D02*
X57381904Y54813990D01*
X57381904Y54813990D02*
X57429523Y54909228D01*
X57429523Y54909228D02*
X57524761Y54956847D01*
X57524761Y54956847D02*
X57715237Y54956847D01*
X57715237Y54956847D02*
X57810475Y54909228D01*
X57810475Y54909228D02*
X57858094Y54813990D01*
X57858094Y54813990D02*
X57858094Y54718752D01*
X57858094Y54718752D02*
X57381904Y54623514D01*
X58286666Y54956847D02*
X58286666Y53956847D01*
X58286666Y54909228D02*
X58381904Y54956847D01*
X58381904Y54956847D02*
X58572380Y54956847D01*
X58572380Y54956847D02*
X58667618Y54909228D01*
X58667618Y54909228D02*
X58715237Y54861609D01*
X58715237Y54861609D02*
X58762856Y54766371D01*
X58762856Y54766371D02*
X58762856Y54480657D01*
X58762856Y54480657D02*
X58715237Y54385419D01*
X58715237Y54385419D02*
X58667618Y54337800D01*
X58667618Y54337800D02*
X58572380Y54290180D01*
X58572380Y54290180D02*
X58381904Y54290180D01*
X58381904Y54290180D02*
X58286666Y54337800D01*
X59191428Y54671133D02*
X59953333Y54671133D01*
X60858094Y54956847D02*
X60858094Y54290180D01*
X60429523Y54956847D02*
X60429523Y54433038D01*
X60429523Y54433038D02*
X60477142Y54337800D01*
X60477142Y54337800D02*
X60572380Y54290180D01*
X60572380Y54290180D02*
X60715237Y54290180D01*
X60715237Y54290180D02*
X60810475Y54337800D01*
X60810475Y54337800D02*
X60858094Y54385419D01*
X61334285Y54956847D02*
X61334285Y53956847D01*
X61334285Y54909228D02*
X61429523Y54956847D01*
X61429523Y54956847D02*
X61619999Y54956847D01*
X61619999Y54956847D02*
X61715237Y54909228D01*
X61715237Y54909228D02*
X61762856Y54861609D01*
X61762856Y54861609D02*
X61810475Y54766371D01*
X61810475Y54766371D02*
X61810475Y54480657D01*
X61810475Y54480657D02*
X61762856Y54385419D01*
X61762856Y54385419D02*
X61715237Y54337800D01*
X61715237Y54337800D02*
X61619999Y54290180D01*
X61619999Y54290180D02*
X61429523Y54290180D01*
X61429523Y54290180D02*
X61334285Y54337800D01*
X64191428Y54337800D02*
X64096190Y54290180D01*
X64096190Y54290180D02*
X63905714Y54290180D01*
X63905714Y54290180D02*
X63810476Y54337800D01*
X63810476Y54337800D02*
X63762857Y54385419D01*
X63762857Y54385419D02*
X63715238Y54480657D01*
X63715238Y54480657D02*
X63715238Y54766371D01*
X63715238Y54766371D02*
X63762857Y54861609D01*
X63762857Y54861609D02*
X63810476Y54909228D01*
X63810476Y54909228D02*
X63905714Y54956847D01*
X63905714Y54956847D02*
X64096190Y54956847D01*
X64096190Y54956847D02*
X64191428Y54909228D01*
X64762857Y54290180D02*
X64667619Y54337800D01*
X64667619Y54337800D02*
X64620000Y54385419D01*
X64620000Y54385419D02*
X64572381Y54480657D01*
X64572381Y54480657D02*
X64572381Y54766371D01*
X64572381Y54766371D02*
X64620000Y54861609D01*
X64620000Y54861609D02*
X64667619Y54909228D01*
X64667619Y54909228D02*
X64762857Y54956847D01*
X64762857Y54956847D02*
X64905714Y54956847D01*
X64905714Y54956847D02*
X65000952Y54909228D01*
X65000952Y54909228D02*
X65048571Y54861609D01*
X65048571Y54861609D02*
X65096190Y54766371D01*
X65096190Y54766371D02*
X65096190Y54480657D01*
X65096190Y54480657D02*
X65048571Y54385419D01*
X65048571Y54385419D02*
X65000952Y54337800D01*
X65000952Y54337800D02*
X64905714Y54290180D01*
X64905714Y54290180D02*
X64762857Y54290180D01*
X65524762Y54956847D02*
X65524762Y54290180D01*
X65524762Y54861609D02*
X65572381Y54909228D01*
X65572381Y54909228D02*
X65667619Y54956847D01*
X65667619Y54956847D02*
X65810476Y54956847D01*
X65810476Y54956847D02*
X65905714Y54909228D01*
X65905714Y54909228D02*
X65953333Y54813990D01*
X65953333Y54813990D02*
X65953333Y54290180D01*
X66334286Y54956847D02*
X66572381Y54290180D01*
X66572381Y54290180D02*
X66810476Y54956847D01*
X67572381Y54337800D02*
X67477143Y54290180D01*
X67477143Y54290180D02*
X67286667Y54290180D01*
X67286667Y54290180D02*
X67191429Y54337800D01*
X67191429Y54337800D02*
X67143810Y54433038D01*
X67143810Y54433038D02*
X67143810Y54813990D01*
X67143810Y54813990D02*
X67191429Y54909228D01*
X67191429Y54909228D02*
X67286667Y54956847D01*
X67286667Y54956847D02*
X67477143Y54956847D01*
X67477143Y54956847D02*
X67572381Y54909228D01*
X67572381Y54909228D02*
X67620000Y54813990D01*
X67620000Y54813990D02*
X67620000Y54718752D01*
X67620000Y54718752D02*
X67143810Y54623514D01*
X68048572Y54290180D02*
X68048572Y54956847D01*
X68048572Y54766371D02*
X68096191Y54861609D01*
X68096191Y54861609D02*
X68143810Y54909228D01*
X68143810Y54909228D02*
X68239048Y54956847D01*
X68239048Y54956847D02*
X68334286Y54956847D01*
X68524763Y54956847D02*
X68905715Y54956847D01*
X68667620Y55290180D02*
X68667620Y54433038D01*
X68667620Y54433038D02*
X68715239Y54337800D01*
X68715239Y54337800D02*
X68810477Y54290180D01*
X68810477Y54290180D02*
X68905715Y54290180D01*
X69620001Y54337800D02*
X69524763Y54290180D01*
X69524763Y54290180D02*
X69334287Y54290180D01*
X69334287Y54290180D02*
X69239049Y54337800D01*
X69239049Y54337800D02*
X69191430Y54433038D01*
X69191430Y54433038D02*
X69191430Y54813990D01*
X69191430Y54813990D02*
X69239049Y54909228D01*
X69239049Y54909228D02*
X69334287Y54956847D01*
X69334287Y54956847D02*
X69524763Y54956847D01*
X69524763Y54956847D02*
X69620001Y54909228D01*
X69620001Y54909228D02*
X69667620Y54813990D01*
X69667620Y54813990D02*
X69667620Y54718752D01*
X69667620Y54718752D02*
X69191430Y54623514D01*
X70096192Y54290180D02*
X70096192Y54956847D01*
X70096192Y54766371D02*
X70143811Y54861609D01*
X70143811Y54861609D02*
X70191430Y54909228D01*
X70191430Y54909228D02*
X70286668Y54956847D01*
X70286668Y54956847D02*
X70381906Y54956847D01*
X63938095Y59687561D02*
X63842857Y59735180D01*
X63842857Y59735180D02*
X63700000Y59735180D01*
X63700000Y59735180D02*
X63557143Y59687561D01*
X63557143Y59687561D02*
X63461905Y59592323D01*
X63461905Y59592323D02*
X63414286Y59497085D01*
X63414286Y59497085D02*
X63366667Y59306609D01*
X63366667Y59306609D02*
X63366667Y59163752D01*
X63366667Y59163752D02*
X63414286Y58973276D01*
X63414286Y58973276D02*
X63461905Y58878038D01*
X63461905Y58878038D02*
X63557143Y58782800D01*
X63557143Y58782800D02*
X63700000Y58735180D01*
X63700000Y58735180D02*
X63795238Y58735180D01*
X63795238Y58735180D02*
X63938095Y58782800D01*
X63938095Y58782800D02*
X63985714Y58830419D01*
X63985714Y58830419D02*
X63985714Y59163752D01*
X63985714Y59163752D02*
X63795238Y59163752D01*
X64414286Y58735180D02*
X64414286Y59735180D01*
X64414286Y59735180D02*
X64985714Y58735180D01*
X64985714Y58735180D02*
X64985714Y59735180D01*
X65461905Y58735180D02*
X65461905Y59735180D01*
X65461905Y59735180D02*
X65700000Y59735180D01*
X65700000Y59735180D02*
X65842857Y59687561D01*
X65842857Y59687561D02*
X65938095Y59592323D01*
X65938095Y59592323D02*
X65985714Y59497085D01*
X65985714Y59497085D02*
X66033333Y59306609D01*
X66033333Y59306609D02*
X66033333Y59163752D01*
X66033333Y59163752D02*
X65985714Y58973276D01*
X65985714Y58973276D02*
X65938095Y58878038D01*
X65938095Y58878038D02*
X65842857Y58782800D01*
X65842857Y58782800D02*
X65700000Y58735180D01*
X65700000Y58735180D02*
X65461905Y58735180D01*
X53778095Y59687561D02*
X53682857Y59735180D01*
X53682857Y59735180D02*
X53540000Y59735180D01*
X53540000Y59735180D02*
X53397143Y59687561D01*
X53397143Y59687561D02*
X53301905Y59592323D01*
X53301905Y59592323D02*
X53254286Y59497085D01*
X53254286Y59497085D02*
X53206667Y59306609D01*
X53206667Y59306609D02*
X53206667Y59163752D01*
X53206667Y59163752D02*
X53254286Y58973276D01*
X53254286Y58973276D02*
X53301905Y58878038D01*
X53301905Y58878038D02*
X53397143Y58782800D01*
X53397143Y58782800D02*
X53540000Y58735180D01*
X53540000Y58735180D02*
X53635238Y58735180D01*
X53635238Y58735180D02*
X53778095Y58782800D01*
X53778095Y58782800D02*
X53825714Y58830419D01*
X53825714Y58830419D02*
X53825714Y59163752D01*
X53825714Y59163752D02*
X53635238Y59163752D01*
X54254286Y58735180D02*
X54254286Y59735180D01*
X54254286Y59735180D02*
X54825714Y58735180D01*
X54825714Y58735180D02*
X54825714Y59735180D01*
X55301905Y58735180D02*
X55301905Y59735180D01*
X55301905Y59735180D02*
X55540000Y59735180D01*
X55540000Y59735180D02*
X55682857Y59687561D01*
X55682857Y59687561D02*
X55778095Y59592323D01*
X55778095Y59592323D02*
X55825714Y59497085D01*
X55825714Y59497085D02*
X55873333Y59306609D01*
X55873333Y59306609D02*
X55873333Y59163752D01*
X55873333Y59163752D02*
X55825714Y58973276D01*
X55825714Y58973276D02*
X55778095Y58878038D01*
X55778095Y58878038D02*
X55682857Y58782800D01*
X55682857Y58782800D02*
X55540000Y58735180D01*
X55540000Y58735180D02*
X55301905Y58735180D01*
X63604762Y48305180D02*
X63938095Y47305180D01*
X63938095Y47305180D02*
X64271428Y48305180D01*
X64604762Y47305180D02*
X64604762Y48305180D01*
X65080952Y47305180D02*
X65080952Y48305180D01*
X65080952Y48305180D02*
X65652380Y47305180D01*
X65652380Y47305180D02*
X65652380Y48305180D01*
D13*
%TO.C,C4*%
X13061000Y34960000D02*
X13061000Y37700000D01*
X20801000Y37700000D02*
X13061000Y37700000D01*
X20801000Y34960000D02*
X13061000Y34960000D01*
X20801000Y34960000D02*
X20801000Y37700000D01*
%TO.C,C5*%
X12660000Y46800000D02*
X14200000Y46800000D01*
X12660000Y46760000D02*
X14200000Y46760000D01*
X12661000Y46840000D02*
X14200000Y46840000D01*
X12662000Y46880000D02*
X14200000Y46880000D01*
X12664000Y46920000D02*
X14200000Y46920000D01*
X12667000Y46960000D02*
X14200000Y46960000D01*
X12671000Y47000000D02*
X14200000Y47000000D01*
X12675000Y47040000D02*
X14200000Y47040000D01*
X12679000Y47080000D02*
X14200000Y47080000D01*
X12684000Y47120000D02*
X14200000Y47120000D01*
X12690000Y47160000D02*
X14200000Y47160000D01*
X12697000Y47200000D02*
X14200000Y47200000D01*
X12704000Y47240000D02*
X14200000Y47240000D01*
X12712000Y47280000D02*
X14200000Y47280000D01*
X12720000Y47320000D02*
X14200000Y47320000D01*
X12729000Y47360000D02*
X14200000Y47360000D01*
X12739000Y47400000D02*
X14200000Y47400000D01*
X12749000Y47440000D02*
X14200000Y47440000D01*
X12760000Y47481000D02*
X14200000Y47481000D01*
X12772000Y47521000D02*
X14200000Y47521000D01*
X12785000Y47561000D02*
X14200000Y47561000D01*
X12798000Y47601000D02*
X14200000Y47601000D01*
X12812000Y47641000D02*
X14200000Y47641000D01*
X12826000Y47681000D02*
X14200000Y47681000D01*
X12842000Y47721000D02*
X14200000Y47721000D01*
X12858000Y47761000D02*
X14200000Y47761000D01*
X12875000Y47801000D02*
X14200000Y47801000D01*
X12892000Y47841000D02*
X14200000Y47841000D01*
X12911000Y47881000D02*
X14200000Y47881000D01*
X12930000Y47921000D02*
X14200000Y47921000D01*
X12950000Y47961000D02*
X14200000Y47961000D01*
X12972000Y48001000D02*
X14200000Y48001000D01*
X12993000Y48041000D02*
X14200000Y48041000D01*
X13016000Y48081000D02*
X14200000Y48081000D01*
X13040000Y48121000D02*
X14200000Y48121000D01*
X13065000Y48161000D02*
X14200000Y48161000D01*
X13091000Y48201000D02*
X14200000Y48201000D01*
X13118000Y48241000D02*
X14200000Y48241000D01*
X13145000Y48281000D02*
X14200000Y48281000D01*
X13175000Y48321000D02*
X14200000Y48321000D01*
X13205000Y48361000D02*
X14200000Y48361000D01*
X13236000Y48401000D02*
X14200000Y48401000D01*
X13269000Y48441000D02*
X14200000Y48441000D01*
X13303000Y48481000D02*
X14200000Y48481000D01*
X13339000Y48521000D02*
X14200000Y48521000D01*
X13376000Y48561000D02*
X14200000Y48561000D01*
X13414000Y48601000D02*
X14200000Y48601000D01*
X13455000Y48641000D02*
X14200000Y48641000D01*
X13497000Y48681000D02*
X14200000Y48681000D01*
X13515000Y44205225D02*
X14015000Y44205225D01*
X13541000Y48721000D02*
X14200000Y48721000D01*
X13587000Y48761000D02*
X14200000Y48761000D01*
X13635000Y48801000D02*
X16845000Y48801000D01*
X13686000Y48841000D02*
X16794000Y48841000D01*
X13740000Y48881000D02*
X16740000Y48881000D01*
X13765000Y43955225D02*
X13765000Y44455225D01*
X13797000Y48921000D02*
X16683000Y48921000D01*
X13857000Y48961000D02*
X16623000Y48961000D01*
X13921000Y49001000D02*
X16559000Y49001000D01*
X13989000Y49041000D02*
X16491000Y49041000D01*
X14062000Y49081000D02*
X16418000Y49081000D01*
X14142000Y49121000D02*
X16338000Y49121000D01*
X14229000Y49161000D02*
X16251000Y49161000D01*
X14325000Y49201000D02*
X16155000Y49201000D01*
X14435000Y49241000D02*
X16045000Y49241000D01*
X14563000Y49281000D02*
X15917000Y49281000D01*
X14722000Y49321000D02*
X15758000Y49321000D01*
X14956000Y49361000D02*
X15524000Y49361000D01*
X16280000Y48761000D02*
X16893000Y48761000D01*
X16280000Y48721000D02*
X16939000Y48721000D01*
X16280000Y48681000D02*
X16983000Y48681000D01*
X16280000Y48641000D02*
X17025000Y48641000D01*
X16280000Y48601000D02*
X17066000Y48601000D01*
X16280000Y48561000D02*
X17104000Y48561000D01*
X16280000Y48521000D02*
X17141000Y48521000D01*
X16280000Y48481000D02*
X17177000Y48481000D01*
X16280000Y48441000D02*
X17211000Y48441000D01*
X16280000Y48401000D02*
X17244000Y48401000D01*
X16280000Y48361000D02*
X17275000Y48361000D01*
X16280000Y48321000D02*
X17305000Y48321000D01*
X16280000Y48281000D02*
X17335000Y48281000D01*
X16280000Y48241000D02*
X17362000Y48241000D01*
X16280000Y48201000D02*
X17389000Y48201000D01*
X16280000Y48161000D02*
X17415000Y48161000D01*
X16280000Y48121000D02*
X17440000Y48121000D01*
X16280000Y48081000D02*
X17464000Y48081000D01*
X16280000Y48041000D02*
X17487000Y48041000D01*
X16280000Y48001000D02*
X17508000Y48001000D01*
X16280000Y47961000D02*
X17530000Y47961000D01*
X16280000Y47921000D02*
X17550000Y47921000D01*
X16280000Y47881000D02*
X17569000Y47881000D01*
X16280000Y47841000D02*
X17588000Y47841000D01*
X16280000Y47801000D02*
X17605000Y47801000D01*
X16280000Y47761000D02*
X17622000Y47761000D01*
X16280000Y47721000D02*
X17638000Y47721000D01*
X16280000Y47681000D02*
X17654000Y47681000D01*
X16280000Y47641000D02*
X17668000Y47641000D01*
X16280000Y47601000D02*
X17682000Y47601000D01*
X16280000Y47561000D02*
X17695000Y47561000D01*
X16280000Y47521000D02*
X17708000Y47521000D01*
X16280000Y47481000D02*
X17720000Y47481000D01*
X16280000Y47440000D02*
X17731000Y47440000D01*
X16280000Y47400000D02*
X17741000Y47400000D01*
X16280000Y47360000D02*
X17751000Y47360000D01*
X16280000Y47320000D02*
X17760000Y47320000D01*
X16280000Y47280000D02*
X17768000Y47280000D01*
X16280000Y47240000D02*
X17776000Y47240000D01*
X16280000Y47200000D02*
X17783000Y47200000D01*
X16280000Y47160000D02*
X17790000Y47160000D01*
X16280000Y47120000D02*
X17796000Y47120000D01*
X16280000Y47080000D02*
X17801000Y47080000D01*
X16280000Y47040000D02*
X17805000Y47040000D01*
X16280000Y47000000D02*
X17809000Y47000000D01*
X16280000Y46960000D02*
X17813000Y46960000D01*
X16280000Y46920000D02*
X17816000Y46920000D01*
X16280000Y46880000D02*
X17818000Y46880000D01*
X16280000Y46840000D02*
X17819000Y46840000D01*
X16280000Y46800000D02*
X17820000Y46800000D01*
X16280000Y46760000D02*
X17820000Y46760000D01*
X17860000Y46760000D02*
G75*
G02*
X12620000Y46760000I-2620000J0D01*
G01*
X12620000Y46760000D02*
G75*
G02*
X17860000Y46760000I2620000J0D01*
G01*
%TO.C,D1*%
X1448000Y33502000D02*
X1448000Y33346000D01*
X1448000Y31186000D02*
X1448000Y31030000D01*
X1448000Y33501516D02*
G75*
G02*
X4680335Y33344608I1560000J-1235516D01*
G01*
X1967039Y33346000D02*
G75*
G02*
X4049130Y33345837I1040961J-1080000D01*
G01*
X4049130Y31186163D02*
G75*
G02*
X1967039Y31186000I-1041130J1079837D01*
G01*
X4680335Y31187392D02*
G75*
G02*
X1448000Y31030484I-1672335J1078608D01*
G01*
%TO.C,D2*%
X54430000Y32720000D02*
X54430000Y32590000D01*
X54430000Y29780000D02*
X54430000Y29910000D01*
X58850000Y29780000D02*
X58850000Y32720000D01*
X58970000Y29780000D02*
X58970000Y32720000D01*
X59090000Y29780000D02*
X59090000Y32720000D01*
X59870000Y32720000D02*
X54430000Y32720000D01*
X59870000Y32590000D02*
X59870000Y32720000D01*
X59870000Y29910000D02*
X59870000Y29780000D01*
X59870000Y29780000D02*
X54430000Y29780000D01*
%TO.C,D3*%
X64717000Y11257000D02*
X64717000Y11127000D01*
X64717000Y8317000D02*
X64717000Y8447000D01*
X69137000Y8317000D02*
X69137000Y11257000D01*
X69257000Y8317000D02*
X69257000Y11257000D01*
X69377000Y8317000D02*
X69377000Y11257000D01*
X70157000Y11257000D02*
X64717000Y11257000D01*
X70157000Y11127000D02*
X70157000Y11257000D01*
X70157000Y8447000D02*
X70157000Y8317000D01*
X70157000Y8317000D02*
X64717000Y8317000D01*
%TO.C,D6*%
X64717000Y7955000D02*
X64717000Y7825000D01*
X64717000Y5015000D02*
X64717000Y5145000D01*
X69137000Y5015000D02*
X69137000Y7955000D01*
X69257000Y5015000D02*
X69257000Y7955000D01*
X69377000Y5015000D02*
X69377000Y7955000D01*
X70157000Y7955000D02*
X64717000Y7955000D01*
X70157000Y7825000D02*
X70157000Y7955000D01*
X70157000Y5145000D02*
X70157000Y5015000D01*
X70157000Y5015000D02*
X64717000Y5015000D01*
%TO.C,D11*%
X37900000Y59370000D02*
X38030000Y59370000D01*
X37900000Y54950000D02*
X40840000Y54950000D01*
X37900000Y54830000D02*
X40840000Y54830000D01*
X37900000Y54710000D02*
X40840000Y54710000D01*
X37900000Y53930000D02*
X37900000Y59370000D01*
X38030000Y53930000D02*
X37900000Y53930000D01*
X40710000Y53930000D02*
X40840000Y53930000D01*
X40840000Y59370000D02*
X40710000Y59370000D01*
X40840000Y53930000D02*
X40840000Y59370000D01*
%TO.C,J2*%
X15180000Y710000D02*
X15180000Y2040000D01*
X16510000Y710000D02*
X15180000Y710000D01*
X17780000Y3370000D02*
X30540000Y3370000D01*
X17780000Y710000D02*
X17780000Y3370000D01*
X17780000Y710000D02*
X30540000Y710000D01*
X30540000Y710000D02*
X30540000Y3370000D01*
%TO.C,J4*%
X35500000Y3237000D02*
X35500000Y577000D01*
X50800000Y3237000D02*
X35500000Y3237000D01*
X50800000Y3237000D02*
X50800000Y577000D01*
X50800000Y577000D02*
X35500000Y577000D01*
X52070000Y3237000D02*
X53400000Y3237000D01*
X53400000Y3237000D02*
X53400000Y1907000D01*
%TO.C,J5*%
X1718000Y12962000D02*
X1718000Y25722000D01*
X4378000Y25722000D02*
X1718000Y25722000D01*
X4378000Y12962000D02*
X1718000Y12962000D01*
X4378000Y12962000D02*
X4378000Y25722000D01*
X4378000Y11692000D02*
X4378000Y10362000D01*
X4378000Y10362000D02*
X3048000Y10362000D01*
%TO.C,J6*%
X81220000Y52332000D02*
X81220000Y54932000D01*
X83880000Y54932000D02*
X81220000Y54932000D01*
X83880000Y52332000D02*
X81220000Y52332000D01*
X83880000Y52332000D02*
X83880000Y54932000D01*
X83880000Y51062000D02*
X83880000Y49732000D01*
X83880000Y49732000D02*
X82550000Y49732000D01*
%TO.C,J10*%
X1718000Y45220000D02*
X1718000Y50360000D01*
X4378000Y50360000D02*
X1718000Y50360000D01*
X4378000Y45220000D02*
X1718000Y45220000D01*
X4378000Y45220000D02*
X4378000Y50360000D01*
X4378000Y43950000D02*
X4378000Y42620000D01*
X4378000Y42620000D02*
X3048000Y42620000D01*
%TO.C,JP1*%
X41018000Y50030000D02*
X43818000Y50030000D01*
X41018000Y48030000D02*
X41018000Y50030000D01*
X43818000Y50030000D02*
X43818000Y48030000D01*
X43818000Y48030000D02*
X41018000Y48030000D01*
D14*
%TO.C,LOGO1*%
X34817171Y42999206D02*
X34894934Y42969401D01*
X34931167Y42941028D01*
X34973515Y42875461D01*
X34992080Y42794987D01*
X34987575Y42710509D01*
X34960713Y42632933D01*
X34912206Y42573164D01*
X34906845Y42569061D01*
X34841544Y42538972D01*
X34759737Y42525523D01*
X34678226Y42530956D01*
X34658534Y42535925D01*
X34592664Y42568778D01*
X34550404Y42622563D01*
X34529336Y42701464D01*
X34525857Y42765485D01*
X34527675Y42832308D01*
X34535724Y42875618D01*
X34553899Y42908111D01*
X34577556Y42934061D01*
X34647721Y42981325D01*
X34731179Y43003110D01*
X34817171Y42999206D01*
G36*
X34817171Y42999206D02*
G01*
X34894934Y42969401D01*
X34931167Y42941028D01*
X34973515Y42875461D01*
X34992080Y42794987D01*
X34987575Y42710509D01*
X34960713Y42632933D01*
X34912206Y42573164D01*
X34906845Y42569061D01*
X34841544Y42538972D01*
X34759737Y42525523D01*
X34678226Y42530956D01*
X34658534Y42535925D01*
X34592664Y42568778D01*
X34550404Y42622563D01*
X34529336Y42701464D01*
X34525857Y42765485D01*
X34527675Y42832308D01*
X34535724Y42875618D01*
X34553899Y42908111D01*
X34577556Y42934061D01*
X34647721Y42981325D01*
X34731179Y43003110D01*
X34817171Y42999206D01*
G37*
X34891225Y42425665D02*
X34993439Y42424458D01*
X35068533Y42422075D01*
X35121089Y42418211D01*
X35155685Y42412563D01*
X35176904Y42404826D01*
X35186775Y42397490D01*
X35196627Y42382706D01*
X35203980Y42357600D01*
X35209174Y42317396D01*
X35212551Y42257319D01*
X35214453Y42172593D01*
X35215220Y42058441D01*
X35215285Y41998347D01*
X35215285Y41627714D01*
X35015714Y41627714D01*
X35015714Y40793143D01*
X34489571Y40793143D01*
X34489571Y41627714D01*
X34290000Y41627714D01*
X34290000Y41996831D01*
X34290259Y42122694D01*
X34291312Y42217273D01*
X34293577Y42285566D01*
X34297467Y42332571D01*
X34303398Y42363289D01*
X34311787Y42382717D01*
X34323048Y42395856D01*
X34323178Y42395974D01*
X34338241Y42405929D01*
X34361646Y42413451D01*
X34398110Y42418868D01*
X34452348Y42422505D01*
X34529079Y42424688D01*
X34633017Y42425744D01*
X34757311Y42426000D01*
X34891225Y42425665D01*
G36*
X34891225Y42425665D02*
G01*
X34993439Y42424458D01*
X35068533Y42422075D01*
X35121089Y42418211D01*
X35155685Y42412563D01*
X35176904Y42404826D01*
X35186775Y42397490D01*
X35196627Y42382706D01*
X35203980Y42357600D01*
X35209174Y42317396D01*
X35212551Y42257319D01*
X35214453Y42172593D01*
X35215220Y42058441D01*
X35215285Y41998347D01*
X35215285Y41627714D01*
X35015714Y41627714D01*
X35015714Y40793143D01*
X34489571Y40793143D01*
X34489571Y41627714D01*
X34290000Y41627714D01*
X34290000Y41996831D01*
X34290259Y42122694D01*
X34291312Y42217273D01*
X34293577Y42285566D01*
X34297467Y42332571D01*
X34303398Y42363289D01*
X34311787Y42382717D01*
X34323048Y42395856D01*
X34323178Y42395974D01*
X34338241Y42405929D01*
X34361646Y42413451D01*
X34398110Y42418868D01*
X34452348Y42422505D01*
X34529079Y42424688D01*
X34633017Y42425744D01*
X34757311Y42426000D01*
X34891225Y42425665D01*
G37*
X30732047Y42418439D02*
X30818554Y42400839D01*
X30826969Y42398035D01*
X30875465Y42373967D01*
X30931169Y42336203D01*
X30985592Y42291943D01*
X31030249Y42248390D01*
X31056652Y42212746D01*
X31060356Y42199973D01*
X31045480Y42182326D01*
X31006699Y42154276D01*
X30952748Y42122088D01*
X30845355Y42063104D01*
X30806909Y42117097D01*
X30747165Y42172083D01*
X30672000Y42198239D01*
X30591219Y42192820D01*
X30566717Y42184361D01*
X30503912Y42146314D01*
X30462199Y42090277D01*
X30437940Y42009943D01*
X30430280Y41947835D01*
X30430892Y41831833D01*
X30454393Y41740918D01*
X30501999Y41671074D01*
X30518889Y41655522D01*
X30584378Y41619892D01*
X30659087Y41608639D01*
X30732416Y41620462D01*
X30793766Y41654058D01*
X30825787Y41693218D01*
X30847276Y41723328D01*
X30874113Y41733635D01*
X30913882Y41723758D01*
X30974167Y41693314D01*
X30988896Y41684985D01*
X31079220Y41633398D01*
X31004186Y41548155D01*
X30917029Y41465157D01*
X30824586Y41412772D01*
X30716438Y41386043D01*
X30652357Y41380712D01*
X30579195Y41379966D01*
X30512956Y41383335D01*
X30470928Y41389501D01*
X30357771Y41436982D01*
X30259817Y41513314D01*
X30184283Y41611954D01*
X30153312Y41677548D01*
X30123620Y41800074D01*
X30117947Y41934497D01*
X30136252Y42065547D01*
X30154445Y42125195D01*
X30202103Y42214042D01*
X30272069Y42296680D01*
X30354395Y42363362D01*
X30439133Y42404341D01*
X30439436Y42404432D01*
X30526149Y42420506D01*
X30629132Y42425085D01*
X30732047Y42418439D01*
G36*
X30732047Y42418439D02*
G01*
X30818554Y42400839D01*
X30826969Y42398035D01*
X30875465Y42373967D01*
X30931169Y42336203D01*
X30985592Y42291943D01*
X31030249Y42248390D01*
X31056652Y42212746D01*
X31060356Y42199973D01*
X31045480Y42182326D01*
X31006699Y42154276D01*
X30952748Y42122088D01*
X30845355Y42063104D01*
X30806909Y42117097D01*
X30747165Y42172083D01*
X30672000Y42198239D01*
X30591219Y42192820D01*
X30566717Y42184361D01*
X30503912Y42146314D01*
X30462199Y42090277D01*
X30437940Y42009943D01*
X30430280Y41947835D01*
X30430892Y41831833D01*
X30454393Y41740918D01*
X30501999Y41671074D01*
X30518889Y41655522D01*
X30584378Y41619892D01*
X30659087Y41608639D01*
X30732416Y41620462D01*
X30793766Y41654058D01*
X30825787Y41693218D01*
X30847276Y41723328D01*
X30874113Y41733635D01*
X30913882Y41723758D01*
X30974167Y41693314D01*
X30988896Y41684985D01*
X31079220Y41633398D01*
X31004186Y41548155D01*
X30917029Y41465157D01*
X30824586Y41412772D01*
X30716438Y41386043D01*
X30652357Y41380712D01*
X30579195Y41379966D01*
X30512956Y41383335D01*
X30470928Y41389501D01*
X30357771Y41436982D01*
X30259817Y41513314D01*
X30184283Y41611954D01*
X30153312Y41677548D01*
X30123620Y41800074D01*
X30117947Y41934497D01*
X30136252Y42065547D01*
X30154445Y42125195D01*
X30202103Y42214042D01*
X30272069Y42296680D01*
X30354395Y42363362D01*
X30439133Y42404341D01*
X30439436Y42404432D01*
X30526149Y42420506D01*
X30629132Y42425085D01*
X30732047Y42418439D01*
G37*
X31650862Y42423796D02*
X31757450Y42409246D01*
X31849076Y42381993D01*
X31882331Y42365651D01*
X31936885Y42327823D01*
X31987012Y42283166D01*
X32025919Y42239093D01*
X32046816Y42203019D01*
X32046835Y42186063D01*
X32026869Y42170659D01*
X31983999Y42145330D01*
X31934642Y42119230D01*
X31831643Y42067271D01*
X31798224Y42111653D01*
X31758186Y42150366D01*
X31706664Y42183727D01*
X31703603Y42185221D01*
X31628501Y42202630D01*
X31552906Y42189287D01*
X31488134Y42148532D01*
X31459735Y42113244D01*
X31423796Y42025439D01*
X31410409Y41925448D01*
X31418706Y41824068D01*
X31447818Y41732098D01*
X31496075Y41661133D01*
X31534600Y41629031D01*
X31576032Y41613719D01*
X31636267Y41609587D01*
X31642140Y41609571D01*
X31701973Y41612436D01*
X31742487Y41625752D01*
X31780494Y41656600D01*
X31798934Y41675618D01*
X31861224Y41741665D01*
X31951946Y41699174D01*
X32003810Y41673104D01*
X32040732Y41651235D01*
X32051817Y41641876D01*
X32048219Y41616211D01*
X32021568Y41576745D01*
X31978547Y41530472D01*
X31925839Y41484384D01*
X31870128Y41445476D01*
X31856874Y41437886D01*
X31751954Y41397822D01*
X31631212Y41378762D01*
X31509270Y41381967D01*
X31423428Y41400507D01*
X31313460Y41454716D01*
X31222355Y41539070D01*
X31157622Y41640751D01*
X31131730Y41699083D01*
X31116455Y41752024D01*
X31109166Y41813197D01*
X31107228Y41896224D01*
X31107224Y41901466D01*
X31108745Y41984199D01*
X31115148Y42044179D01*
X31129194Y42094873D01*
X31153646Y42149753D01*
X31161193Y42164699D01*
X31231604Y42268781D01*
X31322132Y42350217D01*
X31425677Y42402924D01*
X31446870Y42409360D01*
X31542830Y42424286D01*
X31650862Y42423796D01*
G36*
X31650862Y42423796D02*
G01*
X31757450Y42409246D01*
X31849076Y42381993D01*
X31882331Y42365651D01*
X31936885Y42327823D01*
X31987012Y42283166D01*
X32025919Y42239093D01*
X32046816Y42203019D01*
X32046835Y42186063D01*
X32026869Y42170659D01*
X31983999Y42145330D01*
X31934642Y42119230D01*
X31831643Y42067271D01*
X31798224Y42111653D01*
X31758186Y42150366D01*
X31706664Y42183727D01*
X31703603Y42185221D01*
X31628501Y42202630D01*
X31552906Y42189287D01*
X31488134Y42148532D01*
X31459735Y42113244D01*
X31423796Y42025439D01*
X31410409Y41925448D01*
X31418706Y41824068D01*
X31447818Y41732098D01*
X31496075Y41661133D01*
X31534600Y41629031D01*
X31576032Y41613719D01*
X31636267Y41609587D01*
X31642140Y41609571D01*
X31701973Y41612436D01*
X31742487Y41625752D01*
X31780494Y41656600D01*
X31798934Y41675618D01*
X31861224Y41741665D01*
X31951946Y41699174D01*
X32003810Y41673104D01*
X32040732Y41651235D01*
X32051817Y41641876D01*
X32048219Y41616211D01*
X32021568Y41576745D01*
X31978547Y41530472D01*
X31925839Y41484384D01*
X31870128Y41445476D01*
X31856874Y41437886D01*
X31751954Y41397822D01*
X31631212Y41378762D01*
X31509270Y41381967D01*
X31423428Y41400507D01*
X31313460Y41454716D01*
X31222355Y41539070D01*
X31157622Y41640751D01*
X31131730Y41699083D01*
X31116455Y41752024D01*
X31109166Y41813197D01*
X31107228Y41896224D01*
X31107224Y41901466D01*
X31108745Y41984199D01*
X31115148Y42044179D01*
X31129194Y42094873D01*
X31153646Y42149753D01*
X31161193Y42164699D01*
X31231604Y42268781D01*
X31322132Y42350217D01*
X31425677Y42402924D01*
X31446870Y42409360D01*
X31542830Y42424286D01*
X31650862Y42423796D01*
G37*
X42207663Y42787092D02*
X42332036Y42767657D01*
X42384844Y42753608D01*
X42534363Y42688394D01*
X42665457Y42593837D01*
X42775517Y42473252D01*
X42861937Y42329952D01*
X42922109Y42167251D01*
X42947997Y42037868D01*
X42958633Y41843343D01*
X42937671Y41660444D01*
X42885830Y41492125D01*
X42803827Y41341342D01*
X42766782Y41291576D01*
X42643105Y41165853D01*
X42499981Y41069560D01*
X42340940Y41004039D01*
X42169512Y40970635D01*
X41989228Y40970693D01*
X41939715Y40976588D01*
X41786463Y41016246D01*
X41648160Y41086836D01*
X41528761Y41184706D01*
X41432223Y41306208D01*
X41362504Y41447692D01*
X41337080Y41532464D01*
X41314558Y41627714D01*
X41742406Y41627714D01*
X41762431Y41548190D01*
X41797372Y41471830D01*
X41856267Y41403382D01*
X41927973Y41354450D01*
X41960225Y41342227D01*
X42005607Y41334676D01*
X42070601Y41329768D01*
X42120430Y41328663D01*
X42229061Y41343055D01*
X42319656Y41387015D01*
X42395732Y41462712D01*
X42434714Y41522228D01*
X42482243Y41632121D01*
X42510892Y41756595D01*
X42521233Y41888090D01*
X42513837Y42019048D01*
X42489276Y42141909D01*
X42448121Y42249115D01*
X42390946Y42333105D01*
X42371987Y42351571D01*
X42282483Y42407204D01*
X42176325Y42436149D01*
X42062370Y42437526D01*
X41949472Y42410452D01*
X41917462Y42396806D01*
X41856718Y42353252D01*
X41803647Y42289815D01*
X41768726Y42220371D01*
X41761680Y42190521D01*
X41764127Y42156198D01*
X41790096Y42139725D01*
X41806231Y42136092D01*
X41825984Y42131251D01*
X41834418Y42122984D01*
X41828666Y42106932D01*
X41805859Y42078738D01*
X41763131Y42034041D01*
X41697614Y41968484D01*
X41692838Y41963735D01*
X41529000Y41800828D01*
X41365120Y41963735D01*
X41201239Y42126643D01*
X41260798Y42135714D01*
X41299150Y42145831D01*
X41322464Y42168297D01*
X41340522Y42213733D01*
X41344339Y42226429D01*
X41407988Y42393308D01*
X41492613Y42530870D01*
X41598946Y42639910D01*
X41727719Y42721223D01*
X41839314Y42764445D01*
X41947321Y42785763D01*
X42074764Y42793219D01*
X42207663Y42787092D01*
G36*
X42207663Y42787092D02*
G01*
X42332036Y42767657D01*
X42384844Y42753608D01*
X42534363Y42688394D01*
X42665457Y42593837D01*
X42775517Y42473252D01*
X42861937Y42329952D01*
X42922109Y42167251D01*
X42947997Y42037868D01*
X42958633Y41843343D01*
X42937671Y41660444D01*
X42885830Y41492125D01*
X42803827Y41341342D01*
X42766782Y41291576D01*
X42643105Y41165853D01*
X42499981Y41069560D01*
X42340940Y41004039D01*
X42169512Y40970635D01*
X41989228Y40970693D01*
X41939715Y40976588D01*
X41786463Y41016246D01*
X41648160Y41086836D01*
X41528761Y41184706D01*
X41432223Y41306208D01*
X41362504Y41447692D01*
X41337080Y41532464D01*
X41314558Y41627714D01*
X41742406Y41627714D01*
X41762431Y41548190D01*
X41797372Y41471830D01*
X41856267Y41403382D01*
X41927973Y41354450D01*
X41960225Y41342227D01*
X42005607Y41334676D01*
X42070601Y41329768D01*
X42120430Y41328663D01*
X42229061Y41343055D01*
X42319656Y41387015D01*
X42395732Y41462712D01*
X42434714Y41522228D01*
X42482243Y41632121D01*
X42510892Y41756595D01*
X42521233Y41888090D01*
X42513837Y42019048D01*
X42489276Y42141909D01*
X42448121Y42249115D01*
X42390946Y42333105D01*
X42371987Y42351571D01*
X42282483Y42407204D01*
X42176325Y42436149D01*
X42062370Y42437526D01*
X41949472Y42410452D01*
X41917462Y42396806D01*
X41856718Y42353252D01*
X41803647Y42289815D01*
X41768726Y42220371D01*
X41761680Y42190521D01*
X41764127Y42156198D01*
X41790096Y42139725D01*
X41806231Y42136092D01*
X41825984Y42131251D01*
X41834418Y42122984D01*
X41828666Y42106932D01*
X41805859Y42078738D01*
X41763131Y42034041D01*
X41697614Y41968484D01*
X41692838Y41963735D01*
X41529000Y41800828D01*
X41365120Y41963735D01*
X41201239Y42126643D01*
X41260798Y42135714D01*
X41299150Y42145831D01*
X41322464Y42168297D01*
X41340522Y42213733D01*
X41344339Y42226429D01*
X41407988Y42393308D01*
X41492613Y42530870D01*
X41598946Y42639910D01*
X41727719Y42721223D01*
X41839314Y42764445D01*
X41947321Y42785763D01*
X42074764Y42793219D01*
X42207663Y42787092D01*
G37*
X31366452Y43583688D02*
X31564725Y43542538D01*
X31603947Y43530777D01*
X31827600Y43441512D01*
X32036349Y43322256D01*
X32226466Y43176324D01*
X32394224Y43007031D01*
X32535896Y42817692D01*
X32647755Y42611624D01*
X32654569Y42596206D01*
X32731890Y42376242D01*
X32778461Y42146325D01*
X32794699Y41911644D01*
X32781018Y41677389D01*
X32737832Y41448749D01*
X32665558Y41230914D01*
X32564610Y41029073D01*
X32524158Y40965500D01*
X32376482Y40777501D01*
X32204962Y40612952D01*
X32013515Y40473484D01*
X31806059Y40360727D01*
X31586508Y40276313D01*
X31358781Y40221872D01*
X31126793Y40199037D01*
X30894461Y40209437D01*
X30761214Y40231316D01*
X30514817Y40300686D01*
X30287250Y40401029D01*
X30079147Y40531929D01*
X29891147Y40692970D01*
X29723887Y40883736D01*
X29688217Y40932053D01*
X29566062Y41133493D01*
X29474556Y41350552D01*
X29414224Y41578617D01*
X29385591Y41813077D01*
X29387359Y41929407D01*
X29693428Y41929407D01*
X29705262Y41721462D01*
X29749908Y41516201D01*
X29827584Y41316871D01*
X29938504Y41126720D01*
X29996075Y41049090D01*
X30142697Y40892391D01*
X30314365Y40757558D01*
X30504330Y40648972D01*
X30705840Y40571019D01*
X30752143Y40558133D01*
X30896770Y40532028D01*
X31059004Y40521299D01*
X31224053Y40525936D01*
X31377124Y40545927D01*
X31433419Y40558671D01*
X31586551Y40610542D01*
X31745941Y40685164D01*
X31897515Y40775235D01*
X32007193Y40856403D01*
X32160816Y41006736D01*
X32286176Y41177302D01*
X32382275Y41364389D01*
X32448110Y41564284D01*
X32482683Y41773274D01*
X32484992Y41987647D01*
X32454039Y42203689D01*
X32411254Y42356252D01*
X32338027Y42530176D01*
X32239761Y42690571D01*
X32111733Y42844713D01*
X32059849Y42897714D01*
X31891604Y43041003D01*
X31710645Y43151195D01*
X31514463Y43229404D01*
X31300551Y43276743D01*
X31175553Y43289946D01*
X30952060Y43287882D01*
X30736847Y43251056D01*
X30532546Y43180450D01*
X30341792Y43077049D01*
X30167218Y42941834D01*
X30118894Y42895712D01*
X29969903Y42723066D01*
X29852645Y42536865D01*
X29767336Y42340356D01*
X29714191Y42136788D01*
X29693428Y41929407D01*
X29387359Y41929407D01*
X29389183Y42049323D01*
X29425524Y42282741D01*
X29495141Y42508721D01*
X29505648Y42534857D01*
X29615284Y42755412D01*
X29753148Y42957041D01*
X29916087Y43136727D01*
X30100946Y43291451D01*
X30304573Y43418196D01*
X30523813Y43513945D01*
X30531695Y43516686D01*
X30725384Y43567898D01*
X30936157Y43596229D01*
X31153387Y43601539D01*
X31366452Y43583688D01*
G36*
X31366452Y43583688D02*
G01*
X31564725Y43542538D01*
X31603947Y43530777D01*
X31827600Y43441512D01*
X32036349Y43322256D01*
X32226466Y43176324D01*
X32394224Y43007031D01*
X32535896Y42817692D01*
X32647755Y42611624D01*
X32654569Y42596206D01*
X32731890Y42376242D01*
X32778461Y42146325D01*
X32794699Y41911644D01*
X32781018Y41677389D01*
X32737832Y41448749D01*
X32665558Y41230914D01*
X32564610Y41029073D01*
X32524158Y40965500D01*
X32376482Y40777501D01*
X32204962Y40612952D01*
X32013515Y40473484D01*
X31806059Y40360727D01*
X31586508Y40276313D01*
X31358781Y40221872D01*
X31126793Y40199037D01*
X30894461Y40209437D01*
X30761214Y40231316D01*
X30514817Y40300686D01*
X30287250Y40401029D01*
X30079147Y40531929D01*
X29891147Y40692970D01*
X29723887Y40883736D01*
X29688217Y40932053D01*
X29566062Y41133493D01*
X29474556Y41350552D01*
X29414224Y41578617D01*
X29385591Y41813077D01*
X29387359Y41929407D01*
X29693428Y41929407D01*
X29705262Y41721462D01*
X29749908Y41516201D01*
X29827584Y41316871D01*
X29938504Y41126720D01*
X29996075Y41049090D01*
X30142697Y40892391D01*
X30314365Y40757558D01*
X30504330Y40648972D01*
X30705840Y40571019D01*
X30752143Y40558133D01*
X30896770Y40532028D01*
X31059004Y40521299D01*
X31224053Y40525936D01*
X31377124Y40545927D01*
X31433419Y40558671D01*
X31586551Y40610542D01*
X31745941Y40685164D01*
X31897515Y40775235D01*
X32007193Y40856403D01*
X32160816Y41006736D01*
X32286176Y41177302D01*
X32382275Y41364389D01*
X32448110Y41564284D01*
X32482683Y41773274D01*
X32484992Y41987647D01*
X32454039Y42203689D01*
X32411254Y42356252D01*
X32338027Y42530176D01*
X32239761Y42690571D01*
X32111733Y42844713D01*
X32059849Y42897714D01*
X31891604Y43041003D01*
X31710645Y43151195D01*
X31514463Y43229404D01*
X31300551Y43276743D01*
X31175553Y43289946D01*
X30952060Y43287882D01*
X30736847Y43251056D01*
X30532546Y43180450D01*
X30341792Y43077049D01*
X30167218Y42941834D01*
X30118894Y42895712D01*
X29969903Y42723066D01*
X29852645Y42536865D01*
X29767336Y42340356D01*
X29714191Y42136788D01*
X29693428Y41929407D01*
X29387359Y41929407D01*
X29389183Y42049323D01*
X29425524Y42282741D01*
X29495141Y42508721D01*
X29505648Y42534857D01*
X29615284Y42755412D01*
X29753148Y42957041D01*
X29916087Y43136727D01*
X30100946Y43291451D01*
X30304573Y43418196D01*
X30523813Y43513945D01*
X30531695Y43516686D01*
X30725384Y43567898D01*
X30936157Y43596229D01*
X31153387Y43601539D01*
X31366452Y43583688D01*
G37*
X42246842Y43595935D02*
X42491989Y43556490D01*
X42626643Y43519909D01*
X42845262Y43432938D01*
X43050607Y43313684D01*
X43239296Y43164777D01*
X43407945Y42988844D01*
X43538883Y42810993D01*
X43647921Y42609595D01*
X43726769Y42392874D01*
X43775461Y42165583D01*
X43794029Y41932479D01*
X43782508Y41698318D01*
X43740931Y41467856D01*
X43669330Y41245847D01*
X43567740Y41037049D01*
X43525976Y40969302D01*
X43387165Y40788432D01*
X43220386Y40624691D01*
X43031571Y40482275D01*
X42826655Y40365385D01*
X42611573Y40278218D01*
X42506782Y40248247D01*
X42339154Y40217422D01*
X42157777Y40202276D01*
X41976261Y40203121D01*
X41808217Y40220267D01*
X41751340Y40230988D01*
X41517487Y40296789D01*
X41305088Y40388978D01*
X41109181Y40510356D01*
X40924806Y40663722D01*
X40846165Y40741946D01*
X40687735Y40932322D01*
X40562368Y41137569D01*
X40470291Y41357121D01*
X40411730Y41590411D01*
X40386911Y41836870D01*
X40386000Y41895760D01*
X40386835Y41910047D01*
X40697254Y41910047D01*
X40700758Y41771146D01*
X40714720Y41647329D01*
X40720659Y41616645D01*
X40782645Y41413350D01*
X40875913Y41222645D01*
X40996897Y41047800D01*
X41142033Y40892082D01*
X41307755Y40758759D01*
X41490498Y40651100D01*
X41686698Y40572374D01*
X41892789Y40525847D01*
X41913499Y40523128D01*
X42071350Y40514321D01*
X42240778Y40522781D01*
X42402203Y40547249D01*
X42445071Y40557249D01*
X42632878Y40622601D01*
X42815622Y40719018D01*
X42986435Y40841321D01*
X43138449Y40984335D01*
X43264794Y41142883D01*
X43303552Y41204261D01*
X43389562Y41384341D01*
X43448816Y41582351D01*
X43480311Y41790655D01*
X43483043Y42001619D01*
X43456007Y42207610D01*
X43442866Y42263744D01*
X43375893Y42453577D01*
X43277334Y42635408D01*
X43151816Y42803598D01*
X43003960Y42952507D01*
X42838392Y43076496D01*
X42723519Y43141027D01*
X42593285Y43200756D01*
X42478460Y43242260D01*
X42366443Y43268436D01*
X42244632Y43282183D01*
X42100424Y43286400D01*
X42091428Y43286413D01*
X41914795Y43279192D01*
X41760248Y43255577D01*
X41616251Y43212820D01*
X41471269Y43148173D01*
X41438285Y43130842D01*
X41258817Y43014421D01*
X41096049Y42869294D01*
X40954505Y42700938D01*
X40838708Y42514828D01*
X40753180Y42316441D01*
X40744965Y42291438D01*
X40719811Y42182774D01*
X40703756Y42051449D01*
X40697254Y41910047D01*
X40386835Y41910047D01*
X40400302Y42140432D01*
X40444255Y42366631D01*
X40519430Y42578866D01*
X40627396Y42781645D01*
X40758697Y42965804D01*
X40925783Y43146665D01*
X41113058Y43298734D01*
X41317512Y43421119D01*
X41536129Y43512925D01*
X41765899Y43573259D01*
X42003807Y43601227D01*
X42246842Y43595935D01*
G36*
X42246842Y43595935D02*
G01*
X42491989Y43556490D01*
X42626643Y43519909D01*
X42845262Y43432938D01*
X43050607Y43313684D01*
X43239296Y43164777D01*
X43407945Y42988844D01*
X43538883Y42810993D01*
X43647921Y42609595D01*
X43726769Y42392874D01*
X43775461Y42165583D01*
X43794029Y41932479D01*
X43782508Y41698318D01*
X43740931Y41467856D01*
X43669330Y41245847D01*
X43567740Y41037049D01*
X43525976Y40969302D01*
X43387165Y40788432D01*
X43220386Y40624691D01*
X43031571Y40482275D01*
X42826655Y40365385D01*
X42611573Y40278218D01*
X42506782Y40248247D01*
X42339154Y40217422D01*
X42157777Y40202276D01*
X41976261Y40203121D01*
X41808217Y40220267D01*
X41751340Y40230988D01*
X41517487Y40296789D01*
X41305088Y40388978D01*
X41109181Y40510356D01*
X40924806Y40663722D01*
X40846165Y40741946D01*
X40687735Y40932322D01*
X40562368Y41137569D01*
X40470291Y41357121D01*
X40411730Y41590411D01*
X40386911Y41836870D01*
X40386000Y41895760D01*
X40386835Y41910047D01*
X40697254Y41910047D01*
X40700758Y41771146D01*
X40714720Y41647329D01*
X40720659Y41616645D01*
X40782645Y41413350D01*
X40875913Y41222645D01*
X40996897Y41047800D01*
X41142033Y40892082D01*
X41307755Y40758759D01*
X41490498Y40651100D01*
X41686698Y40572374D01*
X41892789Y40525847D01*
X41913499Y40523128D01*
X42071350Y40514321D01*
X42240778Y40522781D01*
X42402203Y40547249D01*
X42445071Y40557249D01*
X42632878Y40622601D01*
X42815622Y40719018D01*
X42986435Y40841321D01*
X43138449Y40984335D01*
X43264794Y41142883D01*
X43303552Y41204261D01*
X43389562Y41384341D01*
X43448816Y41582351D01*
X43480311Y41790655D01*
X43483043Y42001619D01*
X43456007Y42207610D01*
X43442866Y42263744D01*
X43375893Y42453577D01*
X43277334Y42635408D01*
X43151816Y42803598D01*
X43003960Y42952507D01*
X42838392Y43076496D01*
X42723519Y43141027D01*
X42593285Y43200756D01*
X42478460Y43242260D01*
X42366443Y43268436D01*
X42244632Y43282183D01*
X42100424Y43286400D01*
X42091428Y43286413D01*
X41914795Y43279192D01*
X41760248Y43255577D01*
X41616251Y43212820D01*
X41471269Y43148173D01*
X41438285Y43130842D01*
X41258817Y43014421D01*
X41096049Y42869294D01*
X40954505Y42700938D01*
X40838708Y42514828D01*
X40753180Y42316441D01*
X40744965Y42291438D01*
X40719811Y42182774D01*
X40703756Y42051449D01*
X40697254Y41910047D01*
X40386835Y41910047D01*
X40400302Y42140432D01*
X40444255Y42366631D01*
X40519430Y42578866D01*
X40627396Y42781645D01*
X40758697Y42965804D01*
X40925783Y43146665D01*
X41113058Y43298734D01*
X41317512Y43421119D01*
X41536129Y43512925D01*
X41765899Y43573259D01*
X42003807Y43601227D01*
X42246842Y43595935D01*
G37*
X34939857Y43594260D02*
X35172921Y43555746D01*
X35396231Y43486814D01*
X35589167Y43396224D01*
X35796262Y43260441D01*
X35979630Y43099093D01*
X36137030Y42915087D01*
X36266226Y42711329D01*
X36364976Y42490727D01*
X36416088Y42322610D01*
X36441319Y42182319D01*
X36455147Y42020480D01*
X36457565Y41849790D01*
X36448568Y41682943D01*
X36428151Y41532638D01*
X36416485Y41478775D01*
X36345129Y41255480D01*
X36245260Y41051700D01*
X36114477Y40863295D01*
X35965220Y40700400D01*
X35769796Y40533694D01*
X35560216Y40400074D01*
X35334543Y40298458D01*
X35138278Y40238783D01*
X35037423Y40220798D01*
X34913220Y40208765D01*
X34778166Y40203003D01*
X34644759Y40203830D01*
X34525495Y40211564D01*
X34456315Y40221412D01*
X34224869Y40280672D01*
X34013246Y40366934D01*
X33816791Y40482751D01*
X33630853Y40630679D01*
X33525956Y40732236D01*
X33367714Y40916494D01*
X33243130Y41109078D01*
X33149803Y41314259D01*
X33093269Y41501711D01*
X33074083Y41611273D01*
X33061683Y41744119D01*
X33056246Y41888325D01*
X33056329Y41895393D01*
X33364833Y41895393D01*
X33371785Y41739345D01*
X33392872Y41598571D01*
X33398759Y41573587D01*
X33468796Y41369107D01*
X33571177Y41176270D01*
X33702546Y41000233D01*
X33859544Y40846154D01*
X33886754Y40823934D01*
X33998294Y40740202D01*
X34099413Y40676836D01*
X34203187Y40626558D01*
X34319068Y40583301D01*
X34523010Y40533027D01*
X34737315Y40513880D01*
X34953231Y40526145D01*
X35115357Y40557249D01*
X35304539Y40623204D01*
X35486961Y40720344D01*
X35656741Y40843829D01*
X35807997Y40988816D01*
X35934847Y41150464D01*
X36022063Y41303597D01*
X36075638Y41428046D01*
X36112418Y41543441D01*
X36134965Y41661930D01*
X36145841Y41795658D01*
X36147875Y41899857D01*
X36144507Y42044899D01*
X36131754Y42166906D01*
X36106699Y42278547D01*
X36066428Y42392491D01*
X36008025Y42521408D01*
X36002040Y42533647D01*
X35961667Y42611833D01*
X35922559Y42676067D01*
X35877552Y42735893D01*
X35819483Y42800857D01*
X35743346Y42878361D01*
X35649358Y42968032D01*
X35568310Y43036049D01*
X35491057Y43089551D01*
X35423750Y43127794D01*
X35215782Y43216860D01*
X34999369Y43272014D01*
X34778566Y43292956D01*
X34557423Y43279389D01*
X34339993Y43231013D01*
X34282655Y43212018D01*
X34099441Y43128550D01*
X33926247Y43014050D01*
X33767817Y42873386D01*
X33628898Y42711426D01*
X33514236Y42533039D01*
X33428576Y42343093D01*
X33424585Y42331789D01*
X33391653Y42203953D01*
X33371596Y42054375D01*
X33364833Y41895393D01*
X33056329Y41895393D01*
X33057948Y42031967D01*
X33066964Y42163120D01*
X33082011Y42263158D01*
X33148124Y42489279D01*
X33246819Y42704611D01*
X33375072Y42905354D01*
X33529858Y43087705D01*
X33708153Y43247863D01*
X33906931Y43382024D01*
X34019022Y43441035D01*
X34236621Y43525745D01*
X34466258Y43579415D01*
X34702486Y43602202D01*
X34939857Y43594260D01*
G36*
X34939857Y43594260D02*
G01*
X35172921Y43555746D01*
X35396231Y43486814D01*
X35589167Y43396224D01*
X35796262Y43260441D01*
X35979630Y43099093D01*
X36137030Y42915087D01*
X36266226Y42711329D01*
X36364976Y42490727D01*
X36416088Y42322610D01*
X36441319Y42182319D01*
X36455147Y42020480D01*
X36457565Y41849790D01*
X36448568Y41682943D01*
X36428151Y41532638D01*
X36416485Y41478775D01*
X36345129Y41255480D01*
X36245260Y41051700D01*
X36114477Y40863295D01*
X35965220Y40700400D01*
X35769796Y40533694D01*
X35560216Y40400074D01*
X35334543Y40298458D01*
X35138278Y40238783D01*
X35037423Y40220798D01*
X34913220Y40208765D01*
X34778166Y40203003D01*
X34644759Y40203830D01*
X34525495Y40211564D01*
X34456315Y40221412D01*
X34224869Y40280672D01*
X34013246Y40366934D01*
X33816791Y40482751D01*
X33630853Y40630679D01*
X33525956Y40732236D01*
X33367714Y40916494D01*
X33243130Y41109078D01*
X33149803Y41314259D01*
X33093269Y41501711D01*
X33074083Y41611273D01*
X33061683Y41744119D01*
X33056246Y41888325D01*
X33056329Y41895393D01*
X33364833Y41895393D01*
X33371785Y41739345D01*
X33392872Y41598571D01*
X33398759Y41573587D01*
X33468796Y41369107D01*
X33571177Y41176270D01*
X33702546Y41000233D01*
X33859544Y40846154D01*
X33886754Y40823934D01*
X33998294Y40740202D01*
X34099413Y40676836D01*
X34203187Y40626558D01*
X34319068Y40583301D01*
X34523010Y40533027D01*
X34737315Y40513880D01*
X34953231Y40526145D01*
X35115357Y40557249D01*
X35304539Y40623204D01*
X35486961Y40720344D01*
X35656741Y40843829D01*
X35807997Y40988816D01*
X35934847Y41150464D01*
X36022063Y41303597D01*
X36075638Y41428046D01*
X36112418Y41543441D01*
X36134965Y41661930D01*
X36145841Y41795658D01*
X36147875Y41899857D01*
X36144507Y42044899D01*
X36131754Y42166906D01*
X36106699Y42278547D01*
X36066428Y42392491D01*
X36008025Y42521408D01*
X36002040Y42533647D01*
X35961667Y42611833D01*
X35922559Y42676067D01*
X35877552Y42735893D01*
X35819483Y42800857D01*
X35743346Y42878361D01*
X35649358Y42968032D01*
X35568310Y43036049D01*
X35491057Y43089551D01*
X35423750Y43127794D01*
X35215782Y43216860D01*
X34999369Y43272014D01*
X34778566Y43292956D01*
X34557423Y43279389D01*
X34339993Y43231013D01*
X34282655Y43212018D01*
X34099441Y43128550D01*
X33926247Y43014050D01*
X33767817Y42873386D01*
X33628898Y42711426D01*
X33514236Y42533039D01*
X33428576Y42343093D01*
X33424585Y42331789D01*
X33391653Y42203953D01*
X33371596Y42054375D01*
X33364833Y41895393D01*
X33056329Y41895393D01*
X33057948Y42031967D01*
X33066964Y42163120D01*
X33082011Y42263158D01*
X33148124Y42489279D01*
X33246819Y42704611D01*
X33375072Y42905354D01*
X33529858Y43087705D01*
X33708153Y43247863D01*
X33906931Y43382024D01*
X34019022Y43441035D01*
X34236621Y43525745D01*
X34466258Y43579415D01*
X34702486Y43602202D01*
X34939857Y43594260D01*
G37*
X38580497Y43595952D02*
X38815964Y43558843D01*
X39042241Y43491957D01*
X39253838Y43395988D01*
X39357126Y43334245D01*
X39556099Y43183197D01*
X39728477Y43008769D01*
X39872565Y42813326D01*
X39986670Y42599233D01*
X40069097Y42368855D01*
X40080902Y42323983D01*
X40106828Y42180819D01*
X40120851Y42016346D01*
X40122966Y41843358D01*
X40113170Y41674650D01*
X40091455Y41523016D01*
X40081228Y41477104D01*
X40011023Y41256986D01*
X39913718Y41056850D01*
X39786384Y40871698D01*
X39626096Y40696532D01*
X39621444Y40692048D01*
X39455178Y40546851D01*
X39287865Y40431749D01*
X39110883Y40341351D01*
X38980276Y40291124D01*
X38751011Y40230474D01*
X38513941Y40200744D01*
X38277738Y40202621D01*
X38118143Y40223000D01*
X37892831Y40281619D01*
X37676807Y40372450D01*
X37473824Y40492226D01*
X37287631Y40637679D01*
X37121980Y40805542D01*
X36980622Y40992547D01*
X36867308Y41195426D01*
X36797183Y41373714D01*
X36763458Y41488890D01*
X36740760Y41594670D01*
X36727773Y41702195D01*
X36723183Y41822610D01*
X36724609Y41905347D01*
X37029886Y41905347D01*
X37038432Y41728972D01*
X37065328Y41572589D01*
X37113478Y41423357D01*
X37164379Y41310214D01*
X37281747Y41111895D01*
X37423631Y40940255D01*
X37590726Y40794601D01*
X37783726Y40674239D01*
X37820985Y40655346D01*
X37932604Y40604081D01*
X38032625Y40567556D01*
X38131093Y40543810D01*
X38238052Y40530885D01*
X38363548Y40526818D01*
X38471928Y40528299D01*
X38587783Y40532538D01*
X38676421Y40539127D01*
X38746889Y40549206D01*
X38808236Y40563913D01*
X38843465Y40575103D01*
X39008452Y40639957D01*
X39151614Y40716399D01*
X39284674Y40811738D01*
X39419352Y40933283D01*
X39422005Y40935895D01*
X39500337Y41017332D01*
X39563461Y41091332D01*
X39608432Y41153785D01*
X39632307Y41200579D01*
X39632142Y41227604D01*
X39631431Y41228381D01*
X39610710Y41240268D01*
X39563457Y41263456D01*
X39496282Y41294988D01*
X39415792Y41331903D01*
X39328595Y41371242D01*
X39241300Y41410045D01*
X39160516Y41445354D01*
X39092849Y41474208D01*
X39044909Y41493648D01*
X39023347Y41500714D01*
X39009463Y41485469D01*
X38992458Y41448274D01*
X38990700Y41443365D01*
X38937869Y41344762D01*
X38855408Y41259383D01*
X38748931Y41191825D01*
X38630208Y41148225D01*
X38544500Y41126306D01*
X38542376Y41000546D01*
X38540253Y40874786D01*
X38344928Y40874786D01*
X38334358Y41133340D01*
X38227666Y41145411D01*
X38132675Y41166560D01*
X38027910Y41206186D01*
X37929461Y41257317D01*
X37865366Y41302403D01*
X37821231Y41339539D01*
X37941851Y41460159D01*
X38062471Y41580778D01*
X38104140Y41541633D01*
X38175844Y41491180D01*
X38264433Y41453738D01*
X38360297Y41430921D01*
X38453826Y41424343D01*
X38535408Y41435618D01*
X38588083Y41460371D01*
X38617772Y41488939D01*
X38631706Y41525233D01*
X38635214Y41583263D01*
X38635214Y41584280D01*
X38633109Y41638870D01*
X38622140Y41670487D01*
X38595323Y41692395D01*
X38571714Y41704898D01*
X38520855Y41729354D01*
X38445545Y41764095D01*
X38349873Y41807346D01*
X38237926Y41857330D01*
X38113793Y41912272D01*
X37981560Y41970397D01*
X37845315Y42029929D01*
X37709145Y42089093D01*
X37577140Y42146113D01*
X37453385Y42199213D01*
X37341969Y42246618D01*
X37246980Y42286552D01*
X37172505Y42317240D01*
X37122631Y42336906D01*
X37101446Y42343775D01*
X37101079Y42343700D01*
X37085594Y42317671D01*
X37069846Y42263314D01*
X37055123Y42188558D01*
X37042712Y42101325D01*
X37033899Y42009544D01*
X37029974Y41921139D01*
X37029886Y41905347D01*
X36724609Y41905347D01*
X36725673Y41967056D01*
X36726016Y41976632D01*
X36746045Y42206086D01*
X36789987Y42412986D01*
X36860269Y42604021D01*
X36897729Y42672798D01*
X37265630Y42672798D01*
X37281166Y42656069D01*
X37321722Y42631385D01*
X37378544Y42604068D01*
X37379022Y42603861D01*
X37442491Y42576202D01*
X37527129Y42539009D01*
X37620976Y42497548D01*
X37696374Y42464080D01*
X37900534Y42373224D01*
X37937260Y42445213D01*
X38002479Y42533262D01*
X38098788Y42603016D01*
X38225796Y42654222D01*
X38285964Y42669645D01*
X38312079Y42677245D01*
X38326997Y42691300D01*
X38333850Y42720453D01*
X38335769Y42773343D01*
X38335857Y42807346D01*
X38335857Y42934000D01*
X38535428Y42934000D01*
X38535428Y42681644D01*
X38603464Y42670492D01*
X38686114Y42651338D01*
X38774444Y42621976D01*
X38855314Y42587466D01*
X38915584Y42552867D01*
X38922385Y42547703D01*
X38972383Y42507643D01*
X38753621Y42291537D01*
X38667696Y42333283D01*
X38575013Y42367818D01*
X38482475Y42383989D01*
X38396922Y42382512D01*
X38325195Y42364104D01*
X38274134Y42329481D01*
X38252560Y42289796D01*
X38248920Y42248936D01*
X38256450Y42226027D01*
X38276220Y42215221D01*
X38325075Y42191733D01*
X38398903Y42157390D01*
X38493596Y42114024D01*
X38605046Y42063462D01*
X38729142Y42007536D01*
X38861775Y41948073D01*
X38998837Y41886904D01*
X39136218Y41825858D01*
X39269809Y41766764D01*
X39395501Y41711453D01*
X39509184Y41661752D01*
X39606750Y41619492D01*
X39684089Y41586502D01*
X39737091Y41564612D01*
X39761649Y41555651D01*
X39762492Y41555531D01*
X39780742Y41570817D01*
X39793829Y41605036D01*
X39816011Y41767265D01*
X39818527Y41945907D01*
X39802174Y42127412D01*
X39767753Y42298230D01*
X39749303Y42359931D01*
X39674341Y42532798D01*
X39568572Y42700210D01*
X39437473Y42856372D01*
X39286522Y42995488D01*
X39121195Y43111762D01*
X38961748Y43193307D01*
X38759792Y43259028D01*
X38548543Y43292100D01*
X38333563Y43292978D01*
X38120415Y43262119D01*
X37914661Y43199978D01*
X37721866Y43107011D01*
X37692601Y43089312D01*
X37636957Y43050024D01*
X37570994Y42996380D01*
X37500194Y42933730D01*
X37430044Y42867424D01*
X37366028Y42802813D01*
X37313631Y42745246D01*
X37278338Y42700075D01*
X37265630Y42672798D01*
X36897729Y42672798D01*
X36959319Y42785877D01*
X37081043Y42954698D01*
X37227739Y43115408D01*
X37394283Y43259616D01*
X37573318Y43382061D01*
X37757489Y43477483D01*
X37873846Y43521681D01*
X38103949Y43578064D01*
X38341329Y43602590D01*
X38580497Y43595952D01*
G36*
X38580497Y43595952D02*
G01*
X38815964Y43558843D01*
X39042241Y43491957D01*
X39253838Y43395988D01*
X39357126Y43334245D01*
X39556099Y43183197D01*
X39728477Y43008769D01*
X39872565Y42813326D01*
X39986670Y42599233D01*
X40069097Y42368855D01*
X40080902Y42323983D01*
X40106828Y42180819D01*
X40120851Y42016346D01*
X40122966Y41843358D01*
X40113170Y41674650D01*
X40091455Y41523016D01*
X40081228Y41477104D01*
X40011023Y41256986D01*
X39913718Y41056850D01*
X39786384Y40871698D01*
X39626096Y40696532D01*
X39621444Y40692048D01*
X39455178Y40546851D01*
X39287865Y40431749D01*
X39110883Y40341351D01*
X38980276Y40291124D01*
X38751011Y40230474D01*
X38513941Y40200744D01*
X38277738Y40202621D01*
X38118143Y40223000D01*
X37892831Y40281619D01*
X37676807Y40372450D01*
X37473824Y40492226D01*
X37287631Y40637679D01*
X37121980Y40805542D01*
X36980622Y40992547D01*
X36867308Y41195426D01*
X36797183Y41373714D01*
X36763458Y41488890D01*
X36740760Y41594670D01*
X36727773Y41702195D01*
X36723183Y41822610D01*
X36724609Y41905347D01*
X37029886Y41905347D01*
X37038432Y41728972D01*
X37065328Y41572589D01*
X37113478Y41423357D01*
X37164379Y41310214D01*
X37281747Y41111895D01*
X37423631Y40940255D01*
X37590726Y40794601D01*
X37783726Y40674239D01*
X37820985Y40655346D01*
X37932604Y40604081D01*
X38032625Y40567556D01*
X38131093Y40543810D01*
X38238052Y40530885D01*
X38363548Y40526818D01*
X38471928Y40528299D01*
X38587783Y40532538D01*
X38676421Y40539127D01*
X38746889Y40549206D01*
X38808236Y40563913D01*
X38843465Y40575103D01*
X39008452Y40639957D01*
X39151614Y40716399D01*
X39284674Y40811738D01*
X39419352Y40933283D01*
X39422005Y40935895D01*
X39500337Y41017332D01*
X39563461Y41091332D01*
X39608432Y41153785D01*
X39632307Y41200579D01*
X39632142Y41227604D01*
X39631431Y41228381D01*
X39610710Y41240268D01*
X39563457Y41263456D01*
X39496282Y41294988D01*
X39415792Y41331903D01*
X39328595Y41371242D01*
X39241300Y41410045D01*
X39160516Y41445354D01*
X39092849Y41474208D01*
X39044909Y41493648D01*
X39023347Y41500714D01*
X39009463Y41485469D01*
X38992458Y41448274D01*
X38990700Y41443365D01*
X38937869Y41344762D01*
X38855408Y41259383D01*
X38748931Y41191825D01*
X38630208Y41148225D01*
X38544500Y41126306D01*
X38542376Y41000546D01*
X38540253Y40874786D01*
X38344928Y40874786D01*
X38334358Y41133340D01*
X38227666Y41145411D01*
X38132675Y41166560D01*
X38027910Y41206186D01*
X37929461Y41257317D01*
X37865366Y41302403D01*
X37821231Y41339539D01*
X37941851Y41460159D01*
X38062471Y41580778D01*
X38104140Y41541633D01*
X38175844Y41491180D01*
X38264433Y41453738D01*
X38360297Y41430921D01*
X38453826Y41424343D01*
X38535408Y41435618D01*
X38588083Y41460371D01*
X38617772Y41488939D01*
X38631706Y41525233D01*
X38635214Y41583263D01*
X38635214Y41584280D01*
X38633109Y41638870D01*
X38622140Y41670487D01*
X38595323Y41692395D01*
X38571714Y41704898D01*
X38520855Y41729354D01*
X38445545Y41764095D01*
X38349873Y41807346D01*
X38237926Y41857330D01*
X38113793Y41912272D01*
X37981560Y41970397D01*
X37845315Y42029929D01*
X37709145Y42089093D01*
X37577140Y42146113D01*
X37453385Y42199213D01*
X37341969Y42246618D01*
X37246980Y42286552D01*
X37172505Y42317240D01*
X37122631Y42336906D01*
X37101446Y42343775D01*
X37101079Y42343700D01*
X37085594Y42317671D01*
X37069846Y42263314D01*
X37055123Y42188558D01*
X37042712Y42101325D01*
X37033899Y42009544D01*
X37029974Y41921139D01*
X37029886Y41905347D01*
X36724609Y41905347D01*
X36725673Y41967056D01*
X36726016Y41976632D01*
X36746045Y42206086D01*
X36789987Y42412986D01*
X36860269Y42604021D01*
X36897729Y42672798D01*
X37265630Y42672798D01*
X37281166Y42656069D01*
X37321722Y42631385D01*
X37378544Y42604068D01*
X37379022Y42603861D01*
X37442491Y42576202D01*
X37527129Y42539009D01*
X37620976Y42497548D01*
X37696374Y42464080D01*
X37900534Y42373224D01*
X37937260Y42445213D01*
X38002479Y42533262D01*
X38098788Y42603016D01*
X38225796Y42654222D01*
X38285964Y42669645D01*
X38312079Y42677245D01*
X38326997Y42691300D01*
X38333850Y42720453D01*
X38335769Y42773343D01*
X38335857Y42807346D01*
X38335857Y42934000D01*
X38535428Y42934000D01*
X38535428Y42681644D01*
X38603464Y42670492D01*
X38686114Y42651338D01*
X38774444Y42621976D01*
X38855314Y42587466D01*
X38915584Y42552867D01*
X38922385Y42547703D01*
X38972383Y42507643D01*
X38753621Y42291537D01*
X38667696Y42333283D01*
X38575013Y42367818D01*
X38482475Y42383989D01*
X38396922Y42382512D01*
X38325195Y42364104D01*
X38274134Y42329481D01*
X38252560Y42289796D01*
X38248920Y42248936D01*
X38256450Y42226027D01*
X38276220Y42215221D01*
X38325075Y42191733D01*
X38398903Y42157390D01*
X38493596Y42114024D01*
X38605046Y42063462D01*
X38729142Y42007536D01*
X38861775Y41948073D01*
X38998837Y41886904D01*
X39136218Y41825858D01*
X39269809Y41766764D01*
X39395501Y41711453D01*
X39509184Y41661752D01*
X39606750Y41619492D01*
X39684089Y41586502D01*
X39737091Y41564612D01*
X39761649Y41555651D01*
X39762492Y41555531D01*
X39780742Y41570817D01*
X39793829Y41605036D01*
X39816011Y41767265D01*
X39818527Y41945907D01*
X39802174Y42127412D01*
X39767753Y42298230D01*
X39749303Y42359931D01*
X39674341Y42532798D01*
X39568572Y42700210D01*
X39437473Y42856372D01*
X39286522Y42995488D01*
X39121195Y43111762D01*
X38961748Y43193307D01*
X38759792Y43259028D01*
X38548543Y43292100D01*
X38333563Y43292978D01*
X38120415Y43262119D01*
X37914661Y43199978D01*
X37721866Y43107011D01*
X37692601Y43089312D01*
X37636957Y43050024D01*
X37570994Y42996380D01*
X37500194Y42933730D01*
X37430044Y42867424D01*
X37366028Y42802813D01*
X37313631Y42745246D01*
X37278338Y42700075D01*
X37265630Y42672798D01*
X36897729Y42672798D01*
X36959319Y42785877D01*
X37081043Y42954698D01*
X37227739Y43115408D01*
X37394283Y43259616D01*
X37573318Y43382061D01*
X37757489Y43477483D01*
X37873846Y43521681D01*
X38103949Y43578064D01*
X38341329Y43602590D01*
X38580497Y43595952D01*
G37*
D12*
%TO.C,Module2*%
X64735000Y30020000D02*
X64735000Y29520000D01*
X64735000Y30020000D02*
X85435000Y30020000D01*
X64735000Y13020000D02*
X64735000Y13520000D01*
X85435000Y30020000D02*
X85435000Y13020000D01*
X85435000Y13020000D02*
X64735000Y13020000D01*
X84235000Y23020000D02*
G75*
G02*
X83235000Y23020000I-500000J0D01*
G01*
X83235000Y23020000D02*
G75*
G02*
X84235000Y23020000I500000J0D01*
G01*
D13*
X85316139Y20520000D02*
G75*
G02*
X82153861Y20520000I-1581139J0D01*
G01*
X82153861Y20520000D02*
G75*
G02*
X85316139Y20520000I1581139J0D01*
G01*
D12*
X84235000Y18020000D02*
G75*
G02*
X83235000Y18020000I-500000J0D01*
G01*
X83235000Y18020000D02*
G75*
G02*
X84235000Y18020000I500000J0D01*
G01*
D13*
%TO.C,Q1*%
X68973000Y44070000D02*
X68973000Y41530000D01*
X68973000Y44070000D02*
X75793000Y44070000D01*
X68973000Y43331000D02*
X69084000Y43331000D01*
X68973000Y41530000D02*
X75793000Y41530000D01*
X71102000Y43331000D02*
X71375000Y43331000D01*
X73392000Y43331000D02*
X73665000Y43331000D01*
X75682000Y43331000D02*
X75793000Y43331000D01*
X75793000Y44070000D02*
X75793000Y41530000D01*
%TO.C,R1*%
X5684000Y32916000D02*
X5684000Y29076000D01*
X7524000Y32916000D02*
X7524000Y29076000D01*
%TO.C,R2*%
X16915000Y51570000D02*
X17685000Y51570000D01*
X17685000Y52940000D02*
X17685000Y50200000D01*
X17685000Y50200000D02*
X24225000Y50200000D01*
X24225000Y52940000D02*
X17685000Y52940000D01*
X24225000Y50200000D02*
X24225000Y52940000D01*
X24995000Y51570000D02*
X24225000Y51570000D01*
%TO.C,R13*%
X51704000Y44108000D02*
X47864000Y44108000D01*
X51704000Y42268000D02*
X47864000Y42268000D01*
%TO.C,R14*%
X55738000Y39409000D02*
X59578000Y39409000D01*
X55738000Y37569000D02*
X59578000Y37569000D01*
%TO.C,R17*%
X60340000Y35345000D02*
X56500000Y35345000D01*
X60340000Y33505000D02*
X56500000Y33505000D01*
%TO.C,R22*%
X16026000Y55380000D02*
X20526000Y55380000D01*
X20526000Y57100000D02*
X20526000Y53660000D01*
X20526000Y53660000D02*
X29766000Y53660000D01*
X29766000Y57100000D02*
X20526000Y57100000D01*
X29766000Y53660000D02*
X29766000Y57100000D01*
X34266000Y55380000D02*
X29766000Y55380000D01*
%TO.C,SW1*%
X16058000Y9140000D02*
X16058000Y7640000D01*
X17308000Y5140000D02*
X21808000Y5140000D01*
X21808000Y11640000D02*
X17308000Y11640000D01*
X23058000Y7640000D02*
X23058000Y9140000D01*
D12*
%TO.C,Module1*%
X8890000Y33790000D02*
X8890000Y16010000D01*
X8890000Y16010000D02*
X41910000Y16010000D01*
X21590000Y24900000D02*
X26670000Y19820000D01*
X26670000Y29980000D02*
X21590000Y24900000D01*
X26670000Y19820000D02*
X31750000Y24900000D01*
X31750000Y24900000D02*
X26670000Y29980000D01*
X36830000Y27440000D02*
X36830000Y22360000D01*
X36830000Y22360000D02*
X39370000Y22360000D01*
X39370000Y27440000D02*
X36830000Y27440000D01*
X39370000Y22360000D02*
X39370000Y27440000D01*
X41910000Y33790000D02*
X8890000Y33790000D01*
X41910000Y16010000D02*
X41910000Y33790000D01*
X10795000Y31250000D02*
G75*
G02*
X9525000Y31250000I-635000J0D01*
G01*
X9525000Y31250000D02*
G75*
G02*
X10795000Y31250000I635000J0D01*
G01*
X10795000Y28710000D02*
G75*
G02*
X9525000Y28710000I-635000J0D01*
G01*
X9525000Y28710000D02*
G75*
G02*
X10795000Y28710000I635000J0D01*
G01*
X10795000Y26170000D02*
G75*
G02*
X9525000Y26170000I-635000J0D01*
G01*
X9525000Y26170000D02*
G75*
G02*
X10795000Y26170000I635000J0D01*
G01*
X10795000Y23630000D02*
G75*
G02*
X9525000Y23630000I-635000J0D01*
G01*
X9525000Y23630000D02*
G75*
G02*
X10795000Y23630000I635000J0D01*
G01*
X10795000Y21090000D02*
G75*
G02*
X9525000Y21090000I-635000J0D01*
G01*
X9525000Y21090000D02*
G75*
G02*
X10795000Y21090000I635000J0D01*
G01*
X10795000Y18550000D02*
G75*
G02*
X9525000Y18550000I-635000J0D01*
G01*
X9525000Y18550000D02*
G75*
G02*
X10795000Y18550000I635000J0D01*
G01*
D13*
%TO.C,R3*%
X64628000Y40298000D02*
X68468000Y40298000D01*
X64628000Y38458000D02*
X68468000Y38458000D01*
%TO.C,J1*%
X81220000Y48612000D02*
X82550000Y48612000D01*
X81220000Y47282000D02*
X81220000Y48612000D01*
X81220000Y46012000D02*
X81220000Y43412000D01*
X81220000Y46012000D02*
X83880000Y46012000D01*
X81220000Y43412000D02*
X83880000Y43412000D01*
X83880000Y46012000D02*
X83880000Y43412000D01*
D15*
%TO.C,Q4*%
X82001000Y41918000D02*
X84922000Y41791000D01*
X84922000Y31885000D02*
X82001000Y31758000D01*
X84922000Y31885000D02*
X85176000Y32139000D01*
X85176000Y41537000D02*
X84922000Y41791000D01*
X85176000Y41537000D02*
X85176000Y32139000D01*
X84820400Y32342200D02*
G75*
G02*
X84312400Y32342200I-254000J0D01*
G01*
X84312400Y32342200D02*
G75*
G02*
X84820400Y32342200I254000J0D01*
G01*
D14*
X81620000Y31504000D02*
X80858000Y31504000D01*
X80858000Y42172000D01*
X81620000Y42172000D01*
X81620000Y31504000D01*
G36*
X81620000Y31504000D02*
G01*
X80858000Y31504000D01*
X80858000Y42172000D01*
X81620000Y42172000D01*
X81620000Y31504000D01*
G37*
X82128000Y40267000D02*
X81620000Y40267000D01*
X81620000Y42172000D01*
X82128000Y42172000D01*
X82128000Y40267000D01*
G36*
X82128000Y40267000D02*
G01*
X81620000Y40267000D01*
X81620000Y42172000D01*
X82128000Y42172000D01*
X82128000Y40267000D01*
G37*
X82128000Y37727000D02*
X81620000Y37727000D01*
X81620000Y38489000D01*
X82128000Y38489000D01*
X82128000Y37727000D01*
G36*
X82128000Y37727000D02*
G01*
X81620000Y37727000D01*
X81620000Y38489000D01*
X82128000Y38489000D01*
X82128000Y37727000D01*
G37*
X82128000Y35187000D02*
X81620000Y35187000D01*
X81620000Y35949000D01*
X82128000Y35949000D01*
X82128000Y35187000D01*
G36*
X82128000Y35187000D02*
G01*
X81620000Y35187000D01*
X81620000Y35949000D01*
X82128000Y35949000D01*
X82128000Y35187000D01*
G37*
X82128000Y31504000D02*
X81620000Y31504000D01*
X81620000Y33409000D01*
X82128000Y33409000D01*
X82128000Y31504000D01*
G36*
X82128000Y31504000D02*
G01*
X81620000Y31504000D01*
X81620000Y33409000D01*
X82128000Y33409000D01*
X82128000Y31504000D01*
G37*
D13*
%TO.C,R5*%
X40990000Y10310000D02*
X40990000Y6470000D01*
X42830000Y10310000D02*
X42830000Y6470000D01*
%TO.C,R6*%
X43530000Y10310000D02*
X43530000Y6470000D01*
X45370000Y10310000D02*
X45370000Y6470000D01*
%TO.C,R7*%
X46070000Y10310000D02*
X46070000Y6470000D01*
X47910000Y10310000D02*
X47910000Y6470000D01*
%TO.C,R8*%
X48610000Y10310000D02*
X48610000Y6470000D01*
X50450000Y10310000D02*
X50450000Y6470000D01*
%TO.C,R9*%
X76804000Y36980000D02*
X76804000Y33140000D01*
X78644000Y36980000D02*
X78644000Y33140000D01*
%TO.C,R10*%
X76550000Y45108000D02*
X76550000Y41268000D01*
X78390000Y45108000D02*
X78390000Y41268000D01*
%TO.C,R11*%
X38450000Y10310000D02*
X38450000Y6470000D01*
X40290000Y10310000D02*
X40290000Y6470000D01*
%TO.C,C1*%
X63459000Y34776000D02*
X63459000Y35344000D01*
X63499000Y34542000D02*
X63499000Y35578000D01*
X63539000Y34383000D02*
X63539000Y35737000D01*
X63579000Y34255000D02*
X63579000Y35865000D01*
X63619000Y34145000D02*
X63619000Y35975000D01*
X63659000Y34049000D02*
X63659000Y36071000D01*
X63699000Y33962000D02*
X63699000Y36158000D01*
X63739000Y33882000D02*
X63739000Y36238000D01*
X63779000Y36100000D02*
X63779000Y36311000D01*
X63779000Y33809000D02*
X63779000Y34020000D01*
X63819000Y36100000D02*
X63819000Y36379000D01*
X63819000Y33741000D02*
X63819000Y34020000D01*
X63859000Y36100000D02*
X63859000Y36443000D01*
X63859000Y33677000D02*
X63859000Y34020000D01*
X63899000Y36100000D02*
X63899000Y36503000D01*
X63899000Y33617000D02*
X63899000Y34020000D01*
X63939000Y36100000D02*
X63939000Y36560000D01*
X63939000Y33560000D02*
X63939000Y34020000D01*
X63979000Y36100000D02*
X63979000Y36614000D01*
X63979000Y33506000D02*
X63979000Y34020000D01*
X64019000Y36100000D02*
X64019000Y36665000D01*
X64019000Y33455000D02*
X64019000Y34020000D01*
X64059000Y36100000D02*
X64059000Y36713000D01*
X64059000Y33407000D02*
X64059000Y34020000D01*
X64099000Y36100000D02*
X64099000Y36759000D01*
X64099000Y33361000D02*
X64099000Y34020000D01*
X64139000Y36100000D02*
X64139000Y36803000D01*
X64139000Y33317000D02*
X64139000Y34020000D01*
X64179000Y36100000D02*
X64179000Y36845000D01*
X64179000Y33275000D02*
X64179000Y34020000D01*
X64219000Y36100000D02*
X64219000Y36886000D01*
X64219000Y33234000D02*
X64219000Y34020000D01*
X64259000Y36100000D02*
X64259000Y36924000D01*
X64259000Y33196000D02*
X64259000Y34020000D01*
X64299000Y36100000D02*
X64299000Y36961000D01*
X64299000Y33159000D02*
X64299000Y34020000D01*
X64339000Y36100000D02*
X64339000Y36997000D01*
X64339000Y33123000D02*
X64339000Y34020000D01*
X64379000Y36100000D02*
X64379000Y37031000D01*
X64379000Y33089000D02*
X64379000Y34020000D01*
X64419000Y36100000D02*
X64419000Y37064000D01*
X64419000Y33056000D02*
X64419000Y34020000D01*
X64459000Y36100000D02*
X64459000Y37095000D01*
X64459000Y33025000D02*
X64459000Y34020000D01*
X64499000Y36100000D02*
X64499000Y37125000D01*
X64499000Y32995000D02*
X64499000Y34020000D01*
X64539000Y36100000D02*
X64539000Y37155000D01*
X64539000Y32965000D02*
X64539000Y34020000D01*
X64579000Y36100000D02*
X64579000Y37182000D01*
X64579000Y32938000D02*
X64579000Y34020000D01*
X64619000Y36100000D02*
X64619000Y37209000D01*
X64619000Y32911000D02*
X64619000Y34020000D01*
X64659000Y36100000D02*
X64659000Y37235000D01*
X64659000Y32885000D02*
X64659000Y34020000D01*
X64699000Y36100000D02*
X64699000Y37260000D01*
X64699000Y32860000D02*
X64699000Y34020000D01*
X64739000Y36100000D02*
X64739000Y37284000D01*
X64739000Y32836000D02*
X64739000Y34020000D01*
X64779000Y36100000D02*
X64779000Y37307000D01*
X64779000Y32813000D02*
X64779000Y34020000D01*
X64819000Y36100000D02*
X64819000Y37328000D01*
X64819000Y32792000D02*
X64819000Y34020000D01*
X64859000Y36100000D02*
X64859000Y37350000D01*
X64859000Y32770000D02*
X64859000Y34020000D01*
X64899000Y36100000D02*
X64899000Y37370000D01*
X64899000Y32750000D02*
X64899000Y34020000D01*
X64939000Y36100000D02*
X64939000Y37389000D01*
X64939000Y32731000D02*
X64939000Y34020000D01*
X64979000Y36100000D02*
X64979000Y37408000D01*
X64979000Y32712000D02*
X64979000Y34020000D01*
X65019000Y36100000D02*
X65019000Y37425000D01*
X65019000Y32695000D02*
X65019000Y34020000D01*
X65059000Y36100000D02*
X65059000Y37442000D01*
X65059000Y32678000D02*
X65059000Y34020000D01*
X65099000Y36100000D02*
X65099000Y37458000D01*
X65099000Y32662000D02*
X65099000Y34020000D01*
X65139000Y36100000D02*
X65139000Y37474000D01*
X65139000Y32646000D02*
X65139000Y34020000D01*
X65179000Y36100000D02*
X65179000Y37488000D01*
X65179000Y32632000D02*
X65179000Y34020000D01*
X65219000Y36100000D02*
X65219000Y37502000D01*
X65219000Y32618000D02*
X65219000Y34020000D01*
X65259000Y36100000D02*
X65259000Y37515000D01*
X65259000Y32605000D02*
X65259000Y34020000D01*
X65299000Y36100000D02*
X65299000Y37528000D01*
X65299000Y32592000D02*
X65299000Y34020000D01*
X65339000Y36100000D02*
X65339000Y37540000D01*
X65339000Y32580000D02*
X65339000Y34020000D01*
X65380000Y36100000D02*
X65380000Y37551000D01*
X65380000Y32569000D02*
X65380000Y34020000D01*
X65420000Y36100000D02*
X65420000Y37561000D01*
X65420000Y32559000D02*
X65420000Y34020000D01*
X65460000Y36100000D02*
X65460000Y37571000D01*
X65460000Y32549000D02*
X65460000Y34020000D01*
X65500000Y36100000D02*
X65500000Y37580000D01*
X65500000Y32540000D02*
X65500000Y34020000D01*
X65540000Y36100000D02*
X65540000Y37588000D01*
X65540000Y32532000D02*
X65540000Y34020000D01*
X65580000Y36100000D02*
X65580000Y37596000D01*
X65580000Y32524000D02*
X65580000Y34020000D01*
X65620000Y36100000D02*
X65620000Y37603000D01*
X65620000Y32517000D02*
X65620000Y34020000D01*
X65660000Y36100000D02*
X65660000Y37610000D01*
X65660000Y32510000D02*
X65660000Y34020000D01*
X65700000Y36100000D02*
X65700000Y37616000D01*
X65700000Y32504000D02*
X65700000Y34020000D01*
X65740000Y36100000D02*
X65740000Y37621000D01*
X65740000Y32499000D02*
X65740000Y34020000D01*
X65780000Y36100000D02*
X65780000Y37625000D01*
X65780000Y32495000D02*
X65780000Y34020000D01*
X65820000Y36100000D02*
X65820000Y37629000D01*
X65820000Y32491000D02*
X65820000Y34020000D01*
X65860000Y32487000D02*
X65860000Y37633000D01*
X65900000Y32484000D02*
X65900000Y37636000D01*
X65940000Y32482000D02*
X65940000Y37638000D01*
X65980000Y32481000D02*
X65980000Y37639000D01*
X66020000Y32480000D02*
X66020000Y37640000D01*
X66060000Y32480000D02*
X66060000Y37640000D01*
X68614775Y33335000D02*
X68614775Y33835000D01*
X68864775Y33585000D02*
X68364775Y33585000D01*
X68680000Y35060000D02*
G75*
G02*
X63440000Y35060000I-2620000J0D01*
G01*
X63440000Y35060000D02*
G75*
G02*
X68680000Y35060000I2620000J0D01*
G01*
%TO.C,J3*%
X58360000Y3370000D02*
X58360000Y710000D01*
X71120000Y3370000D02*
X58360000Y3370000D01*
X71120000Y3370000D02*
X71120000Y710000D01*
X71120000Y710000D02*
X58360000Y710000D01*
X72390000Y3370000D02*
X73720000Y3370000D01*
X73720000Y3370000D02*
X73720000Y2040000D01*
%TO.C,Q2*%
X54293000Y44171000D02*
X54293000Y40681000D01*
X54293000Y44171000D02*
X62534000Y44171000D01*
X54293000Y40681000D02*
X62534000Y40681000D01*
X56814000Y44171000D02*
X56814000Y43101000D01*
X56814000Y41001000D02*
X56814000Y40681000D01*
X60014000Y44171000D02*
X60014000Y43101000D01*
X60014000Y41001000D02*
X60014000Y40681000D01*
X62534000Y44171000D02*
X62534000Y40681000D01*
D15*
%TO.C,Module3*%
X47487000Y28069000D02*
X60187000Y28069000D01*
X47487000Y12829000D02*
X47487000Y28069000D01*
X60187000Y28069000D02*
X60187000Y12829000D01*
X60187000Y12829000D02*
X47487000Y12829000D01*
D13*
%TO.C,J7*%
X9304000Y2800000D02*
X10414000Y2800000D01*
X9304000Y2040000D02*
X9304000Y2800000D01*
X9304000Y1280000D02*
X9304000Y1345000D01*
X9304000Y1280000D02*
X9850529Y1280000D01*
X9304000Y1280000D02*
X11524000Y1280000D01*
X10977471Y1280000D02*
X11524000Y1280000D01*
X11524000Y1280000D02*
X11524000Y1345000D01*
%TO.C,R4*%
X27900500Y47861600D02*
X28670500Y47861600D01*
X28670500Y49231600D02*
X28670500Y46491600D01*
X28670500Y46491600D02*
X35210500Y46491600D01*
X35210500Y49231600D02*
X28670500Y49231600D01*
X35210500Y46491600D02*
X35210500Y49231600D01*
X35980500Y47861600D02*
X35210500Y47861600D01*
%TO.C,SW2*%
X28198000Y9176000D02*
X28198000Y7676000D01*
X29448000Y5176000D02*
X33948000Y5176000D01*
X33948000Y11676000D02*
X29448000Y11676000D01*
X35198000Y7676000D02*
X35198000Y9176000D01*
%TO.C,Module4*%
X48190000Y61730000D02*
X48190000Y45730000D01*
X48190000Y61730000D02*
X71190000Y61730000D01*
X48190000Y45730000D02*
X71190000Y45730000D01*
X71190000Y61730000D02*
X71190000Y45730000D01*
D10*
%TO.C,Q3*%
X47879000Y33332800D02*
X48285400Y33332800D01*
D16*
X45694600Y33790000D02*
G75*
G02*
X50647600Y34907600I2352617J1107827D01*
G01*
X50647600Y34907600D02*
G75*
G02*
X50393600Y33764600I-2704885J1363D01*
G01*
D13*
%TO.C,R15*%
X16026000Y59444000D02*
X20526000Y59444000D01*
X20526000Y61164000D02*
X20526000Y57724000D01*
X20526000Y57724000D02*
X29766000Y57724000D01*
X29766000Y61164000D02*
X20526000Y61164000D01*
X29766000Y57724000D02*
X29766000Y61164000D01*
X34266000Y59444000D02*
X29766000Y59444000D01*
%TO.C,J8*%
X9304000Y5340000D02*
X10414000Y5340000D01*
X9304000Y4580000D02*
X9304000Y5340000D01*
X9304000Y3820000D02*
X9304000Y3885000D01*
X9304000Y3820000D02*
X9850529Y3820000D01*
X9304000Y3820000D02*
X11524000Y3820000D01*
X10977471Y3820000D02*
X11524000Y3820000D01*
X11524000Y3820000D02*
X11524000Y3885000D01*
%TO.C,R12*%
X72740000Y39012000D02*
X72740000Y35172000D01*
X74580000Y39012000D02*
X74580000Y35172000D01*
%TD*%
%LPC*%
D17*
%TO.C,C4*%
X19431000Y36330000D03*
X14431000Y36330000D03*
%TD*%
D18*
%TO.C,C5*%
X15240000Y45760000D03*
D19*
X15240000Y47760000D03*
%TD*%
D20*
%TO.C,D1*%
X1738000Y32266000D03*
D21*
X4278000Y32266000D03*
%TD*%
D22*
%TO.C,D2*%
X60960000Y31250000D03*
D23*
X53340000Y31250000D03*
%TD*%
D22*
%TO.C,D3*%
X71247000Y9787000D03*
D23*
X63627000Y9787000D03*
%TD*%
D22*
%TO.C,D6*%
X71247000Y6485000D03*
D23*
X63627000Y6485000D03*
%TD*%
D22*
%TO.C,D11*%
X39370000Y52840000D03*
D23*
X39370000Y60460000D03*
%TD*%
D24*
%TO.C,H1*%
X75697000Y54739000D03*
%TD*%
%TO.C,H3*%
X9657000Y8765000D03*
%TD*%
%TO.C,H4*%
X75951000Y8638000D03*
%TD*%
D25*
%TO.C,J2*%
X16510000Y2040000D03*
D26*
X19050000Y2040000D03*
X21590000Y2040000D03*
X24130000Y2040000D03*
X26670000Y2040000D03*
X29210000Y2040000D03*
%TD*%
D25*
%TO.C,J4*%
X52070000Y1907000D03*
D26*
X49530000Y1907000D03*
X46990000Y1907000D03*
X44450000Y1907000D03*
X41910000Y1907000D03*
X39370000Y1907000D03*
X36830000Y1907000D03*
%TD*%
D25*
%TO.C,J5*%
X3048000Y11692000D03*
D26*
X3048000Y14232000D03*
X3048000Y16772000D03*
X3048000Y19312000D03*
X3048000Y21852000D03*
X3048000Y24392000D03*
%TD*%
D25*
%TO.C,J6*%
X82550000Y51062000D03*
D26*
X82550000Y53602000D03*
%TD*%
D25*
%TO.C,J10*%
X3048000Y43950000D03*
D26*
X3048000Y46490000D03*
X3048000Y49030000D03*
%TD*%
D27*
%TO.C,JP1*%
X41768000Y49030000D03*
X43068000Y49030000D03*
%TD*%
D28*
%TO.C,Module2*%
X83735000Y23020000D03*
D29*
X64735000Y28520000D03*
D28*
X65735000Y28520000D03*
D30*
X83735000Y20520000D03*
D29*
X64735000Y26520000D03*
D28*
X65735000Y26520000D03*
X83735000Y18020000D03*
D29*
X64735000Y24520000D03*
D28*
X65735000Y24520000D03*
D29*
X64735000Y22520000D03*
D28*
X65735000Y22520000D03*
D29*
X64735000Y20520000D03*
D28*
X65735000Y20520000D03*
D29*
X64735000Y18520000D03*
D28*
X65735000Y18520000D03*
D29*
X64735000Y16520000D03*
D28*
X65735000Y16520000D03*
D29*
X64735000Y14520000D03*
D28*
X65735000Y14520000D03*
%TD*%
D31*
%TO.C,Q1*%
X70093000Y42680000D03*
D32*
X72383000Y42680000D03*
X74673000Y42680000D03*
%TD*%
D33*
%TO.C,R1*%
X6604000Y33536000D03*
D34*
X6604000Y28456000D03*
%TD*%
D19*
%TO.C,R2*%
X26035000Y51570000D03*
D35*
X15875000Y51570000D03*
%TD*%
D33*
%TO.C,R13*%
X52324000Y43188000D03*
D34*
X47244000Y43188000D03*
%TD*%
D33*
%TO.C,R14*%
X55118000Y38489000D03*
D34*
X60198000Y38489000D03*
%TD*%
D33*
%TO.C,R17*%
X60960000Y34425000D03*
D34*
X55880000Y34425000D03*
%TD*%
D19*
%TO.C,R22*%
X14986000Y55380000D03*
D35*
X35306000Y55380000D03*
%TD*%
D17*
%TO.C,SW1*%
X22808000Y6140000D03*
X16308000Y6140000D03*
X22808000Y10640000D03*
X16308000Y10640000D03*
%TD*%
D24*
%TO.C,H2*%
X9657000Y54739000D03*
%TD*%
D21*
%TO.C,Module1*%
X12700000Y32520000D03*
X40640000Y24900000D03*
X12700000Y17280000D03*
X10160000Y18550000D03*
X21590000Y29980000D03*
X15240000Y32520000D03*
X40640000Y27440000D03*
X15240000Y17280000D03*
X10160000Y21090000D03*
X24130000Y29980000D03*
X17780000Y32520000D03*
X40640000Y29980000D03*
X17780000Y17280000D03*
X10160000Y23630000D03*
X20320000Y32520000D03*
X20320000Y17280000D03*
X10160000Y26170000D03*
X22860000Y32520000D03*
X22860000Y17280000D03*
X10160000Y28710000D03*
X25400000Y32520000D03*
X25400000Y17280000D03*
X10160000Y31250000D03*
X27940000Y32520000D03*
X27940000Y17280000D03*
X30480000Y32520000D03*
X30480000Y17280000D03*
X33020000Y32520000D03*
X33020000Y17280000D03*
X35560000Y32520000D03*
X35560000Y17280000D03*
X38100000Y32520000D03*
X38100000Y17280000D03*
X40640000Y32520000D03*
X40640000Y17280000D03*
%TD*%
D33*
%TO.C,R3*%
X64008000Y39378000D03*
D34*
X69088000Y39378000D03*
%TD*%
D25*
%TO.C,J1*%
X82550000Y47282000D03*
D26*
X82550000Y44742000D03*
%TD*%
D36*
%TO.C,Q4*%
X83398000Y34298000D03*
X83398000Y36838000D03*
X83398000Y39378000D03*
%TD*%
D33*
%TO.C,R5*%
X41910000Y10930000D03*
D34*
X41910000Y5850000D03*
%TD*%
D33*
%TO.C,R6*%
X44450000Y10930000D03*
D34*
X44450000Y5850000D03*
%TD*%
D33*
%TO.C,R7*%
X46990000Y10930000D03*
D34*
X46990000Y5850000D03*
%TD*%
D33*
%TO.C,R8*%
X49530000Y10930000D03*
D34*
X49530000Y5850000D03*
%TD*%
D33*
%TO.C,R9*%
X77724000Y37600000D03*
D34*
X77724000Y32520000D03*
%TD*%
D33*
%TO.C,R10*%
X77470000Y45728000D03*
D34*
X77470000Y40648000D03*
%TD*%
D33*
%TO.C,R11*%
X39370000Y10930000D03*
D34*
X39370000Y5850000D03*
%TD*%
D24*
%TO.C,H5*%
X4000000Y59020000D03*
%TD*%
%TO.C,H7*%
X4000000Y4000000D03*
%TD*%
%TO.C,H8*%
X82000000Y4000000D03*
%TD*%
D18*
%TO.C,C1*%
X67310000Y35060000D03*
D19*
X64810000Y35060000D03*
%TD*%
D24*
%TO.C,H6*%
X82000000Y59000000D03*
%TD*%
D25*
%TO.C,J3*%
X72390000Y2040000D03*
D26*
X69850000Y2040000D03*
X67310000Y2040000D03*
X64770000Y2040000D03*
X62230000Y2040000D03*
X59690000Y2040000D03*
%TD*%
D37*
%TO.C,Q2*%
X56134000Y42051000D03*
D38*
X58414000Y42051000D03*
X60694000Y42051000D03*
%TD*%
D39*
%TO.C,Module3*%
X58917000Y21719000D03*
X48757000Y21719000D03*
X48757000Y19179000D03*
X48757000Y14099000D03*
X48757000Y16639000D03*
X48757000Y24259000D03*
X48757000Y26799000D03*
X58917000Y19179000D03*
X58917000Y14099000D03*
X58917000Y16639000D03*
X58917000Y24259000D03*
X58917000Y26799000D03*
%TD*%
D40*
%TO.C,J7*%
X10414000Y2040000D03*
%TD*%
D19*
%TO.C,R4*%
X26860500Y47861600D03*
D35*
X37020500Y47861600D03*
%TD*%
D17*
%TO.C,SW2*%
X28448000Y10676000D03*
X34948000Y10676000D03*
X28448000Y6176000D03*
X34948000Y6176000D03*
%TD*%
D41*
%TO.C,Module4*%
X68650000Y59190000D03*
X50730000Y59190000D03*
X68650000Y48170000D03*
X50730000Y48270000D03*
%TD*%
D42*
%TO.C,Q3*%
X46786800Y33637600D03*
D43*
X48056800Y36177600D03*
X49326800Y33637600D03*
%TD*%
D19*
%TO.C,R15*%
X14986000Y59444000D03*
D35*
X35306000Y59444000D03*
%TD*%
D40*
%TO.C,J8*%
X10414000Y4580000D03*
%TD*%
D33*
%TO.C,R12*%
X73660000Y39632000D03*
D34*
X73660000Y34552000D03*
%TD*%
%LPD*%
M02*
