%TF.GenerationSoftware,KiCad,Pcbnew,6.0.11-2627ca5db0~126~ubuntu22.04.1*%
%TF.CreationDate,2023-07-28T09:17:21+02:00*%
%TF.ProjectId,HB-UNI-SenAct-4-4-SC_DS_FUEL4EP_PCB,48422d55-4e49-42d5-9365-6e4163742d34,1.6*%
%TF.SameCoordinates,Original*%
%TF.FileFunction,Copper,L1,Top*%
%TF.FilePolarity,Positive*%
%FSLAX46Y46*%
G04 Gerber Fmt 4.6, Leading zero omitted, Abs format (unit mm)*
G04 Created by KiCad (PCBNEW 6.0.11-2627ca5db0~126~ubuntu22.04.1) date 2023-07-28 09:17:21*
%MOMM*%
%LPD*%
G01*
G04 APERTURE LIST*
%TA.AperFunction,ComponentPad*%
%ADD10C,1.498600*%
%TD*%
%TA.AperFunction,ComponentPad*%
%ADD11R,1.498600X1.498600*%
%TD*%
%TA.AperFunction,ComponentPad*%
%ADD12C,2.000000*%
%TD*%
%TA.AperFunction,ComponentPad*%
%ADD13R,1.600000X1.600000*%
%TD*%
%TA.AperFunction,ComponentPad*%
%ADD14C,1.600000*%
%TD*%
%TA.AperFunction,ComponentPad*%
%ADD15R,1.800000X1.800000*%
%TD*%
%TA.AperFunction,ComponentPad*%
%ADD16C,1.800000*%
%TD*%
%TA.AperFunction,ComponentPad*%
%ADD17R,2.200000X2.200000*%
%TD*%
%TA.AperFunction,ComponentPad*%
%ADD18O,2.200000X2.200000*%
%TD*%
%TA.AperFunction,ComponentPad*%
%ADD19R,1.700000X1.700000*%
%TD*%
%TA.AperFunction,ComponentPad*%
%ADD20O,1.700000X1.700000*%
%TD*%
%TA.AperFunction,SMDPad,CuDef*%
%ADD21R,1.000000X1.500000*%
%TD*%
%TA.AperFunction,ComponentPad*%
%ADD22C,1.350000*%
%TD*%
%TA.AperFunction,ConnectorPad*%
%ADD23R,1.800000X1.350000*%
%TD*%
%TA.AperFunction,ComponentPad*%
%ADD24C,3.000000*%
%TD*%
%TA.AperFunction,ComponentPad*%
%ADD25R,1.717500X1.800000*%
%TD*%
%TA.AperFunction,ComponentPad*%
%ADD26O,1.717500X1.800000*%
%TD*%
%TA.AperFunction,ComponentPad*%
%ADD27C,1.400000*%
%TD*%
%TA.AperFunction,ComponentPad*%
%ADD28O,1.400000X1.400000*%
%TD*%
%TA.AperFunction,ComponentPad*%
%ADD29O,1.600000X1.600000*%
%TD*%
%TA.AperFunction,ComponentPad*%
%ADD30O,3.251200X1.625600*%
%TD*%
%TA.AperFunction,ComponentPad*%
%ADD31O,1.800000X1.800000*%
%TD*%
%TA.AperFunction,ComponentPad*%
%ADD32C,1.879600*%
%TD*%
%TA.AperFunction,ComponentPad*%
%ADD33R,1.000000X1.000000*%
%TD*%
%TA.AperFunction,ComponentPad*%
%ADD34R,4.000000X4.000000*%
%TD*%
%TA.AperFunction,ViaPad*%
%ADD35C,0.600000*%
%TD*%
%TA.AperFunction,Conductor*%
%ADD36C,0.500000*%
%TD*%
%TA.AperFunction,Conductor*%
%ADD37C,0.250000*%
%TD*%
G04 APERTURE END LIST*
%TO.C,JP1*%
G36*
X42668000Y-14570000D02*
G01*
X42168000Y-14570000D01*
X42168000Y-14170000D01*
X42668000Y-14170000D01*
X42668000Y-14570000D01*
G37*
G36*
X42668000Y-13770000D02*
G01*
X42168000Y-13770000D01*
X42168000Y-13370000D01*
X42668000Y-13370000D01*
X42668000Y-13770000D01*
G37*
%TD*%
D10*
%TO.P,Q3,3,VOUT*%
%TO.N,/LDO_3.3V*%
X49326800Y-29362400D03*
%TO.P,Q3,2,VIN*%
%TO.N,VCC*%
X48056800Y-26822400D03*
D11*
%TO.P,Q3,1,GND*%
%TO.N,GND*%
X46786800Y-29362400D03*
%TD*%
D12*
%TO.P,C4,1*%
%TO.N,VCC*%
X19431000Y-26670000D03*
%TO.P,C4,2*%
%TO.N,GND*%
X14431000Y-26670000D03*
%TD*%
D13*
%TO.P,C5,1*%
%TO.N,VCC*%
X15240000Y-17240000D03*
D14*
%TO.P,C5,2*%
%TO.N,GND*%
X15240000Y-15240000D03*
%TD*%
D15*
%TO.P,D1,1,K*%
%TO.N,GND*%
X1738000Y-30734000D03*
D16*
%TO.P,D1,2,A*%
%TO.N,Net-(D1-Pad2)*%
X4278000Y-30734000D03*
%TD*%
D17*
%TO.P,D2,1,K*%
%TO.N,/LDO_3.3V*%
X60960000Y-31750000D03*
D18*
%TO.P,D2,2,A*%
%TO.N,Net-(D2-Pad2)*%
X53340000Y-31750000D03*
%TD*%
D17*
%TO.P,D3,1,K*%
%TO.N,/V_relais*%
X71247000Y-53213000D03*
D18*
%TO.P,D3,2,A*%
%TO.N,/V_supply*%
X63627000Y-53213000D03*
%TD*%
D17*
%TO.P,D6,1,K*%
%TO.N,/V_relais*%
X71247000Y-56515000D03*
D18*
%TO.P,D6,2,A*%
%TO.N,/VCC_S*%
X63627000Y-56515000D03*
%TD*%
D17*
%TO.P,D11,1,K*%
%TO.N,Net-(D11-Pad1)*%
X39370000Y-10160000D03*
D18*
%TO.P,D11,2,A*%
%TO.N,/minusBAT*%
X39370000Y-2540000D03*
%TD*%
D19*
%TO.P,J2,1,Pin_1*%
%TO.N,GND*%
X16510000Y-60960000D03*
D20*
%TO.P,J2,2,Pin_2*%
%TO.N,/D5*%
X19050000Y-60960000D03*
%TO.P,J2,3,Pin_3*%
%TO.N,/D6*%
X21590000Y-60960000D03*
%TO.P,J2,4,Pin_4*%
%TO.N,/D7*%
X24130000Y-60960000D03*
%TO.P,J2,5,Pin_5*%
%TO.N,/D9*%
X26670000Y-60960000D03*
%TO.P,J2,6,Pin_6*%
%TO.N,VCC*%
X29210000Y-60960000D03*
%TD*%
D19*
%TO.P,J4,1,Pin_1*%
%TO.N,GND*%
X52070000Y-61093000D03*
D20*
%TO.P,J4,2,Pin_2*%
%TO.N,/LED_AC_supply*%
X49530000Y-61093000D03*
%TO.P,J4,3,Pin_3*%
%TO.N,/LED_Hifiberry*%
X46990000Y-61093000D03*
%TO.P,J4,4,Pin_4*%
%TO.N,/LED_Monitor*%
X44450000Y-61093000D03*
%TO.P,J4,5,Pin_5*%
%TO.N,/LED_Heating*%
X41910000Y-61093000D03*
%TO.P,J4,6,Pin_6*%
%TO.N,/LED_Charging*%
X39370000Y-61093000D03*
%TO.P,J4,7,Pin_7*%
%TO.N,/V_relais*%
X36830000Y-61093000D03*
%TD*%
D19*
%TO.P,J5,1,Pin_1*%
%TO.N,VCC*%
X3048000Y-51308000D03*
D20*
%TO.P,J5,2,Pin_2*%
%TO.N,/minusBAT*%
X3048000Y-48768000D03*
%TO.P,J5,3,Pin_3*%
%TO.N,/MOSI*%
X3048000Y-46228000D03*
%TO.P,J5,4,Pin_4*%
%TO.N,/SCK*%
X3048000Y-43688000D03*
%TO.P,J5,5,Pin_5*%
%TO.N,/MISO*%
X3048000Y-41148000D03*
%TO.P,J5,6,Pin_6*%
%TO.N,/RSET*%
X3048000Y-38608000D03*
%TD*%
D19*
%TO.P,J6,1,Pin_1*%
%TO.N,/minusBAT*%
X82550000Y-11938000D03*
D20*
%TO.P,J6,2,Pin_2*%
%TO.N,/plusBAT*%
X82550000Y-9398000D03*
%TD*%
D19*
%TO.P,J10,1,Pin_1*%
%TO.N,VCC*%
X3048000Y-19050000D03*
D20*
%TO.P,J10,2,Pin_2*%
%TO.N,/plusBAT*%
X3048000Y-16510000D03*
%TO.P,J10,3,Pin_3*%
%TO.N,/minusBAT*%
X3048000Y-13970000D03*
%TD*%
D21*
%TO.P,JP1,1,A*%
%TO.N,/plusBAT*%
X41768000Y-13970000D03*
%TO.P,JP1,2,B*%
%TO.N,VCC*%
X43068000Y-13970000D03*
%TD*%
D22*
%TO.P,Module2,1A,GND*%
%TO.N,GND*%
X83735000Y-39980000D03*
D23*
%TO.P,Module2,1C,VCC*%
%TO.N,/LDO_3.3V*%
X64735000Y-34480000D03*
D22*
X65735000Y-34480000D03*
D24*
%TO.P,Module2,2A,ANT*%
%TO.N,unconnected-(Module2-Pad2A)*%
X83735000Y-42480000D03*
D22*
%TO.P,Module2,2C,GND*%
%TO.N,GND*%
X65735000Y-36480000D03*
D23*
X64735000Y-36480000D03*
D22*
%TO.P,Module2,3A,GND*%
X83735000Y-44980000D03*
D23*
%TO.P,Module2,3C,MOSI*%
%TO.N,Net-(Module2-Pad3C)*%
X64735000Y-38480000D03*
D22*
X65735000Y-38480000D03*
%TO.P,Module2,4C,SCLK*%
%TO.N,Net-(Module2-Pad4C)*%
X65735000Y-40480000D03*
D23*
X64735000Y-40480000D03*
D22*
%TO.P,Module2,5C,MISO*%
%TO.N,Net-(Module2-Pad5C)*%
X65735000Y-42480000D03*
D23*
X64735000Y-42480000D03*
D22*
%TO.P,Module2,6C,GD2*%
%TO.N,unconnected-(Module2-Pad6C)*%
X65735000Y-44480000D03*
D23*
X64735000Y-44480000D03*
D22*
%TO.P,Module2,7C,GD0*%
%TO.N,Net-(D2-Pad2)*%
X65735000Y-46480000D03*
D23*
X64735000Y-46480000D03*
D22*
%TO.P,Module2,8C,~{CSN}*%
%TO.N,Net-(Module2-Pad8C)*%
X65735000Y-48480000D03*
D23*
X64735000Y-48480000D03*
%TD*%
D25*
%TO.P,Q1,1,G*%
%TO.N,Net-(Q1-Pad1)*%
X70093000Y-20320000D03*
D26*
%TO.P,Q1,2,D*%
%TO.N,/minusBAT*%
X72383000Y-20320000D03*
%TO.P,Q1,3,S*%
%TO.N,GND*%
X74673000Y-20320000D03*
%TD*%
D27*
%TO.P,R1,1*%
%TO.N,Net-(D1-Pad2)*%
X6604000Y-29464000D03*
D28*
%TO.P,R1,2*%
%TO.N,Net-(Module1-Pad7C)*%
X6604000Y-34544000D03*
%TD*%
D14*
%TO.P,R2,1*%
%TO.N,/A6*%
X26035000Y-11430000D03*
D29*
%TO.P,R2,2*%
%TO.N,/plusBAT*%
X15875000Y-11430000D03*
%TD*%
D27*
%TO.P,R13,1*%
%TO.N,Net-(Q2-Pad3)*%
X52324000Y-19812000D03*
D28*
%TO.P,R13,2*%
%TO.N,/D3*%
X47244000Y-19812000D03*
%TD*%
D27*
%TO.P,R14,1*%
%TO.N,VCC*%
X55118000Y-24511000D03*
D28*
%TO.P,R14,2*%
%TO.N,Net-(Q2-Pad3)*%
X60198000Y-24511000D03*
%TD*%
D27*
%TO.P,R17,1*%
%TO.N,Net-(D2-Pad2)*%
X60960000Y-28575000D03*
D28*
%TO.P,R17,2*%
%TO.N,/D2*%
X55880000Y-28575000D03*
%TD*%
D14*
%TO.P,R22,1*%
%TO.N,/plusBAT*%
X14986000Y-7620000D03*
D29*
%TO.P,R22,2*%
%TO.N,Net-(D11-Pad1)*%
X35306000Y-7620000D03*
%TD*%
D12*
%TO.P,SW1,1,1*%
%TO.N,GND*%
X16308000Y-56860000D03*
X22808000Y-56860000D03*
%TO.P,SW1,2,2*%
%TO.N,/Config*%
X16308000Y-52360000D03*
X22808000Y-52360000D03*
%TD*%
D16*
%TO.P,Module1,1A,RAW*%
%TO.N,unconnected-(Module1-Pad1A)*%
X12700000Y-30480000D03*
%TO.P,Module1,1B,GND*%
%TO.N,GND*%
X40640000Y-38100000D03*
%TO.P,Module1,1C,PD1/TXD0*%
%TO.N,unconnected-(Module1-Pad1C)*%
X12700000Y-45720000D03*
%TO.P,Module1,1D,DTR*%
%TO.N,unconnected-(Module1-Pad1D)*%
X10160000Y-44450000D03*
%TO.P,Module1,1E,PC5/SCL_A5*%
%TO.N,/A5*%
X21590000Y-33020000D03*
%TO.P,Module1,2A,GND*%
%TO.N,GND*%
X15240000Y-30480000D03*
%TO.P,Module1,2B,A6*%
%TO.N,/A6*%
X40640000Y-35560000D03*
%TO.P,Module1,2C,PD0/RXD0*%
%TO.N,unconnected-(Module1-Pad2C)*%
X15240000Y-45720000D03*
%TO.P,Module1,2D,PD1/TXD0*%
%TO.N,unconnected-(Module1-Pad2D)*%
X10160000Y-41910000D03*
%TO.P,Module1,2E,PC4/SDA_A4*%
%TO.N,/A4*%
X24130000Y-33020000D03*
%TO.P,Module1,3A,RST*%
%TO.N,/RSET*%
X17780000Y-30480000D03*
%TO.P,Module1,3B,A7*%
%TO.N,unconnected-(Module1-Pad3B)*%
X40640000Y-33020000D03*
%TO.P,Module1,3C,RST*%
%TO.N,unconnected-(Module1-Pad3C)*%
X17780000Y-45720000D03*
%TO.P,Module1,3D,PD0/RXD0*%
%TO.N,unconnected-(Module1-Pad3D)*%
X10160000Y-39370000D03*
%TO.P,Module1,4A,VCC*%
%TO.N,VCC*%
X20320000Y-30480000D03*
%TO.P,Module1,4C,GND*%
%TO.N,unconnected-(Module1-Pad4C)*%
X20320000Y-45720000D03*
%TO.P,Module1,4D,VCC*%
%TO.N,unconnected-(Module1-Pad4D)*%
X10160000Y-36830000D03*
%TO.P,Module1,5A,PC3_A3*%
%TO.N,/A3*%
X22860000Y-30480000D03*
%TO.P,Module1,5C,PD2_2*%
%TO.N,/D2*%
X22860000Y-45720000D03*
%TO.P,Module1,5D,GND*%
%TO.N,unconnected-(Module1-Pad5D)*%
X10160000Y-34290000D03*
%TO.P,Module1,6A,PC2_A2*%
%TO.N,/A2*%
X25400000Y-30480000D03*
%TO.P,Module1,6C,PD3_3*%
%TO.N,/D3*%
X25400000Y-45720000D03*
%TO.P,Module1,6D,GND*%
%TO.N,unconnected-(Module1-Pad6D)*%
X10160000Y-31750000D03*
%TO.P,Module1,7A,PC1/A1*%
%TO.N,/A1*%
X27940000Y-30480000D03*
%TO.P,Module1,7C,PD4_4*%
%TO.N,Net-(Module1-Pad7C)*%
X27940000Y-45720000D03*
%TO.P,Module1,8A,PC0_A0*%
%TO.N,/A0*%
X30480000Y-30480000D03*
%TO.P,Module1,8C,PD5_5*%
%TO.N,/D5*%
X30480000Y-45720000D03*
%TO.P,Module1,9A,PB5/SCK_13L*%
%TO.N,/SCK*%
X33020000Y-30480000D03*
%TO.P,Module1,9C,PD6_6*%
%TO.N,/D6*%
X33020000Y-45720000D03*
%TO.P,Module1,10A,PB4/MISO_12*%
%TO.N,/MISO*%
X35560000Y-30480000D03*
%TO.P,Module1,10C,PD7_7*%
%TO.N,/D7*%
X35560000Y-45720000D03*
%TO.P,Module1,11A,PB3/MOSI_11*%
%TO.N,/MOSI*%
X38100000Y-30480000D03*
%TO.P,Module1,11C,PB0_8*%
%TO.N,/Config*%
X38100000Y-45720000D03*
%TO.P,Module1,12A,PB2/~{SS}_10*%
%TO.N,/SS*%
X40640000Y-30480000D03*
%TO.P,Module1,12C,PB1_9*%
%TO.N,/D9*%
X40640000Y-45720000D03*
%TD*%
D27*
%TO.P,R3,1*%
%TO.N,VCC*%
X64008000Y-23622000D03*
D28*
%TO.P,R3,2*%
%TO.N,Net-(Q1-Pad1)*%
X69088000Y-23622000D03*
%TD*%
D19*
%TO.P,J1,1,Pin_1*%
%TO.N,/minusBAT*%
X82550000Y-15718000D03*
D20*
%TO.P,J1,2,Pin_2*%
%TO.N,/V_supply*%
X82550000Y-18258000D03*
%TD*%
D30*
%TO.P,Q4,1*%
%TO.N,/A3*%
X83398000Y-28702000D03*
%TO.P,Q4,2*%
%TO.N,/V_CH*%
X83398000Y-26162000D03*
%TO.P,Q4,3*%
%TO.N,/V_supply*%
X83398000Y-23622000D03*
%TD*%
D27*
%TO.P,R5,1*%
%TO.N,/A1*%
X41910000Y-52070000D03*
D28*
%TO.P,R5,2*%
%TO.N,/LED_Heating*%
X41910000Y-57150000D03*
%TD*%
D27*
%TO.P,R6,1*%
%TO.N,/A0*%
X44450000Y-52070000D03*
D28*
%TO.P,R6,2*%
%TO.N,/LED_Monitor*%
X44450000Y-57150000D03*
%TD*%
D27*
%TO.P,R7,1*%
%TO.N,/A5*%
X46990000Y-52070000D03*
D28*
%TO.P,R7,2*%
%TO.N,/LED_Hifiberry*%
X46990000Y-57150000D03*
%TD*%
D27*
%TO.P,R8,1*%
%TO.N,/A4*%
X49530000Y-52070000D03*
D28*
%TO.P,R8,2*%
%TO.N,/LED_AC_supply*%
X49530000Y-57150000D03*
%TD*%
D27*
%TO.P,R9,1*%
%TO.N,/V_supply*%
X77724000Y-25400000D03*
D28*
%TO.P,R9,2*%
%TO.N,/A3*%
X77724000Y-30480000D03*
%TD*%
D27*
%TO.P,R10,1*%
%TO.N,/V_CH*%
X77470000Y-17272000D03*
D28*
%TO.P,R10,2*%
%TO.N,GND*%
X77470000Y-22352000D03*
%TD*%
D27*
%TO.P,R11,1*%
%TO.N,/A3*%
X39370000Y-52070000D03*
D28*
%TO.P,R11,2*%
%TO.N,/LED_Charging*%
X39370000Y-57150000D03*
%TD*%
D13*
%TO.P,C1,1*%
%TO.N,/LDO_3.3V*%
X67310000Y-27940000D03*
D14*
%TO.P,C1,2*%
%TO.N,GND*%
X64810000Y-27940000D03*
%TD*%
D19*
%TO.P,J3,1,Pin_1*%
%TO.N,/V_relais*%
X72390000Y-60960000D03*
D20*
%TO.P,J3,2,Pin_2*%
%TO.N,/A4*%
X69850000Y-60960000D03*
%TO.P,J3,3,Pin_3*%
%TO.N,/A5*%
X67310000Y-60960000D03*
%TO.P,J3,4,Pin_4*%
%TO.N,/A0*%
X64770000Y-60960000D03*
%TO.P,J3,5,Pin_5*%
%TO.N,/A1*%
X62230000Y-60960000D03*
%TO.P,J3,6,Pin_6*%
%TO.N,GND*%
X59690000Y-60960000D03*
%TD*%
D15*
%TO.P,Q2,1,E*%
%TO.N,VCC*%
X56134000Y-20949000D03*
D31*
%TO.P,Q2,2,C*%
%TO.N,/VCC_S*%
X58674000Y-20949000D03*
%TO.P,Q2,3,B*%
%TO.N,Net-(Q2-Pad3)*%
X61214000Y-20949000D03*
%TD*%
D32*
%TO.P,Module3,GND1,GND*%
%TO.N,GND*%
X58917000Y-41281000D03*
%TO.P,Module3,GND2,GND*%
X48757000Y-41281000D03*
%TO.P,Module3,HV,HV*%
%TO.N,VCC*%
X48757000Y-43821000D03*
%TO.P,Module3,HV1,HV_TXO_1*%
%TO.N,/MOSI*%
X48757000Y-48901000D03*
%TO.P,Module3,HV2,HV_RXI_1*%
%TO.N,/SCK*%
X48757000Y-46361000D03*
%TO.P,Module3,HV3,HV_RXI_2*%
%TO.N,/MISO*%
X48757000Y-38741000D03*
%TO.P,Module3,HV4,HV_TXO_2*%
%TO.N,/SS*%
X48757000Y-36201000D03*
%TO.P,Module3,LV,LV*%
%TO.N,/LDO_3.3V*%
X58917000Y-43821000D03*
%TO.P,Module3,LV1,LV_TXI_1*%
%TO.N,Net-(Module2-Pad3C)*%
X58917000Y-48901000D03*
%TO.P,Module3,LV2,LV_RXO_1*%
%TO.N,Net-(Module2-Pad4C)*%
X58917000Y-46361000D03*
%TO.P,Module3,LV3,LV_RXO_2*%
%TO.N,Net-(Module2-Pad5C)*%
X58917000Y-38741000D03*
%TO.P,Module3,LV4,LV_TXI_2*%
%TO.N,Net-(Module2-Pad8C)*%
X58917000Y-36201000D03*
%TD*%
D33*
%TO.P,J7,1,Pin_1*%
%TO.N,GND*%
X10414000Y-60960000D03*
%TD*%
D14*
%TO.P,R4,1*%
%TO.N,/A2*%
X26860500Y-15138400D03*
D29*
%TO.P,R4,2*%
%TO.N,/A6*%
X37020500Y-15138400D03*
%TD*%
D12*
%TO.P,SW2,1,1*%
%TO.N,/RSET*%
X28448000Y-52324000D03*
X34948000Y-52324000D03*
%TO.P,SW2,2,2*%
%TO.N,GND*%
X28448000Y-56824000D03*
X34948000Y-56824000D03*
%TD*%
D34*
%TO.P,Module4,1A,GND*%
%TO.N,/minusBAT*%
X68650000Y-3810000D03*
%TO.P,Module4,1C,GND*%
X50730000Y-3810000D03*
%TO.P,Module4,2A,VIN*%
%TO.N,/V_CH*%
X68650000Y-14830000D03*
%TO.P,Module4,2C,OUT*%
%TO.N,/Vcharge*%
X50730000Y-14730000D03*
%TD*%
D14*
%TO.P,R15,1*%
%TO.N,/plusBAT*%
X14986000Y-3556000D03*
D29*
%TO.P,R15,2*%
%TO.N,/Vcharge*%
X35306000Y-3556000D03*
%TD*%
D33*
%TO.P,J8,1,Pin_1*%
%TO.N,VCC*%
X10414000Y-58420000D03*
%TD*%
D27*
%TO.P,R12,1*%
%TO.N,/minusBAT*%
X73660000Y-23368000D03*
D28*
%TO.P,R12,2*%
%TO.N,/V_supply*%
X73660000Y-28448000D03*
%TD*%
D35*
%TO.N,VCC*%
X51943002Y-55753000D03*
X27686001Y-19939000D03*
X27559000Y-25527000D03*
X51943000Y-51445000D03*
X52578000Y-34925000D03*
X52705000Y-38100000D03*
%TO.N,/A3*%
X70104000Y-30988000D03*
X53340000Y-51308000D03*
X73660000Y-30988000D03*
X53213000Y-54737000D03*
%TO.N,/A1*%
X31623000Y-36131500D03*
X31559500Y-33401000D03*
%TO.N,/A0*%
X44542692Y-46198808D03*
X43214301Y-47590699D03*
%TO.N,/RSET*%
X28448000Y-49530000D03*
X24384000Y-49530000D03*
%TO.N,/MOSI*%
X46101000Y-44069000D03*
X46228000Y-46228000D03*
X37421559Y-32087559D03*
X38192699Y-37245301D03*
%TO.N,/D2*%
X42193899Y-40610091D03*
X30226000Y-40830500D03*
X25146000Y-41783000D03*
X24003000Y-43053000D03*
%TO.N,/D3*%
X36576000Y-33274000D03*
X27051000Y-42408000D03*
X31305500Y-39306500D03*
X24638000Y-43942000D03*
%TO.N,Net-(Module1-Pad7C)*%
X16764000Y-35560000D03*
X18796000Y-35560000D03*
%TO.N,Net-(Module2-Pad3C)*%
X61722000Y-45212000D03*
X61782942Y-40452058D03*
%TO.N,Net-(Module2-Pad8C)*%
X62865000Y-45212000D03*
X62230000Y-38735000D03*
%TO.N,/A6*%
X43307000Y-32893000D03*
X42227498Y-17335500D03*
%TO.N,/A2*%
X28956006Y-25527000D03*
X28986169Y-18699169D03*
%TD*%
D36*
%TO.N,GND*%
X65735000Y-36480000D02*
X64801000Y-36480000D01*
%TO.N,/LDO_3.3V*%
X65735000Y-34480000D02*
X64349998Y-34480000D01*
X63817000Y-34480000D02*
X61087000Y-31750000D01*
X54890001Y-31005999D02*
X54890001Y-32494001D01*
X57527199Y-35182801D02*
X57527199Y-42541199D01*
X64735000Y-34480000D02*
X63817000Y-34480000D01*
X55327999Y-26789999D02*
X54729999Y-27387999D01*
X54084001Y-33300001D02*
X52595999Y-33300001D01*
X54729999Y-27387999D02*
X54729999Y-30845997D01*
X60960000Y-30150000D02*
X59360000Y-30150000D01*
X54890001Y-32494001D02*
X54084001Y-33300001D01*
X60960000Y-31750000D02*
X57527199Y-35182801D01*
X59360000Y-30150000D02*
X57599999Y-28389999D01*
X60960000Y-31750000D02*
X60960000Y-30150000D01*
X57599999Y-26789999D02*
X55327999Y-26789999D01*
X57599999Y-28389999D02*
X57599999Y-26789999D01*
X54729999Y-30845997D02*
X54890001Y-31005999D01*
X52595999Y-33300001D02*
X49022000Y-29726002D01*
X57527199Y-42541199D02*
X58801000Y-43815000D01*
%TO.N,VCC*%
X56134000Y-23495000D02*
X55118000Y-24511000D01*
X62745001Y-18803001D02*
X64008000Y-20066000D01*
X51943002Y-55753000D02*
X38411610Y-55753000D01*
X20574000Y-25527000D02*
X27134736Y-25527000D01*
X27813001Y-19812000D02*
X43434000Y-19812000D01*
X27686001Y-19939000D02*
X16256000Y-19939000D01*
X48076699Y-30423699D02*
X48076699Y-26994699D01*
X51943000Y-47007000D02*
X51943000Y-51445000D01*
X15240000Y-17240000D02*
X15240000Y-18923000D01*
X33204610Y-60960000D02*
X29210000Y-60960000D01*
X52705000Y-39873000D02*
X52705000Y-38100000D01*
X3048000Y-52658000D02*
X8810000Y-58420000D01*
X8810000Y-58420000D02*
X10414000Y-58420000D01*
X50292000Y-17526000D02*
X50292000Y-24511000D01*
X38411610Y-55753000D02*
X33204610Y-60960000D01*
X43068000Y-14874000D02*
X43068000Y-13970000D01*
X50292000Y-17526000D02*
X45720000Y-17526000D01*
X52578000Y-34925000D02*
X48076699Y-30423699D01*
X53340000Y-17526000D02*
X50292000Y-17526000D01*
X54610000Y-18796000D02*
X57418002Y-18796000D01*
X48757000Y-43821000D02*
X51943000Y-47007000D01*
X27134736Y-25527000D02*
X27559000Y-25527000D01*
X27686001Y-19939000D02*
X27813001Y-19812000D01*
X53340000Y-17526000D02*
X54610000Y-18796000D01*
X57411001Y-18803001D02*
X62745001Y-18803001D01*
X3048000Y-51308000D02*
X3048000Y-52658000D01*
X48757000Y-43821000D02*
X52705000Y-39873000D01*
X64008000Y-20066000D02*
X64008000Y-23622000D01*
X45720000Y-17526000D02*
X43068000Y-14874000D01*
X3048000Y-19050000D02*
X388000Y-21710000D01*
X388000Y-21710000D02*
X388000Y-48648000D01*
X56134000Y-20949000D02*
X56134000Y-23495000D01*
X19558000Y-26543000D02*
X20574000Y-25527000D01*
X55118000Y-24511000D02*
X50292000Y-24511000D01*
X388000Y-48648000D02*
X3048000Y-51308000D01*
X43434000Y-19812000D02*
X45720000Y-17526000D01*
X57418002Y-18796000D02*
X57411001Y-18803001D01*
X50292000Y-24511000D02*
X48006000Y-26797000D01*
X15240000Y-18923000D02*
X15113000Y-19050000D01*
X16256000Y-19939000D02*
X15240000Y-18923000D01*
X15113000Y-19050000D02*
X3048000Y-19050000D01*
D37*
%TO.N,Net-(D1-Pad2)*%
X5334000Y-30734000D02*
X4278000Y-30734000D01*
X6604000Y-29464000D02*
X5334000Y-30734000D01*
%TO.N,Net-(D2-Pad2)*%
X60960000Y-27940000D02*
X67691000Y-34671000D01*
X66548000Y-46482000D02*
X64516000Y-46482000D01*
X67691000Y-34671000D02*
X67691000Y-45339000D01*
X67691000Y-45339000D02*
X66548000Y-46482000D01*
X58674000Y-25908000D02*
X60960000Y-28194000D01*
X54991000Y-25908000D02*
X58674000Y-25908000D01*
X53340000Y-27559000D02*
X54991000Y-25908000D01*
X53340000Y-31750000D02*
X53340000Y-27559000D01*
D36*
%TO.N,/V_relais*%
X71247000Y-53213000D02*
X71247000Y-56578500D01*
X72390000Y-60960000D02*
X72390000Y-62310000D01*
X72306999Y-62393001D02*
X37945501Y-62393001D01*
X72390000Y-57721500D02*
X72390000Y-60833000D01*
X37945501Y-62393001D02*
X36893500Y-61341000D01*
X71247000Y-56578500D02*
X72390000Y-57721500D01*
X72390000Y-62310000D02*
X72306999Y-62393001D01*
%TO.N,/minusBAT*%
X73660000Y-23368000D02*
X73660000Y-21597000D01*
X71751000Y-18288000D02*
X72383000Y-18920000D01*
X72383000Y-18920000D02*
X72383000Y-20320000D01*
X11881803Y-1440001D02*
X3048000Y-10273804D01*
X68650000Y-6310000D02*
X72383000Y-10043000D01*
X68650000Y-3810000D02*
X65278000Y-7182000D01*
X72383000Y-11945000D02*
X72383000Y-10043000D01*
X3048000Y-10273804D02*
X3048000Y-13970000D01*
X39370000Y-2540000D02*
X38270001Y-1440001D01*
X65278000Y-7182000D02*
X65278000Y-16256000D01*
X67310000Y-18288000D02*
X71751000Y-18288000D01*
X65278000Y-16256000D02*
X67310000Y-18288000D01*
X72390000Y-11938000D02*
X72383000Y-11945000D01*
X73660000Y-21597000D02*
X72383000Y-20320000D01*
X68650000Y-3810000D02*
X68650000Y-6310000D01*
X38270001Y-1440001D02*
X11881803Y-1440001D01*
X49460000Y-2540000D02*
X39370000Y-2540000D01*
X82550000Y-11938000D02*
X72390000Y-11938000D01*
D37*
%TO.N,Net-(D11-Pad1)*%
X35306000Y-7620000D02*
X36830000Y-7620000D01*
X36830000Y-7620000D02*
X39370000Y-10160000D01*
%TO.N,/D9*%
X29718000Y-59690000D02*
X27432000Y-59690000D01*
X40640000Y-48768000D02*
X29718000Y-59690000D01*
X27432000Y-59690000D02*
X26670000Y-60452000D01*
X40640000Y-45720000D02*
X40640000Y-48768000D01*
%TO.N,/D7*%
X33623000Y-54261000D02*
X28702000Y-59182000D01*
X35560000Y-45720000D02*
X33623000Y-47657000D01*
X25908000Y-59182000D02*
X24130000Y-60960000D01*
X33623000Y-47657000D02*
X33623000Y-54261000D01*
X28702000Y-59182000D02*
X25908000Y-59182000D01*
%TO.N,/D6*%
X33020000Y-45720000D02*
X33020000Y-49625833D01*
X33020000Y-49625833D02*
X21685833Y-60960000D01*
%TO.N,/D5*%
X30480000Y-45720000D02*
X24133000Y-52067000D01*
X24133000Y-53337000D02*
X19304000Y-58166000D01*
X24133000Y-52067000D02*
X24133000Y-53337000D01*
X19304000Y-58166000D02*
X19304000Y-60960000D01*
%TO.N,/A3*%
X81620000Y-30480000D02*
X83398000Y-28702000D01*
X41910000Y-54737000D02*
X39370000Y-52197000D01*
X59710505Y-50615812D02*
X58123495Y-50615812D01*
X39370000Y-52070000D02*
X41865001Y-49574999D01*
X41187359Y-44494999D02*
X38970499Y-44494999D01*
X70308502Y-45386500D02*
X70308502Y-30988000D01*
X65657002Y-50038000D02*
X70308502Y-45386500D01*
X29170511Y-34695011D02*
X21452009Y-34695011D01*
X58123495Y-50615812D02*
X57545684Y-50038000D01*
X54610000Y-50038000D02*
X53340000Y-51308000D01*
X73660000Y-30988000D02*
X74168000Y-30480000D01*
X21452009Y-34695011D02*
X20364999Y-33608001D01*
X20364999Y-32467001D02*
X22352000Y-30480000D01*
X65657002Y-50038000D02*
X60288316Y-50038000D01*
X70308502Y-30988000D02*
X70104000Y-30988000D01*
X57545684Y-50038000D02*
X54610000Y-50038000D01*
X60288316Y-50038000D02*
X59710505Y-50615812D01*
X41865001Y-45172641D02*
X41187359Y-44494999D01*
X74168000Y-30480000D02*
X77724000Y-30480000D01*
X38970499Y-44494999D02*
X29170511Y-34695011D01*
X20364999Y-33608001D02*
X20364999Y-32467001D01*
X53213000Y-54737000D02*
X41910000Y-54737000D01*
X77724000Y-30480000D02*
X81620000Y-30480000D01*
X41865001Y-49574999D02*
X41865001Y-45172641D01*
%TO.N,/A1*%
X41910000Y-52070000D02*
X43835023Y-53995023D01*
X55773023Y-53995023D02*
X61759008Y-59981008D01*
X31259501Y-33101001D02*
X31559500Y-33401000D01*
X41910000Y-52070000D02*
X42315012Y-51664988D01*
X27940000Y-30861000D02*
X29019500Y-30861000D01*
X42315012Y-44986242D02*
X33460270Y-36131500D01*
X43835023Y-53995023D02*
X55773023Y-53995023D01*
X29019500Y-30861000D02*
X31259501Y-33101001D01*
X33460270Y-36131500D02*
X31623000Y-36131500D01*
X42315012Y-51664988D02*
X42315012Y-44986242D01*
X61759008Y-59981008D02*
X61759008Y-60552508D01*
%TO.N,/A0*%
X44450000Y-52070000D02*
X45925012Y-53545012D01*
X63405001Y-60141999D02*
X64078999Y-60141999D01*
X32569991Y-33142901D02*
X44449295Y-45022205D01*
X62794001Y-59530999D02*
X63405001Y-60141999D01*
X64078999Y-60141999D02*
X64960500Y-61023500D01*
X44450000Y-48826398D02*
X43214301Y-47590699D01*
X32444400Y-33142900D02*
X32569991Y-33142901D01*
X44513500Y-45086410D02*
X44513500Y-46169616D01*
X55959424Y-53545014D02*
X61945409Y-59530999D01*
X61945409Y-59530999D02*
X62794001Y-59530999D01*
X30480000Y-31178500D02*
X32444400Y-33142900D01*
X44513500Y-46169616D02*
X44542692Y-46198808D01*
X44449295Y-45022205D02*
X44513500Y-45086410D01*
X45925012Y-53545012D02*
X55959424Y-53545014D01*
X44450000Y-52070000D02*
X44450000Y-48826398D01*
%TO.N,/RSET*%
X21590000Y-46736000D02*
X24384000Y-49530000D01*
X17780000Y-30480000D02*
X17780000Y-41402000D01*
X9236701Y-45675000D02*
X8424701Y-44863000D01*
X2561299Y-44863000D02*
X1778000Y-44079701D01*
X1778000Y-44079701D02*
X1778000Y-39878000D01*
X21590000Y-45212000D02*
X21590000Y-46736000D01*
X8424701Y-44863000D02*
X2561299Y-44863000D01*
X15285588Y-41402000D02*
X11012588Y-45675000D01*
X1778000Y-39878000D02*
X3048000Y-38608000D01*
X17780000Y-41402000D02*
X21590000Y-45212000D01*
X17780000Y-41402000D02*
X15285588Y-41402000D01*
X11012588Y-45675000D02*
X9236701Y-45675000D01*
X28448000Y-49530000D02*
X28448000Y-52324000D01*
%TO.N,/MISO*%
X35560000Y-30480000D02*
X35560000Y-29207208D01*
X16380000Y-23752000D02*
X15621000Y-24511000D01*
X35560000Y-29207208D02*
X30104792Y-23752000D01*
X8578000Y-29522000D02*
X8578000Y-29650396D01*
X48757000Y-38741000D02*
X46890999Y-36874999D01*
X13589000Y-24511000D02*
X8578000Y-29522000D01*
X15621000Y-24511000D02*
X13589000Y-24511000D01*
X5129000Y-33099396D02*
X5129000Y-39067000D01*
X30104792Y-23752000D02*
X16380000Y-23752000D01*
X38747399Y-36874999D02*
X35433000Y-33560600D01*
X8578000Y-29650396D02*
X5129000Y-33099396D01*
X46890999Y-36874999D02*
X38747399Y-36874999D01*
X5129000Y-39067000D02*
X3048000Y-41148000D01*
X35433000Y-33560600D02*
X35433000Y-30353000D01*
%TO.N,/SCK*%
X10414000Y-28322396D02*
X10414000Y-29210000D01*
X13590396Y-25146000D02*
X10414000Y-28322396D01*
X33020000Y-30480000D02*
X33020000Y-27717161D01*
X29504839Y-24202000D02*
X18470000Y-24202000D01*
X33020000Y-32956500D02*
X33020000Y-30734000D01*
X33020000Y-27717161D02*
X29504839Y-24202000D01*
X5579000Y-41157000D02*
X3048000Y-43688000D01*
X45484701Y-45421201D02*
X33020000Y-32956500D01*
X5579000Y-34045000D02*
X5579000Y-41157000D01*
X10414000Y-29210000D02*
X5579000Y-34045000D01*
X18470000Y-24202000D02*
X17526000Y-25146000D01*
X48757000Y-46361000D02*
X47817201Y-45421201D01*
X47817201Y-45421201D02*
X45484701Y-45421201D01*
X17526000Y-25146000D02*
X13590396Y-25146000D01*
%TO.N,/MOSI*%
X28064442Y-20444442D02*
X27944885Y-20564000D01*
X37421559Y-32087559D02*
X37421559Y-31158441D01*
X27944885Y-20564000D02*
X16067828Y-20564000D01*
X46228000Y-46372000D02*
X46228000Y-46228000D01*
X2585000Y-31959000D02*
X1016000Y-33528000D01*
X15128828Y-19625000D02*
X11561167Y-19625000D01*
X16067828Y-20564000D02*
X15128828Y-19625000D01*
X1016000Y-44196000D02*
X3048000Y-46228000D01*
X46101000Y-44069000D02*
X44768910Y-44069000D01*
X38100000Y-30480000D02*
X28064442Y-20444442D01*
X48757000Y-48901000D02*
X46228000Y-46372000D01*
X11561167Y-19625000D02*
X2963000Y-28223167D01*
X37421559Y-31158441D02*
X38100000Y-30480000D01*
X2963000Y-28223167D02*
X2963000Y-31959000D01*
X44768910Y-44069000D02*
X38192699Y-37492789D01*
X38192699Y-37492789D02*
X38192699Y-37245301D01*
X1016000Y-33528000D02*
X1016000Y-44196000D01*
X2963000Y-31959000D02*
X2585000Y-31959000D01*
D36*
%TO.N,/plusBAT*%
X9398000Y-16510000D02*
X14478000Y-11430000D01*
X14986000Y-7620000D02*
X14986000Y-10541000D01*
X36923968Y-2286000D02*
X39017968Y-4380000D01*
X14986000Y-3556000D02*
X19588000Y-3556000D01*
X46477000Y-4380000D02*
X48357000Y-6260000D01*
X48357000Y-6260000D02*
X59780000Y-6260000D01*
X19588000Y-3556000D02*
X26054000Y-10022000D01*
X14478000Y-11430000D02*
X15875000Y-11430000D01*
X75946000Y-1016000D02*
X75946000Y-2794000D01*
X75946000Y-2794000D02*
X82550000Y-9398000D01*
X59780000Y-6260000D02*
X65024000Y-1016000D01*
X32142000Y-10022000D02*
X36132000Y-10022000D01*
X65024000Y-1016000D02*
X75946000Y-1016000D01*
X32142000Y-10022000D02*
X32142000Y-4952233D01*
X2540000Y-16510000D02*
X9398000Y-16510000D01*
X34808233Y-2286000D02*
X36923968Y-2286000D01*
X40080000Y-13970000D02*
X41768000Y-13970000D01*
X26054000Y-10022000D02*
X32142000Y-10022000D01*
X39017968Y-4380000D02*
X46477000Y-4380000D01*
X14986000Y-10541000D02*
X15875000Y-11430000D01*
X14986000Y-3556000D02*
X14986000Y-7620000D01*
X36132000Y-10022000D02*
X40080000Y-13970000D01*
X32142000Y-4952233D02*
X34808233Y-2286000D01*
D37*
%TO.N,/SS*%
X48757000Y-36201000D02*
X42799000Y-30243000D01*
X42799000Y-30243000D02*
X41004000Y-30243000D01*
%TO.N,/D2*%
X22860000Y-44196000D02*
X22860000Y-45720000D01*
X29273500Y-41783000D02*
X30226000Y-40830500D01*
X42798189Y-40005801D02*
X42193899Y-40610091D01*
X24003000Y-43053000D02*
X22860000Y-44196000D01*
X55880000Y-27940000D02*
X55880000Y-33489906D01*
X55880000Y-33489906D02*
X49364105Y-40005801D01*
X25146000Y-41783000D02*
X29273500Y-41783000D01*
X49364105Y-40005801D02*
X42798189Y-40005801D01*
%TO.N,/D3*%
X39325001Y-25662997D02*
X41393003Y-25662997D01*
X27051000Y-42408000D02*
X29898264Y-42408000D01*
X29898264Y-42408000D02*
X31305500Y-41000764D01*
X25400000Y-44704000D02*
X24638000Y-43942000D01*
X39325001Y-31068001D02*
X37119002Y-33274000D01*
X31305500Y-41000764D02*
X31305500Y-39306500D01*
X39325001Y-25662997D02*
X39325001Y-31068001D01*
X41393003Y-25662997D02*
X47244000Y-19812000D01*
X25400000Y-45720000D02*
X25400000Y-44704000D01*
X37119002Y-33274000D02*
X36576000Y-33274000D01*
%TO.N,Net-(Module1-Pad7C)*%
X23158999Y-40684999D02*
X27940000Y-45466000D01*
X6604000Y-34544000D02*
X7620000Y-35560000D01*
X7620000Y-35560000D02*
X16764000Y-35560000D01*
X18796000Y-35560000D02*
X23158999Y-39922999D01*
X23158999Y-39922999D02*
X23158999Y-40684999D01*
%TO.N,Net-(Module2-Pad5C)*%
X65735000Y-42480000D02*
X62927000Y-42480000D01*
X62927000Y-42480000D02*
X59309000Y-38862000D01*
%TO.N,Net-(Module2-Pad4C)*%
X65735000Y-40480000D02*
X66735001Y-41480001D01*
X62184000Y-43480000D02*
X59309000Y-46355000D01*
X66735001Y-41480001D02*
X66735001Y-42960001D01*
X66215002Y-43480000D02*
X62184000Y-43480000D01*
X66735001Y-42960001D02*
X66215002Y-43480000D01*
X65735000Y-40480000D02*
X64549000Y-40480000D01*
%TO.N,Net-(Module2-Pad3C)*%
X58917000Y-48901000D02*
X61722000Y-46096000D01*
X61722000Y-46096000D02*
X61722000Y-45212000D01*
X63754000Y-38481000D02*
X65405000Y-38481000D01*
X61782942Y-40452058D02*
X63754000Y-38481000D01*
%TO.N,Net-(Module2-Pad8C)*%
X61468000Y-38735000D02*
X58928000Y-36195000D01*
X63212000Y-48480000D02*
X62865000Y-48133000D01*
X65735000Y-48480000D02*
X64736000Y-48480000D01*
X62865000Y-48133000D02*
X62865000Y-45212000D01*
X62230000Y-38735000D02*
X61468000Y-38735000D01*
X64735000Y-48480000D02*
X63212000Y-48480000D01*
%TO.N,Net-(Q1-Pad1)*%
X69088000Y-23622000D02*
X69088000Y-21325000D01*
X69088000Y-21325000D02*
X70093000Y-20320000D01*
%TO.N,Net-(Q2-Pad3)*%
X61214000Y-20949000D02*
X59989000Y-19724000D01*
X61214000Y-20949000D02*
X61214000Y-23495000D01*
X59989000Y-19724000D02*
X52412000Y-19724000D01*
X61214000Y-23495000D02*
X60198000Y-24511000D01*
%TO.N,/A6*%
X27749500Y-13525500D02*
X29337000Y-15113000D01*
X40640000Y-35560000D02*
X43307000Y-32893000D01*
X26035000Y-13462000D02*
X26098500Y-13525500D01*
X26035000Y-11430000D02*
X26035000Y-13462000D01*
X40030400Y-15138400D02*
X42227500Y-17335500D01*
X26098500Y-13525500D02*
X27749500Y-13525500D01*
X37020500Y-15138400D02*
X40030400Y-15138400D01*
X29337000Y-15113000D02*
X36957000Y-15113000D01*
%TO.N,/A5*%
X32441192Y-34476012D02*
X31073099Y-34476012D01*
X31073099Y-34476012D02*
X30842088Y-34245001D01*
X42765023Y-44799843D02*
X32441192Y-34476012D01*
X64883992Y-59080990D02*
X65945001Y-60141999D01*
X46990000Y-52070000D02*
X48015001Y-53095001D01*
X65945001Y-60141999D02*
X66682499Y-60141999D01*
X46990000Y-50441396D02*
X42765023Y-46216419D01*
X66682499Y-60141999D02*
X66682499Y-60395999D01*
X48015001Y-53095001D02*
X56397001Y-53095001D01*
X22942001Y-34245001D02*
X21844000Y-33147000D01*
X62382989Y-59080989D02*
X64883992Y-59080990D01*
X46990000Y-52070000D02*
X46990000Y-50441396D01*
X56397001Y-53095001D02*
X62382989Y-59080989D01*
X42765023Y-46216419D02*
X42765023Y-44799843D01*
X30842088Y-34245001D02*
X22942001Y-34245001D01*
%TO.N,/A4*%
X43215034Y-45755034D02*
X43215034Y-44613444D01*
X43215034Y-44613444D02*
X32627591Y-34026001D01*
X65970411Y-59530999D02*
X67874001Y-59530999D01*
X30253498Y-33020000D02*
X23876000Y-33020000D01*
X32627591Y-34026001D02*
X31259499Y-34026001D01*
X56134000Y-52070000D02*
X62694980Y-58630980D01*
X68485001Y-60141999D02*
X69158999Y-60141999D01*
X62694980Y-58630980D02*
X65070393Y-58630981D01*
X67874001Y-59530999D02*
X68485001Y-60141999D01*
X69158999Y-60141999D02*
X69913500Y-60896500D01*
X31259499Y-34026001D02*
X30253498Y-33020000D01*
X49530000Y-52070000D02*
X56134000Y-52070000D01*
X65070393Y-58630981D02*
X65970411Y-59530999D01*
X49530000Y-52070000D02*
X43215034Y-45755034D01*
%TO.N,/Config*%
X38100000Y-45720000D02*
X36874999Y-44494999D01*
X29891999Y-44494999D02*
X29165001Y-45221997D01*
X36874999Y-44494999D02*
X29891999Y-44494999D01*
X29165001Y-45221997D02*
X29165001Y-46308001D01*
X29129999Y-46308001D02*
X23622000Y-51816000D01*
X29165001Y-46308001D02*
X29129999Y-46308001D01*
%TO.N,/LED_Charging*%
X39370000Y-57150000D02*
X39370000Y-60579000D01*
%TO.N,/LED_Heating*%
X41910000Y-57150000D02*
X41910000Y-60579000D01*
%TO.N,/LED_Monitor*%
X44450000Y-57150000D02*
X44450000Y-60706000D01*
%TO.N,/LED_Hifiberry*%
X46990000Y-57150000D02*
X46990000Y-60960000D01*
%TO.N,/LED_AC_supply*%
X49530000Y-57150000D02*
X49530000Y-61087000D01*
D36*
%TO.N,/V_supply*%
X83398000Y-19106000D02*
X82550000Y-18258000D01*
X71882000Y-26924000D02*
X73406000Y-25400000D01*
X66167000Y-52451000D02*
X71882000Y-46736000D01*
X66167000Y-53149500D02*
X66167000Y-52451000D01*
X73660000Y-28448000D02*
X73660000Y-25654000D01*
X73660000Y-25654000D02*
X73406000Y-25400000D01*
X79502000Y-23622000D02*
X83398000Y-23622000D01*
X71882000Y-46736000D02*
X71882000Y-26924000D01*
X83398000Y-23622000D02*
X83398000Y-19106000D01*
X63944500Y-53149500D02*
X66167000Y-53149500D01*
X77724000Y-25400000D02*
X79502000Y-23622000D01*
X73406000Y-25400000D02*
X77724000Y-25400000D01*
%TO.N,/V_CH*%
X83456669Y-26162000D02*
X85473600Y-24145069D01*
X71092000Y-17272000D02*
X68650000Y-14830000D01*
X85473600Y-24145069D02*
X85473600Y-16041600D01*
X80324000Y-14418000D02*
X77470000Y-17272000D01*
X85473600Y-16041600D02*
X83850000Y-14418000D01*
X83850000Y-14418000D02*
X80324000Y-14418000D01*
X77470000Y-17272000D02*
X71092000Y-17272000D01*
%TO.N,/VCC_S*%
X70883502Y-29103500D02*
X70883502Y-45624686D01*
X70883502Y-45624686D02*
X64845189Y-51662999D01*
X68470001Y-26689999D02*
X70883502Y-29103500D01*
X64845189Y-51662999D02*
X62882999Y-51662999D01*
X62076999Y-54901499D02*
X63563500Y-56388000D01*
X62882999Y-51662999D02*
X62076999Y-52468999D01*
X58674000Y-24892000D02*
X58674000Y-20949000D01*
X62076999Y-52468999D02*
X62076999Y-54901499D01*
X60471999Y-26689999D02*
X58674000Y-24892000D01*
X68470001Y-26689999D02*
X60471999Y-26689999D01*
D37*
%TO.N,unconnected-(Module2-Pad6C)*%
X65735000Y-44480000D02*
X64673000Y-44480000D01*
%TO.N,/A2*%
X28986169Y-18699169D02*
X28986169Y-17264069D01*
X27178006Y-27305000D02*
X27178006Y-28892494D01*
X28956006Y-25527000D02*
X27178006Y-27305000D01*
X28986169Y-17264069D02*
X26860500Y-15138400D01*
X27178006Y-28892494D02*
X25463500Y-30607000D01*
D36*
%TO.N,/Vcharge*%
X50730000Y-12122000D02*
X50730000Y-14730000D01*
X36830000Y-5080000D02*
X44196000Y-5080000D01*
X44196000Y-5080000D02*
X47752000Y-8636000D01*
X47752000Y-8636000D02*
X47752000Y-9144000D01*
X47752000Y-9144000D02*
X50730000Y-12122000D01*
X35306000Y-3556000D02*
X36830000Y-5080000D01*
%TD*%
M02*
