%TF.GenerationSoftware,KiCad,Pcbnew,6.0.11-2627ca5db0~126~ubuntu22.04.1*%
%TF.CreationDate,2023-08-15T16:57:27+02:00*%
%TF.ProjectId,HB-UNI-SenAct-4-4-SC_DS_FUEL4EP_PCB,48422d55-4e49-42d5-9365-6e4163742d34,1.6*%
%TF.SameCoordinates,Original*%
%TF.FileFunction,Legend,Bot*%
%TF.FilePolarity,Positive*%
%FSLAX46Y46*%
G04 Gerber Fmt 4.6, Leading zero omitted, Abs format (unit mm)*
G04 Created by KiCad (PCBNEW 6.0.11-2627ca5db0~126~ubuntu22.04.1) date 2023-08-15 16:57:27*
%MOMM*%
%LPD*%
G01*
G04 APERTURE LIST*
%ADD10C,0.152400*%
%ADD11C,0.150000*%
%ADD12C,2.000000*%
%ADD13R,1.600000X1.600000*%
%ADD14C,1.600000*%
%ADD15R,1.800000X1.800000*%
%ADD16C,1.800000*%
%ADD17R,2.200000X2.200000*%
%ADD18O,2.200000X2.200000*%
%ADD19C,5.800000*%
%ADD20R,1.700000X1.700000*%
%ADD21O,1.700000X1.700000*%
%ADD22C,1.350000*%
%ADD23C,3.000000*%
%ADD24R,1.717500X1.800000*%
%ADD25O,1.717500X1.800000*%
%ADD26C,1.400000*%
%ADD27O,1.400000X1.400000*%
%ADD28O,1.600000X1.600000*%
%ADD29O,3.251200X1.625600*%
%ADD30O,1.800000X1.800000*%
%ADD31C,2.082800*%
%ADD32R,1.000000X1.000000*%
%ADD33R,4.000000X4.000000*%
%ADD34R,1.498600X1.498600*%
%ADD35C,1.498600*%
G04 APERTURE END LIST*
D10*
X46221952Y41990474D02*
X46260657Y42029179D01*
X46338066Y42145293D01*
X46376771Y42222703D01*
X46415476Y42338817D01*
X46454180Y42532341D01*
X46454180Y42687160D01*
X46415476Y42880684D01*
X46376771Y42996798D01*
X46338066Y43074208D01*
X46260657Y43190322D01*
X46221952Y43229027D01*
X45447857Y42377522D02*
X45486561Y42338817D01*
X45602676Y42300112D01*
X45680085Y42300112D01*
X45796200Y42338817D01*
X45873609Y42416227D01*
X45912314Y42493636D01*
X45951019Y42648455D01*
X45951019Y42764569D01*
X45912314Y42919388D01*
X45873609Y42996798D01*
X45796200Y43074208D01*
X45680085Y43112912D01*
X45602676Y43112912D01*
X45486561Y43074208D01*
X45447857Y43035503D01*
X45176923Y41990474D02*
X45138219Y42029179D01*
X45060809Y42145293D01*
X45022104Y42222703D01*
X44983400Y42338817D01*
X44944695Y42532341D01*
X44944695Y42687160D01*
X44983400Y42880684D01*
X45022104Y42996798D01*
X45060809Y43074208D01*
X45138219Y43190322D01*
X45176923Y43229027D01*
X43667438Y42725865D02*
X43938371Y42725865D01*
X43938371Y42300112D02*
X43938371Y43112912D01*
X43551323Y43112912D01*
X43241685Y43112912D02*
X43241685Y42454931D01*
X43202980Y42377522D01*
X43164276Y42338817D01*
X43086866Y42300112D01*
X42932047Y42300112D01*
X42854638Y42338817D01*
X42815933Y42377522D01*
X42777228Y42454931D01*
X42777228Y43112912D01*
X42390180Y42725865D02*
X42119247Y42725865D01*
X42003133Y42300112D02*
X42390180Y42300112D01*
X42390180Y43112912D01*
X42003133Y43112912D01*
X41267742Y42300112D02*
X41654790Y42300112D01*
X41654790Y43112912D01*
X40648466Y42841979D02*
X40648466Y42300112D01*
X40841990Y43151617D02*
X41035514Y42571046D01*
X40532352Y42571046D01*
X40222714Y42725865D02*
X39951780Y42725865D01*
X39835666Y42300112D02*
X40222714Y42300112D01*
X40222714Y43112912D01*
X39835666Y43112912D01*
X39487323Y42300112D02*
X39487323Y43112912D01*
X39177685Y43112912D01*
X39100276Y43074208D01*
X39061571Y43035503D01*
X39022866Y42958093D01*
X39022866Y42841979D01*
X39061571Y42764569D01*
X39100276Y42725865D01*
X39177685Y42687160D01*
X39487323Y42687160D01*
X37900428Y43112912D02*
X37823019Y43112912D01*
X37745609Y43074208D01*
X37706904Y43035503D01*
X37668200Y42958093D01*
X37629495Y42803274D01*
X37629495Y42609750D01*
X37668200Y42454931D01*
X37706904Y42377522D01*
X37745609Y42338817D01*
X37823019Y42300112D01*
X37900428Y42300112D01*
X37977838Y42338817D01*
X38016542Y42377522D01*
X38055247Y42454931D01*
X38093952Y42609750D01*
X38093952Y42803274D01*
X38055247Y42958093D01*
X38016542Y43035503D01*
X37977838Y43074208D01*
X37900428Y43112912D01*
X37358561Y43112912D02*
X36816695Y43112912D01*
X37165038Y42300112D01*
X35926485Y43151617D02*
X36623171Y42106588D01*
X35694257Y43035503D02*
X35655552Y43074208D01*
X35578142Y43112912D01*
X35384619Y43112912D01*
X35307209Y43074208D01*
X35268504Y43035503D01*
X35229800Y42958093D01*
X35229800Y42880684D01*
X35268504Y42764569D01*
X35732961Y42300112D01*
X35229800Y42300112D01*
X34726638Y43112912D02*
X34649228Y43112912D01*
X34571819Y43074208D01*
X34533114Y43035503D01*
X34494409Y42958093D01*
X34455704Y42803274D01*
X34455704Y42609750D01*
X34494409Y42454931D01*
X34533114Y42377522D01*
X34571819Y42338817D01*
X34649228Y42300112D01*
X34726638Y42300112D01*
X34804047Y42338817D01*
X34842752Y42377522D01*
X34881457Y42454931D01*
X34920161Y42609750D01*
X34920161Y42803274D01*
X34881457Y42958093D01*
X34842752Y43035503D01*
X34804047Y43074208D01*
X34726638Y43112912D01*
X34146066Y43035503D02*
X34107361Y43074208D01*
X34029952Y43112912D01*
X33836428Y43112912D01*
X33759019Y43074208D01*
X33720314Y43035503D01*
X33681609Y42958093D01*
X33681609Y42880684D01*
X33720314Y42764569D01*
X34184771Y42300112D01*
X33681609Y42300112D01*
X33410676Y43112912D02*
X32907514Y43112912D01*
X33178447Y42803274D01*
X33062333Y42803274D01*
X32984923Y42764569D01*
X32946219Y42725865D01*
X32907514Y42648455D01*
X32907514Y42454931D01*
X32946219Y42377522D01*
X32984923Y42338817D01*
X33062333Y42300112D01*
X33294561Y42300112D01*
X33371971Y42338817D01*
X33410676Y42377522D01*
X53362980Y41533371D02*
X53053342Y41533371D01*
X53246866Y41804304D02*
X53246866Y41107619D01*
X53208161Y41030209D01*
X53130752Y40991504D01*
X53053342Y40991504D01*
X52782409Y40991504D02*
X52782409Y41533371D01*
X52782409Y41378552D02*
X52743704Y41455961D01*
X52705000Y41494666D01*
X52627590Y41533371D01*
X52550180Y41533371D01*
X52279247Y40991504D02*
X52279247Y41533371D01*
X52279247Y41804304D02*
X52317952Y41765600D01*
X52279247Y41726895D01*
X52240542Y41765600D01*
X52279247Y41804304D01*
X52279247Y41726895D01*
X51892200Y41533371D02*
X51892200Y40720571D01*
X51892200Y41494666D02*
X51814790Y41533371D01*
X51659971Y41533371D01*
X51582561Y41494666D01*
X51543857Y41455961D01*
X51505152Y41378552D01*
X51505152Y41146323D01*
X51543857Y41068914D01*
X51582561Y41030209D01*
X51659971Y40991504D01*
X51814790Y40991504D01*
X51892200Y41030209D01*
X51040695Y40991504D02*
X51118104Y41030209D01*
X51156809Y41107619D01*
X51156809Y41804304D01*
X50421419Y41030209D02*
X50498828Y40991504D01*
X50653647Y40991504D01*
X50731057Y41030209D01*
X50769761Y41107619D01*
X50769761Y41417257D01*
X50731057Y41494666D01*
X50653647Y41533371D01*
X50498828Y41533371D01*
X50421419Y41494666D01*
X50382714Y41417257D01*
X50382714Y41339847D01*
X50769761Y41262438D01*
X49415095Y41533371D02*
X49415095Y40720571D01*
X49415095Y41494666D02*
X49337685Y41533371D01*
X49182866Y41533371D01*
X49105457Y41494666D01*
X49066752Y41455961D01*
X49028047Y41378552D01*
X49028047Y41146323D01*
X49066752Y41068914D01*
X49105457Y41030209D01*
X49182866Y40991504D01*
X49337685Y40991504D01*
X49415095Y41030209D01*
X48563590Y40991504D02*
X48641000Y41030209D01*
X48679704Y41068914D01*
X48718409Y41146323D01*
X48718409Y41378552D01*
X48679704Y41455961D01*
X48641000Y41494666D01*
X48563590Y41533371D01*
X48447476Y41533371D01*
X48370066Y41494666D01*
X48331361Y41455961D01*
X48292657Y41378552D01*
X48292657Y41146323D01*
X48331361Y41068914D01*
X48370066Y41030209D01*
X48447476Y40991504D01*
X48563590Y40991504D01*
X48021723Y41533371D02*
X47866904Y40991504D01*
X47712085Y41378552D01*
X47557266Y40991504D01*
X47402447Y41533371D01*
X46783171Y41030209D02*
X46860580Y40991504D01*
X47015400Y40991504D01*
X47092809Y41030209D01*
X47131514Y41107619D01*
X47131514Y41417257D01*
X47092809Y41494666D01*
X47015400Y41533371D01*
X46860580Y41533371D01*
X46783171Y41494666D01*
X46744466Y41417257D01*
X46744466Y41339847D01*
X47131514Y41262438D01*
X46396123Y40991504D02*
X46396123Y41533371D01*
X46396123Y41378552D02*
X46357419Y41455961D01*
X46318714Y41494666D01*
X46241304Y41533371D01*
X46163895Y41533371D01*
X45312390Y41030209D02*
X45234980Y40991504D01*
X45080161Y40991504D01*
X45002752Y41030209D01*
X44964047Y41107619D01*
X44964047Y41146323D01*
X45002752Y41223733D01*
X45080161Y41262438D01*
X45196276Y41262438D01*
X45273685Y41301142D01*
X45312390Y41378552D01*
X45312390Y41417257D01*
X45273685Y41494666D01*
X45196276Y41533371D01*
X45080161Y41533371D01*
X45002752Y41494666D01*
X44693114Y41533371D02*
X44538295Y40991504D01*
X44383476Y41378552D01*
X44228657Y40991504D01*
X44073838Y41533371D01*
X43764200Y40991504D02*
X43764200Y41533371D01*
X43764200Y41804304D02*
X43802904Y41765600D01*
X43764200Y41726895D01*
X43725495Y41765600D01*
X43764200Y41804304D01*
X43764200Y41726895D01*
X43493266Y41533371D02*
X43183628Y41533371D01*
X43377152Y41804304D02*
X43377152Y41107619D01*
X43338447Y41030209D01*
X43261038Y40991504D01*
X43183628Y40991504D01*
X42564352Y41030209D02*
X42641761Y40991504D01*
X42796580Y40991504D01*
X42873990Y41030209D01*
X42912695Y41068914D01*
X42951400Y41146323D01*
X42951400Y41378552D01*
X42912695Y41455961D01*
X42873990Y41494666D01*
X42796580Y41533371D01*
X42641761Y41533371D01*
X42564352Y41494666D01*
X42216009Y40991504D02*
X42216009Y41804304D01*
X41867666Y40991504D02*
X41867666Y41417257D01*
X41906371Y41494666D01*
X41983780Y41533371D01*
X42099895Y41533371D01*
X42177304Y41494666D01*
X42216009Y41455961D01*
X40977457Y41533371D02*
X40667819Y41533371D01*
X40861342Y40991504D02*
X40861342Y41688190D01*
X40822638Y41765600D01*
X40745228Y41804304D01*
X40667819Y41804304D01*
X40280771Y40991504D02*
X40358180Y41030209D01*
X40396885Y41068914D01*
X40435590Y41146323D01*
X40435590Y41378552D01*
X40396885Y41455961D01*
X40358180Y41494666D01*
X40280771Y41533371D01*
X40164657Y41533371D01*
X40087247Y41494666D01*
X40048542Y41455961D01*
X40009838Y41378552D01*
X40009838Y41146323D01*
X40048542Y41068914D01*
X40087247Y41030209D01*
X40164657Y40991504D01*
X40280771Y40991504D01*
X39661495Y40991504D02*
X39661495Y41533371D01*
X39661495Y41378552D02*
X39622790Y41455961D01*
X39584085Y41494666D01*
X39506676Y41533371D01*
X39429266Y41533371D01*
X38577761Y41726895D02*
X38539057Y41765600D01*
X38461647Y41804304D01*
X38268123Y41804304D01*
X38190714Y41765600D01*
X38152009Y41726895D01*
X38113304Y41649485D01*
X38113304Y41572076D01*
X38152009Y41455961D01*
X38616466Y40991504D01*
X38113304Y40991504D01*
X37842371Y41804304D02*
X37339209Y41804304D01*
X37610142Y41494666D01*
X37494028Y41494666D01*
X37416619Y41455961D01*
X37377914Y41417257D01*
X37339209Y41339847D01*
X37339209Y41146323D01*
X37377914Y41068914D01*
X37416619Y41030209D01*
X37494028Y40991504D01*
X37726257Y40991504D01*
X37803666Y41030209D01*
X37842371Y41068914D01*
X36836047Y41804304D02*
X36758638Y41804304D01*
X36681228Y41765600D01*
X36642523Y41726895D01*
X36603819Y41649485D01*
X36565114Y41494666D01*
X36565114Y41301142D01*
X36603819Y41146323D01*
X36642523Y41068914D01*
X36681228Y41030209D01*
X36758638Y40991504D01*
X36836047Y40991504D01*
X36913457Y41030209D01*
X36952161Y41068914D01*
X36990866Y41146323D01*
X37029571Y41301142D01*
X37029571Y41494666D01*
X36990866Y41649485D01*
X36952161Y41726895D01*
X36913457Y41765600D01*
X36836047Y41804304D01*
X36332885Y41804304D02*
X36061952Y40991504D01*
X35791019Y41804304D01*
X34552466Y40991504D02*
X34552466Y41804304D01*
X34552466Y41030209D02*
X34629876Y40991504D01*
X34784695Y40991504D01*
X34862104Y41030209D01*
X34900809Y41068914D01*
X34939514Y41146323D01*
X34939514Y41378552D01*
X34900809Y41455961D01*
X34862104Y41494666D01*
X34784695Y41533371D01*
X34629876Y41533371D01*
X34552466Y41494666D01*
X33855780Y41030209D02*
X33933190Y40991504D01*
X34088009Y40991504D01*
X34165419Y41030209D01*
X34204123Y41107619D01*
X34204123Y41417257D01*
X34165419Y41494666D01*
X34088009Y41533371D01*
X33933190Y41533371D01*
X33855780Y41494666D01*
X33817076Y41417257D01*
X33817076Y41339847D01*
X34204123Y41262438D01*
X33468733Y40991504D02*
X33468733Y41533371D01*
X33468733Y41455961D02*
X33430028Y41494666D01*
X33352619Y41533371D01*
X33236504Y41533371D01*
X33159095Y41494666D01*
X33120390Y41417257D01*
X33120390Y40991504D01*
X33120390Y41417257D02*
X33081685Y41494666D01*
X33004276Y41533371D01*
X32888161Y41533371D01*
X32810752Y41494666D01*
X32772047Y41417257D01*
X32772047Y40991504D01*
X32036657Y40991504D02*
X32036657Y41417257D01*
X32075361Y41494666D01*
X32152771Y41533371D01*
X32307590Y41533371D01*
X32385000Y41494666D01*
X32036657Y41030209D02*
X32114066Y40991504D01*
X32307590Y40991504D01*
X32385000Y41030209D01*
X32423704Y41107619D01*
X32423704Y41185028D01*
X32385000Y41262438D01*
X32307590Y41301142D01*
X32114066Y41301142D01*
X32036657Y41339847D01*
X31649609Y41533371D02*
X31649609Y40991504D01*
X31649609Y41455961D02*
X31610904Y41494666D01*
X31533495Y41533371D01*
X31417380Y41533371D01*
X31339971Y41494666D01*
X31301266Y41417257D01*
X31301266Y40991504D01*
X30565876Y40991504D02*
X30565876Y41804304D01*
X30565876Y41030209D02*
X30643285Y40991504D01*
X30798104Y40991504D01*
X30875514Y41030209D01*
X30914219Y41068914D01*
X30952923Y41146323D01*
X30952923Y41378552D01*
X30914219Y41455961D01*
X30875514Y41494666D01*
X30798104Y41533371D01*
X30643285Y41533371D01*
X30565876Y41494666D01*
X29598257Y41030209D02*
X29520847Y40991504D01*
X29366028Y40991504D01*
X29288619Y41030209D01*
X29249914Y41107619D01*
X29249914Y41146323D01*
X29288619Y41223733D01*
X29366028Y41262438D01*
X29482142Y41262438D01*
X29559552Y41301142D01*
X29598257Y41378552D01*
X29598257Y41417257D01*
X29559552Y41494666D01*
X29482142Y41533371D01*
X29366028Y41533371D01*
X29288619Y41494666D01*
X28978980Y41533371D02*
X28824161Y40991504D01*
X28669342Y41378552D01*
X28514523Y40991504D01*
X28359704Y41533371D01*
X28050066Y40991504D02*
X28050066Y41533371D01*
X28050066Y41804304D02*
X28088771Y41765600D01*
X28050066Y41726895D01*
X28011361Y41765600D01*
X28050066Y41804304D01*
X28050066Y41726895D01*
X27779133Y41533371D02*
X27469495Y41533371D01*
X27663019Y41804304D02*
X27663019Y41107619D01*
X27624314Y41030209D01*
X27546904Y40991504D01*
X27469495Y40991504D01*
X26850219Y41030209D02*
X26927628Y40991504D01*
X27082447Y40991504D01*
X27159857Y41030209D01*
X27198561Y41068914D01*
X27237266Y41146323D01*
X27237266Y41378552D01*
X27198561Y41455961D01*
X27159857Y41494666D01*
X27082447Y41533371D01*
X26927628Y41533371D01*
X26850219Y41494666D01*
X26501876Y40991504D02*
X26501876Y41804304D01*
X26153533Y40991504D02*
X26153533Y41417257D01*
X26192238Y41494666D01*
X26269647Y41533371D01*
X26385761Y41533371D01*
X26463171Y41494666D01*
X26501876Y41455961D01*
X53750028Y40224763D02*
X53324276Y40224763D01*
X53750028Y39682896D01*
X53324276Y39682896D01*
X52705000Y39721601D02*
X52782409Y39682896D01*
X52937228Y39682896D01*
X53014638Y39721601D01*
X53053342Y39799011D01*
X53053342Y40108649D01*
X53014638Y40186058D01*
X52937228Y40224763D01*
X52782409Y40224763D01*
X52705000Y40186058D01*
X52666295Y40108649D01*
X52666295Y40031239D01*
X53053342Y39953830D01*
X52317952Y39682896D02*
X52317952Y40224763D01*
X52317952Y40069944D02*
X52279247Y40147353D01*
X52240542Y40186058D01*
X52163133Y40224763D01*
X52085723Y40224763D01*
X51698676Y39682896D02*
X51776085Y39721601D01*
X51814790Y39760306D01*
X51853495Y39837715D01*
X51853495Y40069944D01*
X51814790Y40147353D01*
X51776085Y40186058D01*
X51698676Y40224763D01*
X51582561Y40224763D01*
X51505152Y40186058D01*
X51466447Y40147353D01*
X51427742Y40069944D01*
X51427742Y39837715D01*
X51466447Y39760306D01*
X51505152Y39721601D01*
X51582561Y39682896D01*
X51698676Y39682896D01*
X50498828Y39721601D02*
X50421419Y39682896D01*
X50266600Y39682896D01*
X50189190Y39721601D01*
X50150485Y39799011D01*
X50150485Y39837715D01*
X50189190Y39915125D01*
X50266600Y39953830D01*
X50382714Y39953830D01*
X50460123Y39992534D01*
X50498828Y40069944D01*
X50498828Y40108649D01*
X50460123Y40186058D01*
X50382714Y40224763D01*
X50266600Y40224763D01*
X50189190Y40186058D01*
X49918257Y40224763D02*
X49608619Y40224763D01*
X49802142Y40495696D02*
X49802142Y39799011D01*
X49763438Y39721601D01*
X49686028Y39682896D01*
X49608619Y39682896D01*
X48989342Y39682896D02*
X48989342Y40108649D01*
X49028047Y40186058D01*
X49105457Y40224763D01*
X49260276Y40224763D01*
X49337685Y40186058D01*
X48989342Y39721601D02*
X49066752Y39682896D01*
X49260276Y39682896D01*
X49337685Y39721601D01*
X49376390Y39799011D01*
X49376390Y39876420D01*
X49337685Y39953830D01*
X49260276Y39992534D01*
X49066752Y39992534D01*
X48989342Y40031239D01*
X48602295Y40224763D02*
X48602295Y39682896D01*
X48602295Y40147353D02*
X48563590Y40186058D01*
X48486180Y40224763D01*
X48370066Y40224763D01*
X48292657Y40186058D01*
X48253952Y40108649D01*
X48253952Y39682896D01*
X47518561Y39682896D02*
X47518561Y40495696D01*
X47518561Y39721601D02*
X47595971Y39682896D01*
X47750790Y39682896D01*
X47828200Y39721601D01*
X47866904Y39760306D01*
X47905609Y39837715D01*
X47905609Y40069944D01*
X47866904Y40147353D01*
X47828200Y40186058D01*
X47750790Y40224763D01*
X47595971Y40224763D01*
X47518561Y40186058D01*
X47131514Y39682896D02*
X47131514Y40495696D01*
X47131514Y40186058D02*
X47054104Y40224763D01*
X46899285Y40224763D01*
X46821876Y40186058D01*
X46783171Y40147353D01*
X46744466Y40069944D01*
X46744466Y39837715D01*
X46783171Y39760306D01*
X46821876Y39721601D01*
X46899285Y39682896D01*
X47054104Y39682896D01*
X47131514Y39721601D01*
X46473533Y40224763D02*
X46280009Y39682896D01*
X46086485Y40224763D02*
X46280009Y39682896D01*
X46357419Y39489372D01*
X46396123Y39450668D01*
X46473533Y39411963D01*
X45157571Y40224763D02*
X45157571Y39411963D01*
X45157571Y40186058D02*
X45080161Y40224763D01*
X44925342Y40224763D01*
X44847933Y40186058D01*
X44809228Y40147353D01*
X44770523Y40069944D01*
X44770523Y39837715D01*
X44809228Y39760306D01*
X44847933Y39721601D01*
X44925342Y39682896D01*
X45080161Y39682896D01*
X45157571Y39721601D01*
X44306066Y39682896D02*
X44383476Y39721601D01*
X44422180Y39760306D01*
X44460885Y39837715D01*
X44460885Y40069944D01*
X44422180Y40147353D01*
X44383476Y40186058D01*
X44306066Y40224763D01*
X44189952Y40224763D01*
X44112542Y40186058D01*
X44073838Y40147353D01*
X44035133Y40069944D01*
X44035133Y39837715D01*
X44073838Y39760306D01*
X44112542Y39721601D01*
X44189952Y39682896D01*
X44306066Y39682896D01*
X43764200Y40224763D02*
X43609380Y39682896D01*
X43454561Y40069944D01*
X43299742Y39682896D01*
X43144923Y40224763D01*
X42525647Y39721601D02*
X42603057Y39682896D01*
X42757876Y39682896D01*
X42835285Y39721601D01*
X42873990Y39799011D01*
X42873990Y40108649D01*
X42835285Y40186058D01*
X42757876Y40224763D01*
X42603057Y40224763D01*
X42525647Y40186058D01*
X42486942Y40108649D01*
X42486942Y40031239D01*
X42873990Y39953830D01*
X42138600Y39682896D02*
X42138600Y40224763D01*
X42138600Y40069944D02*
X42099895Y40147353D01*
X42061190Y40186058D01*
X41983780Y40224763D01*
X41906371Y40224763D01*
X40783933Y39373258D02*
X40822638Y39411963D01*
X40900047Y39528077D01*
X40938752Y39605487D01*
X40977457Y39721601D01*
X41016161Y39915125D01*
X41016161Y40069944D01*
X40977457Y40263468D01*
X40938752Y40379582D01*
X40900047Y40456992D01*
X40822638Y40573106D01*
X40783933Y40611811D01*
X40358180Y39682896D02*
X40435590Y39721601D01*
X40474295Y39760306D01*
X40513000Y39837715D01*
X40513000Y40069944D01*
X40474295Y40147353D01*
X40435590Y40186058D01*
X40358180Y40224763D01*
X40242066Y40224763D01*
X40164657Y40186058D01*
X40125952Y40147353D01*
X40087247Y40069944D01*
X40087247Y39837715D01*
X40125952Y39760306D01*
X40164657Y39721601D01*
X40242066Y39682896D01*
X40358180Y39682896D01*
X39738904Y40224763D02*
X39738904Y39682896D01*
X39738904Y40147353D02*
X39700200Y40186058D01*
X39622790Y40224763D01*
X39506676Y40224763D01*
X39429266Y40186058D01*
X39390561Y40108649D01*
X39390561Y39682896D01*
X38887400Y39682896D02*
X38964809Y39721601D01*
X39003514Y39799011D01*
X39003514Y40495696D01*
X38655171Y40224763D02*
X38461647Y39682896D01*
X38268123Y40224763D02*
X38461647Y39682896D01*
X38539057Y39489372D01*
X38577761Y39450668D01*
X38655171Y39411963D01*
X36990866Y39682896D02*
X36990866Y40108649D01*
X37029571Y40186058D01*
X37106980Y40224763D01*
X37261800Y40224763D01*
X37339209Y40186058D01*
X36990866Y39721601D02*
X37068276Y39682896D01*
X37261800Y39682896D01*
X37339209Y39721601D01*
X37377914Y39799011D01*
X37377914Y39876420D01*
X37339209Y39953830D01*
X37261800Y39992534D01*
X37068276Y39992534D01*
X36990866Y40031239D01*
X36255476Y39721601D02*
X36332885Y39682896D01*
X36487704Y39682896D01*
X36565114Y39721601D01*
X36603819Y39760306D01*
X36642523Y39837715D01*
X36642523Y40069944D01*
X36603819Y40147353D01*
X36565114Y40186058D01*
X36487704Y40224763D01*
X36332885Y40224763D01*
X36255476Y40186058D01*
X35558790Y39721601D02*
X35636200Y39682896D01*
X35791019Y39682896D01*
X35868428Y39721601D01*
X35907133Y39760306D01*
X35945838Y39837715D01*
X35945838Y40069944D01*
X35907133Y40147353D01*
X35868428Y40186058D01*
X35791019Y40224763D01*
X35636200Y40224763D01*
X35558790Y40186058D01*
X34862104Y40224763D02*
X34862104Y39682896D01*
X35210447Y40224763D02*
X35210447Y39799011D01*
X35171742Y39721601D01*
X35094333Y39682896D01*
X34978219Y39682896D01*
X34900809Y39721601D01*
X34862104Y39760306D01*
X34475057Y39682896D02*
X34475057Y40224763D01*
X34475057Y40147353D02*
X34436352Y40186058D01*
X34358942Y40224763D01*
X34242828Y40224763D01*
X34165419Y40186058D01*
X34126714Y40108649D01*
X34126714Y39682896D01*
X34126714Y40108649D02*
X34088009Y40186058D01*
X34010600Y40224763D01*
X33894485Y40224763D01*
X33817076Y40186058D01*
X33778371Y40108649D01*
X33778371Y39682896D01*
X33042980Y40224763D02*
X33042980Y39682896D01*
X33391323Y40224763D02*
X33391323Y39799011D01*
X33352619Y39721601D01*
X33275209Y39682896D01*
X33159095Y39682896D01*
X33081685Y39721601D01*
X33042980Y39760306D01*
X32539819Y39682896D02*
X32617228Y39721601D01*
X32655933Y39799011D01*
X32655933Y40495696D01*
X31881838Y39682896D02*
X31881838Y40108649D01*
X31920542Y40186058D01*
X31997952Y40224763D01*
X32152771Y40224763D01*
X32230180Y40186058D01*
X31881838Y39721601D02*
X31959247Y39682896D01*
X32152771Y39682896D01*
X32230180Y39721601D01*
X32268885Y39799011D01*
X32268885Y39876420D01*
X32230180Y39953830D01*
X32152771Y39992534D01*
X31959247Y39992534D01*
X31881838Y40031239D01*
X31610904Y40224763D02*
X31301266Y40224763D01*
X31494790Y40495696D02*
X31494790Y39799011D01*
X31456085Y39721601D01*
X31378676Y39682896D01*
X31301266Y39682896D01*
X30914219Y39682896D02*
X30991628Y39721601D01*
X31030333Y39760306D01*
X31069038Y39837715D01*
X31069038Y40069944D01*
X31030333Y40147353D01*
X30991628Y40186058D01*
X30914219Y40224763D01*
X30798104Y40224763D01*
X30720695Y40186058D01*
X30681990Y40147353D01*
X30643285Y40069944D01*
X30643285Y39837715D01*
X30681990Y39760306D01*
X30720695Y39721601D01*
X30798104Y39682896D01*
X30914219Y39682896D01*
X30294942Y39682896D02*
X30294942Y40224763D01*
X30294942Y40069944D02*
X30256238Y40147353D01*
X30217533Y40186058D01*
X30140123Y40224763D01*
X30062714Y40224763D01*
X29830485Y39721601D02*
X29753076Y39682896D01*
X29598257Y39682896D01*
X29520847Y39721601D01*
X29482142Y39799011D01*
X29482142Y39837715D01*
X29520847Y39915125D01*
X29598257Y39953830D01*
X29714371Y39953830D01*
X29791780Y39992534D01*
X29830485Y40069944D01*
X29830485Y40108649D01*
X29791780Y40186058D01*
X29714371Y40224763D01*
X29598257Y40224763D01*
X29520847Y40186058D01*
X29211209Y39373258D02*
X29172504Y39411963D01*
X29095095Y39528077D01*
X29056390Y39605487D01*
X29017685Y39721601D01*
X28978980Y39915125D01*
X28978980Y40069944D01*
X29017685Y40263468D01*
X29056390Y40379582D01*
X29095095Y40456992D01*
X29172504Y40573106D01*
X29211209Y40611811D01*
X28088771Y40495696D02*
X27817838Y39682896D01*
X27546904Y40495696D01*
X26850219Y39682896D02*
X27314676Y39682896D01*
X27082447Y39682896D02*
X27082447Y40495696D01*
X27159857Y40379582D01*
X27237266Y40302172D01*
X27314676Y40263468D01*
X26501876Y39760306D02*
X26463171Y39721601D01*
X26501876Y39682896D01*
X26540580Y39721601D01*
X26501876Y39760306D01*
X26501876Y39682896D01*
X25766485Y40495696D02*
X25921304Y40495696D01*
X25998714Y40456992D01*
X26037419Y40418287D01*
X26114828Y40302172D01*
X26153533Y40147353D01*
X26153533Y39837715D01*
X26114828Y39760306D01*
X26076123Y39721601D01*
X25998714Y39682896D01*
X25843895Y39682896D01*
X25766485Y39721601D01*
X25727780Y39760306D01*
X25689076Y39837715D01*
X25689076Y40031239D01*
X25727780Y40108649D01*
X25766485Y40147353D01*
X25843895Y40186058D01*
X25998714Y40186058D01*
X26076123Y40147353D01*
X26114828Y40108649D01*
X26153533Y40031239D01*
D11*
%TO.C,Module1*%
X13157142Y29010000D02*
X13214285Y29038571D01*
X13300000Y29038571D01*
X13385714Y29010000D01*
X13442857Y28952857D01*
X13471428Y28895714D01*
X13500000Y28781428D01*
X13500000Y28695714D01*
X13471428Y28581428D01*
X13442857Y28524285D01*
X13385714Y28467142D01*
X13300000Y28438571D01*
X13242857Y28438571D01*
X13157142Y28467142D01*
X13128571Y28495714D01*
X13128571Y28695714D01*
X13242857Y28695714D01*
X12871428Y28438571D02*
X12871428Y29038571D01*
X12528571Y28438571D01*
X12528571Y29038571D01*
X12242857Y28438571D02*
X12242857Y29038571D01*
X12100000Y29038571D01*
X12014285Y29010000D01*
X11957142Y28952857D01*
X11928571Y28895714D01*
X11900000Y28781428D01*
X11900000Y28695714D01*
X11928571Y28581428D01*
X11957142Y28524285D01*
X12014285Y28467142D01*
X12100000Y28438571D01*
X12242857Y28438571D01*
X13385714Y18913571D02*
X13385714Y19513571D01*
X13242857Y19513571D01*
X13157142Y19485000D01*
X13100000Y19427857D01*
X13071428Y19370714D01*
X13042857Y19256428D01*
X13042857Y19170714D01*
X13071428Y19056428D01*
X13100000Y18999285D01*
X13157142Y18942142D01*
X13242857Y18913571D01*
X13385714Y18913571D01*
X12871428Y19513571D02*
X12528571Y19513571D01*
X12700000Y18913571D02*
X12700000Y19513571D01*
X11985714Y18913571D02*
X12185714Y19199285D01*
X12328571Y18913571D02*
X12328571Y19513571D01*
X12100000Y19513571D01*
X12042857Y19485000D01*
X12014285Y19456428D01*
X11985714Y19399285D01*
X11985714Y19313571D01*
X12014285Y19256428D01*
X12042857Y19227857D01*
X12100000Y19199285D01*
X12328571Y19199285D01*
X13457142Y21418571D02*
X13114285Y21418571D01*
X13285714Y20818571D02*
X13285714Y21418571D01*
X12971428Y21418571D02*
X12571428Y20818571D01*
X12571428Y21418571D02*
X12971428Y20818571D01*
X12342857Y20818571D02*
X12342857Y21418571D01*
X12200000Y21418571D01*
X12114285Y21390000D01*
X12057142Y21332857D01*
X12028571Y21275714D01*
X12000000Y21161428D01*
X12000000Y21075714D01*
X12028571Y20961428D01*
X12057142Y20904285D01*
X12114285Y20847142D01*
X12200000Y20818571D01*
X12342857Y20818571D01*
X13500000Y26498571D02*
X13300000Y25898571D01*
X13100000Y26498571D01*
X12557142Y25955714D02*
X12585714Y25927142D01*
X12671428Y25898571D01*
X12728571Y25898571D01*
X12814285Y25927142D01*
X12871428Y25984285D01*
X12900000Y26041428D01*
X12928571Y26155714D01*
X12928571Y26241428D01*
X12900000Y26355714D01*
X12871428Y26412857D01*
X12814285Y26470000D01*
X12728571Y26498571D01*
X12671428Y26498571D01*
X12585714Y26470000D01*
X12557142Y26441428D01*
X11957142Y25955714D02*
X11985714Y25927142D01*
X12071428Y25898571D01*
X12128571Y25898571D01*
X12214285Y25927142D01*
X12271428Y25984285D01*
X12300000Y26041428D01*
X12328571Y26155714D01*
X12328571Y26241428D01*
X12300000Y26355714D01*
X12271428Y26412857D01*
X12214285Y26470000D01*
X12128571Y26498571D01*
X12071428Y26498571D01*
X11985714Y26470000D01*
X11957142Y26441428D01*
X12942857Y23358571D02*
X13142857Y23644285D01*
X13285714Y23358571D02*
X13285714Y23958571D01*
X13057142Y23958571D01*
X13000000Y23930000D01*
X12971428Y23901428D01*
X12942857Y23844285D01*
X12942857Y23758571D01*
X12971428Y23701428D01*
X13000000Y23672857D01*
X13057142Y23644285D01*
X13285714Y23644285D01*
X12742857Y23958571D02*
X12342857Y23358571D01*
X12342857Y23958571D02*
X12742857Y23358571D01*
X12114285Y23358571D02*
X12114285Y23958571D01*
X13157142Y30915000D02*
X13214285Y30943571D01*
X13300000Y30943571D01*
X13385714Y30915000D01*
X13442857Y30857857D01*
X13471428Y30800714D01*
X13500000Y30686428D01*
X13500000Y30600714D01*
X13471428Y30486428D01*
X13442857Y30429285D01*
X13385714Y30372142D01*
X13300000Y30343571D01*
X13242857Y30343571D01*
X13157142Y30372142D01*
X13128571Y30400714D01*
X13128571Y30600714D01*
X13242857Y30600714D01*
X12871428Y30343571D02*
X12871428Y30943571D01*
X12528571Y30343571D01*
X12528571Y30943571D01*
X12242857Y30343571D02*
X12242857Y30943571D01*
X12100000Y30943571D01*
X12014285Y30915000D01*
X11957142Y30857857D01*
X11928571Y30800714D01*
X11900000Y30686428D01*
X11900000Y30600714D01*
X11928571Y30486428D01*
X11957142Y30429285D01*
X12014285Y30372142D01*
X12100000Y30343571D01*
X12242857Y30343571D01*
X10795000Y21090000D02*
G75*
G03*
X10795000Y21090000I-635000J0D01*
G01*
X10795000Y23630000D02*
G75*
G03*
X10795000Y23630000I-635000J0D01*
G01*
X10795000Y28710000D02*
G75*
G03*
X10795000Y28710000I-635000J0D01*
G01*
X10795000Y31250000D02*
G75*
G03*
X10795000Y31250000I-635000J0D01*
G01*
X10795000Y18550000D02*
G75*
G03*
X10795000Y18550000I-635000J0D01*
G01*
X10795000Y26170000D02*
G75*
G03*
X10795000Y26170000I-635000J0D01*
G01*
%TD*%
%LPC*%
D12*
%TO.C,C4*%
X19431000Y36330000D03*
X14431000Y36330000D03*
%TD*%
D13*
%TO.C,C5*%
X15240000Y45760000D03*
D14*
X15240000Y47760000D03*
%TD*%
D15*
%TO.C,D1*%
X1738000Y32266000D03*
D16*
X4278000Y32266000D03*
%TD*%
D17*
%TO.C,D2*%
X60960000Y31250000D03*
D18*
X53340000Y31250000D03*
%TD*%
D17*
%TO.C,D3*%
X71247000Y9787000D03*
D18*
X63627000Y9787000D03*
%TD*%
D17*
%TO.C,D6*%
X71247000Y6485000D03*
D18*
X63627000Y6485000D03*
%TD*%
D17*
%TO.C,D11*%
X39370000Y52840000D03*
D18*
X39370000Y60460000D03*
%TD*%
D19*
%TO.C,H1*%
X75697000Y54739000D03*
%TD*%
%TO.C,H3*%
X9657000Y8765000D03*
%TD*%
%TO.C,H4*%
X75951000Y8638000D03*
%TD*%
D20*
%TO.C,J2*%
X16510000Y2040000D03*
D21*
X19050000Y2040000D03*
X21590000Y2040000D03*
X24130000Y2040000D03*
X26670000Y2040000D03*
X29210000Y2040000D03*
%TD*%
D20*
%TO.C,J4*%
X52070000Y1907000D03*
D21*
X49530000Y1907000D03*
X46990000Y1907000D03*
X44450000Y1907000D03*
X41910000Y1907000D03*
X39370000Y1907000D03*
X36830000Y1907000D03*
%TD*%
D20*
%TO.C,J5*%
X3048000Y11692000D03*
D21*
X3048000Y14232000D03*
X3048000Y16772000D03*
X3048000Y19312000D03*
X3048000Y21852000D03*
X3048000Y24392000D03*
%TD*%
D20*
%TO.C,J6*%
X82550000Y51062000D03*
D21*
X82550000Y53602000D03*
%TD*%
D20*
%TO.C,J10*%
X3048000Y43950000D03*
D21*
X3048000Y46490000D03*
X3048000Y49030000D03*
%TD*%
D22*
%TO.C,Module2*%
X83735000Y23020000D03*
X65735000Y28520000D03*
D23*
X83735000Y20520000D03*
D22*
X65735000Y26520000D03*
X83735000Y18020000D03*
X65735000Y24520000D03*
X65735000Y22520000D03*
X65735000Y20520000D03*
X65735000Y18520000D03*
X65735000Y16520000D03*
X65735000Y14520000D03*
%TD*%
D24*
%TO.C,Q1*%
X70093000Y42680000D03*
D25*
X72383000Y42680000D03*
X74673000Y42680000D03*
%TD*%
D26*
%TO.C,R1*%
X6604000Y33536000D03*
D27*
X6604000Y28456000D03*
%TD*%
D14*
%TO.C,R2*%
X26035000Y51570000D03*
D28*
X15875000Y51570000D03*
%TD*%
D26*
%TO.C,R13*%
X52324000Y43188000D03*
D27*
X47244000Y43188000D03*
%TD*%
D26*
%TO.C,R14*%
X55118000Y38489000D03*
D27*
X60198000Y38489000D03*
%TD*%
D26*
%TO.C,R17*%
X60960000Y34425000D03*
D27*
X55880000Y34425000D03*
%TD*%
D14*
%TO.C,R22*%
X14986000Y55380000D03*
D28*
X35306000Y55380000D03*
%TD*%
D12*
%TO.C,SW1*%
X16308000Y6140000D03*
X22808000Y6140000D03*
X16308000Y10640000D03*
X22808000Y10640000D03*
%TD*%
D19*
%TO.C,H2*%
X9657000Y54739000D03*
%TD*%
D16*
%TO.C,Module1*%
X12700000Y32520000D03*
X40640000Y24900000D03*
X12700000Y17280000D03*
X10160000Y18550000D03*
X21590000Y29980000D03*
X15240000Y32520000D03*
X40640000Y27440000D03*
X15240000Y17280000D03*
X10160000Y21090000D03*
X24130000Y29980000D03*
X17780000Y32520000D03*
X40640000Y29980000D03*
X17780000Y17280000D03*
X10160000Y23630000D03*
X20320000Y32520000D03*
X20320000Y17280000D03*
X10160000Y26170000D03*
X22860000Y32520000D03*
X22860000Y17280000D03*
X10160000Y28710000D03*
X25400000Y32520000D03*
X25400000Y17280000D03*
X10160000Y31250000D03*
X27940000Y32520000D03*
X27940000Y17280000D03*
X30480000Y32520000D03*
X30480000Y17280000D03*
X33020000Y32520000D03*
X33020000Y17280000D03*
X35560000Y32520000D03*
X35560000Y17280000D03*
X38100000Y32520000D03*
X38100000Y17280000D03*
X40640000Y32520000D03*
X40640000Y17280000D03*
%TD*%
D26*
%TO.C,R3*%
X64008000Y39378000D03*
D27*
X69088000Y39378000D03*
%TD*%
D20*
%TO.C,J1*%
X82550000Y47282000D03*
D21*
X82550000Y44742000D03*
%TD*%
D29*
%TO.C,Q4*%
X83398000Y34298000D03*
X83398000Y36838000D03*
X83398000Y39378000D03*
%TD*%
D26*
%TO.C,R5*%
X41910000Y10930000D03*
D27*
X41910000Y5850000D03*
%TD*%
D26*
%TO.C,R6*%
X44450000Y10930000D03*
D27*
X44450000Y5850000D03*
%TD*%
D26*
%TO.C,R7*%
X46990000Y10930000D03*
D27*
X46990000Y5850000D03*
%TD*%
D26*
%TO.C,R8*%
X49530000Y10930000D03*
D27*
X49530000Y5850000D03*
%TD*%
D26*
%TO.C,R9*%
X77724000Y37600000D03*
D27*
X77724000Y32520000D03*
%TD*%
D26*
%TO.C,R10*%
X77470000Y45728000D03*
D27*
X77470000Y40648000D03*
%TD*%
D26*
%TO.C,R11*%
X39370000Y10930000D03*
D27*
X39370000Y5850000D03*
%TD*%
D19*
%TO.C,H5*%
X4000000Y59020000D03*
%TD*%
%TO.C,H7*%
X4000000Y4000000D03*
%TD*%
%TO.C,H8*%
X82000000Y4000000D03*
%TD*%
D13*
%TO.C,C1*%
X67310000Y35060000D03*
D14*
X64810000Y35060000D03*
%TD*%
D19*
%TO.C,H6*%
X82000000Y59000000D03*
%TD*%
D20*
%TO.C,J3*%
X72390000Y2040000D03*
D21*
X69850000Y2040000D03*
X67310000Y2040000D03*
X64770000Y2040000D03*
X62230000Y2040000D03*
X59690000Y2040000D03*
%TD*%
D15*
%TO.C,Q2*%
X56134000Y42051000D03*
D30*
X58674000Y42051000D03*
X61214000Y42051000D03*
%TD*%
D31*
%TO.C,Module3*%
X58917000Y21719000D03*
X48757000Y21719000D03*
X48757000Y19179000D03*
X48757000Y14099000D03*
X48757000Y16639000D03*
X48757000Y24259000D03*
X48757000Y26799000D03*
X58917000Y19179000D03*
X58917000Y14099000D03*
X58917000Y16639000D03*
X58917000Y24259000D03*
X58917000Y26799000D03*
%TD*%
D32*
%TO.C,J7*%
X10414000Y2040000D03*
%TD*%
D14*
%TO.C,R4*%
X26860500Y47861600D03*
D28*
X37020500Y47861600D03*
%TD*%
D12*
%TO.C,SW2*%
X28448000Y10676000D03*
X34948000Y10676000D03*
X28448000Y6176000D03*
X34948000Y6176000D03*
%TD*%
D33*
%TO.C,Module4*%
X68650000Y59190000D03*
X50730000Y59190000D03*
X68650000Y48170000D03*
X50730000Y48270000D03*
%TD*%
D34*
%TO.C,Q3*%
X46786800Y33637600D03*
D35*
X48056800Y36177600D03*
X49326800Y33637600D03*
%TD*%
D14*
%TO.C,R15*%
X14986000Y59444000D03*
D28*
X35306000Y59444000D03*
%TD*%
D32*
%TO.C,J8*%
X10414000Y4580000D03*
%TD*%
D26*
%TO.C,R12*%
X73660000Y39632000D03*
D27*
X73660000Y34552000D03*
%TD*%
M02*
