%TF.GenerationSoftware,KiCad,Pcbnew,6.0.11-2627ca5db0~126~ubuntu22.04.1*%
%TF.CreationDate,2023-07-25T17:15:12+02:00*%
%TF.ProjectId,HB-UNI-SenAct-4-4-SC_DS_FUEL4EP_PCB,48422d55-4e49-42d5-9365-6e4163742d34,1.5*%
%TF.SameCoordinates,Original*%
%TF.FileFunction,Legend,Bot*%
%TF.FilePolarity,Positive*%
%FSLAX46Y46*%
G04 Gerber Fmt 4.6, Leading zero omitted, Abs format (unit mm)*
G04 Created by KiCad (PCBNEW 6.0.11-2627ca5db0~126~ubuntu22.04.1) date 2023-07-25 17:15:12*
%MOMM*%
%LPD*%
G01*
G04 APERTURE LIST*
%ADD10C,0.152400*%
%ADD11C,0.150000*%
%ADD12C,2.000000*%
%ADD13R,1.600000X1.600000*%
%ADD14C,1.600000*%
%ADD15R,1.800000X1.800000*%
%ADD16C,1.800000*%
%ADD17R,2.200000X2.200000*%
%ADD18O,2.200000X2.200000*%
%ADD19C,5.800000*%
%ADD20R,1.700000X1.700000*%
%ADD21O,1.700000X1.700000*%
%ADD22C,1.350000*%
%ADD23C,3.000000*%
%ADD24R,1.717500X1.800000*%
%ADD25O,1.717500X1.800000*%
%ADD26R,1.498600X1.498600*%
%ADD27C,1.498600*%
%ADD28C,1.400000*%
%ADD29O,1.400000X1.400000*%
%ADD30O,1.600000X1.600000*%
%ADD31O,3.251200X1.625600*%
%ADD32O,1.800000X1.800000*%
%ADD33C,2.082800*%
%ADD34R,1.000000X1.000000*%
%ADD35R,4.000000X4.000000*%
G04 APERTURE END LIST*
D10*
X46221952Y-21009525D02*
X46260657Y-20970820D01*
X46338066Y-20854706D01*
X46376771Y-20777296D01*
X46415476Y-20661182D01*
X46454180Y-20467658D01*
X46454180Y-20312839D01*
X46415476Y-20119315D01*
X46376771Y-20003201D01*
X46338066Y-19925792D01*
X46260657Y-19809677D01*
X46221952Y-19770972D01*
X45447857Y-20622477D02*
X45486561Y-20661182D01*
X45602676Y-20699887D01*
X45680085Y-20699887D01*
X45796200Y-20661182D01*
X45873609Y-20583772D01*
X45912314Y-20506363D01*
X45951019Y-20351544D01*
X45951019Y-20235430D01*
X45912314Y-20080611D01*
X45873609Y-20003201D01*
X45796200Y-19925792D01*
X45680085Y-19887087D01*
X45602676Y-19887087D01*
X45486561Y-19925792D01*
X45447857Y-19964496D01*
X45176923Y-21009525D02*
X45138219Y-20970820D01*
X45060809Y-20854706D01*
X45022104Y-20777296D01*
X44983400Y-20661182D01*
X44944695Y-20467658D01*
X44944695Y-20312839D01*
X44983400Y-20119315D01*
X45022104Y-20003201D01*
X45060809Y-19925792D01*
X45138219Y-19809677D01*
X45176923Y-19770972D01*
X43667438Y-20274134D02*
X43938371Y-20274134D01*
X43938371Y-20699887D02*
X43938371Y-19887087D01*
X43551323Y-19887087D01*
X43241685Y-19887087D02*
X43241685Y-20545068D01*
X43202980Y-20622477D01*
X43164276Y-20661182D01*
X43086866Y-20699887D01*
X42932047Y-20699887D01*
X42854638Y-20661182D01*
X42815933Y-20622477D01*
X42777228Y-20545068D01*
X42777228Y-19887087D01*
X42390180Y-20274134D02*
X42119247Y-20274134D01*
X42003133Y-20699887D02*
X42390180Y-20699887D01*
X42390180Y-19887087D01*
X42003133Y-19887087D01*
X41267742Y-20699887D02*
X41654790Y-20699887D01*
X41654790Y-19887087D01*
X40648466Y-20158020D02*
X40648466Y-20699887D01*
X40841990Y-19848382D02*
X41035514Y-20428953D01*
X40532352Y-20428953D01*
X40222714Y-20274134D02*
X39951780Y-20274134D01*
X39835666Y-20699887D02*
X40222714Y-20699887D01*
X40222714Y-19887087D01*
X39835666Y-19887087D01*
X39487323Y-20699887D02*
X39487323Y-19887087D01*
X39177685Y-19887087D01*
X39100276Y-19925792D01*
X39061571Y-19964496D01*
X39022866Y-20041906D01*
X39022866Y-20158020D01*
X39061571Y-20235430D01*
X39100276Y-20274134D01*
X39177685Y-20312839D01*
X39487323Y-20312839D01*
X37900428Y-19887087D02*
X37823019Y-19887087D01*
X37745609Y-19925792D01*
X37706904Y-19964496D01*
X37668200Y-20041906D01*
X37629495Y-20196725D01*
X37629495Y-20390249D01*
X37668200Y-20545068D01*
X37706904Y-20622477D01*
X37745609Y-20661182D01*
X37823019Y-20699887D01*
X37900428Y-20699887D01*
X37977838Y-20661182D01*
X38016542Y-20622477D01*
X38055247Y-20545068D01*
X38093952Y-20390249D01*
X38093952Y-20196725D01*
X38055247Y-20041906D01*
X38016542Y-19964496D01*
X37977838Y-19925792D01*
X37900428Y-19887087D01*
X37358561Y-19887087D02*
X36816695Y-19887087D01*
X37165038Y-20699887D01*
X35926485Y-19848382D02*
X36623171Y-20893411D01*
X35694257Y-19964496D02*
X35655552Y-19925792D01*
X35578142Y-19887087D01*
X35384619Y-19887087D01*
X35307209Y-19925792D01*
X35268504Y-19964496D01*
X35229800Y-20041906D01*
X35229800Y-20119315D01*
X35268504Y-20235430D01*
X35732961Y-20699887D01*
X35229800Y-20699887D01*
X34726638Y-19887087D02*
X34649228Y-19887087D01*
X34571819Y-19925792D01*
X34533114Y-19964496D01*
X34494409Y-20041906D01*
X34455704Y-20196725D01*
X34455704Y-20390249D01*
X34494409Y-20545068D01*
X34533114Y-20622477D01*
X34571819Y-20661182D01*
X34649228Y-20699887D01*
X34726638Y-20699887D01*
X34804047Y-20661182D01*
X34842752Y-20622477D01*
X34881457Y-20545068D01*
X34920161Y-20390249D01*
X34920161Y-20196725D01*
X34881457Y-20041906D01*
X34842752Y-19964496D01*
X34804047Y-19925792D01*
X34726638Y-19887087D01*
X34146066Y-19964496D02*
X34107361Y-19925792D01*
X34029952Y-19887087D01*
X33836428Y-19887087D01*
X33759019Y-19925792D01*
X33720314Y-19964496D01*
X33681609Y-20041906D01*
X33681609Y-20119315D01*
X33720314Y-20235430D01*
X34184771Y-20699887D01*
X33681609Y-20699887D01*
X33410676Y-19887087D02*
X32907514Y-19887087D01*
X33178447Y-20196725D01*
X33062333Y-20196725D01*
X32984923Y-20235430D01*
X32946219Y-20274134D01*
X32907514Y-20351544D01*
X32907514Y-20545068D01*
X32946219Y-20622477D01*
X32984923Y-20661182D01*
X33062333Y-20699887D01*
X33294561Y-20699887D01*
X33371971Y-20661182D01*
X33410676Y-20622477D01*
X53362980Y-21466628D02*
X53053342Y-21466628D01*
X53246866Y-21195695D02*
X53246866Y-21892380D01*
X53208161Y-21969790D01*
X53130752Y-22008495D01*
X53053342Y-22008495D01*
X52782409Y-22008495D02*
X52782409Y-21466628D01*
X52782409Y-21621447D02*
X52743704Y-21544038D01*
X52705000Y-21505333D01*
X52627590Y-21466628D01*
X52550180Y-21466628D01*
X52279247Y-22008495D02*
X52279247Y-21466628D01*
X52279247Y-21195695D02*
X52317952Y-21234400D01*
X52279247Y-21273104D01*
X52240542Y-21234400D01*
X52279247Y-21195695D01*
X52279247Y-21273104D01*
X51892200Y-21466628D02*
X51892200Y-22279428D01*
X51892200Y-21505333D02*
X51814790Y-21466628D01*
X51659971Y-21466628D01*
X51582561Y-21505333D01*
X51543857Y-21544038D01*
X51505152Y-21621447D01*
X51505152Y-21853676D01*
X51543857Y-21931085D01*
X51582561Y-21969790D01*
X51659971Y-22008495D01*
X51814790Y-22008495D01*
X51892200Y-21969790D01*
X51040695Y-22008495D02*
X51118104Y-21969790D01*
X51156809Y-21892380D01*
X51156809Y-21195695D01*
X50421419Y-21969790D02*
X50498828Y-22008495D01*
X50653647Y-22008495D01*
X50731057Y-21969790D01*
X50769761Y-21892380D01*
X50769761Y-21582742D01*
X50731057Y-21505333D01*
X50653647Y-21466628D01*
X50498828Y-21466628D01*
X50421419Y-21505333D01*
X50382714Y-21582742D01*
X50382714Y-21660152D01*
X50769761Y-21737561D01*
X49415095Y-21466628D02*
X49415095Y-22279428D01*
X49415095Y-21505333D02*
X49337685Y-21466628D01*
X49182866Y-21466628D01*
X49105457Y-21505333D01*
X49066752Y-21544038D01*
X49028047Y-21621447D01*
X49028047Y-21853676D01*
X49066752Y-21931085D01*
X49105457Y-21969790D01*
X49182866Y-22008495D01*
X49337685Y-22008495D01*
X49415095Y-21969790D01*
X48563590Y-22008495D02*
X48641000Y-21969790D01*
X48679704Y-21931085D01*
X48718409Y-21853676D01*
X48718409Y-21621447D01*
X48679704Y-21544038D01*
X48641000Y-21505333D01*
X48563590Y-21466628D01*
X48447476Y-21466628D01*
X48370066Y-21505333D01*
X48331361Y-21544038D01*
X48292657Y-21621447D01*
X48292657Y-21853676D01*
X48331361Y-21931085D01*
X48370066Y-21969790D01*
X48447476Y-22008495D01*
X48563590Y-22008495D01*
X48021723Y-21466628D02*
X47866904Y-22008495D01*
X47712085Y-21621447D01*
X47557266Y-22008495D01*
X47402447Y-21466628D01*
X46783171Y-21969790D02*
X46860580Y-22008495D01*
X47015400Y-22008495D01*
X47092809Y-21969790D01*
X47131514Y-21892380D01*
X47131514Y-21582742D01*
X47092809Y-21505333D01*
X47015400Y-21466628D01*
X46860580Y-21466628D01*
X46783171Y-21505333D01*
X46744466Y-21582742D01*
X46744466Y-21660152D01*
X47131514Y-21737561D01*
X46396123Y-22008495D02*
X46396123Y-21466628D01*
X46396123Y-21621447D02*
X46357419Y-21544038D01*
X46318714Y-21505333D01*
X46241304Y-21466628D01*
X46163895Y-21466628D01*
X45312390Y-21969790D02*
X45234980Y-22008495D01*
X45080161Y-22008495D01*
X45002752Y-21969790D01*
X44964047Y-21892380D01*
X44964047Y-21853676D01*
X45002752Y-21776266D01*
X45080161Y-21737561D01*
X45196276Y-21737561D01*
X45273685Y-21698857D01*
X45312390Y-21621447D01*
X45312390Y-21582742D01*
X45273685Y-21505333D01*
X45196276Y-21466628D01*
X45080161Y-21466628D01*
X45002752Y-21505333D01*
X44693114Y-21466628D02*
X44538295Y-22008495D01*
X44383476Y-21621447D01*
X44228657Y-22008495D01*
X44073838Y-21466628D01*
X43764200Y-22008495D02*
X43764200Y-21466628D01*
X43764200Y-21195695D02*
X43802904Y-21234400D01*
X43764200Y-21273104D01*
X43725495Y-21234400D01*
X43764200Y-21195695D01*
X43764200Y-21273104D01*
X43493266Y-21466628D02*
X43183628Y-21466628D01*
X43377152Y-21195695D02*
X43377152Y-21892380D01*
X43338447Y-21969790D01*
X43261038Y-22008495D01*
X43183628Y-22008495D01*
X42564352Y-21969790D02*
X42641761Y-22008495D01*
X42796580Y-22008495D01*
X42873990Y-21969790D01*
X42912695Y-21931085D01*
X42951400Y-21853676D01*
X42951400Y-21621447D01*
X42912695Y-21544038D01*
X42873990Y-21505333D01*
X42796580Y-21466628D01*
X42641761Y-21466628D01*
X42564352Y-21505333D01*
X42216009Y-22008495D02*
X42216009Y-21195695D01*
X41867666Y-22008495D02*
X41867666Y-21582742D01*
X41906371Y-21505333D01*
X41983780Y-21466628D01*
X42099895Y-21466628D01*
X42177304Y-21505333D01*
X42216009Y-21544038D01*
X40977457Y-21466628D02*
X40667819Y-21466628D01*
X40861342Y-22008495D02*
X40861342Y-21311809D01*
X40822638Y-21234400D01*
X40745228Y-21195695D01*
X40667819Y-21195695D01*
X40280771Y-22008495D02*
X40358180Y-21969790D01*
X40396885Y-21931085D01*
X40435590Y-21853676D01*
X40435590Y-21621447D01*
X40396885Y-21544038D01*
X40358180Y-21505333D01*
X40280771Y-21466628D01*
X40164657Y-21466628D01*
X40087247Y-21505333D01*
X40048542Y-21544038D01*
X40009838Y-21621447D01*
X40009838Y-21853676D01*
X40048542Y-21931085D01*
X40087247Y-21969790D01*
X40164657Y-22008495D01*
X40280771Y-22008495D01*
X39661495Y-22008495D02*
X39661495Y-21466628D01*
X39661495Y-21621447D02*
X39622790Y-21544038D01*
X39584085Y-21505333D01*
X39506676Y-21466628D01*
X39429266Y-21466628D01*
X38577761Y-21273104D02*
X38539057Y-21234400D01*
X38461647Y-21195695D01*
X38268123Y-21195695D01*
X38190714Y-21234400D01*
X38152009Y-21273104D01*
X38113304Y-21350514D01*
X38113304Y-21427923D01*
X38152009Y-21544038D01*
X38616466Y-22008495D01*
X38113304Y-22008495D01*
X37842371Y-21195695D02*
X37339209Y-21195695D01*
X37610142Y-21505333D01*
X37494028Y-21505333D01*
X37416619Y-21544038D01*
X37377914Y-21582742D01*
X37339209Y-21660152D01*
X37339209Y-21853676D01*
X37377914Y-21931085D01*
X37416619Y-21969790D01*
X37494028Y-22008495D01*
X37726257Y-22008495D01*
X37803666Y-21969790D01*
X37842371Y-21931085D01*
X36836047Y-21195695D02*
X36758638Y-21195695D01*
X36681228Y-21234400D01*
X36642523Y-21273104D01*
X36603819Y-21350514D01*
X36565114Y-21505333D01*
X36565114Y-21698857D01*
X36603819Y-21853676D01*
X36642523Y-21931085D01*
X36681228Y-21969790D01*
X36758638Y-22008495D01*
X36836047Y-22008495D01*
X36913457Y-21969790D01*
X36952161Y-21931085D01*
X36990866Y-21853676D01*
X37029571Y-21698857D01*
X37029571Y-21505333D01*
X36990866Y-21350514D01*
X36952161Y-21273104D01*
X36913457Y-21234400D01*
X36836047Y-21195695D01*
X36332885Y-21195695D02*
X36061952Y-22008495D01*
X35791019Y-21195695D01*
X34552466Y-22008495D02*
X34552466Y-21195695D01*
X34552466Y-21969790D02*
X34629876Y-22008495D01*
X34784695Y-22008495D01*
X34862104Y-21969790D01*
X34900809Y-21931085D01*
X34939514Y-21853676D01*
X34939514Y-21621447D01*
X34900809Y-21544038D01*
X34862104Y-21505333D01*
X34784695Y-21466628D01*
X34629876Y-21466628D01*
X34552466Y-21505333D01*
X33855780Y-21969790D02*
X33933190Y-22008495D01*
X34088009Y-22008495D01*
X34165419Y-21969790D01*
X34204123Y-21892380D01*
X34204123Y-21582742D01*
X34165419Y-21505333D01*
X34088009Y-21466628D01*
X33933190Y-21466628D01*
X33855780Y-21505333D01*
X33817076Y-21582742D01*
X33817076Y-21660152D01*
X34204123Y-21737561D01*
X33468733Y-22008495D02*
X33468733Y-21466628D01*
X33468733Y-21544038D02*
X33430028Y-21505333D01*
X33352619Y-21466628D01*
X33236504Y-21466628D01*
X33159095Y-21505333D01*
X33120390Y-21582742D01*
X33120390Y-22008495D01*
X33120390Y-21582742D02*
X33081685Y-21505333D01*
X33004276Y-21466628D01*
X32888161Y-21466628D01*
X32810752Y-21505333D01*
X32772047Y-21582742D01*
X32772047Y-22008495D01*
X32036657Y-22008495D02*
X32036657Y-21582742D01*
X32075361Y-21505333D01*
X32152771Y-21466628D01*
X32307590Y-21466628D01*
X32385000Y-21505333D01*
X32036657Y-21969790D02*
X32114066Y-22008495D01*
X32307590Y-22008495D01*
X32385000Y-21969790D01*
X32423704Y-21892380D01*
X32423704Y-21814971D01*
X32385000Y-21737561D01*
X32307590Y-21698857D01*
X32114066Y-21698857D01*
X32036657Y-21660152D01*
X31649609Y-21466628D02*
X31649609Y-22008495D01*
X31649609Y-21544038D02*
X31610904Y-21505333D01*
X31533495Y-21466628D01*
X31417380Y-21466628D01*
X31339971Y-21505333D01*
X31301266Y-21582742D01*
X31301266Y-22008495D01*
X30565876Y-22008495D02*
X30565876Y-21195695D01*
X30565876Y-21969790D02*
X30643285Y-22008495D01*
X30798104Y-22008495D01*
X30875514Y-21969790D01*
X30914219Y-21931085D01*
X30952923Y-21853676D01*
X30952923Y-21621447D01*
X30914219Y-21544038D01*
X30875514Y-21505333D01*
X30798104Y-21466628D01*
X30643285Y-21466628D01*
X30565876Y-21505333D01*
X29598257Y-21969790D02*
X29520847Y-22008495D01*
X29366028Y-22008495D01*
X29288619Y-21969790D01*
X29249914Y-21892380D01*
X29249914Y-21853676D01*
X29288619Y-21776266D01*
X29366028Y-21737561D01*
X29482142Y-21737561D01*
X29559552Y-21698857D01*
X29598257Y-21621447D01*
X29598257Y-21582742D01*
X29559552Y-21505333D01*
X29482142Y-21466628D01*
X29366028Y-21466628D01*
X29288619Y-21505333D01*
X28978980Y-21466628D02*
X28824161Y-22008495D01*
X28669342Y-21621447D01*
X28514523Y-22008495D01*
X28359704Y-21466628D01*
X28050066Y-22008495D02*
X28050066Y-21466628D01*
X28050066Y-21195695D02*
X28088771Y-21234400D01*
X28050066Y-21273104D01*
X28011361Y-21234400D01*
X28050066Y-21195695D01*
X28050066Y-21273104D01*
X27779133Y-21466628D02*
X27469495Y-21466628D01*
X27663019Y-21195695D02*
X27663019Y-21892380D01*
X27624314Y-21969790D01*
X27546904Y-22008495D01*
X27469495Y-22008495D01*
X26850219Y-21969790D02*
X26927628Y-22008495D01*
X27082447Y-22008495D01*
X27159857Y-21969790D01*
X27198561Y-21931085D01*
X27237266Y-21853676D01*
X27237266Y-21621447D01*
X27198561Y-21544038D01*
X27159857Y-21505333D01*
X27082447Y-21466628D01*
X26927628Y-21466628D01*
X26850219Y-21505333D01*
X26501876Y-22008495D02*
X26501876Y-21195695D01*
X26153533Y-22008495D02*
X26153533Y-21582742D01*
X26192238Y-21505333D01*
X26269647Y-21466628D01*
X26385761Y-21466628D01*
X26463171Y-21505333D01*
X26501876Y-21544038D01*
X53750028Y-22775236D02*
X53324276Y-22775236D01*
X53750028Y-23317103D01*
X53324276Y-23317103D01*
X52705000Y-23278398D02*
X52782409Y-23317103D01*
X52937228Y-23317103D01*
X53014638Y-23278398D01*
X53053342Y-23200988D01*
X53053342Y-22891350D01*
X53014638Y-22813941D01*
X52937228Y-22775236D01*
X52782409Y-22775236D01*
X52705000Y-22813941D01*
X52666295Y-22891350D01*
X52666295Y-22968760D01*
X53053342Y-23046169D01*
X52317952Y-23317103D02*
X52317952Y-22775236D01*
X52317952Y-22930055D02*
X52279247Y-22852646D01*
X52240542Y-22813941D01*
X52163133Y-22775236D01*
X52085723Y-22775236D01*
X51698676Y-23317103D02*
X51776085Y-23278398D01*
X51814790Y-23239693D01*
X51853495Y-23162284D01*
X51853495Y-22930055D01*
X51814790Y-22852646D01*
X51776085Y-22813941D01*
X51698676Y-22775236D01*
X51582561Y-22775236D01*
X51505152Y-22813941D01*
X51466447Y-22852646D01*
X51427742Y-22930055D01*
X51427742Y-23162284D01*
X51466447Y-23239693D01*
X51505152Y-23278398D01*
X51582561Y-23317103D01*
X51698676Y-23317103D01*
X50498828Y-23278398D02*
X50421419Y-23317103D01*
X50266600Y-23317103D01*
X50189190Y-23278398D01*
X50150485Y-23200988D01*
X50150485Y-23162284D01*
X50189190Y-23084874D01*
X50266600Y-23046169D01*
X50382714Y-23046169D01*
X50460123Y-23007465D01*
X50498828Y-22930055D01*
X50498828Y-22891350D01*
X50460123Y-22813941D01*
X50382714Y-22775236D01*
X50266600Y-22775236D01*
X50189190Y-22813941D01*
X49918257Y-22775236D02*
X49608619Y-22775236D01*
X49802142Y-22504303D02*
X49802142Y-23200988D01*
X49763438Y-23278398D01*
X49686028Y-23317103D01*
X49608619Y-23317103D01*
X48989342Y-23317103D02*
X48989342Y-22891350D01*
X49028047Y-22813941D01*
X49105457Y-22775236D01*
X49260276Y-22775236D01*
X49337685Y-22813941D01*
X48989342Y-23278398D02*
X49066752Y-23317103D01*
X49260276Y-23317103D01*
X49337685Y-23278398D01*
X49376390Y-23200988D01*
X49376390Y-23123579D01*
X49337685Y-23046169D01*
X49260276Y-23007465D01*
X49066752Y-23007465D01*
X48989342Y-22968760D01*
X48602295Y-22775236D02*
X48602295Y-23317103D01*
X48602295Y-22852646D02*
X48563590Y-22813941D01*
X48486180Y-22775236D01*
X48370066Y-22775236D01*
X48292657Y-22813941D01*
X48253952Y-22891350D01*
X48253952Y-23317103D01*
X47518561Y-23317103D02*
X47518561Y-22504303D01*
X47518561Y-23278398D02*
X47595971Y-23317103D01*
X47750790Y-23317103D01*
X47828200Y-23278398D01*
X47866904Y-23239693D01*
X47905609Y-23162284D01*
X47905609Y-22930055D01*
X47866904Y-22852646D01*
X47828200Y-22813941D01*
X47750790Y-22775236D01*
X47595971Y-22775236D01*
X47518561Y-22813941D01*
X47131514Y-23317103D02*
X47131514Y-22504303D01*
X47131514Y-22813941D02*
X47054104Y-22775236D01*
X46899285Y-22775236D01*
X46821876Y-22813941D01*
X46783171Y-22852646D01*
X46744466Y-22930055D01*
X46744466Y-23162284D01*
X46783171Y-23239693D01*
X46821876Y-23278398D01*
X46899285Y-23317103D01*
X47054104Y-23317103D01*
X47131514Y-23278398D01*
X46473533Y-22775236D02*
X46280009Y-23317103D01*
X46086485Y-22775236D02*
X46280009Y-23317103D01*
X46357419Y-23510627D01*
X46396123Y-23549331D01*
X46473533Y-23588036D01*
X45157571Y-22775236D02*
X45157571Y-23588036D01*
X45157571Y-22813941D02*
X45080161Y-22775236D01*
X44925342Y-22775236D01*
X44847933Y-22813941D01*
X44809228Y-22852646D01*
X44770523Y-22930055D01*
X44770523Y-23162284D01*
X44809228Y-23239693D01*
X44847933Y-23278398D01*
X44925342Y-23317103D01*
X45080161Y-23317103D01*
X45157571Y-23278398D01*
X44306066Y-23317103D02*
X44383476Y-23278398D01*
X44422180Y-23239693D01*
X44460885Y-23162284D01*
X44460885Y-22930055D01*
X44422180Y-22852646D01*
X44383476Y-22813941D01*
X44306066Y-22775236D01*
X44189952Y-22775236D01*
X44112542Y-22813941D01*
X44073838Y-22852646D01*
X44035133Y-22930055D01*
X44035133Y-23162284D01*
X44073838Y-23239693D01*
X44112542Y-23278398D01*
X44189952Y-23317103D01*
X44306066Y-23317103D01*
X43764200Y-22775236D02*
X43609380Y-23317103D01*
X43454561Y-22930055D01*
X43299742Y-23317103D01*
X43144923Y-22775236D01*
X42525647Y-23278398D02*
X42603057Y-23317103D01*
X42757876Y-23317103D01*
X42835285Y-23278398D01*
X42873990Y-23200988D01*
X42873990Y-22891350D01*
X42835285Y-22813941D01*
X42757876Y-22775236D01*
X42603057Y-22775236D01*
X42525647Y-22813941D01*
X42486942Y-22891350D01*
X42486942Y-22968760D01*
X42873990Y-23046169D01*
X42138600Y-23317103D02*
X42138600Y-22775236D01*
X42138600Y-22930055D02*
X42099895Y-22852646D01*
X42061190Y-22813941D01*
X41983780Y-22775236D01*
X41906371Y-22775236D01*
X40783933Y-23626741D02*
X40822638Y-23588036D01*
X40900047Y-23471922D01*
X40938752Y-23394512D01*
X40977457Y-23278398D01*
X41016161Y-23084874D01*
X41016161Y-22930055D01*
X40977457Y-22736531D01*
X40938752Y-22620417D01*
X40900047Y-22543008D01*
X40822638Y-22426893D01*
X40783933Y-22388188D01*
X40358180Y-23317103D02*
X40435590Y-23278398D01*
X40474295Y-23239693D01*
X40513000Y-23162284D01*
X40513000Y-22930055D01*
X40474295Y-22852646D01*
X40435590Y-22813941D01*
X40358180Y-22775236D01*
X40242066Y-22775236D01*
X40164657Y-22813941D01*
X40125952Y-22852646D01*
X40087247Y-22930055D01*
X40087247Y-23162284D01*
X40125952Y-23239693D01*
X40164657Y-23278398D01*
X40242066Y-23317103D01*
X40358180Y-23317103D01*
X39738904Y-22775236D02*
X39738904Y-23317103D01*
X39738904Y-22852646D02*
X39700200Y-22813941D01*
X39622790Y-22775236D01*
X39506676Y-22775236D01*
X39429266Y-22813941D01*
X39390561Y-22891350D01*
X39390561Y-23317103D01*
X38887400Y-23317103D02*
X38964809Y-23278398D01*
X39003514Y-23200988D01*
X39003514Y-22504303D01*
X38655171Y-22775236D02*
X38461647Y-23317103D01*
X38268123Y-22775236D02*
X38461647Y-23317103D01*
X38539057Y-23510627D01*
X38577761Y-23549331D01*
X38655171Y-23588036D01*
X36990866Y-23317103D02*
X36990866Y-22891350D01*
X37029571Y-22813941D01*
X37106980Y-22775236D01*
X37261800Y-22775236D01*
X37339209Y-22813941D01*
X36990866Y-23278398D02*
X37068276Y-23317103D01*
X37261800Y-23317103D01*
X37339209Y-23278398D01*
X37377914Y-23200988D01*
X37377914Y-23123579D01*
X37339209Y-23046169D01*
X37261800Y-23007465D01*
X37068276Y-23007465D01*
X36990866Y-22968760D01*
X36255476Y-23278398D02*
X36332885Y-23317103D01*
X36487704Y-23317103D01*
X36565114Y-23278398D01*
X36603819Y-23239693D01*
X36642523Y-23162284D01*
X36642523Y-22930055D01*
X36603819Y-22852646D01*
X36565114Y-22813941D01*
X36487704Y-22775236D01*
X36332885Y-22775236D01*
X36255476Y-22813941D01*
X35558790Y-23278398D02*
X35636200Y-23317103D01*
X35791019Y-23317103D01*
X35868428Y-23278398D01*
X35907133Y-23239693D01*
X35945838Y-23162284D01*
X35945838Y-22930055D01*
X35907133Y-22852646D01*
X35868428Y-22813941D01*
X35791019Y-22775236D01*
X35636200Y-22775236D01*
X35558790Y-22813941D01*
X34862104Y-22775236D02*
X34862104Y-23317103D01*
X35210447Y-22775236D02*
X35210447Y-23200988D01*
X35171742Y-23278398D01*
X35094333Y-23317103D01*
X34978219Y-23317103D01*
X34900809Y-23278398D01*
X34862104Y-23239693D01*
X34475057Y-23317103D02*
X34475057Y-22775236D01*
X34475057Y-22852646D02*
X34436352Y-22813941D01*
X34358942Y-22775236D01*
X34242828Y-22775236D01*
X34165419Y-22813941D01*
X34126714Y-22891350D01*
X34126714Y-23317103D01*
X34126714Y-22891350D02*
X34088009Y-22813941D01*
X34010600Y-22775236D01*
X33894485Y-22775236D01*
X33817076Y-22813941D01*
X33778371Y-22891350D01*
X33778371Y-23317103D01*
X33042980Y-22775236D02*
X33042980Y-23317103D01*
X33391323Y-22775236D02*
X33391323Y-23200988D01*
X33352619Y-23278398D01*
X33275209Y-23317103D01*
X33159095Y-23317103D01*
X33081685Y-23278398D01*
X33042980Y-23239693D01*
X32539819Y-23317103D02*
X32617228Y-23278398D01*
X32655933Y-23200988D01*
X32655933Y-22504303D01*
X31881838Y-23317103D02*
X31881838Y-22891350D01*
X31920542Y-22813941D01*
X31997952Y-22775236D01*
X32152771Y-22775236D01*
X32230180Y-22813941D01*
X31881838Y-23278398D02*
X31959247Y-23317103D01*
X32152771Y-23317103D01*
X32230180Y-23278398D01*
X32268885Y-23200988D01*
X32268885Y-23123579D01*
X32230180Y-23046169D01*
X32152771Y-23007465D01*
X31959247Y-23007465D01*
X31881838Y-22968760D01*
X31610904Y-22775236D02*
X31301266Y-22775236D01*
X31494790Y-22504303D02*
X31494790Y-23200988D01*
X31456085Y-23278398D01*
X31378676Y-23317103D01*
X31301266Y-23317103D01*
X30914219Y-23317103D02*
X30991628Y-23278398D01*
X31030333Y-23239693D01*
X31069038Y-23162284D01*
X31069038Y-22930055D01*
X31030333Y-22852646D01*
X30991628Y-22813941D01*
X30914219Y-22775236D01*
X30798104Y-22775236D01*
X30720695Y-22813941D01*
X30681990Y-22852646D01*
X30643285Y-22930055D01*
X30643285Y-23162284D01*
X30681990Y-23239693D01*
X30720695Y-23278398D01*
X30798104Y-23317103D01*
X30914219Y-23317103D01*
X30294942Y-23317103D02*
X30294942Y-22775236D01*
X30294942Y-22930055D02*
X30256238Y-22852646D01*
X30217533Y-22813941D01*
X30140123Y-22775236D01*
X30062714Y-22775236D01*
X29830485Y-23278398D02*
X29753076Y-23317103D01*
X29598257Y-23317103D01*
X29520847Y-23278398D01*
X29482142Y-23200988D01*
X29482142Y-23162284D01*
X29520847Y-23084874D01*
X29598257Y-23046169D01*
X29714371Y-23046169D01*
X29791780Y-23007465D01*
X29830485Y-22930055D01*
X29830485Y-22891350D01*
X29791780Y-22813941D01*
X29714371Y-22775236D01*
X29598257Y-22775236D01*
X29520847Y-22813941D01*
X29211209Y-23626741D02*
X29172504Y-23588036D01*
X29095095Y-23471922D01*
X29056390Y-23394512D01*
X29017685Y-23278398D01*
X28978980Y-23084874D01*
X28978980Y-22930055D01*
X29017685Y-22736531D01*
X29056390Y-22620417D01*
X29095095Y-22543008D01*
X29172504Y-22426893D01*
X29211209Y-22388188D01*
X28088771Y-22504303D02*
X27817838Y-23317103D01*
X27546904Y-22504303D01*
X26850219Y-23317103D02*
X27314676Y-23317103D01*
X27082447Y-23317103D02*
X27082447Y-22504303D01*
X27159857Y-22620417D01*
X27237266Y-22697827D01*
X27314676Y-22736531D01*
X26501876Y-23239693D02*
X26463171Y-23278398D01*
X26501876Y-23317103D01*
X26540580Y-23278398D01*
X26501876Y-23239693D01*
X26501876Y-23317103D01*
X25727780Y-22504303D02*
X26114828Y-22504303D01*
X26153533Y-22891350D01*
X26114828Y-22852646D01*
X26037419Y-22813941D01*
X25843895Y-22813941D01*
X25766485Y-22852646D01*
X25727780Y-22891350D01*
X25689076Y-22968760D01*
X25689076Y-23162284D01*
X25727780Y-23239693D01*
X25766485Y-23278398D01*
X25843895Y-23317103D01*
X26037419Y-23317103D01*
X26114828Y-23278398D01*
X26153533Y-23239693D01*
D11*
%TO.C,Module1*%
X13157142Y-33990000D02*
X13214285Y-33961428D01*
X13300000Y-33961428D01*
X13385714Y-33990000D01*
X13442857Y-34047142D01*
X13471428Y-34104285D01*
X13500000Y-34218571D01*
X13500000Y-34304285D01*
X13471428Y-34418571D01*
X13442857Y-34475714D01*
X13385714Y-34532857D01*
X13300000Y-34561428D01*
X13242857Y-34561428D01*
X13157142Y-34532857D01*
X13128571Y-34504285D01*
X13128571Y-34304285D01*
X13242857Y-34304285D01*
X12871428Y-34561428D02*
X12871428Y-33961428D01*
X12528571Y-34561428D01*
X12528571Y-33961428D01*
X12242857Y-34561428D02*
X12242857Y-33961428D01*
X12100000Y-33961428D01*
X12014285Y-33990000D01*
X11957142Y-34047142D01*
X11928571Y-34104285D01*
X11900000Y-34218571D01*
X11900000Y-34304285D01*
X11928571Y-34418571D01*
X11957142Y-34475714D01*
X12014285Y-34532857D01*
X12100000Y-34561428D01*
X12242857Y-34561428D01*
X13385714Y-44086428D02*
X13385714Y-43486428D01*
X13242857Y-43486428D01*
X13157142Y-43515000D01*
X13100000Y-43572142D01*
X13071428Y-43629285D01*
X13042857Y-43743571D01*
X13042857Y-43829285D01*
X13071428Y-43943571D01*
X13100000Y-44000714D01*
X13157142Y-44057857D01*
X13242857Y-44086428D01*
X13385714Y-44086428D01*
X12871428Y-43486428D02*
X12528571Y-43486428D01*
X12700000Y-44086428D02*
X12700000Y-43486428D01*
X11985714Y-44086428D02*
X12185714Y-43800714D01*
X12328571Y-44086428D02*
X12328571Y-43486428D01*
X12100000Y-43486428D01*
X12042857Y-43515000D01*
X12014285Y-43543571D01*
X11985714Y-43600714D01*
X11985714Y-43686428D01*
X12014285Y-43743571D01*
X12042857Y-43772142D01*
X12100000Y-43800714D01*
X12328571Y-43800714D01*
X13457142Y-41581428D02*
X13114285Y-41581428D01*
X13285714Y-42181428D02*
X13285714Y-41581428D01*
X12971428Y-41581428D02*
X12571428Y-42181428D01*
X12571428Y-41581428D02*
X12971428Y-42181428D01*
X12342857Y-42181428D02*
X12342857Y-41581428D01*
X12200000Y-41581428D01*
X12114285Y-41610000D01*
X12057142Y-41667142D01*
X12028571Y-41724285D01*
X12000000Y-41838571D01*
X12000000Y-41924285D01*
X12028571Y-42038571D01*
X12057142Y-42095714D01*
X12114285Y-42152857D01*
X12200000Y-42181428D01*
X12342857Y-42181428D01*
X13500000Y-36501428D02*
X13300000Y-37101428D01*
X13100000Y-36501428D01*
X12557142Y-37044285D02*
X12585714Y-37072857D01*
X12671428Y-37101428D01*
X12728571Y-37101428D01*
X12814285Y-37072857D01*
X12871428Y-37015714D01*
X12900000Y-36958571D01*
X12928571Y-36844285D01*
X12928571Y-36758571D01*
X12900000Y-36644285D01*
X12871428Y-36587142D01*
X12814285Y-36530000D01*
X12728571Y-36501428D01*
X12671428Y-36501428D01*
X12585714Y-36530000D01*
X12557142Y-36558571D01*
X11957142Y-37044285D02*
X11985714Y-37072857D01*
X12071428Y-37101428D01*
X12128571Y-37101428D01*
X12214285Y-37072857D01*
X12271428Y-37015714D01*
X12300000Y-36958571D01*
X12328571Y-36844285D01*
X12328571Y-36758571D01*
X12300000Y-36644285D01*
X12271428Y-36587142D01*
X12214285Y-36530000D01*
X12128571Y-36501428D01*
X12071428Y-36501428D01*
X11985714Y-36530000D01*
X11957142Y-36558571D01*
X12942857Y-39641428D02*
X13142857Y-39355714D01*
X13285714Y-39641428D02*
X13285714Y-39041428D01*
X13057142Y-39041428D01*
X13000000Y-39070000D01*
X12971428Y-39098571D01*
X12942857Y-39155714D01*
X12942857Y-39241428D01*
X12971428Y-39298571D01*
X13000000Y-39327142D01*
X13057142Y-39355714D01*
X13285714Y-39355714D01*
X12742857Y-39041428D02*
X12342857Y-39641428D01*
X12342857Y-39041428D02*
X12742857Y-39641428D01*
X12114285Y-39641428D02*
X12114285Y-39041428D01*
X13157142Y-32085000D02*
X13214285Y-32056428D01*
X13300000Y-32056428D01*
X13385714Y-32085000D01*
X13442857Y-32142142D01*
X13471428Y-32199285D01*
X13500000Y-32313571D01*
X13500000Y-32399285D01*
X13471428Y-32513571D01*
X13442857Y-32570714D01*
X13385714Y-32627857D01*
X13300000Y-32656428D01*
X13242857Y-32656428D01*
X13157142Y-32627857D01*
X13128571Y-32599285D01*
X13128571Y-32399285D01*
X13242857Y-32399285D01*
X12871428Y-32656428D02*
X12871428Y-32056428D01*
X12528571Y-32656428D01*
X12528571Y-32056428D01*
X12242857Y-32656428D02*
X12242857Y-32056428D01*
X12100000Y-32056428D01*
X12014285Y-32085000D01*
X11957142Y-32142142D01*
X11928571Y-32199285D01*
X11900000Y-32313571D01*
X11900000Y-32399285D01*
X11928571Y-32513571D01*
X11957142Y-32570714D01*
X12014285Y-32627857D01*
X12100000Y-32656428D01*
X12242857Y-32656428D01*
X10795000Y-41910000D02*
G75*
G03*
X10795000Y-41910000I-635000J0D01*
G01*
X10795000Y-39370000D02*
G75*
G03*
X10795000Y-39370000I-635000J0D01*
G01*
X10795000Y-34290000D02*
G75*
G03*
X10795000Y-34290000I-635000J0D01*
G01*
X10795000Y-31750000D02*
G75*
G03*
X10795000Y-31750000I-635000J0D01*
G01*
X10795000Y-44450000D02*
G75*
G03*
X10795000Y-44450000I-635000J0D01*
G01*
X10795000Y-36830000D02*
G75*
G03*
X10795000Y-36830000I-635000J0D01*
G01*
%TD*%
%LPC*%
D12*
%TO.C,C4*%
X19431000Y-26670000D03*
X14431000Y-26670000D03*
%TD*%
D13*
%TO.C,C5*%
X15240000Y-17240000D03*
D14*
X15240000Y-15240000D03*
%TD*%
D15*
%TO.C,D1*%
X1738000Y-30734000D03*
D16*
X4278000Y-30734000D03*
%TD*%
D17*
%TO.C,D2*%
X60960000Y-31750000D03*
D18*
X53340000Y-31750000D03*
%TD*%
D17*
%TO.C,D3*%
X71247000Y-53213000D03*
D18*
X63627000Y-53213000D03*
%TD*%
D17*
%TO.C,D6*%
X71247000Y-56515000D03*
D18*
X63627000Y-56515000D03*
%TD*%
D17*
%TO.C,D11*%
X39370000Y-10160000D03*
D18*
X39370000Y-2540000D03*
%TD*%
D19*
%TO.C,H1*%
X75697000Y-8261000D03*
%TD*%
%TO.C,H3*%
X9657000Y-54235000D03*
%TD*%
%TO.C,H4*%
X75951000Y-54362000D03*
%TD*%
D20*
%TO.C,J2*%
X16510000Y-60960000D03*
D21*
X19050000Y-60960000D03*
X21590000Y-60960000D03*
X24130000Y-60960000D03*
X26670000Y-60960000D03*
X29210000Y-60960000D03*
%TD*%
D20*
%TO.C,J4*%
X52070000Y-61093000D03*
D21*
X49530000Y-61093000D03*
X46990000Y-61093000D03*
X44450000Y-61093000D03*
X41910000Y-61093000D03*
X39370000Y-61093000D03*
X36830000Y-61093000D03*
%TD*%
D20*
%TO.C,J5*%
X3048000Y-51308000D03*
D21*
X3048000Y-48768000D03*
X3048000Y-46228000D03*
X3048000Y-43688000D03*
X3048000Y-41148000D03*
X3048000Y-38608000D03*
%TD*%
D20*
%TO.C,J6*%
X82550000Y-11938000D03*
D21*
X82550000Y-9398000D03*
%TD*%
D20*
%TO.C,J10*%
X3048000Y-19050000D03*
D21*
X3048000Y-16510000D03*
X3048000Y-13970000D03*
%TD*%
D22*
%TO.C,Module2*%
X83735000Y-39980000D03*
X65735000Y-34480000D03*
D23*
X83735000Y-42480000D03*
D22*
X65735000Y-36480000D03*
X83735000Y-44980000D03*
X65735000Y-38480000D03*
X65735000Y-40480000D03*
X65735000Y-42480000D03*
X65735000Y-44480000D03*
X65735000Y-46480000D03*
X65735000Y-48480000D03*
%TD*%
D24*
%TO.C,Q1*%
X70093000Y-20320000D03*
D25*
X72383000Y-20320000D03*
X74673000Y-20320000D03*
%TD*%
D26*
%TO.C,Q5*%
X46736000Y-29337000D03*
D27*
X48006000Y-26797000D03*
X49276000Y-29337000D03*
%TD*%
D28*
%TO.C,R1*%
X6604000Y-29464000D03*
D29*
X6604000Y-34544000D03*
%TD*%
D14*
%TO.C,R2*%
X26035000Y-11430000D03*
D30*
X15875000Y-11430000D03*
%TD*%
D28*
%TO.C,R13*%
X52324000Y-19812000D03*
D29*
X47244000Y-19812000D03*
%TD*%
D28*
%TO.C,R14*%
X55118000Y-24511000D03*
D29*
X60198000Y-24511000D03*
%TD*%
D28*
%TO.C,R17*%
X60960000Y-28575000D03*
D29*
X55880000Y-28575000D03*
%TD*%
D14*
%TO.C,R22*%
X14986000Y-7620000D03*
D30*
X35306000Y-7620000D03*
%TD*%
D12*
%TO.C,SW1*%
X16308000Y-56860000D03*
X22808000Y-56860000D03*
X16308000Y-52360000D03*
X22808000Y-52360000D03*
%TD*%
D19*
%TO.C,H2*%
X9657000Y-8261000D03*
%TD*%
D16*
%TO.C,Module1*%
X12700000Y-30480000D03*
X40640000Y-38100000D03*
X12700000Y-45720000D03*
X10160000Y-44450000D03*
X21590000Y-33020000D03*
X15240000Y-30480000D03*
X40640000Y-35560000D03*
X15240000Y-45720000D03*
X10160000Y-41910000D03*
X24130000Y-33020000D03*
X17780000Y-30480000D03*
X40640000Y-33020000D03*
X17780000Y-45720000D03*
X10160000Y-39370000D03*
X20320000Y-30480000D03*
X20320000Y-45720000D03*
X10160000Y-36830000D03*
X22860000Y-30480000D03*
X22860000Y-45720000D03*
X10160000Y-34290000D03*
X25400000Y-30480000D03*
X25400000Y-45720000D03*
X10160000Y-31750000D03*
X27940000Y-30480000D03*
X27940000Y-45720000D03*
X30480000Y-30480000D03*
X30480000Y-45720000D03*
X33020000Y-30480000D03*
X33020000Y-45720000D03*
X35560000Y-30480000D03*
X35560000Y-45720000D03*
X38100000Y-30480000D03*
X38100000Y-45720000D03*
X40640000Y-30480000D03*
X40640000Y-45720000D03*
%TD*%
D28*
%TO.C,R3*%
X64008000Y-23622000D03*
D29*
X69088000Y-23622000D03*
%TD*%
D20*
%TO.C,J1*%
X82550000Y-15718000D03*
D21*
X82550000Y-18258000D03*
%TD*%
D31*
%TO.C,Q4*%
X83398000Y-28702000D03*
X83398000Y-26162000D03*
X83398000Y-23622000D03*
%TD*%
D28*
%TO.C,R5*%
X41910000Y-52070000D03*
D29*
X41910000Y-57150000D03*
%TD*%
D28*
%TO.C,R6*%
X44450000Y-52070000D03*
D29*
X44450000Y-57150000D03*
%TD*%
D28*
%TO.C,R7*%
X46990000Y-52070000D03*
D29*
X46990000Y-57150000D03*
%TD*%
D28*
%TO.C,R8*%
X49530000Y-52070000D03*
D29*
X49530000Y-57150000D03*
%TD*%
D28*
%TO.C,R9*%
X77724000Y-25400000D03*
D29*
X77724000Y-30480000D03*
%TD*%
D28*
%TO.C,R10*%
X77470000Y-17272000D03*
D29*
X77470000Y-22352000D03*
%TD*%
D28*
%TO.C,R11*%
X39370000Y-52070000D03*
D29*
X39370000Y-57150000D03*
%TD*%
D19*
%TO.C,H5*%
X4000000Y-3980000D03*
%TD*%
%TO.C,H7*%
X4000000Y-59000000D03*
%TD*%
%TO.C,H8*%
X82000000Y-59000000D03*
%TD*%
D13*
%TO.C,C1*%
X67310000Y-27940000D03*
D14*
X64810000Y-27940000D03*
%TD*%
D19*
%TO.C,H6*%
X82000000Y-4000000D03*
%TD*%
D20*
%TO.C,J3*%
X72390000Y-60960000D03*
D21*
X69850000Y-60960000D03*
X67310000Y-60960000D03*
X64770000Y-60960000D03*
X62230000Y-60960000D03*
X59690000Y-60960000D03*
%TD*%
D15*
%TO.C,Q2*%
X56134000Y-20949000D03*
D32*
X58674000Y-20949000D03*
X61214000Y-20949000D03*
%TD*%
D33*
%TO.C,Module3*%
X58917000Y-41281000D03*
X48757000Y-41281000D03*
X48757000Y-43821000D03*
X48757000Y-48901000D03*
X48757000Y-46361000D03*
X48757000Y-38741000D03*
X48757000Y-36201000D03*
X58917000Y-43821000D03*
X58917000Y-48901000D03*
X58917000Y-46361000D03*
X58917000Y-38741000D03*
X58917000Y-36201000D03*
%TD*%
D34*
%TO.C,J7*%
X10414000Y-60960000D03*
%TD*%
D14*
%TO.C,R4*%
X26860500Y-15138400D03*
D30*
X37020500Y-15138400D03*
%TD*%
D12*
%TO.C,SW2*%
X28448000Y-52324000D03*
X34948000Y-52324000D03*
X28448000Y-56824000D03*
X34948000Y-56824000D03*
%TD*%
D35*
%TO.C,Module4*%
X68650000Y-3810000D03*
X50730000Y-3810000D03*
X68650000Y-14830000D03*
X50730000Y-14730000D03*
%TD*%
D14*
%TO.C,R15*%
X14986000Y-3556000D03*
D30*
X35306000Y-3556000D03*
%TD*%
D34*
%TO.C,J8*%
X10414000Y-58420000D03*
%TD*%
D28*
%TO.C,R12*%
X73660000Y-23368000D03*
D29*
X73660000Y-28448000D03*
%TD*%
M02*
