M48
; DRILL file {KiCad 6.0.11-2627ca5db0~126~ubuntu22.04.1} date Di 15 Aug 2023 16:57:27 CEST
; FORMAT={-:-/ absolute / inch / decimal}
; #@! TF.CreationDate,2023-08-15T16:57:27+02:00
; #@! TF.GenerationSoftware,Kicad,Pcbnew,6.0.11-2627ca5db0~126~ubuntu22.04.1
; #@! TF.FileFunction,Plated,1,2,PTH
FMAT,2
INCH
; #@! TA.AperFunction,Plated,PTH,ViaDrill
T1C0.0157
; #@! TA.AperFunction,Plated,PTH,ComponentDrill
T2C0.0256
; #@! TA.AperFunction,Plated,PTH,ComponentDrill
T3C0.0276
; #@! TA.AperFunction,Plated,PTH,ComponentDrill
T4C0.0315
; #@! TA.AperFunction,Plated,PTH,ComponentDrill
T5C0.0354
; #@! TA.AperFunction,Plated,PTH,ComponentDrill
T6C0.0390
; #@! TA.AperFunction,Plated,PTH,ComponentDrill
T7C0.0394
; #@! TA.AperFunction,Plated,PTH,ComponentDrill
T8C0.0400
; #@! TA.AperFunction,Plated,PTH,ComponentDrill
T9C0.0433
; #@! TA.AperFunction,Plated,PTH,ComponentDrill
T10C0.0787
; #@! TA.AperFunction,Plated,PTH,ComponentDrill
T11C0.1063
%
G90
G05
T1
X0.66Y1.0803
X0.74Y1.0803
X0.945Y0.7853
X0.96Y0.5303
X0.97Y0.7503
X0.99Y0.8353
X1.065Y0.8107
X1.085Y1.4753
X1.09Y1.6953
X1.12Y0.5303
X1.14Y1.4753
X1.1412Y1.7441
X1.19Y0.8728
X1.2325Y0.9328
X1.2425Y1.1653
X1.245Y1.0578
X1.44Y1.1703
X1.4733Y1.217
X1.5036Y1.014
X1.6612Y0.8815
X1.6625Y1.7978
X1.7014Y0.6067
X1.705Y1.1853
X1.7536Y0.6615
X1.815Y0.7453
X1.82Y0.6603
X2.045Y0.4549
X2.045Y0.2853
X2.07Y1.1053
X2.075Y0.9803
X2.095Y0.3253
X2.1Y0.4603
X2.43Y0.7003
X2.4324Y0.8877
X2.45Y0.9553
X2.475Y0.7003
X2.76Y1.2603
X2.9Y1.2603
T2
X0.41Y0.1803
X0.41Y0.0803
T3
X0.26Y1.3203
X0.26Y1.1203
X1.55Y0.4303
X1.55Y0.2303
X1.65Y0.4303
X1.65Y0.2303
X1.75Y0.4303
X1.75Y0.2303
X1.85Y0.4303
X1.85Y0.2303
X1.86Y1.7003
X1.95Y0.4303
X1.95Y0.2303
X2.06Y1.7003
X2.17Y1.5153
X2.2Y1.3553
X2.37Y1.5153
X2.4Y1.3553
X2.52Y1.5503
X2.72Y1.5503
X2.9Y1.5603
X2.9Y1.3603
X3.05Y1.8003
X3.05Y1.6003
X3.06Y1.4803
X3.06Y1.2803
T4
X0.59Y2.3403
X0.59Y2.1803
X0.6Y1.8803
X0.6Y1.8016
X0.625Y2.0303
X1.025Y2.0303
X1.0575Y1.8843
X1.39Y2.3403
X1.39Y2.1803
X1.4575Y1.8843
X2.5516Y1.3803
X2.588Y1.1228
X2.588Y1.0441
X2.588Y0.9654
X2.588Y0.8866
X2.588Y0.8079
X2.588Y0.7291
X2.588Y0.6504
X2.588Y0.5717
X2.65Y1.3803
X3.2967Y0.9063
X3.2967Y0.7094
T5
X0.0684Y1.2703
X0.1684Y1.2703
T6
X1.842Y1.3243
X1.892Y1.4243
X1.942Y1.3243
T7
X0.12Y1.9303
X0.12Y1.8303
X0.12Y1.7303
X0.12Y0.9603
X0.12Y0.8603
X0.12Y0.7603
X0.12Y0.6603
X0.12Y0.5603
X0.12Y0.4603
X0.4Y1.2303
X0.4Y1.1303
X0.4Y1.0303
X0.4Y0.9303
X0.4Y0.8303
X0.4Y0.7303
X0.5Y1.2803
X0.5Y0.6803
X0.5681Y1.4303
X0.6Y1.2803
X0.6Y0.6803
X0.65Y0.0803
X0.7Y1.2803
X0.7Y0.6803
X0.75Y0.0803
X0.765Y1.4303
X0.8Y1.2803
X0.8Y0.6803
X0.85Y1.1803
X0.85Y0.0803
X0.9Y1.2803
X0.9Y0.6803
X0.95Y1.1803
X0.95Y0.0803
X1.0Y1.2803
X1.0Y0.6803
X1.05Y0.0803
X1.1Y1.2803
X1.1Y0.6803
X1.15Y0.0803
X1.2Y1.2803
X1.2Y0.6803
X1.3Y1.2803
X1.3Y0.6803
X1.4Y1.2803
X1.4Y0.6803
X1.45Y0.0751
X1.5Y1.2803
X1.5Y0.6803
X1.55Y0.0751
X1.6Y1.2803
X1.6Y1.1803
X1.6Y1.0803
X1.6Y0.9803
X1.6Y0.6803
X1.65Y0.0751
X1.75Y0.0751
X1.85Y0.0751
X1.95Y0.0751
X2.05Y0.0751
X2.21Y1.6556
X2.31Y1.6556
X2.35Y0.0803
X2.41Y1.6556
X2.45Y0.0803
X2.55Y0.0803
X2.65Y0.0803
X2.75Y0.0803
X2.85Y0.0803
X3.25Y2.1103
X3.25Y2.0103
X3.25Y1.8615
X3.25Y1.7615
T8
X1.9196Y1.0551
X1.9196Y0.9551
X1.9196Y0.8551
X1.9196Y0.7551
X1.9196Y0.6551
X1.9196Y0.5551
X2.3196Y1.0551
X2.3196Y0.9551
X2.3196Y0.8551
X2.3196Y0.7551
X2.3196Y0.6551
X2.3196Y0.5551
X3.2834Y1.5503
X3.2834Y1.4503
X3.2834Y1.3503
T9
X0.642Y0.4189
X0.642Y0.2417
X0.898Y0.4189
X0.898Y0.2417
X1.12Y0.4203
X1.12Y0.2431
X1.3759Y0.4203
X1.3759Y0.2431
X1.55Y2.3803
X1.55Y2.0803
X2.1Y1.2303
X2.4Y1.2303
X2.505Y0.3853
X2.505Y0.2553
X2.7596Y1.6803
X2.805Y0.3853
X2.805Y0.2553
X2.8497Y1.6803
X2.9399Y1.6803
T10
X1.9972Y2.3303
X1.9972Y1.9004
X2.7028Y2.3303
X2.7028Y1.8965
T11
X3.2967Y0.8079
T0
M30
