G04 #@! TF.GenerationSoftware,KiCad,Pcbnew,5.1.10-88a1d61d58~88~ubuntu18.04.1*
G04 #@! TF.CreationDate,2021-10-13T16:55:58+02:00*
G04 #@! TF.ProjectId,HB-UNI-SEN-BATT_FUEL4EP,48422d55-4e49-42d5-9345-4e2d42415454,rev?*
G04 #@! TF.SameCoordinates,Original*
G04 #@! TF.FileFunction,Soldermask,Top*
G04 #@! TF.FilePolarity,Negative*
%FSLAX46Y46*%
G04 Gerber Fmt 4.6, Leading zero omitted, Abs format (unit mm)*
G04 Created by KiCad (PCBNEW 5.1.10-88a1d61d58~88~ubuntu18.04.1) date 2021-10-13 16:55:58*
%MOMM*%
%LPD*%
G01*
G04 APERTURE LIST*
%ADD10R,2.000000X2.000000*%
%ADD11C,2.000000*%
%ADD12C,2.640000*%
%ADD13C,0.700000*%
%ADD14C,4.400000*%
%ADD15R,1.500000X1.000000*%
%ADD16O,1.600000X1.600000*%
%ADD17C,1.600000*%
%ADD18O,1.717500X1.800000*%
%ADD19R,1.717500X1.800000*%
%ADD20C,1.800000*%
%ADD21R,1.800000X1.800000*%
%ADD22C,1.200000*%
%ADD23R,1.200000X1.200000*%
%ADD24C,3.000000*%
%ADD25C,1.350000*%
%ADD26R,1.800000X1.350000*%
%ADD27O,1.700000X1.700000*%
%ADD28R,1.700000X1.700000*%
G04 APERTURE END LIST*
D10*
X164490000Y-86860000D03*
D11*
X164490000Y-138850000D03*
D12*
X158495000Y-136090000D03*
X170485000Y-89610000D03*
D10*
X112420000Y-138900000D03*
D11*
X112420000Y-86910000D03*
D12*
X118415000Y-89670000D03*
X106425000Y-136150000D03*
D13*
X162272800Y-148477200D03*
X161000000Y-147950000D03*
X159727200Y-148477200D03*
X159200000Y-149750000D03*
X159727200Y-151022800D03*
X161000000Y-151550000D03*
X162272800Y-151022800D03*
X162800000Y-149750000D03*
D14*
X161000000Y-149750000D03*
D13*
X117272800Y-148477200D03*
X116000000Y-147950000D03*
X114727200Y-148477200D03*
X114200000Y-149750000D03*
X114727200Y-151022800D03*
X116000000Y-151550000D03*
X117272800Y-151022800D03*
X117800000Y-149750000D03*
D14*
X116000000Y-149750000D03*
D13*
X162272800Y-79977200D03*
X161000000Y-79450000D03*
X159727200Y-79977200D03*
X159200000Y-81250000D03*
X159727200Y-82522800D03*
X161000000Y-83050000D03*
X162272800Y-82522800D03*
X162800000Y-81250000D03*
D14*
X161000000Y-81250000D03*
D13*
X117272800Y-79977200D03*
X116000000Y-79450000D03*
X114727200Y-79977200D03*
X114200000Y-81250000D03*
X114727200Y-82522800D03*
X116000000Y-83050000D03*
X117272800Y-82522800D03*
X117800000Y-81250000D03*
D14*
X116000000Y-81250000D03*
D11*
X153185000Y-93345000D03*
X153185000Y-97845000D03*
X146685000Y-93345000D03*
X146685000Y-97845000D03*
D15*
X151257000Y-88900000D03*
X151257000Y-87600000D03*
D16*
X147320000Y-125095000D03*
D17*
X147320000Y-122555000D03*
D16*
X151130000Y-125095000D03*
D17*
X151130000Y-122555000D03*
D16*
X116840000Y-144780000D03*
D17*
X119380000Y-144780000D03*
D16*
X146050000Y-89535000D03*
D17*
X146050000Y-86995000D03*
D18*
X112530000Y-144780000D03*
X110240000Y-144780000D03*
D19*
X107950000Y-144780000D03*
D20*
X146050000Y-83820000D03*
D21*
X146050000Y-81280000D03*
D22*
X147955000Y-130405000D03*
D23*
X147955000Y-128905000D03*
D20*
X139700000Y-80010000D03*
X137160000Y-80010000D03*
X134620000Y-80010000D03*
X132080000Y-80010000D03*
X129540000Y-80010000D03*
X127000000Y-80010000D03*
X128270000Y-110490000D03*
X130810000Y-110490000D03*
X133350000Y-110490000D03*
X138430000Y-91440000D03*
X138430000Y-93980000D03*
X125730000Y-110490000D03*
X125730000Y-107950000D03*
X125730000Y-105410000D03*
X125730000Y-102870000D03*
X125730000Y-100330000D03*
X125730000Y-97790000D03*
X125730000Y-95250000D03*
X125730000Y-92710000D03*
X125730000Y-90170000D03*
X125730000Y-87630000D03*
X125730000Y-85090000D03*
X125730000Y-82550000D03*
X140970000Y-82550000D03*
X140970000Y-85090000D03*
X140970000Y-87630000D03*
X140970000Y-90170000D03*
X140970000Y-92710000D03*
X140970000Y-95250000D03*
X140970000Y-97790000D03*
X140970000Y-100330000D03*
X140970000Y-102870000D03*
X140970000Y-105410000D03*
X140970000Y-107950000D03*
X140970000Y-110490000D03*
X138430000Y-110490000D03*
X135890000Y-110490000D03*
X138430000Y-88900000D03*
X138430000Y-86360000D03*
D24*
X124280000Y-121945000D03*
D25*
X124280000Y-119445000D03*
X124280000Y-124445000D03*
D26*
X143280000Y-117945000D03*
X143280000Y-119945000D03*
X143280000Y-121945000D03*
X143280000Y-123945000D03*
X143280000Y-125945000D03*
X143280000Y-127945000D03*
X143280000Y-129945000D03*
D25*
X142280000Y-117945000D03*
X142280000Y-119945000D03*
X142280000Y-121945000D03*
X142280000Y-123945000D03*
X142280000Y-125945000D03*
X142280000Y-127945000D03*
X142280000Y-129945000D03*
D26*
X143280000Y-115945000D03*
D25*
X142280000Y-115945000D03*
D27*
X168790000Y-81250000D03*
D28*
X166250000Y-81250000D03*
D27*
X151130000Y-140970000D03*
X151130000Y-143510000D03*
X151130000Y-146050000D03*
D28*
X151130000Y-148590000D03*
D27*
X140970000Y-140970000D03*
X140970000Y-143510000D03*
X140970000Y-146050000D03*
D28*
X140970000Y-148590000D03*
D27*
X135890000Y-140970000D03*
X135890000Y-143510000D03*
X135890000Y-146050000D03*
D28*
X135890000Y-148590000D03*
D27*
X125730000Y-140970000D03*
X125730000Y-143510000D03*
X125730000Y-146050000D03*
D28*
X125730000Y-148590000D03*
D27*
X170180000Y-144780000D03*
X167640000Y-144780000D03*
X165100000Y-144780000D03*
X162560000Y-144780000D03*
X160020000Y-144780000D03*
D28*
X157480000Y-144780000D03*
D27*
X152400000Y-106680000D03*
D28*
X152400000Y-104140000D03*
D27*
X147320000Y-106680000D03*
D28*
X147320000Y-104140000D03*
D27*
X152400000Y-116205000D03*
D28*
X152400000Y-113665000D03*
D27*
X147320000Y-116205000D03*
D28*
X147320000Y-113665000D03*
M02*
