M48
; DRILL file {KiCad 5.1.10-88a1d61d58~88~ubuntu18.04.1} date Wed Oct 13 16:55:58 2021
; FORMAT={-:-/ absolute / inch / decimal}
; #@! TF.CreationDate,2021-10-13T16:55:58+02:00
; #@! TF.GenerationSoftware,Kicad,Pcbnew,5.1.10-88a1d61d58~88~ubuntu18.04.1
; #@! TF.FileFunction,Plated,1,2,PTH
FMAT,2
INCH
T1C0.0157
T2C0.0236
T3C0.0315
T4C0.0354
T5C0.0394
T6C0.0402
T7C0.0433
T8C0.0866
T9C0.1063
%
G90
G05
T1
X4.4961Y-3.1988
X4.4961Y-5.8957
X4.5168Y-3.1487
X4.5168Y-3.2489
X4.5168Y-5.8456
X4.5168Y-5.9458
X4.5669Y-3.128
X4.5669Y-3.2697
X4.5669Y-5.8248
X4.5669Y-5.9665
X4.617Y-3.1487
X4.617Y-3.2489
X4.617Y-5.8456
X4.617Y-5.9458
X4.6378Y-3.1988
X4.6378Y-5.8957
X6.2677Y-3.1988
X6.2677Y-5.8957
X6.2885Y-3.1487
X6.2885Y-3.2489
X6.2885Y-5.8456
X6.2885Y-5.9458
X6.3386Y-3.128
X6.3386Y-3.2697
X6.3386Y-5.8248
X6.3386Y-5.9665
X6.3887Y-3.1487
X6.3887Y-3.2489
X6.3887Y-5.8456
X6.3887Y-5.9458
X6.4094Y-3.1988
X6.4094Y-5.8957
X6.578Y-3.468
T2
X5.825Y-5.075
X5.825Y-5.1341
T3
X4.6Y-5.7
X4.7Y-5.7
X4.8929Y-4.7026
X4.8929Y-4.8994
X5.6016Y-4.5648
X5.6016Y-4.6435
X5.6016Y-4.7222
X5.6016Y-4.801
X5.6016Y-4.8797
X5.6016Y-4.9585
X5.6016Y-5.0372
X5.6016Y-5.1159
X5.75Y-3.425
X5.75Y-3.525
X5.8Y-4.825
X5.8Y-4.925
X5.95Y-4.825
X5.95Y-4.925
T4
X5.75Y-3.2
X5.75Y-3.3
T5
X4.95Y-3.25
X4.95Y-3.35
X4.95Y-3.45
X4.95Y-3.55
X4.95Y-3.65
X4.95Y-3.75
X4.95Y-3.85
X4.95Y-3.95
X4.95Y-4.05
X4.95Y-4.15
X4.95Y-4.25
X4.95Y-4.35
X4.95Y-5.55
X4.95Y-5.65
X4.95Y-5.75
X4.95Y-5.85
X5.0Y-3.15
X5.05Y-4.35
X5.1Y-3.15
X5.15Y-4.35
X5.2Y-3.15
X5.25Y-4.35
X5.3Y-3.15
X5.35Y-4.35
X5.35Y-5.55
X5.35Y-5.65
X5.35Y-5.75
X5.35Y-5.85
X5.4Y-3.15
X5.45Y-3.4
X5.45Y-3.5
X5.45Y-3.6
X5.45Y-3.7
X5.45Y-4.35
X5.5Y-3.15
X5.55Y-3.25
X5.55Y-3.35
X5.55Y-3.45
X5.55Y-3.55
X5.55Y-3.65
X5.55Y-3.75
X5.55Y-3.85
X5.55Y-3.95
X5.55Y-4.05
X5.55Y-4.15
X5.55Y-4.25
X5.55Y-4.35
X5.55Y-5.55
X5.55Y-5.65
X5.55Y-5.75
X5.55Y-5.85
X5.8Y-4.1
X5.8Y-4.2
X5.8Y-4.475
X5.8Y-4.575
X5.95Y-5.55
X5.95Y-5.65
X5.95Y-5.75
X5.95Y-5.85
X6.0Y-4.1
X6.0Y-4.2
X6.0Y-4.475
X6.0Y-4.575
X6.2Y-5.7
X6.3Y-5.7
X6.4Y-5.7
X6.5Y-5.7
X6.5453Y-3.1988
X6.6Y-5.7
X6.6453Y-3.1988
X6.7Y-5.7
T6
X4.426Y-3.4217
X4.426Y-5.4685
X6.476Y-3.4197
X6.476Y-5.4665
T7
X4.25Y-5.7
X4.3402Y-5.7
X4.4303Y-5.7
X5.775Y-3.675
X5.775Y-3.8522
X6.0309Y-3.675
X6.0309Y-3.8522
T8
X4.5669Y-3.1988
X4.5669Y-5.8957
X6.3386Y-3.1988
X6.3386Y-5.8957
T9
X4.8929Y-4.801
T0
M30
