M48
; DRILL file {KiCad 8.0.5-8.0.5-0~ubuntu22.04.1} date 2024-09-13T18:39:49+0200
; FORMAT={-:-/ absolute / inch / decimal}
; #@! TF.CreationDate,2024-09-13T18:39:49+02:00
; #@! TF.GenerationSoftware,Kicad,Pcbnew,8.0.5-8.0.5-0~ubuntu22.04.1
; #@! TF.FileFunction,Plated,1,2,PTH
FMAT,2
INCH
; #@! TA.AperFunction,Plated,PTH,ViaDrill
T1C0.0157
; #@! TA.AperFunction,Plated,PTH,ComponentDrill
T2C0.0256
; #@! TA.AperFunction,Plated,PTH,ComponentDrill
T3C0.0295
; #@! TA.AperFunction,Plated,PTH,ComponentDrill
T4C0.0315
%
G90
G05
T1
X0.025Y0.027
X0.064Y0.028
X0.0938Y0.3797
X0.128Y0.482
X0.141Y0.258
X0.159Y0.495
X0.161Y0.35
X0.1624Y0.4219
X0.1871Y0.132
X0.1955Y0.0901
X0.199Y0.046
X0.218Y0.024
X0.2386Y0.3634
X0.252Y0.094
X0.293Y0.062
X0.293Y0.022
X0.381Y0.095
X0.693Y0.184
X0.697Y0.415
X0.697Y0.376
X0.697Y0.327
X0.697Y0.279
X0.697Y0.236
T2
X0.0512Y0.3787
X0.0512Y0.3287
X0.0512Y0.2787
X0.0512Y0.2287
X0.0512Y0.1787
X0.0512Y0.1287
X0.0512Y0.0787
T3
X0.0512Y0.4287
T4
X0.698Y0.1398
X0.698Y0.05
M30
