%TF.GenerationSoftware,KiCad,Pcbnew,7.0.11-7.0.11~ubuntu22.04.1*%
%TF.CreationDate,2024-06-24T19:42:37+02:00*%
%TF.ProjectId,Adapter_EByte_E07_900MM10S_to_Ebyte_E07_868MS10_FUEL4EP,41646170-7465-4725-9f45-427974655f45,1.5*%
%TF.SameCoordinates,Original*%
%TF.FileFunction,Copper,L2,Bot*%
%TF.FilePolarity,Positive*%
%FSLAX46Y46*%
G04 Gerber Fmt 4.6, Leading zero omitted, Abs format (unit mm)*
G04 Created by KiCad (PCBNEW 7.0.11-7.0.11~ubuntu22.04.1) date 2024-06-24 19:42:37*
%MOMM*%
%LPD*%
G01*
G04 APERTURE LIST*
G04 Aperture macros list*
%AMRoundRect*
0 Rectangle with rounded corners*
0 $1 Rounding radius*
0 $2 $3 $4 $5 $6 $7 $8 $9 X,Y pos of 4 corners*
0 Add a 4 corners polygon primitive as box body*
4,1,4,$2,$3,$4,$5,$6,$7,$8,$9,$2,$3,0*
0 Add four circle primitives for the rounded corners*
1,1,$1+$1,$2,$3*
1,1,$1+$1,$4,$5*
1,1,$1+$1,$6,$7*
1,1,$1+$1,$8,$9*
0 Add four rect primitives between the rounded corners*
20,1,$1+$1,$2,$3,$4,$5,0*
20,1,$1+$1,$4,$5,$6,$7,0*
20,1,$1+$1,$6,$7,$8,$9,0*
20,1,$1+$1,$8,$9,$2,$3,0*%
G04 Aperture macros list end*
%TA.AperFunction,CastellatedPad*%
%ADD10RoundRect,0.250000X-0.600000X-0.250000X0.600000X-0.250000X0.600000X0.250000X-0.600000X0.250000X0*%
%TD*%
%TA.AperFunction,CastellatedPad*%
%ADD11R,1.800000X1.500000*%
%TD*%
%TA.AperFunction,CastellatedPad*%
%ADD12R,1.700000X1.000000*%
%TD*%
%TA.AperFunction,ViaPad*%
%ADD13C,0.600000*%
%TD*%
%TA.AperFunction,Conductor*%
%ADD14C,0.600000*%
%TD*%
%TA.AperFunction,Conductor*%
%ADD15C,0.250000*%
%TD*%
%TA.AperFunction,Conductor*%
%ADD16C,0.500000*%
%TD*%
G04 APERTURE END LIST*
D10*
%TO.P,JC5,1,Pin_1*%
%TO.N,/MOSI*%
X950000Y5810000D03*
%TD*%
D11*
%TO.P,JA1,1,Pin_1*%
%TO.N,GND*%
X18000000Y3550000D03*
%TD*%
D10*
%TO.P,JC8,1,Pin_1*%
%TO.N,GND*%
X950000Y2000000D03*
%TD*%
D11*
%TO.P,JA2,1,Pin_1*%
%TO.N,/ANT*%
X18000000Y1270000D03*
%TD*%
D10*
%TO.P,JC6,1,Pin_1*%
%TO.N,/MISO{slash}GDO1*%
X950000Y4540000D03*
%TD*%
%TO.P,JC3,1,Pin_1*%
%TO.N,/~{CS}*%
X950000Y8350000D03*
%TD*%
%TO.P,JC2,1,Pin_1*%
%TO.N,/GDO0*%
X950000Y9620000D03*
%TD*%
D12*
%TO.P,JC1,1,Pin_1*%
%TO.N,/VDD*%
X950000Y10890000D03*
%TD*%
D10*
%TO.P,JC4,1,Pin_1*%
%TO.N,/SCK*%
X950000Y7080000D03*
%TD*%
%TO.P,JC7,1,Pin_1*%
%TO.N,/GDO2*%
X950000Y3270000D03*
%TD*%
D13*
%TO.N,GND*%
X6061243Y9229557D03*
X17703800Y5994400D03*
X17703800Y10541000D03*
X9677400Y2413000D03*
X17703800Y8305800D03*
X17703800Y7086600D03*
X5537200Y609600D03*
X17703800Y9550400D03*
X1016000Y711200D03*
%TO.N,/GDO0*%
X2381400Y9645344D03*
X3581400Y6553200D03*
%TO.N,/MOSI*%
X4089402Y8890000D03*
X4123693Y10715399D03*
%TO.N,VDDA*%
X4751998Y3352800D03*
X4964510Y2288674D03*
X4038600Y12573000D03*
X3251200Y12242800D03*
X7442200Y1574800D03*
X7442200Y558800D03*
%TD*%
D14*
%TO.N,GND*%
X9677400Y965200D02*
X9728200Y914400D01*
X9677400Y2413000D02*
X9677400Y965200D01*
D15*
%TO.N,/GDO0*%
X2676200Y9350544D02*
X2381400Y9645344D01*
X2676200Y7458400D02*
X2676200Y9350544D01*
X3581400Y6553200D02*
X2676200Y7458400D01*
%TO.N,/MOSI*%
X4123693Y8924291D02*
X4089402Y8890000D01*
X4123693Y10715399D02*
X4123693Y8924291D01*
D14*
%TO.N,VDDA*%
X7442200Y1574800D02*
X7061200Y1193800D01*
X4751998Y2501186D02*
X4964510Y2288674D01*
X7442200Y558800D02*
X7061200Y939800D01*
X5066104Y3666906D02*
X5066104Y6578600D01*
X6527800Y939800D02*
X5178926Y2288674D01*
D16*
X5066104Y6795696D02*
X5066104Y6578600D01*
D14*
X4368800Y12242800D02*
X3251200Y12242800D01*
X7061200Y1193800D02*
X7061200Y939800D01*
X4751998Y3352800D02*
X5066104Y3666906D01*
D16*
X3251200Y8610600D02*
X5066104Y6795696D01*
X3251200Y12242800D02*
X3251200Y8610600D01*
D14*
X5178926Y2288674D02*
X4964510Y2288674D01*
X7061200Y939800D02*
X6527800Y939800D01*
X5066104Y11545496D02*
X4368800Y12242800D01*
X5066104Y6578600D02*
X5066104Y11545496D01*
X4751998Y3352800D02*
X4751998Y2501186D01*
X4368800Y12242800D02*
X4038600Y12573000D01*
%TD*%
%TA.AperFunction,Conductor*%
%TO.N,GND*%
G36*
X2134770Y9208896D02*
G01*
X2171344Y9185392D01*
X2171346Y9185391D01*
X2260198Y9159302D01*
X2319924Y9120918D01*
X2349418Y9056338D01*
X2350700Y9038406D01*
X2350700Y7478109D01*
X2350220Y7467126D01*
X2346936Y7429595D01*
X2346936Y7429594D01*
X2356692Y7393180D01*
X2359069Y7382456D01*
X2365612Y7345352D01*
X2367693Y7339635D01*
X2374073Y7324232D01*
X2376645Y7318716D01*
X2398263Y7287840D01*
X2404162Y7278580D01*
X2423004Y7245947D01*
X2423005Y7245945D01*
X2451882Y7221714D01*
X2459982Y7214291D01*
X3038849Y6635423D01*
X3072873Y6573113D01*
X3074061Y6562061D01*
X3074471Y6562120D01*
X3075753Y6553201D01*
X3075753Y6553200D01*
X3082520Y6506135D01*
X3096235Y6410743D01*
X3156023Y6279826D01*
X3250273Y6171055D01*
X3371346Y6093247D01*
X3509439Y6052700D01*
X3653361Y6052700D01*
X3791453Y6093247D01*
X3912526Y6171055D01*
X3944529Y6207988D01*
X4006777Y6279827D01*
X4066565Y6410743D01*
X4087047Y6553200D01*
X4066565Y6695657D01*
X4006777Y6826573D01*
X3912528Y6935343D01*
X3791453Y7013153D01*
X3653361Y7053700D01*
X3593416Y7053700D01*
X3525295Y7073702D01*
X3504321Y7090605D01*
X3038605Y7556321D01*
X3004579Y7618633D01*
X3001700Y7645416D01*
X3001700Y7918806D01*
X3021702Y7986927D01*
X3075358Y8033420D01*
X3145632Y8043524D01*
X3210212Y8014030D01*
X3216795Y8007901D01*
X4528699Y6695997D01*
X4562725Y6633685D01*
X4565604Y6606902D01*
X4565604Y3926410D01*
X4545602Y3858289D01*
X4528699Y3837315D01*
X4445721Y3754337D01*
X4424749Y3737435D01*
X4420870Y3734943D01*
X4420868Y3734941D01*
X4388392Y3697461D01*
X4382272Y3690888D01*
X4372777Y3681393D01*
X4368102Y3675148D01*
X4364732Y3670646D01*
X4359094Y3663650D01*
X4326621Y3626173D01*
X4326620Y3626171D01*
X4326619Y3626170D01*
X4326617Y3626167D01*
X4324704Y3621978D01*
X4310966Y3598824D01*
X4308202Y3595131D01*
X4300420Y3574266D01*
X4290870Y3548664D01*
X4287429Y3540358D01*
X4266834Y3495262D01*
X4266832Y3495255D01*
X4266175Y3490683D01*
X4259519Y3464608D01*
X4257908Y3460288D01*
X4257907Y3460281D01*
X4254369Y3410825D01*
X4253408Y3401887D01*
X4246821Y3356064D01*
X4246351Y3352798D01*
X4246351Y3352797D01*
X4247007Y3348233D01*
X4247967Y3321326D01*
X4247638Y3316733D01*
X4247639Y3316727D01*
X4248619Y3312220D01*
X4251498Y3285440D01*
X4251498Y2568543D01*
X4248618Y2541762D01*
X4247639Y2537259D01*
X4247639Y2537256D01*
X4251177Y2487793D01*
X4251498Y2478804D01*
X4251498Y2465388D01*
X4253408Y2452099D01*
X4254368Y2443168D01*
X4257907Y2393702D01*
X4257907Y2393698D01*
X4259521Y2389372D01*
X4266174Y2363303D01*
X4266831Y2358734D01*
X4266832Y2358730D01*
X4287433Y2313620D01*
X4290873Y2305313D01*
X4308200Y2258857D01*
X4310967Y2255161D01*
X4324707Y2232004D01*
X4326621Y2227812D01*
X4359091Y2190339D01*
X4364729Y2183342D01*
X4372773Y2172596D01*
X4372775Y2172595D01*
X4382276Y2163092D01*
X4388392Y2156522D01*
X4420869Y2119043D01*
X4424750Y2116549D01*
X4445717Y2099650D01*
X4562972Y1982395D01*
X4579866Y1961434D01*
X4582360Y1957553D01*
X4582365Y1957547D01*
X4602894Y1939757D01*
X4615594Y1927057D01*
X4633382Y1906530D01*
X4633383Y1906529D01*
X4656226Y1891849D01*
X4670614Y1881079D01*
X4691139Y1863294D01*
X4695335Y1861378D01*
X4718477Y1847648D01*
X4722173Y1844881D01*
X4722185Y1844874D01*
X4726506Y1843263D01*
X4750575Y1831215D01*
X4754455Y1828721D01*
X4780517Y1821068D01*
X4797353Y1814788D01*
X4822051Y1803509D01*
X4822058Y1803507D01*
X4826627Y1802850D01*
X4852696Y1796197D01*
X4857024Y1794583D01*
X4861626Y1794254D01*
X4888126Y1789472D01*
X4892547Y1788174D01*
X4892549Y1788174D01*
X4919421Y1788174D01*
X4987542Y1768172D01*
X5008516Y1751269D01*
X6126263Y633521D01*
X6143159Y612558D01*
X6145656Y608673D01*
X6145659Y608669D01*
X6183135Y576195D01*
X6189705Y570079D01*
X6199209Y560577D01*
X6199210Y560575D01*
X6209956Y552531D01*
X6216953Y546893D01*
X6254426Y514423D01*
X6257206Y513153D01*
X6258619Y512507D01*
X6281775Y498769D01*
X6285471Y496002D01*
X6285470Y496002D01*
X6331927Y478675D01*
X6340234Y475235D01*
X6385344Y454634D01*
X6385348Y454633D01*
X6389917Y453976D01*
X6415986Y447323D01*
X6420314Y445709D01*
X6469782Y442170D01*
X6478713Y441210D01*
X6492001Y439300D01*
X6505420Y439300D01*
X6514407Y438979D01*
X6540924Y437082D01*
X6563872Y435441D01*
X6563873Y435441D01*
X6568373Y436420D01*
X6595158Y439300D01*
X6801696Y439300D01*
X6869817Y419298D01*
X6890791Y402395D01*
X6925691Y367495D01*
X6959717Y305183D01*
X6954652Y234368D01*
X6912105Y177532D01*
X6845585Y152721D01*
X6836596Y152400D01*
X278400Y152400D01*
X210279Y172402D01*
X163786Y226058D01*
X152400Y278400D01*
X152400Y1121788D01*
X172402Y1189909D01*
X226058Y1236402D01*
X291866Y1247066D01*
X301772Y1246001D01*
X301795Y1246000D01*
X823000Y1246000D01*
X823000Y2001000D01*
X843002Y2069121D01*
X896658Y2115614D01*
X949000Y2127000D01*
X1000366Y2127000D01*
X975000Y2057306D01*
X975000Y1942694D01*
X1014199Y1834993D01*
X1077000Y1760150D01*
X1077000Y1246000D01*
X1598202Y1246000D01*
X1598226Y1246002D01*
X1658232Y1252452D01*
X1658234Y1252452D01*
X1794023Y1303100D01*
X1910047Y1389952D01*
X1996899Y1505976D01*
X2047546Y1641761D01*
X2047548Y1641769D01*
X2053999Y1701777D01*
X2054000Y1701794D01*
X2054000Y1873000D01*
X1599634Y1873000D01*
X1625000Y1942694D01*
X1625000Y2057306D01*
X1599634Y2127000D01*
X2053999Y2127000D01*
X2053999Y2298202D01*
X2053997Y2298226D01*
X2047547Y2358232D01*
X2047547Y2358234D01*
X1996900Y2494021D01*
X1914458Y2604153D01*
X1889648Y2670674D01*
X1904740Y2740048D01*
X1913947Y2754483D01*
X1952793Y2807118D01*
X1997644Y2935295D01*
X1997645Y2935299D01*
X1997646Y2935301D01*
X2000500Y2965734D01*
X2000500Y3574266D01*
X1997646Y3604699D01*
X1952793Y3732882D01*
X1880984Y3830179D01*
X1856627Y3896866D01*
X1872189Y3966135D01*
X1880980Y3979814D01*
X1915638Y4026775D01*
X1952793Y4077117D01*
X1952793Y4077118D01*
X1997644Y4205295D01*
X1997645Y4205299D01*
X1997646Y4205301D01*
X2000500Y4235734D01*
X2000500Y4844266D01*
X1997646Y4874699D01*
X1952793Y5002882D01*
X1880984Y5100179D01*
X1856627Y5166866D01*
X1872189Y5236135D01*
X1880980Y5249814D01*
X1915638Y5296775D01*
X1952793Y5347117D01*
X1952793Y5347118D01*
X1997644Y5475295D01*
X1997645Y5475299D01*
X1997646Y5475301D01*
X2000500Y5505734D01*
X2000500Y6114266D01*
X1997646Y6144699D01*
X1952793Y6272882D01*
X1880984Y6370179D01*
X1856627Y6436866D01*
X1872189Y6506135D01*
X1880980Y6519814D01*
X1934863Y6592823D01*
X1952793Y6617117D01*
X1952793Y6617118D01*
X1997644Y6745295D01*
X1997645Y6745299D01*
X1997646Y6745301D01*
X2000500Y6775734D01*
X2000500Y7384266D01*
X1997646Y7414699D01*
X1952793Y7542882D01*
X1880984Y7640179D01*
X1856627Y7706866D01*
X1872189Y7776135D01*
X1880980Y7789814D01*
X1915638Y7836775D01*
X1952793Y7887117D01*
X1952793Y7887118D01*
X1997644Y8015295D01*
X1997645Y8015299D01*
X1997646Y8015301D01*
X2000500Y8045734D01*
X2000500Y8654266D01*
X1997646Y8684699D01*
X1952793Y8812882D01*
X1880984Y8910179D01*
X1856627Y8976866D01*
X1872189Y9046135D01*
X1880980Y9059814D01*
X1935756Y9134034D01*
X1952791Y9157115D01*
X1955252Y9161771D01*
X2004766Y9212652D01*
X2073929Y9228687D01*
X2134770Y9208896D01*
G37*
%TD.AperFunction*%
%TA.AperFunction,Conductor*%
G36*
X18788921Y12832398D02*
G01*
X18835414Y12778742D01*
X18846800Y12726400D01*
X18846800Y4679999D01*
X18826798Y4611878D01*
X18773142Y4565385D01*
X18720800Y4553999D01*
X18127000Y4553999D01*
X18127000Y3600422D01*
X18115165Y3675148D01*
X18057641Y3788045D01*
X17968045Y3877641D01*
X17873000Y3926068D01*
X17873000Y4553999D01*
X17074986Y4553999D01*
X17074977Y4553998D01*
X17000894Y4539262D01*
X17000892Y4539262D01*
X16916875Y4483124D01*
X16860737Y4399106D01*
X16860736Y4399105D01*
X16846000Y4325022D01*
X16846000Y3677000D01*
X17345779Y3677000D01*
X17344835Y3675148D01*
X17325014Y3550000D01*
X17344835Y3424852D01*
X17345779Y3423000D01*
X16846001Y3423000D01*
X16846001Y2774977D01*
X16860737Y2700894D01*
X16860737Y2700892D01*
X16916875Y2616875D01*
X17000893Y2560737D01*
X17000894Y2560736D01*
X17074977Y2546000D01*
X17873000Y2546000D01*
X17873000Y3173931D01*
X17968045Y3222359D01*
X18057641Y3311955D01*
X18115165Y3424852D01*
X18127000Y3499577D01*
X18127000Y2546000D01*
X18720800Y2546000D01*
X18788921Y2525998D01*
X18835414Y2472342D01*
X18846800Y2420000D01*
X18846800Y2346500D01*
X18826798Y2278379D01*
X18773142Y2231886D01*
X18720800Y2220500D01*
X17080252Y2220500D01*
X17021769Y2208867D01*
X16955448Y2164552D01*
X16923373Y2116549D01*
X16911133Y2098231D01*
X16911132Y2098228D01*
X16899500Y2039750D01*
X16899500Y500249D01*
X16911132Y441771D01*
X16911133Y441768D01*
X16955450Y375444D01*
X16963400Y367495D01*
X16997426Y305183D01*
X16992361Y234368D01*
X16949814Y177532D01*
X16883294Y152721D01*
X16874305Y152400D01*
X8002905Y152400D01*
X7934784Y172402D01*
X7888291Y226058D01*
X7878187Y296332D01*
X7892318Y338787D01*
X7915966Y382093D01*
X7916943Y386586D01*
X7925453Y412156D01*
X7927364Y416341D01*
X7927365Y416343D01*
X7934422Y465435D01*
X7936016Y474266D01*
X7946559Y522727D01*
X7946230Y527315D01*
X7947191Y554243D01*
X7947847Y558800D01*
X7940789Y607885D01*
X7939828Y616823D01*
X7936291Y666279D01*
X7936291Y666283D01*
X7934683Y670591D01*
X7928019Y696705D01*
X7927365Y701257D01*
X7906763Y746366D01*
X7903327Y754662D01*
X7885996Y801131D01*
X7883236Y804817D01*
X7869489Y827983D01*
X7867577Y832173D01*
X7835097Y869655D01*
X7829467Y876641D01*
X7821420Y887393D01*
X7811939Y896872D01*
X7805805Y903461D01*
X7773328Y940943D01*
X7769451Y943433D01*
X7748476Y960335D01*
X7731104Y977707D01*
X7697082Y1040020D01*
X7702149Y1110836D01*
X7731108Y1155895D01*
X7748472Y1173259D01*
X7769445Y1190161D01*
X7773326Y1192655D01*
X7805811Y1230145D01*
X7811930Y1236717D01*
X7821420Y1246207D01*
X7829460Y1256947D01*
X7835100Y1263946D01*
X7867576Y1301426D01*
X7867577Y1301427D01*
X7869489Y1305615D01*
X7883231Y1328775D01*
X7885996Y1332469D01*
X7885996Y1332471D01*
X7885998Y1332473D01*
X7903324Y1378928D01*
X7906760Y1387227D01*
X7927365Y1432343D01*
X7928021Y1436907D01*
X7934681Y1463002D01*
X7936291Y1467317D01*
X7939828Y1516785D01*
X7940790Y1525722D01*
X7946917Y1568333D01*
X7976410Y1632913D01*
X8036137Y1671296D01*
X8071634Y1676400D01*
X15265400Y1676400D01*
X15240000Y10185400D01*
X6731000Y10185400D01*
X6730999Y10185399D01*
X6756258Y1723719D01*
X6736460Y1655539D01*
X6682943Y1608886D01*
X6612700Y1598573D01*
X6548031Y1627873D01*
X6541177Y1634235D01*
X5580460Y2594952D01*
X5563557Y2615930D01*
X5561069Y2619802D01*
X5523574Y2652289D01*
X5517003Y2658410D01*
X5512731Y2662682D01*
X5507519Y2667895D01*
X5496770Y2675940D01*
X5489772Y2681580D01*
X5474289Y2694995D01*
X5452299Y2714051D01*
X5448109Y2715963D01*
X5424943Y2729710D01*
X5421257Y2732470D01*
X5374788Y2749801D01*
X5366502Y2753232D01*
X5326152Y2771661D01*
X5272498Y2818156D01*
X5252498Y2886273D01*
X5252498Y3093296D01*
X5272500Y3161417D01*
X5289403Y3182391D01*
X5372379Y3265367D01*
X5393350Y3282268D01*
X5397231Y3284762D01*
X5397232Y3284763D01*
X5429711Y3322246D01*
X5435827Y3328815D01*
X5445325Y3338313D01*
X5453373Y3349064D01*
X5459014Y3356064D01*
X5491480Y3393532D01*
X5491481Y3393533D01*
X5493393Y3397721D01*
X5507135Y3420881D01*
X5509900Y3424575D01*
X5509900Y3424577D01*
X5509902Y3424579D01*
X5527228Y3471034D01*
X5530664Y3479333D01*
X5551269Y3524449D01*
X5551925Y3529013D01*
X5558585Y3555108D01*
X5560195Y3559423D01*
X5563733Y3608898D01*
X5564691Y3617805D01*
X5566604Y3631107D01*
X5566604Y3644524D01*
X5566925Y3653513D01*
X5567200Y3657366D01*
X5570463Y3702979D01*
X5569483Y3707482D01*
X5566604Y3734263D01*
X5566604Y11478136D01*
X5569483Y11504916D01*
X5570462Y11509419D01*
X5570463Y11509423D01*
X5566924Y11558888D01*
X5566604Y11567876D01*
X5566604Y11581294D01*
X5565280Y11590500D01*
X5564691Y11594596D01*
X5563733Y11603505D01*
X5560195Y11652979D01*
X5558587Y11657287D01*
X5551923Y11683401D01*
X5551269Y11687953D01*
X5530667Y11733062D01*
X5527231Y11741358D01*
X5509900Y11787827D01*
X5507140Y11791513D01*
X5493393Y11814679D01*
X5491481Y11818869D01*
X5459010Y11856342D01*
X5453370Y11863340D01*
X5445325Y11874089D01*
X5435836Y11883576D01*
X5429719Y11890144D01*
X5397232Y11927639D01*
X5393360Y11930127D01*
X5372382Y11947030D01*
X4770334Y12549078D01*
X4753431Y12570056D01*
X4750943Y12573928D01*
X4730420Y12591711D01*
X4713469Y12606399D01*
X4706881Y12612532D01*
X4697393Y12622021D01*
X4697391Y12622022D01*
X4690214Y12629199D01*
X4690207Y12629204D01*
X4682101Y12637310D01*
X4648081Y12699624D01*
X4653150Y12770440D01*
X4695700Y12827273D01*
X4762222Y12852080D01*
X4771203Y12852400D01*
X18720800Y12852400D01*
X18788921Y12832398D01*
G37*
%TD.AperFunction*%
%TD*%
M02*
