%TF.GenerationSoftware,KiCad,Pcbnew,8.0.5-8.0.5-0~ubuntu22.04.1*%
%TF.CreationDate,2024-09-13T18:39:49+02:00*%
%TF.ProjectId,Adapter_EByte_E07_900MM10S_to_Ebyte_E07_868MS10_FUEL4EP,41646170-7465-4725-9f45-427974655f45,1.1*%
%TF.SameCoordinates,Original*%
%TF.FileFunction,Copper,L2,Bot*%
%TF.FilePolarity,Positive*%
%FSLAX46Y46*%
G04 Gerber Fmt 4.6, Leading zero omitted, Abs format (unit mm)*
G04 Created by KiCad (PCBNEW 8.0.5-8.0.5-0~ubuntu22.04.1) date 2024-09-13 18:39:49*
%MOMM*%
%LPD*%
G01*
G04 APERTURE LIST*
G04 Aperture macros list*
%AMRoundRect*
0 Rectangle with rounded corners*
0 $1 Rounding radius*
0 $2 $3 $4 $5 $6 $7 $8 $9 X,Y pos of 4 corners*
0 Add a 4 corners polygon primitive as box body*
4,1,4,$2,$3,$4,$5,$6,$7,$8,$9,$2,$3,0*
0 Add four circle primitives for the rounded corners*
1,1,$1+$1,$2,$3*
1,1,$1+$1,$4,$5*
1,1,$1+$1,$6,$7*
1,1,$1+$1,$8,$9*
0 Add four rect primitives between the rounded corners*
20,1,$1+$1,$2,$3,$4,$5,0*
20,1,$1+$1,$4,$5,$6,$7,0*
20,1,$1+$1,$6,$7,$8,$9,0*
20,1,$1+$1,$8,$9,$2,$3,0*%
G04 Aperture macros list end*
%TA.AperFunction,CastellatedPad*%
%ADD10RoundRect,0.250000X-0.600000X-0.250000X0.600000X-0.250000X0.600000X0.250000X-0.600000X0.250000X0*%
%TD*%
%TA.AperFunction,CastellatedPad*%
%ADD11R,1.800000X1.500000*%
%TD*%
%TA.AperFunction,CastellatedPad*%
%ADD12R,1.700000X1.000000*%
%TD*%
%TA.AperFunction,ViaPad*%
%ADD13C,0.600000*%
%TD*%
%TA.AperFunction,Conductor*%
%ADD14C,0.600000*%
%TD*%
%TA.AperFunction,Conductor*%
%ADD15C,0.250000*%
%TD*%
%TA.AperFunction,Conductor*%
%ADD16C,0.500000*%
%TD*%
G04 APERTURE END LIST*
D10*
%TO.P,JC5,1,Pin_1*%
%TO.N,/MOSI*%
X950000Y5810000D03*
%TD*%
D11*
%TO.P,JA1,1,Pin_1*%
%TO.N,GND*%
X18000000Y3550000D03*
%TD*%
D10*
%TO.P,JC8,1,Pin_1*%
%TO.N,GND*%
X950000Y2000000D03*
%TD*%
D11*
%TO.P,JA2,1,Pin_1*%
%TO.N,/ANT*%
X18000000Y1270000D03*
%TD*%
D10*
%TO.P,JC6,1,Pin_1*%
%TO.N,/MISO{slash}GDO1*%
X950000Y4540000D03*
%TD*%
%TO.P,JC3,1,Pin_1*%
%TO.N,/~{CS}*%
X950000Y8350000D03*
%TD*%
%TO.P,JC2,1,Pin_1*%
%TO.N,/GDO0*%
X950000Y9620000D03*
%TD*%
D12*
%TO.P,JC1,1,Pin_1*%
%TO.N,/VDD*%
X950000Y10890000D03*
%TD*%
D10*
%TO.P,JC4,1,Pin_1*%
%TO.N,/SCK*%
X950000Y7080000D03*
%TD*%
%TO.P,JC7,1,Pin_1*%
%TO.N,/GDO2*%
X950000Y3270000D03*
%TD*%
D13*
%TO.N,GND*%
X17602200Y4673600D03*
X6061243Y9229557D03*
X635000Y685800D03*
X17703800Y5994400D03*
X17703800Y10541000D03*
X9677400Y2413000D03*
X17703800Y8305800D03*
X17703800Y7086600D03*
X5054600Y1168400D03*
X6400800Y2387600D03*
X5537200Y609600D03*
X17703800Y9550400D03*
X1625600Y711200D03*
%TO.N,/GDO0*%
X2381400Y9645344D03*
X3581400Y6553200D03*
%TO.N,/MOSI*%
X4089402Y8890000D03*
X4123693Y10715399D03*
%TO.N,VDDA*%
X4751998Y3352800D03*
X4964510Y2288674D03*
X4038600Y12573000D03*
X3251200Y12242800D03*
X7442200Y1574800D03*
X7442200Y558800D03*
%TD*%
D14*
%TO.N,GND*%
X9677400Y965200D02*
X9728200Y914400D01*
X9677400Y2413000D02*
X9677400Y965200D01*
D15*
%TO.N,/GDO0*%
X2676200Y9350544D02*
X2381400Y9645344D01*
X2676200Y7458400D02*
X2676200Y9350544D01*
X3581400Y6553200D02*
X2676200Y7458400D01*
%TO.N,/MOSI*%
X4123693Y8924291D02*
X4089402Y8890000D01*
X4123693Y10715399D02*
X4123693Y8924291D01*
D14*
%TO.N,VDDA*%
X7442200Y1574800D02*
X7061200Y1193800D01*
X4751998Y2501186D02*
X4964510Y2288674D01*
X7442200Y558800D02*
X7061200Y939800D01*
X5066104Y3666906D02*
X5066104Y6578600D01*
X6527800Y939800D02*
X5178926Y2288674D01*
D16*
X5066104Y6795696D02*
X5066104Y6578600D01*
D14*
X4368800Y12242800D02*
X3251200Y12242800D01*
X7061200Y1193800D02*
X7061200Y939800D01*
X4751998Y3352800D02*
X5066104Y3666906D01*
D16*
X3251200Y8610600D02*
X5066104Y6795696D01*
X3251200Y12242800D02*
X3251200Y8610600D01*
D14*
X5178926Y2288674D02*
X4964510Y2288674D01*
X7061200Y939800D02*
X6527800Y939800D01*
X5066104Y11545496D02*
X4368800Y12242800D01*
X5066104Y6578600D02*
X5066104Y11545496D01*
X4751998Y3352800D02*
X4751998Y2501186D01*
X4368800Y12242800D02*
X4038600Y12573000D01*
%TD*%
%TA.AperFunction,Conductor*%
%TO.N,GND*%
G36*
X2134770Y9208896D02*
G01*
X2171344Y9185392D01*
X2171346Y9185391D01*
X2260198Y9159302D01*
X2319924Y9120918D01*
X2349418Y9056338D01*
X2350700Y9038406D01*
X2350700Y7501253D01*
X2350700Y7415547D01*
X2372882Y7332761D01*
X2372883Y7332759D01*
X2372884Y7332756D01*
X2415732Y7258541D01*
X2415737Y7258535D01*
X3038849Y6635423D01*
X3072874Y6573111D01*
X3074061Y6562060D01*
X3074471Y6562119D01*
X3096235Y6410743D01*
X3156023Y6279826D01*
X3250273Y6171055D01*
X3371346Y6093247D01*
X3509439Y6052700D01*
X3653361Y6052700D01*
X3791453Y6093247D01*
X3912526Y6171055D01*
X3944529Y6207988D01*
X4006777Y6279827D01*
X4066565Y6410743D01*
X4087047Y6553200D01*
X4066565Y6695657D01*
X4006777Y6826573D01*
X3912528Y6935343D01*
X3791453Y7013153D01*
X3653361Y7053700D01*
X3593417Y7053700D01*
X3525296Y7073702D01*
X3504322Y7090605D01*
X3038605Y7556322D01*
X3004579Y7618634D01*
X3001700Y7645417D01*
X3001700Y7918806D01*
X3021702Y7986927D01*
X3075358Y8033420D01*
X3145632Y8043524D01*
X3210212Y8014030D01*
X3216795Y8007901D01*
X4528699Y6695997D01*
X4562725Y6633685D01*
X4565604Y6606902D01*
X4565604Y3926410D01*
X4545602Y3858289D01*
X4528699Y3837315D01*
X4445721Y3754337D01*
X4424749Y3737435D01*
X4420870Y3734943D01*
X4420869Y3734942D01*
X4420866Y3734940D01*
X4388390Y3697460D01*
X4382273Y3690889D01*
X4359372Y3667988D01*
X4351499Y3660115D01*
X4351497Y3660113D01*
X4348462Y3654855D01*
X4334567Y3635343D01*
X4326622Y3626174D01*
X4326619Y3626169D01*
X4309124Y3587863D01*
X4303632Y3577210D01*
X4285607Y3545989D01*
X4285604Y3545981D01*
X4282088Y3532861D01*
X4274998Y3513139D01*
X4266833Y3495260D01*
X4266832Y3495254D01*
X4261901Y3460963D01*
X4258892Y3446291D01*
X4251498Y3418694D01*
X4251498Y3397607D01*
X4250215Y3379674D01*
X4246351Y3352801D01*
X4250216Y3325917D01*
X4251498Y3307987D01*
X4251498Y2435295D01*
X4285605Y2308002D01*
X4285608Y2307995D01*
X4351495Y2193875D01*
X4351503Y2193865D01*
X4564008Y1981361D01*
X4564011Y1981359D01*
X4594783Y1950585D01*
X4600908Y1944007D01*
X4633383Y1906530D01*
X4633383Y1906529D01*
X4637265Y1904035D01*
X4652030Y1892137D01*
X4657194Y1888174D01*
X4680587Y1874669D01*
X4680591Y1874667D01*
X4701346Y1862683D01*
X4706461Y1859565D01*
X4754457Y1828720D01*
X4755557Y1828218D01*
X4765232Y1824805D01*
X4771325Y1822281D01*
X4827759Y1807159D01*
X4830641Y1806350D01*
X4892549Y1788174D01*
X4898617Y1788174D01*
X4898618Y1788174D01*
X4919422Y1788174D01*
X4987543Y1768172D01*
X5008517Y1751269D01*
X6127300Y632486D01*
X6156179Y603607D01*
X6220484Y539301D01*
X6220489Y539297D01*
X6334609Y473410D01*
X6334616Y473407D01*
X6391887Y458062D01*
X6461908Y439300D01*
X6801695Y439300D01*
X6869816Y419298D01*
X6890790Y402395D01*
X6925690Y367495D01*
X6959716Y305183D01*
X6954651Y234368D01*
X6912104Y177532D01*
X6845584Y152721D01*
X6836595Y152400D01*
X278400Y152400D01*
X210279Y172402D01*
X163786Y226058D01*
X152400Y278400D01*
X152400Y1121788D01*
X172402Y1189909D01*
X226058Y1236402D01*
X291866Y1247066D01*
X301772Y1246001D01*
X301795Y1246000D01*
X823000Y1246000D01*
X823000Y2001000D01*
X843002Y2069121D01*
X896658Y2115614D01*
X949000Y2127000D01*
X998047Y2127000D01*
X997149Y2125445D01*
X975000Y2042787D01*
X975000Y1957213D01*
X997149Y1874555D01*
X1039936Y1800446D01*
X1077000Y1763382D01*
X1077000Y1246000D01*
X1598202Y1246000D01*
X1598226Y1246002D01*
X1658232Y1252452D01*
X1658234Y1252452D01*
X1794023Y1303100D01*
X1910047Y1389952D01*
X1996899Y1505976D01*
X2047546Y1641761D01*
X2047548Y1641769D01*
X2053999Y1701777D01*
X2054000Y1701794D01*
X2054000Y1873000D01*
X1601953Y1873000D01*
X1602851Y1874555D01*
X1625000Y1957213D01*
X1625000Y2042787D01*
X1602851Y2125445D01*
X1601953Y2127000D01*
X2053999Y2127000D01*
X2053999Y2298202D01*
X2053997Y2298226D01*
X2047547Y2358232D01*
X2047547Y2358234D01*
X1996900Y2494021D01*
X1914458Y2604153D01*
X1889648Y2670674D01*
X1904740Y2740048D01*
X1913947Y2754483D01*
X1952793Y2807118D01*
X1997644Y2935295D01*
X1997645Y2935299D01*
X1997646Y2935301D01*
X2000500Y2965734D01*
X2000500Y3574266D01*
X1997646Y3604699D01*
X1952793Y3732882D01*
X1880984Y3830179D01*
X1856627Y3896866D01*
X1872189Y3966135D01*
X1880980Y3979814D01*
X1915638Y4026775D01*
X1952793Y4077117D01*
X1952793Y4077118D01*
X1997644Y4205295D01*
X1997645Y4205299D01*
X1997646Y4205301D01*
X2000500Y4235734D01*
X2000500Y4844266D01*
X1997646Y4874699D01*
X1952793Y5002882D01*
X1880984Y5100179D01*
X1856627Y5166866D01*
X1872189Y5236135D01*
X1880980Y5249814D01*
X1915638Y5296775D01*
X1952793Y5347117D01*
X1952793Y5347118D01*
X1997644Y5475295D01*
X1997645Y5475299D01*
X1997646Y5475301D01*
X2000500Y5505734D01*
X2000500Y6114266D01*
X1997646Y6144699D01*
X1952793Y6272882D01*
X1880984Y6370179D01*
X1856627Y6436866D01*
X1872189Y6506135D01*
X1880980Y6519814D01*
X1934863Y6592823D01*
X1952793Y6617117D01*
X1952793Y6617118D01*
X1997644Y6745295D01*
X1997645Y6745299D01*
X1997646Y6745301D01*
X2000500Y6775734D01*
X2000500Y7384266D01*
X1997646Y7414699D01*
X1952793Y7542882D01*
X1880984Y7640179D01*
X1856627Y7706866D01*
X1872189Y7776135D01*
X1880980Y7789814D01*
X1915638Y7836775D01*
X1952793Y7887117D01*
X1952793Y7887118D01*
X1997644Y8015295D01*
X1997645Y8015299D01*
X1997646Y8015301D01*
X2000500Y8045734D01*
X2000500Y8654266D01*
X1997646Y8684699D01*
X1952793Y8812882D01*
X1880984Y8910179D01*
X1856627Y8976866D01*
X1872189Y9046135D01*
X1880980Y9059814D01*
X1935756Y9134034D01*
X1952791Y9157115D01*
X1955252Y9161771D01*
X2004766Y9212652D01*
X2073929Y9228687D01*
X2134770Y9208896D01*
G37*
%TD.AperFunction*%
%TA.AperFunction,Conductor*%
G36*
X18788921Y12832398D02*
G01*
X18835414Y12778742D01*
X18846800Y12726400D01*
X18846800Y4679999D01*
X18826798Y4611878D01*
X18773142Y4565385D01*
X18720800Y4553999D01*
X18127000Y4553999D01*
X18127000Y3613857D01*
X18102741Y3704394D01*
X18050080Y3795606D01*
X17975606Y3870080D01*
X17884394Y3922741D01*
X17873000Y3925793D01*
X17873000Y4553999D01*
X17074986Y4553999D01*
X17074977Y4553998D01*
X17000894Y4539262D01*
X17000892Y4539262D01*
X16916875Y4483124D01*
X16860737Y4399106D01*
X16860736Y4399105D01*
X16846000Y4325022D01*
X16846000Y3677000D01*
X17349919Y3677000D01*
X17330000Y3602661D01*
X17330000Y3497339D01*
X17349919Y3423000D01*
X16846001Y3423000D01*
X16846001Y2774977D01*
X16860737Y2700894D01*
X16860737Y2700892D01*
X16916875Y2616875D01*
X17000893Y2560737D01*
X17000894Y2560736D01*
X17074977Y2546000D01*
X17873000Y2546000D01*
X17873000Y3174206D01*
X17884394Y3177259D01*
X17975606Y3229920D01*
X18050080Y3304394D01*
X18102741Y3395606D01*
X18127000Y3486142D01*
X18127000Y2546000D01*
X18720800Y2546000D01*
X18788921Y2525998D01*
X18835414Y2472342D01*
X18846800Y2420000D01*
X18846800Y2346500D01*
X18826798Y2278379D01*
X18773142Y2231886D01*
X18720800Y2220500D01*
X17080252Y2220500D01*
X17021769Y2208867D01*
X16955448Y2164552D01*
X16922748Y2115614D01*
X16911133Y2098231D01*
X16911132Y2098228D01*
X16899500Y2039750D01*
X16899500Y500249D01*
X16911132Y441771D01*
X16911133Y441768D01*
X16955450Y375444D01*
X16963400Y367495D01*
X16997426Y305183D01*
X16992361Y234368D01*
X16949814Y177532D01*
X16883294Y152721D01*
X16874305Y152400D01*
X8003730Y152400D01*
X7935609Y172402D01*
X7889116Y226058D01*
X7879012Y296332D01*
X7894611Y341399D01*
X7908592Y365614D01*
X7912108Y378738D01*
X7919199Y398462D01*
X7927365Y416343D01*
X7932296Y450644D01*
X7935306Y465315D01*
X7942700Y492908D01*
X7942700Y513987D01*
X7943982Y531917D01*
X7947847Y558801D01*
X7943983Y585674D01*
X7942700Y603607D01*
X7942700Y624693D01*
X7935305Y652287D01*
X7932295Y666963D01*
X7927365Y701257D01*
X7919202Y719130D01*
X7912107Y738866D01*
X7908592Y751986D01*
X7890559Y783218D01*
X7885075Y793855D01*
X7867577Y832173D01*
X7859632Y841340D01*
X7845730Y860862D01*
X7842699Y866115D01*
X7811917Y896895D01*
X7805798Y903469D01*
X7773330Y940941D01*
X7773329Y940941D01*
X7773328Y940943D01*
X7769458Y943429D01*
X7748478Y960334D01*
X7731105Y977707D01*
X7697083Y1040020D01*
X7702150Y1110836D01*
X7731109Y1155895D01*
X7748475Y1173261D01*
X7769446Y1190162D01*
X7773327Y1192656D01*
X7805805Y1230138D01*
X7811922Y1236708D01*
X7842699Y1267485D01*
X7845735Y1272744D01*
X7859624Y1292249D01*
X7867577Y1301427D01*
X7885071Y1339735D01*
X7890566Y1350391D01*
X7908589Y1381609D01*
X7908591Y1381612D01*
X7908592Y1381614D01*
X7912108Y1394738D01*
X7919199Y1414462D01*
X7927365Y1432343D01*
X7932296Y1466643D01*
X7935306Y1481314D01*
X7942700Y1508907D01*
X7942700Y1529987D01*
X7943983Y1547919D01*
X7946918Y1568332D01*
X7976411Y1632913D01*
X8036137Y1671296D01*
X8071635Y1676400D01*
X15265400Y1676400D01*
X15240000Y10185400D01*
X6731000Y10185400D01*
X6730999Y10185399D01*
X6756258Y1723720D01*
X6736460Y1655540D01*
X6682943Y1608887D01*
X6612700Y1598574D01*
X6548031Y1627874D01*
X6541190Y1634223D01*
X5486240Y2689174D01*
X5372112Y2755066D01*
X5345886Y2762093D01*
X5285265Y2799043D01*
X5254243Y2862903D01*
X5252498Y2883799D01*
X5252498Y3093295D01*
X5272500Y3161416D01*
X5289403Y3182390D01*
X5466598Y3359585D01*
X5466606Y3359595D01*
X5532493Y3473715D01*
X5532496Y3473720D01*
X5566604Y3601014D01*
X5566604Y3732798D01*
X5566604Y6644492D01*
X5566604Y11611388D01*
X5532496Y11738682D01*
X5466604Y11852810D01*
X5373418Y11945996D01*
X4682109Y12637305D01*
X4648084Y12699617D01*
X4653149Y12770433D01*
X4695696Y12827268D01*
X4762216Y12852079D01*
X4771205Y12852400D01*
X18720800Y12852400D01*
X18788921Y12832398D01*
G37*
%TD.AperFunction*%
%TD*%
M02*
