%TF.GenerationSoftware,KiCad,Pcbnew,8.0.5-8.0.5-0~ubuntu22.04.1*%
%TF.CreationDate,2024-09-13T18:39:49+02:00*%
%TF.ProjectId,Adapter_EByte_E07_900MM10S_to_Ebyte_E07_868MS10_FUEL4EP,41646170-7465-4725-9f45-427974655f45,1.1*%
%TF.SameCoordinates,Original*%
%TF.FileFunction,Legend,Bot*%
%TF.FilePolarity,Positive*%
%FSLAX46Y46*%
G04 Gerber Fmt 4.6, Leading zero omitted, Abs format (unit mm)*
G04 Created by KiCad (PCBNEW 8.0.5-8.0.5-0~ubuntu22.04.1) date 2024-09-13 18:39:49*
%MOMM*%
%LPD*%
G01*
G04 APERTURE LIST*
G04 Aperture macros list*
%AMRoundRect*
0 Rectangle with rounded corners*
0 $1 Rounding radius*
0 $2 $3 $4 $5 $6 $7 $8 $9 X,Y pos of 4 corners*
0 Add a 4 corners polygon primitive as box body*
4,1,4,$2,$3,$4,$5,$6,$7,$8,$9,$2,$3,0*
0 Add four circle primitives for the rounded corners*
1,1,$1+$1,$2,$3*
1,1,$1+$1,$4,$5*
1,1,$1+$1,$6,$7*
1,1,$1+$1,$8,$9*
0 Add four rect primitives between the rounded corners*
20,1,$1+$1,$2,$3,$4,$5,0*
20,1,$1+$1,$4,$5,$6,$7,0*
20,1,$1+$1,$6,$7,$8,$9,0*
20,1,$1+$1,$8,$9,$2,$3,0*%
G04 Aperture macros list end*
%ADD10C,0.150000*%
%ADD11C,0.200000*%
%ADD12C,0.010000*%
%ADD13RoundRect,0.250000X-0.600000X-0.250000X0.600000X-0.250000X0.600000X0.250000X-0.600000X0.250000X0*%
%ADD14R,1.800000X1.500000*%
%ADD15R,1.700000X1.000000*%
G04 APERTURE END LIST*
D10*
X11180600Y11974177D02*
X11180600Y12288463D01*
X11180600Y12288463D02*
X11209171Y12345606D01*
X11209171Y12345606D02*
X11266314Y12374177D01*
X11266314Y12374177D02*
X11380600Y12374177D01*
X11380600Y12374177D02*
X11437742Y12345606D01*
X11180600Y12002749D02*
X11237742Y11974177D01*
X11237742Y11974177D02*
X11380600Y11974177D01*
X11380600Y11974177D02*
X11437742Y12002749D01*
X11437742Y12002749D02*
X11466314Y12059891D01*
X11466314Y12059891D02*
X11466314Y12117034D01*
X11466314Y12117034D02*
X11437742Y12174177D01*
X11437742Y12174177D02*
X11380600Y12202749D01*
X11380600Y12202749D02*
X11237742Y12202749D01*
X11237742Y12202749D02*
X11180600Y12231320D01*
X10637743Y11974177D02*
X10637743Y12574177D01*
X10637743Y12002749D02*
X10694885Y11974177D01*
X10694885Y11974177D02*
X10809171Y11974177D01*
X10809171Y11974177D02*
X10866314Y12002749D01*
X10866314Y12002749D02*
X10894885Y12031320D01*
X10894885Y12031320D02*
X10923457Y12088463D01*
X10923457Y12088463D02*
X10923457Y12259891D01*
X10923457Y12259891D02*
X10894885Y12317034D01*
X10894885Y12317034D02*
X10866314Y12345606D01*
X10866314Y12345606D02*
X10809171Y12374177D01*
X10809171Y12374177D02*
X10694885Y12374177D01*
X10694885Y12374177D02*
X10637743Y12345606D01*
X10094886Y11974177D02*
X10094886Y12288463D01*
X10094886Y12288463D02*
X10123457Y12345606D01*
X10123457Y12345606D02*
X10180600Y12374177D01*
X10180600Y12374177D02*
X10294886Y12374177D01*
X10294886Y12374177D02*
X10352028Y12345606D01*
X10094886Y12002749D02*
X10152028Y11974177D01*
X10152028Y11974177D02*
X10294886Y11974177D01*
X10294886Y11974177D02*
X10352028Y12002749D01*
X10352028Y12002749D02*
X10380600Y12059891D01*
X10380600Y12059891D02*
X10380600Y12117034D01*
X10380600Y12117034D02*
X10352028Y12174177D01*
X10352028Y12174177D02*
X10294886Y12202749D01*
X10294886Y12202749D02*
X10152028Y12202749D01*
X10152028Y12202749D02*
X10094886Y12231320D01*
X9809171Y12374177D02*
X9809171Y11774177D01*
X9809171Y12345606D02*
X9752029Y12374177D01*
X9752029Y12374177D02*
X9637743Y12374177D01*
X9637743Y12374177D02*
X9580600Y12345606D01*
X9580600Y12345606D02*
X9552029Y12317034D01*
X9552029Y12317034D02*
X9523457Y12259891D01*
X9523457Y12259891D02*
X9523457Y12088463D01*
X9523457Y12088463D02*
X9552029Y12031320D01*
X9552029Y12031320D02*
X9580600Y12002749D01*
X9580600Y12002749D02*
X9637743Y11974177D01*
X9637743Y11974177D02*
X9752029Y11974177D01*
X9752029Y11974177D02*
X9809171Y12002749D01*
X9352029Y12374177D02*
X9123457Y12374177D01*
X9266314Y12574177D02*
X9266314Y12059891D01*
X9266314Y12059891D02*
X9237743Y12002749D01*
X9237743Y12002749D02*
X9180600Y11974177D01*
X9180600Y11974177D02*
X9123457Y11974177D01*
X8694886Y12002749D02*
X8752029Y11974177D01*
X8752029Y11974177D02*
X8866315Y11974177D01*
X8866315Y11974177D02*
X8923457Y12002749D01*
X8923457Y12002749D02*
X8952029Y12059891D01*
X8952029Y12059891D02*
X8952029Y12288463D01*
X8952029Y12288463D02*
X8923457Y12345606D01*
X8923457Y12345606D02*
X8866315Y12374177D01*
X8866315Y12374177D02*
X8752029Y12374177D01*
X8752029Y12374177D02*
X8694886Y12345606D01*
X8694886Y12345606D02*
X8666315Y12288463D01*
X8666315Y12288463D02*
X8666315Y12231320D01*
X8666315Y12231320D02*
X8952029Y12174177D01*
X8409171Y11974177D02*
X8409171Y12374177D01*
X8409171Y12259891D02*
X8380600Y12317034D01*
X8380600Y12317034D02*
X8352029Y12345606D01*
X8352029Y12345606D02*
X8294886Y12374177D01*
X8294886Y12374177D02*
X8237743Y12374177D01*
X13209172Y11322497D02*
X13009172Y11322497D01*
X12923458Y11008211D02*
X13209172Y11008211D01*
X13209172Y11008211D02*
X13209172Y11608211D01*
X13209172Y11608211D02*
X12923458Y11608211D01*
X12552030Y11608211D02*
X12494887Y11608211D01*
X12494887Y11608211D02*
X12437744Y11579640D01*
X12437744Y11579640D02*
X12409173Y11551068D01*
X12409173Y11551068D02*
X12380601Y11493925D01*
X12380601Y11493925D02*
X12352030Y11379640D01*
X12352030Y11379640D02*
X12352030Y11236783D01*
X12352030Y11236783D02*
X12380601Y11122497D01*
X12380601Y11122497D02*
X12409173Y11065354D01*
X12409173Y11065354D02*
X12437744Y11036783D01*
X12437744Y11036783D02*
X12494887Y11008211D01*
X12494887Y11008211D02*
X12552030Y11008211D01*
X12552030Y11008211D02*
X12609173Y11036783D01*
X12609173Y11036783D02*
X12637744Y11065354D01*
X12637744Y11065354D02*
X12666315Y11122497D01*
X12666315Y11122497D02*
X12694887Y11236783D01*
X12694887Y11236783D02*
X12694887Y11379640D01*
X12694887Y11379640D02*
X12666315Y11493925D01*
X12666315Y11493925D02*
X12637744Y11551068D01*
X12637744Y11551068D02*
X12609173Y11579640D01*
X12609173Y11579640D02*
X12552030Y11608211D01*
X12152029Y11608211D02*
X11752029Y11608211D01*
X11752029Y11608211D02*
X12009172Y11008211D01*
X11037743Y11008211D02*
X10923457Y11008211D01*
X10923457Y11008211D02*
X10866314Y11036783D01*
X10866314Y11036783D02*
X10837743Y11065354D01*
X10837743Y11065354D02*
X10780600Y11151068D01*
X10780600Y11151068D02*
X10752029Y11265354D01*
X10752029Y11265354D02*
X10752029Y11493925D01*
X10752029Y11493925D02*
X10780600Y11551068D01*
X10780600Y11551068D02*
X10809172Y11579640D01*
X10809172Y11579640D02*
X10866314Y11608211D01*
X10866314Y11608211D02*
X10980600Y11608211D01*
X10980600Y11608211D02*
X11037743Y11579640D01*
X11037743Y11579640D02*
X11066314Y11551068D01*
X11066314Y11551068D02*
X11094886Y11493925D01*
X11094886Y11493925D02*
X11094886Y11351068D01*
X11094886Y11351068D02*
X11066314Y11293925D01*
X11066314Y11293925D02*
X11037743Y11265354D01*
X11037743Y11265354D02*
X10980600Y11236783D01*
X10980600Y11236783D02*
X10866314Y11236783D01*
X10866314Y11236783D02*
X10809172Y11265354D01*
X10809172Y11265354D02*
X10780600Y11293925D01*
X10780600Y11293925D02*
X10752029Y11351068D01*
X10380600Y11608211D02*
X10323457Y11608211D01*
X10323457Y11608211D02*
X10266314Y11579640D01*
X10266314Y11579640D02*
X10237743Y11551068D01*
X10237743Y11551068D02*
X10209171Y11493925D01*
X10209171Y11493925D02*
X10180600Y11379640D01*
X10180600Y11379640D02*
X10180600Y11236783D01*
X10180600Y11236783D02*
X10209171Y11122497D01*
X10209171Y11122497D02*
X10237743Y11065354D01*
X10237743Y11065354D02*
X10266314Y11036783D01*
X10266314Y11036783D02*
X10323457Y11008211D01*
X10323457Y11008211D02*
X10380600Y11008211D01*
X10380600Y11008211D02*
X10437743Y11036783D01*
X10437743Y11036783D02*
X10466314Y11065354D01*
X10466314Y11065354D02*
X10494885Y11122497D01*
X10494885Y11122497D02*
X10523457Y11236783D01*
X10523457Y11236783D02*
X10523457Y11379640D01*
X10523457Y11379640D02*
X10494885Y11493925D01*
X10494885Y11493925D02*
X10466314Y11551068D01*
X10466314Y11551068D02*
X10437743Y11579640D01*
X10437743Y11579640D02*
X10380600Y11608211D01*
X9809171Y11608211D02*
X9752028Y11608211D01*
X9752028Y11608211D02*
X9694885Y11579640D01*
X9694885Y11579640D02*
X9666314Y11551068D01*
X9666314Y11551068D02*
X9637742Y11493925D01*
X9637742Y11493925D02*
X9609171Y11379640D01*
X9609171Y11379640D02*
X9609171Y11236783D01*
X9609171Y11236783D02*
X9637742Y11122497D01*
X9637742Y11122497D02*
X9666314Y11065354D01*
X9666314Y11065354D02*
X9694885Y11036783D01*
X9694885Y11036783D02*
X9752028Y11008211D01*
X9752028Y11008211D02*
X9809171Y11008211D01*
X9809171Y11008211D02*
X9866314Y11036783D01*
X9866314Y11036783D02*
X9894885Y11065354D01*
X9894885Y11065354D02*
X9923456Y11122497D01*
X9923456Y11122497D02*
X9952028Y11236783D01*
X9952028Y11236783D02*
X9952028Y11379640D01*
X9952028Y11379640D02*
X9923456Y11493925D01*
X9923456Y11493925D02*
X9894885Y11551068D01*
X9894885Y11551068D02*
X9866314Y11579640D01*
X9866314Y11579640D02*
X9809171Y11608211D01*
X9352027Y11008211D02*
X9352027Y11608211D01*
X9352027Y11608211D02*
X9152027Y11179640D01*
X9152027Y11179640D02*
X8952027Y11608211D01*
X8952027Y11608211D02*
X8952027Y11008211D01*
X8666313Y11008211D02*
X8666313Y11608211D01*
X8666313Y11608211D02*
X8466313Y11179640D01*
X8466313Y11179640D02*
X8266313Y11608211D01*
X8266313Y11608211D02*
X8266313Y11008211D01*
X7666314Y11008211D02*
X8009171Y11008211D01*
X7837742Y11008211D02*
X7837742Y11608211D01*
X7837742Y11608211D02*
X7894885Y11522497D01*
X7894885Y11522497D02*
X7952028Y11465354D01*
X7952028Y11465354D02*
X8009171Y11436783D01*
X7294885Y11608211D02*
X7237742Y11608211D01*
X7237742Y11608211D02*
X7180599Y11579640D01*
X7180599Y11579640D02*
X7152028Y11551068D01*
X7152028Y11551068D02*
X7123456Y11493925D01*
X7123456Y11493925D02*
X7094885Y11379640D01*
X7094885Y11379640D02*
X7094885Y11236783D01*
X7094885Y11236783D02*
X7123456Y11122497D01*
X7123456Y11122497D02*
X7152028Y11065354D01*
X7152028Y11065354D02*
X7180599Y11036783D01*
X7180599Y11036783D02*
X7237742Y11008211D01*
X7237742Y11008211D02*
X7294885Y11008211D01*
X7294885Y11008211D02*
X7352028Y11036783D01*
X7352028Y11036783D02*
X7380599Y11065354D01*
X7380599Y11065354D02*
X7409170Y11122497D01*
X7409170Y11122497D02*
X7437742Y11236783D01*
X7437742Y11236783D02*
X7437742Y11379640D01*
X7437742Y11379640D02*
X7409170Y11493925D01*
X7409170Y11493925D02*
X7380599Y11551068D01*
X7380599Y11551068D02*
X7352028Y11579640D01*
X7352028Y11579640D02*
X7294885Y11608211D01*
X6866313Y11036783D02*
X6780599Y11008211D01*
X6780599Y11008211D02*
X6637741Y11008211D01*
X6637741Y11008211D02*
X6580599Y11036783D01*
X6580599Y11036783D02*
X6552027Y11065354D01*
X6552027Y11065354D02*
X6523456Y11122497D01*
X6523456Y11122497D02*
X6523456Y11179640D01*
X6523456Y11179640D02*
X6552027Y11236783D01*
X6552027Y11236783D02*
X6580599Y11265354D01*
X6580599Y11265354D02*
X6637741Y11293925D01*
X6637741Y11293925D02*
X6752027Y11322497D01*
X6752027Y11322497D02*
X6809170Y11351068D01*
X6809170Y11351068D02*
X6837741Y11379640D01*
X6837741Y11379640D02*
X6866313Y11436783D01*
X6866313Y11436783D02*
X6866313Y11493925D01*
X6866313Y11493925D02*
X6837741Y11551068D01*
X6837741Y11551068D02*
X6809170Y11579640D01*
X6809170Y11579640D02*
X6752027Y11608211D01*
X6752027Y11608211D02*
X6609170Y11608211D01*
X6609170Y11608211D02*
X6523456Y11579640D01*
X10794886Y10642245D02*
X10594886Y10042245D01*
X10594886Y10042245D02*
X10394886Y10642245D01*
X9880600Y10042245D02*
X10223457Y10042245D01*
X10052028Y10042245D02*
X10052028Y10642245D01*
X10052028Y10642245D02*
X10109171Y10556531D01*
X10109171Y10556531D02*
X10166314Y10499388D01*
X10166314Y10499388D02*
X10223457Y10470817D01*
X9623456Y10099388D02*
X9594885Y10070817D01*
X9594885Y10070817D02*
X9623456Y10042245D01*
X9623456Y10042245D02*
X9652028Y10070817D01*
X9652028Y10070817D02*
X9623456Y10099388D01*
X9623456Y10099388D02*
X9623456Y10042245D01*
X9023457Y10042245D02*
X9366314Y10042245D01*
X9194885Y10042245D02*
X9194885Y10642245D01*
X9194885Y10642245D02*
X9252028Y10556531D01*
X9252028Y10556531D02*
X9309171Y10499388D01*
X9309171Y10499388D02*
X9366314Y10470817D01*
X14694886Y8847708D02*
X14723457Y8876279D01*
X14723457Y8876279D02*
X14780600Y8961993D01*
X14780600Y8961993D02*
X14809172Y9019136D01*
X14809172Y9019136D02*
X14837743Y9104851D01*
X14837743Y9104851D02*
X14866314Y9247708D01*
X14866314Y9247708D02*
X14866314Y9361993D01*
X14866314Y9361993D02*
X14837743Y9504851D01*
X14837743Y9504851D02*
X14809172Y9590565D01*
X14809172Y9590565D02*
X14780600Y9647708D01*
X14780600Y9647708D02*
X14723457Y9733422D01*
X14723457Y9733422D02*
X14694886Y9761993D01*
X14123457Y9133422D02*
X14152029Y9104851D01*
X14152029Y9104851D02*
X14237743Y9076279D01*
X14237743Y9076279D02*
X14294886Y9076279D01*
X14294886Y9076279D02*
X14380600Y9104851D01*
X14380600Y9104851D02*
X14437743Y9161993D01*
X14437743Y9161993D02*
X14466314Y9219136D01*
X14466314Y9219136D02*
X14494886Y9333422D01*
X14494886Y9333422D02*
X14494886Y9419136D01*
X14494886Y9419136D02*
X14466314Y9533422D01*
X14466314Y9533422D02*
X14437743Y9590565D01*
X14437743Y9590565D02*
X14380600Y9647708D01*
X14380600Y9647708D02*
X14294886Y9676279D01*
X14294886Y9676279D02*
X14237743Y9676279D01*
X14237743Y9676279D02*
X14152029Y9647708D01*
X14152029Y9647708D02*
X14123457Y9619136D01*
X13923457Y8847708D02*
X13894886Y8876279D01*
X13894886Y8876279D02*
X13837743Y8961993D01*
X13837743Y8961993D02*
X13809172Y9019136D01*
X13809172Y9019136D02*
X13780600Y9104851D01*
X13780600Y9104851D02*
X13752029Y9247708D01*
X13752029Y9247708D02*
X13752029Y9361993D01*
X13752029Y9361993D02*
X13780600Y9504851D01*
X13780600Y9504851D02*
X13809172Y9590565D01*
X13809172Y9590565D02*
X13837743Y9647708D01*
X13837743Y9647708D02*
X13894886Y9733422D01*
X13894886Y9733422D02*
X13923457Y9761993D01*
X12809171Y9390565D02*
X13009171Y9390565D01*
X13009171Y9076279D02*
X13009171Y9676279D01*
X13009171Y9676279D02*
X12723457Y9676279D01*
X12494885Y9676279D02*
X12494885Y9190565D01*
X12494885Y9190565D02*
X12466314Y9133422D01*
X12466314Y9133422D02*
X12437743Y9104851D01*
X12437743Y9104851D02*
X12380600Y9076279D01*
X12380600Y9076279D02*
X12266314Y9076279D01*
X12266314Y9076279D02*
X12209171Y9104851D01*
X12209171Y9104851D02*
X12180600Y9133422D01*
X12180600Y9133422D02*
X12152028Y9190565D01*
X12152028Y9190565D02*
X12152028Y9676279D01*
X11866314Y9390565D02*
X11666314Y9390565D01*
X11580600Y9076279D02*
X11866314Y9076279D01*
X11866314Y9076279D02*
X11866314Y9676279D01*
X11866314Y9676279D02*
X11580600Y9676279D01*
X11037743Y9076279D02*
X11323457Y9076279D01*
X11323457Y9076279D02*
X11323457Y9676279D01*
X10580601Y9476279D02*
X10580601Y9076279D01*
X10723458Y9704851D02*
X10866315Y9276279D01*
X10866315Y9276279D02*
X10494886Y9276279D01*
X10266314Y9390565D02*
X10066314Y9390565D01*
X9980600Y9076279D02*
X10266314Y9076279D01*
X10266314Y9076279D02*
X10266314Y9676279D01*
X10266314Y9676279D02*
X9980600Y9676279D01*
X9723457Y9076279D02*
X9723457Y9676279D01*
X9723457Y9676279D02*
X9494886Y9676279D01*
X9494886Y9676279D02*
X9437743Y9647708D01*
X9437743Y9647708D02*
X9409172Y9619136D01*
X9409172Y9619136D02*
X9380600Y9561993D01*
X9380600Y9561993D02*
X9380600Y9476279D01*
X9380600Y9476279D02*
X9409172Y9419136D01*
X9409172Y9419136D02*
X9437743Y9390565D01*
X9437743Y9390565D02*
X9494886Y9361993D01*
X9494886Y9361993D02*
X9723457Y9361993D01*
X8552029Y9676279D02*
X8494886Y9676279D01*
X8494886Y9676279D02*
X8437743Y9647708D01*
X8437743Y9647708D02*
X8409172Y9619136D01*
X8409172Y9619136D02*
X8380600Y9561993D01*
X8380600Y9561993D02*
X8352029Y9447708D01*
X8352029Y9447708D02*
X8352029Y9304851D01*
X8352029Y9304851D02*
X8380600Y9190565D01*
X8380600Y9190565D02*
X8409172Y9133422D01*
X8409172Y9133422D02*
X8437743Y9104851D01*
X8437743Y9104851D02*
X8494886Y9076279D01*
X8494886Y9076279D02*
X8552029Y9076279D01*
X8552029Y9076279D02*
X8609172Y9104851D01*
X8609172Y9104851D02*
X8637743Y9133422D01*
X8637743Y9133422D02*
X8666314Y9190565D01*
X8666314Y9190565D02*
X8694886Y9304851D01*
X8694886Y9304851D02*
X8694886Y9447708D01*
X8694886Y9447708D02*
X8666314Y9561993D01*
X8666314Y9561993D02*
X8637743Y9619136D01*
X8637743Y9619136D02*
X8609172Y9647708D01*
X8609172Y9647708D02*
X8552029Y9676279D01*
X8066314Y9076279D02*
X7952028Y9076279D01*
X7952028Y9076279D02*
X7894885Y9104851D01*
X7894885Y9104851D02*
X7866314Y9133422D01*
X7866314Y9133422D02*
X7809171Y9219136D01*
X7809171Y9219136D02*
X7780600Y9333422D01*
X7780600Y9333422D02*
X7780600Y9561993D01*
X7780600Y9561993D02*
X7809171Y9619136D01*
X7809171Y9619136D02*
X7837743Y9647708D01*
X7837743Y9647708D02*
X7894885Y9676279D01*
X7894885Y9676279D02*
X8009171Y9676279D01*
X8009171Y9676279D02*
X8066314Y9647708D01*
X8066314Y9647708D02*
X8094885Y9619136D01*
X8094885Y9619136D02*
X8123457Y9561993D01*
X8123457Y9561993D02*
X8123457Y9419136D01*
X8123457Y9419136D02*
X8094885Y9361993D01*
X8094885Y9361993D02*
X8066314Y9333422D01*
X8066314Y9333422D02*
X8009171Y9304851D01*
X8009171Y9304851D02*
X7894885Y9304851D01*
X7894885Y9304851D02*
X7837743Y9333422D01*
X7837743Y9333422D02*
X7809171Y9361993D01*
X7809171Y9361993D02*
X7780600Y9419136D01*
X7094885Y9704851D02*
X7609171Y8933422D01*
X6923457Y9619136D02*
X6894885Y9647708D01*
X6894885Y9647708D02*
X6837743Y9676279D01*
X6837743Y9676279D02*
X6694885Y9676279D01*
X6694885Y9676279D02*
X6637743Y9647708D01*
X6637743Y9647708D02*
X6609171Y9619136D01*
X6609171Y9619136D02*
X6580600Y9561993D01*
X6580600Y9561993D02*
X6580600Y9504851D01*
X6580600Y9504851D02*
X6609171Y9419136D01*
X6609171Y9419136D02*
X6952028Y9076279D01*
X6952028Y9076279D02*
X6580600Y9076279D01*
X6209171Y9676279D02*
X6152028Y9676279D01*
X6152028Y9676279D02*
X6094885Y9647708D01*
X6094885Y9647708D02*
X6066314Y9619136D01*
X6066314Y9619136D02*
X6037742Y9561993D01*
X6037742Y9561993D02*
X6009171Y9447708D01*
X6009171Y9447708D02*
X6009171Y9304851D01*
X6009171Y9304851D02*
X6037742Y9190565D01*
X6037742Y9190565D02*
X6066314Y9133422D01*
X6066314Y9133422D02*
X6094885Y9104851D01*
X6094885Y9104851D02*
X6152028Y9076279D01*
X6152028Y9076279D02*
X6209171Y9076279D01*
X6209171Y9076279D02*
X6266314Y9104851D01*
X6266314Y9104851D02*
X6294885Y9133422D01*
X6294885Y9133422D02*
X6323456Y9190565D01*
X6323456Y9190565D02*
X6352028Y9304851D01*
X6352028Y9304851D02*
X6352028Y9447708D01*
X6352028Y9447708D02*
X6323456Y9561993D01*
X6323456Y9561993D02*
X6294885Y9619136D01*
X6294885Y9619136D02*
X6266314Y9647708D01*
X6266314Y9647708D02*
X6209171Y9676279D01*
X5780599Y9619136D02*
X5752027Y9647708D01*
X5752027Y9647708D02*
X5694885Y9676279D01*
X5694885Y9676279D02*
X5552027Y9676279D01*
X5552027Y9676279D02*
X5494885Y9647708D01*
X5494885Y9647708D02*
X5466313Y9619136D01*
X5466313Y9619136D02*
X5437742Y9561993D01*
X5437742Y9561993D02*
X5437742Y9504851D01*
X5437742Y9504851D02*
X5466313Y9419136D01*
X5466313Y9419136D02*
X5809170Y9076279D01*
X5809170Y9076279D02*
X5437742Y9076279D01*
X4923456Y9476279D02*
X4923456Y9076279D01*
X5066313Y9704851D02*
X5209170Y9276279D01*
X5209170Y9276279D02*
X4837741Y9276279D01*
D11*
X14511574Y7893304D02*
X14511574Y7321876D01*
X14511574Y7321876D02*
X14549669Y7207590D01*
X14549669Y7207590D02*
X14625860Y7131400D01*
X14625860Y7131400D02*
X14740145Y7093304D01*
X14740145Y7093304D02*
X14816336Y7093304D01*
X13749669Y7093304D02*
X14130621Y7093304D01*
X14130621Y7093304D02*
X14130621Y7893304D01*
X13025859Y7169495D02*
X13063955Y7131400D01*
X13063955Y7131400D02*
X13178240Y7093304D01*
X13178240Y7093304D02*
X13254431Y7093304D01*
X13254431Y7093304D02*
X13368717Y7131400D01*
X13368717Y7131400D02*
X13444907Y7207590D01*
X13444907Y7207590D02*
X13483002Y7283780D01*
X13483002Y7283780D02*
X13521098Y7436161D01*
X13521098Y7436161D02*
X13521098Y7550447D01*
X13521098Y7550447D02*
X13483002Y7702828D01*
X13483002Y7702828D02*
X13444907Y7779019D01*
X13444907Y7779019D02*
X13368717Y7855209D01*
X13368717Y7855209D02*
X13254431Y7893304D01*
X13254431Y7893304D02*
X13178240Y7893304D01*
X13178240Y7893304D02*
X13063955Y7855209D01*
X13063955Y7855209D02*
X13025859Y7817114D01*
X12454431Y7893304D02*
X12454431Y7321876D01*
X12454431Y7321876D02*
X12492526Y7207590D01*
X12492526Y7207590D02*
X12568717Y7131400D01*
X12568717Y7131400D02*
X12683002Y7093304D01*
X12683002Y7093304D02*
X12759193Y7093304D01*
X11692526Y7093304D02*
X12073478Y7093304D01*
X12073478Y7093304D02*
X12073478Y7893304D01*
X10968716Y7169495D02*
X11006812Y7131400D01*
X11006812Y7131400D02*
X11121097Y7093304D01*
X11121097Y7093304D02*
X11197288Y7093304D01*
X11197288Y7093304D02*
X11311574Y7131400D01*
X11311574Y7131400D02*
X11387764Y7207590D01*
X11387764Y7207590D02*
X11425859Y7283780D01*
X11425859Y7283780D02*
X11463955Y7436161D01*
X11463955Y7436161D02*
X11463955Y7550447D01*
X11463955Y7550447D02*
X11425859Y7702828D01*
X11425859Y7702828D02*
X11387764Y7779019D01*
X11387764Y7779019D02*
X11311574Y7855209D01*
X11311574Y7855209D02*
X11197288Y7893304D01*
X11197288Y7893304D02*
X11121097Y7893304D01*
X11121097Y7893304D02*
X11006812Y7855209D01*
X11006812Y7855209D02*
X10968716Y7817114D01*
X10397288Y7893304D02*
X10397288Y7321876D01*
X10397288Y7321876D02*
X10435383Y7207590D01*
X10435383Y7207590D02*
X10511574Y7131400D01*
X10511574Y7131400D02*
X10625859Y7093304D01*
X10625859Y7093304D02*
X10702050Y7093304D01*
X9635383Y7093304D02*
X10016335Y7093304D01*
X10016335Y7093304D02*
X10016335Y7893304D01*
X8911573Y7169495D02*
X8949669Y7131400D01*
X8949669Y7131400D02*
X9063954Y7093304D01*
X9063954Y7093304D02*
X9140145Y7093304D01*
X9140145Y7093304D02*
X9254431Y7131400D01*
X9254431Y7131400D02*
X9330621Y7207590D01*
X9330621Y7207590D02*
X9368716Y7283780D01*
X9368716Y7283780D02*
X9406812Y7436161D01*
X9406812Y7436161D02*
X9406812Y7550447D01*
X9406812Y7550447D02*
X9368716Y7702828D01*
X9368716Y7702828D02*
X9330621Y7779019D01*
X9330621Y7779019D02*
X9254431Y7855209D01*
X9254431Y7855209D02*
X9140145Y7893304D01*
X9140145Y7893304D02*
X9063954Y7893304D01*
X9063954Y7893304D02*
X8949669Y7855209D01*
X8949669Y7855209D02*
X8911573Y7817114D01*
X8340145Y7893304D02*
X8340145Y7321876D01*
X8340145Y7321876D02*
X8378240Y7207590D01*
X8378240Y7207590D02*
X8454431Y7131400D01*
X8454431Y7131400D02*
X8568716Y7093304D01*
X8568716Y7093304D02*
X8644907Y7093304D01*
X7578240Y7093304D02*
X7959192Y7093304D01*
X7959192Y7093304D02*
X7959192Y7893304D01*
X6854430Y7169495D02*
X6892526Y7131400D01*
X6892526Y7131400D02*
X7006811Y7093304D01*
X7006811Y7093304D02*
X7083002Y7093304D01*
X7083002Y7093304D02*
X7197288Y7131400D01*
X7197288Y7131400D02*
X7273478Y7207590D01*
X7273478Y7207590D02*
X7311573Y7283780D01*
X7311573Y7283780D02*
X7349669Y7436161D01*
X7349669Y7436161D02*
X7349669Y7550447D01*
X7349669Y7550447D02*
X7311573Y7702828D01*
X7311573Y7702828D02*
X7273478Y7779019D01*
X7273478Y7779019D02*
X7197288Y7855209D01*
X7197288Y7855209D02*
X7083002Y7893304D01*
X7083002Y7893304D02*
X7006811Y7893304D01*
X7006811Y7893304D02*
X6892526Y7855209D01*
X6892526Y7855209D02*
X6854430Y7817114D01*
D12*
%TO.C,LOGO1*%
X11397374Y3603444D02*
X11417066Y3598475D01*
X11482936Y3565622D01*
X11525196Y3511837D01*
X11546264Y3432936D01*
X11549743Y3368915D01*
X11547925Y3302092D01*
X11539876Y3258782D01*
X11521701Y3226289D01*
X11498044Y3200339D01*
X11427879Y3153075D01*
X11344421Y3131290D01*
X11258429Y3135194D01*
X11180666Y3164999D01*
X11144433Y3193372D01*
X11102085Y3258939D01*
X11083520Y3339413D01*
X11088025Y3423891D01*
X11114887Y3501467D01*
X11163394Y3561236D01*
X11168755Y3565339D01*
X11234056Y3595428D01*
X11315863Y3608877D01*
X11397374Y3603444D01*
G36*
X11397374Y3603444D02*
G01*
X11417066Y3598475D01*
X11482936Y3565622D01*
X11525196Y3511837D01*
X11546264Y3432936D01*
X11549743Y3368915D01*
X11547925Y3302092D01*
X11539876Y3258782D01*
X11521701Y3226289D01*
X11498044Y3200339D01*
X11427879Y3153075D01*
X11344421Y3131290D01*
X11258429Y3135194D01*
X11180666Y3164999D01*
X11144433Y3193372D01*
X11102085Y3258939D01*
X11083520Y3339413D01*
X11088025Y3423891D01*
X11114887Y3501467D01*
X11163394Y3561236D01*
X11168755Y3565339D01*
X11234056Y3595428D01*
X11315863Y3608877D01*
X11397374Y3603444D01*
G37*
X11586029Y4506686D02*
X11785600Y4506686D01*
X11785600Y4137569D01*
X11785341Y4011706D01*
X11784288Y3917127D01*
X11782023Y3848834D01*
X11778133Y3801829D01*
X11772202Y3771111D01*
X11763813Y3751683D01*
X11752552Y3738544D01*
X11752422Y3738426D01*
X11737359Y3728471D01*
X11713954Y3720949D01*
X11677490Y3715532D01*
X11623252Y3711895D01*
X11546521Y3709712D01*
X11442583Y3708656D01*
X11318289Y3708400D01*
X11184375Y3708735D01*
X11082161Y3709942D01*
X11007067Y3712325D01*
X10954511Y3716189D01*
X10919915Y3721837D01*
X10898696Y3729574D01*
X10888825Y3736910D01*
X10878973Y3751694D01*
X10871620Y3776800D01*
X10866426Y3817004D01*
X10863049Y3877081D01*
X10861147Y3961807D01*
X10860380Y4075959D01*
X10860315Y4136053D01*
X10860315Y4506686D01*
X11059886Y4506686D01*
X11059886Y5341257D01*
X11586029Y5341257D01*
X11586029Y4506686D01*
G36*
X11586029Y4506686D02*
G01*
X11785600Y4506686D01*
X11785600Y4137569D01*
X11785341Y4011706D01*
X11784288Y3917127D01*
X11782023Y3848834D01*
X11778133Y3801829D01*
X11772202Y3771111D01*
X11763813Y3751683D01*
X11752552Y3738544D01*
X11752422Y3738426D01*
X11737359Y3728471D01*
X11713954Y3720949D01*
X11677490Y3715532D01*
X11623252Y3711895D01*
X11546521Y3709712D01*
X11442583Y3708656D01*
X11318289Y3708400D01*
X11184375Y3708735D01*
X11082161Y3709942D01*
X11007067Y3712325D01*
X10954511Y3716189D01*
X10919915Y3721837D01*
X10898696Y3729574D01*
X10888825Y3736910D01*
X10878973Y3751694D01*
X10871620Y3776800D01*
X10866426Y3817004D01*
X10863049Y3877081D01*
X10861147Y3961807D01*
X10860380Y4075959D01*
X10860315Y4136053D01*
X10860315Y4506686D01*
X11059886Y4506686D01*
X11059886Y5341257D01*
X11586029Y5341257D01*
X11586029Y4506686D01*
G37*
X15562644Y4751065D02*
X15604672Y4744899D01*
X15717829Y4697418D01*
X15815783Y4621086D01*
X15891317Y4522446D01*
X15922288Y4456852D01*
X15951980Y4334326D01*
X15957653Y4199903D01*
X15939348Y4068853D01*
X15921155Y4009205D01*
X15873497Y3920358D01*
X15803531Y3837720D01*
X15721205Y3771038D01*
X15636467Y3730059D01*
X15636164Y3729968D01*
X15549451Y3713894D01*
X15446468Y3709315D01*
X15343553Y3715961D01*
X15257046Y3733561D01*
X15248631Y3736365D01*
X15200135Y3760433D01*
X15144431Y3798197D01*
X15090008Y3842457D01*
X15045351Y3886010D01*
X15018948Y3921654D01*
X15015244Y3934427D01*
X15030120Y3952074D01*
X15068901Y3980124D01*
X15122852Y4012312D01*
X15230245Y4071296D01*
X15268691Y4017303D01*
X15328435Y3962317D01*
X15403600Y3936161D01*
X15484381Y3941580D01*
X15508883Y3950039D01*
X15571688Y3988086D01*
X15613401Y4044123D01*
X15637660Y4124457D01*
X15645320Y4186565D01*
X15644708Y4302567D01*
X15621207Y4393482D01*
X15573601Y4463326D01*
X15556711Y4478878D01*
X15491222Y4514508D01*
X15416513Y4525761D01*
X15343184Y4513938D01*
X15281834Y4480342D01*
X15249813Y4441182D01*
X15228324Y4411072D01*
X15201487Y4400765D01*
X15161718Y4410642D01*
X15101433Y4441086D01*
X15086704Y4449415D01*
X14996380Y4501002D01*
X15071414Y4586245D01*
X15158571Y4669243D01*
X15251014Y4721628D01*
X15359162Y4748357D01*
X15423243Y4753688D01*
X15496405Y4754434D01*
X15562644Y4751065D01*
G36*
X15562644Y4751065D02*
G01*
X15604672Y4744899D01*
X15717829Y4697418D01*
X15815783Y4621086D01*
X15891317Y4522446D01*
X15922288Y4456852D01*
X15951980Y4334326D01*
X15957653Y4199903D01*
X15939348Y4068853D01*
X15921155Y4009205D01*
X15873497Y3920358D01*
X15803531Y3837720D01*
X15721205Y3771038D01*
X15636467Y3730059D01*
X15636164Y3729968D01*
X15549451Y3713894D01*
X15446468Y3709315D01*
X15343553Y3715961D01*
X15257046Y3733561D01*
X15248631Y3736365D01*
X15200135Y3760433D01*
X15144431Y3798197D01*
X15090008Y3842457D01*
X15045351Y3886010D01*
X15018948Y3921654D01*
X15015244Y3934427D01*
X15030120Y3952074D01*
X15068901Y3980124D01*
X15122852Y4012312D01*
X15230245Y4071296D01*
X15268691Y4017303D01*
X15328435Y3962317D01*
X15403600Y3936161D01*
X15484381Y3941580D01*
X15508883Y3950039D01*
X15571688Y3988086D01*
X15613401Y4044123D01*
X15637660Y4124457D01*
X15645320Y4186565D01*
X15644708Y4302567D01*
X15621207Y4393482D01*
X15573601Y4463326D01*
X15556711Y4478878D01*
X15491222Y4514508D01*
X15416513Y4525761D01*
X15343184Y4513938D01*
X15281834Y4480342D01*
X15249813Y4441182D01*
X15228324Y4411072D01*
X15201487Y4400765D01*
X15161718Y4410642D01*
X15101433Y4441086D01*
X15086704Y4449415D01*
X14996380Y4501002D01*
X15071414Y4586245D01*
X15158571Y4669243D01*
X15251014Y4721628D01*
X15359162Y4748357D01*
X15423243Y4753688D01*
X15496405Y4754434D01*
X15562644Y4751065D01*
G37*
X14566330Y4752433D02*
X14652172Y4733893D01*
X14762140Y4679684D01*
X14853245Y4595330D01*
X14917978Y4493649D01*
X14943870Y4435317D01*
X14959145Y4382376D01*
X14966434Y4321203D01*
X14968372Y4238176D01*
X14968376Y4232934D01*
X14966855Y4150201D01*
X14960452Y4090221D01*
X14946406Y4039527D01*
X14921954Y3984647D01*
X14914407Y3969701D01*
X14843996Y3865619D01*
X14753468Y3784183D01*
X14649923Y3731476D01*
X14628730Y3725040D01*
X14532770Y3710114D01*
X14424738Y3710604D01*
X14318150Y3725154D01*
X14226524Y3752407D01*
X14193269Y3768749D01*
X14138715Y3806577D01*
X14088588Y3851234D01*
X14049681Y3895307D01*
X14028784Y3931381D01*
X14028765Y3948337D01*
X14048731Y3963741D01*
X14091601Y3989070D01*
X14140958Y4015170D01*
X14243957Y4067129D01*
X14277376Y4022747D01*
X14317414Y3984034D01*
X14368936Y3950673D01*
X14371997Y3949179D01*
X14447099Y3931770D01*
X14522694Y3945113D01*
X14587466Y3985868D01*
X14615865Y4021156D01*
X14651804Y4108961D01*
X14665191Y4208952D01*
X14656894Y4310332D01*
X14627782Y4402302D01*
X14579525Y4473267D01*
X14541000Y4505369D01*
X14499568Y4520681D01*
X14439333Y4524813D01*
X14433460Y4524829D01*
X14373627Y4521964D01*
X14333113Y4508648D01*
X14295106Y4477800D01*
X14276666Y4458782D01*
X14214376Y4392735D01*
X14123654Y4435226D01*
X14071790Y4461296D01*
X14034868Y4483165D01*
X14023783Y4492524D01*
X14027381Y4518189D01*
X14054032Y4557655D01*
X14097053Y4603928D01*
X14149761Y4650016D01*
X14205472Y4688924D01*
X14218726Y4696514D01*
X14323646Y4736578D01*
X14444388Y4755638D01*
X14566330Y4752433D01*
G36*
X14566330Y4752433D02*
G01*
X14652172Y4733893D01*
X14762140Y4679684D01*
X14853245Y4595330D01*
X14917978Y4493649D01*
X14943870Y4435317D01*
X14959145Y4382376D01*
X14966434Y4321203D01*
X14968372Y4238176D01*
X14968376Y4232934D01*
X14966855Y4150201D01*
X14960452Y4090221D01*
X14946406Y4039527D01*
X14921954Y3984647D01*
X14914407Y3969701D01*
X14843996Y3865619D01*
X14753468Y3784183D01*
X14649923Y3731476D01*
X14628730Y3725040D01*
X14532770Y3710114D01*
X14424738Y3710604D01*
X14318150Y3725154D01*
X14226524Y3752407D01*
X14193269Y3768749D01*
X14138715Y3806577D01*
X14088588Y3851234D01*
X14049681Y3895307D01*
X14028784Y3931381D01*
X14028765Y3948337D01*
X14048731Y3963741D01*
X14091601Y3989070D01*
X14140958Y4015170D01*
X14243957Y4067129D01*
X14277376Y4022747D01*
X14317414Y3984034D01*
X14368936Y3950673D01*
X14371997Y3949179D01*
X14447099Y3931770D01*
X14522694Y3945113D01*
X14587466Y3985868D01*
X14615865Y4021156D01*
X14651804Y4108961D01*
X14665191Y4208952D01*
X14656894Y4310332D01*
X14627782Y4402302D01*
X14579525Y4473267D01*
X14541000Y4505369D01*
X14499568Y4520681D01*
X14439333Y4524813D01*
X14433460Y4524829D01*
X14373627Y4521964D01*
X14333113Y4508648D01*
X14295106Y4477800D01*
X14276666Y4458782D01*
X14214376Y4392735D01*
X14123654Y4435226D01*
X14071790Y4461296D01*
X14034868Y4483165D01*
X14023783Y4492524D01*
X14027381Y4518189D01*
X14054032Y4557655D01*
X14097053Y4603928D01*
X14149761Y4650016D01*
X14205472Y4688924D01*
X14218726Y4696514D01*
X14323646Y4736578D01*
X14444388Y4755638D01*
X14566330Y4752433D01*
G37*
X4086372Y5163707D02*
X4135885Y5157812D01*
X4289137Y5118154D01*
X4427440Y5047564D01*
X4546839Y4949694D01*
X4643377Y4828192D01*
X4713096Y4686708D01*
X4738520Y4601936D01*
X4761042Y4506686D01*
X4333194Y4506686D01*
X4313169Y4586210D01*
X4278228Y4662570D01*
X4219333Y4731018D01*
X4147627Y4779950D01*
X4115375Y4792173D01*
X4069993Y4799724D01*
X4004999Y4804632D01*
X3955170Y4805737D01*
X3846539Y4791345D01*
X3755944Y4747385D01*
X3679868Y4671688D01*
X3640886Y4612172D01*
X3593357Y4502279D01*
X3564708Y4377805D01*
X3554367Y4246310D01*
X3561763Y4115352D01*
X3586324Y3992491D01*
X3627479Y3885285D01*
X3684654Y3801295D01*
X3703613Y3782829D01*
X3793117Y3727196D01*
X3899275Y3698251D01*
X4013230Y3696874D01*
X4126128Y3723948D01*
X4158138Y3737594D01*
X4218882Y3781148D01*
X4271953Y3844585D01*
X4306874Y3914029D01*
X4313920Y3943879D01*
X4311473Y3978202D01*
X4285504Y3994675D01*
X4269369Y3998308D01*
X4249616Y4003149D01*
X4241182Y4011416D01*
X4246934Y4027468D01*
X4269741Y4055662D01*
X4312469Y4100359D01*
X4377986Y4165916D01*
X4382762Y4170665D01*
X4546600Y4333572D01*
X4710480Y4170665D01*
X4874361Y4007757D01*
X4814802Y3998686D01*
X4776450Y3988569D01*
X4753136Y3966103D01*
X4735078Y3920667D01*
X4731261Y3907971D01*
X4667612Y3741092D01*
X4582987Y3603530D01*
X4476654Y3494490D01*
X4347881Y3413177D01*
X4236286Y3369955D01*
X4128279Y3348637D01*
X4000836Y3341181D01*
X3867937Y3347308D01*
X3743564Y3366743D01*
X3690756Y3380792D01*
X3541237Y3446006D01*
X3410143Y3540563D01*
X3300083Y3661148D01*
X3213663Y3804448D01*
X3153491Y3967149D01*
X3127603Y4096532D01*
X3116967Y4291057D01*
X3137929Y4473956D01*
X3189770Y4642275D01*
X3271773Y4793058D01*
X3308818Y4842824D01*
X3432495Y4968547D01*
X3575619Y5064840D01*
X3734660Y5130361D01*
X3906088Y5163765D01*
X4086372Y5163707D01*
G36*
X4086372Y5163707D02*
G01*
X4135885Y5157812D01*
X4289137Y5118154D01*
X4427440Y5047564D01*
X4546839Y4949694D01*
X4643377Y4828192D01*
X4713096Y4686708D01*
X4738520Y4601936D01*
X4761042Y4506686D01*
X4333194Y4506686D01*
X4313169Y4586210D01*
X4278228Y4662570D01*
X4219333Y4731018D01*
X4147627Y4779950D01*
X4115375Y4792173D01*
X4069993Y4799724D01*
X4004999Y4804632D01*
X3955170Y4805737D01*
X3846539Y4791345D01*
X3755944Y4747385D01*
X3679868Y4671688D01*
X3640886Y4612172D01*
X3593357Y4502279D01*
X3564708Y4377805D01*
X3554367Y4246310D01*
X3561763Y4115352D01*
X3586324Y3992491D01*
X3627479Y3885285D01*
X3684654Y3801295D01*
X3703613Y3782829D01*
X3793117Y3727196D01*
X3899275Y3698251D01*
X4013230Y3696874D01*
X4126128Y3723948D01*
X4158138Y3737594D01*
X4218882Y3781148D01*
X4271953Y3844585D01*
X4306874Y3914029D01*
X4313920Y3943879D01*
X4311473Y3978202D01*
X4285504Y3994675D01*
X4269369Y3998308D01*
X4249616Y4003149D01*
X4241182Y4011416D01*
X4246934Y4027468D01*
X4269741Y4055662D01*
X4312469Y4100359D01*
X4377986Y4165916D01*
X4382762Y4170665D01*
X4546600Y4333572D01*
X4710480Y4170665D01*
X4874361Y4007757D01*
X4814802Y3998686D01*
X4776450Y3988569D01*
X4753136Y3966103D01*
X4735078Y3920667D01*
X4731261Y3907971D01*
X4667612Y3741092D01*
X4582987Y3603530D01*
X4476654Y3494490D01*
X4347881Y3413177D01*
X4236286Y3369955D01*
X4128279Y3348637D01*
X4000836Y3341181D01*
X3867937Y3347308D01*
X3743564Y3366743D01*
X3690756Y3380792D01*
X3541237Y3446006D01*
X3410143Y3540563D01*
X3300083Y3661148D01*
X3213663Y3804448D01*
X3153491Y3967149D01*
X3127603Y4096532D01*
X3116967Y4291057D01*
X3137929Y4473956D01*
X3189770Y4642275D01*
X3271773Y4793058D01*
X3308818Y4842824D01*
X3432495Y4968547D01*
X3575619Y5064840D01*
X3734660Y5130361D01*
X3906088Y5163765D01*
X4086372Y5163707D01*
G37*
X16686417Y4085077D02*
X16650076Y3851659D01*
X16580459Y3625679D01*
X16569952Y3599543D01*
X16460316Y3378988D01*
X16322452Y3177359D01*
X16159513Y2997673D01*
X15974654Y2842949D01*
X15771027Y2716204D01*
X15551787Y2620455D01*
X15543905Y2617714D01*
X15350216Y2566502D01*
X15139443Y2538171D01*
X14922213Y2532861D01*
X14709148Y2550712D01*
X14510875Y2591862D01*
X14471653Y2603623D01*
X14248000Y2692888D01*
X14039251Y2812144D01*
X13849134Y2958076D01*
X13681376Y3127369D01*
X13539704Y3316708D01*
X13427845Y3522776D01*
X13421031Y3538194D01*
X13343710Y3758158D01*
X13297139Y3988075D01*
X13286160Y4146753D01*
X13590608Y4146753D01*
X13621561Y3930711D01*
X13664346Y3778148D01*
X13737573Y3604224D01*
X13835839Y3443829D01*
X13963867Y3289687D01*
X14015751Y3236686D01*
X14183996Y3093397D01*
X14364955Y2983205D01*
X14561137Y2904996D01*
X14775049Y2857657D01*
X14900047Y2844454D01*
X15123540Y2846518D01*
X15338753Y2883344D01*
X15543054Y2953950D01*
X15733808Y3057351D01*
X15908382Y3192566D01*
X15956706Y3238688D01*
X16105697Y3411334D01*
X16222955Y3597535D01*
X16308264Y3794044D01*
X16361409Y3997612D01*
X16382172Y4204993D01*
X16370338Y4412938D01*
X16325692Y4618199D01*
X16248016Y4817529D01*
X16137096Y5007680D01*
X16079525Y5085310D01*
X15932903Y5242009D01*
X15761235Y5376842D01*
X15571270Y5485428D01*
X15369760Y5563381D01*
X15323457Y5576267D01*
X15178830Y5602372D01*
X15016596Y5613101D01*
X14851547Y5608464D01*
X14698476Y5588473D01*
X14642181Y5575729D01*
X14489049Y5523858D01*
X14329659Y5449236D01*
X14178085Y5359165D01*
X14068407Y5277997D01*
X13914784Y5127664D01*
X13789424Y4957098D01*
X13693325Y4770011D01*
X13627490Y4570116D01*
X13592917Y4361126D01*
X13590608Y4146753D01*
X13286160Y4146753D01*
X13280901Y4222756D01*
X13294582Y4457011D01*
X13337768Y4685651D01*
X13410042Y4903486D01*
X13510990Y5105327D01*
X13551442Y5168900D01*
X13699118Y5356899D01*
X13870638Y5521448D01*
X14062085Y5660916D01*
X14269541Y5773673D01*
X14489092Y5858087D01*
X14716819Y5912528D01*
X14948807Y5935363D01*
X15181139Y5924963D01*
X15314386Y5903084D01*
X15560783Y5833714D01*
X15788350Y5733371D01*
X15996453Y5602471D01*
X16184453Y5441430D01*
X16351713Y5250664D01*
X16387383Y5202347D01*
X16509538Y5000907D01*
X16601044Y4783848D01*
X16661376Y4555783D01*
X16690009Y4321323D01*
X16688241Y4204993D01*
X16686417Y4085077D01*
G36*
X16686417Y4085077D02*
G01*
X16650076Y3851659D01*
X16580459Y3625679D01*
X16569952Y3599543D01*
X16460316Y3378988D01*
X16322452Y3177359D01*
X16159513Y2997673D01*
X15974654Y2842949D01*
X15771027Y2716204D01*
X15551787Y2620455D01*
X15543905Y2617714D01*
X15350216Y2566502D01*
X15139443Y2538171D01*
X14922213Y2532861D01*
X14709148Y2550712D01*
X14510875Y2591862D01*
X14471653Y2603623D01*
X14248000Y2692888D01*
X14039251Y2812144D01*
X13849134Y2958076D01*
X13681376Y3127369D01*
X13539704Y3316708D01*
X13427845Y3522776D01*
X13421031Y3538194D01*
X13343710Y3758158D01*
X13297139Y3988075D01*
X13286160Y4146753D01*
X13590608Y4146753D01*
X13621561Y3930711D01*
X13664346Y3778148D01*
X13737573Y3604224D01*
X13835839Y3443829D01*
X13963867Y3289687D01*
X14015751Y3236686D01*
X14183996Y3093397D01*
X14364955Y2983205D01*
X14561137Y2904996D01*
X14775049Y2857657D01*
X14900047Y2844454D01*
X15123540Y2846518D01*
X15338753Y2883344D01*
X15543054Y2953950D01*
X15733808Y3057351D01*
X15908382Y3192566D01*
X15956706Y3238688D01*
X16105697Y3411334D01*
X16222955Y3597535D01*
X16308264Y3794044D01*
X16361409Y3997612D01*
X16382172Y4204993D01*
X16370338Y4412938D01*
X16325692Y4618199D01*
X16248016Y4817529D01*
X16137096Y5007680D01*
X16079525Y5085310D01*
X15932903Y5242009D01*
X15761235Y5376842D01*
X15571270Y5485428D01*
X15369760Y5563381D01*
X15323457Y5576267D01*
X15178830Y5602372D01*
X15016596Y5613101D01*
X14851547Y5608464D01*
X14698476Y5588473D01*
X14642181Y5575729D01*
X14489049Y5523858D01*
X14329659Y5449236D01*
X14178085Y5359165D01*
X14068407Y5277997D01*
X13914784Y5127664D01*
X13789424Y4957098D01*
X13693325Y4770011D01*
X13627490Y4570116D01*
X13592917Y4361126D01*
X13590608Y4146753D01*
X13286160Y4146753D01*
X13280901Y4222756D01*
X13294582Y4457011D01*
X13337768Y4685651D01*
X13410042Y4903486D01*
X13510990Y5105327D01*
X13551442Y5168900D01*
X13699118Y5356899D01*
X13870638Y5521448D01*
X14062085Y5660916D01*
X14269541Y5773673D01*
X14489092Y5858087D01*
X14716819Y5912528D01*
X14948807Y5935363D01*
X15181139Y5924963D01*
X15314386Y5903084D01*
X15560783Y5833714D01*
X15788350Y5733371D01*
X15996453Y5602471D01*
X16184453Y5441430D01*
X16351713Y5250664D01*
X16387383Y5202347D01*
X16509538Y5000907D01*
X16601044Y4783848D01*
X16661376Y4555783D01*
X16690009Y4321323D01*
X16688241Y4204993D01*
X16686417Y4085077D01*
G37*
X5675298Y3993968D02*
X5631345Y3767769D01*
X5556170Y3555534D01*
X5448204Y3352755D01*
X5316903Y3168596D01*
X5149817Y2987735D01*
X4962542Y2835666D01*
X4758088Y2713281D01*
X4539471Y2621475D01*
X4309701Y2561141D01*
X4071793Y2533173D01*
X3828758Y2538465D01*
X3583611Y2577910D01*
X3448957Y2614491D01*
X3230338Y2701462D01*
X3024993Y2820716D01*
X2836304Y2969623D01*
X2667655Y3145556D01*
X2536717Y3323407D01*
X2427679Y3524805D01*
X2348831Y3741526D01*
X2300139Y3968817D01*
X2287078Y4132781D01*
X2592557Y4132781D01*
X2619593Y3926790D01*
X2632734Y3870656D01*
X2699707Y3680823D01*
X2798266Y3498992D01*
X2923784Y3330802D01*
X3071640Y3181893D01*
X3237208Y3057904D01*
X3352081Y2993373D01*
X3482315Y2933644D01*
X3597140Y2892140D01*
X3709157Y2865964D01*
X3830968Y2852217D01*
X3975176Y2848000D01*
X3984172Y2847987D01*
X4160805Y2855208D01*
X4315352Y2878823D01*
X4459349Y2921580D01*
X4604331Y2986227D01*
X4637315Y3003558D01*
X4816783Y3119979D01*
X4979551Y3265106D01*
X5121095Y3433462D01*
X5236892Y3619572D01*
X5322420Y3817959D01*
X5330635Y3842962D01*
X5355789Y3951626D01*
X5371844Y4082951D01*
X5378346Y4224353D01*
X5374842Y4363254D01*
X5360880Y4487071D01*
X5354941Y4517755D01*
X5292955Y4721050D01*
X5199687Y4911755D01*
X5078703Y5086600D01*
X4933567Y5242318D01*
X4767845Y5375641D01*
X4585102Y5483300D01*
X4388902Y5562026D01*
X4182811Y5608553D01*
X4162101Y5611272D01*
X4004250Y5620079D01*
X3834822Y5611619D01*
X3673397Y5587151D01*
X3630529Y5577151D01*
X3442722Y5511799D01*
X3259978Y5415382D01*
X3089165Y5293079D01*
X2937151Y5150065D01*
X2810806Y4991517D01*
X2772048Y4930139D01*
X2686038Y4750059D01*
X2626784Y4552049D01*
X2595289Y4343745D01*
X2592557Y4132781D01*
X2287078Y4132781D01*
X2281571Y4201921D01*
X2293092Y4436082D01*
X2334669Y4666544D01*
X2406270Y4888553D01*
X2507860Y5097351D01*
X2549624Y5165098D01*
X2688435Y5345968D01*
X2855214Y5509709D01*
X3044029Y5652125D01*
X3248945Y5769015D01*
X3464027Y5856182D01*
X3568818Y5886153D01*
X3736446Y5916978D01*
X3917823Y5932124D01*
X4099339Y5931279D01*
X4267383Y5914133D01*
X4324260Y5903412D01*
X4558113Y5837611D01*
X4770512Y5745422D01*
X4966419Y5624044D01*
X5150794Y5470678D01*
X5229435Y5392454D01*
X5387865Y5202078D01*
X5513232Y4996831D01*
X5605309Y4777279D01*
X5663870Y4543989D01*
X5688689Y4297530D01*
X5689600Y4238640D01*
X5688765Y4224353D01*
X5675298Y3993968D01*
G36*
X5675298Y3993968D02*
G01*
X5631345Y3767769D01*
X5556170Y3555534D01*
X5448204Y3352755D01*
X5316903Y3168596D01*
X5149817Y2987735D01*
X4962542Y2835666D01*
X4758088Y2713281D01*
X4539471Y2621475D01*
X4309701Y2561141D01*
X4071793Y2533173D01*
X3828758Y2538465D01*
X3583611Y2577910D01*
X3448957Y2614491D01*
X3230338Y2701462D01*
X3024993Y2820716D01*
X2836304Y2969623D01*
X2667655Y3145556D01*
X2536717Y3323407D01*
X2427679Y3524805D01*
X2348831Y3741526D01*
X2300139Y3968817D01*
X2287078Y4132781D01*
X2592557Y4132781D01*
X2619593Y3926790D01*
X2632734Y3870656D01*
X2699707Y3680823D01*
X2798266Y3498992D01*
X2923784Y3330802D01*
X3071640Y3181893D01*
X3237208Y3057904D01*
X3352081Y2993373D01*
X3482315Y2933644D01*
X3597140Y2892140D01*
X3709157Y2865964D01*
X3830968Y2852217D01*
X3975176Y2848000D01*
X3984172Y2847987D01*
X4160805Y2855208D01*
X4315352Y2878823D01*
X4459349Y2921580D01*
X4604331Y2986227D01*
X4637315Y3003558D01*
X4816783Y3119979D01*
X4979551Y3265106D01*
X5121095Y3433462D01*
X5236892Y3619572D01*
X5322420Y3817959D01*
X5330635Y3842962D01*
X5355789Y3951626D01*
X5371844Y4082951D01*
X5378346Y4224353D01*
X5374842Y4363254D01*
X5360880Y4487071D01*
X5354941Y4517755D01*
X5292955Y4721050D01*
X5199687Y4911755D01*
X5078703Y5086600D01*
X4933567Y5242318D01*
X4767845Y5375641D01*
X4585102Y5483300D01*
X4388902Y5562026D01*
X4182811Y5608553D01*
X4162101Y5611272D01*
X4004250Y5620079D01*
X3834822Y5611619D01*
X3673397Y5587151D01*
X3630529Y5577151D01*
X3442722Y5511799D01*
X3259978Y5415382D01*
X3089165Y5293079D01*
X2937151Y5150065D01*
X2810806Y4991517D01*
X2772048Y4930139D01*
X2686038Y4750059D01*
X2626784Y4552049D01*
X2595289Y4343745D01*
X2592557Y4132781D01*
X2287078Y4132781D01*
X2281571Y4201921D01*
X2293092Y4436082D01*
X2334669Y4666544D01*
X2406270Y4888553D01*
X2507860Y5097351D01*
X2549624Y5165098D01*
X2688435Y5345968D01*
X2855214Y5509709D01*
X3044029Y5652125D01*
X3248945Y5769015D01*
X3464027Y5856182D01*
X3568818Y5886153D01*
X3736446Y5916978D01*
X3917823Y5932124D01*
X4099339Y5931279D01*
X4267383Y5914133D01*
X4324260Y5903412D01*
X4558113Y5837611D01*
X4770512Y5745422D01*
X4966419Y5624044D01*
X5150794Y5470678D01*
X5229435Y5392454D01*
X5387865Y5202078D01*
X5513232Y4996831D01*
X5605309Y4777279D01*
X5663870Y4543989D01*
X5688689Y4297530D01*
X5689600Y4238640D01*
X5688765Y4224353D01*
X5675298Y3993968D01*
G37*
X13017652Y4102433D02*
X13008636Y3971280D01*
X12993589Y3871242D01*
X12927476Y3645121D01*
X12828781Y3429789D01*
X12700528Y3229046D01*
X12545742Y3046695D01*
X12367447Y2886537D01*
X12168669Y2752376D01*
X12056578Y2693365D01*
X11838979Y2608655D01*
X11609342Y2554985D01*
X11373114Y2532198D01*
X11135743Y2540140D01*
X10902679Y2578654D01*
X10679369Y2647586D01*
X10486433Y2738176D01*
X10279338Y2873959D01*
X10095970Y3035307D01*
X9938570Y3219313D01*
X9809374Y3423071D01*
X9710624Y3643673D01*
X9659512Y3811790D01*
X9634281Y3952081D01*
X9620453Y4113920D01*
X9618744Y4234543D01*
X9927725Y4234543D01*
X9931093Y4089501D01*
X9943846Y3967494D01*
X9968901Y3855853D01*
X10009172Y3741909D01*
X10067575Y3612992D01*
X10073560Y3600753D01*
X10113933Y3522567D01*
X10153041Y3458333D01*
X10198048Y3398507D01*
X10256117Y3333543D01*
X10332254Y3256039D01*
X10426242Y3166368D01*
X10507290Y3098351D01*
X10584543Y3044849D01*
X10651850Y3006606D01*
X10859818Y2917540D01*
X11076231Y2862386D01*
X11297034Y2841444D01*
X11518177Y2855011D01*
X11735607Y2903387D01*
X11792945Y2922382D01*
X11976159Y3005850D01*
X12149353Y3120350D01*
X12307783Y3261014D01*
X12446702Y3422974D01*
X12561364Y3601361D01*
X12647024Y3791307D01*
X12651015Y3802611D01*
X12683947Y3930447D01*
X12704004Y4080025D01*
X12710767Y4239007D01*
X12703815Y4395055D01*
X12682728Y4535829D01*
X12676841Y4560813D01*
X12606804Y4765293D01*
X12504423Y4958130D01*
X12373054Y5134167D01*
X12216056Y5288246D01*
X12188846Y5310466D01*
X12077306Y5394198D01*
X11976187Y5457564D01*
X11872413Y5507842D01*
X11756532Y5551099D01*
X11552590Y5601373D01*
X11338285Y5620520D01*
X11122369Y5608255D01*
X10960243Y5577151D01*
X10771061Y5511196D01*
X10588639Y5414056D01*
X10418859Y5290571D01*
X10267603Y5145584D01*
X10140753Y4983936D01*
X10053537Y4830803D01*
X9999962Y4706354D01*
X9963182Y4590959D01*
X9940635Y4472470D01*
X9929759Y4338742D01*
X9927725Y4234543D01*
X9618744Y4234543D01*
X9618035Y4284610D01*
X9627032Y4451457D01*
X9647449Y4601762D01*
X9659115Y4655625D01*
X9730471Y4878920D01*
X9830340Y5082700D01*
X9961123Y5271105D01*
X10110380Y5434000D01*
X10305804Y5600706D01*
X10515384Y5734326D01*
X10741057Y5835942D01*
X10937322Y5895617D01*
X11038177Y5913602D01*
X11162380Y5925635D01*
X11297434Y5931397D01*
X11430841Y5930570D01*
X11550105Y5922836D01*
X11619285Y5912988D01*
X11850731Y5853728D01*
X12062354Y5767466D01*
X12258809Y5651649D01*
X12444747Y5503721D01*
X12549644Y5402164D01*
X12707886Y5217906D01*
X12832470Y5025322D01*
X12925797Y4820141D01*
X12982331Y4632689D01*
X13001517Y4523127D01*
X13013917Y4390281D01*
X13019354Y4246075D01*
X13019271Y4239007D01*
X13017652Y4102433D01*
G36*
X13017652Y4102433D02*
G01*
X13008636Y3971280D01*
X12993589Y3871242D01*
X12927476Y3645121D01*
X12828781Y3429789D01*
X12700528Y3229046D01*
X12545742Y3046695D01*
X12367447Y2886537D01*
X12168669Y2752376D01*
X12056578Y2693365D01*
X11838979Y2608655D01*
X11609342Y2554985D01*
X11373114Y2532198D01*
X11135743Y2540140D01*
X10902679Y2578654D01*
X10679369Y2647586D01*
X10486433Y2738176D01*
X10279338Y2873959D01*
X10095970Y3035307D01*
X9938570Y3219313D01*
X9809374Y3423071D01*
X9710624Y3643673D01*
X9659512Y3811790D01*
X9634281Y3952081D01*
X9620453Y4113920D01*
X9618744Y4234543D01*
X9927725Y4234543D01*
X9931093Y4089501D01*
X9943846Y3967494D01*
X9968901Y3855853D01*
X10009172Y3741909D01*
X10067575Y3612992D01*
X10073560Y3600753D01*
X10113933Y3522567D01*
X10153041Y3458333D01*
X10198048Y3398507D01*
X10256117Y3333543D01*
X10332254Y3256039D01*
X10426242Y3166368D01*
X10507290Y3098351D01*
X10584543Y3044849D01*
X10651850Y3006606D01*
X10859818Y2917540D01*
X11076231Y2862386D01*
X11297034Y2841444D01*
X11518177Y2855011D01*
X11735607Y2903387D01*
X11792945Y2922382D01*
X11976159Y3005850D01*
X12149353Y3120350D01*
X12307783Y3261014D01*
X12446702Y3422974D01*
X12561364Y3601361D01*
X12647024Y3791307D01*
X12651015Y3802611D01*
X12683947Y3930447D01*
X12704004Y4080025D01*
X12710767Y4239007D01*
X12703815Y4395055D01*
X12682728Y4535829D01*
X12676841Y4560813D01*
X12606804Y4765293D01*
X12504423Y4958130D01*
X12373054Y5134167D01*
X12216056Y5288246D01*
X12188846Y5310466D01*
X12077306Y5394198D01*
X11976187Y5457564D01*
X11872413Y5507842D01*
X11756532Y5551099D01*
X11552590Y5601373D01*
X11338285Y5620520D01*
X11122369Y5608255D01*
X10960243Y5577151D01*
X10771061Y5511196D01*
X10588639Y5414056D01*
X10418859Y5290571D01*
X10267603Y5145584D01*
X10140753Y4983936D01*
X10053537Y4830803D01*
X9999962Y4706354D01*
X9963182Y4590959D01*
X9940635Y4472470D01*
X9929759Y4338742D01*
X9927725Y4234543D01*
X9618744Y4234543D01*
X9618035Y4284610D01*
X9627032Y4451457D01*
X9647449Y4601762D01*
X9659115Y4655625D01*
X9730471Y4878920D01*
X9830340Y5082700D01*
X9961123Y5271105D01*
X10110380Y5434000D01*
X10305804Y5600706D01*
X10515384Y5734326D01*
X10741057Y5835942D01*
X10937322Y5895617D01*
X11038177Y5913602D01*
X11162380Y5925635D01*
X11297434Y5931397D01*
X11430841Y5930570D01*
X11550105Y5922836D01*
X11619285Y5912988D01*
X11850731Y5853728D01*
X12062354Y5767466D01*
X12258809Y5651649D01*
X12444747Y5503721D01*
X12549644Y5402164D01*
X12707886Y5217906D01*
X12832470Y5025322D01*
X12925797Y4820141D01*
X12982331Y4632689D01*
X13001517Y4523127D01*
X13013917Y4390281D01*
X13019354Y4246075D01*
X13019271Y4239007D01*
X13017652Y4102433D01*
G37*
X9349927Y4167344D02*
X9349584Y4157768D01*
X9329555Y3928314D01*
X9285613Y3721414D01*
X9215331Y3530379D01*
X9177871Y3461602D01*
X9116281Y3348523D01*
X8994557Y3179702D01*
X8847861Y3018992D01*
X8681317Y2874784D01*
X8502282Y2752339D01*
X8318111Y2656917D01*
X8201754Y2612719D01*
X7971651Y2556336D01*
X7734271Y2531810D01*
X7495103Y2538448D01*
X7259636Y2575557D01*
X7033359Y2642443D01*
X6821762Y2738412D01*
X6718474Y2800155D01*
X6519501Y2951203D01*
X6347123Y3125631D01*
X6203035Y3321074D01*
X6088930Y3535167D01*
X6006503Y3765545D01*
X5994698Y3810417D01*
X5968772Y3953581D01*
X5954749Y4118054D01*
X5953888Y4188493D01*
X6257073Y4188493D01*
X6273426Y4006988D01*
X6307847Y3836170D01*
X6326297Y3774469D01*
X6401259Y3601602D01*
X6507028Y3434190D01*
X6638127Y3278028D01*
X6789078Y3138912D01*
X6954405Y3022638D01*
X7113852Y2941093D01*
X7315808Y2875372D01*
X7527057Y2842300D01*
X7742037Y2841422D01*
X7955185Y2872281D01*
X8160939Y2934422D01*
X8353734Y3027389D01*
X8382999Y3045088D01*
X8438643Y3084376D01*
X8504606Y3138020D01*
X8575406Y3200670D01*
X8645556Y3266976D01*
X8709572Y3331587D01*
X8761969Y3389154D01*
X8797262Y3434325D01*
X8809970Y3461602D01*
X8794434Y3478331D01*
X8753878Y3503015D01*
X8697056Y3530332D01*
X8696578Y3530539D01*
X8633109Y3558198D01*
X8548471Y3595391D01*
X8454624Y3636852D01*
X8379226Y3670320D01*
X8175066Y3761176D01*
X8138340Y3689187D01*
X8073121Y3601138D01*
X7976812Y3531384D01*
X7849804Y3480178D01*
X7789636Y3464755D01*
X7763521Y3457155D01*
X7748603Y3443100D01*
X7741750Y3413947D01*
X7739831Y3361057D01*
X7739743Y3327054D01*
X7739743Y3200400D01*
X7540172Y3200400D01*
X7540172Y3452756D01*
X7472136Y3463908D01*
X7389486Y3483062D01*
X7301156Y3512424D01*
X7220286Y3546934D01*
X7160016Y3581533D01*
X7153215Y3586697D01*
X7103217Y3626757D01*
X7321979Y3842863D01*
X7407904Y3801117D01*
X7500587Y3766582D01*
X7593125Y3750411D01*
X7678678Y3751888D01*
X7750405Y3770296D01*
X7801466Y3804919D01*
X7823040Y3844604D01*
X7826680Y3885464D01*
X7819150Y3908373D01*
X7799380Y3919179D01*
X7750525Y3942667D01*
X7676697Y3977010D01*
X7582004Y4020376D01*
X7470554Y4070938D01*
X7346458Y4126864D01*
X7213825Y4186327D01*
X7076763Y4247496D01*
X6939382Y4308542D01*
X6805791Y4367636D01*
X6680099Y4422947D01*
X6566416Y4472648D01*
X6468850Y4514908D01*
X6391511Y4547898D01*
X6338509Y4569788D01*
X6313951Y4578749D01*
X6313108Y4578869D01*
X6294858Y4563583D01*
X6281771Y4529364D01*
X6259589Y4367135D01*
X6257073Y4188493D01*
X5953888Y4188493D01*
X5952634Y4291042D01*
X5962430Y4459750D01*
X5984145Y4611384D01*
X5994372Y4657296D01*
X6064577Y4877414D01*
X6092002Y4933821D01*
X6443293Y4933821D01*
X6443458Y4906796D01*
X6444169Y4906019D01*
X6464890Y4894132D01*
X6512143Y4870944D01*
X6579318Y4839412D01*
X6659808Y4802497D01*
X6747005Y4763158D01*
X6834300Y4724355D01*
X6915084Y4689046D01*
X6982751Y4660192D01*
X7030691Y4640752D01*
X7052253Y4633686D01*
X7066137Y4648931D01*
X7083142Y4686126D01*
X7084900Y4691035D01*
X7137731Y4789638D01*
X7220192Y4875017D01*
X7326669Y4942575D01*
X7445392Y4986175D01*
X7531100Y5008094D01*
X7533224Y5133854D01*
X7535347Y5259614D01*
X7730672Y5259614D01*
X7741242Y5001060D01*
X7847934Y4988989D01*
X7942925Y4967840D01*
X8047690Y4928214D01*
X8146139Y4877083D01*
X8210234Y4831997D01*
X8254369Y4794861D01*
X8133749Y4674241D01*
X8013129Y4553622D01*
X7971460Y4592767D01*
X7899756Y4643220D01*
X7811167Y4680662D01*
X7715303Y4703479D01*
X7621774Y4710057D01*
X7540192Y4698782D01*
X7487517Y4674029D01*
X7457828Y4645461D01*
X7443894Y4609167D01*
X7440386Y4551137D01*
X7440386Y4550120D01*
X7442491Y4495530D01*
X7453460Y4463913D01*
X7480277Y4442005D01*
X7503886Y4429502D01*
X7554745Y4405046D01*
X7630055Y4370305D01*
X7725727Y4327054D01*
X7837674Y4277070D01*
X7961807Y4222128D01*
X8094040Y4164003D01*
X8230285Y4104471D01*
X8366455Y4045307D01*
X8498460Y3988287D01*
X8622215Y3935187D01*
X8733631Y3887782D01*
X8828620Y3847848D01*
X8903095Y3817160D01*
X8952969Y3797494D01*
X8974154Y3790625D01*
X8974521Y3790700D01*
X8990006Y3816729D01*
X9005754Y3871086D01*
X9020477Y3945842D01*
X9032888Y4033075D01*
X9041701Y4124856D01*
X9045626Y4213261D01*
X9045714Y4229053D01*
X9037168Y4405428D01*
X9010272Y4561811D01*
X8962122Y4711043D01*
X8911221Y4824186D01*
X8793853Y5022505D01*
X8651969Y5194145D01*
X8484874Y5339799D01*
X8291874Y5460161D01*
X8254615Y5479054D01*
X8142996Y5530319D01*
X8042975Y5566844D01*
X7944507Y5590590D01*
X7837548Y5603515D01*
X7712052Y5607582D01*
X7603672Y5606101D01*
X7487817Y5601862D01*
X7399179Y5595273D01*
X7328711Y5585194D01*
X7267364Y5570487D01*
X7232135Y5559297D01*
X7067148Y5494443D01*
X6923986Y5418001D01*
X6790926Y5322662D01*
X6656248Y5201117D01*
X6653595Y5198505D01*
X6575263Y5117068D01*
X6512139Y5043068D01*
X6467168Y4980615D01*
X6443293Y4933821D01*
X6092002Y4933821D01*
X6161882Y5077550D01*
X6289216Y5262702D01*
X6449504Y5437868D01*
X6454156Y5442352D01*
X6620422Y5587549D01*
X6787735Y5702651D01*
X6964717Y5793049D01*
X7095324Y5843276D01*
X7324589Y5903926D01*
X7561659Y5933656D01*
X7797862Y5931779D01*
X7957457Y5911400D01*
X8182769Y5852781D01*
X8398793Y5761950D01*
X8601776Y5642174D01*
X8787969Y5496721D01*
X8953620Y5328858D01*
X9094978Y5141853D01*
X9208292Y4938974D01*
X9278417Y4760686D01*
X9312142Y4645510D01*
X9334840Y4539730D01*
X9347827Y4432205D01*
X9352417Y4311790D01*
X9350991Y4229053D01*
X9349927Y4167344D01*
G36*
X9349927Y4167344D02*
G01*
X9349584Y4157768D01*
X9329555Y3928314D01*
X9285613Y3721414D01*
X9215331Y3530379D01*
X9177871Y3461602D01*
X9116281Y3348523D01*
X8994557Y3179702D01*
X8847861Y3018992D01*
X8681317Y2874784D01*
X8502282Y2752339D01*
X8318111Y2656917D01*
X8201754Y2612719D01*
X7971651Y2556336D01*
X7734271Y2531810D01*
X7495103Y2538448D01*
X7259636Y2575557D01*
X7033359Y2642443D01*
X6821762Y2738412D01*
X6718474Y2800155D01*
X6519501Y2951203D01*
X6347123Y3125631D01*
X6203035Y3321074D01*
X6088930Y3535167D01*
X6006503Y3765545D01*
X5994698Y3810417D01*
X5968772Y3953581D01*
X5954749Y4118054D01*
X5953888Y4188493D01*
X6257073Y4188493D01*
X6273426Y4006988D01*
X6307847Y3836170D01*
X6326297Y3774469D01*
X6401259Y3601602D01*
X6507028Y3434190D01*
X6638127Y3278028D01*
X6789078Y3138912D01*
X6954405Y3022638D01*
X7113852Y2941093D01*
X7315808Y2875372D01*
X7527057Y2842300D01*
X7742037Y2841422D01*
X7955185Y2872281D01*
X8160939Y2934422D01*
X8353734Y3027389D01*
X8382999Y3045088D01*
X8438643Y3084376D01*
X8504606Y3138020D01*
X8575406Y3200670D01*
X8645556Y3266976D01*
X8709572Y3331587D01*
X8761969Y3389154D01*
X8797262Y3434325D01*
X8809970Y3461602D01*
X8794434Y3478331D01*
X8753878Y3503015D01*
X8697056Y3530332D01*
X8696578Y3530539D01*
X8633109Y3558198D01*
X8548471Y3595391D01*
X8454624Y3636852D01*
X8379226Y3670320D01*
X8175066Y3761176D01*
X8138340Y3689187D01*
X8073121Y3601138D01*
X7976812Y3531384D01*
X7849804Y3480178D01*
X7789636Y3464755D01*
X7763521Y3457155D01*
X7748603Y3443100D01*
X7741750Y3413947D01*
X7739831Y3361057D01*
X7739743Y3327054D01*
X7739743Y3200400D01*
X7540172Y3200400D01*
X7540172Y3452756D01*
X7472136Y3463908D01*
X7389486Y3483062D01*
X7301156Y3512424D01*
X7220286Y3546934D01*
X7160016Y3581533D01*
X7153215Y3586697D01*
X7103217Y3626757D01*
X7321979Y3842863D01*
X7407904Y3801117D01*
X7500587Y3766582D01*
X7593125Y3750411D01*
X7678678Y3751888D01*
X7750405Y3770296D01*
X7801466Y3804919D01*
X7823040Y3844604D01*
X7826680Y3885464D01*
X7819150Y3908373D01*
X7799380Y3919179D01*
X7750525Y3942667D01*
X7676697Y3977010D01*
X7582004Y4020376D01*
X7470554Y4070938D01*
X7346458Y4126864D01*
X7213825Y4186327D01*
X7076763Y4247496D01*
X6939382Y4308542D01*
X6805791Y4367636D01*
X6680099Y4422947D01*
X6566416Y4472648D01*
X6468850Y4514908D01*
X6391511Y4547898D01*
X6338509Y4569788D01*
X6313951Y4578749D01*
X6313108Y4578869D01*
X6294858Y4563583D01*
X6281771Y4529364D01*
X6259589Y4367135D01*
X6257073Y4188493D01*
X5953888Y4188493D01*
X5952634Y4291042D01*
X5962430Y4459750D01*
X5984145Y4611384D01*
X5994372Y4657296D01*
X6064577Y4877414D01*
X6092002Y4933821D01*
X6443293Y4933821D01*
X6443458Y4906796D01*
X6444169Y4906019D01*
X6464890Y4894132D01*
X6512143Y4870944D01*
X6579318Y4839412D01*
X6659808Y4802497D01*
X6747005Y4763158D01*
X6834300Y4724355D01*
X6915084Y4689046D01*
X6982751Y4660192D01*
X7030691Y4640752D01*
X7052253Y4633686D01*
X7066137Y4648931D01*
X7083142Y4686126D01*
X7084900Y4691035D01*
X7137731Y4789638D01*
X7220192Y4875017D01*
X7326669Y4942575D01*
X7445392Y4986175D01*
X7531100Y5008094D01*
X7533224Y5133854D01*
X7535347Y5259614D01*
X7730672Y5259614D01*
X7741242Y5001060D01*
X7847934Y4988989D01*
X7942925Y4967840D01*
X8047690Y4928214D01*
X8146139Y4877083D01*
X8210234Y4831997D01*
X8254369Y4794861D01*
X8133749Y4674241D01*
X8013129Y4553622D01*
X7971460Y4592767D01*
X7899756Y4643220D01*
X7811167Y4680662D01*
X7715303Y4703479D01*
X7621774Y4710057D01*
X7540192Y4698782D01*
X7487517Y4674029D01*
X7457828Y4645461D01*
X7443894Y4609167D01*
X7440386Y4551137D01*
X7440386Y4550120D01*
X7442491Y4495530D01*
X7453460Y4463913D01*
X7480277Y4442005D01*
X7503886Y4429502D01*
X7554745Y4405046D01*
X7630055Y4370305D01*
X7725727Y4327054D01*
X7837674Y4277070D01*
X7961807Y4222128D01*
X8094040Y4164003D01*
X8230285Y4104471D01*
X8366455Y4045307D01*
X8498460Y3988287D01*
X8622215Y3935187D01*
X8733631Y3887782D01*
X8828620Y3847848D01*
X8903095Y3817160D01*
X8952969Y3797494D01*
X8974154Y3790625D01*
X8974521Y3790700D01*
X8990006Y3816729D01*
X9005754Y3871086D01*
X9020477Y3945842D01*
X9032888Y4033075D01*
X9041701Y4124856D01*
X9045626Y4213261D01*
X9045714Y4229053D01*
X9037168Y4405428D01*
X9010272Y4561811D01*
X8962122Y4711043D01*
X8911221Y4824186D01*
X8793853Y5022505D01*
X8651969Y5194145D01*
X8484874Y5339799D01*
X8291874Y5460161D01*
X8254615Y5479054D01*
X8142996Y5530319D01*
X8042975Y5566844D01*
X7944507Y5590590D01*
X7837548Y5603515D01*
X7712052Y5607582D01*
X7603672Y5606101D01*
X7487817Y5601862D01*
X7399179Y5595273D01*
X7328711Y5585194D01*
X7267364Y5570487D01*
X7232135Y5559297D01*
X7067148Y5494443D01*
X6923986Y5418001D01*
X6790926Y5322662D01*
X6656248Y5201117D01*
X6653595Y5198505D01*
X6575263Y5117068D01*
X6512139Y5043068D01*
X6467168Y4980615D01*
X6443293Y4933821D01*
X6092002Y4933821D01*
X6161882Y5077550D01*
X6289216Y5262702D01*
X6449504Y5437868D01*
X6454156Y5442352D01*
X6620422Y5587549D01*
X6787735Y5702651D01*
X6964717Y5793049D01*
X7095324Y5843276D01*
X7324589Y5903926D01*
X7561659Y5933656D01*
X7797862Y5931779D01*
X7957457Y5911400D01*
X8182769Y5852781D01*
X8398793Y5761950D01*
X8601776Y5642174D01*
X8787969Y5496721D01*
X8953620Y5328858D01*
X9094978Y5141853D01*
X9208292Y4938974D01*
X9278417Y4760686D01*
X9312142Y4645510D01*
X9334840Y4539730D01*
X9347827Y4432205D01*
X9352417Y4311790D01*
X9350991Y4229053D01*
X9349927Y4167344D01*
G37*
%TD*%
%LPC*%
D13*
%TO.C,JC5*%
X950000Y5810000D03*
%TD*%
D14*
%TO.C,JA1*%
X18000000Y3550000D03*
%TD*%
D13*
%TO.C,JC8*%
X950000Y2000000D03*
%TD*%
D14*
%TO.C,JA2*%
X18000000Y1270000D03*
%TD*%
D13*
%TO.C,JC6*%
X950000Y4540000D03*
%TD*%
%TO.C,JC3*%
X950000Y8350000D03*
%TD*%
%TO.C,JC2*%
X950000Y9620000D03*
%TD*%
D15*
%TO.C,JC1*%
X950000Y10890000D03*
%TD*%
D13*
%TO.C,JC4*%
X950000Y7080000D03*
%TD*%
%TO.C,JC7*%
X950000Y3270000D03*
%TD*%
%LPD*%
M02*
