%TF.GenerationSoftware,KiCad,Pcbnew,6.0.11-2627ca5db0~126~ubuntu22.04.1*%
%TF.CreationDate,2023-12-16T12:01:51+01:00*%
%TF.ProjectId,4Bit_I2C_Port_Expander_Module_FUEL4EP,34426974-5f49-4324-935f-506f72745f45,V1.1*%
%TF.SameCoordinates,Original*%
%TF.FileFunction,Soldermask,Top*%
%TF.FilePolarity,Negative*%
%FSLAX46Y46*%
G04 Gerber Fmt 4.6, Leading zero omitted, Abs format (unit mm)*
G04 Created by KiCad (PCBNEW 6.0.11-2627ca5db0~126~ubuntu22.04.1) date 2023-12-16 12:01:51*
%MOMM*%
%LPD*%
G01*
G04 APERTURE LIST*
G04 Aperture macros list*
%AMRoundRect*
0 Rectangle with rounded corners*
0 $1 Rounding radius*
0 $2 $3 $4 $5 $6 $7 $8 $9 X,Y pos of 4 corners*
0 Add a 4 corners polygon primitive as box body*
4,1,4,$2,$3,$4,$5,$6,$7,$8,$9,$2,$3,0*
0 Add four circle primitives for the rounded corners*
1,1,$1+$1,$2,$3*
1,1,$1+$1,$4,$5*
1,1,$1+$1,$6,$7*
1,1,$1+$1,$8,$9*
0 Add four rect primitives between the rounded corners*
20,1,$1+$1,$2,$3,$4,$5,0*
20,1,$1+$1,$4,$5,$6,$7,0*
20,1,$1+$1,$6,$7,$8,$9,0*
20,1,$1+$1,$8,$9,$2,$3,0*%
G04 Aperture macros list end*
%ADD10RoundRect,0.150000X0.150000X-0.587500X0.150000X0.587500X-0.150000X0.587500X-0.150000X-0.587500X0*%
%ADD11C,1.000000*%
%ADD12RoundRect,0.140000X0.140000X0.170000X-0.140000X0.170000X-0.140000X-0.170000X0.140000X-0.170000X0*%
%ADD13RoundRect,0.150000X-0.825000X-0.150000X0.825000X-0.150000X0.825000X0.150000X-0.825000X0.150000X0*%
%ADD14RoundRect,0.225000X0.225000X0.250000X-0.225000X0.250000X-0.225000X-0.250000X0.225000X-0.250000X0*%
%ADD15RoundRect,0.135000X-0.135000X-0.185000X0.135000X-0.185000X0.135000X0.185000X-0.135000X0.185000X0*%
%ADD16RoundRect,0.135000X0.185000X-0.135000X0.185000X0.135000X-0.185000X0.135000X-0.185000X-0.135000X0*%
%ADD17R,1.700000X1.700000*%
%ADD18O,1.700000X1.700000*%
G04 APERTURE END LIST*
D10*
%TO.C,Q1*%
X4020400Y13032500D03*
X5920400Y13032500D03*
X4970400Y14907500D03*
%TD*%
%TO.C,Q3*%
X18608000Y13032500D03*
X20508000Y13032500D03*
X19558000Y14907500D03*
%TD*%
D11*
%TO.C,J5*%
X2184400Y14935200D03*
%TD*%
%TO.C,J6*%
X28905200Y14935200D03*
%TD*%
D12*
%TO.C,C2*%
X16280000Y10000000D03*
X15320000Y10000000D03*
%TD*%
D13*
%TO.C,U1*%
X12995000Y8505000D03*
X12995000Y7235000D03*
X12995000Y5965000D03*
X12995000Y4695000D03*
X17945000Y4695000D03*
X17945000Y5965000D03*
X17945000Y7235000D03*
X17945000Y8505000D03*
%TD*%
D14*
%TO.C,C1*%
X14999000Y2300000D03*
X13449000Y2300000D03*
%TD*%
D15*
%TO.C,R1*%
X17697269Y3337000D03*
X18717269Y3337000D03*
%TD*%
%TO.C,R2*%
X17690000Y2286000D03*
X18710000Y2286000D03*
%TD*%
D16*
%TO.C,R3*%
X2692400Y12494800D03*
X2692400Y13514800D03*
%TD*%
D10*
%TO.C,Q2*%
X10607000Y13032500D03*
X12507000Y13032500D03*
X11557000Y14907500D03*
%TD*%
D16*
%TO.C,R5*%
X9200000Y12690000D03*
X9200000Y13710000D03*
%TD*%
D17*
%TO.C,J3*%
X7500000Y2000000D03*
D18*
X7500000Y4540000D03*
X7500000Y7080000D03*
X7500000Y9620000D03*
%TD*%
D17*
%TO.C,J4*%
X22900000Y2000000D03*
D18*
X22900000Y4540000D03*
X22900000Y7080000D03*
X22900000Y9620000D03*
%TD*%
D16*
%TO.C,R9*%
X23495000Y12825000D03*
X23495000Y13845000D03*
%TD*%
D10*
%TO.C,Q4*%
X25212000Y13032500D03*
X27112000Y13032500D03*
X26162000Y14907500D03*
%TD*%
D16*
%TO.C,R7*%
X16600000Y12690000D03*
X16600000Y13710000D03*
%TD*%
D17*
%TO.C,J1*%
X2500000Y2000000D03*
D18*
X2500000Y4540000D03*
X2500000Y7080000D03*
X2500000Y9620000D03*
%TD*%
D17*
%TO.C,J2*%
X27900000Y2000000D03*
D18*
X27900000Y4540000D03*
X27900000Y7080000D03*
X27900000Y9620000D03*
%TD*%
M02*
