%TF.GenerationSoftware,KiCad,Pcbnew,6.0.11-2627ca5db0~126~ubuntu22.04.1*%
%TF.CreationDate,2023-09-03T11:16:54+02:00*%
%TF.ProjectId,4Bit_I2C_Port_Expander_Module_FUEL4EP,34426974-5f49-4324-935f-506f72745f45,V1.0*%
%TF.SameCoordinates,Original*%
%TF.FileFunction,Legend,Bot*%
%TF.FilePolarity,Positive*%
%FSLAX46Y46*%
G04 Gerber Fmt 4.6, Leading zero omitted, Abs format (unit mm)*
G04 Created by KiCad (PCBNEW 6.0.11-2627ca5db0~126~ubuntu22.04.1) date 2023-09-03 11:16:54*
%MOMM*%
%LPD*%
G01*
G04 APERTURE LIST*
%ADD10C,0.152400*%
%ADD11C,0.010000*%
%ADD12R,1.050000X1.500000*%
%ADD13O,1.050000X1.500000*%
%ADD14R,1.700000X1.700000*%
%ADD15O,1.700000X1.700000*%
G04 APERTURE END LIST*
D10*
X16940000Y8789000D02*
X16940000Y8322333D01*
X17106666Y9055666D02*
X17273333Y8555666D01*
X16840000Y8555666D01*
X16340000Y8689000D02*
X16240000Y8655666D01*
X16206666Y8622333D01*
X16173333Y8555666D01*
X16173333Y8455666D01*
X16206666Y8389000D01*
X16240000Y8355666D01*
X16306666Y8322333D01*
X16573333Y8322333D01*
X16573333Y9022333D01*
X16340000Y9022333D01*
X16273333Y8989000D01*
X16240000Y8955666D01*
X16206666Y8889000D01*
X16206666Y8822333D01*
X16240000Y8755666D01*
X16273333Y8722333D01*
X16340000Y8689000D01*
X16573333Y8689000D01*
X15873333Y8322333D02*
X15873333Y8789000D01*
X15873333Y9022333D02*
X15906666Y8989000D01*
X15873333Y8955666D01*
X15840000Y8989000D01*
X15873333Y9022333D01*
X15873333Y8955666D01*
X15640000Y8789000D02*
X15373333Y8789000D01*
X15540000Y9022333D02*
X15540000Y8422333D01*
X15506666Y8355666D01*
X15440000Y8322333D01*
X15373333Y8322333D01*
X14606666Y8322333D02*
X14606666Y9022333D01*
X14306666Y8955666D02*
X14273333Y8989000D01*
X14206666Y9022333D01*
X14040000Y9022333D01*
X13973333Y8989000D01*
X13940000Y8955666D01*
X13906666Y8889000D01*
X13906666Y8822333D01*
X13940000Y8722333D01*
X14340000Y8322333D01*
X13906666Y8322333D01*
X13206666Y8389000D02*
X13240000Y8355666D01*
X13340000Y8322333D01*
X13406666Y8322333D01*
X13506666Y8355666D01*
X13573333Y8422333D01*
X13606666Y8489000D01*
X13640000Y8622333D01*
X13640000Y8722333D01*
X13606666Y8855666D01*
X13573333Y8922333D01*
X13506666Y8989000D01*
X13406666Y9022333D01*
X13340000Y9022333D01*
X13240000Y8989000D01*
X13206666Y8955666D01*
X18523333Y7195333D02*
X18523333Y7895333D01*
X18256666Y7895333D01*
X18190000Y7862000D01*
X18156666Y7828666D01*
X18123333Y7762000D01*
X18123333Y7662000D01*
X18156666Y7595333D01*
X18190000Y7562000D01*
X18256666Y7528666D01*
X18523333Y7528666D01*
X17723333Y7195333D02*
X17790000Y7228666D01*
X17823333Y7262000D01*
X17856666Y7328666D01*
X17856666Y7528666D01*
X17823333Y7595333D01*
X17790000Y7628666D01*
X17723333Y7662000D01*
X17623333Y7662000D01*
X17556666Y7628666D01*
X17523333Y7595333D01*
X17490000Y7528666D01*
X17490000Y7328666D01*
X17523333Y7262000D01*
X17556666Y7228666D01*
X17623333Y7195333D01*
X17723333Y7195333D01*
X17190000Y7195333D02*
X17190000Y7662000D01*
X17190000Y7528666D02*
X17156666Y7595333D01*
X17123333Y7628666D01*
X17056666Y7662000D01*
X16990000Y7662000D01*
X16856666Y7662000D02*
X16590000Y7662000D01*
X16756666Y7895333D02*
X16756666Y7295333D01*
X16723333Y7228666D01*
X16656666Y7195333D01*
X16590000Y7195333D01*
X16090000Y7228666D02*
X16156666Y7195333D01*
X16290000Y7195333D01*
X16356666Y7228666D01*
X16390000Y7295333D01*
X16390000Y7562000D01*
X16356666Y7628666D01*
X16290000Y7662000D01*
X16156666Y7662000D01*
X16090000Y7628666D01*
X16056666Y7562000D01*
X16056666Y7495333D01*
X16390000Y7428666D01*
X15823333Y7195333D02*
X15456666Y7662000D01*
X15823333Y7662000D02*
X15456666Y7195333D01*
X15190000Y7662000D02*
X15190000Y6962000D01*
X15190000Y7628666D02*
X15123333Y7662000D01*
X14990000Y7662000D01*
X14923333Y7628666D01*
X14890000Y7595333D01*
X14856666Y7528666D01*
X14856666Y7328666D01*
X14890000Y7262000D01*
X14923333Y7228666D01*
X14990000Y7195333D01*
X15123333Y7195333D01*
X15190000Y7228666D01*
X14256666Y7195333D02*
X14256666Y7562000D01*
X14290000Y7628666D01*
X14356666Y7662000D01*
X14490000Y7662000D01*
X14556666Y7628666D01*
X14256666Y7228666D02*
X14323333Y7195333D01*
X14490000Y7195333D01*
X14556666Y7228666D01*
X14590000Y7295333D01*
X14590000Y7362000D01*
X14556666Y7428666D01*
X14490000Y7462000D01*
X14323333Y7462000D01*
X14256666Y7495333D01*
X13923333Y7662000D02*
X13923333Y7195333D01*
X13923333Y7595333D02*
X13890000Y7628666D01*
X13823333Y7662000D01*
X13723333Y7662000D01*
X13656666Y7628666D01*
X13623333Y7562000D01*
X13623333Y7195333D01*
X12990000Y7195333D02*
X12990000Y7895333D01*
X12990000Y7228666D02*
X13056666Y7195333D01*
X13190000Y7195333D01*
X13256666Y7228666D01*
X13290000Y7262000D01*
X13323333Y7328666D01*
X13323333Y7528666D01*
X13290000Y7595333D01*
X13256666Y7628666D01*
X13190000Y7662000D01*
X13056666Y7662000D01*
X12990000Y7628666D01*
X12390000Y7228666D02*
X12456666Y7195333D01*
X12590000Y7195333D01*
X12656666Y7228666D01*
X12690000Y7295333D01*
X12690000Y7562000D01*
X12656666Y7628666D01*
X12590000Y7662000D01*
X12456666Y7662000D01*
X12390000Y7628666D01*
X12356666Y7562000D01*
X12356666Y7495333D01*
X12690000Y7428666D01*
X12056666Y7195333D02*
X12056666Y7662000D01*
X12056666Y7528666D02*
X12023333Y7595333D01*
X11990000Y7628666D01*
X11923333Y7662000D01*
X11856666Y7662000D01*
X18223333Y5801666D02*
X18256666Y5835000D01*
X18323333Y5935000D01*
X18356666Y6001666D01*
X18390000Y6101666D01*
X18423333Y6268333D01*
X18423333Y6401666D01*
X18390000Y6568333D01*
X18356666Y6668333D01*
X18323333Y6735000D01*
X18256666Y6835000D01*
X18223333Y6868333D01*
X17556666Y6135000D02*
X17590000Y6101666D01*
X17690000Y6068333D01*
X17756666Y6068333D01*
X17856666Y6101666D01*
X17923333Y6168333D01*
X17956666Y6235000D01*
X17990000Y6368333D01*
X17990000Y6468333D01*
X17956666Y6601666D01*
X17923333Y6668333D01*
X17856666Y6735000D01*
X17756666Y6768333D01*
X17690000Y6768333D01*
X17590000Y6735000D01*
X17556666Y6701666D01*
X17323333Y5801666D02*
X17290000Y5835000D01*
X17223333Y5935000D01*
X17190000Y6001666D01*
X17156666Y6101666D01*
X17123333Y6268333D01*
X17123333Y6401666D01*
X17156666Y6568333D01*
X17190000Y6668333D01*
X17223333Y6735000D01*
X17290000Y6835000D01*
X17323333Y6868333D01*
X16023333Y6435000D02*
X16256666Y6435000D01*
X16256666Y6068333D02*
X16256666Y6768333D01*
X15923333Y6768333D01*
X15656666Y6768333D02*
X15656666Y6201666D01*
X15623333Y6135000D01*
X15590000Y6101666D01*
X15523333Y6068333D01*
X15390000Y6068333D01*
X15323333Y6101666D01*
X15290000Y6135000D01*
X15256666Y6201666D01*
X15256666Y6768333D01*
X14923333Y6435000D02*
X14690000Y6435000D01*
X14590000Y6068333D02*
X14923333Y6068333D01*
X14923333Y6768333D01*
X14590000Y6768333D01*
X13956666Y6068333D02*
X14290000Y6068333D01*
X14290000Y6768333D01*
X13423333Y6535000D02*
X13423333Y6068333D01*
X13590000Y6801666D02*
X13756666Y6301666D01*
X13323333Y6301666D01*
X13056666Y6435000D02*
X12823333Y6435000D01*
X12723333Y6068333D02*
X13056666Y6068333D01*
X13056666Y6768333D01*
X12723333Y6768333D01*
X12423333Y6068333D02*
X12423333Y6768333D01*
X12156666Y6768333D01*
X12090000Y6735000D01*
X12056666Y6701666D01*
X12023333Y6635000D01*
X12023333Y6535000D01*
X12056666Y6468333D01*
X12090000Y6435000D01*
X12156666Y6401666D01*
X12423333Y6401666D01*
X16306666Y5641333D02*
X16073333Y4941333D01*
X15840000Y5641333D01*
X15240000Y4941333D02*
X15640000Y4941333D01*
X15440000Y4941333D02*
X15440000Y5641333D01*
X15506666Y5541333D01*
X15573333Y5474666D01*
X15640000Y5441333D01*
X14940000Y5008000D02*
X14906666Y4974666D01*
X14940000Y4941333D01*
X14973333Y4974666D01*
X14940000Y5008000D01*
X14940000Y4941333D01*
X14473333Y5641333D02*
X14406666Y5641333D01*
X14340000Y5608000D01*
X14306666Y5574666D01*
X14273333Y5508000D01*
X14240000Y5374666D01*
X14240000Y5208000D01*
X14273333Y5074666D01*
X14306666Y5008000D01*
X14340000Y4974666D01*
X14406666Y4941333D01*
X14473333Y4941333D01*
X14540000Y4974666D01*
X14573333Y5008000D01*
X14606666Y5074666D01*
X14640000Y5208000D01*
X14640000Y5374666D01*
X14606666Y5508000D01*
X14573333Y5574666D01*
X14540000Y5608000D01*
X14473333Y5641333D01*
X17073333Y3814333D02*
X16940000Y3814333D01*
X16873333Y3847666D01*
X16840000Y3881000D01*
X16773333Y3981000D01*
X16740000Y4114333D01*
X16740000Y4381000D01*
X16773333Y4447666D01*
X16806666Y4481000D01*
X16873333Y4514333D01*
X17006666Y4514333D01*
X17073333Y4481000D01*
X17106666Y4447666D01*
X17140000Y4381000D01*
X17140000Y4214333D01*
X17106666Y4147666D01*
X17073333Y4114333D01*
X17006666Y4081000D01*
X16873333Y4081000D01*
X16806666Y4114333D01*
X16773333Y4147666D01*
X16740000Y4214333D01*
X15940000Y4547666D02*
X16540000Y3647666D01*
X15740000Y4447666D02*
X15706666Y4481000D01*
X15640000Y4514333D01*
X15473333Y4514333D01*
X15406666Y4481000D01*
X15373333Y4447666D01*
X15340000Y4381000D01*
X15340000Y4314333D01*
X15373333Y4214333D01*
X15773333Y3814333D01*
X15340000Y3814333D01*
X14906666Y4514333D02*
X14840000Y4514333D01*
X14773333Y4481000D01*
X14740000Y4447666D01*
X14706666Y4381000D01*
X14673333Y4247666D01*
X14673333Y4081000D01*
X14706666Y3947666D01*
X14740000Y3881000D01*
X14773333Y3847666D01*
X14840000Y3814333D01*
X14906666Y3814333D01*
X14973333Y3847666D01*
X15006666Y3881000D01*
X15040000Y3947666D01*
X15073333Y4081000D01*
X15073333Y4247666D01*
X15040000Y4381000D01*
X15006666Y4447666D01*
X14973333Y4481000D01*
X14906666Y4514333D01*
X14406666Y4447666D02*
X14373333Y4481000D01*
X14306666Y4514333D01*
X14140000Y4514333D01*
X14073333Y4481000D01*
X14040000Y4447666D01*
X14006666Y4381000D01*
X14006666Y4314333D01*
X14040000Y4214333D01*
X14440000Y3814333D01*
X14006666Y3814333D01*
X13773333Y4514333D02*
X13340000Y4514333D01*
X13573333Y4247666D01*
X13473333Y4247666D01*
X13406666Y4214333D01*
X13373333Y4181000D01*
X13340000Y4114333D01*
X13340000Y3947666D01*
X13373333Y3881000D01*
X13406666Y3847666D01*
X13473333Y3814333D01*
X13673333Y3814333D01*
X13740000Y3847666D01*
X13773333Y3881000D01*
%TO.C,LOGO1*%
G36*
X22401776Y11125617D02*
G01*
X22341444Y10897552D01*
X22249938Y10680493D01*
X22127783Y10479053D01*
X22092113Y10430736D01*
X21924853Y10239970D01*
X21736853Y10078929D01*
X21528750Y9948029D01*
X21301183Y9847686D01*
X21054786Y9778316D01*
X20921539Y9756437D01*
X20689207Y9746037D01*
X20457219Y9768872D01*
X20229492Y9823313D01*
X20009941Y9907727D01*
X19802485Y10020484D01*
X19611038Y10159952D01*
X19439518Y10324501D01*
X19291842Y10512500D01*
X19251390Y10576073D01*
X19150442Y10777914D01*
X19078168Y10995749D01*
X19034982Y11224389D01*
X19021301Y11458644D01*
X19026560Y11534647D01*
X19331008Y11534647D01*
X19333317Y11320274D01*
X19367890Y11111284D01*
X19433725Y10911389D01*
X19529824Y10724302D01*
X19655184Y10553736D01*
X19808807Y10403403D01*
X19918485Y10322235D01*
X20070059Y10232164D01*
X20229449Y10157542D01*
X20382581Y10105671D01*
X20438876Y10092927D01*
X20591947Y10072936D01*
X20756996Y10068299D01*
X20919230Y10079028D01*
X21063857Y10105133D01*
X21110160Y10118019D01*
X21311670Y10195972D01*
X21501635Y10304558D01*
X21673303Y10439391D01*
X21819925Y10596090D01*
X21877496Y10673720D01*
X21988416Y10863871D01*
X22066092Y11063201D01*
X22110738Y11268462D01*
X22122572Y11476407D01*
X22101809Y11683788D01*
X22048664Y11887356D01*
X21963355Y12083865D01*
X21846097Y12270066D01*
X21697106Y12442712D01*
X21648782Y12488834D01*
X21474208Y12624049D01*
X21283454Y12727450D01*
X21079153Y12798056D01*
X20863940Y12834882D01*
X20640447Y12836946D01*
X20515449Y12823743D01*
X20301537Y12776404D01*
X20105355Y12698195D01*
X19924396Y12588003D01*
X19756151Y12444714D01*
X19704267Y12391713D01*
X19576239Y12237571D01*
X19477973Y12077176D01*
X19404746Y11903252D01*
X19361961Y11750689D01*
X19331008Y11534647D01*
X19026560Y11534647D01*
X19037539Y11693325D01*
X19084110Y11923242D01*
X19161431Y12143206D01*
X19168245Y12158624D01*
X19280104Y12364692D01*
X19421776Y12554031D01*
X19589534Y12723324D01*
X19779651Y12869256D01*
X19988400Y12988512D01*
X20212053Y13077777D01*
X20251275Y13089538D01*
X20449548Y13130688D01*
X20662613Y13148539D01*
X20879843Y13143229D01*
X21090616Y13114898D01*
X21284305Y13063686D01*
X21292187Y13060945D01*
X21511427Y12965196D01*
X21715054Y12838451D01*
X21899913Y12683727D01*
X22062852Y12504041D01*
X22200716Y12302412D01*
X22310352Y12081857D01*
X22320859Y12055721D01*
X22390476Y11829741D01*
X22426817Y11596323D01*
X22428641Y11476407D01*
X22430409Y11360077D01*
X22401776Y11125617D01*
G37*
D11*
X22401776Y11125617D02*
X22341444Y10897552D01*
X22249938Y10680493D01*
X22127783Y10479053D01*
X22092113Y10430736D01*
X21924853Y10239970D01*
X21736853Y10078929D01*
X21528750Y9948029D01*
X21301183Y9847686D01*
X21054786Y9778316D01*
X20921539Y9756437D01*
X20689207Y9746037D01*
X20457219Y9768872D01*
X20229492Y9823313D01*
X20009941Y9907727D01*
X19802485Y10020484D01*
X19611038Y10159952D01*
X19439518Y10324501D01*
X19291842Y10512500D01*
X19251390Y10576073D01*
X19150442Y10777914D01*
X19078168Y10995749D01*
X19034982Y11224389D01*
X19021301Y11458644D01*
X19026560Y11534647D01*
X19331008Y11534647D01*
X19333317Y11320274D01*
X19367890Y11111284D01*
X19433725Y10911389D01*
X19529824Y10724302D01*
X19655184Y10553736D01*
X19808807Y10403403D01*
X19918485Y10322235D01*
X20070059Y10232164D01*
X20229449Y10157542D01*
X20382581Y10105671D01*
X20438876Y10092927D01*
X20591947Y10072936D01*
X20756996Y10068299D01*
X20919230Y10079028D01*
X21063857Y10105133D01*
X21110160Y10118019D01*
X21311670Y10195972D01*
X21501635Y10304558D01*
X21673303Y10439391D01*
X21819925Y10596090D01*
X21877496Y10673720D01*
X21988416Y10863871D01*
X22066092Y11063201D01*
X22110738Y11268462D01*
X22122572Y11476407D01*
X22101809Y11683788D01*
X22048664Y11887356D01*
X21963355Y12083865D01*
X21846097Y12270066D01*
X21697106Y12442712D01*
X21648782Y12488834D01*
X21474208Y12624049D01*
X21283454Y12727450D01*
X21079153Y12798056D01*
X20863940Y12834882D01*
X20640447Y12836946D01*
X20515449Y12823743D01*
X20301537Y12776404D01*
X20105355Y12698195D01*
X19924396Y12588003D01*
X19756151Y12444714D01*
X19704267Y12391713D01*
X19576239Y12237571D01*
X19477973Y12077176D01*
X19404746Y11903252D01*
X19361961Y11750689D01*
X19331008Y11534647D01*
X19026560Y11534647D01*
X19037539Y11693325D01*
X19084110Y11923242D01*
X19161431Y12143206D01*
X19168245Y12158624D01*
X19280104Y12364692D01*
X19421776Y12554031D01*
X19589534Y12723324D01*
X19779651Y12869256D01*
X19988400Y12988512D01*
X20212053Y13077777D01*
X20251275Y13089538D01*
X20449548Y13130688D01*
X20662613Y13148539D01*
X20879843Y13143229D01*
X21090616Y13114898D01*
X21284305Y13063686D01*
X21292187Y13060945D01*
X21511427Y12965196D01*
X21715054Y12838451D01*
X21899913Y12683727D01*
X22062852Y12504041D01*
X22200716Y12302412D01*
X22310352Y12081857D01*
X22320859Y12055721D01*
X22390476Y11829741D01*
X22426817Y11596323D01*
X22428641Y11476407D01*
X22430409Y11360077D01*
X22401776Y11125617D01*
G36*
X18754317Y11291119D02*
G01*
X18741917Y11158273D01*
X18722731Y11048711D01*
X18666197Y10861259D01*
X18572870Y10656078D01*
X18448286Y10463494D01*
X18290044Y10279236D01*
X18185147Y10177679D01*
X17999209Y10029751D01*
X17802754Y9913934D01*
X17591131Y9827672D01*
X17359685Y9768412D01*
X17290505Y9758564D01*
X17171241Y9750830D01*
X17037834Y9750003D01*
X16902780Y9755765D01*
X16778577Y9767798D01*
X16677722Y9785783D01*
X16481457Y9845458D01*
X16255784Y9947074D01*
X16046204Y10080694D01*
X15850780Y10247400D01*
X15701523Y10410295D01*
X15570740Y10598700D01*
X15470871Y10802480D01*
X15399515Y11025775D01*
X15387849Y11079638D01*
X15367432Y11229943D01*
X15358435Y11396790D01*
X15359144Y11446857D01*
X15668125Y11446857D01*
X15670159Y11342658D01*
X15681035Y11208930D01*
X15703582Y11090441D01*
X15740362Y10975046D01*
X15793937Y10850597D01*
X15881153Y10697464D01*
X16008003Y10535816D01*
X16159259Y10390829D01*
X16329039Y10267344D01*
X16511461Y10170204D01*
X16700643Y10104249D01*
X16862769Y10073145D01*
X17078685Y10060880D01*
X17292990Y10080027D01*
X17496932Y10130301D01*
X17612813Y10173558D01*
X17716587Y10223836D01*
X17817706Y10287202D01*
X17929246Y10370934D01*
X17956456Y10393154D01*
X18113454Y10547233D01*
X18244823Y10723270D01*
X18347204Y10916107D01*
X18417241Y11120587D01*
X18423128Y11145571D01*
X18444215Y11286345D01*
X18451167Y11442393D01*
X18444404Y11601375D01*
X18424347Y11750953D01*
X18391415Y11878789D01*
X18387424Y11890093D01*
X18301764Y12080039D01*
X18187102Y12258426D01*
X18048183Y12420386D01*
X17889753Y12561050D01*
X17716559Y12675550D01*
X17533345Y12759018D01*
X17476007Y12778013D01*
X17258577Y12826389D01*
X17037434Y12839956D01*
X16816631Y12819014D01*
X16600218Y12763860D01*
X16392250Y12674794D01*
X16324943Y12636551D01*
X16247690Y12583049D01*
X16166642Y12515032D01*
X16072654Y12425361D01*
X15996517Y12347857D01*
X15938448Y12282893D01*
X15893441Y12223067D01*
X15854333Y12158833D01*
X15813960Y12080647D01*
X15807975Y12068408D01*
X15749572Y11939491D01*
X15709301Y11825547D01*
X15684246Y11713906D01*
X15671493Y11591899D01*
X15668125Y11446857D01*
X15359144Y11446857D01*
X15360853Y11567480D01*
X15374681Y11729319D01*
X15399912Y11869610D01*
X15451024Y12037727D01*
X15549774Y12258329D01*
X15678970Y12462087D01*
X15836370Y12646093D01*
X16019738Y12807441D01*
X16226833Y12943224D01*
X16419769Y13033814D01*
X16643079Y13102746D01*
X16876143Y13141260D01*
X17113514Y13149202D01*
X17349742Y13126415D01*
X17579379Y13072745D01*
X17796978Y12988035D01*
X17909069Y12929024D01*
X18107847Y12794863D01*
X18286142Y12634705D01*
X18440928Y12452354D01*
X18569181Y12251611D01*
X18667876Y12036279D01*
X18733989Y11810158D01*
X18749036Y11710120D01*
X18758052Y11578967D01*
X18759671Y11442393D01*
X18759754Y11435325D01*
X18754317Y11291119D01*
G37*
X18754317Y11291119D02*
X18741917Y11158273D01*
X18722731Y11048711D01*
X18666197Y10861259D01*
X18572870Y10656078D01*
X18448286Y10463494D01*
X18290044Y10279236D01*
X18185147Y10177679D01*
X17999209Y10029751D01*
X17802754Y9913934D01*
X17591131Y9827672D01*
X17359685Y9768412D01*
X17290505Y9758564D01*
X17171241Y9750830D01*
X17037834Y9750003D01*
X16902780Y9755765D01*
X16778577Y9767798D01*
X16677722Y9785783D01*
X16481457Y9845458D01*
X16255784Y9947074D01*
X16046204Y10080694D01*
X15850780Y10247400D01*
X15701523Y10410295D01*
X15570740Y10598700D01*
X15470871Y10802480D01*
X15399515Y11025775D01*
X15387849Y11079638D01*
X15367432Y11229943D01*
X15358435Y11396790D01*
X15359144Y11446857D01*
X15668125Y11446857D01*
X15670159Y11342658D01*
X15681035Y11208930D01*
X15703582Y11090441D01*
X15740362Y10975046D01*
X15793937Y10850597D01*
X15881153Y10697464D01*
X16008003Y10535816D01*
X16159259Y10390829D01*
X16329039Y10267344D01*
X16511461Y10170204D01*
X16700643Y10104249D01*
X16862769Y10073145D01*
X17078685Y10060880D01*
X17292990Y10080027D01*
X17496932Y10130301D01*
X17612813Y10173558D01*
X17716587Y10223836D01*
X17817706Y10287202D01*
X17929246Y10370934D01*
X17956456Y10393154D01*
X18113454Y10547233D01*
X18244823Y10723270D01*
X18347204Y10916107D01*
X18417241Y11120587D01*
X18423128Y11145571D01*
X18444215Y11286345D01*
X18451167Y11442393D01*
X18444404Y11601375D01*
X18424347Y11750953D01*
X18391415Y11878789D01*
X18387424Y11890093D01*
X18301764Y12080039D01*
X18187102Y12258426D01*
X18048183Y12420386D01*
X17889753Y12561050D01*
X17716559Y12675550D01*
X17533345Y12759018D01*
X17476007Y12778013D01*
X17258577Y12826389D01*
X17037434Y12839956D01*
X16816631Y12819014D01*
X16600218Y12763860D01*
X16392250Y12674794D01*
X16324943Y12636551D01*
X16247690Y12583049D01*
X16166642Y12515032D01*
X16072654Y12425361D01*
X15996517Y12347857D01*
X15938448Y12282893D01*
X15893441Y12223067D01*
X15854333Y12158833D01*
X15813960Y12080647D01*
X15807975Y12068408D01*
X15749572Y11939491D01*
X15709301Y11825547D01*
X15684246Y11713906D01*
X15671493Y11591899D01*
X15668125Y11446857D01*
X15359144Y11446857D01*
X15360853Y11567480D01*
X15374681Y11729319D01*
X15399912Y11869610D01*
X15451024Y12037727D01*
X15549774Y12258329D01*
X15678970Y12462087D01*
X15836370Y12646093D01*
X16019738Y12807441D01*
X16226833Y12943224D01*
X16419769Y13033814D01*
X16643079Y13102746D01*
X16876143Y13141260D01*
X17113514Y13149202D01*
X17349742Y13126415D01*
X17579379Y13072745D01*
X17796978Y12988035D01*
X17909069Y12929024D01*
X18107847Y12794863D01*
X18286142Y12634705D01*
X18440928Y12452354D01*
X18569181Y12251611D01*
X18667876Y12036279D01*
X18733989Y11810158D01*
X18749036Y11710120D01*
X18758052Y11578967D01*
X18759671Y11442393D01*
X18759754Y11435325D01*
X18754317Y11291119D01*
G36*
X21289851Y11967506D02*
G01*
X21376564Y11951432D01*
X21376867Y11951341D01*
X21461605Y11910362D01*
X21543931Y11843680D01*
X21613897Y11761042D01*
X21661555Y11672195D01*
X21679748Y11612547D01*
X21698053Y11481497D01*
X21692380Y11347074D01*
X21662688Y11224548D01*
X21631717Y11158954D01*
X21556183Y11060314D01*
X21458229Y10983982D01*
X21345072Y10936501D01*
X21303044Y10930335D01*
X21236805Y10926966D01*
X21163643Y10927712D01*
X21099562Y10933043D01*
X20991414Y10959772D01*
X20898971Y11012157D01*
X20811814Y11095155D01*
X20736780Y11180398D01*
X20827104Y11231985D01*
X20841833Y11240314D01*
X20902118Y11270758D01*
X20941887Y11280635D01*
X20968724Y11270328D01*
X20990213Y11240218D01*
X21022234Y11201058D01*
X21083584Y11167462D01*
X21156913Y11155639D01*
X21231622Y11166892D01*
X21297111Y11202522D01*
X21314001Y11218074D01*
X21361607Y11287918D01*
X21385108Y11378833D01*
X21385720Y11494835D01*
X21378060Y11556943D01*
X21353801Y11637277D01*
X21312088Y11693314D01*
X21249283Y11731361D01*
X21224781Y11739820D01*
X21144000Y11745239D01*
X21068835Y11719083D01*
X21009091Y11664097D01*
X20970645Y11610104D01*
X20863252Y11669088D01*
X20809301Y11701276D01*
X20770520Y11729326D01*
X20755644Y11746973D01*
X20759348Y11759746D01*
X20785751Y11795390D01*
X20830408Y11838943D01*
X20884831Y11883203D01*
X20940535Y11920967D01*
X20989031Y11945035D01*
X20997446Y11947839D01*
X21083953Y11965439D01*
X21186868Y11972085D01*
X21289851Y11967506D01*
G37*
X21289851Y11967506D02*
X21376564Y11951432D01*
X21376867Y11951341D01*
X21461605Y11910362D01*
X21543931Y11843680D01*
X21613897Y11761042D01*
X21661555Y11672195D01*
X21679748Y11612547D01*
X21698053Y11481497D01*
X21692380Y11347074D01*
X21662688Y11224548D01*
X21631717Y11158954D01*
X21556183Y11060314D01*
X21458229Y10983982D01*
X21345072Y10936501D01*
X21303044Y10930335D01*
X21236805Y10926966D01*
X21163643Y10927712D01*
X21099562Y10933043D01*
X20991414Y10959772D01*
X20898971Y11012157D01*
X20811814Y11095155D01*
X20736780Y11180398D01*
X20827104Y11231985D01*
X20841833Y11240314D01*
X20902118Y11270758D01*
X20941887Y11280635D01*
X20968724Y11270328D01*
X20990213Y11240218D01*
X21022234Y11201058D01*
X21083584Y11167462D01*
X21156913Y11155639D01*
X21231622Y11166892D01*
X21297111Y11202522D01*
X21314001Y11218074D01*
X21361607Y11287918D01*
X21385108Y11378833D01*
X21385720Y11494835D01*
X21378060Y11556943D01*
X21353801Y11637277D01*
X21312088Y11693314D01*
X21249283Y11731361D01*
X21224781Y11739820D01*
X21144000Y11745239D01*
X21068835Y11719083D01*
X21009091Y11664097D01*
X20970645Y11610104D01*
X20863252Y11669088D01*
X20809301Y11701276D01*
X20770520Y11729326D01*
X20755644Y11746973D01*
X20759348Y11759746D01*
X20785751Y11795390D01*
X20830408Y11838943D01*
X20884831Y11883203D01*
X20940535Y11920967D01*
X20989031Y11945035D01*
X20997446Y11947839D01*
X21083953Y11965439D01*
X21186868Y11972085D01*
X21289851Y11967506D01*
G36*
X20369130Y11956360D02*
G01*
X20390323Y11949924D01*
X20493868Y11897217D01*
X20584396Y11815781D01*
X20654807Y11711699D01*
X20662354Y11696753D01*
X20686806Y11641873D01*
X20700852Y11591179D01*
X20707255Y11531199D01*
X20708776Y11448466D01*
X20708772Y11443224D01*
X20706834Y11360197D01*
X20699545Y11299024D01*
X20684270Y11246083D01*
X20658378Y11187751D01*
X20593645Y11086070D01*
X20502540Y11001716D01*
X20392572Y10947507D01*
X20306730Y10928967D01*
X20184788Y10925762D01*
X20064046Y10944822D01*
X19959126Y10984886D01*
X19945872Y10992476D01*
X19890161Y11031384D01*
X19837453Y11077472D01*
X19794432Y11123745D01*
X19767781Y11163211D01*
X19764183Y11188876D01*
X19775268Y11198235D01*
X19812190Y11220104D01*
X19864054Y11246174D01*
X19954776Y11288665D01*
X20017066Y11222618D01*
X20035506Y11203600D01*
X20073513Y11172752D01*
X20114027Y11159436D01*
X20173860Y11156571D01*
X20179733Y11156587D01*
X20239968Y11160719D01*
X20281400Y11176031D01*
X20319925Y11208133D01*
X20368182Y11279098D01*
X20397294Y11371068D01*
X20405591Y11472448D01*
X20392204Y11572439D01*
X20356265Y11660244D01*
X20327866Y11695532D01*
X20263094Y11736287D01*
X20187499Y11749630D01*
X20112397Y11732221D01*
X20109336Y11730727D01*
X20057814Y11697366D01*
X20017776Y11658653D01*
X19984357Y11614271D01*
X19881358Y11666230D01*
X19832001Y11692330D01*
X19789131Y11717659D01*
X19769165Y11733063D01*
X19769184Y11750019D01*
X19790081Y11786093D01*
X19828988Y11830166D01*
X19879115Y11874823D01*
X19933669Y11912651D01*
X19966924Y11928993D01*
X20058550Y11956246D01*
X20165138Y11970796D01*
X20273170Y11971286D01*
X20369130Y11956360D01*
G37*
X20369130Y11956360D02*
X20390323Y11949924D01*
X20493868Y11897217D01*
X20584396Y11815781D01*
X20654807Y11711699D01*
X20662354Y11696753D01*
X20686806Y11641873D01*
X20700852Y11591179D01*
X20707255Y11531199D01*
X20708776Y11448466D01*
X20708772Y11443224D01*
X20706834Y11360197D01*
X20699545Y11299024D01*
X20684270Y11246083D01*
X20658378Y11187751D01*
X20593645Y11086070D01*
X20502540Y11001716D01*
X20392572Y10947507D01*
X20306730Y10928967D01*
X20184788Y10925762D01*
X20064046Y10944822D01*
X19959126Y10984886D01*
X19945872Y10992476D01*
X19890161Y11031384D01*
X19837453Y11077472D01*
X19794432Y11123745D01*
X19767781Y11163211D01*
X19764183Y11188876D01*
X19775268Y11198235D01*
X19812190Y11220104D01*
X19864054Y11246174D01*
X19954776Y11288665D01*
X20017066Y11222618D01*
X20035506Y11203600D01*
X20073513Y11172752D01*
X20114027Y11159436D01*
X20173860Y11156571D01*
X20179733Y11156587D01*
X20239968Y11160719D01*
X20281400Y11176031D01*
X20319925Y11208133D01*
X20368182Y11279098D01*
X20397294Y11371068D01*
X20405591Y11472448D01*
X20392204Y11572439D01*
X20356265Y11660244D01*
X20327866Y11695532D01*
X20263094Y11736287D01*
X20187499Y11749630D01*
X20112397Y11732221D01*
X20109336Y11730727D01*
X20057814Y11697366D01*
X20017776Y11658653D01*
X19984357Y11614271D01*
X19881358Y11666230D01*
X19832001Y11692330D01*
X19789131Y11717659D01*
X19769165Y11733063D01*
X19769184Y11750019D01*
X19790081Y11786093D01*
X19828988Y11830166D01*
X19879115Y11874823D01*
X19933669Y11912651D01*
X19966924Y11928993D01*
X20058550Y11956246D01*
X20165138Y11970796D01*
X20273170Y11971286D01*
X20369130Y11956360D01*
G36*
X15088227Y11249195D02*
G01*
X15075240Y11141670D01*
X15052542Y11035890D01*
X15018817Y10920714D01*
X14948692Y10742426D01*
X14835378Y10539547D01*
X14694020Y10352542D01*
X14528369Y10184679D01*
X14342176Y10039226D01*
X14139193Y9919450D01*
X13923169Y9828619D01*
X13697857Y9770000D01*
X13538262Y9749621D01*
X13302059Y9747744D01*
X13064989Y9777474D01*
X12835724Y9838124D01*
X12705117Y9888351D01*
X12528135Y9978749D01*
X12360822Y10093851D01*
X12194556Y10239048D01*
X12189904Y10243532D01*
X12029616Y10418698D01*
X11902282Y10603850D01*
X11832402Y10747579D01*
X12183693Y10747579D01*
X12207568Y10700785D01*
X12252539Y10638332D01*
X12315663Y10564332D01*
X12393995Y10482895D01*
X12396648Y10480283D01*
X12531326Y10358738D01*
X12664386Y10263399D01*
X12807548Y10186957D01*
X12972535Y10122103D01*
X13007764Y10110913D01*
X13069111Y10096206D01*
X13139579Y10086127D01*
X13228217Y10079538D01*
X13344072Y10075299D01*
X13452452Y10073818D01*
X13577948Y10077885D01*
X13684907Y10090810D01*
X13783375Y10114556D01*
X13883396Y10151081D01*
X13995015Y10202346D01*
X14032274Y10221239D01*
X14225274Y10341601D01*
X14392369Y10487255D01*
X14534253Y10658895D01*
X14651621Y10857214D01*
X14702522Y10970357D01*
X14750672Y11119589D01*
X14777568Y11275972D01*
X14786114Y11452347D01*
X14786026Y11468139D01*
X14782101Y11556544D01*
X14773288Y11648325D01*
X14760877Y11735558D01*
X14746154Y11810314D01*
X14730406Y11864671D01*
X14714921Y11890700D01*
X14714554Y11890775D01*
X14693369Y11883906D01*
X14643495Y11864240D01*
X14569020Y11833552D01*
X14474031Y11793618D01*
X14362615Y11746213D01*
X14238860Y11693113D01*
X14106855Y11636093D01*
X13970685Y11576929D01*
X13834440Y11517397D01*
X13702207Y11459272D01*
X13578074Y11404330D01*
X13466127Y11354346D01*
X13370455Y11311095D01*
X13295145Y11276354D01*
X13244286Y11251898D01*
X13220677Y11239395D01*
X13193860Y11217487D01*
X13182891Y11185870D01*
X13180786Y11131280D01*
X13180786Y11130263D01*
X13184294Y11072233D01*
X13198228Y11035939D01*
X13227917Y11007371D01*
X13280592Y10982618D01*
X13362174Y10971343D01*
X13455703Y10977921D01*
X13551567Y11000738D01*
X13640156Y11038180D01*
X13711860Y11088633D01*
X13753529Y11127778D01*
X13874149Y11007159D01*
X13994769Y10886539D01*
X13950634Y10849403D01*
X13886539Y10804317D01*
X13788090Y10753186D01*
X13683325Y10713560D01*
X13588334Y10692411D01*
X13481642Y10680340D01*
X13471072Y10421786D01*
X13275747Y10421786D01*
X13273624Y10547546D01*
X13271500Y10673306D01*
X13185792Y10695225D01*
X13067069Y10738825D01*
X12960592Y10806383D01*
X12878131Y10891762D01*
X12825300Y10990365D01*
X12823542Y10995274D01*
X12806537Y11032469D01*
X12792653Y11047714D01*
X12771091Y11040648D01*
X12723151Y11021208D01*
X12655484Y10992354D01*
X12574700Y10957045D01*
X12487405Y10918242D01*
X12400208Y10878903D01*
X12319718Y10841988D01*
X12252543Y10810456D01*
X12205290Y10787268D01*
X12184569Y10775381D01*
X12183858Y10774604D01*
X12183693Y10747579D01*
X11832402Y10747579D01*
X11804977Y10803986D01*
X11734772Y11024104D01*
X11724545Y11070016D01*
X11702830Y11221650D01*
X11693034Y11390358D01*
X11694288Y11492907D01*
X11997473Y11492907D01*
X11999989Y11314265D01*
X12022171Y11152036D01*
X12035258Y11117817D01*
X12053508Y11102531D01*
X12054351Y11102651D01*
X12078909Y11111612D01*
X12131911Y11133502D01*
X12209250Y11166492D01*
X12306816Y11208752D01*
X12420499Y11258453D01*
X12546191Y11313764D01*
X12679782Y11372858D01*
X12817163Y11433904D01*
X12954225Y11495073D01*
X13086858Y11554536D01*
X13210954Y11610462D01*
X13322404Y11661024D01*
X13417097Y11704390D01*
X13490925Y11738733D01*
X13539780Y11762221D01*
X13559550Y11773027D01*
X13567080Y11795936D01*
X13563440Y11836796D01*
X13541866Y11876481D01*
X13490805Y11911104D01*
X13419078Y11929512D01*
X13333525Y11930989D01*
X13240987Y11914818D01*
X13148304Y11880283D01*
X13062379Y11838537D01*
X12843617Y12054643D01*
X12893615Y12094703D01*
X12900416Y12099867D01*
X12960686Y12134466D01*
X13041556Y12168976D01*
X13129886Y12198338D01*
X13212536Y12217492D01*
X13280572Y12228644D01*
X13280572Y12481000D01*
X13480143Y12481000D01*
X13480143Y12354346D01*
X13480231Y12320343D01*
X13482150Y12267453D01*
X13489003Y12238300D01*
X13503921Y12224245D01*
X13530036Y12216645D01*
X13590204Y12201222D01*
X13717212Y12150016D01*
X13813521Y12080262D01*
X13878740Y11992213D01*
X13915466Y11920224D01*
X14119626Y12011080D01*
X14195024Y12044548D01*
X14288871Y12086009D01*
X14373509Y12123202D01*
X14436978Y12150861D01*
X14437456Y12151068D01*
X14494278Y12178385D01*
X14534834Y12203069D01*
X14550370Y12219798D01*
X14537662Y12247075D01*
X14502369Y12292246D01*
X14449972Y12349813D01*
X14385956Y12414424D01*
X14315806Y12480730D01*
X14245006Y12543380D01*
X14179043Y12597024D01*
X14123399Y12636312D01*
X14094134Y12654011D01*
X13901339Y12746978D01*
X13695585Y12809119D01*
X13482437Y12839978D01*
X13267457Y12839100D01*
X13056208Y12806028D01*
X12854252Y12740307D01*
X12694805Y12658762D01*
X12529478Y12542488D01*
X12378527Y12403372D01*
X12247428Y12247210D01*
X12141659Y12079798D01*
X12066697Y11906931D01*
X12048247Y11845230D01*
X12013826Y11674412D01*
X11997473Y11492907D01*
X11694288Y11492907D01*
X11695149Y11563346D01*
X11709172Y11727819D01*
X11735098Y11870983D01*
X11746903Y11915855D01*
X11829330Y12146233D01*
X11943435Y12360326D01*
X12087523Y12555769D01*
X12259901Y12730197D01*
X12458874Y12881245D01*
X12562162Y12942988D01*
X12773759Y13038957D01*
X13000036Y13105843D01*
X13235503Y13142952D01*
X13474671Y13149590D01*
X13712051Y13125064D01*
X13942154Y13068681D01*
X14058511Y13024483D01*
X14242682Y12929061D01*
X14421717Y12806616D01*
X14588261Y12662408D01*
X14734957Y12501698D01*
X14856681Y12332877D01*
X14918271Y12219798D01*
X14955731Y12151021D01*
X15026013Y11959986D01*
X15069955Y11753086D01*
X15089984Y11523632D01*
X15090327Y11514056D01*
X15091391Y11452347D01*
X15092817Y11369610D01*
X15088227Y11249195D01*
G37*
X15088227Y11249195D02*
X15075240Y11141670D01*
X15052542Y11035890D01*
X15018817Y10920714D01*
X14948692Y10742426D01*
X14835378Y10539547D01*
X14694020Y10352542D01*
X14528369Y10184679D01*
X14342176Y10039226D01*
X14139193Y9919450D01*
X13923169Y9828619D01*
X13697857Y9770000D01*
X13538262Y9749621D01*
X13302059Y9747744D01*
X13064989Y9777474D01*
X12835724Y9838124D01*
X12705117Y9888351D01*
X12528135Y9978749D01*
X12360822Y10093851D01*
X12194556Y10239048D01*
X12189904Y10243532D01*
X12029616Y10418698D01*
X11902282Y10603850D01*
X11832402Y10747579D01*
X12183693Y10747579D01*
X12207568Y10700785D01*
X12252539Y10638332D01*
X12315663Y10564332D01*
X12393995Y10482895D01*
X12396648Y10480283D01*
X12531326Y10358738D01*
X12664386Y10263399D01*
X12807548Y10186957D01*
X12972535Y10122103D01*
X13007764Y10110913D01*
X13069111Y10096206D01*
X13139579Y10086127D01*
X13228217Y10079538D01*
X13344072Y10075299D01*
X13452452Y10073818D01*
X13577948Y10077885D01*
X13684907Y10090810D01*
X13783375Y10114556D01*
X13883396Y10151081D01*
X13995015Y10202346D01*
X14032274Y10221239D01*
X14225274Y10341601D01*
X14392369Y10487255D01*
X14534253Y10658895D01*
X14651621Y10857214D01*
X14702522Y10970357D01*
X14750672Y11119589D01*
X14777568Y11275972D01*
X14786114Y11452347D01*
X14786026Y11468139D01*
X14782101Y11556544D01*
X14773288Y11648325D01*
X14760877Y11735558D01*
X14746154Y11810314D01*
X14730406Y11864671D01*
X14714921Y11890700D01*
X14714554Y11890775D01*
X14693369Y11883906D01*
X14643495Y11864240D01*
X14569020Y11833552D01*
X14474031Y11793618D01*
X14362615Y11746213D01*
X14238860Y11693113D01*
X14106855Y11636093D01*
X13970685Y11576929D01*
X13834440Y11517397D01*
X13702207Y11459272D01*
X13578074Y11404330D01*
X13466127Y11354346D01*
X13370455Y11311095D01*
X13295145Y11276354D01*
X13244286Y11251898D01*
X13220677Y11239395D01*
X13193860Y11217487D01*
X13182891Y11185870D01*
X13180786Y11131280D01*
X13180786Y11130263D01*
X13184294Y11072233D01*
X13198228Y11035939D01*
X13227917Y11007371D01*
X13280592Y10982618D01*
X13362174Y10971343D01*
X13455703Y10977921D01*
X13551567Y11000738D01*
X13640156Y11038180D01*
X13711860Y11088633D01*
X13753529Y11127778D01*
X13874149Y11007159D01*
X13994769Y10886539D01*
X13950634Y10849403D01*
X13886539Y10804317D01*
X13788090Y10753186D01*
X13683325Y10713560D01*
X13588334Y10692411D01*
X13481642Y10680340D01*
X13471072Y10421786D01*
X13275747Y10421786D01*
X13273624Y10547546D01*
X13271500Y10673306D01*
X13185792Y10695225D01*
X13067069Y10738825D01*
X12960592Y10806383D01*
X12878131Y10891762D01*
X12825300Y10990365D01*
X12823542Y10995274D01*
X12806537Y11032469D01*
X12792653Y11047714D01*
X12771091Y11040648D01*
X12723151Y11021208D01*
X12655484Y10992354D01*
X12574700Y10957045D01*
X12487405Y10918242D01*
X12400208Y10878903D01*
X12319718Y10841988D01*
X12252543Y10810456D01*
X12205290Y10787268D01*
X12184569Y10775381D01*
X12183858Y10774604D01*
X12183693Y10747579D01*
X11832402Y10747579D01*
X11804977Y10803986D01*
X11734772Y11024104D01*
X11724545Y11070016D01*
X11702830Y11221650D01*
X11693034Y11390358D01*
X11694288Y11492907D01*
X11997473Y11492907D01*
X11999989Y11314265D01*
X12022171Y11152036D01*
X12035258Y11117817D01*
X12053508Y11102531D01*
X12054351Y11102651D01*
X12078909Y11111612D01*
X12131911Y11133502D01*
X12209250Y11166492D01*
X12306816Y11208752D01*
X12420499Y11258453D01*
X12546191Y11313764D01*
X12679782Y11372858D01*
X12817163Y11433904D01*
X12954225Y11495073D01*
X13086858Y11554536D01*
X13210954Y11610462D01*
X13322404Y11661024D01*
X13417097Y11704390D01*
X13490925Y11738733D01*
X13539780Y11762221D01*
X13559550Y11773027D01*
X13567080Y11795936D01*
X13563440Y11836796D01*
X13541866Y11876481D01*
X13490805Y11911104D01*
X13419078Y11929512D01*
X13333525Y11930989D01*
X13240987Y11914818D01*
X13148304Y11880283D01*
X13062379Y11838537D01*
X12843617Y12054643D01*
X12893615Y12094703D01*
X12900416Y12099867D01*
X12960686Y12134466D01*
X13041556Y12168976D01*
X13129886Y12198338D01*
X13212536Y12217492D01*
X13280572Y12228644D01*
X13280572Y12481000D01*
X13480143Y12481000D01*
X13480143Y12354346D01*
X13480231Y12320343D01*
X13482150Y12267453D01*
X13489003Y12238300D01*
X13503921Y12224245D01*
X13530036Y12216645D01*
X13590204Y12201222D01*
X13717212Y12150016D01*
X13813521Y12080262D01*
X13878740Y11992213D01*
X13915466Y11920224D01*
X14119626Y12011080D01*
X14195024Y12044548D01*
X14288871Y12086009D01*
X14373509Y12123202D01*
X14436978Y12150861D01*
X14437456Y12151068D01*
X14494278Y12178385D01*
X14534834Y12203069D01*
X14550370Y12219798D01*
X14537662Y12247075D01*
X14502369Y12292246D01*
X14449972Y12349813D01*
X14385956Y12414424D01*
X14315806Y12480730D01*
X14245006Y12543380D01*
X14179043Y12597024D01*
X14123399Y12636312D01*
X14094134Y12654011D01*
X13901339Y12746978D01*
X13695585Y12809119D01*
X13482437Y12839978D01*
X13267457Y12839100D01*
X13056208Y12806028D01*
X12854252Y12740307D01*
X12694805Y12658762D01*
X12529478Y12542488D01*
X12378527Y12403372D01*
X12247428Y12247210D01*
X12141659Y12079798D01*
X12066697Y11906931D01*
X12048247Y11845230D01*
X12013826Y11674412D01*
X11997473Y11492907D01*
X11694288Y11492907D01*
X11695149Y11563346D01*
X11709172Y11727819D01*
X11735098Y11870983D01*
X11746903Y11915855D01*
X11829330Y12146233D01*
X11943435Y12360326D01*
X12087523Y12555769D01*
X12259901Y12730197D01*
X12458874Y12881245D01*
X12562162Y12942988D01*
X12773759Y13038957D01*
X13000036Y13105843D01*
X13235503Y13142952D01*
X13474671Y13149590D01*
X13712051Y13125064D01*
X13942154Y13068681D01*
X14058511Y13024483D01*
X14242682Y12929061D01*
X14421717Y12806616D01*
X14588261Y12662408D01*
X14734957Y12501698D01*
X14856681Y12332877D01*
X14918271Y12219798D01*
X14955731Y12151021D01*
X15026013Y11959986D01*
X15069955Y11753086D01*
X15089984Y11523632D01*
X15090327Y11514056D01*
X15091391Y11452347D01*
X15092817Y11369610D01*
X15088227Y11249195D01*
G36*
X11429089Y11383870D02*
G01*
X11404270Y11137411D01*
X11345709Y10904121D01*
X11253632Y10684569D01*
X11128265Y10479322D01*
X10969835Y10288946D01*
X10891194Y10210722D01*
X10706819Y10057356D01*
X10510912Y9935978D01*
X10298513Y9843789D01*
X10064660Y9777988D01*
X10007783Y9767267D01*
X9839739Y9750121D01*
X9658223Y9749276D01*
X9476846Y9764422D01*
X9309218Y9795247D01*
X9204427Y9825218D01*
X8989345Y9912385D01*
X8784429Y10029275D01*
X8595614Y10171691D01*
X8428835Y10335432D01*
X8290024Y10516302D01*
X8248260Y10584049D01*
X8146670Y10792847D01*
X8075069Y11014856D01*
X8033492Y11245318D01*
X8021971Y11479479D01*
X8027478Y11548619D01*
X8332957Y11548619D01*
X8335689Y11337655D01*
X8367184Y11129351D01*
X8426438Y10931341D01*
X8512448Y10751261D01*
X8551206Y10689883D01*
X8677551Y10531335D01*
X8829565Y10388321D01*
X9000378Y10266018D01*
X9183122Y10169601D01*
X9370929Y10104249D01*
X9413797Y10094249D01*
X9575222Y10069781D01*
X9744650Y10061321D01*
X9902501Y10070128D01*
X9923211Y10072847D01*
X10129302Y10119374D01*
X10325502Y10198100D01*
X10508245Y10305759D01*
X10673967Y10439082D01*
X10819103Y10594800D01*
X10940087Y10769645D01*
X11033355Y10960350D01*
X11095341Y11163645D01*
X11101280Y11194329D01*
X11115242Y11318146D01*
X11118746Y11457047D01*
X11112244Y11598449D01*
X11096189Y11729774D01*
X11071035Y11838438D01*
X11062820Y11863441D01*
X10977292Y12061828D01*
X10861495Y12247938D01*
X10719951Y12416294D01*
X10557183Y12561421D01*
X10377715Y12677842D01*
X10344731Y12695173D01*
X10199749Y12759820D01*
X10055752Y12802577D01*
X9901205Y12826192D01*
X9724572Y12833413D01*
X9715576Y12833400D01*
X9571368Y12829183D01*
X9449557Y12815436D01*
X9337540Y12789260D01*
X9222715Y12747756D01*
X9092481Y12688027D01*
X8977608Y12623496D01*
X8812040Y12499507D01*
X8664184Y12350598D01*
X8538666Y12182408D01*
X8440107Y12000577D01*
X8373134Y11810744D01*
X8359993Y11754610D01*
X8332957Y11548619D01*
X8027478Y11548619D01*
X8040539Y11712583D01*
X8089231Y11939874D01*
X8168079Y12156595D01*
X8277117Y12357993D01*
X8408055Y12535844D01*
X8576704Y12711777D01*
X8765393Y12860684D01*
X8970738Y12979938D01*
X9189357Y13066909D01*
X9324011Y13103490D01*
X9569158Y13142935D01*
X9812193Y13148227D01*
X10050101Y13120259D01*
X10279871Y13059925D01*
X10498488Y12968119D01*
X10702942Y12845734D01*
X10890217Y12693665D01*
X11057303Y12512804D01*
X11188604Y12328645D01*
X11296570Y12125866D01*
X11371745Y11913631D01*
X11415698Y11687432D01*
X11429165Y11457047D01*
X11430000Y11442760D01*
X11429089Y11383870D01*
G37*
X11429089Y11383870D02*
X11404270Y11137411D01*
X11345709Y10904121D01*
X11253632Y10684569D01*
X11128265Y10479322D01*
X10969835Y10288946D01*
X10891194Y10210722D01*
X10706819Y10057356D01*
X10510912Y9935978D01*
X10298513Y9843789D01*
X10064660Y9777988D01*
X10007783Y9767267D01*
X9839739Y9750121D01*
X9658223Y9749276D01*
X9476846Y9764422D01*
X9309218Y9795247D01*
X9204427Y9825218D01*
X8989345Y9912385D01*
X8784429Y10029275D01*
X8595614Y10171691D01*
X8428835Y10335432D01*
X8290024Y10516302D01*
X8248260Y10584049D01*
X8146670Y10792847D01*
X8075069Y11014856D01*
X8033492Y11245318D01*
X8021971Y11479479D01*
X8027478Y11548619D01*
X8332957Y11548619D01*
X8335689Y11337655D01*
X8367184Y11129351D01*
X8426438Y10931341D01*
X8512448Y10751261D01*
X8551206Y10689883D01*
X8677551Y10531335D01*
X8829565Y10388321D01*
X9000378Y10266018D01*
X9183122Y10169601D01*
X9370929Y10104249D01*
X9413797Y10094249D01*
X9575222Y10069781D01*
X9744650Y10061321D01*
X9902501Y10070128D01*
X9923211Y10072847D01*
X10129302Y10119374D01*
X10325502Y10198100D01*
X10508245Y10305759D01*
X10673967Y10439082D01*
X10819103Y10594800D01*
X10940087Y10769645D01*
X11033355Y10960350D01*
X11095341Y11163645D01*
X11101280Y11194329D01*
X11115242Y11318146D01*
X11118746Y11457047D01*
X11112244Y11598449D01*
X11096189Y11729774D01*
X11071035Y11838438D01*
X11062820Y11863441D01*
X10977292Y12061828D01*
X10861495Y12247938D01*
X10719951Y12416294D01*
X10557183Y12561421D01*
X10377715Y12677842D01*
X10344731Y12695173D01*
X10199749Y12759820D01*
X10055752Y12802577D01*
X9901205Y12826192D01*
X9724572Y12833413D01*
X9715576Y12833400D01*
X9571368Y12829183D01*
X9449557Y12815436D01*
X9337540Y12789260D01*
X9222715Y12747756D01*
X9092481Y12688027D01*
X8977608Y12623496D01*
X8812040Y12499507D01*
X8664184Y12350598D01*
X8538666Y12182408D01*
X8440107Y12000577D01*
X8373134Y11810744D01*
X8359993Y11754610D01*
X8332957Y11548619D01*
X8027478Y11548619D01*
X8040539Y11712583D01*
X8089231Y11939874D01*
X8168079Y12156595D01*
X8277117Y12357993D01*
X8408055Y12535844D01*
X8576704Y12711777D01*
X8765393Y12860684D01*
X8970738Y12979938D01*
X9189357Y13066909D01*
X9324011Y13103490D01*
X9569158Y13142935D01*
X9812193Y13148227D01*
X10050101Y13120259D01*
X10279871Y13059925D01*
X10498488Y12968119D01*
X10702942Y12845734D01*
X10890217Y12693665D01*
X11057303Y12512804D01*
X11188604Y12328645D01*
X11296570Y12125866D01*
X11371745Y11913631D01*
X11415698Y11687432D01*
X11429165Y11457047D01*
X11430000Y11442760D01*
X11429089Y11383870D01*
G36*
X17182983Y11972744D02*
G01*
X17286921Y11971688D01*
X17363652Y11969505D01*
X17417890Y11965868D01*
X17454354Y11960451D01*
X17477759Y11952929D01*
X17492822Y11942974D01*
X17492952Y11942856D01*
X17504213Y11929717D01*
X17512602Y11910289D01*
X17518533Y11879571D01*
X17522423Y11832566D01*
X17524688Y11764273D01*
X17525741Y11669694D01*
X17526000Y11543831D01*
X17526000Y11174714D01*
X17326429Y11174714D01*
X17326429Y10340143D01*
X16800286Y10340143D01*
X16800286Y11174714D01*
X16600715Y11174714D01*
X16600715Y11545347D01*
X16600780Y11605441D01*
X16601547Y11719593D01*
X16603449Y11804319D01*
X16606826Y11864396D01*
X16612020Y11904600D01*
X16619373Y11929706D01*
X16629225Y11944490D01*
X16639096Y11951826D01*
X16660315Y11959563D01*
X16694911Y11965211D01*
X16747467Y11969075D01*
X16822561Y11971458D01*
X16924775Y11972665D01*
X17058689Y11973000D01*
X17182983Y11972744D01*
G37*
X17182983Y11972744D02*
X17286921Y11971688D01*
X17363652Y11969505D01*
X17417890Y11965868D01*
X17454354Y11960451D01*
X17477759Y11952929D01*
X17492822Y11942974D01*
X17492952Y11942856D01*
X17504213Y11929717D01*
X17512602Y11910289D01*
X17518533Y11879571D01*
X17522423Y11832566D01*
X17524688Y11764273D01*
X17525741Y11669694D01*
X17526000Y11543831D01*
X17526000Y11174714D01*
X17326429Y11174714D01*
X17326429Y10340143D01*
X16800286Y10340143D01*
X16800286Y11174714D01*
X16600715Y11174714D01*
X16600715Y11545347D01*
X16600780Y11605441D01*
X16601547Y11719593D01*
X16603449Y11804319D01*
X16606826Y11864396D01*
X16612020Y11904600D01*
X16619373Y11929706D01*
X16629225Y11944490D01*
X16639096Y11951826D01*
X16660315Y11959563D01*
X16694911Y11965211D01*
X16747467Y11969075D01*
X16822561Y11971458D01*
X16924775Y11972665D01*
X17058689Y11973000D01*
X17182983Y11972744D01*
G36*
X17168279Y12528325D02*
G01*
X17238444Y12481061D01*
X17262101Y12455111D01*
X17280276Y12422618D01*
X17288325Y12379308D01*
X17290143Y12312485D01*
X17286664Y12248464D01*
X17265596Y12169563D01*
X17223336Y12115778D01*
X17157466Y12082925D01*
X17137774Y12077956D01*
X17056263Y12072523D01*
X16974456Y12085972D01*
X16909155Y12116061D01*
X16903794Y12120164D01*
X16855287Y12179933D01*
X16828425Y12257509D01*
X16823920Y12341987D01*
X16842485Y12422461D01*
X16884833Y12488028D01*
X16921066Y12516401D01*
X16998829Y12546206D01*
X17084821Y12550110D01*
X17168279Y12528325D01*
G37*
X17168279Y12528325D02*
X17238444Y12481061D01*
X17262101Y12455111D01*
X17280276Y12422618D01*
X17288325Y12379308D01*
X17290143Y12312485D01*
X17286664Y12248464D01*
X17265596Y12169563D01*
X17223336Y12115778D01*
X17157466Y12082925D01*
X17137774Y12077956D01*
X17056263Y12072523D01*
X16974456Y12085972D01*
X16909155Y12116061D01*
X16903794Y12120164D01*
X16855287Y12179933D01*
X16828425Y12257509D01*
X16823920Y12341987D01*
X16842485Y12422461D01*
X16884833Y12488028D01*
X16921066Y12516401D01*
X16998829Y12546206D01*
X17084821Y12550110D01*
X17168279Y12528325D01*
G36*
X9868679Y12332763D02*
G01*
X9976686Y12311445D01*
X10088281Y12268223D01*
X10217054Y12186910D01*
X10323387Y12077870D01*
X10408012Y11940308D01*
X10471661Y11773429D01*
X10475478Y11760733D01*
X10493536Y11715297D01*
X10516850Y11692831D01*
X10555202Y11682714D01*
X10614761Y11673643D01*
X10450880Y11510735D01*
X10287000Y11347828D01*
X10123162Y11510735D01*
X10118386Y11515484D01*
X10052869Y11581041D01*
X10010141Y11625738D01*
X9987334Y11653932D01*
X9981582Y11669984D01*
X9990016Y11678251D01*
X10009769Y11683092D01*
X10025904Y11686725D01*
X10051873Y11703198D01*
X10054320Y11737521D01*
X10047274Y11767371D01*
X10012353Y11836815D01*
X9959282Y11900252D01*
X9898538Y11943806D01*
X9866528Y11957452D01*
X9753630Y11984526D01*
X9639675Y11983149D01*
X9533517Y11954204D01*
X9444013Y11898571D01*
X9425054Y11880105D01*
X9367879Y11796115D01*
X9326724Y11688909D01*
X9302163Y11566048D01*
X9294767Y11435090D01*
X9305108Y11303595D01*
X9333757Y11179121D01*
X9381286Y11069228D01*
X9420268Y11009712D01*
X9496344Y10934015D01*
X9586939Y10890055D01*
X9695570Y10875663D01*
X9745399Y10876768D01*
X9810393Y10881676D01*
X9855775Y10889227D01*
X9888027Y10901450D01*
X9959733Y10950382D01*
X10018628Y11018830D01*
X10053569Y11095190D01*
X10073594Y11174714D01*
X10501442Y11174714D01*
X10478920Y11079464D01*
X10453496Y10994692D01*
X10383777Y10853208D01*
X10287239Y10731706D01*
X10167840Y10633836D01*
X10029537Y10563246D01*
X9876285Y10523588D01*
X9826772Y10517693D01*
X9646488Y10517635D01*
X9475060Y10551039D01*
X9316019Y10616560D01*
X9172895Y10712853D01*
X9049218Y10838576D01*
X9012173Y10888342D01*
X8930170Y11039125D01*
X8878329Y11207444D01*
X8857367Y11390343D01*
X8868003Y11584868D01*
X8893891Y11714251D01*
X8954063Y11876952D01*
X9040483Y12020252D01*
X9150543Y12140837D01*
X9281637Y12235394D01*
X9431156Y12300608D01*
X9483964Y12314657D01*
X9608337Y12334092D01*
X9741236Y12340219D01*
X9868679Y12332763D01*
G37*
X9868679Y12332763D02*
X9976686Y12311445D01*
X10088281Y12268223D01*
X10217054Y12186910D01*
X10323387Y12077870D01*
X10408012Y11940308D01*
X10471661Y11773429D01*
X10475478Y11760733D01*
X10493536Y11715297D01*
X10516850Y11692831D01*
X10555202Y11682714D01*
X10614761Y11673643D01*
X10450880Y11510735D01*
X10287000Y11347828D01*
X10123162Y11510735D01*
X10118386Y11515484D01*
X10052869Y11581041D01*
X10010141Y11625738D01*
X9987334Y11653932D01*
X9981582Y11669984D01*
X9990016Y11678251D01*
X10009769Y11683092D01*
X10025904Y11686725D01*
X10051873Y11703198D01*
X10054320Y11737521D01*
X10047274Y11767371D01*
X10012353Y11836815D01*
X9959282Y11900252D01*
X9898538Y11943806D01*
X9866528Y11957452D01*
X9753630Y11984526D01*
X9639675Y11983149D01*
X9533517Y11954204D01*
X9444013Y11898571D01*
X9425054Y11880105D01*
X9367879Y11796115D01*
X9326724Y11688909D01*
X9302163Y11566048D01*
X9294767Y11435090D01*
X9305108Y11303595D01*
X9333757Y11179121D01*
X9381286Y11069228D01*
X9420268Y11009712D01*
X9496344Y10934015D01*
X9586939Y10890055D01*
X9695570Y10875663D01*
X9745399Y10876768D01*
X9810393Y10881676D01*
X9855775Y10889227D01*
X9888027Y10901450D01*
X9959733Y10950382D01*
X10018628Y11018830D01*
X10053569Y11095190D01*
X10073594Y11174714D01*
X10501442Y11174714D01*
X10478920Y11079464D01*
X10453496Y10994692D01*
X10383777Y10853208D01*
X10287239Y10731706D01*
X10167840Y10633836D01*
X10029537Y10563246D01*
X9876285Y10523588D01*
X9826772Y10517693D01*
X9646488Y10517635D01*
X9475060Y10551039D01*
X9316019Y10616560D01*
X9172895Y10712853D01*
X9049218Y10838576D01*
X9012173Y10888342D01*
X8930170Y11039125D01*
X8878329Y11207444D01*
X8857367Y11390343D01*
X8868003Y11584868D01*
X8893891Y11714251D01*
X8954063Y11876952D01*
X9040483Y12020252D01*
X9150543Y12140837D01*
X9281637Y12235394D01*
X9431156Y12300608D01*
X9483964Y12314657D01*
X9608337Y12334092D01*
X9741236Y12340219D01*
X9868679Y12332763D01*
%TD*%
%LPC*%
D12*
%TO.C,Q1*%
X4330000Y14040000D03*
D13*
X5600000Y14040000D03*
X6870000Y14040000D03*
%TD*%
D12*
%TO.C,Q3*%
X18930000Y14040000D03*
D13*
X20200000Y14040000D03*
X21470000Y14040000D03*
%TD*%
D14*
%TO.C,J1*%
X2500000Y2000000D03*
D15*
X2500000Y4540000D03*
X2500000Y7080000D03*
X2500000Y9620000D03*
%TD*%
D14*
%TO.C,J2*%
X27900000Y2000000D03*
D15*
X27900000Y4540000D03*
X27900000Y7080000D03*
X27900000Y9620000D03*
%TD*%
D12*
%TO.C,Q2*%
X11500000Y14040000D03*
D13*
X12770000Y14040000D03*
X14040000Y14040000D03*
%TD*%
D14*
%TO.C,J3*%
X7500000Y2000000D03*
D15*
X7500000Y4540000D03*
X7500000Y7080000D03*
X7500000Y9620000D03*
%TD*%
D14*
%TO.C,J4*%
X22900000Y2000000D03*
D15*
X22900000Y4540000D03*
X22900000Y7080000D03*
X22900000Y9620000D03*
%TD*%
D12*
%TO.C,Q4*%
X26430000Y14040000D03*
D13*
X27700000Y14040000D03*
X28970000Y14040000D03*
%TD*%
M02*
