%TF.GenerationSoftware,KiCad,Pcbnew,6.0.11-2627ca5db0~126~ubuntu22.04.1*%
%TF.CreationDate,2023-09-03T11:16:54+02:00*%
%TF.ProjectId,4Bit_I2C_Port_Expander_Module_FUEL4EP,34426974-5f49-4324-935f-506f72745f45,V1.0*%
%TF.SameCoordinates,Original*%
%TF.FileFunction,Legend,Top*%
%TF.FilePolarity,Positive*%
%FSLAX46Y46*%
G04 Gerber Fmt 4.6, Leading zero omitted, Abs format (unit mm)*
G04 Created by KiCad (PCBNEW 6.0.11-2627ca5db0~126~ubuntu22.04.1) date 2023-09-03 11:16:54*
%MOMM*%
%LPD*%
G01*
G04 APERTURE LIST*
G04 Aperture macros list*
%AMRoundRect*
0 Rectangle with rounded corners*
0 $1 Rounding radius*
0 $2 $3 $4 $5 $6 $7 $8 $9 X,Y pos of 4 corners*
0 Add a 4 corners polygon primitive as box body*
4,1,4,$2,$3,$4,$5,$6,$7,$8,$9,$2,$3,0*
0 Add four circle primitives for the rounded corners*
1,1,$1+$1,$2,$3*
1,1,$1+$1,$4,$5*
1,1,$1+$1,$6,$7*
1,1,$1+$1,$8,$9*
0 Add four rect primitives between the rounded corners*
20,1,$1+$1,$2,$3,$4,$5,0*
20,1,$1+$1,$4,$5,$6,$7,0*
20,1,$1+$1,$6,$7,$8,$9,0*
20,1,$1+$1,$8,$9,$2,$3,0*%
G04 Aperture macros list end*
%ADD10C,0.226200*%
%ADD11C,0.150000*%
%ADD12C,0.152400*%
%ADD13C,0.120000*%
%ADD14R,1.050000X1.500000*%
%ADD15O,1.050000X1.500000*%
%ADD16RoundRect,0.135000X0.185000X-0.135000X0.185000X0.135000X-0.185000X0.135000X-0.185000X-0.135000X0*%
%ADD17RoundRect,0.140000X0.140000X0.170000X-0.140000X0.170000X-0.140000X-0.170000X0.140000X-0.170000X0*%
%ADD18R,1.700000X1.700000*%
%ADD19O,1.700000X1.700000*%
%ADD20RoundRect,0.150000X-0.825000X-0.150000X0.825000X-0.150000X0.825000X0.150000X-0.825000X0.150000X0*%
%ADD21RoundRect,0.225000X0.225000X0.250000X-0.225000X0.250000X-0.225000X-0.250000X0.225000X-0.250000X0*%
%ADD22RoundRect,0.135000X-0.135000X-0.185000X0.135000X-0.185000X0.135000X0.185000X-0.135000X0.185000X0*%
%ADD23RoundRect,0.135000X0.135000X0.185000X-0.135000X0.185000X-0.135000X-0.185000X0.135000X-0.185000X0*%
G04 APERTURE END LIST*
D10*
X11543100Y8417000D02*
G75*
G03*
X11543100Y8417000I-113100J0D01*
G01*
D11*
X4119666Y6736666D02*
X4219666Y6703333D01*
X4386333Y6703333D01*
X4453000Y6736666D01*
X4486333Y6770000D01*
X4519666Y6836666D01*
X4519666Y6903333D01*
X4486333Y6970000D01*
X4453000Y7003333D01*
X4386333Y7036666D01*
X4253000Y7070000D01*
X4186333Y7103333D01*
X4153000Y7136666D01*
X4119666Y7203333D01*
X4119666Y7270000D01*
X4153000Y7336666D01*
X4186333Y7370000D01*
X4253000Y7403333D01*
X4419666Y7403333D01*
X4519666Y7370000D01*
X5219666Y6770000D02*
X5186333Y6736666D01*
X5086333Y6703333D01*
X5019666Y6703333D01*
X4919666Y6736666D01*
X4853000Y6803333D01*
X4819666Y6870000D01*
X4786333Y7003333D01*
X4786333Y7103333D01*
X4819666Y7236666D01*
X4853000Y7303333D01*
X4919666Y7370000D01*
X5019666Y7403333D01*
X5086333Y7403333D01*
X5186333Y7370000D01*
X5219666Y7336666D01*
X5853000Y6703333D02*
X5519666Y6703333D01*
X5519666Y7403333D01*
X24550000Y9276666D02*
X24650000Y9243333D01*
X24816666Y9243333D01*
X24883333Y9276666D01*
X24916666Y9310000D01*
X24950000Y9376666D01*
X24950000Y9443333D01*
X24916666Y9510000D01*
X24883333Y9543333D01*
X24816666Y9576666D01*
X24683333Y9610000D01*
X24616666Y9643333D01*
X24583333Y9676666D01*
X24550000Y9743333D01*
X24550000Y9810000D01*
X24583333Y9876666D01*
X24616666Y9910000D01*
X24683333Y9943333D01*
X24850000Y9943333D01*
X24950000Y9910000D01*
X25250000Y9243333D02*
X25250000Y9943333D01*
X25416666Y9943333D01*
X25516666Y9910000D01*
X25583333Y9843333D01*
X25616666Y9776666D01*
X25650000Y9643333D01*
X25650000Y9543333D01*
X25616666Y9410000D01*
X25583333Y9343333D01*
X25516666Y9276666D01*
X25416666Y9243333D01*
X25250000Y9243333D01*
X25916666Y9443333D02*
X26250000Y9443333D01*
X25850000Y9243333D02*
X26083333Y9943333D01*
X26316666Y9243333D01*
X9333000Y1678833D02*
X9333000Y2378833D01*
X9799666Y2378833D02*
X9933000Y2378833D01*
X9999666Y2345500D01*
X10066333Y2278833D01*
X10099666Y2145500D01*
X10099666Y1912166D01*
X10066333Y1778833D01*
X9999666Y1712166D01*
X9933000Y1678833D01*
X9799666Y1678833D01*
X9733000Y1712166D01*
X9666333Y1778833D01*
X9633000Y1912166D01*
X9633000Y2145500D01*
X9666333Y2278833D01*
X9733000Y2345500D01*
X9799666Y2378833D01*
X10533000Y2378833D02*
X10599666Y2378833D01*
X10666333Y2345500D01*
X10699666Y2312166D01*
X10733000Y2245500D01*
X10766333Y2112166D01*
X10766333Y1945500D01*
X10733000Y1812166D01*
X10699666Y1745500D01*
X10666333Y1712166D01*
X10599666Y1678833D01*
X10533000Y1678833D01*
X10466333Y1712166D01*
X10433000Y1745500D01*
X10399666Y1812166D01*
X10366333Y1945500D01*
X10366333Y2112166D01*
X10399666Y2245500D01*
X10433000Y2312166D01*
X10466333Y2345500D01*
X10533000Y2378833D01*
X9333000Y6703333D02*
X9333000Y7403333D01*
X9799666Y7403333D02*
X9933000Y7403333D01*
X9999666Y7370000D01*
X10066333Y7303333D01*
X10099666Y7170000D01*
X10099666Y6936666D01*
X10066333Y6803333D01*
X9999666Y6736666D01*
X9933000Y6703333D01*
X9799666Y6703333D01*
X9733000Y6736666D01*
X9666333Y6803333D01*
X9633000Y6936666D01*
X9633000Y7170000D01*
X9666333Y7303333D01*
X9733000Y7370000D01*
X9799666Y7403333D01*
X10366333Y7336666D02*
X10399666Y7370000D01*
X10466333Y7403333D01*
X10633000Y7403333D01*
X10699666Y7370000D01*
X10733000Y7336666D01*
X10766333Y7270000D01*
X10766333Y7203333D01*
X10733000Y7103333D01*
X10333000Y6703333D01*
X10766333Y6703333D01*
X24866666Y4830000D02*
X24800000Y4863333D01*
X24700000Y4863333D01*
X24600000Y4830000D01*
X24533333Y4763333D01*
X24500000Y4696666D01*
X24466666Y4563333D01*
X24466666Y4463333D01*
X24500000Y4330000D01*
X24533333Y4263333D01*
X24600000Y4196666D01*
X24700000Y4163333D01*
X24766666Y4163333D01*
X24866666Y4196666D01*
X24900000Y4230000D01*
X24900000Y4463333D01*
X24766666Y4463333D01*
X25200000Y4163333D02*
X25200000Y4863333D01*
X25600000Y4163333D01*
X25600000Y4863333D01*
X25933333Y4163333D02*
X25933333Y4863333D01*
X26100000Y4863333D01*
X26200000Y4830000D01*
X26266666Y4763333D01*
X26300000Y4696666D01*
X26333333Y4563333D01*
X26333333Y4463333D01*
X26300000Y4330000D01*
X26266666Y4263333D01*
X26200000Y4196666D01*
X26100000Y4163333D01*
X25933333Y4163333D01*
X4419666Y4830000D02*
X4353000Y4863333D01*
X4253000Y4863333D01*
X4153000Y4830000D01*
X4086333Y4763333D01*
X4053000Y4696666D01*
X4019666Y4563333D01*
X4019666Y4463333D01*
X4053000Y4330000D01*
X4086333Y4263333D01*
X4153000Y4196666D01*
X4253000Y4163333D01*
X4319666Y4163333D01*
X4419666Y4196666D01*
X4453000Y4230000D01*
X4453000Y4463333D01*
X4319666Y4463333D01*
X4753000Y4163333D02*
X4753000Y4863333D01*
X5153000Y4163333D01*
X5153000Y4863333D01*
X5486333Y4163333D02*
X5486333Y4863333D01*
X5653000Y4863333D01*
X5753000Y4830000D01*
X5819666Y4763333D01*
X5853000Y4696666D01*
X5886333Y4563333D01*
X5886333Y4463333D01*
X5853000Y4330000D01*
X5819666Y4263333D01*
X5753000Y4196666D01*
X5653000Y4163333D01*
X5486333Y4163333D01*
X24566666Y6736666D02*
X24666666Y6703333D01*
X24833333Y6703333D01*
X24900000Y6736666D01*
X24933333Y6770000D01*
X24966666Y6836666D01*
X24966666Y6903333D01*
X24933333Y6970000D01*
X24900000Y7003333D01*
X24833333Y7036666D01*
X24700000Y7070000D01*
X24633333Y7103333D01*
X24600000Y7136666D01*
X24566666Y7203333D01*
X24566666Y7270000D01*
X24600000Y7336666D01*
X24633333Y7370000D01*
X24700000Y7403333D01*
X24866666Y7403333D01*
X24966666Y7370000D01*
X25666666Y6770000D02*
X25633333Y6736666D01*
X25533333Y6703333D01*
X25466666Y6703333D01*
X25366666Y6736666D01*
X25300000Y6803333D01*
X25266666Y6870000D01*
X25233333Y7003333D01*
X25233333Y7103333D01*
X25266666Y7236666D01*
X25300000Y7303333D01*
X25366666Y7370000D01*
X25466666Y7403333D01*
X25533333Y7403333D01*
X25633333Y7370000D01*
X25666666Y7336666D01*
X26300000Y6703333D02*
X25966666Y6703333D01*
X25966666Y7403333D01*
D12*
X10207085Y11274171D02*
X10207085Y10732304D01*
X10013561Y11583809D02*
X9820038Y11003238D01*
X10323200Y11003238D01*
X10903771Y11158057D02*
X11019885Y11119352D01*
X11058590Y11080647D01*
X11097295Y11003238D01*
X11097295Y10887123D01*
X11058590Y10809714D01*
X11019885Y10771009D01*
X10942476Y10732304D01*
X10632838Y10732304D01*
X10632838Y11545104D01*
X10903771Y11545104D01*
X10981180Y11506400D01*
X11019885Y11467695D01*
X11058590Y11390285D01*
X11058590Y11312876D01*
X11019885Y11235466D01*
X10981180Y11196761D01*
X10903771Y11158057D01*
X10632838Y11158057D01*
X11445638Y10732304D02*
X11445638Y11274171D01*
X11445638Y11545104D02*
X11406933Y11506400D01*
X11445638Y11467695D01*
X11484342Y11506400D01*
X11445638Y11545104D01*
X11445638Y11467695D01*
X11716571Y11274171D02*
X12026209Y11274171D01*
X11832685Y11545104D02*
X11832685Y10848419D01*
X11871390Y10771009D01*
X11948800Y10732304D01*
X12026209Y10732304D01*
X12916419Y10732304D02*
X12916419Y11545104D01*
X13226057Y11545104D01*
X13303466Y11506400D01*
X13342171Y11467695D01*
X13380876Y11390285D01*
X13380876Y11274171D01*
X13342171Y11196761D01*
X13303466Y11158057D01*
X13226057Y11119352D01*
X12916419Y11119352D01*
X13845333Y10732304D02*
X13767923Y10771009D01*
X13729219Y10809714D01*
X13690514Y10887123D01*
X13690514Y11119352D01*
X13729219Y11196761D01*
X13767923Y11235466D01*
X13845333Y11274171D01*
X13961447Y11274171D01*
X14038857Y11235466D01*
X14077561Y11196761D01*
X14116266Y11119352D01*
X14116266Y10887123D01*
X14077561Y10809714D01*
X14038857Y10771009D01*
X13961447Y10732304D01*
X13845333Y10732304D01*
X14464609Y10732304D02*
X14464609Y11274171D01*
X14464609Y11119352D02*
X14503314Y11196761D01*
X14542019Y11235466D01*
X14619428Y11274171D01*
X14696838Y11274171D01*
X14851657Y11274171D02*
X15161295Y11274171D01*
X14967771Y11545104D02*
X14967771Y10848419D01*
X15006476Y10771009D01*
X15083885Y10732304D01*
X15161295Y10732304D01*
X15741866Y10771009D02*
X15664457Y10732304D01*
X15509638Y10732304D01*
X15432228Y10771009D01*
X15393523Y10848419D01*
X15393523Y11158057D01*
X15432228Y11235466D01*
X15509638Y11274171D01*
X15664457Y11274171D01*
X15741866Y11235466D01*
X15780571Y11158057D01*
X15780571Y11080647D01*
X15393523Y11003238D01*
X16051504Y10732304D02*
X16477257Y11274171D01*
X16051504Y11274171D02*
X16477257Y10732304D01*
X16786895Y11274171D02*
X16786895Y10461371D01*
X16786895Y11235466D02*
X16864304Y11274171D01*
X17019123Y11274171D01*
X17096533Y11235466D01*
X17135238Y11196761D01*
X17173942Y11119352D01*
X17173942Y10887123D01*
X17135238Y10809714D01*
X17096533Y10771009D01*
X17019123Y10732304D01*
X16864304Y10732304D01*
X16786895Y10771009D01*
X17870628Y10732304D02*
X17870628Y11158057D01*
X17831923Y11235466D01*
X17754514Y11274171D01*
X17599695Y11274171D01*
X17522285Y11235466D01*
X17870628Y10771009D02*
X17793219Y10732304D01*
X17599695Y10732304D01*
X17522285Y10771009D01*
X17483580Y10848419D01*
X17483580Y10925828D01*
X17522285Y11003238D01*
X17599695Y11041942D01*
X17793219Y11041942D01*
X17870628Y11080647D01*
X18257676Y11274171D02*
X18257676Y10732304D01*
X18257676Y11196761D02*
X18296380Y11235466D01*
X18373790Y11274171D01*
X18489904Y11274171D01*
X18567314Y11235466D01*
X18606019Y11158057D01*
X18606019Y10732304D01*
X19341409Y10732304D02*
X19341409Y11545104D01*
X19341409Y10771009D02*
X19264000Y10732304D01*
X19109180Y10732304D01*
X19031771Y10771009D01*
X18993066Y10809714D01*
X18954361Y10887123D01*
X18954361Y11119352D01*
X18993066Y11196761D01*
X19031771Y11235466D01*
X19109180Y11274171D01*
X19264000Y11274171D01*
X19341409Y11235466D01*
X20038095Y10771009D02*
X19960685Y10732304D01*
X19805866Y10732304D01*
X19728457Y10771009D01*
X19689752Y10848419D01*
X19689752Y11158057D01*
X19728457Y11235466D01*
X19805866Y11274171D01*
X19960685Y11274171D01*
X20038095Y11235466D01*
X20076800Y11158057D01*
X20076800Y11080647D01*
X19689752Y11003238D01*
X20425142Y10732304D02*
X20425142Y11274171D01*
X20425142Y11119352D02*
X20463847Y11196761D01*
X20502552Y11235466D01*
X20579961Y11274171D01*
X20657371Y11274171D01*
D11*
X4019666Y2323333D02*
X4253000Y1623333D01*
X4486333Y2323333D01*
X5119666Y1690000D02*
X5086333Y1656666D01*
X4986333Y1623333D01*
X4919666Y1623333D01*
X4819666Y1656666D01*
X4753000Y1723333D01*
X4719666Y1790000D01*
X4686333Y1923333D01*
X4686333Y2023333D01*
X4719666Y2156666D01*
X4753000Y2223333D01*
X4819666Y2290000D01*
X4919666Y2323333D01*
X4986333Y2323333D01*
X5086333Y2290000D01*
X5119666Y2256666D01*
X5819666Y1690000D02*
X5786333Y1656666D01*
X5686333Y1623333D01*
X5619666Y1623333D01*
X5519666Y1656666D01*
X5453000Y1723333D01*
X5419666Y1790000D01*
X5386333Y1923333D01*
X5386333Y2023333D01*
X5419666Y2156666D01*
X5453000Y2223333D01*
X5519666Y2290000D01*
X5619666Y2323333D01*
X5686333Y2323333D01*
X5786333Y2290000D01*
X5819666Y2256666D01*
X19697000Y9943333D02*
X19830333Y9943333D01*
X19897000Y9910000D01*
X19963666Y9843333D01*
X19997000Y9710000D01*
X19997000Y9476666D01*
X19963666Y9343333D01*
X19897000Y9276666D01*
X19830333Y9243333D01*
X19697000Y9243333D01*
X19630333Y9276666D01*
X19563666Y9343333D01*
X19530333Y9476666D01*
X19530333Y9710000D01*
X19563666Y9843333D01*
X19630333Y9910000D01*
X19697000Y9943333D01*
X20697000Y9310000D02*
X20663666Y9276666D01*
X20563666Y9243333D01*
X20497000Y9243333D01*
X20397000Y9276666D01*
X20330333Y9343333D01*
X20297000Y9410000D01*
X20263666Y9543333D01*
X20263666Y9643333D01*
X20297000Y9776666D01*
X20330333Y9843333D01*
X20397000Y9910000D01*
X20497000Y9943333D01*
X20563666Y9943333D01*
X20663666Y9910000D01*
X20697000Y9876666D01*
X20930333Y9943333D02*
X21363666Y9943333D01*
X21130333Y9676666D01*
X21230333Y9676666D01*
X21297000Y9643333D01*
X21330333Y9610000D01*
X21363666Y9543333D01*
X21363666Y9376666D01*
X21330333Y9310000D01*
X21297000Y9276666D01*
X21230333Y9243333D01*
X21030333Y9243333D01*
X20963666Y9276666D01*
X20930333Y9310000D01*
X9333000Y9243333D02*
X9333000Y9943333D01*
X9799666Y9943333D02*
X9933000Y9943333D01*
X9999666Y9910000D01*
X10066333Y9843333D01*
X10099666Y9710000D01*
X10099666Y9476666D01*
X10066333Y9343333D01*
X9999666Y9276666D01*
X9933000Y9243333D01*
X9799666Y9243333D01*
X9733000Y9276666D01*
X9666333Y9343333D01*
X9633000Y9476666D01*
X9633000Y9710000D01*
X9666333Y9843333D01*
X9733000Y9910000D01*
X9799666Y9943333D01*
X10333000Y9943333D02*
X10766333Y9943333D01*
X10533000Y9676666D01*
X10633000Y9676666D01*
X10699666Y9643333D01*
X10733000Y9610000D01*
X10766333Y9543333D01*
X10766333Y9376666D01*
X10733000Y9310000D01*
X10699666Y9276666D01*
X10633000Y9243333D01*
X10433000Y9243333D01*
X10366333Y9276666D01*
X10333000Y9310000D01*
X19697000Y7403333D02*
X19830333Y7403333D01*
X19897000Y7370000D01*
X19963666Y7303333D01*
X19997000Y7170000D01*
X19997000Y6936666D01*
X19963666Y6803333D01*
X19897000Y6736666D01*
X19830333Y6703333D01*
X19697000Y6703333D01*
X19630333Y6736666D01*
X19563666Y6803333D01*
X19530333Y6936666D01*
X19530333Y7170000D01*
X19563666Y7303333D01*
X19630333Y7370000D01*
X19697000Y7403333D01*
X20697000Y6770000D02*
X20663666Y6736666D01*
X20563666Y6703333D01*
X20497000Y6703333D01*
X20397000Y6736666D01*
X20330333Y6803333D01*
X20297000Y6870000D01*
X20263666Y7003333D01*
X20263666Y7103333D01*
X20297000Y7236666D01*
X20330333Y7303333D01*
X20397000Y7370000D01*
X20497000Y7403333D01*
X20563666Y7403333D01*
X20663666Y7370000D01*
X20697000Y7336666D01*
X20963666Y7336666D02*
X20997000Y7370000D01*
X21063666Y7403333D01*
X21230333Y7403333D01*
X21297000Y7370000D01*
X21330333Y7336666D01*
X21363666Y7270000D01*
X21363666Y7203333D01*
X21330333Y7103333D01*
X20930333Y6703333D01*
X21363666Y6703333D01*
X4103000Y9276666D02*
X4203000Y9243333D01*
X4369666Y9243333D01*
X4436333Y9276666D01*
X4469666Y9310000D01*
X4503000Y9376666D01*
X4503000Y9443333D01*
X4469666Y9510000D01*
X4436333Y9543333D01*
X4369666Y9576666D01*
X4236333Y9610000D01*
X4169666Y9643333D01*
X4136333Y9676666D01*
X4103000Y9743333D01*
X4103000Y9810000D01*
X4136333Y9876666D01*
X4169666Y9910000D01*
X4236333Y9943333D01*
X4403000Y9943333D01*
X4503000Y9910000D01*
X4803000Y9243333D02*
X4803000Y9943333D01*
X4969666Y9943333D01*
X5069666Y9910000D01*
X5136333Y9843333D01*
X5169666Y9776666D01*
X5203000Y9643333D01*
X5203000Y9543333D01*
X5169666Y9410000D01*
X5136333Y9343333D01*
X5069666Y9276666D01*
X4969666Y9243333D01*
X4803000Y9243333D01*
X5469666Y9443333D02*
X5803000Y9443333D01*
X5403000Y9243333D02*
X5636333Y9943333D01*
X5869666Y9243333D01*
X19697000Y2378833D02*
X19830333Y2378833D01*
X19897000Y2345500D01*
X19963666Y2278833D01*
X19997000Y2145500D01*
X19997000Y1912166D01*
X19963666Y1778833D01*
X19897000Y1712166D01*
X19830333Y1678833D01*
X19697000Y1678833D01*
X19630333Y1712166D01*
X19563666Y1778833D01*
X19530333Y1912166D01*
X19530333Y2145500D01*
X19563666Y2278833D01*
X19630333Y2345500D01*
X19697000Y2378833D01*
X20697000Y1745500D02*
X20663666Y1712166D01*
X20563666Y1678833D01*
X20497000Y1678833D01*
X20397000Y1712166D01*
X20330333Y1778833D01*
X20297000Y1845500D01*
X20263666Y1978833D01*
X20263666Y2078833D01*
X20297000Y2212166D01*
X20330333Y2278833D01*
X20397000Y2345500D01*
X20497000Y2378833D01*
X20563666Y2378833D01*
X20663666Y2345500D01*
X20697000Y2312166D01*
X21130333Y2378833D02*
X21197000Y2378833D01*
X21263666Y2345500D01*
X21297000Y2312166D01*
X21330333Y2245500D01*
X21363666Y2112166D01*
X21363666Y1945500D01*
X21330333Y1812166D01*
X21297000Y1745500D01*
X21263666Y1712166D01*
X21197000Y1678833D01*
X21130333Y1678833D01*
X21063666Y1712166D01*
X21030333Y1745500D01*
X20997000Y1812166D01*
X20963666Y1945500D01*
X20963666Y2112166D01*
X20997000Y2245500D01*
X21030333Y2312166D01*
X21063666Y2345500D01*
X21130333Y2378833D01*
X24466666Y2323333D02*
X24700000Y1623333D01*
X24933333Y2323333D01*
X25566666Y1690000D02*
X25533333Y1656666D01*
X25433333Y1623333D01*
X25366666Y1623333D01*
X25266666Y1656666D01*
X25200000Y1723333D01*
X25166666Y1790000D01*
X25133333Y1923333D01*
X25133333Y2023333D01*
X25166666Y2156666D01*
X25200000Y2223333D01*
X25266666Y2290000D01*
X25366666Y2323333D01*
X25433333Y2323333D01*
X25533333Y2290000D01*
X25566666Y2256666D01*
X26266666Y1690000D02*
X26233333Y1656666D01*
X26133333Y1623333D01*
X26066666Y1623333D01*
X25966666Y1656666D01*
X25900000Y1723333D01*
X25866666Y1790000D01*
X25833333Y1923333D01*
X25833333Y2023333D01*
X25866666Y2156666D01*
X25900000Y2223333D01*
X25966666Y2290000D01*
X26066666Y2323333D01*
X26133333Y2323333D01*
X26233333Y2290000D01*
X26266666Y2256666D01*
X9333000Y4218833D02*
X9333000Y4918833D01*
X9799666Y4918833D02*
X9933000Y4918833D01*
X9999666Y4885500D01*
X10066333Y4818833D01*
X10099666Y4685500D01*
X10099666Y4452166D01*
X10066333Y4318833D01*
X9999666Y4252166D01*
X9933000Y4218833D01*
X9799666Y4218833D01*
X9733000Y4252166D01*
X9666333Y4318833D01*
X9633000Y4452166D01*
X9633000Y4685500D01*
X9666333Y4818833D01*
X9733000Y4885500D01*
X9799666Y4918833D01*
X10766333Y4218833D02*
X10366333Y4218833D01*
X10566333Y4218833D02*
X10566333Y4918833D01*
X10499666Y4818833D01*
X10433000Y4752166D01*
X10366333Y4718833D01*
X19697000Y4863333D02*
X19830333Y4863333D01*
X19897000Y4830000D01*
X19963666Y4763333D01*
X19997000Y4630000D01*
X19997000Y4396666D01*
X19963666Y4263333D01*
X19897000Y4196666D01*
X19830333Y4163333D01*
X19697000Y4163333D01*
X19630333Y4196666D01*
X19563666Y4263333D01*
X19530333Y4396666D01*
X19530333Y4630000D01*
X19563666Y4763333D01*
X19630333Y4830000D01*
X19697000Y4863333D01*
X20697000Y4230000D02*
X20663666Y4196666D01*
X20563666Y4163333D01*
X20497000Y4163333D01*
X20397000Y4196666D01*
X20330333Y4263333D01*
X20297000Y4330000D01*
X20263666Y4463333D01*
X20263666Y4563333D01*
X20297000Y4696666D01*
X20330333Y4763333D01*
X20397000Y4830000D01*
X20497000Y4863333D01*
X20563666Y4863333D01*
X20663666Y4830000D01*
X20697000Y4796666D01*
X21363666Y4163333D02*
X20963666Y4163333D01*
X21163666Y4163333D02*
X21163666Y4863333D01*
X21097000Y4763333D01*
X21030333Y4696666D01*
X20963666Y4663333D01*
D13*
%TO.C,Q1*%
X3800000Y12190000D02*
X7400000Y12190000D01*
X7438478Y12201522D02*
G75*
G03*
X5600000Y16640000I-1838478J1838478D01*
G01*
X5600000Y16640001D02*
G75*
G03*
X3761522Y12201522I0J-2600001D01*
G01*
%TO.C,Q3*%
X18400000Y12190000D02*
X22000000Y12190000D01*
X22038478Y12201522D02*
G75*
G03*
X20200000Y16640000I-1838478J1838478D01*
G01*
X20200000Y16640001D02*
G75*
G03*
X18361522Y12201522I0J-2600001D01*
G01*
%TO.C,R10*%
X24380000Y15546359D02*
X24380000Y15853641D01*
X23620000Y15546359D02*
X23620000Y15853641D01*
%TO.C,C2*%
X15907836Y9640000D02*
X15692164Y9640000D01*
X15907836Y10360000D02*
X15692164Y10360000D01*
%TO.C,J1*%
X3830000Y3270000D02*
X1170000Y3270000D01*
X3830000Y10950000D02*
X1170000Y10950000D01*
X1170000Y3270000D02*
X1170000Y10950000D01*
X3830000Y2000000D02*
X3830000Y670000D01*
X3830000Y3270000D02*
X3830000Y10950000D01*
X3830000Y670000D02*
X2500000Y670000D01*
%TO.C,U1*%
X15470000Y4040000D02*
X17420000Y4040000D01*
X15470000Y9160000D02*
X17420000Y9160000D01*
X15470000Y4040000D02*
X13520000Y4040000D01*
X15470000Y9160000D02*
X12020000Y9160000D01*
%TO.C,C1*%
X14364580Y1790000D02*
X14083420Y1790000D01*
X14364580Y2810000D02*
X14083420Y2810000D01*
%TO.C,J2*%
X26570000Y3270000D02*
X26570000Y10950000D01*
X29230000Y670000D02*
X27900000Y670000D01*
X29230000Y10950000D02*
X26570000Y10950000D01*
X29230000Y3270000D02*
X29230000Y10950000D01*
X29230000Y2000000D02*
X29230000Y670000D01*
X29230000Y3270000D02*
X26570000Y3270000D01*
%TO.C,R1*%
X18053628Y3717000D02*
X18360910Y3717000D01*
X18053628Y2957000D02*
X18360910Y2957000D01*
%TO.C,R2*%
X18353641Y2701000D02*
X18046359Y2701000D01*
X18353641Y1941000D02*
X18046359Y1941000D01*
%TO.C,R8*%
X16980000Y15546359D02*
X16980000Y15853641D01*
X16220000Y15546359D02*
X16220000Y15853641D01*
%TO.C,R6*%
X8820000Y15546359D02*
X8820000Y15853641D01*
X9580000Y15546359D02*
X9580000Y15853641D01*
%TO.C,R3*%
X2180000Y13046359D02*
X2180000Y13353641D01*
X1420000Y13046359D02*
X1420000Y13353641D01*
%TO.C,Q2*%
X10970000Y12190000D02*
X14570000Y12190000D01*
X12770000Y16640001D02*
G75*
G03*
X10931522Y12201522I0J-2600001D01*
G01*
X14608478Y12201522D02*
G75*
G03*
X12770000Y16640000I-1838478J1838478D01*
G01*
%TO.C,R5*%
X9580000Y13046359D02*
X9580000Y13353641D01*
X8820000Y13046359D02*
X8820000Y13353641D01*
%TO.C,J3*%
X8830000Y10950000D02*
X6170000Y10950000D01*
X8830000Y670000D02*
X7500000Y670000D01*
X8830000Y3270000D02*
X6170000Y3270000D01*
X8830000Y3270000D02*
X8830000Y10950000D01*
X8830000Y2000000D02*
X8830000Y670000D01*
X6170000Y3270000D02*
X6170000Y10950000D01*
%TO.C,J4*%
X24230000Y3270000D02*
X21570000Y3270000D01*
X24230000Y2000000D02*
X24230000Y670000D01*
X24230000Y3270000D02*
X24230000Y10950000D01*
X24230000Y670000D02*
X22900000Y670000D01*
X24230000Y10950000D02*
X21570000Y10950000D01*
X21570000Y3270000D02*
X21570000Y10950000D01*
%TO.C,R9*%
X24380000Y13046359D02*
X24380000Y13353641D01*
X23620000Y13046359D02*
X23620000Y13353641D01*
%TO.C,R4*%
X2180000Y15546359D02*
X2180000Y15853641D01*
X1420000Y15546359D02*
X1420000Y15853641D01*
%TO.C,Q4*%
X25900000Y12190000D02*
X29500000Y12190000D01*
X27700000Y16640001D02*
G75*
G03*
X25861522Y12201522I0J-2600001D01*
G01*
X29538478Y12201522D02*
G75*
G03*
X27700000Y16640000I-1838478J1838478D01*
G01*
%TO.C,R7*%
X16220000Y13046359D02*
X16220000Y13353641D01*
X16980000Y13046359D02*
X16980000Y13353641D01*
%TD*%
%LPC*%
D14*
%TO.C,Q1*%
X4330000Y14040000D03*
D15*
X5600000Y14040000D03*
X6870000Y14040000D03*
%TD*%
D14*
%TO.C,Q3*%
X18930000Y14040000D03*
D15*
X20200000Y14040000D03*
X21470000Y14040000D03*
%TD*%
D16*
%TO.C,R10*%
X24000000Y15190000D03*
X24000000Y16210000D03*
%TD*%
D17*
%TO.C,C2*%
X16280000Y10000000D03*
X15320000Y10000000D03*
%TD*%
D18*
%TO.C,J1*%
X2500000Y2000000D03*
D19*
X2500000Y4540000D03*
X2500000Y7080000D03*
X2500000Y9620000D03*
%TD*%
D20*
%TO.C,U1*%
X12995000Y8505000D03*
X12995000Y7235000D03*
X12995000Y5965000D03*
X12995000Y4695000D03*
X17945000Y4695000D03*
X17945000Y5965000D03*
X17945000Y7235000D03*
X17945000Y8505000D03*
%TD*%
D21*
%TO.C,C1*%
X14999000Y2300000D03*
X13449000Y2300000D03*
%TD*%
D18*
%TO.C,J2*%
X27900000Y2000000D03*
D19*
X27900000Y4540000D03*
X27900000Y7080000D03*
X27900000Y9620000D03*
%TD*%
D22*
%TO.C,R1*%
X17697269Y3337000D03*
X18717269Y3337000D03*
%TD*%
D23*
%TO.C,R2*%
X18710000Y2321000D03*
X17690000Y2321000D03*
%TD*%
D16*
%TO.C,R8*%
X16600000Y15190000D03*
X16600000Y16210000D03*
%TD*%
%TO.C,R6*%
X9200000Y15190000D03*
X9200000Y16210000D03*
%TD*%
%TO.C,R3*%
X1800000Y12690000D03*
X1800000Y13710000D03*
%TD*%
D14*
%TO.C,Q2*%
X11500000Y14040000D03*
D15*
X12770000Y14040000D03*
X14040000Y14040000D03*
%TD*%
D16*
%TO.C,R5*%
X9200000Y12690000D03*
X9200000Y13710000D03*
%TD*%
D18*
%TO.C,J3*%
X7500000Y2000000D03*
D19*
X7500000Y4540000D03*
X7500000Y7080000D03*
X7500000Y9620000D03*
%TD*%
D18*
%TO.C,J4*%
X22900000Y2000000D03*
D19*
X22900000Y4540000D03*
X22900000Y7080000D03*
X22900000Y9620000D03*
%TD*%
D16*
%TO.C,R9*%
X24000000Y12690000D03*
X24000000Y13710000D03*
%TD*%
%TO.C,R4*%
X1800000Y15190000D03*
X1800000Y16210000D03*
%TD*%
D14*
%TO.C,Q4*%
X26430000Y14040000D03*
D15*
X27700000Y14040000D03*
X28970000Y14040000D03*
%TD*%
D16*
%TO.C,R7*%
X16600000Y12690000D03*
X16600000Y13710000D03*
%TD*%
M02*
