%TF.GenerationSoftware,KiCad,Pcbnew,8.0.9-8.0.9-0~ubuntu22.04.1*%
%TF.CreationDate,2025-02-27T10:55:40+01:00*%
%TF.ProjectId,HB_TH_Sensor_SHT45_AllInOne_FUEL4EP,48425f54-485f-4536-956e-736f725f5348,1.5*%
%TF.SameCoordinates,Original*%
%TF.FileFunction,Other,Comment*%
%FSLAX46Y46*%
G04 Gerber Fmt 4.6, Leading zero omitted, Abs format (unit mm)*
G04 Created by KiCad (PCBNEW 8.0.9-8.0.9-0~ubuntu22.04.1) date 2025-02-27 10:55:40*
%MOMM*%
%LPD*%
G01*
G04 APERTURE LIST*
%ADD10C,0.150000*%
G04 APERTURE END LIST*
D10*
X10906570Y63290180D02*
X10906570Y63813990D01*
X10906570Y63813990D02*
X10858951Y63909228D01*
X10858951Y63909228D02*
X10763713Y63956847D01*
X10763713Y63956847D02*
X10573237Y63956847D01*
X10573237Y63956847D02*
X10477999Y63909228D01*
X10906570Y63337800D02*
X10811332Y63290180D01*
X10811332Y63290180D02*
X10573237Y63290180D01*
X10573237Y63290180D02*
X10477999Y63337800D01*
X10477999Y63337800D02*
X10430380Y63433038D01*
X10430380Y63433038D02*
X10430380Y63528276D01*
X10430380Y63528276D02*
X10477999Y63623514D01*
X10477999Y63623514D02*
X10573237Y63671133D01*
X10573237Y63671133D02*
X10811332Y63671133D01*
X10811332Y63671133D02*
X10906570Y63718752D01*
X11382761Y63956847D02*
X11382761Y63290180D01*
X11382761Y63861609D02*
X11430380Y63909228D01*
X11430380Y63909228D02*
X11525618Y63956847D01*
X11525618Y63956847D02*
X11668475Y63956847D01*
X11668475Y63956847D02*
X11763713Y63909228D01*
X11763713Y63909228D02*
X11811332Y63813990D01*
X11811332Y63813990D02*
X11811332Y63290180D01*
X12192285Y63956847D02*
X12430380Y63290180D01*
X12668475Y63956847D02*
X12430380Y63290180D01*
X12430380Y63290180D02*
X12335142Y63052085D01*
X12335142Y63052085D02*
X12287523Y63004466D01*
X12287523Y63004466D02*
X12192285Y62956847D01*
X13811333Y63290180D02*
X13811333Y64290180D01*
X13811333Y64290180D02*
X14192285Y64290180D01*
X14192285Y64290180D02*
X14287523Y64242561D01*
X14287523Y64242561D02*
X14335142Y64194942D01*
X14335142Y64194942D02*
X14382761Y64099704D01*
X14382761Y64099704D02*
X14382761Y63956847D01*
X14382761Y63956847D02*
X14335142Y63861609D01*
X14335142Y63861609D02*
X14287523Y63813990D01*
X14287523Y63813990D02*
X14192285Y63766371D01*
X14192285Y63766371D02*
X13811333Y63766371D01*
X15382761Y63385419D02*
X15335142Y63337800D01*
X15335142Y63337800D02*
X15192285Y63290180D01*
X15192285Y63290180D02*
X15097047Y63290180D01*
X15097047Y63290180D02*
X14954190Y63337800D01*
X14954190Y63337800D02*
X14858952Y63433038D01*
X14858952Y63433038D02*
X14811333Y63528276D01*
X14811333Y63528276D02*
X14763714Y63718752D01*
X14763714Y63718752D02*
X14763714Y63861609D01*
X14763714Y63861609D02*
X14811333Y64052085D01*
X14811333Y64052085D02*
X14858952Y64147323D01*
X14858952Y64147323D02*
X14954190Y64242561D01*
X14954190Y64242561D02*
X15097047Y64290180D01*
X15097047Y64290180D02*
X15192285Y64290180D01*
X15192285Y64290180D02*
X15335142Y64242561D01*
X15335142Y64242561D02*
X15382761Y64194942D01*
X16144666Y63813990D02*
X16287523Y63766371D01*
X16287523Y63766371D02*
X16335142Y63718752D01*
X16335142Y63718752D02*
X16382761Y63623514D01*
X16382761Y63623514D02*
X16382761Y63480657D01*
X16382761Y63480657D02*
X16335142Y63385419D01*
X16335142Y63385419D02*
X16287523Y63337800D01*
X16287523Y63337800D02*
X16192285Y63290180D01*
X16192285Y63290180D02*
X15811333Y63290180D01*
X15811333Y63290180D02*
X15811333Y64290180D01*
X15811333Y64290180D02*
X16144666Y64290180D01*
X16144666Y64290180D02*
X16239904Y64242561D01*
X16239904Y64242561D02*
X16287523Y64194942D01*
X16287523Y64194942D02*
X16335142Y64099704D01*
X16335142Y64099704D02*
X16335142Y64004466D01*
X16335142Y64004466D02*
X16287523Y63909228D01*
X16287523Y63909228D02*
X16239904Y63861609D01*
X16239904Y63861609D02*
X16144666Y63813990D01*
X16144666Y63813990D02*
X15811333Y63813990D01*
X17716095Y63290180D02*
X17620857Y63337800D01*
X17620857Y63337800D02*
X17573238Y63433038D01*
X17573238Y63433038D02*
X17573238Y64290180D01*
X18525619Y63290180D02*
X18525619Y63813990D01*
X18525619Y63813990D02*
X18478000Y63909228D01*
X18478000Y63909228D02*
X18382762Y63956847D01*
X18382762Y63956847D02*
X18192286Y63956847D01*
X18192286Y63956847D02*
X18097048Y63909228D01*
X18525619Y63337800D02*
X18430381Y63290180D01*
X18430381Y63290180D02*
X18192286Y63290180D01*
X18192286Y63290180D02*
X18097048Y63337800D01*
X18097048Y63337800D02*
X18049429Y63433038D01*
X18049429Y63433038D02*
X18049429Y63528276D01*
X18049429Y63528276D02*
X18097048Y63623514D01*
X18097048Y63623514D02*
X18192286Y63671133D01*
X18192286Y63671133D02*
X18430381Y63671133D01*
X18430381Y63671133D02*
X18525619Y63718752D01*
X18906572Y63956847D02*
X19144667Y63290180D01*
X19382762Y63956847D02*
X19144667Y63290180D01*
X19144667Y63290180D02*
X19049429Y63052085D01*
X19049429Y63052085D02*
X19001810Y63004466D01*
X19001810Y63004466D02*
X18906572Y62956847D01*
X20144667Y63337800D02*
X20049429Y63290180D01*
X20049429Y63290180D02*
X19858953Y63290180D01*
X19858953Y63290180D02*
X19763715Y63337800D01*
X19763715Y63337800D02*
X19716096Y63433038D01*
X19716096Y63433038D02*
X19716096Y63813990D01*
X19716096Y63813990D02*
X19763715Y63909228D01*
X19763715Y63909228D02*
X19858953Y63956847D01*
X19858953Y63956847D02*
X20049429Y63956847D01*
X20049429Y63956847D02*
X20144667Y63909228D01*
X20144667Y63909228D02*
X20192286Y63813990D01*
X20192286Y63813990D02*
X20192286Y63718752D01*
X20192286Y63718752D02*
X19716096Y63623514D01*
X20620858Y63290180D02*
X20620858Y63956847D01*
X20620858Y63766371D02*
X20668477Y63861609D01*
X20668477Y63861609D02*
X20716096Y63909228D01*
X20716096Y63909228D02*
X20811334Y63956847D01*
X20811334Y63956847D02*
X20906572Y63956847D01*
X21239906Y63385419D02*
X21287525Y63337800D01*
X21287525Y63337800D02*
X21239906Y63290180D01*
X21239906Y63290180D02*
X21192287Y63337800D01*
X21192287Y63337800D02*
X21239906Y63385419D01*
X21239906Y63385419D02*
X21239906Y63290180D01*
X8716094Y65290180D02*
X8716094Y65813990D01*
X8716094Y65813990D02*
X8668475Y65909228D01*
X8668475Y65909228D02*
X8573237Y65956847D01*
X8573237Y65956847D02*
X8382761Y65956847D01*
X8382761Y65956847D02*
X8287523Y65909228D01*
X8716094Y65337800D02*
X8620856Y65290180D01*
X8620856Y65290180D02*
X8382761Y65290180D01*
X8382761Y65290180D02*
X8287523Y65337800D01*
X8287523Y65337800D02*
X8239904Y65433038D01*
X8239904Y65433038D02*
X8239904Y65528276D01*
X8239904Y65528276D02*
X8287523Y65623514D01*
X8287523Y65623514D02*
X8382761Y65671133D01*
X8382761Y65671133D02*
X8620856Y65671133D01*
X8620856Y65671133D02*
X8716094Y65718752D01*
X9192285Y65956847D02*
X9192285Y65290180D01*
X9192285Y65861609D02*
X9239904Y65909228D01*
X9239904Y65909228D02*
X9335142Y65956847D01*
X9335142Y65956847D02*
X9477999Y65956847D01*
X9477999Y65956847D02*
X9573237Y65909228D01*
X9573237Y65909228D02*
X9620856Y65813990D01*
X9620856Y65813990D02*
X9620856Y65290180D01*
X10001809Y65956847D02*
X10239904Y65290180D01*
X10477999Y65956847D02*
X10239904Y65290180D01*
X10239904Y65290180D02*
X10144666Y65052085D01*
X10144666Y65052085D02*
X10097047Y65004466D01*
X10097047Y65004466D02*
X10001809Y64956847D01*
X12049428Y65337800D02*
X11954190Y65290180D01*
X11954190Y65290180D02*
X11763714Y65290180D01*
X11763714Y65290180D02*
X11668476Y65337800D01*
X11668476Y65337800D02*
X11620857Y65385419D01*
X11620857Y65385419D02*
X11573238Y65480657D01*
X11573238Y65480657D02*
X11573238Y65766371D01*
X11573238Y65766371D02*
X11620857Y65861609D01*
X11620857Y65861609D02*
X11668476Y65909228D01*
X11668476Y65909228D02*
X11763714Y65956847D01*
X11763714Y65956847D02*
X11954190Y65956847D01*
X11954190Y65956847D02*
X12049428Y65909228D01*
X12620857Y65290180D02*
X12525619Y65337800D01*
X12525619Y65337800D02*
X12478000Y65385419D01*
X12478000Y65385419D02*
X12430381Y65480657D01*
X12430381Y65480657D02*
X12430381Y65766371D01*
X12430381Y65766371D02*
X12478000Y65861609D01*
X12478000Y65861609D02*
X12525619Y65909228D01*
X12525619Y65909228D02*
X12620857Y65956847D01*
X12620857Y65956847D02*
X12763714Y65956847D01*
X12763714Y65956847D02*
X12858952Y65909228D01*
X12858952Y65909228D02*
X12906571Y65861609D01*
X12906571Y65861609D02*
X12954190Y65766371D01*
X12954190Y65766371D02*
X12954190Y65480657D01*
X12954190Y65480657D02*
X12906571Y65385419D01*
X12906571Y65385419D02*
X12858952Y65337800D01*
X12858952Y65337800D02*
X12763714Y65290180D01*
X12763714Y65290180D02*
X12620857Y65290180D01*
X13382762Y65290180D02*
X13382762Y65956847D01*
X13382762Y65861609D02*
X13430381Y65909228D01*
X13430381Y65909228D02*
X13525619Y65956847D01*
X13525619Y65956847D02*
X13668476Y65956847D01*
X13668476Y65956847D02*
X13763714Y65909228D01*
X13763714Y65909228D02*
X13811333Y65813990D01*
X13811333Y65813990D02*
X13811333Y65290180D01*
X13811333Y65813990D02*
X13858952Y65909228D01*
X13858952Y65909228D02*
X13954190Y65956847D01*
X13954190Y65956847D02*
X14097047Y65956847D01*
X14097047Y65956847D02*
X14192286Y65909228D01*
X14192286Y65909228D02*
X14239905Y65813990D01*
X14239905Y65813990D02*
X14239905Y65290180D01*
X14716095Y65956847D02*
X14716095Y64956847D01*
X14716095Y65909228D02*
X14811333Y65956847D01*
X14811333Y65956847D02*
X15001809Y65956847D01*
X15001809Y65956847D02*
X15097047Y65909228D01*
X15097047Y65909228D02*
X15144666Y65861609D01*
X15144666Y65861609D02*
X15192285Y65766371D01*
X15192285Y65766371D02*
X15192285Y65480657D01*
X15192285Y65480657D02*
X15144666Y65385419D01*
X15144666Y65385419D02*
X15097047Y65337800D01*
X15097047Y65337800D02*
X15001809Y65290180D01*
X15001809Y65290180D02*
X14811333Y65290180D01*
X14811333Y65290180D02*
X14716095Y65337800D01*
X15763714Y65290180D02*
X15668476Y65337800D01*
X15668476Y65337800D02*
X15620857Y65385419D01*
X15620857Y65385419D02*
X15573238Y65480657D01*
X15573238Y65480657D02*
X15573238Y65766371D01*
X15573238Y65766371D02*
X15620857Y65861609D01*
X15620857Y65861609D02*
X15668476Y65909228D01*
X15668476Y65909228D02*
X15763714Y65956847D01*
X15763714Y65956847D02*
X15906571Y65956847D01*
X15906571Y65956847D02*
X16001809Y65909228D01*
X16001809Y65909228D02*
X16049428Y65861609D01*
X16049428Y65861609D02*
X16097047Y65766371D01*
X16097047Y65766371D02*
X16097047Y65480657D01*
X16097047Y65480657D02*
X16049428Y65385419D01*
X16049428Y65385419D02*
X16001809Y65337800D01*
X16001809Y65337800D02*
X15906571Y65290180D01*
X15906571Y65290180D02*
X15763714Y65290180D01*
X16525619Y65956847D02*
X16525619Y65290180D01*
X16525619Y65861609D02*
X16573238Y65909228D01*
X16573238Y65909228D02*
X16668476Y65956847D01*
X16668476Y65956847D02*
X16811333Y65956847D01*
X16811333Y65956847D02*
X16906571Y65909228D01*
X16906571Y65909228D02*
X16954190Y65813990D01*
X16954190Y65813990D02*
X16954190Y65290180D01*
X17811333Y65337800D02*
X17716095Y65290180D01*
X17716095Y65290180D02*
X17525619Y65290180D01*
X17525619Y65290180D02*
X17430381Y65337800D01*
X17430381Y65337800D02*
X17382762Y65433038D01*
X17382762Y65433038D02*
X17382762Y65813990D01*
X17382762Y65813990D02*
X17430381Y65909228D01*
X17430381Y65909228D02*
X17525619Y65956847D01*
X17525619Y65956847D02*
X17716095Y65956847D01*
X17716095Y65956847D02*
X17811333Y65909228D01*
X17811333Y65909228D02*
X17858952Y65813990D01*
X17858952Y65813990D02*
X17858952Y65718752D01*
X17858952Y65718752D02*
X17382762Y65623514D01*
X18287524Y65956847D02*
X18287524Y65290180D01*
X18287524Y65861609D02*
X18335143Y65909228D01*
X18335143Y65909228D02*
X18430381Y65956847D01*
X18430381Y65956847D02*
X18573238Y65956847D01*
X18573238Y65956847D02*
X18668476Y65909228D01*
X18668476Y65909228D02*
X18716095Y65813990D01*
X18716095Y65813990D02*
X18716095Y65290180D01*
X19049429Y65956847D02*
X19430381Y65956847D01*
X19192286Y66290180D02*
X19192286Y65433038D01*
X19192286Y65433038D02*
X19239905Y65337800D01*
X19239905Y65337800D02*
X19335143Y65290180D01*
X19335143Y65290180D02*
X19430381Y65290180D01*
X19716096Y65337800D02*
X19811334Y65290180D01*
X19811334Y65290180D02*
X20001810Y65290180D01*
X20001810Y65290180D02*
X20097048Y65337800D01*
X20097048Y65337800D02*
X20144667Y65433038D01*
X20144667Y65433038D02*
X20144667Y65480657D01*
X20144667Y65480657D02*
X20097048Y65575895D01*
X20097048Y65575895D02*
X20001810Y65623514D01*
X20001810Y65623514D02*
X19858953Y65623514D01*
X19858953Y65623514D02*
X19763715Y65671133D01*
X19763715Y65671133D02*
X19716096Y65766371D01*
X19716096Y65766371D02*
X19716096Y65813990D01*
X19716096Y65813990D02*
X19763715Y65909228D01*
X19763715Y65909228D02*
X19858953Y65956847D01*
X19858953Y65956847D02*
X20001810Y65956847D01*
X20001810Y65956847D02*
X20097048Y65909228D01*
X21478001Y65290180D02*
X21382763Y65337800D01*
X21382763Y65337800D02*
X21335144Y65385419D01*
X21335144Y65385419D02*
X21287525Y65480657D01*
X21287525Y65480657D02*
X21287525Y65766371D01*
X21287525Y65766371D02*
X21335144Y65861609D01*
X21335144Y65861609D02*
X21382763Y65909228D01*
X21382763Y65909228D02*
X21478001Y65956847D01*
X21478001Y65956847D02*
X21620858Y65956847D01*
X21620858Y65956847D02*
X21716096Y65909228D01*
X21716096Y65909228D02*
X21763715Y65861609D01*
X21763715Y65861609D02*
X21811334Y65766371D01*
X21811334Y65766371D02*
X21811334Y65480657D01*
X21811334Y65480657D02*
X21763715Y65385419D01*
X21763715Y65385419D02*
X21716096Y65337800D01*
X21716096Y65337800D02*
X21620858Y65290180D01*
X21620858Y65290180D02*
X21478001Y65290180D01*
X22239906Y65956847D02*
X22239906Y65290180D01*
X22239906Y65861609D02*
X22287525Y65909228D01*
X22287525Y65909228D02*
X22382763Y65956847D01*
X22382763Y65956847D02*
X22525620Y65956847D01*
X22525620Y65956847D02*
X22620858Y65909228D01*
X22620858Y65909228D02*
X22668477Y65813990D01*
X22668477Y65813990D02*
X22668477Y65290180D01*
X9406571Y70290180D02*
X9406571Y71290180D01*
X9977999Y70290180D02*
X9549428Y70861609D01*
X9977999Y71290180D02*
X9406571Y70718752D01*
X10406571Y70813990D02*
X10739904Y70813990D01*
X10882761Y70290180D02*
X10406571Y70290180D01*
X10406571Y70290180D02*
X10406571Y71290180D01*
X10406571Y71290180D02*
X10882761Y71290180D01*
X11311333Y70813990D02*
X11644666Y70813990D01*
X11787523Y70290180D02*
X11311333Y70290180D01*
X11311333Y70290180D02*
X11311333Y71290180D01*
X11311333Y71290180D02*
X11787523Y71290180D01*
X12216095Y70290180D02*
X12216095Y71290180D01*
X12216095Y71290180D02*
X12597047Y71290180D01*
X12597047Y71290180D02*
X12692285Y71242561D01*
X12692285Y71242561D02*
X12739904Y71194942D01*
X12739904Y71194942D02*
X12787523Y71099704D01*
X12787523Y71099704D02*
X12787523Y70956847D01*
X12787523Y70956847D02*
X12739904Y70861609D01*
X12739904Y70861609D02*
X12692285Y70813990D01*
X12692285Y70813990D02*
X12597047Y70766371D01*
X12597047Y70766371D02*
X12216095Y70766371D01*
X13216095Y70671133D02*
X13978000Y70671133D01*
X14644666Y71290180D02*
X14835142Y71290180D01*
X14835142Y71290180D02*
X14930380Y71242561D01*
X14930380Y71242561D02*
X15025618Y71147323D01*
X15025618Y71147323D02*
X15073237Y70956847D01*
X15073237Y70956847D02*
X15073237Y70623514D01*
X15073237Y70623514D02*
X15025618Y70433038D01*
X15025618Y70433038D02*
X14930380Y70337800D01*
X14930380Y70337800D02*
X14835142Y70290180D01*
X14835142Y70290180D02*
X14644666Y70290180D01*
X14644666Y70290180D02*
X14549428Y70337800D01*
X14549428Y70337800D02*
X14454190Y70433038D01*
X14454190Y70433038D02*
X14406571Y70623514D01*
X14406571Y70623514D02*
X14406571Y70956847D01*
X14406571Y70956847D02*
X14454190Y71147323D01*
X14454190Y71147323D02*
X14549428Y71242561D01*
X14549428Y71242561D02*
X14644666Y71290180D01*
X15501809Y71290180D02*
X15501809Y70480657D01*
X15501809Y70480657D02*
X15549428Y70385419D01*
X15549428Y70385419D02*
X15597047Y70337800D01*
X15597047Y70337800D02*
X15692285Y70290180D01*
X15692285Y70290180D02*
X15882761Y70290180D01*
X15882761Y70290180D02*
X15977999Y70337800D01*
X15977999Y70337800D02*
X16025618Y70385419D01*
X16025618Y70385419D02*
X16073237Y70480657D01*
X16073237Y70480657D02*
X16073237Y71290180D01*
X16406571Y71290180D02*
X16977999Y71290180D01*
X16692285Y70290180D02*
X16692285Y71290180D01*
X17978000Y71290180D02*
X18644666Y71290180D01*
X18644666Y71290180D02*
X17978000Y70290180D01*
X17978000Y70290180D02*
X18644666Y70290180D01*
X19216095Y71290180D02*
X19406571Y71290180D01*
X19406571Y71290180D02*
X19501809Y71242561D01*
X19501809Y71242561D02*
X19597047Y71147323D01*
X19597047Y71147323D02*
X19644666Y70956847D01*
X19644666Y70956847D02*
X19644666Y70623514D01*
X19644666Y70623514D02*
X19597047Y70433038D01*
X19597047Y70433038D02*
X19501809Y70337800D01*
X19501809Y70337800D02*
X19406571Y70290180D01*
X19406571Y70290180D02*
X19216095Y70290180D01*
X19216095Y70290180D02*
X19120857Y70337800D01*
X19120857Y70337800D02*
X19025619Y70433038D01*
X19025619Y70433038D02*
X18978000Y70623514D01*
X18978000Y70623514D02*
X18978000Y70956847D01*
X18978000Y70956847D02*
X19025619Y71147323D01*
X19025619Y71147323D02*
X19120857Y71242561D01*
X19120857Y71242561D02*
X19216095Y71290180D01*
X20073238Y70290180D02*
X20073238Y71290180D01*
X20073238Y71290180D02*
X20644666Y70290180D01*
X20644666Y70290180D02*
X20644666Y71290180D01*
X21120857Y70813990D02*
X21454190Y70813990D01*
X21597047Y70290180D02*
X21120857Y70290180D01*
X21120857Y70290180D02*
X21120857Y71290180D01*
X21120857Y71290180D02*
X21597047Y71290180D01*
X7811332Y67290180D02*
X7811332Y68290180D01*
X7811332Y68290180D02*
X8382760Y67290180D01*
X8382760Y67290180D02*
X8382760Y68290180D01*
X9001808Y67290180D02*
X8906570Y67337800D01*
X8906570Y67337800D02*
X8858951Y67385419D01*
X8858951Y67385419D02*
X8811332Y67480657D01*
X8811332Y67480657D02*
X8811332Y67766371D01*
X8811332Y67766371D02*
X8858951Y67861609D01*
X8858951Y67861609D02*
X8906570Y67909228D01*
X8906570Y67909228D02*
X9001808Y67956847D01*
X9001808Y67956847D02*
X9144665Y67956847D01*
X9144665Y67956847D02*
X9239903Y67909228D01*
X9239903Y67909228D02*
X9287522Y67861609D01*
X9287522Y67861609D02*
X9335141Y67766371D01*
X9335141Y67766371D02*
X9335141Y67480657D01*
X9335141Y67480657D02*
X9287522Y67385419D01*
X9287522Y67385419D02*
X9239903Y67337800D01*
X9239903Y67337800D02*
X9144665Y67290180D01*
X9144665Y67290180D02*
X9001808Y67290180D01*
X10525618Y67290180D02*
X10525618Y67956847D01*
X10525618Y67861609D02*
X10573237Y67909228D01*
X10573237Y67909228D02*
X10668475Y67956847D01*
X10668475Y67956847D02*
X10811332Y67956847D01*
X10811332Y67956847D02*
X10906570Y67909228D01*
X10906570Y67909228D02*
X10954189Y67813990D01*
X10954189Y67813990D02*
X10954189Y67290180D01*
X10954189Y67813990D02*
X11001808Y67909228D01*
X11001808Y67909228D02*
X11097046Y67956847D01*
X11097046Y67956847D02*
X11239903Y67956847D01*
X11239903Y67956847D02*
X11335142Y67909228D01*
X11335142Y67909228D02*
X11382761Y67813990D01*
X11382761Y67813990D02*
X11382761Y67290180D01*
X12239903Y67337800D02*
X12144665Y67290180D01*
X12144665Y67290180D02*
X11954189Y67290180D01*
X11954189Y67290180D02*
X11858951Y67337800D01*
X11858951Y67337800D02*
X11811332Y67433038D01*
X11811332Y67433038D02*
X11811332Y67813990D01*
X11811332Y67813990D02*
X11858951Y67909228D01*
X11858951Y67909228D02*
X11954189Y67956847D01*
X11954189Y67956847D02*
X12144665Y67956847D01*
X12144665Y67956847D02*
X12239903Y67909228D01*
X12239903Y67909228D02*
X12287522Y67813990D01*
X12287522Y67813990D02*
X12287522Y67718752D01*
X12287522Y67718752D02*
X11811332Y67623514D01*
X12573237Y67956847D02*
X12954189Y67956847D01*
X12716094Y68290180D02*
X12716094Y67433038D01*
X12716094Y67433038D02*
X12763713Y67337800D01*
X12763713Y67337800D02*
X12858951Y67290180D01*
X12858951Y67290180D02*
X12954189Y67290180D01*
X13716094Y67290180D02*
X13716094Y67813990D01*
X13716094Y67813990D02*
X13668475Y67909228D01*
X13668475Y67909228D02*
X13573237Y67956847D01*
X13573237Y67956847D02*
X13382761Y67956847D01*
X13382761Y67956847D02*
X13287523Y67909228D01*
X13716094Y67337800D02*
X13620856Y67290180D01*
X13620856Y67290180D02*
X13382761Y67290180D01*
X13382761Y67290180D02*
X13287523Y67337800D01*
X13287523Y67337800D02*
X13239904Y67433038D01*
X13239904Y67433038D02*
X13239904Y67528276D01*
X13239904Y67528276D02*
X13287523Y67623514D01*
X13287523Y67623514D02*
X13382761Y67671133D01*
X13382761Y67671133D02*
X13620856Y67671133D01*
X13620856Y67671133D02*
X13716094Y67718752D01*
X14335142Y67290180D02*
X14239904Y67337800D01*
X14239904Y67337800D02*
X14192285Y67433038D01*
X14192285Y67433038D02*
X14192285Y68290180D01*
X14763714Y67337800D02*
X14763714Y67290180D01*
X14763714Y67290180D02*
X14716095Y67194942D01*
X14716095Y67194942D02*
X14668476Y67147323D01*
X15811333Y67956847D02*
X16192285Y67956847D01*
X15954190Y68290180D02*
X15954190Y67433038D01*
X15954190Y67433038D02*
X16001809Y67337800D01*
X16001809Y67337800D02*
X16097047Y67290180D01*
X16097047Y67290180D02*
X16192285Y67290180D01*
X16525619Y67290180D02*
X16525619Y67956847D01*
X16525619Y67766371D02*
X16573238Y67861609D01*
X16573238Y67861609D02*
X16620857Y67909228D01*
X16620857Y67909228D02*
X16716095Y67956847D01*
X16716095Y67956847D02*
X16811333Y67956847D01*
X17573238Y67290180D02*
X17573238Y67813990D01*
X17573238Y67813990D02*
X17525619Y67909228D01*
X17525619Y67909228D02*
X17430381Y67956847D01*
X17430381Y67956847D02*
X17239905Y67956847D01*
X17239905Y67956847D02*
X17144667Y67909228D01*
X17573238Y67337800D02*
X17478000Y67290180D01*
X17478000Y67290180D02*
X17239905Y67290180D01*
X17239905Y67290180D02*
X17144667Y67337800D01*
X17144667Y67337800D02*
X17097048Y67433038D01*
X17097048Y67433038D02*
X17097048Y67528276D01*
X17097048Y67528276D02*
X17144667Y67623514D01*
X17144667Y67623514D02*
X17239905Y67671133D01*
X17239905Y67671133D02*
X17478000Y67671133D01*
X17478000Y67671133D02*
X17573238Y67718752D01*
X18478000Y67337800D02*
X18382762Y67290180D01*
X18382762Y67290180D02*
X18192286Y67290180D01*
X18192286Y67290180D02*
X18097048Y67337800D01*
X18097048Y67337800D02*
X18049429Y67385419D01*
X18049429Y67385419D02*
X18001810Y67480657D01*
X18001810Y67480657D02*
X18001810Y67766371D01*
X18001810Y67766371D02*
X18049429Y67861609D01*
X18049429Y67861609D02*
X18097048Y67909228D01*
X18097048Y67909228D02*
X18192286Y67956847D01*
X18192286Y67956847D02*
X18382762Y67956847D01*
X18382762Y67956847D02*
X18478000Y67909228D01*
X19287524Y67337800D02*
X19192286Y67290180D01*
X19192286Y67290180D02*
X19001810Y67290180D01*
X19001810Y67290180D02*
X18906572Y67337800D01*
X18906572Y67337800D02*
X18858953Y67433038D01*
X18858953Y67433038D02*
X18858953Y67813990D01*
X18858953Y67813990D02*
X18906572Y67909228D01*
X18906572Y67909228D02*
X19001810Y67956847D01*
X19001810Y67956847D02*
X19192286Y67956847D01*
X19192286Y67956847D02*
X19287524Y67909228D01*
X19287524Y67909228D02*
X19335143Y67813990D01*
X19335143Y67813990D02*
X19335143Y67718752D01*
X19335143Y67718752D02*
X18858953Y67623514D01*
X19716096Y67337800D02*
X19811334Y67290180D01*
X19811334Y67290180D02*
X20001810Y67290180D01*
X20001810Y67290180D02*
X20097048Y67337800D01*
X20097048Y67337800D02*
X20144667Y67433038D01*
X20144667Y67433038D02*
X20144667Y67480657D01*
X20144667Y67480657D02*
X20097048Y67575895D01*
X20097048Y67575895D02*
X20001810Y67623514D01*
X20001810Y67623514D02*
X19858953Y67623514D01*
X19858953Y67623514D02*
X19763715Y67671133D01*
X19763715Y67671133D02*
X19716096Y67766371D01*
X19716096Y67766371D02*
X19716096Y67813990D01*
X19716096Y67813990D02*
X19763715Y67909228D01*
X19763715Y67909228D02*
X19858953Y67956847D01*
X19858953Y67956847D02*
X20001810Y67956847D01*
X20001810Y67956847D02*
X20097048Y67909228D01*
X21478001Y67290180D02*
X21382763Y67337800D01*
X21382763Y67337800D02*
X21335144Y67385419D01*
X21335144Y67385419D02*
X21287525Y67480657D01*
X21287525Y67480657D02*
X21287525Y67766371D01*
X21287525Y67766371D02*
X21335144Y67861609D01*
X21335144Y67861609D02*
X21382763Y67909228D01*
X21382763Y67909228D02*
X21478001Y67956847D01*
X21478001Y67956847D02*
X21620858Y67956847D01*
X21620858Y67956847D02*
X21716096Y67909228D01*
X21716096Y67909228D02*
X21763715Y67861609D01*
X21763715Y67861609D02*
X21811334Y67766371D01*
X21811334Y67766371D02*
X21811334Y67480657D01*
X21811334Y67480657D02*
X21763715Y67385419D01*
X21763715Y67385419D02*
X21716096Y67337800D01*
X21716096Y67337800D02*
X21620858Y67290180D01*
X21620858Y67290180D02*
X21478001Y67290180D01*
X22239906Y67290180D02*
X22239906Y67956847D01*
X22239906Y67766371D02*
X22287525Y67861609D01*
X22287525Y67861609D02*
X22335144Y67909228D01*
X22335144Y67909228D02*
X22430382Y67956847D01*
X22430382Y67956847D02*
X22525620Y67956847D01*
M02*
