%TF.GenerationSoftware,KiCad,Pcbnew,6.0.11-2627ca5db0~126~ubuntu22.04.1*%
%TF.CreationDate,2024-02-09T09:24:38+01:00*%
%TF.ProjectId,HB_TH_Sensor_SHT45_AllInOne_FUEL4EP,48425f54-485f-4536-956e-736f725f5348,1.4*%
%TF.SameCoordinates,Original*%
%TF.FileFunction,Copper,L1,Top*%
%TF.FilePolarity,Positive*%
%FSLAX46Y46*%
G04 Gerber Fmt 4.6, Leading zero omitted, Abs format (unit mm)*
G04 Created by KiCad (PCBNEW 6.0.11-2627ca5db0~126~ubuntu22.04.1) date 2024-02-09 09:24:38*
%MOMM*%
%LPD*%
G01*
G04 APERTURE LIST*
G04 Aperture macros list*
%AMRoundRect*
0 Rectangle with rounded corners*
0 $1 Rounding radius*
0 $2 $3 $4 $5 $6 $7 $8 $9 X,Y pos of 4 corners*
0 Add a 4 corners polygon primitive as box body*
4,1,4,$2,$3,$4,$5,$6,$7,$8,$9,$2,$3,0*
0 Add four circle primitives for the rounded corners*
1,1,$1+$1,$2,$3*
1,1,$1+$1,$4,$5*
1,1,$1+$1,$6,$7*
1,1,$1+$1,$8,$9*
0 Add four rect primitives between the rounded corners*
20,1,$1+$1,$2,$3,$4,$5,0*
20,1,$1+$1,$4,$5,$6,$7,0*
20,1,$1+$1,$6,$7,$8,$9,0*
20,1,$1+$1,$8,$9,$2,$3,0*%
%AMOutline4P*
0 Free polygon, 4 corners , with rotation*
0 The origin of the aperture is its center*
0 number of corners: always 4*
0 $1 to $8 corner X, Y*
0 $9 Rotation angle, in degrees counterclockwise*
0 create outline with 4 corners*
4,1,4,$1,$2,$3,$4,$5,$6,$7,$8,$1,$2,$9*%
G04 Aperture macros list end*
%TA.AperFunction,EtchedComponent*%
%ADD10C,1.000000*%
%TD*%
%TA.AperFunction,SMDPad,CuDef*%
%ADD11RoundRect,0.147500X-0.172500X0.147500X-0.172500X-0.147500X0.172500X-0.147500X0.172500X0.147500X0*%
%TD*%
%TA.AperFunction,SMDPad,CuDef*%
%ADD12RoundRect,0.140000X-0.140000X-0.170000X0.140000X-0.170000X0.140000X0.170000X-0.140000X0.170000X0*%
%TD*%
%TA.AperFunction,SMDPad,CuDef*%
%ADD13RoundRect,0.135000X0.185000X-0.135000X0.185000X0.135000X-0.185000X0.135000X-0.185000X-0.135000X0*%
%TD*%
%TA.AperFunction,SMDPad,CuDef*%
%ADD14RoundRect,0.135000X0.135000X0.185000X-0.135000X0.185000X-0.135000X-0.185000X0.135000X-0.185000X0*%
%TD*%
%TA.AperFunction,SMDPad,CuDef*%
%ADD15R,0.800000X1.500000*%
%TD*%
%TA.AperFunction,SMDPad,CuDef*%
%ADD16R,1.500000X0.800000*%
%TD*%
%TA.AperFunction,SMDPad,CuDef*%
%ADD17RoundRect,0.140000X0.170000X-0.140000X0.170000X0.140000X-0.170000X0.140000X-0.170000X-0.140000X0*%
%TD*%
%TA.AperFunction,SMDPad,CuDef*%
%ADD18RoundRect,0.135000X-0.135000X-0.185000X0.135000X-0.185000X0.135000X0.185000X-0.135000X0.185000X0*%
%TD*%
%TA.AperFunction,SMDPad,CuDef*%
%ADD19RoundRect,0.250000X0.475000X-0.250000X0.475000X0.250000X-0.475000X0.250000X-0.475000X-0.250000X0*%
%TD*%
%TA.AperFunction,SMDPad,CuDef*%
%ADD20R,0.750000X1.000000*%
%TD*%
%TA.AperFunction,SMDPad,CuDef*%
%ADD21RoundRect,0.140000X0.140000X0.170000X-0.140000X0.170000X-0.140000X-0.170000X0.140000X-0.170000X0*%
%TD*%
%TA.AperFunction,SMDPad,CuDef*%
%ADD22R,0.900000X3.000000*%
%TD*%
%TA.AperFunction,SMDPad,CuDef*%
%ADD23R,0.400000X0.900000*%
%TD*%
%TA.AperFunction,SMDPad,CuDef*%
%ADD24R,0.550000X1.500000*%
%TD*%
%TA.AperFunction,SMDPad,CuDef*%
%ADD25R,1.500000X0.550000*%
%TD*%
%TA.AperFunction,SMDPad,CuDef*%
%ADD26RoundRect,0.140000X-0.170000X0.140000X-0.170000X-0.140000X0.170000X-0.140000X0.170000X0.140000X0*%
%TD*%
%TA.AperFunction,ComponentPad*%
%ADD27C,1.000000*%
%TD*%
%TA.AperFunction,SMDPad,CuDef*%
%ADD28Outline4P,-0.350000X-0.400000X0.350000X-0.400000X0.050000X0.400000X-0.050000X0.400000X180.000000*%
%TD*%
%TA.AperFunction,SMDPad,CuDef*%
%ADD29C,0.500000*%
%TD*%
%TA.AperFunction,ComponentPad*%
%ADD30R,2.500000X2.500000*%
%TD*%
%TA.AperFunction,SMDPad,CuDef*%
%ADD31R,1.000000X1.500000*%
%TD*%
%TA.AperFunction,SMDPad,CuDef*%
%ADD32RoundRect,0.147500X0.172500X-0.147500X0.172500X0.147500X-0.172500X0.147500X-0.172500X-0.147500X0*%
%TD*%
%TA.AperFunction,SMDPad,CuDef*%
%ADD33R,0.500000X0.300000*%
%TD*%
%TA.AperFunction,SMDPad,CuDef*%
%ADD34RoundRect,0.147500X-0.147500X-0.172500X0.147500X-0.172500X0.147500X0.172500X-0.147500X0.172500X0*%
%TD*%
%TA.AperFunction,ComponentPad*%
%ADD35R,2.000000X2.000000*%
%TD*%
%TA.AperFunction,ComponentPad*%
%ADD36C,2.000000*%
%TD*%
%TA.AperFunction,ComponentPad*%
%ADD37R,1.700000X1.700000*%
%TD*%
%TA.AperFunction,ComponentPad*%
%ADD38O,1.700000X1.700000*%
%TD*%
%TA.AperFunction,ViaPad*%
%ADD39C,0.600000*%
%TD*%
%TA.AperFunction,Conductor*%
%ADD40C,0.500000*%
%TD*%
%TA.AperFunction,Conductor*%
%ADD41C,0.400000*%
%TD*%
%TA.AperFunction,Conductor*%
%ADD42C,0.300000*%
%TD*%
%TA.AperFunction,Conductor*%
%ADD43C,0.200000*%
%TD*%
%TA.AperFunction,Conductor*%
%ADD44C,0.600000*%
%TD*%
G04 APERTURE END LIST*
D10*
%TO.C,AE1*%
X13478000Y73745000D02*
X13478000Y68745000D01*
X17478000Y73745000D02*
X17478000Y68745000D01*
X15478000Y73745000D02*
X15478000Y68745000D01*
X11478000Y73745000D02*
X11478000Y68745000D01*
X19478000Y73745000D02*
X19478000Y68745000D01*
X7478000Y73745000D02*
X7478000Y68745000D01*
X23478000Y73745000D02*
X23478000Y68745000D01*
X9478000Y73745000D02*
X9478000Y68745000D01*
X5478000Y62745000D02*
X5478000Y73745000D01*
X21478000Y73745000D02*
X21478000Y68745000D01*
%TO.C,NT1*%
G36*
X4441000Y24900000D02*
G01*
X3941000Y24900000D01*
X3941000Y25900000D01*
X4441000Y25900000D01*
X4441000Y24900000D01*
G37*
%TD*%
D11*
%TO.P,D1,1,K*%
%TO.N,GND*%
X8128000Y33251000D03*
%TO.P,D1,2,A*%
%TO.N,Net-(D1-Pad2)*%
X8128000Y32281000D03*
%TD*%
D12*
%TO.P,C1,1*%
%TO.N,/DTR*%
X10823000Y37211000D03*
%TO.P,C1,2*%
%TO.N,/RSETB*%
X11783000Y37211000D03*
%TD*%
D13*
%TO.P,R4,1*%
%TO.N,Net-(R4-Pad1)*%
X8128000Y30351000D03*
%TO.P,R4,2*%
%TO.N,Net-(D1-Pad2)*%
X8128000Y31371000D03*
%TD*%
D14*
%TO.P,R1,1*%
%TO.N,VCC*%
X13337000Y38862000D03*
%TO.P,R1,2*%
%TO.N,/RSETB*%
X12317000Y38862000D03*
%TD*%
D15*
%TO.P,Module1,1A,SCK*%
%TO.N,/SCK*%
X20146000Y42959000D03*
D16*
%TO.P,Module1,1B,ANT*%
%TO.N,/ANT*%
X12606000Y50499000D03*
D15*
%TO.P,Module1,1C,VCC*%
%TO.N,VCC*%
X20146000Y52959000D03*
D16*
%TO.P,Module1,1D,GD02*%
%TO.N,unconnected-(Module1-Pad1D)*%
X22606000Y50499000D03*
D15*
%TO.P,Module1,2A,~{CSN}*%
%TO.N,/SS*%
X18876000Y42959000D03*
D16*
%TO.P,Module1,2B,GND*%
%TO.N,GND*%
X12606000Y49229000D03*
D15*
%TO.P,Module1,2C,GND*%
X18876000Y52959000D03*
D16*
%TO.P,Module1,2D,NC*%
%TO.N,unconnected-(Module1-Pad2D)*%
X22606000Y49229000D03*
D15*
%TO.P,Module1,3A,MOSI*%
%TO.N,/MOSI*%
X17606000Y42959000D03*
D16*
%TO.P,Module1,3B,NC*%
%TO.N,unconnected-(Module1-Pad3B)*%
X12606000Y47959000D03*
D15*
%TO.P,Module1,3C,NC*%
%TO.N,unconnected-(Module1-Pad3C)*%
X17606000Y52959000D03*
D16*
%TO.P,Module1,3D,GD00*%
%TO.N,/D2*%
X22606000Y47959000D03*
D15*
%TO.P,Module1,4A,MISO/GD01*%
%TO.N,/MISO*%
X16336000Y42959000D03*
D16*
%TO.P,Module1,4B,NC*%
%TO.N,unconnected-(Module1-Pad4B)*%
X12606000Y46689000D03*
D15*
%TO.P,Module1,4C,NC*%
%TO.N,unconnected-(Module1-Pad4C)*%
X16336000Y52959000D03*
D16*
%TO.P,Module1,4D,NC*%
%TO.N,unconnected-(Module1-Pad4D)*%
X22606000Y46689000D03*
D15*
%TO.P,Module1,5A,NC*%
%TO.N,unconnected-(Module1-Pad5A)*%
X15066000Y42959000D03*
D16*
%TO.P,Module1,5B,NC*%
%TO.N,unconnected-(Module1-Pad5B)*%
X12606000Y45419000D03*
D15*
%TO.P,Module1,5C,NC*%
%TO.N,unconnected-(Module1-Pad5C)*%
X15066000Y52959000D03*
D16*
%TO.P,Module1,5D,GND*%
%TO.N,GND*%
X22606000Y45419000D03*
%TD*%
D12*
%TO.P,C2,1*%
%TO.N,GND*%
X16792000Y19050000D03*
%TO.P,C2,2*%
%TO.N,Net-(C2-Pad2)*%
X17752000Y19050000D03*
%TD*%
D17*
%TO.P,C4,1*%
%TO.N,VCC*%
X22606000Y25809000D03*
%TO.P,C4,2*%
%TO.N,GND*%
X22606000Y26769000D03*
%TD*%
D12*
%TO.P,C6,1*%
%TO.N,GND*%
X15014000Y34036000D03*
%TO.P,C6,2*%
%TO.N,VCC*%
X15974000Y34036000D03*
%TD*%
%TO.P,C8,1*%
%TO.N,Net-(C8-Pad1)*%
X13236000Y19050000D03*
%TO.P,C8,2*%
%TO.N,GND*%
X14196000Y19050000D03*
%TD*%
D18*
%TO.P,R2,1*%
%TO.N,VCC*%
X10285000Y19050000D03*
%TO.P,R2,2*%
%TO.N,Net-(C8-Pad1)*%
X11305000Y19050000D03*
%TD*%
D14*
%TO.P,R6,1*%
%TO.N,/VDDA*%
X5082000Y16256000D03*
%TO.P,R6,2*%
%TO.N,/SDA*%
X4062000Y16256000D03*
%TD*%
D19*
%TO.P,C5,1*%
%TO.N,/plusBAT*%
X14986000Y7813000D03*
%TO.P,C5,2*%
%TO.N,GND*%
X14986000Y9713000D03*
%TD*%
D20*
%TO.P,SW1,A*%
%TO.N,/CONFIG*%
X19622172Y9047667D03*
%TO.P,SW1,B,e*%
X19622172Y15047667D03*
%TO.P,SW1,C*%
%TO.N,GND*%
X23372172Y9047667D03*
%TO.P,SW1,D*%
X23372172Y15047667D03*
%TD*%
D21*
%TO.P,C11,1*%
%TO.N,VCC*%
X20165000Y54483000D03*
%TO.P,C11,2*%
%TO.N,GND*%
X19205000Y54483000D03*
%TD*%
%TO.P,C12,1*%
%TO.N,VCC*%
X20165000Y55499000D03*
%TO.P,C12,2*%
%TO.N,GND*%
X19205000Y55499000D03*
%TD*%
D17*
%TO.P,C13,1*%
%TO.N,/ANT*%
X5461000Y58575000D03*
%TO.P,C13,2*%
%TO.N,Net-(AE1-Pad1)*%
X5461000Y59535000D03*
%TD*%
D22*
%TO.P,L1,1,1*%
%TO.N,/plusBAT*%
X13292000Y4445000D03*
%TO.P,L1,2,2*%
%TO.N,/L*%
X11192000Y4445000D03*
%TD*%
D23*
%TO.P,U2,1,VIN*%
%TO.N,/plusBAT*%
X13096000Y9863000D03*
%TO.P,U2,2,FB*%
%TO.N,VCC*%
X12446000Y9863000D03*
%TO.P,U2,3,GND*%
%TO.N,GND*%
X11796000Y9863000D03*
%TO.P,U2,4,VOUT*%
%TO.N,VCC*%
X11796000Y7663000D03*
%TO.P,U2,5,L*%
%TO.N,/L*%
X12446000Y7663000D03*
%TO.P,U2,6,EN*%
%TO.N,/plusBAT*%
X13096000Y7663000D03*
%TD*%
D19*
%TO.P,C9,1*%
%TO.N,VCC*%
X9652000Y7813000D03*
%TO.P,C9,2*%
%TO.N,GND*%
X9652000Y9713000D03*
%TD*%
D24*
%TO.P,U1,1,PB5*%
%TO.N,/MOSI*%
X19367000Y32497000D03*
%TO.P,U1,2,PB6*%
%TO.N,/MISO*%
X18567000Y32497000D03*
%TO.P,U1,3,PB7*%
%TO.N,/SCK*%
X17767000Y32497000D03*
%TO.P,U1,4,~{RESET}*%
%TO.N,/RSETB*%
X16967000Y32497000D03*
%TO.P,U1,5,VCC*%
%TO.N,VCC*%
X16167000Y32497000D03*
%TO.P,U1,6,GND*%
%TO.N,GND*%
X15367000Y32497000D03*
%TO.P,U1,7,XTAL2*%
%TO.N,unconnected-(U1-Pad7)*%
X14567000Y32497000D03*
%TO.P,U1,8,XTAL1*%
%TO.N,unconnected-(U1-Pad8)*%
X13767000Y32497000D03*
%TO.P,U1,9,PD0*%
%TO.N,/RXD0*%
X12967000Y32497000D03*
%TO.P,U1,10,PD1*%
%TO.N,/TXD0*%
X12167000Y32497000D03*
%TO.P,U1,11,PD2*%
%TO.N,/D2*%
X11367000Y32497000D03*
D25*
%TO.P,U1,12,PD3*%
%TO.N,unconnected-(U1-Pad12)*%
X9667000Y30797000D03*
%TO.P,U1,13,PD4*%
%TO.N,Net-(R4-Pad1)*%
X9667000Y29997000D03*
%TO.P,U1,14,PD5*%
%TO.N,unconnected-(U1-Pad14)*%
X9667000Y29197000D03*
%TO.P,U1,15,PD6*%
%TO.N,unconnected-(U1-Pad15)*%
X9667000Y28397000D03*
%TO.P,U1,16,PD7*%
%TO.N,unconnected-(U1-Pad16)*%
X9667000Y27597000D03*
%TO.P,U1,17,VCC*%
%TO.N,VCC*%
X9667000Y26797000D03*
%TO.P,U1,18,GND*%
%TO.N,GND*%
X9667000Y25997000D03*
%TO.P,U1,19,PC0*%
%TO.N,/SCL*%
X9667000Y25197000D03*
%TO.P,U1,20,PC1*%
%TO.N,/SDA*%
X9667000Y24397000D03*
%TO.P,U1,21,PC2*%
%TO.N,unconnected-(U1-Pad21)*%
X9667000Y23597000D03*
%TO.P,U1,22,PC3*%
%TO.N,unconnected-(U1-Pad22)*%
X9667000Y22797000D03*
D24*
%TO.P,U1,23,PC4*%
%TO.N,unconnected-(U1-Pad23)*%
X11367000Y21097000D03*
%TO.P,U1,24,PC5*%
%TO.N,unconnected-(U1-Pad24)*%
X12167000Y21097000D03*
%TO.P,U1,25,PC6*%
%TO.N,/CONFIG*%
X12967000Y21097000D03*
%TO.P,U1,26,PC7*%
%TO.N,unconnected-(U1-Pad26)*%
X13767000Y21097000D03*
%TO.P,U1,27,AVCC*%
%TO.N,Net-(C8-Pad1)*%
X14567000Y21097000D03*
%TO.P,U1,28,GND*%
%TO.N,GND*%
X15367000Y21097000D03*
%TO.P,U1,29,AREF*%
%TO.N,Net-(C2-Pad2)*%
X16167000Y21097000D03*
%TO.P,U1,30,PA7*%
%TO.N,unconnected-(U1-Pad30)*%
X16967000Y21097000D03*
%TO.P,U1,31,PA6*%
%TO.N,unconnected-(U1-Pad31)*%
X17767000Y21097000D03*
%TO.P,U1,32,PA5*%
%TO.N,unconnected-(U1-Pad32)*%
X18567000Y21097000D03*
%TO.P,U1,33,PA4*%
%TO.N,unconnected-(U1-Pad33)*%
X19367000Y21097000D03*
D25*
%TO.P,U1,34,PA3*%
%TO.N,unconnected-(U1-Pad34)*%
X21067000Y22797000D03*
%TO.P,U1,35,PA2*%
%TO.N,unconnected-(U1-Pad35)*%
X21067000Y23597000D03*
%TO.P,U1,36,PA1*%
%TO.N,unconnected-(U1-Pad36)*%
X21067000Y24397000D03*
%TO.P,U1,37,PA0*%
%TO.N,Net-(R3-Pad1)*%
X21067000Y25197000D03*
%TO.P,U1,38,VCC*%
%TO.N,VCC*%
X21067000Y25997000D03*
%TO.P,U1,39,GND*%
%TO.N,GND*%
X21067000Y26797000D03*
%TO.P,U1,40,PB0*%
%TO.N,unconnected-(U1-Pad40)*%
X21067000Y27597000D03*
%TO.P,U1,41,PB1*%
%TO.N,unconnected-(U1-Pad41)*%
X21067000Y28397000D03*
%TO.P,U1,42,PB2*%
%TO.N,unconnected-(U1-Pad42)*%
X21067000Y29197000D03*
%TO.P,U1,43,PB3*%
%TO.N,unconnected-(U1-Pad43)*%
X21067000Y29997000D03*
%TO.P,U1,44,PB4*%
%TO.N,/SS*%
X21067000Y30797000D03*
%TD*%
D21*
%TO.P,C3,1*%
%TO.N,VCC*%
X15974000Y35052000D03*
%TO.P,C3,2*%
%TO.N,GND*%
X15014000Y35052000D03*
%TD*%
D26*
%TO.P,C15,1*%
%TO.N,GND*%
X3683000Y14704000D03*
%TO.P,C15,2*%
%TO.N,/VDDA*%
X3683000Y13744000D03*
%TD*%
D27*
%TO.P,AE1,*%
%TO.N,*%
X21478000Y73745000D03*
X15478000Y73745000D03*
X9478000Y73745000D03*
X5478000Y73745000D03*
X13478000Y68745000D03*
X9478000Y68745000D03*
X19478000Y73745000D03*
X17478000Y73745000D03*
X11478000Y68745000D03*
X19478000Y68745000D03*
X13478000Y73745000D03*
X17478000Y68745000D03*
X11478000Y73745000D03*
X7478000Y68745000D03*
X15478000Y68745000D03*
X21478000Y68745000D03*
X7478000Y73745000D03*
X23478000Y73745000D03*
X23478000Y68745000D03*
D28*
%TO.P,AE1,1,A*%
%TO.N,Net-(AE1-Pad1)*%
X5478000Y62045000D03*
%TD*%
D29*
%TO.P,NT1,1,1*%
%TO.N,GND*%
X4191000Y24900000D03*
%TO.P,NT1,2,2*%
%TO.N,/CTS*%
X4191000Y25900000D03*
%TD*%
D17*
%TO.P,C14,1*%
%TO.N,/VDDA*%
X5207000Y13744000D03*
%TO.P,C14,2*%
%TO.N,GND*%
X5207000Y14704000D03*
%TD*%
D30*
%TO.P,H4,1*%
%TO.N,N/C*%
X1778000Y20447000D03*
%TD*%
D26*
%TO.P,C7,1*%
%TO.N,VCC*%
X7620000Y27150000D03*
%TO.P,C7,2*%
%TO.N,GND*%
X7620000Y26190000D03*
%TD*%
D30*
%TO.P,H3,1*%
%TO.N,N/C*%
X5588000Y2175000D03*
%TD*%
D31*
%TO.P,JP1,1,A*%
%TO.N,GND*%
X5192000Y39243000D03*
%TO.P,JP1,2,B*%
%TO.N,/RSETB*%
X6492000Y39243000D03*
%TD*%
D14*
%TO.P,R3,1*%
%TO.N,Net-(R3-Pad1)*%
X21719000Y19558000D03*
%TO.P,R3,2*%
%TO.N,/plusBAT*%
X20699000Y19558000D03*
%TD*%
D30*
%TO.P,H1,1*%
%TO.N,N/C*%
X23079000Y59817000D03*
%TD*%
D32*
%TO.P,FB1,1*%
%TO.N,VCC*%
X5715000Y11199000D03*
%TO.P,FB1,2*%
%TO.N,/VDDA*%
X5715000Y12169000D03*
%TD*%
D14*
%TO.P,R5,1*%
%TO.N,/VDDA*%
X4701000Y12192000D03*
%TO.P,R5,2*%
%TO.N,/SCL*%
X3681000Y12192000D03*
%TD*%
D33*
%TO.P,U3,1,SDA*%
%TO.N,/SDA*%
X1040000Y14614000D03*
%TO.P,U3,2,SCL*%
%TO.N,/SCL*%
X1040000Y13814000D03*
%TO.P,U3,3,VDD*%
%TO.N,/VDDA*%
X2440000Y13814000D03*
%TO.P,U3,4,VSS*%
%TO.N,GND*%
X2440000Y14614000D03*
%TD*%
D34*
%TO.P,L2,1,1*%
%TO.N,Net-(AE1-Pad1)*%
X5484000Y60579000D03*
%TO.P,L2,2,2*%
%TO.N,GND*%
X6454000Y60579000D03*
%TD*%
D30*
%TO.P,H2,1*%
%TO.N,N/C*%
X1778000Y59817000D03*
%TD*%
D35*
%TO.P,BT1,1,+*%
%TO.N,/plusBAT*%
X16129000Y3175000D03*
D36*
%TO.P,BT1,2,-*%
%TO.N,GND*%
X16129000Y55165000D03*
%TD*%
D37*
%TO.P,J1,1,Pin_1*%
%TO.N,GND*%
X1828000Y7275000D03*
D38*
%TO.P,J1,2,Pin_2*%
%TO.N,VCC*%
X1828000Y4735000D03*
%TO.P,J1,3,Pin_3*%
%TO.N,/plusBAT*%
X1828000Y2195000D03*
%TD*%
D37*
%TO.P,J3,1,Pin_1*%
%TO.N,VCC*%
X1828000Y43180000D03*
D38*
%TO.P,J3,2,Pin_2*%
%TO.N,GND*%
X1828000Y45720000D03*
%TO.P,J3,3,Pin_3*%
%TO.N,/MOSI*%
X1828000Y48260000D03*
%TO.P,J3,4,Pin_4*%
%TO.N,/SCK*%
X1828000Y50800000D03*
%TO.P,J3,5,Pin_5*%
%TO.N,/MISO*%
X1828000Y53340000D03*
%TO.P,J3,6,Pin_6*%
%TO.N,/RSETB*%
X1828000Y55880000D03*
%TD*%
D37*
%TO.P,J2,1,Pin_1*%
%TO.N,/DTR*%
X1828000Y36830000D03*
D38*
%TO.P,J2,2,Pin_2*%
%TO.N,/TXD0*%
X1828000Y34290000D03*
%TO.P,J2,3,Pin_3*%
%TO.N,/RXD0*%
X1828000Y31750000D03*
%TO.P,J2,4,Pin_4*%
%TO.N,VCC*%
X1828000Y29210000D03*
%TO.P,J2,5,Pin_5*%
%TO.N,/CTS*%
X1828000Y26670000D03*
%TO.P,J2,6,Pin_6*%
%TO.N,GND*%
X1828000Y24130000D03*
%TD*%
D39*
%TO.N,GND*%
X20447000Y56388000D03*
X11049000Y27686000D03*
X10879000Y9863000D03*
X15367000Y22352000D03*
X9398000Y54864000D03*
X13462000Y35306000D03*
X14859000Y36195000D03*
X10922000Y26035000D03*
X22987000Y44323000D03*
X8128000Y34417000D03*
X19304000Y25146000D03*
X9525000Y11049000D03*
X15367000Y31242000D03*
X2667000Y9398000D03*
X8128000Y36068000D03*
X4445000Y15367000D03*
X3556000Y39243000D03*
X18288000Y54356000D03*
X11176000Y59055000D03*
X3556000Y23495000D03*
X22352000Y28067000D03*
X10287000Y42291000D03*
X23368000Y31877000D03*
X14478000Y11049000D03*
X7493000Y60579000D03*
X19304000Y56388000D03*
X6731000Y59563000D03*
X15494000Y11049000D03*
X22860000Y33782000D03*
X1016000Y40894000D03*
X11430000Y49276000D03*
X10160000Y47244000D03*
X14224000Y55372000D03*
X16383000Y17399000D03*
X7423413Y24868418D03*
X11176000Y56642000D03*
X14732000Y17399000D03*
X23368000Y16256000D03*
X10160000Y44831000D03*
X10541000Y11049000D03*
X19812000Y26797000D03*
X8128000Y37429500D03*
X10287000Y39497000D03*
%TO.N,/SS*%
X19812000Y40767000D03*
X18859650Y41719350D03*
%TO.N,/D2*%
X21844000Y31750000D03*
X14859000Y30480000D03*
X20574000Y31750000D03*
X17018000Y30480000D03*
%TO.N,/SCL*%
X6858000Y10160000D03*
X8001000Y19685000D03*
X8014585Y18186000D03*
X4826000Y10160000D03*
%TO.N,/SDA*%
X7747000Y20701000D03*
X5461000Y20701000D03*
%TO.N,/MOSI*%
X17084154Y40115001D03*
X9271000Y41021000D03*
X9271000Y42291000D03*
X17182898Y41314001D03*
%TO.N,/SCK*%
X8572500Y42862500D03*
X18470037Y40481914D03*
X8509000Y40259000D03*
X18199227Y38883413D03*
%TO.N,/MISO*%
X15494000Y41656000D03*
X5609608Y48457929D03*
X15494000Y39751000D03*
X5334000Y44577000D03*
%TO.N,VCC*%
X12573000Y16637000D03*
X10287000Y58166000D03*
X6985000Y55880000D03*
X6985000Y49911000D03*
X21717000Y16383000D03*
X19431000Y16383000D03*
X3937000Y34163000D03*
X13337000Y39749000D03*
X3937000Y37592000D03*
X11430000Y15621000D03*
X3810000Y49911000D03*
X13335000Y42418000D03*
%TO.N,/plusBAT*%
X13716000Y7112000D03*
X13096000Y11191000D03*
%TO.N,/CONFIG*%
X9525000Y18288000D03*
X9525000Y19812000D03*
%TO.N,/RSETB*%
X6533404Y46942419D03*
X6148316Y42914862D03*
%TD*%
D40*
%TO.N,GND*%
X12700000Y35306000D02*
X12065000Y35941000D01*
X10287000Y42291000D02*
X10287000Y44704000D01*
X22606000Y45419000D02*
X22606000Y44704000D01*
X19812000Y26797000D02*
X21067000Y26797000D01*
X13970000Y55372000D02*
X12700000Y56642000D01*
X3421000Y23630000D02*
X3556000Y23495000D01*
D41*
X18288000Y54356000D02*
X18702000Y54356000D01*
D40*
X7897000Y25997000D02*
X9667000Y25997000D01*
X15240000Y19304000D02*
X15687000Y19304000D01*
X14732000Y18796000D02*
X15240000Y19304000D01*
X22352000Y30861000D02*
X23368000Y31877000D01*
X22606000Y44704000D02*
X22987000Y44323000D01*
D41*
X10160000Y47244000D02*
X10160000Y48006000D01*
D40*
X15687000Y19304000D02*
X16322000Y18669000D01*
X12606000Y49229000D02*
X11477000Y49229000D01*
X8856551Y37429500D02*
X8128000Y37429500D01*
X16129000Y55165000D02*
X19130000Y55165000D01*
X10287000Y44704000D02*
X10160000Y44831000D01*
X9652000Y9713000D02*
X9652000Y10922000D01*
X14732000Y17399000D02*
X14732000Y18603000D01*
X14859000Y36195000D02*
X14859000Y35207000D01*
D41*
X10604500Y48450500D02*
X11430000Y49276000D01*
D40*
X5192000Y37993000D02*
X5755500Y37429500D01*
D41*
X14478000Y10221000D02*
X14986000Y9713000D01*
D40*
X9705000Y26035000D02*
X9667000Y25997000D01*
X8913000Y33251000D02*
X11049000Y31115000D01*
X19304000Y56388000D02*
X19304000Y55598000D01*
X15014000Y34036000D02*
X15014000Y35052000D01*
X4938000Y39243000D02*
X3556000Y39243000D01*
X8128000Y34417000D02*
X8128000Y33251000D01*
X16792000Y19050000D02*
X15941000Y19050000D01*
X528000Y44420000D02*
X528000Y41382000D01*
X22352000Y28067000D02*
X22352000Y30861000D01*
X528000Y41382000D02*
X1016000Y40894000D01*
X13462000Y35306000D02*
X12700000Y35306000D01*
D41*
X14036000Y8763000D02*
X12046000Y8763000D01*
D40*
X3421000Y24130000D02*
X4191000Y24900000D01*
X10922000Y26035000D02*
X11684000Y26035000D01*
X12700000Y56642000D02*
X11176000Y56642000D01*
X13462000Y35306000D02*
X14760000Y35306000D01*
D41*
X14478000Y11049000D02*
X14478000Y10221000D01*
D40*
X23368000Y16256000D02*
X23368000Y15051839D01*
D41*
X10604500Y48450500D02*
X8128000Y50927000D01*
D40*
X5755500Y37429500D02*
X8128000Y37429500D01*
X11684000Y26035000D02*
X15367000Y22352000D01*
D41*
X20447000Y56388000D02*
X19304000Y56388000D01*
D40*
X15367000Y32497000D02*
X15367000Y33498614D01*
X14760000Y35306000D02*
X15014000Y35052000D01*
X10287000Y38859949D02*
X8856551Y37429500D01*
X21067000Y26797000D02*
X22578000Y26797000D01*
D41*
X8128000Y50927000D02*
X8128000Y53594000D01*
D40*
X15367000Y22352000D02*
X16510000Y22352000D01*
X5207000Y14704000D02*
X4473000Y14704000D01*
X10879000Y9863000D02*
X9802000Y9863000D01*
X22860000Y33782000D02*
X22860000Y44196000D01*
X4473000Y14704000D02*
X3683000Y14704000D01*
X22352000Y28067000D02*
X22352000Y27023000D01*
X14224000Y55372000D02*
X13970000Y55372000D01*
D42*
X2440000Y14614000D02*
X3593000Y14614000D01*
D40*
X14859000Y35207000D02*
X15014000Y35052000D01*
D41*
X11796000Y9013000D02*
X11796000Y9863000D01*
D40*
X14732000Y18603000D02*
X14732000Y18796000D01*
X14285000Y19050000D02*
X14732000Y18603000D01*
X1828000Y45720000D02*
X528000Y44420000D01*
X15941000Y19050000D02*
X15687000Y19304000D01*
X15367000Y19624000D02*
X15367000Y21097000D01*
X14224000Y55372000D02*
X15922000Y55372000D01*
X7423413Y25523413D02*
X7423413Y24868418D01*
X14196000Y19050000D02*
X14285000Y19050000D01*
X1828000Y24130000D02*
X3421000Y24130000D01*
X4445000Y15367000D02*
X4473000Y15339000D01*
X16383000Y17399000D02*
X16383000Y18608000D01*
X10668000Y59563000D02*
X11176000Y59055000D01*
X11796000Y9863000D02*
X10879000Y9863000D01*
X19130000Y55165000D02*
X19205000Y55090000D01*
D41*
X12046000Y8763000D02*
X11796000Y9013000D01*
D40*
X12065000Y35941000D02*
X11970000Y36036000D01*
X11477000Y49229000D02*
X11430000Y49276000D01*
X22352000Y27023000D02*
X22606000Y26769000D01*
D41*
X10160000Y48006000D02*
X10604500Y48450500D01*
D40*
X6731000Y60302000D02*
X6454000Y60579000D01*
D41*
X15494000Y10221000D02*
X14986000Y9713000D01*
D40*
X15367000Y33498614D02*
X15014000Y33851614D01*
X8160000Y36036000D02*
X8128000Y36068000D01*
X16510000Y22352000D02*
X19304000Y25146000D01*
X23372172Y15047667D02*
X23372172Y9047667D01*
X19205000Y55090000D02*
X19205000Y54483000D01*
X4473000Y15339000D02*
X4473000Y14704000D01*
X18876000Y54182000D02*
X18876000Y52959000D01*
X15367000Y32497000D02*
X15367000Y31242000D01*
X7620000Y25720000D02*
X7897000Y25997000D01*
X5192000Y39243000D02*
X5192000Y37993000D01*
X15014000Y33851614D02*
X15014000Y34036000D01*
D41*
X15494000Y11049000D02*
X15494000Y10221000D01*
D40*
X19177000Y54483000D02*
X18876000Y54182000D01*
X6731000Y59563000D02*
X10668000Y59563000D01*
X11049000Y31115000D02*
X11049000Y27686000D01*
X8128000Y33251000D02*
X8913000Y33251000D01*
X19304000Y55598000D02*
X19205000Y55499000D01*
X10922000Y26035000D02*
X9705000Y26035000D01*
X9652000Y10922000D02*
X9525000Y11049000D01*
X2667000Y8114000D02*
X1828000Y7275000D01*
D41*
X18702000Y54356000D02*
X18876000Y54182000D01*
D40*
X19205000Y55499000D02*
X19205000Y55090000D01*
X3421000Y24130000D02*
X3421000Y23630000D01*
D41*
X8128000Y53594000D02*
X9398000Y54864000D01*
D40*
X10287000Y39497000D02*
X10287000Y38859949D01*
X7493000Y60579000D02*
X6454000Y60579000D01*
X2667000Y9398000D02*
X2667000Y8114000D01*
X22860000Y44196000D02*
X22987000Y44323000D01*
D41*
X14986000Y9713000D02*
X14036000Y8763000D01*
D40*
X18876000Y53768000D02*
X18876000Y52959000D01*
X11970000Y36036000D02*
X8160000Y36036000D01*
X6731000Y59563000D02*
X6731000Y60302000D01*
D43*
%TO.N,Net-(D1-Pad2)*%
X8128000Y31371000D02*
X8128000Y32281000D01*
%TO.N,/SS*%
X18876000Y42959000D02*
X18876000Y41735700D01*
X18876000Y41735700D02*
X18859650Y41719350D01*
X19812000Y40767000D02*
X21173500Y39405500D01*
X21173500Y39405500D02*
X21173500Y30903500D01*
%TO.N,/D2*%
X20196000Y31372000D02*
X17910000Y31372000D01*
X17910000Y31372000D02*
X17018000Y30480000D01*
X20574000Y31750000D02*
X20196000Y31372000D01*
X11367000Y31574112D02*
X12461112Y30480000D01*
X12461112Y30480000D02*
X14859000Y30480000D01*
X11367000Y32497000D02*
X11367000Y31574112D01*
X23656000Y47259000D02*
X23656000Y33562000D01*
X22956000Y47959000D02*
X23656000Y47259000D01*
X23656000Y33562000D02*
X21844000Y31750000D01*
%TO.N,/SCL*%
X6985000Y20193000D02*
X7493000Y19685000D01*
X2667000Y13335000D02*
X1905000Y13335000D01*
X1040000Y13814000D02*
X1680000Y13814000D01*
X1680000Y13814000D02*
X1890500Y13603500D01*
X7493000Y19685000D02*
X8001000Y19685000D01*
X8014585Y11316585D02*
X8014585Y18186000D01*
X3810000Y10414000D02*
X4064000Y10160000D01*
X3810000Y12063000D02*
X3810000Y10414000D01*
X6858000Y10160000D02*
X8014585Y11316585D01*
X4064000Y10160000D02*
X4826000Y10160000D01*
X1905000Y13335000D02*
X1890500Y13349500D01*
X3681000Y12192000D02*
X2667000Y13206000D01*
X2667000Y13206000D02*
X2667000Y13335000D01*
X6985000Y23582183D02*
X6985000Y20193000D01*
X9667000Y25197000D02*
X8599817Y25197000D01*
X1890500Y13349500D02*
X1890500Y13603500D01*
X8599817Y25197000D02*
X6985000Y23582183D01*
%TO.N,/SDA*%
X2794000Y15327462D02*
X2794000Y15113000D01*
X4062000Y19302000D02*
X4062000Y16256000D01*
X1040000Y14614000D02*
X1660000Y14614000D01*
X8717000Y24397000D02*
X7747000Y23427000D01*
X5461000Y20701000D02*
X4062000Y19302000D01*
X1660000Y14614000D02*
X1905000Y14859000D01*
X3722538Y16256000D02*
X2794000Y15327462D01*
X7747000Y23427000D02*
X7747000Y20701000D01*
X2794000Y15113000D02*
X1905000Y15113000D01*
X4062000Y16256000D02*
X3722538Y16256000D01*
X9667000Y24397000D02*
X8717000Y24397000D01*
X1905000Y14859000D02*
X1905000Y15113000D01*
D42*
%TO.N,/VDDA*%
X2440000Y13814000D02*
X3613000Y13814000D01*
D40*
X5082000Y16256000D02*
X5967000Y15371000D01*
X5967000Y13841000D02*
X5967000Y12421000D01*
X5692000Y12192000D02*
X5715000Y12169000D01*
X5207000Y13744000D02*
X5870000Y13744000D01*
X5870000Y13744000D02*
X5967000Y13841000D01*
X5967000Y12421000D02*
X5715000Y12169000D01*
X5967000Y15371000D02*
X5967000Y13841000D01*
X5207000Y13744000D02*
X3683000Y13744000D01*
X4701000Y12192000D02*
X5692000Y12192000D01*
D43*
%TO.N,/MOSI*%
X9271000Y43357000D02*
X4809001Y47818999D01*
X16581500Y41584500D02*
X16036501Y41039501D01*
X16851999Y41314001D02*
X17182898Y41314001D01*
X1277000Y51950000D02*
X508000Y51181000D01*
X9271000Y42291000D02*
X9271000Y43357000D01*
X18613028Y39882414D02*
X17316741Y39882414D01*
X17316741Y39882414D02*
X17084154Y40115001D01*
X4809001Y50324801D02*
X3183802Y51950000D01*
X14976480Y41147502D02*
X9397502Y41147502D01*
X16581500Y41584500D02*
X16851999Y41314001D01*
X3183802Y51950000D02*
X1277000Y51950000D01*
X19994503Y38500939D02*
X18613028Y39882414D01*
X19994503Y33124503D02*
X19994503Y38500939D01*
X16036501Y41039501D02*
X15084481Y41039501D01*
X15084481Y41039501D02*
X14976480Y41147502D01*
X508000Y49580000D02*
X1828000Y48260000D01*
X9397502Y41147502D02*
X9271000Y41021000D01*
X17606000Y42609000D02*
X16581500Y41584500D01*
X4809001Y47818999D02*
X4809001Y50324801D01*
X508000Y51181000D02*
X508000Y49580000D01*
X19367000Y32497000D02*
X19994503Y33124503D01*
%TO.N,/SCK*%
X8509000Y40259000D02*
X9636198Y40259000D01*
X19195501Y37757479D02*
X18199227Y38753753D01*
X4409500Y49662678D02*
X4359501Y49612679D01*
X9636198Y40259000D02*
X10125199Y40748001D01*
X20146000Y42157877D02*
X18470037Y40481914D01*
X3768822Y50800000D02*
X4409500Y50159322D01*
X19195501Y35100704D02*
X19195501Y37757479D01*
X1828000Y50800000D02*
X3768822Y50800000D01*
X10125199Y40748001D02*
X14496999Y40748001D01*
X18199227Y38753753D02*
X18199227Y38883413D01*
X17767000Y33672203D02*
X19195501Y35100704D01*
X4359501Y49612679D02*
X4359501Y47075499D01*
X4359501Y47075499D02*
X8572500Y42862500D01*
X17767000Y32497000D02*
X17767000Y33672203D01*
X16835832Y40714501D02*
X18237450Y40714501D01*
X16761331Y40640000D02*
X16835832Y40714501D01*
X14496999Y40748001D02*
X14605000Y40640000D01*
X14605000Y40640000D02*
X16761331Y40640000D01*
X4409500Y50159322D02*
X4409500Y49662678D01*
X20146000Y42959000D02*
X20146000Y42157877D01*
X18237450Y40714501D02*
X18470037Y40481914D01*
%TO.N,/MISO*%
X1828000Y53340000D02*
X3030081Y53340000D01*
X18447549Y39482913D02*
X15762087Y39482913D01*
X19595002Y34935225D02*
X19595002Y38098904D01*
X18798727Y39131735D02*
X18447549Y39482913D01*
X5334000Y44577000D02*
X8255000Y41656000D01*
X15383000Y41656000D02*
X16336000Y42609000D01*
X19595002Y38098904D02*
X18798727Y38895179D01*
X3030081Y53340000D02*
X5609608Y50760473D01*
X15762087Y39482913D02*
X15494000Y39751000D01*
X18567000Y33907223D02*
X19595002Y34935225D01*
X8255000Y41656000D02*
X15383000Y41656000D01*
X5609608Y50760473D02*
X5609608Y48457929D01*
X18798727Y38895179D02*
X18798727Y39131735D01*
X18567000Y32497000D02*
X18567000Y33907223D01*
D40*
%TO.N,VCC*%
X9652000Y7813000D02*
X8443000Y7813000D01*
X1828000Y4735000D02*
X3719000Y4735000D01*
X3719000Y4735000D02*
X7058000Y8074000D01*
X16167000Y28029000D02*
X16167000Y29680000D01*
X16167000Y29680000D02*
X16167000Y32497000D01*
X23622000Y52959000D02*
X24289000Y52292000D01*
X3418000Y27620000D02*
X1828000Y29210000D01*
X6289000Y27620000D02*
X3418000Y27620000D01*
X22418000Y25997000D02*
X22606000Y25809000D01*
X13970000Y38862000D02*
X16002000Y36830000D01*
X24289000Y26453000D02*
X23645000Y25809000D01*
D41*
X11094000Y12065000D02*
X11094000Y15285000D01*
D40*
X5715000Y11199000D02*
X5715000Y9544000D01*
X3810000Y45162000D02*
X3810000Y49911000D01*
X5909993Y11199000D02*
X7239000Y12528007D01*
X6289000Y27620000D02*
X6289000Y20000000D01*
X6289000Y20000000D02*
X7239000Y19050000D01*
X7239000Y12528007D02*
X7239000Y19050000D01*
X11796000Y7663000D02*
X9802000Y7663000D01*
X9652000Y7813000D02*
X6797000Y7813000D01*
X5715000Y11199000D02*
X5909993Y11199000D01*
X18199000Y25997000D02*
X16167000Y28029000D01*
X15075000Y29680000D02*
X16167000Y29680000D01*
X7058000Y8201000D02*
X7446000Y7813000D01*
X7239000Y19050000D02*
X7576046Y19050000D01*
D41*
X11094000Y15285000D02*
X11430000Y15621000D01*
D40*
X1828000Y43180000D02*
X3810000Y45162000D01*
X8443000Y7813000D02*
X7446000Y7813000D01*
X21067000Y25997000D02*
X18199000Y25997000D01*
X6985000Y55880000D02*
X6985000Y49911000D01*
X6985000Y49101534D02*
X13335000Y42751534D01*
X21336000Y55753000D02*
X21336000Y56896000D01*
X15974000Y35052000D02*
X15974000Y34036000D01*
X6985000Y49911000D02*
X6985000Y49101534D01*
X12235954Y26797000D02*
X12235954Y26840954D01*
D41*
X12446000Y9863000D02*
X12446000Y10713000D01*
D40*
X8425954Y19050000D02*
X10285000Y19050000D01*
X20165000Y54483000D02*
X20165000Y52978000D01*
D41*
X8527000Y11829000D02*
X8527000Y7897000D01*
D40*
X7058000Y8074000D02*
X7058000Y8201000D01*
X15974000Y34036000D02*
X16167000Y33843000D01*
X21067000Y25997000D02*
X22418000Y25997000D01*
X5715000Y9544000D02*
X7058000Y8201000D01*
X13335000Y42751534D02*
X13335000Y42418000D01*
X23645000Y25809000D02*
X22606000Y25809000D01*
X6797000Y7813000D02*
X3719000Y4735000D01*
X1828000Y39701000D02*
X1828000Y43180000D01*
X20165000Y55499000D02*
X20165000Y54483000D01*
X21082000Y55499000D02*
X21336000Y55753000D01*
X22606000Y24770000D02*
X22547172Y24711172D01*
X8311454Y18935500D02*
X8425954Y19050000D01*
X7576046Y19050000D02*
X7690546Y18935500D01*
X3937000Y31319000D02*
X3937000Y34163000D01*
D41*
X12446000Y10713000D02*
X11094000Y12065000D01*
D40*
X16002000Y36830000D02*
X16002000Y35080000D01*
X3937000Y37592000D02*
X1828000Y39701000D01*
X7690546Y18935500D02*
X8311454Y18935500D01*
X24289000Y52292000D02*
X24289000Y26453000D01*
X20165000Y55499000D02*
X21082000Y55499000D01*
D41*
X8527000Y7897000D02*
X8443000Y7813000D01*
D40*
X22547172Y24711172D02*
X22547172Y17213172D01*
X12824685Y16383000D02*
X10285000Y18922685D01*
X9667000Y26797000D02*
X12235954Y26797000D01*
X22547172Y17213172D02*
X21717000Y16383000D01*
D41*
X11094000Y12065000D02*
X8763000Y12065000D01*
D40*
X10285000Y18922685D02*
X10285000Y19050000D01*
X8443000Y26797000D02*
X7620000Y27620000D01*
X9667000Y26797000D02*
X8443000Y26797000D01*
D41*
X8763000Y12065000D02*
X8527000Y11829000D01*
D40*
X20066000Y58166000D02*
X10287000Y58166000D01*
X20146000Y52959000D02*
X23622000Y52959000D01*
X1828000Y29210000D02*
X3937000Y31319000D01*
X13337000Y38862000D02*
X13970000Y38862000D01*
X16167000Y33843000D02*
X16167000Y32497000D01*
X21336000Y56896000D02*
X20066000Y58166000D01*
X13337000Y38862000D02*
X13337000Y39749000D01*
X12235954Y26840954D02*
X15075000Y29680000D01*
X19431000Y16383000D02*
X12824685Y16383000D01*
X7620000Y27620000D02*
X6289000Y27620000D01*
X22606000Y25809000D02*
X22606000Y24770000D01*
D41*
%TO.N,/plusBAT*%
X17333000Y7813000D02*
X14986000Y7813000D01*
X17145000Y12700000D02*
X17333000Y12512000D01*
X13096000Y11191000D02*
X13096000Y12461000D01*
D40*
X13096000Y7663000D02*
X13096000Y4641000D01*
X10541000Y1905000D02*
X12954000Y1905000D01*
D41*
X13335000Y12700000D02*
X17145000Y12700000D01*
D40*
X13246000Y7813000D02*
X13096000Y7663000D01*
D41*
X20699000Y8449495D02*
X20062505Y7813000D01*
X20699000Y19558000D02*
X20699000Y8449495D01*
D40*
X14986000Y7813000D02*
X13246000Y7813000D01*
X14859000Y4445000D02*
X16129000Y3175000D01*
X8571000Y3875000D02*
X10541000Y1905000D01*
D41*
X17333000Y12512000D02*
X17333000Y7813000D01*
D40*
X13292000Y2243000D02*
X13292000Y4445000D01*
X3508000Y3875000D02*
X8571000Y3875000D01*
X1828000Y2195000D02*
X3508000Y3875000D01*
X12954000Y1905000D02*
X13292000Y2243000D01*
D41*
X13096000Y9863000D02*
X13096000Y11191000D01*
X13096000Y12461000D02*
X13335000Y12700000D01*
D40*
X13292000Y4445000D02*
X14859000Y4445000D01*
D41*
X20062505Y7813000D02*
X17333000Y7813000D01*
D43*
%TO.N,/CONFIG*%
X12867000Y22147000D02*
X10792000Y22147000D01*
X10792000Y22147000D02*
X9525000Y20880000D01*
X12967000Y21097000D02*
X12967000Y22047000D01*
X9610822Y18288000D02*
X12851155Y15047667D01*
X12851155Y15047667D02*
X19622172Y15047667D01*
X9525000Y18288000D02*
X9610822Y18288000D01*
X19622172Y15047667D02*
X19622172Y9047667D01*
X12967000Y22047000D02*
X12867000Y22147000D01*
X9525000Y20880000D02*
X9525000Y19812000D01*
%TO.N,/DTR*%
X10823000Y37211000D02*
X10442000Y36830000D01*
X10442000Y36830000D02*
X1828000Y36830000D01*
%TO.N,/RSETB*%
X13936500Y39997322D02*
X13585322Y40348500D01*
X12737500Y39549612D02*
X12317000Y39129112D01*
X7620000Y39878000D02*
X6148316Y41349684D01*
X13936500Y39926612D02*
X13936500Y39997322D01*
X10038678Y40096500D02*
X10535322Y40096500D01*
X6148316Y41349684D02*
X6148316Y42914862D01*
X17151405Y39083412D02*
X14652700Y39083412D01*
X6238000Y39243000D02*
X6985000Y39243000D01*
X6183295Y51524705D02*
X6183295Y48732064D01*
X12317000Y39129112D02*
X12317000Y38862000D01*
X11783000Y38778112D02*
X11699112Y38862000D01*
X9539789Y39597611D02*
X10038678Y40096500D01*
X16967000Y32497000D02*
X16967000Y33437183D01*
X10535322Y40096500D02*
X10886500Y39745322D01*
X16967000Y33437183D02*
X18400000Y34870183D01*
X10886500Y39745322D02*
X10886500Y39674612D01*
X11699112Y38862000D02*
X12317000Y38862000D01*
X14011501Y39851611D02*
X13936500Y39926612D01*
X6985000Y39243000D02*
X7620000Y39878000D01*
X14011501Y39724611D02*
X14011501Y39851611D01*
X13585322Y40348500D02*
X13088678Y40348500D01*
X10886500Y39674612D02*
X11699112Y38862000D01*
X7620000Y39878000D02*
X7900389Y39597611D01*
X11783000Y37211000D02*
X11783000Y38778112D01*
X18400000Y34870183D02*
X18400000Y37834817D01*
X18400000Y37834817D02*
X17151405Y39083412D01*
X1828000Y55880000D02*
X6183295Y51524705D01*
X7900389Y39597611D02*
X9539789Y39597611D01*
X6183295Y48732064D02*
X6533404Y48381955D01*
X6533404Y48381955D02*
X6533404Y46942419D01*
X12737500Y39997322D02*
X12737500Y39549612D01*
X14652700Y39083412D02*
X14011501Y39724611D01*
X13088678Y40348500D02*
X12737500Y39997322D01*
%TO.N,/RXD0*%
X678000Y34766346D02*
X678000Y32900000D01*
X11140500Y35468500D02*
X1380154Y35468500D01*
X678000Y32900000D02*
X1828000Y31750000D01*
X12967000Y33642000D02*
X11140500Y35468500D01*
X12967000Y32497000D02*
X12967000Y33642000D01*
X1380154Y35468500D02*
X678000Y34766346D01*
%TO.N,/TXD0*%
X10545001Y35068999D02*
X2606999Y35068999D01*
X12167000Y32497000D02*
X12167000Y33447000D01*
X2606999Y35068999D02*
X1828000Y34290000D01*
X12167000Y33447000D02*
X10545001Y35068999D01*
D41*
%TO.N,/L*%
X11983000Y6350000D02*
X11938000Y6350000D01*
X11938000Y6350000D02*
X11192000Y5604000D01*
X12446000Y7663000D02*
X12446000Y6813000D01*
X12446000Y6813000D02*
X11983000Y6350000D01*
D44*
%TO.N,Net-(AE1-Pad1)*%
X5461000Y59535000D02*
X5461000Y60556000D01*
D41*
X5484000Y60579000D02*
X5484000Y61945500D01*
D44*
X5461000Y60556000D02*
X5484000Y60579000D01*
D43*
%TO.N,Net-(R3-Pad1)*%
X20017000Y22020000D02*
X21719000Y20318000D01*
X21067000Y25197000D02*
X20242000Y25197000D01*
X21719000Y20318000D02*
X21719000Y19558000D01*
X20017000Y24972000D02*
X20017000Y22020000D01*
X20242000Y25197000D02*
X20017000Y24972000D01*
%TO.N,Net-(R4-Pad1)*%
X8482000Y29997000D02*
X8128000Y30351000D01*
X9667000Y29997000D02*
X8482000Y29997000D01*
D44*
%TO.N,/ANT*%
X12606000Y53307000D02*
X12606000Y50499000D01*
X7338000Y58575000D02*
X12606000Y53307000D01*
X5461000Y58575000D02*
X7338000Y58575000D01*
D43*
%TO.N,/CTS*%
X3421000Y26670000D02*
X4191000Y25900000D01*
X1828000Y26670000D02*
X3421000Y26670000D01*
%TO.N,Net-(C2-Pad2)*%
X17142000Y19660000D02*
X17752000Y19050000D01*
X16662000Y19660000D02*
X17142000Y19660000D01*
X16167000Y20155000D02*
X16662000Y19660000D01*
X16167000Y20155000D02*
X16167000Y21097000D01*
%TO.N,Net-(C8-Pad1)*%
X12954000Y19939000D02*
X12700000Y19685000D01*
X12700000Y19050000D02*
X13236000Y19050000D01*
X14462888Y19939000D02*
X12954000Y19939000D01*
X12700000Y19685000D02*
X12700000Y19050000D01*
X11305000Y19050000D02*
X12700000Y19050000D01*
X14567000Y20043112D02*
X14462888Y19939000D01*
X14567000Y21097000D02*
X14567000Y20043112D01*
%TD*%
%TA.AperFunction,Conductor*%
%TO.N,/plusBAT*%
G36*
X17907000Y1904000D02*
G01*
X17886998Y1835879D01*
X17833342Y1789386D01*
X17781000Y1778000D01*
X13080000Y1778000D01*
X13011879Y1798002D01*
X12965386Y1851658D01*
X12954000Y1904000D01*
X12954000Y7748000D01*
X12974002Y7816121D01*
X13027658Y7862614D01*
X13080000Y7874000D01*
X17907000Y7874000D01*
X17907000Y1904000D01*
G37*
%TD.AperFunction*%
%TD*%
%TA.AperFunction,Conductor*%
%TO.N,GND*%
G36*
X15817121Y11536998D02*
G01*
X15863614Y11483342D01*
X15875000Y11431000D01*
X15875000Y8762000D01*
X15854998Y8693879D01*
X15801342Y8647386D01*
X15749000Y8636000D01*
X11556000Y8636000D01*
X11487879Y8656002D01*
X11441386Y8709658D01*
X11430000Y8762000D01*
X11430000Y9144000D01*
X13970000Y9144000D01*
X13970000Y11431000D01*
X13990002Y11499121D01*
X14043658Y11545614D01*
X14096000Y11557000D01*
X15749000Y11557000D01*
X15817121Y11536998D01*
G37*
%TD.AperFunction*%
%TD*%
%TA.AperFunction,Conductor*%
%TO.N,/plusBAT*%
G36*
X17849121Y13695998D02*
G01*
X17895614Y13642342D01*
X17907000Y13590000D01*
X17907000Y7874000D01*
X14224000Y7874000D01*
X14224000Y8129000D01*
X14244002Y8197121D01*
X14297658Y8243614D01*
X14350000Y8255000D01*
X16256000Y8255000D01*
X16256000Y11938000D01*
X13589000Y11938000D01*
X13589000Y9524000D01*
X13568998Y9455879D01*
X13515342Y9409386D01*
X13463000Y9398000D01*
X12972500Y9398000D01*
X12904379Y9418002D01*
X12857886Y9471658D01*
X12846500Y9524000D01*
X12846500Y10776433D01*
X12843436Y10785864D01*
X12843435Y10785868D01*
X12839703Y10797353D01*
X12835087Y10816578D01*
X12833198Y10828507D01*
X12833197Y10828509D01*
X12831646Y10838304D01*
X12831623Y10838349D01*
X12827000Y10867539D01*
X12827000Y13590000D01*
X12847002Y13658121D01*
X12900658Y13704614D01*
X12953000Y13716000D01*
X17781000Y13716000D01*
X17849121Y13695998D01*
G37*
%TD.AperFunction*%
%TD*%
%TA.AperFunction,Conductor*%
%TO.N,VCC*%
G36*
X10802562Y8742998D02*
G01*
X10832830Y8715712D01*
X11303000Y8128000D01*
X11919500Y8128000D01*
X11987621Y8107998D01*
X12034114Y8054342D01*
X12045500Y8002000D01*
X12045500Y7238000D01*
X12025498Y7169879D01*
X11971842Y7123386D01*
X11919500Y7112000D01*
X6476000Y7112000D01*
X6407879Y7132002D01*
X6361386Y7185658D01*
X6350000Y7238000D01*
X6350000Y8637000D01*
X6370002Y8705121D01*
X6423658Y8751614D01*
X6476000Y8763000D01*
X10734441Y8763000D01*
X10802562Y8742998D01*
G37*
%TD.AperFunction*%
%TD*%
%TA.AperFunction,Conductor*%
%TO.N,GND*%
G36*
X10944038Y11644498D02*
G01*
X10965012Y11627595D01*
X12008595Y10584012D01*
X12042621Y10521700D01*
X12045500Y10494917D01*
X12045500Y9393252D01*
X12057133Y9334769D01*
X12057649Y9333997D01*
X12065000Y9297040D01*
X12065000Y9144000D01*
X9053500Y9144000D01*
X8985379Y9164002D01*
X8938886Y9217658D01*
X8927500Y9270000D01*
X8927500Y11538500D01*
X8947502Y11606621D01*
X9001158Y11653114D01*
X9053500Y11664500D01*
X10875917Y11664500D01*
X10944038Y11644498D01*
G37*
%TD.AperFunction*%
%TD*%
%TA.AperFunction,Conductor*%
%TO.N,/L*%
G36*
X12515121Y6837998D02*
G01*
X12561614Y6784342D01*
X12573000Y6732000D01*
X12573000Y2666000D01*
X12552998Y2597879D01*
X12499342Y2551386D01*
X12447000Y2540000D01*
X10667000Y2540000D01*
X10598879Y2560002D01*
X10552386Y2613658D01*
X10541000Y2666000D01*
X10541000Y6732000D01*
X10561002Y6800121D01*
X10614658Y6846614D01*
X10667000Y6858000D01*
X12447000Y6858000D01*
X12515121Y6837998D01*
G37*
%TD.AperFunction*%
%TD*%
M02*
