%TF.GenerationSoftware,KiCad,Pcbnew,8.0.5-8.0.5-0~ubuntu22.04.1*%
%TF.CreationDate,2024-09-27T18:44:30+02:00*%
%TF.ProjectId,HB_TH_Sensor_SHT45_AllInOne_FUEL4EP,48425f54-485f-4536-956e-736f725f5348,1.5*%
%TF.SameCoordinates,Original*%
%TF.FileFunction,Copper,L2,Bot*%
%TF.FilePolarity,Positive*%
%FSLAX46Y46*%
G04 Gerber Fmt 4.6, Leading zero omitted, Abs format (unit mm)*
G04 Created by KiCad (PCBNEW 8.0.5-8.0.5-0~ubuntu22.04.1) date 2024-09-27 18:44:30*
%MOMM*%
%LPD*%
G01*
G04 APERTURE LIST*
%TA.AperFunction,EtchedComponent*%
%ADD10C,1.000000*%
%TD*%
%TA.AperFunction,ComponentPad*%
%ADD11C,1.000000*%
%TD*%
%TA.AperFunction,ComponentPad*%
%ADD12R,2.500000X2.500000*%
%TD*%
%TA.AperFunction,ComponentPad*%
%ADD13C,2.000000*%
%TD*%
%TA.AperFunction,ComponentPad*%
%ADD14R,2.000000X2.000000*%
%TD*%
%TA.AperFunction,ComponentPad*%
%ADD15R,1.700000X1.700000*%
%TD*%
%TA.AperFunction,ComponentPad*%
%ADD16O,1.700000X1.700000*%
%TD*%
%TA.AperFunction,ViaPad*%
%ADD17C,0.600000*%
%TD*%
%TA.AperFunction,Conductor*%
%ADD18C,0.500000*%
%TD*%
%TA.AperFunction,Conductor*%
%ADD19C,0.400000*%
%TD*%
%TA.AperFunction,Conductor*%
%ADD20C,0.200000*%
%TD*%
%TA.AperFunction,Conductor*%
%ADD21C,0.600000*%
%TD*%
G04 APERTURE END LIST*
D10*
%TO.C,AE1*%
X5478000Y73745000D02*
X6478000Y72745000D01*
X6478000Y72745000D02*
X6478000Y69745000D01*
X6478000Y69745000D02*
X7478000Y68745000D01*
X7478000Y73745000D02*
X8478000Y72745000D01*
X8478000Y72745000D02*
X8478000Y69745000D01*
X8478000Y69745000D02*
X9478000Y68745000D01*
X9478000Y73745000D02*
X10478000Y72745000D01*
X10478000Y72745000D02*
X10478000Y69745000D01*
X10478000Y69745000D02*
X11478000Y68745000D01*
X11478000Y73745000D02*
X12478000Y72745000D01*
X12478000Y72745000D02*
X12478000Y69745000D01*
X12478000Y69745000D02*
X13478000Y68745000D01*
X13478000Y73745000D02*
X14478000Y72745000D01*
X14478000Y72745000D02*
X14478000Y69745000D01*
X14478000Y69745000D02*
X15478000Y68745000D01*
X15478000Y73745000D02*
X16478000Y72745000D01*
X16478000Y72745000D02*
X16478000Y69745000D01*
X16478000Y69745000D02*
X17478000Y68745000D01*
X17478000Y73745000D02*
X18478000Y72745000D01*
X18478000Y72745000D02*
X18478000Y69745000D01*
X18478000Y69745000D02*
X19478000Y68745000D01*
X19478000Y73745000D02*
X20478000Y72745000D01*
X20478000Y72745000D02*
X20478000Y69745000D01*
X20478000Y69745000D02*
X21478000Y68745000D01*
X21478000Y73745000D02*
X22478000Y72745000D01*
X22478000Y72745000D02*
X22478000Y69745000D01*
X22478000Y69745000D02*
X23478000Y68745000D01*
%TD*%
D11*
%TO.P,AE1,*%
%TO.N,*%
X5478000Y73745000D03*
X7478000Y73745000D03*
X7478000Y68745000D03*
X9478000Y73745000D03*
X9478000Y68745000D03*
X11478000Y73745000D03*
X11478000Y68745000D03*
X13478000Y73745000D03*
X13478000Y68745000D03*
X15478000Y73745000D03*
X15478000Y68745000D03*
X17478000Y73745000D03*
X17478000Y68745000D03*
X19478000Y73745000D03*
X19478000Y68745000D03*
X21478000Y73745000D03*
X21478000Y68745000D03*
X23478000Y73745000D03*
X23478000Y68745000D03*
%TD*%
D12*
%TO.P,H4,1*%
%TO.N,N/C*%
X1778000Y20447000D03*
%TD*%
%TO.P,H3,1*%
%TO.N,N/C*%
X5588000Y2175000D03*
%TD*%
%TO.P,H1,1*%
%TO.N,N/C*%
X23079000Y59817000D03*
%TD*%
%TO.P,H2,1*%
%TO.N,N/C*%
X1778000Y59817000D03*
%TD*%
D13*
%TO.P,BT1,2,-*%
%TO.N,GND*%
X16129000Y55165000D03*
D14*
%TO.P,BT1,1,+*%
%TO.N,/plusBAT*%
X16129000Y3175000D03*
%TD*%
D15*
%TO.P,J1,1,Pin_1*%
%TO.N,GND*%
X1828000Y7275000D03*
D16*
%TO.P,J1,2,Pin_2*%
%TO.N,VCC*%
X1828000Y4735000D03*
%TO.P,J1,3,Pin_3*%
%TO.N,/plusBAT*%
X1828000Y2195000D03*
%TD*%
D15*
%TO.P,J3,1,Pin_1*%
%TO.N,VCC*%
X1828000Y43180000D03*
D16*
%TO.P,J3,2,Pin_2*%
%TO.N,GND*%
X1828000Y45720000D03*
%TO.P,J3,3,Pin_3*%
%TO.N,/MOSI*%
X1828000Y48260000D03*
%TO.P,J3,4,Pin_4*%
%TO.N,/SCK*%
X1828000Y50800000D03*
%TO.P,J3,5,Pin_5*%
%TO.N,/MISO*%
X1828000Y53340000D03*
%TO.P,J3,6,Pin_6*%
%TO.N,/RSETB*%
X1828000Y55880000D03*
%TD*%
D15*
%TO.P,J2,1,Pin_1*%
%TO.N,/DTR*%
X1828000Y36830000D03*
D16*
%TO.P,J2,2,Pin_2*%
%TO.N,/TXD0*%
X1828000Y34290000D03*
%TO.P,J2,3,Pin_3*%
%TO.N,/RXD0*%
X1828000Y31750000D03*
%TO.P,J2,4,Pin_4*%
%TO.N,VCC*%
X1828000Y29210000D03*
%TO.P,J2,5,Pin_5*%
%TO.N,/CTS*%
X1828000Y26670000D03*
%TO.P,J2,6,Pin_6*%
%TO.N,GND*%
X1828000Y24130000D03*
%TD*%
D17*
%TO.N,GND*%
X20320000Y56388000D03*
X11049000Y27686000D03*
X10879000Y9863000D03*
X15367000Y22352000D03*
X9398000Y54864000D03*
X13462000Y35306000D03*
X14859000Y36195000D03*
X10922000Y26035000D03*
X22987000Y44323000D03*
X8128000Y34417000D03*
X19304000Y25146000D03*
X9525000Y11049000D03*
X15367000Y31242000D03*
X2667000Y9398000D03*
X8128000Y36068000D03*
X4445000Y15367000D03*
X3556000Y39243000D03*
X18288000Y54356000D03*
X11176000Y59055000D03*
X3556000Y23495000D03*
X22352000Y28067000D03*
X10287000Y42291000D03*
X23368000Y31877000D03*
X14478000Y11049000D03*
X7493000Y60579000D03*
X20320000Y55245000D03*
X6731000Y59563000D03*
X19050000Y55245000D03*
X15494000Y11049000D03*
X22860000Y33782000D03*
X1016000Y40894000D03*
X11430000Y49276000D03*
X10160000Y47244000D03*
X14224000Y55372000D03*
X16383000Y17399000D03*
X7423413Y24868418D03*
X11176000Y56642000D03*
X14732000Y17399000D03*
X23368000Y16256000D03*
X10160000Y44831000D03*
X10541000Y11049000D03*
X19812000Y26797000D03*
X8128000Y37429500D03*
X10287000Y39497000D03*
%TO.N,/SS*%
X19812000Y40767000D03*
X18859650Y41719350D03*
%TO.N,/D2*%
X21844000Y31750000D03*
X14859000Y30480000D03*
X20574000Y31750000D03*
X17018000Y30480000D03*
%TO.N,/SCL*%
X6858000Y10160000D03*
X8001000Y19685000D03*
X8014585Y18186000D03*
X4826000Y10160000D03*
%TO.N,/SDA*%
X7747000Y20701000D03*
X5461000Y20701000D03*
%TO.N,/MOSI*%
X17084154Y40115001D03*
X9271000Y41021000D03*
X9271000Y42291000D03*
X17182898Y41314001D03*
%TO.N,/SCK*%
X8572500Y42862500D03*
X18470037Y40481914D03*
X8509000Y40259000D03*
X18199227Y38883413D03*
%TO.N,/MISO*%
X15494000Y41656000D03*
X5609608Y48457929D03*
X15494000Y39751000D03*
X5334000Y44577000D03*
%TO.N,VCC*%
X12573000Y16637000D03*
X10096500Y57975500D03*
X6985000Y55880000D03*
X6985000Y49911000D03*
X21717000Y16383000D03*
X19431000Y16383000D03*
X3937000Y34163000D03*
X13337000Y39749000D03*
X3937000Y37592000D03*
X11430000Y15621000D03*
X3810000Y49911000D03*
X13335000Y42418000D03*
%TO.N,/plusBAT*%
X13716000Y7112000D03*
X13096000Y11191000D03*
%TO.N,/CONFIG*%
X9525000Y18288000D03*
X9525000Y19812000D03*
%TO.N,/RSETB*%
X6533404Y46942419D03*
X6148316Y42914862D03*
%TD*%
D18*
%TO.N,GND*%
X19304000Y26289000D02*
X19812000Y26797000D01*
X10922000Y26035000D02*
X10922000Y27559000D01*
X10287000Y39497000D02*
X10287000Y42291000D01*
X19304000Y25146000D02*
X19304000Y26289000D01*
X10922000Y27559000D02*
X11049000Y27686000D01*
X11176000Y56642000D02*
X9398000Y54864000D01*
X23368000Y33274000D02*
X22860000Y33782000D01*
D19*
X10160000Y44831000D02*
X10160000Y47244000D01*
D18*
X11176000Y56642000D02*
X11176000Y59055000D01*
X8128000Y36068000D02*
X8128000Y37429500D01*
X23368000Y31877000D02*
X23368000Y33274000D01*
X8128000Y36068000D02*
X8128000Y34417000D01*
D20*
%TO.N,/SS*%
X19812000Y40767000D02*
X18859650Y41719350D01*
%TO.N,/D2*%
X20574000Y31750000D02*
X21844000Y31750000D01*
X14859000Y30480000D02*
X17018000Y30480000D01*
%TO.N,/SCL*%
X8001000Y18199585D02*
X8014585Y18186000D01*
X8001000Y19685000D02*
X8001000Y18199585D01*
X4826000Y10160000D02*
X6858000Y10160000D01*
%TO.N,/SDA*%
X7747000Y20701000D02*
X5461000Y20701000D01*
%TO.N,/MOSI*%
X9271000Y41021000D02*
X9271000Y42291000D01*
X17084154Y40115001D02*
X17182898Y40213745D01*
X17182898Y40213745D02*
X17182898Y41314001D01*
%TO.N,/SCK*%
X8636000Y40386000D02*
X8509000Y40259000D01*
X18199227Y40211104D02*
X18470037Y40481914D01*
X18199227Y38883413D02*
X18199227Y40211104D01*
X8636000Y42799000D02*
X8636000Y40386000D01*
X8572500Y42862500D02*
X8636000Y42799000D01*
%TO.N,/MISO*%
X5334000Y44577000D02*
X5334000Y48182321D01*
X15494000Y39751000D02*
X15494000Y41656000D01*
X5334000Y48182321D02*
X5609608Y48457929D01*
D19*
%TO.N,VCC*%
X12446000Y16637000D02*
X12573000Y16637000D01*
X11430000Y15621000D02*
X12446000Y16637000D01*
D18*
X13335000Y39751000D02*
X13335000Y42418000D01*
X13337000Y39749000D02*
X13335000Y39751000D01*
X3937000Y34163000D02*
X3937000Y37592000D01*
X8001000Y55880000D02*
X10096500Y57975500D01*
X6985000Y55880000D02*
X8001000Y55880000D01*
X21717000Y16383000D02*
X19431000Y16383000D01*
X3810000Y49911000D02*
X6985000Y49911000D01*
D21*
%TO.N,/plusBAT*%
X13096000Y11191000D02*
X13096000Y7732000D01*
X13096000Y7732000D02*
X13716000Y7112000D01*
D20*
%TO.N,/CONFIG*%
X9525000Y19812000D02*
X9525000Y18288000D01*
%TO.N,/RSETB*%
X6223000Y46632015D02*
X6533404Y46942419D01*
X6148316Y42914862D02*
X6223000Y42989546D01*
X6223000Y42989546D02*
X6223000Y46632015D01*
%TD*%
%TA.AperFunction,Conductor*%
%TO.N,GND*%
G36*
X24326121Y61574998D02*
G01*
X24372614Y61521342D01*
X24384000Y61469000D01*
X24384000Y61393500D01*
X24363998Y61325379D01*
X24310342Y61278886D01*
X24258000Y61267500D01*
X21809252Y61267500D01*
X21750769Y61255867D01*
X21684448Y61211552D01*
X21640133Y61145231D01*
X21640132Y61145228D01*
X21628500Y61086750D01*
X21628500Y58547249D01*
X21640132Y58488771D01*
X21640133Y58488768D01*
X21684448Y58422448D01*
X21750768Y58378133D01*
X21750771Y58378132D01*
X21809249Y58366500D01*
X24258000Y58366500D01*
X24326121Y58346498D01*
X24372614Y58292842D01*
X24384000Y58240500D01*
X24384000Y761000D01*
X24363998Y692879D01*
X24310342Y646386D01*
X24258000Y635000D01*
X7121096Y635000D01*
X7052975Y655002D01*
X7006482Y708658D01*
X6996378Y778932D01*
X7016332Y831003D01*
X7026867Y846769D01*
X7038500Y905252D01*
X7038500Y3444748D01*
X7026867Y3503231D01*
X6982552Y3569552D01*
X6916231Y3613867D01*
X6857748Y3625500D01*
X4318252Y3625500D01*
X4259769Y3613867D01*
X4193448Y3569552D01*
X4149133Y3503231D01*
X4149132Y3503228D01*
X4137500Y3444750D01*
X4137500Y905249D01*
X4149132Y846771D01*
X4149134Y846767D01*
X4159668Y831003D01*
X4180884Y763251D01*
X4162102Y694784D01*
X4109285Y647340D01*
X4054904Y635000D01*
X760738Y635000D01*
X692617Y655002D01*
X646124Y708658D01*
X634738Y760737D01*
X633907Y1159698D01*
X632782Y1699329D01*
X652642Y1767490D01*
X706201Y1814094D01*
X776454Y1824345D01*
X841096Y1794986D01*
X869904Y1758987D01*
X950315Y1608550D01*
X1081590Y1448590D01*
X1241552Y1317313D01*
X1424045Y1219768D01*
X1622072Y1159698D01*
X1827997Y1139417D01*
X1828000Y1139417D01*
X1828003Y1139417D01*
X2033927Y1159698D01*
X2231954Y1219768D01*
X2414447Y1317313D01*
X2414448Y1317314D01*
X2414450Y1317315D01*
X2574410Y1448590D01*
X2705685Y1608550D01*
X2803232Y1791046D01*
X2863300Y1989066D01*
X2873909Y2096771D01*
X2883583Y2194996D01*
X2883583Y2195003D01*
X2863301Y2400927D01*
X2863300Y2400928D01*
X2863300Y2400934D01*
X2803232Y2598954D01*
X2705685Y2781450D01*
X2574410Y2941410D01*
X2414450Y3072685D01*
X2231954Y3170232D01*
X2033934Y3230300D01*
X2033928Y3230300D01*
X2033927Y3230301D01*
X1828003Y3250583D01*
X1827997Y3250583D01*
X1622072Y3230301D01*
X1622070Y3230300D01*
X1622066Y3230300D01*
X1424046Y3170232D01*
X1241550Y3072685D01*
X1081590Y2941410D01*
X950315Y2781450D01*
X950313Y2781447D01*
X867848Y2627166D01*
X818096Y2576518D01*
X748859Y2560808D01*
X682120Y2585024D01*
X639068Y2641478D01*
X630726Y2686299D01*
X630528Y2781447D01*
X627470Y4249270D01*
X647329Y4317429D01*
X700888Y4364033D01*
X771141Y4374284D01*
X835783Y4344925D01*
X864591Y4308926D01*
X950314Y4148551D01*
X1081590Y3988590D01*
X1241552Y3857313D01*
X1424045Y3759768D01*
X1622072Y3699698D01*
X1827997Y3679417D01*
X1828000Y3679417D01*
X1828003Y3679417D01*
X2033927Y3699698D01*
X2231954Y3759768D01*
X2414447Y3857313D01*
X2414448Y3857314D01*
X2414450Y3857315D01*
X2574410Y3988590D01*
X2705685Y4148550D01*
X2730380Y4194750D01*
X14928500Y4194750D01*
X14928500Y2155249D01*
X14940132Y2096771D01*
X14940133Y2096768D01*
X14984448Y2030448D01*
X15050768Y1986133D01*
X15050771Y1986132D01*
X15109249Y1974500D01*
X15109252Y1974500D01*
X17148750Y1974500D01*
X17207228Y1986132D01*
X17207231Y1986133D01*
X17211629Y1989072D01*
X17273552Y2030448D01*
X17317867Y2096769D01*
X17329500Y2155252D01*
X17329500Y4194748D01*
X17317867Y4253231D01*
X17273552Y4319552D01*
X17207231Y4363867D01*
X17148748Y4375500D01*
X15109252Y4375500D01*
X15050769Y4363867D01*
X14984448Y4319552D01*
X14977348Y4308926D01*
X14940133Y4253231D01*
X14940132Y4253228D01*
X14928500Y4194750D01*
X2730380Y4194750D01*
X2803232Y4331046D01*
X2863300Y4529066D01*
X2882805Y4727092D01*
X2883583Y4734996D01*
X2883583Y4735003D01*
X2863301Y4940927D01*
X2863300Y4940928D01*
X2863300Y4940934D01*
X2803232Y5138954D01*
X2705685Y5321450D01*
X2574410Y5481410D01*
X2414450Y5612685D01*
X2288739Y5679878D01*
X2238093Y5729631D01*
X2222384Y5798867D01*
X2246600Y5865606D01*
X2303054Y5908658D01*
X2348138Y5917000D01*
X2726597Y5917000D01*
X2787093Y5923505D01*
X2923964Y5974555D01*
X2923965Y5974555D01*
X3022878Y6048601D01*
X20553500Y6048601D01*
X20553500Y5801399D01*
X20583390Y5612684D01*
X20592172Y5557234D01*
X20668559Y5322140D01*
X20780790Y5101875D01*
X20926092Y4901885D01*
X20926094Y4901882D01*
X21100882Y4727094D01*
X21100885Y4727092D01*
X21300875Y4581790D01*
X21521140Y4469559D01*
X21756234Y4393172D01*
X21756239Y4393171D01*
X21756240Y4393171D01*
X22000399Y4354500D01*
X22000402Y4354500D01*
X22247598Y4354500D01*
X22247601Y4354500D01*
X22491760Y4393171D01*
X22491761Y4393171D01*
X22491765Y4393172D01*
X22726859Y4469559D01*
X22843648Y4529066D01*
X22947121Y4581788D01*
X23147112Y4727090D01*
X23147114Y4727092D01*
X23147117Y4727094D01*
X23321905Y4901882D01*
X23321907Y4901885D01*
X23321910Y4901888D01*
X23467212Y5101879D01*
X23579439Y5322137D01*
X23655829Y5557240D01*
X23694500Y5801399D01*
X23694500Y6048601D01*
X23655829Y6292760D01*
X23579439Y6527863D01*
X23467212Y6748121D01*
X23321910Y6948112D01*
X23147112Y7122910D01*
X22947121Y7268212D01*
X22726863Y7380439D01*
X22491760Y7456829D01*
X22247601Y7495500D01*
X22000399Y7495500D01*
X21756240Y7456829D01*
X21521137Y7380439D01*
X21300879Y7268212D01*
X21100888Y7122910D01*
X21100885Y7122907D01*
X21100882Y7122905D01*
X20926094Y6948117D01*
X20926092Y6948114D01*
X20926090Y6948112D01*
X20780788Y6748121D01*
X20720433Y6629668D01*
X20668559Y6527859D01*
X20592172Y6292765D01*
X20592171Y6292761D01*
X20592171Y6292760D01*
X20553500Y6048601D01*
X3022878Y6048601D01*
X3040904Y6062095D01*
X3128444Y6179034D01*
X3128444Y6179035D01*
X3179494Y6315906D01*
X3185999Y6376402D01*
X3186000Y6376414D01*
X3186000Y7021000D01*
X2258703Y7021000D01*
X2293925Y7082007D01*
X2328000Y7209174D01*
X2328000Y7340826D01*
X2293925Y7467993D01*
X2258703Y7529000D01*
X3186000Y7529000D01*
X3186000Y8173585D01*
X3185999Y8173597D01*
X3179494Y8234093D01*
X3128444Y8370964D01*
X3128444Y8370965D01*
X3040904Y8487904D01*
X2923965Y8575444D01*
X2787093Y8626494D01*
X2726597Y8632999D01*
X2726585Y8633000D01*
X2082000Y8633000D01*
X2082000Y7705702D01*
X2020993Y7740925D01*
X1893826Y7775000D01*
X1762174Y7775000D01*
X1635007Y7740925D01*
X1574000Y7705702D01*
X1574000Y8633000D01*
X929415Y8633000D01*
X929402Y8632999D01*
X868903Y8626494D01*
X788201Y8596393D01*
X717386Y8591327D01*
X655073Y8625352D01*
X621048Y8687664D01*
X618168Y8714186D01*
X615725Y9886626D01*
X615156Y10160000D01*
X4320353Y10160000D01*
X4340835Y10017543D01*
X4400623Y9886626D01*
X4494873Y9777855D01*
X4615946Y9700047D01*
X4754039Y9659500D01*
X4897961Y9659500D01*
X5036053Y9700047D01*
X5157126Y9777855D01*
X5190189Y9816012D01*
X5249915Y9854396D01*
X5285414Y9859500D01*
X6398586Y9859500D01*
X6466707Y9839498D01*
X6493811Y9816012D01*
X6526873Y9777855D01*
X6647946Y9700047D01*
X6786039Y9659500D01*
X6929961Y9659500D01*
X7068053Y9700047D01*
X7189126Y9777855D01*
X7259872Y9859500D01*
X7283377Y9886627D01*
X7343165Y10017543D01*
X7363647Y10160000D01*
X7343165Y10302457D01*
X7283377Y10433373D01*
X7189128Y10542143D01*
X7068053Y10619953D01*
X6929961Y10660500D01*
X6786039Y10660500D01*
X6647947Y10619953D01*
X6587409Y10581048D01*
X6526873Y10542144D01*
X6493811Y10503988D01*
X6434085Y10465604D01*
X6398586Y10460500D01*
X5285414Y10460500D01*
X5217293Y10480502D01*
X5190189Y10503988D01*
X5157128Y10542143D01*
X5036053Y10619953D01*
X4897961Y10660500D01*
X4754039Y10660500D01*
X4615947Y10619953D01*
X4555409Y10581048D01*
X4494873Y10542144D01*
X4494872Y10542143D01*
X4400623Y10433373D01*
X4340835Y10302456D01*
X4320353Y10160000D01*
X615156Y10160000D01*
X613008Y11191001D01*
X12590353Y11191001D01*
X12594218Y11164117D01*
X12595500Y11146187D01*
X12595500Y7666109D01*
X12629607Y7538816D01*
X12629610Y7538809D01*
X12695497Y7424689D01*
X12695502Y7424683D01*
X13346272Y6773912D01*
X13352399Y6767331D01*
X13384869Y6729859D01*
X13384873Y6729855D01*
X13388755Y6727361D01*
X13403507Y6715473D01*
X13408682Y6711502D01*
X13452842Y6686005D01*
X13457957Y6682887D01*
X13505947Y6652046D01*
X13507047Y6651544D01*
X13516722Y6648131D01*
X13522815Y6645607D01*
X13579249Y6630485D01*
X13582131Y6629676D01*
X13644039Y6611500D01*
X13787961Y6611500D01*
X13849836Y6629668D01*
X13852722Y6630478D01*
X13909186Y6645608D01*
X13915281Y6648132D01*
X13924948Y6651542D01*
X13926057Y6652048D01*
X13974055Y6682895D01*
X13979173Y6686015D01*
X14009454Y6703499D01*
X14023314Y6711501D01*
X14023318Y6711505D01*
X14028588Y6715549D01*
X14043245Y6727361D01*
X14047126Y6729855D01*
X14047130Y6729859D01*
X14079613Y6767347D01*
X14085729Y6773916D01*
X14116499Y6804686D01*
X14119536Y6809946D01*
X14133424Y6829449D01*
X14141377Y6838627D01*
X14158880Y6876955D01*
X14164359Y6887582D01*
X14182392Y6918814D01*
X14185908Y6931938D01*
X14192999Y6951662D01*
X14201165Y6969543D01*
X14206096Y7003844D01*
X14209106Y7018515D01*
X14209772Y7021000D01*
X14216500Y7046108D01*
X14216500Y7067187D01*
X14217782Y7085117D01*
X14221647Y7112001D01*
X14217783Y7138874D01*
X14216500Y7156807D01*
X14216500Y7177893D01*
X14209105Y7205487D01*
X14206095Y7220163D01*
X14201165Y7254457D01*
X14193002Y7272330D01*
X14185907Y7292066D01*
X14182392Y7305186D01*
X14164359Y7336418D01*
X14158875Y7347055D01*
X14141377Y7385373D01*
X14133432Y7394540D01*
X14119530Y7414062D01*
X14116499Y7419315D01*
X14085717Y7450095D01*
X14079598Y7456669D01*
X14079459Y7456829D01*
X14047128Y7494143D01*
X14043258Y7496629D01*
X14022280Y7513532D01*
X13633402Y7902411D01*
X13599379Y7964721D01*
X13596500Y7991504D01*
X13596500Y11146187D01*
X13597782Y11164117D01*
X13601647Y11191001D01*
X13597783Y11217874D01*
X13596500Y11235807D01*
X13596500Y11256890D01*
X13596500Y11256892D01*
X13589103Y11284495D01*
X13586096Y11299153D01*
X13581165Y11333457D01*
X13573002Y11351329D01*
X13565908Y11371064D01*
X13562393Y11384182D01*
X13562392Y11384186D01*
X13544360Y11415417D01*
X13538871Y11426066D01*
X13521377Y11464373D01*
X13513431Y11473543D01*
X13499531Y11493061D01*
X13496500Y11498314D01*
X13465717Y11529095D01*
X13459598Y11535669D01*
X13427131Y11573140D01*
X13427130Y11573140D01*
X13427128Y11573143D01*
X13423260Y11575628D01*
X13408578Y11587460D01*
X13403318Y11591497D01*
X13403315Y11591498D01*
X13403314Y11591500D01*
X13359132Y11617007D01*
X13354075Y11620089D01*
X13306053Y11650953D01*
X13306049Y11650954D01*
X13306048Y11650955D01*
X13304950Y11651456D01*
X13295266Y11654873D01*
X13289193Y11657387D01*
X13289186Y11657392D01*
X13232651Y11672539D01*
X13229905Y11673310D01*
X13167961Y11691500D01*
X13024039Y11691500D01*
X13024036Y11691499D01*
X13024035Y11691499D01*
X12962142Y11673325D01*
X12959253Y11672514D01*
X12902814Y11657392D01*
X12902811Y11657390D01*
X12896726Y11654870D01*
X12887056Y11651459D01*
X12885943Y11650951D01*
X12837947Y11620105D01*
X12832855Y11617001D01*
X12788686Y11591500D01*
X12783435Y11587470D01*
X12768745Y11575632D01*
X12764872Y11573143D01*
X12764871Y11573142D01*
X12764869Y11573141D01*
X12732392Y11535660D01*
X12726275Y11529089D01*
X12695501Y11498315D01*
X12695499Y11498313D01*
X12692464Y11493055D01*
X12678569Y11473543D01*
X12670624Y11464374D01*
X12670621Y11464369D01*
X12653126Y11426063D01*
X12647634Y11415410D01*
X12629609Y11384189D01*
X12629606Y11384181D01*
X12626090Y11371061D01*
X12619000Y11351339D01*
X12610835Y11333460D01*
X12610834Y11333454D01*
X12605903Y11299163D01*
X12602894Y11284491D01*
X12595500Y11256894D01*
X12595500Y11235807D01*
X12594217Y11217874D01*
X12590353Y11191001D01*
X613008Y11191001D01*
X612439Y11464374D01*
X612266Y11547238D01*
X632126Y11615400D01*
X685685Y11662004D01*
X738266Y11673500D01*
X2671350Y11673500D01*
X2673545Y11674409D01*
X2721762Y11684000D01*
X3683000Y11684000D01*
X3683000Y15621000D01*
X10924353Y15621000D01*
X10944835Y15478543D01*
X11004623Y15347626D01*
X11098873Y15238855D01*
X11219946Y15161047D01*
X11358039Y15120500D01*
X11501961Y15120500D01*
X11640053Y15161047D01*
X11761126Y15238855D01*
X11855376Y15347626D01*
X11855377Y15347627D01*
X11915165Y15478543D01*
X11919478Y15508543D01*
X11948969Y15573122D01*
X11955100Y15579707D01*
X12474988Y16099595D01*
X12537300Y16133621D01*
X12564083Y16136500D01*
X12644961Y16136500D01*
X12783053Y16177047D01*
X12904126Y16254855D01*
X12998376Y16363626D01*
X12998377Y16363627D01*
X13007224Y16383000D01*
X18925353Y16383000D01*
X18945835Y16240543D01*
X19005623Y16109626D01*
X19099873Y16000855D01*
X19220946Y15923047D01*
X19359039Y15882500D01*
X19502961Y15882500D01*
X19649700Y15925586D01*
X19650160Y15924017D01*
X19689162Y15932500D01*
X21458838Y15932500D01*
X21497839Y15924017D01*
X21498300Y15925586D01*
X21506946Y15923047D01*
X21506947Y15923047D01*
X21645039Y15882500D01*
X21788961Y15882500D01*
X21927053Y15923047D01*
X22048126Y16000855D01*
X22050110Y16003144D01*
X22142377Y16109627D01*
X22202165Y16240543D01*
X22222647Y16383000D01*
X22202165Y16525457D01*
X22142377Y16656373D01*
X22048128Y16765143D01*
X21927053Y16842953D01*
X21788961Y16883500D01*
X21645039Y16883500D01*
X21498300Y16840414D01*
X21497839Y16841982D01*
X21458838Y16833500D01*
X19689162Y16833500D01*
X19650160Y16841982D01*
X19649700Y16840414D01*
X19502961Y16883500D01*
X19359039Y16883500D01*
X19220947Y16842953D01*
X19206238Y16833500D01*
X19099873Y16765144D01*
X19005623Y16656373D01*
X18945835Y16525456D01*
X18925353Y16383000D01*
X13007224Y16383000D01*
X13058165Y16494543D01*
X13078647Y16637000D01*
X13058165Y16779457D01*
X12998377Y16910373D01*
X12904128Y17019143D01*
X12783053Y17096953D01*
X12644961Y17137500D01*
X12501039Y17137500D01*
X12362947Y17096953D01*
X12302409Y17058048D01*
X12241873Y17019144D01*
X12147623Y16910373D01*
X12145310Y16906774D01*
X12128407Y16885800D01*
X11389370Y16146763D01*
X11335773Y16114962D01*
X11219947Y16080953D01*
X11159409Y16042048D01*
X11098873Y16003144D01*
X11098872Y16003143D01*
X11029469Y15923047D01*
X11004623Y15894373D01*
X10944835Y15763456D01*
X10924353Y15621000D01*
X3683000Y15621000D01*
X3683000Y16764000D01*
X2721762Y16764000D01*
X2673545Y16773591D01*
X2671350Y16774500D01*
X2671349Y16774500D01*
X727114Y16774500D01*
X658993Y16794502D01*
X612500Y16848158D01*
X601114Y16900238D01*
X601100Y16906774D01*
X597010Y18870238D01*
X616870Y18938400D01*
X670429Y18985004D01*
X723010Y18996500D01*
X3047750Y18996500D01*
X3106228Y19008132D01*
X3106231Y19008133D01*
X3172552Y19052448D01*
X3216867Y19118769D01*
X3228500Y19177252D01*
X3228500Y20701000D01*
X4955353Y20701000D01*
X4975835Y20558543D01*
X5035623Y20427626D01*
X5129873Y20318855D01*
X5250946Y20241047D01*
X5389039Y20200500D01*
X5532961Y20200500D01*
X5671053Y20241047D01*
X5792126Y20318855D01*
X5792128Y20318857D01*
X5825190Y20357012D01*
X5884915Y20395396D01*
X5920414Y20400500D01*
X7287586Y20400500D01*
X7355707Y20380498D01*
X7382811Y20357012D01*
X7415873Y20318855D01*
X7536945Y20241047D01*
X7574920Y20229897D01*
X7634646Y20191512D01*
X7664138Y20126931D01*
X7654033Y20056657D01*
X7634645Y20026489D01*
X7575623Y19958373D01*
X7515835Y19827456D01*
X7495353Y19685000D01*
X7515835Y19542543D01*
X7575623Y19411626D01*
X7669725Y19303026D01*
X7699218Y19238445D01*
X7700500Y19220514D01*
X7700500Y18634807D01*
X7680498Y18566686D01*
X7669725Y18552295D01*
X7589208Y18459373D01*
X7529420Y18328456D01*
X7508938Y18186000D01*
X7529420Y18043543D01*
X7589208Y17912626D01*
X7683458Y17803855D01*
X7804531Y17726047D01*
X7942624Y17685500D01*
X8086546Y17685500D01*
X8224638Y17726047D01*
X8345711Y17803855D01*
X8366674Y17828047D01*
X8439962Y17912627D01*
X8499750Y18043543D01*
X8520232Y18186000D01*
X8499750Y18328457D01*
X8439962Y18459373D01*
X8345713Y18568143D01*
X8345709Y18568145D01*
X8344987Y18568772D01*
X8344468Y18569579D01*
X8339811Y18574954D01*
X8340583Y18575623D01*
X8306604Y18628498D01*
X8301500Y18663996D01*
X8301500Y19220514D01*
X8321502Y19288635D01*
X8332275Y19303026D01*
X8426376Y19411626D01*
X8426377Y19411627D01*
X8486165Y19542543D01*
X8506647Y19685000D01*
X8488387Y19812000D01*
X9019353Y19812000D01*
X9039835Y19669543D01*
X9099623Y19538626D01*
X9193725Y19430026D01*
X9223218Y19365445D01*
X9224500Y19347514D01*
X9224500Y18752485D01*
X9204498Y18684364D01*
X9193726Y18669975D01*
X9106034Y18568772D01*
X9099623Y18561373D01*
X9039835Y18430456D01*
X9019353Y18288000D01*
X9039835Y18145543D01*
X9099623Y18014626D01*
X9193873Y17905855D01*
X9314946Y17828047D01*
X9453039Y17787500D01*
X9596961Y17787500D01*
X9735053Y17828047D01*
X9856126Y17905855D01*
X9950376Y18014626D01*
X9950377Y18014627D01*
X10010165Y18145543D01*
X10030647Y18288000D01*
X10010165Y18430457D01*
X9950377Y18561373D01*
X9856274Y18669973D01*
X9826782Y18734554D01*
X9825500Y18752485D01*
X9825500Y19347514D01*
X9845502Y19415635D01*
X9856275Y19430026D01*
X9950376Y19538626D01*
X9950377Y19538627D01*
X10010165Y19669543D01*
X10030647Y19812000D01*
X10010165Y19954457D01*
X9950377Y20085373D01*
X9856128Y20194143D01*
X9735053Y20271953D01*
X9596961Y20312500D01*
X9453039Y20312500D01*
X9314947Y20271953D01*
X9294893Y20259065D01*
X9193873Y20194144D01*
X9193872Y20194143D01*
X9099623Y20085373D01*
X9041624Y19958373D01*
X9039835Y19954456D01*
X9019353Y19812000D01*
X8488387Y19812000D01*
X8486165Y19827457D01*
X8426377Y19958373D01*
X8332128Y20067143D01*
X8211053Y20144953D01*
X8173078Y20156103D01*
X8113355Y20194484D01*
X8083862Y20259065D01*
X8093965Y20329339D01*
X8113354Y20359510D01*
X8172376Y20427626D01*
X8172377Y20427627D01*
X8232165Y20558543D01*
X8252647Y20701000D01*
X8232165Y20843457D01*
X8172377Y20974373D01*
X8078128Y21083143D01*
X7957053Y21160953D01*
X7818961Y21201500D01*
X7675039Y21201500D01*
X7536947Y21160953D01*
X7476409Y21122048D01*
X7415873Y21083144D01*
X7382811Y21044988D01*
X7323085Y21006604D01*
X7287586Y21001500D01*
X5920414Y21001500D01*
X5852293Y21021502D01*
X5825189Y21044988D01*
X5792128Y21083143D01*
X5671053Y21160953D01*
X5532961Y21201500D01*
X5389039Y21201500D01*
X5250947Y21160953D01*
X5190409Y21122048D01*
X5129873Y21083144D01*
X5129872Y21083143D01*
X5035623Y20974373D01*
X4975835Y20843456D01*
X4955353Y20701000D01*
X3228500Y20701000D01*
X3228500Y21716748D01*
X3216867Y21775231D01*
X3172552Y21841552D01*
X3106231Y21885867D01*
X3047748Y21897500D01*
X716441Y21897500D01*
X648320Y21917502D01*
X601827Y21971158D01*
X590441Y22023237D01*
X588804Y22809043D01*
X588096Y23148649D01*
X607956Y23216810D01*
X661515Y23263414D01*
X731768Y23273665D01*
X796410Y23244306D01*
X806797Y23234247D01*
X905093Y23127468D01*
X1082698Y22989232D01*
X1082699Y22989231D01*
X1280628Y22882117D01*
X1280630Y22882116D01*
X1493487Y22809043D01*
X1493498Y22809040D01*
X1573999Y22795606D01*
X1574000Y22795607D01*
X1574000Y23699297D01*
X1635007Y23664075D01*
X1762174Y23630000D01*
X1893826Y23630000D01*
X2020993Y23664075D01*
X2082000Y23699297D01*
X2082000Y22795606D01*
X2162501Y22809040D01*
X2162512Y22809043D01*
X2375369Y22882116D01*
X2375371Y22882117D01*
X2573300Y22989231D01*
X2573301Y22989232D01*
X2750902Y23127465D01*
X2903325Y23293041D01*
X3026419Y23481451D01*
X3116820Y23687543D01*
X3116823Y23687550D01*
X3164544Y23875999D01*
X3164544Y23876000D01*
X2258703Y23876000D01*
X2293925Y23937007D01*
X2328000Y24064174D01*
X2328000Y24195826D01*
X2293925Y24322993D01*
X2258703Y24384000D01*
X3164544Y24384000D01*
X3116823Y24572449D01*
X3116820Y24572456D01*
X3026419Y24778548D01*
X2903325Y24966958D01*
X2750902Y25132534D01*
X2573301Y25270767D01*
X2573300Y25270768D01*
X2375371Y25377882D01*
X2375369Y25377883D01*
X2186769Y25442629D01*
X2128834Y25483666D01*
X2102282Y25549510D01*
X2115543Y25619257D01*
X2164408Y25670763D01*
X2191103Y25682376D01*
X2210042Y25688121D01*
X2231955Y25694768D01*
X2414447Y25792313D01*
X2414448Y25792314D01*
X2414450Y25792315D01*
X2574410Y25923590D01*
X2705685Y26083550D01*
X2803232Y26266046D01*
X2863300Y26464066D01*
X2883583Y26670000D01*
X2863300Y26875934D01*
X2803232Y27073954D01*
X2705685Y27256450D01*
X2574410Y27416410D01*
X2414450Y27547685D01*
X2231954Y27645232D01*
X2033934Y27705300D01*
X2033928Y27705300D01*
X2033927Y27705301D01*
X1828003Y27725583D01*
X1827997Y27725583D01*
X1622072Y27705301D01*
X1622070Y27705300D01*
X1622066Y27705300D01*
X1424046Y27645232D01*
X1241550Y27547685D01*
X1081590Y27416410D01*
X950315Y27256450D01*
X950313Y27256447D01*
X852767Y27073953D01*
X852765Y27073949D01*
X826596Y26987679D01*
X787681Y26928298D01*
X722840Y26899382D01*
X652659Y26910113D01*
X599420Y26957083D01*
X580023Y27023988D01*
X576180Y28868150D01*
X596040Y28936310D01*
X649599Y28982914D01*
X719852Y28993165D01*
X784494Y28963806D01*
X822754Y28904986D01*
X852765Y28806051D01*
X852767Y28806046D01*
X950313Y28623552D01*
X1081590Y28463590D01*
X1241552Y28332313D01*
X1424045Y28234768D01*
X1622072Y28174698D01*
X1827997Y28154417D01*
X1828000Y28154417D01*
X1828003Y28154417D01*
X2033927Y28174698D01*
X2231954Y28234768D01*
X2414447Y28332313D01*
X2414448Y28332314D01*
X2414450Y28332315D01*
X2574410Y28463590D01*
X2705685Y28623550D01*
X2803232Y28806046D01*
X2863300Y29004066D01*
X2883583Y29210000D01*
X2863300Y29415934D01*
X2803232Y29613954D01*
X2705685Y29796450D01*
X2574410Y29956410D01*
X2414450Y30087685D01*
X2231954Y30185232D01*
X2033934Y30245300D01*
X2033928Y30245300D01*
X2033927Y30245301D01*
X1828003Y30265583D01*
X1827997Y30265583D01*
X1622072Y30245301D01*
X1622070Y30245300D01*
X1622066Y30245300D01*
X1424046Y30185232D01*
X1241550Y30087685D01*
X1081590Y29956410D01*
X950315Y29796450D01*
X950313Y29796447D01*
X852768Y29613954D01*
X821342Y29510354D01*
X782427Y29450972D01*
X717586Y29422057D01*
X647405Y29432787D01*
X594166Y29479756D01*
X574767Y29546666D01*
X574247Y29796447D01*
X572823Y30480000D01*
X14353353Y30480000D01*
X14373835Y30337543D01*
X14433623Y30206626D01*
X14527873Y30097855D01*
X14648946Y30020047D01*
X14787039Y29979500D01*
X14930961Y29979500D01*
X15069053Y30020047D01*
X15190126Y30097855D01*
X15223189Y30136012D01*
X15282915Y30174396D01*
X15318414Y30179500D01*
X16558586Y30179500D01*
X16626707Y30159498D01*
X16653811Y30136012D01*
X16686873Y30097855D01*
X16807946Y30020047D01*
X16946039Y29979500D01*
X17089961Y29979500D01*
X17228053Y30020047D01*
X17349126Y30097855D01*
X17419872Y30179500D01*
X17443377Y30206627D01*
X17503165Y30337543D01*
X17523647Y30480000D01*
X17503165Y30622457D01*
X17443377Y30753373D01*
X17349128Y30862143D01*
X17228053Y30939953D01*
X17089961Y30980500D01*
X16946039Y30980500D01*
X16807947Y30939953D01*
X16747409Y30901048D01*
X16686873Y30862144D01*
X16653811Y30823988D01*
X16594085Y30785604D01*
X16558586Y30780500D01*
X15318414Y30780500D01*
X15250293Y30800502D01*
X15223189Y30823988D01*
X15190128Y30862143D01*
X15069053Y30939953D01*
X14930961Y30980500D01*
X14787039Y30980500D01*
X14648947Y30939953D01*
X14588409Y30901048D01*
X14527873Y30862144D01*
X14527872Y30862143D01*
X14433623Y30753373D01*
X14406699Y30694417D01*
X14373835Y30622456D01*
X14353353Y30480000D01*
X572823Y30480000D01*
X570852Y31425714D01*
X590712Y31493875D01*
X644271Y31540479D01*
X714524Y31550730D01*
X779166Y31521371D01*
X817427Y31462551D01*
X852768Y31346044D01*
X950313Y31163552D01*
X1081590Y31003590D01*
X1241552Y30872313D01*
X1424045Y30774768D01*
X1622072Y30714698D01*
X1827997Y30694417D01*
X1828000Y30694417D01*
X1828003Y30694417D01*
X2033927Y30714698D01*
X2231954Y30774768D01*
X2414447Y30872313D01*
X2414448Y30872314D01*
X2414450Y30872315D01*
X2574410Y31003590D01*
X2705685Y31163550D01*
X2803232Y31346046D01*
X2863300Y31544066D01*
X2863957Y31550730D01*
X2883583Y31749996D01*
X2883583Y31750000D01*
X20068353Y31750000D01*
X20088835Y31607543D01*
X20148623Y31476626D01*
X20242873Y31367855D01*
X20363946Y31290047D01*
X20502039Y31249500D01*
X20645961Y31249500D01*
X20784053Y31290047D01*
X20905126Y31367855D01*
X20938189Y31406012D01*
X20997915Y31444396D01*
X21033414Y31449500D01*
X21384586Y31449500D01*
X21452707Y31429498D01*
X21479811Y31406012D01*
X21512873Y31367855D01*
X21633946Y31290047D01*
X21772039Y31249500D01*
X21915961Y31249500D01*
X22054053Y31290047D01*
X22175126Y31367855D01*
X22245872Y31449500D01*
X22269377Y31476627D01*
X22329165Y31607543D01*
X22349647Y31750000D01*
X22329165Y31892457D01*
X22269377Y32023373D01*
X22175128Y32132143D01*
X22054053Y32209953D01*
X21915961Y32250500D01*
X21772039Y32250500D01*
X21633947Y32209953D01*
X21573409Y32171048D01*
X21512873Y32132144D01*
X21479811Y32093988D01*
X21420085Y32055604D01*
X21384586Y32050500D01*
X21033414Y32050500D01*
X20965293Y32070502D01*
X20938189Y32093988D01*
X20905128Y32132143D01*
X20784053Y32209953D01*
X20645961Y32250500D01*
X20502039Y32250500D01*
X20363947Y32209953D01*
X20303409Y32171048D01*
X20242873Y32132144D01*
X20242872Y32132143D01*
X20148623Y32023373D01*
X20117825Y31955934D01*
X20088835Y31892456D01*
X20068353Y31750000D01*
X2883583Y31750000D01*
X2883583Y31750003D01*
X2863301Y31955927D01*
X2863300Y31955928D01*
X2863300Y31955934D01*
X2803232Y32153954D01*
X2705685Y32336450D01*
X2574410Y32496410D01*
X2414450Y32627685D01*
X2231954Y32725232D01*
X2033934Y32785300D01*
X2033928Y32785300D01*
X2033927Y32785301D01*
X1828003Y32805583D01*
X1827997Y32805583D01*
X1622072Y32785301D01*
X1622070Y32785300D01*
X1622066Y32785300D01*
X1424046Y32725232D01*
X1241550Y32627685D01*
X1081590Y32496410D01*
X950315Y32336450D01*
X950313Y32336447D01*
X852768Y32153955D01*
X816086Y32033028D01*
X777170Y31973647D01*
X712329Y31944731D01*
X642148Y31955462D01*
X588909Y32002432D01*
X569511Y32069339D01*
X565524Y33983279D01*
X585384Y34051440D01*
X638943Y34098044D01*
X709196Y34108295D01*
X773838Y34078936D01*
X812099Y34020116D01*
X852768Y33886044D01*
X950313Y33703552D01*
X1081590Y33543590D01*
X1241552Y33412313D01*
X1424045Y33314768D01*
X1622072Y33254698D01*
X1827997Y33234417D01*
X1828000Y33234417D01*
X1828003Y33234417D01*
X2033927Y33254698D01*
X2231954Y33314768D01*
X2414447Y33412313D01*
X2414448Y33412314D01*
X2414450Y33412315D01*
X2574410Y33543590D01*
X2705685Y33703550D01*
X2803232Y33886046D01*
X2863300Y34084066D01*
X2865687Y34108295D01*
X2883583Y34289996D01*
X2883583Y34290003D01*
X2863301Y34495927D01*
X2863300Y34495928D01*
X2863300Y34495934D01*
X2803232Y34693954D01*
X2705685Y34876450D01*
X2574410Y35036410D01*
X2414450Y35167685D01*
X2231954Y35265232D01*
X2033934Y35325300D01*
X2033928Y35325300D01*
X2033927Y35325301D01*
X1828003Y35345583D01*
X1827997Y35345583D01*
X1622072Y35325301D01*
X1622070Y35325300D01*
X1622066Y35325300D01*
X1424046Y35265232D01*
X1241550Y35167685D01*
X1081590Y35036410D01*
X950315Y34876450D01*
X950313Y34876447D01*
X852768Y34693954D01*
X810831Y34555703D01*
X771916Y34496321D01*
X707075Y34467406D01*
X636894Y34478136D01*
X583655Y34525105D01*
X564256Y34592015D01*
X564044Y34693954D01*
X561684Y35826542D01*
X581544Y35894704D01*
X635103Y35941308D01*
X705356Y35951559D01*
X769998Y35922200D01*
X792449Y35896807D01*
X833449Y35835447D01*
X899768Y35791133D01*
X899771Y35791132D01*
X958249Y35779500D01*
X958252Y35779500D01*
X2697750Y35779500D01*
X2756228Y35791132D01*
X2756231Y35791133D01*
X2809223Y35826542D01*
X2822552Y35835448D01*
X2866867Y35901769D01*
X2878500Y35960252D01*
X2878500Y37592000D01*
X3431353Y37592000D01*
X3451835Y37449543D01*
X3451835Y37449542D01*
X3475114Y37398570D01*
X3486500Y37346228D01*
X3486500Y34408770D01*
X3475113Y34356428D01*
X3451835Y34305457D01*
X3431353Y34163000D01*
X3451835Y34020543D01*
X3511623Y33889626D01*
X3605873Y33780855D01*
X3726946Y33703047D01*
X3865039Y33662500D01*
X4008961Y33662500D01*
X4147053Y33703047D01*
X4268126Y33780855D01*
X4362376Y33889626D01*
X4362377Y33889627D01*
X4422165Y34020543D01*
X4442647Y34163000D01*
X4422165Y34305457D01*
X4398886Y34356428D01*
X4387500Y34408770D01*
X4387500Y37346228D01*
X4398886Y37398570D01*
X4422165Y37449543D01*
X4442647Y37592000D01*
X4422165Y37734457D01*
X4362377Y37865373D01*
X4268128Y37974143D01*
X4147053Y38051953D01*
X4008961Y38092500D01*
X3865039Y38092500D01*
X3726947Y38051953D01*
X3666409Y38013048D01*
X3605873Y37974144D01*
X3605872Y37974143D01*
X3511623Y37865373D01*
X3462693Y37758231D01*
X3451835Y37734456D01*
X3431353Y37592000D01*
X2878500Y37592000D01*
X2878500Y37699748D01*
X2866867Y37758231D01*
X2822552Y37824552D01*
X2756231Y37868867D01*
X2697748Y37880500D01*
X958252Y37880500D01*
X899769Y37868867D01*
X899768Y37868866D01*
X833447Y37824551D01*
X788282Y37756957D01*
X733805Y37711429D01*
X663362Y37702582D01*
X599318Y37733223D01*
X562006Y37793625D01*
X557517Y37826696D01*
X555315Y38883413D01*
X17693580Y38883413D01*
X17714062Y38740956D01*
X17773850Y38610039D01*
X17868100Y38501268D01*
X17989173Y38423460D01*
X18127266Y38382913D01*
X18271188Y38382913D01*
X18409280Y38423460D01*
X18530353Y38501268D01*
X18624603Y38610039D01*
X18624604Y38610040D01*
X18684392Y38740956D01*
X18704874Y38883413D01*
X18684392Y39025870D01*
X18624604Y39156786D01*
X18530501Y39265386D01*
X18501009Y39329967D01*
X18499727Y39347898D01*
X18499727Y39874679D01*
X18519729Y39942800D01*
X18573385Y39989293D01*
X18590228Y39995575D01*
X18680090Y40021961D01*
X18801163Y40099769D01*
X18895413Y40208540D01*
X18895414Y40208541D01*
X18955202Y40339457D01*
X18975684Y40481914D01*
X18955202Y40624371D01*
X18895414Y40755287D01*
X18801165Y40864057D01*
X18680090Y40941867D01*
X18541998Y40982414D01*
X18398076Y40982414D01*
X18259984Y40941867D01*
X18244673Y40932027D01*
X18138910Y40864058D01*
X18138909Y40864057D01*
X18044660Y40755287D01*
X17984872Y40624371D01*
X17970977Y40527724D01*
X17964390Y40481912D01*
X17966997Y40463780D01*
X17956892Y40393507D01*
X17951398Y40382851D01*
X17919204Y40327090D01*
X17898727Y40250669D01*
X17898727Y39347898D01*
X17878725Y39279777D01*
X17867952Y39265386D01*
X17773850Y39156786D01*
X17714062Y39025869D01*
X17693580Y38883413D01*
X555315Y38883413D01*
X552449Y40259000D01*
X8003353Y40259000D01*
X8023835Y40116543D01*
X8083623Y39985626D01*
X8177873Y39876855D01*
X8298946Y39799047D01*
X8437039Y39758500D01*
X8580961Y39758500D01*
X8719053Y39799047D01*
X8840126Y39876855D01*
X8852781Y39891459D01*
X8934377Y39985627D01*
X8994165Y40116543D01*
X9014647Y40259000D01*
X8995166Y40394492D01*
X9005270Y40464764D01*
X9051763Y40518420D01*
X9119884Y40538422D01*
X9155380Y40533319D01*
X9199039Y40520500D01*
X9199041Y40520500D01*
X9342961Y40520500D01*
X9481053Y40561047D01*
X9602126Y40638855D01*
X9604110Y40641144D01*
X9696377Y40747627D01*
X9756165Y40878543D01*
X9776647Y41021000D01*
X9756165Y41163457D01*
X9696377Y41294373D01*
X9602274Y41402973D01*
X9572782Y41467554D01*
X9571500Y41485485D01*
X9571500Y41826514D01*
X9591502Y41894635D01*
X9602275Y41909026D01*
X9696376Y42017626D01*
X9696377Y42017627D01*
X9756165Y42148543D01*
X9776647Y42291000D01*
X9758387Y42418000D01*
X12829353Y42418000D01*
X12849835Y42275543D01*
X12849835Y42275542D01*
X12873114Y42224570D01*
X12884500Y42172228D01*
X12884500Y39990391D01*
X12873113Y39938049D01*
X12852748Y39893457D01*
X12851835Y39891457D01*
X12831353Y39749000D01*
X12851835Y39606543D01*
X12911623Y39475626D01*
X13005873Y39366855D01*
X13126946Y39289047D01*
X13265039Y39248500D01*
X13408961Y39248500D01*
X13547053Y39289047D01*
X13668126Y39366855D01*
X13762376Y39475626D01*
X13762377Y39475627D01*
X13822165Y39606543D01*
X13842647Y39749000D01*
X13822165Y39891457D01*
X13796886Y39946807D01*
X13785500Y39999150D01*
X13785500Y41656000D01*
X14988353Y41656000D01*
X15008835Y41513543D01*
X15068623Y41382626D01*
X15162725Y41274026D01*
X15192218Y41209445D01*
X15193500Y41191514D01*
X15193500Y40215485D01*
X15173498Y40147364D01*
X15162726Y40132975D01*
X15068623Y40024373D01*
X15008835Y39893457D01*
X15008547Y39891456D01*
X14988353Y39751000D01*
X15008835Y39608543D01*
X15068623Y39477626D01*
X15162873Y39368855D01*
X15283946Y39291047D01*
X15422039Y39250500D01*
X15565961Y39250500D01*
X15704053Y39291047D01*
X15825126Y39368855D01*
X15919376Y39477626D01*
X15919377Y39477627D01*
X15979165Y39608543D01*
X15999647Y39751000D01*
X15979165Y39893457D01*
X15919377Y40024373D01*
X15840847Y40115001D01*
X16578507Y40115001D01*
X16598989Y39972544D01*
X16658777Y39841627D01*
X16753027Y39732856D01*
X16874100Y39655048D01*
X17012193Y39614501D01*
X17156115Y39614501D01*
X17294207Y39655048D01*
X17415280Y39732856D01*
X17472635Y39799047D01*
X17509531Y39841628D01*
X17569319Y39972544D01*
X17589801Y40115001D01*
X17569319Y40257458D01*
X17509531Y40388374D01*
X17509527Y40388378D01*
X17504659Y40395955D01*
X17507451Y40397749D01*
X17484686Y40447555D01*
X17483398Y40465528D01*
X17483398Y40849515D01*
X17503400Y40917636D01*
X17514173Y40932027D01*
X17608274Y41040627D01*
X17608275Y41040628D01*
X17668063Y41171544D01*
X17688545Y41314001D01*
X17668063Y41456458D01*
X17608275Y41587374D01*
X17514026Y41696144D01*
X17477917Y41719350D01*
X18354003Y41719350D01*
X18374485Y41576893D01*
X18434273Y41445976D01*
X18528523Y41337205D01*
X18649596Y41259397D01*
X18787689Y41218850D01*
X18882988Y41218850D01*
X18951109Y41198848D01*
X18972078Y41181949D01*
X19133028Y41021000D01*
X19271896Y40882132D01*
X19305921Y40819820D01*
X19307519Y40775112D01*
X19306353Y40767000D01*
X19326835Y40624543D01*
X19386623Y40493626D01*
X19480873Y40384855D01*
X19601946Y40307047D01*
X19740039Y40266500D01*
X19883961Y40266500D01*
X20022053Y40307047D01*
X20143126Y40384855D01*
X20211515Y40463780D01*
X20237377Y40493627D01*
X20297165Y40624543D01*
X20317647Y40767000D01*
X20297165Y40909457D01*
X20237377Y41040373D01*
X20143128Y41149143D01*
X20022053Y41226953D01*
X19883961Y41267500D01*
X19788660Y41267500D01*
X19720539Y41287502D01*
X19699570Y41304399D01*
X19399750Y41604219D01*
X19365728Y41666528D01*
X19364132Y41711250D01*
X19365297Y41719350D01*
X19344815Y41861807D01*
X19285027Y41992723D01*
X19190778Y42101493D01*
X19069703Y42179303D01*
X18931611Y42219850D01*
X18787689Y42219850D01*
X18649597Y42179303D01*
X18590203Y42141133D01*
X18528523Y42101494D01*
X18528522Y42101493D01*
X18434273Y41992723D01*
X18374485Y41861807D01*
X18365377Y41798457D01*
X18354003Y41719350D01*
X17477917Y41719350D01*
X17392951Y41773954D01*
X17254859Y41814501D01*
X17110937Y41814501D01*
X16972845Y41773954D01*
X16912307Y41735049D01*
X16851771Y41696145D01*
X16851770Y41696144D01*
X16757521Y41587374D01*
X16697733Y41456458D01*
X16680587Y41337205D01*
X16677251Y41314001D01*
X16697733Y41171544D01*
X16757521Y41040627D01*
X16851623Y40932027D01*
X16881116Y40867446D01*
X16882398Y40849515D01*
X16882398Y40649087D01*
X16862396Y40580966D01*
X16824518Y40543089D01*
X16753027Y40497145D01*
X16753026Y40497144D01*
X16658777Y40388374D01*
X16598989Y40257458D01*
X16592954Y40215485D01*
X16578507Y40115001D01*
X15840847Y40115001D01*
X15825274Y40132973D01*
X15795782Y40197554D01*
X15794500Y40215485D01*
X15794500Y41191514D01*
X15814502Y41259635D01*
X15825275Y41274026D01*
X15919376Y41382626D01*
X15919377Y41382627D01*
X15979165Y41513543D01*
X15999647Y41656000D01*
X15979165Y41798457D01*
X15919377Y41929373D01*
X15825128Y42038143D01*
X15704053Y42115953D01*
X15565961Y42156500D01*
X15422039Y42156500D01*
X15283947Y42115953D01*
X15261447Y42101493D01*
X15162873Y42038144D01*
X15162872Y42038143D01*
X15068623Y41929373D01*
X15016163Y41814501D01*
X15008835Y41798456D01*
X14988353Y41656000D01*
X13785500Y41656000D01*
X13785500Y42172228D01*
X13796886Y42224570D01*
X13809307Y42251768D01*
X13820165Y42275543D01*
X13840647Y42418000D01*
X13820165Y42560457D01*
X13760377Y42691373D01*
X13666128Y42800143D01*
X13545053Y42877953D01*
X13406961Y42918500D01*
X13263039Y42918500D01*
X13124947Y42877953D01*
X13105038Y42865158D01*
X13003873Y42800144D01*
X13003872Y42800143D01*
X12909623Y42691373D01*
X12849835Y42560457D01*
X12838318Y42480356D01*
X12829353Y42418000D01*
X9758387Y42418000D01*
X9756165Y42433457D01*
X9696377Y42564373D01*
X9602128Y42673143D01*
X9481053Y42750953D01*
X9342961Y42791500D01*
X9199039Y42791500D01*
X9197535Y42791500D01*
X9129414Y42811502D01*
X9082921Y42865158D01*
X9072817Y42899568D01*
X9057665Y43004957D01*
X8997877Y43135873D01*
X8903628Y43244643D01*
X8782553Y43322453D01*
X8644461Y43363000D01*
X8500539Y43363000D01*
X8362447Y43322453D01*
X8322849Y43297005D01*
X8241373Y43244644D01*
X8241372Y43244643D01*
X8147123Y43135873D01*
X8087335Y43004957D01*
X8074381Y42914862D01*
X8066853Y42862500D01*
X8087335Y42720043D01*
X8147123Y42589126D01*
X8241372Y42480356D01*
X8277623Y42457059D01*
X8324115Y42403402D01*
X8335500Y42351062D01*
X8335500Y40811245D01*
X8315498Y40743124D01*
X8277620Y40705247D01*
X8177873Y40641144D01*
X8177872Y40641143D01*
X8083623Y40532373D01*
X8028367Y40411379D01*
X8023835Y40401456D01*
X8003353Y40259000D01*
X552449Y40259000D01*
X548407Y42199227D01*
X568267Y42267387D01*
X621826Y42313991D01*
X692079Y42324242D01*
X756721Y42294883D01*
X781015Y42261269D01*
X782239Y42262087D01*
X833448Y42185448D01*
X899768Y42141133D01*
X899771Y42141132D01*
X958249Y42129500D01*
X958252Y42129500D01*
X2697750Y42129500D01*
X2756228Y42141132D01*
X2756231Y42141133D01*
X2779229Y42156500D01*
X2822552Y42185448D01*
X2866867Y42251769D01*
X2878500Y42310252D01*
X2878500Y44049748D01*
X2866867Y44108231D01*
X2822552Y44174552D01*
X2756231Y44218867D01*
X2697748Y44230500D01*
X2425460Y44230500D01*
X2357339Y44250502D01*
X2310846Y44304158D01*
X2300742Y44374432D01*
X2330236Y44439012D01*
X2371075Y44469108D01*
X2370789Y44469638D01*
X2374569Y44471683D01*
X2374845Y44471887D01*
X2375371Y44472118D01*
X2569177Y44577000D01*
X4828353Y44577000D01*
X4848835Y44434543D01*
X4908623Y44303626D01*
X5002873Y44194855D01*
X5123946Y44117047D01*
X5262039Y44076500D01*
X5405961Y44076500D01*
X5544053Y44117047D01*
X5665126Y44194855D01*
X5701276Y44236574D01*
X5761002Y44274957D01*
X5831998Y44274957D01*
X5891725Y44236573D01*
X5921218Y44171993D01*
X5922500Y44154061D01*
X5922500Y43433485D01*
X5902498Y43365364D01*
X5864620Y43327487D01*
X5817188Y43297005D01*
X5722939Y43188235D01*
X5663151Y43057319D01*
X5643192Y42918500D01*
X5642669Y42914862D01*
X5663151Y42772405D01*
X5722939Y42641488D01*
X5817189Y42532717D01*
X5938262Y42454909D01*
X6076355Y42414362D01*
X6220277Y42414362D01*
X6358369Y42454909D01*
X6479442Y42532717D01*
X6528321Y42589126D01*
X6573693Y42641489D01*
X6633481Y42772405D01*
X6653963Y42914862D01*
X6633481Y43057319D01*
X6573693Y43188235D01*
X6554276Y43210642D01*
X6524783Y43275223D01*
X6523500Y43293156D01*
X6523500Y43688000D01*
X13335000Y43688000D01*
X21844000Y43688000D01*
X21844000Y52197000D01*
X13335000Y52197000D01*
X13335000Y43688000D01*
X6523500Y43688000D01*
X6523500Y46323558D01*
X6543502Y46391679D01*
X6597158Y46438172D01*
X6614001Y46444454D01*
X6743457Y46482466D01*
X6864530Y46560274D01*
X6866521Y46562571D01*
X6958781Y46669046D01*
X7018569Y46799962D01*
X7039051Y46942419D01*
X7018569Y47084876D01*
X6958781Y47215792D01*
X6864532Y47324562D01*
X6743457Y47402372D01*
X6605365Y47442919D01*
X6461443Y47442919D01*
X6323351Y47402372D01*
X6292142Y47382315D01*
X6202277Y47324563D01*
X6108027Y47215792D01*
X6048239Y47084875D01*
X6027757Y46942417D01*
X6028923Y46934305D01*
X6018814Y46864031D01*
X5993299Y46827286D01*
X5982545Y46816532D01*
X5982542Y46816528D01*
X5982540Y46816526D01*
X5982539Y46816524D01*
X5942977Y46748000D01*
X5922500Y46671580D01*
X5922500Y44999938D01*
X5902498Y44931817D01*
X5848842Y44885324D01*
X5778568Y44875220D01*
X5713988Y44904714D01*
X5701280Y44917420D01*
X5665274Y44958973D01*
X5635782Y45023554D01*
X5634500Y45041485D01*
X5634500Y47849285D01*
X5654502Y47917406D01*
X5708158Y47963899D01*
X5725001Y47970181D01*
X5819661Y47997976D01*
X5940734Y48075784D01*
X5967487Y48106658D01*
X6034985Y48184556D01*
X6094773Y48315472D01*
X6115255Y48457929D01*
X6094773Y48600386D01*
X6034985Y48731302D01*
X5940736Y48840072D01*
X5819661Y48917882D01*
X5681569Y48958429D01*
X5537647Y48958429D01*
X5399555Y48917882D01*
X5339017Y48878977D01*
X5278481Y48840073D01*
X5184231Y48731302D01*
X5124443Y48600385D01*
X5103961Y48457926D01*
X5103961Y48457924D01*
X5106163Y48442604D01*
X5096056Y48372330D01*
X5090565Y48361680D01*
X5063888Y48315472D01*
X5053977Y48298306D01*
X5033500Y48221886D01*
X5033500Y45041485D01*
X5013498Y44973364D01*
X5002726Y44958975D01*
X4908623Y44850373D01*
X4879965Y44787620D01*
X4848835Y44719456D01*
X4828353Y44577000D01*
X2569177Y44577000D01*
X2573300Y44579231D01*
X2573301Y44579232D01*
X2750902Y44717465D01*
X2903325Y44883041D01*
X3026419Y45071451D01*
X3116820Y45277543D01*
X3116823Y45277550D01*
X3164544Y45465999D01*
X3164544Y45466000D01*
X2258703Y45466000D01*
X2293925Y45527007D01*
X2328000Y45654174D01*
X2328000Y45785826D01*
X2293925Y45912993D01*
X2258703Y45974000D01*
X3164544Y45974000D01*
X3116823Y46162449D01*
X3116820Y46162456D01*
X3026419Y46368548D01*
X2903325Y46556958D01*
X2750902Y46722534D01*
X2573301Y46860767D01*
X2573300Y46860768D01*
X2375371Y46967882D01*
X2375369Y46967883D01*
X2186769Y47032629D01*
X2128834Y47073666D01*
X2102282Y47139510D01*
X2115543Y47209257D01*
X2164408Y47260763D01*
X2191103Y47272376D01*
X2210042Y47278121D01*
X2231955Y47284768D01*
X2414447Y47382313D01*
X2414448Y47382314D01*
X2414450Y47382315D01*
X2574410Y47513590D01*
X2705685Y47673550D01*
X2803232Y47856046D01*
X2863300Y48054066D01*
X2865440Y48075786D01*
X2883583Y48259996D01*
X2883583Y48260003D01*
X2863301Y48465927D01*
X2863300Y48465928D01*
X2863300Y48465934D01*
X2803232Y48663954D01*
X2705685Y48846450D01*
X2574410Y49006410D01*
X2414450Y49137685D01*
X2231954Y49235232D01*
X2033934Y49295300D01*
X2033928Y49295300D01*
X2033927Y49295301D01*
X1828003Y49315583D01*
X1827997Y49315583D01*
X1622072Y49295301D01*
X1622070Y49295300D01*
X1622066Y49295300D01*
X1424046Y49235232D01*
X1241550Y49137685D01*
X1081590Y49006410D01*
X1008937Y48917881D01*
X950313Y48846447D01*
X852768Y48663954D01*
X792698Y48465927D01*
X786843Y48406477D01*
X760260Y48340645D01*
X702305Y48299636D01*
X631380Y48296469D01*
X570001Y48332150D01*
X537656Y48395351D01*
X535450Y48418554D01*
X530720Y50688934D01*
X550580Y50757094D01*
X596596Y50797134D01*
X711414Y50797134D01*
X739034Y50784590D01*
X777542Y50724944D01*
X782113Y50701545D01*
X792698Y50594072D01*
X852768Y50396045D01*
X950313Y50213552D01*
X1081590Y50053590D01*
X1241552Y49922313D01*
X1424045Y49824768D01*
X1622072Y49764698D01*
X1827997Y49744417D01*
X1828000Y49744417D01*
X1828003Y49744417D01*
X2033927Y49764698D01*
X2046603Y49768543D01*
X2231954Y49824768D01*
X2393282Y49911000D01*
X3304353Y49911000D01*
X3324835Y49768543D01*
X3384623Y49637626D01*
X3478873Y49528855D01*
X3599946Y49451047D01*
X3738039Y49410500D01*
X3881961Y49410500D01*
X4028700Y49453586D01*
X4029160Y49452017D01*
X4068162Y49460500D01*
X6726838Y49460500D01*
X6765839Y49452017D01*
X6766300Y49453586D01*
X6774946Y49451047D01*
X6774947Y49451047D01*
X6913039Y49410500D01*
X7056961Y49410500D01*
X7195053Y49451047D01*
X7316126Y49528855D01*
X7410376Y49637626D01*
X7410377Y49637627D01*
X7470165Y49768543D01*
X7490647Y49911000D01*
X7470165Y50053457D01*
X7410377Y50184373D01*
X7316128Y50293143D01*
X7195053Y50370953D01*
X7056961Y50411500D01*
X6913039Y50411500D01*
X6860404Y50396045D01*
X6766300Y50368414D01*
X6765839Y50369982D01*
X6726838Y50361500D01*
X4068162Y50361500D01*
X4029160Y50369982D01*
X4028700Y50368414D01*
X3934596Y50396045D01*
X3881961Y50411500D01*
X3738039Y50411500D01*
X3599947Y50370953D01*
X3585238Y50361500D01*
X3478873Y50293144D01*
X3384623Y50184373D01*
X3324835Y50053456D01*
X3304353Y49911000D01*
X2393282Y49911000D01*
X2414447Y49922313D01*
X2414448Y49922314D01*
X2414450Y49922315D01*
X2574410Y50053590D01*
X2705685Y50213550D01*
X2803232Y50396046D01*
X2863300Y50594066D01*
X2882066Y50784590D01*
X2883583Y50799996D01*
X2883583Y50800003D01*
X2863301Y51005927D01*
X2863300Y51005928D01*
X2863300Y51005934D01*
X2803232Y51203954D01*
X2705685Y51386450D01*
X2574410Y51546410D01*
X2414450Y51677685D01*
X2231954Y51775232D01*
X2033934Y51835300D01*
X2033928Y51835300D01*
X2033927Y51835301D01*
X1828003Y51855583D01*
X1827997Y51855583D01*
X1622072Y51835301D01*
X1622070Y51835300D01*
X1622066Y51835300D01*
X1424046Y51775232D01*
X1241550Y51677685D01*
X1081590Y51546410D01*
X950315Y51386450D01*
X950313Y51386447D01*
X852768Y51203954D01*
X792698Y51005927D01*
X781661Y50893863D01*
X755078Y50828031D01*
X711414Y50797134D01*
X596596Y50797134D01*
X599302Y50799489D01*
X564819Y50819536D01*
X532475Y50882737D01*
X530268Y50905941D01*
X525314Y53283822D01*
X541486Y53339326D01*
X759550Y53339326D01*
X772136Y53319832D01*
X776707Y53296433D01*
X792698Y53134072D01*
X852768Y52936045D01*
X950313Y52753552D01*
X1081590Y52593590D01*
X1241552Y52462313D01*
X1424045Y52364768D01*
X1622072Y52304698D01*
X1827997Y52284417D01*
X1828000Y52284417D01*
X1828003Y52284417D01*
X2033927Y52304698D01*
X2231954Y52364768D01*
X2414447Y52462313D01*
X2414448Y52462314D01*
X2414450Y52462315D01*
X2495220Y52528601D01*
X8563500Y52528601D01*
X8563500Y52281399D01*
X8602171Y52037240D01*
X8602172Y52037234D01*
X8678559Y51802140D01*
X8790790Y51581875D01*
X8936092Y51381885D01*
X8936094Y51381882D01*
X9110882Y51207094D01*
X9110885Y51207092D01*
X9310875Y51061790D01*
X9531140Y50949559D01*
X9766234Y50873172D01*
X9766239Y50873171D01*
X9766240Y50873171D01*
X10010399Y50834500D01*
X10010402Y50834500D01*
X10257598Y50834500D01*
X10257601Y50834500D01*
X10501760Y50873171D01*
X10501761Y50873171D01*
X10501765Y50873172D01*
X10736859Y50949559D01*
X10736863Y50949561D01*
X10957121Y51061788D01*
X11157112Y51207090D01*
X11157114Y51207092D01*
X11157117Y51207094D01*
X11331905Y51381882D01*
X11331907Y51381885D01*
X11331910Y51381888D01*
X11477212Y51581879D01*
X11589439Y51802137D01*
X11665829Y52037240D01*
X11704500Y52281399D01*
X11704500Y52528601D01*
X11665829Y52772760D01*
X11589439Y53007863D01*
X11477212Y53228121D01*
X11331910Y53428112D01*
X11157112Y53602910D01*
X10957121Y53748212D01*
X10736863Y53860439D01*
X10501760Y53936829D01*
X10257601Y53975500D01*
X10010399Y53975500D01*
X9766240Y53936829D01*
X9531137Y53860439D01*
X9310879Y53748212D01*
X9110888Y53602910D01*
X9110885Y53602907D01*
X9110882Y53602905D01*
X8936094Y53428117D01*
X8936092Y53428114D01*
X8936090Y53428112D01*
X8872075Y53340003D01*
X8790790Y53228124D01*
X8678559Y53007859D01*
X8602172Y52772765D01*
X8602171Y52772761D01*
X8602171Y52772760D01*
X8563500Y52528601D01*
X2495220Y52528601D01*
X2574410Y52593590D01*
X2705685Y52753550D01*
X2803232Y52936046D01*
X2863300Y53134066D01*
X2883583Y53340000D01*
X2879520Y53381251D01*
X2863301Y53545927D01*
X2863300Y53545928D01*
X2863300Y53545934D01*
X2803232Y53743954D01*
X2705685Y53926450D01*
X2574410Y54086410D01*
X2414450Y54217685D01*
X2231954Y54315232D01*
X2033934Y54375300D01*
X2033928Y54375300D01*
X2033927Y54375301D01*
X1828003Y54395583D01*
X1827997Y54395583D01*
X1622072Y54375301D01*
X1622070Y54375300D01*
X1622066Y54375300D01*
X1424046Y54315232D01*
X1241550Y54217685D01*
X1081590Y54086410D01*
X950315Y53926450D01*
X950313Y53926447D01*
X852768Y53743954D01*
X792698Y53545927D01*
X776479Y53381251D01*
X759550Y53339326D01*
X541486Y53339326D01*
X542055Y53341278D01*
X527293Y53370124D01*
X525086Y53393330D01*
X519906Y55880003D01*
X772417Y55880003D01*
X772417Y55879996D01*
X792698Y55674072D01*
X852768Y55476045D01*
X950313Y55293552D01*
X1081590Y55133590D01*
X1241552Y55002313D01*
X1424045Y54904768D01*
X1622072Y54844698D01*
X1827997Y54824417D01*
X1828000Y54824417D01*
X1828003Y54824417D01*
X2033927Y54844698D01*
X2057515Y54851853D01*
X2231954Y54904768D01*
X2350527Y54968147D01*
X2414447Y55002313D01*
X2414448Y55002314D01*
X2414450Y55002315D01*
X2574410Y55133590D01*
X2600187Y55165000D01*
X14616337Y55165000D01*
X14634960Y54928367D01*
X14690371Y54697562D01*
X14781206Y54478266D01*
X14895898Y54291108D01*
X15636676Y55031886D01*
X15653755Y54968147D01*
X15720898Y54851853D01*
X15815853Y54756898D01*
X15932147Y54689755D01*
X15995886Y54672676D01*
X15255108Y53931897D01*
X15442266Y53817206D01*
X15661562Y53726371D01*
X15892367Y53670960D01*
X16129000Y53652337D01*
X16365632Y53670960D01*
X16596437Y53726371D01*
X16815738Y53817208D01*
X17002890Y53931896D01*
X17002890Y53931897D01*
X16262113Y54672676D01*
X16325853Y54689755D01*
X16442147Y54756898D01*
X16537102Y54851853D01*
X16604245Y54968147D01*
X16621323Y55031885D01*
X17362101Y54291107D01*
X17362102Y54291108D01*
X17476791Y54478261D01*
X17567628Y54697562D01*
X17623039Y54928367D01*
X17641662Y55165000D01*
X17623039Y55401632D01*
X17567628Y55632437D01*
X17476791Y55851738D01*
X17362102Y56038890D01*
X17362102Y56038891D01*
X16621323Y55298112D01*
X16604245Y55361853D01*
X16537102Y55478147D01*
X16442147Y55573102D01*
X16325853Y55640245D01*
X16262113Y55657323D01*
X17002891Y56398102D01*
X16815738Y56512791D01*
X16596437Y56603628D01*
X16365632Y56659039D01*
X16129000Y56677662D01*
X15892367Y56659039D01*
X15661562Y56603628D01*
X15442261Y56512791D01*
X15255108Y56398102D01*
X15255107Y56398101D01*
X15995885Y55657323D01*
X15932147Y55640245D01*
X15815853Y55573102D01*
X15720898Y55478147D01*
X15653755Y55361853D01*
X15636675Y55298111D01*
X14895897Y56038890D01*
X14895896Y56038890D01*
X14781208Y55851738D01*
X14690371Y55632437D01*
X14634960Y55401632D01*
X14616337Y55165000D01*
X2600187Y55165000D01*
X2705685Y55293550D01*
X2803232Y55476046D01*
X2863300Y55674066D01*
X2880800Y55851738D01*
X2883583Y55879996D01*
X2883583Y55880000D01*
X6479353Y55880000D01*
X6499835Y55737543D01*
X6559623Y55606626D01*
X6653873Y55497855D01*
X6774946Y55420047D01*
X6913039Y55379500D01*
X7056961Y55379500D01*
X7195053Y55420047D01*
X7203700Y55422586D01*
X7204160Y55421017D01*
X7243162Y55429500D01*
X8060308Y55429500D01*
X8060309Y55429500D01*
X8150673Y55453713D01*
X8150673Y55453712D01*
X8174880Y55460199D01*
X8174881Y55460199D01*
X8174887Y55460201D01*
X8174889Y55460202D01*
X8174891Y55460203D01*
X8277610Y55519508D01*
X8277620Y55519516D01*
X10237232Y57479129D01*
X10290829Y57510930D01*
X10306553Y57515547D01*
X10427626Y57593355D01*
X10521876Y57702126D01*
X10521877Y57702127D01*
X10581665Y57833043D01*
X10602147Y57975500D01*
X10581665Y58117957D01*
X10521877Y58248873D01*
X10427628Y58357643D01*
X10306553Y58435453D01*
X10168461Y58476000D01*
X10024539Y58476000D01*
X9886447Y58435453D01*
X9866211Y58422448D01*
X9765373Y58357644D01*
X9671123Y58248873D01*
X9671121Y58248870D01*
X9628746Y58156083D01*
X9603228Y58119331D01*
X7851302Y56367405D01*
X7788990Y56333379D01*
X7762207Y56330500D01*
X7243162Y56330500D01*
X7204160Y56338982D01*
X7203700Y56337414D01*
X7056961Y56380500D01*
X6913039Y56380500D01*
X6774947Y56339953D01*
X6764718Y56333379D01*
X6653873Y56262144D01*
X6653872Y56262143D01*
X6559623Y56153373D01*
X6507341Y56038891D01*
X6499835Y56022456D01*
X6479353Y55880000D01*
X2883583Y55880000D01*
X2883583Y55880003D01*
X2863301Y56085927D01*
X2863300Y56085928D01*
X2863300Y56085934D01*
X2803232Y56283954D01*
X2705685Y56466450D01*
X2574410Y56626410D01*
X2414450Y56757685D01*
X2231954Y56855232D01*
X2033934Y56915300D01*
X2033928Y56915300D01*
X2033927Y56915301D01*
X1828003Y56935583D01*
X1827997Y56935583D01*
X1622072Y56915301D01*
X1622070Y56915300D01*
X1622066Y56915300D01*
X1424046Y56855232D01*
X1241550Y56757685D01*
X1081590Y56626410D01*
X988346Y56512791D01*
X950313Y56466447D01*
X852768Y56283954D01*
X792698Y56085927D01*
X772417Y55880003D01*
X519906Y55880003D01*
X514989Y58240238D01*
X534849Y58308400D01*
X588408Y58355004D01*
X640989Y58366500D01*
X3047750Y58366500D01*
X3106228Y58378132D01*
X3106231Y58378133D01*
X3172552Y58422448D01*
X3216867Y58488769D01*
X3228500Y58547252D01*
X3228500Y61086748D01*
X3216867Y61145231D01*
X3172552Y61211552D01*
X3106231Y61255867D01*
X3047748Y61267500D01*
X634420Y61267500D01*
X566299Y61287502D01*
X519806Y61341158D01*
X508420Y61393238D01*
X508419Y61393500D01*
X508263Y61468738D01*
X528124Y61536900D01*
X581682Y61583505D01*
X634263Y61595000D01*
X24258000Y61595000D01*
X24326121Y61574998D01*
G37*
%TD.AperFunction*%
%TD*%
M02*
