%TF.GenerationSoftware,KiCad,Pcbnew,8.0.9-8.0.9-0~ubuntu22.04.1*%
%TF.CreationDate,2025-02-27T10:55:40+01:00*%
%TF.ProjectId,HB_TH_Sensor_SHT45_AllInOne_FUEL4EP,48425f54-485f-4536-956e-736f725f5348,1.5*%
%TF.SameCoordinates,Original*%
%TF.FileFunction,Legend,Top*%
%TF.FilePolarity,Positive*%
%FSLAX46Y46*%
G04 Gerber Fmt 4.6, Leading zero omitted, Abs format (unit mm)*
G04 Created by KiCad (PCBNEW 8.0.9-8.0.9-0~ubuntu22.04.1) date 2025-02-27 10:55:40*
%MOMM*%
%LPD*%
G01*
G04 APERTURE LIST*
G04 Aperture macros list*
%AMRoundRect*
0 Rectangle with rounded corners*
0 $1 Rounding radius*
0 $2 $3 $4 $5 $6 $7 $8 $9 X,Y pos of 4 corners*
0 Add a 4 corners polygon primitive as box body*
4,1,4,$2,$3,$4,$5,$6,$7,$8,$9,$2,$3,0*
0 Add four circle primitives for the rounded corners*
1,1,$1+$1,$2,$3*
1,1,$1+$1,$4,$5*
1,1,$1+$1,$6,$7*
1,1,$1+$1,$8,$9*
0 Add four rect primitives between the rounded corners*
20,1,$1+$1,$2,$3,$4,$5,0*
20,1,$1+$1,$4,$5,$6,$7,0*
20,1,$1+$1,$6,$7,$8,$9,0*
20,1,$1+$1,$8,$9,$2,$3,0*%
G04 Aperture macros list end*
%ADD10C,0.273049*%
%ADD11C,0.100000*%
%ADD12C,0.150000*%
%ADD13C,0.050000*%
%ADD14C,0.120000*%
%ADD15C,0.127000*%
%ADD16C,0.400000*%
%ADD17C,0.200000*%
%ADD18C,0.010000*%
%ADD19RoundRect,0.147500X-0.172500X0.147500X-0.172500X-0.147500X0.172500X-0.147500X0.172500X0.147500X0*%
%ADD20RoundRect,0.140000X-0.140000X-0.170000X0.140000X-0.170000X0.140000X0.170000X-0.140000X0.170000X0*%
%ADD21RoundRect,0.135000X0.185000X-0.135000X0.185000X0.135000X-0.185000X0.135000X-0.185000X-0.135000X0*%
%ADD22RoundRect,0.135000X0.135000X0.185000X-0.135000X0.185000X-0.135000X-0.185000X0.135000X-0.185000X0*%
%ADD23R,0.800000X1.500000*%
%ADD24R,1.500000X0.800000*%
%ADD25RoundRect,0.140000X0.170000X-0.140000X0.170000X0.140000X-0.170000X0.140000X-0.170000X-0.140000X0*%
%ADD26RoundRect,0.135000X-0.135000X-0.185000X0.135000X-0.185000X0.135000X0.185000X-0.135000X0.185000X0*%
%ADD27RoundRect,0.250000X0.475000X-0.250000X0.475000X0.250000X-0.475000X0.250000X-0.475000X-0.250000X0*%
%ADD28R,0.750000X1.000000*%
%ADD29RoundRect,0.140000X0.140000X0.170000X-0.140000X0.170000X-0.140000X-0.170000X0.140000X-0.170000X0*%
%ADD30R,0.900000X3.000000*%
%ADD31RoundRect,0.100000X-0.100000X0.350000X-0.100000X-0.350000X0.100000X-0.350000X0.100000X0.350000X0*%
%ADD32R,0.550000X1.500000*%
%ADD33R,1.500000X0.550000*%
%ADD34RoundRect,0.140000X-0.170000X0.140000X-0.170000X-0.140000X0.170000X-0.140000X0.170000X0.140000X0*%
%ADD35R,2.500000X2.500000*%
%ADD36R,1.000000X1.500000*%
%ADD37RoundRect,0.147500X0.172500X-0.147500X0.172500X0.147500X-0.172500X0.147500X-0.172500X-0.147500X0*%
%ADD38R,0.500000X0.300000*%
%ADD39RoundRect,0.147500X-0.147500X-0.172500X0.147500X-0.172500X0.147500X0.172500X-0.147500X0.172500X0*%
%ADD40C,2.640000*%
%ADD41R,2.000000X2.000000*%
%ADD42C,2.000000*%
%ADD43R,1.700000X1.700000*%
%ADD44O,1.700000X1.700000*%
G04 APERTURE END LIST*
D10*
X13598524Y10795000D02*
G75*
G02*
X13325476Y10795000I-136524J0D01*
G01*
X13325476Y10795000D02*
G75*
G02*
X13598524Y10795000I136524J0D01*
G01*
X19567524Y33909000D02*
G75*
G02*
X19294476Y33909000I-136524J0D01*
G01*
X19294476Y33909000D02*
G75*
G02*
X19567524Y33909000I136524J0D01*
G01*
X1025524Y15621000D02*
G75*
G02*
X752476Y15621000I-136524J0D01*
G01*
X752476Y15621000D02*
G75*
G02*
X1025524Y15621000I136524J0D01*
G01*
X21218524Y54229000D02*
G75*
G02*
X20945476Y54229000I-136524J0D01*
G01*
X20945476Y54229000D02*
G75*
G02*
X21218524Y54229000I136524J0D01*
G01*
D11*
X3496759Y45771952D02*
X3428995Y45751328D01*
X3428995Y45751328D02*
X3358284Y45680618D01*
X3358284Y45680618D02*
X3308197Y45583391D01*
X3308197Y45583391D02*
X3302305Y45483217D01*
X3302305Y45483217D02*
X3319982Y45406614D01*
X3319982Y45406614D02*
X3378908Y45276978D01*
X3378908Y45276978D02*
X3440780Y45197428D01*
X3440780Y45197428D02*
X3546846Y45114932D01*
X3546846Y45114932D02*
X3611664Y45085470D01*
X3611664Y45085470D02*
X3700052Y45079577D01*
X3700052Y45079577D02*
X3791387Y45123771D01*
X3791387Y45123771D02*
X3838527Y45170912D01*
X3838527Y45170912D02*
X3888614Y45268139D01*
X3888614Y45268139D02*
X3891560Y45318226D01*
X3891560Y45318226D02*
X3747193Y45503841D01*
X3747193Y45503841D02*
X3652912Y45409560D01*
X4144940Y45477325D02*
X3711837Y46034171D01*
X3711837Y46034171D02*
X4427783Y45760167D01*
X4427783Y45760167D02*
X3994680Y46317014D01*
X4663485Y45995869D02*
X4230382Y46552716D01*
X4230382Y46552716D02*
X4348233Y46670567D01*
X4348233Y46670567D02*
X4439568Y46714761D01*
X4439568Y46714761D02*
X4527956Y46708869D01*
X4527956Y46708869D02*
X4592774Y46679406D01*
X4592774Y46679406D02*
X4698840Y46596910D01*
X4698840Y46596910D02*
X4760712Y46517361D01*
X4760712Y46517361D02*
X4819638Y46387724D01*
X4819638Y46387724D02*
X4837315Y46311121D01*
X4837315Y46311121D02*
X4831423Y46210948D01*
X4831423Y46210948D02*
X4781336Y46113720D01*
X4781336Y46113720D02*
X4663485Y45995869D01*
X3736647Y34247981D02*
X4019490Y34530824D01*
X4311171Y33832556D02*
X3878068Y34389402D01*
X4137341Y34648675D02*
X4900427Y34421811D01*
X4467324Y34978658D02*
X4570444Y34091828D01*
X5088989Y34610373D02*
X4655886Y35167220D01*
X4655886Y35167220D02*
X4773737Y35285071D01*
X4773737Y35285071D02*
X4865072Y35329265D01*
X4865072Y35329265D02*
X4953460Y35323373D01*
X4953460Y35323373D02*
X5018278Y35293910D01*
X5018278Y35293910D02*
X5124344Y35211414D01*
X5124344Y35211414D02*
X5186216Y35131865D01*
X5186216Y35131865D02*
X5245142Y35002228D01*
X5245142Y35002228D02*
X5262819Y34925625D01*
X5262819Y34925625D02*
X5256927Y34825452D01*
X5256927Y34825452D02*
X5206840Y34728224D01*
X5206840Y34728224D02*
X5088989Y34610373D01*
X4010341Y50342866D02*
X4101676Y50387060D01*
X4101676Y50387060D02*
X4219527Y50504911D01*
X4219527Y50504911D02*
X4246043Y50578568D01*
X4246043Y50578568D02*
X4248990Y50628655D01*
X4248990Y50628655D02*
X4231312Y50705258D01*
X4231312Y50705258D02*
X4190064Y50758291D01*
X4190064Y50758291D02*
X4125246Y50787754D01*
X4125246Y50787754D02*
X4081052Y50790700D01*
X4081052Y50790700D02*
X4013287Y50770076D01*
X4013287Y50770076D02*
X3898383Y50702312D01*
X3898383Y50702312D02*
X3830618Y50681688D01*
X3830618Y50681688D02*
X3786424Y50684634D01*
X3786424Y50684634D02*
X3721606Y50714097D01*
X3721606Y50714097D02*
X3680358Y50767130D01*
X3680358Y50767130D02*
X3662680Y50843733D01*
X3662680Y50843733D02*
X3665627Y50893820D01*
X3665627Y50893820D02*
X3692143Y50967477D01*
X3692143Y50967477D02*
X3809994Y51085328D01*
X3809994Y51085328D02*
X3901329Y51129522D01*
X4767535Y51147200D02*
X4764589Y51097114D01*
X4764589Y51097114D02*
X4714502Y50999886D01*
X4714502Y50999886D02*
X4667361Y50952746D01*
X4667361Y50952746D02*
X4576027Y50908552D01*
X4576027Y50908552D02*
X4487639Y50914444D01*
X4487639Y50914444D02*
X4422820Y50943907D01*
X4422820Y50943907D02*
X4316754Y51026403D01*
X4316754Y51026403D02*
X4254883Y51105952D01*
X4254883Y51105952D02*
X4195957Y51235589D01*
X4195957Y51235589D02*
X4178279Y51312192D01*
X4178279Y51312192D02*
X4184172Y51412365D01*
X4184172Y51412365D02*
X4234259Y51509592D01*
X4234259Y51509592D02*
X4281399Y51556733D01*
X4281399Y51556733D02*
X4372734Y51600927D01*
X4372734Y51600927D02*
X4416928Y51597981D01*
X5020915Y51306299D02*
X4587812Y51863146D01*
X5303758Y51589142D02*
X4844138Y51695208D01*
X4870655Y52145989D02*
X4835299Y51544948D01*
D12*
X18193104Y10807857D02*
X18231200Y10769761D01*
X18231200Y10769761D02*
X18269295Y10655476D01*
X18269295Y10655476D02*
X18269295Y10579285D01*
X18269295Y10579285D02*
X18231200Y10464999D01*
X18231200Y10464999D02*
X18155009Y10388809D01*
X18155009Y10388809D02*
X18078819Y10350714D01*
X18078819Y10350714D02*
X17926438Y10312618D01*
X17926438Y10312618D02*
X17812152Y10312618D01*
X17812152Y10312618D02*
X17659771Y10350714D01*
X17659771Y10350714D02*
X17583580Y10388809D01*
X17583580Y10388809D02*
X17507390Y10464999D01*
X17507390Y10464999D02*
X17469295Y10579285D01*
X17469295Y10579285D02*
X17469295Y10655476D01*
X17469295Y10655476D02*
X17507390Y10769761D01*
X17507390Y10769761D02*
X17545485Y10807857D01*
X18269295Y11264999D02*
X18231200Y11188809D01*
X18231200Y11188809D02*
X18193104Y11150714D01*
X18193104Y11150714D02*
X18116914Y11112618D01*
X18116914Y11112618D02*
X17888342Y11112618D01*
X17888342Y11112618D02*
X17812152Y11150714D01*
X17812152Y11150714D02*
X17774057Y11188809D01*
X17774057Y11188809D02*
X17735961Y11264999D01*
X17735961Y11264999D02*
X17735961Y11379285D01*
X17735961Y11379285D02*
X17774057Y11455476D01*
X17774057Y11455476D02*
X17812152Y11493571D01*
X17812152Y11493571D02*
X17888342Y11531666D01*
X17888342Y11531666D02*
X18116914Y11531666D01*
X18116914Y11531666D02*
X18193104Y11493571D01*
X18193104Y11493571D02*
X18231200Y11455476D01*
X18231200Y11455476D02*
X18269295Y11379285D01*
X18269295Y11379285D02*
X18269295Y11264999D01*
X17735961Y11874524D02*
X18269295Y11874524D01*
X17812152Y11874524D02*
X17774057Y11912619D01*
X17774057Y11912619D02*
X17735961Y11988809D01*
X17735961Y11988809D02*
X17735961Y12103095D01*
X17735961Y12103095D02*
X17774057Y12179286D01*
X17774057Y12179286D02*
X17850247Y12217381D01*
X17850247Y12217381D02*
X18269295Y12217381D01*
X17735961Y12484048D02*
X17735961Y12788810D01*
X18269295Y12598334D02*
X17583580Y12598334D01*
X17583580Y12598334D02*
X17507390Y12636429D01*
X17507390Y12636429D02*
X17469295Y12712619D01*
X17469295Y12712619D02*
X17469295Y12788810D01*
X18269295Y13055477D02*
X17735961Y13055477D01*
X17469295Y13055477D02*
X17507390Y13017381D01*
X17507390Y13017381D02*
X17545485Y13055477D01*
X17545485Y13055477D02*
X17507390Y13093572D01*
X17507390Y13093572D02*
X17469295Y13055477D01*
X17469295Y13055477D02*
X17545485Y13055477D01*
X17735961Y13779286D02*
X18383580Y13779286D01*
X18383580Y13779286D02*
X18459771Y13741191D01*
X18459771Y13741191D02*
X18497866Y13703095D01*
X18497866Y13703095D02*
X18535961Y13626905D01*
X18535961Y13626905D02*
X18535961Y13512619D01*
X18535961Y13512619D02*
X18497866Y13436429D01*
X18231200Y13779286D02*
X18269295Y13703095D01*
X18269295Y13703095D02*
X18269295Y13550714D01*
X18269295Y13550714D02*
X18231200Y13474524D01*
X18231200Y13474524D02*
X18193104Y13436429D01*
X18193104Y13436429D02*
X18116914Y13398333D01*
X18116914Y13398333D02*
X17888342Y13398333D01*
X17888342Y13398333D02*
X17812152Y13436429D01*
X17812152Y13436429D02*
X17774057Y13474524D01*
X17774057Y13474524D02*
X17735961Y13550714D01*
X17735961Y13550714D02*
X17735961Y13703095D01*
X17735961Y13703095D02*
X17774057Y13779286D01*
D11*
X3828292Y29386626D02*
X4426386Y28994771D01*
X4426386Y28994771D02*
X4158275Y29716609D01*
X4997964Y29660630D02*
X4995018Y29610543D01*
X4995018Y29610543D02*
X4944931Y29513316D01*
X4944931Y29513316D02*
X4897791Y29466175D01*
X4897791Y29466175D02*
X4806456Y29421981D01*
X4806456Y29421981D02*
X4718068Y29427874D01*
X4718068Y29427874D02*
X4653250Y29457336D01*
X4653250Y29457336D02*
X4547184Y29539832D01*
X4547184Y29539832D02*
X4485312Y29619382D01*
X4485312Y29619382D02*
X4426386Y29749018D01*
X4426386Y29749018D02*
X4408709Y29825621D01*
X4408709Y29825621D02*
X4414601Y29925795D01*
X4414601Y29925795D02*
X4464688Y30023022D01*
X4464688Y30023022D02*
X4511828Y30070162D01*
X4511828Y30070162D02*
X4603163Y30114356D01*
X4603163Y30114356D02*
X4647357Y30111410D01*
X5492939Y30155604D02*
X5489993Y30105518D01*
X5489993Y30105518D02*
X5439906Y30008290D01*
X5439906Y30008290D02*
X5392766Y29961150D01*
X5392766Y29961150D02*
X5301431Y29916956D01*
X5301431Y29916956D02*
X5213043Y29922848D01*
X5213043Y29922848D02*
X5148224Y29952311D01*
X5148224Y29952311D02*
X5042158Y30034807D01*
X5042158Y30034807D02*
X4980287Y30114356D01*
X4980287Y30114356D02*
X4921361Y30243993D01*
X4921361Y30243993D02*
X4903683Y30320596D01*
X4903683Y30320596D02*
X4909576Y30420769D01*
X4909576Y30420769D02*
X4959663Y30517997D01*
X4959663Y30517997D02*
X5006803Y30565137D01*
X5006803Y30565137D02*
X5098138Y30609331D01*
X5098138Y30609331D02*
X5142332Y30606385D01*
X3889544Y52460928D02*
X3456441Y53017775D01*
X3456441Y53017775D02*
X3930792Y52785019D01*
X3930792Y52785019D02*
X3786424Y53347758D01*
X3786424Y53347758D02*
X4219527Y52790912D01*
X4455229Y53026614D02*
X4022127Y53583460D01*
X4646737Y53265262D02*
X4738072Y53309456D01*
X4738072Y53309456D02*
X4855923Y53427307D01*
X4855923Y53427307D02*
X4882440Y53500964D01*
X4882440Y53500964D02*
X4885386Y53551051D01*
X4885386Y53551051D02*
X4867708Y53627654D01*
X4867708Y53627654D02*
X4826460Y53680687D01*
X4826460Y53680687D02*
X4761642Y53710150D01*
X4761642Y53710150D02*
X4717448Y53713096D01*
X4717448Y53713096D02*
X4649684Y53692473D01*
X4649684Y53692473D02*
X4534779Y53624708D01*
X4534779Y53624708D02*
X4467014Y53604084D01*
X4467014Y53604084D02*
X4422820Y53607030D01*
X4422820Y53607030D02*
X4358002Y53636493D01*
X4358002Y53636493D02*
X4316754Y53689526D01*
X4316754Y53689526D02*
X4299076Y53766129D01*
X4299076Y53766129D02*
X4302023Y53816216D01*
X4302023Y53816216D02*
X4328539Y53889873D01*
X4328539Y53889873D02*
X4446390Y54007724D01*
X4446390Y54007724D02*
X4537725Y54051918D01*
X4823514Y54384848D02*
X4917795Y54479129D01*
X4917795Y54479129D02*
X4985560Y54499753D01*
X4985560Y54499753D02*
X5073948Y54493860D01*
X5073948Y54493860D02*
X5180014Y54411365D01*
X5180014Y54411365D02*
X5324382Y54225749D01*
X5324382Y54225749D02*
X5383307Y54096113D01*
X5383307Y54096113D02*
X5377415Y53995939D01*
X5377415Y53995939D02*
X5350898Y53922282D01*
X5350898Y53922282D02*
X5256617Y53828002D01*
X5256617Y53828002D02*
X5188853Y53807378D01*
X5188853Y53807378D02*
X5100464Y53813270D01*
X5100464Y53813270D02*
X4994398Y53895766D01*
X4994398Y53895766D02*
X4850031Y54081381D01*
X4850031Y54081381D02*
X4791105Y54211018D01*
X4791105Y54211018D02*
X4796998Y54311191D01*
X4796998Y54311191D02*
X4823514Y54384848D01*
X3066292Y43102626D02*
X3664386Y42710771D01*
X3664386Y42710771D02*
X3396275Y43432609D01*
X4235964Y43376630D02*
X4233018Y43326543D01*
X4233018Y43326543D02*
X4182931Y43229316D01*
X4182931Y43229316D02*
X4135791Y43182175D01*
X4135791Y43182175D02*
X4044456Y43137981D01*
X4044456Y43137981D02*
X3956068Y43143874D01*
X3956068Y43143874D02*
X3891250Y43173336D01*
X3891250Y43173336D02*
X3785184Y43255832D01*
X3785184Y43255832D02*
X3723312Y43335382D01*
X3723312Y43335382D02*
X3664386Y43465018D01*
X3664386Y43465018D02*
X3646709Y43541621D01*
X3646709Y43541621D02*
X3652601Y43641795D01*
X3652601Y43641795D02*
X3702688Y43739022D01*
X3702688Y43739022D02*
X3749828Y43786162D01*
X3749828Y43786162D02*
X3841163Y43830356D01*
X3841163Y43830356D02*
X3885357Y43827410D01*
X4730939Y43871604D02*
X4727993Y43821518D01*
X4727993Y43821518D02*
X4677906Y43724290D01*
X4677906Y43724290D02*
X4630766Y43677150D01*
X4630766Y43677150D02*
X4539431Y43632956D01*
X4539431Y43632956D02*
X4451043Y43638848D01*
X4451043Y43638848D02*
X4386224Y43668311D01*
X4386224Y43668311D02*
X4280158Y43750807D01*
X4280158Y43750807D02*
X4218287Y43830356D01*
X4218287Y43830356D02*
X4159361Y43959993D01*
X4159361Y43959993D02*
X4141683Y44036596D01*
X4141683Y44036596D02*
X4147576Y44136769D01*
X4147576Y44136769D02*
X4197663Y44233997D01*
X4197663Y44233997D02*
X4244803Y44281137D01*
X4244803Y44281137D02*
X4336138Y44325331D01*
X4336138Y44325331D02*
X4380332Y44322385D01*
X4228676Y36290060D02*
X3795573Y36846907D01*
X3795573Y36846907D02*
X3913424Y36964758D01*
X3913424Y36964758D02*
X4004759Y37008952D01*
X4004759Y37008952D02*
X4093147Y37003060D01*
X4093147Y37003060D02*
X4157965Y36973597D01*
X4157965Y36973597D02*
X4264031Y36891101D01*
X4264031Y36891101D02*
X4325903Y36811552D01*
X4325903Y36811552D02*
X4384829Y36681915D01*
X4384829Y36681915D02*
X4402506Y36605312D01*
X4402506Y36605312D02*
X4396614Y36505139D01*
X4396614Y36505139D02*
X4346527Y36407912D01*
X4346527Y36407912D02*
X4228676Y36290060D01*
X4219837Y37271171D02*
X4502680Y37554014D01*
X4794361Y36855746D02*
X4361259Y37412592D01*
X5383617Y37445001D02*
X5012386Y37545175D01*
X5100774Y37162159D02*
X4667671Y37719005D01*
X4667671Y37719005D02*
X4856233Y37907567D01*
X4856233Y37907567D02*
X4923997Y37928191D01*
X4923997Y37928191D02*
X4968192Y37925245D01*
X4968192Y37925245D02*
X5033010Y37895782D01*
X5033010Y37895782D02*
X5094882Y37816232D01*
X5094882Y37816232D02*
X5112559Y37739629D01*
X5112559Y37739629D02*
X5109613Y37689542D01*
X5109613Y37689542D02*
X5083097Y37615885D01*
X5083097Y37615885D02*
X4894535Y37427324D01*
X4337378Y31572763D02*
X3966147Y31672936D01*
X4054535Y31289920D02*
X3621432Y31846766D01*
X3621432Y31846766D02*
X3809994Y32035328D01*
X3809994Y32035328D02*
X3877759Y32055952D01*
X3877759Y32055952D02*
X3921953Y32053006D01*
X3921953Y32053006D02*
X3986771Y32023543D01*
X3986771Y32023543D02*
X4048643Y31943994D01*
X4048643Y31943994D02*
X4066320Y31867390D01*
X4066320Y31867390D02*
X4063374Y31817304D01*
X4063374Y31817304D02*
X4036858Y31743647D01*
X4036858Y31743647D02*
X3848296Y31555085D01*
X4069267Y32294601D02*
X4832353Y32067737D01*
X4399250Y32624584D02*
X4502370Y31737754D01*
X5020915Y32256299D02*
X4587812Y32813146D01*
X4587812Y32813146D02*
X4705663Y32930997D01*
X4705663Y32930997D02*
X4796998Y32975191D01*
X4796998Y32975191D02*
X4885386Y32969299D01*
X4885386Y32969299D02*
X4950204Y32939836D01*
X4950204Y32939836D02*
X5056270Y32857340D01*
X5056270Y32857340D02*
X5118142Y32777791D01*
X5118142Y32777791D02*
X5177068Y32648154D01*
X5177068Y32648154D02*
X5194745Y32571551D01*
X5194745Y32571551D02*
X5188853Y32471378D01*
X5188853Y32471378D02*
X5138766Y32374150D01*
X5138766Y32374150D02*
X5020915Y32256299D01*
X3193292Y5891626D02*
X3791386Y5499771D01*
X3791386Y5499771D02*
X3523275Y6221609D01*
X4362964Y6165630D02*
X4360018Y6115543D01*
X4360018Y6115543D02*
X4309931Y6018316D01*
X4309931Y6018316D02*
X4262791Y5971175D01*
X4262791Y5971175D02*
X4171456Y5926981D01*
X4171456Y5926981D02*
X4083068Y5932874D01*
X4083068Y5932874D02*
X4018250Y5962336D01*
X4018250Y5962336D02*
X3912184Y6044832D01*
X3912184Y6044832D02*
X3850312Y6124382D01*
X3850312Y6124382D02*
X3791386Y6254018D01*
X3791386Y6254018D02*
X3773709Y6330621D01*
X3773709Y6330621D02*
X3779601Y6430795D01*
X3779601Y6430795D02*
X3829688Y6528022D01*
X3829688Y6528022D02*
X3876828Y6575162D01*
X3876828Y6575162D02*
X3968163Y6619356D01*
X3968163Y6619356D02*
X4012357Y6616410D01*
X4857939Y6660604D02*
X4854993Y6610518D01*
X4854993Y6610518D02*
X4804906Y6513290D01*
X4804906Y6513290D02*
X4757766Y6466150D01*
X4757766Y6466150D02*
X4666431Y6421956D01*
X4666431Y6421956D02*
X4578043Y6427848D01*
X4578043Y6427848D02*
X4513224Y6457311D01*
X4513224Y6457311D02*
X4407158Y6539807D01*
X4407158Y6539807D02*
X4345287Y6619356D01*
X4345287Y6619356D02*
X4286361Y6748993D01*
X4286361Y6748993D02*
X4268683Y6825596D01*
X4268683Y6825596D02*
X4274576Y6925769D01*
X4274576Y6925769D02*
X4324663Y7022997D01*
X4324663Y7022997D02*
X4371803Y7070137D01*
X4371803Y7070137D02*
X4463138Y7114331D01*
X4463138Y7114331D02*
X4507332Y7111385D01*
D12*
X7506523Y60000704D02*
X7582713Y60000704D01*
X7582713Y60000704D02*
X7658904Y59962609D01*
X7658904Y59962609D02*
X7696999Y59924514D01*
X7696999Y59924514D02*
X7735094Y59848323D01*
X7735094Y59848323D02*
X7773189Y59695942D01*
X7773189Y59695942D02*
X7773189Y59505466D01*
X7773189Y59505466D02*
X7735094Y59353085D01*
X7735094Y59353085D02*
X7696999Y59276895D01*
X7696999Y59276895D02*
X7658904Y59238800D01*
X7658904Y59238800D02*
X7582713Y59200704D01*
X7582713Y59200704D02*
X7506523Y59200704D01*
X7506523Y59200704D02*
X7430332Y59238800D01*
X7430332Y59238800D02*
X7392237Y59276895D01*
X7392237Y59276895D02*
X7354142Y59353085D01*
X7354142Y59353085D02*
X7316046Y59505466D01*
X7316046Y59505466D02*
X7316046Y59695942D01*
X7316046Y59695942D02*
X7354142Y59848323D01*
X7354142Y59848323D02*
X7392237Y59924514D01*
X7392237Y59924514D02*
X7430332Y59962609D01*
X7430332Y59962609D02*
X7506523Y60000704D01*
X8116047Y59276895D02*
X8154142Y59238800D01*
X8154142Y59238800D02*
X8116047Y59200704D01*
X8116047Y59200704D02*
X8077951Y59238800D01*
X8077951Y59238800D02*
X8116047Y59276895D01*
X8116047Y59276895D02*
X8116047Y59200704D01*
X8611284Y59657847D02*
X8535094Y59695942D01*
X8535094Y59695942D02*
X8496999Y59734038D01*
X8496999Y59734038D02*
X8458903Y59810228D01*
X8458903Y59810228D02*
X8458903Y59848323D01*
X8458903Y59848323D02*
X8496999Y59924514D01*
X8496999Y59924514D02*
X8535094Y59962609D01*
X8535094Y59962609D02*
X8611284Y60000704D01*
X8611284Y60000704D02*
X8763665Y60000704D01*
X8763665Y60000704D02*
X8839856Y59962609D01*
X8839856Y59962609D02*
X8877951Y59924514D01*
X8877951Y59924514D02*
X8916046Y59848323D01*
X8916046Y59848323D02*
X8916046Y59810228D01*
X8916046Y59810228D02*
X8877951Y59734038D01*
X8877951Y59734038D02*
X8839856Y59695942D01*
X8839856Y59695942D02*
X8763665Y59657847D01*
X8763665Y59657847D02*
X8611284Y59657847D01*
X8611284Y59657847D02*
X8535094Y59619752D01*
X8535094Y59619752D02*
X8496999Y59581657D01*
X8496999Y59581657D02*
X8458903Y59505466D01*
X8458903Y59505466D02*
X8458903Y59353085D01*
X8458903Y59353085D02*
X8496999Y59276895D01*
X8496999Y59276895D02*
X8535094Y59238800D01*
X8535094Y59238800D02*
X8611284Y59200704D01*
X8611284Y59200704D02*
X8763665Y59200704D01*
X8763665Y59200704D02*
X8839856Y59238800D01*
X8839856Y59238800D02*
X8877951Y59276895D01*
X8877951Y59276895D02*
X8916046Y59353085D01*
X8916046Y59353085D02*
X8916046Y59505466D01*
X8916046Y59505466D02*
X8877951Y59581657D01*
X8877951Y59581657D02*
X8839856Y59619752D01*
X8839856Y59619752D02*
X8763665Y59657847D01*
X9868428Y59200704D02*
X9868428Y59734038D01*
X9868428Y59657847D02*
X9906523Y59695942D01*
X9906523Y59695942D02*
X9982713Y59734038D01*
X9982713Y59734038D02*
X10096999Y59734038D01*
X10096999Y59734038D02*
X10173190Y59695942D01*
X10173190Y59695942D02*
X10211285Y59619752D01*
X10211285Y59619752D02*
X10211285Y59200704D01*
X10211285Y59619752D02*
X10249380Y59695942D01*
X10249380Y59695942D02*
X10325571Y59734038D01*
X10325571Y59734038D02*
X10439856Y59734038D01*
X10439856Y59734038D02*
X10516047Y59695942D01*
X10516047Y59695942D02*
X10554142Y59619752D01*
X10554142Y59619752D02*
X10554142Y59200704D01*
X10935095Y59200704D02*
X10935095Y59734038D01*
X10935095Y59657847D02*
X10973190Y59695942D01*
X10973190Y59695942D02*
X11049380Y59734038D01*
X11049380Y59734038D02*
X11163666Y59734038D01*
X11163666Y59734038D02*
X11239857Y59695942D01*
X11239857Y59695942D02*
X11277952Y59619752D01*
X11277952Y59619752D02*
X11277952Y59200704D01*
X11277952Y59619752D02*
X11316047Y59695942D01*
X11316047Y59695942D02*
X11392238Y59734038D01*
X11392238Y59734038D02*
X11506523Y59734038D01*
X11506523Y59734038D02*
X11582714Y59695942D01*
X11582714Y59695942D02*
X11620809Y59619752D01*
X11620809Y59619752D02*
X11620809Y59200704D01*
X12611286Y59200704D02*
X12611286Y60000704D01*
X12611286Y60000704D02*
X12916048Y60000704D01*
X12916048Y60000704D02*
X12992238Y59962609D01*
X12992238Y59962609D02*
X13030333Y59924514D01*
X13030333Y59924514D02*
X13068429Y59848323D01*
X13068429Y59848323D02*
X13068429Y59734038D01*
X13068429Y59734038D02*
X13030333Y59657847D01*
X13030333Y59657847D02*
X12992238Y59619752D01*
X12992238Y59619752D02*
X12916048Y59581657D01*
X12916048Y59581657D02*
X12611286Y59581657D01*
X13868429Y59276895D02*
X13830333Y59238800D01*
X13830333Y59238800D02*
X13716048Y59200704D01*
X13716048Y59200704D02*
X13639857Y59200704D01*
X13639857Y59200704D02*
X13525571Y59238800D01*
X13525571Y59238800D02*
X13449381Y59314990D01*
X13449381Y59314990D02*
X13411286Y59391180D01*
X13411286Y59391180D02*
X13373190Y59543561D01*
X13373190Y59543561D02*
X13373190Y59657847D01*
X13373190Y59657847D02*
X13411286Y59810228D01*
X13411286Y59810228D02*
X13449381Y59886419D01*
X13449381Y59886419D02*
X13525571Y59962609D01*
X13525571Y59962609D02*
X13639857Y60000704D01*
X13639857Y60000704D02*
X13716048Y60000704D01*
X13716048Y60000704D02*
X13830333Y59962609D01*
X13830333Y59962609D02*
X13868429Y59924514D01*
X14477952Y59619752D02*
X14592238Y59581657D01*
X14592238Y59581657D02*
X14630333Y59543561D01*
X14630333Y59543561D02*
X14668429Y59467371D01*
X14668429Y59467371D02*
X14668429Y59353085D01*
X14668429Y59353085D02*
X14630333Y59276895D01*
X14630333Y59276895D02*
X14592238Y59238800D01*
X14592238Y59238800D02*
X14516048Y59200704D01*
X14516048Y59200704D02*
X14211286Y59200704D01*
X14211286Y59200704D02*
X14211286Y60000704D01*
X14211286Y60000704D02*
X14477952Y60000704D01*
X14477952Y60000704D02*
X14554143Y59962609D01*
X14554143Y59962609D02*
X14592238Y59924514D01*
X14592238Y59924514D02*
X14630333Y59848323D01*
X14630333Y59848323D02*
X14630333Y59772133D01*
X14630333Y59772133D02*
X14592238Y59695942D01*
X14592238Y59695942D02*
X14554143Y59657847D01*
X14554143Y59657847D02*
X14477952Y59619752D01*
X14477952Y59619752D02*
X14211286Y59619752D01*
X15506524Y59734038D02*
X15811286Y59734038D01*
X15620810Y60000704D02*
X15620810Y59314990D01*
X15620810Y59314990D02*
X15658905Y59238800D01*
X15658905Y59238800D02*
X15735095Y59200704D01*
X15735095Y59200704D02*
X15811286Y59200704D01*
X16077953Y59200704D02*
X16077953Y60000704D01*
X16420810Y59200704D02*
X16420810Y59619752D01*
X16420810Y59619752D02*
X16382715Y59695942D01*
X16382715Y59695942D02*
X16306524Y59734038D01*
X16306524Y59734038D02*
X16192238Y59734038D01*
X16192238Y59734038D02*
X16116048Y59695942D01*
X16116048Y59695942D02*
X16077953Y59657847D01*
X16801763Y59200704D02*
X16801763Y59734038D01*
X16801763Y60000704D02*
X16763667Y59962609D01*
X16763667Y59962609D02*
X16801763Y59924514D01*
X16801763Y59924514D02*
X16839858Y59962609D01*
X16839858Y59962609D02*
X16801763Y60000704D01*
X16801763Y60000704D02*
X16801763Y59924514D01*
X17525572Y59238800D02*
X17449381Y59200704D01*
X17449381Y59200704D02*
X17297000Y59200704D01*
X17297000Y59200704D02*
X17220810Y59238800D01*
X17220810Y59238800D02*
X17182715Y59276895D01*
X17182715Y59276895D02*
X17144619Y59353085D01*
X17144619Y59353085D02*
X17144619Y59581657D01*
X17144619Y59581657D02*
X17182715Y59657847D01*
X17182715Y59657847D02*
X17220810Y59695942D01*
X17220810Y59695942D02*
X17297000Y59734038D01*
X17297000Y59734038D02*
X17449381Y59734038D01*
X17449381Y59734038D02*
X17525572Y59695942D01*
X17868429Y59200704D02*
X17868429Y60000704D01*
X17944619Y59505466D02*
X18173191Y59200704D01*
X18173191Y59734038D02*
X17868429Y59429276D01*
X18516048Y59734038D02*
X18516048Y59200704D01*
X18516048Y59657847D02*
X18554143Y59695942D01*
X18554143Y59695942D02*
X18630333Y59734038D01*
X18630333Y59734038D02*
X18744619Y59734038D01*
X18744619Y59734038D02*
X18820810Y59695942D01*
X18820810Y59695942D02*
X18858905Y59619752D01*
X18858905Y59619752D02*
X18858905Y59200704D01*
X19544620Y59238800D02*
X19468429Y59200704D01*
X19468429Y59200704D02*
X19316048Y59200704D01*
X19316048Y59200704D02*
X19239858Y59238800D01*
X19239858Y59238800D02*
X19201762Y59314990D01*
X19201762Y59314990D02*
X19201762Y59619752D01*
X19201762Y59619752D02*
X19239858Y59695942D01*
X19239858Y59695942D02*
X19316048Y59734038D01*
X19316048Y59734038D02*
X19468429Y59734038D01*
X19468429Y59734038D02*
X19544620Y59695942D01*
X19544620Y59695942D02*
X19582715Y59619752D01*
X19582715Y59619752D02*
X19582715Y59543561D01*
X19582715Y59543561D02*
X19201762Y59467371D01*
X19887476Y59238800D02*
X19963667Y59200704D01*
X19963667Y59200704D02*
X20116048Y59200704D01*
X20116048Y59200704D02*
X20192238Y59238800D01*
X20192238Y59238800D02*
X20230334Y59314990D01*
X20230334Y59314990D02*
X20230334Y59353085D01*
X20230334Y59353085D02*
X20192238Y59429276D01*
X20192238Y59429276D02*
X20116048Y59467371D01*
X20116048Y59467371D02*
X20001762Y59467371D01*
X20001762Y59467371D02*
X19925572Y59505466D01*
X19925572Y59505466D02*
X19887476Y59581657D01*
X19887476Y59581657D02*
X19887476Y59619752D01*
X19887476Y59619752D02*
X19925572Y59695942D01*
X19925572Y59695942D02*
X20001762Y59734038D01*
X20001762Y59734038D02*
X20116048Y59734038D01*
X20116048Y59734038D02*
X20192238Y59695942D01*
X20535095Y59238800D02*
X20611286Y59200704D01*
X20611286Y59200704D02*
X20763667Y59200704D01*
X20763667Y59200704D02*
X20839857Y59238800D01*
X20839857Y59238800D02*
X20877953Y59314990D01*
X20877953Y59314990D02*
X20877953Y59353085D01*
X20877953Y59353085D02*
X20839857Y59429276D01*
X20839857Y59429276D02*
X20763667Y59467371D01*
X20763667Y59467371D02*
X20649381Y59467371D01*
X20649381Y59467371D02*
X20573191Y59505466D01*
X20573191Y59505466D02*
X20535095Y59581657D01*
X20535095Y59581657D02*
X20535095Y59619752D01*
X20535095Y59619752D02*
X20573191Y59695942D01*
X20573191Y59695942D02*
X20649381Y59734038D01*
X20649381Y59734038D02*
X20763667Y59734038D01*
X20763667Y59734038D02*
X20839857Y59695942D01*
D11*
X1673333Y39813366D02*
X1440000Y40146700D01*
X1273333Y39813366D02*
X1273333Y40513366D01*
X1273333Y40513366D02*
X1540000Y40513366D01*
X1540000Y40513366D02*
X1606667Y40480033D01*
X1606667Y40480033D02*
X1640000Y40446700D01*
X1640000Y40446700D02*
X1673333Y40380033D01*
X1673333Y40380033D02*
X1673333Y40280033D01*
X1673333Y40280033D02*
X1640000Y40213366D01*
X1640000Y40213366D02*
X1606667Y40180033D01*
X1606667Y40180033D02*
X1540000Y40146700D01*
X1540000Y40146700D02*
X1273333Y40146700D01*
X2240000Y39846700D02*
X2173333Y39813366D01*
X2173333Y39813366D02*
X2040000Y39813366D01*
X2040000Y39813366D02*
X1973333Y39846700D01*
X1973333Y39846700D02*
X1940000Y39913366D01*
X1940000Y39913366D02*
X1940000Y40180033D01*
X1940000Y40180033D02*
X1973333Y40246700D01*
X1973333Y40246700D02*
X2040000Y40280033D01*
X2040000Y40280033D02*
X2173333Y40280033D01*
X2173333Y40280033D02*
X2240000Y40246700D01*
X2240000Y40246700D02*
X2273333Y40180033D01*
X2273333Y40180033D02*
X2273333Y40113366D01*
X2273333Y40113366D02*
X1940000Y40046700D01*
X2540000Y39846700D02*
X2606667Y39813366D01*
X2606667Y39813366D02*
X2740000Y39813366D01*
X2740000Y39813366D02*
X2806667Y39846700D01*
X2806667Y39846700D02*
X2840000Y39913366D01*
X2840000Y39913366D02*
X2840000Y39946700D01*
X2840000Y39946700D02*
X2806667Y40013366D01*
X2806667Y40013366D02*
X2740000Y40046700D01*
X2740000Y40046700D02*
X2640000Y40046700D01*
X2640000Y40046700D02*
X2573333Y40080033D01*
X2573333Y40080033D02*
X2540000Y40146700D01*
X2540000Y40146700D02*
X2540000Y40180033D01*
X2540000Y40180033D02*
X2573333Y40246700D01*
X2573333Y40246700D02*
X2640000Y40280033D01*
X2640000Y40280033D02*
X2740000Y40280033D01*
X2740000Y40280033D02*
X2806667Y40246700D01*
X3406667Y39846700D02*
X3340000Y39813366D01*
X3340000Y39813366D02*
X3206667Y39813366D01*
X3206667Y39813366D02*
X3140000Y39846700D01*
X3140000Y39846700D02*
X3106667Y39913366D01*
X3106667Y39913366D02*
X3106667Y40180033D01*
X3106667Y40180033D02*
X3140000Y40246700D01*
X3140000Y40246700D02*
X3206667Y40280033D01*
X3206667Y40280033D02*
X3340000Y40280033D01*
X3340000Y40280033D02*
X3406667Y40246700D01*
X3406667Y40246700D02*
X3440000Y40180033D01*
X3440000Y40180033D02*
X3440000Y40113366D01*
X3440000Y40113366D02*
X3106667Y40046700D01*
X3640000Y40280033D02*
X3906667Y40280033D01*
X3740000Y40513366D02*
X3740000Y39913366D01*
X3740000Y39913366D02*
X3773334Y39846700D01*
X3773334Y39846700D02*
X3840000Y39813366D01*
X3840000Y39813366D02*
X3906667Y39813366D01*
X3762544Y47380928D02*
X3329441Y47937775D01*
X3329441Y47937775D02*
X3803792Y47705019D01*
X3803792Y47705019D02*
X3659424Y48267758D01*
X3659424Y48267758D02*
X4092527Y47710912D01*
X3989407Y48597741D02*
X4083688Y48692022D01*
X4083688Y48692022D02*
X4151453Y48712646D01*
X4151453Y48712646D02*
X4239841Y48706754D01*
X4239841Y48706754D02*
X4345907Y48624258D01*
X4345907Y48624258D02*
X4490275Y48438642D01*
X4490275Y48438642D02*
X4549200Y48309006D01*
X4549200Y48309006D02*
X4543308Y48208833D01*
X4543308Y48208833D02*
X4516791Y48135176D01*
X4516791Y48135176D02*
X4422510Y48040895D01*
X4422510Y48040895D02*
X4354746Y48020271D01*
X4354746Y48020271D02*
X4266358Y48026163D01*
X4266358Y48026163D02*
X4160292Y48108659D01*
X4160292Y48108659D02*
X4015924Y48294275D01*
X4015924Y48294275D02*
X3956998Y48423911D01*
X3956998Y48423911D02*
X3962891Y48524084D01*
X3962891Y48524084D02*
X3989407Y48597741D01*
X4802580Y48468105D02*
X4893915Y48512299D01*
X4893915Y48512299D02*
X5011766Y48630150D01*
X5011766Y48630150D02*
X5038282Y48703807D01*
X5038282Y48703807D02*
X5041229Y48753894D01*
X5041229Y48753894D02*
X5023551Y48830497D01*
X5023551Y48830497D02*
X4982303Y48883530D01*
X4982303Y48883530D02*
X4917485Y48912993D01*
X4917485Y48912993D02*
X4873291Y48915939D01*
X4873291Y48915939D02*
X4805526Y48895315D01*
X4805526Y48895315D02*
X4690621Y48827551D01*
X4690621Y48827551D02*
X4622857Y48806927D01*
X4622857Y48806927D02*
X4578663Y48809873D01*
X4578663Y48809873D02*
X4513845Y48839336D01*
X4513845Y48839336D02*
X4472597Y48892369D01*
X4472597Y48892369D02*
X4454919Y48968972D01*
X4454919Y48968972D02*
X4457865Y49019059D01*
X4457865Y49019059D02*
X4484382Y49092716D01*
X4484382Y49092716D02*
X4602233Y49210567D01*
X4602233Y49210567D02*
X4693568Y49254761D01*
X5318179Y48936563D02*
X4885076Y49493410D01*
X6762300Y12851000D02*
X6795633Y12951000D01*
X6795633Y12951000D02*
X6795633Y13117667D01*
X6795633Y13117667D02*
X6762300Y13184333D01*
X6762300Y13184333D02*
X6728966Y13217667D01*
X6728966Y13217667D02*
X6662300Y13251000D01*
X6662300Y13251000D02*
X6595633Y13251000D01*
X6595633Y13251000D02*
X6528966Y13217667D01*
X6528966Y13217667D02*
X6495633Y13184333D01*
X6495633Y13184333D02*
X6462300Y13117667D01*
X6462300Y13117667D02*
X6428966Y12984333D01*
X6428966Y12984333D02*
X6395633Y12917667D01*
X6395633Y12917667D02*
X6362300Y12884333D01*
X6362300Y12884333D02*
X6295633Y12851000D01*
X6295633Y12851000D02*
X6228966Y12851000D01*
X6228966Y12851000D02*
X6162300Y12884333D01*
X6162300Y12884333D02*
X6128966Y12917667D01*
X6128966Y12917667D02*
X6095633Y12984333D01*
X6095633Y12984333D02*
X6095633Y13151000D01*
X6095633Y13151000D02*
X6128966Y13251000D01*
X6795633Y13551000D02*
X6095633Y13551000D01*
X6428966Y13551000D02*
X6428966Y13951000D01*
X6795633Y13951000D02*
X6095633Y13951000D01*
X6095633Y14184333D02*
X6095633Y14584333D01*
X6795633Y14384333D02*
X6095633Y14384333D01*
X6328966Y15117666D02*
X6795633Y15117666D01*
X6062300Y14951000D02*
X6562300Y14784333D01*
X6562300Y14784333D02*
X6562300Y15217666D01*
X6095633Y15817667D02*
X6095633Y15484333D01*
X6095633Y15484333D02*
X6428966Y15451000D01*
X6428966Y15451000D02*
X6395633Y15484333D01*
X6395633Y15484333D02*
X6362300Y15551000D01*
X6362300Y15551000D02*
X6362300Y15717667D01*
X6362300Y15717667D02*
X6395633Y15784333D01*
X6395633Y15784333D02*
X6428966Y15817667D01*
X6428966Y15817667D02*
X6495633Y15851000D01*
X6495633Y15851000D02*
X6662300Y15851000D01*
X6662300Y15851000D02*
X6728966Y15817667D01*
X6728966Y15817667D02*
X6762300Y15784333D01*
X6762300Y15784333D02*
X6795633Y15717667D01*
X6795633Y15717667D02*
X6795633Y15551000D01*
X6795633Y15551000D02*
X6762300Y15484333D01*
X6762300Y15484333D02*
X6728966Y15451000D01*
D12*
X6793033Y43779001D02*
X6093033Y43779001D01*
X6759700Y44079001D02*
X6793033Y44179001D01*
X6793033Y44179001D02*
X6793033Y44345668D01*
X6793033Y44345668D02*
X6759700Y44412334D01*
X6759700Y44412334D02*
X6726366Y44445668D01*
X6726366Y44445668D02*
X6659700Y44479001D01*
X6659700Y44479001D02*
X6593033Y44479001D01*
X6593033Y44479001D02*
X6526366Y44445668D01*
X6526366Y44445668D02*
X6493033Y44412334D01*
X6493033Y44412334D02*
X6459700Y44345668D01*
X6459700Y44345668D02*
X6426366Y44212334D01*
X6426366Y44212334D02*
X6393033Y44145668D01*
X6393033Y44145668D02*
X6359700Y44112334D01*
X6359700Y44112334D02*
X6293033Y44079001D01*
X6293033Y44079001D02*
X6226366Y44079001D01*
X6226366Y44079001D02*
X6159700Y44112334D01*
X6159700Y44112334D02*
X6126366Y44145668D01*
X6126366Y44145668D02*
X6093033Y44212334D01*
X6093033Y44212334D02*
X6093033Y44379001D01*
X6093033Y44379001D02*
X6126366Y44479001D01*
X6793033Y44779001D02*
X6093033Y44779001D01*
X6093033Y44779001D02*
X6093033Y45045668D01*
X6093033Y45045668D02*
X6126366Y45112335D01*
X6126366Y45112335D02*
X6159700Y45145668D01*
X6159700Y45145668D02*
X6226366Y45179001D01*
X6226366Y45179001D02*
X6326366Y45179001D01*
X6326366Y45179001D02*
X6393033Y45145668D01*
X6393033Y45145668D02*
X6426366Y45112335D01*
X6426366Y45112335D02*
X6459700Y45045668D01*
X6459700Y45045668D02*
X6459700Y44779001D01*
X6326366Y46012334D02*
X7026366Y46012334D01*
X6359700Y46012334D02*
X6326366Y46079001D01*
X6326366Y46079001D02*
X6326366Y46212334D01*
X6326366Y46212334D02*
X6359700Y46279001D01*
X6359700Y46279001D02*
X6393033Y46312334D01*
X6393033Y46312334D02*
X6459700Y46345668D01*
X6459700Y46345668D02*
X6659700Y46345668D01*
X6659700Y46345668D02*
X6726366Y46312334D01*
X6726366Y46312334D02*
X6759700Y46279001D01*
X6759700Y46279001D02*
X6793033Y46212334D01*
X6793033Y46212334D02*
X6793033Y46079001D01*
X6793033Y46079001D02*
X6759700Y46012334D01*
X6793033Y46645667D02*
X6326366Y46645667D01*
X6459700Y46645667D02*
X6393033Y46679001D01*
X6393033Y46679001D02*
X6359700Y46712334D01*
X6359700Y46712334D02*
X6326366Y46779001D01*
X6326366Y46779001D02*
X6326366Y46845667D01*
X6793033Y47179000D02*
X6759700Y47112334D01*
X6759700Y47112334D02*
X6726366Y47079000D01*
X6726366Y47079000D02*
X6659700Y47045667D01*
X6659700Y47045667D02*
X6459700Y47045667D01*
X6459700Y47045667D02*
X6393033Y47079000D01*
X6393033Y47079000D02*
X6359700Y47112334D01*
X6359700Y47112334D02*
X6326366Y47179000D01*
X6326366Y47179000D02*
X6326366Y47279000D01*
X6326366Y47279000D02*
X6359700Y47345667D01*
X6359700Y47345667D02*
X6393033Y47379000D01*
X6393033Y47379000D02*
X6459700Y47412334D01*
X6459700Y47412334D02*
X6659700Y47412334D01*
X6659700Y47412334D02*
X6726366Y47379000D01*
X6726366Y47379000D02*
X6759700Y47345667D01*
X6759700Y47345667D02*
X6793033Y47279000D01*
X6793033Y47279000D02*
X6793033Y47179000D01*
X6326366Y48012333D02*
X6893033Y48012333D01*
X6893033Y48012333D02*
X6959700Y47979000D01*
X6959700Y47979000D02*
X6993033Y47945667D01*
X6993033Y47945667D02*
X7026366Y47879000D01*
X7026366Y47879000D02*
X7026366Y47779000D01*
X7026366Y47779000D02*
X6993033Y47712333D01*
X6759700Y48012333D02*
X6793033Y47945667D01*
X6793033Y47945667D02*
X6793033Y47812333D01*
X6793033Y47812333D02*
X6759700Y47745667D01*
X6759700Y47745667D02*
X6726366Y47712333D01*
X6726366Y47712333D02*
X6659700Y47679000D01*
X6659700Y47679000D02*
X6459700Y47679000D01*
X6459700Y47679000D02*
X6393033Y47712333D01*
X6393033Y47712333D02*
X6359700Y47745667D01*
X6359700Y47745667D02*
X6326366Y47812333D01*
X6326366Y47812333D02*
X6326366Y47945667D01*
X6326366Y47945667D02*
X6359700Y48012333D01*
X6793033Y48345666D02*
X6326366Y48345666D01*
X6459700Y48345666D02*
X6393033Y48379000D01*
X6393033Y48379000D02*
X6359700Y48412333D01*
X6359700Y48412333D02*
X6326366Y48479000D01*
X6326366Y48479000D02*
X6326366Y48545666D01*
X6793033Y49078999D02*
X6426366Y49078999D01*
X6426366Y49078999D02*
X6359700Y49045666D01*
X6359700Y49045666D02*
X6326366Y48978999D01*
X6326366Y48978999D02*
X6326366Y48845666D01*
X6326366Y48845666D02*
X6359700Y48778999D01*
X6759700Y49078999D02*
X6793033Y49012333D01*
X6793033Y49012333D02*
X6793033Y48845666D01*
X6793033Y48845666D02*
X6759700Y48778999D01*
X6759700Y48778999D02*
X6693033Y48745666D01*
X6693033Y48745666D02*
X6626366Y48745666D01*
X6626366Y48745666D02*
X6559700Y48778999D01*
X6559700Y48778999D02*
X6526366Y48845666D01*
X6526366Y48845666D02*
X6526366Y49012333D01*
X6526366Y49012333D02*
X6493033Y49078999D01*
X6793033Y49412332D02*
X6326366Y49412332D01*
X6393033Y49412332D02*
X6359700Y49445666D01*
X6359700Y49445666D02*
X6326366Y49512332D01*
X6326366Y49512332D02*
X6326366Y49612332D01*
X6326366Y49612332D02*
X6359700Y49678999D01*
X6359700Y49678999D02*
X6426366Y49712332D01*
X6426366Y49712332D02*
X6793033Y49712332D01*
X6426366Y49712332D02*
X6359700Y49745666D01*
X6359700Y49745666D02*
X6326366Y49812332D01*
X6326366Y49812332D02*
X6326366Y49912332D01*
X6326366Y49912332D02*
X6359700Y49978999D01*
X6359700Y49978999D02*
X6426366Y50012332D01*
X6426366Y50012332D02*
X6793033Y50012332D01*
X6793033Y50345665D02*
X6326366Y50345665D01*
X6393033Y50345665D02*
X6359700Y50378999D01*
X6359700Y50378999D02*
X6326366Y50445665D01*
X6326366Y50445665D02*
X6326366Y50545665D01*
X6326366Y50545665D02*
X6359700Y50612332D01*
X6359700Y50612332D02*
X6426366Y50645665D01*
X6426366Y50645665D02*
X6793033Y50645665D01*
X6426366Y50645665D02*
X6359700Y50678999D01*
X6359700Y50678999D02*
X6326366Y50745665D01*
X6326366Y50745665D02*
X6326366Y50845665D01*
X6326366Y50845665D02*
X6359700Y50912332D01*
X6359700Y50912332D02*
X6426366Y50945665D01*
X6426366Y50945665D02*
X6793033Y50945665D01*
X6759700Y51545665D02*
X6793033Y51478998D01*
X6793033Y51478998D02*
X6793033Y51345665D01*
X6793033Y51345665D02*
X6759700Y51278998D01*
X6759700Y51278998D02*
X6693033Y51245665D01*
X6693033Y51245665D02*
X6426366Y51245665D01*
X6426366Y51245665D02*
X6359700Y51278998D01*
X6359700Y51278998D02*
X6326366Y51345665D01*
X6326366Y51345665D02*
X6326366Y51478998D01*
X6326366Y51478998D02*
X6359700Y51545665D01*
X6359700Y51545665D02*
X6426366Y51578998D01*
X6426366Y51578998D02*
X6493033Y51578998D01*
X6493033Y51578998D02*
X6559700Y51245665D01*
X6793033Y51878998D02*
X6326366Y51878998D01*
X6459700Y51878998D02*
X6393033Y51912332D01*
X6393033Y51912332D02*
X6359700Y51945665D01*
X6359700Y51945665D02*
X6326366Y52012332D01*
X6326366Y52012332D02*
X6326366Y52078998D01*
D11*
X3623759Y7671952D02*
X3555995Y7651328D01*
X3555995Y7651328D02*
X3485284Y7580618D01*
X3485284Y7580618D02*
X3435197Y7483391D01*
X3435197Y7483391D02*
X3429305Y7383217D01*
X3429305Y7383217D02*
X3446982Y7306614D01*
X3446982Y7306614D02*
X3505908Y7176978D01*
X3505908Y7176978D02*
X3567780Y7097428D01*
X3567780Y7097428D02*
X3673846Y7014932D01*
X3673846Y7014932D02*
X3738664Y6985470D01*
X3738664Y6985470D02*
X3827052Y6979577D01*
X3827052Y6979577D02*
X3918387Y7023771D01*
X3918387Y7023771D02*
X3965527Y7070912D01*
X3965527Y7070912D02*
X4015614Y7168139D01*
X4015614Y7168139D02*
X4018560Y7218226D01*
X4018560Y7218226D02*
X3874193Y7403841D01*
X3874193Y7403841D02*
X3779912Y7309560D01*
X4271940Y7377325D02*
X3838837Y7934171D01*
X3838837Y7934171D02*
X4554783Y7660167D01*
X4554783Y7660167D02*
X4121680Y8217014D01*
X4790485Y7895869D02*
X4357382Y8452716D01*
X4357382Y8452716D02*
X4475233Y8570567D01*
X4475233Y8570567D02*
X4566568Y8614761D01*
X4566568Y8614761D02*
X4654956Y8608869D01*
X4654956Y8608869D02*
X4719774Y8579406D01*
X4719774Y8579406D02*
X4825840Y8496910D01*
X4825840Y8496910D02*
X4887712Y8417361D01*
X4887712Y8417361D02*
X4946638Y8287724D01*
X4946638Y8287724D02*
X4964315Y8211121D01*
X4964315Y8211121D02*
X4958423Y8110948D01*
X4958423Y8110948D02*
X4908336Y8013720D01*
X4908336Y8013720D02*
X4790485Y7895869D01*
X4045387Y55029771D02*
X3674156Y55129945D01*
X3762544Y54746928D02*
X3329441Y55303775D01*
X3329441Y55303775D02*
X3518003Y55492337D01*
X3518003Y55492337D02*
X3585767Y55512961D01*
X3585767Y55512961D02*
X3629962Y55510015D01*
X3629962Y55510015D02*
X3694780Y55480552D01*
X3694780Y55480552D02*
X3756651Y55401002D01*
X3756651Y55401002D02*
X3774329Y55324399D01*
X3774329Y55324399D02*
X3771383Y55274312D01*
X3771383Y55274312D02*
X3744866Y55200655D01*
X3744866Y55200655D02*
X3556305Y55012093D01*
X4213325Y55244849D02*
X4304659Y55289044D01*
X4304659Y55289044D02*
X4422510Y55406895D01*
X4422510Y55406895D02*
X4449027Y55480552D01*
X4449027Y55480552D02*
X4451973Y55530638D01*
X4451973Y55530638D02*
X4434295Y55607242D01*
X4434295Y55607242D02*
X4393048Y55660275D01*
X4393048Y55660275D02*
X4328229Y55689737D01*
X4328229Y55689737D02*
X4284035Y55692684D01*
X4284035Y55692684D02*
X4216271Y55672060D01*
X4216271Y55672060D02*
X4101366Y55604295D01*
X4101366Y55604295D02*
X4033602Y55583671D01*
X4033602Y55583671D02*
X3989407Y55586618D01*
X3989407Y55586618D02*
X3924589Y55616081D01*
X3924589Y55616081D02*
X3883341Y55669114D01*
X3883341Y55669114D02*
X3865664Y55745717D01*
X3865664Y55745717D02*
X3868610Y55795804D01*
X3868610Y55795804D02*
X3895127Y55869460D01*
X3895127Y55869460D02*
X4012978Y55987312D01*
X4012978Y55987312D02*
X4104312Y56031506D01*
X4502060Y56004989D02*
X4667052Y56169981D01*
X4964626Y55949010D02*
X4728924Y55713308D01*
X4728924Y55713308D02*
X4295821Y56270155D01*
X4295821Y56270155D02*
X4531523Y56505857D01*
X4672944Y56647278D02*
X4955787Y56930121D01*
X5247468Y56231853D02*
X4814365Y56788699D01*
D12*
X11932332Y41119300D02*
X11865665Y41085966D01*
X11865665Y41085966D02*
X11732332Y41085966D01*
X11732332Y41085966D02*
X11665665Y41119300D01*
X11665665Y41119300D02*
X11632332Y41185966D01*
X11632332Y41185966D02*
X11632332Y41452633D01*
X11632332Y41452633D02*
X11665665Y41519300D01*
X11665665Y41519300D02*
X11732332Y41552633D01*
X11732332Y41552633D02*
X11865665Y41552633D01*
X11865665Y41552633D02*
X11932332Y41519300D01*
X11932332Y41519300D02*
X11965665Y41452633D01*
X11965665Y41452633D02*
X11965665Y41385966D01*
X11965665Y41385966D02*
X11632332Y41319300D01*
X12498999Y41452633D02*
X12598999Y41419300D01*
X12598999Y41419300D02*
X12632332Y41385966D01*
X12632332Y41385966D02*
X12665665Y41319300D01*
X12665665Y41319300D02*
X12665665Y41219300D01*
X12665665Y41219300D02*
X12632332Y41152633D01*
X12632332Y41152633D02*
X12598999Y41119300D01*
X12598999Y41119300D02*
X12532332Y41085966D01*
X12532332Y41085966D02*
X12265665Y41085966D01*
X12265665Y41085966D02*
X12265665Y41785966D01*
X12265665Y41785966D02*
X12498999Y41785966D01*
X12498999Y41785966D02*
X12565665Y41752633D01*
X12565665Y41752633D02*
X12598999Y41719300D01*
X12598999Y41719300D02*
X12632332Y41652633D01*
X12632332Y41652633D02*
X12632332Y41585966D01*
X12632332Y41585966D02*
X12598999Y41519300D01*
X12598999Y41519300D02*
X12565665Y41485966D01*
X12565665Y41485966D02*
X12498999Y41452633D01*
X12498999Y41452633D02*
X12265665Y41452633D01*
X12898999Y41552633D02*
X13065665Y41085966D01*
X13232332Y41552633D02*
X13065665Y41085966D01*
X13065665Y41085966D02*
X12998999Y40919300D01*
X12998999Y40919300D02*
X12965665Y40885966D01*
X12965665Y40885966D02*
X12898999Y40852633D01*
X13398998Y41552633D02*
X13665665Y41552633D01*
X13498998Y41785966D02*
X13498998Y41185966D01*
X13498998Y41185966D02*
X13532332Y41119300D01*
X13532332Y41119300D02*
X13598998Y41085966D01*
X13598998Y41085966D02*
X13665665Y41085966D01*
X14165665Y41119300D02*
X14098998Y41085966D01*
X14098998Y41085966D02*
X13965665Y41085966D01*
X13965665Y41085966D02*
X13898998Y41119300D01*
X13898998Y41119300D02*
X13865665Y41185966D01*
X13865665Y41185966D02*
X13865665Y41452633D01*
X13865665Y41452633D02*
X13898998Y41519300D01*
X13898998Y41519300D02*
X13965665Y41552633D01*
X13965665Y41552633D02*
X14098998Y41552633D01*
X14098998Y41552633D02*
X14165665Y41519300D01*
X14165665Y41519300D02*
X14198998Y41452633D01*
X14198998Y41452633D02*
X14198998Y41385966D01*
X14198998Y41385966D02*
X13865665Y41319300D01*
X15032331Y41452633D02*
X15265665Y41452633D01*
X15365665Y41085966D02*
X15032331Y41085966D01*
X15032331Y41085966D02*
X15032331Y41785966D01*
X15032331Y41785966D02*
X15365665Y41785966D01*
X15798998Y41785966D02*
X15865664Y41785966D01*
X15865664Y41785966D02*
X15932331Y41752633D01*
X15932331Y41752633D02*
X15965664Y41719300D01*
X15965664Y41719300D02*
X15998998Y41652633D01*
X15998998Y41652633D02*
X16032331Y41519300D01*
X16032331Y41519300D02*
X16032331Y41352633D01*
X16032331Y41352633D02*
X15998998Y41219300D01*
X15998998Y41219300D02*
X15965664Y41152633D01*
X15965664Y41152633D02*
X15932331Y41119300D01*
X15932331Y41119300D02*
X15865664Y41085966D01*
X15865664Y41085966D02*
X15798998Y41085966D01*
X15798998Y41085966D02*
X15732331Y41119300D01*
X15732331Y41119300D02*
X15698998Y41152633D01*
X15698998Y41152633D02*
X15665664Y41219300D01*
X15665664Y41219300D02*
X15632331Y41352633D01*
X15632331Y41352633D02*
X15632331Y41519300D01*
X15632331Y41519300D02*
X15665664Y41652633D01*
X15665664Y41652633D02*
X15698998Y41719300D01*
X15698998Y41719300D02*
X15732331Y41752633D01*
X15732331Y41752633D02*
X15798998Y41785966D01*
X16265665Y41785966D02*
X16732331Y41785966D01*
X16732331Y41785966D02*
X16432331Y41085966D01*
X16998998Y41352633D02*
X17532332Y41352633D01*
X17898999Y41085966D02*
X18032332Y41085966D01*
X18032332Y41085966D02*
X18098999Y41119300D01*
X18098999Y41119300D02*
X18132332Y41152633D01*
X18132332Y41152633D02*
X18198999Y41252633D01*
X18198999Y41252633D02*
X18232332Y41385966D01*
X18232332Y41385966D02*
X18232332Y41652633D01*
X18232332Y41652633D02*
X18198999Y41719300D01*
X18198999Y41719300D02*
X18165665Y41752633D01*
X18165665Y41752633D02*
X18098999Y41785966D01*
X18098999Y41785966D02*
X17965665Y41785966D01*
X17965665Y41785966D02*
X17898999Y41752633D01*
X17898999Y41752633D02*
X17865665Y41719300D01*
X17865665Y41719300D02*
X17832332Y41652633D01*
X17832332Y41652633D02*
X17832332Y41485966D01*
X17832332Y41485966D02*
X17865665Y41419300D01*
X17865665Y41419300D02*
X17898999Y41385966D01*
X17898999Y41385966D02*
X17965665Y41352633D01*
X17965665Y41352633D02*
X18098999Y41352633D01*
X18098999Y41352633D02*
X18165665Y41385966D01*
X18165665Y41385966D02*
X18198999Y41419300D01*
X18198999Y41419300D02*
X18232332Y41485966D01*
X18665666Y41785966D02*
X18732332Y41785966D01*
X18732332Y41785966D02*
X18798999Y41752633D01*
X18798999Y41752633D02*
X18832332Y41719300D01*
X18832332Y41719300D02*
X18865666Y41652633D01*
X18865666Y41652633D02*
X18898999Y41519300D01*
X18898999Y41519300D02*
X18898999Y41352633D01*
X18898999Y41352633D02*
X18865666Y41219300D01*
X18865666Y41219300D02*
X18832332Y41152633D01*
X18832332Y41152633D02*
X18798999Y41119300D01*
X18798999Y41119300D02*
X18732332Y41085966D01*
X18732332Y41085966D02*
X18665666Y41085966D01*
X18665666Y41085966D02*
X18598999Y41119300D01*
X18598999Y41119300D02*
X18565666Y41152633D01*
X18565666Y41152633D02*
X18532332Y41219300D01*
X18532332Y41219300D02*
X18498999Y41352633D01*
X18498999Y41352633D02*
X18498999Y41519300D01*
X18498999Y41519300D02*
X18532332Y41652633D01*
X18532332Y41652633D02*
X18565666Y41719300D01*
X18565666Y41719300D02*
X18598999Y41752633D01*
X18598999Y41752633D02*
X18665666Y41785966D01*
X19332333Y41785966D02*
X19398999Y41785966D01*
X19398999Y41785966D02*
X19465666Y41752633D01*
X19465666Y41752633D02*
X19498999Y41719300D01*
X19498999Y41719300D02*
X19532333Y41652633D01*
X19532333Y41652633D02*
X19565666Y41519300D01*
X19565666Y41519300D02*
X19565666Y41352633D01*
X19565666Y41352633D02*
X19532333Y41219300D01*
X19532333Y41219300D02*
X19498999Y41152633D01*
X19498999Y41152633D02*
X19465666Y41119300D01*
X19465666Y41119300D02*
X19398999Y41085966D01*
X19398999Y41085966D02*
X19332333Y41085966D01*
X19332333Y41085966D02*
X19265666Y41119300D01*
X19265666Y41119300D02*
X19232333Y41152633D01*
X19232333Y41152633D02*
X19198999Y41219300D01*
X19198999Y41219300D02*
X19165666Y41352633D01*
X19165666Y41352633D02*
X19165666Y41519300D01*
X19165666Y41519300D02*
X19198999Y41652633D01*
X19198999Y41652633D02*
X19232333Y41719300D01*
X19232333Y41719300D02*
X19265666Y41752633D01*
X19265666Y41752633D02*
X19332333Y41785966D01*
X19865666Y41085966D02*
X19865666Y41785966D01*
X19865666Y41785966D02*
X20099000Y41285966D01*
X20099000Y41285966D02*
X20332333Y41785966D01*
X20332333Y41785966D02*
X20332333Y41085966D01*
X20665666Y41085966D02*
X20665666Y41785966D01*
X20665666Y41785966D02*
X20899000Y41285966D01*
X20899000Y41285966D02*
X21132333Y41785966D01*
X21132333Y41785966D02*
X21132333Y41085966D01*
X21832333Y41085966D02*
X21432333Y41085966D01*
X21632333Y41085966D02*
X21632333Y41785966D01*
X21632333Y41785966D02*
X21565666Y41685966D01*
X21565666Y41685966D02*
X21499000Y41619300D01*
X21499000Y41619300D02*
X21432333Y41585966D01*
X22265667Y41785966D02*
X22332333Y41785966D01*
X22332333Y41785966D02*
X22399000Y41752633D01*
X22399000Y41752633D02*
X22432333Y41719300D01*
X22432333Y41719300D02*
X22465667Y41652633D01*
X22465667Y41652633D02*
X22499000Y41519300D01*
X22499000Y41519300D02*
X22499000Y41352633D01*
X22499000Y41352633D02*
X22465667Y41219300D01*
X22465667Y41219300D02*
X22432333Y41152633D01*
X22432333Y41152633D02*
X22399000Y41119300D01*
X22399000Y41119300D02*
X22332333Y41085966D01*
X22332333Y41085966D02*
X22265667Y41085966D01*
X22265667Y41085966D02*
X22199000Y41119300D01*
X22199000Y41119300D02*
X22165667Y41152633D01*
X22165667Y41152633D02*
X22132333Y41219300D01*
X22132333Y41219300D02*
X22099000Y41352633D01*
X22099000Y41352633D02*
X22099000Y41519300D01*
X22099000Y41519300D02*
X22132333Y41652633D01*
X22132333Y41652633D02*
X22165667Y41719300D01*
X22165667Y41719300D02*
X22199000Y41752633D01*
X22199000Y41752633D02*
X22265667Y41785966D01*
X22765667Y41119300D02*
X22865667Y41085966D01*
X22865667Y41085966D02*
X23032334Y41085966D01*
X23032334Y41085966D02*
X23099000Y41119300D01*
X23099000Y41119300D02*
X23132334Y41152633D01*
X23132334Y41152633D02*
X23165667Y41219300D01*
X23165667Y41219300D02*
X23165667Y41285966D01*
X23165667Y41285966D02*
X23132334Y41352633D01*
X23132334Y41352633D02*
X23099000Y41385966D01*
X23099000Y41385966D02*
X23032334Y41419300D01*
X23032334Y41419300D02*
X22899000Y41452633D01*
X22899000Y41452633D02*
X22832334Y41485966D01*
X22832334Y41485966D02*
X22799000Y41519300D01*
X22799000Y41519300D02*
X22765667Y41585966D01*
X22765667Y41585966D02*
X22765667Y41652633D01*
X22765667Y41652633D02*
X22799000Y41719300D01*
X22799000Y41719300D02*
X22832334Y41752633D01*
X22832334Y41752633D02*
X22899000Y41785966D01*
X22899000Y41785966D02*
X23065667Y41785966D01*
X23065667Y41785966D02*
X23165667Y41752633D01*
X6251700Y26880001D02*
X6285033Y26946668D01*
X6285033Y26946668D02*
X6285033Y27080001D01*
X6285033Y27080001D02*
X6251700Y27146668D01*
X6251700Y27146668D02*
X6185033Y27180001D01*
X6185033Y27180001D02*
X6151700Y27180001D01*
X6151700Y27180001D02*
X6085033Y27146668D01*
X6085033Y27146668D02*
X6051700Y27080001D01*
X6051700Y27080001D02*
X6051700Y26980001D01*
X6051700Y26980001D02*
X6018366Y26913334D01*
X6018366Y26913334D02*
X5951700Y26880001D01*
X5951700Y26880001D02*
X5918366Y26880001D01*
X5918366Y26880001D02*
X5851700Y26913334D01*
X5851700Y26913334D02*
X5818366Y26980001D01*
X5818366Y26980001D02*
X5818366Y27080001D01*
X5818366Y27080001D02*
X5851700Y27146668D01*
X6251700Y27746668D02*
X6285033Y27680001D01*
X6285033Y27680001D02*
X6285033Y27546668D01*
X6285033Y27546668D02*
X6251700Y27480001D01*
X6251700Y27480001D02*
X6185033Y27446668D01*
X6185033Y27446668D02*
X5918366Y27446668D01*
X5918366Y27446668D02*
X5851700Y27480001D01*
X5851700Y27480001D02*
X5818366Y27546668D01*
X5818366Y27546668D02*
X5818366Y27680001D01*
X5818366Y27680001D02*
X5851700Y27746668D01*
X5851700Y27746668D02*
X5918366Y27780001D01*
X5918366Y27780001D02*
X5985033Y27780001D01*
X5985033Y27780001D02*
X6051700Y27446668D01*
X6285033Y28080001D02*
X5818366Y28080001D01*
X5951700Y28080001D02*
X5885033Y28113335D01*
X5885033Y28113335D02*
X5851700Y28146668D01*
X5851700Y28146668D02*
X5818366Y28213335D01*
X5818366Y28213335D02*
X5818366Y28280001D01*
X6285033Y28513334D02*
X5818366Y28513334D01*
X5585033Y28513334D02*
X5618366Y28480001D01*
X5618366Y28480001D02*
X5651700Y28513334D01*
X5651700Y28513334D02*
X5618366Y28546668D01*
X5618366Y28546668D02*
X5585033Y28513334D01*
X5585033Y28513334D02*
X5651700Y28513334D01*
X6285033Y29146667D02*
X5918366Y29146667D01*
X5918366Y29146667D02*
X5851700Y29113334D01*
X5851700Y29113334D02*
X5818366Y29046667D01*
X5818366Y29046667D02*
X5818366Y28913334D01*
X5818366Y28913334D02*
X5851700Y28846667D01*
X6251700Y29146667D02*
X6285033Y29080001D01*
X6285033Y29080001D02*
X6285033Y28913334D01*
X6285033Y28913334D02*
X6251700Y28846667D01*
X6251700Y28846667D02*
X6185033Y28813334D01*
X6185033Y28813334D02*
X6118366Y28813334D01*
X6118366Y28813334D02*
X6051700Y28846667D01*
X6051700Y28846667D02*
X6018366Y28913334D01*
X6018366Y28913334D02*
X6018366Y29080001D01*
X6018366Y29080001D02*
X5985033Y29146667D01*
X6285033Y29580000D02*
X6251700Y29513334D01*
X6251700Y29513334D02*
X6185033Y29480000D01*
X6185033Y29480000D02*
X5585033Y29480000D01*
X6285033Y30380000D02*
X5818366Y30380000D01*
X5885033Y30380000D02*
X5851700Y30413334D01*
X5851700Y30413334D02*
X5818366Y30480000D01*
X5818366Y30480000D02*
X5818366Y30580000D01*
X5818366Y30580000D02*
X5851700Y30646667D01*
X5851700Y30646667D02*
X5918366Y30680000D01*
X5918366Y30680000D02*
X6285033Y30680000D01*
X5918366Y30680000D02*
X5851700Y30713334D01*
X5851700Y30713334D02*
X5818366Y30780000D01*
X5818366Y30780000D02*
X5818366Y30880000D01*
X5818366Y30880000D02*
X5851700Y30946667D01*
X5851700Y30946667D02*
X5918366Y30980000D01*
X5918366Y30980000D02*
X6285033Y30980000D01*
X6285033Y31413333D02*
X6251700Y31346667D01*
X6251700Y31346667D02*
X6218366Y31313333D01*
X6218366Y31313333D02*
X6151700Y31280000D01*
X6151700Y31280000D02*
X5951700Y31280000D01*
X5951700Y31280000D02*
X5885033Y31313333D01*
X5885033Y31313333D02*
X5851700Y31346667D01*
X5851700Y31346667D02*
X5818366Y31413333D01*
X5818366Y31413333D02*
X5818366Y31513333D01*
X5818366Y31513333D02*
X5851700Y31580000D01*
X5851700Y31580000D02*
X5885033Y31613333D01*
X5885033Y31613333D02*
X5951700Y31646667D01*
X5951700Y31646667D02*
X6151700Y31646667D01*
X6151700Y31646667D02*
X6218366Y31613333D01*
X6218366Y31613333D02*
X6251700Y31580000D01*
X6251700Y31580000D02*
X6285033Y31513333D01*
X6285033Y31513333D02*
X6285033Y31413333D01*
X5818366Y31946666D02*
X6285033Y31946666D01*
X5885033Y31946666D02*
X5851700Y31980000D01*
X5851700Y31980000D02*
X5818366Y32046666D01*
X5818366Y32046666D02*
X5818366Y32146666D01*
X5818366Y32146666D02*
X5851700Y32213333D01*
X5851700Y32213333D02*
X5918366Y32246666D01*
X5918366Y32246666D02*
X6285033Y32246666D01*
X6285033Y32579999D02*
X5818366Y32579999D01*
X5585033Y32579999D02*
X5618366Y32546666D01*
X5618366Y32546666D02*
X5651700Y32579999D01*
X5651700Y32579999D02*
X5618366Y32613333D01*
X5618366Y32613333D02*
X5585033Y32579999D01*
X5585033Y32579999D02*
X5651700Y32579999D01*
X5818366Y32813332D02*
X5818366Y33079999D01*
X5585033Y32913332D02*
X6185033Y32913332D01*
X6185033Y32913332D02*
X6251700Y32946666D01*
X6251700Y32946666D02*
X6285033Y33013332D01*
X6285033Y33013332D02*
X6285033Y33079999D01*
X6285033Y33413332D02*
X6251700Y33346666D01*
X6251700Y33346666D02*
X6218366Y33313332D01*
X6218366Y33313332D02*
X6151700Y33279999D01*
X6151700Y33279999D02*
X5951700Y33279999D01*
X5951700Y33279999D02*
X5885033Y33313332D01*
X5885033Y33313332D02*
X5851700Y33346666D01*
X5851700Y33346666D02*
X5818366Y33413332D01*
X5818366Y33413332D02*
X5818366Y33513332D01*
X5818366Y33513332D02*
X5851700Y33579999D01*
X5851700Y33579999D02*
X5885033Y33613332D01*
X5885033Y33613332D02*
X5951700Y33646666D01*
X5951700Y33646666D02*
X6151700Y33646666D01*
X6151700Y33646666D02*
X6218366Y33613332D01*
X6218366Y33613332D02*
X6251700Y33579999D01*
X6251700Y33579999D02*
X6285033Y33513332D01*
X6285033Y33513332D02*
X6285033Y33413332D01*
X6285033Y33946665D02*
X5818366Y33946665D01*
X5951700Y33946665D02*
X5885033Y33979999D01*
X5885033Y33979999D02*
X5851700Y34013332D01*
X5851700Y34013332D02*
X5818366Y34079999D01*
X5818366Y34079999D02*
X5818366Y34146665D01*
D11*
X4482056Y27112721D02*
X4479109Y27062634D01*
X4479109Y27062634D02*
X4429023Y26965407D01*
X4429023Y26965407D02*
X4381882Y26918266D01*
X4381882Y26918266D02*
X4290547Y26874072D01*
X4290547Y26874072D02*
X4202159Y26879965D01*
X4202159Y26879965D02*
X4137341Y26909428D01*
X4137341Y26909428D02*
X4031275Y26991923D01*
X4031275Y26991923D02*
X3969403Y27071473D01*
X3969403Y27071473D02*
X3910478Y27201109D01*
X3910478Y27201109D02*
X3892800Y27277712D01*
X3892800Y27277712D02*
X3898692Y27377886D01*
X3898692Y27377886D02*
X3948779Y27475113D01*
X3948779Y27475113D02*
X3995920Y27522254D01*
X3995920Y27522254D02*
X4087254Y27566448D01*
X4087254Y27566448D02*
X4131448Y27563501D01*
X4231622Y27757956D02*
X4514465Y28040798D01*
X4806146Y27342531D02*
X4373043Y27899377D01*
X5068365Y27651890D02*
X5159699Y27696084D01*
X5159699Y27696084D02*
X5277550Y27813935D01*
X5277550Y27813935D02*
X5304067Y27887592D01*
X5304067Y27887592D02*
X5307013Y27937679D01*
X5307013Y27937679D02*
X5289336Y28014282D01*
X5289336Y28014282D02*
X5248088Y28067315D01*
X5248088Y28067315D02*
X5183270Y28096778D01*
X5183270Y28096778D02*
X5139075Y28099724D01*
X5139075Y28099724D02*
X5071311Y28079100D01*
X5071311Y28079100D02*
X4956406Y28011335D01*
X4956406Y28011335D02*
X4888642Y27990712D01*
X4888642Y27990712D02*
X4844448Y27993658D01*
X4844448Y27993658D02*
X4779629Y28023121D01*
X4779629Y28023121D02*
X4738381Y28076154D01*
X4738381Y28076154D02*
X4720704Y28152757D01*
X4720704Y28152757D02*
X4723650Y28202844D01*
X4723650Y28202844D02*
X4750167Y28276501D01*
X4750167Y28276501D02*
X4868018Y28394352D01*
X4868018Y28394352D02*
X4959352Y28438546D01*
X-125933142Y326689057D02*
X-125990285Y326717628D01*
X-125990285Y326717628D02*
X-126075999Y326717628D01*
X-126075999Y326717628D02*
X-126161713Y326689057D01*
X-126161713Y326689057D02*
X-126218856Y326631914D01*
X-126218856Y326631914D02*
X-126247427Y326574771D01*
X-126247427Y326574771D02*
X-126275999Y326460485D01*
X-126275999Y326460485D02*
X-126275999Y326374771D01*
X-126275999Y326374771D02*
X-126247427Y326260485D01*
X-126247427Y326260485D02*
X-126218856Y326203342D01*
X-126218856Y326203342D02*
X-126161713Y326146200D01*
X-126161713Y326146200D02*
X-126075999Y326117628D01*
X-126075999Y326117628D02*
X-126018856Y326117628D01*
X-126018856Y326117628D02*
X-125933142Y326146200D01*
X-125933142Y326146200D02*
X-125904570Y326174771D01*
X-125904570Y326174771D02*
X-125904570Y326374771D01*
X-125904570Y326374771D02*
X-126018856Y326374771D01*
X-125647427Y326117628D02*
X-125647427Y326717628D01*
X-125647427Y326717628D02*
X-125304570Y326117628D01*
X-125304570Y326117628D02*
X-125304570Y326717628D01*
X-125018856Y326117628D02*
X-125018856Y326717628D01*
X-125018856Y326717628D02*
X-124875999Y326717628D01*
X-124875999Y326717628D02*
X-124790285Y326689057D01*
X-124790285Y326689057D02*
X-124733142Y326631914D01*
X-124733142Y326631914D02*
X-124704571Y326574771D01*
X-124704571Y326574771D02*
X-124675999Y326460485D01*
X-124675999Y326460485D02*
X-124675999Y326374771D01*
X-124675999Y326374771D02*
X-124704571Y326260485D01*
X-124704571Y326260485D02*
X-124733142Y326203342D01*
X-124733142Y326203342D02*
X-124790285Y326146200D01*
X-124790285Y326146200D02*
X-124875999Y326117628D01*
X-124875999Y326117628D02*
X-125018856Y326117628D01*
X4496952Y23935240D02*
X4476328Y24003004D01*
X4476328Y24003004D02*
X4405618Y24073715D01*
X4405618Y24073715D02*
X4308391Y24123802D01*
X4308391Y24123802D02*
X4208217Y24129694D01*
X4208217Y24129694D02*
X4131614Y24112017D01*
X4131614Y24112017D02*
X4001978Y24053091D01*
X4001978Y24053091D02*
X3922428Y23991219D01*
X3922428Y23991219D02*
X3839932Y23885153D01*
X3839932Y23885153D02*
X3810470Y23820335D01*
X3810470Y23820335D02*
X3804577Y23731947D01*
X3804577Y23731947D02*
X3848771Y23640612D01*
X3848771Y23640612D02*
X3895912Y23593472D01*
X3895912Y23593472D02*
X3993139Y23543385D01*
X3993139Y23543385D02*
X4043226Y23540439D01*
X4043226Y23540439D02*
X4228841Y23684806D01*
X4228841Y23684806D02*
X4134560Y23779087D01*
X4202325Y23287059D02*
X4759171Y23720162D01*
X4759171Y23720162D02*
X4485167Y23004216D01*
X4485167Y23004216D02*
X5042014Y23437319D01*
X4720869Y22768514D02*
X5277716Y23201617D01*
X5277716Y23201617D02*
X5395567Y23083766D01*
X5395567Y23083766D02*
X5439761Y22992431D01*
X5439761Y22992431D02*
X5433869Y22904043D01*
X5433869Y22904043D02*
X5404406Y22839225D01*
X5404406Y22839225D02*
X5321910Y22733159D01*
X5321910Y22733159D02*
X5242361Y22671287D01*
X5242361Y22671287D02*
X5112724Y22612361D01*
X5112724Y22612361D02*
X5036121Y22594684D01*
X5036121Y22594684D02*
X4935948Y22600576D01*
X4935948Y22600576D02*
X4838720Y22650663D01*
X4838720Y22650663D02*
X4720869Y22768514D01*
X3167086Y4341420D02*
X3765180Y3949565D01*
X3765180Y3949565D02*
X3497069Y4671403D01*
X4033292Y4736221D02*
X4124626Y4780415D01*
X4124626Y4780415D02*
X4168820Y4777469D01*
X4168820Y4777469D02*
X4233639Y4748006D01*
X4233639Y4748006D02*
X4295510Y4668457D01*
X4295510Y4668457D02*
X4313188Y4591853D01*
X4313188Y4591853D02*
X4310242Y4541767D01*
X4310242Y4541767D02*
X4283725Y4468110D01*
X4283725Y4468110D02*
X4095163Y4279548D01*
X4095163Y4279548D02*
X3662061Y4836394D01*
X3662061Y4836394D02*
X3827052Y5001386D01*
X3827052Y5001386D02*
X3894817Y5022010D01*
X3894817Y5022010D02*
X3939011Y5019064D01*
X3939011Y5019064D02*
X4003829Y4989601D01*
X4003829Y4989601D02*
X4045077Y4936568D01*
X4045077Y4936568D02*
X4062754Y4859965D01*
X4062754Y4859965D02*
X4059808Y4809878D01*
X4059808Y4809878D02*
X4033292Y4736221D01*
X4033292Y4736221D02*
X3868300Y4571229D01*
X4442824Y4910051D02*
X4678527Y5145754D01*
X4519428Y4703812D02*
X4251316Y5425650D01*
X4251316Y5425650D02*
X4849411Y5033795D01*
X4510589Y5684923D02*
X4793431Y5967765D01*
X5085113Y5269497D02*
X4652010Y5826344D01*
D13*
X8217923Y32618381D02*
X8017923Y32618381D01*
X8017923Y32618381D02*
X8017923Y32666000D01*
X8017923Y32666000D02*
X8027447Y32694571D01*
X8027447Y32694571D02*
X8046495Y32713619D01*
X8046495Y32713619D02*
X8065542Y32723142D01*
X8065542Y32723142D02*
X8103638Y32732666D01*
X8103638Y32732666D02*
X8132209Y32732666D01*
X8132209Y32732666D02*
X8170304Y32723142D01*
X8170304Y32723142D02*
X8189352Y32713619D01*
X8189352Y32713619D02*
X8208400Y32694571D01*
X8208400Y32694571D02*
X8217923Y32666000D01*
X8217923Y32666000D02*
X8217923Y32618381D01*
X8217923Y32923142D02*
X8217923Y32808857D01*
X8217923Y32866000D02*
X8017923Y32866000D01*
X8017923Y32866000D02*
X8046495Y32846952D01*
X8046495Y32846952D02*
X8065542Y32827904D01*
X8065542Y32827904D02*
X8075066Y32808857D01*
X11269666Y37140123D02*
X11260142Y37130600D01*
X11260142Y37130600D02*
X11231571Y37121076D01*
X11231571Y37121076D02*
X11212523Y37121076D01*
X11212523Y37121076D02*
X11183952Y37130600D01*
X11183952Y37130600D02*
X11164904Y37149647D01*
X11164904Y37149647D02*
X11155381Y37168695D01*
X11155381Y37168695D02*
X11145857Y37206790D01*
X11145857Y37206790D02*
X11145857Y37235361D01*
X11145857Y37235361D02*
X11155381Y37273457D01*
X11155381Y37273457D02*
X11164904Y37292504D01*
X11164904Y37292504D02*
X11183952Y37311552D01*
X11183952Y37311552D02*
X11212523Y37321076D01*
X11212523Y37321076D02*
X11231571Y37321076D01*
X11231571Y37321076D02*
X11260142Y37311552D01*
X11260142Y37311552D02*
X11269666Y37302028D01*
X11460142Y37121076D02*
X11345857Y37121076D01*
X11403000Y37121076D02*
X11403000Y37321076D01*
X11403000Y37321076D02*
X11383952Y37292504D01*
X11383952Y37292504D02*
X11364904Y37273457D01*
X11364904Y37273457D02*
X11345857Y37263933D01*
X8217923Y30827666D02*
X8122685Y30761000D01*
X8217923Y30713381D02*
X8017923Y30713381D01*
X8017923Y30713381D02*
X8017923Y30789571D01*
X8017923Y30789571D02*
X8027447Y30808619D01*
X8027447Y30808619D02*
X8036971Y30818142D01*
X8036971Y30818142D02*
X8056019Y30827666D01*
X8056019Y30827666D02*
X8084590Y30827666D01*
X8084590Y30827666D02*
X8103638Y30818142D01*
X8103638Y30818142D02*
X8113161Y30808619D01*
X8113161Y30808619D02*
X8122685Y30789571D01*
X8122685Y30789571D02*
X8122685Y30713381D01*
X8084590Y30999095D02*
X8217923Y30999095D01*
X8008400Y30951476D02*
X8151257Y30903857D01*
X8151257Y30903857D02*
X8151257Y31027666D01*
X12793666Y38772076D02*
X12727000Y38867314D01*
X12679381Y38772076D02*
X12679381Y38972076D01*
X12679381Y38972076D02*
X12755571Y38972076D01*
X12755571Y38972076D02*
X12774619Y38962552D01*
X12774619Y38962552D02*
X12784142Y38953028D01*
X12784142Y38953028D02*
X12793666Y38933980D01*
X12793666Y38933980D02*
X12793666Y38905409D01*
X12793666Y38905409D02*
X12784142Y38886361D01*
X12784142Y38886361D02*
X12774619Y38876838D01*
X12774619Y38876838D02*
X12755571Y38867314D01*
X12755571Y38867314D02*
X12679381Y38867314D01*
X12984142Y38772076D02*
X12869857Y38772076D01*
X12927000Y38772076D02*
X12927000Y38972076D01*
X12927000Y38972076D02*
X12907952Y38943504D01*
X12907952Y38943504D02*
X12888904Y38924457D01*
X12888904Y38924457D02*
X12869857Y38914933D01*
X16700572Y40550076D02*
X16700572Y40750076D01*
X16700572Y40750076D02*
X16767238Y40607219D01*
X16767238Y40607219D02*
X16833905Y40750076D01*
X16833905Y40750076D02*
X16833905Y40550076D01*
X16957714Y40550076D02*
X16938666Y40559600D01*
X16938666Y40559600D02*
X16929143Y40569123D01*
X16929143Y40569123D02*
X16919619Y40588171D01*
X16919619Y40588171D02*
X16919619Y40645314D01*
X16919619Y40645314D02*
X16929143Y40664361D01*
X16929143Y40664361D02*
X16938666Y40673885D01*
X16938666Y40673885D02*
X16957714Y40683409D01*
X16957714Y40683409D02*
X16986285Y40683409D01*
X16986285Y40683409D02*
X17005333Y40673885D01*
X17005333Y40673885D02*
X17014857Y40664361D01*
X17014857Y40664361D02*
X17024381Y40645314D01*
X17024381Y40645314D02*
X17024381Y40588171D01*
X17024381Y40588171D02*
X17014857Y40569123D01*
X17014857Y40569123D02*
X17005333Y40559600D01*
X17005333Y40559600D02*
X16986285Y40550076D01*
X16986285Y40550076D02*
X16957714Y40550076D01*
X17195809Y40550076D02*
X17195809Y40750076D01*
X17195809Y40559600D02*
X17176761Y40550076D01*
X17176761Y40550076D02*
X17138666Y40550076D01*
X17138666Y40550076D02*
X17119618Y40559600D01*
X17119618Y40559600D02*
X17110095Y40569123D01*
X17110095Y40569123D02*
X17100571Y40588171D01*
X17100571Y40588171D02*
X17100571Y40645314D01*
X17100571Y40645314D02*
X17110095Y40664361D01*
X17110095Y40664361D02*
X17119618Y40673885D01*
X17119618Y40673885D02*
X17138666Y40683409D01*
X17138666Y40683409D02*
X17176761Y40683409D01*
X17176761Y40683409D02*
X17195809Y40673885D01*
X17376761Y40683409D02*
X17376761Y40550076D01*
X17291047Y40683409D02*
X17291047Y40578647D01*
X17291047Y40578647D02*
X17300570Y40559600D01*
X17300570Y40559600D02*
X17319618Y40550076D01*
X17319618Y40550076D02*
X17348189Y40550076D01*
X17348189Y40550076D02*
X17367237Y40559600D01*
X17367237Y40559600D02*
X17376761Y40569123D01*
X17500570Y40550076D02*
X17481522Y40559600D01*
X17481522Y40559600D02*
X17471999Y40578647D01*
X17471999Y40578647D02*
X17471999Y40750076D01*
X17652951Y40559600D02*
X17633903Y40550076D01*
X17633903Y40550076D02*
X17595808Y40550076D01*
X17595808Y40550076D02*
X17576761Y40559600D01*
X17576761Y40559600D02*
X17567237Y40578647D01*
X17567237Y40578647D02*
X17567237Y40654838D01*
X17567237Y40654838D02*
X17576761Y40673885D01*
X17576761Y40673885D02*
X17595808Y40683409D01*
X17595808Y40683409D02*
X17633903Y40683409D01*
X17633903Y40683409D02*
X17652951Y40673885D01*
X17652951Y40673885D02*
X17662475Y40654838D01*
X17662475Y40654838D02*
X17662475Y40635790D01*
X17662475Y40635790D02*
X17567237Y40616742D01*
X17852951Y40550076D02*
X17738666Y40550076D01*
X17795809Y40550076D02*
X17795809Y40750076D01*
X17795809Y40750076D02*
X17776761Y40721504D01*
X17776761Y40721504D02*
X17757713Y40702457D01*
X17757713Y40702457D02*
X17738666Y40692933D01*
X11510400Y45047096D02*
X11519923Y45028048D01*
X11519923Y45028048D02*
X11519923Y44989953D01*
X11519923Y44989953D02*
X11510400Y44970906D01*
X11510400Y44970906D02*
X11491352Y44961382D01*
X11491352Y44961382D02*
X11415161Y44961382D01*
X11415161Y44961382D02*
X11396114Y44970906D01*
X11396114Y44970906D02*
X11386590Y44989953D01*
X11386590Y44989953D02*
X11386590Y45028048D01*
X11386590Y45028048D02*
X11396114Y45047096D01*
X11396114Y45047096D02*
X11415161Y45056620D01*
X11415161Y45056620D02*
X11434209Y45056620D01*
X11434209Y45056620D02*
X11453257Y44961382D01*
X11415161Y45209001D02*
X11424685Y45237573D01*
X11424685Y45237573D02*
X11434209Y45247096D01*
X11434209Y45247096D02*
X11453257Y45256620D01*
X11453257Y45256620D02*
X11481828Y45256620D01*
X11481828Y45256620D02*
X11500876Y45247096D01*
X11500876Y45247096D02*
X11510400Y45237573D01*
X11510400Y45237573D02*
X11519923Y45218525D01*
X11519923Y45218525D02*
X11519923Y45142335D01*
X11519923Y45142335D02*
X11319923Y45142335D01*
X11319923Y45142335D02*
X11319923Y45209001D01*
X11319923Y45209001D02*
X11329447Y45228049D01*
X11329447Y45228049D02*
X11338971Y45237573D01*
X11338971Y45237573D02*
X11358019Y45247096D01*
X11358019Y45247096D02*
X11377066Y45247096D01*
X11377066Y45247096D02*
X11396114Y45237573D01*
X11396114Y45237573D02*
X11405638Y45228049D01*
X11405638Y45228049D02*
X11415161Y45209001D01*
X11415161Y45209001D02*
X11415161Y45142335D01*
X11386590Y45323287D02*
X11519923Y45370906D01*
X11386590Y45418525D02*
X11519923Y45370906D01*
X11519923Y45370906D02*
X11567542Y45351858D01*
X11567542Y45351858D02*
X11577066Y45342335D01*
X11577066Y45342335D02*
X11586590Y45323287D01*
X11386590Y45466144D02*
X11386590Y45542335D01*
X11319923Y45494716D02*
X11491352Y45494716D01*
X11491352Y45494716D02*
X11510400Y45504239D01*
X11510400Y45504239D02*
X11519923Y45523287D01*
X11519923Y45523287D02*
X11519923Y45542335D01*
X11510400Y45685192D02*
X11519923Y45666144D01*
X11519923Y45666144D02*
X11519923Y45628049D01*
X11519923Y45628049D02*
X11510400Y45609002D01*
X11510400Y45609002D02*
X11491352Y45599478D01*
X11491352Y45599478D02*
X11415161Y45599478D01*
X11415161Y45599478D02*
X11396114Y45609002D01*
X11396114Y45609002D02*
X11386590Y45628049D01*
X11386590Y45628049D02*
X11386590Y45666144D01*
X11386590Y45666144D02*
X11396114Y45685192D01*
X11396114Y45685192D02*
X11415161Y45694716D01*
X11415161Y45694716D02*
X11434209Y45694716D01*
X11434209Y45694716D02*
X11453257Y45599478D01*
X11415161Y45932812D02*
X11415161Y45999478D01*
X11519923Y46028050D02*
X11519923Y45932812D01*
X11519923Y45932812D02*
X11319923Y45932812D01*
X11319923Y45932812D02*
X11319923Y46028050D01*
X11319923Y46151859D02*
X11319923Y46170906D01*
X11319923Y46170906D02*
X11329447Y46189954D01*
X11329447Y46189954D02*
X11338971Y46199478D01*
X11338971Y46199478D02*
X11358019Y46209002D01*
X11358019Y46209002D02*
X11396114Y46218525D01*
X11396114Y46218525D02*
X11443733Y46218525D01*
X11443733Y46218525D02*
X11481828Y46209002D01*
X11481828Y46209002D02*
X11500876Y46199478D01*
X11500876Y46199478D02*
X11510400Y46189954D01*
X11510400Y46189954D02*
X11519923Y46170906D01*
X11519923Y46170906D02*
X11519923Y46151859D01*
X11519923Y46151859D02*
X11510400Y46132811D01*
X11510400Y46132811D02*
X11500876Y46123287D01*
X11500876Y46123287D02*
X11481828Y46113764D01*
X11481828Y46113764D02*
X11443733Y46104240D01*
X11443733Y46104240D02*
X11396114Y46104240D01*
X11396114Y46104240D02*
X11358019Y46113764D01*
X11358019Y46113764D02*
X11338971Y46123287D01*
X11338971Y46123287D02*
X11329447Y46132811D01*
X11329447Y46132811D02*
X11319923Y46151859D01*
X11319923Y46285192D02*
X11319923Y46418525D01*
X11319923Y46418525D02*
X11519923Y46332811D01*
X11443733Y46494716D02*
X11443733Y46647097D01*
X11519923Y46751858D02*
X11519923Y46789954D01*
X11519923Y46789954D02*
X11510400Y46809001D01*
X11510400Y46809001D02*
X11500876Y46818525D01*
X11500876Y46818525D02*
X11472304Y46837573D01*
X11472304Y46837573D02*
X11434209Y46847096D01*
X11434209Y46847096D02*
X11358019Y46847096D01*
X11358019Y46847096D02*
X11338971Y46837573D01*
X11338971Y46837573D02*
X11329447Y46828049D01*
X11329447Y46828049D02*
X11319923Y46809001D01*
X11319923Y46809001D02*
X11319923Y46770906D01*
X11319923Y46770906D02*
X11329447Y46751858D01*
X11329447Y46751858D02*
X11338971Y46742335D01*
X11338971Y46742335D02*
X11358019Y46732811D01*
X11358019Y46732811D02*
X11405638Y46732811D01*
X11405638Y46732811D02*
X11424685Y46742335D01*
X11424685Y46742335D02*
X11434209Y46751858D01*
X11434209Y46751858D02*
X11443733Y46770906D01*
X11443733Y46770906D02*
X11443733Y46809001D01*
X11443733Y46809001D02*
X11434209Y46828049D01*
X11434209Y46828049D02*
X11424685Y46837573D01*
X11424685Y46837573D02*
X11405638Y46847096D01*
X11319923Y46970906D02*
X11319923Y46989953D01*
X11319923Y46989953D02*
X11329447Y47009001D01*
X11329447Y47009001D02*
X11338971Y47018525D01*
X11338971Y47018525D02*
X11358019Y47028049D01*
X11358019Y47028049D02*
X11396114Y47037572D01*
X11396114Y47037572D02*
X11443733Y47037572D01*
X11443733Y47037572D02*
X11481828Y47028049D01*
X11481828Y47028049D02*
X11500876Y47018525D01*
X11500876Y47018525D02*
X11510400Y47009001D01*
X11510400Y47009001D02*
X11519923Y46989953D01*
X11519923Y46989953D02*
X11519923Y46970906D01*
X11519923Y46970906D02*
X11510400Y46951858D01*
X11510400Y46951858D02*
X11500876Y46942334D01*
X11500876Y46942334D02*
X11481828Y46932811D01*
X11481828Y46932811D02*
X11443733Y46923287D01*
X11443733Y46923287D02*
X11396114Y46923287D01*
X11396114Y46923287D02*
X11358019Y46932811D01*
X11358019Y46932811D02*
X11338971Y46942334D01*
X11338971Y46942334D02*
X11329447Y46951858D01*
X11329447Y46951858D02*
X11319923Y46970906D01*
X11319923Y47161382D02*
X11319923Y47180429D01*
X11319923Y47180429D02*
X11329447Y47199477D01*
X11329447Y47199477D02*
X11338971Y47209001D01*
X11338971Y47209001D02*
X11358019Y47218525D01*
X11358019Y47218525D02*
X11396114Y47228048D01*
X11396114Y47228048D02*
X11443733Y47228048D01*
X11443733Y47228048D02*
X11481828Y47218525D01*
X11481828Y47218525D02*
X11500876Y47209001D01*
X11500876Y47209001D02*
X11510400Y47199477D01*
X11510400Y47199477D02*
X11519923Y47180429D01*
X11519923Y47180429D02*
X11519923Y47161382D01*
X11519923Y47161382D02*
X11510400Y47142334D01*
X11510400Y47142334D02*
X11500876Y47132810D01*
X11500876Y47132810D02*
X11481828Y47123287D01*
X11481828Y47123287D02*
X11443733Y47113763D01*
X11443733Y47113763D02*
X11396114Y47113763D01*
X11396114Y47113763D02*
X11358019Y47123287D01*
X11358019Y47123287D02*
X11338971Y47132810D01*
X11338971Y47132810D02*
X11329447Y47142334D01*
X11329447Y47142334D02*
X11319923Y47161382D01*
X11519923Y47313763D02*
X11319923Y47313763D01*
X11319923Y47313763D02*
X11462780Y47380429D01*
X11462780Y47380429D02*
X11319923Y47447096D01*
X11319923Y47447096D02*
X11519923Y47447096D01*
X11519923Y47542334D02*
X11319923Y47542334D01*
X11319923Y47542334D02*
X11462780Y47609000D01*
X11462780Y47609000D02*
X11319923Y47675667D01*
X11319923Y47675667D02*
X11519923Y47675667D01*
X11519923Y47875666D02*
X11519923Y47761381D01*
X11519923Y47818524D02*
X11319923Y47818524D01*
X11319923Y47818524D02*
X11348495Y47799476D01*
X11348495Y47799476D02*
X11367542Y47780428D01*
X11367542Y47780428D02*
X11377066Y47761381D01*
X11319923Y47999476D02*
X11319923Y48018523D01*
X11319923Y48018523D02*
X11329447Y48037571D01*
X11329447Y48037571D02*
X11338971Y48047095D01*
X11338971Y48047095D02*
X11358019Y48056619D01*
X11358019Y48056619D02*
X11396114Y48066142D01*
X11396114Y48066142D02*
X11443733Y48066142D01*
X11443733Y48066142D02*
X11481828Y48056619D01*
X11481828Y48056619D02*
X11500876Y48047095D01*
X11500876Y48047095D02*
X11510400Y48037571D01*
X11510400Y48037571D02*
X11519923Y48018523D01*
X11519923Y48018523D02*
X11519923Y47999476D01*
X11519923Y47999476D02*
X11510400Y47980428D01*
X11510400Y47980428D02*
X11500876Y47970904D01*
X11500876Y47970904D02*
X11481828Y47961381D01*
X11481828Y47961381D02*
X11443733Y47951857D01*
X11443733Y47951857D02*
X11396114Y47951857D01*
X11396114Y47951857D02*
X11358019Y47961381D01*
X11358019Y47961381D02*
X11338971Y47970904D01*
X11338971Y47970904D02*
X11329447Y47980428D01*
X11329447Y47980428D02*
X11319923Y47999476D01*
X11510400Y48142333D02*
X11519923Y48170904D01*
X11519923Y48170904D02*
X11519923Y48218523D01*
X11519923Y48218523D02*
X11510400Y48237571D01*
X11510400Y48237571D02*
X11500876Y48247095D01*
X11500876Y48247095D02*
X11481828Y48256618D01*
X11481828Y48256618D02*
X11462780Y48256618D01*
X11462780Y48256618D02*
X11443733Y48247095D01*
X11443733Y48247095D02*
X11434209Y48237571D01*
X11434209Y48237571D02*
X11424685Y48218523D01*
X11424685Y48218523D02*
X11415161Y48180428D01*
X11415161Y48180428D02*
X11405638Y48161380D01*
X11405638Y48161380D02*
X11396114Y48151857D01*
X11396114Y48151857D02*
X11377066Y48142333D01*
X11377066Y48142333D02*
X11358019Y48142333D01*
X11358019Y48142333D02*
X11338971Y48151857D01*
X11338971Y48151857D02*
X11329447Y48161380D01*
X11329447Y48161380D02*
X11319923Y48180428D01*
X11319923Y48180428D02*
X11319923Y48228047D01*
X11319923Y48228047D02*
X11329447Y48256618D01*
X20716076Y45447095D02*
X20716076Y45561380D01*
X20716076Y45504237D02*
X20916076Y45504237D01*
X20916076Y45504237D02*
X20887504Y45523285D01*
X20887504Y45523285D02*
X20868457Y45542333D01*
X20868457Y45542333D02*
X20858933Y45561380D01*
X20916076Y45275666D02*
X20916076Y45313761D01*
X20916076Y45313761D02*
X20906552Y45332809D01*
X20906552Y45332809D02*
X20897028Y45342333D01*
X20897028Y45342333D02*
X20868457Y45361380D01*
X20868457Y45361380D02*
X20830361Y45370904D01*
X20830361Y45370904D02*
X20754171Y45370904D01*
X20754171Y45370904D02*
X20735123Y45361380D01*
X20735123Y45361380D02*
X20725600Y45351857D01*
X20725600Y45351857D02*
X20716076Y45332809D01*
X20716076Y45332809D02*
X20716076Y45294714D01*
X20716076Y45294714D02*
X20725600Y45275666D01*
X20725600Y45275666D02*
X20735123Y45266142D01*
X20735123Y45266142D02*
X20754171Y45256619D01*
X20754171Y45256619D02*
X20801790Y45256619D01*
X20801790Y45256619D02*
X20820838Y45266142D01*
X20820838Y45266142D02*
X20830361Y45275666D01*
X20830361Y45275666D02*
X20839885Y45294714D01*
X20839885Y45294714D02*
X20839885Y45332809D01*
X20839885Y45332809D02*
X20830361Y45351857D01*
X20830361Y45351857D02*
X20820838Y45361380D01*
X20820838Y45361380D02*
X20801790Y45370904D01*
X20016076Y51351857D02*
X20016076Y51466142D01*
X20016076Y51408999D02*
X20216076Y51408999D01*
X20216076Y51408999D02*
X20187504Y51428047D01*
X20187504Y51428047D02*
X20168457Y51447095D01*
X20168457Y51447095D02*
X20158933Y51466142D01*
X15016076Y44897095D02*
X15016076Y45011380D01*
X15016076Y44954237D02*
X15216076Y44954237D01*
X15216076Y44954237D02*
X15187504Y44973285D01*
X15187504Y44973285D02*
X15168457Y44992333D01*
X15168457Y44992333D02*
X15158933Y45011380D01*
X15016076Y44706619D02*
X15016076Y44820904D01*
X15016076Y44763761D02*
X15216076Y44763761D01*
X15216076Y44763761D02*
X15187504Y44782809D01*
X15187504Y44782809D02*
X15168457Y44801857D01*
X15168457Y44801857D02*
X15158933Y44820904D01*
X14416076Y50420904D02*
X14416076Y50458999D01*
X14416076Y50458999D02*
X14406552Y50478047D01*
X14406552Y50478047D02*
X14397028Y50487571D01*
X14397028Y50487571D02*
X14368457Y50506618D01*
X14368457Y50506618D02*
X14330361Y50516142D01*
X14330361Y50516142D02*
X14254171Y50516142D01*
X14254171Y50516142D02*
X14235123Y50506618D01*
X14235123Y50506618D02*
X14225600Y50497095D01*
X14225600Y50497095D02*
X14216076Y50478047D01*
X14216076Y50478047D02*
X14216076Y50439952D01*
X14216076Y50439952D02*
X14225600Y50420904D01*
X14225600Y50420904D02*
X14235123Y50411380D01*
X14235123Y50411380D02*
X14254171Y50401857D01*
X14254171Y50401857D02*
X14301790Y50401857D01*
X14301790Y50401857D02*
X14320838Y50411380D01*
X14320838Y50411380D02*
X14330361Y50420904D01*
X14330361Y50420904D02*
X14339885Y50439952D01*
X14339885Y50439952D02*
X14339885Y50478047D01*
X14339885Y50478047D02*
X14330361Y50497095D01*
X14330361Y50497095D02*
X14320838Y50506618D01*
X14320838Y50506618D02*
X14301790Y50516142D01*
X17238666Y18979123D02*
X17229142Y18969600D01*
X17229142Y18969600D02*
X17200571Y18960076D01*
X17200571Y18960076D02*
X17181523Y18960076D01*
X17181523Y18960076D02*
X17152952Y18969600D01*
X17152952Y18969600D02*
X17133904Y18988647D01*
X17133904Y18988647D02*
X17124381Y19007695D01*
X17124381Y19007695D02*
X17114857Y19045790D01*
X17114857Y19045790D02*
X17114857Y19074361D01*
X17114857Y19074361D02*
X17124381Y19112457D01*
X17124381Y19112457D02*
X17133904Y19131504D01*
X17133904Y19131504D02*
X17152952Y19150552D01*
X17152952Y19150552D02*
X17181523Y19160076D01*
X17181523Y19160076D02*
X17200571Y19160076D01*
X17200571Y19160076D02*
X17229142Y19150552D01*
X17229142Y19150552D02*
X17238666Y19141028D01*
X17314857Y19141028D02*
X17324381Y19150552D01*
X17324381Y19150552D02*
X17343428Y19160076D01*
X17343428Y19160076D02*
X17391047Y19160076D01*
X17391047Y19160076D02*
X17410095Y19150552D01*
X17410095Y19150552D02*
X17419619Y19141028D01*
X17419619Y19141028D02*
X17429142Y19121980D01*
X17429142Y19121980D02*
X17429142Y19102933D01*
X17429142Y19102933D02*
X17419619Y19074361D01*
X17419619Y19074361D02*
X17305333Y18960076D01*
X17305333Y18960076D02*
X17429142Y18960076D01*
X22676876Y26255666D02*
X22686400Y26246142D01*
X22686400Y26246142D02*
X22695923Y26217571D01*
X22695923Y26217571D02*
X22695923Y26198523D01*
X22695923Y26198523D02*
X22686400Y26169952D01*
X22686400Y26169952D02*
X22667352Y26150904D01*
X22667352Y26150904D02*
X22648304Y26141381D01*
X22648304Y26141381D02*
X22610209Y26131857D01*
X22610209Y26131857D02*
X22581638Y26131857D01*
X22581638Y26131857D02*
X22543542Y26141381D01*
X22543542Y26141381D02*
X22524495Y26150904D01*
X22524495Y26150904D02*
X22505447Y26169952D01*
X22505447Y26169952D02*
X22495923Y26198523D01*
X22495923Y26198523D02*
X22495923Y26217571D01*
X22495923Y26217571D02*
X22505447Y26246142D01*
X22505447Y26246142D02*
X22514971Y26255666D01*
X22562590Y26427095D02*
X22695923Y26427095D01*
X22486400Y26379476D02*
X22629257Y26331857D01*
X22629257Y26331857D02*
X22629257Y26455666D01*
X15460666Y33965123D02*
X15451142Y33955600D01*
X15451142Y33955600D02*
X15422571Y33946076D01*
X15422571Y33946076D02*
X15403523Y33946076D01*
X15403523Y33946076D02*
X15374952Y33955600D01*
X15374952Y33955600D02*
X15355904Y33974647D01*
X15355904Y33974647D02*
X15346381Y33993695D01*
X15346381Y33993695D02*
X15336857Y34031790D01*
X15336857Y34031790D02*
X15336857Y34060361D01*
X15336857Y34060361D02*
X15346381Y34098457D01*
X15346381Y34098457D02*
X15355904Y34117504D01*
X15355904Y34117504D02*
X15374952Y34136552D01*
X15374952Y34136552D02*
X15403523Y34146076D01*
X15403523Y34146076D02*
X15422571Y34146076D01*
X15422571Y34146076D02*
X15451142Y34136552D01*
X15451142Y34136552D02*
X15460666Y34127028D01*
X15632095Y34146076D02*
X15594000Y34146076D01*
X15594000Y34146076D02*
X15574952Y34136552D01*
X15574952Y34136552D02*
X15565428Y34127028D01*
X15565428Y34127028D02*
X15546381Y34098457D01*
X15546381Y34098457D02*
X15536857Y34060361D01*
X15536857Y34060361D02*
X15536857Y33984171D01*
X15536857Y33984171D02*
X15546381Y33965123D01*
X15546381Y33965123D02*
X15555904Y33955600D01*
X15555904Y33955600D02*
X15574952Y33946076D01*
X15574952Y33946076D02*
X15613047Y33946076D01*
X15613047Y33946076D02*
X15632095Y33955600D01*
X15632095Y33955600D02*
X15641619Y33965123D01*
X15641619Y33965123D02*
X15651142Y33984171D01*
X15651142Y33984171D02*
X15651142Y34031790D01*
X15651142Y34031790D02*
X15641619Y34050838D01*
X15641619Y34050838D02*
X15632095Y34060361D01*
X15632095Y34060361D02*
X15613047Y34069885D01*
X15613047Y34069885D02*
X15574952Y34069885D01*
X15574952Y34069885D02*
X15555904Y34060361D01*
X15555904Y34060361D02*
X15546381Y34050838D01*
X15546381Y34050838D02*
X15536857Y34031790D01*
X13682666Y18979123D02*
X13673142Y18969600D01*
X13673142Y18969600D02*
X13644571Y18960076D01*
X13644571Y18960076D02*
X13625523Y18960076D01*
X13625523Y18960076D02*
X13596952Y18969600D01*
X13596952Y18969600D02*
X13577904Y18988647D01*
X13577904Y18988647D02*
X13568381Y19007695D01*
X13568381Y19007695D02*
X13558857Y19045790D01*
X13558857Y19045790D02*
X13558857Y19074361D01*
X13558857Y19074361D02*
X13568381Y19112457D01*
X13568381Y19112457D02*
X13577904Y19131504D01*
X13577904Y19131504D02*
X13596952Y19150552D01*
X13596952Y19150552D02*
X13625523Y19160076D01*
X13625523Y19160076D02*
X13644571Y19160076D01*
X13644571Y19160076D02*
X13673142Y19150552D01*
X13673142Y19150552D02*
X13682666Y19141028D01*
X13796952Y19074361D02*
X13777904Y19083885D01*
X13777904Y19083885D02*
X13768381Y19093409D01*
X13768381Y19093409D02*
X13758857Y19112457D01*
X13758857Y19112457D02*
X13758857Y19121980D01*
X13758857Y19121980D02*
X13768381Y19141028D01*
X13768381Y19141028D02*
X13777904Y19150552D01*
X13777904Y19150552D02*
X13796952Y19160076D01*
X13796952Y19160076D02*
X13835047Y19160076D01*
X13835047Y19160076D02*
X13854095Y19150552D01*
X13854095Y19150552D02*
X13863619Y19141028D01*
X13863619Y19141028D02*
X13873142Y19121980D01*
X13873142Y19121980D02*
X13873142Y19112457D01*
X13873142Y19112457D02*
X13863619Y19093409D01*
X13863619Y19093409D02*
X13854095Y19083885D01*
X13854095Y19083885D02*
X13835047Y19074361D01*
X13835047Y19074361D02*
X13796952Y19074361D01*
X13796952Y19074361D02*
X13777904Y19064838D01*
X13777904Y19064838D02*
X13768381Y19055314D01*
X13768381Y19055314D02*
X13758857Y19036266D01*
X13758857Y19036266D02*
X13758857Y18998171D01*
X13758857Y18998171D02*
X13768381Y18979123D01*
X13768381Y18979123D02*
X13777904Y18969600D01*
X13777904Y18969600D02*
X13796952Y18960076D01*
X13796952Y18960076D02*
X13835047Y18960076D01*
X13835047Y18960076D02*
X13854095Y18969600D01*
X13854095Y18969600D02*
X13863619Y18979123D01*
X13863619Y18979123D02*
X13873142Y18998171D01*
X13873142Y18998171D02*
X13873142Y19036266D01*
X13873142Y19036266D02*
X13863619Y19055314D01*
X13863619Y19055314D02*
X13854095Y19064838D01*
X13854095Y19064838D02*
X13835047Y19074361D01*
X10761666Y18960076D02*
X10695000Y19055314D01*
X10647381Y18960076D02*
X10647381Y19160076D01*
X10647381Y19160076D02*
X10723571Y19160076D01*
X10723571Y19160076D02*
X10742619Y19150552D01*
X10742619Y19150552D02*
X10752142Y19141028D01*
X10752142Y19141028D02*
X10761666Y19121980D01*
X10761666Y19121980D02*
X10761666Y19093409D01*
X10761666Y19093409D02*
X10752142Y19074361D01*
X10752142Y19074361D02*
X10742619Y19064838D01*
X10742619Y19064838D02*
X10723571Y19055314D01*
X10723571Y19055314D02*
X10647381Y19055314D01*
X10837857Y19141028D02*
X10847381Y19150552D01*
X10847381Y19150552D02*
X10866428Y19160076D01*
X10866428Y19160076D02*
X10914047Y19160076D01*
X10914047Y19160076D02*
X10933095Y19150552D01*
X10933095Y19150552D02*
X10942619Y19141028D01*
X10942619Y19141028D02*
X10952142Y19121980D01*
X10952142Y19121980D02*
X10952142Y19102933D01*
X10952142Y19102933D02*
X10942619Y19074361D01*
X10942619Y19074361D02*
X10828333Y18960076D01*
X10828333Y18960076D02*
X10952142Y18960076D01*
X4538666Y16166076D02*
X4472000Y16261314D01*
X4424381Y16166076D02*
X4424381Y16366076D01*
X4424381Y16366076D02*
X4500571Y16366076D01*
X4500571Y16366076D02*
X4519619Y16356552D01*
X4519619Y16356552D02*
X4529142Y16347028D01*
X4529142Y16347028D02*
X4538666Y16327980D01*
X4538666Y16327980D02*
X4538666Y16299409D01*
X4538666Y16299409D02*
X4529142Y16280361D01*
X4529142Y16280361D02*
X4519619Y16270838D01*
X4519619Y16270838D02*
X4500571Y16261314D01*
X4500571Y16261314D02*
X4424381Y16261314D01*
X4710095Y16366076D02*
X4672000Y16366076D01*
X4672000Y16366076D02*
X4652952Y16356552D01*
X4652952Y16356552D02*
X4643428Y16347028D01*
X4643428Y16347028D02*
X4624381Y16318457D01*
X4624381Y16318457D02*
X4614857Y16280361D01*
X4614857Y16280361D02*
X4614857Y16204171D01*
X4614857Y16204171D02*
X4624381Y16185123D01*
X4624381Y16185123D02*
X4633904Y16175600D01*
X4633904Y16175600D02*
X4652952Y16166076D01*
X4652952Y16166076D02*
X4691047Y16166076D01*
X4691047Y16166076D02*
X4710095Y16175600D01*
X4710095Y16175600D02*
X4719619Y16185123D01*
X4719619Y16185123D02*
X4729142Y16204171D01*
X4729142Y16204171D02*
X4729142Y16251790D01*
X4729142Y16251790D02*
X4719619Y16270838D01*
X4719619Y16270838D02*
X4710095Y16280361D01*
X4710095Y16280361D02*
X4691047Y16289885D01*
X4691047Y16289885D02*
X4652952Y16289885D01*
X4652952Y16289885D02*
X4633904Y16280361D01*
X4633904Y16280361D02*
X4624381Y16270838D01*
X4624381Y16270838D02*
X4614857Y16251790D01*
X15056876Y8729666D02*
X15066400Y8720142D01*
X15066400Y8720142D02*
X15075923Y8691571D01*
X15075923Y8691571D02*
X15075923Y8672523D01*
X15075923Y8672523D02*
X15066400Y8643952D01*
X15066400Y8643952D02*
X15047352Y8624904D01*
X15047352Y8624904D02*
X15028304Y8615381D01*
X15028304Y8615381D02*
X14990209Y8605857D01*
X14990209Y8605857D02*
X14961638Y8605857D01*
X14961638Y8605857D02*
X14923542Y8615381D01*
X14923542Y8615381D02*
X14904495Y8624904D01*
X14904495Y8624904D02*
X14885447Y8643952D01*
X14885447Y8643952D02*
X14875923Y8672523D01*
X14875923Y8672523D02*
X14875923Y8691571D01*
X14875923Y8691571D02*
X14885447Y8720142D01*
X14885447Y8720142D02*
X14894971Y8729666D01*
X14875923Y8910619D02*
X14875923Y8815381D01*
X14875923Y8815381D02*
X14971161Y8805857D01*
X14971161Y8805857D02*
X14961638Y8815381D01*
X14961638Y8815381D02*
X14952114Y8834428D01*
X14952114Y8834428D02*
X14952114Y8882047D01*
X14952114Y8882047D02*
X14961638Y8901095D01*
X14961638Y8901095D02*
X14971161Y8910619D01*
X14971161Y8910619D02*
X14990209Y8920142D01*
X14990209Y8920142D02*
X15037828Y8920142D01*
X15037828Y8920142D02*
X15056876Y8910619D01*
X15056876Y8910619D02*
X15066400Y8901095D01*
X15066400Y8901095D02*
X15075923Y8882047D01*
X15075923Y8882047D02*
X15075923Y8834428D01*
X15075923Y8834428D02*
X15066400Y8815381D01*
X15066400Y8815381D02*
X15056876Y8805857D01*
X21441800Y11595134D02*
X21451323Y11623705D01*
X21451323Y11623705D02*
X21451323Y11671324D01*
X21451323Y11671324D02*
X21441800Y11690372D01*
X21441800Y11690372D02*
X21432276Y11699896D01*
X21432276Y11699896D02*
X21413228Y11709419D01*
X21413228Y11709419D02*
X21394180Y11709419D01*
X21394180Y11709419D02*
X21375133Y11699896D01*
X21375133Y11699896D02*
X21365609Y11690372D01*
X21365609Y11690372D02*
X21356085Y11671324D01*
X21356085Y11671324D02*
X21346561Y11633229D01*
X21346561Y11633229D02*
X21337038Y11614181D01*
X21337038Y11614181D02*
X21327514Y11604658D01*
X21327514Y11604658D02*
X21308466Y11595134D01*
X21308466Y11595134D02*
X21289419Y11595134D01*
X21289419Y11595134D02*
X21270371Y11604658D01*
X21270371Y11604658D02*
X21260847Y11614181D01*
X21260847Y11614181D02*
X21251323Y11633229D01*
X21251323Y11633229D02*
X21251323Y11680848D01*
X21251323Y11680848D02*
X21260847Y11709419D01*
X21251323Y11776086D02*
X21451323Y11823705D01*
X21451323Y11823705D02*
X21308466Y11861800D01*
X21308466Y11861800D02*
X21451323Y11899895D01*
X21451323Y11899895D02*
X21251323Y11947515D01*
X21451323Y12128466D02*
X21451323Y12014181D01*
X21451323Y12071324D02*
X21251323Y12071324D01*
X21251323Y12071324D02*
X21279895Y12052276D01*
X21279895Y12052276D02*
X21298942Y12033228D01*
X21298942Y12033228D02*
X21308466Y12014181D01*
X22886428Y55428123D02*
X22876904Y55418600D01*
X22876904Y55418600D02*
X22848333Y55409076D01*
X22848333Y55409076D02*
X22829285Y55409076D01*
X22829285Y55409076D02*
X22800714Y55418600D01*
X22800714Y55418600D02*
X22781666Y55437647D01*
X22781666Y55437647D02*
X22772143Y55456695D01*
X22772143Y55456695D02*
X22762619Y55494790D01*
X22762619Y55494790D02*
X22762619Y55523361D01*
X22762619Y55523361D02*
X22772143Y55561457D01*
X22772143Y55561457D02*
X22781666Y55580504D01*
X22781666Y55580504D02*
X22800714Y55599552D01*
X22800714Y55599552D02*
X22829285Y55609076D01*
X22829285Y55609076D02*
X22848333Y55609076D01*
X22848333Y55609076D02*
X22876904Y55599552D01*
X22876904Y55599552D02*
X22886428Y55590028D01*
X23076904Y55409076D02*
X22962619Y55409076D01*
X23019762Y55409076D02*
X23019762Y55609076D01*
X23019762Y55609076D02*
X23000714Y55580504D01*
X23000714Y55580504D02*
X22981666Y55561457D01*
X22981666Y55561457D02*
X22962619Y55551933D01*
X23267380Y55409076D02*
X23153095Y55409076D01*
X23210238Y55409076D02*
X23210238Y55609076D01*
X23210238Y55609076D02*
X23191190Y55580504D01*
X23191190Y55580504D02*
X23172142Y55561457D01*
X23172142Y55561457D02*
X23153095Y55551933D01*
X22886428Y55936123D02*
X22876904Y55926600D01*
X22876904Y55926600D02*
X22848333Y55917076D01*
X22848333Y55917076D02*
X22829285Y55917076D01*
X22829285Y55917076D02*
X22800714Y55926600D01*
X22800714Y55926600D02*
X22781666Y55945647D01*
X22781666Y55945647D02*
X22772143Y55964695D01*
X22772143Y55964695D02*
X22762619Y56002790D01*
X22762619Y56002790D02*
X22762619Y56031361D01*
X22762619Y56031361D02*
X22772143Y56069457D01*
X22772143Y56069457D02*
X22781666Y56088504D01*
X22781666Y56088504D02*
X22800714Y56107552D01*
X22800714Y56107552D02*
X22829285Y56117076D01*
X22829285Y56117076D02*
X22848333Y56117076D01*
X22848333Y56117076D02*
X22876904Y56107552D01*
X22876904Y56107552D02*
X22886428Y56098028D01*
X23076904Y55917076D02*
X22962619Y55917076D01*
X23019762Y55917076D02*
X23019762Y56117076D01*
X23019762Y56117076D02*
X23000714Y56088504D01*
X23000714Y56088504D02*
X22981666Y56069457D01*
X22981666Y56069457D02*
X22962619Y56059933D01*
X23153095Y56098028D02*
X23162619Y56107552D01*
X23162619Y56107552D02*
X23181666Y56117076D01*
X23181666Y56117076D02*
X23229285Y56117076D01*
X23229285Y56117076D02*
X23248333Y56107552D01*
X23248333Y56107552D02*
X23257857Y56098028D01*
X23257857Y56098028D02*
X23267380Y56078980D01*
X23267380Y56078980D02*
X23267380Y56059933D01*
X23267380Y56059933D02*
X23257857Y56031361D01*
X23257857Y56031361D02*
X23143571Y55917076D01*
X23143571Y55917076D02*
X23267380Y55917076D01*
X4769876Y59053428D02*
X4779400Y59043904D01*
X4779400Y59043904D02*
X4788923Y59015333D01*
X4788923Y59015333D02*
X4788923Y58996285D01*
X4788923Y58996285D02*
X4779400Y58967714D01*
X4779400Y58967714D02*
X4760352Y58948666D01*
X4760352Y58948666D02*
X4741304Y58939143D01*
X4741304Y58939143D02*
X4703209Y58929619D01*
X4703209Y58929619D02*
X4674638Y58929619D01*
X4674638Y58929619D02*
X4636542Y58939143D01*
X4636542Y58939143D02*
X4617495Y58948666D01*
X4617495Y58948666D02*
X4598447Y58967714D01*
X4598447Y58967714D02*
X4588923Y58996285D01*
X4588923Y58996285D02*
X4588923Y59015333D01*
X4588923Y59015333D02*
X4598447Y59043904D01*
X4598447Y59043904D02*
X4607971Y59053428D01*
X4788923Y59243904D02*
X4788923Y59129619D01*
X4788923Y59186762D02*
X4588923Y59186762D01*
X4588923Y59186762D02*
X4617495Y59167714D01*
X4617495Y59167714D02*
X4636542Y59148666D01*
X4636542Y59148666D02*
X4646066Y59129619D01*
X4588923Y59310571D02*
X4588923Y59434380D01*
X4588923Y59434380D02*
X4665114Y59367714D01*
X4665114Y59367714D02*
X4665114Y59396285D01*
X4665114Y59396285D02*
X4674638Y59415333D01*
X4674638Y59415333D02*
X4684161Y59424857D01*
X4684161Y59424857D02*
X4703209Y59434380D01*
X4703209Y59434380D02*
X4750828Y59434380D01*
X4750828Y59434380D02*
X4769876Y59424857D01*
X4769876Y59424857D02*
X4779400Y59415333D01*
X4779400Y59415333D02*
X4788923Y59396285D01*
X4788923Y59396285D02*
X4788923Y59339142D01*
X4788923Y59339142D02*
X4779400Y59320095D01*
X4779400Y59320095D02*
X4769876Y59310571D01*
X12158667Y4355076D02*
X12063429Y4355076D01*
X12063429Y4355076D02*
X12063429Y4555076D01*
X12330095Y4355076D02*
X12215810Y4355076D01*
X12272953Y4355076D02*
X12272953Y4555076D01*
X12272953Y4555076D02*
X12253905Y4526504D01*
X12253905Y4526504D02*
X12234857Y4507457D01*
X12234857Y4507457D02*
X12215810Y4497933D01*
X12293619Y8873076D02*
X12293619Y8711171D01*
X12293619Y8711171D02*
X12303142Y8692123D01*
X12303142Y8692123D02*
X12312666Y8682600D01*
X12312666Y8682600D02*
X12331714Y8673076D01*
X12331714Y8673076D02*
X12369809Y8673076D01*
X12369809Y8673076D02*
X12388857Y8682600D01*
X12388857Y8682600D02*
X12398380Y8692123D01*
X12398380Y8692123D02*
X12407904Y8711171D01*
X12407904Y8711171D02*
X12407904Y8873076D01*
X12493619Y8854028D02*
X12503143Y8863552D01*
X12503143Y8863552D02*
X12522190Y8873076D01*
X12522190Y8873076D02*
X12569809Y8873076D01*
X12569809Y8873076D02*
X12588857Y8863552D01*
X12588857Y8863552D02*
X12598381Y8854028D01*
X12598381Y8854028D02*
X12607904Y8834980D01*
X12607904Y8834980D02*
X12607904Y8815933D01*
X12607904Y8815933D02*
X12598381Y8787361D01*
X12598381Y8787361D02*
X12484095Y8673076D01*
X12484095Y8673076D02*
X12607904Y8673076D01*
X9722876Y8729666D02*
X9732400Y8720142D01*
X9732400Y8720142D02*
X9741923Y8691571D01*
X9741923Y8691571D02*
X9741923Y8672523D01*
X9741923Y8672523D02*
X9732400Y8643952D01*
X9732400Y8643952D02*
X9713352Y8624904D01*
X9713352Y8624904D02*
X9694304Y8615381D01*
X9694304Y8615381D02*
X9656209Y8605857D01*
X9656209Y8605857D02*
X9627638Y8605857D01*
X9627638Y8605857D02*
X9589542Y8615381D01*
X9589542Y8615381D02*
X9570495Y8624904D01*
X9570495Y8624904D02*
X9551447Y8643952D01*
X9551447Y8643952D02*
X9541923Y8672523D01*
X9541923Y8672523D02*
X9541923Y8691571D01*
X9541923Y8691571D02*
X9551447Y8720142D01*
X9551447Y8720142D02*
X9560971Y8729666D01*
X9741923Y8824904D02*
X9741923Y8863000D01*
X9741923Y8863000D02*
X9732400Y8882047D01*
X9732400Y8882047D02*
X9722876Y8891571D01*
X9722876Y8891571D02*
X9694304Y8910619D01*
X9694304Y8910619D02*
X9656209Y8920142D01*
X9656209Y8920142D02*
X9580019Y8920142D01*
X9580019Y8920142D02*
X9560971Y8910619D01*
X9560971Y8910619D02*
X9551447Y8901095D01*
X9551447Y8901095D02*
X9541923Y8882047D01*
X9541923Y8882047D02*
X9541923Y8843952D01*
X9541923Y8843952D02*
X9551447Y8824904D01*
X9551447Y8824904D02*
X9560971Y8815381D01*
X9560971Y8815381D02*
X9580019Y8805857D01*
X9580019Y8805857D02*
X9627638Y8805857D01*
X9627638Y8805857D02*
X9646685Y8815381D01*
X9646685Y8815381D02*
X9656209Y8824904D01*
X9656209Y8824904D02*
X9665733Y8843952D01*
X9665733Y8843952D02*
X9665733Y8882047D01*
X9665733Y8882047D02*
X9656209Y8901095D01*
X9656209Y8901095D02*
X9646685Y8910619D01*
X9646685Y8910619D02*
X9627638Y8920142D01*
X8271923Y29057619D02*
X8433828Y29057619D01*
X8433828Y29057619D02*
X8452876Y29067142D01*
X8452876Y29067142D02*
X8462400Y29076666D01*
X8462400Y29076666D02*
X8471923Y29095714D01*
X8471923Y29095714D02*
X8471923Y29133809D01*
X8471923Y29133809D02*
X8462400Y29152857D01*
X8462400Y29152857D02*
X8452876Y29162380D01*
X8452876Y29162380D02*
X8433828Y29171904D01*
X8433828Y29171904D02*
X8271923Y29171904D01*
X8471923Y29371904D02*
X8471923Y29257619D01*
X8471923Y29314762D02*
X8271923Y29314762D01*
X8271923Y29314762D02*
X8300495Y29295714D01*
X8300495Y29295714D02*
X8319542Y29276666D01*
X8319542Y29276666D02*
X8329066Y29257619D01*
X15460666Y34981123D02*
X15451142Y34971600D01*
X15451142Y34971600D02*
X15422571Y34962076D01*
X15422571Y34962076D02*
X15403523Y34962076D01*
X15403523Y34962076D02*
X15374952Y34971600D01*
X15374952Y34971600D02*
X15355904Y34990647D01*
X15355904Y34990647D02*
X15346381Y35009695D01*
X15346381Y35009695D02*
X15336857Y35047790D01*
X15336857Y35047790D02*
X15336857Y35076361D01*
X15336857Y35076361D02*
X15346381Y35114457D01*
X15346381Y35114457D02*
X15355904Y35133504D01*
X15355904Y35133504D02*
X15374952Y35152552D01*
X15374952Y35152552D02*
X15403523Y35162076D01*
X15403523Y35162076D02*
X15422571Y35162076D01*
X15422571Y35162076D02*
X15451142Y35152552D01*
X15451142Y35152552D02*
X15460666Y35143028D01*
X15527333Y35162076D02*
X15651142Y35162076D01*
X15651142Y35162076D02*
X15584476Y35085885D01*
X15584476Y35085885D02*
X15613047Y35085885D01*
X15613047Y35085885D02*
X15632095Y35076361D01*
X15632095Y35076361D02*
X15641619Y35066838D01*
X15641619Y35066838D02*
X15651142Y35047790D01*
X15651142Y35047790D02*
X15651142Y35000171D01*
X15651142Y35000171D02*
X15641619Y34981123D01*
X15641619Y34981123D02*
X15632095Y34971600D01*
X15632095Y34971600D02*
X15613047Y34962076D01*
X15613047Y34962076D02*
X15555904Y34962076D01*
X15555904Y34962076D02*
X15536857Y34971600D01*
X15536857Y34971600D02*
X15527333Y34981123D01*
X3427428Y15296123D02*
X3417904Y15286600D01*
X3417904Y15286600D02*
X3389333Y15277076D01*
X3389333Y15277076D02*
X3370285Y15277076D01*
X3370285Y15277076D02*
X3341714Y15286600D01*
X3341714Y15286600D02*
X3322666Y15305647D01*
X3322666Y15305647D02*
X3313143Y15324695D01*
X3313143Y15324695D02*
X3303619Y15362790D01*
X3303619Y15362790D02*
X3303619Y15391361D01*
X3303619Y15391361D02*
X3313143Y15429457D01*
X3313143Y15429457D02*
X3322666Y15448504D01*
X3322666Y15448504D02*
X3341714Y15467552D01*
X3341714Y15467552D02*
X3370285Y15477076D01*
X3370285Y15477076D02*
X3389333Y15477076D01*
X3389333Y15477076D02*
X3417904Y15467552D01*
X3417904Y15467552D02*
X3427428Y15458028D01*
X3617904Y15277076D02*
X3503619Y15277076D01*
X3560762Y15277076D02*
X3560762Y15477076D01*
X3560762Y15477076D02*
X3541714Y15448504D01*
X3541714Y15448504D02*
X3522666Y15429457D01*
X3522666Y15429457D02*
X3503619Y15419933D01*
X3798857Y15477076D02*
X3703619Y15477076D01*
X3703619Y15477076D02*
X3694095Y15381838D01*
X3694095Y15381838D02*
X3703619Y15391361D01*
X3703619Y15391361D02*
X3722666Y15400885D01*
X3722666Y15400885D02*
X3770285Y15400885D01*
X3770285Y15400885D02*
X3789333Y15391361D01*
X3789333Y15391361D02*
X3798857Y15381838D01*
X3798857Y15381838D02*
X3808380Y15362790D01*
X3808380Y15362790D02*
X3808380Y15315171D01*
X3808380Y15315171D02*
X3798857Y15296123D01*
X3798857Y15296123D02*
X3789333Y15286600D01*
X3789333Y15286600D02*
X3770285Y15277076D01*
X3770285Y15277076D02*
X3722666Y15277076D01*
X3722666Y15277076D02*
X3703619Y15286600D01*
X3703619Y15286600D02*
X3694095Y15296123D01*
D12*
X738333Y67902895D02*
X1214523Y67902895D01*
X643095Y67617180D02*
X976428Y68617180D01*
X976428Y68617180D02*
X1309761Y67617180D01*
X1643095Y68140990D02*
X1976428Y68140990D01*
X2119285Y67617180D02*
X1643095Y67617180D01*
X1643095Y67617180D02*
X1643095Y68617180D01*
X1643095Y68617180D02*
X2119285Y68617180D01*
X3071666Y67617180D02*
X2500238Y67617180D01*
X2785952Y67617180D02*
X2785952Y68617180D01*
X2785952Y68617180D02*
X2690714Y68474323D01*
X2690714Y68474323D02*
X2595476Y68379085D01*
X2595476Y68379085D02*
X2500238Y68331466D01*
D13*
X5332428Y15296123D02*
X5322904Y15286600D01*
X5322904Y15286600D02*
X5294333Y15277076D01*
X5294333Y15277076D02*
X5275285Y15277076D01*
X5275285Y15277076D02*
X5246714Y15286600D01*
X5246714Y15286600D02*
X5227666Y15305647D01*
X5227666Y15305647D02*
X5218143Y15324695D01*
X5218143Y15324695D02*
X5208619Y15362790D01*
X5208619Y15362790D02*
X5208619Y15391361D01*
X5208619Y15391361D02*
X5218143Y15429457D01*
X5218143Y15429457D02*
X5227666Y15448504D01*
X5227666Y15448504D02*
X5246714Y15467552D01*
X5246714Y15467552D02*
X5275285Y15477076D01*
X5275285Y15477076D02*
X5294333Y15477076D01*
X5294333Y15477076D02*
X5322904Y15467552D01*
X5322904Y15467552D02*
X5332428Y15458028D01*
X5522904Y15277076D02*
X5408619Y15277076D01*
X5465762Y15277076D02*
X5465762Y15477076D01*
X5465762Y15477076D02*
X5446714Y15448504D01*
X5446714Y15448504D02*
X5427666Y15429457D01*
X5427666Y15429457D02*
X5408619Y15419933D01*
X5694333Y15410409D02*
X5694333Y15277076D01*
X5646714Y15486600D02*
X5599095Y15343742D01*
X5599095Y15343742D02*
X5722904Y15343742D01*
X1625619Y22505076D02*
X1625619Y22705076D01*
X1625619Y22609838D02*
X1739904Y22609838D01*
X1739904Y22505076D02*
X1739904Y22705076D01*
X1920857Y22638409D02*
X1920857Y22505076D01*
X1873238Y22714600D02*
X1825619Y22571742D01*
X1825619Y22571742D02*
X1949428Y22571742D01*
X7690876Y26636666D02*
X7700400Y26627142D01*
X7700400Y26627142D02*
X7709923Y26598571D01*
X7709923Y26598571D02*
X7709923Y26579523D01*
X7709923Y26579523D02*
X7700400Y26550952D01*
X7700400Y26550952D02*
X7681352Y26531904D01*
X7681352Y26531904D02*
X7662304Y26522381D01*
X7662304Y26522381D02*
X7624209Y26512857D01*
X7624209Y26512857D02*
X7595638Y26512857D01*
X7595638Y26512857D02*
X7557542Y26522381D01*
X7557542Y26522381D02*
X7538495Y26531904D01*
X7538495Y26531904D02*
X7519447Y26550952D01*
X7519447Y26550952D02*
X7509923Y26579523D01*
X7509923Y26579523D02*
X7509923Y26598571D01*
X7509923Y26598571D02*
X7519447Y26627142D01*
X7519447Y26627142D02*
X7528971Y26636666D01*
X7509923Y26703333D02*
X7509923Y26836666D01*
X7509923Y26836666D02*
X7709923Y26750952D01*
X5435619Y4233076D02*
X5435619Y4433076D01*
X5435619Y4337838D02*
X5549904Y4337838D01*
X5549904Y4233076D02*
X5549904Y4433076D01*
X5626095Y4433076D02*
X5749904Y4433076D01*
X5749904Y4433076D02*
X5683238Y4356885D01*
X5683238Y4356885D02*
X5711809Y4356885D01*
X5711809Y4356885D02*
X5730857Y4347361D01*
X5730857Y4347361D02*
X5740381Y4337838D01*
X5740381Y4337838D02*
X5749904Y4318790D01*
X5749904Y4318790D02*
X5749904Y4271171D01*
X5749904Y4271171D02*
X5740381Y4252123D01*
X5740381Y4252123D02*
X5730857Y4242600D01*
X5730857Y4242600D02*
X5711809Y4233076D01*
X5711809Y4233076D02*
X5654666Y4233076D01*
X5654666Y4233076D02*
X5635619Y4242600D01*
X5635619Y4242600D02*
X5626095Y4252123D01*
X5040333Y40877076D02*
X5040333Y40734219D01*
X5040333Y40734219D02*
X5030810Y40705647D01*
X5030810Y40705647D02*
X5011762Y40686600D01*
X5011762Y40686600D02*
X4983191Y40677076D01*
X4983191Y40677076D02*
X4964143Y40677076D01*
X5135572Y40677076D02*
X5135572Y40877076D01*
X5135572Y40877076D02*
X5211762Y40877076D01*
X5211762Y40877076D02*
X5230810Y40867552D01*
X5230810Y40867552D02*
X5240333Y40858028D01*
X5240333Y40858028D02*
X5249857Y40838980D01*
X5249857Y40838980D02*
X5249857Y40810409D01*
X5249857Y40810409D02*
X5240333Y40791361D01*
X5240333Y40791361D02*
X5230810Y40781838D01*
X5230810Y40781838D02*
X5211762Y40772314D01*
X5211762Y40772314D02*
X5135572Y40772314D01*
X5440333Y40677076D02*
X5326048Y40677076D01*
X5383191Y40677076D02*
X5383191Y40877076D01*
X5383191Y40877076D02*
X5364143Y40848504D01*
X5364143Y40848504D02*
X5345095Y40829457D01*
X5345095Y40829457D02*
X5326048Y40819933D01*
X21175666Y19468076D02*
X21109000Y19563314D01*
X21061381Y19468076D02*
X21061381Y19668076D01*
X21061381Y19668076D02*
X21137571Y19668076D01*
X21137571Y19668076D02*
X21156619Y19658552D01*
X21156619Y19658552D02*
X21166142Y19649028D01*
X21166142Y19649028D02*
X21175666Y19629980D01*
X21175666Y19629980D02*
X21175666Y19601409D01*
X21175666Y19601409D02*
X21166142Y19582361D01*
X21166142Y19582361D02*
X21156619Y19572838D01*
X21156619Y19572838D02*
X21137571Y19563314D01*
X21137571Y19563314D02*
X21061381Y19563314D01*
X21242333Y19668076D02*
X21366142Y19668076D01*
X21366142Y19668076D02*
X21299476Y19591885D01*
X21299476Y19591885D02*
X21328047Y19591885D01*
X21328047Y19591885D02*
X21347095Y19582361D01*
X21347095Y19582361D02*
X21356619Y19572838D01*
X21356619Y19572838D02*
X21366142Y19553790D01*
X21366142Y19553790D02*
X21366142Y19506171D01*
X21366142Y19506171D02*
X21356619Y19487123D01*
X21356619Y19487123D02*
X21347095Y19477600D01*
X21347095Y19477600D02*
X21328047Y19468076D01*
X21328047Y19468076D02*
X21270904Y19468076D01*
X21270904Y19468076D02*
X21251857Y19477600D01*
X21251857Y19477600D02*
X21242333Y19487123D01*
X22926619Y61875076D02*
X22926619Y62075076D01*
X22926619Y61979838D02*
X23040904Y61979838D01*
X23040904Y61875076D02*
X23040904Y62075076D01*
X23240904Y61875076D02*
X23126619Y61875076D01*
X23183762Y61875076D02*
X23183762Y62075076D01*
X23183762Y62075076D02*
X23164714Y62046504D01*
X23164714Y62046504D02*
X23145666Y62027457D01*
X23145666Y62027457D02*
X23126619Y62017933D01*
X6208161Y10247333D02*
X6208161Y10180667D01*
X6312923Y10180667D02*
X6112923Y10180667D01*
X6112923Y10180667D02*
X6112923Y10275905D01*
X6208161Y10418762D02*
X6217685Y10447334D01*
X6217685Y10447334D02*
X6227209Y10456857D01*
X6227209Y10456857D02*
X6246257Y10466381D01*
X6246257Y10466381D02*
X6274828Y10466381D01*
X6274828Y10466381D02*
X6293876Y10456857D01*
X6293876Y10456857D02*
X6303400Y10447334D01*
X6303400Y10447334D02*
X6312923Y10428286D01*
X6312923Y10428286D02*
X6312923Y10352096D01*
X6312923Y10352096D02*
X6112923Y10352096D01*
X6112923Y10352096D02*
X6112923Y10418762D01*
X6112923Y10418762D02*
X6122447Y10437810D01*
X6122447Y10437810D02*
X6131971Y10447334D01*
X6131971Y10447334D02*
X6151019Y10456857D01*
X6151019Y10456857D02*
X6170066Y10456857D01*
X6170066Y10456857D02*
X6189114Y10447334D01*
X6189114Y10447334D02*
X6198638Y10437810D01*
X6198638Y10437810D02*
X6208161Y10418762D01*
X6208161Y10418762D02*
X6208161Y10352096D01*
X6312923Y10656857D02*
X6312923Y10542572D01*
X6312923Y10599715D02*
X6112923Y10599715D01*
X6112923Y10599715D02*
X6141495Y10580667D01*
X6141495Y10580667D02*
X6160542Y10561619D01*
X6160542Y10561619D02*
X6170066Y10542572D01*
X4157666Y12102076D02*
X4091000Y12197314D01*
X4043381Y12102076D02*
X4043381Y12302076D01*
X4043381Y12302076D02*
X4119571Y12302076D01*
X4119571Y12302076D02*
X4138619Y12292552D01*
X4138619Y12292552D02*
X4148142Y12283028D01*
X4148142Y12283028D02*
X4157666Y12263980D01*
X4157666Y12263980D02*
X4157666Y12235409D01*
X4157666Y12235409D02*
X4148142Y12216361D01*
X4148142Y12216361D02*
X4138619Y12206838D01*
X4138619Y12206838D02*
X4119571Y12197314D01*
X4119571Y12197314D02*
X4043381Y12197314D01*
X4338619Y12302076D02*
X4243381Y12302076D01*
X4243381Y12302076D02*
X4233857Y12206838D01*
X4233857Y12206838D02*
X4243381Y12216361D01*
X4243381Y12216361D02*
X4262428Y12225885D01*
X4262428Y12225885D02*
X4310047Y12225885D01*
X4310047Y12225885D02*
X4329095Y12216361D01*
X4329095Y12216361D02*
X4338619Y12206838D01*
X4338619Y12206838D02*
X4348142Y12187790D01*
X4348142Y12187790D02*
X4348142Y12140171D01*
X4348142Y12140171D02*
X4338619Y12121123D01*
X4338619Y12121123D02*
X4329095Y12111600D01*
X4329095Y12111600D02*
X4310047Y12102076D01*
X4310047Y12102076D02*
X4262428Y12102076D01*
X4262428Y12102076D02*
X4243381Y12111600D01*
X4243381Y12111600D02*
X4233857Y12121123D01*
X1752619Y15731076D02*
X1752619Y15569171D01*
X1752619Y15569171D02*
X1762142Y15550123D01*
X1762142Y15550123D02*
X1771666Y15540600D01*
X1771666Y15540600D02*
X1790714Y15531076D01*
X1790714Y15531076D02*
X1828809Y15531076D01*
X1828809Y15531076D02*
X1847857Y15540600D01*
X1847857Y15540600D02*
X1857380Y15550123D01*
X1857380Y15550123D02*
X1866904Y15569171D01*
X1866904Y15569171D02*
X1866904Y15731076D01*
X1943095Y15731076D02*
X2066904Y15731076D01*
X2066904Y15731076D02*
X2000238Y15654885D01*
X2000238Y15654885D02*
X2028809Y15654885D01*
X2028809Y15654885D02*
X2047857Y15645361D01*
X2047857Y15645361D02*
X2057381Y15635838D01*
X2057381Y15635838D02*
X2066904Y15616790D01*
X2066904Y15616790D02*
X2066904Y15569171D01*
X2066904Y15569171D02*
X2057381Y15550123D01*
X2057381Y15550123D02*
X2047857Y15540600D01*
X2047857Y15540600D02*
X2028809Y15531076D01*
X2028809Y15531076D02*
X1971666Y15531076D01*
X1971666Y15531076D02*
X1952619Y15540600D01*
X1952619Y15540600D02*
X1943095Y15550123D01*
X5935667Y60489076D02*
X5840429Y60489076D01*
X5840429Y60489076D02*
X5840429Y60689076D01*
X5992810Y60670028D02*
X6002334Y60679552D01*
X6002334Y60679552D02*
X6021381Y60689076D01*
X6021381Y60689076D02*
X6069000Y60689076D01*
X6069000Y60689076D02*
X6088048Y60679552D01*
X6088048Y60679552D02*
X6097572Y60670028D01*
X6097572Y60670028D02*
X6107095Y60650980D01*
X6107095Y60650980D02*
X6107095Y60631933D01*
X6107095Y60631933D02*
X6097572Y60603361D01*
X6097572Y60603361D02*
X5983286Y60489076D01*
X5983286Y60489076D02*
X6107095Y60489076D01*
X1625619Y61875076D02*
X1625619Y62075076D01*
X1625619Y61979838D02*
X1739904Y61979838D01*
X1739904Y61875076D02*
X1739904Y62075076D01*
X1825619Y62056028D02*
X1835143Y62065552D01*
X1835143Y62065552D02*
X1854190Y62075076D01*
X1854190Y62075076D02*
X1901809Y62075076D01*
X1901809Y62075076D02*
X1920857Y62065552D01*
X1920857Y62065552D02*
X1930381Y62056028D01*
X1930381Y62056028D02*
X1939904Y62036980D01*
X1939904Y62036980D02*
X1939904Y62017933D01*
X1939904Y62017933D02*
X1930381Y61989361D01*
X1930381Y61989361D02*
X1816095Y61875076D01*
X1816095Y61875076D02*
X1939904Y61875076D01*
D11*
%TO.C,D1*%
X8178000Y33856000D02*
G75*
G02*
X8078000Y33856000I-50000J0D01*
G01*
X8078000Y33856000D02*
G75*
G02*
X8178000Y33856000I50000J0D01*
G01*
D14*
%TO.C,C1*%
X11195164Y37571000D02*
X11410836Y37571000D01*
X11195164Y36851000D02*
X11410836Y36851000D01*
%TO.C,R4*%
X7748000Y30707359D02*
X7748000Y31014641D01*
X8508000Y30707359D02*
X8508000Y31014641D01*
%TO.C,R1*%
X12980641Y39242000D02*
X12673359Y39242000D01*
X12980641Y38482000D02*
X12673359Y38482000D01*
%TO.C,Module1*%
X12606000Y52959000D02*
X12606000Y50999000D01*
X12606000Y50999000D02*
X13506000Y50999000D01*
X12606000Y44939000D02*
X12606000Y42959000D01*
X12606000Y42959000D02*
X14566000Y42959000D01*
X13506000Y50999000D02*
X13506000Y44939000D01*
X13506000Y44939000D02*
X12606000Y44939000D01*
X13806000Y51759000D02*
X13806000Y44159000D01*
D15*
X13806000Y51759000D02*
X21406000Y51759000D01*
D14*
X13806000Y44159000D02*
X21406000Y44159000D01*
X14566000Y43859000D02*
X20626000Y43859000D01*
X14566000Y42959000D02*
X14566000Y43859000D01*
X14586000Y52959000D02*
X12606000Y52959000D01*
X14586000Y52059000D02*
X14586000Y52959000D01*
X20626000Y43859000D02*
X20626000Y42959000D01*
X20626000Y42959000D02*
X22606000Y42959000D01*
X20646000Y52959000D02*
X20646000Y52059000D01*
X20646000Y52059000D02*
X14586000Y52059000D01*
D15*
X21406000Y51759000D02*
X21406000Y44159000D01*
D14*
X21706000Y50979000D02*
X22606000Y50979000D01*
X21706000Y44919000D02*
X21706000Y50979000D01*
X22606000Y52959000D02*
X20646000Y52959000D01*
X22606000Y50979000D02*
X22606000Y52959000D01*
X22606000Y44919000D02*
X21706000Y44919000D01*
X22606000Y42959000D02*
X22606000Y44919000D01*
D16*
X20306000Y50709000D02*
G75*
G02*
X19906000Y50709000I-200000J0D01*
G01*
X19906000Y50709000D02*
G75*
G02*
X20306000Y50709000I200000J0D01*
G01*
D14*
%TO.C,C2*%
X17164164Y19410000D02*
X17379836Y19410000D01*
X17164164Y18690000D02*
X17379836Y18690000D01*
%TO.C,C4*%
X22246000Y26181164D02*
X22246000Y26396836D01*
X22966000Y26181164D02*
X22966000Y26396836D01*
%TO.C,C6*%
X15386164Y34396000D02*
X15601836Y34396000D01*
X15386164Y33676000D02*
X15601836Y33676000D01*
%TO.C,C8*%
X13608164Y19410000D02*
X13823836Y19410000D01*
X13608164Y18690000D02*
X13823836Y18690000D01*
%TO.C,R2*%
X10641359Y19430000D02*
X10948641Y19430000D01*
X10641359Y18670000D02*
X10948641Y18670000D01*
%TO.C,R6*%
X4725641Y16636000D02*
X4418359Y16636000D01*
X4725641Y15876000D02*
X4418359Y15876000D01*
%TO.C,C5*%
X14251000Y8501748D02*
X14251000Y9024252D01*
X15721000Y8501748D02*
X15721000Y9024252D01*
D15*
%TO.C,SW1*%
X18947172Y14297667D02*
X18947172Y9797667D01*
X20317172Y9497667D02*
X22677172Y9497667D01*
X22677172Y14597667D02*
X20317172Y14597667D01*
X24047172Y14297667D02*
X24047172Y9797667D01*
D17*
X19722172Y7797667D02*
G75*
G02*
X19522172Y7797667I-100000J0D01*
G01*
X19522172Y7797667D02*
G75*
G02*
X19722172Y7797667I100000J0D01*
G01*
D18*
%TO.C,LOGO1*%
X13100171Y64454206D02*
X13177934Y64424401D01*
X13214167Y64396028D01*
X13256515Y64330461D01*
X13275080Y64249987D01*
X13270575Y64165509D01*
X13243713Y64087933D01*
X13195206Y64028164D01*
X13189845Y64024061D01*
X13124544Y63993972D01*
X13042737Y63980523D01*
X12961226Y63985956D01*
X12941534Y63990925D01*
X12875664Y64023778D01*
X12833404Y64077563D01*
X12812336Y64156464D01*
X12808857Y64220485D01*
X12810675Y64287308D01*
X12818724Y64330618D01*
X12836899Y64363111D01*
X12860556Y64389061D01*
X12930721Y64436325D01*
X13014179Y64458110D01*
X13100171Y64454206D01*
G36*
X13100171Y64454206D02*
G01*
X13177934Y64424401D01*
X13214167Y64396028D01*
X13256515Y64330461D01*
X13275080Y64249987D01*
X13270575Y64165509D01*
X13243713Y64087933D01*
X13195206Y64028164D01*
X13189845Y64024061D01*
X13124544Y63993972D01*
X13042737Y63980523D01*
X12961226Y63985956D01*
X12941534Y63990925D01*
X12875664Y64023778D01*
X12833404Y64077563D01*
X12812336Y64156464D01*
X12808857Y64220485D01*
X12810675Y64287308D01*
X12818724Y64330618D01*
X12836899Y64363111D01*
X12860556Y64389061D01*
X12930721Y64436325D01*
X13014179Y64458110D01*
X13100171Y64454206D01*
G37*
X13174225Y63880665D02*
X13276439Y63879458D01*
X13351533Y63877075D01*
X13404089Y63873211D01*
X13438685Y63867563D01*
X13459904Y63859826D01*
X13469775Y63852490D01*
X13479627Y63837706D01*
X13486980Y63812600D01*
X13492174Y63772396D01*
X13495551Y63712319D01*
X13497453Y63627593D01*
X13498220Y63513441D01*
X13498285Y63453347D01*
X13498285Y63082714D01*
X13298714Y63082714D01*
X13298714Y62248143D01*
X12772571Y62248143D01*
X12772571Y63082714D01*
X12573000Y63082714D01*
X12573000Y63451831D01*
X12573259Y63577694D01*
X12574312Y63672273D01*
X12576577Y63740566D01*
X12580467Y63787571D01*
X12586398Y63818289D01*
X12594787Y63837717D01*
X12606048Y63850856D01*
X12606178Y63850974D01*
X12621241Y63860929D01*
X12644646Y63868451D01*
X12681110Y63873868D01*
X12735348Y63877505D01*
X12812079Y63879688D01*
X12916017Y63880744D01*
X13040311Y63881000D01*
X13174225Y63880665D01*
G36*
X13174225Y63880665D02*
G01*
X13276439Y63879458D01*
X13351533Y63877075D01*
X13404089Y63873211D01*
X13438685Y63867563D01*
X13459904Y63859826D01*
X13469775Y63852490D01*
X13479627Y63837706D01*
X13486980Y63812600D01*
X13492174Y63772396D01*
X13495551Y63712319D01*
X13497453Y63627593D01*
X13498220Y63513441D01*
X13498285Y63453347D01*
X13498285Y63082714D01*
X13298714Y63082714D01*
X13298714Y62248143D01*
X12772571Y62248143D01*
X12772571Y63082714D01*
X12573000Y63082714D01*
X12573000Y63451831D01*
X12573259Y63577694D01*
X12574312Y63672273D01*
X12576577Y63740566D01*
X12580467Y63787571D01*
X12586398Y63818289D01*
X12594787Y63837717D01*
X12606048Y63850856D01*
X12606178Y63850974D01*
X12621241Y63860929D01*
X12644646Y63868451D01*
X12681110Y63873868D01*
X12735348Y63877505D01*
X12812079Y63879688D01*
X12916017Y63880744D01*
X13040311Y63881000D01*
X13174225Y63880665D01*
G37*
X9015047Y63873439D02*
X9101554Y63855839D01*
X9109969Y63853035D01*
X9158465Y63828967D01*
X9214169Y63791203D01*
X9268592Y63746943D01*
X9313249Y63703390D01*
X9339652Y63667746D01*
X9343356Y63654973D01*
X9328480Y63637326D01*
X9289699Y63609276D01*
X9235748Y63577088D01*
X9128355Y63518104D01*
X9089909Y63572097D01*
X9030165Y63627083D01*
X8955000Y63653239D01*
X8874219Y63647820D01*
X8849717Y63639361D01*
X8786912Y63601314D01*
X8745199Y63545277D01*
X8720940Y63464943D01*
X8713280Y63402835D01*
X8713892Y63286833D01*
X8737393Y63195918D01*
X8784999Y63126074D01*
X8801889Y63110522D01*
X8867378Y63074892D01*
X8942087Y63063639D01*
X9015416Y63075462D01*
X9076766Y63109058D01*
X9108787Y63148218D01*
X9130276Y63178328D01*
X9157113Y63188635D01*
X9196882Y63178758D01*
X9257167Y63148314D01*
X9271896Y63139985D01*
X9362220Y63088398D01*
X9287186Y63003155D01*
X9200029Y62920157D01*
X9107586Y62867772D01*
X8999438Y62841043D01*
X8935357Y62835712D01*
X8862195Y62834966D01*
X8795956Y62838335D01*
X8753928Y62844501D01*
X8640771Y62891982D01*
X8542817Y62968314D01*
X8467283Y63066954D01*
X8436312Y63132548D01*
X8406620Y63255074D01*
X8400947Y63389497D01*
X8419252Y63520547D01*
X8437445Y63580195D01*
X8485103Y63669042D01*
X8555069Y63751680D01*
X8637395Y63818362D01*
X8722133Y63859341D01*
X8722436Y63859432D01*
X8809149Y63875506D01*
X8912132Y63880085D01*
X9015047Y63873439D01*
G36*
X9015047Y63873439D02*
G01*
X9101554Y63855839D01*
X9109969Y63853035D01*
X9158465Y63828967D01*
X9214169Y63791203D01*
X9268592Y63746943D01*
X9313249Y63703390D01*
X9339652Y63667746D01*
X9343356Y63654973D01*
X9328480Y63637326D01*
X9289699Y63609276D01*
X9235748Y63577088D01*
X9128355Y63518104D01*
X9089909Y63572097D01*
X9030165Y63627083D01*
X8955000Y63653239D01*
X8874219Y63647820D01*
X8849717Y63639361D01*
X8786912Y63601314D01*
X8745199Y63545277D01*
X8720940Y63464943D01*
X8713280Y63402835D01*
X8713892Y63286833D01*
X8737393Y63195918D01*
X8784999Y63126074D01*
X8801889Y63110522D01*
X8867378Y63074892D01*
X8942087Y63063639D01*
X9015416Y63075462D01*
X9076766Y63109058D01*
X9108787Y63148218D01*
X9130276Y63178328D01*
X9157113Y63188635D01*
X9196882Y63178758D01*
X9257167Y63148314D01*
X9271896Y63139985D01*
X9362220Y63088398D01*
X9287186Y63003155D01*
X9200029Y62920157D01*
X9107586Y62867772D01*
X8999438Y62841043D01*
X8935357Y62835712D01*
X8862195Y62834966D01*
X8795956Y62838335D01*
X8753928Y62844501D01*
X8640771Y62891982D01*
X8542817Y62968314D01*
X8467283Y63066954D01*
X8436312Y63132548D01*
X8406620Y63255074D01*
X8400947Y63389497D01*
X8419252Y63520547D01*
X8437445Y63580195D01*
X8485103Y63669042D01*
X8555069Y63751680D01*
X8637395Y63818362D01*
X8722133Y63859341D01*
X8722436Y63859432D01*
X8809149Y63875506D01*
X8912132Y63880085D01*
X9015047Y63873439D01*
G37*
X9933862Y63878796D02*
X10040450Y63864246D01*
X10132076Y63836993D01*
X10165331Y63820651D01*
X10219885Y63782823D01*
X10270012Y63738166D01*
X10308919Y63694093D01*
X10329816Y63658019D01*
X10329835Y63641063D01*
X10309869Y63625659D01*
X10266999Y63600330D01*
X10217642Y63574230D01*
X10114643Y63522271D01*
X10081224Y63566653D01*
X10041186Y63605366D01*
X9989664Y63638727D01*
X9986603Y63640221D01*
X9911501Y63657630D01*
X9835906Y63644287D01*
X9771134Y63603532D01*
X9742735Y63568244D01*
X9706796Y63480439D01*
X9693409Y63380448D01*
X9701706Y63279068D01*
X9730818Y63187098D01*
X9779075Y63116133D01*
X9817600Y63084031D01*
X9859032Y63068719D01*
X9919267Y63064587D01*
X9925140Y63064571D01*
X9984973Y63067436D01*
X10025487Y63080752D01*
X10063494Y63111600D01*
X10081934Y63130618D01*
X10144224Y63196665D01*
X10234946Y63154174D01*
X10286810Y63128104D01*
X10323732Y63106235D01*
X10334817Y63096876D01*
X10331219Y63071211D01*
X10304568Y63031745D01*
X10261547Y62985472D01*
X10208839Y62939384D01*
X10153128Y62900476D01*
X10139874Y62892886D01*
X10034954Y62852822D01*
X9914212Y62833762D01*
X9792270Y62836967D01*
X9706428Y62855507D01*
X9596460Y62909716D01*
X9505355Y62994070D01*
X9440622Y63095751D01*
X9414730Y63154083D01*
X9399455Y63207024D01*
X9392166Y63268197D01*
X9390228Y63351224D01*
X9390224Y63356466D01*
X9391745Y63439199D01*
X9398148Y63499179D01*
X9412194Y63549873D01*
X9436646Y63604753D01*
X9444193Y63619699D01*
X9514604Y63723781D01*
X9605132Y63805217D01*
X9708677Y63857924D01*
X9729870Y63864360D01*
X9825830Y63879286D01*
X9933862Y63878796D01*
G36*
X9933862Y63878796D02*
G01*
X10040450Y63864246D01*
X10132076Y63836993D01*
X10165331Y63820651D01*
X10219885Y63782823D01*
X10270012Y63738166D01*
X10308919Y63694093D01*
X10329816Y63658019D01*
X10329835Y63641063D01*
X10309869Y63625659D01*
X10266999Y63600330D01*
X10217642Y63574230D01*
X10114643Y63522271D01*
X10081224Y63566653D01*
X10041186Y63605366D01*
X9989664Y63638727D01*
X9986603Y63640221D01*
X9911501Y63657630D01*
X9835906Y63644287D01*
X9771134Y63603532D01*
X9742735Y63568244D01*
X9706796Y63480439D01*
X9693409Y63380448D01*
X9701706Y63279068D01*
X9730818Y63187098D01*
X9779075Y63116133D01*
X9817600Y63084031D01*
X9859032Y63068719D01*
X9919267Y63064587D01*
X9925140Y63064571D01*
X9984973Y63067436D01*
X10025487Y63080752D01*
X10063494Y63111600D01*
X10081934Y63130618D01*
X10144224Y63196665D01*
X10234946Y63154174D01*
X10286810Y63128104D01*
X10323732Y63106235D01*
X10334817Y63096876D01*
X10331219Y63071211D01*
X10304568Y63031745D01*
X10261547Y62985472D01*
X10208839Y62939384D01*
X10153128Y62900476D01*
X10139874Y62892886D01*
X10034954Y62852822D01*
X9914212Y62833762D01*
X9792270Y62836967D01*
X9706428Y62855507D01*
X9596460Y62909716D01*
X9505355Y62994070D01*
X9440622Y63095751D01*
X9414730Y63154083D01*
X9399455Y63207024D01*
X9392166Y63268197D01*
X9390228Y63351224D01*
X9390224Y63356466D01*
X9391745Y63439199D01*
X9398148Y63499179D01*
X9412194Y63549873D01*
X9436646Y63604753D01*
X9444193Y63619699D01*
X9514604Y63723781D01*
X9605132Y63805217D01*
X9708677Y63857924D01*
X9729870Y63864360D01*
X9825830Y63879286D01*
X9933862Y63878796D01*
G37*
X20490663Y64242092D02*
X20615036Y64222657D01*
X20667844Y64208608D01*
X20817363Y64143394D01*
X20948457Y64048837D01*
X21058517Y63928252D01*
X21144937Y63784952D01*
X21205109Y63622251D01*
X21230997Y63492868D01*
X21241633Y63298343D01*
X21220671Y63115444D01*
X21168830Y62947125D01*
X21086827Y62796342D01*
X21049782Y62746576D01*
X20926105Y62620853D01*
X20782981Y62524560D01*
X20623940Y62459039D01*
X20452512Y62425635D01*
X20272228Y62425693D01*
X20222715Y62431588D01*
X20069463Y62471246D01*
X19931160Y62541836D01*
X19811761Y62639706D01*
X19715223Y62761208D01*
X19645504Y62902692D01*
X19620080Y62987464D01*
X19597558Y63082714D01*
X20025406Y63082714D01*
X20045431Y63003190D01*
X20080372Y62926830D01*
X20139267Y62858382D01*
X20210973Y62809450D01*
X20243225Y62797227D01*
X20288607Y62789676D01*
X20353601Y62784768D01*
X20403430Y62783663D01*
X20512061Y62798055D01*
X20602656Y62842015D01*
X20678732Y62917712D01*
X20717714Y62977228D01*
X20765243Y63087121D01*
X20793892Y63211595D01*
X20804233Y63343090D01*
X20796837Y63474048D01*
X20772276Y63596909D01*
X20731121Y63704115D01*
X20673946Y63788105D01*
X20654987Y63806571D01*
X20565483Y63862204D01*
X20459325Y63891149D01*
X20345370Y63892526D01*
X20232472Y63865452D01*
X20200462Y63851806D01*
X20139718Y63808252D01*
X20086647Y63744815D01*
X20051726Y63675371D01*
X20044680Y63645521D01*
X20047127Y63611198D01*
X20073096Y63594725D01*
X20089231Y63591092D01*
X20108984Y63586251D01*
X20117418Y63577984D01*
X20111666Y63561932D01*
X20088859Y63533738D01*
X20046131Y63489041D01*
X19980614Y63423484D01*
X19975838Y63418735D01*
X19812000Y63255828D01*
X19648120Y63418735D01*
X19484239Y63581643D01*
X19543798Y63590714D01*
X19582150Y63600831D01*
X19605464Y63623297D01*
X19623522Y63668733D01*
X19627339Y63681429D01*
X19690988Y63848308D01*
X19775613Y63985870D01*
X19881946Y64094910D01*
X20010719Y64176223D01*
X20122314Y64219445D01*
X20230321Y64240763D01*
X20357764Y64248219D01*
X20490663Y64242092D01*
G36*
X20490663Y64242092D02*
G01*
X20615036Y64222657D01*
X20667844Y64208608D01*
X20817363Y64143394D01*
X20948457Y64048837D01*
X21058517Y63928252D01*
X21144937Y63784952D01*
X21205109Y63622251D01*
X21230997Y63492868D01*
X21241633Y63298343D01*
X21220671Y63115444D01*
X21168830Y62947125D01*
X21086827Y62796342D01*
X21049782Y62746576D01*
X20926105Y62620853D01*
X20782981Y62524560D01*
X20623940Y62459039D01*
X20452512Y62425635D01*
X20272228Y62425693D01*
X20222715Y62431588D01*
X20069463Y62471246D01*
X19931160Y62541836D01*
X19811761Y62639706D01*
X19715223Y62761208D01*
X19645504Y62902692D01*
X19620080Y62987464D01*
X19597558Y63082714D01*
X20025406Y63082714D01*
X20045431Y63003190D01*
X20080372Y62926830D01*
X20139267Y62858382D01*
X20210973Y62809450D01*
X20243225Y62797227D01*
X20288607Y62789676D01*
X20353601Y62784768D01*
X20403430Y62783663D01*
X20512061Y62798055D01*
X20602656Y62842015D01*
X20678732Y62917712D01*
X20717714Y62977228D01*
X20765243Y63087121D01*
X20793892Y63211595D01*
X20804233Y63343090D01*
X20796837Y63474048D01*
X20772276Y63596909D01*
X20731121Y63704115D01*
X20673946Y63788105D01*
X20654987Y63806571D01*
X20565483Y63862204D01*
X20459325Y63891149D01*
X20345370Y63892526D01*
X20232472Y63865452D01*
X20200462Y63851806D01*
X20139718Y63808252D01*
X20086647Y63744815D01*
X20051726Y63675371D01*
X20044680Y63645521D01*
X20047127Y63611198D01*
X20073096Y63594725D01*
X20089231Y63591092D01*
X20108984Y63586251D01*
X20117418Y63577984D01*
X20111666Y63561932D01*
X20088859Y63533738D01*
X20046131Y63489041D01*
X19980614Y63423484D01*
X19975838Y63418735D01*
X19812000Y63255828D01*
X19648120Y63418735D01*
X19484239Y63581643D01*
X19543798Y63590714D01*
X19582150Y63600831D01*
X19605464Y63623297D01*
X19623522Y63668733D01*
X19627339Y63681429D01*
X19690988Y63848308D01*
X19775613Y63985870D01*
X19881946Y64094910D01*
X20010719Y64176223D01*
X20122314Y64219445D01*
X20230321Y64240763D01*
X20357764Y64248219D01*
X20490663Y64242092D01*
G37*
X9649452Y65038688D02*
X9847725Y64997538D01*
X9886947Y64985777D01*
X10110600Y64896512D01*
X10319349Y64777256D01*
X10509466Y64631324D01*
X10677224Y64462031D01*
X10818896Y64272692D01*
X10930755Y64066624D01*
X10937569Y64051206D01*
X11014890Y63831242D01*
X11061461Y63601325D01*
X11077699Y63366644D01*
X11064018Y63132389D01*
X11020832Y62903749D01*
X10948558Y62685914D01*
X10847610Y62484073D01*
X10807158Y62420500D01*
X10659482Y62232501D01*
X10487962Y62067952D01*
X10296515Y61928484D01*
X10089059Y61815727D01*
X9869508Y61731313D01*
X9641781Y61676872D01*
X9409793Y61654037D01*
X9177461Y61664437D01*
X9044214Y61686316D01*
X8797817Y61755686D01*
X8570250Y61856029D01*
X8362147Y61986929D01*
X8174147Y62147970D01*
X8006887Y62338736D01*
X7971217Y62387053D01*
X7849062Y62588493D01*
X7757556Y62805552D01*
X7697224Y63033617D01*
X7668591Y63268077D01*
X7670359Y63384407D01*
X7976428Y63384407D01*
X7988262Y63176462D01*
X8032908Y62971201D01*
X8110584Y62771871D01*
X8221504Y62581720D01*
X8279075Y62504090D01*
X8425697Y62347391D01*
X8597365Y62212558D01*
X8787330Y62103972D01*
X8988840Y62026019D01*
X9035143Y62013133D01*
X9179770Y61987028D01*
X9342004Y61976299D01*
X9507053Y61980936D01*
X9660124Y62000927D01*
X9716419Y62013671D01*
X9869551Y62065542D01*
X10028941Y62140164D01*
X10180515Y62230235D01*
X10290193Y62311403D01*
X10443816Y62461736D01*
X10569176Y62632302D01*
X10665275Y62819389D01*
X10731110Y63019284D01*
X10765683Y63228274D01*
X10767992Y63442647D01*
X10737039Y63658689D01*
X10694254Y63811252D01*
X10621027Y63985176D01*
X10522761Y64145571D01*
X10394733Y64299713D01*
X10342849Y64352714D01*
X10174604Y64496003D01*
X9993645Y64606195D01*
X9797463Y64684404D01*
X9583551Y64731743D01*
X9458553Y64744946D01*
X9235060Y64742882D01*
X9019847Y64706056D01*
X8815546Y64635450D01*
X8624792Y64532049D01*
X8450218Y64396834D01*
X8401894Y64350712D01*
X8252903Y64178066D01*
X8135645Y63991865D01*
X8050336Y63795356D01*
X7997191Y63591788D01*
X7976428Y63384407D01*
X7670359Y63384407D01*
X7672183Y63504323D01*
X7708524Y63737741D01*
X7778141Y63963721D01*
X7788648Y63989857D01*
X7898284Y64210412D01*
X8036148Y64412041D01*
X8199087Y64591727D01*
X8383946Y64746451D01*
X8587573Y64873196D01*
X8806813Y64968945D01*
X8814695Y64971686D01*
X9008384Y65022898D01*
X9219157Y65051229D01*
X9436387Y65056539D01*
X9649452Y65038688D01*
G36*
X9649452Y65038688D02*
G01*
X9847725Y64997538D01*
X9886947Y64985777D01*
X10110600Y64896512D01*
X10319349Y64777256D01*
X10509466Y64631324D01*
X10677224Y64462031D01*
X10818896Y64272692D01*
X10930755Y64066624D01*
X10937569Y64051206D01*
X11014890Y63831242D01*
X11061461Y63601325D01*
X11077699Y63366644D01*
X11064018Y63132389D01*
X11020832Y62903749D01*
X10948558Y62685914D01*
X10847610Y62484073D01*
X10807158Y62420500D01*
X10659482Y62232501D01*
X10487962Y62067952D01*
X10296515Y61928484D01*
X10089059Y61815727D01*
X9869508Y61731313D01*
X9641781Y61676872D01*
X9409793Y61654037D01*
X9177461Y61664437D01*
X9044214Y61686316D01*
X8797817Y61755686D01*
X8570250Y61856029D01*
X8362147Y61986929D01*
X8174147Y62147970D01*
X8006887Y62338736D01*
X7971217Y62387053D01*
X7849062Y62588493D01*
X7757556Y62805552D01*
X7697224Y63033617D01*
X7668591Y63268077D01*
X7670359Y63384407D01*
X7976428Y63384407D01*
X7988262Y63176462D01*
X8032908Y62971201D01*
X8110584Y62771871D01*
X8221504Y62581720D01*
X8279075Y62504090D01*
X8425697Y62347391D01*
X8597365Y62212558D01*
X8787330Y62103972D01*
X8988840Y62026019D01*
X9035143Y62013133D01*
X9179770Y61987028D01*
X9342004Y61976299D01*
X9507053Y61980936D01*
X9660124Y62000927D01*
X9716419Y62013671D01*
X9869551Y62065542D01*
X10028941Y62140164D01*
X10180515Y62230235D01*
X10290193Y62311403D01*
X10443816Y62461736D01*
X10569176Y62632302D01*
X10665275Y62819389D01*
X10731110Y63019284D01*
X10765683Y63228274D01*
X10767992Y63442647D01*
X10737039Y63658689D01*
X10694254Y63811252D01*
X10621027Y63985176D01*
X10522761Y64145571D01*
X10394733Y64299713D01*
X10342849Y64352714D01*
X10174604Y64496003D01*
X9993645Y64606195D01*
X9797463Y64684404D01*
X9583551Y64731743D01*
X9458553Y64744946D01*
X9235060Y64742882D01*
X9019847Y64706056D01*
X8815546Y64635450D01*
X8624792Y64532049D01*
X8450218Y64396834D01*
X8401894Y64350712D01*
X8252903Y64178066D01*
X8135645Y63991865D01*
X8050336Y63795356D01*
X7997191Y63591788D01*
X7976428Y63384407D01*
X7670359Y63384407D01*
X7672183Y63504323D01*
X7708524Y63737741D01*
X7778141Y63963721D01*
X7788648Y63989857D01*
X7898284Y64210412D01*
X8036148Y64412041D01*
X8199087Y64591727D01*
X8383946Y64746451D01*
X8587573Y64873196D01*
X8806813Y64968945D01*
X8814695Y64971686D01*
X9008384Y65022898D01*
X9219157Y65051229D01*
X9436387Y65056539D01*
X9649452Y65038688D01*
G37*
X20529842Y65050935D02*
X20774989Y65011490D01*
X20909643Y64974909D01*
X21128262Y64887938D01*
X21333607Y64768684D01*
X21522296Y64619777D01*
X21690945Y64443844D01*
X21821883Y64265993D01*
X21930921Y64064595D01*
X22009769Y63847874D01*
X22058461Y63620583D01*
X22077029Y63387479D01*
X22065508Y63153318D01*
X22023931Y62922856D01*
X21952330Y62700847D01*
X21850740Y62492049D01*
X21808976Y62424302D01*
X21670165Y62243432D01*
X21503386Y62079691D01*
X21314571Y61937275D01*
X21109655Y61820385D01*
X20894573Y61733218D01*
X20789782Y61703247D01*
X20622154Y61672422D01*
X20440777Y61657276D01*
X20259261Y61658121D01*
X20091217Y61675267D01*
X20034340Y61685988D01*
X19800487Y61751789D01*
X19588088Y61843978D01*
X19392181Y61965356D01*
X19207806Y62118722D01*
X19129165Y62196946D01*
X18970735Y62387322D01*
X18845368Y62592569D01*
X18753291Y62812121D01*
X18694730Y63045411D01*
X18669911Y63291870D01*
X18669000Y63350760D01*
X18669835Y63365047D01*
X18980254Y63365047D01*
X18983758Y63226146D01*
X18997720Y63102329D01*
X19003659Y63071645D01*
X19065645Y62868350D01*
X19158913Y62677645D01*
X19279897Y62502800D01*
X19425033Y62347082D01*
X19590755Y62213759D01*
X19773498Y62106100D01*
X19969698Y62027374D01*
X20175789Y61980847D01*
X20196499Y61978128D01*
X20354350Y61969321D01*
X20523778Y61977781D01*
X20685203Y62002249D01*
X20728071Y62012249D01*
X20915878Y62077601D01*
X21098622Y62174018D01*
X21269435Y62296321D01*
X21421449Y62439335D01*
X21547794Y62597883D01*
X21586552Y62659261D01*
X21672562Y62839341D01*
X21731816Y63037351D01*
X21763311Y63245655D01*
X21766043Y63456619D01*
X21739007Y63662610D01*
X21725866Y63718744D01*
X21658893Y63908577D01*
X21560334Y64090408D01*
X21434816Y64258598D01*
X21286960Y64407507D01*
X21121392Y64531496D01*
X21006519Y64596027D01*
X20876285Y64655756D01*
X20761460Y64697260D01*
X20649443Y64723436D01*
X20527632Y64737183D01*
X20383424Y64741400D01*
X20374428Y64741413D01*
X20197795Y64734192D01*
X20043248Y64710577D01*
X19899251Y64667820D01*
X19754269Y64603173D01*
X19721285Y64585842D01*
X19541817Y64469421D01*
X19379049Y64324294D01*
X19237505Y64155938D01*
X19121708Y63969828D01*
X19036180Y63771441D01*
X19027965Y63746438D01*
X19002811Y63637774D01*
X18986756Y63506449D01*
X18980254Y63365047D01*
X18669835Y63365047D01*
X18683302Y63595432D01*
X18727255Y63821631D01*
X18802430Y64033866D01*
X18910396Y64236645D01*
X19041697Y64420804D01*
X19208783Y64601665D01*
X19396058Y64753734D01*
X19600512Y64876119D01*
X19819129Y64967925D01*
X20048899Y65028259D01*
X20286807Y65056227D01*
X20529842Y65050935D01*
G36*
X20529842Y65050935D02*
G01*
X20774989Y65011490D01*
X20909643Y64974909D01*
X21128262Y64887938D01*
X21333607Y64768684D01*
X21522296Y64619777D01*
X21690945Y64443844D01*
X21821883Y64265993D01*
X21930921Y64064595D01*
X22009769Y63847874D01*
X22058461Y63620583D01*
X22077029Y63387479D01*
X22065508Y63153318D01*
X22023931Y62922856D01*
X21952330Y62700847D01*
X21850740Y62492049D01*
X21808976Y62424302D01*
X21670165Y62243432D01*
X21503386Y62079691D01*
X21314571Y61937275D01*
X21109655Y61820385D01*
X20894573Y61733218D01*
X20789782Y61703247D01*
X20622154Y61672422D01*
X20440777Y61657276D01*
X20259261Y61658121D01*
X20091217Y61675267D01*
X20034340Y61685988D01*
X19800487Y61751789D01*
X19588088Y61843978D01*
X19392181Y61965356D01*
X19207806Y62118722D01*
X19129165Y62196946D01*
X18970735Y62387322D01*
X18845368Y62592569D01*
X18753291Y62812121D01*
X18694730Y63045411D01*
X18669911Y63291870D01*
X18669000Y63350760D01*
X18669835Y63365047D01*
X18980254Y63365047D01*
X18983758Y63226146D01*
X18997720Y63102329D01*
X19003659Y63071645D01*
X19065645Y62868350D01*
X19158913Y62677645D01*
X19279897Y62502800D01*
X19425033Y62347082D01*
X19590755Y62213759D01*
X19773498Y62106100D01*
X19969698Y62027374D01*
X20175789Y61980847D01*
X20196499Y61978128D01*
X20354350Y61969321D01*
X20523778Y61977781D01*
X20685203Y62002249D01*
X20728071Y62012249D01*
X20915878Y62077601D01*
X21098622Y62174018D01*
X21269435Y62296321D01*
X21421449Y62439335D01*
X21547794Y62597883D01*
X21586552Y62659261D01*
X21672562Y62839341D01*
X21731816Y63037351D01*
X21763311Y63245655D01*
X21766043Y63456619D01*
X21739007Y63662610D01*
X21725866Y63718744D01*
X21658893Y63908577D01*
X21560334Y64090408D01*
X21434816Y64258598D01*
X21286960Y64407507D01*
X21121392Y64531496D01*
X21006519Y64596027D01*
X20876285Y64655756D01*
X20761460Y64697260D01*
X20649443Y64723436D01*
X20527632Y64737183D01*
X20383424Y64741400D01*
X20374428Y64741413D01*
X20197795Y64734192D01*
X20043248Y64710577D01*
X19899251Y64667820D01*
X19754269Y64603173D01*
X19721285Y64585842D01*
X19541817Y64469421D01*
X19379049Y64324294D01*
X19237505Y64155938D01*
X19121708Y63969828D01*
X19036180Y63771441D01*
X19027965Y63746438D01*
X19002811Y63637774D01*
X18986756Y63506449D01*
X18980254Y63365047D01*
X18669835Y63365047D01*
X18683302Y63595432D01*
X18727255Y63821631D01*
X18802430Y64033866D01*
X18910396Y64236645D01*
X19041697Y64420804D01*
X19208783Y64601665D01*
X19396058Y64753734D01*
X19600512Y64876119D01*
X19819129Y64967925D01*
X20048899Y65028259D01*
X20286807Y65056227D01*
X20529842Y65050935D01*
G37*
X13222857Y65049260D02*
X13455921Y65010746D01*
X13679231Y64941814D01*
X13872167Y64851224D01*
X14079262Y64715441D01*
X14262630Y64554093D01*
X14420030Y64370087D01*
X14549226Y64166329D01*
X14647976Y63945727D01*
X14699088Y63777610D01*
X14724319Y63637319D01*
X14738147Y63475480D01*
X14740565Y63304790D01*
X14731568Y63137943D01*
X14711151Y62987638D01*
X14699485Y62933775D01*
X14628129Y62710480D01*
X14528260Y62506700D01*
X14397477Y62318295D01*
X14248220Y62155400D01*
X14052796Y61988694D01*
X13843216Y61855074D01*
X13617543Y61753458D01*
X13421278Y61693783D01*
X13320423Y61675798D01*
X13196220Y61663765D01*
X13061166Y61658003D01*
X12927759Y61658830D01*
X12808495Y61666564D01*
X12739315Y61676412D01*
X12507869Y61735672D01*
X12296246Y61821934D01*
X12099791Y61937751D01*
X11913853Y62085679D01*
X11808956Y62187236D01*
X11650714Y62371494D01*
X11526130Y62564078D01*
X11432803Y62769259D01*
X11376269Y62956711D01*
X11357083Y63066273D01*
X11344683Y63199119D01*
X11339246Y63343325D01*
X11339329Y63350393D01*
X11647833Y63350393D01*
X11654785Y63194345D01*
X11675872Y63053571D01*
X11681759Y63028587D01*
X11751796Y62824107D01*
X11854177Y62631270D01*
X11985546Y62455233D01*
X12142544Y62301154D01*
X12169754Y62278934D01*
X12281294Y62195202D01*
X12382413Y62131836D01*
X12486187Y62081558D01*
X12602068Y62038301D01*
X12806010Y61988027D01*
X13020315Y61968880D01*
X13236231Y61981145D01*
X13398357Y62012249D01*
X13587539Y62078204D01*
X13769961Y62175344D01*
X13939741Y62298829D01*
X14090997Y62443816D01*
X14217847Y62605464D01*
X14305063Y62758597D01*
X14358638Y62883046D01*
X14395418Y62998441D01*
X14417965Y63116930D01*
X14428841Y63250658D01*
X14430875Y63354857D01*
X14427507Y63499899D01*
X14414754Y63621906D01*
X14389699Y63733547D01*
X14349428Y63847491D01*
X14291025Y63976408D01*
X14285040Y63988647D01*
X14244667Y64066833D01*
X14205559Y64131067D01*
X14160552Y64190893D01*
X14102483Y64255857D01*
X14026346Y64333361D01*
X13932358Y64423032D01*
X13851310Y64491049D01*
X13774057Y64544551D01*
X13706750Y64582794D01*
X13498782Y64671860D01*
X13282369Y64727014D01*
X13061566Y64747956D01*
X12840423Y64734389D01*
X12622993Y64686013D01*
X12565655Y64667018D01*
X12382441Y64583550D01*
X12209247Y64469050D01*
X12050817Y64328386D01*
X11911898Y64166426D01*
X11797236Y63988039D01*
X11711576Y63798093D01*
X11707585Y63786789D01*
X11674653Y63658953D01*
X11654596Y63509375D01*
X11647833Y63350393D01*
X11339329Y63350393D01*
X11340948Y63486967D01*
X11349964Y63618120D01*
X11365011Y63718158D01*
X11431124Y63944279D01*
X11529819Y64159611D01*
X11658072Y64360354D01*
X11812858Y64542705D01*
X11991153Y64702863D01*
X12189931Y64837024D01*
X12302022Y64896035D01*
X12519621Y64980745D01*
X12749258Y65034415D01*
X12985486Y65057202D01*
X13222857Y65049260D01*
G36*
X13222857Y65049260D02*
G01*
X13455921Y65010746D01*
X13679231Y64941814D01*
X13872167Y64851224D01*
X14079262Y64715441D01*
X14262630Y64554093D01*
X14420030Y64370087D01*
X14549226Y64166329D01*
X14647976Y63945727D01*
X14699088Y63777610D01*
X14724319Y63637319D01*
X14738147Y63475480D01*
X14740565Y63304790D01*
X14731568Y63137943D01*
X14711151Y62987638D01*
X14699485Y62933775D01*
X14628129Y62710480D01*
X14528260Y62506700D01*
X14397477Y62318295D01*
X14248220Y62155400D01*
X14052796Y61988694D01*
X13843216Y61855074D01*
X13617543Y61753458D01*
X13421278Y61693783D01*
X13320423Y61675798D01*
X13196220Y61663765D01*
X13061166Y61658003D01*
X12927759Y61658830D01*
X12808495Y61666564D01*
X12739315Y61676412D01*
X12507869Y61735672D01*
X12296246Y61821934D01*
X12099791Y61937751D01*
X11913853Y62085679D01*
X11808956Y62187236D01*
X11650714Y62371494D01*
X11526130Y62564078D01*
X11432803Y62769259D01*
X11376269Y62956711D01*
X11357083Y63066273D01*
X11344683Y63199119D01*
X11339246Y63343325D01*
X11339329Y63350393D01*
X11647833Y63350393D01*
X11654785Y63194345D01*
X11675872Y63053571D01*
X11681759Y63028587D01*
X11751796Y62824107D01*
X11854177Y62631270D01*
X11985546Y62455233D01*
X12142544Y62301154D01*
X12169754Y62278934D01*
X12281294Y62195202D01*
X12382413Y62131836D01*
X12486187Y62081558D01*
X12602068Y62038301D01*
X12806010Y61988027D01*
X13020315Y61968880D01*
X13236231Y61981145D01*
X13398357Y62012249D01*
X13587539Y62078204D01*
X13769961Y62175344D01*
X13939741Y62298829D01*
X14090997Y62443816D01*
X14217847Y62605464D01*
X14305063Y62758597D01*
X14358638Y62883046D01*
X14395418Y62998441D01*
X14417965Y63116930D01*
X14428841Y63250658D01*
X14430875Y63354857D01*
X14427507Y63499899D01*
X14414754Y63621906D01*
X14389699Y63733547D01*
X14349428Y63847491D01*
X14291025Y63976408D01*
X14285040Y63988647D01*
X14244667Y64066833D01*
X14205559Y64131067D01*
X14160552Y64190893D01*
X14102483Y64255857D01*
X14026346Y64333361D01*
X13932358Y64423032D01*
X13851310Y64491049D01*
X13774057Y64544551D01*
X13706750Y64582794D01*
X13498782Y64671860D01*
X13282369Y64727014D01*
X13061566Y64747956D01*
X12840423Y64734389D01*
X12622993Y64686013D01*
X12565655Y64667018D01*
X12382441Y64583550D01*
X12209247Y64469050D01*
X12050817Y64328386D01*
X11911898Y64166426D01*
X11797236Y63988039D01*
X11711576Y63798093D01*
X11707585Y63786789D01*
X11674653Y63658953D01*
X11654596Y63509375D01*
X11647833Y63350393D01*
X11339329Y63350393D01*
X11340948Y63486967D01*
X11349964Y63618120D01*
X11365011Y63718158D01*
X11431124Y63944279D01*
X11529819Y64159611D01*
X11658072Y64360354D01*
X11812858Y64542705D01*
X11991153Y64702863D01*
X12189931Y64837024D01*
X12302022Y64896035D01*
X12519621Y64980745D01*
X12749258Y65034415D01*
X12985486Y65057202D01*
X13222857Y65049260D01*
G37*
X16863497Y65050952D02*
X17098964Y65013843D01*
X17325241Y64946957D01*
X17536838Y64850988D01*
X17640126Y64789245D01*
X17839099Y64638197D01*
X18011477Y64463769D01*
X18155565Y64268326D01*
X18269670Y64054233D01*
X18352097Y63823855D01*
X18363902Y63778983D01*
X18389828Y63635819D01*
X18403851Y63471346D01*
X18405966Y63298358D01*
X18396170Y63129650D01*
X18374455Y62978016D01*
X18364228Y62932104D01*
X18294023Y62711986D01*
X18196718Y62511850D01*
X18069384Y62326698D01*
X17909096Y62151532D01*
X17904444Y62147048D01*
X17738178Y62001851D01*
X17570865Y61886749D01*
X17393883Y61796351D01*
X17263276Y61746124D01*
X17034011Y61685474D01*
X16796941Y61655744D01*
X16560738Y61657621D01*
X16401143Y61678000D01*
X16175831Y61736619D01*
X15959807Y61827450D01*
X15756824Y61947226D01*
X15570631Y62092679D01*
X15404980Y62260542D01*
X15263622Y62447547D01*
X15150308Y62650426D01*
X15080183Y62828714D01*
X15046458Y62943890D01*
X15023760Y63049670D01*
X15010773Y63157195D01*
X15006183Y63277610D01*
X15007609Y63360347D01*
X15312886Y63360347D01*
X15321432Y63183972D01*
X15348328Y63027589D01*
X15396478Y62878357D01*
X15447379Y62765214D01*
X15564747Y62566895D01*
X15706631Y62395255D01*
X15873726Y62249601D01*
X16066726Y62129239D01*
X16103985Y62110346D01*
X16215604Y62059081D01*
X16315625Y62022556D01*
X16414093Y61998810D01*
X16521052Y61985885D01*
X16646548Y61981818D01*
X16754928Y61983299D01*
X16870783Y61987538D01*
X16959421Y61994127D01*
X17029889Y62004206D01*
X17091236Y62018913D01*
X17126465Y62030103D01*
X17291452Y62094957D01*
X17434614Y62171399D01*
X17567674Y62266738D01*
X17702352Y62388283D01*
X17705005Y62390895D01*
X17783337Y62472332D01*
X17846461Y62546332D01*
X17891432Y62608785D01*
X17915307Y62655579D01*
X17915142Y62682604D01*
X17914431Y62683381D01*
X17893710Y62695268D01*
X17846457Y62718456D01*
X17779282Y62749988D01*
X17698792Y62786903D01*
X17611595Y62826242D01*
X17524300Y62865045D01*
X17443516Y62900354D01*
X17375849Y62929208D01*
X17327909Y62948648D01*
X17306347Y62955714D01*
X17292463Y62940469D01*
X17275458Y62903274D01*
X17273700Y62898365D01*
X17220869Y62799762D01*
X17138408Y62714383D01*
X17031931Y62646825D01*
X16913208Y62603225D01*
X16827500Y62581306D01*
X16825376Y62455546D01*
X16823253Y62329786D01*
X16627928Y62329786D01*
X16617358Y62588340D01*
X16510666Y62600411D01*
X16415675Y62621560D01*
X16310910Y62661186D01*
X16212461Y62712317D01*
X16148366Y62757403D01*
X16104231Y62794539D01*
X16224851Y62915159D01*
X16345471Y63035778D01*
X16387140Y62996633D01*
X16458844Y62946180D01*
X16547433Y62908738D01*
X16643297Y62885921D01*
X16736826Y62879343D01*
X16818408Y62890618D01*
X16871083Y62915371D01*
X16900772Y62943939D01*
X16914706Y62980233D01*
X16918214Y63038263D01*
X16918214Y63039280D01*
X16916109Y63093870D01*
X16905140Y63125487D01*
X16878323Y63147395D01*
X16854714Y63159898D01*
X16803855Y63184354D01*
X16728545Y63219095D01*
X16632873Y63262346D01*
X16520926Y63312330D01*
X16396793Y63367272D01*
X16264560Y63425397D01*
X16128315Y63484929D01*
X15992145Y63544093D01*
X15860140Y63601113D01*
X15736385Y63654213D01*
X15624969Y63701618D01*
X15529980Y63741552D01*
X15455505Y63772240D01*
X15405631Y63791906D01*
X15384446Y63798775D01*
X15384079Y63798700D01*
X15368594Y63772671D01*
X15352846Y63718314D01*
X15338123Y63643558D01*
X15325712Y63556325D01*
X15316899Y63464544D01*
X15312974Y63376139D01*
X15312886Y63360347D01*
X15007609Y63360347D01*
X15008673Y63422056D01*
X15009016Y63431632D01*
X15029045Y63661086D01*
X15072987Y63867986D01*
X15143269Y64059021D01*
X15180729Y64127798D01*
X15548630Y64127798D01*
X15564166Y64111069D01*
X15604722Y64086385D01*
X15661544Y64059068D01*
X15662022Y64058861D01*
X15725491Y64031202D01*
X15810129Y63994009D01*
X15903976Y63952548D01*
X15979374Y63919080D01*
X16183534Y63828224D01*
X16220260Y63900213D01*
X16285479Y63988262D01*
X16381788Y64058016D01*
X16508796Y64109222D01*
X16568964Y64124645D01*
X16595079Y64132245D01*
X16609997Y64146300D01*
X16616850Y64175453D01*
X16618769Y64228343D01*
X16618857Y64262346D01*
X16618857Y64389000D01*
X16818428Y64389000D01*
X16818428Y64136644D01*
X16886464Y64125492D01*
X16969114Y64106338D01*
X17057444Y64076976D01*
X17138314Y64042466D01*
X17198584Y64007867D01*
X17205385Y64002703D01*
X17255383Y63962643D01*
X17036621Y63746537D01*
X16950696Y63788283D01*
X16858013Y63822818D01*
X16765475Y63838989D01*
X16679922Y63837512D01*
X16608195Y63819104D01*
X16557134Y63784481D01*
X16535560Y63744796D01*
X16531920Y63703936D01*
X16539450Y63681027D01*
X16559220Y63670221D01*
X16608075Y63646733D01*
X16681903Y63612390D01*
X16776596Y63569024D01*
X16888046Y63518462D01*
X17012142Y63462536D01*
X17144775Y63403073D01*
X17281837Y63341904D01*
X17419218Y63280858D01*
X17552809Y63221764D01*
X17678501Y63166453D01*
X17792184Y63116752D01*
X17889750Y63074492D01*
X17967089Y63041502D01*
X18020091Y63019612D01*
X18044649Y63010651D01*
X18045492Y63010531D01*
X18063742Y63025817D01*
X18076829Y63060036D01*
X18099011Y63222265D01*
X18101527Y63400907D01*
X18085174Y63582412D01*
X18050753Y63753230D01*
X18032303Y63814931D01*
X17957341Y63987798D01*
X17851572Y64155210D01*
X17720473Y64311372D01*
X17569522Y64450488D01*
X17404195Y64566762D01*
X17244748Y64648307D01*
X17042792Y64714028D01*
X16831543Y64747100D01*
X16616563Y64747978D01*
X16403415Y64717119D01*
X16197661Y64654978D01*
X16004866Y64562011D01*
X15975601Y64544312D01*
X15919957Y64505024D01*
X15853994Y64451380D01*
X15783194Y64388730D01*
X15713044Y64322424D01*
X15649028Y64257813D01*
X15596631Y64200246D01*
X15561338Y64155075D01*
X15548630Y64127798D01*
X15180729Y64127798D01*
X15242319Y64240877D01*
X15364043Y64409698D01*
X15510739Y64570408D01*
X15677283Y64714616D01*
X15856318Y64837061D01*
X16040489Y64932483D01*
X16156846Y64976681D01*
X16386949Y65033064D01*
X16624329Y65057590D01*
X16863497Y65050952D01*
G36*
X16863497Y65050952D02*
G01*
X17098964Y65013843D01*
X17325241Y64946957D01*
X17536838Y64850988D01*
X17640126Y64789245D01*
X17839099Y64638197D01*
X18011477Y64463769D01*
X18155565Y64268326D01*
X18269670Y64054233D01*
X18352097Y63823855D01*
X18363902Y63778983D01*
X18389828Y63635819D01*
X18403851Y63471346D01*
X18405966Y63298358D01*
X18396170Y63129650D01*
X18374455Y62978016D01*
X18364228Y62932104D01*
X18294023Y62711986D01*
X18196718Y62511850D01*
X18069384Y62326698D01*
X17909096Y62151532D01*
X17904444Y62147048D01*
X17738178Y62001851D01*
X17570865Y61886749D01*
X17393883Y61796351D01*
X17263276Y61746124D01*
X17034011Y61685474D01*
X16796941Y61655744D01*
X16560738Y61657621D01*
X16401143Y61678000D01*
X16175831Y61736619D01*
X15959807Y61827450D01*
X15756824Y61947226D01*
X15570631Y62092679D01*
X15404980Y62260542D01*
X15263622Y62447547D01*
X15150308Y62650426D01*
X15080183Y62828714D01*
X15046458Y62943890D01*
X15023760Y63049670D01*
X15010773Y63157195D01*
X15006183Y63277610D01*
X15007609Y63360347D01*
X15312886Y63360347D01*
X15321432Y63183972D01*
X15348328Y63027589D01*
X15396478Y62878357D01*
X15447379Y62765214D01*
X15564747Y62566895D01*
X15706631Y62395255D01*
X15873726Y62249601D01*
X16066726Y62129239D01*
X16103985Y62110346D01*
X16215604Y62059081D01*
X16315625Y62022556D01*
X16414093Y61998810D01*
X16521052Y61985885D01*
X16646548Y61981818D01*
X16754928Y61983299D01*
X16870783Y61987538D01*
X16959421Y61994127D01*
X17029889Y62004206D01*
X17091236Y62018913D01*
X17126465Y62030103D01*
X17291452Y62094957D01*
X17434614Y62171399D01*
X17567674Y62266738D01*
X17702352Y62388283D01*
X17705005Y62390895D01*
X17783337Y62472332D01*
X17846461Y62546332D01*
X17891432Y62608785D01*
X17915307Y62655579D01*
X17915142Y62682604D01*
X17914431Y62683381D01*
X17893710Y62695268D01*
X17846457Y62718456D01*
X17779282Y62749988D01*
X17698792Y62786903D01*
X17611595Y62826242D01*
X17524300Y62865045D01*
X17443516Y62900354D01*
X17375849Y62929208D01*
X17327909Y62948648D01*
X17306347Y62955714D01*
X17292463Y62940469D01*
X17275458Y62903274D01*
X17273700Y62898365D01*
X17220869Y62799762D01*
X17138408Y62714383D01*
X17031931Y62646825D01*
X16913208Y62603225D01*
X16827500Y62581306D01*
X16825376Y62455546D01*
X16823253Y62329786D01*
X16627928Y62329786D01*
X16617358Y62588340D01*
X16510666Y62600411D01*
X16415675Y62621560D01*
X16310910Y62661186D01*
X16212461Y62712317D01*
X16148366Y62757403D01*
X16104231Y62794539D01*
X16224851Y62915159D01*
X16345471Y63035778D01*
X16387140Y62996633D01*
X16458844Y62946180D01*
X16547433Y62908738D01*
X16643297Y62885921D01*
X16736826Y62879343D01*
X16818408Y62890618D01*
X16871083Y62915371D01*
X16900772Y62943939D01*
X16914706Y62980233D01*
X16918214Y63038263D01*
X16918214Y63039280D01*
X16916109Y63093870D01*
X16905140Y63125487D01*
X16878323Y63147395D01*
X16854714Y63159898D01*
X16803855Y63184354D01*
X16728545Y63219095D01*
X16632873Y63262346D01*
X16520926Y63312330D01*
X16396793Y63367272D01*
X16264560Y63425397D01*
X16128315Y63484929D01*
X15992145Y63544093D01*
X15860140Y63601113D01*
X15736385Y63654213D01*
X15624969Y63701618D01*
X15529980Y63741552D01*
X15455505Y63772240D01*
X15405631Y63791906D01*
X15384446Y63798775D01*
X15384079Y63798700D01*
X15368594Y63772671D01*
X15352846Y63718314D01*
X15338123Y63643558D01*
X15325712Y63556325D01*
X15316899Y63464544D01*
X15312974Y63376139D01*
X15312886Y63360347D01*
X15007609Y63360347D01*
X15008673Y63422056D01*
X15009016Y63431632D01*
X15029045Y63661086D01*
X15072987Y63867986D01*
X15143269Y64059021D01*
X15180729Y64127798D01*
X15548630Y64127798D01*
X15564166Y64111069D01*
X15604722Y64086385D01*
X15661544Y64059068D01*
X15662022Y64058861D01*
X15725491Y64031202D01*
X15810129Y63994009D01*
X15903976Y63952548D01*
X15979374Y63919080D01*
X16183534Y63828224D01*
X16220260Y63900213D01*
X16285479Y63988262D01*
X16381788Y64058016D01*
X16508796Y64109222D01*
X16568964Y64124645D01*
X16595079Y64132245D01*
X16609997Y64146300D01*
X16616850Y64175453D01*
X16618769Y64228343D01*
X16618857Y64262346D01*
X16618857Y64389000D01*
X16818428Y64389000D01*
X16818428Y64136644D01*
X16886464Y64125492D01*
X16969114Y64106338D01*
X17057444Y64076976D01*
X17138314Y64042466D01*
X17198584Y64007867D01*
X17205385Y64002703D01*
X17255383Y63962643D01*
X17036621Y63746537D01*
X16950696Y63788283D01*
X16858013Y63822818D01*
X16765475Y63838989D01*
X16679922Y63837512D01*
X16608195Y63819104D01*
X16557134Y63784481D01*
X16535560Y63744796D01*
X16531920Y63703936D01*
X16539450Y63681027D01*
X16559220Y63670221D01*
X16608075Y63646733D01*
X16681903Y63612390D01*
X16776596Y63569024D01*
X16888046Y63518462D01*
X17012142Y63462536D01*
X17144775Y63403073D01*
X17281837Y63341904D01*
X17419218Y63280858D01*
X17552809Y63221764D01*
X17678501Y63166453D01*
X17792184Y63116752D01*
X17889750Y63074492D01*
X17967089Y63041502D01*
X18020091Y63019612D01*
X18044649Y63010651D01*
X18045492Y63010531D01*
X18063742Y63025817D01*
X18076829Y63060036D01*
X18099011Y63222265D01*
X18101527Y63400907D01*
X18085174Y63582412D01*
X18050753Y63753230D01*
X18032303Y63814931D01*
X17957341Y63987798D01*
X17851572Y64155210D01*
X17720473Y64311372D01*
X17569522Y64450488D01*
X17404195Y64566762D01*
X17244748Y64648307D01*
X17042792Y64714028D01*
X16831543Y64747100D01*
X16616563Y64747978D01*
X16403415Y64717119D01*
X16197661Y64654978D01*
X16004866Y64562011D01*
X15975601Y64544312D01*
X15919957Y64505024D01*
X15853994Y64451380D01*
X15783194Y64388730D01*
X15713044Y64322424D01*
X15649028Y64257813D01*
X15596631Y64200246D01*
X15561338Y64155075D01*
X15548630Y64127798D01*
X15180729Y64127798D01*
X15242319Y64240877D01*
X15364043Y64409698D01*
X15510739Y64570408D01*
X15677283Y64714616D01*
X15856318Y64837061D01*
X16040489Y64932483D01*
X16156846Y64976681D01*
X16386949Y65033064D01*
X16624329Y65057590D01*
X16863497Y65050952D01*
G37*
D14*
%TO.C,C11*%
X21852836Y55605000D02*
X21637164Y55605000D01*
X21852836Y54885000D02*
X21637164Y54885000D01*
%TO.C,C12*%
X21852836Y56748000D02*
X21637164Y56748000D01*
X21852836Y56028000D02*
X21637164Y56028000D01*
%TO.C,C13*%
X5101000Y58947164D02*
X5101000Y59162836D01*
X5821000Y58947164D02*
X5821000Y59162836D01*
D17*
%TO.C,L1*%
X12592000Y5945000D02*
X11792000Y5945000D01*
X12592000Y2945000D02*
X11792000Y2945000D01*
D11*
X13992000Y4445000D02*
X13992000Y4445000D01*
X14092000Y4445000D02*
X14092000Y4445000D01*
X13992000Y4445000D02*
G75*
G02*
X14092000Y4445000I50000J0D01*
G01*
X14092000Y4445000D02*
G75*
G02*
X13992000Y4445000I-50000J0D01*
G01*
D14*
%TO.C,U2*%
X11286000Y9463000D02*
X11286000Y8063000D01*
X13606000Y9463000D02*
X13606000Y8063000D01*
X13886000Y9643000D02*
X13556000Y9883000D01*
X13886000Y10123000D01*
X13886000Y9643000D01*
G36*
X13886000Y9643000D02*
G01*
X13556000Y9883000D01*
X13886000Y10123000D01*
X13886000Y9643000D01*
G37*
%TO.C,C9*%
X8917000Y8501748D02*
X8917000Y9024252D01*
X10387000Y8501748D02*
X10387000Y9024252D01*
D12*
%TO.C,U1*%
X10192000Y31972000D02*
X10192000Y31297000D01*
X10192000Y31972000D02*
X10867000Y31972000D01*
X10192000Y21622000D02*
X10192000Y22297000D01*
X10192000Y21622000D02*
X10867000Y21622000D01*
X20542000Y31972000D02*
X19927000Y31972000D01*
X20542000Y31972000D02*
X20542000Y31297000D01*
X20542000Y21622000D02*
X19867000Y21622000D01*
X20542000Y21622000D02*
X20542000Y22297000D01*
D14*
X20377000Y32317000D02*
X19907000Y32657000D01*
X20377000Y32997000D01*
X20377000Y32317000D01*
G36*
X20377000Y32317000D02*
G01*
X19907000Y32657000D01*
X20377000Y32997000D01*
X20377000Y32317000D01*
G37*
%TO.C,C3*%
X15601836Y35412000D02*
X15386164Y35412000D01*
X15601836Y34692000D02*
X15386164Y34692000D01*
%TO.C,C15*%
X3323000Y14331836D02*
X3323000Y14116164D01*
X4043000Y14331836D02*
X4043000Y14116164D01*
%TO.C,C14*%
X4847000Y14116164D02*
X4847000Y14331836D01*
X5567000Y14116164D02*
X5567000Y14331836D01*
%TO.C,H4*%
X328000Y21897000D02*
X3228000Y21897000D01*
X328000Y18997000D02*
X328000Y21897000D01*
X3228000Y21897000D02*
X3228000Y18997000D01*
X3228000Y18997000D02*
X328000Y18997000D01*
%TO.C,C7*%
X7260000Y26777836D02*
X7260000Y26562164D01*
X7980000Y26777836D02*
X7980000Y26562164D01*
%TO.C,H3*%
X4138000Y3625000D02*
X7038000Y3625000D01*
X4138000Y725000D02*
X4138000Y3625000D01*
X7038000Y3625000D02*
X7038000Y725000D01*
X7038000Y725000D02*
X4138000Y725000D01*
%TO.C,JP1*%
X4442000Y40243000D02*
X7242000Y40243000D01*
X4442000Y38243000D02*
X4442000Y40243000D01*
X7242000Y40243000D02*
X7242000Y38243000D01*
X7242000Y38243000D02*
X4442000Y38243000D01*
%TO.C,R3*%
X21362641Y19938000D02*
X21055359Y19938000D01*
X21362641Y19178000D02*
X21055359Y19178000D01*
%TO.C,H1*%
X21629000Y61267000D02*
X24529000Y61267000D01*
X21629000Y58367000D02*
X21629000Y61267000D01*
X24529000Y61267000D02*
X24529000Y58367000D01*
X24529000Y58367000D02*
X21629000Y58367000D01*
%TO.C,R5*%
X4344641Y12572000D02*
X4037359Y12572000D01*
X4344641Y11812000D02*
X4037359Y11812000D01*
%TO.C,U3*%
X990000Y15074000D02*
X2490000Y15074000D01*
X990000Y13354000D02*
X2490000Y13354000D01*
X540000Y14814000D02*
X260000Y14814000D01*
X540000Y15094000D01*
X540000Y14814000D01*
G36*
X540000Y14814000D02*
G01*
X260000Y14814000D01*
X540000Y15094000D01*
X540000Y14814000D01*
G37*
%TO.C,H2*%
X328000Y61267000D02*
X3228000Y61267000D01*
X328000Y58367000D02*
X328000Y61267000D01*
X3228000Y61267000D02*
X3228000Y58367000D01*
X3228000Y58367000D02*
X328000Y58367000D01*
%TD*%
%LPC*%
D19*
%TO.C,D1*%
X8128000Y33251000D03*
X8128000Y32281000D03*
%TD*%
D20*
%TO.C,C1*%
X10823000Y37211000D03*
X11783000Y37211000D03*
%TD*%
D21*
%TO.C,R4*%
X8128000Y30351000D03*
X8128000Y31371000D03*
%TD*%
D22*
%TO.C,R1*%
X13337000Y38862000D03*
X12317000Y38862000D03*
%TD*%
D23*
%TO.C,Module1*%
X20146000Y42959000D03*
D24*
X12606000Y50499000D03*
D23*
X20146000Y52959000D03*
D24*
X22606000Y50499000D03*
D23*
X18876000Y42959000D03*
D24*
X12606000Y49229000D03*
D23*
X18876000Y52959000D03*
D24*
X22606000Y49229000D03*
D23*
X17606000Y42959000D03*
D24*
X12606000Y47959000D03*
D23*
X17606000Y52959000D03*
D24*
X22606000Y47959000D03*
D23*
X16336000Y42959000D03*
D24*
X12606000Y46689000D03*
D23*
X16336000Y52959000D03*
D24*
X22606000Y46689000D03*
D23*
X15066000Y42959000D03*
D24*
X12606000Y45419000D03*
D23*
X15066000Y52959000D03*
D24*
X22606000Y45419000D03*
%TD*%
D20*
%TO.C,C2*%
X16792000Y19050000D03*
X17752000Y19050000D03*
%TD*%
D25*
%TO.C,C4*%
X22606000Y25809000D03*
X22606000Y26769000D03*
%TD*%
D20*
%TO.C,C6*%
X15014000Y34036000D03*
X15974000Y34036000D03*
%TD*%
%TO.C,C8*%
X13236000Y19050000D03*
X14196000Y19050000D03*
%TD*%
D26*
%TO.C,R2*%
X10285000Y19050000D03*
X11305000Y19050000D03*
%TD*%
D22*
%TO.C,R6*%
X5082000Y16256000D03*
X4062000Y16256000D03*
%TD*%
D27*
%TO.C,C5*%
X14986000Y7813000D03*
X14986000Y9713000D03*
%TD*%
D28*
%TO.C,SW1*%
X19622172Y9047667D03*
X19622172Y15047667D03*
X23372172Y9047667D03*
X23372172Y15047667D03*
%TD*%
D29*
%TO.C,C11*%
X22225000Y55245000D03*
X21265000Y55245000D03*
%TD*%
%TO.C,C12*%
X22225000Y56388000D03*
X21265000Y56388000D03*
%TD*%
D25*
%TO.C,C13*%
X5461000Y58575000D03*
X5461000Y59535000D03*
%TD*%
D30*
%TO.C,L1*%
X13292000Y4445000D03*
X11192000Y4445000D03*
%TD*%
D31*
%TO.C,U2*%
X13096000Y9863000D03*
X12446000Y9863000D03*
X11796000Y9863000D03*
X11796000Y7663000D03*
X12446000Y7663000D03*
X13096000Y7663000D03*
%TD*%
D27*
%TO.C,C9*%
X9652000Y7813000D03*
X9652000Y9713000D03*
%TD*%
D32*
%TO.C,U1*%
X19367000Y32497000D03*
X18567000Y32497000D03*
X17767000Y32497000D03*
X16967000Y32497000D03*
X16167000Y32497000D03*
X15367000Y32497000D03*
X14567000Y32497000D03*
X13767000Y32497000D03*
X12967000Y32497000D03*
X12167000Y32497000D03*
X11367000Y32497000D03*
D33*
X9667000Y30797000D03*
X9667000Y29997000D03*
X9667000Y29197000D03*
X9667000Y28397000D03*
X9667000Y27597000D03*
X9667000Y26797000D03*
X9667000Y25997000D03*
X9667000Y25197000D03*
X9667000Y24397000D03*
X9667000Y23597000D03*
X9667000Y22797000D03*
D32*
X11367000Y21097000D03*
X12167000Y21097000D03*
X12967000Y21097000D03*
X13767000Y21097000D03*
X14567000Y21097000D03*
X15367000Y21097000D03*
X16167000Y21097000D03*
X16967000Y21097000D03*
X17767000Y21097000D03*
X18567000Y21097000D03*
X19367000Y21097000D03*
D33*
X21067000Y22797000D03*
X21067000Y23597000D03*
X21067000Y24397000D03*
X21067000Y25197000D03*
X21067000Y25997000D03*
X21067000Y26797000D03*
X21067000Y27597000D03*
X21067000Y28397000D03*
X21067000Y29197000D03*
X21067000Y29997000D03*
X21067000Y30797000D03*
%TD*%
D29*
%TO.C,C3*%
X15974000Y35052000D03*
X15014000Y35052000D03*
%TD*%
D34*
%TO.C,C15*%
X3683000Y14704000D03*
X3683000Y13744000D03*
%TD*%
D25*
%TO.C,C14*%
X5207000Y13744000D03*
X5207000Y14704000D03*
%TD*%
D35*
%TO.C,H4*%
X1778000Y20447000D03*
%TD*%
D34*
%TO.C,C7*%
X7620000Y27150000D03*
X7620000Y26190000D03*
%TD*%
D35*
%TO.C,H3*%
X5588000Y2175000D03*
%TD*%
D36*
%TO.C,JP1*%
X5192000Y39243000D03*
X6492000Y39243000D03*
%TD*%
D22*
%TO.C,R3*%
X21719000Y19558000D03*
X20699000Y19558000D03*
%TD*%
D35*
%TO.C,H1*%
X23079000Y59817000D03*
%TD*%
D37*
%TO.C,FB1*%
X5715000Y11199000D03*
X5715000Y12169000D03*
%TD*%
D22*
%TO.C,R5*%
X4701000Y12192000D03*
X3681000Y12192000D03*
%TD*%
D38*
%TO.C,U3*%
X1040000Y14614000D03*
X1040000Y13814000D03*
X2440000Y13814000D03*
X2440000Y14614000D03*
%TD*%
D39*
%TO.C,L2*%
X5484000Y60579000D03*
X6454000Y60579000D03*
%TD*%
D35*
%TO.C,H2*%
X1778000Y59817000D03*
%TD*%
D40*
%TO.C,BT1*%
X22124000Y5925000D03*
X10134000Y52405000D03*
D41*
X16129000Y3175000D03*
D42*
X16129000Y55165000D03*
%TD*%
D43*
%TO.C,J1*%
X1828000Y7275000D03*
D44*
X1828000Y4735000D03*
X1828000Y2195000D03*
%TD*%
D43*
%TO.C,J3*%
X1828000Y43180000D03*
D44*
X1828000Y45720000D03*
X1828000Y48260000D03*
X1828000Y50800000D03*
X1828000Y53340000D03*
X1828000Y55880000D03*
%TD*%
D43*
%TO.C,J2*%
X1828000Y36830000D03*
D44*
X1828000Y34290000D03*
X1828000Y31750000D03*
X1828000Y29210000D03*
X1828000Y26670000D03*
X1828000Y24130000D03*
%TD*%
%LPD*%
M02*
