%TF.GenerationSoftware,KiCad,Pcbnew,6.0.11-2627ca5db0~126~ubuntu22.04.1*%
%TF.CreationDate,2023-08-29T09:36:28+02:00*%
%TF.ProjectId,CC1101_868MHz_UFL_RF_Modul_FUEL4EP,43433131-3031-45f3-9836-384d487a5f55,1.2*%
%TF.SameCoordinates,Original*%
%TF.FileFunction,Legend,Top*%
%TF.FilePolarity,Positive*%
%FSLAX46Y46*%
G04 Gerber Fmt 4.6, Leading zero omitted, Abs format (unit mm)*
G04 Created by KiCad (PCBNEW 6.0.11-2627ca5db0~126~ubuntu22.04.1) date 2023-08-29 09:36:28*
%MOMM*%
%LPD*%
G01*
G04 APERTURE LIST*
G04 Aperture macros list*
%AMRoundRect*
0 Rectangle with rounded corners*
0 $1 Rounding radius*
0 $2 $3 $4 $5 $6 $7 $8 $9 X,Y pos of 4 corners*
0 Add a 4 corners polygon primitive as box body*
4,1,4,$2,$3,$4,$5,$6,$7,$8,$9,$2,$3,0*
0 Add four circle primitives for the rounded corners*
1,1,$1+$1,$2,$3*
1,1,$1+$1,$4,$5*
1,1,$1+$1,$6,$7*
1,1,$1+$1,$8,$9*
0 Add four rect primitives between the rounded corners*
20,1,$1+$1,$2,$3,$4,$5,0*
20,1,$1+$1,$4,$5,$6,$7,0*
20,1,$1+$1,$6,$7,$8,$9,0*
20,1,$1+$1,$8,$9,$2,$3,0*%
G04 Aperture macros list end*
%ADD10C,0.050000*%
%ADD11C,0.037500*%
%ADD12C,0.120000*%
%ADD13RoundRect,0.147500X-0.147500X-0.172500X0.147500X-0.172500X0.147500X0.172500X-0.147500X0.172500X0*%
%ADD14RoundRect,0.140000X0.140000X0.170000X-0.140000X0.170000X-0.140000X-0.170000X0.140000X-0.170000X0*%
%ADD15RoundRect,0.140000X-0.140000X-0.170000X0.140000X-0.170000X0.140000X0.170000X-0.140000X0.170000X0*%
%ADD16RoundRect,0.250000X-0.600000X-0.250000X0.600000X-0.250000X0.600000X0.250000X-0.600000X0.250000X0*%
%ADD17RoundRect,0.147500X-0.172500X0.147500X-0.172500X-0.147500X0.172500X-0.147500X0.172500X0.147500X0*%
%ADD18RoundRect,0.140000X0.170000X-0.140000X0.170000X0.140000X-0.170000X0.140000X-0.170000X-0.140000X0*%
%ADD19R,1.800000X1.500000*%
%ADD20RoundRect,0.140000X-0.170000X0.140000X-0.170000X-0.140000X0.170000X-0.140000X0.170000X0.140000X0*%
%ADD21RoundRect,0.135000X0.135000X0.185000X-0.135000X0.185000X-0.135000X-0.185000X0.135000X-0.185000X0*%
%ADD22R,1.400000X1.200000*%
%ADD23R,1.700000X1.000000*%
%ADD24R,1.000000X1.000000*%
%ADD25R,2.200000X1.050000*%
%ADD26RoundRect,0.062500X-0.425000X-0.062500X0.425000X-0.062500X0.425000X0.062500X-0.425000X0.062500X0*%
%ADD27RoundRect,0.062500X-0.062500X-0.425000X0.062500X-0.425000X0.062500X0.425000X-0.062500X0.425000X0*%
%ADD28R,2.400000X2.400000*%
G04 APERTURE END LIST*
D10*
X16933333Y3546428D02*
X16933333Y3641666D01*
X16990476Y3527380D02*
X16790476Y3594047D01*
X16990476Y3660714D01*
X16990476Y3727380D02*
X16790476Y3727380D01*
X16990476Y3841666D01*
X16790476Y3841666D01*
X16790476Y3908333D02*
X16790476Y4022619D01*
X16990476Y3965476D02*
X16790476Y3965476D01*
X16800000Y997619D02*
X16790476Y978571D01*
X16790476Y950000D01*
X16800000Y921428D01*
X16819047Y902380D01*
X16838095Y892857D01*
X16876190Y883333D01*
X16904761Y883333D01*
X16942857Y892857D01*
X16961904Y902380D01*
X16980952Y921428D01*
X16990476Y950000D01*
X16990476Y969047D01*
X16980952Y997619D01*
X16971428Y1007142D01*
X16904761Y1007142D01*
X16904761Y969047D01*
X16990476Y1092857D02*
X16790476Y1092857D01*
X16990476Y1207142D01*
X16790476Y1207142D01*
X16990476Y1302380D02*
X16790476Y1302380D01*
X16790476Y1350000D01*
X16800000Y1378571D01*
X16819047Y1397619D01*
X16838095Y1407142D01*
X16876190Y1416666D01*
X16904761Y1416666D01*
X16942857Y1407142D01*
X16961904Y1397619D01*
X16980952Y1378571D01*
X16990476Y1350000D01*
X16990476Y1302380D01*
D11*
X13896428Y11937928D02*
X13889285Y11930785D01*
X13867857Y11923642D01*
X13853571Y11923642D01*
X13832142Y11930785D01*
X13817857Y11945071D01*
X13810714Y11959357D01*
X13803571Y11987928D01*
X13803571Y12009357D01*
X13810714Y12037928D01*
X13817857Y12052214D01*
X13832142Y12066500D01*
X13853571Y12073642D01*
X13867857Y12073642D01*
X13889285Y12066500D01*
X13896428Y12059357D01*
X14046428Y11937928D02*
X14039285Y11930785D01*
X14017857Y11923642D01*
X14003571Y11923642D01*
X13982142Y11930785D01*
X13967857Y11945071D01*
X13960714Y11959357D01*
X13953571Y11987928D01*
X13953571Y12009357D01*
X13960714Y12037928D01*
X13967857Y12052214D01*
X13982142Y12066500D01*
X14003571Y12073642D01*
X14017857Y12073642D01*
X14039285Y12066500D01*
X14046428Y12059357D01*
X14189285Y11923642D02*
X14103571Y11923642D01*
X14146428Y11923642D02*
X14146428Y12073642D01*
X14132142Y12052214D01*
X14117857Y12037928D01*
X14103571Y12030785D01*
X14332142Y11923642D02*
X14246428Y11923642D01*
X14289285Y11923642D02*
X14289285Y12073642D01*
X14275000Y12052214D01*
X14260714Y12037928D01*
X14246428Y12030785D01*
X14425000Y12073642D02*
X14439285Y12073642D01*
X14453571Y12066500D01*
X14460714Y12059357D01*
X14467857Y12045071D01*
X14475000Y12016500D01*
X14475000Y11980785D01*
X14467857Y11952214D01*
X14460714Y11937928D01*
X14453571Y11930785D01*
X14439285Y11923642D01*
X14425000Y11923642D01*
X14410714Y11930785D01*
X14403571Y11937928D01*
X14396428Y11952214D01*
X14389285Y11980785D01*
X14389285Y12016500D01*
X14396428Y12045071D01*
X14403571Y12059357D01*
X14410714Y12066500D01*
X14425000Y12073642D01*
X14617857Y11923642D02*
X14532142Y11923642D01*
X14575000Y11923642D02*
X14575000Y12073642D01*
X14560714Y12052214D01*
X14546428Y12037928D01*
X14532142Y12030785D01*
X14646428Y11909357D02*
X14760714Y11909357D01*
X14817857Y12009357D02*
X14803571Y12016500D01*
X14796428Y12023642D01*
X14789285Y12037928D01*
X14789285Y12045071D01*
X14796428Y12059357D01*
X14803571Y12066500D01*
X14817857Y12073642D01*
X14846428Y12073642D01*
X14860714Y12066500D01*
X14867857Y12059357D01*
X14875000Y12045071D01*
X14875000Y12037928D01*
X14867857Y12023642D01*
X14860714Y12016500D01*
X14846428Y12009357D01*
X14817857Y12009357D01*
X14803571Y12002214D01*
X14796428Y11995071D01*
X14789285Y11980785D01*
X14789285Y11952214D01*
X14796428Y11937928D01*
X14803571Y11930785D01*
X14817857Y11923642D01*
X14846428Y11923642D01*
X14860714Y11930785D01*
X14867857Y11937928D01*
X14875000Y11952214D01*
X14875000Y11980785D01*
X14867857Y11995071D01*
X14860714Y12002214D01*
X14846428Y12009357D01*
X15003571Y12073642D02*
X14975000Y12073642D01*
X14960714Y12066500D01*
X14953571Y12059357D01*
X14939285Y12037928D01*
X14932142Y12009357D01*
X14932142Y11952214D01*
X14939285Y11937928D01*
X14946428Y11930785D01*
X14960714Y11923642D01*
X14989285Y11923642D01*
X15003571Y11930785D01*
X15010714Y11937928D01*
X15017857Y11952214D01*
X15017857Y11987928D01*
X15010714Y12002214D01*
X15003571Y12009357D01*
X14989285Y12016500D01*
X14960714Y12016500D01*
X14946428Y12009357D01*
X14939285Y12002214D01*
X14932142Y11987928D01*
X15103571Y12009357D02*
X15089285Y12016500D01*
X15082142Y12023642D01*
X15075000Y12037928D01*
X15075000Y12045071D01*
X15082142Y12059357D01*
X15089285Y12066500D01*
X15103571Y12073642D01*
X15132142Y12073642D01*
X15146428Y12066500D01*
X15153571Y12059357D01*
X15160714Y12045071D01*
X15160714Y12037928D01*
X15153571Y12023642D01*
X15146428Y12016500D01*
X15132142Y12009357D01*
X15103571Y12009357D01*
X15089285Y12002214D01*
X15082142Y11995071D01*
X15075000Y11980785D01*
X15075000Y11952214D01*
X15082142Y11937928D01*
X15089285Y11930785D01*
X15103571Y11923642D01*
X15132142Y11923642D01*
X15146428Y11930785D01*
X15153571Y11937928D01*
X15160714Y11952214D01*
X15160714Y11980785D01*
X15153571Y11995071D01*
X15146428Y12002214D01*
X15132142Y12009357D01*
X15225000Y11923642D02*
X15225000Y12073642D01*
X15275000Y11966500D01*
X15325000Y12073642D01*
X15325000Y11923642D01*
X15396428Y11923642D02*
X15396428Y12073642D01*
X15396428Y12002214D02*
X15482142Y12002214D01*
X15482142Y11923642D02*
X15482142Y12073642D01*
X15539285Y12023642D02*
X15617857Y12023642D01*
X15539285Y11923642D01*
X15617857Y11923642D01*
X15639285Y11909357D02*
X15753571Y11909357D01*
X15789285Y12073642D02*
X15789285Y11952214D01*
X15796428Y11937928D01*
X15803571Y11930785D01*
X15817857Y11923642D01*
X15846428Y11923642D01*
X15860714Y11930785D01*
X15867857Y11937928D01*
X15875000Y11952214D01*
X15875000Y12073642D01*
X15996428Y12002214D02*
X15946428Y12002214D01*
X15946428Y11923642D02*
X15946428Y12073642D01*
X16017857Y12073642D01*
X16146428Y11923642D02*
X16075000Y11923642D01*
X16075000Y12073642D01*
X16160714Y11909357D02*
X16275000Y11909357D01*
X16396428Y11923642D02*
X16346428Y11995071D01*
X16310714Y11923642D02*
X16310714Y12073642D01*
X16367857Y12073642D01*
X16382142Y12066500D01*
X16389285Y12059357D01*
X16396428Y12045071D01*
X16396428Y12023642D01*
X16389285Y12009357D01*
X16382142Y12002214D01*
X16367857Y11995071D01*
X16310714Y11995071D01*
X16510714Y12002214D02*
X16460714Y12002214D01*
X16460714Y11923642D02*
X16460714Y12073642D01*
X16532142Y12073642D01*
X16553571Y11909357D02*
X16667857Y11909357D01*
X16703571Y11923642D02*
X16703571Y12073642D01*
X16753571Y11966500D01*
X16803571Y12073642D01*
X16803571Y11923642D01*
X16896428Y11923642D02*
X16882142Y11930785D01*
X16875000Y11937928D01*
X16867857Y11952214D01*
X16867857Y11995071D01*
X16875000Y12009357D01*
X16882142Y12016500D01*
X16896428Y12023642D01*
X16917857Y12023642D01*
X16932142Y12016500D01*
X16939285Y12009357D01*
X16946428Y11995071D01*
X16946428Y11952214D01*
X16939285Y11937928D01*
X16932142Y11930785D01*
X16917857Y11923642D01*
X16896428Y11923642D01*
X17075000Y11923642D02*
X17075000Y12073642D01*
X17075000Y11930785D02*
X17060714Y11923642D01*
X17032142Y11923642D01*
X17017857Y11930785D01*
X17010714Y11937928D01*
X17003571Y11952214D01*
X17003571Y11995071D01*
X17010714Y12009357D01*
X17017857Y12016500D01*
X17032142Y12023642D01*
X17060714Y12023642D01*
X17075000Y12016500D01*
X17210714Y12023642D02*
X17210714Y11923642D01*
X17146428Y12023642D02*
X17146428Y11945071D01*
X17153571Y11930785D01*
X17167857Y11923642D01*
X17189285Y11923642D01*
X17203571Y11930785D01*
X17210714Y11937928D01*
X17303571Y11923642D02*
X17289285Y11930785D01*
X17282142Y11945071D01*
X17282142Y12073642D01*
X17325000Y11909357D02*
X17439285Y11909357D01*
X17525000Y12002214D02*
X17475000Y12002214D01*
X17475000Y11923642D02*
X17475000Y12073642D01*
X17546428Y12073642D01*
X17603571Y12073642D02*
X17603571Y11952214D01*
X17610714Y11937928D01*
X17617857Y11930785D01*
X17632142Y11923642D01*
X17660714Y11923642D01*
X17675000Y11930785D01*
X17682142Y11937928D01*
X17689285Y11952214D01*
X17689285Y12073642D01*
X17760714Y12002214D02*
X17810714Y12002214D01*
X17832142Y11923642D02*
X17760714Y11923642D01*
X17760714Y12073642D01*
X17832142Y12073642D01*
X17967857Y11923642D02*
X17896428Y11923642D01*
X17896428Y12073642D01*
X18082142Y12023642D02*
X18082142Y11923642D01*
X18046428Y12080785D02*
X18010714Y11973642D01*
X18103571Y11973642D01*
X18160714Y12002214D02*
X18210714Y12002214D01*
X18232142Y11923642D02*
X18160714Y11923642D01*
X18160714Y12073642D01*
X18232142Y12073642D01*
X18296428Y11923642D02*
X18296428Y12073642D01*
X18353571Y12073642D01*
X18367857Y12066500D01*
X18375000Y12059357D01*
X18382142Y12045071D01*
X18382142Y12023642D01*
X18375000Y12009357D01*
X18367857Y12002214D01*
X18353571Y11995071D01*
X18296428Y11995071D01*
X14646428Y11625000D02*
X14639285Y11632142D01*
X14625000Y11653571D01*
X14617857Y11667857D01*
X14610714Y11689285D01*
X14603571Y11725000D01*
X14603571Y11753571D01*
X14610714Y11789285D01*
X14617857Y11810714D01*
X14625000Y11825000D01*
X14639285Y11846428D01*
X14646428Y11853571D01*
X14789285Y11696428D02*
X14782142Y11689285D01*
X14760714Y11682142D01*
X14746428Y11682142D01*
X14725000Y11689285D01*
X14710714Y11703571D01*
X14703571Y11717857D01*
X14696428Y11746428D01*
X14696428Y11767857D01*
X14703571Y11796428D01*
X14710714Y11810714D01*
X14725000Y11825000D01*
X14746428Y11832142D01*
X14760714Y11832142D01*
X14782142Y11825000D01*
X14789285Y11817857D01*
X14839285Y11625000D02*
X14846428Y11632142D01*
X14860714Y11653571D01*
X14867857Y11667857D01*
X14875000Y11689285D01*
X14882142Y11725000D01*
X14882142Y11753571D01*
X14875000Y11789285D01*
X14867857Y11810714D01*
X14860714Y11825000D01*
X14846428Y11846428D01*
X14839285Y11853571D01*
X15117857Y11760714D02*
X15067857Y11760714D01*
X15067857Y11682142D02*
X15067857Y11832142D01*
X15139285Y11832142D01*
X15196428Y11832142D02*
X15196428Y11710714D01*
X15203571Y11696428D01*
X15210714Y11689285D01*
X15225000Y11682142D01*
X15253571Y11682142D01*
X15267857Y11689285D01*
X15275000Y11696428D01*
X15282142Y11710714D01*
X15282142Y11832142D01*
X15353571Y11760714D02*
X15403571Y11760714D01*
X15425000Y11682142D02*
X15353571Y11682142D01*
X15353571Y11832142D01*
X15425000Y11832142D01*
X15560714Y11682142D02*
X15489285Y11682142D01*
X15489285Y11832142D01*
X15675000Y11782142D02*
X15675000Y11682142D01*
X15639285Y11839285D02*
X15603571Y11732142D01*
X15696428Y11732142D01*
X15753571Y11760714D02*
X15803571Y11760714D01*
X15825000Y11682142D02*
X15753571Y11682142D01*
X15753571Y11832142D01*
X15825000Y11832142D01*
X15889285Y11682142D02*
X15889285Y11832142D01*
X15946428Y11832142D01*
X15960714Y11825000D01*
X15967857Y11817857D01*
X15975000Y11803571D01*
X15975000Y11782142D01*
X15967857Y11767857D01*
X15960714Y11760714D01*
X15946428Y11753571D01*
X15889285Y11753571D01*
X16182142Y11832142D02*
X16196428Y11832142D01*
X16210714Y11825000D01*
X16217857Y11817857D01*
X16225000Y11803571D01*
X16232142Y11775000D01*
X16232142Y11739285D01*
X16225000Y11710714D01*
X16217857Y11696428D01*
X16210714Y11689285D01*
X16196428Y11682142D01*
X16182142Y11682142D01*
X16167857Y11689285D01*
X16160714Y11696428D01*
X16153571Y11710714D01*
X16146428Y11739285D01*
X16146428Y11775000D01*
X16153571Y11803571D01*
X16160714Y11817857D01*
X16167857Y11825000D01*
X16182142Y11832142D01*
X16317857Y11767857D02*
X16303571Y11775000D01*
X16296428Y11782142D01*
X16289285Y11796428D01*
X16289285Y11803571D01*
X16296428Y11817857D01*
X16303571Y11825000D01*
X16317857Y11832142D01*
X16346428Y11832142D01*
X16360714Y11825000D01*
X16367857Y11817857D01*
X16375000Y11803571D01*
X16375000Y11796428D01*
X16367857Y11782142D01*
X16360714Y11775000D01*
X16346428Y11767857D01*
X16317857Y11767857D01*
X16303571Y11760714D01*
X16296428Y11753571D01*
X16289285Y11739285D01*
X16289285Y11710714D01*
X16296428Y11696428D01*
X16303571Y11689285D01*
X16317857Y11682142D01*
X16346428Y11682142D01*
X16360714Y11689285D01*
X16367857Y11696428D01*
X16375000Y11710714D01*
X16375000Y11739285D01*
X16367857Y11753571D01*
X16360714Y11760714D01*
X16346428Y11767857D01*
X16546428Y11839285D02*
X16417857Y11646428D01*
X16589285Y11817857D02*
X16596428Y11825000D01*
X16610714Y11832142D01*
X16646428Y11832142D01*
X16660714Y11825000D01*
X16667857Y11817857D01*
X16675000Y11803571D01*
X16675000Y11789285D01*
X16667857Y11767857D01*
X16582142Y11682142D01*
X16675000Y11682142D01*
X16767857Y11832142D02*
X16782142Y11832142D01*
X16796428Y11825000D01*
X16803571Y11817857D01*
X16810714Y11803571D01*
X16817857Y11775000D01*
X16817857Y11739285D01*
X16810714Y11710714D01*
X16803571Y11696428D01*
X16796428Y11689285D01*
X16782142Y11682142D01*
X16767857Y11682142D01*
X16753571Y11689285D01*
X16746428Y11696428D01*
X16739285Y11710714D01*
X16732142Y11739285D01*
X16732142Y11775000D01*
X16739285Y11803571D01*
X16746428Y11817857D01*
X16753571Y11825000D01*
X16767857Y11832142D01*
X16875000Y11817857D02*
X16882142Y11825000D01*
X16896428Y11832142D01*
X16932142Y11832142D01*
X16946428Y11825000D01*
X16953571Y11817857D01*
X16960714Y11803571D01*
X16960714Y11789285D01*
X16953571Y11767857D01*
X16867857Y11682142D01*
X16960714Y11682142D01*
X17010714Y11832142D02*
X17103571Y11832142D01*
X17053571Y11775000D01*
X17075000Y11775000D01*
X17089285Y11767857D01*
X17096428Y11760714D01*
X17103571Y11746428D01*
X17103571Y11710714D01*
X17096428Y11696428D01*
X17089285Y11689285D01*
X17075000Y11682142D01*
X17032142Y11682142D01*
X17017857Y11689285D01*
X17010714Y11696428D01*
X17260714Y11832142D02*
X17310714Y11682142D01*
X17360714Y11832142D01*
X17489285Y11682142D02*
X17403571Y11682142D01*
X17446428Y11682142D02*
X17446428Y11832142D01*
X17432142Y11810714D01*
X17417857Y11796428D01*
X17403571Y11789285D01*
X17553571Y11696428D02*
X17560714Y11689285D01*
X17553571Y11682142D01*
X17546428Y11689285D01*
X17553571Y11696428D01*
X17553571Y11682142D01*
X17617857Y11817857D02*
X17625000Y11825000D01*
X17639285Y11832142D01*
X17675000Y11832142D01*
X17689285Y11825000D01*
X17696428Y11817857D01*
X17703571Y11803571D01*
X17703571Y11789285D01*
X17696428Y11767857D01*
X17610714Y11682142D01*
X17703571Y11682142D01*
D10*
%TO.C,L1*%
X12766666Y9384523D02*
X12671428Y9384523D01*
X12671428Y9584523D01*
X12938095Y9384523D02*
X12823809Y9384523D01*
X12880952Y9384523D02*
X12880952Y9584523D01*
X12861904Y9555952D01*
X12842857Y9536904D01*
X12823809Y9527380D01*
%TO.C,C14*%
X7364428Y12374571D02*
X7354904Y12365047D01*
X7326333Y12355523D01*
X7307285Y12355523D01*
X7278714Y12365047D01*
X7259666Y12384095D01*
X7250142Y12403142D01*
X7240619Y12441238D01*
X7240619Y12469809D01*
X7250142Y12507904D01*
X7259666Y12526952D01*
X7278714Y12546000D01*
X7307285Y12555523D01*
X7326333Y12555523D01*
X7354904Y12546000D01*
X7364428Y12536476D01*
X7554904Y12355523D02*
X7440619Y12355523D01*
X7497761Y12355523D02*
X7497761Y12555523D01*
X7478714Y12526952D01*
X7459666Y12507904D01*
X7440619Y12498380D01*
X7726333Y12488857D02*
X7726333Y12355523D01*
X7678714Y12565047D02*
X7631095Y12422190D01*
X7754904Y12422190D01*
%TO.C,L7*%
X16841666Y4609523D02*
X16746428Y4609523D01*
X16746428Y4809523D01*
X16889285Y4809523D02*
X17022619Y4809523D01*
X16936904Y4609523D01*
%TO.C,L3*%
X16034876Y7041666D02*
X16034876Y6946428D01*
X15834876Y6946428D01*
X15834876Y7089285D02*
X15834876Y7213095D01*
X15911066Y7146428D01*
X15911066Y7175000D01*
X15920590Y7194047D01*
X15930114Y7203571D01*
X15949161Y7213095D01*
X15996780Y7213095D01*
X16015828Y7203571D01*
X16025352Y7194047D01*
X16034876Y7175000D01*
X16034876Y7117857D01*
X16025352Y7098809D01*
X16015828Y7089285D01*
%TO.C,L2*%
X12291666Y7209523D02*
X12196428Y7209523D01*
X12196428Y7409523D01*
X12348809Y7390476D02*
X12358333Y7400000D01*
X12377380Y7409523D01*
X12425000Y7409523D01*
X12444047Y7400000D01*
X12453571Y7390476D01*
X12463095Y7371428D01*
X12463095Y7352380D01*
X12453571Y7323809D01*
X12339285Y7209523D01*
X12463095Y7209523D01*
%TO.C,C5*%
X16991666Y7142371D02*
X16982142Y7132847D01*
X16953571Y7123323D01*
X16934523Y7123323D01*
X16905952Y7132847D01*
X16886904Y7151895D01*
X16877380Y7170942D01*
X16867857Y7209038D01*
X16867857Y7237609D01*
X16877380Y7275704D01*
X16886904Y7294752D01*
X16905952Y7313800D01*
X16934523Y7323323D01*
X16953571Y7323323D01*
X16982142Y7313800D01*
X16991666Y7304276D01*
X17172619Y7323323D02*
X17077380Y7323323D01*
X17067857Y7228085D01*
X17077380Y7237609D01*
X17096428Y7247133D01*
X17144047Y7247133D01*
X17163095Y7237609D01*
X17172619Y7228085D01*
X17182142Y7209038D01*
X17182142Y7161419D01*
X17172619Y7142371D01*
X17163095Y7132847D01*
X17144047Y7123323D01*
X17096428Y7123323D01*
X17077380Y7132847D01*
X17067857Y7142371D01*
%TO.C,C3*%
X16010828Y5666666D02*
X16020352Y5657142D01*
X16029876Y5628571D01*
X16029876Y5609523D01*
X16020352Y5580952D01*
X16001304Y5561904D01*
X15982257Y5552380D01*
X15944161Y5542857D01*
X15915590Y5542857D01*
X15877495Y5552380D01*
X15858447Y5561904D01*
X15839400Y5580952D01*
X15829876Y5609523D01*
X15829876Y5628571D01*
X15839400Y5657142D01*
X15848923Y5666666D01*
X15829876Y5733333D02*
X15829876Y5857142D01*
X15906066Y5790476D01*
X15906066Y5819047D01*
X15915590Y5838095D01*
X15925114Y5847619D01*
X15944161Y5857142D01*
X15991780Y5857142D01*
X16010828Y5847619D01*
X16020352Y5838095D01*
X16029876Y5819047D01*
X16029876Y5761904D01*
X16020352Y5742857D01*
X16010828Y5733333D01*
%TO.C,JC5*%
X2283333Y6319523D02*
X2283333Y6176666D01*
X2273809Y6148095D01*
X2254761Y6129047D01*
X2226190Y6119523D01*
X2207142Y6119523D01*
X2492857Y6138571D02*
X2483333Y6129047D01*
X2454761Y6119523D01*
X2435714Y6119523D01*
X2407142Y6129047D01*
X2388095Y6148095D01*
X2378571Y6167142D01*
X2369047Y6205238D01*
X2369047Y6233809D01*
X2378571Y6271904D01*
X2388095Y6290952D01*
X2407142Y6310000D01*
X2435714Y6319523D01*
X2454761Y6319523D01*
X2483333Y6310000D01*
X2492857Y6300476D01*
X2673809Y6319523D02*
X2578571Y6319523D01*
X2569047Y6224285D01*
X2578571Y6233809D01*
X2597619Y6243333D01*
X2645238Y6243333D01*
X2664285Y6233809D01*
X2673809Y6224285D01*
X2683333Y6205238D01*
X2683333Y6157619D01*
X2673809Y6138571D01*
X2664285Y6129047D01*
X2645238Y6119523D01*
X2597619Y6119523D01*
X2578571Y6129047D01*
X2569047Y6138571D01*
%TO.C,L6*%
X16990476Y5716666D02*
X16990476Y5621428D01*
X16790476Y5621428D01*
X16790476Y5869047D02*
X16790476Y5830952D01*
X16800000Y5811904D01*
X16809523Y5802380D01*
X16838095Y5783333D01*
X16876190Y5773809D01*
X16952380Y5773809D01*
X16971428Y5783333D01*
X16980952Y5792857D01*
X16990476Y5811904D01*
X16990476Y5850000D01*
X16980952Y5869047D01*
X16971428Y5878571D01*
X16952380Y5888095D01*
X16904761Y5888095D01*
X16885714Y5878571D01*
X16876190Y5869047D01*
X16866666Y5850000D01*
X16866666Y5811904D01*
X16876190Y5792857D01*
X16885714Y5783333D01*
X16904761Y5773809D01*
%TO.C,C2*%
X13716666Y7228571D02*
X13707142Y7219047D01*
X13678571Y7209523D01*
X13659523Y7209523D01*
X13630952Y7219047D01*
X13611904Y7238095D01*
X13602380Y7257142D01*
X13592857Y7295238D01*
X13592857Y7323809D01*
X13602380Y7361904D01*
X13611904Y7380952D01*
X13630952Y7400000D01*
X13659523Y7409523D01*
X13678571Y7409523D01*
X13707142Y7400000D01*
X13716666Y7390476D01*
X13792857Y7390476D02*
X13802380Y7400000D01*
X13821428Y7409523D01*
X13869047Y7409523D01*
X13888095Y7400000D01*
X13897619Y7390476D01*
X13907142Y7371428D01*
X13907142Y7352380D01*
X13897619Y7323809D01*
X13783333Y7209523D01*
X13907142Y7209523D01*
%TO.C,JA1*%
X16790476Y1747619D02*
X16933333Y1747619D01*
X16961904Y1738095D01*
X16980952Y1719047D01*
X16990476Y1690476D01*
X16990476Y1671428D01*
X16933333Y1833333D02*
X16933333Y1928571D01*
X16990476Y1814285D02*
X16790476Y1880952D01*
X16990476Y1947619D01*
X16990476Y2119047D02*
X16990476Y2004761D01*
X16990476Y2061904D02*
X16790476Y2061904D01*
X16819047Y2042857D01*
X16838095Y2023809D01*
X16847619Y2004761D01*
%TO.C,JC8*%
X2283333Y2509523D02*
X2283333Y2366666D01*
X2273809Y2338095D01*
X2254761Y2319047D01*
X2226190Y2309523D01*
X2207142Y2309523D01*
X2492857Y2328571D02*
X2483333Y2319047D01*
X2454761Y2309523D01*
X2435714Y2309523D01*
X2407142Y2319047D01*
X2388095Y2338095D01*
X2378571Y2357142D01*
X2369047Y2395238D01*
X2369047Y2423809D01*
X2378571Y2461904D01*
X2388095Y2480952D01*
X2407142Y2500000D01*
X2435714Y2509523D01*
X2454761Y2509523D01*
X2483333Y2500000D01*
X2492857Y2490476D01*
X2607142Y2423809D02*
X2588095Y2433333D01*
X2578571Y2442857D01*
X2569047Y2461904D01*
X2569047Y2471428D01*
X2578571Y2490476D01*
X2588095Y2500000D01*
X2607142Y2509523D01*
X2645238Y2509523D01*
X2664285Y2500000D01*
X2673809Y2490476D01*
X2683333Y2471428D01*
X2683333Y2461904D01*
X2673809Y2442857D01*
X2664285Y2433333D01*
X2645238Y2423809D01*
X2607142Y2423809D01*
X2588095Y2414285D01*
X2578571Y2404761D01*
X2569047Y2385714D01*
X2569047Y2347619D01*
X2578571Y2328571D01*
X2588095Y2319047D01*
X2607142Y2309523D01*
X2645238Y2309523D01*
X2664285Y2319047D01*
X2673809Y2328571D01*
X2683333Y2347619D01*
X2683333Y2385714D01*
X2673809Y2404761D01*
X2664285Y2414285D01*
X2645238Y2423809D01*
%TO.C,C7*%
X18516666Y7123571D02*
X18507142Y7114047D01*
X18478571Y7104523D01*
X18459523Y7104523D01*
X18430952Y7114047D01*
X18411904Y7133095D01*
X18402380Y7152142D01*
X18392857Y7190238D01*
X18392857Y7218809D01*
X18402380Y7256904D01*
X18411904Y7275952D01*
X18430952Y7295000D01*
X18459523Y7304523D01*
X18478571Y7304523D01*
X18507142Y7295000D01*
X18516666Y7285476D01*
X18583333Y7304523D02*
X18716666Y7304523D01*
X18630952Y7104523D01*
%TO.C,C16*%
X6294428Y6094428D02*
X6303952Y6084904D01*
X6313476Y6056333D01*
X6313476Y6037285D01*
X6303952Y6008714D01*
X6284904Y5989666D01*
X6265857Y5980142D01*
X6227761Y5970619D01*
X6199190Y5970619D01*
X6161095Y5980142D01*
X6142047Y5989666D01*
X6123000Y6008714D01*
X6113476Y6037285D01*
X6113476Y6056333D01*
X6123000Y6084904D01*
X6132523Y6094428D01*
X6313476Y6284904D02*
X6313476Y6170619D01*
X6313476Y6227761D02*
X6113476Y6227761D01*
X6142047Y6208714D01*
X6161095Y6189666D01*
X6170619Y6170619D01*
X6113476Y6456333D02*
X6113476Y6418238D01*
X6123000Y6399190D01*
X6132523Y6389666D01*
X6161095Y6370619D01*
X6199190Y6361095D01*
X6275380Y6361095D01*
X6294428Y6370619D01*
X6303952Y6380142D01*
X6313476Y6399190D01*
X6313476Y6437285D01*
X6303952Y6456333D01*
X6294428Y6465857D01*
X6275380Y6475380D01*
X6227761Y6475380D01*
X6208714Y6465857D01*
X6199190Y6456333D01*
X6189666Y6437285D01*
X6189666Y6399190D01*
X6199190Y6380142D01*
X6208714Y6370619D01*
X6227761Y6361095D01*
%TO.C,R1*%
X9745666Y12355523D02*
X9679000Y12450761D01*
X9631380Y12355523D02*
X9631380Y12555523D01*
X9707571Y12555523D01*
X9726619Y12546000D01*
X9736142Y12536476D01*
X9745666Y12517428D01*
X9745666Y12488857D01*
X9736142Y12469809D01*
X9726619Y12460285D01*
X9707571Y12450761D01*
X9631380Y12450761D01*
X9936142Y12355523D02*
X9821857Y12355523D01*
X9879000Y12355523D02*
X9879000Y12555523D01*
X9859952Y12526952D01*
X9840904Y12507904D01*
X9821857Y12498380D01*
%TO.C,C15*%
X11227628Y6021428D02*
X11237152Y6011904D01*
X11246676Y5983333D01*
X11246676Y5964285D01*
X11237152Y5935714D01*
X11218104Y5916666D01*
X11199057Y5907142D01*
X11160961Y5897619D01*
X11132390Y5897619D01*
X11094295Y5907142D01*
X11075247Y5916666D01*
X11056200Y5935714D01*
X11046676Y5964285D01*
X11046676Y5983333D01*
X11056200Y6011904D01*
X11065723Y6021428D01*
X11246676Y6211904D02*
X11246676Y6097619D01*
X11246676Y6154761D02*
X11046676Y6154761D01*
X11075247Y6135714D01*
X11094295Y6116666D01*
X11103819Y6097619D01*
X11046676Y6392857D02*
X11046676Y6297619D01*
X11141914Y6288095D01*
X11132390Y6297619D01*
X11122866Y6316666D01*
X11122866Y6364285D01*
X11132390Y6383333D01*
X11141914Y6392857D01*
X11160961Y6402380D01*
X11208580Y6402380D01*
X11227628Y6392857D01*
X11237152Y6383333D01*
X11246676Y6364285D01*
X11246676Y6316666D01*
X11237152Y6297619D01*
X11227628Y6288095D01*
%TO.C,C17*%
X13531828Y6021428D02*
X13541352Y6011904D01*
X13550876Y5983333D01*
X13550876Y5964285D01*
X13541352Y5935714D01*
X13522304Y5916666D01*
X13503257Y5907142D01*
X13465161Y5897619D01*
X13436590Y5897619D01*
X13398495Y5907142D01*
X13379447Y5916666D01*
X13360400Y5935714D01*
X13350876Y5964285D01*
X13350876Y5983333D01*
X13360400Y6011904D01*
X13369923Y6021428D01*
X13550876Y6211904D02*
X13550876Y6097619D01*
X13550876Y6154761D02*
X13350876Y6154761D01*
X13379447Y6135714D01*
X13398495Y6116666D01*
X13408019Y6097619D01*
X13350876Y6278571D02*
X13350876Y6411904D01*
X13550876Y6326190D01*
%TO.C,JA2*%
X16815476Y2822619D02*
X16958333Y2822619D01*
X16986904Y2813095D01*
X17005952Y2794047D01*
X17015476Y2765476D01*
X17015476Y2746428D01*
X16958333Y2908333D02*
X16958333Y3003571D01*
X17015476Y2889285D02*
X16815476Y2955952D01*
X17015476Y3022619D01*
X16834523Y3079761D02*
X16825000Y3089285D01*
X16815476Y3108333D01*
X16815476Y3155952D01*
X16825000Y3175000D01*
X16834523Y3184523D01*
X16853571Y3194047D01*
X16872619Y3194047D01*
X16901190Y3184523D01*
X17015476Y3070238D01*
X17015476Y3194047D01*
%TO.C,L4*%
X16215476Y8941666D02*
X16215476Y8846428D01*
X16015476Y8846428D01*
X16082142Y9094047D02*
X16215476Y9094047D01*
X16005952Y9046428D02*
X16148809Y8998809D01*
X16148809Y9122619D01*
%TO.C,Y1*%
X7154761Y554761D02*
X7154761Y459523D01*
X7088095Y659523D02*
X7154761Y554761D01*
X7221428Y659523D01*
X7392857Y459523D02*
X7278571Y459523D01*
X7335714Y459523D02*
X7335714Y659523D01*
X7316666Y630952D01*
X7297619Y611904D01*
X7278571Y602380D01*
%TO.C,C13*%
X5278428Y7491428D02*
X5287952Y7481904D01*
X5297476Y7453333D01*
X5297476Y7434285D01*
X5287952Y7405714D01*
X5268904Y7386666D01*
X5249857Y7377142D01*
X5211761Y7367619D01*
X5183190Y7367619D01*
X5145095Y7377142D01*
X5126047Y7386666D01*
X5107000Y7405714D01*
X5097476Y7434285D01*
X5097476Y7453333D01*
X5107000Y7481904D01*
X5116523Y7491428D01*
X5297476Y7681904D02*
X5297476Y7567619D01*
X5297476Y7624761D02*
X5097476Y7624761D01*
X5126047Y7605714D01*
X5145095Y7586666D01*
X5154619Y7567619D01*
X5097476Y7748571D02*
X5097476Y7872380D01*
X5173666Y7805714D01*
X5173666Y7834285D01*
X5183190Y7853333D01*
X5192714Y7862857D01*
X5211761Y7872380D01*
X5259380Y7872380D01*
X5278428Y7862857D01*
X5287952Y7853333D01*
X5297476Y7834285D01*
X5297476Y7777142D01*
X5287952Y7758095D01*
X5278428Y7748571D01*
%TO.C,C10*%
X5205428Y12374571D02*
X5195904Y12365047D01*
X5167333Y12355523D01*
X5148285Y12355523D01*
X5119714Y12365047D01*
X5100666Y12384095D01*
X5091142Y12403142D01*
X5081619Y12441238D01*
X5081619Y12469809D01*
X5091142Y12507904D01*
X5100666Y12526952D01*
X5119714Y12546000D01*
X5148285Y12555523D01*
X5167333Y12555523D01*
X5195904Y12546000D01*
X5205428Y12536476D01*
X5395904Y12355523D02*
X5281619Y12355523D01*
X5338761Y12355523D02*
X5338761Y12555523D01*
X5319714Y12526952D01*
X5300666Y12507904D01*
X5281619Y12498380D01*
X5519714Y12555523D02*
X5538761Y12555523D01*
X5557809Y12546000D01*
X5567333Y12536476D01*
X5576857Y12517428D01*
X5586380Y12479333D01*
X5586380Y12431714D01*
X5576857Y12393619D01*
X5567333Y12374571D01*
X5557809Y12365047D01*
X5538761Y12355523D01*
X5519714Y12355523D01*
X5500666Y12365047D01*
X5491142Y12374571D01*
X5481619Y12393619D01*
X5472095Y12431714D01*
X5472095Y12479333D01*
X5481619Y12517428D01*
X5491142Y12536476D01*
X5500666Y12546000D01*
X5519714Y12555523D01*
%TO.C,C4*%
X16196428Y7891666D02*
X16205952Y7882142D01*
X16215476Y7853571D01*
X16215476Y7834523D01*
X16205952Y7805952D01*
X16186904Y7786904D01*
X16167857Y7777380D01*
X16129761Y7767857D01*
X16101190Y7767857D01*
X16063095Y7777380D01*
X16044047Y7786904D01*
X16025000Y7805952D01*
X16015476Y7834523D01*
X16015476Y7853571D01*
X16025000Y7882142D01*
X16034523Y7891666D01*
X16082142Y8063095D02*
X16215476Y8063095D01*
X16005952Y8015476D02*
X16148809Y7967857D01*
X16148809Y8091666D01*
%TO.C,JC6*%
X2283333Y5049523D02*
X2283333Y4906666D01*
X2273809Y4878095D01*
X2254761Y4859047D01*
X2226190Y4849523D01*
X2207142Y4849523D01*
X2492857Y4868571D02*
X2483333Y4859047D01*
X2454761Y4849523D01*
X2435714Y4849523D01*
X2407142Y4859047D01*
X2388095Y4878095D01*
X2378571Y4897142D01*
X2369047Y4935238D01*
X2369047Y4963809D01*
X2378571Y5001904D01*
X2388095Y5020952D01*
X2407142Y5040000D01*
X2435714Y5049523D01*
X2454761Y5049523D01*
X2483333Y5040000D01*
X2492857Y5030476D01*
X2664285Y5049523D02*
X2626190Y5049523D01*
X2607142Y5040000D01*
X2597619Y5030476D01*
X2578571Y5001904D01*
X2569047Y4963809D01*
X2569047Y4887619D01*
X2578571Y4868571D01*
X2588095Y4859047D01*
X2607142Y4849523D01*
X2645238Y4849523D01*
X2664285Y4859047D01*
X2673809Y4868571D01*
X2683333Y4887619D01*
X2683333Y4935238D01*
X2673809Y4954285D01*
X2664285Y4963809D01*
X2645238Y4973333D01*
X2607142Y4973333D01*
X2588095Y4963809D01*
X2578571Y4954285D01*
X2569047Y4935238D01*
%TO.C,C12*%
X12021428Y11538171D02*
X12011904Y11528647D01*
X11983333Y11519123D01*
X11964285Y11519123D01*
X11935714Y11528647D01*
X11916666Y11547695D01*
X11907142Y11566742D01*
X11897619Y11604838D01*
X11897619Y11633409D01*
X11907142Y11671504D01*
X11916666Y11690552D01*
X11935714Y11709600D01*
X11964285Y11719123D01*
X11983333Y11719123D01*
X12011904Y11709600D01*
X12021428Y11700076D01*
X12211904Y11519123D02*
X12097619Y11519123D01*
X12154761Y11519123D02*
X12154761Y11719123D01*
X12135714Y11690552D01*
X12116666Y11671504D01*
X12097619Y11661980D01*
X12288095Y11700076D02*
X12297619Y11709600D01*
X12316666Y11719123D01*
X12364285Y11719123D01*
X12383333Y11709600D01*
X12392857Y11700076D01*
X12402380Y11681028D01*
X12402380Y11661980D01*
X12392857Y11633409D01*
X12278571Y11519123D01*
X12402380Y11519123D01*
%TO.C,JC3*%
X2283333Y8859523D02*
X2283333Y8716666D01*
X2273809Y8688095D01*
X2254761Y8669047D01*
X2226190Y8659523D01*
X2207142Y8659523D01*
X2492857Y8678571D02*
X2483333Y8669047D01*
X2454761Y8659523D01*
X2435714Y8659523D01*
X2407142Y8669047D01*
X2388095Y8688095D01*
X2378571Y8707142D01*
X2369047Y8745238D01*
X2369047Y8773809D01*
X2378571Y8811904D01*
X2388095Y8830952D01*
X2407142Y8850000D01*
X2435714Y8859523D01*
X2454761Y8859523D01*
X2483333Y8850000D01*
X2492857Y8840476D01*
X2559523Y8859523D02*
X2683333Y8859523D01*
X2616666Y8783333D01*
X2645238Y8783333D01*
X2664285Y8773809D01*
X2673809Y8764285D01*
X2683333Y8745238D01*
X2683333Y8697619D01*
X2673809Y8678571D01*
X2664285Y8669047D01*
X2645238Y8659523D01*
X2588095Y8659523D01*
X2569047Y8669047D01*
X2559523Y8678571D01*
%TO.C,JC2*%
X2283333Y10129523D02*
X2283333Y9986666D01*
X2273809Y9958095D01*
X2254761Y9939047D01*
X2226190Y9929523D01*
X2207142Y9929523D01*
X2492857Y9948571D02*
X2483333Y9939047D01*
X2454761Y9929523D01*
X2435714Y9929523D01*
X2407142Y9939047D01*
X2388095Y9958095D01*
X2378571Y9977142D01*
X2369047Y10015238D01*
X2369047Y10043809D01*
X2378571Y10081904D01*
X2388095Y10100952D01*
X2407142Y10120000D01*
X2435714Y10129523D01*
X2454761Y10129523D01*
X2483333Y10120000D01*
X2492857Y10110476D01*
X2569047Y10110476D02*
X2578571Y10120000D01*
X2597619Y10129523D01*
X2645238Y10129523D01*
X2664285Y10120000D01*
X2673809Y10110476D01*
X2683333Y10091428D01*
X2683333Y10072380D01*
X2673809Y10043809D01*
X2559523Y9929523D01*
X2683333Y9929523D01*
%TO.C,JC1*%
X2383333Y11349523D02*
X2383333Y11206666D01*
X2373809Y11178095D01*
X2354761Y11159047D01*
X2326190Y11149523D01*
X2307142Y11149523D01*
X2592857Y11168571D02*
X2583333Y11159047D01*
X2554761Y11149523D01*
X2535714Y11149523D01*
X2507142Y11159047D01*
X2488095Y11178095D01*
X2478571Y11197142D01*
X2469047Y11235238D01*
X2469047Y11263809D01*
X2478571Y11301904D01*
X2488095Y11320952D01*
X2507142Y11340000D01*
X2535714Y11349523D01*
X2554761Y11349523D01*
X2583333Y11340000D01*
X2592857Y11330476D01*
X2783333Y11149523D02*
X2669047Y11149523D01*
X2726190Y11149523D02*
X2726190Y11349523D01*
X2707142Y11320952D01*
X2688095Y11301904D01*
X2669047Y11292380D01*
%TO.C,L5*%
X17041666Y9570323D02*
X16946428Y9570323D01*
X16946428Y9770323D01*
X17203571Y9770323D02*
X17108333Y9770323D01*
X17098809Y9675085D01*
X17108333Y9684609D01*
X17127380Y9694133D01*
X17175000Y9694133D01*
X17194047Y9684609D01*
X17203571Y9675085D01*
X17213095Y9656038D01*
X17213095Y9608419D01*
X17203571Y9589371D01*
X17194047Y9579847D01*
X17175000Y9570323D01*
X17127380Y9570323D01*
X17108333Y9579847D01*
X17098809Y9589371D01*
%TO.C,JA3*%
X15865476Y647619D02*
X16008333Y647619D01*
X16036904Y638095D01*
X16055952Y619047D01*
X16065476Y590476D01*
X16065476Y571428D01*
X16008333Y733333D02*
X16008333Y828571D01*
X16065476Y714285D02*
X15865476Y780952D01*
X16065476Y847619D01*
X15865476Y895238D02*
X15865476Y1019047D01*
X15941666Y952380D01*
X15941666Y980952D01*
X15951190Y1000000D01*
X15960714Y1009523D01*
X15979761Y1019047D01*
X16027380Y1019047D01*
X16046428Y1009523D01*
X16055952Y1000000D01*
X16065476Y980952D01*
X16065476Y923809D01*
X16055952Y904761D01*
X16046428Y895238D01*
%TO.C,C11*%
X13246428Y10253571D02*
X13236904Y10244047D01*
X13208333Y10234523D01*
X13189285Y10234523D01*
X13160714Y10244047D01*
X13141666Y10263095D01*
X13132142Y10282142D01*
X13122619Y10320238D01*
X13122619Y10348809D01*
X13132142Y10386904D01*
X13141666Y10405952D01*
X13160714Y10425000D01*
X13189285Y10434523D01*
X13208333Y10434523D01*
X13236904Y10425000D01*
X13246428Y10415476D01*
X13436904Y10234523D02*
X13322619Y10234523D01*
X13379761Y10234523D02*
X13379761Y10434523D01*
X13360714Y10405952D01*
X13341666Y10386904D01*
X13322619Y10377380D01*
X13627380Y10234523D02*
X13513095Y10234523D01*
X13570238Y10234523D02*
X13570238Y10434523D01*
X13551190Y10405952D01*
X13532142Y10386904D01*
X13513095Y10377380D01*
%TO.C,C8*%
X6062666Y4627571D02*
X6053142Y4618047D01*
X6024571Y4608523D01*
X6005523Y4608523D01*
X5976952Y4618047D01*
X5957904Y4637095D01*
X5948380Y4656142D01*
X5938857Y4694238D01*
X5938857Y4722809D01*
X5948380Y4760904D01*
X5957904Y4779952D01*
X5976952Y4799000D01*
X6005523Y4808523D01*
X6024571Y4808523D01*
X6053142Y4799000D01*
X6062666Y4789476D01*
X6176952Y4722809D02*
X6157904Y4732333D01*
X6148380Y4741857D01*
X6138857Y4760904D01*
X6138857Y4770428D01*
X6148380Y4789476D01*
X6157904Y4799000D01*
X6176952Y4808523D01*
X6215047Y4808523D01*
X6234095Y4799000D01*
X6243619Y4789476D01*
X6253142Y4770428D01*
X6253142Y4760904D01*
X6243619Y4741857D01*
X6234095Y4732333D01*
X6215047Y4722809D01*
X6176952Y4722809D01*
X6157904Y4713285D01*
X6148380Y4703761D01*
X6138857Y4684714D01*
X6138857Y4646619D01*
X6148380Y4627571D01*
X6157904Y4618047D01*
X6176952Y4608523D01*
X6215047Y4608523D01*
X6234095Y4618047D01*
X6243619Y4627571D01*
X6253142Y4646619D01*
X6253142Y4684714D01*
X6243619Y4703761D01*
X6234095Y4713285D01*
X6215047Y4722809D01*
%TO.C,C1*%
X15206666Y10596571D02*
X15197142Y10587047D01*
X15168571Y10577523D01*
X15149523Y10577523D01*
X15120952Y10587047D01*
X15101904Y10606095D01*
X15092380Y10625142D01*
X15082857Y10663238D01*
X15082857Y10691809D01*
X15092380Y10729904D01*
X15101904Y10748952D01*
X15120952Y10768000D01*
X15149523Y10777523D01*
X15168571Y10777523D01*
X15197142Y10768000D01*
X15206666Y10758476D01*
X15397142Y10577523D02*
X15282857Y10577523D01*
X15340000Y10577523D02*
X15340000Y10777523D01*
X15320952Y10748952D01*
X15301904Y10729904D01*
X15282857Y10720380D01*
%TO.C,C6*%
X17921428Y6741666D02*
X17930952Y6732142D01*
X17940476Y6703571D01*
X17940476Y6684523D01*
X17930952Y6655952D01*
X17911904Y6636904D01*
X17892857Y6627380D01*
X17854761Y6617857D01*
X17826190Y6617857D01*
X17788095Y6627380D01*
X17769047Y6636904D01*
X17750000Y6655952D01*
X17740476Y6684523D01*
X17740476Y6703571D01*
X17750000Y6732142D01*
X17759523Y6741666D01*
X17740476Y6913095D02*
X17740476Y6875000D01*
X17750000Y6855952D01*
X17759523Y6846428D01*
X17788095Y6827380D01*
X17826190Y6817857D01*
X17902380Y6817857D01*
X17921428Y6827380D01*
X17930952Y6836904D01*
X17940476Y6855952D01*
X17940476Y6894047D01*
X17930952Y6913095D01*
X17921428Y6922619D01*
X17902380Y6932142D01*
X17854761Y6932142D01*
X17835714Y6922619D01*
X17826190Y6913095D01*
X17816666Y6894047D01*
X17816666Y6855952D01*
X17826190Y6836904D01*
X17835714Y6827380D01*
X17854761Y6817857D01*
%TO.C,C9*%
X10253666Y3992571D02*
X10244142Y3983047D01*
X10215571Y3973523D01*
X10196523Y3973523D01*
X10167952Y3983047D01*
X10148904Y4002095D01*
X10139380Y4021142D01*
X10129857Y4059238D01*
X10129857Y4087809D01*
X10139380Y4125904D01*
X10148904Y4144952D01*
X10167952Y4164000D01*
X10196523Y4173523D01*
X10215571Y4173523D01*
X10244142Y4164000D01*
X10253666Y4154476D01*
X10348904Y3973523D02*
X10387000Y3973523D01*
X10406047Y3983047D01*
X10415571Y3992571D01*
X10434619Y4021142D01*
X10444142Y4059238D01*
X10444142Y4135428D01*
X10434619Y4154476D01*
X10425095Y4164000D01*
X10406047Y4173523D01*
X10367952Y4173523D01*
X10348904Y4164000D01*
X10339380Y4154476D01*
X10329857Y4135428D01*
X10329857Y4087809D01*
X10339380Y4068761D01*
X10348904Y4059238D01*
X10367952Y4049714D01*
X10406047Y4049714D01*
X10425095Y4059238D01*
X10434619Y4068761D01*
X10444142Y4087809D01*
%TO.C,JC4*%
X2283333Y7589523D02*
X2283333Y7446666D01*
X2273809Y7418095D01*
X2254761Y7399047D01*
X2226190Y7389523D01*
X2207142Y7389523D01*
X2492857Y7408571D02*
X2483333Y7399047D01*
X2454761Y7389523D01*
X2435714Y7389523D01*
X2407142Y7399047D01*
X2388095Y7418095D01*
X2378571Y7437142D01*
X2369047Y7475238D01*
X2369047Y7503809D01*
X2378571Y7541904D01*
X2388095Y7560952D01*
X2407142Y7580000D01*
X2435714Y7589523D01*
X2454761Y7589523D01*
X2483333Y7580000D01*
X2492857Y7570476D01*
X2664285Y7522857D02*
X2664285Y7389523D01*
X2616666Y7599047D02*
X2569047Y7456190D01*
X2692857Y7456190D01*
%TO.C,U1*%
X10007619Y6332523D02*
X10007619Y6170619D01*
X10017142Y6151571D01*
X10026666Y6142047D01*
X10045714Y6132523D01*
X10083809Y6132523D01*
X10102857Y6142047D01*
X10112380Y6151571D01*
X10121904Y6170619D01*
X10121904Y6332523D01*
X10321904Y6132523D02*
X10207619Y6132523D01*
X10264761Y6132523D02*
X10264761Y6332523D01*
X10245714Y6303952D01*
X10226666Y6284904D01*
X10207619Y6275380D01*
%TO.C,FB1*%
X483333Y12564285D02*
X416666Y12564285D01*
X416666Y12459523D02*
X416666Y12659523D01*
X511904Y12659523D01*
X654761Y12564285D02*
X683333Y12554761D01*
X692857Y12545238D01*
X702380Y12526190D01*
X702380Y12497619D01*
X692857Y12478571D01*
X683333Y12469047D01*
X664285Y12459523D01*
X588095Y12459523D01*
X588095Y12659523D01*
X654761Y12659523D01*
X673809Y12650000D01*
X683333Y12640476D01*
X692857Y12621428D01*
X692857Y12602380D01*
X683333Y12583333D01*
X673809Y12573809D01*
X654761Y12564285D01*
X588095Y12564285D01*
X892857Y12459523D02*
X778571Y12459523D01*
X835714Y12459523D02*
X835714Y12659523D01*
X816666Y12630952D01*
X797619Y12611904D01*
X778571Y12602380D01*
%TO.C,JC7*%
X2283333Y3779523D02*
X2283333Y3636666D01*
X2273809Y3608095D01*
X2254761Y3589047D01*
X2226190Y3579523D01*
X2207142Y3579523D01*
X2492857Y3598571D02*
X2483333Y3589047D01*
X2454761Y3579523D01*
X2435714Y3579523D01*
X2407142Y3589047D01*
X2388095Y3608095D01*
X2378571Y3627142D01*
X2369047Y3665238D01*
X2369047Y3693809D01*
X2378571Y3731904D01*
X2388095Y3750952D01*
X2407142Y3770000D01*
X2435714Y3779523D01*
X2454761Y3779523D01*
X2483333Y3770000D01*
X2492857Y3760476D01*
X2559523Y3779523D02*
X2692857Y3779523D01*
X2607142Y3579523D01*
D12*
%TO.C,C14*%
X8235836Y12171000D02*
X8020164Y12171000D01*
X8235836Y11451000D02*
X8020164Y11451000D01*
%TO.C,C5*%
X17132836Y8260000D02*
X16917164Y8260000D01*
X17132836Y7540000D02*
X16917164Y7540000D01*
%TO.C,C3*%
X14892164Y5253800D02*
X15107836Y5253800D01*
X14892164Y5973800D02*
X15107836Y5973800D01*
%TO.C,C2*%
X14089000Y8276964D02*
X14089000Y8492636D01*
X13369000Y8276964D02*
X13369000Y8492636D01*
%TO.C,C7*%
X18710000Y5982164D02*
X18710000Y6197836D01*
X17990000Y5982164D02*
X17990000Y6197836D01*
%TO.C,C16*%
X5075600Y6356236D02*
X5075600Y6140564D01*
X5795600Y6356236D02*
X5795600Y6140564D01*
%TO.C,R1*%
X10440641Y11431000D02*
X10133359Y11431000D01*
X10440641Y12191000D02*
X10133359Y12191000D01*
%TO.C,C15*%
X11440000Y6257836D02*
X11440000Y6042164D01*
X12160000Y6257836D02*
X12160000Y6042164D01*
%TO.C,C17*%
X12440000Y6257836D02*
X12440000Y6042164D01*
X13160000Y6257836D02*
X13160000Y6042164D01*
%TO.C,Y1*%
X5823200Y4190000D02*
X5823200Y890000D01*
X5823200Y890000D02*
X9823200Y890000D01*
%TO.C,C13*%
X4110400Y7741436D02*
X4110400Y7525764D01*
X4830400Y7741436D02*
X4830400Y7525764D01*
%TO.C,C10*%
X5765164Y11451000D02*
X5980836Y11451000D01*
X5765164Y12171000D02*
X5980836Y12171000D01*
%TO.C,C4*%
X15052764Y7539800D02*
X15268436Y7539800D01*
X15052764Y8259800D02*
X15268436Y8259800D01*
%TO.C,C12*%
X12042164Y10640000D02*
X12257836Y10640000D01*
X12042164Y11360000D02*
X12257836Y11360000D01*
%TO.C,JA3*%
X12875000Y4150000D02*
X13075000Y4150000D01*
X15875000Y1350000D02*
X15675000Y1150000D01*
X13075000Y1150000D02*
X12875000Y1150000D01*
X12875000Y1150000D02*
X12875000Y1950000D01*
X15875000Y1950000D02*
X15875000Y1350000D01*
X12875000Y3350000D02*
X12875000Y4150000D01*
X15875000Y4150000D02*
X15875000Y3350000D01*
X15675000Y4150000D02*
X15875000Y4150000D01*
X15875000Y1950000D02*
X16375000Y1950000D01*
X15875000Y3350000D02*
X16375000Y3350000D01*
%TO.C,C11*%
X12042164Y9665000D02*
X12257836Y9665000D01*
X12042164Y10385000D02*
X12257836Y10385000D01*
%TO.C,C8*%
X7308964Y4466000D02*
X7524636Y4466000D01*
X7308964Y5186000D02*
X7524636Y5186000D01*
%TO.C,C1*%
X15052764Y9622600D02*
X15268436Y9622600D01*
X15052764Y10342600D02*
X15268436Y10342600D01*
%TO.C,C6*%
X17760000Y5992164D02*
X17760000Y6207836D01*
X17040000Y5992164D02*
X17040000Y6207836D01*
%TO.C,C9*%
X9832836Y5161000D02*
X9617164Y5161000D01*
X9832836Y4441000D02*
X9617164Y4441000D01*
%TO.C,U1*%
X9964000Y6592800D02*
X10689000Y6592800D01*
X7194000Y10812800D02*
X6469000Y10812800D01*
X10689000Y10812800D02*
X10689000Y10087800D01*
X10689000Y6592800D02*
X10689000Y7317800D01*
X7194000Y6592800D02*
X6469000Y6592800D01*
X6469000Y6592800D02*
X6469000Y7317800D01*
X9964000Y10812800D02*
X10689000Y10812800D01*
%TD*%
%LPC*%
D13*
%TO.C,L1*%
X11794000Y8892800D03*
X12764000Y8892800D03*
%TD*%
D14*
%TO.C,C14*%
X8608000Y11811000D03*
X7648000Y11811000D03*
%TD*%
D13*
%TO.C,L7*%
X17365000Y4675000D03*
X18335000Y4675000D03*
%TD*%
%TO.C,L3*%
X14515000Y6731400D03*
X15485000Y6731400D03*
%TD*%
%TO.C,L2*%
X11794000Y7902800D03*
X12764000Y7902800D03*
%TD*%
D14*
%TO.C,C5*%
X17505000Y7900000D03*
X16545000Y7900000D03*
%TD*%
D15*
%TO.C,C3*%
X14520000Y5613800D03*
X15480000Y5613800D03*
%TD*%
D16*
%TO.C,JC5*%
X950000Y5810000D03*
%TD*%
D17*
%TO.C,L6*%
X16400000Y6685000D03*
X16400000Y5715000D03*
%TD*%
D18*
%TO.C,C2*%
X13729000Y7904800D03*
X13729000Y8864800D03*
%TD*%
D19*
%TO.C,JA1*%
X18000000Y1550000D03*
%TD*%
D16*
%TO.C,JC8*%
X950000Y2000000D03*
%TD*%
D18*
%TO.C,C7*%
X18350000Y5610000D03*
X18350000Y6570000D03*
%TD*%
D20*
%TO.C,C16*%
X5435600Y6728400D03*
X5435600Y5768400D03*
%TD*%
D21*
%TO.C,R1*%
X10797000Y11811000D03*
X9777000Y11811000D03*
%TD*%
D20*
%TO.C,C15*%
X11800000Y6630000D03*
X11800000Y5670000D03*
%TD*%
%TO.C,C17*%
X12800000Y6630000D03*
X12800000Y5670000D03*
%TD*%
D19*
%TO.C,JA2*%
X18000000Y3275000D03*
%TD*%
D13*
%TO.C,L4*%
X14695600Y8966600D03*
X15665600Y8966600D03*
%TD*%
D22*
%TO.C,Y1*%
X6723200Y1690000D03*
X8923200Y1690000D03*
X8923200Y3390000D03*
X6723200Y3390000D03*
%TD*%
D20*
%TO.C,C13*%
X4470400Y8113600D03*
X4470400Y7153600D03*
%TD*%
D15*
%TO.C,C10*%
X5393000Y11811000D03*
X6353000Y11811000D03*
%TD*%
%TO.C,C4*%
X14680600Y7899800D03*
X15640600Y7899800D03*
%TD*%
D16*
%TO.C,JC6*%
X950000Y4540000D03*
%TD*%
D15*
%TO.C,C12*%
X11670000Y11000000D03*
X12630000Y11000000D03*
%TD*%
D16*
%TO.C,JC3*%
X950000Y8350000D03*
%TD*%
%TO.C,JC2*%
X950000Y9620000D03*
%TD*%
D23*
%TO.C,JC1*%
X950000Y10890000D03*
%TD*%
D13*
%TO.C,L5*%
X16590000Y8950000D03*
X17560000Y8950000D03*
%TD*%
D24*
%TO.C,JA3*%
X15875000Y2650000D03*
D25*
X14375000Y4125000D03*
D24*
X12875000Y2650000D03*
D25*
X14375000Y1175000D03*
%TD*%
D15*
%TO.C,C11*%
X11670000Y10025000D03*
X12630000Y10025000D03*
%TD*%
%TO.C,C8*%
X6936800Y4826000D03*
X7896800Y4826000D03*
%TD*%
%TO.C,C1*%
X14680600Y9982600D03*
X15640600Y9982600D03*
%TD*%
D18*
%TO.C,C6*%
X17400000Y5620000D03*
X17400000Y6580000D03*
%TD*%
D14*
%TO.C,C9*%
X10205000Y4801000D03*
X9245000Y4801000D03*
%TD*%
D16*
%TO.C,JC4*%
X950000Y7080000D03*
%TD*%
D26*
%TO.C,U1*%
X6691500Y9702800D03*
X6691500Y9202800D03*
X6691500Y8702800D03*
X6691500Y8202800D03*
X6691500Y7702800D03*
D27*
X7579000Y6815300D03*
X8079000Y6815300D03*
X8579000Y6815300D03*
X9079000Y6815300D03*
X9579000Y6815300D03*
D26*
X10466500Y7702800D03*
X10466500Y8202800D03*
X10466500Y8702800D03*
X10466500Y9202800D03*
X10466500Y9702800D03*
D27*
X9579000Y10590300D03*
X9079000Y10590300D03*
X8579000Y10590300D03*
X8079000Y10590300D03*
X7579000Y10590300D03*
D28*
X8579000Y8702800D03*
%TD*%
D13*
%TO.C,FB1*%
X1540000Y12250000D03*
X2510000Y12250000D03*
%TD*%
D16*
%TO.C,JC7*%
X950000Y3270000D03*
%TD*%
M02*
