%TF.GenerationSoftware,KiCad,Pcbnew,8.0.9-8.0.9-0~ubuntu22.04.1*%
%TF.CreationDate,2025-04-17T16:20:49+02:00*%
%TF.ProjectId,HB_Stamp_IO_EXT_debug_adapter_FUEL4EP,48425f53-7461-46d7-905f-494f5f455854,1.0*%
%TF.SameCoordinates,Original*%
%TF.FileFunction,Copper,L1,Top*%
%TF.FilePolarity,Positive*%
%FSLAX46Y46*%
G04 Gerber Fmt 4.6, Leading zero omitted, Abs format (unit mm)*
G04 Created by KiCad (PCBNEW 8.0.9-8.0.9-0~ubuntu22.04.1) date 2025-04-17 16:20:49*
%MOMM*%
%LPD*%
G01*
G04 APERTURE LIST*
%TA.AperFunction,SMDPad,CuDef*%
%ADD10R,1.000000X1.000000*%
%TD*%
%TA.AperFunction,ComponentPad*%
%ADD11R,1.000000X1.000000*%
%TD*%
%TA.AperFunction,ComponentPad*%
%ADD12O,1.000000X1.000000*%
%TD*%
%TA.AperFunction,ViaPad*%
%ADD13C,0.600000*%
%TD*%
%TA.AperFunction,Conductor*%
%ADD14C,0.500000*%
%TD*%
%TA.AperFunction,Conductor*%
%ADD15C,0.200000*%
%TD*%
G04 APERTURE END LIST*
D10*
%TO.P,TP3,1,1*%
%TO.N,VCC*%
X8382000Y16256000D03*
%TD*%
D11*
%TO.P,J1,1,Pin_1*%
%TO.N,GND*%
X1828800Y28451600D03*
D12*
%TO.P,J1,2,Pin_2*%
%TO.N,VCC*%
X1828800Y27181600D03*
%TO.P,J1,3,Pin_3*%
%TO.N,/plusBAT*%
X1828800Y25911600D03*
%TD*%
D11*
%TO.P,J2,1,Pin_1*%
%TO.N,/A7*%
X20167600Y1371600D03*
D12*
%TO.P,J2,2,Pin_2*%
%TO.N,/A6*%
X20167600Y2641600D03*
%TO.P,J2,3,Pin_3*%
%TO.N,/A5*%
X20167600Y3911600D03*
%TO.P,J2,4,Pin_4*%
%TO.N,/A4*%
X20167600Y5181600D03*
%TO.P,J2,5,Pin_5*%
%TO.N,/SCL*%
X20167600Y6451600D03*
%TO.P,J2,6,Pin_6*%
%TO.N,/SDA*%
X20167600Y7721600D03*
%TO.P,J2,7,Pin_7*%
%TO.N,/A3*%
X20167600Y8991600D03*
%TO.P,J2,8,Pin_8*%
%TO.N,/A2*%
X20167600Y10261600D03*
%TD*%
D11*
%TO.P,J4,1,Pin_1*%
%TO.N,/A7*%
X20167600Y23371600D03*
D12*
%TO.P,J4,2,Pin_2*%
%TO.N,/A6*%
X20167600Y24641600D03*
%TO.P,J4,3,Pin_3*%
%TO.N,/A5*%
X20167600Y25911600D03*
%TO.P,J4,4,Pin_4*%
%TO.N,/A4*%
X20167600Y27181600D03*
%TO.P,J4,5,Pin_5*%
%TO.N,/SCL*%
X20167600Y28451600D03*
%TO.P,J4,6,Pin_6*%
%TO.N,/SDA*%
X20167600Y29721600D03*
%TO.P,J4,7,Pin_7*%
%TO.N,/A3*%
X20167600Y30991600D03*
%TO.P,J4,8,Pin_8*%
%TO.N,/A2*%
X20167600Y32261600D03*
%TD*%
D11*
%TO.P,J3,1,Pin_1*%
%TO.N,GND*%
X1828800Y6451600D03*
D12*
%TO.P,J3,2,Pin_2*%
%TO.N,VCC*%
X1828800Y5181600D03*
%TO.P,J3,3,Pin_3*%
%TO.N,/plusBAT*%
X1828800Y3911600D03*
%TD*%
D10*
%TO.P,TP2,1,1*%
%TO.N,/plusBAT*%
X8400000Y19000000D03*
%TD*%
%TO.P,TP1,1,1*%
%TO.N,GND*%
X8400000Y21700000D03*
%TD*%
D13*
%TO.N,VCC*%
X6985000Y16256000D03*
X4953000Y16256000D03*
%TO.N,/SCL*%
X17500000Y6400000D03*
X14200000Y6400000D03*
%TO.N,/SDA*%
X13500000Y7700000D03*
X17500000Y7700000D03*
%TO.N,VCC*%
X4900000Y7900000D03*
X4881600Y5181600D03*
%TO.N,/plusBAT*%
X3800000Y3900000D03*
X3800000Y19000000D03*
X7000000Y19000000D03*
X3800000Y7900000D03*
%TO.N,/A4*%
X17500000Y5200000D03*
X14800000Y5200000D03*
%TO.N,/A2*%
X12100000Y10200000D03*
X17500000Y10200000D03*
%TO.N,/A5*%
X15400000Y3900000D03*
X17500000Y3900000D03*
%TO.N,/A3*%
X17500000Y9000000D03*
X12800000Y9000000D03*
%TO.N,/A6*%
X16100000Y2700000D03*
X17500000Y2700000D03*
%TD*%
D14*
%TO.N,VCC*%
X8382000Y16256000D02*
X6985000Y16256000D01*
%TO.N,GND*%
X6000000Y7400000D02*
X5051600Y6451600D01*
X6000000Y28100000D02*
X6000000Y21700000D01*
X6000000Y21700000D02*
X6000000Y7400000D01*
X5648400Y28451600D02*
X6000000Y28100000D01*
X8400000Y21700000D02*
X6000000Y21700000D01*
X1828800Y28451600D02*
X5648400Y28451600D01*
X5051600Y6451600D02*
X1828800Y6451600D01*
D15*
%TO.N,/SCL*%
X14200000Y6400000D02*
X14200000Y24400000D01*
X17551600Y6451600D02*
X17500000Y6400000D01*
X14200000Y24400000D02*
X18251600Y28451600D01*
X18251600Y28451600D02*
X20167600Y28451600D01*
X20167600Y6451600D02*
X17551600Y6451600D01*
%TO.N,/SDA*%
X19100000Y29700000D02*
X19121600Y29721600D01*
X18800000Y29700000D02*
X19100000Y29700000D01*
X19121600Y29721600D02*
X20167600Y29721600D01*
X13500000Y24400000D02*
X18800000Y29700000D01*
X13500000Y7700000D02*
X13500000Y24400000D01*
X20167600Y7721600D02*
X17521600Y7721600D01*
X17521600Y7721600D02*
X17500000Y7700000D01*
D14*
%TO.N,VCC*%
X4618400Y27181600D02*
X1828800Y27181600D01*
X1828800Y5181600D02*
X4881600Y5181600D01*
X4900000Y26900000D02*
X4618400Y27181600D01*
X4900000Y7900000D02*
X4900000Y26900000D01*
%TO.N,/plusBAT*%
X3800000Y7900000D02*
X3800000Y25800000D01*
X3788400Y3911600D02*
X3800000Y3900000D01*
X1828800Y3911600D02*
X3788400Y3911600D01*
X3800000Y25800000D02*
X3688400Y25911600D01*
X3688400Y25911600D02*
X1828800Y25911600D01*
X8400000Y19000000D02*
X7000000Y19000000D01*
D15*
%TO.N,/A4*%
X17981600Y27181600D02*
X20167600Y27181600D01*
X17518400Y5181600D02*
X17500000Y5200000D01*
X20167600Y5181600D02*
X17518400Y5181600D01*
X14800000Y24000000D02*
X17981600Y27181600D01*
X14800000Y5200000D02*
X14800000Y24000000D01*
%TO.N,/A2*%
X12100000Y10200000D02*
X12100000Y25200000D01*
X17561600Y10261600D02*
X17500000Y10200000D01*
X12100000Y25200000D02*
X19100000Y32200000D01*
X19100000Y32300000D02*
X19138400Y32261600D01*
X19100000Y32200000D02*
X19100000Y32300000D01*
X19138400Y32261600D02*
X20167600Y32261600D01*
X20167600Y10261600D02*
X17561600Y10261600D01*
%TO.N,/A5*%
X17511600Y3911600D02*
X17500000Y3900000D01*
X15400000Y23568628D02*
X17742972Y25911600D01*
X17742972Y25911600D02*
X20167600Y25911600D01*
X15400000Y3900000D02*
X15400000Y23568628D01*
X20167600Y3911600D02*
X17511600Y3911600D01*
%TO.N,/A3*%
X12800000Y25000000D02*
X18791600Y30991600D01*
X17508400Y8991600D02*
X17500000Y9000000D01*
X18791600Y30991600D02*
X20167600Y30991600D01*
X20167600Y8991600D02*
X17508400Y8991600D01*
X12800000Y9000000D02*
X12800000Y25000000D01*
%TO.N,/A7*%
X20167600Y1371600D02*
X16928400Y1371600D01*
X16800000Y1500000D02*
X16800000Y22900000D01*
X16928400Y1371600D02*
X16800000Y1500000D01*
X16800000Y22900000D02*
X17271600Y23371600D01*
X17271600Y23371600D02*
X20167600Y23371600D01*
%TO.N,/A6*%
X20167600Y2641600D02*
X17558400Y2641600D01*
X16100000Y23500000D02*
X17241600Y24641600D01*
X17241600Y24641600D02*
X20167600Y24641600D01*
X16100000Y2700000D02*
X16100000Y23500000D01*
X17558400Y2641600D02*
X17500000Y2700000D01*
%TD*%
M02*
