%TF.GenerationSoftware,KiCad,Pcbnew,8.0.9-8.0.9-0~ubuntu22.04.1*%
%TF.CreationDate,2025-04-17T16:20:49+02:00*%
%TF.ProjectId,HB_Stamp_IO_EXT_debug_adapter_FUEL4EP,48425f53-7461-46d7-905f-494f5f455854,1.0*%
%TF.SameCoordinates,Original*%
%TF.FileFunction,Legend,Top*%
%TF.FilePolarity,Positive*%
%FSLAX46Y46*%
G04 Gerber Fmt 4.6, Leading zero omitted, Abs format (unit mm)*
G04 Created by KiCad (PCBNEW 8.0.9-8.0.9-0~ubuntu22.04.1) date 2025-04-17 16:20:49*
%MOMM*%
%LPD*%
G01*
G04 APERTURE LIST*
%ADD10C,0.100000*%
%ADD11C,0.150000*%
%ADD12C,0.120000*%
%ADD13R,1.000000X1.000000*%
%ADD14O,1.000000X1.000000*%
G04 APERTURE END LIST*
D10*
X10199000Y16764366D02*
X10344833Y16064366D01*
X10344833Y16064366D02*
X10665666Y16764366D01*
X11219833Y16131033D02*
X11182333Y16097700D01*
X11182333Y16097700D02*
X11078166Y16064366D01*
X11078166Y16064366D02*
X11011500Y16064366D01*
X11011500Y16064366D02*
X10915666Y16097700D01*
X10915666Y16097700D02*
X10857333Y16164366D01*
X10857333Y16164366D02*
X10832333Y16231033D01*
X10832333Y16231033D02*
X10815666Y16364366D01*
X10815666Y16364366D02*
X10828166Y16464366D01*
X10828166Y16464366D02*
X10878166Y16597700D01*
X10878166Y16597700D02*
X10919833Y16664366D01*
X10919833Y16664366D02*
X10994833Y16731033D01*
X10994833Y16731033D02*
X11099000Y16764366D01*
X11099000Y16764366D02*
X11165666Y16764366D01*
X11165666Y16764366D02*
X11261500Y16731033D01*
X11261500Y16731033D02*
X11290666Y16697700D01*
X11919833Y16131033D02*
X11882333Y16097700D01*
X11882333Y16097700D02*
X11778166Y16064366D01*
X11778166Y16064366D02*
X11711500Y16064366D01*
X11711500Y16064366D02*
X11615666Y16097700D01*
X11615666Y16097700D02*
X11557333Y16164366D01*
X11557333Y16164366D02*
X11532333Y16231033D01*
X11532333Y16231033D02*
X11515666Y16364366D01*
X11515666Y16364366D02*
X11528166Y16464366D01*
X11528166Y16464366D02*
X11578166Y16597700D01*
X11578166Y16597700D02*
X11619833Y16664366D01*
X11619833Y16664366D02*
X11694833Y16731033D01*
X11694833Y16731033D02*
X11799000Y16764366D01*
X11799000Y16764366D02*
X11865666Y16764366D01*
X11865666Y16764366D02*
X11961500Y16731033D01*
X11961500Y16731033D02*
X11990666Y16697700D01*
X10183334Y19381366D02*
X10329167Y18681366D01*
X10329167Y18681366D02*
X10650000Y19381366D01*
X11075000Y19048033D02*
X11170834Y19014700D01*
X11170834Y19014700D02*
X11200000Y18981366D01*
X11200000Y18981366D02*
X11225000Y18914700D01*
X11225000Y18914700D02*
X11212500Y18814700D01*
X11212500Y18814700D02*
X11170834Y18748033D01*
X11170834Y18748033D02*
X11133334Y18714700D01*
X11133334Y18714700D02*
X11062500Y18681366D01*
X11062500Y18681366D02*
X10795834Y18681366D01*
X10795834Y18681366D02*
X10883334Y19381366D01*
X10883334Y19381366D02*
X11116667Y19381366D01*
X11116667Y19381366D02*
X11179167Y19348033D01*
X11179167Y19348033D02*
X11208334Y19314700D01*
X11208334Y19314700D02*
X11233334Y19248033D01*
X11233334Y19248033D02*
X11225000Y19181366D01*
X11225000Y19181366D02*
X11183334Y19114700D01*
X11183334Y19114700D02*
X11145834Y19081366D01*
X11145834Y19081366D02*
X11075000Y19048033D01*
X11075000Y19048033D02*
X10841667Y19048033D01*
X11487500Y18881366D02*
X11820834Y18881366D01*
X11395834Y18681366D02*
X11716667Y19381366D01*
X11716667Y19381366D02*
X11862500Y18681366D01*
X12083334Y19381366D02*
X12483334Y19381366D01*
X12195834Y18681366D02*
X12283334Y19381366D01*
X10795834Y22098033D02*
X10733334Y22131366D01*
X10733334Y22131366D02*
X10633334Y22131366D01*
X10633334Y22131366D02*
X10529167Y22098033D01*
X10529167Y22098033D02*
X10454167Y22031366D01*
X10454167Y22031366D02*
X10412500Y21964700D01*
X10412500Y21964700D02*
X10362500Y21831366D01*
X10362500Y21831366D02*
X10350000Y21731366D01*
X10350000Y21731366D02*
X10366667Y21598033D01*
X10366667Y21598033D02*
X10391667Y21531366D01*
X10391667Y21531366D02*
X10450000Y21464700D01*
X10450000Y21464700D02*
X10545834Y21431366D01*
X10545834Y21431366D02*
X10612500Y21431366D01*
X10612500Y21431366D02*
X10716667Y21464700D01*
X10716667Y21464700D02*
X10754167Y21498033D01*
X10754167Y21498033D02*
X10783334Y21731366D01*
X10783334Y21731366D02*
X10650000Y21731366D01*
X11045834Y21431366D02*
X11133334Y22131366D01*
X11133334Y22131366D02*
X11445834Y21431366D01*
X11445834Y21431366D02*
X11533334Y22131366D01*
X11779167Y21431366D02*
X11866667Y22131366D01*
X11866667Y22131366D02*
X12033333Y22131366D01*
X12033333Y22131366D02*
X12129167Y22098033D01*
X12129167Y22098033D02*
X12187500Y22031366D01*
X12187500Y22031366D02*
X12212500Y21964700D01*
X12212500Y21964700D02*
X12229167Y21831366D01*
X12229167Y21831366D02*
X12216667Y21731366D01*
X12216667Y21731366D02*
X12166667Y21598033D01*
X12166667Y21598033D02*
X12125000Y21531366D01*
X12125000Y21531366D02*
X12050000Y21464700D01*
X12050000Y21464700D02*
X11945833Y21431366D01*
X11945833Y21431366D02*
X11779167Y21431366D01*
D11*
X17357969Y7359800D02*
X17443684Y7331228D01*
X17443684Y7331228D02*
X17586541Y7331228D01*
X17586541Y7331228D02*
X17643684Y7359800D01*
X17643684Y7359800D02*
X17672255Y7388371D01*
X17672255Y7388371D02*
X17700826Y7445514D01*
X17700826Y7445514D02*
X17700826Y7502657D01*
X17700826Y7502657D02*
X17672255Y7559800D01*
X17672255Y7559800D02*
X17643684Y7588371D01*
X17643684Y7588371D02*
X17586541Y7616942D01*
X17586541Y7616942D02*
X17472255Y7645514D01*
X17472255Y7645514D02*
X17415112Y7674085D01*
X17415112Y7674085D02*
X17386541Y7702657D01*
X17386541Y7702657D02*
X17357969Y7759800D01*
X17357969Y7759800D02*
X17357969Y7816942D01*
X17357969Y7816942D02*
X17386541Y7874085D01*
X17386541Y7874085D02*
X17415112Y7902657D01*
X17415112Y7902657D02*
X17472255Y7931228D01*
X17472255Y7931228D02*
X17615112Y7931228D01*
X17615112Y7931228D02*
X17700826Y7902657D01*
X17957970Y7331228D02*
X17957970Y7931228D01*
X17957970Y7931228D02*
X18100827Y7931228D01*
X18100827Y7931228D02*
X18186541Y7902657D01*
X18186541Y7902657D02*
X18243684Y7845514D01*
X18243684Y7845514D02*
X18272255Y7788371D01*
X18272255Y7788371D02*
X18300827Y7674085D01*
X18300827Y7674085D02*
X18300827Y7588371D01*
X18300827Y7588371D02*
X18272255Y7474085D01*
X18272255Y7474085D02*
X18243684Y7416942D01*
X18243684Y7416942D02*
X18186541Y7359800D01*
X18186541Y7359800D02*
X18100827Y7331228D01*
X18100827Y7331228D02*
X17957970Y7331228D01*
X18529398Y7502657D02*
X18815113Y7502657D01*
X18472255Y7331228D02*
X18672255Y7931228D01*
X18672255Y7931228D02*
X18872255Y7331228D01*
X17357969Y1305057D02*
X17643684Y1305057D01*
X17300826Y1133628D02*
X17500826Y1733628D01*
X17500826Y1733628D02*
X17700826Y1133628D01*
X17843684Y1733628D02*
X18243684Y1733628D01*
X18243684Y1733628D02*
X17986541Y1133628D01*
X17357969Y2575057D02*
X17643684Y2575057D01*
X17300826Y2403628D02*
X17500826Y3003628D01*
X17500826Y3003628D02*
X17700826Y2403628D01*
X18157970Y3003628D02*
X18043684Y3003628D01*
X18043684Y3003628D02*
X17986541Y2975057D01*
X17986541Y2975057D02*
X17957970Y2946485D01*
X17957970Y2946485D02*
X17900827Y2860771D01*
X17900827Y2860771D02*
X17872255Y2746485D01*
X17872255Y2746485D02*
X17872255Y2517914D01*
X17872255Y2517914D02*
X17900827Y2460771D01*
X17900827Y2460771D02*
X17929398Y2432200D01*
X17929398Y2432200D02*
X17986541Y2403628D01*
X17986541Y2403628D02*
X18100827Y2403628D01*
X18100827Y2403628D02*
X18157970Y2432200D01*
X18157970Y2432200D02*
X18186541Y2460771D01*
X18186541Y2460771D02*
X18215112Y2517914D01*
X18215112Y2517914D02*
X18215112Y2660771D01*
X18215112Y2660771D02*
X18186541Y2717914D01*
X18186541Y2717914D02*
X18157970Y2746485D01*
X18157970Y2746485D02*
X18100827Y2775057D01*
X18100827Y2775057D02*
X17986541Y2775057D01*
X17986541Y2775057D02*
X17929398Y2746485D01*
X17929398Y2746485D02*
X17900827Y2717914D01*
X17900827Y2717914D02*
X17872255Y2660771D01*
X17357969Y6140600D02*
X17443684Y6112028D01*
X17443684Y6112028D02*
X17586541Y6112028D01*
X17586541Y6112028D02*
X17643684Y6140600D01*
X17643684Y6140600D02*
X17672255Y6169171D01*
X17672255Y6169171D02*
X17700826Y6226314D01*
X17700826Y6226314D02*
X17700826Y6283457D01*
X17700826Y6283457D02*
X17672255Y6340600D01*
X17672255Y6340600D02*
X17643684Y6369171D01*
X17643684Y6369171D02*
X17586541Y6397742D01*
X17586541Y6397742D02*
X17472255Y6426314D01*
X17472255Y6426314D02*
X17415112Y6454885D01*
X17415112Y6454885D02*
X17386541Y6483457D01*
X17386541Y6483457D02*
X17357969Y6540600D01*
X17357969Y6540600D02*
X17357969Y6597742D01*
X17357969Y6597742D02*
X17386541Y6654885D01*
X17386541Y6654885D02*
X17415112Y6683457D01*
X17415112Y6683457D02*
X17472255Y6712028D01*
X17472255Y6712028D02*
X17615112Y6712028D01*
X17615112Y6712028D02*
X17700826Y6683457D01*
X18300827Y6169171D02*
X18272255Y6140600D01*
X18272255Y6140600D02*
X18186541Y6112028D01*
X18186541Y6112028D02*
X18129398Y6112028D01*
X18129398Y6112028D02*
X18043684Y6140600D01*
X18043684Y6140600D02*
X17986541Y6197742D01*
X17986541Y6197742D02*
X17957970Y6254885D01*
X17957970Y6254885D02*
X17929398Y6369171D01*
X17929398Y6369171D02*
X17929398Y6454885D01*
X17929398Y6454885D02*
X17957970Y6569171D01*
X17957970Y6569171D02*
X17986541Y6626314D01*
X17986541Y6626314D02*
X18043684Y6683457D01*
X18043684Y6683457D02*
X18129398Y6712028D01*
X18129398Y6712028D02*
X18186541Y6712028D01*
X18186541Y6712028D02*
X18272255Y6683457D01*
X18272255Y6683457D02*
X18300827Y6654885D01*
X18843684Y6112028D02*
X18557970Y6112028D01*
X18557970Y6112028D02*
X18557970Y6712028D01*
X17357969Y10245857D02*
X17643684Y10245857D01*
X17300826Y10074428D02*
X17500826Y10674428D01*
X17500826Y10674428D02*
X17700826Y10074428D01*
X17872255Y10617285D02*
X17900827Y10645857D01*
X17900827Y10645857D02*
X17957970Y10674428D01*
X17957970Y10674428D02*
X18100827Y10674428D01*
X18100827Y10674428D02*
X18157970Y10645857D01*
X18157970Y10645857D02*
X18186541Y10617285D01*
X18186541Y10617285D02*
X18215112Y10560142D01*
X18215112Y10560142D02*
X18215112Y10503000D01*
X18215112Y10503000D02*
X18186541Y10417285D01*
X18186541Y10417285D02*
X17843684Y10074428D01*
X17843684Y10074428D02*
X18215112Y10074428D01*
X17357969Y5064257D02*
X17643684Y5064257D01*
X17300826Y4892828D02*
X17500826Y5492828D01*
X17500826Y5492828D02*
X17700826Y4892828D01*
X18157970Y5292828D02*
X18157970Y4892828D01*
X18015112Y5521400D02*
X17872255Y5092828D01*
X17872255Y5092828D02*
X18243684Y5092828D01*
X17357969Y8823457D02*
X17643684Y8823457D01*
X17300826Y8652028D02*
X17500826Y9252028D01*
X17500826Y9252028D02*
X17700826Y8652028D01*
X17843684Y9252028D02*
X18215112Y9252028D01*
X18215112Y9252028D02*
X18015112Y9023457D01*
X18015112Y9023457D02*
X18100827Y9023457D01*
X18100827Y9023457D02*
X18157970Y8994885D01*
X18157970Y8994885D02*
X18186541Y8966314D01*
X18186541Y8966314D02*
X18215112Y8909171D01*
X18215112Y8909171D02*
X18215112Y8766314D01*
X18215112Y8766314D02*
X18186541Y8709171D01*
X18186541Y8709171D02*
X18157970Y8680600D01*
X18157970Y8680600D02*
X18100827Y8652028D01*
X18100827Y8652028D02*
X17929398Y8652028D01*
X17929398Y8652028D02*
X17872255Y8680600D01*
X17872255Y8680600D02*
X17843684Y8709171D01*
X17357969Y3794257D02*
X17643684Y3794257D01*
X17300826Y3622828D02*
X17500826Y4222828D01*
X17500826Y4222828D02*
X17700826Y3622828D01*
X18186541Y4222828D02*
X17900827Y4222828D01*
X17900827Y4222828D02*
X17872255Y3937114D01*
X17872255Y3937114D02*
X17900827Y3965685D01*
X17900827Y3965685D02*
X17957970Y3994257D01*
X17957970Y3994257D02*
X18100827Y3994257D01*
X18100827Y3994257D02*
X18157970Y3965685D01*
X18157970Y3965685D02*
X18186541Y3937114D01*
X18186541Y3937114D02*
X18215112Y3879971D01*
X18215112Y3879971D02*
X18215112Y3737114D01*
X18215112Y3737114D02*
X18186541Y3679971D01*
X18186541Y3679971D02*
X18157970Y3651400D01*
X18157970Y3651400D02*
X18100827Y3622828D01*
X18100827Y3622828D02*
X17957970Y3622828D01*
X17957970Y3622828D02*
X17900827Y3651400D01*
X17900827Y3651400D02*
X17872255Y3679971D01*
X17357969Y25801057D02*
X17643684Y25801057D01*
X17300826Y25629628D02*
X17500826Y26229628D01*
X17500826Y26229628D02*
X17700826Y25629628D01*
X18186541Y26229628D02*
X17900827Y26229628D01*
X17900827Y26229628D02*
X17872255Y25943914D01*
X17872255Y25943914D02*
X17900827Y25972485D01*
X17900827Y25972485D02*
X17957970Y26001057D01*
X17957970Y26001057D02*
X18100827Y26001057D01*
X18100827Y26001057D02*
X18157970Y25972485D01*
X18157970Y25972485D02*
X18186541Y25943914D01*
X18186541Y25943914D02*
X18215112Y25886771D01*
X18215112Y25886771D02*
X18215112Y25743914D01*
X18215112Y25743914D02*
X18186541Y25686771D01*
X18186541Y25686771D02*
X18157970Y25658200D01*
X18157970Y25658200D02*
X18100827Y25629628D01*
X18100827Y25629628D02*
X17957970Y25629628D01*
X17957970Y25629628D02*
X17900827Y25658200D01*
X17900827Y25658200D02*
X17872255Y25686771D01*
X17357969Y30830257D02*
X17643684Y30830257D01*
X17300826Y30658828D02*
X17500826Y31258828D01*
X17500826Y31258828D02*
X17700826Y30658828D01*
X17843684Y31258828D02*
X18215112Y31258828D01*
X18215112Y31258828D02*
X18015112Y31030257D01*
X18015112Y31030257D02*
X18100827Y31030257D01*
X18100827Y31030257D02*
X18157970Y31001685D01*
X18157970Y31001685D02*
X18186541Y30973114D01*
X18186541Y30973114D02*
X18215112Y30915971D01*
X18215112Y30915971D02*
X18215112Y30773114D01*
X18215112Y30773114D02*
X18186541Y30715971D01*
X18186541Y30715971D02*
X18157970Y30687400D01*
X18157970Y30687400D02*
X18100827Y30658828D01*
X18100827Y30658828D02*
X17929398Y30658828D01*
X17929398Y30658828D02*
X17872255Y30687400D01*
X17872255Y30687400D02*
X17843684Y30715971D01*
X17357969Y32252657D02*
X17643684Y32252657D01*
X17300826Y32081228D02*
X17500826Y32681228D01*
X17500826Y32681228D02*
X17700826Y32081228D01*
X17872255Y32624085D02*
X17900827Y32652657D01*
X17900827Y32652657D02*
X17957970Y32681228D01*
X17957970Y32681228D02*
X18100827Y32681228D01*
X18100827Y32681228D02*
X18157970Y32652657D01*
X18157970Y32652657D02*
X18186541Y32624085D01*
X18186541Y32624085D02*
X18215112Y32566942D01*
X18215112Y32566942D02*
X18215112Y32509800D01*
X18215112Y32509800D02*
X18186541Y32424085D01*
X18186541Y32424085D02*
X17843684Y32081228D01*
X17843684Y32081228D02*
X18215112Y32081228D01*
X17357969Y29366600D02*
X17443684Y29338028D01*
X17443684Y29338028D02*
X17586541Y29338028D01*
X17586541Y29338028D02*
X17643684Y29366600D01*
X17643684Y29366600D02*
X17672255Y29395171D01*
X17672255Y29395171D02*
X17700826Y29452314D01*
X17700826Y29452314D02*
X17700826Y29509457D01*
X17700826Y29509457D02*
X17672255Y29566600D01*
X17672255Y29566600D02*
X17643684Y29595171D01*
X17643684Y29595171D02*
X17586541Y29623742D01*
X17586541Y29623742D02*
X17472255Y29652314D01*
X17472255Y29652314D02*
X17415112Y29680885D01*
X17415112Y29680885D02*
X17386541Y29709457D01*
X17386541Y29709457D02*
X17357969Y29766600D01*
X17357969Y29766600D02*
X17357969Y29823742D01*
X17357969Y29823742D02*
X17386541Y29880885D01*
X17386541Y29880885D02*
X17415112Y29909457D01*
X17415112Y29909457D02*
X17472255Y29938028D01*
X17472255Y29938028D02*
X17615112Y29938028D01*
X17615112Y29938028D02*
X17700826Y29909457D01*
X17957970Y29338028D02*
X17957970Y29938028D01*
X17957970Y29938028D02*
X18100827Y29938028D01*
X18100827Y29938028D02*
X18186541Y29909457D01*
X18186541Y29909457D02*
X18243684Y29852314D01*
X18243684Y29852314D02*
X18272255Y29795171D01*
X18272255Y29795171D02*
X18300827Y29680885D01*
X18300827Y29680885D02*
X18300827Y29595171D01*
X18300827Y29595171D02*
X18272255Y29480885D01*
X18272255Y29480885D02*
X18243684Y29423742D01*
X18243684Y29423742D02*
X18186541Y29366600D01*
X18186541Y29366600D02*
X18100827Y29338028D01*
X18100827Y29338028D02*
X17957970Y29338028D01*
X18529398Y29509457D02*
X18815113Y29509457D01*
X18472255Y29338028D02*
X18672255Y29938028D01*
X18672255Y29938028D02*
X18872255Y29338028D01*
X17357969Y27071057D02*
X17643684Y27071057D01*
X17300826Y26899628D02*
X17500826Y27499628D01*
X17500826Y27499628D02*
X17700826Y26899628D01*
X18157970Y27299628D02*
X18157970Y26899628D01*
X18015112Y27528200D02*
X17872255Y27099628D01*
X17872255Y27099628D02*
X18243684Y27099628D01*
X17357969Y28147400D02*
X17443684Y28118828D01*
X17443684Y28118828D02*
X17586541Y28118828D01*
X17586541Y28118828D02*
X17643684Y28147400D01*
X17643684Y28147400D02*
X17672255Y28175971D01*
X17672255Y28175971D02*
X17700826Y28233114D01*
X17700826Y28233114D02*
X17700826Y28290257D01*
X17700826Y28290257D02*
X17672255Y28347400D01*
X17672255Y28347400D02*
X17643684Y28375971D01*
X17643684Y28375971D02*
X17586541Y28404542D01*
X17586541Y28404542D02*
X17472255Y28433114D01*
X17472255Y28433114D02*
X17415112Y28461685D01*
X17415112Y28461685D02*
X17386541Y28490257D01*
X17386541Y28490257D02*
X17357969Y28547400D01*
X17357969Y28547400D02*
X17357969Y28604542D01*
X17357969Y28604542D02*
X17386541Y28661685D01*
X17386541Y28661685D02*
X17415112Y28690257D01*
X17415112Y28690257D02*
X17472255Y28718828D01*
X17472255Y28718828D02*
X17615112Y28718828D01*
X17615112Y28718828D02*
X17700826Y28690257D01*
X18300827Y28175971D02*
X18272255Y28147400D01*
X18272255Y28147400D02*
X18186541Y28118828D01*
X18186541Y28118828D02*
X18129398Y28118828D01*
X18129398Y28118828D02*
X18043684Y28147400D01*
X18043684Y28147400D02*
X17986541Y28204542D01*
X17986541Y28204542D02*
X17957970Y28261685D01*
X17957970Y28261685D02*
X17929398Y28375971D01*
X17929398Y28375971D02*
X17929398Y28461685D01*
X17929398Y28461685D02*
X17957970Y28575971D01*
X17957970Y28575971D02*
X17986541Y28633114D01*
X17986541Y28633114D02*
X18043684Y28690257D01*
X18043684Y28690257D02*
X18129398Y28718828D01*
X18129398Y28718828D02*
X18186541Y28718828D01*
X18186541Y28718828D02*
X18272255Y28690257D01*
X18272255Y28690257D02*
X18300827Y28661685D01*
X18843684Y28118828D02*
X18557970Y28118828D01*
X18557970Y28118828D02*
X18557970Y28718828D01*
X17357969Y23311857D02*
X17643684Y23311857D01*
X17300826Y23140428D02*
X17500826Y23740428D01*
X17500826Y23740428D02*
X17700826Y23140428D01*
X17843684Y23740428D02*
X18243684Y23740428D01*
X18243684Y23740428D02*
X17986541Y23140428D01*
X17357969Y24581857D02*
X17643684Y24581857D01*
X17300826Y24410428D02*
X17500826Y25010428D01*
X17500826Y25010428D02*
X17700826Y24410428D01*
X18157970Y25010428D02*
X18043684Y25010428D01*
X18043684Y25010428D02*
X17986541Y24981857D01*
X17986541Y24981857D02*
X17957970Y24953285D01*
X17957970Y24953285D02*
X17900827Y24867571D01*
X17900827Y24867571D02*
X17872255Y24753285D01*
X17872255Y24753285D02*
X17872255Y24524714D01*
X17872255Y24524714D02*
X17900827Y24467571D01*
X17900827Y24467571D02*
X17929398Y24439000D01*
X17929398Y24439000D02*
X17986541Y24410428D01*
X17986541Y24410428D02*
X18100827Y24410428D01*
X18100827Y24410428D02*
X18157970Y24439000D01*
X18157970Y24439000D02*
X18186541Y24467571D01*
X18186541Y24467571D02*
X18215112Y24524714D01*
X18215112Y24524714D02*
X18215112Y24667571D01*
X18215112Y24667571D02*
X18186541Y24724714D01*
X18186541Y24724714D02*
X18157970Y24753285D01*
X18157970Y24753285D02*
X18100827Y24781857D01*
X18100827Y24781857D02*
X17986541Y24781857D01*
X17986541Y24781857D02*
X17929398Y24753285D01*
X17929398Y24753285D02*
X17900827Y24724714D01*
X17900827Y24724714D02*
X17872255Y24667571D01*
D10*
X4050000Y5581366D02*
X4195833Y4881366D01*
X4195833Y4881366D02*
X4516666Y5581366D01*
X5070833Y4948033D02*
X5033333Y4914700D01*
X5033333Y4914700D02*
X4929166Y4881366D01*
X4929166Y4881366D02*
X4862500Y4881366D01*
X4862500Y4881366D02*
X4766666Y4914700D01*
X4766666Y4914700D02*
X4708333Y4981366D01*
X4708333Y4981366D02*
X4683333Y5048033D01*
X4683333Y5048033D02*
X4666666Y5181366D01*
X4666666Y5181366D02*
X4679166Y5281366D01*
X4679166Y5281366D02*
X4729166Y5414700D01*
X4729166Y5414700D02*
X4770833Y5481366D01*
X4770833Y5481366D02*
X4845833Y5548033D01*
X4845833Y5548033D02*
X4950000Y5581366D01*
X4950000Y5581366D02*
X5016666Y5581366D01*
X5016666Y5581366D02*
X5112500Y5548033D01*
X5112500Y5548033D02*
X5141666Y5514700D01*
X5770833Y4948033D02*
X5733333Y4914700D01*
X5733333Y4914700D02*
X5629166Y4881366D01*
X5629166Y4881366D02*
X5562500Y4881366D01*
X5562500Y4881366D02*
X5466666Y4914700D01*
X5466666Y4914700D02*
X5408333Y4981366D01*
X5408333Y4981366D02*
X5383333Y5048033D01*
X5383333Y5048033D02*
X5366666Y5181366D01*
X5366666Y5181366D02*
X5379166Y5281366D01*
X5379166Y5281366D02*
X5429166Y5414700D01*
X5429166Y5414700D02*
X5470833Y5481366D01*
X5470833Y5481366D02*
X5545833Y5548033D01*
X5545833Y5548033D02*
X5650000Y5581366D01*
X5650000Y5581366D02*
X5716666Y5581366D01*
X5716666Y5581366D02*
X5812500Y5548033D01*
X5812500Y5548033D02*
X5841666Y5514700D01*
X4445834Y6748033D02*
X4383334Y6781366D01*
X4383334Y6781366D02*
X4283334Y6781366D01*
X4283334Y6781366D02*
X4179167Y6748033D01*
X4179167Y6748033D02*
X4104167Y6681366D01*
X4104167Y6681366D02*
X4062500Y6614700D01*
X4062500Y6614700D02*
X4012500Y6481366D01*
X4012500Y6481366D02*
X4000000Y6381366D01*
X4000000Y6381366D02*
X4016667Y6248033D01*
X4016667Y6248033D02*
X4041667Y6181366D01*
X4041667Y6181366D02*
X4100000Y6114700D01*
X4100000Y6114700D02*
X4195834Y6081366D01*
X4195834Y6081366D02*
X4262500Y6081366D01*
X4262500Y6081366D02*
X4366667Y6114700D01*
X4366667Y6114700D02*
X4404167Y6148033D01*
X4404167Y6148033D02*
X4433334Y6381366D01*
X4433334Y6381366D02*
X4300000Y6381366D01*
X4695834Y6081366D02*
X4783334Y6781366D01*
X4783334Y6781366D02*
X5095834Y6081366D01*
X5095834Y6081366D02*
X5183334Y6781366D01*
X5429167Y6081366D02*
X5516667Y6781366D01*
X5516667Y6781366D02*
X5683333Y6781366D01*
X5683333Y6781366D02*
X5779167Y6748033D01*
X5779167Y6748033D02*
X5837500Y6681366D01*
X5837500Y6681366D02*
X5862500Y6614700D01*
X5862500Y6614700D02*
X5879167Y6481366D01*
X5879167Y6481366D02*
X5866667Y6381366D01*
X5866667Y6381366D02*
X5816667Y6248033D01*
X5816667Y6248033D02*
X5775000Y6181366D01*
X5775000Y6181366D02*
X5700000Y6114700D01*
X5700000Y6114700D02*
X5595833Y6081366D01*
X5595833Y6081366D02*
X5429167Y6081366D01*
X4033334Y4281366D02*
X4179167Y3581366D01*
X4179167Y3581366D02*
X4500000Y4281366D01*
X4925000Y3948033D02*
X5020834Y3914700D01*
X5020834Y3914700D02*
X5050000Y3881366D01*
X5050000Y3881366D02*
X5075000Y3814700D01*
X5075000Y3814700D02*
X5062500Y3714700D01*
X5062500Y3714700D02*
X5020834Y3648033D01*
X5020834Y3648033D02*
X4983334Y3614700D01*
X4983334Y3614700D02*
X4912500Y3581366D01*
X4912500Y3581366D02*
X4645834Y3581366D01*
X4645834Y3581366D02*
X4733334Y4281366D01*
X4733334Y4281366D02*
X4966667Y4281366D01*
X4966667Y4281366D02*
X5029167Y4248033D01*
X5029167Y4248033D02*
X5058334Y4214700D01*
X5058334Y4214700D02*
X5083334Y4148033D01*
X5083334Y4148033D02*
X5075000Y4081366D01*
X5075000Y4081366D02*
X5033334Y4014700D01*
X5033334Y4014700D02*
X4995834Y3981366D01*
X4995834Y3981366D02*
X4925000Y3948033D01*
X4925000Y3948033D02*
X4691667Y3948033D01*
X5337500Y3781366D02*
X5670834Y3781366D01*
X5245834Y3581366D02*
X5566667Y4281366D01*
X5566667Y4281366D02*
X5712500Y3581366D01*
X5933334Y4281366D02*
X6333334Y4281366D01*
X6045834Y3581366D02*
X6133334Y4281366D01*
X3850000Y27581366D02*
X3995833Y26881366D01*
X3995833Y26881366D02*
X4316666Y27581366D01*
X4870833Y26948033D02*
X4833333Y26914700D01*
X4833333Y26914700D02*
X4729166Y26881366D01*
X4729166Y26881366D02*
X4662500Y26881366D01*
X4662500Y26881366D02*
X4566666Y26914700D01*
X4566666Y26914700D02*
X4508333Y26981366D01*
X4508333Y26981366D02*
X4483333Y27048033D01*
X4483333Y27048033D02*
X4466666Y27181366D01*
X4466666Y27181366D02*
X4479166Y27281366D01*
X4479166Y27281366D02*
X4529166Y27414700D01*
X4529166Y27414700D02*
X4570833Y27481366D01*
X4570833Y27481366D02*
X4645833Y27548033D01*
X4645833Y27548033D02*
X4750000Y27581366D01*
X4750000Y27581366D02*
X4816666Y27581366D01*
X4816666Y27581366D02*
X4912500Y27548033D01*
X4912500Y27548033D02*
X4941666Y27514700D01*
X5570833Y26948033D02*
X5533333Y26914700D01*
X5533333Y26914700D02*
X5429166Y26881366D01*
X5429166Y26881366D02*
X5362500Y26881366D01*
X5362500Y26881366D02*
X5266666Y26914700D01*
X5266666Y26914700D02*
X5208333Y26981366D01*
X5208333Y26981366D02*
X5183333Y27048033D01*
X5183333Y27048033D02*
X5166666Y27181366D01*
X5166666Y27181366D02*
X5179166Y27281366D01*
X5179166Y27281366D02*
X5229166Y27414700D01*
X5229166Y27414700D02*
X5270833Y27481366D01*
X5270833Y27481366D02*
X5345833Y27548033D01*
X5345833Y27548033D02*
X5450000Y27581366D01*
X5450000Y27581366D02*
X5516666Y27581366D01*
X5516666Y27581366D02*
X5612500Y27548033D01*
X5612500Y27548033D02*
X5641666Y27514700D01*
X4245834Y28748033D02*
X4183334Y28781366D01*
X4183334Y28781366D02*
X4083334Y28781366D01*
X4083334Y28781366D02*
X3979167Y28748033D01*
X3979167Y28748033D02*
X3904167Y28681366D01*
X3904167Y28681366D02*
X3862500Y28614700D01*
X3862500Y28614700D02*
X3812500Y28481366D01*
X3812500Y28481366D02*
X3800000Y28381366D01*
X3800000Y28381366D02*
X3816667Y28248033D01*
X3816667Y28248033D02*
X3841667Y28181366D01*
X3841667Y28181366D02*
X3900000Y28114700D01*
X3900000Y28114700D02*
X3995834Y28081366D01*
X3995834Y28081366D02*
X4062500Y28081366D01*
X4062500Y28081366D02*
X4166667Y28114700D01*
X4166667Y28114700D02*
X4204167Y28148033D01*
X4204167Y28148033D02*
X4233334Y28381366D01*
X4233334Y28381366D02*
X4100000Y28381366D01*
X4495834Y28081366D02*
X4583334Y28781366D01*
X4583334Y28781366D02*
X4895834Y28081366D01*
X4895834Y28081366D02*
X4983334Y28781366D01*
X5229167Y28081366D02*
X5316667Y28781366D01*
X5316667Y28781366D02*
X5483333Y28781366D01*
X5483333Y28781366D02*
X5579167Y28748033D01*
X5579167Y28748033D02*
X5637500Y28681366D01*
X5637500Y28681366D02*
X5662500Y28614700D01*
X5662500Y28614700D02*
X5679167Y28481366D01*
X5679167Y28481366D02*
X5666667Y28381366D01*
X5666667Y28381366D02*
X5616667Y28248033D01*
X5616667Y28248033D02*
X5575000Y28181366D01*
X5575000Y28181366D02*
X5500000Y28114700D01*
X5500000Y28114700D02*
X5395833Y28081366D01*
X5395833Y28081366D02*
X5229167Y28081366D01*
X-125933142Y326689057D02*
X-125990285Y326717628D01*
X-125990285Y326717628D02*
X-126075999Y326717628D01*
X-126075999Y326717628D02*
X-126161713Y326689057D01*
X-126161713Y326689057D02*
X-126218856Y326631914D01*
X-126218856Y326631914D02*
X-126247427Y326574771D01*
X-126247427Y326574771D02*
X-126275999Y326460485D01*
X-126275999Y326460485D02*
X-126275999Y326374771D01*
X-126275999Y326374771D02*
X-126247427Y326260485D01*
X-126247427Y326260485D02*
X-126218856Y326203342D01*
X-126218856Y326203342D02*
X-126161713Y326146200D01*
X-126161713Y326146200D02*
X-126075999Y326117628D01*
X-126075999Y326117628D02*
X-126018856Y326117628D01*
X-126018856Y326117628D02*
X-125933142Y326146200D01*
X-125933142Y326146200D02*
X-125904570Y326174771D01*
X-125904570Y326174771D02*
X-125904570Y326374771D01*
X-125904570Y326374771D02*
X-126018856Y326374771D01*
X-125647427Y326117628D02*
X-125647427Y326717628D01*
X-125647427Y326717628D02*
X-125304570Y326117628D01*
X-125304570Y326117628D02*
X-125304570Y326717628D01*
X-125018856Y326117628D02*
X-125018856Y326717628D01*
X-125018856Y326717628D02*
X-124875999Y326717628D01*
X-124875999Y326717628D02*
X-124790285Y326689057D01*
X-124790285Y326689057D02*
X-124733142Y326631914D01*
X-124733142Y326631914D02*
X-124704571Y326574771D01*
X-124704571Y326574771D02*
X-124675999Y326460485D01*
X-124675999Y326460485D02*
X-124675999Y326374771D01*
X-124675999Y326374771D02*
X-124704571Y326260485D01*
X-124704571Y326260485D02*
X-124733142Y326203342D01*
X-124733142Y326203342D02*
X-124790285Y326146200D01*
X-124790285Y326146200D02*
X-124875999Y326117628D01*
X-124875999Y326117628D02*
X-125018856Y326117628D01*
X3833334Y26281366D02*
X3979167Y25581366D01*
X3979167Y25581366D02*
X4300000Y26281366D01*
X4725000Y25948033D02*
X4820834Y25914700D01*
X4820834Y25914700D02*
X4850000Y25881366D01*
X4850000Y25881366D02*
X4875000Y25814700D01*
X4875000Y25814700D02*
X4862500Y25714700D01*
X4862500Y25714700D02*
X4820834Y25648033D01*
X4820834Y25648033D02*
X4783334Y25614700D01*
X4783334Y25614700D02*
X4712500Y25581366D01*
X4712500Y25581366D02*
X4445834Y25581366D01*
X4445834Y25581366D02*
X4533334Y26281366D01*
X4533334Y26281366D02*
X4766667Y26281366D01*
X4766667Y26281366D02*
X4829167Y26248033D01*
X4829167Y26248033D02*
X4858334Y26214700D01*
X4858334Y26214700D02*
X4883334Y26148033D01*
X4883334Y26148033D02*
X4875000Y26081366D01*
X4875000Y26081366D02*
X4833334Y26014700D01*
X4833334Y26014700D02*
X4795834Y25981366D01*
X4795834Y25981366D02*
X4725000Y25948033D01*
X4725000Y25948033D02*
X4491667Y25948033D01*
X5137500Y25781366D02*
X5470834Y25781366D01*
X5045834Y25581366D02*
X5366667Y26281366D01*
X5366667Y26281366D02*
X5512500Y25581366D01*
X5733334Y26281366D02*
X6133334Y26281366D01*
X5845834Y25581366D02*
X5933334Y26281366D01*
D11*
X1483333Y24437704D02*
X1483333Y23866276D01*
X1483333Y23866276D02*
X1445238Y23751990D01*
X1445238Y23751990D02*
X1369047Y23675800D01*
X1369047Y23675800D02*
X1254762Y23637704D01*
X1254762Y23637704D02*
X1178571Y23637704D01*
X2283333Y23637704D02*
X1826190Y23637704D01*
X2054762Y23637704D02*
X2054762Y24437704D01*
X2054762Y24437704D02*
X1978571Y24323419D01*
X1978571Y24323419D02*
X1902381Y24247228D01*
X1902381Y24247228D02*
X1826190Y24209133D01*
X19666666Y12545180D02*
X19666666Y11830895D01*
X19666666Y11830895D02*
X19619047Y11688038D01*
X19619047Y11688038D02*
X19523809Y11592800D01*
X19523809Y11592800D02*
X19380952Y11545180D01*
X19380952Y11545180D02*
X19285714Y11545180D01*
X20095238Y12449942D02*
X20142857Y12497561D01*
X20142857Y12497561D02*
X20238095Y12545180D01*
X20238095Y12545180D02*
X20476190Y12545180D01*
X20476190Y12545180D02*
X20571428Y12497561D01*
X20571428Y12497561D02*
X20619047Y12449942D01*
X20619047Y12449942D02*
X20666666Y12354704D01*
X20666666Y12354704D02*
X20666666Y12259466D01*
X20666666Y12259466D02*
X20619047Y12116609D01*
X20619047Y12116609D02*
X20047619Y11545180D01*
X20047619Y11545180D02*
X20666666Y11545180D01*
X19900933Y21937704D02*
X19900933Y21366276D01*
X19900933Y21366276D02*
X19862838Y21251990D01*
X19862838Y21251990D02*
X19786647Y21175800D01*
X19786647Y21175800D02*
X19672362Y21137704D01*
X19672362Y21137704D02*
X19596171Y21137704D01*
X20624743Y21671038D02*
X20624743Y21137704D01*
X20434267Y21975800D02*
X20243790Y21404371D01*
X20243790Y21404371D02*
X20739029Y21404371D01*
X1495466Y8691780D02*
X1495466Y7977495D01*
X1495466Y7977495D02*
X1447847Y7834638D01*
X1447847Y7834638D02*
X1352609Y7739400D01*
X1352609Y7739400D02*
X1209752Y7691780D01*
X1209752Y7691780D02*
X1114514Y7691780D01*
X1876419Y8691780D02*
X2495466Y8691780D01*
X2495466Y8691780D02*
X2162133Y8310828D01*
X2162133Y8310828D02*
X2304990Y8310828D01*
X2304990Y8310828D02*
X2400228Y8263209D01*
X2400228Y8263209D02*
X2447847Y8215590D01*
X2447847Y8215590D02*
X2495466Y8120352D01*
X2495466Y8120352D02*
X2495466Y7882257D01*
X2495466Y7882257D02*
X2447847Y7787019D01*
X2447847Y7787019D02*
X2400228Y7739400D01*
X2400228Y7739400D02*
X2304990Y7691780D01*
X2304990Y7691780D02*
X2019276Y7691780D01*
X2019276Y7691780D02*
X1924038Y7739400D01*
X1924038Y7739400D02*
X1876419Y7787019D01*
D12*
%TO.C,TP3*%
X7682000Y16956000D02*
X9082000Y16956000D01*
X7682000Y15556000D02*
X7682000Y16956000D01*
X9082000Y16956000D02*
X9082000Y15556000D01*
X9082000Y15556000D02*
X7682000Y15556000D01*
%TO.C,J1*%
X718800Y29211600D02*
X1828800Y29211600D01*
X718800Y28451600D02*
X718800Y29211600D01*
X718800Y27691600D02*
X718800Y25216600D01*
X718800Y27691600D02*
X1265329Y27691600D01*
X718800Y25216600D02*
X1521270Y25216600D01*
X2136330Y25216600D02*
X2938800Y25216600D01*
X2392271Y27691600D02*
X2938800Y27691600D01*
X2938800Y27691600D02*
X2938800Y25216600D01*
%TO.C,J2*%
X19057600Y2131600D02*
X19057600Y10956600D01*
X19604129Y2131600D02*
X19057600Y2131600D01*
X19860070Y10956600D02*
X19057600Y10956600D01*
X21277600Y10956600D02*
X20475130Y10956600D01*
X21277600Y2131600D02*
X20731071Y2131600D01*
X21277600Y2131600D02*
X21277600Y10956600D01*
X21277600Y1371600D02*
X21277600Y611600D01*
X21277600Y611600D02*
X20167600Y611600D01*
%TO.C,J4*%
X19057600Y24131600D02*
X19057600Y32956600D01*
X19604129Y24131600D02*
X19057600Y24131600D01*
X19860070Y32956600D02*
X19057600Y32956600D01*
X21277600Y32956600D02*
X20475130Y32956600D01*
X21277600Y24131600D02*
X20731071Y24131600D01*
X21277600Y24131600D02*
X21277600Y32956600D01*
X21277600Y23371600D02*
X21277600Y22611600D01*
X21277600Y22611600D02*
X20167600Y22611600D01*
%TO.C,J3*%
X718800Y7211600D02*
X1828800Y7211600D01*
X718800Y6451600D02*
X718800Y7211600D01*
X718800Y5691600D02*
X718800Y3216600D01*
X718800Y5691600D02*
X1265329Y5691600D01*
X718800Y3216600D02*
X1521270Y3216600D01*
X2136330Y3216600D02*
X2938800Y3216600D01*
X2392271Y5691600D02*
X2938800Y5691600D01*
X2938800Y5691600D02*
X2938800Y3216600D01*
%TO.C,TP2*%
X7700000Y19700000D02*
X9100000Y19700000D01*
X7700000Y18300000D02*
X7700000Y19700000D01*
X9100000Y19700000D02*
X9100000Y18300000D01*
X9100000Y18300000D02*
X7700000Y18300000D01*
%TO.C,TP1*%
X7700000Y22400000D02*
X9100000Y22400000D01*
X7700000Y21000000D02*
X7700000Y22400000D01*
X9100000Y22400000D02*
X9100000Y21000000D01*
X9100000Y21000000D02*
X7700000Y21000000D01*
%TD*%
%LPC*%
D13*
%TO.C,TP3*%
X8382000Y16256000D03*
%TD*%
%TO.C,J1*%
X1828800Y28451600D03*
D14*
X1828800Y27181600D03*
X1828800Y25911600D03*
%TD*%
D13*
%TO.C,J2*%
X20167600Y1371600D03*
D14*
X20167600Y2641600D03*
X20167600Y3911600D03*
X20167600Y5181600D03*
X20167600Y6451600D03*
X20167600Y7721600D03*
X20167600Y8991600D03*
X20167600Y10261600D03*
%TD*%
D13*
%TO.C,J4*%
X20167600Y23371600D03*
D14*
X20167600Y24641600D03*
X20167600Y25911600D03*
X20167600Y27181600D03*
X20167600Y28451600D03*
X20167600Y29721600D03*
X20167600Y30991600D03*
X20167600Y32261600D03*
%TD*%
D13*
%TO.C,J3*%
X1828800Y6451600D03*
D14*
X1828800Y5181600D03*
X1828800Y3911600D03*
%TD*%
D13*
%TO.C,TP2*%
X8400000Y19000000D03*
%TD*%
%TO.C,TP1*%
X8400000Y21700000D03*
%TD*%
%LPD*%
M02*
