M48
; DRILL file {KiCad 6.0.11-2627ca5db0~126~ubuntu22.04.1} date Di 15 Aug 2023 16:50:12 CEST
; FORMAT={-:-/ absolute / inch / decimal}
; #@! TF.CreationDate,2023-08-15T16:50:12+02:00
; #@! TF.GenerationSoftware,Kicad,Pcbnew,6.0.11-2627ca5db0~126~ubuntu22.04.1
; #@! TF.FileFunction,Plated,1,2,PTH
FMAT,2
INCH
; #@! TA.AperFunction,Plated,PTH,ViaDrill
T1C0.0157
; #@! TA.AperFunction,Plated,PTH,ComponentDrill
T2C0.0157
; #@! TA.AperFunction,Plated,PTH,ComponentDrill
T3C0.0236
; #@! TA.AperFunction,Plated,PTH,ComponentDrill
T4C0.0315
; #@! TA.AperFunction,Plated,PTH,ComponentDrill
T5C0.0354
; #@! TA.AperFunction,Plated,PTH,ComponentDrill
T6C0.0394
; #@! TA.AperFunction,Plated,PTH,ComponentDrill
T7C0.0402
; #@! TA.AperFunction,Plated,PTH,ComponentDrill
T8C0.0433
; #@! TA.AperFunction,Plated,PTH,ComponentDrill
T9C0.0866
%
G90
G05
T1
X0.4276Y0.7116
X0.8556Y0.9316
X0.8556Y0.8696
X0.8896Y0.2456
X0.9136Y0.9226
X0.9696Y1.5856
X0.9956Y0.9316
X1.0004Y1.586
X1.0276Y1.5856
X1.0456Y0.9256
X1.146Y1.6259
X1.1826Y0.9396
X1.2076Y0.9616
X1.2196Y1.6066
X1.2719Y1.579
X1.3236Y1.6036
X1.3336Y1.7536
X1.3656Y0.9336
X1.4046Y1.6216
X1.4136Y0.9336
X1.4286Y1.9736
X1.4386Y1.8636
X1.4556Y0.9336
X1.4649Y1.6086
X1.4986Y1.7736
X1.5016Y0.9166
X1.5058Y0.8104
X1.5376Y0.6956
X1.5736Y1.5836
X1.6436Y1.6036
X1.6996Y0.9856
X1.7036Y1.578
X1.7476Y1.4736
X2.0716Y0.6156
X2.0786Y1.3486
X2.0786Y1.2836
X2.1286Y2.6911
X2.1286Y2.5061
X2.1536Y0.7686
X2.5966Y2.5473
T2
X0.5197Y2.8248
X0.5197Y0.128
X0.5404Y2.8749
X0.5404Y2.7747
X0.5404Y0.1781
X0.5404Y0.0778
X0.5906Y2.8957
X0.5906Y2.7539
X0.5906Y0.1988
X0.5906Y0.0571
X0.6407Y2.8749
X0.6407Y2.7747
X0.6407Y0.1781
X0.6407Y0.0778
X0.6614Y2.8248
X0.6614Y0.128
X2.2913Y2.8248
X2.2913Y0.128
X2.3121Y2.8749
X2.3121Y2.7747
X2.3121Y0.1781
X2.3121Y0.0778
X2.3622Y2.8957
X2.3622Y2.7539
X2.3622Y0.1988
X2.3622Y0.0571
X2.4123Y2.8749
X2.4123Y2.7747
X2.4123Y0.1781
X2.4123Y0.0778
X2.4331Y2.8248
X2.4331Y0.128
T3
X0.8356Y1.4916
X1.8286Y0.9487
X1.8286Y0.8896
T4
X0.6236Y0.3236
X0.7236Y0.3236
X1.0649Y0.8536
X1.1436Y0.8536
X1.2224Y0.8536
X1.3011Y0.8536
X1.3798Y0.8536
X1.4586Y0.8536
X1.5373Y0.8536
X1.6161Y0.8536
X1.7736Y2.5986
X1.7736Y2.4986
X1.8236Y1.1986
X1.8236Y1.0986
X1.9736Y1.1986
X1.9736Y1.0986
T5
X1.7736Y2.8236
X1.7736Y2.7236
T6
X0.9736Y2.7736
X0.9736Y2.6736
X0.9736Y2.5736
X0.9736Y2.4736
X0.9736Y2.3736
X0.9736Y2.2736
X0.9736Y2.1736
X0.9736Y2.0736
X0.9736Y1.9736
X0.9736Y1.8736
X0.9736Y1.7736
X0.9736Y1.6736
X0.9736Y0.4736
X0.9736Y0.3736
X0.9736Y0.2736
X0.9736Y0.1736
X1.0236Y2.8736
X1.0736Y1.6736
X1.1236Y2.8736
X1.1736Y1.6736
X1.2236Y2.8736
X1.2736Y1.6736
X1.3236Y2.8736
X1.3736Y1.6736
X1.3736Y0.4736
X1.3736Y0.3736
X1.3736Y0.2736
X1.3736Y0.1736
X1.4236Y2.8736
X1.4736Y2.6236
X1.4736Y2.5236
X1.4736Y2.4236
X1.4736Y2.3236
X1.4736Y1.6736
X1.5236Y2.8736
X1.5736Y2.7736
X1.5736Y2.6736
X1.5736Y2.5736
X1.5736Y2.4736
X1.5736Y2.3736
X1.5736Y2.2736
X1.5736Y2.1736
X1.5736Y2.0736
X1.5736Y1.9736
X1.5736Y1.8736
X1.5736Y1.7736
X1.5736Y1.6736
X1.5736Y0.4736
X1.5736Y0.3736
X1.5736Y0.2736
X1.5736Y0.1736
X1.8236Y1.9236
X1.8236Y1.8236
X1.8236Y1.5486
X1.8236Y1.4486
X1.9736Y0.4736
X1.9736Y0.3736
X1.9736Y0.2736
X1.9736Y0.1736
X2.0236Y1.9236
X2.0236Y1.8236
X2.0236Y1.5486
X2.0236Y1.4486
X2.2236Y0.3236
X2.3236Y0.3236
X2.4236Y0.3236
X2.5236Y0.3236
X2.5586Y2.8211
X2.6236Y0.3236
X2.6586Y2.8211
X2.7236Y0.3236
X2.7586Y2.8211
T7
X0.4496Y2.602
X0.4496Y0.5551
X2.4996Y2.6039
X2.4996Y0.5571
T8
X0.2736Y0.3236
X0.3638Y0.3236
X0.4539Y0.3236
X1.7986Y2.3486
X1.7986Y2.1715
X2.0545Y2.3486
X2.0545Y2.1715
T9
X0.5906Y2.8248
X0.5906Y0.128
X2.3622Y2.8248
X2.3622Y0.128
T0
M30
