%TF.GenerationSoftware,KiCad,Pcbnew,6.0.11-2627ca5db0~126~ubuntu22.04.1*%
%TF.CreationDate,2023-07-24T10:00:34+02:00*%
%TF.ProjectId,HB-UNI-SEN-BATT_E07-900M10S_FUEL4EP,48422d55-4e49-42d5-9345-4e2d42415454,rev?*%
%TF.SameCoordinates,Original*%
%TF.FileFunction,Legend,Top*%
%TF.FilePolarity,Positive*%
%FSLAX46Y46*%
G04 Gerber Fmt 4.6, Leading zero omitted, Abs format (unit mm)*
G04 Created by KiCad (PCBNEW 6.0.11-2627ca5db0~126~ubuntu22.04.1) date 2023-07-24 10:00:34*
%MOMM*%
%LPD*%
G01*
G04 APERTURE LIST*
G04 Aperture macros list*
%AMRoundRect*
0 Rectangle with rounded corners*
0 $1 Rounding radius*
0 $2 $3 $4 $5 $6 $7 $8 $9 X,Y pos of 4 corners*
0 Add a 4 corners polygon primitive as box body*
4,1,4,$2,$3,$4,$5,$6,$7,$8,$9,$2,$3,0*
0 Add four circle primitives for the rounded corners*
1,1,$1+$1,$2,$3*
1,1,$1+$1,$4,$5*
1,1,$1+$1,$6,$7*
1,1,$1+$1,$8,$9*
0 Add four rect primitives between the rounded corners*
20,1,$1+$1,$2,$3,$4,$5,0*
20,1,$1+$1,$4,$5,$6,$7,0*
20,1,$1+$1,$6,$7,$8,$9,0*
20,1,$1+$1,$8,$9,$2,$3,0*%
G04 Aperture macros list end*
%ADD10C,0.200000*%
%ADD11C,0.150000*%
%ADD12C,0.100000*%
%ADD13C,0.152400*%
%ADD14C,0.300000*%
%ADD15C,0.125000*%
%ADD16C,0.127000*%
%ADD17C,0.120000*%
%ADD18C,0.800000*%
%ADD19C,0.010000*%
%ADD20R,0.800000X1.270000*%
%ADD21RoundRect,0.250000X-0.550000X-0.550000X0.550000X-0.550000X0.550000X0.550000X-0.550000X0.550000X0*%
%ADD22R,1.800000X1.800000*%
%ADD23C,1.800000*%
%ADD24R,1.700000X1.700000*%
%ADD25O,1.700000X1.700000*%
%ADD26C,2.640000*%
%ADD27C,2.000000*%
%ADD28R,2.000000X2.000000*%
%ADD29R,1.200000X1.200000*%
%ADD30C,1.200000*%
%ADD31C,1.600000*%
%ADD32O,1.600000X1.600000*%
%ADD33R,1.717500X1.800000*%
%ADD34O,1.717500X1.800000*%
%ADD35R,1.500000X1.000000*%
%ADD36C,4.400000*%
%ADD37C,0.700000*%
%ADD38R,1.350000X1.350000*%
%ADD39O,1.350000X1.350000*%
G04 APERTURE END LIST*
D10*
X38430000Y-74130000D02*
X38430000Y-56350000D01*
X23190000Y-74130000D02*
X38430000Y-74130000D01*
X23190000Y-56350000D02*
X23190000Y-74130000D01*
X38430000Y-56350000D02*
X23190000Y-56350000D01*
X38430000Y-74130000D02*
X53670000Y-74130000D01*
X38430000Y-56350000D02*
X38430000Y-74130000D01*
X53670000Y-56350000D02*
X38430000Y-56350000D01*
X53670000Y-74130000D02*
X53670000Y-56350000D01*
D11*
X31672595Y-71151904D02*
X31839261Y-71951904D01*
X32205928Y-71151904D01*
X32839261Y-71875714D02*
X32796404Y-71913809D01*
X32677357Y-71951904D01*
X32601166Y-71951904D01*
X32491642Y-71913809D01*
X32424976Y-71837619D01*
X32396404Y-71761428D01*
X32377357Y-71609047D01*
X32391642Y-71494761D01*
X32448785Y-71342380D01*
X32496404Y-71266190D01*
X32582119Y-71190000D01*
X32701166Y-71151904D01*
X32777357Y-71151904D01*
X32886880Y-71190000D01*
X32920214Y-71228095D01*
X33639261Y-71875714D02*
X33596404Y-71913809D01*
X33477357Y-71951904D01*
X33401166Y-71951904D01*
X33291642Y-71913809D01*
X33224976Y-71837619D01*
X33196404Y-71761428D01*
X33177357Y-71609047D01*
X33191642Y-71494761D01*
X33248785Y-71342380D01*
X33296404Y-71266190D01*
X33382119Y-71190000D01*
X33501166Y-71151904D01*
X33577357Y-71151904D01*
X33686880Y-71190000D01*
X33720214Y-71228095D01*
X32124976Y-68650000D02*
X32053547Y-68611904D01*
X31939261Y-68611904D01*
X31820214Y-68650000D01*
X31734500Y-68726190D01*
X31686880Y-68802380D01*
X31629738Y-68954761D01*
X31615452Y-69069047D01*
X31634500Y-69221428D01*
X31663071Y-69297619D01*
X31729738Y-69373809D01*
X31839261Y-69411904D01*
X31915452Y-69411904D01*
X32034500Y-69373809D01*
X32077357Y-69335714D01*
X32110690Y-69069047D01*
X31958309Y-69069047D01*
X32410690Y-69411904D02*
X32510690Y-68611904D01*
X32867833Y-69411904D01*
X32967833Y-68611904D01*
X33248785Y-69411904D02*
X33348785Y-68611904D01*
X33539261Y-68611904D01*
X33648785Y-68650000D01*
X33715452Y-68726190D01*
X33744023Y-68802380D01*
X33763071Y-68954761D01*
X33748785Y-69069047D01*
X33691642Y-69221428D01*
X33644023Y-69297619D01*
X33558309Y-69373809D01*
X33439261Y-69411904D01*
X33248785Y-69411904D01*
X31691642Y-66833809D02*
X31801166Y-66871904D01*
X31991642Y-66871904D01*
X32072595Y-66833809D01*
X32115452Y-66795714D01*
X32163071Y-66719523D01*
X32172595Y-66643333D01*
X32144023Y-66567142D01*
X32110690Y-66529047D01*
X32039261Y-66490952D01*
X31891642Y-66452857D01*
X31820214Y-66414761D01*
X31786880Y-66376666D01*
X31758309Y-66300476D01*
X31767833Y-66224285D01*
X31815452Y-66148095D01*
X31858309Y-66110000D01*
X31939261Y-66071904D01*
X32129738Y-66071904D01*
X32239261Y-66110000D01*
X32953547Y-66795714D02*
X32910690Y-66833809D01*
X32791642Y-66871904D01*
X32715452Y-66871904D01*
X32605928Y-66833809D01*
X32539261Y-66757619D01*
X32510690Y-66681428D01*
X32491642Y-66529047D01*
X32505928Y-66414761D01*
X32563071Y-66262380D01*
X32610690Y-66186190D01*
X32696404Y-66110000D01*
X32815452Y-66071904D01*
X32891642Y-66071904D01*
X33001166Y-66110000D01*
X33034500Y-66148095D01*
X33667833Y-66871904D02*
X33286880Y-66871904D01*
X33386880Y-66071904D01*
X31672595Y-64293809D02*
X31782119Y-64331904D01*
X31972595Y-64331904D01*
X32053547Y-64293809D01*
X32096404Y-64255714D01*
X32144023Y-64179523D01*
X32153547Y-64103333D01*
X32124976Y-64027142D01*
X32091642Y-63989047D01*
X32020214Y-63950952D01*
X31872595Y-63912857D01*
X31801166Y-63874761D01*
X31767833Y-63836666D01*
X31739261Y-63760476D01*
X31748785Y-63684285D01*
X31796404Y-63608095D01*
X31839261Y-63570000D01*
X31920214Y-63531904D01*
X32110690Y-63531904D01*
X32220214Y-63570000D01*
X32467833Y-64331904D02*
X32567833Y-63531904D01*
X32758309Y-63531904D01*
X32867833Y-63570000D01*
X32934500Y-63646190D01*
X32963071Y-63722380D01*
X32982119Y-63874761D01*
X32967833Y-63989047D01*
X32910690Y-64141428D01*
X32863071Y-64217619D01*
X32777357Y-64293809D01*
X32658309Y-64331904D01*
X32467833Y-64331904D01*
X33258309Y-64103333D02*
X33639261Y-64103333D01*
X33153547Y-64331904D02*
X33520214Y-63531904D01*
X33686880Y-64331904D01*
X43102595Y-64293809D02*
X43212119Y-64331904D01*
X43402595Y-64331904D01*
X43483547Y-64293809D01*
X43526404Y-64255714D01*
X43574023Y-64179523D01*
X43583547Y-64103333D01*
X43554976Y-64027142D01*
X43521642Y-63989047D01*
X43450214Y-63950952D01*
X43302595Y-63912857D01*
X43231166Y-63874761D01*
X43197833Y-63836666D01*
X43169261Y-63760476D01*
X43178785Y-63684285D01*
X43226404Y-63608095D01*
X43269261Y-63570000D01*
X43350214Y-63531904D01*
X43540690Y-63531904D01*
X43650214Y-63570000D01*
X43897833Y-64331904D02*
X43997833Y-63531904D01*
X44188309Y-63531904D01*
X44297833Y-63570000D01*
X44364500Y-63646190D01*
X44393071Y-63722380D01*
X44412119Y-63874761D01*
X44397833Y-63989047D01*
X44340690Y-64141428D01*
X44293071Y-64217619D01*
X44207357Y-64293809D01*
X44088309Y-64331904D01*
X43897833Y-64331904D01*
X44688309Y-64103333D02*
X45069261Y-64103333D01*
X44583547Y-64331904D02*
X44950214Y-63531904D01*
X45116880Y-64331904D01*
X43121642Y-66833809D02*
X43231166Y-66871904D01*
X43421642Y-66871904D01*
X43502595Y-66833809D01*
X43545452Y-66795714D01*
X43593071Y-66719523D01*
X43602595Y-66643333D01*
X43574023Y-66567142D01*
X43540690Y-66529047D01*
X43469261Y-66490952D01*
X43321642Y-66452857D01*
X43250214Y-66414761D01*
X43216880Y-66376666D01*
X43188309Y-66300476D01*
X43197833Y-66224285D01*
X43245452Y-66148095D01*
X43288309Y-66110000D01*
X43369261Y-66071904D01*
X43559738Y-66071904D01*
X43669261Y-66110000D01*
X44383547Y-66795714D02*
X44340690Y-66833809D01*
X44221642Y-66871904D01*
X44145452Y-66871904D01*
X44035928Y-66833809D01*
X43969261Y-66757619D01*
X43940690Y-66681428D01*
X43921642Y-66529047D01*
X43935928Y-66414761D01*
X43993071Y-66262380D01*
X44040690Y-66186190D01*
X44126404Y-66110000D01*
X44245452Y-66071904D01*
X44321642Y-66071904D01*
X44431166Y-66110000D01*
X44464500Y-66148095D01*
X45097833Y-66871904D02*
X44716880Y-66871904D01*
X44816880Y-66071904D01*
X43554976Y-68650000D02*
X43483547Y-68611904D01*
X43369261Y-68611904D01*
X43250214Y-68650000D01*
X43164500Y-68726190D01*
X43116880Y-68802380D01*
X43059738Y-68954761D01*
X43045452Y-69069047D01*
X43064500Y-69221428D01*
X43093071Y-69297619D01*
X43159738Y-69373809D01*
X43269261Y-69411904D01*
X43345452Y-69411904D01*
X43464500Y-69373809D01*
X43507357Y-69335714D01*
X43540690Y-69069047D01*
X43388309Y-69069047D01*
X43840690Y-69411904D02*
X43940690Y-68611904D01*
X44297833Y-69411904D01*
X44397833Y-68611904D01*
X44678785Y-69411904D02*
X44778785Y-68611904D01*
X44969261Y-68611904D01*
X45078785Y-68650000D01*
X45145452Y-68726190D01*
X45174023Y-68802380D01*
X45193071Y-68954761D01*
X45178785Y-69069047D01*
X45121642Y-69221428D01*
X45074023Y-69297619D01*
X44988309Y-69373809D01*
X44869261Y-69411904D01*
X44678785Y-69411904D01*
X67076605Y-70268416D02*
X67713001Y-69773441D01*
X67446994Y-70315556D01*
X68090125Y-70150565D01*
X67453729Y-70645539D01*
X67723103Y-70914913D02*
X68359499Y-70419939D01*
X67995844Y-71133780D02*
X68046351Y-71238162D01*
X68181038Y-71372849D01*
X68265218Y-71403154D01*
X68322460Y-71406521D01*
X68410006Y-71386318D01*
X68470616Y-71339177D01*
X68504287Y-71265099D01*
X68507654Y-71214592D01*
X68484084Y-71137147D01*
X68406639Y-71005827D01*
X68383069Y-70928382D01*
X68386436Y-70877874D01*
X68420108Y-70803796D01*
X68480717Y-70756656D01*
X68568264Y-70736453D01*
X68625506Y-70739820D01*
X68709685Y-70770125D01*
X68844372Y-70904812D01*
X68894880Y-71009194D01*
X69275370Y-71335810D02*
X69383120Y-71443560D01*
X69406690Y-71521005D01*
X69399956Y-71622020D01*
X69305675Y-71743238D01*
X69093543Y-71908230D01*
X68945387Y-71975573D01*
X68830903Y-71968839D01*
X68746724Y-71938535D01*
X68638974Y-71830785D01*
X68615404Y-71753340D01*
X68622138Y-71652325D01*
X68716419Y-71531106D01*
X68928551Y-71366115D01*
X69076707Y-71298771D01*
X69191191Y-71305506D01*
X69275370Y-71335810D01*
X27881642Y-66833809D02*
X27991166Y-66871904D01*
X28181642Y-66871904D01*
X28262595Y-66833809D01*
X28305452Y-66795714D01*
X28353071Y-66719523D01*
X28362595Y-66643333D01*
X28334023Y-66567142D01*
X28300690Y-66529047D01*
X28229261Y-66490952D01*
X28081642Y-66452857D01*
X28010214Y-66414761D01*
X27976880Y-66376666D01*
X27948309Y-66300476D01*
X27957833Y-66224285D01*
X28005452Y-66148095D01*
X28048309Y-66110000D01*
X28129261Y-66071904D01*
X28319738Y-66071904D01*
X28429261Y-66110000D01*
X29143547Y-66795714D02*
X29100690Y-66833809D01*
X28981642Y-66871904D01*
X28905452Y-66871904D01*
X28795928Y-66833809D01*
X28729261Y-66757619D01*
X28700690Y-66681428D01*
X28681642Y-66529047D01*
X28695928Y-66414761D01*
X28753071Y-66262380D01*
X28800690Y-66186190D01*
X28886404Y-66110000D01*
X29005452Y-66071904D01*
X29081642Y-66071904D01*
X29191166Y-66110000D01*
X29224500Y-66148095D01*
X29857833Y-66871904D02*
X29476880Y-66871904D01*
X29576880Y-66071904D01*
D12*
X31742314Y-52528857D02*
X31685171Y-52557428D01*
X31570885Y-52557428D01*
X31513742Y-52528857D01*
X31485171Y-52471714D01*
X31485171Y-52243142D01*
X31513742Y-52186000D01*
X31570885Y-52157428D01*
X31685171Y-52157428D01*
X31742314Y-52186000D01*
X31770885Y-52243142D01*
X31770885Y-52300285D01*
X31485171Y-52357428D01*
X32028028Y-52557428D02*
X32028028Y-51957428D01*
X32256600Y-51957428D01*
X32313742Y-51986000D01*
X32342314Y-52014571D01*
X32370885Y-52071714D01*
X32370885Y-52157428D01*
X32342314Y-52214571D01*
X32313742Y-52243142D01*
X32256600Y-52271714D01*
X32028028Y-52271714D01*
X32885171Y-52557428D02*
X32885171Y-52243142D01*
X32856600Y-52186000D01*
X32799457Y-52157428D01*
X32685171Y-52157428D01*
X32628028Y-52186000D01*
X32885171Y-52528857D02*
X32828028Y-52557428D01*
X32685171Y-52557428D01*
X32628028Y-52528857D01*
X32599457Y-52471714D01*
X32599457Y-52414571D01*
X32628028Y-52357428D01*
X32685171Y-52328857D01*
X32828028Y-52328857D01*
X32885171Y-52300285D01*
X33170885Y-52157428D02*
X33170885Y-52757428D01*
X33170885Y-52186000D02*
X33228028Y-52157428D01*
X33342314Y-52157428D01*
X33399457Y-52186000D01*
X33428028Y-52214571D01*
X33456600Y-52271714D01*
X33456600Y-52443142D01*
X33428028Y-52500285D01*
X33399457Y-52528857D01*
X33342314Y-52557428D01*
X33228028Y-52557428D01*
X33170885Y-52528857D01*
X33942314Y-52528857D02*
X33885171Y-52557428D01*
X33770885Y-52557428D01*
X33713742Y-52528857D01*
X33685171Y-52471714D01*
X33685171Y-52243142D01*
X33713742Y-52186000D01*
X33770885Y-52157428D01*
X33885171Y-52157428D01*
X33942314Y-52186000D01*
X33970885Y-52243142D01*
X33970885Y-52300285D01*
X33685171Y-52357428D01*
X34228028Y-52557428D02*
X34228028Y-52157428D01*
X34228028Y-52271714D02*
X34256600Y-52214571D01*
X34285171Y-52186000D01*
X34342314Y-52157428D01*
X34399457Y-52157428D01*
X35313742Y-52528857D02*
X35256600Y-52557428D01*
X35142314Y-52557428D01*
X35085171Y-52528857D01*
X35056600Y-52500285D01*
X35028028Y-52443142D01*
X35028028Y-52271714D01*
X35056600Y-52214571D01*
X35085171Y-52186000D01*
X35142314Y-52157428D01*
X35256600Y-52157428D01*
X35313742Y-52186000D01*
X35656600Y-52557428D02*
X35599457Y-52528857D01*
X35570885Y-52500285D01*
X35542314Y-52443142D01*
X35542314Y-52271714D01*
X35570885Y-52214571D01*
X35599457Y-52186000D01*
X35656600Y-52157428D01*
X35742314Y-52157428D01*
X35799457Y-52186000D01*
X35828028Y-52214571D01*
X35856600Y-52271714D01*
X35856600Y-52443142D01*
X35828028Y-52500285D01*
X35799457Y-52528857D01*
X35742314Y-52557428D01*
X35656600Y-52557428D01*
X36113742Y-52157428D02*
X36113742Y-52557428D01*
X36113742Y-52214571D02*
X36142314Y-52186000D01*
X36199457Y-52157428D01*
X36285171Y-52157428D01*
X36342314Y-52186000D01*
X36370885Y-52243142D01*
X36370885Y-52557428D01*
X36656600Y-52157428D02*
X36656600Y-52557428D01*
X36656600Y-52214571D02*
X36685171Y-52186000D01*
X36742314Y-52157428D01*
X36828028Y-52157428D01*
X36885171Y-52186000D01*
X36913742Y-52243142D01*
X36913742Y-52557428D01*
X37428028Y-52528857D02*
X37370885Y-52557428D01*
X37256600Y-52557428D01*
X37199457Y-52528857D01*
X37170885Y-52471714D01*
X37170885Y-52243142D01*
X37199457Y-52186000D01*
X37256600Y-52157428D01*
X37370885Y-52157428D01*
X37428028Y-52186000D01*
X37456600Y-52243142D01*
X37456600Y-52300285D01*
X37170885Y-52357428D01*
X37970885Y-52528857D02*
X37913742Y-52557428D01*
X37799457Y-52557428D01*
X37742314Y-52528857D01*
X37713742Y-52500285D01*
X37685171Y-52443142D01*
X37685171Y-52271714D01*
X37713742Y-52214571D01*
X37742314Y-52186000D01*
X37799457Y-52157428D01*
X37913742Y-52157428D01*
X37970885Y-52186000D01*
X38142314Y-52157428D02*
X38370885Y-52157428D01*
X38228028Y-51957428D02*
X38228028Y-52471714D01*
X38256600Y-52528857D01*
X38313742Y-52557428D01*
X38370885Y-52557428D01*
X38656600Y-52557428D02*
X38599457Y-52528857D01*
X38570885Y-52500285D01*
X38542314Y-52443142D01*
X38542314Y-52271714D01*
X38570885Y-52214571D01*
X38599457Y-52186000D01*
X38656600Y-52157428D01*
X38742314Y-52157428D01*
X38799457Y-52186000D01*
X38828028Y-52214571D01*
X38856600Y-52271714D01*
X38856600Y-52443142D01*
X38828028Y-52500285D01*
X38799457Y-52528857D01*
X38742314Y-52557428D01*
X38656600Y-52557428D01*
X39113742Y-52557428D02*
X39113742Y-52157428D01*
X39113742Y-52271714D02*
X39142314Y-52214571D01*
X39170885Y-52186000D01*
X39228028Y-52157428D01*
X39285171Y-52157428D01*
D11*
X65055666Y-2055166D02*
X65289000Y-2755166D01*
X65522333Y-2055166D01*
X66155666Y-2688500D02*
X66122333Y-2721833D01*
X66022333Y-2755166D01*
X65955666Y-2755166D01*
X65855666Y-2721833D01*
X65789000Y-2655166D01*
X65755666Y-2588500D01*
X65722333Y-2455166D01*
X65722333Y-2355166D01*
X65755666Y-2221833D01*
X65789000Y-2155166D01*
X65855666Y-2088500D01*
X65955666Y-2055166D01*
X66022333Y-2055166D01*
X66122333Y-2088500D01*
X66155666Y-2121833D01*
X66855666Y-2688500D02*
X66822333Y-2721833D01*
X66722333Y-2755166D01*
X66655666Y-2755166D01*
X66555666Y-2721833D01*
X66489000Y-2655166D01*
X66455666Y-2588500D01*
X66422333Y-2455166D01*
X66422333Y-2355166D01*
X66455666Y-2221833D01*
X66489000Y-2155166D01*
X66555666Y-2088500D01*
X66655666Y-2055166D01*
X66722333Y-2055166D01*
X66822333Y-2088500D01*
X66855666Y-2121833D01*
X43102595Y-71151904D02*
X43269261Y-71951904D01*
X43635928Y-71151904D01*
X44269261Y-71875714D02*
X44226404Y-71913809D01*
X44107357Y-71951904D01*
X44031166Y-71951904D01*
X43921642Y-71913809D01*
X43854976Y-71837619D01*
X43826404Y-71761428D01*
X43807357Y-71609047D01*
X43821642Y-71494761D01*
X43878785Y-71342380D01*
X43926404Y-71266190D01*
X44012119Y-71190000D01*
X44131166Y-71151904D01*
X44207357Y-71151904D01*
X44316880Y-71190000D01*
X44350214Y-71228095D01*
X45069261Y-71875714D02*
X45026404Y-71913809D01*
X44907357Y-71951904D01*
X44831166Y-71951904D01*
X44721642Y-71913809D01*
X44654976Y-71837619D01*
X44626404Y-71761428D01*
X44607357Y-71609047D01*
X44621642Y-71494761D01*
X44678785Y-71342380D01*
X44726404Y-71266190D01*
X44812119Y-71190000D01*
X44931166Y-71151904D01*
X45007357Y-71151904D01*
X45116880Y-71190000D01*
X45150214Y-71228095D01*
X68148047Y-2446428D02*
X68909952Y-2446428D01*
X68529000Y-2827380D02*
X68529000Y-2065476D01*
X47828047Y-3716428D02*
X48589952Y-3716428D01*
X51781404Y-34653333D02*
X52162357Y-34653333D01*
X51676642Y-34881904D02*
X52043309Y-34081904D01*
X52209976Y-34881904D01*
X52895690Y-34881904D02*
X52438547Y-34881904D01*
X52667119Y-34881904D02*
X52767119Y-34081904D01*
X52676642Y-34196190D01*
X52590928Y-34272380D01*
X52509976Y-34310476D01*
X46912595Y-64293809D02*
X47022119Y-64331904D01*
X47212595Y-64331904D01*
X47293547Y-64293809D01*
X47336404Y-64255714D01*
X47384023Y-64179523D01*
X47393547Y-64103333D01*
X47364976Y-64027142D01*
X47331642Y-63989047D01*
X47260214Y-63950952D01*
X47112595Y-63912857D01*
X47041166Y-63874761D01*
X47007833Y-63836666D01*
X46979261Y-63760476D01*
X46988785Y-63684285D01*
X47036404Y-63608095D01*
X47079261Y-63570000D01*
X47160214Y-63531904D01*
X47350690Y-63531904D01*
X47460214Y-63570000D01*
X47707833Y-64331904D02*
X47807833Y-63531904D01*
X47998309Y-63531904D01*
X48107833Y-63570000D01*
X48174500Y-63646190D01*
X48203071Y-63722380D01*
X48222119Y-63874761D01*
X48207833Y-63989047D01*
X48150690Y-64141428D01*
X48103071Y-64217619D01*
X48017357Y-64293809D01*
X47898309Y-64331904D01*
X47707833Y-64331904D01*
X48498309Y-64103333D02*
X48879261Y-64103333D01*
X48393547Y-64331904D02*
X48760214Y-63531904D01*
X48926880Y-64331904D01*
D12*
X31294285Y-56068190D02*
X31294285Y-55568190D01*
X31460952Y-55925333D01*
X31627619Y-55568190D01*
X31627619Y-56068190D01*
X31865714Y-56068190D02*
X31865714Y-55568190D01*
X32080000Y-56044380D02*
X32151428Y-56068190D01*
X32270476Y-56068190D01*
X32318095Y-56044380D01*
X32341904Y-56020571D01*
X32365714Y-55972952D01*
X32365714Y-55925333D01*
X32341904Y-55877714D01*
X32318095Y-55853904D01*
X32270476Y-55830095D01*
X32175238Y-55806285D01*
X32127619Y-55782476D01*
X32103809Y-55758666D01*
X32080000Y-55711047D01*
X32080000Y-55663428D01*
X32103809Y-55615809D01*
X32127619Y-55592000D01*
X32175238Y-55568190D01*
X32294285Y-55568190D01*
X32365714Y-55592000D01*
X32675238Y-55568190D02*
X32770476Y-55568190D01*
X32818095Y-55592000D01*
X32865714Y-55639619D01*
X32889523Y-55734857D01*
X32889523Y-55901523D01*
X32865714Y-55996761D01*
X32818095Y-56044380D01*
X32770476Y-56068190D01*
X32675238Y-56068190D01*
X32627619Y-56044380D01*
X32580000Y-55996761D01*
X32556190Y-55901523D01*
X32556190Y-55734857D01*
X32580000Y-55639619D01*
X32627619Y-55592000D01*
X32675238Y-55568190D01*
X49907142Y-8259857D02*
X49850000Y-8288428D01*
X49735714Y-8288428D01*
X49678571Y-8259857D01*
X49650000Y-8231285D01*
X49621428Y-8174142D01*
X49621428Y-8002714D01*
X49650000Y-7945571D01*
X49678571Y-7917000D01*
X49735714Y-7888428D01*
X49850000Y-7888428D01*
X49907142Y-7917000D01*
X50421428Y-7888428D02*
X50421428Y-8288428D01*
X50164285Y-7888428D02*
X50164285Y-8202714D01*
X50192857Y-8259857D01*
X50250000Y-8288428D01*
X50335714Y-8288428D01*
X50392857Y-8259857D01*
X50421428Y-8231285D01*
X50621428Y-7888428D02*
X50850000Y-7888428D01*
X50707142Y-7688428D02*
X50707142Y-8202714D01*
X50735714Y-8259857D01*
X50792857Y-8288428D01*
X50850000Y-8288428D01*
X51678571Y-7688428D02*
X51678571Y-8117000D01*
X51650000Y-8202714D01*
X51592857Y-8259857D01*
X51507142Y-8288428D01*
X51450000Y-8288428D01*
X51964285Y-8288428D02*
X51964285Y-7688428D01*
X52192857Y-7688428D01*
X52250000Y-7717000D01*
X52278571Y-7745571D01*
X52307142Y-7802714D01*
X52307142Y-7888428D01*
X52278571Y-7945571D01*
X52250000Y-7974142D01*
X52192857Y-8002714D01*
X51964285Y-8002714D01*
X52535714Y-7745571D02*
X52564285Y-7717000D01*
X52621428Y-7688428D01*
X52764285Y-7688428D01*
X52821428Y-7717000D01*
X52850000Y-7745571D01*
X52878571Y-7802714D01*
X52878571Y-7859857D01*
X52850000Y-7945571D01*
X52507142Y-8288428D01*
X52878571Y-8288428D01*
X49150000Y-8854428D02*
X49378571Y-8854428D01*
X49235714Y-9254428D02*
X49235714Y-8740142D01*
X49264285Y-8683000D01*
X49321428Y-8654428D01*
X49378571Y-8654428D01*
X49664285Y-9254428D02*
X49607142Y-9225857D01*
X49578571Y-9197285D01*
X49550000Y-9140142D01*
X49550000Y-8968714D01*
X49578571Y-8911571D01*
X49607142Y-8883000D01*
X49664285Y-8854428D01*
X49750000Y-8854428D01*
X49807142Y-8883000D01*
X49835714Y-8911571D01*
X49864285Y-8968714D01*
X49864285Y-9140142D01*
X49835714Y-9197285D01*
X49807142Y-9225857D01*
X49750000Y-9254428D01*
X49664285Y-9254428D01*
X50121428Y-9254428D02*
X50121428Y-8854428D01*
X50121428Y-8968714D02*
X50150000Y-8911571D01*
X50178571Y-8883000D01*
X50235714Y-8854428D01*
X50292857Y-8854428D01*
X51207142Y-9254428D02*
X51207142Y-8940142D01*
X51178571Y-8883000D01*
X51121428Y-8854428D01*
X51007142Y-8854428D01*
X50950000Y-8883000D01*
X51207142Y-9225857D02*
X51150000Y-9254428D01*
X51007142Y-9254428D01*
X50950000Y-9225857D01*
X50921428Y-9168714D01*
X50921428Y-9111571D01*
X50950000Y-9054428D01*
X51007142Y-9025857D01*
X51150000Y-9025857D01*
X51207142Y-8997285D01*
X51750000Y-9225857D02*
X51692857Y-9254428D01*
X51578571Y-9254428D01*
X51521428Y-9225857D01*
X51492857Y-9197285D01*
X51464285Y-9140142D01*
X51464285Y-8968714D01*
X51492857Y-8911571D01*
X51521428Y-8883000D01*
X51578571Y-8854428D01*
X51692857Y-8854428D01*
X51750000Y-8883000D01*
X52264285Y-9225857D02*
X52207142Y-9254428D01*
X52092857Y-9254428D01*
X52035714Y-9225857D01*
X52007142Y-9197285D01*
X51978571Y-9140142D01*
X51978571Y-8968714D01*
X52007142Y-8911571D01*
X52035714Y-8883000D01*
X52092857Y-8854428D01*
X52207142Y-8854428D01*
X52264285Y-8883000D01*
X52778571Y-8854428D02*
X52778571Y-9254428D01*
X52521428Y-8854428D02*
X52521428Y-9168714D01*
X52550000Y-9225857D01*
X52607142Y-9254428D01*
X52692857Y-9254428D01*
X52750000Y-9225857D01*
X52778571Y-9197285D01*
X53035714Y-9225857D02*
X53092857Y-9254428D01*
X53207142Y-9254428D01*
X53264285Y-9225857D01*
X53292857Y-9168714D01*
X53292857Y-9140142D01*
X53264285Y-9083000D01*
X53207142Y-9054428D01*
X53121428Y-9054428D01*
X53064285Y-9025857D01*
X53035714Y-8968714D01*
X53035714Y-8940142D01*
X53064285Y-8883000D01*
X53121428Y-8854428D01*
X53207142Y-8854428D01*
X53264285Y-8883000D01*
X37390285Y-56068190D02*
X37390285Y-55568190D01*
X37556952Y-55925333D01*
X37723619Y-55568190D01*
X37723619Y-56068190D01*
X38056952Y-55568190D02*
X38152190Y-55568190D01*
X38199809Y-55592000D01*
X38247428Y-55639619D01*
X38271238Y-55734857D01*
X38271238Y-55901523D01*
X38247428Y-55996761D01*
X38199809Y-56044380D01*
X38152190Y-56068190D01*
X38056952Y-56068190D01*
X38009333Y-56044380D01*
X37961714Y-55996761D01*
X37937904Y-55901523D01*
X37937904Y-55734857D01*
X37961714Y-55639619D01*
X38009333Y-55592000D01*
X38056952Y-55568190D01*
X38461714Y-56044380D02*
X38533142Y-56068190D01*
X38652190Y-56068190D01*
X38699809Y-56044380D01*
X38723619Y-56020571D01*
X38747428Y-55972952D01*
X38747428Y-55925333D01*
X38723619Y-55877714D01*
X38699809Y-55853904D01*
X38652190Y-55830095D01*
X38556952Y-55806285D01*
X38509333Y-55782476D01*
X38485523Y-55758666D01*
X38461714Y-55711047D01*
X38461714Y-55663428D01*
X38485523Y-55615809D01*
X38509333Y-55592000D01*
X38556952Y-55568190D01*
X38676000Y-55568190D01*
X38747428Y-55592000D01*
X38961714Y-56068190D02*
X38961714Y-55568190D01*
D11*
X47955047Y-7653428D02*
X48716952Y-7653428D01*
X48336000Y-8034380D02*
X48336000Y-7272476D01*
X68101500Y-6722333D02*
X68034833Y-6755666D01*
X67901500Y-6755666D01*
X67834833Y-6722333D01*
X67801500Y-6689000D01*
X67768166Y-6622333D01*
X67768166Y-6422333D01*
X67801500Y-6355666D01*
X67834833Y-6322333D01*
X67901500Y-6289000D01*
X68034833Y-6289000D01*
X68101500Y-6322333D01*
X68401500Y-6755666D02*
X68401500Y-6055666D01*
X68701500Y-6755666D02*
X68701500Y-6389000D01*
X68668166Y-6322333D01*
X68601500Y-6289000D01*
X68501500Y-6289000D01*
X68434833Y-6322333D01*
X68401500Y-6355666D01*
X69334833Y-6755666D02*
X69334833Y-6389000D01*
X69301500Y-6322333D01*
X69234833Y-6289000D01*
X69101500Y-6289000D01*
X69034833Y-6322333D01*
X69334833Y-6722333D02*
X69268166Y-6755666D01*
X69101500Y-6755666D01*
X69034833Y-6722333D01*
X69001500Y-6655666D01*
X69001500Y-6589000D01*
X69034833Y-6522333D01*
X69101500Y-6489000D01*
X69268166Y-6489000D01*
X69334833Y-6455666D01*
X69668166Y-6755666D02*
X69668166Y-6289000D01*
X69668166Y-6422333D02*
X69701500Y-6355666D01*
X69734833Y-6322333D01*
X69801500Y-6289000D01*
X69868166Y-6289000D01*
X70401500Y-6289000D02*
X70401500Y-6855666D01*
X70368166Y-6922333D01*
X70334833Y-6955666D01*
X70268166Y-6989000D01*
X70168166Y-6989000D01*
X70101500Y-6955666D01*
X70401500Y-6722333D02*
X70334833Y-6755666D01*
X70201500Y-6755666D01*
X70134833Y-6722333D01*
X70101500Y-6689000D01*
X70068166Y-6622333D01*
X70068166Y-6422333D01*
X70101500Y-6355666D01*
X70134833Y-6322333D01*
X70201500Y-6289000D01*
X70334833Y-6289000D01*
X70401500Y-6322333D01*
X71001500Y-6722333D02*
X70934833Y-6755666D01*
X70801500Y-6755666D01*
X70734833Y-6722333D01*
X70701500Y-6655666D01*
X70701500Y-6389000D01*
X70734833Y-6322333D01*
X70801500Y-6289000D01*
X70934833Y-6289000D01*
X71001500Y-6322333D01*
X71034833Y-6389000D01*
X71034833Y-6455666D01*
X70701500Y-6522333D01*
X71868166Y-6289000D02*
X71868166Y-6989000D01*
X71868166Y-6322333D02*
X71934833Y-6289000D01*
X72068166Y-6289000D01*
X72134833Y-6322333D01*
X72168166Y-6355666D01*
X72201500Y-6422333D01*
X72201500Y-6622333D01*
X72168166Y-6689000D01*
X72134833Y-6722333D01*
X72068166Y-6755666D01*
X71934833Y-6755666D01*
X71868166Y-6722333D01*
X72501500Y-6755666D02*
X72501500Y-6289000D01*
X72501500Y-6055666D02*
X72468166Y-6089000D01*
X72501500Y-6122333D01*
X72534833Y-6089000D01*
X72501500Y-6055666D01*
X72501500Y-6122333D01*
X72834833Y-6289000D02*
X72834833Y-6755666D01*
X72834833Y-6355666D02*
X72868166Y-6322333D01*
X72934833Y-6289000D01*
X73034833Y-6289000D01*
X73101500Y-6322333D01*
X73134833Y-6389000D01*
X73134833Y-6755666D01*
X73434833Y-6722333D02*
X73501500Y-6755666D01*
X73634833Y-6755666D01*
X73701500Y-6722333D01*
X73734833Y-6655666D01*
X73734833Y-6622333D01*
X73701500Y-6555666D01*
X73634833Y-6522333D01*
X73534833Y-6522333D01*
X73468166Y-6489000D01*
X73434833Y-6422333D01*
X73434833Y-6389000D01*
X73468166Y-6322333D01*
X73534833Y-6289000D01*
X73634833Y-6289000D01*
X73701500Y-6322333D01*
X64728534Y-70406470D02*
X64779042Y-70510852D01*
X64913729Y-70645539D01*
X64997908Y-70675844D01*
X65055150Y-70679211D01*
X65142697Y-70659008D01*
X65203306Y-70611868D01*
X65236977Y-70537790D01*
X65240345Y-70487282D01*
X65216774Y-70409837D01*
X65139329Y-70278517D01*
X65115759Y-70201072D01*
X65119126Y-70150565D01*
X65152798Y-70076487D01*
X65213407Y-70029346D01*
X65300954Y-70009143D01*
X65358196Y-70012510D01*
X65442375Y-70042815D01*
X65577062Y-70177502D01*
X65627570Y-70281884D01*
X65647773Y-71271834D02*
X65590531Y-71268467D01*
X65479414Y-71211225D01*
X65425539Y-71157350D01*
X65375032Y-71052967D01*
X65381766Y-70951952D01*
X65415438Y-70877874D01*
X65509719Y-70756656D01*
X65600632Y-70685945D01*
X65748788Y-70618602D01*
X65836335Y-70598399D01*
X65950819Y-70605133D01*
X66061935Y-70662375D01*
X66115810Y-70716250D01*
X66166318Y-70820632D01*
X66162951Y-70871140D01*
X65829600Y-71561411D02*
X66465996Y-71066436D01*
X66152849Y-71884660D02*
X66274067Y-71359380D01*
X66789245Y-71389685D02*
X66102341Y-71349279D01*
X46912595Y-71151904D02*
X47079261Y-71951904D01*
X47445928Y-71151904D01*
X48079261Y-71875714D02*
X48036404Y-71913809D01*
X47917357Y-71951904D01*
X47841166Y-71951904D01*
X47731642Y-71913809D01*
X47664976Y-71837619D01*
X47636404Y-71761428D01*
X47617357Y-71609047D01*
X47631642Y-71494761D01*
X47688785Y-71342380D01*
X47736404Y-71266190D01*
X47822119Y-71190000D01*
X47941166Y-71151904D01*
X48017357Y-71151904D01*
X48126880Y-71190000D01*
X48160214Y-71228095D01*
X48879261Y-71875714D02*
X48836404Y-71913809D01*
X48717357Y-71951904D01*
X48641166Y-71951904D01*
X48531642Y-71913809D01*
X48464976Y-71837619D01*
X48436404Y-71761428D01*
X48417357Y-71609047D01*
X48431642Y-71494761D01*
X48488785Y-71342380D01*
X48536404Y-71266190D01*
X48622119Y-71190000D01*
X48741166Y-71151904D01*
X48817357Y-71151904D01*
X48926880Y-71190000D01*
X48960214Y-71228095D01*
D12*
X29678952Y-56068190D02*
X29678952Y-55568190D01*
X29798000Y-55568190D01*
X29869428Y-55592000D01*
X29917047Y-55639619D01*
X29940857Y-55687238D01*
X29964666Y-55782476D01*
X29964666Y-55853904D01*
X29940857Y-55949142D01*
X29917047Y-55996761D01*
X29869428Y-56044380D01*
X29798000Y-56068190D01*
X29678952Y-56068190D01*
X30393238Y-55568190D02*
X30298000Y-55568190D01*
X30250380Y-55592000D01*
X30226571Y-55615809D01*
X30178952Y-55687238D01*
X30155142Y-55782476D01*
X30155142Y-55972952D01*
X30178952Y-56020571D01*
X30202761Y-56044380D01*
X30250380Y-56068190D01*
X30345619Y-56068190D01*
X30393238Y-56044380D01*
X30417047Y-56020571D01*
X30440857Y-55972952D01*
X30440857Y-55853904D01*
X30417047Y-55806285D01*
X30393238Y-55782476D01*
X30345619Y-55758666D01*
X30250380Y-55758666D01*
X30202761Y-55782476D01*
X30178952Y-55806285D01*
X30155142Y-55853904D01*
D11*
X46729976Y-41345000D02*
X46658547Y-41306904D01*
X46544261Y-41306904D01*
X46425214Y-41345000D01*
X46339500Y-41421190D01*
X46291880Y-41497380D01*
X46234738Y-41649761D01*
X46220452Y-41764047D01*
X46239500Y-41916428D01*
X46268071Y-41992619D01*
X46334738Y-42068809D01*
X46444261Y-42106904D01*
X46520452Y-42106904D01*
X46639500Y-42068809D01*
X46682357Y-42030714D01*
X46715690Y-41764047D01*
X46563309Y-41764047D01*
X47015690Y-42106904D02*
X47115690Y-41306904D01*
X47472833Y-42106904D01*
X47572833Y-41306904D01*
X47853785Y-42106904D02*
X47953785Y-41306904D01*
X48144261Y-41306904D01*
X48253785Y-41345000D01*
X48320452Y-41421190D01*
X48349023Y-41497380D01*
X48368071Y-41649761D01*
X48353785Y-41764047D01*
X48296642Y-41916428D01*
X48249023Y-41992619D01*
X48163309Y-42068809D01*
X48044261Y-42106904D01*
X47853785Y-42106904D01*
X70688047Y-2509928D02*
X71449952Y-2509928D01*
D12*
X27558052Y-56068190D02*
X27558052Y-55568190D01*
X27677100Y-55568190D01*
X27748528Y-55592000D01*
X27796147Y-55639619D01*
X27819957Y-55687238D01*
X27843766Y-55782476D01*
X27843766Y-55853904D01*
X27819957Y-55949142D01*
X27796147Y-55996761D01*
X27748528Y-56044380D01*
X27677100Y-56068190D01*
X27558052Y-56068190D01*
X28010433Y-55568190D02*
X28343766Y-55568190D01*
X28129480Y-56068190D01*
D11*
X69939854Y-70591664D02*
X70054338Y-70167400D01*
X69616605Y-70268416D02*
X70253001Y-69773441D01*
X70468500Y-69988940D01*
X70492071Y-70066385D01*
X70488703Y-70116893D01*
X70455032Y-70190971D01*
X70364118Y-70261681D01*
X70276571Y-70281884D01*
X70219329Y-70278517D01*
X70135150Y-70248213D01*
X69919651Y-70032713D01*
X70185658Y-70783593D02*
X70236165Y-70887976D01*
X70370852Y-71022663D01*
X70455032Y-71052967D01*
X70512274Y-71056335D01*
X70599820Y-71036132D01*
X70660429Y-70988991D01*
X70694101Y-70914913D01*
X70697468Y-70864406D01*
X70673898Y-70786961D01*
X70596453Y-70655641D01*
X70572883Y-70578196D01*
X70576250Y-70527688D01*
X70609922Y-70453610D01*
X70670531Y-70406470D01*
X70758077Y-70386267D01*
X70815319Y-70389634D01*
X70899499Y-70419939D01*
X71034186Y-70554626D01*
X71084693Y-70659008D01*
X71054389Y-71113577D02*
X71242951Y-71302138D01*
X70990412Y-71642223D02*
X70721038Y-71372849D01*
X71357435Y-70877874D01*
X71626809Y-71147248D01*
X71788433Y-71308873D02*
X72111682Y-71632122D01*
X71313661Y-71965472D02*
X71950057Y-71470497D01*
X28314976Y-68650000D02*
X28243547Y-68611904D01*
X28129261Y-68611904D01*
X28010214Y-68650000D01*
X27924500Y-68726190D01*
X27876880Y-68802380D01*
X27819738Y-68954761D01*
X27805452Y-69069047D01*
X27824500Y-69221428D01*
X27853071Y-69297619D01*
X27919738Y-69373809D01*
X28029261Y-69411904D01*
X28105452Y-69411904D01*
X28224500Y-69373809D01*
X28267357Y-69335714D01*
X28300690Y-69069047D01*
X28148309Y-69069047D01*
X28600690Y-69411904D02*
X28700690Y-68611904D01*
X29057833Y-69411904D01*
X29157833Y-68611904D01*
X29438785Y-69411904D02*
X29538785Y-68611904D01*
X29729261Y-68611904D01*
X29838785Y-68650000D01*
X29905452Y-68726190D01*
X29934023Y-68802380D01*
X29953071Y-68954761D01*
X29938785Y-69069047D01*
X29881642Y-69221428D01*
X29834023Y-69297619D01*
X29748309Y-69373809D01*
X29629261Y-69411904D01*
X29438785Y-69411904D01*
X47364976Y-68650000D02*
X47293547Y-68611904D01*
X47179261Y-68611904D01*
X47060214Y-68650000D01*
X46974500Y-68726190D01*
X46926880Y-68802380D01*
X46869738Y-68954761D01*
X46855452Y-69069047D01*
X46874500Y-69221428D01*
X46903071Y-69297619D01*
X46969738Y-69373809D01*
X47079261Y-69411904D01*
X47155452Y-69411904D01*
X47274500Y-69373809D01*
X47317357Y-69335714D01*
X47350690Y-69069047D01*
X47198309Y-69069047D01*
X47650690Y-69411904D02*
X47750690Y-68611904D01*
X48107833Y-69411904D01*
X48207833Y-68611904D01*
X48488785Y-69411904D02*
X48588785Y-68611904D01*
X48779261Y-68611904D01*
X48888785Y-68650000D01*
X48955452Y-68726190D01*
X48984023Y-68802380D01*
X49003071Y-68954761D01*
X48988785Y-69069047D01*
X48931642Y-69221428D01*
X48884023Y-69297619D01*
X48798309Y-69373809D01*
X48679261Y-69411904D01*
X48488785Y-69411904D01*
X46729976Y-31820000D02*
X46658547Y-31781904D01*
X46544261Y-31781904D01*
X46425214Y-31820000D01*
X46339500Y-31896190D01*
X46291880Y-31972380D01*
X46234738Y-32124761D01*
X46220452Y-32239047D01*
X46239500Y-32391428D01*
X46268071Y-32467619D01*
X46334738Y-32543809D01*
X46444261Y-32581904D01*
X46520452Y-32581904D01*
X46639500Y-32543809D01*
X46682357Y-32505714D01*
X46715690Y-32239047D01*
X46563309Y-32239047D01*
X47015690Y-32581904D02*
X47115690Y-31781904D01*
X47472833Y-32581904D01*
X47572833Y-31781904D01*
X47853785Y-32581904D02*
X47953785Y-31781904D01*
X48144261Y-31781904D01*
X48253785Y-31820000D01*
X48320452Y-31896190D01*
X48349023Y-31972380D01*
X48368071Y-32124761D01*
X48353785Y-32239047D01*
X48296642Y-32391428D01*
X48249023Y-32467619D01*
X48163309Y-32543809D01*
X48044261Y-32581904D01*
X47853785Y-32581904D01*
X46701404Y-34653333D02*
X47082357Y-34653333D01*
X46596642Y-34881904D02*
X46963309Y-34081904D01*
X47129976Y-34881904D01*
X47649023Y-34081904D02*
X47725214Y-34081904D01*
X47796642Y-34120000D01*
X47829976Y-34158095D01*
X47858547Y-34234285D01*
X47877595Y-34386666D01*
X47853785Y-34577142D01*
X47796642Y-34729523D01*
X47749023Y-34805714D01*
X47706166Y-34843809D01*
X47625214Y-34881904D01*
X47549023Y-34881904D01*
X47477595Y-34843809D01*
X47444261Y-34805714D01*
X47415690Y-34729523D01*
X47396642Y-34577142D01*
X47420452Y-34386666D01*
X47477595Y-34234285D01*
X47525214Y-34158095D01*
X47568071Y-34120000D01*
X47649023Y-34081904D01*
D12*
X39827047Y-55592000D02*
X39779428Y-55568190D01*
X39708000Y-55568190D01*
X39636571Y-55592000D01*
X39588952Y-55639619D01*
X39565142Y-55687238D01*
X39541333Y-55782476D01*
X39541333Y-55853904D01*
X39565142Y-55949142D01*
X39588952Y-55996761D01*
X39636571Y-56044380D01*
X39708000Y-56068190D01*
X39755619Y-56068190D01*
X39827047Y-56044380D01*
X39850857Y-56020571D01*
X39850857Y-55853904D01*
X39755619Y-55853904D01*
X40065142Y-56068190D02*
X40065142Y-55568190D01*
X40350857Y-56068190D01*
X40350857Y-55568190D01*
X40588952Y-56068190D02*
X40588952Y-55568190D01*
X40708000Y-55568190D01*
X40779428Y-55592000D01*
X40827047Y-55639619D01*
X40850857Y-55687238D01*
X40874666Y-55782476D01*
X40874666Y-55853904D01*
X40850857Y-55949142D01*
X40827047Y-55996761D01*
X40779428Y-56044380D01*
X40708000Y-56068190D01*
X40588952Y-56068190D01*
X41573333Y-55568190D02*
X41740000Y-56068190D01*
X41906666Y-55568190D01*
X42359047Y-56020571D02*
X42335238Y-56044380D01*
X42263809Y-56068190D01*
X42216190Y-56068190D01*
X42144761Y-56044380D01*
X42097142Y-55996761D01*
X42073333Y-55949142D01*
X42049523Y-55853904D01*
X42049523Y-55782476D01*
X42073333Y-55687238D01*
X42097142Y-55639619D01*
X42144761Y-55592000D01*
X42216190Y-55568190D01*
X42263809Y-55568190D01*
X42335238Y-55592000D01*
X42359047Y-55615809D01*
X42859047Y-56020571D02*
X42835238Y-56044380D01*
X42763809Y-56068190D01*
X42716190Y-56068190D01*
X42644761Y-56044380D01*
X42597142Y-55996761D01*
X42573333Y-55949142D01*
X42549523Y-55853904D01*
X42549523Y-55782476D01*
X42573333Y-55687238D01*
X42597142Y-55639619D01*
X42644761Y-55592000D01*
X42716190Y-55568190D01*
X42763809Y-55568190D01*
X42835238Y-55592000D01*
X42859047Y-55615809D01*
D11*
X51809976Y-41345000D02*
X51738547Y-41306904D01*
X51624261Y-41306904D01*
X51505214Y-41345000D01*
X51419500Y-41421190D01*
X51371880Y-41497380D01*
X51314738Y-41649761D01*
X51300452Y-41764047D01*
X51319500Y-41916428D01*
X51348071Y-41992619D01*
X51414738Y-42068809D01*
X51524261Y-42106904D01*
X51600452Y-42106904D01*
X51719500Y-42068809D01*
X51762357Y-42030714D01*
X51795690Y-41764047D01*
X51643309Y-41764047D01*
X52095690Y-42106904D02*
X52195690Y-41306904D01*
X52552833Y-42106904D01*
X52652833Y-41306904D01*
X52933785Y-42106904D02*
X53033785Y-41306904D01*
X53224261Y-41306904D01*
X53333785Y-41345000D01*
X53400452Y-41421190D01*
X53429023Y-41497380D01*
X53448071Y-41649761D01*
X53433785Y-41764047D01*
X53376642Y-41916428D01*
X53329023Y-41992619D01*
X53243309Y-42068809D01*
X53124261Y-42106904D01*
X52933785Y-42106904D01*
X27862595Y-64293809D02*
X27972119Y-64331904D01*
X28162595Y-64331904D01*
X28243547Y-64293809D01*
X28286404Y-64255714D01*
X28334023Y-64179523D01*
X28343547Y-64103333D01*
X28314976Y-64027142D01*
X28281642Y-63989047D01*
X28210214Y-63950952D01*
X28062595Y-63912857D01*
X27991166Y-63874761D01*
X27957833Y-63836666D01*
X27929261Y-63760476D01*
X27938785Y-63684285D01*
X27986404Y-63608095D01*
X28029261Y-63570000D01*
X28110214Y-63531904D01*
X28300690Y-63531904D01*
X28410214Y-63570000D01*
X28657833Y-64331904D02*
X28757833Y-63531904D01*
X28948309Y-63531904D01*
X29057833Y-63570000D01*
X29124500Y-63646190D01*
X29153071Y-63722380D01*
X29172119Y-63874761D01*
X29157833Y-63989047D01*
X29100690Y-64141428D01*
X29053071Y-64217619D01*
X28967357Y-64293809D01*
X28848309Y-64331904D01*
X28657833Y-64331904D01*
X29448309Y-64103333D02*
X29829261Y-64103333D01*
X29343547Y-64331904D02*
X29710214Y-63531904D01*
X29876880Y-64331904D01*
X27862595Y-71151904D02*
X28029261Y-71951904D01*
X28395928Y-71151904D01*
X29029261Y-71875714D02*
X28986404Y-71913809D01*
X28867357Y-71951904D01*
X28791166Y-71951904D01*
X28681642Y-71913809D01*
X28614976Y-71837619D01*
X28586404Y-71761428D01*
X28567357Y-71609047D01*
X28581642Y-71494761D01*
X28638785Y-71342380D01*
X28686404Y-71266190D01*
X28772119Y-71190000D01*
X28891166Y-71151904D01*
X28967357Y-71151904D01*
X29076880Y-71190000D01*
X29110214Y-71228095D01*
X29829261Y-71875714D02*
X29786404Y-71913809D01*
X29667357Y-71951904D01*
X29591166Y-71951904D01*
X29481642Y-71913809D01*
X29414976Y-71837619D01*
X29386404Y-71761428D01*
X29367357Y-71609047D01*
X29381642Y-71494761D01*
X29438785Y-71342380D01*
X29486404Y-71266190D01*
X29572119Y-71190000D01*
X29691166Y-71151904D01*
X29767357Y-71151904D01*
X29876880Y-71190000D01*
X29910214Y-71228095D01*
D12*
X35247142Y-56044380D02*
X35318571Y-56068190D01*
X35437619Y-56068190D01*
X35485238Y-56044380D01*
X35509047Y-56020571D01*
X35532857Y-55972952D01*
X35532857Y-55925333D01*
X35509047Y-55877714D01*
X35485238Y-55853904D01*
X35437619Y-55830095D01*
X35342380Y-55806285D01*
X35294761Y-55782476D01*
X35270952Y-55758666D01*
X35247142Y-55711047D01*
X35247142Y-55663428D01*
X35270952Y-55615809D01*
X35294761Y-55592000D01*
X35342380Y-55568190D01*
X35461428Y-55568190D01*
X35532857Y-55592000D01*
X36032857Y-56020571D02*
X36009047Y-56044380D01*
X35937619Y-56068190D01*
X35890000Y-56068190D01*
X35818571Y-56044380D01*
X35770952Y-55996761D01*
X35747142Y-55949142D01*
X35723333Y-55853904D01*
X35723333Y-55782476D01*
X35747142Y-55687238D01*
X35770952Y-55639619D01*
X35818571Y-55592000D01*
X35890000Y-55568190D01*
X35937619Y-55568190D01*
X36009047Y-55592000D01*
X36032857Y-55615809D01*
X36247142Y-56068190D02*
X36247142Y-55568190D01*
X36532857Y-56068190D02*
X36318571Y-55782476D01*
X36532857Y-55568190D02*
X36247142Y-55853904D01*
D11*
X51809976Y-31820000D02*
X51738547Y-31781904D01*
X51624261Y-31781904D01*
X51505214Y-31820000D01*
X51419500Y-31896190D01*
X51371880Y-31972380D01*
X51314738Y-32124761D01*
X51300452Y-32239047D01*
X51319500Y-32391428D01*
X51348071Y-32467619D01*
X51414738Y-32543809D01*
X51524261Y-32581904D01*
X51600452Y-32581904D01*
X51719500Y-32543809D01*
X51762357Y-32505714D01*
X51795690Y-32239047D01*
X51643309Y-32239047D01*
X52095690Y-32581904D02*
X52195690Y-31781904D01*
X52552833Y-32581904D01*
X52652833Y-31781904D01*
X52933785Y-32581904D02*
X53033785Y-31781904D01*
X53224261Y-31781904D01*
X53333785Y-31820000D01*
X53400452Y-31896190D01*
X53429023Y-31972380D01*
X53448071Y-32124761D01*
X53433785Y-32239047D01*
X53376642Y-32391428D01*
X53329023Y-32467619D01*
X53243309Y-32543809D01*
X53124261Y-32581904D01*
X52933785Y-32581904D01*
X51921404Y-25033333D02*
X52302357Y-25033333D01*
X51816642Y-25261904D02*
X52183309Y-24461904D01*
X52349976Y-25261904D01*
X52640452Y-24461904D02*
X53135690Y-24461904D01*
X52830928Y-24766666D01*
X52945214Y-24766666D01*
X53016642Y-24804761D01*
X53049976Y-24842857D01*
X53078547Y-24919047D01*
X53054738Y-25109523D01*
X53007119Y-25185714D01*
X52964261Y-25223809D01*
X52883309Y-25261904D01*
X52654738Y-25261904D01*
X52583309Y-25223809D01*
X52549976Y-25185714D01*
X46931642Y-66833809D02*
X47041166Y-66871904D01*
X47231642Y-66871904D01*
X47312595Y-66833809D01*
X47355452Y-66795714D01*
X47403071Y-66719523D01*
X47412595Y-66643333D01*
X47384023Y-66567142D01*
X47350690Y-66529047D01*
X47279261Y-66490952D01*
X47131642Y-66452857D01*
X47060214Y-66414761D01*
X47026880Y-66376666D01*
X46998309Y-66300476D01*
X47007833Y-66224285D01*
X47055452Y-66148095D01*
X47098309Y-66110000D01*
X47179261Y-66071904D01*
X47369738Y-66071904D01*
X47479261Y-66110000D01*
X48193547Y-66795714D02*
X48150690Y-66833809D01*
X48031642Y-66871904D01*
X47955452Y-66871904D01*
X47845928Y-66833809D01*
X47779261Y-66757619D01*
X47750690Y-66681428D01*
X47731642Y-66529047D01*
X47745928Y-66414761D01*
X47803071Y-66262380D01*
X47850690Y-66186190D01*
X47936404Y-66110000D01*
X48055452Y-66071904D01*
X48131642Y-66071904D01*
X48241166Y-66110000D01*
X48274500Y-66148095D01*
X48907833Y-66871904D02*
X48526880Y-66871904D01*
X48626880Y-66071904D01*
X61996605Y-70268416D02*
X62633001Y-69773441D01*
X62366994Y-70315556D01*
X63010125Y-70150565D01*
X62373729Y-70645539D01*
X63387248Y-70527688D02*
X63494998Y-70635438D01*
X63518568Y-70712883D01*
X63511834Y-70813898D01*
X63417553Y-70935116D01*
X63205421Y-71100108D01*
X63057265Y-71167451D01*
X62942781Y-71160717D01*
X62858602Y-71130412D01*
X62750852Y-71022663D01*
X62727282Y-70945218D01*
X62734016Y-70844203D01*
X62828297Y-70722984D01*
X63040429Y-70557993D01*
X63188585Y-70490649D01*
X63303069Y-70497384D01*
X63387248Y-70527688D01*
X63239093Y-71457028D02*
X63289600Y-71561411D01*
X63424287Y-71696098D01*
X63508467Y-71726402D01*
X63565709Y-71729770D01*
X63653255Y-71709567D01*
X63713864Y-71662426D01*
X63747536Y-71588348D01*
X63750903Y-71537841D01*
X63727333Y-71460396D01*
X63649888Y-71329076D01*
X63626318Y-71251631D01*
X63629685Y-71201123D01*
X63663357Y-71127045D01*
X63723966Y-71079905D01*
X63811512Y-71059702D01*
X63868754Y-71063069D01*
X63952934Y-71093374D01*
X64087621Y-71228061D01*
X64138128Y-71332443D01*
X63774474Y-72046284D02*
X64410870Y-71551309D01*
X46871404Y-25003333D02*
X47252357Y-25003333D01*
X46766642Y-25231904D02*
X47133309Y-24431904D01*
X47299976Y-25231904D01*
X47619023Y-24508095D02*
X47661880Y-24470000D01*
X47742833Y-24431904D01*
X47933309Y-24431904D01*
X48004738Y-24470000D01*
X48038071Y-24508095D01*
X48066642Y-24584285D01*
X48057119Y-24660476D01*
X48004738Y-24774761D01*
X47490452Y-25231904D01*
X47985690Y-25231904D01*
D12*
X33488952Y-56068190D02*
X33488952Y-55568190D01*
X33608000Y-55568190D01*
X33679428Y-55592000D01*
X33727047Y-55639619D01*
X33750857Y-55687238D01*
X33774666Y-55782476D01*
X33774666Y-55853904D01*
X33750857Y-55949142D01*
X33727047Y-55996761D01*
X33679428Y-56044380D01*
X33608000Y-56068190D01*
X33488952Y-56068190D01*
X34227047Y-55568190D02*
X33988952Y-55568190D01*
X33965142Y-55806285D01*
X33988952Y-55782476D01*
X34036571Y-55758666D01*
X34155619Y-55758666D01*
X34203238Y-55782476D01*
X34227047Y-55806285D01*
X34250857Y-55853904D01*
X34250857Y-55972952D01*
X34227047Y-56020571D01*
X34203238Y-56044380D01*
X34155619Y-56068190D01*
X34036571Y-56068190D01*
X33988952Y-56044380D01*
X33965142Y-56020571D01*
D13*
X48499285Y-14362590D02*
X48421876Y-14401295D01*
X48267057Y-14401295D01*
X48189647Y-14362590D01*
X48150942Y-14323885D01*
X48112238Y-14246476D01*
X48112238Y-14014247D01*
X48150942Y-13936838D01*
X48189647Y-13898133D01*
X48267057Y-13859428D01*
X48421876Y-13859428D01*
X48499285Y-13898133D01*
X48963742Y-14401295D02*
X48886333Y-14362590D01*
X48847628Y-14323885D01*
X48808923Y-14246476D01*
X48808923Y-14014247D01*
X48847628Y-13936838D01*
X48886333Y-13898133D01*
X48963742Y-13859428D01*
X49079857Y-13859428D01*
X49157266Y-13898133D01*
X49195971Y-13936838D01*
X49234676Y-14014247D01*
X49234676Y-14246476D01*
X49195971Y-14323885D01*
X49157266Y-14362590D01*
X49079857Y-14401295D01*
X48963742Y-14401295D01*
X49583019Y-13859428D02*
X49583019Y-14401295D01*
X49583019Y-13936838D02*
X49621723Y-13898133D01*
X49699133Y-13859428D01*
X49815247Y-13859428D01*
X49892657Y-13898133D01*
X49931361Y-13975542D01*
X49931361Y-14401295D01*
X50202295Y-13859428D02*
X50511933Y-13859428D01*
X50318409Y-14401295D02*
X50318409Y-13704609D01*
X50357114Y-13627200D01*
X50434523Y-13588495D01*
X50511933Y-13588495D01*
X50782866Y-14401295D02*
X50782866Y-13859428D01*
X50782866Y-13588495D02*
X50744161Y-13627200D01*
X50782866Y-13665904D01*
X50821571Y-13627200D01*
X50782866Y-13588495D01*
X50782866Y-13665904D01*
X51518257Y-13859428D02*
X51518257Y-14517409D01*
X51479552Y-14594819D01*
X51440847Y-14633523D01*
X51363438Y-14672228D01*
X51247323Y-14672228D01*
X51169914Y-14633523D01*
X51518257Y-14362590D02*
X51440847Y-14401295D01*
X51286028Y-14401295D01*
X51208619Y-14362590D01*
X51169914Y-14323885D01*
X51131209Y-14246476D01*
X51131209Y-14014247D01*
X51169914Y-13936838D01*
X51208619Y-13898133D01*
X51286028Y-13859428D01*
X51440847Y-13859428D01*
X51518257Y-13898133D01*
D14*
X44585714Y-59568571D02*
X44585714Y-58068571D01*
X45228571Y-58211428D02*
X45300000Y-58140000D01*
X45442857Y-58068571D01*
X45800000Y-58068571D01*
X45942857Y-58140000D01*
X46014285Y-58211428D01*
X46085714Y-58354285D01*
X46085714Y-58497142D01*
X46014285Y-58711428D01*
X45157142Y-59568571D01*
X46085714Y-59568571D01*
X47585714Y-59425714D02*
X47514285Y-59497142D01*
X47300000Y-59568571D01*
X47157142Y-59568571D01*
X46942857Y-59497142D01*
X46800000Y-59354285D01*
X46728571Y-59211428D01*
X46657142Y-58925714D01*
X46657142Y-58711428D01*
X46728571Y-58425714D01*
X46800000Y-58282857D01*
X46942857Y-58140000D01*
X47157142Y-58068571D01*
X47300000Y-58068571D01*
X47514285Y-58140000D01*
X47585714Y-58211428D01*
X29345714Y-59568571D02*
X29345714Y-58068571D01*
X29988571Y-58211428D02*
X30060000Y-58140000D01*
X30202857Y-58068571D01*
X30560000Y-58068571D01*
X30702857Y-58140000D01*
X30774285Y-58211428D01*
X30845714Y-58354285D01*
X30845714Y-58497142D01*
X30774285Y-58711428D01*
X29917142Y-59568571D01*
X30845714Y-59568571D01*
X32345714Y-59425714D02*
X32274285Y-59497142D01*
X32060000Y-59568571D01*
X31917142Y-59568571D01*
X31702857Y-59497142D01*
X31560000Y-59354285D01*
X31488571Y-59211428D01*
X31417142Y-58925714D01*
X31417142Y-58711428D01*
X31488571Y-58425714D01*
X31560000Y-58282857D01*
X31702857Y-58140000D01*
X31917142Y-58068571D01*
X32060000Y-58068571D01*
X32274285Y-58140000D01*
X32345714Y-58211428D01*
D11*
X64683000Y-73290966D02*
X64683000Y-72590966D01*
X64983000Y-73257633D02*
X65083000Y-73290966D01*
X65249666Y-73290966D01*
X65316333Y-73257633D01*
X65349666Y-73224300D01*
X65383000Y-73157633D01*
X65383000Y-73090966D01*
X65349666Y-73024300D01*
X65316333Y-72990966D01*
X65249666Y-72957633D01*
X65116333Y-72924300D01*
X65049666Y-72890966D01*
X65016333Y-72857633D01*
X64983000Y-72790966D01*
X64983000Y-72724300D01*
X65016333Y-72657633D01*
X65049666Y-72624300D01*
X65116333Y-72590966D01*
X65283000Y-72590966D01*
X65383000Y-72624300D01*
X65683000Y-73290966D02*
X65683000Y-72590966D01*
X65949666Y-72590966D01*
X66016333Y-72624300D01*
X66049666Y-72657633D01*
X66083000Y-72724300D01*
X66083000Y-72824300D01*
X66049666Y-72890966D01*
X66016333Y-72924300D01*
X65949666Y-72957633D01*
X65683000Y-72957633D01*
X66916333Y-72824300D02*
X66916333Y-73524300D01*
X66916333Y-72857633D02*
X66983000Y-72824300D01*
X67116333Y-72824300D01*
X67183000Y-72857633D01*
X67216333Y-72890966D01*
X67249666Y-72957633D01*
X67249666Y-73157633D01*
X67216333Y-73224300D01*
X67183000Y-73257633D01*
X67116333Y-73290966D01*
X66983000Y-73290966D01*
X66916333Y-73257633D01*
X67549666Y-73290966D02*
X67549666Y-72824300D01*
X67549666Y-72957633D02*
X67583000Y-72890966D01*
X67616333Y-72857633D01*
X67683000Y-72824300D01*
X67749666Y-72824300D01*
X68083000Y-73290966D02*
X68016333Y-73257633D01*
X67983000Y-73224300D01*
X67949666Y-73157633D01*
X67949666Y-72957633D01*
X67983000Y-72890966D01*
X68016333Y-72857633D01*
X68083000Y-72824300D01*
X68183000Y-72824300D01*
X68249666Y-72857633D01*
X68283000Y-72890966D01*
X68316333Y-72957633D01*
X68316333Y-73157633D01*
X68283000Y-73224300D01*
X68249666Y-73257633D01*
X68183000Y-73290966D01*
X68083000Y-73290966D01*
X68916333Y-72824300D02*
X68916333Y-73390966D01*
X68883000Y-73457633D01*
X68849666Y-73490966D01*
X68783000Y-73524300D01*
X68683000Y-73524300D01*
X68616333Y-73490966D01*
X68916333Y-73257633D02*
X68849666Y-73290966D01*
X68716333Y-73290966D01*
X68649666Y-73257633D01*
X68616333Y-73224300D01*
X68583000Y-73157633D01*
X68583000Y-72957633D01*
X68616333Y-72890966D01*
X68649666Y-72857633D01*
X68716333Y-72824300D01*
X68849666Y-72824300D01*
X68916333Y-72857633D01*
X69249666Y-73290966D02*
X69249666Y-72824300D01*
X69249666Y-72957633D02*
X69283000Y-72890966D01*
X69316333Y-72857633D01*
X69383000Y-72824300D01*
X69449666Y-72824300D01*
X69983000Y-73290966D02*
X69983000Y-72924300D01*
X69949666Y-72857633D01*
X69883000Y-72824300D01*
X69749666Y-72824300D01*
X69683000Y-72857633D01*
X69983000Y-73257633D02*
X69916333Y-73290966D01*
X69749666Y-73290966D01*
X69683000Y-73257633D01*
X69649666Y-73190966D01*
X69649666Y-73124300D01*
X69683000Y-73057633D01*
X69749666Y-73024300D01*
X69916333Y-73024300D01*
X69983000Y-72990966D01*
X70316333Y-73290966D02*
X70316333Y-72824300D01*
X70316333Y-72890966D02*
X70349666Y-72857633D01*
X70416333Y-72824300D01*
X70516333Y-72824300D01*
X70583000Y-72857633D01*
X70616333Y-72924300D01*
X70616333Y-73290966D01*
X70616333Y-72924300D02*
X70649666Y-72857633D01*
X70716333Y-72824300D01*
X70816333Y-72824300D01*
X70883000Y-72857633D01*
X70916333Y-72924300D01*
X70916333Y-73290966D01*
X71249666Y-73290966D02*
X71249666Y-72824300D01*
X71249666Y-72890966D02*
X71283000Y-72857633D01*
X71349666Y-72824300D01*
X71449666Y-72824300D01*
X71516333Y-72857633D01*
X71549666Y-72924300D01*
X71549666Y-73290966D01*
X71549666Y-72924300D02*
X71583000Y-72857633D01*
X71649666Y-72824300D01*
X71749666Y-72824300D01*
X71816333Y-72857633D01*
X71849666Y-72924300D01*
X71849666Y-73290966D01*
X72449666Y-73257633D02*
X72383000Y-73290966D01*
X72249666Y-73290966D01*
X72183000Y-73257633D01*
X72149666Y-73190966D01*
X72149666Y-72924300D01*
X72183000Y-72857633D01*
X72249666Y-72824300D01*
X72383000Y-72824300D01*
X72449666Y-72857633D01*
X72483000Y-72924300D01*
X72483000Y-72990966D01*
X72149666Y-73057633D01*
X72783000Y-73290966D02*
X72783000Y-72824300D01*
X72783000Y-72957633D02*
X72816333Y-72890966D01*
X72849666Y-72857633D01*
X72916333Y-72824300D01*
X72983000Y-72824300D01*
X58049947Y-71089367D02*
X57972502Y-71112937D01*
X57891690Y-71193749D01*
X57834448Y-71304866D01*
X57827713Y-71419350D01*
X57847916Y-71506896D01*
X57915260Y-71655052D01*
X57985971Y-71745966D01*
X58107189Y-71840247D01*
X58181267Y-71873918D01*
X58282282Y-71880653D01*
X58386664Y-71830145D01*
X58440539Y-71776270D01*
X58497781Y-71665154D01*
X58501148Y-71607912D01*
X58336157Y-71395780D01*
X58228407Y-71503529D01*
X58790725Y-71426084D02*
X58295751Y-70789688D01*
X59113974Y-71102835D01*
X58619000Y-70466439D01*
X59383348Y-70833461D02*
X58888374Y-70197065D01*
X59023061Y-70062378D01*
X59127443Y-70011871D01*
X59228458Y-70018605D01*
X59302536Y-70052277D01*
X59423754Y-70146558D01*
X59494465Y-70237471D01*
X59561809Y-70385627D01*
X59582012Y-70473174D01*
X59575277Y-70587658D01*
X59518035Y-70698774D01*
X59383348Y-70833461D01*
X55798128Y-71382311D02*
X56481664Y-71830145D01*
X56175252Y-71005187D01*
X57134896Y-71069164D02*
X57131529Y-71126406D01*
X57074287Y-71237522D01*
X57020412Y-71291397D01*
X56916030Y-71341905D01*
X56815015Y-71335170D01*
X56740937Y-71301499D01*
X56619719Y-71207218D01*
X56549008Y-71116304D01*
X56481664Y-70968148D01*
X56461461Y-70880602D01*
X56468196Y-70766118D01*
X56525438Y-70655001D01*
X56579313Y-70601126D01*
X56683695Y-70550619D01*
X56734203Y-70553986D01*
X57700582Y-70503478D02*
X57697215Y-70560720D01*
X57639973Y-70671837D01*
X57586098Y-70725712D01*
X57481715Y-70776219D01*
X57380700Y-70769485D01*
X57306622Y-70735813D01*
X57185404Y-70641532D01*
X57114693Y-70550619D01*
X57047350Y-70402463D01*
X57027147Y-70314916D01*
X57033881Y-70200432D01*
X57091123Y-70089316D01*
X57144998Y-70035441D01*
X57249380Y-69984933D01*
X57299888Y-69988300D01*
D15*
%TO.C,Module1*%
X26034666Y-38577571D02*
X26034666Y-38815666D01*
X25891809Y-38529952D02*
X26391809Y-38696619D01*
X25891809Y-38863285D01*
X25891809Y-39029952D02*
X26391809Y-39029952D01*
X25891809Y-39315666D01*
X26391809Y-39315666D01*
X26391809Y-39482333D02*
X26391809Y-39768047D01*
X25891809Y-39625190D02*
X26391809Y-39625190D01*
X25044190Y-37868047D02*
X25068000Y-37891857D01*
X25091809Y-37939476D01*
X25091809Y-38058523D01*
X25068000Y-38106142D01*
X25044190Y-38129952D01*
X24996571Y-38153761D01*
X24948952Y-38153761D01*
X24877523Y-38129952D01*
X24591809Y-37844238D01*
X24591809Y-38153761D01*
X25044190Y-38344238D02*
X25068000Y-38368047D01*
X25091809Y-38415666D01*
X25091809Y-38534714D01*
X25068000Y-38582333D01*
X25044190Y-38606142D01*
X24996571Y-38629952D01*
X24948952Y-38629952D01*
X24877523Y-38606142D01*
X24591809Y-38320428D01*
X24591809Y-38629952D01*
D11*
X27077104Y-44867561D02*
X26981866Y-44915180D01*
X26791390Y-44915180D01*
X26696152Y-44867561D01*
X26648533Y-44772323D01*
X26648533Y-44391371D01*
X26696152Y-44296133D01*
X26791390Y-44248514D01*
X26981866Y-44248514D01*
X27077104Y-44296133D01*
X27124723Y-44391371D01*
X27124723Y-44486609D01*
X26648533Y-44581847D01*
X27886628Y-44391371D02*
X28029485Y-44438990D01*
X28077104Y-44486609D01*
X28124723Y-44581847D01*
X28124723Y-44724704D01*
X28077104Y-44819942D01*
X28029485Y-44867561D01*
X27934247Y-44915180D01*
X27553295Y-44915180D01*
X27553295Y-43915180D01*
X27886628Y-43915180D01*
X27981866Y-43962800D01*
X28029485Y-44010419D01*
X28077104Y-44105657D01*
X28077104Y-44200895D01*
X28029485Y-44296133D01*
X27981866Y-44343752D01*
X27886628Y-44391371D01*
X27553295Y-44391371D01*
X28458057Y-44248514D02*
X28696152Y-44915180D01*
X28934247Y-44248514D02*
X28696152Y-44915180D01*
X28600914Y-45153276D01*
X28553295Y-45200895D01*
X28458057Y-45248514D01*
X29172342Y-44248514D02*
X29553295Y-44248514D01*
X29315200Y-43915180D02*
X29315200Y-44772323D01*
X29362819Y-44867561D01*
X29458057Y-44915180D01*
X29553295Y-44915180D01*
X30267580Y-44867561D02*
X30172342Y-44915180D01*
X29981866Y-44915180D01*
X29886628Y-44867561D01*
X29839009Y-44772323D01*
X29839009Y-44391371D01*
X29886628Y-44296133D01*
X29981866Y-44248514D01*
X30172342Y-44248514D01*
X30267580Y-44296133D01*
X30315200Y-44391371D01*
X30315200Y-44486609D01*
X29839009Y-44581847D01*
X31505676Y-44391371D02*
X31839009Y-44391371D01*
X31981866Y-44915180D02*
X31505676Y-44915180D01*
X31505676Y-43915180D01*
X31981866Y-43915180D01*
X32600914Y-43915180D02*
X32696152Y-43915180D01*
X32791390Y-43962800D01*
X32839009Y-44010419D01*
X32886628Y-44105657D01*
X32934247Y-44296133D01*
X32934247Y-44534228D01*
X32886628Y-44724704D01*
X32839009Y-44819942D01*
X32791390Y-44867561D01*
X32696152Y-44915180D01*
X32600914Y-44915180D01*
X32505676Y-44867561D01*
X32458057Y-44819942D01*
X32410438Y-44724704D01*
X32362819Y-44534228D01*
X32362819Y-44296133D01*
X32410438Y-44105657D01*
X32458057Y-44010419D01*
X32505676Y-43962800D01*
X32600914Y-43915180D01*
X33267580Y-43915180D02*
X33934247Y-43915180D01*
X33505676Y-44915180D01*
X34315200Y-44534228D02*
X35077104Y-44534228D01*
X35600914Y-44915180D02*
X35791390Y-44915180D01*
X35886628Y-44867561D01*
X35934247Y-44819942D01*
X36029485Y-44677085D01*
X36077104Y-44486609D01*
X36077104Y-44105657D01*
X36029485Y-44010419D01*
X35981866Y-43962800D01*
X35886628Y-43915180D01*
X35696152Y-43915180D01*
X35600914Y-43962800D01*
X35553295Y-44010419D01*
X35505676Y-44105657D01*
X35505676Y-44343752D01*
X35553295Y-44438990D01*
X35600914Y-44486609D01*
X35696152Y-44534228D01*
X35886628Y-44534228D01*
X35981866Y-44486609D01*
X36029485Y-44438990D01*
X36077104Y-44343752D01*
X36696152Y-43915180D02*
X36791390Y-43915180D01*
X36886628Y-43962800D01*
X36934247Y-44010419D01*
X36981866Y-44105657D01*
X37029485Y-44296133D01*
X37029485Y-44534228D01*
X36981866Y-44724704D01*
X36934247Y-44819942D01*
X36886628Y-44867561D01*
X36791390Y-44915180D01*
X36696152Y-44915180D01*
X36600914Y-44867561D01*
X36553295Y-44819942D01*
X36505676Y-44724704D01*
X36458057Y-44534228D01*
X36458057Y-44296133D01*
X36505676Y-44105657D01*
X36553295Y-44010419D01*
X36600914Y-43962800D01*
X36696152Y-43915180D01*
X37648533Y-43915180D02*
X37743771Y-43915180D01*
X37839009Y-43962800D01*
X37886628Y-44010419D01*
X37934247Y-44105657D01*
X37981866Y-44296133D01*
X37981866Y-44534228D01*
X37934247Y-44724704D01*
X37886628Y-44819942D01*
X37839009Y-44867561D01*
X37743771Y-44915180D01*
X37648533Y-44915180D01*
X37553295Y-44867561D01*
X37505676Y-44819942D01*
X37458057Y-44724704D01*
X37410438Y-44534228D01*
X37410438Y-44296133D01*
X37458057Y-44105657D01*
X37505676Y-44010419D01*
X37553295Y-43962800D01*
X37648533Y-43915180D01*
X38410438Y-44915180D02*
X38410438Y-43915180D01*
X38743771Y-44629466D01*
X39077104Y-43915180D01*
X39077104Y-44915180D01*
X40077104Y-44915180D02*
X39505676Y-44915180D01*
X39791390Y-44915180D02*
X39791390Y-43915180D01*
X39696152Y-44058038D01*
X39600914Y-44153276D01*
X39505676Y-44200895D01*
X40696152Y-43915180D02*
X40791390Y-43915180D01*
X40886628Y-43962800D01*
X40934247Y-44010419D01*
X40981866Y-44105657D01*
X41029485Y-44296133D01*
X41029485Y-44534228D01*
X40981866Y-44724704D01*
X40934247Y-44819942D01*
X40886628Y-44867561D01*
X40791390Y-44915180D01*
X40696152Y-44915180D01*
X40600914Y-44867561D01*
X40553295Y-44819942D01*
X40505676Y-44724704D01*
X40458057Y-44534228D01*
X40458057Y-44296133D01*
X40505676Y-44105657D01*
X40553295Y-44010419D01*
X40600914Y-43962800D01*
X40696152Y-43915180D01*
X41410438Y-44867561D02*
X41553295Y-44915180D01*
X41791390Y-44915180D01*
X41886628Y-44867561D01*
X41934247Y-44819942D01*
X41981866Y-44724704D01*
X41981866Y-44629466D01*
X41934247Y-44534228D01*
X41886628Y-44486609D01*
X41791390Y-44438990D01*
X41600914Y-44391371D01*
X41505676Y-44343752D01*
X41458057Y-44296133D01*
X41410438Y-44200895D01*
X41410438Y-44105657D01*
X41458057Y-44010419D01*
X41505676Y-43962800D01*
X41600914Y-43915180D01*
X41839009Y-43915180D01*
X41981866Y-43962800D01*
D15*
X41691809Y-49153761D02*
X41691809Y-48868047D01*
X41691809Y-49010904D02*
X42191809Y-49010904D01*
X42120380Y-48963285D01*
X42072761Y-48915666D01*
X42048952Y-48868047D01*
X41691809Y-49629952D02*
X41691809Y-49344238D01*
X41691809Y-49487095D02*
X42191809Y-49487095D01*
X42120380Y-49439476D01*
X42072761Y-49391857D01*
X42048952Y-49344238D01*
X41791809Y-38653761D02*
X41791809Y-38368047D01*
X41791809Y-38510904D02*
X42291809Y-38510904D01*
X42220380Y-38463285D01*
X42172761Y-38415666D01*
X42148952Y-38368047D01*
X42244190Y-38844238D02*
X42268000Y-38868047D01*
X42291809Y-38915666D01*
X42291809Y-39034714D01*
X42268000Y-39082333D01*
X42244190Y-39106142D01*
X42196571Y-39129952D01*
X42148952Y-39129952D01*
X42077523Y-39106142D01*
X41791809Y-38820428D01*
X41791809Y-39129952D01*
X24291809Y-49991857D02*
X24291809Y-49706142D01*
X24291809Y-49849000D02*
X24791809Y-49849000D01*
X24720380Y-49801380D01*
X24672761Y-49753761D01*
X24648952Y-49706142D01*
D11*
%TO.C,AE1*%
X21413733Y-36450666D02*
X21889923Y-36450666D01*
X21318495Y-36736380D02*
X21651828Y-35736380D01*
X21985161Y-36736380D01*
X22318495Y-36212571D02*
X22651828Y-36212571D01*
X22794685Y-36736380D02*
X22318495Y-36736380D01*
X22318495Y-35736380D01*
X22794685Y-35736380D01*
X23747066Y-36736380D02*
X23175638Y-36736380D01*
X23461352Y-36736380D02*
X23461352Y-35736380D01*
X23366114Y-35879238D01*
X23270876Y-35974476D01*
X23175638Y-36022095D01*
%TO.C,D1*%
X49842380Y-6168095D02*
X48842380Y-6168095D01*
X48842380Y-5930000D01*
X48890000Y-5787142D01*
X48985238Y-5691904D01*
X49080476Y-5644285D01*
X49270952Y-5596666D01*
X49413809Y-5596666D01*
X49604285Y-5644285D01*
X49699523Y-5691904D01*
X49794761Y-5787142D01*
X49842380Y-5930000D01*
X49842380Y-6168095D01*
X49842380Y-4644285D02*
X49842380Y-5215714D01*
X49842380Y-4930000D02*
X48842380Y-4930000D01*
X48985238Y-5025238D01*
X49080476Y-5120476D01*
X49128095Y-5215714D01*
%TO.C,J1*%
X49272666Y-35990380D02*
X49272666Y-36704666D01*
X49225047Y-36847523D01*
X49129809Y-36942761D01*
X48986952Y-36990380D01*
X48891714Y-36990380D01*
X50272666Y-36990380D02*
X49701238Y-36990380D01*
X49986952Y-36990380D02*
X49986952Y-35990380D01*
X49891714Y-36133238D01*
X49796476Y-36228476D01*
X49701238Y-36276095D01*
%TO.C,J2*%
X54479666Y-35863380D02*
X54479666Y-36577666D01*
X54432047Y-36720523D01*
X54336809Y-36815761D01*
X54193952Y-36863380D01*
X54098714Y-36863380D01*
X54908238Y-35958619D02*
X54955857Y-35911000D01*
X55051095Y-35863380D01*
X55289190Y-35863380D01*
X55384428Y-35911000D01*
X55432047Y-35958619D01*
X55479666Y-36053857D01*
X55479666Y-36149095D01*
X55432047Y-36291952D01*
X54860619Y-36863380D01*
X55479666Y-36863380D01*
%TO.C,J7*%
X35416666Y-60192380D02*
X35416666Y-60906666D01*
X35369047Y-61049523D01*
X35273809Y-61144761D01*
X35130952Y-61192380D01*
X35035714Y-61192380D01*
X35797619Y-60192380D02*
X36464285Y-60192380D01*
X36035714Y-61192380D01*
%TO.C,BT1*%
X73838571Y-10625714D02*
X73886190Y-10482857D01*
X73933809Y-10435238D01*
X74029047Y-10387619D01*
X74171904Y-10387619D01*
X74267142Y-10435238D01*
X74314761Y-10482857D01*
X74362380Y-10578095D01*
X74362380Y-10959047D01*
X73362380Y-10959047D01*
X73362380Y-10625714D01*
X73410000Y-10530476D01*
X73457619Y-10482857D01*
X73552857Y-10435238D01*
X73648095Y-10435238D01*
X73743333Y-10482857D01*
X73790952Y-10530476D01*
X73838571Y-10625714D01*
X73838571Y-10959047D01*
X73362380Y-10101904D02*
X73362380Y-9530476D01*
X74362380Y-9816190D02*
X73362380Y-9816190D01*
X74362380Y-8673333D02*
X74362380Y-9244761D01*
X74362380Y-8959047D02*
X73362380Y-8959047D01*
X73505238Y-9054285D01*
X73600476Y-9149523D01*
X73648095Y-9244761D01*
X64169047Y-65301428D02*
X64930952Y-65301428D01*
X64621428Y-6840952D02*
X64621428Y-6079047D01*
X65002380Y-6460000D02*
X64240476Y-6460000D01*
X64967780Y-43222280D02*
X63967780Y-43222280D01*
X64967780Y-42650851D02*
X64396352Y-43079422D01*
X63967780Y-42650851D02*
X64539209Y-43222280D01*
X64920161Y-41841327D02*
X64967780Y-41936565D01*
X64967780Y-42127041D01*
X64920161Y-42222280D01*
X64824923Y-42269899D01*
X64443971Y-42269899D01*
X64348733Y-42222280D01*
X64301114Y-42127041D01*
X64301114Y-41936565D01*
X64348733Y-41841327D01*
X64443971Y-41793708D01*
X64539209Y-41793708D01*
X64634447Y-42269899D01*
X64301114Y-41460375D02*
X64967780Y-41222280D01*
X64301114Y-40984184D02*
X64967780Y-41222280D01*
X65205876Y-41317518D01*
X65253495Y-41365137D01*
X65301114Y-41460375D01*
X64920161Y-40650851D02*
X64967780Y-40555613D01*
X64967780Y-40365137D01*
X64920161Y-40269899D01*
X64824923Y-40222280D01*
X64777304Y-40222280D01*
X64682066Y-40269899D01*
X64634447Y-40365137D01*
X64634447Y-40507994D01*
X64586828Y-40603232D01*
X64491590Y-40650851D01*
X64443971Y-40650851D01*
X64348733Y-40603232D01*
X64301114Y-40507994D01*
X64301114Y-40365137D01*
X64348733Y-40269899D01*
X64301114Y-39936565D02*
X64301114Y-39555613D01*
X63967780Y-39793708D02*
X64824923Y-39793708D01*
X64920161Y-39746089D01*
X64967780Y-39650851D01*
X64967780Y-39555613D01*
X64967780Y-39079422D02*
X64920161Y-39174660D01*
X64872542Y-39222280D01*
X64777304Y-39269899D01*
X64491590Y-39269899D01*
X64396352Y-39222280D01*
X64348733Y-39174660D01*
X64301114Y-39079422D01*
X64301114Y-38936565D01*
X64348733Y-38841327D01*
X64396352Y-38793708D01*
X64491590Y-38746089D01*
X64777304Y-38746089D01*
X64872542Y-38793708D01*
X64920161Y-38841327D01*
X64967780Y-38936565D01*
X64967780Y-39079422D01*
X64301114Y-38317518D02*
X64967780Y-38317518D01*
X64396352Y-38317518D02*
X64348733Y-38269899D01*
X64301114Y-38174660D01*
X64301114Y-38031803D01*
X64348733Y-37936565D01*
X64443971Y-37888946D01*
X64967780Y-37888946D01*
X64920161Y-37031803D02*
X64967780Y-37127041D01*
X64967780Y-37317518D01*
X64920161Y-37412756D01*
X64824923Y-37460375D01*
X64443971Y-37460375D01*
X64348733Y-37412756D01*
X64301114Y-37317518D01*
X64301114Y-37127041D01*
X64348733Y-37031803D01*
X64443971Y-36984184D01*
X64539209Y-36984184D01*
X64634447Y-37460375D01*
X64063019Y-35841327D02*
X64015400Y-35793708D01*
X63967780Y-35698470D01*
X63967780Y-35460375D01*
X64015400Y-35365137D01*
X64063019Y-35317518D01*
X64158257Y-35269899D01*
X64253495Y-35269899D01*
X64396352Y-35317518D01*
X64967780Y-35888946D01*
X64967780Y-35269899D01*
X64301114Y-34412756D02*
X64967780Y-34412756D01*
X63920161Y-34650851D02*
X64634447Y-34888946D01*
X64634447Y-34269899D01*
X63967780Y-33460375D02*
X63967780Y-33650851D01*
X64015400Y-33746089D01*
X64063019Y-33793708D01*
X64205876Y-33888946D01*
X64396352Y-33936565D01*
X64777304Y-33936565D01*
X64872542Y-33888946D01*
X64920161Y-33841327D01*
X64967780Y-33746089D01*
X64967780Y-33555613D01*
X64920161Y-33460375D01*
X64872542Y-33412756D01*
X64777304Y-33365137D01*
X64539209Y-33365137D01*
X64443971Y-33412756D01*
X64396352Y-33460375D01*
X64348733Y-33555613D01*
X64348733Y-33746089D01*
X64396352Y-33841327D01*
X64443971Y-33888946D01*
X64539209Y-33936565D01*
X63967780Y-32746089D02*
X63967780Y-32650851D01*
X64015400Y-32555613D01*
X64063019Y-32507994D01*
X64158257Y-32460375D01*
X64348733Y-32412756D01*
X64586828Y-32412756D01*
X64777304Y-32460375D01*
X64872542Y-32507994D01*
X64920161Y-32555613D01*
X64967780Y-32650851D01*
X64967780Y-32746089D01*
X64920161Y-32841327D01*
X64872542Y-32888946D01*
X64777304Y-32936565D01*
X64586828Y-32984184D01*
X64348733Y-32984184D01*
X64158257Y-32936565D01*
X64063019Y-32888946D01*
X64015400Y-32841327D01*
X63967780Y-32746089D01*
X64967780Y-30698470D02*
X64967780Y-31269899D01*
X64967780Y-30984184D02*
X63967780Y-30984184D01*
X64110638Y-31079422D01*
X64205876Y-31174660D01*
X64253495Y-31269899D01*
X64967780Y-30365137D02*
X64301114Y-29841327D01*
X64301114Y-30365137D02*
X64967780Y-29841327D01*
X64682066Y-29507994D02*
X64682066Y-29031803D01*
X64967780Y-29603232D02*
X63967780Y-29269899D01*
X64967780Y-28936565D01*
X64682066Y-28650851D02*
X64682066Y-28174660D01*
X64967780Y-28746089D02*
X63967780Y-28412756D01*
X64967780Y-28079422D01*
%TO.C,J3*%
X49145666Y-26452380D02*
X49145666Y-27166666D01*
X49098047Y-27309523D01*
X49002809Y-27404761D01*
X48859952Y-27452380D01*
X48764714Y-27452380D01*
X49526619Y-26452380D02*
X50145666Y-26452380D01*
X49812333Y-26833333D01*
X49955190Y-26833333D01*
X50050428Y-26880952D01*
X50098047Y-26928571D01*
X50145666Y-27023809D01*
X50145666Y-27261904D01*
X50098047Y-27357142D01*
X50050428Y-27404761D01*
X49955190Y-27452380D01*
X49669476Y-27452380D01*
X49574238Y-27404761D01*
X49526619Y-27357142D01*
%TO.C,J4*%
X54225666Y-26338380D02*
X54225666Y-27052666D01*
X54178047Y-27195523D01*
X54082809Y-27290761D01*
X53939952Y-27338380D01*
X53844714Y-27338380D01*
X55130428Y-26671714D02*
X55130428Y-27338380D01*
X54892333Y-26290761D02*
X54654238Y-27005047D01*
X55273285Y-27005047D01*
%TO.C,J5*%
X54602380Y-68113333D02*
X55316666Y-68113333D01*
X55459523Y-68160952D01*
X55554761Y-68256190D01*
X55602380Y-68399047D01*
X55602380Y-68494285D01*
X54602380Y-67160952D02*
X54602380Y-67637142D01*
X55078571Y-67684761D01*
X55030952Y-67637142D01*
X54983333Y-67541904D01*
X54983333Y-67303809D01*
X55030952Y-67208571D01*
X55078571Y-67160952D01*
X55173809Y-67113333D01*
X55411904Y-67113333D01*
X55507142Y-67160952D01*
X55554761Y-67208571D01*
X55602380Y-67303809D01*
X55602380Y-67541904D01*
X55554761Y-67637142D01*
X55507142Y-67684761D01*
%TO.C,J6*%
X25436666Y-60052380D02*
X25436666Y-60766666D01*
X25389047Y-60909523D01*
X25293809Y-61004761D01*
X25150952Y-61052380D01*
X25055714Y-61052380D01*
X26341428Y-60052380D02*
X26150952Y-60052380D01*
X26055714Y-60100000D01*
X26008095Y-60147619D01*
X25912857Y-60290476D01*
X25865238Y-60480952D01*
X25865238Y-60861904D01*
X25912857Y-60957142D01*
X25960476Y-61004761D01*
X26055714Y-61052380D01*
X26246190Y-61052380D01*
X26341428Y-61004761D01*
X26389047Y-60957142D01*
X26436666Y-60861904D01*
X26436666Y-60623809D01*
X26389047Y-60528571D01*
X26341428Y-60480952D01*
X26246190Y-60433333D01*
X26055714Y-60433333D01*
X25960476Y-60480952D01*
X25912857Y-60528571D01*
X25865238Y-60623809D01*
%TO.C,C1*%
X44554142Y-52820266D02*
X44601761Y-52867885D01*
X44649380Y-53010742D01*
X44649380Y-53105980D01*
X44601761Y-53248838D01*
X44506523Y-53344076D01*
X44411285Y-53391695D01*
X44220809Y-53439314D01*
X44077952Y-53439314D01*
X43887476Y-53391695D01*
X43792238Y-53344076D01*
X43697000Y-53248838D01*
X43649380Y-53105980D01*
X43649380Y-53010742D01*
X43697000Y-52867885D01*
X43744619Y-52820266D01*
X44649380Y-51867885D02*
X44649380Y-52439314D01*
X44649380Y-52153600D02*
X43649380Y-52153600D01*
X43792238Y-52248838D01*
X43887476Y-52344076D01*
X43935095Y-52439314D01*
%TO.C,R4*%
X53202380Y-47666666D02*
X52726190Y-48000000D01*
X53202380Y-48238095D02*
X52202380Y-48238095D01*
X52202380Y-47857142D01*
X52250000Y-47761904D01*
X52297619Y-47714285D01*
X52392857Y-47666666D01*
X52535714Y-47666666D01*
X52630952Y-47714285D01*
X52678571Y-47761904D01*
X52726190Y-47857142D01*
X52726190Y-48238095D01*
X52535714Y-46809523D02*
X53202380Y-46809523D01*
X52154761Y-47047619D02*
X52869047Y-47285714D01*
X52869047Y-46666666D01*
%TO.C,R5*%
X49452380Y-47666666D02*
X48976190Y-48000000D01*
X49452380Y-48238095D02*
X48452380Y-48238095D01*
X48452380Y-47857142D01*
X48500000Y-47761904D01*
X48547619Y-47714285D01*
X48642857Y-47666666D01*
X48785714Y-47666666D01*
X48880952Y-47714285D01*
X48928571Y-47761904D01*
X48976190Y-47857142D01*
X48976190Y-48238095D01*
X48452380Y-46761904D02*
X48452380Y-47238095D01*
X48928571Y-47285714D01*
X48880952Y-47238095D01*
X48833333Y-47142857D01*
X48833333Y-46904761D01*
X48880952Y-46809523D01*
X48928571Y-46761904D01*
X49023809Y-46714285D01*
X49261904Y-46714285D01*
X49357142Y-46761904D01*
X49404761Y-46809523D01*
X49452380Y-46904761D01*
X49452380Y-47142857D01*
X49404761Y-47238095D01*
X49357142Y-47285714D01*
%TO.C,R1*%
X48872380Y-11431666D02*
X48396190Y-11765000D01*
X48872380Y-12003095D02*
X47872380Y-12003095D01*
X47872380Y-11622142D01*
X47920000Y-11526904D01*
X47967619Y-11479285D01*
X48062857Y-11431666D01*
X48205714Y-11431666D01*
X48300952Y-11479285D01*
X48348571Y-11526904D01*
X48396190Y-11622142D01*
X48396190Y-12003095D01*
X48872380Y-10479285D02*
X48872380Y-11050714D01*
X48872380Y-10765000D02*
X47872380Y-10765000D01*
X48015238Y-10860238D01*
X48110476Y-10955476D01*
X48158095Y-11050714D01*
%TO.C,R3*%
X17943333Y-70602380D02*
X17610000Y-70126190D01*
X17371904Y-70602380D02*
X17371904Y-69602380D01*
X17752857Y-69602380D01*
X17848095Y-69650000D01*
X17895714Y-69697619D01*
X17943333Y-69792857D01*
X17943333Y-69935714D01*
X17895714Y-70030952D01*
X17848095Y-70078571D01*
X17752857Y-70126190D01*
X17371904Y-70126190D01*
X18276666Y-69602380D02*
X18895714Y-69602380D01*
X18562380Y-69983333D01*
X18705238Y-69983333D01*
X18800476Y-70030952D01*
X18848095Y-70078571D01*
X18895714Y-70173809D01*
X18895714Y-70411904D01*
X18848095Y-70507142D01*
X18800476Y-70554761D01*
X18705238Y-70602380D01*
X18419523Y-70602380D01*
X18324285Y-70554761D01*
X18276666Y-70507142D01*
%TO.C,Q1*%
X10144761Y-65937619D02*
X10049523Y-65890000D01*
X9954285Y-65794761D01*
X9811428Y-65651904D01*
X9716190Y-65604285D01*
X9620952Y-65604285D01*
X9668571Y-65842380D02*
X9573333Y-65794761D01*
X9478095Y-65699523D01*
X9430476Y-65509047D01*
X9430476Y-65175714D01*
X9478095Y-64985238D01*
X9573333Y-64890000D01*
X9668571Y-64842380D01*
X9859047Y-64842380D01*
X9954285Y-64890000D01*
X10049523Y-64985238D01*
X10097142Y-65175714D01*
X10097142Y-65509047D01*
X10049523Y-65699523D01*
X9954285Y-65794761D01*
X9859047Y-65842380D01*
X9668571Y-65842380D01*
X11049523Y-65842380D02*
X10478095Y-65842380D01*
X10763809Y-65842380D02*
X10763809Y-64842380D01*
X10668571Y-64985238D01*
X10573333Y-65080476D01*
X10478095Y-65128095D01*
%TO.C,J9*%
X51186666Y-60302380D02*
X51186666Y-61016666D01*
X51139047Y-61159523D01*
X51043809Y-61254761D01*
X50900952Y-61302380D01*
X50805714Y-61302380D01*
X51710476Y-61302380D02*
X51900952Y-61302380D01*
X51996190Y-61254761D01*
X52043809Y-61207142D01*
X52139047Y-61064285D01*
X52186666Y-60873809D01*
X52186666Y-60492857D01*
X52139047Y-60397619D01*
X52091428Y-60350000D01*
X51996190Y-60302380D01*
X51805714Y-60302380D01*
X51710476Y-60350000D01*
X51662857Y-60397619D01*
X51615238Y-60492857D01*
X51615238Y-60730952D01*
X51662857Y-60826190D01*
X51710476Y-60873809D01*
X51805714Y-60921428D01*
X51996190Y-60921428D01*
X52091428Y-60873809D01*
X52139047Y-60826190D01*
X52186666Y-60730952D01*
%TO.C,J10*%
X63700666Y-3322666D02*
X64200666Y-3322666D01*
X64300666Y-3356000D01*
X64367333Y-3422666D01*
X64400666Y-3522666D01*
X64400666Y-3589333D01*
X64400666Y-2622666D02*
X64400666Y-3022666D01*
X64400666Y-2822666D02*
X63700666Y-2822666D01*
X63800666Y-2889333D01*
X63867333Y-2956000D01*
X63900666Y-3022666D01*
X63700666Y-2189333D02*
X63700666Y-2122666D01*
X63734000Y-2056000D01*
X63767333Y-2022666D01*
X63834000Y-1989333D01*
X63967333Y-1956000D01*
X64134000Y-1956000D01*
X64267333Y-1989333D01*
X64334000Y-2022666D01*
X64367333Y-2056000D01*
X64400666Y-2122666D01*
X64400666Y-2189333D01*
X64367333Y-2256000D01*
X64334000Y-2289333D01*
X64267333Y-2322666D01*
X64134000Y-2356000D01*
X63967333Y-2356000D01*
X63834000Y-2322666D01*
X63767333Y-2289333D01*
X63734000Y-2256000D01*
X63700666Y-2189333D01*
%TO.C,Module2*%
X34291428Y-6350000D02*
X34891428Y-6150000D01*
X34291428Y-5950000D01*
X34834285Y-5407142D02*
X34862857Y-5435714D01*
X34891428Y-5521428D01*
X34891428Y-5578571D01*
X34862857Y-5664285D01*
X34805714Y-5721428D01*
X34748571Y-5750000D01*
X34634285Y-5778571D01*
X34548571Y-5778571D01*
X34434285Y-5750000D01*
X34377142Y-5721428D01*
X34320000Y-5664285D01*
X34291428Y-5578571D01*
X34291428Y-5521428D01*
X34320000Y-5435714D01*
X34348571Y-5407142D01*
X34834285Y-4807142D02*
X34862857Y-4835714D01*
X34891428Y-4921428D01*
X34891428Y-4978571D01*
X34862857Y-5064285D01*
X34805714Y-5121428D01*
X34748571Y-5150000D01*
X34634285Y-5178571D01*
X34548571Y-5178571D01*
X34434285Y-5150000D01*
X34377142Y-5121428D01*
X34320000Y-5064285D01*
X34291428Y-4978571D01*
X34291428Y-4921428D01*
X34320000Y-4835714D01*
X34348571Y-4807142D01*
X32351428Y-6235714D02*
X32065714Y-6435714D01*
X32351428Y-6578571D02*
X31751428Y-6578571D01*
X31751428Y-6350000D01*
X31780000Y-6292857D01*
X31808571Y-6264285D01*
X31865714Y-6235714D01*
X31951428Y-6235714D01*
X32008571Y-6264285D01*
X32037142Y-6292857D01*
X32065714Y-6350000D01*
X32065714Y-6578571D01*
X31751428Y-6035714D02*
X32351428Y-5635714D01*
X31751428Y-5635714D02*
X32351428Y-6035714D01*
X32351428Y-5407142D02*
X31751428Y-5407142D01*
X31751428Y-5264285D01*
X31780000Y-5178571D01*
X31837142Y-5121428D01*
X31894285Y-5092857D01*
X32008571Y-5064285D01*
X32094285Y-5064285D01*
X32208571Y-5092857D01*
X32265714Y-5121428D01*
X32322857Y-5178571D01*
X32351428Y-5264285D01*
X32351428Y-5407142D01*
X31751428Y-4692857D02*
X31751428Y-4635714D01*
X31780000Y-4578571D01*
X31808571Y-4550000D01*
X31865714Y-4521428D01*
X31980000Y-4492857D01*
X32122857Y-4492857D01*
X32237142Y-4521428D01*
X32294285Y-4550000D01*
X32322857Y-4578571D01*
X32351428Y-4635714D01*
X32351428Y-4692857D01*
X32322857Y-4750000D01*
X32294285Y-4778571D01*
X32237142Y-4807142D01*
X32122857Y-4835714D01*
X31980000Y-4835714D01*
X31865714Y-4807142D01*
X31808571Y-4778571D01*
X31780000Y-4750000D01*
X31751428Y-4692857D01*
X29211428Y-6592857D02*
X29211428Y-6250000D01*
X29811428Y-6421428D02*
X29211428Y-6421428D01*
X29211428Y-6107142D02*
X29811428Y-5707142D01*
X29211428Y-5707142D02*
X29811428Y-6107142D01*
X29811428Y-5478571D02*
X29211428Y-5478571D01*
X29211428Y-5335714D01*
X29240000Y-5250000D01*
X29297142Y-5192857D01*
X29354285Y-5164285D01*
X29468571Y-5135714D01*
X29554285Y-5135714D01*
X29668571Y-5164285D01*
X29725714Y-5192857D01*
X29782857Y-5250000D01*
X29811428Y-5335714D01*
X29811428Y-5478571D01*
X29211428Y-4764285D02*
X29211428Y-4707142D01*
X29240000Y-4650000D01*
X29268571Y-4621428D01*
X29325714Y-4592857D01*
X29440000Y-4564285D01*
X29582857Y-4564285D01*
X29697142Y-4592857D01*
X29754285Y-4621428D01*
X29782857Y-4650000D01*
X29811428Y-4707142D01*
X29811428Y-4764285D01*
X29782857Y-4821428D01*
X29754285Y-4850000D01*
X29697142Y-4878571D01*
X29582857Y-4907142D01*
X29440000Y-4907142D01*
X29325714Y-4878571D01*
X29268571Y-4850000D01*
X29240000Y-4821428D01*
X29211428Y-4764285D01*
X27906428Y-6235714D02*
X27306428Y-6235714D01*
X27306428Y-6092857D01*
X27335000Y-6007142D01*
X27392142Y-5950000D01*
X27449285Y-5921428D01*
X27563571Y-5892857D01*
X27649285Y-5892857D01*
X27763571Y-5921428D01*
X27820714Y-5950000D01*
X27877857Y-6007142D01*
X27906428Y-6092857D01*
X27906428Y-6235714D01*
X27306428Y-5721428D02*
X27306428Y-5378571D01*
X27906428Y-5550000D02*
X27306428Y-5550000D01*
X27906428Y-4835714D02*
X27620714Y-5035714D01*
X27906428Y-5178571D02*
X27306428Y-5178571D01*
X27306428Y-4950000D01*
X27335000Y-4892857D01*
X27363571Y-4864285D01*
X27420714Y-4835714D01*
X27506428Y-4835714D01*
X27563571Y-4864285D01*
X27592142Y-4892857D01*
X27620714Y-4950000D01*
X27620714Y-5178571D01*
X38765000Y-6007142D02*
X38736428Y-6064285D01*
X38736428Y-6150000D01*
X38765000Y-6235714D01*
X38822142Y-6292857D01*
X38879285Y-6321428D01*
X38993571Y-6350000D01*
X39079285Y-6350000D01*
X39193571Y-6321428D01*
X39250714Y-6292857D01*
X39307857Y-6235714D01*
X39336428Y-6150000D01*
X39336428Y-6092857D01*
X39307857Y-6007142D01*
X39279285Y-5978571D01*
X39079285Y-5978571D01*
X39079285Y-6092857D01*
X39336428Y-5721428D02*
X38736428Y-5721428D01*
X39336428Y-5378571D01*
X38736428Y-5378571D01*
X39336428Y-5092857D02*
X38736428Y-5092857D01*
X38736428Y-4950000D01*
X38765000Y-4864285D01*
X38822142Y-4807142D01*
X38879285Y-4778571D01*
X38993571Y-4750000D01*
X39079285Y-4750000D01*
X39193571Y-4778571D01*
X39250714Y-4807142D01*
X39307857Y-4864285D01*
X39336428Y-4950000D01*
X39336428Y-5092857D01*
X36860000Y-6007142D02*
X36831428Y-6064285D01*
X36831428Y-6150000D01*
X36860000Y-6235714D01*
X36917142Y-6292857D01*
X36974285Y-6321428D01*
X37088571Y-6350000D01*
X37174285Y-6350000D01*
X37288571Y-6321428D01*
X37345714Y-6292857D01*
X37402857Y-6235714D01*
X37431428Y-6150000D01*
X37431428Y-6092857D01*
X37402857Y-6007142D01*
X37374285Y-5978571D01*
X37174285Y-5978571D01*
X37174285Y-6092857D01*
X37431428Y-5721428D02*
X36831428Y-5721428D01*
X37431428Y-5378571D01*
X36831428Y-5378571D01*
X37431428Y-5092857D02*
X36831428Y-5092857D01*
X36831428Y-4950000D01*
X36860000Y-4864285D01*
X36917142Y-4807142D01*
X36974285Y-4778571D01*
X37088571Y-4750000D01*
X37174285Y-4750000D01*
X37288571Y-4778571D01*
X37345714Y-4807142D01*
X37402857Y-4864285D01*
X37431428Y-4950000D01*
X37431428Y-5092857D01*
X30435333Y-29177857D02*
X30435333Y-28796904D01*
X30663904Y-29254047D02*
X29863904Y-28987380D01*
X30663904Y-28720714D01*
X29863904Y-28568333D02*
X29863904Y-28111190D01*
X30663904Y-28339761D02*
X29863904Y-28339761D01*
X30663904Y-27844523D02*
X29863904Y-27844523D01*
X30435333Y-27577857D01*
X29863904Y-27311190D01*
X30663904Y-27311190D01*
X30625809Y-26625476D02*
X30663904Y-26701666D01*
X30663904Y-26854047D01*
X30625809Y-26930238D01*
X30549619Y-26968333D01*
X30244857Y-26968333D01*
X30168666Y-26930238D01*
X30130571Y-26854047D01*
X30130571Y-26701666D01*
X30168666Y-26625476D01*
X30244857Y-26587380D01*
X30321047Y-26587380D01*
X30397238Y-26968333D01*
X30130571Y-25901666D02*
X30778190Y-25901666D01*
X30854380Y-25939761D01*
X30892476Y-25977857D01*
X30930571Y-26054047D01*
X30930571Y-26168333D01*
X30892476Y-26244523D01*
X30625809Y-25901666D02*
X30663904Y-25977857D01*
X30663904Y-26130238D01*
X30625809Y-26206428D01*
X30587714Y-26244523D01*
X30511523Y-26282619D01*
X30282952Y-26282619D01*
X30206761Y-26244523D01*
X30168666Y-26206428D01*
X30130571Y-26130238D01*
X30130571Y-25977857D01*
X30168666Y-25901666D01*
X30663904Y-25177857D02*
X30244857Y-25177857D01*
X30168666Y-25215952D01*
X30130571Y-25292142D01*
X30130571Y-25444523D01*
X30168666Y-25520714D01*
X30625809Y-25177857D02*
X30663904Y-25254047D01*
X30663904Y-25444523D01*
X30625809Y-25520714D01*
X30549619Y-25558809D01*
X30473428Y-25558809D01*
X30397238Y-25520714D01*
X30359142Y-25444523D01*
X30359142Y-25254047D01*
X30321047Y-25177857D01*
X30663904Y-24377857D02*
X30663904Y-24835000D01*
X30663904Y-24606428D02*
X29863904Y-24606428D01*
X29978190Y-24682619D01*
X30054380Y-24758809D01*
X30092476Y-24835000D01*
X29940095Y-24073095D02*
X29902000Y-24035000D01*
X29863904Y-23958809D01*
X29863904Y-23768333D01*
X29902000Y-23692142D01*
X29940095Y-23654047D01*
X30016285Y-23615952D01*
X30092476Y-23615952D01*
X30206761Y-23654047D01*
X30663904Y-24111190D01*
X30663904Y-23615952D01*
X30206761Y-23158809D02*
X30168666Y-23235000D01*
X30130571Y-23273095D01*
X30054380Y-23311190D01*
X30016285Y-23311190D01*
X29940095Y-23273095D01*
X29902000Y-23235000D01*
X29863904Y-23158809D01*
X29863904Y-23006428D01*
X29902000Y-22930238D01*
X29940095Y-22892142D01*
X30016285Y-22854047D01*
X30054380Y-22854047D01*
X30130571Y-22892142D01*
X30168666Y-22930238D01*
X30206761Y-23006428D01*
X30206761Y-23158809D01*
X30244857Y-23235000D01*
X30282952Y-23273095D01*
X30359142Y-23311190D01*
X30511523Y-23311190D01*
X30587714Y-23273095D01*
X30625809Y-23235000D01*
X30663904Y-23158809D01*
X30663904Y-23006428D01*
X30625809Y-22930238D01*
X30587714Y-22892142D01*
X30511523Y-22854047D01*
X30359142Y-22854047D01*
X30282952Y-22892142D01*
X30244857Y-22930238D01*
X30206761Y-23006428D01*
X30130571Y-22168333D02*
X30663904Y-22168333D01*
X29825809Y-22358809D02*
X30397238Y-22549285D01*
X30397238Y-22054047D01*
X30663904Y-21749285D02*
X29863904Y-21749285D01*
X29863904Y-21444523D01*
X29902000Y-21368333D01*
X29940095Y-21330238D01*
X30016285Y-21292142D01*
X30130571Y-21292142D01*
X30206761Y-21330238D01*
X30244857Y-21368333D01*
X30282952Y-21444523D01*
X30282952Y-21749285D01*
D12*
X37235380Y-15035238D02*
X37259190Y-14963809D01*
X37259190Y-14844761D01*
X37235380Y-14797142D01*
X37211571Y-14773333D01*
X37163952Y-14749523D01*
X37116333Y-14749523D01*
X37068714Y-14773333D01*
X37044904Y-14797142D01*
X37021095Y-14844761D01*
X36997285Y-14940000D01*
X36973476Y-14987619D01*
X36949666Y-15011428D01*
X36902047Y-15035238D01*
X36854428Y-15035238D01*
X36806809Y-15011428D01*
X36783000Y-14987619D01*
X36759190Y-14940000D01*
X36759190Y-14820952D01*
X36783000Y-14749523D01*
X37211571Y-14249523D02*
X37235380Y-14273333D01*
X37259190Y-14344761D01*
X37259190Y-14392380D01*
X37235380Y-14463809D01*
X37187761Y-14511428D01*
X37140142Y-14535238D01*
X37044904Y-14559047D01*
X36973476Y-14559047D01*
X36878238Y-14535238D01*
X36830619Y-14511428D01*
X36783000Y-14463809D01*
X36759190Y-14392380D01*
X36759190Y-14344761D01*
X36783000Y-14273333D01*
X36806809Y-14249523D01*
X37259190Y-13797142D02*
X37259190Y-14035238D01*
X36759190Y-14035238D01*
X37235380Y-17587142D02*
X37259190Y-17515714D01*
X37259190Y-17396666D01*
X37235380Y-17349047D01*
X37211571Y-17325238D01*
X37163952Y-17301428D01*
X37116333Y-17301428D01*
X37068714Y-17325238D01*
X37044904Y-17349047D01*
X37021095Y-17396666D01*
X36997285Y-17491904D01*
X36973476Y-17539523D01*
X36949666Y-17563333D01*
X36902047Y-17587142D01*
X36854428Y-17587142D01*
X36806809Y-17563333D01*
X36783000Y-17539523D01*
X36759190Y-17491904D01*
X36759190Y-17372857D01*
X36783000Y-17301428D01*
X37259190Y-17087142D02*
X36759190Y-17087142D01*
X36759190Y-16968095D01*
X36783000Y-16896666D01*
X36830619Y-16849047D01*
X36878238Y-16825238D01*
X36973476Y-16801428D01*
X37044904Y-16801428D01*
X37140142Y-16825238D01*
X37187761Y-16849047D01*
X37235380Y-16896666D01*
X37259190Y-16968095D01*
X37259190Y-17087142D01*
X37116333Y-16610952D02*
X37116333Y-16372857D01*
X37259190Y-16658571D02*
X36759190Y-16491904D01*
X37259190Y-16325238D01*
D11*
%TO.C,JP2*%
X53202380Y-12083333D02*
X53916666Y-12083333D01*
X54059523Y-12130952D01*
X54154761Y-12226190D01*
X54202380Y-12369047D01*
X54202380Y-12464285D01*
X54202380Y-11607142D02*
X53202380Y-11607142D01*
X53202380Y-11226190D01*
X53250000Y-11130952D01*
X53297619Y-11083333D01*
X53392857Y-11035714D01*
X53535714Y-11035714D01*
X53630952Y-11083333D01*
X53678571Y-11130952D01*
X53726190Y-11226190D01*
X53726190Y-11607142D01*
X53297619Y-10654761D02*
X53250000Y-10607142D01*
X53202380Y-10511904D01*
X53202380Y-10273809D01*
X53250000Y-10178571D01*
X53297619Y-10130952D01*
X53392857Y-10083333D01*
X53488095Y-10083333D01*
X53630952Y-10130952D01*
X54202380Y-10702380D01*
X54202380Y-10083333D01*
%TO.C,SW1*%
X48628266Y-18984961D02*
X48771123Y-19032580D01*
X49009219Y-19032580D01*
X49104457Y-18984961D01*
X49152076Y-18937342D01*
X49199695Y-18842104D01*
X49199695Y-18746866D01*
X49152076Y-18651628D01*
X49104457Y-18604009D01*
X49009219Y-18556390D01*
X48818742Y-18508771D01*
X48723504Y-18461152D01*
X48675885Y-18413533D01*
X48628266Y-18318295D01*
X48628266Y-18223057D01*
X48675885Y-18127819D01*
X48723504Y-18080200D01*
X48818742Y-18032580D01*
X49056838Y-18032580D01*
X49199695Y-18080200D01*
X49533028Y-18032580D02*
X49771123Y-19032580D01*
X49961600Y-18318295D01*
X50152076Y-19032580D01*
X50390171Y-18032580D01*
X51294933Y-19032580D02*
X50723504Y-19032580D01*
X51009219Y-19032580D02*
X51009219Y-18032580D01*
X50913980Y-18175438D01*
X50818742Y-18270676D01*
X50723504Y-18318295D01*
%TO.C,J8*%
X40326666Y-60082380D02*
X40326666Y-60796666D01*
X40279047Y-60939523D01*
X40183809Y-61034761D01*
X40040952Y-61082380D01*
X39945714Y-61082380D01*
X40945714Y-60510952D02*
X40850476Y-60463333D01*
X40802857Y-60415714D01*
X40755238Y-60320476D01*
X40755238Y-60272857D01*
X40802857Y-60177619D01*
X40850476Y-60130000D01*
X40945714Y-60082380D01*
X41136190Y-60082380D01*
X41231428Y-60130000D01*
X41279047Y-60177619D01*
X41326666Y-60272857D01*
X41326666Y-60320476D01*
X41279047Y-60415714D01*
X41231428Y-60463333D01*
X41136190Y-60510952D01*
X40945714Y-60510952D01*
X40850476Y-60558571D01*
X40802857Y-60606190D01*
X40755238Y-60701428D01*
X40755238Y-60891904D01*
X40802857Y-60987142D01*
X40850476Y-61034761D01*
X40945714Y-61082380D01*
X41136190Y-61082380D01*
X41231428Y-61034761D01*
X41279047Y-60987142D01*
X41326666Y-60891904D01*
X41326666Y-60701428D01*
X41279047Y-60606190D01*
X41231428Y-60558571D01*
X41136190Y-60510952D01*
%TO.C,J11*%
X25328680Y-55076723D02*
X26042966Y-55076723D01*
X26185823Y-55124342D01*
X26281061Y-55219580D01*
X26328680Y-55362438D01*
X26328680Y-55457676D01*
X26328680Y-54076723D02*
X26328680Y-54648152D01*
X26328680Y-54362438D02*
X25328680Y-54362438D01*
X25471538Y-54457676D01*
X25566776Y-54552914D01*
X25614395Y-54648152D01*
X26328680Y-53124342D02*
X26328680Y-53695771D01*
X26328680Y-53410057D02*
X25328680Y-53410057D01*
X25471538Y-53505295D01*
X25566776Y-53600533D01*
X25614395Y-53695771D01*
%TO.C,BT2*%
X2928571Y-62705714D02*
X2976190Y-62562857D01*
X3023809Y-62515238D01*
X3119047Y-62467619D01*
X3261904Y-62467619D01*
X3357142Y-62515238D01*
X3404761Y-62562857D01*
X3452380Y-62658095D01*
X3452380Y-63039047D01*
X2452380Y-63039047D01*
X2452380Y-62705714D01*
X2500000Y-62610476D01*
X2547619Y-62562857D01*
X2642857Y-62515238D01*
X2738095Y-62515238D01*
X2833333Y-62562857D01*
X2880952Y-62610476D01*
X2928571Y-62705714D01*
X2928571Y-63039047D01*
X2452380Y-62181904D02*
X2452380Y-61610476D01*
X3452380Y-61896190D02*
X2452380Y-61896190D01*
X2547619Y-61324761D02*
X2500000Y-61277142D01*
X2452380Y-61181904D01*
X2452380Y-60943809D01*
X2500000Y-60848571D01*
X2547619Y-60800952D01*
X2642857Y-60753333D01*
X2738095Y-60753333D01*
X2880952Y-60800952D01*
X3452380Y-61372380D01*
X3452380Y-60753333D01*
X11979047Y-6601428D02*
X12740952Y-6601428D01*
X12431428Y-65680952D02*
X12431428Y-64919047D01*
X12812380Y-65300000D02*
X12050476Y-65300000D01*
X12846980Y-43537720D02*
X11846980Y-43537720D01*
X12846980Y-42966291D02*
X12275552Y-43394862D01*
X11846980Y-42966291D02*
X12418409Y-43537720D01*
X12799361Y-42156767D02*
X12846980Y-42252005D01*
X12846980Y-42442481D01*
X12799361Y-42537720D01*
X12704123Y-42585339D01*
X12323171Y-42585339D01*
X12227933Y-42537720D01*
X12180314Y-42442481D01*
X12180314Y-42252005D01*
X12227933Y-42156767D01*
X12323171Y-42109148D01*
X12418409Y-42109148D01*
X12513647Y-42585339D01*
X12180314Y-41775815D02*
X12846980Y-41537720D01*
X12180314Y-41299624D02*
X12846980Y-41537720D01*
X13085076Y-41632958D01*
X13132695Y-41680577D01*
X13180314Y-41775815D01*
X12799361Y-40966291D02*
X12846980Y-40871053D01*
X12846980Y-40680577D01*
X12799361Y-40585339D01*
X12704123Y-40537720D01*
X12656504Y-40537720D01*
X12561266Y-40585339D01*
X12513647Y-40680577D01*
X12513647Y-40823434D01*
X12466028Y-40918672D01*
X12370790Y-40966291D01*
X12323171Y-40966291D01*
X12227933Y-40918672D01*
X12180314Y-40823434D01*
X12180314Y-40680577D01*
X12227933Y-40585339D01*
X12180314Y-40252005D02*
X12180314Y-39871053D01*
X11846980Y-40109148D02*
X12704123Y-40109148D01*
X12799361Y-40061529D01*
X12846980Y-39966291D01*
X12846980Y-39871053D01*
X12846980Y-39394862D02*
X12799361Y-39490100D01*
X12751742Y-39537720D01*
X12656504Y-39585339D01*
X12370790Y-39585339D01*
X12275552Y-39537720D01*
X12227933Y-39490100D01*
X12180314Y-39394862D01*
X12180314Y-39252005D01*
X12227933Y-39156767D01*
X12275552Y-39109148D01*
X12370790Y-39061529D01*
X12656504Y-39061529D01*
X12751742Y-39109148D01*
X12799361Y-39156767D01*
X12846980Y-39252005D01*
X12846980Y-39394862D01*
X12180314Y-38632958D02*
X12846980Y-38632958D01*
X12275552Y-38632958D02*
X12227933Y-38585339D01*
X12180314Y-38490100D01*
X12180314Y-38347243D01*
X12227933Y-38252005D01*
X12323171Y-38204386D01*
X12846980Y-38204386D01*
X12799361Y-37347243D02*
X12846980Y-37442481D01*
X12846980Y-37632958D01*
X12799361Y-37728196D01*
X12704123Y-37775815D01*
X12323171Y-37775815D01*
X12227933Y-37728196D01*
X12180314Y-37632958D01*
X12180314Y-37442481D01*
X12227933Y-37347243D01*
X12323171Y-37299624D01*
X12418409Y-37299624D01*
X12513647Y-37775815D01*
X11942219Y-36156767D02*
X11894600Y-36109148D01*
X11846980Y-36013910D01*
X11846980Y-35775815D01*
X11894600Y-35680577D01*
X11942219Y-35632958D01*
X12037457Y-35585339D01*
X12132695Y-35585339D01*
X12275552Y-35632958D01*
X12846980Y-36204386D01*
X12846980Y-35585339D01*
X12180314Y-34728196D02*
X12846980Y-34728196D01*
X11799361Y-34966291D02*
X12513647Y-35204386D01*
X12513647Y-34585339D01*
X11846980Y-33775815D02*
X11846980Y-33966291D01*
X11894600Y-34061529D01*
X11942219Y-34109148D01*
X12085076Y-34204386D01*
X12275552Y-34252005D01*
X12656504Y-34252005D01*
X12751742Y-34204386D01*
X12799361Y-34156767D01*
X12846980Y-34061529D01*
X12846980Y-33871053D01*
X12799361Y-33775815D01*
X12751742Y-33728196D01*
X12656504Y-33680577D01*
X12418409Y-33680577D01*
X12323171Y-33728196D01*
X12275552Y-33775815D01*
X12227933Y-33871053D01*
X12227933Y-34061529D01*
X12275552Y-34156767D01*
X12323171Y-34204386D01*
X12418409Y-34252005D01*
X11846980Y-33061529D02*
X11846980Y-32966291D01*
X11894600Y-32871053D01*
X11942219Y-32823434D01*
X12037457Y-32775815D01*
X12227933Y-32728196D01*
X12466028Y-32728196D01*
X12656504Y-32775815D01*
X12751742Y-32823434D01*
X12799361Y-32871053D01*
X12846980Y-32966291D01*
X12846980Y-33061529D01*
X12799361Y-33156767D01*
X12751742Y-33204386D01*
X12656504Y-33252005D01*
X12466028Y-33299624D01*
X12227933Y-33299624D01*
X12037457Y-33252005D01*
X11942219Y-33204386D01*
X11894600Y-33156767D01*
X11846980Y-33061529D01*
X12846980Y-31013910D02*
X12846980Y-31585339D01*
X12846980Y-31299624D02*
X11846980Y-31299624D01*
X11989838Y-31394862D01*
X12085076Y-31490100D01*
X12132695Y-31585339D01*
X12846980Y-30680577D02*
X12180314Y-30156767D01*
X12180314Y-30680577D02*
X12846980Y-30156767D01*
X12561266Y-29823434D02*
X12561266Y-29347243D01*
X12846980Y-29918672D02*
X11846980Y-29585339D01*
X12846980Y-29252005D01*
X12561266Y-28966291D02*
X12561266Y-28490100D01*
X12846980Y-29061529D02*
X11846980Y-28728196D01*
X12846980Y-28394862D01*
D16*
%TO.C,Module1*%
X43018000Y-37949000D02*
X43018000Y-49949000D01*
D17*
X32618000Y-50249000D02*
X32618000Y-50949000D01*
D16*
X28018000Y-40949000D02*
X28018000Y-37949000D01*
D17*
X28018000Y-50249000D02*
X24518000Y-50249000D01*
X24518000Y-50949000D02*
X24018000Y-50949000D01*
X32618000Y-50949000D02*
X28018000Y-50949000D01*
X44018000Y-50949000D02*
X42518000Y-50949000D01*
X32618000Y-37649000D02*
X32618000Y-36949000D01*
D16*
X44018000Y-50949000D02*
X44018000Y-36949000D01*
D17*
X28018000Y-50949000D02*
X28018000Y-50249000D01*
X24518000Y-36949000D02*
X24018000Y-36949000D01*
D16*
X25018000Y-49949000D02*
X25018000Y-40949000D01*
D17*
X28018000Y-37649000D02*
X24518000Y-37649000D01*
D16*
X43018000Y-49949000D02*
X25018000Y-49949000D01*
X24018000Y-36949000D02*
X24018000Y-50949000D01*
D17*
X32618000Y-36949000D02*
X28018000Y-36949000D01*
X28018000Y-36949000D02*
X28018000Y-37649000D01*
X24518000Y-50249000D02*
X24518000Y-50949000D01*
X24518000Y-37649000D02*
X24518000Y-36949000D01*
X42518000Y-50949000D02*
X42518000Y-50249000D01*
X44018000Y-36949000D02*
X42518000Y-36949000D01*
X42518000Y-36949000D02*
X42518000Y-37649000D01*
X42518000Y-37649000D02*
X32618000Y-37649000D01*
X42518000Y-50249000D02*
X32618000Y-50249000D01*
D16*
X28018000Y-37949000D02*
X43018000Y-37949000D01*
X25018000Y-40949000D02*
X28018000Y-40949000D01*
X27118000Y-39149000D02*
G75*
G03*
X27118000Y-39149000I-1000000J0D01*
G01*
D18*
X26638000Y-48663000D02*
G75*
G03*
X26638000Y-48663000I-400000J0D01*
G01*
D17*
%TO.C,D1*%
X47286000Y-3990000D02*
X47130000Y-3990000D01*
X44970000Y-3990000D02*
X44814000Y-3990000D01*
X47129837Y-6591130D02*
G75*
G03*
X47130000Y-4509039I-1079837J1041130D01*
G01*
X44814484Y-3990000D02*
G75*
G03*
X44971392Y-7222335I1235516J-1560000D01*
G01*
X44970000Y-4509039D02*
G75*
G03*
X44970163Y-6591130I1080000J-1040961D01*
G01*
X47128608Y-7222335D02*
G75*
G03*
X47285516Y-3990000I-1078608J1672335D01*
G01*
%TO.C,J1*%
X45990000Y-36665000D02*
X45990000Y-35335000D01*
X45990000Y-40535000D02*
X48650000Y-40535000D01*
X45990000Y-37935000D02*
X45990000Y-40535000D01*
X45990000Y-37935000D02*
X48650000Y-37935000D01*
X45990000Y-35335000D02*
X47320000Y-35335000D01*
X48650000Y-37935000D02*
X48650000Y-40535000D01*
%TO.C,J2*%
X51070000Y-36665000D02*
X51070000Y-35335000D01*
X51070000Y-40535000D02*
X53730000Y-40535000D01*
X51070000Y-37935000D02*
X51070000Y-40535000D01*
X51070000Y-37935000D02*
X53730000Y-37935000D01*
X51070000Y-35335000D02*
X52400000Y-35335000D01*
X53730000Y-37935000D02*
X53730000Y-40535000D01*
%TO.C,J7*%
X34560000Y-70320000D02*
X34560000Y-62640000D01*
X37220000Y-71590000D02*
X37220000Y-72920000D01*
X37220000Y-62640000D02*
X34560000Y-62640000D01*
X37220000Y-70320000D02*
X34560000Y-70320000D01*
X37220000Y-72920000D02*
X35890000Y-72920000D01*
X37220000Y-70320000D02*
X37220000Y-62640000D01*
%TO.C,BT1*%
X58890000Y-43760000D02*
X58890000Y-27960000D01*
X70090000Y-27960000D02*
X70090000Y-43760000D01*
X56890000Y-45760000D02*
X56890000Y-63760000D01*
X72090000Y-45760000D02*
X72090000Y-63760000D01*
X72090000Y-7960000D02*
X72090000Y-25960000D01*
X72090000Y-63760000D02*
X56890000Y-63760000D01*
X56890000Y-7960000D02*
X56890000Y-25960000D01*
X72090000Y-7960000D02*
X56890000Y-7960000D01*
X73055000Y-7240000D02*
X73055000Y-64480000D01*
X55925000Y-7240000D02*
X73055000Y-7240000D01*
X55925000Y-64480000D02*
X55925000Y-7240000D01*
X73055000Y-64480000D02*
X55925000Y-64480000D01*
X65550000Y-57170000D02*
X63550000Y-57170000D01*
X68550000Y-60170000D02*
X60550000Y-60170000D01*
X61550000Y-59170000D02*
X67550000Y-59170000D01*
X66550000Y-58170000D02*
X62550000Y-58170000D01*
X72090000Y-25960000D02*
G75*
G03*
X70090000Y-27960000I0J-2000000D01*
G01*
X70090000Y-43760000D02*
G75*
G03*
X72090000Y-45760000I2000000J0D01*
G01*
X56890000Y-45760000D02*
G75*
G03*
X58890000Y-43760000I0J2000000D01*
G01*
X58890000Y-27960000D02*
G75*
G03*
X56890000Y-25960000I-2000000J0D01*
G01*
%TO.C,J3*%
X45990000Y-27140000D02*
X45990000Y-25810000D01*
X45990000Y-31010000D02*
X48650000Y-31010000D01*
X45990000Y-28410000D02*
X45990000Y-31010000D01*
X45990000Y-28410000D02*
X48650000Y-28410000D01*
X45990000Y-25810000D02*
X47320000Y-25810000D01*
X48650000Y-28410000D02*
X48650000Y-31010000D01*
%TO.C,J4*%
X51070000Y-27140000D02*
X51070000Y-25810000D01*
X51070000Y-31010000D02*
X53730000Y-31010000D01*
X51070000Y-28410000D02*
X51070000Y-31010000D01*
X51070000Y-28410000D02*
X53730000Y-28410000D01*
X51070000Y-25810000D02*
X52400000Y-25810000D01*
X53730000Y-28410000D02*
X53730000Y-31010000D01*
%TO.C,J5*%
X58750000Y-69110000D02*
X71510000Y-69110000D01*
X57480000Y-69110000D02*
X56150000Y-69110000D01*
X56150000Y-69110000D02*
X56150000Y-67780000D01*
X58750000Y-69110000D02*
X58750000Y-66450000D01*
X71510000Y-69110000D02*
X71510000Y-66450000D01*
X58750000Y-66450000D02*
X71510000Y-66450000D01*
%TO.C,J6*%
X24400000Y-70320000D02*
X24400000Y-62640000D01*
X27060000Y-71590000D02*
X27060000Y-72920000D01*
X27060000Y-62640000D02*
X24400000Y-62640000D01*
X27060000Y-70320000D02*
X24400000Y-70320000D01*
X27060000Y-72920000D02*
X25730000Y-72920000D01*
X27060000Y-70320000D02*
X27060000Y-62640000D01*
%TO.C,C1*%
X48287000Y-51372600D02*
X49097000Y-51372600D01*
X48287000Y-52613600D02*
X49527000Y-52613600D01*
X45453000Y-52053600D02*
X46607000Y-52053600D01*
X48287000Y-51252600D02*
X48999000Y-51252600D01*
X48287000Y-51212600D02*
X48963000Y-51212600D01*
X45523000Y-51852600D02*
X46607000Y-51852600D01*
X46193000Y-50972600D02*
X48701000Y-50972600D01*
X45431000Y-52133600D02*
X46607000Y-52133600D01*
X45367000Y-52653600D02*
X46607000Y-52653600D01*
X45687000Y-51532600D02*
X46607000Y-51532600D01*
X48287000Y-51492600D02*
X49182000Y-51492600D01*
X45367000Y-52613600D02*
X46607000Y-52613600D01*
X48287000Y-51092600D02*
X48843000Y-51092600D01*
X45397000Y-52293600D02*
X46607000Y-52293600D01*
X45617000Y-51652600D02*
X46607000Y-51652600D01*
X45493000Y-51932600D02*
X46607000Y-51932600D01*
X48287000Y-51932600D02*
X49401000Y-51932600D01*
X48287000Y-52493600D02*
X49521000Y-52493600D01*
X46910000Y-50612600D02*
X47984000Y-50612600D01*
X46434000Y-50812600D02*
X48460000Y-50812600D01*
X47077000Y-50572600D02*
X47817000Y-50572600D01*
X45442000Y-52093600D02*
X46607000Y-52093600D01*
X45507000Y-51892600D02*
X46607000Y-51892600D01*
X48287000Y-52413600D02*
X49514000Y-52413600D01*
X48287000Y-51892600D02*
X49387000Y-51892600D01*
X45797000Y-51372600D02*
X46607000Y-51372600D01*
X45479000Y-51973600D02*
X46607000Y-51973600D01*
X48287000Y-52333600D02*
X49503000Y-52333600D01*
X48287000Y-51412600D02*
X49127000Y-51412600D01*
X48287000Y-52213600D02*
X49481000Y-52213600D01*
X46305000Y-50892600D02*
X48589000Y-50892600D01*
X48287000Y-51852600D02*
X49371000Y-51852600D01*
X45465000Y-52013600D02*
X46607000Y-52013600D01*
X45895000Y-51252600D02*
X46607000Y-51252600D01*
X48287000Y-52173600D02*
X49472000Y-52173600D01*
X46367000Y-50852600D02*
X48527000Y-50852600D01*
X48287000Y-51172600D02*
X48925000Y-51172600D01*
X45558000Y-51772600D02*
X46607000Y-51772600D01*
X46252000Y-54923401D02*
X46252000Y-54523401D01*
X48287000Y-51652600D02*
X49277000Y-51652600D01*
X46052000Y-54723401D02*
X46452000Y-54723401D01*
X48287000Y-52293600D02*
X49497000Y-52293600D01*
X45368000Y-52573600D02*
X46607000Y-52573600D01*
X48287000Y-52133600D02*
X49463000Y-52133600D01*
X45385000Y-52373600D02*
X46607000Y-52373600D01*
X46588000Y-50732600D02*
X48306000Y-50732600D01*
X48287000Y-52453600D02*
X49518000Y-52453600D01*
X45413000Y-52213600D02*
X46607000Y-52213600D01*
X48287000Y-51532600D02*
X49207000Y-51532600D01*
X45969000Y-51172600D02*
X46607000Y-51172600D01*
X48287000Y-52053600D02*
X49441000Y-52053600D01*
X48287000Y-51132600D02*
X48885000Y-51132600D01*
X45767000Y-51412600D02*
X46607000Y-51412600D01*
X48287000Y-51812600D02*
X49354000Y-51812600D01*
X45380000Y-52413600D02*
X46607000Y-52413600D01*
X45712000Y-51492600D02*
X46607000Y-51492600D01*
X46096000Y-51052600D02*
X48798000Y-51052600D01*
X45639000Y-51612600D02*
X46607000Y-51612600D01*
X45422000Y-52173600D02*
X46607000Y-52173600D01*
X46051000Y-51092600D02*
X46607000Y-51092600D01*
X48287000Y-52573600D02*
X49526000Y-52573600D01*
X48287000Y-51692600D02*
X49298000Y-51692600D01*
X48287000Y-52653600D02*
X49527000Y-52653600D01*
X48287000Y-52373600D02*
X49509000Y-52373600D01*
X46507000Y-50772600D02*
X48387000Y-50772600D01*
X45662000Y-51572600D02*
X46607000Y-51572600D01*
X45405000Y-52253600D02*
X46607000Y-52253600D01*
X48287000Y-52013600D02*
X49429000Y-52013600D01*
X48287000Y-51332600D02*
X49066000Y-51332600D01*
X48287000Y-51612600D02*
X49255000Y-51612600D01*
X45596000Y-51692600D02*
X46607000Y-51692600D01*
X45370000Y-52533600D02*
X46607000Y-52533600D01*
X46247000Y-50932600D02*
X48647000Y-50932600D01*
X48287000Y-51572600D02*
X49232000Y-51572600D01*
X45828000Y-51332600D02*
X46607000Y-51332600D01*
X48287000Y-52533600D02*
X49524000Y-52533600D01*
X45540000Y-51812600D02*
X46607000Y-51812600D01*
X48287000Y-51732600D02*
X49317000Y-51732600D01*
X48287000Y-52253600D02*
X49489000Y-52253600D01*
X46783000Y-50652600D02*
X48111000Y-50652600D01*
X45739000Y-51452600D02*
X46607000Y-51452600D01*
X45577000Y-51732600D02*
X46607000Y-51732600D01*
X45376000Y-52453600D02*
X46607000Y-52453600D01*
X48287000Y-51772600D02*
X49336000Y-51772600D01*
X48287000Y-52093600D02*
X49452000Y-52093600D01*
X48287000Y-51292600D02*
X49034000Y-51292600D01*
X45931000Y-51212600D02*
X46607000Y-51212600D01*
X45391000Y-52333600D02*
X46607000Y-52333600D01*
X46679000Y-50692600D02*
X48215000Y-50692600D01*
X48287000Y-51452600D02*
X49155000Y-51452600D01*
X45860000Y-51292600D02*
X46607000Y-51292600D01*
X48287000Y-51973600D02*
X49415000Y-51973600D01*
X46009000Y-51132600D02*
X46607000Y-51132600D01*
X46143000Y-51012600D02*
X48751000Y-51012600D01*
X45373000Y-52493600D02*
X46607000Y-52493600D01*
X49567000Y-52653600D02*
G75*
G03*
X49567000Y-52653600I-2120000J0D01*
G01*
%TO.C,R4*%
X51130000Y-46925000D02*
X51130000Y-46995000D01*
X52500000Y-45555000D02*
G75*
G03*
X52500000Y-45555000I-1370000J0D01*
G01*
%TO.C,R5*%
X47320000Y-46925000D02*
X47320000Y-46995000D01*
X48690000Y-45555000D02*
G75*
G03*
X48690000Y-45555000I-1370000J0D01*
G01*
%TO.C,R1*%
X46050000Y-11365000D02*
X46050000Y-11435000D01*
X47420000Y-9995000D02*
G75*
G03*
X47420000Y-9995000I-1370000J0D01*
G01*
%TO.C,R3*%
X18010000Y-67780000D02*
X17940000Y-67780000D01*
X20750000Y-67780000D02*
G75*
G03*
X20750000Y-67780000I-1370000J0D01*
G01*
%TO.C,Q1*%
X8959000Y-67129000D02*
X9232000Y-67129000D01*
X11249000Y-67129000D02*
X11522000Y-67129000D01*
X6830000Y-66390000D02*
X6830000Y-68930000D01*
X13650000Y-66390000D02*
X13650000Y-68930000D01*
X6830000Y-67129000D02*
X6941000Y-67129000D01*
X6830000Y-68930000D02*
X13650000Y-68930000D01*
X6830000Y-66390000D02*
X13650000Y-66390000D01*
X13539000Y-67129000D02*
X13650000Y-67129000D01*
%TO.C,J9*%
X49800000Y-70320000D02*
X49800000Y-62640000D01*
X52460000Y-71590000D02*
X52460000Y-72920000D01*
X52460000Y-62640000D02*
X49800000Y-62640000D01*
X52460000Y-70320000D02*
X49800000Y-70320000D01*
X52460000Y-72920000D02*
X51130000Y-72920000D01*
X52460000Y-70320000D02*
X52460000Y-62640000D01*
%TO.C,J10*%
X72399000Y-5673500D02*
X72399000Y-3013500D01*
X67259000Y-5673500D02*
X72399000Y-5673500D01*
X65989000Y-5673500D02*
X64659000Y-5673500D01*
X67259000Y-3013500D02*
X72399000Y-3013500D01*
X64659000Y-5673500D02*
X64659000Y-4343500D01*
X67259000Y-5673500D02*
X67259000Y-3013500D01*
%TO.C,Module2*%
X39065000Y-14440000D02*
G75*
G03*
X39065000Y-14440000I-635000J0D01*
G01*
X39065000Y-16980000D02*
G75*
G03*
X39065000Y-16980000I-635000J0D01*
G01*
X30810000Y-13360000D02*
X34366000Y-13360000D01*
X30810000Y-17361000D02*
X34366000Y-17361000D01*
X38397000Y-20282000D02*
X28397000Y-20282000D01*
X38430000Y-30315000D02*
X38397000Y-20315000D01*
X28430000Y-30315000D02*
X28397000Y-20315000D01*
X38430000Y-30315000D02*
X28430000Y-30315000D01*
D11*
X24460000Y-34760000D02*
X42240000Y-34760000D01*
X24460000Y-1740000D02*
X24460000Y-34760000D01*
X42240000Y-1740000D02*
X24460000Y-1740000D01*
X42240000Y-34760000D02*
X42240000Y-1740000D01*
X29159000Y-9233000D02*
X29159000Y-11773000D01*
X34239000Y-9233000D02*
X29159000Y-9233000D01*
X34239000Y-11773000D02*
X34239000Y-9233000D01*
X29159000Y-11773000D02*
X34239000Y-11773000D01*
X27635000Y-3010000D02*
G75*
G03*
X27635000Y-3010000I-635000J0D01*
G01*
X30175000Y-3010000D02*
G75*
G03*
X30175000Y-3010000I-635000J0D01*
G01*
X32715000Y-3010000D02*
G75*
G03*
X32715000Y-3010000I-635000J0D01*
G01*
X35255000Y-3010000D02*
G75*
G03*
X35255000Y-3010000I-635000J0D01*
G01*
X37795000Y-3010000D02*
G75*
G03*
X37795000Y-3010000I-635000J0D01*
G01*
X40335000Y-3010000D02*
G75*
G03*
X40335000Y-3010000I-635000J0D01*
G01*
D17*
X30810000Y-13360000D02*
G75*
G03*
X30810000Y-17360000I0J-2000000D01*
G01*
X34366000Y-17360000D02*
G75*
G03*
X34366000Y-13360000I0J2000000D01*
G01*
%TO.C,JP2*%
X52257000Y-9850000D02*
X52257000Y-12650000D01*
X50257000Y-12650000D02*
X50257000Y-9850000D01*
X50257000Y-9850000D02*
X52257000Y-9850000D01*
X52257000Y-12650000D02*
X50257000Y-12650000D01*
%TO.C,SW1*%
X52185000Y-15345000D02*
X47685000Y-15345000D01*
X47685000Y-21845000D02*
X52185000Y-21845000D01*
X53435000Y-19345000D02*
X53435000Y-17845000D01*
X46435000Y-17845000D02*
X46435000Y-19345000D01*
%TO.C,J8*%
X39640000Y-70320000D02*
X39640000Y-62640000D01*
X42300000Y-71590000D02*
X42300000Y-72920000D01*
X42300000Y-62640000D02*
X39640000Y-62640000D01*
X42300000Y-70320000D02*
X39640000Y-70320000D01*
X42300000Y-72920000D02*
X40970000Y-72920000D01*
X42300000Y-70320000D02*
X42300000Y-62640000D01*
%TO.C,LOGO1*%
G36*
X15459259Y-31150476D02*
G01*
X15233279Y-31080859D01*
X15207143Y-31070352D01*
X14986588Y-30960716D01*
X14784959Y-30822852D01*
X14605273Y-30659913D01*
X14450549Y-30475054D01*
X14323804Y-30271427D01*
X14228055Y-30052187D01*
X14225314Y-30044305D01*
X14174102Y-29850616D01*
X14145771Y-29639843D01*
X14140461Y-29422613D01*
X14142318Y-29400447D01*
X14452054Y-29400447D01*
X14454118Y-29623940D01*
X14490944Y-29839153D01*
X14561550Y-30043454D01*
X14664951Y-30234208D01*
X14800166Y-30408782D01*
X14846288Y-30457106D01*
X15018934Y-30606097D01*
X15205135Y-30723355D01*
X15401644Y-30808664D01*
X15605212Y-30861809D01*
X15812593Y-30882572D01*
X16020538Y-30870738D01*
X16225799Y-30826092D01*
X16425129Y-30748416D01*
X16615280Y-30637496D01*
X16692910Y-30579925D01*
X16849609Y-30433303D01*
X16984442Y-30261635D01*
X17093028Y-30071670D01*
X17170981Y-29870160D01*
X17183867Y-29823857D01*
X17209972Y-29679230D01*
X17220701Y-29516996D01*
X17216064Y-29351947D01*
X17196073Y-29198876D01*
X17183329Y-29142581D01*
X17131458Y-28989449D01*
X17056836Y-28830059D01*
X16966765Y-28678485D01*
X16885597Y-28568807D01*
X16735264Y-28415184D01*
X16564698Y-28289824D01*
X16377611Y-28193725D01*
X16177716Y-28127890D01*
X15968726Y-28093317D01*
X15754353Y-28091008D01*
X15538311Y-28121961D01*
X15385748Y-28164746D01*
X15211824Y-28237973D01*
X15051429Y-28336239D01*
X14897287Y-28464267D01*
X14844286Y-28516151D01*
X14700997Y-28684396D01*
X14590805Y-28865355D01*
X14512596Y-29061537D01*
X14465257Y-29275449D01*
X14452054Y-29400447D01*
X14142318Y-29400447D01*
X14158312Y-29209548D01*
X14199462Y-29011275D01*
X14211223Y-28972053D01*
X14300488Y-28748400D01*
X14419744Y-28539651D01*
X14565676Y-28349534D01*
X14734969Y-28181776D01*
X14924308Y-28040104D01*
X15130376Y-27928245D01*
X15145794Y-27921431D01*
X15365758Y-27844110D01*
X15595675Y-27797539D01*
X15830356Y-27781301D01*
X16064611Y-27794982D01*
X16293251Y-27838168D01*
X16511086Y-27910442D01*
X16712927Y-28011390D01*
X16776500Y-28051842D01*
X16964499Y-28199518D01*
X17129048Y-28371038D01*
X17268516Y-28562485D01*
X17381273Y-28769941D01*
X17465687Y-28989492D01*
X17520128Y-29217219D01*
X17542963Y-29449207D01*
X17532563Y-29681539D01*
X17510684Y-29814786D01*
X17441314Y-30061183D01*
X17340971Y-30288750D01*
X17210071Y-30496853D01*
X17049030Y-30684853D01*
X16858264Y-30852113D01*
X16809947Y-30887783D01*
X16608507Y-31009938D01*
X16391448Y-31101444D01*
X16163383Y-31161776D01*
X15928923Y-31190409D01*
X15812593Y-31188641D01*
X15692677Y-31186817D01*
X15459259Y-31150476D01*
G37*
D19*
X15459259Y-31150476D02*
X15233279Y-31080859D01*
X15207143Y-31070352D01*
X14986588Y-30960716D01*
X14784959Y-30822852D01*
X14605273Y-30659913D01*
X14450549Y-30475054D01*
X14323804Y-30271427D01*
X14228055Y-30052187D01*
X14225314Y-30044305D01*
X14174102Y-29850616D01*
X14145771Y-29639843D01*
X14140461Y-29422613D01*
X14142318Y-29400447D01*
X14452054Y-29400447D01*
X14454118Y-29623940D01*
X14490944Y-29839153D01*
X14561550Y-30043454D01*
X14664951Y-30234208D01*
X14800166Y-30408782D01*
X14846288Y-30457106D01*
X15018934Y-30606097D01*
X15205135Y-30723355D01*
X15401644Y-30808664D01*
X15605212Y-30861809D01*
X15812593Y-30882572D01*
X16020538Y-30870738D01*
X16225799Y-30826092D01*
X16425129Y-30748416D01*
X16615280Y-30637496D01*
X16692910Y-30579925D01*
X16849609Y-30433303D01*
X16984442Y-30261635D01*
X17093028Y-30071670D01*
X17170981Y-29870160D01*
X17183867Y-29823857D01*
X17209972Y-29679230D01*
X17220701Y-29516996D01*
X17216064Y-29351947D01*
X17196073Y-29198876D01*
X17183329Y-29142581D01*
X17131458Y-28989449D01*
X17056836Y-28830059D01*
X16966765Y-28678485D01*
X16885597Y-28568807D01*
X16735264Y-28415184D01*
X16564698Y-28289824D01*
X16377611Y-28193725D01*
X16177716Y-28127890D01*
X15968726Y-28093317D01*
X15754353Y-28091008D01*
X15538311Y-28121961D01*
X15385748Y-28164746D01*
X15211824Y-28237973D01*
X15051429Y-28336239D01*
X14897287Y-28464267D01*
X14844286Y-28516151D01*
X14700997Y-28684396D01*
X14590805Y-28865355D01*
X14512596Y-29061537D01*
X14465257Y-29275449D01*
X14452054Y-29400447D01*
X14142318Y-29400447D01*
X14158312Y-29209548D01*
X14199462Y-29011275D01*
X14211223Y-28972053D01*
X14300488Y-28748400D01*
X14419744Y-28539651D01*
X14565676Y-28349534D01*
X14734969Y-28181776D01*
X14924308Y-28040104D01*
X15130376Y-27928245D01*
X15145794Y-27921431D01*
X15365758Y-27844110D01*
X15595675Y-27797539D01*
X15830356Y-27781301D01*
X16064611Y-27794982D01*
X16293251Y-27838168D01*
X16511086Y-27910442D01*
X16712927Y-28011390D01*
X16776500Y-28051842D01*
X16964499Y-28199518D01*
X17129048Y-28371038D01*
X17268516Y-28562485D01*
X17381273Y-28769941D01*
X17465687Y-28989492D01*
X17520128Y-29217219D01*
X17542963Y-29449207D01*
X17532563Y-29681539D01*
X17510684Y-29814786D01*
X17441314Y-30061183D01*
X17340971Y-30288750D01*
X17210071Y-30496853D01*
X17049030Y-30684853D01*
X16858264Y-30852113D01*
X16809947Y-30887783D01*
X16608507Y-31009938D01*
X16391448Y-31101444D01*
X16163383Y-31161776D01*
X15928923Y-31190409D01*
X15812593Y-31188641D01*
X15692677Y-31186817D01*
X15459259Y-31150476D01*
G36*
X15578880Y-27509036D02*
G01*
X15478842Y-27493989D01*
X15252721Y-27427876D01*
X15037389Y-27329181D01*
X14836646Y-27200928D01*
X14654295Y-27046142D01*
X14494137Y-26867847D01*
X14359976Y-26669069D01*
X14300965Y-26556978D01*
X14216255Y-26339379D01*
X14162585Y-26109742D01*
X14139798Y-25873514D01*
X14142343Y-25797434D01*
X14449044Y-25797434D01*
X14462611Y-26018577D01*
X14510987Y-26236007D01*
X14529982Y-26293345D01*
X14613450Y-26476559D01*
X14727950Y-26649753D01*
X14868614Y-26808183D01*
X15030574Y-26947102D01*
X15208961Y-27061764D01*
X15398907Y-27147424D01*
X15410211Y-27151415D01*
X15538047Y-27184347D01*
X15687625Y-27204404D01*
X15846607Y-27211167D01*
X16002655Y-27204215D01*
X16143429Y-27183128D01*
X16168413Y-27177241D01*
X16372893Y-27107204D01*
X16565730Y-27004823D01*
X16741767Y-26873454D01*
X16895846Y-26716456D01*
X16918066Y-26689246D01*
X17001798Y-26577706D01*
X17065164Y-26476587D01*
X17115442Y-26372813D01*
X17158699Y-26256932D01*
X17208973Y-26052990D01*
X17228120Y-25838685D01*
X17215855Y-25622769D01*
X17184751Y-25460643D01*
X17118796Y-25271461D01*
X17021656Y-25089039D01*
X16898171Y-24919259D01*
X16753184Y-24768003D01*
X16591536Y-24641153D01*
X16438403Y-24553937D01*
X16313954Y-24500362D01*
X16198559Y-24463582D01*
X16080070Y-24441035D01*
X15946342Y-24430159D01*
X15842143Y-24428125D01*
X15697101Y-24431493D01*
X15575094Y-24444246D01*
X15463453Y-24469301D01*
X15349509Y-24509572D01*
X15220592Y-24567975D01*
X15208353Y-24573960D01*
X15130167Y-24614333D01*
X15065933Y-24653441D01*
X15006107Y-24698448D01*
X14941143Y-24756517D01*
X14863639Y-24832654D01*
X14773968Y-24926642D01*
X14705951Y-25007690D01*
X14652449Y-25084943D01*
X14614206Y-25152250D01*
X14525140Y-25360218D01*
X14469986Y-25576631D01*
X14449044Y-25797434D01*
X14142343Y-25797434D01*
X14147740Y-25636143D01*
X14186254Y-25403079D01*
X14255186Y-25179769D01*
X14345776Y-24986833D01*
X14481559Y-24779738D01*
X14642907Y-24596370D01*
X14826913Y-24438970D01*
X15030671Y-24309774D01*
X15251273Y-24211024D01*
X15419390Y-24159912D01*
X15559681Y-24134681D01*
X15721520Y-24120853D01*
X15892210Y-24118435D01*
X16059057Y-24127432D01*
X16209362Y-24147849D01*
X16263225Y-24159515D01*
X16486520Y-24230871D01*
X16690300Y-24330740D01*
X16878705Y-24461523D01*
X17041600Y-24610780D01*
X17208306Y-24806204D01*
X17341926Y-25015784D01*
X17443542Y-25241457D01*
X17503217Y-25437722D01*
X17521202Y-25538577D01*
X17533235Y-25662780D01*
X17538997Y-25797834D01*
X17538170Y-25931241D01*
X17530436Y-26050505D01*
X17520588Y-26119685D01*
X17461328Y-26351131D01*
X17375066Y-26562754D01*
X17259249Y-26759209D01*
X17111321Y-26945147D01*
X17009764Y-27050044D01*
X16825506Y-27208286D01*
X16632922Y-27332870D01*
X16427741Y-27426197D01*
X16240289Y-27482731D01*
X16130727Y-27501917D01*
X15997881Y-27514317D01*
X15853675Y-27519754D01*
X15846607Y-27519671D01*
X15710033Y-27518052D01*
X15578880Y-27509036D01*
G37*
X15578880Y-27509036D02*
X15478842Y-27493989D01*
X15252721Y-27427876D01*
X15037389Y-27329181D01*
X14836646Y-27200928D01*
X14654295Y-27046142D01*
X14494137Y-26867847D01*
X14359976Y-26669069D01*
X14300965Y-26556978D01*
X14216255Y-26339379D01*
X14162585Y-26109742D01*
X14139798Y-25873514D01*
X14142343Y-25797434D01*
X14449044Y-25797434D01*
X14462611Y-26018577D01*
X14510987Y-26236007D01*
X14529982Y-26293345D01*
X14613450Y-26476559D01*
X14727950Y-26649753D01*
X14868614Y-26808183D01*
X15030574Y-26947102D01*
X15208961Y-27061764D01*
X15398907Y-27147424D01*
X15410211Y-27151415D01*
X15538047Y-27184347D01*
X15687625Y-27204404D01*
X15846607Y-27211167D01*
X16002655Y-27204215D01*
X16143429Y-27183128D01*
X16168413Y-27177241D01*
X16372893Y-27107204D01*
X16565730Y-27004823D01*
X16741767Y-26873454D01*
X16895846Y-26716456D01*
X16918066Y-26689246D01*
X17001798Y-26577706D01*
X17065164Y-26476587D01*
X17115442Y-26372813D01*
X17158699Y-26256932D01*
X17208973Y-26052990D01*
X17228120Y-25838685D01*
X17215855Y-25622769D01*
X17184751Y-25460643D01*
X17118796Y-25271461D01*
X17021656Y-25089039D01*
X16898171Y-24919259D01*
X16753184Y-24768003D01*
X16591536Y-24641153D01*
X16438403Y-24553937D01*
X16313954Y-24500362D01*
X16198559Y-24463582D01*
X16080070Y-24441035D01*
X15946342Y-24430159D01*
X15842143Y-24428125D01*
X15697101Y-24431493D01*
X15575094Y-24444246D01*
X15463453Y-24469301D01*
X15349509Y-24509572D01*
X15220592Y-24567975D01*
X15208353Y-24573960D01*
X15130167Y-24614333D01*
X15065933Y-24653441D01*
X15006107Y-24698448D01*
X14941143Y-24756517D01*
X14863639Y-24832654D01*
X14773968Y-24926642D01*
X14705951Y-25007690D01*
X14652449Y-25084943D01*
X14614206Y-25152250D01*
X14525140Y-25360218D01*
X14469986Y-25576631D01*
X14449044Y-25797434D01*
X14142343Y-25797434D01*
X14147740Y-25636143D01*
X14186254Y-25403079D01*
X14255186Y-25179769D01*
X14345776Y-24986833D01*
X14481559Y-24779738D01*
X14642907Y-24596370D01*
X14826913Y-24438970D01*
X15030671Y-24309774D01*
X15251273Y-24211024D01*
X15419390Y-24159912D01*
X15559681Y-24134681D01*
X15721520Y-24120853D01*
X15892210Y-24118435D01*
X16059057Y-24127432D01*
X16209362Y-24147849D01*
X16263225Y-24159515D01*
X16486520Y-24230871D01*
X16690300Y-24330740D01*
X16878705Y-24461523D01*
X17041600Y-24610780D01*
X17208306Y-24806204D01*
X17341926Y-25015784D01*
X17443542Y-25241457D01*
X17503217Y-25437722D01*
X17521202Y-25538577D01*
X17533235Y-25662780D01*
X17538997Y-25797834D01*
X17538170Y-25931241D01*
X17530436Y-26050505D01*
X17520588Y-26119685D01*
X17461328Y-26351131D01*
X17375066Y-26562754D01*
X17259249Y-26759209D01*
X17111321Y-26945147D01*
X17009764Y-27050044D01*
X16825506Y-27208286D01*
X16632922Y-27332870D01*
X16427741Y-27426197D01*
X16240289Y-27482731D01*
X16130727Y-27501917D01*
X15997881Y-27514317D01*
X15853675Y-27519754D01*
X15846607Y-27519671D01*
X15710033Y-27518052D01*
X15578880Y-27509036D01*
G36*
X15765368Y-23849984D02*
G01*
X15535914Y-23829955D01*
X15329014Y-23786013D01*
X15137979Y-23715731D01*
X15069202Y-23678271D01*
X14956123Y-23616681D01*
X14787302Y-23494957D01*
X14764950Y-23474554D01*
X15398225Y-23474554D01*
X15398300Y-23474921D01*
X15424329Y-23490406D01*
X15478686Y-23506154D01*
X15553442Y-23520877D01*
X15640675Y-23533288D01*
X15732456Y-23542101D01*
X15820861Y-23546026D01*
X15836653Y-23546114D01*
X16013028Y-23537568D01*
X16169411Y-23510672D01*
X16318643Y-23462522D01*
X16431786Y-23411621D01*
X16630105Y-23294253D01*
X16801745Y-23152369D01*
X16947399Y-22985274D01*
X17067761Y-22792274D01*
X17086654Y-22755015D01*
X17137919Y-22643396D01*
X17174444Y-22543375D01*
X17198190Y-22444907D01*
X17211115Y-22337948D01*
X17215182Y-22212452D01*
X17213701Y-22104072D01*
X17209462Y-21988217D01*
X17202873Y-21899579D01*
X17192794Y-21829111D01*
X17178087Y-21767764D01*
X17166897Y-21732535D01*
X17102043Y-21567548D01*
X17025601Y-21424386D01*
X16930262Y-21291326D01*
X16808717Y-21156648D01*
X16806105Y-21153995D01*
X16724668Y-21075663D01*
X16650668Y-21012539D01*
X16588215Y-20967568D01*
X16541421Y-20943693D01*
X16514396Y-20943858D01*
X16513619Y-20944569D01*
X16501732Y-20965290D01*
X16478544Y-21012543D01*
X16447012Y-21079718D01*
X16410097Y-21160208D01*
X16370758Y-21247405D01*
X16331955Y-21334700D01*
X16296646Y-21415484D01*
X16267792Y-21483151D01*
X16248352Y-21531091D01*
X16241286Y-21552653D01*
X16256531Y-21566537D01*
X16293726Y-21583542D01*
X16298635Y-21585300D01*
X16397238Y-21638131D01*
X16482617Y-21720592D01*
X16550175Y-21827069D01*
X16593775Y-21945792D01*
X16615694Y-22031500D01*
X16741454Y-22033624D01*
X16867214Y-22035747D01*
X16867214Y-22231072D01*
X16608660Y-22241642D01*
X16596589Y-22348334D01*
X16575440Y-22443325D01*
X16535814Y-22548090D01*
X16484683Y-22646539D01*
X16439597Y-22710634D01*
X16402461Y-22754769D01*
X16281841Y-22634149D01*
X16161222Y-22513529D01*
X16200367Y-22471860D01*
X16250820Y-22400156D01*
X16288262Y-22311567D01*
X16311079Y-22215703D01*
X16317657Y-22122174D01*
X16306382Y-22040592D01*
X16281629Y-21987917D01*
X16253061Y-21958228D01*
X16216767Y-21944294D01*
X16158737Y-21940786D01*
X16157720Y-21940786D01*
X16103130Y-21942891D01*
X16071513Y-21953860D01*
X16049605Y-21980677D01*
X16037102Y-22004286D01*
X16012646Y-22055145D01*
X15977905Y-22130455D01*
X15934654Y-22226127D01*
X15884670Y-22338074D01*
X15829728Y-22462207D01*
X15771603Y-22594440D01*
X15712071Y-22730685D01*
X15652907Y-22866855D01*
X15595887Y-22998860D01*
X15542787Y-23122615D01*
X15495382Y-23234031D01*
X15455448Y-23329020D01*
X15424760Y-23403495D01*
X15405094Y-23453369D01*
X15398225Y-23474554D01*
X14764950Y-23474554D01*
X14626592Y-23348261D01*
X14482384Y-23181717D01*
X14359939Y-23002682D01*
X14264517Y-22818511D01*
X14220319Y-22702154D01*
X14163936Y-22472051D01*
X14140212Y-22242437D01*
X14449022Y-22242437D01*
X14479881Y-22455585D01*
X14542022Y-22661339D01*
X14634989Y-22854134D01*
X14652688Y-22883399D01*
X14691976Y-22939043D01*
X14745620Y-23005006D01*
X14808270Y-23075806D01*
X14874576Y-23145956D01*
X14939187Y-23209972D01*
X14996754Y-23262369D01*
X15041925Y-23297662D01*
X15069202Y-23310370D01*
X15085931Y-23294834D01*
X15110615Y-23254278D01*
X15137932Y-23197456D01*
X15138139Y-23196978D01*
X15165798Y-23133509D01*
X15202991Y-23048871D01*
X15244452Y-22955024D01*
X15277920Y-22879626D01*
X15368776Y-22675466D01*
X15296787Y-22638740D01*
X15208738Y-22573521D01*
X15138984Y-22477212D01*
X15087778Y-22350204D01*
X15072355Y-22290036D01*
X15064755Y-22263921D01*
X15050700Y-22249003D01*
X15021547Y-22242150D01*
X14968657Y-22240231D01*
X14934654Y-22240143D01*
X14808000Y-22240143D01*
X14808000Y-22040572D01*
X15060356Y-22040572D01*
X15071508Y-21972536D01*
X15090662Y-21889886D01*
X15120024Y-21801556D01*
X15154534Y-21720686D01*
X15189133Y-21660416D01*
X15194297Y-21653615D01*
X15234357Y-21603617D01*
X15450463Y-21822379D01*
X15408717Y-21908304D01*
X15374182Y-22000987D01*
X15358011Y-22093525D01*
X15359488Y-22179078D01*
X15377896Y-22250805D01*
X15412519Y-22301866D01*
X15452204Y-22323440D01*
X15493064Y-22327080D01*
X15515973Y-22319550D01*
X15526779Y-22299780D01*
X15550267Y-22250925D01*
X15584610Y-22177097D01*
X15627976Y-22082404D01*
X15678538Y-21970954D01*
X15734464Y-21846858D01*
X15793927Y-21714225D01*
X15855096Y-21577163D01*
X15916142Y-21439782D01*
X15975236Y-21306191D01*
X16030547Y-21180499D01*
X16080248Y-21066816D01*
X16122508Y-20969250D01*
X16155498Y-20891911D01*
X16177388Y-20838909D01*
X16186349Y-20814351D01*
X16186469Y-20813508D01*
X16171183Y-20795258D01*
X16136964Y-20782171D01*
X15974735Y-20759989D01*
X15796093Y-20757473D01*
X15614588Y-20773826D01*
X15443770Y-20808247D01*
X15382069Y-20826697D01*
X15209202Y-20901659D01*
X15041790Y-21007428D01*
X14885628Y-21138527D01*
X14746512Y-21289478D01*
X14630238Y-21454805D01*
X14548693Y-21614252D01*
X14482972Y-21816208D01*
X14449900Y-22027457D01*
X14449022Y-22242437D01*
X14140212Y-22242437D01*
X14139410Y-22234671D01*
X14146048Y-21995503D01*
X14183157Y-21760036D01*
X14250043Y-21533759D01*
X14346012Y-21322162D01*
X14407755Y-21218874D01*
X14558803Y-21019901D01*
X14733231Y-20847523D01*
X14928674Y-20703435D01*
X15142767Y-20589330D01*
X15373145Y-20506903D01*
X15418017Y-20495098D01*
X15561181Y-20469172D01*
X15725654Y-20455149D01*
X15898642Y-20453034D01*
X16067350Y-20462830D01*
X16218984Y-20484545D01*
X16264896Y-20494772D01*
X16485014Y-20564977D01*
X16685150Y-20662282D01*
X16870302Y-20789616D01*
X17045468Y-20949904D01*
X17049952Y-20954556D01*
X17195149Y-21120822D01*
X17310251Y-21288135D01*
X17400649Y-21465117D01*
X17450876Y-21595724D01*
X17511526Y-21824989D01*
X17541256Y-22062059D01*
X17539379Y-22298262D01*
X17519000Y-22457857D01*
X17460381Y-22683169D01*
X17369550Y-22899193D01*
X17249774Y-23102176D01*
X17104321Y-23288369D01*
X16936458Y-23454020D01*
X16749453Y-23595378D01*
X16546574Y-23708692D01*
X16368286Y-23778817D01*
X16253110Y-23812542D01*
X16147330Y-23835240D01*
X16039805Y-23848227D01*
X15919390Y-23852817D01*
X15836653Y-23851391D01*
X15774944Y-23850327D01*
X15765368Y-23849984D01*
G37*
X15765368Y-23849984D02*
X15535914Y-23829955D01*
X15329014Y-23786013D01*
X15137979Y-23715731D01*
X15069202Y-23678271D01*
X14956123Y-23616681D01*
X14787302Y-23494957D01*
X14764950Y-23474554D01*
X15398225Y-23474554D01*
X15398300Y-23474921D01*
X15424329Y-23490406D01*
X15478686Y-23506154D01*
X15553442Y-23520877D01*
X15640675Y-23533288D01*
X15732456Y-23542101D01*
X15820861Y-23546026D01*
X15836653Y-23546114D01*
X16013028Y-23537568D01*
X16169411Y-23510672D01*
X16318643Y-23462522D01*
X16431786Y-23411621D01*
X16630105Y-23294253D01*
X16801745Y-23152369D01*
X16947399Y-22985274D01*
X17067761Y-22792274D01*
X17086654Y-22755015D01*
X17137919Y-22643396D01*
X17174444Y-22543375D01*
X17198190Y-22444907D01*
X17211115Y-22337948D01*
X17215182Y-22212452D01*
X17213701Y-22104072D01*
X17209462Y-21988217D01*
X17202873Y-21899579D01*
X17192794Y-21829111D01*
X17178087Y-21767764D01*
X17166897Y-21732535D01*
X17102043Y-21567548D01*
X17025601Y-21424386D01*
X16930262Y-21291326D01*
X16808717Y-21156648D01*
X16806105Y-21153995D01*
X16724668Y-21075663D01*
X16650668Y-21012539D01*
X16588215Y-20967568D01*
X16541421Y-20943693D01*
X16514396Y-20943858D01*
X16513619Y-20944569D01*
X16501732Y-20965290D01*
X16478544Y-21012543D01*
X16447012Y-21079718D01*
X16410097Y-21160208D01*
X16370758Y-21247405D01*
X16331955Y-21334700D01*
X16296646Y-21415484D01*
X16267792Y-21483151D01*
X16248352Y-21531091D01*
X16241286Y-21552653D01*
X16256531Y-21566537D01*
X16293726Y-21583542D01*
X16298635Y-21585300D01*
X16397238Y-21638131D01*
X16482617Y-21720592D01*
X16550175Y-21827069D01*
X16593775Y-21945792D01*
X16615694Y-22031500D01*
X16741454Y-22033624D01*
X16867214Y-22035747D01*
X16867214Y-22231072D01*
X16608660Y-22241642D01*
X16596589Y-22348334D01*
X16575440Y-22443325D01*
X16535814Y-22548090D01*
X16484683Y-22646539D01*
X16439597Y-22710634D01*
X16402461Y-22754769D01*
X16281841Y-22634149D01*
X16161222Y-22513529D01*
X16200367Y-22471860D01*
X16250820Y-22400156D01*
X16288262Y-22311567D01*
X16311079Y-22215703D01*
X16317657Y-22122174D01*
X16306382Y-22040592D01*
X16281629Y-21987917D01*
X16253061Y-21958228D01*
X16216767Y-21944294D01*
X16158737Y-21940786D01*
X16157720Y-21940786D01*
X16103130Y-21942891D01*
X16071513Y-21953860D01*
X16049605Y-21980677D01*
X16037102Y-22004286D01*
X16012646Y-22055145D01*
X15977905Y-22130455D01*
X15934654Y-22226127D01*
X15884670Y-22338074D01*
X15829728Y-22462207D01*
X15771603Y-22594440D01*
X15712071Y-22730685D01*
X15652907Y-22866855D01*
X15595887Y-22998860D01*
X15542787Y-23122615D01*
X15495382Y-23234031D01*
X15455448Y-23329020D01*
X15424760Y-23403495D01*
X15405094Y-23453369D01*
X15398225Y-23474554D01*
X14764950Y-23474554D01*
X14626592Y-23348261D01*
X14482384Y-23181717D01*
X14359939Y-23002682D01*
X14264517Y-22818511D01*
X14220319Y-22702154D01*
X14163936Y-22472051D01*
X14140212Y-22242437D01*
X14449022Y-22242437D01*
X14479881Y-22455585D01*
X14542022Y-22661339D01*
X14634989Y-22854134D01*
X14652688Y-22883399D01*
X14691976Y-22939043D01*
X14745620Y-23005006D01*
X14808270Y-23075806D01*
X14874576Y-23145956D01*
X14939187Y-23209972D01*
X14996754Y-23262369D01*
X15041925Y-23297662D01*
X15069202Y-23310370D01*
X15085931Y-23294834D01*
X15110615Y-23254278D01*
X15137932Y-23197456D01*
X15138139Y-23196978D01*
X15165798Y-23133509D01*
X15202991Y-23048871D01*
X15244452Y-22955024D01*
X15277920Y-22879626D01*
X15368776Y-22675466D01*
X15296787Y-22638740D01*
X15208738Y-22573521D01*
X15138984Y-22477212D01*
X15087778Y-22350204D01*
X15072355Y-22290036D01*
X15064755Y-22263921D01*
X15050700Y-22249003D01*
X15021547Y-22242150D01*
X14968657Y-22240231D01*
X14934654Y-22240143D01*
X14808000Y-22240143D01*
X14808000Y-22040572D01*
X15060356Y-22040572D01*
X15071508Y-21972536D01*
X15090662Y-21889886D01*
X15120024Y-21801556D01*
X15154534Y-21720686D01*
X15189133Y-21660416D01*
X15194297Y-21653615D01*
X15234357Y-21603617D01*
X15450463Y-21822379D01*
X15408717Y-21908304D01*
X15374182Y-22000987D01*
X15358011Y-22093525D01*
X15359488Y-22179078D01*
X15377896Y-22250805D01*
X15412519Y-22301866D01*
X15452204Y-22323440D01*
X15493064Y-22327080D01*
X15515973Y-22319550D01*
X15526779Y-22299780D01*
X15550267Y-22250925D01*
X15584610Y-22177097D01*
X15627976Y-22082404D01*
X15678538Y-21970954D01*
X15734464Y-21846858D01*
X15793927Y-21714225D01*
X15855096Y-21577163D01*
X15916142Y-21439782D01*
X15975236Y-21306191D01*
X16030547Y-21180499D01*
X16080248Y-21066816D01*
X16122508Y-20969250D01*
X16155498Y-20891911D01*
X16177388Y-20838909D01*
X16186349Y-20814351D01*
X16186469Y-20813508D01*
X16171183Y-20795258D01*
X16136964Y-20782171D01*
X15974735Y-20759989D01*
X15796093Y-20757473D01*
X15614588Y-20773826D01*
X15443770Y-20808247D01*
X15382069Y-20826697D01*
X15209202Y-20901659D01*
X15041790Y-21007428D01*
X14885628Y-21138527D01*
X14746512Y-21289478D01*
X14630238Y-21454805D01*
X14548693Y-21614252D01*
X14482972Y-21816208D01*
X14449900Y-22027457D01*
X14449022Y-22242437D01*
X14140212Y-22242437D01*
X14139410Y-22234671D01*
X14146048Y-21995503D01*
X14183157Y-21760036D01*
X14250043Y-21533759D01*
X14346012Y-21322162D01*
X14407755Y-21218874D01*
X14558803Y-21019901D01*
X14733231Y-20847523D01*
X14928674Y-20703435D01*
X15142767Y-20589330D01*
X15373145Y-20506903D01*
X15418017Y-20495098D01*
X15561181Y-20469172D01*
X15725654Y-20455149D01*
X15898642Y-20453034D01*
X16067350Y-20462830D01*
X16218984Y-20484545D01*
X16264896Y-20494772D01*
X16485014Y-20564977D01*
X16685150Y-20662282D01*
X16870302Y-20789616D01*
X17045468Y-20949904D01*
X17049952Y-20954556D01*
X17195149Y-21120822D01*
X17310251Y-21288135D01*
X17400649Y-21465117D01*
X17450876Y-21595724D01*
X17511526Y-21824989D01*
X17541256Y-22062059D01*
X17539379Y-22298262D01*
X17519000Y-22457857D01*
X17460381Y-22683169D01*
X17369550Y-22899193D01*
X17249774Y-23102176D01*
X17104321Y-23288369D01*
X16936458Y-23454020D01*
X16749453Y-23595378D01*
X16546574Y-23708692D01*
X16368286Y-23778817D01*
X16253110Y-23812542D01*
X16147330Y-23835240D01*
X16039805Y-23848227D01*
X15919390Y-23852817D01*
X15836653Y-23851391D01*
X15774944Y-23850327D01*
X15765368Y-23849984D01*
G36*
X15375369Y-20131745D02*
G01*
X15163134Y-20056570D01*
X14960355Y-19948604D01*
X14776196Y-19817303D01*
X14595335Y-19650217D01*
X14443266Y-19462942D01*
X14320881Y-19258488D01*
X14229075Y-19039871D01*
X14168741Y-18810101D01*
X14140773Y-18572193D01*
X14142681Y-18484572D01*
X14455587Y-18484572D01*
X14462808Y-18661205D01*
X14486423Y-18815752D01*
X14529180Y-18959749D01*
X14593827Y-19104731D01*
X14611158Y-19137715D01*
X14727579Y-19317183D01*
X14872706Y-19479951D01*
X15041062Y-19621495D01*
X15227172Y-19737292D01*
X15425559Y-19822820D01*
X15450562Y-19831035D01*
X15559226Y-19856189D01*
X15690551Y-19872244D01*
X15831953Y-19878746D01*
X15970854Y-19875242D01*
X16094671Y-19861280D01*
X16125355Y-19855341D01*
X16328650Y-19793355D01*
X16519355Y-19700087D01*
X16694200Y-19579103D01*
X16849918Y-19433967D01*
X16983241Y-19268245D01*
X17090900Y-19085502D01*
X17169626Y-18889302D01*
X17216153Y-18683211D01*
X17218872Y-18662501D01*
X17227679Y-18504650D01*
X17219219Y-18335222D01*
X17194751Y-18173797D01*
X17184751Y-18130929D01*
X17119399Y-17943122D01*
X17022982Y-17760378D01*
X16900679Y-17589565D01*
X16757665Y-17437551D01*
X16599117Y-17311206D01*
X16537739Y-17272448D01*
X16357659Y-17186438D01*
X16159649Y-17127184D01*
X15951345Y-17095689D01*
X15740381Y-17092957D01*
X15534390Y-17119993D01*
X15478256Y-17133134D01*
X15288423Y-17200107D01*
X15106592Y-17298666D01*
X14938402Y-17424184D01*
X14789493Y-17572040D01*
X14665504Y-17737608D01*
X14600973Y-17852481D01*
X14541244Y-17982715D01*
X14499740Y-18097540D01*
X14473564Y-18209557D01*
X14459817Y-18331368D01*
X14455600Y-18475576D01*
X14455587Y-18484572D01*
X14142681Y-18484572D01*
X14146065Y-18329158D01*
X14185510Y-18084011D01*
X14222091Y-17949357D01*
X14309062Y-17730738D01*
X14428316Y-17525393D01*
X14577223Y-17336704D01*
X14753156Y-17168055D01*
X14931007Y-17037117D01*
X15132405Y-16928079D01*
X15349126Y-16849231D01*
X15576417Y-16800539D01*
X15809521Y-16781971D01*
X16043682Y-16793492D01*
X16274144Y-16835069D01*
X16496153Y-16906670D01*
X16704951Y-17008260D01*
X16772698Y-17050024D01*
X16953568Y-17188835D01*
X17117309Y-17355614D01*
X17259725Y-17544429D01*
X17376615Y-17749345D01*
X17463782Y-17964427D01*
X17493753Y-18069218D01*
X17524578Y-18236846D01*
X17539724Y-18418223D01*
X17538879Y-18599739D01*
X17521733Y-18767783D01*
X17511012Y-18824660D01*
X17445211Y-19058513D01*
X17353022Y-19270912D01*
X17231644Y-19466819D01*
X17078278Y-19651194D01*
X17000054Y-19729835D01*
X16809678Y-19888265D01*
X16604431Y-20013632D01*
X16384879Y-20105709D01*
X16151589Y-20164270D01*
X15905130Y-20189089D01*
X15846240Y-20190000D01*
X15831953Y-20189165D01*
X15601568Y-20175698D01*
X15375369Y-20131745D01*
G37*
X15375369Y-20131745D02*
X15163134Y-20056570D01*
X14960355Y-19948604D01*
X14776196Y-19817303D01*
X14595335Y-19650217D01*
X14443266Y-19462942D01*
X14320881Y-19258488D01*
X14229075Y-19039871D01*
X14168741Y-18810101D01*
X14140773Y-18572193D01*
X14142681Y-18484572D01*
X14455587Y-18484572D01*
X14462808Y-18661205D01*
X14486423Y-18815752D01*
X14529180Y-18959749D01*
X14593827Y-19104731D01*
X14611158Y-19137715D01*
X14727579Y-19317183D01*
X14872706Y-19479951D01*
X15041062Y-19621495D01*
X15227172Y-19737292D01*
X15425559Y-19822820D01*
X15450562Y-19831035D01*
X15559226Y-19856189D01*
X15690551Y-19872244D01*
X15831953Y-19878746D01*
X15970854Y-19875242D01*
X16094671Y-19861280D01*
X16125355Y-19855341D01*
X16328650Y-19793355D01*
X16519355Y-19700087D01*
X16694200Y-19579103D01*
X16849918Y-19433967D01*
X16983241Y-19268245D01*
X17090900Y-19085502D01*
X17169626Y-18889302D01*
X17216153Y-18683211D01*
X17218872Y-18662501D01*
X17227679Y-18504650D01*
X17219219Y-18335222D01*
X17194751Y-18173797D01*
X17184751Y-18130929D01*
X17119399Y-17943122D01*
X17022982Y-17760378D01*
X16900679Y-17589565D01*
X16757665Y-17437551D01*
X16599117Y-17311206D01*
X16537739Y-17272448D01*
X16357659Y-17186438D01*
X16159649Y-17127184D01*
X15951345Y-17095689D01*
X15740381Y-17092957D01*
X15534390Y-17119993D01*
X15478256Y-17133134D01*
X15288423Y-17200107D01*
X15106592Y-17298666D01*
X14938402Y-17424184D01*
X14789493Y-17572040D01*
X14665504Y-17737608D01*
X14600973Y-17852481D01*
X14541244Y-17982715D01*
X14499740Y-18097540D01*
X14473564Y-18209557D01*
X14459817Y-18331368D01*
X14455600Y-18475576D01*
X14455587Y-18484572D01*
X14142681Y-18484572D01*
X14146065Y-18329158D01*
X14185510Y-18084011D01*
X14222091Y-17949357D01*
X14309062Y-17730738D01*
X14428316Y-17525393D01*
X14577223Y-17336704D01*
X14753156Y-17168055D01*
X14931007Y-17037117D01*
X15132405Y-16928079D01*
X15349126Y-16849231D01*
X15576417Y-16800539D01*
X15809521Y-16781971D01*
X16043682Y-16793492D01*
X16274144Y-16835069D01*
X16496153Y-16906670D01*
X16704951Y-17008260D01*
X16772698Y-17050024D01*
X16953568Y-17188835D01*
X17117309Y-17355614D01*
X17259725Y-17544429D01*
X17376615Y-17749345D01*
X17463782Y-17964427D01*
X17493753Y-18069218D01*
X17524578Y-18236846D01*
X17539724Y-18418223D01*
X17538879Y-18599739D01*
X17521733Y-18767783D01*
X17511012Y-18824660D01*
X17445211Y-19058513D01*
X17353022Y-19270912D01*
X17231644Y-19466819D01*
X17078278Y-19651194D01*
X17000054Y-19729835D01*
X16809678Y-19888265D01*
X16604431Y-20013632D01*
X16384879Y-20105709D01*
X16151589Y-20164270D01*
X15905130Y-20189089D01*
X15846240Y-20190000D01*
X15831953Y-20189165D01*
X15601568Y-20175698D01*
X15375369Y-20131745D01*
G36*
X16193845Y-29571814D02*
G01*
X16276843Y-29658971D01*
X16329228Y-29751414D01*
X16355957Y-29859562D01*
X16361288Y-29923643D01*
X16362034Y-29996805D01*
X16358665Y-30063044D01*
X16352499Y-30105072D01*
X16305018Y-30218229D01*
X16228686Y-30316183D01*
X16130046Y-30391717D01*
X16064452Y-30422688D01*
X15941926Y-30452380D01*
X15807503Y-30458053D01*
X15676453Y-30439748D01*
X15616805Y-30421555D01*
X15527958Y-30373897D01*
X15445320Y-30303931D01*
X15378638Y-30221605D01*
X15337659Y-30136867D01*
X15337568Y-30136564D01*
X15321494Y-30049851D01*
X15316915Y-29946868D01*
X15323561Y-29843953D01*
X15341161Y-29757446D01*
X15343965Y-29749031D01*
X15368033Y-29700535D01*
X15405797Y-29644831D01*
X15450057Y-29590408D01*
X15493610Y-29545751D01*
X15529254Y-29519348D01*
X15542027Y-29515644D01*
X15559674Y-29530520D01*
X15587724Y-29569301D01*
X15619912Y-29623252D01*
X15678896Y-29730645D01*
X15624903Y-29769091D01*
X15569917Y-29828835D01*
X15543761Y-29904000D01*
X15549180Y-29984781D01*
X15557639Y-30009283D01*
X15595686Y-30072088D01*
X15651723Y-30113801D01*
X15732057Y-30138060D01*
X15794165Y-30145720D01*
X15910167Y-30145108D01*
X16001082Y-30121607D01*
X16070926Y-30074001D01*
X16086478Y-30057111D01*
X16122108Y-29991622D01*
X16133361Y-29916913D01*
X16121538Y-29843584D01*
X16087942Y-29782234D01*
X16048782Y-29750213D01*
X16018672Y-29728724D01*
X16008365Y-29701887D01*
X16018242Y-29662118D01*
X16048686Y-29601833D01*
X16057015Y-29587104D01*
X16108602Y-29496780D01*
X16193845Y-29571814D01*
G37*
X16193845Y-29571814D02*
X16276843Y-29658971D01*
X16329228Y-29751414D01*
X16355957Y-29859562D01*
X16361288Y-29923643D01*
X16362034Y-29996805D01*
X16358665Y-30063044D01*
X16352499Y-30105072D01*
X16305018Y-30218229D01*
X16228686Y-30316183D01*
X16130046Y-30391717D01*
X16064452Y-30422688D01*
X15941926Y-30452380D01*
X15807503Y-30458053D01*
X15676453Y-30439748D01*
X15616805Y-30421555D01*
X15527958Y-30373897D01*
X15445320Y-30303931D01*
X15378638Y-30221605D01*
X15337659Y-30136867D01*
X15337568Y-30136564D01*
X15321494Y-30049851D01*
X15316915Y-29946868D01*
X15323561Y-29843953D01*
X15341161Y-29757446D01*
X15343965Y-29749031D01*
X15368033Y-29700535D01*
X15405797Y-29644831D01*
X15450057Y-29590408D01*
X15493610Y-29545751D01*
X15529254Y-29519348D01*
X15542027Y-29515644D01*
X15559674Y-29530520D01*
X15587724Y-29569301D01*
X15619912Y-29623252D01*
X15678896Y-29730645D01*
X15624903Y-29769091D01*
X15569917Y-29828835D01*
X15543761Y-29904000D01*
X15549180Y-29984781D01*
X15557639Y-30009283D01*
X15595686Y-30072088D01*
X15651723Y-30113801D01*
X15732057Y-30138060D01*
X15794165Y-30145720D01*
X15910167Y-30145108D01*
X16001082Y-30121607D01*
X16070926Y-30074001D01*
X16086478Y-30057111D01*
X16122108Y-29991622D01*
X16133361Y-29916913D01*
X16121538Y-29843584D01*
X16087942Y-29782234D01*
X16048782Y-29750213D01*
X16018672Y-29728724D01*
X16008365Y-29701887D01*
X16018242Y-29662118D01*
X16048686Y-29601833D01*
X16057015Y-29587104D01*
X16108602Y-29496780D01*
X16193845Y-29571814D01*
G36*
X16125789Y-28527781D02*
G01*
X16165255Y-28554432D01*
X16211528Y-28597453D01*
X16257616Y-28650161D01*
X16296524Y-28705872D01*
X16304114Y-28719126D01*
X16344178Y-28824046D01*
X16363238Y-28944788D01*
X16360033Y-29066730D01*
X16341493Y-29152572D01*
X16287284Y-29262540D01*
X16202930Y-29353645D01*
X16101249Y-29418378D01*
X16042917Y-29444270D01*
X15989976Y-29459545D01*
X15928803Y-29466834D01*
X15845776Y-29468772D01*
X15840534Y-29468776D01*
X15757801Y-29467255D01*
X15697821Y-29460852D01*
X15647127Y-29446806D01*
X15592247Y-29422354D01*
X15577301Y-29414807D01*
X15473219Y-29344396D01*
X15391783Y-29253868D01*
X15339076Y-29150323D01*
X15332640Y-29129130D01*
X15317714Y-29033170D01*
X15318204Y-28925138D01*
X15332754Y-28818550D01*
X15360007Y-28726924D01*
X15376349Y-28693669D01*
X15414177Y-28639115D01*
X15458834Y-28588988D01*
X15502907Y-28550081D01*
X15538981Y-28529184D01*
X15555937Y-28529165D01*
X15571341Y-28549131D01*
X15596670Y-28592001D01*
X15622770Y-28641358D01*
X15674729Y-28744357D01*
X15630347Y-28777776D01*
X15591634Y-28817814D01*
X15558273Y-28869336D01*
X15556779Y-28872397D01*
X15539370Y-28947499D01*
X15552713Y-29023094D01*
X15593468Y-29087866D01*
X15628756Y-29116265D01*
X15716561Y-29152204D01*
X15816552Y-29165591D01*
X15917932Y-29157294D01*
X16009902Y-29128182D01*
X16080867Y-29079925D01*
X16112969Y-29041400D01*
X16128281Y-28999968D01*
X16132413Y-28939733D01*
X16132429Y-28933860D01*
X16129564Y-28874027D01*
X16116248Y-28833513D01*
X16085400Y-28795506D01*
X16066382Y-28777066D01*
X16000335Y-28714776D01*
X16042826Y-28624054D01*
X16068896Y-28572190D01*
X16090765Y-28535268D01*
X16100124Y-28524183D01*
X16125789Y-28527781D01*
G37*
X16125789Y-28527781D02*
X16165255Y-28554432D01*
X16211528Y-28597453D01*
X16257616Y-28650161D01*
X16296524Y-28705872D01*
X16304114Y-28719126D01*
X16344178Y-28824046D01*
X16363238Y-28944788D01*
X16360033Y-29066730D01*
X16341493Y-29152572D01*
X16287284Y-29262540D01*
X16202930Y-29353645D01*
X16101249Y-29418378D01*
X16042917Y-29444270D01*
X15989976Y-29459545D01*
X15928803Y-29466834D01*
X15845776Y-29468772D01*
X15840534Y-29468776D01*
X15757801Y-29467255D01*
X15697821Y-29460852D01*
X15647127Y-29446806D01*
X15592247Y-29422354D01*
X15577301Y-29414807D01*
X15473219Y-29344396D01*
X15391783Y-29253868D01*
X15339076Y-29150323D01*
X15332640Y-29129130D01*
X15317714Y-29033170D01*
X15318204Y-28925138D01*
X15332754Y-28818550D01*
X15360007Y-28726924D01*
X15376349Y-28693669D01*
X15414177Y-28639115D01*
X15458834Y-28588988D01*
X15502907Y-28550081D01*
X15538981Y-28529184D01*
X15555937Y-28529165D01*
X15571341Y-28549131D01*
X15596670Y-28592001D01*
X15622770Y-28641358D01*
X15674729Y-28744357D01*
X15630347Y-28777776D01*
X15591634Y-28817814D01*
X15558273Y-28869336D01*
X15556779Y-28872397D01*
X15539370Y-28947499D01*
X15552713Y-29023094D01*
X15593468Y-29087866D01*
X15628756Y-29116265D01*
X15716561Y-29152204D01*
X15816552Y-29165591D01*
X15917932Y-29157294D01*
X16009902Y-29128182D01*
X16080867Y-29079925D01*
X16112969Y-29041400D01*
X16128281Y-28999968D01*
X16132413Y-28939733D01*
X16132429Y-28933860D01*
X16129564Y-28874027D01*
X16116248Y-28833513D01*
X16085400Y-28795506D01*
X16066382Y-28777066D01*
X16000335Y-28714776D01*
X16042826Y-28624054D01*
X16068896Y-28572190D01*
X16090765Y-28535268D01*
X16100124Y-28524183D01*
X16125789Y-28527781D01*
G36*
X16114286Y-25560286D02*
G01*
X16948857Y-25560286D01*
X16948857Y-26086429D01*
X16114286Y-26086429D01*
X16114286Y-26286000D01*
X15745169Y-26286000D01*
X15619306Y-26285741D01*
X15524727Y-26284688D01*
X15456434Y-26282423D01*
X15409429Y-26278533D01*
X15378711Y-26272602D01*
X15359283Y-26264213D01*
X15346144Y-26252952D01*
X15346026Y-26252822D01*
X15336071Y-26237759D01*
X15328549Y-26214354D01*
X15323132Y-26177890D01*
X15319495Y-26123652D01*
X15317312Y-26046921D01*
X15316256Y-25942983D01*
X15316000Y-25818689D01*
X15316335Y-25684775D01*
X15317542Y-25582561D01*
X15319925Y-25507467D01*
X15323789Y-25454911D01*
X15329437Y-25420315D01*
X15337174Y-25399096D01*
X15344510Y-25389225D01*
X15359294Y-25379373D01*
X15384400Y-25372020D01*
X15424604Y-25366826D01*
X15484681Y-25363449D01*
X15569407Y-25361547D01*
X15683559Y-25360780D01*
X15743653Y-25360715D01*
X16114286Y-25360715D01*
X16114286Y-25560286D01*
G37*
X16114286Y-25560286D02*
X16948857Y-25560286D01*
X16948857Y-26086429D01*
X16114286Y-26086429D01*
X16114286Y-26286000D01*
X15745169Y-26286000D01*
X15619306Y-26285741D01*
X15524727Y-26284688D01*
X15456434Y-26282423D01*
X15409429Y-26278533D01*
X15378711Y-26272602D01*
X15359283Y-26264213D01*
X15346144Y-26252952D01*
X15346026Y-26252822D01*
X15336071Y-26237759D01*
X15328549Y-26214354D01*
X15323132Y-26177890D01*
X15319495Y-26123652D01*
X15317312Y-26046921D01*
X15316256Y-25942983D01*
X15316000Y-25818689D01*
X15316335Y-25684775D01*
X15317542Y-25582561D01*
X15319925Y-25507467D01*
X15323789Y-25454911D01*
X15329437Y-25420315D01*
X15337174Y-25399096D01*
X15344510Y-25389225D01*
X15359294Y-25379373D01*
X15384400Y-25372020D01*
X15424604Y-25366826D01*
X15484681Y-25363449D01*
X15569407Y-25361547D01*
X15683559Y-25360780D01*
X15743653Y-25360715D01*
X16114286Y-25360715D01*
X16114286Y-25560286D01*
G36*
X15031491Y-25588425D02*
G01*
X15109067Y-25615287D01*
X15168836Y-25663794D01*
X15172939Y-25669155D01*
X15203028Y-25734456D01*
X15216477Y-25816263D01*
X15211044Y-25897774D01*
X15206075Y-25917466D01*
X15173222Y-25983336D01*
X15119437Y-26025596D01*
X15040536Y-26046664D01*
X14976515Y-26050143D01*
X14909692Y-26048325D01*
X14866382Y-26040276D01*
X14833889Y-26022101D01*
X14807939Y-25998444D01*
X14760675Y-25928279D01*
X14738890Y-25844821D01*
X14742794Y-25758829D01*
X14772599Y-25681066D01*
X14800972Y-25644833D01*
X14866539Y-25602485D01*
X14947013Y-25583920D01*
X15031491Y-25588425D01*
G37*
X15031491Y-25588425D02*
X15109067Y-25615287D01*
X15168836Y-25663794D01*
X15172939Y-25669155D01*
X15203028Y-25734456D01*
X15216477Y-25816263D01*
X15211044Y-25897774D01*
X15206075Y-25917466D01*
X15173222Y-25983336D01*
X15119437Y-26025596D01*
X15040536Y-26046664D01*
X14976515Y-26050143D01*
X14909692Y-26048325D01*
X14866382Y-26040276D01*
X14833889Y-26022101D01*
X14807939Y-25998444D01*
X14760675Y-25928279D01*
X14738890Y-25844821D01*
X14742794Y-25758829D01*
X14772599Y-25681066D01*
X14800972Y-25644833D01*
X14866539Y-25602485D01*
X14947013Y-25583920D01*
X15031491Y-25588425D01*
G36*
X16081556Y-17638329D02*
G01*
X16249875Y-17690170D01*
X16400658Y-17772173D01*
X16450424Y-17809218D01*
X16576147Y-17932895D01*
X16672440Y-18076019D01*
X16737961Y-18235060D01*
X16771365Y-18406488D01*
X16771307Y-18586772D01*
X16765412Y-18636285D01*
X16725754Y-18789537D01*
X16655164Y-18927840D01*
X16557294Y-19047239D01*
X16435792Y-19143777D01*
X16294308Y-19213496D01*
X16209536Y-19238920D01*
X16114286Y-19261442D01*
X16114286Y-18833594D01*
X16193810Y-18813569D01*
X16270170Y-18778628D01*
X16338618Y-18719733D01*
X16387550Y-18648027D01*
X16399773Y-18615775D01*
X16407324Y-18570393D01*
X16412232Y-18505399D01*
X16413337Y-18455570D01*
X16398945Y-18346939D01*
X16354985Y-18256344D01*
X16279288Y-18180268D01*
X16219772Y-18141286D01*
X16109879Y-18093757D01*
X15985405Y-18065108D01*
X15853910Y-18054767D01*
X15722952Y-18062163D01*
X15600091Y-18086724D01*
X15492885Y-18127879D01*
X15408895Y-18185054D01*
X15390429Y-18204013D01*
X15334796Y-18293517D01*
X15305851Y-18399675D01*
X15304474Y-18513630D01*
X15331548Y-18626528D01*
X15345194Y-18658538D01*
X15388748Y-18719282D01*
X15452185Y-18772353D01*
X15521629Y-18807274D01*
X15551479Y-18814320D01*
X15585802Y-18811873D01*
X15602275Y-18785904D01*
X15605908Y-18769769D01*
X15610749Y-18750016D01*
X15619016Y-18741582D01*
X15635068Y-18747334D01*
X15663262Y-18770141D01*
X15707959Y-18812869D01*
X15773516Y-18878386D01*
X15778265Y-18883162D01*
X15941172Y-19047000D01*
X15778265Y-19210880D01*
X15615357Y-19374761D01*
X15606286Y-19315202D01*
X15596169Y-19276850D01*
X15573703Y-19253536D01*
X15528267Y-19235478D01*
X15515571Y-19231661D01*
X15348692Y-19168012D01*
X15211130Y-19083387D01*
X15102090Y-18977054D01*
X15020777Y-18848281D01*
X14977555Y-18736686D01*
X14956237Y-18628679D01*
X14948781Y-18501236D01*
X14954908Y-18368337D01*
X14974343Y-18243964D01*
X14988392Y-18191156D01*
X15053606Y-18041637D01*
X15148163Y-17910543D01*
X15268748Y-17800483D01*
X15412048Y-17714063D01*
X15574749Y-17653891D01*
X15704132Y-17628003D01*
X15898657Y-17617367D01*
X16081556Y-17638329D01*
G37*
X16081556Y-17638329D02*
X16249875Y-17690170D01*
X16400658Y-17772173D01*
X16450424Y-17809218D01*
X16576147Y-17932895D01*
X16672440Y-18076019D01*
X16737961Y-18235060D01*
X16771365Y-18406488D01*
X16771307Y-18586772D01*
X16765412Y-18636285D01*
X16725754Y-18789537D01*
X16655164Y-18927840D01*
X16557294Y-19047239D01*
X16435792Y-19143777D01*
X16294308Y-19213496D01*
X16209536Y-19238920D01*
X16114286Y-19261442D01*
X16114286Y-18833594D01*
X16193810Y-18813569D01*
X16270170Y-18778628D01*
X16338618Y-18719733D01*
X16387550Y-18648027D01*
X16399773Y-18615775D01*
X16407324Y-18570393D01*
X16412232Y-18505399D01*
X16413337Y-18455570D01*
X16398945Y-18346939D01*
X16354985Y-18256344D01*
X16279288Y-18180268D01*
X16219772Y-18141286D01*
X16109879Y-18093757D01*
X15985405Y-18065108D01*
X15853910Y-18054767D01*
X15722952Y-18062163D01*
X15600091Y-18086724D01*
X15492885Y-18127879D01*
X15408895Y-18185054D01*
X15390429Y-18204013D01*
X15334796Y-18293517D01*
X15305851Y-18399675D01*
X15304474Y-18513630D01*
X15331548Y-18626528D01*
X15345194Y-18658538D01*
X15388748Y-18719282D01*
X15452185Y-18772353D01*
X15521629Y-18807274D01*
X15551479Y-18814320D01*
X15585802Y-18811873D01*
X15602275Y-18785904D01*
X15605908Y-18769769D01*
X15610749Y-18750016D01*
X15619016Y-18741582D01*
X15635068Y-18747334D01*
X15663262Y-18770141D01*
X15707959Y-18812869D01*
X15773516Y-18878386D01*
X15778265Y-18883162D01*
X15941172Y-19047000D01*
X15778265Y-19210880D01*
X15615357Y-19374761D01*
X15606286Y-19315202D01*
X15596169Y-19276850D01*
X15573703Y-19253536D01*
X15528267Y-19235478D01*
X15515571Y-19231661D01*
X15348692Y-19168012D01*
X15211130Y-19083387D01*
X15102090Y-18977054D01*
X15020777Y-18848281D01*
X14977555Y-18736686D01*
X14956237Y-18628679D01*
X14948781Y-18501236D01*
X14954908Y-18368337D01*
X14974343Y-18243964D01*
X14988392Y-18191156D01*
X15053606Y-18041637D01*
X15148163Y-17910543D01*
X15268748Y-17800483D01*
X15412048Y-17714063D01*
X15574749Y-17653891D01*
X15704132Y-17628003D01*
X15898657Y-17617367D01*
X16081556Y-17638329D01*
D17*
%TO.C,J11*%
X26988000Y-55378000D02*
X26988000Y-54318000D01*
X28048000Y-55378000D02*
X26988000Y-55378000D01*
X29048000Y-55378000D02*
X29048000Y-53258000D01*
X29048000Y-53258000D02*
X43108000Y-53258000D01*
X29048000Y-55378000D02*
X43108000Y-55378000D01*
X43108000Y-55378000D02*
X43108000Y-53258000D01*
%TO.C,BT2*%
X18020000Y-28000000D02*
X18020000Y-43800000D01*
X6820000Y-43800000D02*
X6820000Y-28000000D01*
X20020000Y-26000000D02*
X20020000Y-8000000D01*
X4820000Y-26000000D02*
X4820000Y-8000000D01*
X4820000Y-63800000D02*
X4820000Y-45800000D01*
X4820000Y-8000000D02*
X20020000Y-8000000D01*
X20020000Y-63800000D02*
X20020000Y-45800000D01*
X4820000Y-63800000D02*
X20020000Y-63800000D01*
X3855000Y-64520000D02*
X3855000Y-7280000D01*
X20985000Y-64520000D02*
X3855000Y-64520000D01*
X20985000Y-7280000D02*
X20985000Y-64520000D01*
X3855000Y-7280000D02*
X20985000Y-7280000D01*
X11360000Y-14590000D02*
X13360000Y-14590000D01*
X8360000Y-11590000D02*
X16360000Y-11590000D01*
X15360000Y-12590000D02*
X9360000Y-12590000D01*
X10360000Y-13590000D02*
X14360000Y-13590000D01*
X4820000Y-45800000D02*
G75*
G03*
X6820000Y-43800000I0J2000000D01*
G01*
X6820000Y-28000000D02*
G75*
G03*
X4820000Y-26000000I-2000000J0D01*
G01*
X20020000Y-26000000D02*
G75*
G03*
X18020000Y-28000000I0J-2000000D01*
G01*
X18020000Y-43800000D02*
G75*
G03*
X20020000Y-45800000I2000000J0D01*
G01*
%TD*%
%LPC*%
D20*
%TO.C,Module1*%
X42018000Y-50949000D03*
X42018000Y-36949000D03*
X40748000Y-50949000D03*
X40748000Y-36949000D03*
X39478000Y-50949000D03*
X39478000Y-36949000D03*
X38208000Y-50949000D03*
X38208000Y-36949000D03*
X36938000Y-50949000D03*
X36938000Y-36949000D03*
X35668000Y-50949000D03*
X35668000Y-36949000D03*
X34398000Y-50949000D03*
X34398000Y-36949000D03*
X33128000Y-50949000D03*
X33128000Y-36949000D03*
X27558000Y-50949000D03*
X27558000Y-36949000D03*
X26288000Y-50949000D03*
X26288000Y-36949000D03*
X25018000Y-50949000D03*
X25018000Y-36949000D03*
%TD*%
D21*
%TO.C,AE1*%
X22224800Y-38112800D03*
%TD*%
D22*
%TO.C,D1*%
X46050000Y-4280000D03*
D23*
X46050000Y-6820000D03*
%TD*%
D24*
%TO.C,J1*%
X47320000Y-36665000D03*
D25*
X47320000Y-39205000D03*
%TD*%
D24*
%TO.C,J2*%
X52400000Y-36665000D03*
D25*
X52400000Y-39205000D03*
%TD*%
D24*
%TO.C,J7*%
X35890000Y-71590000D03*
D25*
X35890000Y-69050000D03*
X35890000Y-66510000D03*
X35890000Y-63970000D03*
%TD*%
D26*
%TO.C,BT1*%
X70485000Y-12610000D03*
X58495000Y-59090000D03*
D27*
X64490000Y-61850000D03*
D28*
X64490000Y-9860000D03*
%TD*%
D24*
%TO.C,J3*%
X47320000Y-27140000D03*
D25*
X47320000Y-29680000D03*
%TD*%
D24*
%TO.C,J4*%
X52400000Y-27140000D03*
D25*
X52400000Y-29680000D03*
%TD*%
D24*
%TO.C,J5*%
X57480000Y-67780000D03*
D25*
X60020000Y-67780000D03*
X62560000Y-67780000D03*
X65100000Y-67780000D03*
X67640000Y-67780000D03*
X70180000Y-67780000D03*
%TD*%
D24*
%TO.C,J6*%
X25730000Y-71590000D03*
D25*
X25730000Y-69050000D03*
X25730000Y-66510000D03*
X25730000Y-63970000D03*
%TD*%
D29*
%TO.C,C1*%
X47447000Y-53403600D03*
D30*
X47447000Y-51903600D03*
%TD*%
D31*
%TO.C,R4*%
X51130000Y-45555000D03*
D32*
X51130000Y-48095000D03*
%TD*%
D31*
%TO.C,R5*%
X47320000Y-45555000D03*
D32*
X47320000Y-48095000D03*
%TD*%
D31*
%TO.C,R1*%
X46050000Y-9995000D03*
D32*
X46050000Y-12535000D03*
%TD*%
D31*
%TO.C,R3*%
X19380000Y-67780000D03*
D32*
X16840000Y-67780000D03*
%TD*%
D33*
%TO.C,Q1*%
X7950000Y-67780000D03*
D34*
X10240000Y-67780000D03*
X12530000Y-67780000D03*
%TD*%
D24*
%TO.C,J9*%
X51130000Y-71590000D03*
D25*
X51130000Y-69050000D03*
X51130000Y-66510000D03*
X51130000Y-63970000D03*
%TD*%
D24*
%TO.C,J10*%
X65989000Y-4343500D03*
D25*
X68529000Y-4343500D03*
X71069000Y-4343500D03*
%TD*%
D23*
%TO.C,Module2*%
X38430000Y-9360000D03*
X38430000Y-11900000D03*
X35890000Y-33490000D03*
X38430000Y-33490000D03*
X40970000Y-33490000D03*
X40970000Y-30950000D03*
X40970000Y-28410000D03*
X40970000Y-25870000D03*
X40970000Y-23330000D03*
X40970000Y-20790000D03*
X40970000Y-18250000D03*
X40970000Y-15710000D03*
X40970000Y-13170000D03*
X40970000Y-10630000D03*
X40970000Y-8090000D03*
X40970000Y-5550000D03*
X25730000Y-5550000D03*
X25730000Y-8090000D03*
X25730000Y-10630000D03*
X25730000Y-13170000D03*
X25730000Y-15710000D03*
X25730000Y-18250000D03*
X25730000Y-20790000D03*
X25730000Y-23330000D03*
X25730000Y-25870000D03*
X25730000Y-28410000D03*
X25730000Y-30950000D03*
X25730000Y-33490000D03*
X38430000Y-16980000D03*
X38430000Y-14440000D03*
X33350000Y-33490000D03*
X30810000Y-33490000D03*
X28270000Y-33490000D03*
X27000000Y-3010000D03*
X29540000Y-3010000D03*
X32080000Y-3010000D03*
X34620000Y-3010000D03*
X37160000Y-3010000D03*
X39700000Y-3010000D03*
%TD*%
D35*
%TO.C,JP2*%
X51257000Y-10600000D03*
X51257000Y-11900000D03*
%TD*%
D27*
%TO.C,SW1*%
X46685000Y-16345000D03*
X53185000Y-16345000D03*
X46685000Y-20845000D03*
X53185000Y-20845000D03*
%TD*%
D24*
%TO.C,J8*%
X40970000Y-71590000D03*
D25*
X40970000Y-69050000D03*
X40970000Y-66510000D03*
X40970000Y-63970000D03*
%TD*%
D36*
%TO.C,H2*%
X61000000Y-4250000D03*
D37*
X62800000Y-4250000D03*
X62272800Y-5522800D03*
X61000000Y-6050000D03*
X59727200Y-5522800D03*
X59200000Y-4250000D03*
X59727200Y-2977200D03*
X61000000Y-2450000D03*
X62272800Y-2977200D03*
%TD*%
D36*
%TO.C,H4*%
X61000000Y-72750000D03*
D37*
X62800000Y-72750000D03*
X62272800Y-74022800D03*
X61000000Y-74550000D03*
X59727200Y-74022800D03*
X59200000Y-72750000D03*
X59727200Y-71477200D03*
X61000000Y-70950000D03*
X62272800Y-71477200D03*
%TD*%
D36*
%TO.C,H1*%
X16000000Y-4250000D03*
D37*
X17800000Y-4250000D03*
X17272800Y-5522800D03*
X16000000Y-6050000D03*
X14727200Y-5522800D03*
X14200000Y-4250000D03*
X14727200Y-2977200D03*
X16000000Y-2450000D03*
X17272800Y-2977200D03*
%TD*%
D36*
%TO.C,H3*%
X16000000Y-72750000D03*
D37*
X17800000Y-72750000D03*
X17272800Y-74022800D03*
X16000000Y-74550000D03*
X14727200Y-74022800D03*
X14200000Y-72750000D03*
X14727200Y-71477200D03*
X16000000Y-70950000D03*
X17272800Y-71477200D03*
%TD*%
D38*
%TO.C,J11*%
X28048000Y-54318000D03*
D39*
X30048000Y-54318000D03*
X32048000Y-54318000D03*
X34048000Y-54318000D03*
X36048000Y-54318000D03*
X38048000Y-54318000D03*
X40048000Y-54318000D03*
X42048000Y-54318000D03*
%TD*%
D26*
%TO.C,BT2*%
X6425000Y-59150000D03*
X18415000Y-12670000D03*
D27*
X12420000Y-9910000D03*
D28*
X12420000Y-61900000D03*
%TD*%
M02*
