%TF.GenerationSoftware,KiCad,Pcbnew,6.0.11-2627ca5db0~126~ubuntu22.04.1*%
%TF.CreationDate,2023-07-24T16:43:15+02:00*%
%TF.ProjectId,HB-UNI-SEN-BATT_E07-900M10S_FUEL4EP,48422d55-4e49-42d5-9345-4e2d42415454,1.0*%
%TF.SameCoordinates,Original*%
%TF.FileFunction,Soldermask,Bot*%
%TF.FilePolarity,Negative*%
%FSLAX46Y46*%
G04 Gerber Fmt 4.6, Leading zero omitted, Abs format (unit mm)*
G04 Created by KiCad (PCBNEW 6.0.11-2627ca5db0~126~ubuntu22.04.1) date 2023-07-24 16:43:15*
%MOMM*%
%LPD*%
G01*
G04 APERTURE LIST*
G04 Aperture macros list*
%AMRoundRect*
0 Rectangle with rounded corners*
0 $1 Rounding radius*
0 $2 $3 $4 $5 $6 $7 $8 $9 X,Y pos of 4 corners*
0 Add a 4 corners polygon primitive as box body*
4,1,4,$2,$3,$4,$5,$6,$7,$8,$9,$2,$3,0*
0 Add four circle primitives for the rounded corners*
1,1,$1+$1,$2,$3*
1,1,$1+$1,$4,$5*
1,1,$1+$1,$6,$7*
1,1,$1+$1,$8,$9*
0 Add four rect primitives between the rounded corners*
20,1,$1+$1,$2,$3,$4,$5,0*
20,1,$1+$1,$4,$5,$6,$7,0*
20,1,$1+$1,$6,$7,$8,$9,0*
20,1,$1+$1,$8,$9,$2,$3,0*%
G04 Aperture macros list end*
%ADD10R,1.800000X1.800000*%
%ADD11C,1.800000*%
%ADD12R,1.700000X1.700000*%
%ADD13O,1.700000X1.700000*%
%ADD14C,2.640000*%
%ADD15R,2.000000X2.000000*%
%ADD16C,2.000000*%
%ADD17R,1.200000X1.200000*%
%ADD18C,1.200000*%
%ADD19C,1.600000*%
%ADD20O,1.600000X1.600000*%
%ADD21R,1.717500X1.800000*%
%ADD22O,1.717500X1.800000*%
%ADD23R,1.000000X1.500000*%
%ADD24C,0.700000*%
%ADD25C,4.400000*%
%ADD26R,1.350000X1.350000*%
%ADD27O,1.350000X1.350000*%
%ADD28RoundRect,0.250000X-0.550000X-0.550000X0.550000X-0.550000X0.550000X0.550000X-0.550000X0.550000X0*%
G04 APERTURE END LIST*
D10*
%TO.C,D1*%
X46050000Y-4280000D03*
D11*
X46050000Y-6820000D03*
%TD*%
D12*
%TO.C,J1*%
X47320000Y-36665000D03*
D13*
X47320000Y-39205000D03*
%TD*%
D12*
%TO.C,J2*%
X52400000Y-36665000D03*
D13*
X52400000Y-39205000D03*
%TD*%
D12*
%TO.C,J7*%
X35890000Y-71590000D03*
D13*
X35890000Y-69050000D03*
X35890000Y-66510000D03*
X35890000Y-63970000D03*
%TD*%
D14*
%TO.C,BT1*%
X58495000Y-59090000D03*
X70485000Y-12610000D03*
D15*
X64490000Y-9860000D03*
D16*
X64490000Y-61850000D03*
%TD*%
D12*
%TO.C,J3*%
X47320000Y-27140000D03*
D13*
X47320000Y-29680000D03*
%TD*%
D12*
%TO.C,J4*%
X52400000Y-27140000D03*
D13*
X52400000Y-29680000D03*
%TD*%
D12*
%TO.C,J5*%
X57480000Y-67780000D03*
D13*
X60020000Y-67780000D03*
X62560000Y-67780000D03*
X65100000Y-67780000D03*
X67640000Y-67780000D03*
X70180000Y-67780000D03*
%TD*%
D12*
%TO.C,J6*%
X25730000Y-71590000D03*
D13*
X25730000Y-69050000D03*
X25730000Y-66510000D03*
X25730000Y-63970000D03*
%TD*%
D17*
%TO.C,C1*%
X47447000Y-53403600D03*
D18*
X47447000Y-51903600D03*
%TD*%
D19*
%TO.C,R4*%
X51130000Y-45555000D03*
D20*
X51130000Y-48095000D03*
%TD*%
D19*
%TO.C,R5*%
X47320000Y-45555000D03*
D20*
X47320000Y-48095000D03*
%TD*%
D19*
%TO.C,R1*%
X46050000Y-9995000D03*
D20*
X46050000Y-12535000D03*
%TD*%
D19*
%TO.C,R3*%
X19380000Y-67780000D03*
D20*
X16840000Y-67780000D03*
%TD*%
D21*
%TO.C,Q1*%
X7950000Y-67780000D03*
D22*
X10240000Y-67780000D03*
X12530000Y-67780000D03*
%TD*%
D12*
%TO.C,J9*%
X51130000Y-71590000D03*
D13*
X51130000Y-69050000D03*
X51130000Y-66510000D03*
X51130000Y-63970000D03*
%TD*%
D12*
%TO.C,J10*%
X65989000Y-4343500D03*
D13*
X68529000Y-4343500D03*
X71069000Y-4343500D03*
%TD*%
D23*
%TO.C,JP1*%
X10500000Y-72225000D03*
X9200000Y-72225000D03*
%TD*%
D11*
%TO.C,Module2*%
X40970000Y-5550000D03*
X28270000Y-33490000D03*
X25730000Y-5550000D03*
X27000000Y-3010000D03*
X38430000Y-9360000D03*
X40970000Y-8090000D03*
X30810000Y-33490000D03*
X25730000Y-8090000D03*
X29540000Y-3010000D03*
X38430000Y-11900000D03*
X40970000Y-10630000D03*
X33350000Y-33490000D03*
X25730000Y-10630000D03*
X32080000Y-3010000D03*
X38430000Y-14440000D03*
X40970000Y-13170000D03*
X35890000Y-33490000D03*
X25730000Y-13170000D03*
X34620000Y-3010000D03*
X38430000Y-16980000D03*
X40970000Y-15710000D03*
X38430000Y-33490000D03*
X25730000Y-15710000D03*
X37160000Y-3010000D03*
X40970000Y-18250000D03*
X25730000Y-18250000D03*
X39700000Y-3010000D03*
X40970000Y-20790000D03*
X25730000Y-20790000D03*
X40970000Y-23330000D03*
X25730000Y-23330000D03*
X40970000Y-25870000D03*
X25730000Y-25870000D03*
X40970000Y-28410000D03*
X25730000Y-28410000D03*
X40970000Y-30950000D03*
X25730000Y-30950000D03*
X40970000Y-33490000D03*
X25730000Y-33490000D03*
%TD*%
D16*
%TO.C,SW1*%
X53185000Y-16345000D03*
X46685000Y-16345000D03*
X53185000Y-20845000D03*
X46685000Y-20845000D03*
%TD*%
D12*
%TO.C,J8*%
X40970000Y-71590000D03*
D13*
X40970000Y-69050000D03*
X40970000Y-66510000D03*
X40970000Y-63970000D03*
%TD*%
D24*
%TO.C,H2*%
X61000000Y-6050000D03*
X59200000Y-4250000D03*
X62272800Y-2977200D03*
X59727200Y-5522800D03*
X62272800Y-5522800D03*
D25*
X61000000Y-4250000D03*
D24*
X62800000Y-4250000D03*
X59727200Y-2977200D03*
X61000000Y-2450000D03*
%TD*%
%TO.C,H4*%
X62800000Y-72750000D03*
X61000000Y-74550000D03*
X59727200Y-71477200D03*
X59200000Y-72750000D03*
X62272800Y-74022800D03*
X59727200Y-74022800D03*
X61000000Y-70950000D03*
X62272800Y-71477200D03*
D25*
X61000000Y-72750000D03*
%TD*%
D24*
%TO.C,H1*%
X14727200Y-2977200D03*
X14200000Y-4250000D03*
X16000000Y-2450000D03*
X17272800Y-5522800D03*
X17272800Y-2977200D03*
D25*
X16000000Y-4250000D03*
D24*
X17800000Y-4250000D03*
X16000000Y-6050000D03*
X14727200Y-5522800D03*
%TD*%
%TO.C,H3*%
X14727200Y-74022800D03*
X17272800Y-74022800D03*
X14727200Y-71477200D03*
X17272800Y-71477200D03*
X14200000Y-72750000D03*
X17800000Y-72750000D03*
D25*
X16000000Y-72750000D03*
D24*
X16000000Y-70950000D03*
X16000000Y-74550000D03*
%TD*%
D26*
%TO.C,J11*%
X28048000Y-54318000D03*
D27*
X30048000Y-54318000D03*
X32048000Y-54318000D03*
X34048000Y-54318000D03*
X36048000Y-54318000D03*
X38048000Y-54318000D03*
X40048000Y-54318000D03*
X42048000Y-54318000D03*
%TD*%
D14*
%TO.C,BT2*%
X6425000Y-59150000D03*
X18415000Y-12670000D03*
D15*
X12420000Y-61900000D03*
D16*
X12420000Y-9910000D03*
%TD*%
D28*
%TO.C,AE1*%
X22224800Y-38112800D03*
%TD*%
M02*
