%TF.GenerationSoftware,KiCad,Pcbnew,8.0.9-8.0.9-0~ubuntu22.04.1*%
%TF.CreationDate,2025-03-07T09:54:06+01:00*%
%TF.ProjectId,HB-UNI-SEN-BATT_E07-900M10S_FUEL4EP,48422d55-4e49-42d5-9345-4e2d42415454,1.2*%
%TF.SameCoordinates,Original*%
%TF.FileFunction,Copper,L1,Top*%
%TF.FilePolarity,Positive*%
%FSLAX46Y46*%
G04 Gerber Fmt 4.6, Leading zero omitted, Abs format (unit mm)*
G04 Created by KiCad (PCBNEW 8.0.9-8.0.9-0~ubuntu22.04.1) date 2025-03-07 09:54:06*
%MOMM*%
%LPD*%
G01*
G04 APERTURE LIST*
G04 Aperture macros list*
%AMRoundRect*
0 Rectangle with rounded corners*
0 $1 Rounding radius*
0 $2 $3 $4 $5 $6 $7 $8 $9 X,Y pos of 4 corners*
0 Add a 4 corners polygon primitive as box body*
4,1,4,$2,$3,$4,$5,$6,$7,$8,$9,$2,$3,0*
0 Add four circle primitives for the rounded corners*
1,1,$1+$1,$2,$3*
1,1,$1+$1,$4,$5*
1,1,$1+$1,$6,$7*
1,1,$1+$1,$8,$9*
0 Add four rect primitives between the rounded corners*
20,1,$1+$1,$2,$3,$4,$5,0*
20,1,$1+$1,$4,$5,$6,$7,0*
20,1,$1+$1,$6,$7,$8,$9,0*
20,1,$1+$1,$8,$9,$2,$3,0*%
G04 Aperture macros list end*
%TA.AperFunction,ComponentPad*%
%ADD10R,1.800000X1.800000*%
%TD*%
%TA.AperFunction,ComponentPad*%
%ADD11C,1.800000*%
%TD*%
%TA.AperFunction,ComponentPad*%
%ADD12R,1.700000X1.700000*%
%TD*%
%TA.AperFunction,ComponentPad*%
%ADD13O,1.700000X1.700000*%
%TD*%
%TA.AperFunction,ComponentPad*%
%ADD14C,2.000000*%
%TD*%
%TA.AperFunction,ComponentPad*%
%ADD15R,2.000000X2.000000*%
%TD*%
%TA.AperFunction,ComponentPad*%
%ADD16R,1.200000X1.200000*%
%TD*%
%TA.AperFunction,ComponentPad*%
%ADD17C,1.200000*%
%TD*%
%TA.AperFunction,ComponentPad*%
%ADD18C,1.600000*%
%TD*%
%TA.AperFunction,ComponentPad*%
%ADD19O,1.600000X1.600000*%
%TD*%
%TA.AperFunction,ComponentPad*%
%ADD20R,1.717500X1.800000*%
%TD*%
%TA.AperFunction,ComponentPad*%
%ADD21O,1.717500X1.800000*%
%TD*%
%TA.AperFunction,SMDPad,CuDef*%
%ADD22R,0.800000X1.270000*%
%TD*%
%TA.AperFunction,SMDPad,CuDef*%
%ADD23R,1.500000X1.000000*%
%TD*%
%TA.AperFunction,ComponentPad*%
%ADD24C,4.400000*%
%TD*%
%TA.AperFunction,ComponentPad*%
%ADD25C,0.700000*%
%TD*%
%TA.AperFunction,ComponentPad*%
%ADD26R,1.350000X1.350000*%
%TD*%
%TA.AperFunction,ComponentPad*%
%ADD27O,1.350000X1.350000*%
%TD*%
%TA.AperFunction,SMDPad,CuDef*%
%ADD28R,1.000000X1.500000*%
%TD*%
%TA.AperFunction,ComponentPad*%
%ADD29RoundRect,0.250000X-0.550000X-0.550000X0.550000X-0.550000X0.550000X0.550000X-0.550000X0.550000X0*%
%TD*%
%TA.AperFunction,ViaPad*%
%ADD30C,0.600000*%
%TD*%
%TA.AperFunction,ViaPad*%
%ADD31C,1.000000*%
%TD*%
%TA.AperFunction,Conductor*%
%ADD32C,0.600000*%
%TD*%
%TA.AperFunction,Conductor*%
%ADD33C,1.500000*%
%TD*%
%TA.AperFunction,Conductor*%
%ADD34C,0.800000*%
%TD*%
%TA.AperFunction,Conductor*%
%ADD35C,0.250000*%
%TD*%
%TA.AperFunction,Conductor*%
%ADD36C,0.500000*%
%TD*%
%TA.AperFunction,Conductor*%
%ADD37C,1.000000*%
%TD*%
G04 APERTURE END LIST*
D10*
%TO.P,D1,1,K*%
%TO.N,GND*%
X45050000Y71720000D03*
D11*
%TO.P,D1,2,A*%
%TO.N,Net-(D1-A)*%
X45050000Y69180000D03*
%TD*%
D12*
%TO.P,J1,1,Pin_1*%
%TO.N,/A0*%
X46320000Y39335000D03*
D13*
%TO.P,J1,2,Pin_2*%
%TO.N,GND*%
X46320000Y36795000D03*
%TD*%
D12*
%TO.P,J2,1,Pin_1*%
%TO.N,/A1*%
X51400000Y39335000D03*
D13*
%TO.P,J2,2,Pin_2*%
%TO.N,GND*%
X51400000Y36795000D03*
%TD*%
D12*
%TO.P,J7,1,Pin_1*%
%TO.N,VCC*%
X34890000Y4410000D03*
D13*
%TO.P,J7,2,Pin_2*%
%TO.N,GND*%
X34890000Y6950000D03*
%TO.P,J7,3,Pin_3*%
%TO.N,/SCL*%
X34890000Y9490000D03*
%TO.P,J7,4,Pin_4*%
%TO.N,/SDA*%
X34890000Y12030000D03*
%TD*%
D14*
%TO.P,BT1,2,-*%
%TO.N,/conBAT*%
X63490000Y14150000D03*
D15*
%TO.P,BT1,1,+*%
%TO.N,/plusBAT*%
X63490000Y66140000D03*
%TD*%
D12*
%TO.P,J3,1,Pin_1*%
%TO.N,/A2*%
X46320000Y48860000D03*
D13*
%TO.P,J3,2,Pin_2*%
%TO.N,GND*%
X46320000Y46320000D03*
%TD*%
D12*
%TO.P,J4,1,Pin_1*%
%TO.N,/A3*%
X51400000Y48860000D03*
D13*
%TO.P,J4,2,Pin_2*%
%TO.N,GND*%
X51400000Y46320000D03*
%TD*%
D12*
%TO.P,J5,1,Pin_1*%
%TO.N,VCC*%
X56480000Y8220000D03*
D13*
%TO.P,J5,2,Pin_2*%
%TO.N,/minusBAT*%
X59020000Y8220000D03*
%TO.P,J5,3,Pin_3*%
%TO.N,/MOSI*%
X61560000Y8220000D03*
%TO.P,J5,4,Pin_4*%
%TO.N,/SCK*%
X64100000Y8220000D03*
%TO.P,J5,5,Pin_5*%
%TO.N,/MISO*%
X66640000Y8220000D03*
%TO.P,J5,6,Pin_6*%
%TO.N,/RSET*%
X69180000Y8220000D03*
%TD*%
D12*
%TO.P,J6,1,Pin_1*%
%TO.N,VCC*%
X24730000Y4410000D03*
D13*
%TO.P,J6,2,Pin_2*%
%TO.N,GND*%
X24730000Y6950000D03*
%TO.P,J6,3,Pin_3*%
%TO.N,/SCL*%
X24730000Y9490000D03*
%TO.P,J6,4,Pin_4*%
%TO.N,/SDA*%
X24730000Y12030000D03*
%TD*%
D16*
%TO.P,C1,1*%
%TO.N,VCC*%
X46447000Y22596400D03*
D17*
%TO.P,C1,2*%
%TO.N,GND*%
X46447000Y24096400D03*
%TD*%
D18*
%TO.P,R4,1*%
%TO.N,VCC*%
X50130000Y30445000D03*
D19*
%TO.P,R4,2*%
%TO.N,/SCL*%
X50130000Y27905000D03*
%TD*%
D18*
%TO.P,R5,1*%
%TO.N,VCC*%
X46320000Y30445000D03*
D19*
%TO.P,R5,2*%
%TO.N,/SDA*%
X46320000Y27905000D03*
%TD*%
D18*
%TO.P,R1,1*%
%TO.N,Net-(D1-A)*%
X45050000Y66005000D03*
D19*
%TO.P,R1,2*%
%TO.N,Net-(Module2-PD4)*%
X45050000Y63465000D03*
%TD*%
D20*
%TO.P,Q1,1,G*%
%TO.N,Net-(Q1-G)*%
X6950000Y8220000D03*
D21*
%TO.P,Q1,2,D*%
%TO.N,/minusBAT*%
X9240000Y8220000D03*
%TO.P,Q1,3,S*%
%TO.N,GND*%
X11530000Y8220000D03*
%TD*%
D12*
%TO.P,J9,1,Pin_1*%
%TO.N,VCC*%
X50130000Y4410000D03*
D13*
%TO.P,J9,2,Pin_2*%
%TO.N,GND*%
X50130000Y6950000D03*
%TO.P,J9,3,Pin_3*%
%TO.N,/SCL*%
X50130000Y9490000D03*
%TO.P,J9,4,Pin_4*%
%TO.N,/SDA*%
X50130000Y12030000D03*
%TD*%
D12*
%TO.P,J10,1,Pin_1*%
%TO.N,VCC*%
X64989000Y71656500D03*
D13*
%TO.P,J10,2,Pin_2*%
%TO.N,/plusBAT*%
X67529000Y71656500D03*
%TO.P,J10,3,Pin_3*%
%TO.N,/minusBAT*%
X70069000Y71656500D03*
%TD*%
D11*
%TO.P,Module2,1A,V_ACCU*%
%TO.N,/V_ACCU*%
X39970000Y70450000D03*
%TO.P,Module2,1B,PC2/TCK*%
%TO.N,unconnected-(Module2-PC2{slash}TCK-Pad1B)*%
X27270000Y42510000D03*
%TO.P,Module2,1C,PD1/TXD0*%
%TO.N,unconnected-(Module2-PD1{slash}TXD0-Pad1C)*%
X24730000Y70450000D03*
%TO.P,Module2,1D,DTR*%
%TO.N,unconnected-(Module2-DTR-Pad1D)*%
X26000000Y72990000D03*
%TO.P,Module2,1E,PC0/SCL*%
%TO.N,/SCL*%
X37430000Y61560000D03*
%TO.P,Module2,2A,GND*%
%TO.N,GND*%
X39970000Y67910000D03*
%TO.P,Module2,2B,PC4/TD0*%
%TO.N,unconnected-(Module2-PC4{slash}TD0-Pad2B)*%
X29810000Y42510000D03*
%TO.P,Module2,2C,PD0/RXD0*%
%TO.N,unconnected-(Module2-PD0{slash}RXD0-Pad2C)*%
X24730000Y67910000D03*
%TO.P,Module2,2D,PD1/TXD0*%
%TO.N,unconnected-(Module2-PD1{slash}TXD0-Pad2D)*%
X28540000Y72990000D03*
%TO.P,Module2,2E,PC1/SDA*%
%TO.N,/SDA*%
X37430000Y59020000D03*
%TO.P,Module2,3A,RSTB*%
%TO.N,/RSET*%
X39970000Y65370000D03*
%TO.P,Module2,3B,PC5/TDI*%
%TO.N,unconnected-(Module2-PC5{slash}TDI-Pad3B)*%
X32350000Y42510000D03*
%TO.P,Module2,3C,RSTB*%
%TO.N,unconnected-(Module2-RSTB-Pad3C)*%
X24730000Y65370000D03*
%TO.P,Module2,3D,PD0/RXD0*%
%TO.N,unconnected-(Module2-PD0{slash}RXD0-Pad3D)*%
X31080000Y72990000D03*
%TO.P,Module2,4A,VCC*%
%TO.N,VCC*%
X39970000Y62830000D03*
%TO.P,Module2,4B,PB1/T1*%
%TO.N,unconnected-(Module2-PB1{slash}T1-Pad4B)*%
X34890000Y42510000D03*
%TO.P,Module2,4C,GND*%
%TO.N,GND*%
X24730000Y62830000D03*
%TO.P,Module2,4D,VCC*%
%TO.N,unconnected-(Module2-VCC-Pad4D)*%
X33620000Y72990000D03*
%TO.P,Module2,5A,PB2/A3*%
%TO.N,/A3*%
X39970000Y60290000D03*
%TO.P,Module2,5B,PB0/T0*%
%TO.N,unconnected-(Module2-PB0{slash}T0-Pad5B)*%
X37430000Y42510000D03*
%TO.P,Module2,5C,PD2*%
%TO.N,/D2*%
X24730000Y60290000D03*
%TO.P,Module2,5D,GND*%
%TO.N,unconnected-(Module2-GND-Pad5D)*%
X36160000Y72990000D03*
%TO.P,Module2,6A,PB3/A2*%
%TO.N,/A2*%
X39970000Y57750000D03*
%TO.P,Module2,6C,PD3*%
%TO.N,unconnected-(Module2-PD3-Pad6C)*%
X24730000Y57750000D03*
%TO.P,Module2,6D,GND*%
%TO.N,unconnected-(Module2-GND-Pad6D)*%
X38700000Y72990000D03*
%TO.P,Module2,7A,PA1/A1*%
%TO.N,/A1*%
X39970000Y55210000D03*
%TO.P,Module2,7C,PD4*%
%TO.N,Net-(Module2-PD4)*%
X24730000Y55210000D03*
%TO.P,Module2,8A,PA0/A0*%
%TO.N,/A0*%
X39970000Y52670000D03*
%TO.P,Module2,8C,PD5*%
%TO.N,/D5*%
X24730000Y52670000D03*
%TO.P,Module2,9A,PB7/SCK*%
%TO.N,/SCK*%
X39970000Y50130000D03*
%TO.P,Module2,9C,PD6*%
%TO.N,/D6*%
X24730000Y50130000D03*
%TO.P,Module2,10A,PB6/MISO*%
%TO.N,/MISO*%
X39970000Y47590000D03*
%TO.P,Module2,10C,PD7*%
%TO.N,/D7*%
X24730000Y47590000D03*
%TO.P,Module2,11A,PB5/MOSI*%
%TO.N,/MOSI*%
X39970000Y45050000D03*
%TO.P,Module2,11C,PC6/TOSC*%
%TO.N,/CONFIG*%
X24730000Y45050000D03*
%TO.P,Module2,12A,PB4/~{SS}*%
%TO.N,/SS*%
X39970000Y42510000D03*
%TO.P,Module2,12C,PC3/TMS*%
%TO.N,unconnected-(Module2-PC3{slash}TMS-Pad12C)*%
X24730000Y42510000D03*
%TD*%
D22*
%TO.P,Module1,1A,GND*%
%TO.N,GND*%
X41018000Y25051000D03*
%TO.P,Module1,1C,GND*%
X41018000Y39051000D03*
%TO.P,Module1,2A,NC*%
%TO.N,unconnected-(Module1-NC-Pad2A)*%
X39748000Y25051000D03*
%TO.P,Module1,2C,NC*%
%TO.N,unconnected-(Module1-NC-Pad2C)*%
X39748000Y39051000D03*
%TO.P,Module1,3A,VCC*%
%TO.N,VCC*%
X38478000Y25051000D03*
%TO.P,Module1,3C,GD02*%
%TO.N,unconnected-(Module1-GD02-Pad3C)*%
X38478000Y39051000D03*
%TO.P,Module1,4A,NC*%
%TO.N,unconnected-(Module1-NC-Pad4A)*%
X37208000Y25051000D03*
%TO.P,Module1,4C,GD00*%
%TO.N,/D2*%
X37208000Y39051000D03*
%TO.P,Module1,5A,NC*%
%TO.N,unconnected-(Module1-NC-Pad5A)*%
X35938000Y25051000D03*
%TO.P,Module1,5C,MISO/GD01*%
%TO.N,/MISO*%
X35938000Y39051000D03*
%TO.P,Module1,6A,NC*%
%TO.N,unconnected-(Module1-NC-Pad6A)*%
X34668000Y25051000D03*
%TO.P,Module1,6C,MOSI*%
%TO.N,/MOSI*%
X34668000Y39051000D03*
%TO.P,Module1,7A,GND*%
%TO.N,GND*%
X33398000Y25051000D03*
%TO.P,Module1,7C,SCK*%
%TO.N,/SCK*%
X33398000Y39051000D03*
%TO.P,Module1,8A,GND*%
%TO.N,GND*%
X32128000Y25051000D03*
%TO.P,Module1,8C,~{CSN}*%
%TO.N,/SS*%
X32128000Y39051000D03*
%TO.P,Module1,9A,GND*%
%TO.N,GND*%
X26558000Y25051000D03*
%TO.P,Module1,9C,GND*%
X26558000Y39051000D03*
%TO.P,Module1,10A,GND*%
X25288000Y25051000D03*
%TO.P,Module1,10C,ANT*%
%TO.N,Net-(AE1-A)*%
X25288000Y39051000D03*
%TO.P,Module1,11A,GND*%
%TO.N,GND*%
X24018000Y25051000D03*
%TO.P,Module1,11C,GND*%
X24018000Y39051000D03*
%TD*%
D23*
%TO.P,JP2,1,A*%
%TO.N,/plusBAT*%
X50257000Y65400000D03*
%TO.P,JP2,2,B*%
%TO.N,VCC*%
X50257000Y64100000D03*
%TD*%
D14*
%TO.P,SW1,1*%
%TO.N,/CONFIG*%
X45685000Y59655000D03*
X52185000Y59655000D03*
%TO.P,SW1,2*%
%TO.N,GND*%
X45685000Y55155000D03*
X52185000Y55155000D03*
%TD*%
D12*
%TO.P,J8,1,Pin_1*%
%TO.N,VCC*%
X39970000Y4410000D03*
D13*
%TO.P,J8,2,Pin_2*%
%TO.N,GND*%
X39970000Y6950000D03*
%TO.P,J8,3,Pin_3*%
%TO.N,/SCL*%
X39970000Y9490000D03*
%TO.P,J8,4,Pin_4*%
%TO.N,/SDA*%
X39970000Y12030000D03*
%TD*%
D24*
%TO.P,H2,1*%
%TO.N,N/C*%
X60000000Y71750000D03*
D25*
X61800000Y71750000D03*
X61272800Y70477200D03*
X60000000Y69950000D03*
X58727200Y70477200D03*
X58200000Y71750000D03*
X58727200Y73022800D03*
X60000000Y73550000D03*
X61272800Y73022800D03*
%TD*%
D24*
%TO.P,H4,1*%
%TO.N,N/C*%
X60000000Y3250000D03*
D25*
X61800000Y3250000D03*
X61272800Y1977200D03*
X60000000Y1450000D03*
X58727200Y1977200D03*
X58200000Y3250000D03*
X58727200Y4522800D03*
X60000000Y5050000D03*
X61272800Y4522800D03*
%TD*%
D24*
%TO.P,H1,1*%
%TO.N,N/C*%
X15000000Y71750000D03*
D25*
X16800000Y71750000D03*
X16272800Y70477200D03*
X15000000Y69950000D03*
X13727200Y70477200D03*
X13200000Y71750000D03*
X13727200Y73022800D03*
X15000000Y73550000D03*
X16272800Y73022800D03*
%TD*%
D24*
%TO.P,H3,1*%
%TO.N,N/C*%
X15000000Y3250000D03*
D25*
X16800000Y3250000D03*
X16272800Y1977200D03*
X15000000Y1450000D03*
X13727200Y1977200D03*
X13200000Y3250000D03*
X13727200Y4522800D03*
X15000000Y5050000D03*
X16272800Y4522800D03*
%TD*%
D26*
%TO.P,J11,1,Pin_1*%
%TO.N,/D7*%
X27048000Y21682000D03*
D27*
%TO.P,J11,2,Pin_2*%
%TO.N,/D6*%
X29048000Y21682000D03*
%TO.P,J11,3,Pin_3*%
%TO.N,/MISO*%
X31048000Y21682000D03*
%TO.P,J11,4,Pin_4*%
%TO.N,/D5*%
X33048000Y21682000D03*
%TO.P,J11,5,Pin_5*%
%TO.N,/SCK*%
X35048000Y21682000D03*
%TO.P,J11,6,Pin_6*%
%TO.N,/MOSI*%
X37048000Y21682000D03*
%TO.P,J11,7,Pin_7*%
%TO.N,GND*%
X39048000Y21682000D03*
%TO.P,J11,8,Pin_8*%
%TO.N,VCC*%
X41048000Y21682000D03*
%TD*%
D14*
%TO.P,BT2,2,-*%
%TO.N,/minusBAT*%
X11420000Y66090000D03*
D15*
%TO.P,BT2,1,+*%
%TO.N,/conBAT*%
X11420000Y14100000D03*
%TD*%
D28*
%TO.P,JP5,1,A*%
%TO.N,/A0*%
X54453000Y71628000D03*
%TO.P,JP5,2,B*%
%TO.N,/plusBAT*%
X55753000Y71628000D03*
%TD*%
D29*
%TO.P,AE1,1,A*%
%TO.N,Net-(AE1-A)*%
X21224800Y37887200D03*
%TD*%
D18*
%TO.P,R2,1*%
%TO.N,VCC*%
X18380000Y8220000D03*
D19*
%TO.P,R2,2*%
%TO.N,Net-(Q1-G)*%
X15840000Y8220000D03*
%TD*%
D28*
%TO.P,JP3,1,A*%
%TO.N,/plusBAT*%
X51816000Y71628000D03*
%TO.P,JP3,2,B*%
%TO.N,/V_ACCU*%
X50516000Y71628000D03*
%TD*%
D30*
%TO.N,GND*%
X13848373Y11932627D03*
X41748000Y40732000D03*
X26101600Y40274800D03*
X12827000Y11938000D03*
X52619200Y15636800D03*
X22596400Y6238800D03*
X25408998Y40285500D03*
X26558800Y23510800D03*
X34686800Y23714000D03*
X25288800Y23663200D03*
X35906000Y23714000D03*
X36972800Y23714000D03*
X44389600Y37430000D03*
X43170400Y25034800D03*
X24628400Y40274800D03*
X38141200Y23282200D03*
X39055600Y17668800D03*
X11811000Y11938000D03*
X23206000Y23434600D03*
%TO.N,/SS*%
X39970000Y40224000D03*
X32305826Y40107500D03*
%TO.N,/D2*%
X29108798Y41298834D03*
X37208000Y40859000D03*
%TO.N,/SCL*%
X52797000Y32604000D03*
X52797000Y34255000D03*
%TO.N,/SDA*%
X43271816Y40081645D03*
%TO.N,/A0*%
X53213000Y67945000D03*
%TO.N,/MOSI*%
X38065000Y45050000D03*
X33874000Y44542000D03*
X33620000Y40732000D03*
%TO.N,/SCK*%
X30978400Y40808200D03*
X30673600Y24425200D03*
X38248500Y20585262D03*
X36287000Y50130000D03*
%TO.N,/MISO*%
X35677400Y41189200D03*
X54702000Y19523000D03*
X30038600Y23866400D03*
X36541000Y47336000D03*
%TO.N,/RSET*%
X55499000Y61595000D03*
X53721000Y61595000D03*
D31*
%TO.N,/minusBAT*%
X63057202Y61435360D03*
D30*
%TO.N,/D7*%
X21732800Y23663200D03*
X21732800Y22088400D03*
%TO.N,/conBAT*%
X4445000Y6096000D03*
%TD*%
D32*
%TO.N,GND*%
X11816373Y11932627D02*
X11811000Y11938000D01*
D33*
X46320000Y36795000D02*
X44821400Y36795000D01*
D32*
X41018000Y39051000D02*
X41018000Y40002000D01*
X32474400Y24704600D02*
X32128000Y25051000D01*
X13848373Y11932627D02*
X11816373Y11932627D01*
X32824192Y24704600D02*
X33814792Y23714000D01*
X34890000Y6950000D02*
X39970000Y6950000D01*
X50130000Y6950000D02*
X52619200Y9439200D01*
D34*
X24018000Y25051000D02*
X24018000Y24246600D01*
X26558000Y39829298D02*
X26101798Y40285500D01*
D32*
X11811000Y11938000D02*
X11811000Y8501000D01*
D34*
X24018000Y39051000D02*
X24018000Y40016000D01*
X25288000Y25051000D02*
X24018000Y25051000D01*
X26558000Y25051000D02*
X25288000Y25051000D01*
D33*
X44821400Y36795000D02*
X42565400Y39051000D01*
D32*
X38141200Y23282200D02*
X39048000Y22375400D01*
D34*
X26558000Y39051000D02*
X26558000Y39829298D01*
D32*
X39970000Y6950000D02*
X50130000Y6950000D01*
X13848377Y8220000D02*
X15829577Y6238800D01*
X39048000Y17676400D02*
X39055600Y17668800D01*
X39048000Y22375400D02*
X39048000Y21682000D01*
X26558000Y23511600D02*
X26558800Y23510800D01*
D34*
X24018000Y24246600D02*
X23206000Y23434600D01*
D32*
X32824192Y24704600D02*
X33051600Y24704600D01*
X25288000Y25051000D02*
X25288000Y23664000D01*
X33051600Y24704600D02*
X33398000Y25051000D01*
X26558000Y25051000D02*
X26558000Y23511600D01*
X32824192Y24704600D02*
X32474400Y24704600D01*
X39048000Y21682000D02*
X39048000Y17676400D01*
D33*
X46320000Y36795000D02*
X51400000Y36795000D01*
D34*
X24287500Y40285500D02*
X25209002Y40285500D01*
D33*
X42565400Y39051000D02*
X41097500Y39051000D01*
D32*
X11530000Y8220000D02*
X13848377Y8220000D01*
X25288000Y23664000D02*
X25288800Y23663200D01*
X37709400Y23714000D02*
X38141200Y23282200D01*
D34*
X26101798Y40285500D02*
X25408998Y40285500D01*
D33*
X46320000Y46320000D02*
X51400000Y46320000D01*
D32*
X13848377Y11932623D02*
X13848373Y11932627D01*
X33814792Y23714000D02*
X37709400Y23714000D01*
X13848377Y8220000D02*
X13848377Y11932623D01*
X41018000Y40002000D02*
X41748000Y40732000D01*
D34*
X24018000Y40016000D02*
X24287500Y40285500D01*
D32*
X15829577Y6238800D02*
X22596400Y6238800D01*
X52619200Y9439200D02*
X52619200Y15636800D01*
X41018000Y25051000D02*
X45492400Y25051000D01*
X24730000Y6950000D02*
X34890000Y6950000D01*
X45492400Y25051000D02*
X46447000Y24096400D01*
%TO.N,Net-(AE1-A)*%
X25288000Y38286000D02*
X24918000Y37916000D01*
X25288000Y39051000D02*
X25288000Y38286000D01*
X24918000Y37916000D02*
X21323000Y37916000D01*
D35*
%TO.N,/SS*%
X39970000Y40224000D02*
X39970000Y42510000D01*
X32128000Y39081000D02*
X32128000Y39929674D01*
X32128000Y39929674D02*
X32305826Y40107500D01*
%TO.N,/D2*%
X28585000Y57707792D02*
X26002792Y60290000D01*
X28585000Y41822632D02*
X28585000Y57707792D01*
X37208000Y40700000D02*
X37176000Y40732000D01*
X29108798Y41298834D02*
X28585000Y41822632D01*
X37176000Y40732000D02*
X37208000Y40764000D01*
X26002792Y60290000D02*
X24730000Y60290000D01*
X37208000Y40764000D02*
X37208000Y40859000D01*
X37208000Y39081000D02*
X37208000Y40700000D01*
%TO.N,/SCL*%
X34890000Y9490000D02*
X39970000Y9490000D01*
X39970000Y9490000D02*
X50130000Y9490000D01*
X51400000Y26000000D02*
X51400000Y10760000D01*
X50130000Y27270000D02*
X51400000Y26000000D01*
X50765000Y10125000D02*
X51400000Y10760000D01*
X45512412Y56480000D02*
X46233833Y56480000D01*
X46233833Y56480000D02*
X52797000Y49916833D01*
X52797000Y30572000D02*
X50130000Y27905000D01*
X52797000Y49916833D02*
X52797000Y34255000D01*
X52797000Y32604000D02*
X52797000Y30572000D01*
X37430000Y61560000D02*
X40432412Y61560000D01*
X24730000Y9490000D02*
X34890000Y9490000D01*
X50130000Y9490000D02*
X50765000Y10125000D01*
X40432412Y61560000D02*
X45512412Y56480000D01*
%TO.N,/SDA*%
X39970000Y12030000D02*
X50130000Y12030000D01*
X48225000Y27905000D02*
X50130000Y26000000D01*
X34890000Y12030000D02*
X39970000Y12030000D01*
X24730000Y12030000D02*
X34890000Y12030000D01*
X37430000Y44242412D02*
X37937412Y43735000D01*
X37937412Y43735000D02*
X40477412Y43735000D01*
X46320000Y27905000D02*
X48225000Y27905000D01*
X50130000Y12030000D02*
X50130000Y26000000D01*
X43271816Y40940596D02*
X43271816Y40081645D01*
X37430000Y59020000D02*
X37430000Y44242412D01*
X40477412Y43735000D02*
X43271816Y40940596D01*
%TO.N,/A0*%
X41875000Y43780000D02*
X46320000Y39335000D01*
X53340000Y67945000D02*
X54453000Y69058000D01*
X41875000Y51400000D02*
X41875000Y43780000D01*
X41875000Y51400000D02*
X40605000Y52670000D01*
X53213000Y67945000D02*
X53340000Y67945000D01*
X54453000Y69058000D02*
X54453000Y71628000D01*
%TO.N,/A1*%
X42510000Y44415000D02*
X46320000Y40605000D01*
X46320000Y40605000D02*
X50130000Y40605000D01*
X50130000Y40605000D02*
X51400000Y39335000D01*
X42510000Y52035000D02*
X39970000Y54575000D01*
X42510000Y52035000D02*
X42510000Y44415000D01*
%TO.N,/A2*%
X41875000Y55210000D02*
X46320000Y50765000D01*
X46320000Y50765000D02*
X46320000Y48860000D01*
X40605000Y57750000D02*
X41875000Y56480000D01*
X41875000Y56480000D02*
X41875000Y55210000D01*
%TO.N,/A3*%
X42510000Y57115000D02*
X39970000Y59655000D01*
X42510000Y55845000D02*
X49495000Y48860000D01*
X49495000Y48860000D02*
X51400000Y48860000D01*
X42510000Y57115000D02*
X42510000Y55845000D01*
%TO.N,/MOSI*%
X39970000Y45050000D02*
X38065000Y45050000D01*
X33620000Y44288000D02*
X33874000Y44542000D01*
X34668000Y39316000D02*
X33620000Y40364000D01*
X33620000Y40364000D02*
X33620000Y44288000D01*
%TO.N,/SCK*%
X31842588Y41285000D02*
X31125000Y42002588D01*
X31455200Y41285000D02*
X31842588Y41285000D01*
X31125000Y44968000D02*
X36287000Y50130000D01*
X34400300Y22329700D02*
X34315914Y22329700D01*
X30978400Y40808200D02*
X31455200Y41285000D01*
X31580800Y23518000D02*
X30673600Y24425200D01*
X38048000Y22096214D02*
X38048000Y20785762D01*
X35048000Y21682000D02*
X36048000Y22682000D01*
X33398000Y38605000D02*
X33398000Y39938000D01*
X32051000Y41285000D02*
X31842588Y41285000D01*
X31125000Y42002588D02*
X31125000Y44968000D01*
X36048000Y22682000D02*
X37462214Y22682000D01*
X38048000Y20785762D02*
X38248500Y20585262D01*
X33127614Y23518000D02*
X31580800Y23518000D01*
X35048000Y21682000D02*
X34400300Y22329700D01*
X33398000Y39938000D02*
X32051000Y41285000D01*
X34315914Y22329700D02*
X33127614Y23518000D01*
X37462214Y22682000D02*
X38048000Y22096214D01*
%TO.N,/MISO*%
X36115000Y41158000D02*
X36115000Y46910000D01*
X36115000Y41158000D02*
X35708600Y41158000D01*
X31048000Y22730000D02*
X31048000Y21682000D01*
X58533299Y7045000D02*
X57740001Y7838298D01*
X54702000Y15967000D02*
X54702000Y19523000D01*
X35938000Y40981000D02*
X35938000Y39051000D01*
X30038600Y23866400D02*
X30038600Y23739400D01*
X57740001Y12928999D02*
X54702000Y15967000D01*
X35708600Y41158000D02*
X35677400Y41189200D01*
X36115000Y41158000D02*
X35938000Y40981000D01*
X57740001Y7838298D02*
X57740001Y12928999D01*
X66640000Y8220000D02*
X65465000Y7045000D01*
X30038600Y23739400D02*
X31048000Y22730000D01*
X36115000Y46910000D02*
X36541000Y47336000D01*
X65465000Y7045000D02*
X58533299Y7045000D01*
%TO.N,/RSET*%
X66929000Y34004100D02*
X69180000Y31753100D01*
X61468000Y62357000D02*
X65278000Y62357000D01*
X44415000Y61560000D02*
X53686000Y61560000D01*
X60706000Y61595000D02*
X61468000Y62357000D01*
X65278000Y62357000D02*
X66929000Y60706000D01*
X44415000Y61560000D02*
X40605000Y65370000D01*
X53686000Y61560000D02*
X53721000Y61595000D01*
X66929000Y60706000D02*
X66929000Y34004100D01*
X69180000Y31753100D02*
X69180000Y8220000D01*
X55499000Y61595000D02*
X60706000Y61595000D01*
%TO.N,Net-(D1-A)*%
X45050000Y66005000D02*
X45050000Y69180000D01*
D36*
%TO.N,VCC*%
X34890000Y4410000D02*
X39970000Y4410000D01*
X39970000Y4410000D02*
X50130000Y4410000D01*
X53940000Y34255000D02*
X53940000Y57040000D01*
X45050000Y30445000D02*
X44415000Y29810000D01*
X44415000Y29810000D02*
X44415000Y27905000D01*
X54575000Y8220000D02*
X56480000Y8220000D01*
X45050000Y30445000D02*
X48110500Y33505500D01*
D32*
X41048000Y23398000D02*
X41048000Y21682000D01*
D36*
X46471799Y57054501D02*
X45750378Y57054501D01*
D32*
X45532600Y21682000D02*
X46447000Y22596400D01*
D36*
X53107454Y33505500D02*
X53221954Y33620000D01*
X52160000Y4410000D02*
X50130000Y4410000D01*
D32*
X40530000Y23916000D02*
X41048000Y23398000D01*
D36*
X23345901Y6549253D02*
X23345901Y5794099D01*
D32*
X38478000Y24286000D02*
X38848000Y23916000D01*
D36*
X40670378Y62134501D02*
X40665499Y62134501D01*
D37*
X64447000Y63697000D02*
X60081944Y63697000D01*
D36*
X48110500Y33505500D02*
X53107454Y33505500D01*
X53940000Y32985000D02*
X53940000Y8855000D01*
X46486300Y57040000D02*
X46471799Y57054501D01*
X45750378Y57054501D02*
X40670378Y62134501D01*
X38478000Y24642000D02*
X38478000Y25081000D01*
D32*
X44415000Y27905000D02*
X47547000Y24773000D01*
X38478000Y25051000D02*
X38478000Y24286000D01*
X38848000Y23916000D02*
X40530000Y23916000D01*
D36*
X53305000Y33620000D02*
X53940000Y32985000D01*
X53940000Y6190000D02*
X52160000Y4410000D01*
D37*
X59678944Y64100000D02*
X54483000Y64100000D01*
D36*
X40665499Y62134501D02*
X39970000Y62830000D01*
X53940000Y57040000D02*
X46486300Y57040000D01*
D37*
X54483000Y64100000D02*
X50257000Y64100000D01*
D36*
X53940000Y57040000D02*
X54575000Y57675000D01*
D37*
X65190000Y64440000D02*
X64447000Y63697000D01*
D36*
X24730000Y4410000D02*
X34890000Y4410000D01*
X23345901Y5794099D02*
X24730000Y4410000D01*
X45050000Y30445000D02*
X46320000Y30445000D01*
X21675154Y8220000D02*
X23345901Y6549253D01*
X18380000Y8220000D02*
X21675154Y8220000D01*
X53940000Y8855000D02*
X53940000Y6190000D01*
D32*
X47547000Y24773000D02*
X47547000Y23640765D01*
X41048000Y21682000D02*
X45532600Y21682000D01*
D36*
X53940000Y8855000D02*
X54575000Y8220000D01*
D37*
X65190000Y71455500D02*
X65190000Y64440000D01*
D36*
X54575000Y64008000D02*
X54483000Y64100000D01*
X53221954Y33620000D02*
X53305000Y33620000D01*
X46320000Y30445000D02*
X50130000Y30445000D01*
X54575000Y57675000D02*
X54575000Y64008000D01*
X50257000Y64100000D02*
X54067000Y64100000D01*
D32*
X47547000Y23640765D02*
X46502635Y22596400D01*
D37*
X60081944Y63697000D02*
X59678944Y64100000D01*
D36*
X53305000Y33620000D02*
X53940000Y34255000D01*
D37*
%TO.N,/minusBAT*%
X59870000Y58248158D02*
X63057202Y61435360D01*
X59870000Y9070000D02*
X59870000Y58248158D01*
X59020000Y8220000D02*
X59870000Y9070000D01*
%TO.N,/plusBAT*%
X55880000Y65400000D02*
X62750000Y65400000D01*
X55753000Y71628000D02*
X55753000Y65527000D01*
X50257000Y65400000D02*
X51943000Y65400000D01*
X62750000Y65400000D02*
X63490000Y66140000D01*
X51943000Y65400000D02*
X55880000Y65400000D01*
X51816000Y65527000D02*
X51943000Y65400000D01*
X55753000Y65527000D02*
X55880000Y65400000D01*
X51816000Y71628000D02*
X51816000Y65527000D01*
D35*
%TO.N,/D5*%
X17480998Y25457025D02*
X23128023Y19810000D01*
X23128023Y19810000D02*
X31176000Y19810000D01*
X31176000Y19810000D02*
X33048000Y21682000D01*
X24750000Y52800000D02*
X17480998Y45530998D01*
X17480998Y45530998D02*
X17480998Y25457025D01*
%TO.N,/D6*%
X17930499Y26582324D02*
X17930499Y43330499D01*
X21991477Y22712900D02*
X21799923Y22712900D01*
X21799923Y22712900D02*
X17930499Y26582324D01*
X28048000Y22682000D02*
X22022377Y22682000D01*
X22022377Y22682000D02*
X21991477Y22712900D01*
X17930499Y43330499D02*
X24730000Y50130000D01*
X29048000Y21682000D02*
X28048000Y22682000D01*
%TO.N,/D7*%
X18380000Y41240000D02*
X24730000Y47590000D01*
X21732800Y22088400D02*
X22139200Y21682000D01*
X22139200Y21682000D02*
X27048000Y21682000D01*
X18380000Y27016000D02*
X18380000Y41240000D01*
X18380000Y27016000D02*
X21732800Y23663200D01*
%TO.N,/CONFIG*%
X37928003Y65414999D02*
X36931997Y65414999D01*
X23460000Y59655000D02*
X23460000Y63465000D01*
X24095000Y64100000D02*
X35616998Y64100000D01*
X23460000Y63465000D02*
X24095000Y64100000D01*
X24095000Y59020000D02*
X23460000Y59655000D01*
X36931997Y65414999D02*
X35616998Y64100000D01*
X45685000Y59655000D02*
X52185000Y59655000D01*
X26635000Y57750000D02*
X25365000Y59020000D01*
X26635000Y46955000D02*
X26635000Y57750000D01*
X24730000Y45050000D02*
X26635000Y46955000D01*
X45345000Y59655000D02*
X40855001Y64144999D01*
X25365000Y59020000D02*
X24095000Y59020000D01*
X39198003Y64144999D02*
X37928003Y65414999D01*
X40855001Y64144999D02*
X39198003Y64144999D01*
D36*
%TO.N,/conBAT*%
X4445000Y8625000D02*
X4445000Y6096000D01*
X9920000Y14100000D02*
X4445000Y8625000D01*
X11420000Y14100000D02*
X9920000Y14100000D01*
D35*
%TO.N,Net-(Q1-G)*%
X11303000Y12573000D02*
X14732000Y12573000D01*
X14859000Y12446000D02*
X14859000Y10332370D01*
X14732000Y12573000D02*
X14859000Y12446000D01*
X6950000Y8220000D02*
X11303000Y12573000D01*
X15840000Y9351370D02*
X15840000Y8220000D01*
X14859000Y10332370D02*
X15840000Y9351370D01*
D37*
%TO.N,/V_ACCU*%
X50516000Y71628000D02*
X48824000Y73320000D01*
X42840000Y73320000D02*
X39970000Y70450000D01*
X48824000Y73320000D02*
X42840000Y73320000D01*
D35*
%TO.N,Net-(Module2-PD4)*%
X41240000Y68545000D02*
X40605000Y69180000D01*
X45050000Y63465000D02*
X41240000Y67275000D01*
X24095000Y69180000D02*
X22190000Y67275000D01*
X40605000Y69180000D02*
X24095000Y69180000D01*
X22190000Y57115000D02*
X24095000Y55210000D01*
X41240000Y67275000D02*
X41240000Y68545000D01*
X22190000Y67275000D02*
X22190000Y57115000D01*
%TD*%
M02*
